<?xml version="1.0" encoding="UTF-8" standalone="no"?>
<!DOCTYPE svg PUBLIC "-//W3C//DTD SVG 1.1//EN"
 "http://www.w3.org/Graphics/SVG/1.1/DTD/svg11.dtd">
<!-- Generated by graphviz version 2.43.0 (0)
 -->
<!-- Title: is_unescaped_in_path Pages: 1 -->
<svg width="1682pt" height="310pt"
 viewBox="0.00 0.00 1682.00 309.83" xmlns="http://www.w3.org/2000/svg" xmlns:xlink="http://www.w3.org/1999/xlink">
<g id="graph0" class="graph" transform="scale(1 1) rotate(0) translate(4 305.83)">
<title>is_unescaped_in_path</title>
<polygon fill="white" stroke="transparent" points="-4,4 -4,-305.83 1678,-305.83 1678,4 -4,4"/>
<!-- Node1 -->
<g id="node1" class="node">
<title>Node1</title>
<g id="a_node1"><a xlink:title=" ">
<polygon fill="#bfbfbf" stroke="black" points="1561,-134.5 1561,-153.5 1674,-153.5 1674,-134.5 1561,-134.5"/>
<text text-anchor="middle" x="1617.5" y="-141.5" font-family="Helvetica,sans-Serif" font-size="10.00">is_unescaped_in_path</text>
</a>
</g>
</g>
<!-- Node2 -->
<g id="node2" class="node">
<title>Node2</title>
<g id="a_node2"><a xlink:href="group__uri__parse.html#ga062095681104f3175b8265e240989ade" target="_top" xlink:title="Extract uri_path string from request PDU.">
<polygon fill="white" stroke="black" points="1274,-153.5 1274,-172.5 1370,-172.5 1370,-153.5 1274,-153.5"/>
<text text-anchor="middle" x="1322" y="-160.5" font-family="Helvetica,sans-Serif" font-size="10.00">coap_get_uri_path</text>
</a>
</g>
</g>
<!-- Node1&#45;&gt;Node2 -->
<g id="edge1" class="edge">
<title>Node1&#45;&gt;Node2</title>
<path fill="none" stroke="midnightblue" d="M1550.97,-148.24C1496.08,-151.8 1419.06,-156.78 1370.09,-159.95"/>
<polygon fill="midnightblue" stroke="midnightblue" points="1551.2,-151.73 1560.95,-147.6 1550.74,-144.75 1551.2,-151.73"/>
</g>
<!-- Node20 -->
<g id="node20" class="node">
<title>Node20</title>
<g id="a_node20"><a xlink:href="uri_8c.html#a2fe9cec4fe3abcf1606bc725bb54b009" target="_top" xlink:title=" ">
<polygon fill="white" stroke="black" points="1406,-115.5 1406,-134.5 1525,-134.5 1525,-115.5 1406,-115.5"/>
<text text-anchor="middle" x="1465.5" y="-122.5" font-family="Helvetica,sans-Serif" font-size="10.00">is_unescaped_in_query</text>
</a>
</g>
</g>
<!-- Node1&#45;&gt;Node20 -->
<g id="edge28" class="edge">
<title>Node1&#45;&gt;Node20</title>
<path fill="none" stroke="midnightblue" d="M1550.47,-135.64C1542.04,-134.57 1533.46,-133.48 1525.16,-132.43"/>
<polygon fill="midnightblue" stroke="midnightblue" points="1550.28,-139.14 1560.65,-136.93 1551.16,-132.2 1550.28,-139.14"/>
</g>
<!-- Node3 -->
<g id="node3" class="node">
<title>Node3</title>
<g id="a_node3"><a xlink:href="net_8c.html#a1a280312c4bad55cf10243b9b9c3e966" target="_top" xlink:title=" ">
<polygon fill="white" stroke="black" points="1155,-153.5 1155,-172.5 1238,-172.5 1238,-153.5 1155,-153.5"/>
<text text-anchor="middle" x="1196.5" y="-160.5" font-family="Helvetica,sans-Serif" font-size="10.00">handle_request</text>
</a>
</g>
</g>
<!-- Node2&#45;&gt;Node3 -->
<g id="edge2" class="edge">
<title>Node2&#45;&gt;Node3</title>
<path fill="none" stroke="midnightblue" d="M1263.93,-163C1255.3,-163 1246.55,-163 1238.36,-163"/>
<polygon fill="midnightblue" stroke="midnightblue" points="1263.96,-166.5 1273.96,-163 1263.96,-159.5 1263.96,-166.5"/>
</g>
<!-- Node4 -->
<g id="node4" class="node">
<title>Node4</title>
<g id="a_node4"><a xlink:href="group__coap__async__internal.html#ga207685faa6c979bff227eb06a277d1fa" target="_top" xlink:title="Checks if there are any pending Async requests &#45; if so, send them off.">
<polygon fill="white" stroke="black" points="865.5,-234.5 865.5,-253.5 966.5,-253.5 966.5,-234.5 865.5,-234.5"/>
<text text-anchor="middle" x="916" y="-241.5" font-family="Helvetica,sans-Serif" font-size="10.00">coap_check_async</text>
</a>
</g>
</g>
<!-- Node3&#45;&gt;Node4 -->
<g id="edge3" class="edge">
<title>Node3&#45;&gt;Node4</title>
<path fill="none" stroke="midnightblue" d="M1152.82,-175.41C1097.06,-191.63 1000.62,-219.68 950.07,-234.38"/>
<polygon fill="midnightblue" stroke="midnightblue" points="1154.11,-178.68 1162.73,-172.53 1152.15,-171.96 1154.11,-178.68"/>
</g>
<!-- Node12 -->
<g id="node12" class="node">
<title>Node12</title>
<g id="a_node12"><a xlink:href="group__context__internal.html#ga7bb944fc52f772655356d95724317401" target="_top" xlink:title="Dispatches the PDUs from the receive queue in given context.">
<polygon fill="white" stroke="black" points="1021.5,-153.5 1021.5,-172.5 1101.5,-172.5 1101.5,-153.5 1021.5,-153.5"/>
<text text-anchor="middle" x="1061.5" y="-160.5" font-family="Helvetica,sans-Serif" font-size="10.00">coap_dispatch</text>
</a>
</g>
</g>
<!-- Node3&#45;&gt;Node12 -->
<g id="edge15" class="edge">
<title>Node3&#45;&gt;Node12</title>
<path fill="none" stroke="midnightblue" d="M1144.67,-163C1130.36,-163 1115.02,-163 1101.51,-163"/>
<polygon fill="midnightblue" stroke="midnightblue" points="1144.87,-166.5 1154.87,-163 1144.87,-159.5 1144.87,-166.5"/>
</g>
<!-- Node5 -->
<g id="node5" class="node">
<title>Node5</title>
<g id="a_node5"><a xlink:href="group__app__io__internal.html#gaf0cbbb00a6f2f8ac885f0e1575534e34" target="_top" xlink:title="Iterates through all the coap_socket_t structures embedded in endpoints or sessions associated with t...">
<polygon fill="white" stroke="black" points="711.5,-234.5 711.5,-253.5 812.5,-253.5 812.5,-234.5 711.5,-234.5"/>
<text text-anchor="middle" x="762" y="-241.5" font-family="Helvetica,sans-Serif" font-size="10.00">coap_io_prepare_io</text>
</a>
</g>
</g>
<!-- Node4&#45;&gt;Node5 -->
<g id="edge4" class="edge">
<title>Node4&#45;&gt;Node5</title>
<path fill="none" stroke="midnightblue" d="M855.14,-244C841.06,-244 826.2,-244 812.62,-244"/>
<polygon fill="midnightblue" stroke="midnightblue" points="855.23,-247.5 865.23,-244 855.23,-240.5 855.23,-247.5"/>
</g>
<!-- Node8 -->
<g id="node8" class="node">
<title>Node8</title>
<g id="a_node8"><a xlink:href="group__app__io.html#ga2758ed5fdd6ce79ec95ea8dbf72a5644" target="_top" xlink:title="The main message processing loop with additional fds for internal select.">
<polygon fill="white" stroke="black" points="245,-247.5 245,-266.5 377,-266.5 377,-247.5 245,-247.5"/>
<text text-anchor="middle" x="311" y="-254.5" font-family="Helvetica,sans-Serif" font-size="10.00">coap_io_process_with_fds</text>
</a>
</g>
</g>
<!-- Node4&#45;&gt;Node8 -->
<g id="edge14" class="edge">
<title>Node4&#45;&gt;Node8</title>
<path fill="none" stroke="midnightblue" d="M870.8,-256.05C783,-278.26 580.65,-320.87 413,-292 384.47,-287.09 353.21,-275.17 333.13,-266.6"/>
<polygon fill="midnightblue" stroke="midnightblue" points="871.86,-259.39 880.68,-253.51 870.12,-252.61 871.86,-259.39"/>
</g>
<!-- Node6 -->
<g id="node6" class="node">
<title>Node6</title>
<g id="a_node6"><a xlink:href="group__app__io__internal.html#ga3be92476a2c2c12d68c0cd07795c7e34" target="_top" xlink:title="Any now timed out delayed packet is transmitted, along with any packets associated with requested obs...">
<polygon fill="white" stroke="black" points="547,-247.5 547,-266.5 660,-266.5 660,-247.5 547,-247.5"/>
<text text-anchor="middle" x="603.5" y="-254.5" font-family="Helvetica,sans-Serif" font-size="10.00">coap_io_prepare_epoll</text>
</a>
</g>
</g>
<!-- Node5&#45;&gt;Node6 -->
<g id="edge5" class="edge">
<title>Node5&#45;&gt;Node6</title>
<path fill="none" stroke="midnightblue" d="M701.34,-248.96C687.84,-250.08 673.56,-251.26 660.23,-252.37"/>
<polygon fill="midnightblue" stroke="midnightblue" points="701.81,-252.43 711.48,-248.11 701.23,-245.45 701.81,-252.43"/>
</g>
<!-- Node5&#45;&gt;Node8 -->
<g id="edge12" class="edge">
<title>Node5&#45;&gt;Node8</title>
<path fill="none" stroke="midnightblue" d="M728.22,-257.2C708.75,-264.33 683.37,-272.39 660,-276 555.81,-292.11 432.22,-277.49 363.92,-266.5"/>
<polygon fill="midnightblue" stroke="midnightblue" points="729.69,-260.39 737.82,-253.59 727.23,-253.84 729.69,-260.39"/>
</g>
<!-- Node11 -->
<g id="node11" class="node">
<title>Node11</title>
<g id="a_node11"><a xlink:href="net_8h.html#ab54010e3cade80e1417870c87dcd0402" target="_top" xlink:title=" ">
<polygon fill="white" stroke="black" points="571.5,-209.5 571.5,-228.5 635.5,-228.5 635.5,-209.5 571.5,-209.5"/>
<text text-anchor="middle" x="603.5" y="-216.5" font-family="Helvetica,sans-Serif" font-size="10.00">coap_write</text>
</a>
</g>
</g>
<!-- Node5&#45;&gt;Node11 -->
<g id="edge13" class="edge">
<title>Node5&#45;&gt;Node11</title>
<path fill="none" stroke="midnightblue" d="M701.35,-234.47C678.91,-230.89 654.31,-226.96 635.51,-223.95"/>
<polygon fill="midnightblue" stroke="midnightblue" points="701.06,-237.97 711.48,-236.09 702.16,-231.06 701.06,-237.97"/>
</g>
<!-- Node7 -->
<g id="node7" class="node">
<title>Node7</title>
<g id="a_node7"><a xlink:href="group__app__io__internal.html#ga503f851fa137eb8a9c2936e2098c5eb9" target="_top" xlink:title="Process all the epoll events.">
<polygon fill="white" stroke="black" points="416,-200.5 416,-219.5 508,-219.5 508,-200.5 416,-200.5"/>
<text text-anchor="middle" x="462" y="-207.5" font-family="Helvetica,sans-Serif" font-size="10.00">coap_io_do_epoll</text>
</a>
</g>
</g>
<!-- Node6&#45;&gt;Node7 -->
<g id="edge6" class="edge">
<title>Node6&#45;&gt;Node7</title>
<path fill="none" stroke="midnightblue" d="M564.5,-244.2C541.53,-236.46 512.72,-226.75 491.67,-219.66"/>
<polygon fill="midnightblue" stroke="midnightblue" points="563.68,-247.61 574.27,-247.49 565.91,-240.98 563.68,-247.61"/>
</g>
<!-- Node6&#45;&gt;Node8 -->
<g id="edge11" class="edge">
<title>Node6&#45;&gt;Node8</title>
<path fill="none" stroke="midnightblue" d="M536.61,-257C488.88,-257 424.67,-257 377.12,-257"/>
<polygon fill="midnightblue" stroke="midnightblue" points="536.83,-260.5 546.83,-257 536.83,-253.5 536.83,-260.5"/>
</g>
<!-- Node7&#45;&gt;Node8 -->
<g id="edge7" class="edge">
<title>Node7&#45;&gt;Node8</title>
<path fill="none" stroke="midnightblue" d="M421.04,-222.61C396.31,-230.41 365.06,-240.26 342.36,-247.42"/>
<polygon fill="midnightblue" stroke="midnightblue" points="422.36,-225.86 430.85,-219.51 420.26,-219.18 422.36,-225.86"/>
</g>
<!-- Node9 -->
<g id="node9" class="node">
<title>Node9</title>
<g id="a_node9"><a xlink:href="group__app__io.html#ga082f7bbf15d3f37c31c2a0a5e78ea4cf" target="_top" xlink:title="The main I/O processing function.">
<polygon fill="white" stroke="black" points="119,-247.5 119,-266.5 209,-266.5 209,-247.5 119,-247.5"/>
<text text-anchor="middle" x="164" y="-254.5" font-family="Helvetica,sans-Serif" font-size="10.00">coap_io_process</text>
</a>
</g>
</g>
<!-- Node8&#45;&gt;Node9 -->
<g id="edge8" class="edge">
<title>Node8&#45;&gt;Node9</title>
<path fill="none" stroke="midnightblue" d="M234.53,-250.26C225.85,-250.28 217.23,-250.44 209.17,-250.73"/>
<polygon fill="midnightblue" stroke="midnightblue" points="234.7,-253.76 244.71,-250.28 234.72,-246.76 234.7,-253.76"/>
</g>
<!-- Node9&#45;&gt;Node8 -->
<g id="edge9" class="edge">
<title>Node9&#45;&gt;Node8</title>
<path fill="none" stroke="midnightblue" d="M219.41,-263.56C227.67,-263.74 236.25,-263.79 244.71,-263.72"/>
<polygon fill="midnightblue" stroke="midnightblue" points="219.26,-260.05 209.17,-263.27 219.07,-267.05 219.26,-260.05"/>
</g>
<!-- Node10 -->
<g id="node10" class="node">
<title>Node10</title>
<g id="a_node10"><a xlink:href="net_8h.html#ac6b34aa979ec545eb710e45a26c98fc1" target="_top" xlink:title=" ">
<polygon fill="white" stroke="black" points="0,-247.5 0,-266.5 83,-266.5 83,-247.5 0,-247.5"/>
<text text-anchor="middle" x="41.5" y="-254.5" font-family="Helvetica,sans-Serif" font-size="10.00">coap_run_once</text>
</a>
</g>
</g>
<!-- Node9&#45;&gt;Node10 -->
<g id="edge10" class="edge">
<title>Node9&#45;&gt;Node10</title>
<path fill="none" stroke="midnightblue" d="M108.79,-257C100.15,-257 91.34,-257 83.08,-257"/>
<polygon fill="midnightblue" stroke="midnightblue" points="108.81,-260.5 118.81,-257 108.81,-253.5 108.81,-260.5"/>
</g>
<!-- Node13 -->
<g id="node13" class="node">
<title>Node13</title>
<g id="a_node13"><a xlink:href="group__context__internal.html#gae6b8ca457dd41f23372f9e9a7159312b" target="_top" xlink:title="Parses and interprets a CoAP datagram with context ctx.">
<polygon fill="white" stroke="black" points="864,-174.5 864,-193.5 968,-193.5 968,-174.5 864,-174.5"/>
<text text-anchor="middle" x="916" y="-181.5" font-family="Helvetica,sans-Serif" font-size="10.00">coap_handle_dgram</text>
</a>
</g>
</g>
<!-- Node12&#45;&gt;Node13 -->
<g id="edge16" class="edge">
<title>Node12&#45;&gt;Node13</title>
<path fill="none" stroke="midnightblue" d="M1011.36,-170.19C997.38,-172.24 982.12,-174.47 968.02,-176.53"/>
<polygon fill="midnightblue" stroke="midnightblue" points="1011.9,-173.65 1021.29,-168.74 1010.89,-166.72 1011.9,-173.65"/>
</g>
<!-- Node19 -->
<g id="node19" class="node">
<title>Node19</title>
<g id="a_node19"><a xlink:href="net_8c.html#acd36f6fba6d30ab9557e0e6521f4a088" target="_top" xlink:title=" ">
<polygon fill="white" stroke="black" points="553,-133.5 553,-152.5 654,-152.5 654,-133.5 553,-133.5"/>
<text text-anchor="middle" x="603.5" y="-140.5" font-family="Helvetica,sans-Serif" font-size="10.00">coap_read_session</text>
</a>
</g>
</g>
<!-- Node12&#45;&gt;Node19 -->
<g id="edge27" class="edge">
<title>Node12&#45;&gt;Node19</title>
<path fill="none" stroke="midnightblue" d="M1011.01,-160.83C923.35,-156.98 741.77,-149.02 654.06,-145.17"/>
<polygon fill="midnightblue" stroke="midnightblue" points="1011.08,-164.34 1021.23,-161.28 1011.39,-157.34 1011.08,-164.34"/>
</g>
<!-- Node14 -->
<g id="node14" class="node">
<title>Node14</title>
<g id="a_node14"><a xlink:href="net_8c.html#a8534f7860b14e0743529daff196a27ce" target="_top" xlink:title=" ">
<polygon fill="white" stroke="black" points="702,-172 702,-202 822,-202 822,-172 702,-172"/>
<text text-anchor="start" x="710" y="-190" font-family="Helvetica,sans-Serif" font-size="10.00">coap_handle_dgram_for</text>
<text text-anchor="middle" x="762" y="-179" font-family="Helvetica,sans-Serif" font-size="10.00">_proto</text>
</a>
</g>
</g>
<!-- Node13&#45;&gt;Node14 -->
<g id="edge17" class="edge">
<title>Node13&#45;&gt;Node14</title>
<path fill="none" stroke="midnightblue" d="M853.68,-185.21C843.24,-185.42 832.42,-185.63 822.04,-185.83"/>
<polygon fill="midnightblue" stroke="midnightblue" points="854.03,-188.7 863.96,-185.01 853.9,-181.71 854.03,-188.7"/>
</g>
<!-- Node15 -->
<g id="node15" class="node">
<title>Node15</title>
<g id="a_node15"><a xlink:href="net_8c.html#a44ffb4b70e537043e9a9cf344be24b92" target="_top" xlink:title=" ">
<polygon fill="white" stroke="black" points="551.5,-171.5 551.5,-190.5 655.5,-190.5 655.5,-171.5 551.5,-171.5"/>
<text text-anchor="middle" x="603.5" y="-178.5" font-family="Helvetica,sans-Serif" font-size="10.00">coap_read_endpoint</text>
</a>
</g>
</g>
<!-- Node14&#45;&gt;Node15 -->
<g id="edge18" class="edge">
<title>Node14&#45;&gt;Node15</title>
<path fill="none" stroke="midnightblue" d="M691.72,-184.34C679.56,-183.88 667.1,-183.4 655.55,-182.96"/>
<polygon fill="midnightblue" stroke="midnightblue" points="691.71,-187.85 701.83,-184.73 691.98,-180.85 691.71,-187.85"/>
</g>
<!-- Node14&#45;&gt;Node19 -->
<g id="edge24" class="edge">
<title>Node14&#45;&gt;Node19</title>
<path fill="none" stroke="midnightblue" d="M697.78,-169.23C677.54,-163.53 655.9,-157.45 638.57,-152.58"/>
<polygon fill="midnightblue" stroke="midnightblue" points="697.01,-172.64 707.58,-171.98 698.9,-165.9 697.01,-172.64"/>
</g>
<!-- Node15&#45;&gt;Node7 -->
<g id="edge19" class="edge">
<title>Node15&#45;&gt;Node7</title>
<path fill="none" stroke="midnightblue" d="M546.39,-192.66C533.65,-195.31 520.28,-198.09 508.07,-200.63"/>
<polygon fill="midnightblue" stroke="midnightblue" points="547.36,-196.04 556.44,-190.58 545.93,-189.18 547.36,-196.04"/>
</g>
<!-- Node16 -->
<g id="node16" class="node">
<title>Node16</title>
<g id="a_node16"><a xlink:href="group__app__io__internal.html#ga2208802b0711ad20df07271b751b41dc" target="_top" xlink:title="Processes any outstanding read, write, accept or connect I/O as indicated in the coap_socket_t struct...">
<polygon fill="white" stroke="black" points="422.5,-152.5 422.5,-171.5 501.5,-171.5 501.5,-152.5 422.5,-152.5"/>
<text text-anchor="middle" x="462" y="-159.5" font-family="Helvetica,sans-Serif" font-size="10.00">coap_io_do_io</text>
</a>
</g>
</g>
<!-- Node15&#45;&gt;Node16 -->
<g id="edge20" class="edge">
<title>Node15&#45;&gt;Node16</title>
<path fill="none" stroke="midnightblue" d="M541.25,-172.66C527.89,-170.84 514.11,-168.96 501.91,-167.3"/>
<polygon fill="midnightblue" stroke="midnightblue" points="540.97,-176.15 551.35,-174.03 541.91,-169.22 540.97,-176.15"/>
</g>
<!-- Node16&#45;&gt;Node8 -->
<g id="edge21" class="edge">
<title>Node16&#45;&gt;Node8</title>
<path fill="none" stroke="midnightblue" d="M435.98,-176.89C428.55,-181.37 420.42,-186.34 413,-191 381.79,-210.62 345.75,-234.46 326.28,-247.44"/>
<polygon fill="midnightblue" stroke="midnightblue" points="438.14,-179.67 444.91,-171.53 434.54,-173.67 438.14,-179.67"/>
</g>
<!-- Node17 -->
<g id="node17" class="node">
<title>Node17</title>
<g id="a_node17"><a xlink:href="net_8h.html#af937985e2b14a287a849663574d59bcb" target="_top" xlink:title=" ">
<polygon fill="white" stroke="black" points="280,-147.5 280,-166.5 342,-166.5 342,-147.5 280,-147.5"/>
<text text-anchor="middle" x="311" y="-154.5" font-family="Helvetica,sans-Serif" font-size="10.00">coap_read</text>
</a>
</g>
</g>
<!-- Node16&#45;&gt;Node17 -->
<g id="edge22" class="edge">
<title>Node16&#45;&gt;Node17</title>
<path fill="none" stroke="midnightblue" d="M411.94,-160.35C388.88,-159.58 362.12,-158.68 342.1,-158.01"/>
<polygon fill="midnightblue" stroke="midnightblue" points="412.13,-163.86 422.24,-160.7 412.36,-156.87 412.13,-163.86"/>
</g>
<!-- Node18 -->
<g id="node18" class="node">
<title>Node18</title>
<g id="a_node18"><a xlink:href="coap__io__contiki_8c.html#a75a7c93e10ca7858449ba304aad4ea37" target="_top" xlink:title=" ">
<polygon fill="white" stroke="black" points="122.5,-124.5 122.5,-143.5 205.5,-143.5 205.5,-124.5 122.5,-124.5"/>
<text text-anchor="middle" x="164" y="-131.5" font-family="Helvetica,sans-Serif" font-size="10.00">coap_run_once</text>
</a>
</g>
</g>
<!-- Node17&#45;&gt;Node18 -->
<g id="edge23" class="edge">
<title>Node17&#45;&gt;Node18</title>
<path fill="none" stroke="midnightblue" d="M269.92,-150.64C249.94,-147.47 225.81,-143.65 205.73,-140.46"/>
<polygon fill="midnightblue" stroke="midnightblue" points="269.53,-154.12 279.96,-152.23 270.63,-147.21 269.53,-154.12"/>
</g>
<!-- Node19&#45;&gt;Node7 -->
<g id="edge25" class="edge">
<title>Node19&#45;&gt;Node7</title>
<path fill="none" stroke="midnightblue" d="M561.71,-155.97C556.7,-157.85 551.69,-159.88 547,-162 533.61,-168.05 499.27,-188.26 478.88,-200.44"/>
<polygon fill="midnightblue" stroke="midnightblue" points="563.05,-159.21 571.27,-152.53 560.68,-152.62 563.05,-159.21"/>
</g>
<!-- Node19&#45;&gt;Node16 -->
<g id="edge26" class="edge">
<title>Node19&#45;&gt;Node16</title>
<path fill="none" stroke="midnightblue" d="M542.94,-151.11C529.06,-153 514.62,-154.97 501.9,-156.7"/>
<polygon fill="midnightblue" stroke="midnightblue" points="543.49,-154.57 552.92,-149.75 542.54,-147.63 543.49,-154.57"/>
</g>
<!-- Node21 -->
<g id="node21" class="node">
<title>Node21</title>
<g id="a_node21"><a xlink:href="group__uri__parse.html#ga15cc296560619b6f9b80d9005a000167" target="_top" xlink:title="Extract query string from request PDU according to escape rules in 6.5.8.">
<polygon fill="white" stroke="black" points="1279,-115.5 1279,-134.5 1365,-134.5 1365,-115.5 1279,-115.5"/>
<text text-anchor="middle" x="1322" y="-122.5" font-family="Helvetica,sans-Serif" font-size="10.00">coap_get_query</text>
</a>
</g>
</g>
<!-- Node20&#45;&gt;Node21 -->
<g id="edge29" class="edge">
<title>Node20&#45;&gt;Node21</title>
<path fill="none" stroke="midnightblue" d="M1395.5,-125C1385.24,-125 1374.92,-125 1365.42,-125"/>
<polygon fill="midnightblue" stroke="midnightblue" points="1395.72,-128.5 1405.72,-125 1395.72,-121.5 1395.72,-128.5"/>
</g>
<!-- Node21&#45;&gt;Node3 -->
<g id="edge42" class="edge">
<title>Node21&#45;&gt;Node3</title>
<path fill="none" stroke="midnightblue" d="M1280.26,-137.54C1263.46,-142.7 1244.3,-148.6 1228.65,-153.41"/>
<polygon fill="midnightblue" stroke="midnightblue" points="1281.31,-140.88 1289.84,-134.59 1279.25,-134.18 1281.31,-140.88"/>
</g>
<!-- Node22 -->
<g id="node22" class="node">
<title>Node22</title>
<g id="a_node22"><a xlink:href="resource_8c.html#ac502b4f7cc5ef8b6d4a6b7b4d940076a" target="_top" xlink:title=" ">
<polygon fill="white" stroke="black" points="1004,-95.5 1004,-114.5 1119,-114.5 1119,-95.5 1004,-95.5"/>
<text text-anchor="middle" x="1061.5" y="-102.5" font-family="Helvetica,sans-Serif" font-size="10.00">coap_notify_observers</text>
</a>
</g>
</g>
<!-- Node21&#45;&gt;Node22 -->
<g id="edge30" class="edge">
<title>Node21&#45;&gt;Node22</title>
<path fill="none" stroke="midnightblue" d="M1268.82,-120.96C1225.4,-117.6 1163.69,-112.83 1119.09,-109.38"/>
<polygon fill="midnightblue" stroke="midnightblue" points="1268.65,-124.46 1278.89,-121.74 1269.19,-117.48 1268.65,-124.46"/>
</g>
<!-- Node23 -->
<g id="node23" class="node">
<title>Node23</title>
<g id="a_node23"><a xlink:href="group__subscribe__internal.html#ga579bcb559463d3a872831c18d8d9a1c1" target="_top" xlink:title="Checks all known resources to see if they are dirty and then notifies subscribed observers.">
<polygon fill="white" stroke="black" points="867,-95.5 867,-114.5 965,-114.5 965,-95.5 867,-95.5"/>
<text text-anchor="middle" x="916" y="-102.5" font-family="Helvetica,sans-Serif" font-size="10.00">coap_check_notify</text>
</a>
</g>
</g>
<!-- Node22&#45;&gt;Node23 -->
<g id="edge31" class="edge">
<title>Node22&#45;&gt;Node23</title>
<path fill="none" stroke="midnightblue" d="M993.56,-105C984.08,-105 974.47,-105 965.43,-105"/>
<polygon fill="midnightblue" stroke="midnightblue" points="993.79,-108.5 1003.79,-105 993.78,-101.5 993.79,-108.5"/>
</g>
<!-- Node25 -->
<g id="node25" class="node">
<title>Node25</title>
<g id="a_node25"><a xlink:href="resource_8c.html#a1307a6b8dadd6d005352ce02f6cf392f" target="_top" xlink:title=" ">
<polygon fill="white" stroke="black" points="865,-38.5 865,-57.5 967,-57.5 967,-38.5 865,-38.5"/>
<text text-anchor="middle" x="916" y="-45.5" font-family="Helvetica,sans-Serif" font-size="10.00">coap_free_resource</text>
</a>
</g>
</g>
<!-- Node22&#45;&gt;Node25 -->
<g id="edge35" class="edge">
<title>Node22&#45;&gt;Node25</title>
<path fill="none" stroke="midnightblue" d="M1026.91,-91.66C1000.6,-81.2 964.61,-66.91 941.1,-57.57"/>
<polygon fill="midnightblue" stroke="midnightblue" points="1025.9,-95.02 1036.48,-95.46 1028.48,-88.52 1025.9,-95.02"/>
</g>
<!-- Node23&#45;&gt;Node5 -->
<g id="edge32" class="edge">
<title>Node23&#45;&gt;Node5</title>
<path fill="none" stroke="midnightblue" d="M899.76,-122.45C889.5,-134.31 875.75,-150.45 864,-165 847.47,-185.48 848.34,-195.31 828,-212 816.43,-221.5 801.57,-229.08 788.98,-234.47"/>
<polygon fill="midnightblue" stroke="midnightblue" points="902.63,-124.49 906.54,-114.64 897.34,-119.9 902.63,-124.49"/>
</g>
<!-- Node24 -->
<g id="node24" class="node">
<title>Node24</title>
<g id="a_node24"><a xlink:href="coap__io__contiki_8c.html#aaac86ac50793f309678e4951ecf8863f" target="_top" xlink:title=" ">
<polygon fill="white" stroke="black" points="279,-100.5 279,-119.5 343,-119.5 343,-100.5 279,-100.5"/>
<text text-anchor="middle" x="311" y="-107.5" font-family="Helvetica,sans-Serif" font-size="10.00">coap_write</text>
</a>
</g>
</g>
<!-- Node23&#45;&gt;Node24 -->
<g id="edge33" class="edge">
<title>Node23&#45;&gt;Node24</title>
<path fill="none" stroke="midnightblue" d="M856.75,-105.48C731.36,-106.52 439.42,-108.94 343.3,-109.74"/>
<polygon fill="midnightblue" stroke="midnightblue" points="856.96,-108.98 866.93,-105.4 856.9,-101.98 856.96,-108.98"/>
</g>
<!-- Node24&#45;&gt;Node18 -->
<g id="edge34" class="edge">
<title>Node24&#45;&gt;Node18</title>
<path fill="none" stroke="midnightblue" d="M268.93,-116.8C249.13,-120.07 225.45,-123.99 205.7,-127.26"/>
<polygon fill="midnightblue" stroke="midnightblue" points="269.6,-120.23 278.89,-115.15 268.46,-113.33 269.6,-120.23"/>
</g>
<!-- Node26 -->
<g id="node26" class="node">
<title>Node26</title>
<g id="a_node26"><a xlink:href="group__coap__resource.html#ga9a5f0705912b0a35a3d5764e86b94004" target="_top" xlink:title="Registers the given resource for context.">
<polygon fill="white" stroke="black" points="553,-0.5 553,-19.5 654,-19.5 654,-0.5 553,-0.5"/>
<text text-anchor="middle" x="603.5" y="-7.5" font-family="Helvetica,sans-Serif" font-size="10.00">coap_add_resource</text>
</a>
</g>
</g>
<!-- Node25&#45;&gt;Node26 -->
<g id="edge36" class="edge">
<title>Node25&#45;&gt;Node26</title>
<path fill="none" stroke="midnightblue" d="M889.51,-33.53C872.64,-24.8 849.71,-14.54 828,-10 769.32,2.26 700.06,-0.28 654.37,-4.22"/>
<polygon fill="midnightblue" stroke="midnightblue" points="888.21,-36.8 898.68,-38.43 891.51,-30.63 888.21,-36.8"/>
</g>
<!-- Node27 -->
<g id="node27" class="node">
<title>Node27</title>
<g id="a_node27"><a xlink:href="group__coap__resource__internal.html#ga1fae3046ad94fce85a7ea23455328958" target="_top" xlink:title="Deletes all resources from given context and frees their storage.">
<polygon fill="white" stroke="black" points="696,-57.5 696,-76.5 828,-76.5 828,-57.5 696,-57.5"/>
<text text-anchor="middle" x="762" y="-64.5" font-family="Helvetica,sans-Serif" font-size="10.00">coap_delete_all_resources</text>
</a>
</g>
</g>
<!-- Node25&#45;&gt;Node27 -->
<g id="edge37" class="edge">
<title>Node25&#45;&gt;Node27</title>
<path fill="none" stroke="midnightblue" d="M854.69,-55.54C845.94,-56.63 836.89,-57.76 828.05,-58.87"/>
<polygon fill="midnightblue" stroke="midnightblue" points="855.32,-58.99 864.81,-54.27 854.45,-52.04 855.32,-58.99"/>
</g>
<!-- Node30 -->
<g id="node30" class="node">
<title>Node30</title>
<g id="a_node30"><a xlink:href="group__coap__resource.html#gad3521b724ad4961e6bb11801fd82a3e3" target="_top" xlink:title="Deletes a resource identified by resource.">
<polygon fill="white" stroke="black" points="706,-19.5 706,-38.5 818,-38.5 818,-19.5 706,-19.5"/>
<text text-anchor="middle" x="762" y="-26.5" font-family="Helvetica,sans-Serif" font-size="10.00">coap_delete_resource</text>
</a>
</g>
</g>
<!-- Node25&#45;&gt;Node30 -->
<g id="edge40" class="edge">
<title>Node25&#45;&gt;Node30</title>
<path fill="none" stroke="midnightblue" d="M854.8,-40.48C842.7,-38.96 830.04,-37.38 818.12,-35.89"/>
<polygon fill="midnightblue" stroke="midnightblue" points="854.45,-43.96 864.81,-41.73 855.32,-37.01 854.45,-43.96"/>
</g>
<!-- Node28 -->
<g id="node28" class="node">
<title>Node28</title>
<g id="a_node28"><a xlink:href="group__context.html#ga4a0717822713783908dd33d300440b2e" target="_top" xlink:title="CoAP stack context must be released with coap_free_context().">
<polygon fill="white" stroke="black" points="555,-57.5 555,-76.5 652,-76.5 652,-57.5 555,-57.5"/>
<text text-anchor="middle" x="603.5" y="-64.5" font-family="Helvetica,sans-Serif" font-size="10.00">coap_free_context</text>
</a>
</g>
</g>
<!-- Node27&#45;&gt;Node28 -->
<g id="edge38" class="edge">
<title>Node27&#45;&gt;Node28</title>
<path fill="none" stroke="midnightblue" d="M685.98,-67C674.54,-67 663.01,-67 652.37,-67"/>
<polygon fill="midnightblue" stroke="midnightblue" points="685.99,-70.5 695.99,-67 685.99,-63.5 685.99,-70.5"/>
</g>
<!-- Node29 -->
<g id="node29" class="node">
<title>Node29</title>
<g id="a_node29"><a xlink:href="group__context.html#ga8baf4e3608ff5eb00adac694fe25eb60" target="_top" xlink:title="Creates a new coap_context_t object that will hold the CoAP stack status.">
<polygon fill="white" stroke="black" points="413,-57.5 413,-76.5 511,-76.5 511,-57.5 413,-57.5"/>
<text text-anchor="middle" x="462" y="-64.5" font-family="Helvetica,sans-Serif" font-size="10.00">coap_new_context</text>
</a>
</g>
</g>
<!-- Node28&#45;&gt;Node29 -->
<g id="edge39" class="edge">
<title>Node28&#45;&gt;Node29</title>
<path fill="none" stroke="midnightblue" d="M544.82,-67C533.69,-67 522.14,-67 511.35,-67"/>
<polygon fill="midnightblue" stroke="midnightblue" points="544.88,-70.5 554.88,-67 544.88,-63.5 544.88,-70.5"/>
</g>
<!-- Node30&#45;&gt;Node26 -->
<g id="edge41" class="edge">
<title>Node30&#45;&gt;Node26</title>
<path fill="none" stroke="midnightblue" d="M695.82,-21.09C681.91,-19.4 667.44,-17.64 654.22,-16.04"/>
<polygon fill="midnightblue" stroke="midnightblue" points="695.47,-24.57 705.82,-22.3 696.32,-17.62 695.47,-24.57"/>
</g>
</g>
</svg>
