<?xml version="1.0" encoding="UTF-8" standalone="no"?>
<!DOCTYPE svg PUBLIC "-//W3C//DTD SVG 1.1//EN"
 "http://www.w3.org/Graphics/SVG/1.1/DTD/svg11.dtd">
<!-- Generated by graphviz version 2.43.0 (0)
 -->
<!-- Title: _coap_address_isany_impl Pages: 1 -->
<svg width="611pt" height="28pt"
 viewBox="0.00 0.00 611.00 28.00" xmlns="http://www.w3.org/2000/svg" xmlns:xlink="http://www.w3.org/1999/xlink">
<g id="graph0" class="graph" transform="scale(1 1) rotate(0) translate(4 24)">
<title>_coap_address_isany_impl</title>
<polygon fill="white" stroke="transparent" points="-4,4 -4,-24 607,-24 607,4 -4,4"/>
<!-- Node1 -->
<g id="node1" class="node">
<title>Node1</title>
<g id="a_node1"><a xlink:title=" ">
<polygon fill="#bfbfbf" stroke="black" points="456,-0.5 456,-19.5 603,-19.5 603,-0.5 456,-0.5"/>
<text text-anchor="middle" x="529.5" y="-7.5" font-family="Helvetica,sans-Serif" font-size="10.00">_coap_address_isany_impl</text>
</a>
</g>
</g>
<!-- Node2 -->
<g id="node2" class="node">
<title>Node2</title>
<g id="a_node2"><a xlink:href="coap__address_8h.html#a021998c955a6787c5cab7b1c385bef63" target="_top" xlink:title="Checks if given address object a denotes the wildcard address.">
<polygon fill="white" stroke="black" points="305,-0.5 305,-19.5 420,-19.5 420,-0.5 305,-0.5"/>
<text text-anchor="middle" x="362.5" y="-7.5" font-family="Helvetica,sans-Serif" font-size="10.00">coap_address_isany</text>
</a>
</g>
</g>
<!-- Node1&#45;&gt;Node2 -->
<g id="edge1" class="edge">
<title>Node1&#45;&gt;Node2</title>
<path fill="none" stroke="midnightblue" d="M445.55,-10C436.94,-10 428.33,-10 420.1,-10"/>
<polygon fill="midnightblue" stroke="midnightblue" points="445.65,-13.5 455.65,-10 445.65,-6.5 445.65,-13.5"/>
</g>
<!-- Node3 -->
<g id="node3" class="node">
<title>Node3</title>
<g id="a_node3"><a xlink:href="coap__io_8c.html#a35f848af42969271891f26fd235ef443" target="_top" xlink:title="Function interface for data transmission.">
<polygon fill="white" stroke="black" points="164,-0.5 164,-19.5 269,-19.5 269,-0.5 164,-0.5"/>
<text text-anchor="middle" x="216.5" y="-7.5" font-family="Helvetica,sans-Serif" font-size="10.00">coap_socket_send</text>
</a>
</g>
</g>
<!-- Node2&#45;&gt;Node3 -->
<g id="edge2" class="edge">
<title>Node2&#45;&gt;Node3</title>
<path fill="none" stroke="midnightblue" d="M294.39,-10C285.97,-10 277.46,-10 269.32,-10"/>
<polygon fill="midnightblue" stroke="midnightblue" points="294.59,-13.5 304.59,-10 294.59,-6.5 294.59,-13.5"/>
</g>
<!-- Node4 -->
<g id="node4" class="node">
<title>Node4</title>
<g id="a_node4"><a xlink:href="group__netif__internal.html#ga3cda89bfc93e09726c4af63fbe942276" target="_top" xlink:title="Function interface for netif datagram data transmission.">
<polygon fill="white" stroke="black" points="0,-0.5 0,-19.5 128,-19.5 128,-0.5 0,-0.5"/>
<text text-anchor="middle" x="64" y="-7.5" font-family="Helvetica,sans-Serif" font-size="10.00">coap_netif_dgrm_write</text>
</a>
</g>
</g>
<!-- Node3&#45;&gt;Node4 -->
<g id="edge3" class="edge">
<title>Node3&#45;&gt;Node4</title>
<path fill="none" stroke="midnightblue" d="M153.58,-10C145.16,-10 136.51,-10 128.07,-10"/>
<polygon fill="midnightblue" stroke="midnightblue" points="153.71,-13.5 163.71,-10 153.71,-6.5 153.71,-13.5"/>
</g>
</g>
</svg>
