<?xml version="1.0" encoding="UTF-8" standalone="no"?>
<!DOCTYPE svg PUBLIC "-//W3C//DTD SVG 1.1//EN"
 "http://www.w3.org/Graphics/SVG/1.1/DTD/svg11.dtd">
<!-- Generated by graphviz version 2.43.0 (0)
 -->
<!-- Title: coap_epoll_ctl_mod Pages: 1 -->
<svg width="1253pt" height="123pt"
 viewBox="0.00 0.00 1253.00 123.00" xmlns="http://www.w3.org/2000/svg" xmlns:xlink="http://www.w3.org/1999/xlink">
<g id="graph0" class="graph" transform="scale(1 1) rotate(0) translate(4 119)">
<title>coap_epoll_ctl_mod</title>
<polygon fill="white" stroke="transparent" points="-4,4 -4,-119 1249,-119 1249,4 -4,4"/>
<!-- Node1 -->
<g id="node1" class="node">
<title>Node1</title>
<g id="a_node1"><a xlink:title="Epoll specific function to modify the state of events that epoll is tracking on the appropriate file ...">
<polygon fill="#bfbfbf" stroke="black" points="1132,-19.5 1132,-38.5 1245,-38.5 1245,-19.5 1132,-19.5"/>
<text text-anchor="middle" x="1188.5" y="-26.5" font-family="Helvetica,sans-Serif" font-size="10.00">coap_epoll_ctl_mod</text>
</a>
</g>
</g>
<!-- Node2 -->
<g id="node2" class="node">
<title>Node2</title>
<g id="a_node2"><a xlink:href="group__app__io__internal.html#ga503f851fa137eb8a9c2936e2098c5eb9" target="_top" xlink:title="Process all the epoll events.">
<polygon fill="white" stroke="black" points="992,-38.5 992,-57.5 1093,-57.5 1093,-38.5 992,-38.5"/>
<text text-anchor="middle" x="1042.5" y="-45.5" font-family="Helvetica,sans-Serif" font-size="10.00">coap_io_do_epoll</text>
</a>
</g>
</g>
<!-- Node1&#45;&gt;Node2 -->
<g id="edge1" class="edge">
<title>Node1&#45;&gt;Node2</title>
<path fill="none" stroke="midnightblue" d="M1121.62,-37.69C1112.13,-38.95 1102.49,-40.22 1093.38,-41.42"/>
<polygon fill="midnightblue" stroke="midnightblue" points="1122.37,-41.12 1131.83,-36.35 1121.45,-34.18 1122.37,-41.12"/>
</g>
<!-- Node13 -->
<g id="node13" class="node">
<title>Node13</title>
<g id="a_node13"><a xlink:href="coap__io_8c.html#a53d8fd138fc5bf331c2bf71d72ac4848" target="_top" xlink:title="Function interface for data stream sending off a socket.">
<polygon fill="white" stroke="black" points="989,-0.5 989,-19.5 1096,-19.5 1096,-0.5 989,-0.5"/>
<text text-anchor="middle" x="1042.5" y="-7.5" font-family="Helvetica,sans-Serif" font-size="10.00">coap_socket_write</text>
</a>
</g>
</g>
<!-- Node1&#45;&gt;Node13 -->
<g id="edge12" class="edge">
<title>Node1&#45;&gt;Node13</title>
<path fill="none" stroke="midnightblue" d="M1121.83,-20.33C1113.24,-19.2 1104.53,-18.05 1096.19,-16.95"/>
<polygon fill="midnightblue" stroke="midnightblue" points="1121.45,-23.82 1131.83,-21.65 1122.37,-16.88 1121.45,-23.82"/>
</g>
<!-- Node3 -->
<g id="node3" class="node">
<title>Node3</title>
<g id="a_node3"><a xlink:href="group__app__io.html#ga2758ed5fdd6ce79ec95ea8dbf72a5644" target="_top" xlink:title="The main message processing loop with additional fds for internal select.">
<polygon fill="white" stroke="black" points="810,-38.5 810,-57.5 953,-57.5 953,-38.5 810,-38.5"/>
<text text-anchor="middle" x="881.5" y="-45.5" font-family="Helvetica,sans-Serif" font-size="10.00">coap_io_process_with_fds</text>
</a>
</g>
</g>
<!-- Node2&#45;&gt;Node3 -->
<g id="edge2" class="edge">
<title>Node2&#45;&gt;Node3</title>
<path fill="none" stroke="midnightblue" d="M981.4,-48C972.18,-48 962.59,-48 953.16,-48"/>
<polygon fill="midnightblue" stroke="midnightblue" points="981.63,-51.5 991.63,-48 981.63,-44.5 981.63,-51.5"/>
</g>
<!-- Node4 -->
<g id="node4" class="node">
<title>Node4</title>
<g id="a_node4"><a xlink:href="group__app__io.html#ga082f7bbf15d3f37c31c2a0a5e78ea4cf" target="_top" xlink:title="The main I/O processing function.">
<polygon fill="white" stroke="black" points="677,-38.5 677,-57.5 774,-57.5 774,-38.5 677,-38.5"/>
<text text-anchor="middle" x="725.5" y="-45.5" font-family="Helvetica,sans-Serif" font-size="10.00">coap_io_process</text>
</a>
</g>
</g>
<!-- Node3&#45;&gt;Node4 -->
<g id="edge3" class="edge">
<title>Node3&#45;&gt;Node4</title>
<path fill="none" stroke="midnightblue" d="M799.65,-48C790.99,-48 782.4,-48 774.32,-48"/>
<polygon fill="midnightblue" stroke="midnightblue" points="799.81,-51.5 809.81,-48 799.81,-44.5 799.81,-51.5"/>
</g>
<!-- Node5 -->
<g id="node5" class="node">
<title>Node5</title>
<g id="a_node5"><a xlink:href="group__context__internal.html#ga5d013d40174c7c217b24bf624f9d7310" target="_top" xlink:title="Delay the sending of the first client request until some other negotiation has completed.">
<polygon fill="white" stroke="black" points="513,-76.5 513,-95.5 641,-95.5 641,-76.5 513,-76.5"/>
<text text-anchor="middle" x="577" y="-83.5" font-family="Helvetica,sans-Serif" font-size="10.00">coap_client_delay_first</text>
</a>
</g>
</g>
<!-- Node4&#45;&gt;Node5 -->
<g id="edge4" class="edge">
<title>Node4&#45;&gt;Node5</title>
<path fill="none" stroke="midnightblue" d="M677.8,-60.11C657.4,-65.4 633.82,-71.52 614.7,-76.48"/>
<polygon fill="midnightblue" stroke="midnightblue" points="678.73,-63.49 687.53,-57.59 676.97,-56.71 678.73,-63.49"/>
</g>
<!-- Node11 -->
<g id="node11" class="node">
<title>Node11</title>
<g id="a_node11"><a xlink:href="group__app__io.html#gaca10debdb496ee890c45fe49a5799330" target="_top" xlink:title="Check to see if there is any i/o pending for the context.">
<polygon fill="white" stroke="black" points="528,-38.5 528,-57.5 626,-57.5 626,-38.5 528,-38.5"/>
<text text-anchor="middle" x="577" y="-45.5" font-family="Helvetica,sans-Serif" font-size="10.00">coap_io_pending</text>
</a>
</g>
</g>
<!-- Node4&#45;&gt;Node11 -->
<g id="edge10" class="edge">
<title>Node4&#45;&gt;Node11</title>
<path fill="none" stroke="midnightblue" d="M666.8,-48C653.31,-48 639.09,-48 626.08,-48"/>
<polygon fill="midnightblue" stroke="midnightblue" points="666.94,-51.5 676.94,-48 666.94,-44.5 666.94,-51.5"/>
</g>
<!-- Node12 -->
<g id="node12" class="node">
<title>Node12</title>
<g id="a_node12"><a xlink:href="coap__net_8h.html#ac6b34aa979ec545eb710e45a26c98fc1" target="_top" xlink:title=" ">
<polygon fill="white" stroke="black" points="532.5,-0.5 532.5,-19.5 621.5,-19.5 621.5,-0.5 532.5,-0.5"/>
<text text-anchor="middle" x="577" y="-7.5" font-family="Helvetica,sans-Serif" font-size="10.00">coap_run_once</text>
</a>
</g>
</g>
<!-- Node4&#45;&gt;Node12 -->
<g id="edge11" class="edge">
<title>Node4&#45;&gt;Node12</title>
<path fill="none" stroke="midnightblue" d="M677.8,-35.89C657.4,-30.6 633.82,-24.48 614.7,-19.52"/>
<polygon fill="midnightblue" stroke="midnightblue" points="676.97,-39.29 687.53,-38.41 678.73,-32.51 676.97,-39.29"/>
</g>
<!-- Node6 -->
<g id="node6" class="node">
<title>Node6</title>
<g id="a_node6"><a xlink:href="group__context.html#gaeadf53fc0202c2a9c881406d4aa12a4c" target="_top" xlink:title="Sends a CoAP message to given peer.">
<polygon fill="white" stroke="black" points="364.5,-95.5 364.5,-114.5 432.5,-114.5 432.5,-95.5 364.5,-95.5"/>
<text text-anchor="middle" x="398.5" y="-102.5" font-family="Helvetica,sans-Serif" font-size="10.00">coap_send</text>
</a>
</g>
</g>
<!-- Node5&#45;&gt;Node6 -->
<g id="edge5" class="edge">
<title>Node5&#45;&gt;Node6</title>
<path fill="none" stroke="midnightblue" d="M502.8,-93.88C478.4,-96.51 452.41,-99.3 432.61,-101.44"/>
<polygon fill="midnightblue" stroke="midnightblue" points="503.21,-97.36 512.78,-92.81 502.46,-90.4 503.21,-97.36"/>
</g>
<!-- Node7 -->
<g id="node7" class="node">
<title>Node7</title>
<g id="a_node7"><a xlink:href="group__session.html#ga4368ee622c681bf7cf0b7cfe99c8ab37" target="_top" xlink:title="Get maximum acceptable PDU size.">
<polygon fill="white" stroke="black" points="320,-57.5 320,-76.5 477,-76.5 477,-57.5 320,-57.5"/>
<text text-anchor="middle" x="398.5" y="-64.5" font-family="Helvetica,sans-Serif" font-size="10.00">coap_session_max_pdu_size</text>
</a>
</g>
</g>
<!-- Node5&#45;&gt;Node7 -->
<g id="edge6" class="edge">
<title>Node5&#45;&gt;Node7</title>
<path fill="none" stroke="midnightblue" d="M502.61,-78.1C494.17,-77.19 485.56,-76.26 477.07,-75.35"/>
<polygon fill="midnightblue" stroke="midnightblue" points="502.46,-81.6 512.78,-79.19 503.21,-74.64 502.46,-81.6"/>
</g>
<!-- Node8 -->
<g id="node8" class="node">
<title>Node8</title>
<g id="a_node8"><a xlink:href="group__pdu.html#ga6ab63e25c7c9eed3de00b0e1153b33b6" target="_top" xlink:title="Creates a new CoAP PDU.">
<polygon fill="white" stroke="black" points="183,-76.5 183,-95.5 272,-95.5 272,-76.5 183,-76.5"/>
<text text-anchor="middle" x="227.5" y="-83.5" font-family="Helvetica,sans-Serif" font-size="10.00">coap_new_pdu</text>
</a>
</g>
</g>
<!-- Node7&#45;&gt;Node8 -->
<g id="edge7" class="edge">
<title>Node7&#45;&gt;Node8</title>
<path fill="none" stroke="midnightblue" d="M309.96,-76.84C296.93,-78.31 284,-79.76 272.4,-81.06"/>
<polygon fill="midnightblue" stroke="midnightblue" points="310.38,-80.32 319.92,-75.72 309.6,-73.36 310.38,-80.32"/>
</g>
<!-- Node9 -->
<g id="node9" class="node">
<title>Node9</title>
<g id="a_node9"><a xlink:href="group__pdu.html#gabf10450d37381b133fb780480b4fca1b" target="_top" xlink:title="Duplicate an existing PDU.">
<polygon fill="white" stroke="black" points="171,-38.5 171,-57.5 284,-57.5 284,-38.5 171,-38.5"/>
<text text-anchor="middle" x="227.5" y="-45.5" font-family="Helvetica,sans-Serif" font-size="10.00">coap_pdu_duplicate</text>
</a>
</g>
</g>
<!-- Node7&#45;&gt;Node9 -->
<g id="edge8" class="edge">
<title>Node7&#45;&gt;Node9</title>
<path fill="none" stroke="midnightblue" d="M309.8,-57.14C301.17,-56.17 292.59,-55.21 284.41,-54.29"/>
<polygon fill="midnightblue" stroke="midnightblue" points="309.6,-60.64 319.92,-58.28 310.38,-53.68 309.6,-60.64"/>
</g>
<!-- Node10 -->
<g id="node10" class="node">
<title>Node10</title>
<g id="a_node10"><a xlink:href="group__oscore__internal.html#ga8cf885624714b9a4705974adf2629cb2" target="_top" xlink:title=" ">
<polygon fill="white" stroke="black" points="0,-38.5 0,-57.5 135,-57.5 135,-38.5 0,-38.5"/>
<text text-anchor="middle" x="67.5" y="-45.5" font-family="Helvetica,sans-Serif" font-size="10.00">oscore_new_association</text>
</a>
</g>
</g>
<!-- Node9&#45;&gt;Node10 -->
<g id="edge9" class="edge">
<title>Node9&#45;&gt;Node10</title>
<path fill="none" stroke="midnightblue" d="M160.62,-48C152.18,-48 143.53,-48 135.07,-48"/>
<polygon fill="midnightblue" stroke="midnightblue" points="160.8,-51.5 170.8,-48 160.8,-44.5 160.8,-51.5"/>
</g>
<!-- Node14 -->
<g id="node14" class="node">
<title>Node14</title>
<g id="a_node14"><a xlink:href="group__netif__internal.html#ga71e75126ada5b70e7e52e55e82b185a0" target="_top" xlink:title="Function interface for netif stream data transmission.">
<polygon fill="white" stroke="black" points="819,-0.5 819,-19.5 944,-19.5 944,-0.5 819,-0.5"/>
<text text-anchor="middle" x="881.5" y="-7.5" font-family="Helvetica,sans-Serif" font-size="10.00">coap_netif_strm_write</text>
</a>
</g>
</g>
<!-- Node13&#45;&gt;Node14 -->
<g id="edge13" class="edge">
<title>Node13&#45;&gt;Node14</title>
<path fill="none" stroke="midnightblue" d="M978.69,-10C967.29,-10 955.42,-10 944.05,-10"/>
<polygon fill="midnightblue" stroke="midnightblue" points="979,-13.5 989,-10 979,-6.5 979,-13.5"/>
</g>
</g>
</svg>
