<?xml version="1.0" encoding="UTF-8" standalone="no"?>
<!DOCTYPE svg PUBLIC "-//W3C//DTD SVG 1.1//EN"
 "http://www.w3.org/Graphics/SVG/1.1/DTD/svg11.dtd">
<!-- Generated by graphviz version 2.43.0 (0)
 -->
<!-- Title: src Pages: 1 -->
<svg width="182pt" height="175pt"
 viewBox="0.00 0.00 182.00 175.00" xmlns="http://www.w3.org/2000/svg" xmlns:xlink="http://www.w3.org/1999/xlink">
<g id="graph0" class="graph" transform="scale(1 1) rotate(0) translate(4 171)">
<title>src</title>
<polygon fill="white" stroke="transparent" points="-4,4 -4,-171 178,-171 178,4 -4,4"/>
<g id="clust1" class="cluster">
<title>clusterdir_bf2ee40eb494983a4f043a5878d1eec8</title>
<g id="a_clust1"><a xlink:href="dir_bf2ee40eb494983a4f043a5878d1eec8.html" target="_top" xlink:title="libcoap">
<polygon fill="#edf0f7" stroke="#404040" stroke-dasharray="5,2" points="8,-8 8,-159 166,-159 166,-8 8,-8"/>
<text text-anchor="middle" x="87" y="-147" font-family="Helvetica,sans-Serif" font-size="10.00">libcoap</text>
</a>
</g>
</g>
<g id="clust2" class="cluster">
<title>clusterdir_fe4410d4501daacfbb88cffa79f31986</title>
<g id="a_clust2"><a xlink:href="dir_fe4410d4501daacfbb88cffa79f31986.html" target="_top">
<polygon fill="#edf0f7" stroke="#404040" stroke-width="2" points="16,-80 16,-132 158,-132 158,-80 16,-80"/>
</a>
</g>
</g>
<!-- dir_b5162ffb3ea18d9280c1a452d22e166c -->
<g id="node1" class="node">
<title>dir_b5162ffb3ea18d9280c1a452d22e166c</title>
<g id="a_node1"><a xlink:href="dir_b5162ffb3ea18d9280c1a452d22e166c.html" target="_top" xlink:title="include">
<polygon fill="#a2b4d6" stroke="red" points="114,-52 60,-52 60,-16 114,-16 114,-52"/>
<text text-anchor="middle" x="87" y="-31.5" font-family="Helvetica,sans-Serif" font-size="10.00">include</text>
</a>
</g>
</g>
<!-- dir_fe4410d4501daacfbb88cffa79f31986 -->
<g id="node2" class="node">
<title>dir_fe4410d4501daacfbb88cffa79f31986</title>
<text text-anchor="middle" x="123" y="-103.5" font-family="Helvetica,sans-Serif" font-size="10.00">src</text>
</g>
<!-- dir_fe4410d4501daacfbb88cffa79f31986&#45;&gt;dir_b5162ffb3ea18d9280c1a452d22e166c -->
<g id="edge1" class="edge">
<title>dir_fe4410d4501daacfbb88cffa79f31986&#45;&gt;dir_b5162ffb3ea18d9280c1a452d22e166c</title>
<path fill="none" stroke="black" d="M114.1,-87.7C110,-79.73 105.05,-70.1 100.51,-61.26"/>
<polygon fill="black" stroke="black" points="103.48,-59.4 95.8,-52.1 97.26,-62.6 103.48,-59.4"/>
<g id="a_edge1&#45;headlabel"><a xlink:href="dir_000007_000002.html" target="_top" xlink:title="38">
<text text-anchor="middle" x="107.65" y="-58.79" font-family="Helvetica,sans-Serif" font-size="10.00">38</text>
</a>
</g>
</g>
<!-- dir_8f5958eef10730bbd25e0584b8f8249a -->
<g id="node3" class="node">
<title>dir_8f5958eef10730bbd25e0584b8f8249a</title>
<g id="a_node3"><a xlink:href="dir_8f5958eef10730bbd25e0584b8f8249a.html" target="_top" xlink:title="oscore">
<polygon fill="#a2b4d6" stroke="#404040" points="78,-124 24,-124 24,-88 78,-88 78,-124"/>
<text text-anchor="middle" x="51" y="-103.5" font-family="Helvetica,sans-Serif" font-size="10.00">oscore</text>
</a>
</g>
</g>
<!-- dir_8f5958eef10730bbd25e0584b8f8249a&#45;&gt;dir_b5162ffb3ea18d9280c1a452d22e166c -->
<g id="edge2" class="edge">
<title>dir_8f5958eef10730bbd25e0584b8f8249a&#45;&gt;dir_b5162ffb3ea18d9280c1a452d22e166c</title>
<path fill="none" stroke="black" d="M59.9,-87.7C64,-79.73 68.95,-70.1 73.49,-61.26"/>
<polygon fill="black" stroke="black" points="76.74,-62.6 78.2,-52.1 70.52,-59.4 76.74,-62.6"/>
<g id="a_edge2&#45;headlabel"><a xlink:href="dir_000006_000002.html" target="_top" xlink:title="5">
<text text-anchor="middle" x="77.62" y="-64.59" font-family="Helvetica,sans-Serif" font-size="10.00">5</text>
</a>
</g>
</g>
</g>
</svg>
