<?xml version="1.0" encoding="UTF-8" standalone="no"?>
<!DOCTYPE svg PUBLIC "-//W3C//DTD SVG 1.1//EN"
 "http://www.w3.org/Graphics/SVG/1.1/DTD/svg11.dtd">
<!-- Generated by graphviz version 2.43.0 (0)
 -->
<!-- Title: coap_opt_block_num Pages: 1 -->
<!--zoomable 704 -->
<svg id="main" version="1.1" xmlns="http://www.w3.org/2000/svg" xmlns:xlink="http://www.w3.org/1999/xlink" xml:space="preserve" onload="init(evt)">
<style type="text/css"><![CDATA[
.edge:hover path { stroke: red; }
.edge:hover polygon { stroke: red; fill: red; }
]]></style>
<script type="text/javascript"><![CDATA[
var edges = document.getElementsByTagName('g');
if (edges && edges.length) {
  for (var i=0;i<edges.length;i++) {
    if (edges[i].id.substr(0,4)=='edge') {
      edges[i].setAttribute('class','edge');
    }
  }
}
]]></script>
        <defs>
                <circle id="rim" cx="0" cy="0" r="7"/>
                <circle id="rim2" cx="0" cy="0" r="3.5"/>
                <g id="zoomPlus">
                        <use xlink:href="#rim" fill="#404040">
                                <set attributeName="fill" to="#808080" begin="zoomplus.mouseover" end="zoomplus.mouseout"/>
                        </use>
                        <path d="M-4,0h8M0,-4v8" fill="none" stroke="white" stroke-width="1.5" pointer-events="none"/>
                </g>
                <g id="zoomMin">
                        <use xlink:href="#rim" fill="#404040">
                                <set attributeName="fill" to="#808080" begin="zoomminus.mouseover" end="zoomminus.mouseout"/>
                        </use>
                        <path d="M-4,0h8" fill="none" stroke="white" stroke-width="1.5" pointer-events="none"/>
                </g>
                <g id="dirArrow">
                        <path fill="none" stroke="white" stroke-width="1.5" d="M0,-3.0v7 M-2.5,-0.5L0,-3.0L2.5,-0.5"/>
                </g>
               <g id="resetDef">
                       <use xlink:href="#rim2" fill="#404040">
                               <set attributeName="fill" to="#808080" begin="reset.mouseover" end="reset.mouseout"/>
                       </use>
               </g>
        </defs>

<script type="text/javascript">
var viewWidth = 3063;
var viewHeight = 704;
var sectionId = 'dynsection-12';
</script>
<script xlink:href="svgpan.js"/>
<svg id="graph" class="graph">
<g id="viewport">
<title>coap_opt_block_num</title>
<polygon fill="white" stroke="transparent" points="-4,4 -4,-699.5 3059,-699.5 3059,4 -4,4"/>
<!-- Node1 -->
<g id="node1" class="node">
<title>Node1</title>
<g id="a_node1"><a xlink:title="Returns the value of field num in the given block option block_opt.">
<polygon fill="#bfbfbf" stroke="black" points="2936,-503.5 2936,-522.5 3055,-522.5 3055,-503.5 2936,-503.5"/>
<text text-anchor="middle" x="2995.5" y="-510.5" font-family="Helvetica,sans-Serif" font-size="10.00">coap_opt_block_num</text>
</a>
</g>
</g>
<!-- Node2 -->
<g id="node2" class="node">
<title>Node2</title>
<g id="a_node2"><a xlink:href="group__block.html#ga9791ef236293c2e629f98b2d2a7af478" target="_top" xlink:title="Initializes block from pdu.">
<polygon fill="white" stroke="black" points="1966,-566.5 1966,-585.5 2070,-585.5 2070,-566.5 1966,-566.5"/>
<text text-anchor="middle" x="2018" y="-573.5" font-family="Helvetica,sans-Serif" font-size="10.00">coap_get_block_b</text>
</a>
</g>
</g>
<!-- Node1&#45;&gt;Node2 -->
<g id="edge1" class="edge">
<title>Node1&#45;&gt;Node2</title>
<path fill="none" stroke="midnightblue" d="M2957.66,-525.64C2902.99,-543.24 2796.84,-573 2704,-573 2704,-573 2704,-573 2358.5,-573 2256.23,-573 2136.65,-574.38 2070.19,-575.27"/>
<polygon fill="midnightblue" stroke="midnightblue" points="2958.83,-528.94 2967.25,-522.51 2956.66,-522.29 2958.83,-528.94"/>
</g>
<!-- Node24 -->
<g id="node24" class="node">
<title>Node24</title>
<g id="a_node24"><a xlink:href="group__logging.html#ga3123fcde8310c0f7cb48897a683baef6" target="_top" xlink:title="Display the contents of the specified pdu.">
<polygon fill="white" stroke="black" points="2806,-446.5 2806,-465.5 2900,-465.5 2900,-446.5 2806,-446.5"/>
<text text-anchor="middle" x="2853" y="-453.5" font-family="Helvetica,sans-Serif" font-size="10.00">coap_show_pdu</text>
</a>
</g>
</g>
<!-- Node1&#45;&gt;Node24 -->
<g id="edge27" class="edge">
<title>Node1&#45;&gt;Node24</title>
<path fill="none" stroke="midnightblue" d="M2961.62,-499.66C2935.85,-489.2 2900.62,-474.91 2877.59,-465.57"/>
<polygon fill="midnightblue" stroke="midnightblue" points="2960.4,-502.94 2970.98,-503.46 2963.03,-496.46 2960.4,-502.94"/>
</g>
<!-- Node3 -->
<g id="node3" class="node">
<title>Node3</title>
<g id="a_node3"><a xlink:href="coap__block_8c.html#a7ac9ac5682c27cf4b80b8e1bb28c330c" target="_top" xlink:title=" ">
<polygon fill="white" stroke="black" points="1796,-501 1796,-531 1916,-531 1916,-501 1796,-501"/>
<text text-anchor="start" x="1804" y="-519" font-family="Helvetica,sans-Serif" font-size="10.00">coap_add_data_large</text>
<text text-anchor="middle" x="1856" y="-508" font-family="Helvetica,sans-Serif" font-size="10.00">_internal</text>
</a>
</g>
</g>
<!-- Node2&#45;&gt;Node3 -->
<g id="edge2" class="edge">
<title>Node2&#45;&gt;Node3</title>
<path fill="none" stroke="midnightblue" d="M1984.62,-562.5C1968.32,-555.83 1948.2,-547.77 1930,-541 1921.09,-537.68 1911.5,-534.28 1902.3,-531.1"/>
<polygon fill="midnightblue" stroke="midnightblue" points="1983.65,-565.89 1994.23,-566.46 1986.32,-559.42 1983.65,-565.89"/>
</g>
<!-- Node4 -->
<g id="node4" class="node">
<title>Node4</title>
<g id="a_node4"><a xlink:href="group__context__internal.html#ga7bb944fc52f772655356d95724317401" target="_top" xlink:title="Dispatches the PDUs from the receive queue in given context.">
<polygon fill="white" stroke="black" points="1634.5,-313.5 1634.5,-332.5 1720.5,-332.5 1720.5,-313.5 1634.5,-313.5"/>
<text text-anchor="middle" x="1677.5" y="-320.5" font-family="Helvetica,sans-Serif" font-size="10.00">coap_dispatch</text>
</a>
</g>
</g>
<!-- Node2&#45;&gt;Node4 -->
<g id="edge3" class="edge">
<title>Node2&#45;&gt;Node4</title>
<path fill="none" stroke="midnightblue" d="M1979.84,-588.49C1930.17,-602.7 1841.5,-619.12 1782,-579 1694.16,-519.77 1680.85,-372.02 1678.85,-332.73"/>
<polygon fill="midnightblue" stroke="midnightblue" points="1980.94,-591.81 1989.53,-585.6 1978.94,-585.1 1980.94,-591.81"/>
</g>
<!-- Node12 -->
<g id="node12" class="node">
<title>Node12</title>
<g id="a_node12"><a xlink:href="group__context.html#gaeadf53fc0202c2a9c881406d4aa12a4c" target="_top" xlink:title="Sends a CoAP message to given peer.">
<polygon fill="white" stroke="black" points="364.5,-66.5 364.5,-85.5 432.5,-85.5 432.5,-66.5 364.5,-66.5"/>
<text text-anchor="middle" x="398.5" y="-73.5" font-family="Helvetica,sans-Serif" font-size="10.00">coap_send</text>
</a>
</g>
</g>
<!-- Node2&#45;&gt;Node12 -->
<g id="edge26" class="edge">
<title>Node2&#45;&gt;Node12</title>
<path fill="none" stroke="midnightblue" d="M1984.27,-589.14C1968.16,-595.13 1948.31,-601.8 1930,-606 1820.28,-631.16 1791.07,-636 1678.5,-636 1678.5,-636 1678.5,-636 724.5,-636 475.35,-636 636.93,-324.05 477,-133 459.95,-112.64 434.19,-95.58 417.11,-85.58"/>
<polygon fill="midnightblue" stroke="midnightblue" points="1985.66,-592.36 1993.76,-585.53 1983.17,-585.81 1985.66,-592.36"/>
</g>
<!-- Node21 -->
<g id="node21" class="node">
<title>Node21</title>
<g id="a_node21"><a xlink:href="group__block.html#gab4948cbc673c565b3eba270c5f784db3" target="_top" xlink:title="Initializes block from pdu.">
<polygon fill="white" stroke="black" points="1810,-667.5 1810,-686.5 1902,-686.5 1902,-667.5 1810,-667.5"/>
<text text-anchor="middle" x="1856" y="-674.5" font-family="Helvetica,sans-Serif" font-size="10.00">coap_get_block</text>
</a>
</g>
</g>
<!-- Node2&#45;&gt;Node21 -->
<g id="edge22" class="edge">
<title>Node2&#45;&gt;Node21</title>
<path fill="none" stroke="midnightblue" d="M2000.44,-593.23C1983.88,-609.66 1957.06,-634.16 1930,-650 1917.75,-657.17 1903.27,-663 1890.45,-667.38"/>
<polygon fill="midnightblue" stroke="midnightblue" points="2003.15,-595.47 2007.7,-585.89 1998.18,-590.54 2003.15,-595.47"/>
</g>
<!-- Node23 -->
<g id="node23" class="node">
<title>Node23</title>
<g id="a_node23"><a xlink:href="group__context__internal.html#gac0c93bd79f1fc592b51df47583ba37aa" target="_top" xlink:title="Verifies that pdu contains no unknown critical options.">
<polygon fill="white" stroke="black" points="1782,-550.5 1782,-569.5 1930,-569.5 1930,-550.5 1782,-550.5"/>
<text text-anchor="middle" x="1856" y="-557.5" font-family="Helvetica,sans-Serif" font-size="10.00">coap_option_check_critical</text>
</a>
</g>
</g>
<!-- Node2&#45;&gt;Node23 -->
<g id="edge24" class="edge">
<title>Node2&#45;&gt;Node23</title>
<path fill="none" stroke="midnightblue" d="M1955.82,-569.88C1947.39,-569.04 1938.65,-568.17 1930.03,-567.3"/>
<polygon fill="midnightblue" stroke="midnightblue" points="1955.64,-573.38 1965.94,-570.89 1956.33,-566.42 1955.64,-573.38"/>
</g>
<!-- Node5 -->
<g id="node5" class="node">
<title>Node5</title>
<g id="a_node5"><a xlink:href="group__context__internal.html#gae6b8ca457dd41f23372f9e9a7159312b" target="_top" xlink:title="Parses and interprets a CoAP datagram with context ctx.">
<polygon fill="white" stroke="black" points="1458,-180.5 1458,-199.5 1573,-199.5 1573,-180.5 1458,-180.5"/>
<text text-anchor="middle" x="1515.5" y="-187.5" font-family="Helvetica,sans-Serif" font-size="10.00">coap_handle_dgram</text>
</a>
</g>
</g>
<!-- Node4&#45;&gt;Node5 -->
<g id="edge4" class="edge">
<title>Node4&#45;&gt;Node5</title>
<path fill="none" stroke="midnightblue" d="M1657.27,-307.02C1623.79,-279.18 1555.74,-222.62 1528.33,-199.84"/>
<polygon fill="midnightblue" stroke="midnightblue" points="1655.07,-309.73 1664.99,-313.43 1659.54,-304.35 1655.07,-309.73"/>
</g>
<!-- Node7 -->
<g id="node7" class="node">
<title>Node7</title>
<g id="a_node7"><a xlink:href="coap__net_8c.html#acd36f6fba6d30ab9557e0e6521f4a088" target="_top" xlink:title=" ">
<polygon fill="white" stroke="black" points="1134.5,-180.5 1134.5,-199.5 1243.5,-199.5 1243.5,-180.5 1134.5,-180.5"/>
<text text-anchor="middle" x="1189" y="-187.5" font-family="Helvetica,sans-Serif" font-size="10.00">coap_read_session</text>
</a>
</g>
</g>
<!-- Node4&#45;&gt;Node7 -->
<g id="edge21" class="edge">
<title>Node4&#45;&gt;Node7</title>
<path fill="none" stroke="midnightblue" d="M1631.81,-310.78C1535.82,-284.54 1311.6,-223.24 1225,-199.57"/>
<polygon fill="midnightblue" stroke="midnightblue" points="1630.94,-314.17 1641.51,-313.43 1632.79,-307.42 1630.94,-314.17"/>
</g>
<!-- Node6 -->
<g id="node6" class="node">
<title>Node6</title>
<g id="a_node6"><a xlink:href="coap__net_8c.html#a8534f7860b14e0743529daff196a27ce" target="_top" xlink:title=" ">
<polygon fill="white" stroke="black" points="1288,-175 1288,-205 1422,-205 1422,-175 1288,-175"/>
<text text-anchor="start" x="1296" y="-193" font-family="Helvetica,sans-Serif" font-size="10.00">coap_handle_dgram_for</text>
<text text-anchor="middle" x="1355" y="-182" font-family="Helvetica,sans-Serif" font-size="10.00">_proto</text>
</a>
</g>
</g>
<!-- Node5&#45;&gt;Node6 -->
<g id="edge5" class="edge">
<title>Node5&#45;&gt;Node6</title>
<path fill="none" stroke="midnightblue" d="M1447.56,-190C1439.13,-190 1430.51,-190 1422.1,-190"/>
<polygon fill="midnightblue" stroke="midnightblue" points="1447.73,-193.5 1457.73,-190 1447.73,-186.5 1447.73,-193.5"/>
</g>
<!-- Node6&#45;&gt;Node7 -->
<g id="edge6" class="edge">
<title>Node6&#45;&gt;Node7</title>
<path fill="none" stroke="midnightblue" d="M1277.71,-190C1266.2,-190 1254.54,-190 1243.64,-190"/>
<polygon fill="midnightblue" stroke="midnightblue" points="1277.77,-193.5 1287.77,-190 1277.77,-186.5 1277.77,-193.5"/>
</g>
<!-- Node8 -->
<g id="node8" class="node">
<title>Node8</title>
<g id="a_node8"><a xlink:href="group__app__io__internal.html#ga503f851fa137eb8a9c2936e2098c5eb9" target="_top" xlink:title="Process all the epoll events.">
<polygon fill="white" stroke="black" points="989,-142.5 989,-161.5 1090,-161.5 1090,-142.5 989,-142.5"/>
<text text-anchor="middle" x="1039.5" y="-149.5" font-family="Helvetica,sans-Serif" font-size="10.00">coap_io_do_epoll</text>
</a>
</g>
</g>
<!-- Node7&#45;&gt;Node8 -->
<g id="edge7" class="edge">
<title>Node7&#45;&gt;Node8</title>
<path fill="none" stroke="midnightblue" d="M1140.99,-177.89C1120.44,-172.6 1096.7,-166.48 1077.45,-161.52"/>
<polygon fill="midnightblue" stroke="midnightblue" points="1140.22,-181.31 1150.78,-180.41 1141.97,-174.53 1140.22,-181.31"/>
</g>
<!-- Node19 -->
<g id="node19" class="node">
<title>Node19</title>
<g id="a_node19"><a xlink:href="group__app__io__internal.html#ga2208802b0711ad20df07271b751b41dc" target="_top" xlink:title="Processes any outstanding read, write, accept or connect I/O as indicated in the coap_socket_t struct...">
<polygon fill="white" stroke="black" points="996.5,-180.5 996.5,-199.5 1082.5,-199.5 1082.5,-180.5 996.5,-180.5"/>
<text text-anchor="middle" x="1039.5" y="-187.5" font-family="Helvetica,sans-Serif" font-size="10.00">coap_io_do_io</text>
</a>
</g>
</g>
<!-- Node7&#45;&gt;Node19 -->
<g id="edge18" class="edge">
<title>Node7&#45;&gt;Node19</title>
<path fill="none" stroke="midnightblue" d="M1124.24,-190C1110.23,-190 1095.72,-190 1082.8,-190"/>
<polygon fill="midnightblue" stroke="midnightblue" points="1124.33,-193.5 1134.33,-190 1124.33,-186.5 1124.33,-193.5"/>
</g>
<!-- Node9 -->
<g id="node9" class="node">
<title>Node9</title>
<g id="a_node9"><a xlink:href="group__app__io.html#ga2758ed5fdd6ce79ec95ea8dbf72a5644" target="_top" xlink:title="The main message processing loop with additional fds for internal select.">
<polygon fill="white" stroke="black" points="810,-104.5 810,-123.5 953,-123.5 953,-104.5 810,-104.5"/>
<text text-anchor="middle" x="881.5" y="-111.5" font-family="Helvetica,sans-Serif" font-size="10.00">coap_io_process_with_fds</text>
</a>
</g>
</g>
<!-- Node8&#45;&gt;Node9 -->
<g id="edge8" class="edge">
<title>Node8&#45;&gt;Node9</title>
<path fill="none" stroke="midnightblue" d="M989.37,-140.03C967.51,-134.71 942.12,-128.52 921.58,-123.52"/>
<polygon fill="midnightblue" stroke="midnightblue" points="988.59,-143.44 999.13,-142.41 990.25,-136.64 988.59,-143.44"/>
</g>
<!-- Node10 -->
<g id="node10" class="node">
<title>Node10</title>
<g id="a_node10"><a xlink:href="group__app__io.html#ga082f7bbf15d3f37c31c2a0a5e78ea4cf" target="_top" xlink:title="The main I/O processing function.">
<polygon fill="white" stroke="black" points="677,-104.5 677,-123.5 774,-123.5 774,-104.5 677,-104.5"/>
<text text-anchor="middle" x="725.5" y="-111.5" font-family="Helvetica,sans-Serif" font-size="10.00">coap_io_process</text>
</a>
</g>
</g>
<!-- Node9&#45;&gt;Node10 -->
<g id="edge9" class="edge">
<title>Node9&#45;&gt;Node10</title>
<path fill="none" stroke="midnightblue" d="M799.65,-114C790.99,-114 782.4,-114 774.32,-114"/>
<polygon fill="midnightblue" stroke="midnightblue" points="799.81,-117.5 809.81,-114 799.81,-110.5 799.81,-117.5"/>
</g>
<!-- Node11 -->
<g id="node11" class="node">
<title>Node11</title>
<g id="a_node11"><a xlink:href="group__context__internal.html#ga5d013d40174c7c217b24bf624f9d7310" target="_top" xlink:title="Delay the sending of the first client request until some other negotiation has completed.">
<polygon fill="white" stroke="black" points="513,-142.5 513,-161.5 641,-161.5 641,-142.5 513,-142.5"/>
<text text-anchor="middle" x="577" y="-149.5" font-family="Helvetica,sans-Serif" font-size="10.00">coap_client_delay_first</text>
</a>
</g>
</g>
<!-- Node10&#45;&gt;Node11 -->
<g id="edge10" class="edge">
<title>Node10&#45;&gt;Node11</title>
<path fill="none" stroke="midnightblue" d="M677.8,-126.11C657.4,-131.4 633.82,-137.52 614.7,-142.48"/>
<polygon fill="midnightblue" stroke="midnightblue" points="678.73,-129.49 687.53,-123.59 676.97,-122.71 678.73,-129.49"/>
</g>
<!-- Node17 -->
<g id="node17" class="node">
<title>Node17</title>
<g id="a_node17"><a xlink:href="group__app__io.html#gaca10debdb496ee890c45fe49a5799330" target="_top" xlink:title="Check to see if there is any i/o pending for the context.">
<polygon fill="white" stroke="black" points="528,-104.5 528,-123.5 626,-123.5 626,-104.5 528,-104.5"/>
<text text-anchor="middle" x="577" y="-111.5" font-family="Helvetica,sans-Serif" font-size="10.00">coap_io_pending</text>
</a>
</g>
</g>
<!-- Node10&#45;&gt;Node17 -->
<g id="edge16" class="edge">
<title>Node10&#45;&gt;Node17</title>
<path fill="none" stroke="midnightblue" d="M666.8,-114C653.31,-114 639.09,-114 626.08,-114"/>
<polygon fill="midnightblue" stroke="midnightblue" points="666.94,-117.5 676.94,-114 666.94,-110.5 666.94,-117.5"/>
</g>
<!-- Node18 -->
<g id="node18" class="node">
<title>Node18</title>
<g id="a_node18"><a xlink:href="coap__net_8h.html#ac6b34aa979ec545eb710e45a26c98fc1" target="_top" xlink:title=" ">
<polygon fill="white" stroke="black" points="532.5,-66.5 532.5,-85.5 621.5,-85.5 621.5,-66.5 532.5,-66.5"/>
<text text-anchor="middle" x="577" y="-73.5" font-family="Helvetica,sans-Serif" font-size="10.00">coap_run_once</text>
</a>
</g>
</g>
<!-- Node10&#45;&gt;Node18 -->
<g id="edge17" class="edge">
<title>Node10&#45;&gt;Node18</title>
<path fill="none" stroke="midnightblue" d="M677.8,-101.89C657.4,-96.6 633.82,-90.48 614.7,-85.52"/>
<polygon fill="midnightblue" stroke="midnightblue" points="676.97,-105.29 687.53,-104.41 678.73,-98.51 676.97,-105.29"/>
</g>
<!-- Node11&#45;&gt;Node12 -->
<g id="edge11" class="edge">
<title>Node11&#45;&gt;Node12</title>
<path fill="none" stroke="midnightblue" d="M530.43,-139.28C524.51,-137.33 518.57,-135.22 513,-133 477.56,-118.88 438.19,-97.81 416.38,-85.64"/>
<polygon fill="midnightblue" stroke="midnightblue" points="529.72,-142.73 540.31,-142.4 531.83,-136.05 529.72,-142.73"/>
</g>
<!-- Node13 -->
<g id="node13" class="node">
<title>Node13</title>
<g id="a_node13"><a xlink:href="group__session.html#ga4368ee622c681bf7cf0b7cfe99c8ab37" target="_top" xlink:title="Get maximum acceptable PDU size.">
<polygon fill="white" stroke="black" points="320,-142.5 320,-161.5 477,-161.5 477,-142.5 320,-142.5"/>
<text text-anchor="middle" x="398.5" y="-149.5" font-family="Helvetica,sans-Serif" font-size="10.00">coap_session_max_pdu_size</text>
</a>
</g>
</g>
<!-- Node11&#45;&gt;Node13 -->
<g id="edge12" class="edge">
<title>Node11&#45;&gt;Node13</title>
<path fill="none" stroke="midnightblue" d="M502.61,-152C494.17,-152 485.56,-152 477.07,-152"/>
<polygon fill="midnightblue" stroke="midnightblue" points="502.78,-155.5 512.78,-152 502.78,-148.5 502.78,-155.5"/>
</g>
<!-- Node14 -->
<g id="node14" class="node">
<title>Node14</title>
<g id="a_node14"><a xlink:href="group__pdu.html#ga6ab63e25c7c9eed3de00b0e1153b33b6" target="_top" xlink:title="Creates a new CoAP PDU.">
<polygon fill="white" stroke="black" points="183,-161.5 183,-180.5 272,-180.5 272,-161.5 183,-161.5"/>
<text text-anchor="middle" x="227.5" y="-168.5" font-family="Helvetica,sans-Serif" font-size="10.00">coap_new_pdu</text>
</a>
</g>
</g>
<!-- Node13&#45;&gt;Node14 -->
<g id="edge13" class="edge">
<title>Node13&#45;&gt;Node14</title>
<path fill="none" stroke="midnightblue" d="M309.96,-161.84C296.93,-163.31 284,-164.76 272.4,-166.06"/>
<polygon fill="midnightblue" stroke="midnightblue" points="310.38,-165.32 319.92,-160.72 309.6,-158.36 310.38,-165.32"/>
</g>
<!-- Node15 -->
<g id="node15" class="node">
<title>Node15</title>
<g id="a_node15"><a xlink:href="group__pdu.html#gabf10450d37381b133fb780480b4fca1b" target="_top" xlink:title="Duplicate an existing PDU.">
<polygon fill="white" stroke="black" points="171,-123.5 171,-142.5 284,-142.5 284,-123.5 171,-123.5"/>
<text text-anchor="middle" x="227.5" y="-130.5" font-family="Helvetica,sans-Serif" font-size="10.00">coap_pdu_duplicate</text>
</a>
</g>
</g>
<!-- Node13&#45;&gt;Node15 -->
<g id="edge14" class="edge">
<title>Node13&#45;&gt;Node15</title>
<path fill="none" stroke="midnightblue" d="M309.8,-142.14C301.17,-141.17 292.59,-140.21 284.41,-139.29"/>
<polygon fill="midnightblue" stroke="midnightblue" points="309.6,-145.64 319.92,-143.28 310.38,-138.68 309.6,-145.64"/>
</g>
<!-- Node16 -->
<g id="node16" class="node">
<title>Node16</title>
<g id="a_node16"><a xlink:href="group__oscore__internal.html#ga8cf885624714b9a4705974adf2629cb2" target="_top" xlink:title=" ">
<polygon fill="white" stroke="black" points="0,-123.5 0,-142.5 135,-142.5 135,-123.5 0,-123.5"/>
<text text-anchor="middle" x="67.5" y="-130.5" font-family="Helvetica,sans-Serif" font-size="10.00">oscore_new_association</text>
</a>
</g>
</g>
<!-- Node15&#45;&gt;Node16 -->
<g id="edge15" class="edge">
<title>Node15&#45;&gt;Node16</title>
<path fill="none" stroke="midnightblue" d="M160.62,-133C152.18,-133 143.53,-133 135.07,-133"/>
<polygon fill="midnightblue" stroke="midnightblue" points="160.8,-136.5 170.8,-133 160.8,-129.5 160.8,-136.5"/>
</g>
<!-- Node19&#45;&gt;Node9 -->
<g id="edge19" class="edge">
<title>Node19&#45;&gt;Node9</title>
<path fill="none" stroke="midnightblue" d="M1002.14,-176.64C997.68,-174.83 993.21,-172.93 989,-171 956.2,-156 919.4,-135.42 898.78,-123.54"/>
<polygon fill="midnightblue" stroke="midnightblue" points="1001.2,-180.03 1011.79,-180.45 1003.77,-173.52 1001.2,-180.03"/>
</g>
<!-- Node20 -->
<g id="node20" class="node">
<title>Node20</title>
<g id="a_node20"><a xlink:href="coap__net_8h.html#af937985e2b14a287a849663574d59bcb" target="_top" xlink:title=" ">
<polygon fill="white" stroke="black" points="848,-180.5 848,-199.5 915,-199.5 915,-180.5 848,-180.5"/>
<text text-anchor="middle" x="881.5" y="-187.5" font-family="Helvetica,sans-Serif" font-size="10.00">coap_read</text>
</a>
</g>
</g>
<!-- Node19&#45;&gt;Node20 -->
<g id="edge20" class="edge">
<title>Node19&#45;&gt;Node20</title>
<path fill="none" stroke="midnightblue" d="M986.15,-190C962.74,-190 935.87,-190 915.35,-190"/>
<polygon fill="midnightblue" stroke="midnightblue" points="986.28,-193.5 996.28,-190 986.28,-186.5 986.28,-193.5"/>
</g>
<!-- Node22 -->
<g id="node22" class="node">
<title>Node22</title>
<g id="a_node22"><a xlink:href="group__block.html#ga870799d383b3d3392ca711bd7dce467b" target="_top" xlink:title="Adds the appropriate part of data to the response pdu.">
<polygon fill="white" stroke="black" points="1611,-665 1611,-695 1744,-695 1744,-665 1611,-665"/>
<text text-anchor="start" x="1619" y="-683" font-family="Helvetica,sans-Serif" font-size="10.00">coap_add_data_blocked</text>
<text text-anchor="middle" x="1677.5" y="-672" font-family="Helvetica,sans-Serif" font-size="10.00">_response</text>
</a>
</g>
</g>
<!-- Node21&#45;&gt;Node22 -->
<g id="edge23" class="edge">
<title>Node21&#45;&gt;Node22</title>
<path fill="none" stroke="midnightblue" d="M1799.46,-677.94C1781.89,-678.24 1762.3,-678.58 1744.09,-678.89"/>
<polygon fill="midnightblue" stroke="midnightblue" points="1799.61,-681.44 1809.55,-677.77 1799.49,-674.44 1799.61,-681.44"/>
</g>
<!-- Node23&#45;&gt;Node4 -->
<g id="edge25" class="edge">
<title>Node23&#45;&gt;Node4</title>
<path fill="none" stroke="midnightblue" d="M1790.73,-546.05C1787.64,-544.27 1784.7,-542.26 1782,-540 1712.53,-481.89 1686.47,-366.37 1680.14,-332.53"/>
<polygon fill="midnightblue" stroke="midnightblue" points="1789.28,-549.23 1799.8,-550.49 1792.36,-542.95 1789.28,-549.23"/>
</g>
<!-- Node24&#45;&gt;Node3 -->
<g id="edge28" class="edge">
<title>Node24&#45;&gt;Node3</title>
<path fill="none" stroke="midnightblue" d="M2795.44,-459.41C2621.21,-469.92 2093.68,-501.73 1916.08,-512.44"/>
<polygon fill="midnightblue" stroke="midnightblue" points="2795.9,-462.89 2805.67,-458.79 2795.48,-455.9 2795.9,-462.89"/>
</g>
<!-- Node24&#45;&gt;Node4 -->
<g id="edge29" class="edge">
<title>Node24&#45;&gt;Node4</title>
<path fill="none" stroke="midnightblue" d="M2813.91,-468.48C2800.21,-472.49 2784.54,-476.53 2770,-479 2665.95,-496.68 2638.54,-494 2533,-494 2533,-494 2533,-494 2358.5,-494 2100.23,-494 2013.23,-536.03 1782,-421 1738.35,-399.29 1700.59,-352.96 1685.5,-332.76"/>
<polygon fill="midnightblue" stroke="midnightblue" points="2814.93,-471.83 2823.5,-465.59 2812.91,-465.13 2814.93,-471.83"/>
</g>
<!-- Node24&#45;&gt;Node12 -->
<g id="edge30" class="edge">
<title>Node24&#45;&gt;Node12</title>
<path fill="none" stroke="midnightblue" d="M2848.48,-436.61C2831.47,-349.67 2749.59,0 2533,0 2533,0 2533,0 724.5,0 609.19,0 476.76,-45.92 423.51,-66.37"/>
<polygon fill="midnightblue" stroke="midnightblue" points="2845.05,-437.3 2850.35,-446.48 2851.92,-436 2845.05,-437.3"/>
</g>
<!-- Node25 -->
<g id="node25" class="node">
<title>Node25</title>
<g id="a_node25"><a xlink:href="group__session__internal.html#gaaf20c9b0b2ad3168c15e535a67ea3ce5" target="_top" xlink:title="Send a pdu according to the session&#39;s protocol.">
<polygon fill="white" stroke="black" points="2636,-389.5 2636,-408.5 2770,-408.5 2770,-389.5 2636,-389.5"/>
<text text-anchor="middle" x="2703" y="-396.5" font-family="Helvetica,sans-Serif" font-size="10.00">coap_session_send_pdu</text>
</a>
</g>
</g>
<!-- Node24&#45;&gt;Node25 -->
<g id="edge31" class="edge">
<title>Node24&#45;&gt;Node25</title>
<path fill="none" stroke="midnightblue" d="M2817.72,-442.8C2790.54,-432.33 2753.21,-417.95 2728.85,-408.57"/>
<polygon fill="midnightblue" stroke="midnightblue" points="2816.64,-446.13 2827.23,-446.46 2819.15,-439.6 2816.64,-446.13"/>
</g>
<!-- Node26 -->
<g id="node26" class="node">
<title>Node26</title>
<g id="a_node26"><a xlink:href="coap__net_8c.html#a0c600aed61c8a8402d31ef795df3b0b6" target="_top" xlink:title=" ">
<polygon fill="white" stroke="black" points="2486,-294.5 2486,-313.5 2578,-313.5 2578,-294.5 2486,-294.5"/>
<text text-anchor="middle" x="2532" y="-301.5" font-family="Helvetica,sans-Serif" font-size="10.00">coap_send_pdu</text>
</a>
</g>
</g>
<!-- Node25&#45;&gt;Node26 -->
<g id="edge32" class="edge">
<title>Node25&#45;&gt;Node26</title>
<path fill="none" stroke="midnightblue" d="M2675.71,-384.22C2640.61,-364.49 2579.47,-330.12 2549.93,-313.52"/>
<polygon fill="midnightblue" stroke="midnightblue" points="2674.43,-387.52 2684.87,-389.37 2677.86,-381.42 2674.43,-387.52"/>
</g>
<!-- Node39 -->
<g id="node39" class="node">
<title>Node39</title>
<g id="a_node39"><a xlink:href="group__session__internal.html#gaa8b3a2da8480911b0216dad076038cb6" target="_top" xlink:title="Notify session that it has just connected or reconnected.">
<polygon fill="white" stroke="black" points="2291,-370.5 2291,-389.5 2428,-389.5 2428,-370.5 2291,-370.5"/>
<text text-anchor="middle" x="2359.5" y="-377.5" font-family="Helvetica,sans-Serif" font-size="10.00">coap_session_connected</text>
</a>
</g>
</g>
<!-- Node25&#45;&gt;Node39 -->
<g id="edge57" class="edge">
<title>Node25&#45;&gt;Node39</title>
<path fill="none" stroke="midnightblue" d="M2625.69,-394.75C2566.41,-391.46 2484.96,-386.92 2428.02,-383.76"/>
<polygon fill="midnightblue" stroke="midnightblue" points="2625.57,-398.25 2635.75,-395.31 2625.96,-391.26 2625.57,-398.25"/>
</g>
<!-- Node43 -->
<g id="node43" class="node">
<title>Node43</title>
<g id="a_node43"><a xlink:href="group__session__internal.html#ga2f455ec1572982a5ae404beac0cfbd53" target="_top" xlink:title="Notify session transport has just connected and CSM exchange can now start.">
<polygon fill="white" stroke="black" points="2464,-408.5 2464,-427.5 2600,-427.5 2600,-408.5 2464,-408.5"/>
<text text-anchor="middle" x="2532" y="-415.5" font-family="Helvetica,sans-Serif" font-size="10.00">coap_session_send_csm</text>
</a>
</g>
</g>
<!-- Node25&#45;&gt;Node43 -->
<g id="edge65" class="edge">
<title>Node25&#45;&gt;Node43</title>
<path fill="none" stroke="midnightblue" d="M2625.49,-407.6C2617.06,-408.55 2608.53,-409.51 2600.23,-410.44"/>
<polygon fill="midnightblue" stroke="midnightblue" points="2626.15,-411.05 2635.69,-406.45 2625.36,-404.09 2626.15,-411.05"/>
</g>
<!-- Node27 -->
<g id="node27" class="node">
<title>Node27</title>
<g id="a_node27"><a xlink:href="group__context__internal.html#gaad5ccd0b3161f63c0854c2624e892ef4" target="_top" xlink:title="Handles retransmissions of confirmable messages.">
<polygon fill="white" stroke="black" points="2132.5,-294.5 2132.5,-313.5 2228.5,-313.5 2228.5,-294.5 2132.5,-294.5"/>
<text text-anchor="middle" x="2180.5" y="-301.5" font-family="Helvetica,sans-Serif" font-size="10.00">coap_retransmit</text>
</a>
</g>
</g>
<!-- Node26&#45;&gt;Node27 -->
<g id="edge33" class="edge">
<title>Node26&#45;&gt;Node27</title>
<path fill="none" stroke="midnightblue" d="M2475.55,-304C2407.38,-304 2292.86,-304 2228.71,-304"/>
<polygon fill="midnightblue" stroke="midnightblue" points="2475.67,-307.5 2485.67,-304 2475.67,-300.5 2475.67,-307.5"/>
</g>
<!-- Node31 -->
<g id="node31" class="node">
<title>Node31</title>
<g id="a_node31"><a xlink:href="group__context__internal.html#ga7d1802ed0aab8ba0b1e00f81c15869bd" target="_top" xlink:title="Sends a CoAP message to given peer.">
<polygon fill="white" stroke="black" points="2304,-180.5 2304,-199.5 2415,-199.5 2415,-180.5 2304,-180.5"/>
<text text-anchor="middle" x="2359.5" y="-187.5" font-family="Helvetica,sans-Serif" font-size="10.00">coap_send_internal</text>
</a>
</g>
</g>
<!-- Node26&#45;&gt;Node31 -->
<g id="edge40" class="edge">
<title>Node26&#45;&gt;Node31</title>
<path fill="none" stroke="midnightblue" d="M2508.01,-288.63C2472.35,-264.79 2404.73,-219.57 2375.06,-199.74"/>
<polygon fill="midnightblue" stroke="midnightblue" points="2506.5,-291.83 2516.76,-294.48 2510.39,-286.01 2506.5,-291.83"/>
</g>
<!-- Node28 -->
<g id="node28" class="node">
<title>Node28</title>
<g id="a_node28"><a xlink:href="group__app__io__internal.html#gaf0cbbb00a6f2f8ac885f0e1575534e34" target="_top" xlink:title="Iterates through all the coap_socket_t structures embedded in endpoints or sessions associated with t...">
<polygon fill="white" stroke="black" points="1299.5,-104.5 1299.5,-123.5 1410.5,-123.5 1410.5,-104.5 1299.5,-104.5"/>
<text text-anchor="middle" x="1355" y="-111.5" font-family="Helvetica,sans-Serif" font-size="10.00">coap_io_prepare_io</text>
</a>
</g>
</g>
<!-- Node27&#45;&gt;Node28 -->
<g id="edge34" class="edge">
<title>Node27&#45;&gt;Node28</title>
<path fill="none" stroke="midnightblue" d="M2165.85,-285.88C2139.47,-251.09 2082.9,-177.73 2070,-171 1955.54,-111.29 1557.09,-110.94 1410.59,-112.94"/>
<polygon fill="midnightblue" stroke="midnightblue" points="2163.33,-288.35 2172.15,-294.21 2168.91,-284.13 2163.33,-288.35"/>
</g>
<!-- Node28&#45;&gt;Node9 -->
<g id="edge38" class="edge">
<title>Node28&#45;&gt;Node9</title>
<path fill="none" stroke="midnightblue" d="M1302.3,-102.46C1286.27,-99.4 1268.48,-96.52 1252,-95 1147.74,-85.37 1026.45,-95.71 952.08,-104.49"/>
<polygon fill="midnightblue" stroke="midnightblue" points="1302.07,-105.98 1312.56,-104.49 1303.43,-99.12 1302.07,-105.98"/>
</g>
<!-- Node29 -->
<g id="node29" class="node">
<title>Node29</title>
<g id="a_node29"><a xlink:href="group__app__io__internal.html#ga3be92476a2c2c12d68c0cd07795c7e34" target="_top" xlink:title="Any now timed out delayed packet is transmitted, along with any packets associated with requested obs...">
<polygon fill="white" stroke="black" points="1126,-142.5 1126,-161.5 1252,-161.5 1252,-142.5 1126,-142.5"/>
<text text-anchor="middle" x="1189" y="-149.5" font-family="Helvetica,sans-Serif" font-size="10.00">coap_io_prepare_epoll</text>
</a>
</g>
</g>
<!-- Node28&#45;&gt;Node29 -->
<g id="edge35" class="edge">
<title>Node28&#45;&gt;Node29</title>
<path fill="none" stroke="midnightblue" d="M1302.66,-125.9C1279.61,-131.24 1252.78,-137.45 1231.09,-142.48"/>
<polygon fill="midnightblue" stroke="midnightblue" points="1303.66,-129.26 1312.62,-123.59 1302.08,-122.44 1303.66,-129.26"/>
</g>
<!-- Node30 -->
<g id="node30" class="node">
<title>Node30</title>
<g id="a_node30"><a xlink:href="coap__net_8h.html#ab54010e3cade80e1417870c87dcd0402" target="_top" xlink:title=" ">
<polygon fill="white" stroke="black" points="1154,-104.5 1154,-123.5 1224,-123.5 1224,-104.5 1154,-104.5"/>
<text text-anchor="middle" x="1189" y="-111.5" font-family="Helvetica,sans-Serif" font-size="10.00">coap_write</text>
</a>
</g>
</g>
<!-- Node28&#45;&gt;Node30 -->
<g id="edge39" class="edge">
<title>Node28&#45;&gt;Node30</title>
<path fill="none" stroke="midnightblue" d="M1289.34,-114C1267.14,-114 1243.16,-114 1224.33,-114"/>
<polygon fill="midnightblue" stroke="midnightblue" points="1289.39,-117.5 1299.39,-114 1289.39,-110.5 1289.39,-117.5"/>
</g>
<!-- Node29&#45;&gt;Node8 -->
<g id="edge36" class="edge">
<title>Node29&#45;&gt;Node8</title>
<path fill="none" stroke="midnightblue" d="M1115.71,-152C1107.01,-152 1098.29,-152 1090.02,-152"/>
<polygon fill="midnightblue" stroke="midnightblue" points="1115.87,-155.5 1125.87,-152 1115.87,-148.5 1115.87,-155.5"/>
</g>
<!-- Node29&#45;&gt;Node9 -->
<g id="edge37" class="edge">
<title>Node29&#45;&gt;Node9</title>
<path fill="none" stroke="midnightblue" d="M1133.68,-140.46C1119.51,-137.73 1104.22,-135.02 1090,-133 1044.7,-126.55 993.5,-121.84 953.29,-118.72"/>
<polygon fill="midnightblue" stroke="midnightblue" points="1133.28,-143.95 1143.76,-142.45 1134.63,-137.08 1133.28,-143.95"/>
</g>
<!-- Node31&#45;&gt;Node4 -->
<g id="edge43" class="edge">
<title>Node31&#45;&gt;Node4</title>
<path fill="none" stroke="midnightblue" d="M2331.3,-204.13C2310.83,-214.19 2281.81,-227.25 2255,-235 2059.99,-291.37 1816.81,-313.42 1720.54,-320.33"/>
<polygon fill="midnightblue" stroke="midnightblue" points="2332.96,-207.22 2340.34,-199.61 2329.83,-200.96 2332.96,-207.22"/>
</g>
<!-- Node31&#45;&gt;Node12 -->
<g id="edge44" class="edge">
<title>Node31&#45;&gt;Node12</title>
<path fill="none" stroke="midnightblue" d="M2348.61,-171.21C2332.89,-143.42 2299.36,-92.05 2255,-68 2162.05,-17.6 2124.73,-38 2019,-38 2019,-38 2019,-38 724.5,-38 617.13,-38 491.16,-58.71 432.57,-69.55"/>
<polygon fill="midnightblue" stroke="midnightblue" points="2345.71,-173.2 2353.59,-180.29 2351.85,-169.84 2345.71,-173.2"/>
</g>
<!-- Node32 -->
<g id="node32" class="node">
<title>Node32</title>
<g id="a_node32"><a xlink:href="coap__net_8c.html#ad02a6d6c0f94ef455980d531575d1d0c" target="_top" xlink:title=" ">
<polygon fill="white" stroke="black" points="1805,-256.5 1805,-275.5 1907,-275.5 1907,-256.5 1805,-256.5"/>
<text text-anchor="middle" x="1856" y="-263.5" font-family="Helvetica,sans-Serif" font-size="10.00">check_token_size</text>
</a>
</g>
</g>
<!-- Node31&#45;&gt;Node32 -->
<g id="edge41" class="edge">
<title>Node31&#45;&gt;Node32</title>
<path fill="none" stroke="midnightblue" d="M2298.62,-201.41C2284.34,-204.01 2269.15,-206.69 2255,-209 2130.14,-229.39 1982.58,-249.48 1907.05,-259.47"/>
<polygon fill="midnightblue" stroke="midnightblue" points="2299.62,-204.78 2308.82,-199.53 2298.35,-197.9 2299.62,-204.78"/>
</g>
<!-- Node33 -->
<g id="node33" class="node">
<title>Node33</title>
<g id="a_node33"><a xlink:href="group__context.html#ga059557785c3f40b683269ba4090203e8" target="_top" xlink:title="Sends an ACK message with code 0 for the specified request to dst.">
<polygon fill="white" stroke="black" points="2135,-142.5 2135,-161.5 2226,-161.5 2226,-142.5 2135,-142.5"/>
<text text-anchor="middle" x="2180.5" y="-149.5" font-family="Helvetica,sans-Serif" font-size="10.00">coap_send_ack</text>
</a>
</g>
</g>
<!-- Node31&#45;&gt;Node33 -->
<g id="edge45" class="edge">
<title>Node31&#45;&gt;Node33</title>
<path fill="none" stroke="midnightblue" d="M2303.76,-178.25C2278.73,-172.87 2249.47,-166.59 2225.84,-161.52"/>
<polygon fill="midnightblue" stroke="midnightblue" points="2303.32,-181.73 2313.84,-180.41 2304.79,-174.89 2303.32,-181.73"/>
</g>
<!-- Node34 -->
<g id="node34" class="node">
<title>Node34</title>
<g id="a_node34"><a xlink:href="group__context.html#ga95c41b8af7a987b4e376db0a70370006" target="_top" xlink:title="Sends an error response with code code for request request to dst.">
<polygon fill="white" stroke="black" points="2132,-104.5 2132,-123.5 2229,-123.5 2229,-104.5 2132,-104.5"/>
<text text-anchor="middle" x="2180.5" y="-111.5" font-family="Helvetica,sans-Serif" font-size="10.00">coap_send_error</text>
</a>
</g>
</g>
<!-- Node31&#45;&gt;Node34 -->
<g id="edge46" class="edge">
<title>Node31&#45;&gt;Node34</title>
<path fill="none" stroke="midnightblue" d="M2335.38,-175.06C2314.93,-162.39 2283.93,-144.49 2255,-133 2245.81,-129.35 2235.7,-126.21 2225.99,-123.59"/>
<polygon fill="midnightblue" stroke="midnightblue" points="2333.66,-178.11 2343.99,-180.47 2337.39,-172.19 2333.66,-178.11"/>
</g>
<!-- Node35 -->
<g id="node35" class="node">
<title>Node35</title>
<g id="a_node35"><a xlink:href="group__context.html#ga8f46c87e4908ae0ee8c9a0e3e15f8f4a" target="_top" xlink:title="Helper function to create and send a message with type (usually ACK or RST).">
<polygon fill="white" stroke="black" points="2108,-180.5 2108,-199.5 2253,-199.5 2253,-180.5 2108,-180.5"/>
<text text-anchor="middle" x="2180.5" y="-187.5" font-family="Helvetica,sans-Serif" font-size="10.00">coap_send_message_type</text>
</a>
</g>
</g>
<!-- Node31&#45;&gt;Node35 -->
<g id="edge47" class="edge">
<title>Node31&#45;&gt;Node35</title>
<path fill="none" stroke="midnightblue" d="M2293.58,-190C2280.43,-190 2266.52,-190 2253.15,-190"/>
<polygon fill="midnightblue" stroke="midnightblue" points="2293.95,-193.5 2303.95,-190 2293.95,-186.5 2293.95,-193.5"/>
</g>
<!-- Node37 -->
<g id="node37" class="node">
<title>Node37</title>
<g id="a_node37"><a xlink:href="coap__session_8c.html#a1aeb41a0f4f9a70e4ff5f58cdae96b5a" target="_top" xlink:title="Send a ping message for the session.">
<polygon fill="white" stroke="black" points="1609,-66.5 1609,-85.5 1746,-85.5 1746,-66.5 1609,-66.5"/>
<text text-anchor="middle" x="1677.5" y="-73.5" font-family="Helvetica,sans-Serif" font-size="10.00">coap_session_send_ping</text>
</a>
</g>
</g>
<!-- Node31&#45;&gt;Node37 -->
<g id="edge53" class="edge">
<title>Node31&#45;&gt;Node37</title>
<path fill="none" stroke="midnightblue" d="M2345.78,-172.25C2328.29,-149.52 2294.47,-111.12 2255,-95 2164.73,-58.13 1878.17,-66.36 1746.21,-72.41"/>
<polygon fill="midnightblue" stroke="midnightblue" points="2343.07,-174.47 2351.85,-180.39 2348.68,-170.29 2343.07,-174.47"/>
</g>
<!-- Node38 -->
<g id="node38" class="node">
<title>Node38</title>
<g id="a_node38"><a xlink:href="coap__net_8c.html#ac4cbcfd073489b57805db665ce3d0681" target="_top" xlink:title=" ">
<polygon fill="white" stroke="black" points="2131,-332.5 2131,-351.5 2230,-351.5 2230,-332.5 2131,-332.5"/>
<text text-anchor="middle" x="2180.5" y="-339.5" font-family="Helvetica,sans-Serif" font-size="10.00">handle_signaling</text>
</a>
</g>
</g>
<!-- Node31&#45;&gt;Node38 -->
<g id="edge55" class="edge">
<title>Node31&#45;&gt;Node38</title>
<path fill="none" stroke="midnightblue" d="M2349.06,-208.92C2333.55,-238.04 2299.84,-293.54 2255,-323 2247.51,-327.92 2238.81,-331.57 2230.08,-334.27"/>
<polygon fill="midnightblue" stroke="midnightblue" points="2352.29,-210.3 2353.78,-199.81 2346.08,-207.08 2352.29,-210.3"/>
</g>
<!-- Node32&#45;&gt;Node4 -->
<g id="edge42" class="edge">
<title>Node32&#45;&gt;Node4</title>
<path fill="none" stroke="midnightblue" d="M1815.81,-278.66C1783.28,-289.16 1737.7,-303.88 1708.14,-313.43"/>
<polygon fill="midnightblue" stroke="midnightblue" points="1817.02,-281.94 1825.46,-275.54 1814.87,-275.28 1817.02,-281.94"/>
</g>
<!-- Node35&#45;&gt;Node4 -->
<g id="edge48" class="edge">
<title>Node35&#45;&gt;Node4</title>
<path fill="none" stroke="midnightblue" d="M2130.6,-178.3C2051.52,-162.2 1893.19,-141.82 1782,-205 1733.91,-232.33 1697.01,-290.51 1683.79,-313.44"/>
<polygon fill="midnightblue" stroke="midnightblue" points="2130.26,-181.81 2140.77,-180.44 2131.7,-174.96 2130.26,-181.81"/>
</g>
<!-- Node36 -->
<g id="node36" class="node">
<title>Node36</title>
<g id="a_node36"><a xlink:href="group__context.html#ga7f4dd3326d1d0619a5baa9812bef6906" target="_top" xlink:title="Sends an RST message with code 0 for the specified request to dst.">
<polygon fill="white" stroke="black" points="1975,-180.5 1975,-199.5 2061,-199.5 2061,-180.5 1975,-180.5"/>
<text text-anchor="middle" x="2018" y="-187.5" font-family="Helvetica,sans-Serif" font-size="10.00">coap_send_rst</text>
</a>
</g>
</g>
<!-- Node35&#45;&gt;Node36 -->
<g id="edge49" class="edge">
<title>Node35&#45;&gt;Node36</title>
<path fill="none" stroke="midnightblue" d="M2097.63,-190C2085.06,-190 2072.54,-190 2061.3,-190"/>
<polygon fill="midnightblue" stroke="midnightblue" points="2097.7,-193.5 2107.7,-190 2097.7,-186.5 2097.7,-193.5"/>
</g>
<!-- Node36&#45;&gt;Node4 -->
<g id="edge51" class="edge">
<title>Node36&#45;&gt;Node4</title>
<path fill="none" stroke="midnightblue" d="M1964.89,-200.14C1905.99,-212.05 1814.11,-232.05 1782,-247 1744.21,-264.59 1706.4,-297.04 1688.77,-313.25"/>
<polygon fill="midnightblue" stroke="midnightblue" points="1965.65,-203.56 1974.77,-198.16 1964.27,-196.7 1965.65,-203.56"/>
</g>
<!-- Node36&#45;&gt;Node5 -->
<g id="edge52" class="edge">
<title>Node36&#45;&gt;Node5</title>
<path fill="none" stroke="midnightblue" d="M1964.55,-190C1869.79,-190 1670.84,-190 1573.11,-190"/>
<polygon fill="midnightblue" stroke="midnightblue" points="1964.76,-193.5 1974.76,-190 1964.76,-186.5 1964.76,-193.5"/>
</g>
<!-- Node36&#45;&gt;Node32 -->
<g id="edge50" class="edge">
<title>Node36&#45;&gt;Node32</title>
<path fill="none" stroke="midnightblue" d="M1984.75,-203.85C1978.4,-206.95 1971.88,-210.39 1966,-214 1948.72,-224.6 1947.89,-232.47 1930,-242 1918.93,-247.89 1906.15,-252.7 1894.4,-256.41"/>
<polygon fill="midnightblue" stroke="midnightblue" points="1986.27,-207 1993.84,-199.59 1983.3,-200.66 1986.27,-207"/>
</g>
<!-- Node37&#45;&gt;Node28 -->
<g id="edge54" class="edge">
<title>Node37&#45;&gt;Node28</title>
<path fill="none" stroke="midnightblue" d="M1598.44,-84.06C1556.73,-88.49 1504.54,-94.25 1458,-100 1442.66,-101.9 1426.03,-104.11 1410.75,-106.21"/>
<polygon fill="midnightblue" stroke="midnightblue" points="1598.96,-87.52 1608.53,-82.99 1598.22,-80.56 1598.96,-87.52"/>
</g>
<!-- Node38&#45;&gt;Node4 -->
<g id="edge56" class="edge">
<title>Node38&#45;&gt;Node4</title>
<path fill="none" stroke="midnightblue" d="M2120.38,-339.76C2018.01,-335.88 1810.14,-327.99 1720.83,-324.61"/>
<polygon fill="midnightblue" stroke="midnightblue" points="2120.42,-343.26 2130.55,-340.14 2120.69,-336.27 2120.42,-343.26"/>
</g>
<!-- Node39&#45;&gt;Node4 -->
<g id="edge61" class="edge">
<title>Node39&#45;&gt;Node4</title>
<path fill="none" stroke="midnightblue" d="M2280.65,-378.54C2169.56,-375.68 1959.39,-367.42 1782,-344 1761.1,-341.24 1738.09,-336.72 1719.08,-332.58"/>
<polygon fill="midnightblue" stroke="midnightblue" points="2280.67,-382.04 2290.76,-378.79 2280.85,-375.04 2280.67,-382.04"/>
</g>
<!-- Node39&#45;&gt;Node27 -->
<g id="edge62" class="edge">
<title>Node39&#45;&gt;Node27</title>
<path fill="none" stroke="midnightblue" d="M2335.38,-365.06C2314.93,-352.39 2283.93,-334.49 2255,-323 2245.81,-319.35 2235.7,-316.21 2225.99,-313.59"/>
<polygon fill="midnightblue" stroke="midnightblue" points="2333.66,-368.11 2343.99,-370.47 2337.39,-362.19 2333.66,-368.11"/>
</g>
<!-- Node39&#45;&gt;Node38 -->
<g id="edge64" class="edge">
<title>Node39&#45;&gt;Node38</title>
<path fill="none" stroke="midnightblue" d="M2303.76,-368.25C2278.73,-362.87 2249.47,-356.59 2225.84,-351.52"/>
<polygon fill="midnightblue" stroke="midnightblue" points="2303.32,-371.73 2313.84,-370.41 2304.79,-364.89 2303.32,-371.73"/>
</g>
<!-- Node40 -->
<g id="node40" class="node">
<title>Node40</title>
<g id="a_node40"><a xlink:href="group__context__internal.html#gafad345e14c98d46913c4c71fffe878f4" target="_top" xlink:title="Cancels all outstanding messages for session session that have the specified token.">
<polygon fill="white" stroke="black" points="2106,-408.5 2106,-427.5 2255,-427.5 2255,-408.5 2106,-408.5"/>
<text text-anchor="middle" x="2180.5" y="-415.5" font-family="Helvetica,sans-Serif" font-size="10.00">coap_cancel_all_messages</text>
</a>
</g>
</g>
<!-- Node39&#45;&gt;Node40 -->
<g id="edge58" class="edge">
<title>Node39&#45;&gt;Node40</title>
<path fill="none" stroke="midnightblue" d="M2303.76,-391.75C2278.73,-397.13 2249.47,-403.41 2225.84,-408.48"/>
<polygon fill="midnightblue" stroke="midnightblue" points="2304.79,-395.11 2313.84,-389.59 2303.32,-388.27 2304.79,-395.11"/>
</g>
<!-- Node42 -->
<g id="node42" class="node">
<title>Node42</title>
<g id="a_node42"><a xlink:href="group__session__internal.html#ga8188aaad0d95aaaa7f517c5b0baffc27" target="_top" xlink:title="Layer function interface for layer below session accept/connect being established.">
<polygon fill="white" stroke="black" points="2115,-446.5 2115,-465.5 2246,-465.5 2246,-446.5 2115,-446.5"/>
<text text-anchor="middle" x="2180.5" y="-453.5" font-family="Helvetica,sans-Serif" font-size="10.00">coap_session_establish</text>
</a>
</g>
</g>
<!-- Node39&#45;&gt;Node42 -->
<g id="edge63" class="edge">
<title>Node39&#45;&gt;Node42</title>
<path fill="none" stroke="midnightblue" d="M2313.81,-393.03C2305.95,-396.11 2298.05,-399.76 2291,-404 2272.4,-415.19 2274.07,-426.64 2255,-437 2247.93,-440.84 2240.06,-443.92 2232.17,-446.4"/>
<polygon fill="midnightblue" stroke="midnightblue" points="2315.12,-396.27 2323.31,-389.54 2312.71,-389.7 2315.12,-396.27"/>
</g>
<!-- Node41 -->
<g id="node41" class="node">
<title>Node41</title>
<g id="a_node41"><a xlink:href="coap__net_8c.html#a6b355153e3bba3af3df1e72f33ced85c" target="_top" xlink:title="This function cancels outstanding messages for the session and token specified in sent.">
<polygon fill="white" stroke="black" points="1979.5,-408.5 1979.5,-427.5 2056.5,-427.5 2056.5,-408.5 1979.5,-408.5"/>
<text text-anchor="middle" x="2018" y="-415.5" font-family="Helvetica,sans-Serif" font-size="10.00">coap_cancel</text>
</a>
</g>
</g>
<!-- Node40&#45;&gt;Node41 -->
<g id="edge59" class="edge">
<title>Node40&#45;&gt;Node41</title>
<path fill="none" stroke="midnightblue" d="M2095.46,-418C2081.9,-418 2068.49,-418 2056.78,-418"/>
<polygon fill="midnightblue" stroke="midnightblue" points="2095.83,-421.5 2105.83,-418 2095.83,-414.5 2095.83,-421.5"/>
</g>
<!-- Node41&#45;&gt;Node4 -->
<g id="edge60" class="edge">
<title>Node41&#45;&gt;Node4</title>
<path fill="none" stroke="midnightblue" d="M1968.85,-419.94C1920.23,-420.33 1843.7,-416.63 1782,-394 1743.74,-379.97 1706.15,-348.55 1688.67,-332.64"/>
<polygon fill="midnightblue" stroke="midnightblue" points="1969.14,-423.43 1979.09,-419.79 1969.04,-416.43 1969.14,-423.43"/>
</g>
<!-- Node43&#45;&gt;Node42 -->
<g id="edge66" class="edge">
<title>Node43&#45;&gt;Node42</title>
<path fill="none" stroke="midnightblue" d="M2453.84,-425.17C2406.75,-429.68 2345.36,-435.81 2291,-442 2276.43,-443.66 2260.79,-445.58 2246.02,-447.45"/>
<polygon fill="midnightblue" stroke="midnightblue" points="2454.34,-428.64 2463.96,-424.21 2453.67,-421.67 2454.34,-428.64"/>
</g>
</g>
</svg>
        <g id="navigator" transform="translate(0 0)" fill="#404254">
                <rect fill="#f2f5e9" fill-opacity="0.5" stroke="#606060" stroke-width=".5" x="0" y="0" width="60" height="60"/>
                <use id="zoomplus" xlink:href="#zoomPlus" x="17" y="9" onmousedown="handleZoom(evt,'in')"/>
                <use id="zoomminus" xlink:href="#zoomMin" x="42" y="9" onmousedown="handleZoom(evt,'out')"/>
                <use id="reset" xlink:href="#resetDef" x="30" y="36" onmousedown="handleReset()"/>
                <g id="arrowUp" xlink:href="#dirArrow" transform="translate(30 24)" onmousedown="handlePan(0,-1)">
                  <use xlink:href="#rim" fill="#404040">
                        <set attributeName="fill" to="#808080" begin="arrowUp.mouseover" end="arrowUp.mouseout"/>
                  </use>
                  <path fill="none" stroke="white" stroke-width="1.5" d="M0,-3.0v7 M-2.5,-0.5L0,-3.0L2.5,-0.5"/>
                </g>
                <g id="arrowRight" xlink:href="#dirArrow" transform="rotate(90) translate(36 -43)" onmousedown="handlePan(1,0)">
                  <use xlink:href="#rim" fill="#404040">
                        <set attributeName="fill" to="#808080" begin="arrowRight.mouseover" end="arrowRight.mouseout"/>
                  </use>
                  <path fill="none" stroke="white" stroke-width="1.5" d="M0,-3.0v7 M-2.5,-0.5L0,-3.0L2.5,-0.5"/>
                </g>
                <g id="arrowDown" xlink:href="#dirArrow" transform="rotate(180) translate(-30 -48)" onmousedown="handlePan(0,1)">
                  <use xlink:href="#rim" fill="#404040">
                        <set attributeName="fill" to="#808080" begin="arrowDown.mouseover" end="arrowDown.mouseout"/>
                  </use>
                  <path fill="none" stroke="white" stroke-width="1.5" d="M0,-3.0v7 M-2.5,-0.5L0,-3.0L2.5,-0.5"/>
                </g>
                <g id="arrowLeft" xlink:href="#dirArrow" transform="rotate(270) translate(-36 17)" onmousedown="handlePan(-1,0)">
                  <use xlink:href="#rim" fill="#404040">
                        <set attributeName="fill" to="#808080" begin="arrowLeft.mouseover" end="arrowLeft.mouseout"/>
                  </use>
                  <path fill="none" stroke="white" stroke-width="1.5" d="M0,-3.0v7 M-2.5,-0.5L0,-3.0L2.5,-0.5"/>
                </g>
        </g>
        <svg viewBox="0 0 15 15" width="100%" height="30px" preserveAspectRatio="xMaxYMin meet">
         <g id="arrow_out" transform="scale(0.3 0.3)">
          <a xlink:href="group__block_gaac6c90297abc6e2da80a6212b0d10e99_icgraph_org.svg" target="_base">
           <rect id="button" ry="5" rx="5" y="6" x="6" height="38" width="38"
                fill="#f2f5e9" fill-opacity="0.5" stroke="#606060" stroke-width="1.0"/>
           <path id="arrow"
             d="M 11.500037,31.436501 C 11.940474,20.09759 22.043105,11.32322 32.158766,21.979434 L 37.068811,17.246167 C 37.068811,17.246167 37.088388,32 37.088388,32 L 22.160133,31.978069 C 22.160133,31.978069 26.997745,27.140456 26.997745,27.140456 C 18.528582,18.264221 13.291696,25.230495 11.500037,31.436501 z"
             style="fill:#404040;"/>
          </a>
         </g>
        </svg>
</svg>
