<?xml version="1.0" encoding="UTF-8" standalone="no"?>
<!DOCTYPE svg PUBLIC "-//W3C//DTD SVG 1.1//EN"
 "http://www.w3.org/Graphics/SVG/1.1/DTD/svg11.dtd">
<!-- Generated by graphviz version 2.43.0 (0)
 -->
<!-- Title: coap_get_block_b Pages: 1 -->
<!--zoomable 306 -->
<svg id="main" version="1.1" xmlns="http://www.w3.org/2000/svg" xmlns:xlink="http://www.w3.org/1999/xlink" xml:space="preserve" onload="init(evt)">
<style type="text/css"><![CDATA[
.edge:hover path { stroke: red; }
.edge:hover polygon { stroke: red; fill: red; }
]]></style>
<script type="text/javascript"><![CDATA[
var edges = document.getElementsByTagName('g');
if (edges && edges.length) {
  for (var i=0;i<edges.length;i++) {
    if (edges[i].id.substr(0,4)=='edge') {
      edges[i].setAttribute('class','edge');
    }
  }
}
]]></script>
        <defs>
                <circle id="rim" cx="0" cy="0" r="7"/>
                <circle id="rim2" cx="0" cy="0" r="3.5"/>
                <g id="zoomPlus">
                        <use xlink:href="#rim" fill="#404040">
                                <set attributeName="fill" to="#808080" begin="zoomplus.mouseover" end="zoomplus.mouseout"/>
                        </use>
                        <path d="M-4,0h8M0,-4v8" fill="none" stroke="white" stroke-width="1.5" pointer-events="none"/>
                </g>
                <g id="zoomMin">
                        <use xlink:href="#rim" fill="#404040">
                                <set attributeName="fill" to="#808080" begin="zoomminus.mouseover" end="zoomminus.mouseout"/>
                        </use>
                        <path d="M-4,0h8" fill="none" stroke="white" stroke-width="1.5" pointer-events="none"/>
                </g>
                <g id="dirArrow">
                        <path fill="none" stroke="white" stroke-width="1.5" d="M0,-3.0v7 M-2.5,-0.5L0,-3.0L2.5,-0.5"/>
                </g>
               <g id="resetDef">
                       <use xlink:href="#rim2" fill="#404040">
                               <set attributeName="fill" to="#808080" begin="reset.mouseover" end="reset.mouseout"/>
                       </use>
               </g>
        </defs>

<script type="text/javascript">
var viewWidth = 980;
var viewHeight = 306;
var sectionId = 'dynsection-9';
</script>
<script xlink:href="svgpan.js"/>
<svg id="graph" class="graph">
<g id="viewport">
<title>coap_get_block_b</title>
<polygon fill="white" stroke="transparent" points="-4,4 -4,-301.5 976,-301.5 976,4 -4,4"/>
<!-- Node1 -->
<g id="node1" class="node">
<title>Node1</title>
<g id="a_node1"><a xlink:title="Initializes block from pdu.">
<polygon fill="#bfbfbf" stroke="black" points="0,-114.5 0,-133.5 104,-133.5 104,-114.5 0,-114.5"/>
<text text-anchor="middle" x="52" y="-121.5" font-family="Helvetica,sans-Serif" font-size="10.00">coap_get_block_b</text>
</a>
</g>
</g>
<!-- Node2 -->
<g id="node2" class="node">
<title>Node2</title>
<g id="a_node2"><a xlink:href="group__opt__filter.html#gac766f0e78b5ef3ffc8c67d993c6ca8b6" target="_top" xlink:title="Retrieves the first option of number number from pdu.">
<polygon fill="white" stroke="black" points="144.5,-190.5 144.5,-209.5 254.5,-209.5 254.5,-190.5 144.5,-190.5"/>
<text text-anchor="middle" x="199.5" y="-197.5" font-family="Helvetica,sans-Serif" font-size="10.00">coap_check_option</text>
</a>
</g>
</g>
<!-- Node1&#45;&gt;Node2 -->
<g id="edge1" class="edge">
<title>Node1&#45;&gt;Node2</title>
<path fill="none" stroke="midnightblue" d="M71.43,-133.63C96.57,-146.76 141.83,-170.4 171,-185.64"/>
<polygon fill="midnightblue" stroke="midnightblue" points="169.74,-188.93 180.22,-190.45 172.98,-182.72 169.74,-188.93"/>
</g>
<!-- Node14 -->
<g id="node14" class="node">
<title>Node14</title>
<g id="a_node14"><a xlink:href="group__pdu.html#gab8ab682509ebdb989cf5d10170612cf0" target="_top" xlink:title="Retrieves the length and data pointer of specified PDU.">
<polygon fill="white" stroke="black" points="155.5,-114.5 155.5,-133.5 243.5,-133.5 243.5,-114.5 155.5,-114.5"/>
<text text-anchor="middle" x="199.5" y="-121.5" font-family="Helvetica,sans-Serif" font-size="10.00">coap_get_data</text>
</a>
</g>
</g>
<!-- Node1&#45;&gt;Node14 -->
<g id="edge14" class="edge">
<title>Node1&#45;&gt;Node14</title>
<path fill="none" stroke="midnightblue" d="M104.3,-124C117.6,-124 131.95,-124 145.34,-124"/>
<polygon fill="midnightblue" stroke="midnightblue" points="145.37,-127.5 155.37,-124 145.37,-120.5 145.37,-127.5"/>
</g>
<!-- Node16 -->
<g id="node16" class="node">
<title>Node16</title>
<g id="a_node16"><a xlink:href="group__block.html#gaac6c90297abc6e2da80a6212b0d10e99" target="_top" xlink:title="Returns the value of field num in the given block option block_opt.">
<polygon fill="white" stroke="black" points="140,-57.5 140,-76.5 259,-76.5 259,-57.5 140,-57.5"/>
<text text-anchor="middle" x="199.5" y="-64.5" font-family="Helvetica,sans-Serif" font-size="10.00">coap_opt_block_num</text>
</a>
</g>
</g>
<!-- Node1&#45;&gt;Node16 -->
<g id="edge16" class="edge">
<title>Node1&#45;&gt;Node16</title>
<path fill="none" stroke="midnightblue" d="M77.35,-114.46C101.27,-105.09 137.97,-90.71 164.71,-80.24"/>
<polygon fill="midnightblue" stroke="midnightblue" points="166.03,-83.48 174.07,-76.57 163.48,-76.96 166.03,-83.48"/>
</g>
<!-- Node3 -->
<g id="node3" class="node">
<title>Node3</title>
<g id="a_node3"><a xlink:href="group__opt__filter.html#gab32cbf963c82364063041e5c84ca279a" target="_top" xlink:title="Clears filter filter.">
<polygon fill="white" stroke="black" points="312,-267 312,-297 416,-297 416,-267 312,-267"/>
<text text-anchor="start" x="320" y="-285" font-family="Helvetica,sans-Serif" font-size="10.00">coap_option_filter</text>
<text text-anchor="middle" x="364" y="-274" font-family="Helvetica,sans-Serif" font-size="10.00">_clear</text>
</a>
</g>
</g>
<!-- Node2&#45;&gt;Node3 -->
<g id="edge2" class="edge">
<title>Node2&#45;&gt;Node3</title>
<path fill="none" stroke="midnightblue" d="M217,-209.65C235.67,-220.45 267.14,-238.22 295,-252 302.32,-255.62 310.17,-259.28 317.85,-262.75"/>
<polygon fill="midnightblue" stroke="midnightblue" points="316.52,-265.99 327.08,-266.86 319.37,-259.59 316.52,-265.99"/>
</g>
<!-- Node4 -->
<g id="node4" class="node">
<title>Node4</title>
<g id="a_node4"><a xlink:href="group__opt__filter.html#gafdbe6036d408220bbfa6eb2d7bd2443f" target="_top" xlink:title="Sets the corresponding entry for number in filter.">
<polygon fill="white" stroke="black" points="469.5,-228.5 469.5,-247.5 593.5,-247.5 593.5,-228.5 469.5,-228.5"/>
<text text-anchor="middle" x="531.5" y="-235.5" font-family="Helvetica,sans-Serif" font-size="10.00">coap_option_filter_set</text>
</a>
</g>
</g>
<!-- Node2&#45;&gt;Node4 -->
<g id="edge3" class="edge">
<title>Node2&#45;&gt;Node4</title>
<path fill="none" stroke="midnightblue" d="M242.66,-209.58C258.94,-212.99 277.77,-216.58 295,-219 349.87,-226.7 412.41,-231.57 459.24,-234.44"/>
<polygon fill="midnightblue" stroke="midnightblue" points="459.1,-237.94 469.29,-235.04 459.52,-230.95 459.1,-237.94"/>
</g>
<!-- Node9 -->
<g id="node9" class="node">
<title>Node9</title>
<g id="a_node9"><a xlink:href="group__opt__filter.html#ga46d7817d055728114b3c62499426b25c" target="_top" xlink:title="Initializes the given option iterator oi to point to the beginning of the pdu&#39;s option list.">
<polygon fill="white" stroke="black" points="295,-190.5 295,-209.5 433,-209.5 433,-190.5 295,-190.5"/>
<text text-anchor="middle" x="364" y="-197.5" font-family="Helvetica,sans-Serif" font-size="10.00">coap_option_iterator_init</text>
</a>
</g>
</g>
<!-- Node2&#45;&gt;Node9 -->
<g id="edge8" class="edge">
<title>Node2&#45;&gt;Node9</title>
<path fill="none" stroke="midnightblue" d="M254.61,-200C264.3,-200 274.58,-200 284.79,-200"/>
<polygon fill="midnightblue" stroke="midnightblue" points="284.96,-203.5 294.96,-200 284.96,-196.5 284.96,-203.5"/>
</g>
<!-- Node10 -->
<g id="node10" class="node">
<title>Node10</title>
<g id="a_node10"><a xlink:href="group__opt__filter.html#ga19d4dbbc03ef362996964fbfdd1d4c7b" target="_top" xlink:title="Updates the iterator oi to point to the next option.">
<polygon fill="white" stroke="black" points="312.5,-152.5 312.5,-171.5 415.5,-171.5 415.5,-152.5 312.5,-152.5"/>
<text text-anchor="middle" x="364" y="-159.5" font-family="Helvetica,sans-Serif" font-size="10.00">coap_option_next</text>
</a>
</g>
</g>
<!-- Node2&#45;&gt;Node10 -->
<g id="edge9" class="edge">
<title>Node2&#45;&gt;Node10</title>
<path fill="none" stroke="midnightblue" d="M241.51,-190.41C263.05,-185.37 289.63,-179.16 312.44,-173.82"/>
<polygon fill="midnightblue" stroke="midnightblue" points="313.35,-177.21 322.29,-171.52 311.75,-170.39 313.35,-177.21"/>
</g>
<!-- Node5 -->
<g id="node5" class="node">
<title>Node5</title>
<g id="a_node5"><a xlink:href="coap__option_8c.html#ab87ea79da1603a15ac624388a335bba6" target="_top" xlink:title="Applies op on filter with respect to number.">
<polygon fill="white" stroke="black" points="630,-190.5 630,-209.5 751,-209.5 751,-190.5 630,-190.5"/>
<text text-anchor="middle" x="690.5" y="-197.5" font-family="Helvetica,sans-Serif" font-size="10.00">coap_option_filter_op</text>
</a>
</g>
</g>
<!-- Node4&#45;&gt;Node5 -->
<g id="edge4" class="edge">
<title>Node4&#45;&gt;Node5</title>
<path fill="none" stroke="midnightblue" d="M572.12,-228.41C592.84,-223.4 618.39,-217.21 640.36,-211.89"/>
<polygon fill="midnightblue" stroke="midnightblue" points="641.27,-215.27 650.17,-209.52 639.62,-208.47 641.27,-215.27"/>
</g>
<!-- Node6 -->
<g id="node6" class="node">
<title>Node6</title>
<g id="a_node6"><a xlink:href="coap__encode_8c.html#a671b4261b2d24de8696258a8efb0f359" target="_top" xlink:title=" ">
<polygon fill="white" stroke="black" points="802.5,-209.5 802.5,-228.5 858.5,-228.5 858.5,-209.5 802.5,-209.5"/>
<text text-anchor="middle" x="830.5" y="-216.5" font-family="Helvetica,sans-Serif" font-size="10.00">coap_fls</text>
</a>
</g>
</g>
<!-- Node5&#45;&gt;Node6 -->
<g id="edge5" class="edge">
<title>Node5&#45;&gt;Node6</title>
<path fill="none" stroke="midnightblue" d="M751.23,-208.22C765.11,-210.13 779.51,-212.12 792.11,-213.85"/>
<polygon fill="midnightblue" stroke="midnightblue" points="791.84,-217.35 802.22,-215.24 792.79,-210.41 791.84,-217.35"/>
</g>
<!-- Node8 -->
<g id="node8" class="node">
<title>Node8</title>
<g id="a_node8"><a xlink:href="coap__option_8c.html#ad65a9bd8fcfb4ba4270819e6f87f5bcf" target="_top" xlink:title="Returns true iff number denotes an option number larger than 255.">
<polygon fill="white" stroke="black" points="787,-171.5 787,-190.5 874,-190.5 874,-171.5 787,-171.5"/>
<text text-anchor="middle" x="830.5" y="-178.5" font-family="Helvetica,sans-Serif" font-size="10.00">is_long_option</text>
</a>
</g>
</g>
<!-- Node5&#45;&gt;Node8 -->
<g id="edge7" class="edge">
<title>Node5&#45;&gt;Node8</title>
<path fill="none" stroke="midnightblue" d="M751.23,-191.78C759.72,-190.61 768.4,-189.41 776.75,-188.26"/>
<polygon fill="midnightblue" stroke="midnightblue" points="777.3,-191.72 786.73,-186.89 776.35,-184.79 777.3,-191.72"/>
</g>
<!-- Node7 -->
<g id="node7" class="node">
<title>Node7</title>
<g id="a_node7"><a xlink:href="coap__encode_8c.html#a1c66d23b22bbf747ff8b0a649f85f060" target="_top" xlink:title=" ">
<polygon fill="white" stroke="black" points="910,-209.5 910,-228.5 972,-228.5 972,-209.5 910,-209.5"/>
<text text-anchor="middle" x="941" y="-216.5" font-family="Helvetica,sans-Serif" font-size="10.00">coap_flsll</text>
</a>
</g>
</g>
<!-- Node6&#45;&gt;Node7 -->
<g id="edge6" class="edge">
<title>Node6&#45;&gt;Node7</title>
<path fill="none" stroke="midnightblue" d="M858.6,-219C871,-219 885.96,-219 899.65,-219"/>
<polygon fill="midnightblue" stroke="midnightblue" points="899.81,-222.5 909.81,-219 899.81,-215.5 899.81,-222.5"/>
</g>
<!-- Node11 -->
<g id="node11" class="node">
<title>Node11</title>
<g id="a_node11"><a xlink:href="coap__option_8c.html#a11de99f50cc9f5a34fd9e4d121ecfd13" target="_top" xlink:title="Parses the option pointed to by opt into result.">
<polygon fill="white" stroke="black" points="485,-190.5 485,-209.5 578,-209.5 578,-190.5 485,-190.5"/>
<text text-anchor="middle" x="531.5" y="-197.5" font-family="Helvetica,sans-Serif" font-size="10.00">coap_opt_parse</text>
</a>
</g>
</g>
<!-- Node10&#45;&gt;Node11 -->
<g id="edge10" class="edge">
<title>Node10&#45;&gt;Node11</title>
<path fill="none" stroke="midnightblue" d="M406.76,-171.59C428.7,-176.63 455.78,-182.84 479.01,-188.18"/>
<polygon fill="midnightblue" stroke="midnightblue" points="478.51,-191.65 489.04,-190.48 480.07,-184.83 478.51,-191.65"/>
</g>
<!-- Node12 -->
<g id="node12" class="node">
<title>Node12</title>
<g id="a_node12"><a xlink:href="group__opt__filter.html#gaecbb0b2fe1f6244aa6121d019070704b" target="_top" xlink:title="Checks if number is contained in filter.">
<polygon fill="white" stroke="black" points="469,-152.5 469,-171.5 594,-171.5 594,-152.5 469,-152.5"/>
<text text-anchor="middle" x="531.5" y="-159.5" font-family="Helvetica,sans-Serif" font-size="10.00">coap_option_filter_get</text>
</a>
</g>
</g>
<!-- Node10&#45;&gt;Node12 -->
<g id="edge11" class="edge">
<title>Node10&#45;&gt;Node12</title>
<path fill="none" stroke="midnightblue" d="M415.55,-162C429.23,-162 444.29,-162 458.87,-162"/>
<polygon fill="midnightblue" stroke="midnightblue" points="458.88,-165.5 468.88,-162 458.88,-158.5 458.88,-165.5"/>
</g>
<!-- Node13 -->
<g id="node13" class="node">
<title>Node13</title>
<g id="a_node13"><a xlink:href="coap__option_8c.html#a70fa9db0450134640b80cbf7c3720688" target="_top" xlink:title=" ">
<polygon fill="white" stroke="black" points="493.5,-114.5 493.5,-133.5 569.5,-133.5 569.5,-114.5 493.5,-114.5"/>
<text text-anchor="middle" x="531.5" y="-121.5" font-family="Helvetica,sans-Serif" font-size="10.00">opt_finished</text>
</a>
</g>
</g>
<!-- Node10&#45;&gt;Node13 -->
<g id="edge13" class="edge">
<title>Node10&#45;&gt;Node13</title>
<path fill="none" stroke="midnightblue" d="M406.76,-152.41C430.06,-147.06 459.15,-140.38 483.27,-134.85"/>
<polygon fill="midnightblue" stroke="midnightblue" points="484.31,-138.2 493.27,-132.55 482.74,-131.38 484.31,-138.2"/>
</g>
<!-- Node12&#45;&gt;Node5 -->
<g id="edge12" class="edge">
<title>Node12&#45;&gt;Node5</title>
<path fill="none" stroke="midnightblue" d="M572.12,-171.59C592.84,-176.6 618.39,-182.79 640.36,-188.11"/>
<polygon fill="midnightblue" stroke="midnightblue" points="639.62,-191.53 650.17,-190.48 641.27,-184.73 639.62,-191.53"/>
</g>
<!-- Node15 -->
<g id="node15" class="node">
<title>Node15</title>
<g id="a_node15"><a xlink:href="group__pdu.html#gacb114ef7bdb588870ded91efc3c3d6d2" target="_top" xlink:title="Retrieves the data from a PDU, with support for large bodies of data that spans multiple PDUs.">
<polygon fill="white" stroke="black" points="305,-114.5 305,-133.5 423,-133.5 423,-114.5 305,-114.5"/>
<text text-anchor="middle" x="364" y="-121.5" font-family="Helvetica,sans-Serif" font-size="10.00">coap_get_data_large</text>
</a>
</g>
</g>
<!-- Node14&#45;&gt;Node15 -->
<g id="edge15" class="edge">
<title>Node14&#45;&gt;Node15</title>
<path fill="none" stroke="midnightblue" d="M243.62,-124C259.34,-124 277.52,-124 294.88,-124"/>
<polygon fill="midnightblue" stroke="midnightblue" points="294.99,-127.5 304.99,-124 294.99,-120.5 294.99,-127.5"/>
</g>
<!-- Node17 -->
<g id="node17" class="node">
<title>Node17</title>
<g id="a_node17"><a xlink:href="group__encode.html#ga8bfaf6132a57d1f9e25282d61d7ed773" target="_top" xlink:title="Decodes multiple&#45;length byte sequences.">
<polygon fill="white" stroke="black" points="297,-76.5 297,-95.5 431,-95.5 431,-76.5 297,-76.5"/>
<text text-anchor="middle" x="364" y="-83.5" font-family="Helvetica,sans-Serif" font-size="10.00">coap_decode_var_bytes</text>
</a>
</g>
</g>
<!-- Node16&#45;&gt;Node17 -->
<g id="edge17" class="edge">
<title>Node16&#45;&gt;Node17</title>
<path fill="none" stroke="midnightblue" d="M259.17,-73.86C268.18,-74.91 277.59,-76.01 286.92,-77.1"/>
<polygon fill="midnightblue" stroke="midnightblue" points="286.64,-80.6 296.98,-78.28 287.45,-73.64 286.64,-80.6"/>
</g>
<!-- Node18 -->
<g id="node18" class="node">
<title>Node18</title>
<g id="a_node18"><a xlink:href="group__opt__filter.html#ga42d0b9d068b790ec1c490a7fb2674904" target="_top" xlink:title="Returns the length of the given option.">
<polygon fill="white" stroke="black" points="315.5,-38.5 315.5,-57.5 412.5,-57.5 412.5,-38.5 315.5,-38.5"/>
<text text-anchor="middle" x="364" y="-45.5" font-family="Helvetica,sans-Serif" font-size="10.00">coap_opt_length</text>
</a>
</g>
</g>
<!-- Node16&#45;&gt;Node18 -->
<g id="edge18" class="edge">
<title>Node16&#45;&gt;Node18</title>
<path fill="none" stroke="midnightblue" d="M259.17,-60.14C274.16,-58.39 290.27,-56.5 305.22,-54.76"/>
<polygon fill="midnightblue" stroke="midnightblue" points="305.83,-58.21 315.36,-53.57 305.02,-51.26 305.83,-58.21"/>
</g>
<!-- Node19 -->
<g id="node19" class="node">
<title>Node19</title>
<g id="a_node19"><a xlink:href="group__opt__filter.html#gaec4e944d39722779cac610ed22ee09db" target="_top" xlink:title="Returns a pointer to the value of the given option.">
<polygon fill="white" stroke="black" points="317.5,-0.5 317.5,-19.5 410.5,-19.5 410.5,-0.5 317.5,-0.5"/>
<text text-anchor="middle" x="364" y="-7.5" font-family="Helvetica,sans-Serif" font-size="10.00">coap_opt_value</text>
</a>
</g>
</g>
<!-- Node16&#45;&gt;Node19 -->
<g id="edge19" class="edge">
<title>Node16&#45;&gt;Node19</title>
<path fill="none" stroke="midnightblue" d="M222.39,-57.4C241.38,-49.26 269.72,-37.59 295,-29 301.86,-26.67 309.18,-24.4 316.38,-22.29"/>
<polygon fill="midnightblue" stroke="midnightblue" points="317.42,-25.64 326.07,-19.52 315.49,-18.91 317.42,-25.64"/>
</g>
</g>
</svg>
        <g id="navigator" transform="translate(0 0)" fill="#404254">
                <rect fill="#f2f5e9" fill-opacity="0.5" stroke="#606060" stroke-width=".5" x="0" y="0" width="60" height="60"/>
                <use id="zoomplus" xlink:href="#zoomPlus" x="17" y="9" onmousedown="handleZoom(evt,'in')"/>
                <use id="zoomminus" xlink:href="#zoomMin" x="42" y="9" onmousedown="handleZoom(evt,'out')"/>
                <use id="reset" xlink:href="#resetDef" x="30" y="36" onmousedown="handleReset()"/>
                <g id="arrowUp" xlink:href="#dirArrow" transform="translate(30 24)" onmousedown="handlePan(0,-1)">
                  <use xlink:href="#rim" fill="#404040">
                        <set attributeName="fill" to="#808080" begin="arrowUp.mouseover" end="arrowUp.mouseout"/>
                  </use>
                  <path fill="none" stroke="white" stroke-width="1.5" d="M0,-3.0v7 M-2.5,-0.5L0,-3.0L2.5,-0.5"/>
                </g>
                <g id="arrowRight" xlink:href="#dirArrow" transform="rotate(90) translate(36 -43)" onmousedown="handlePan(1,0)">
                  <use xlink:href="#rim" fill="#404040">
                        <set attributeName="fill" to="#808080" begin="arrowRight.mouseover" end="arrowRight.mouseout"/>
                  </use>
                  <path fill="none" stroke="white" stroke-width="1.5" d="M0,-3.0v7 M-2.5,-0.5L0,-3.0L2.5,-0.5"/>
                </g>
                <g id="arrowDown" xlink:href="#dirArrow" transform="rotate(180) translate(-30 -48)" onmousedown="handlePan(0,1)">
                  <use xlink:href="#rim" fill="#404040">
                        <set attributeName="fill" to="#808080" begin="arrowDown.mouseover" end="arrowDown.mouseout"/>
                  </use>
                  <path fill="none" stroke="white" stroke-width="1.5" d="M0,-3.0v7 M-2.5,-0.5L0,-3.0L2.5,-0.5"/>
                </g>
                <g id="arrowLeft" xlink:href="#dirArrow" transform="rotate(270) translate(-36 17)" onmousedown="handlePan(-1,0)">
                  <use xlink:href="#rim" fill="#404040">
                        <set attributeName="fill" to="#808080" begin="arrowLeft.mouseover" end="arrowLeft.mouseout"/>
                  </use>
                  <path fill="none" stroke="white" stroke-width="1.5" d="M0,-3.0v7 M-2.5,-0.5L0,-3.0L2.5,-0.5"/>
                </g>
        </g>
        <svg viewBox="0 0 15 15" width="100%" height="30px" preserveAspectRatio="xMaxYMin meet">
         <g id="arrow_out" transform="scale(0.3 0.3)">
          <a xlink:href="group__block_ga9791ef236293c2e629f98b2d2a7af478_cgraph_org.svg" target="_base">
           <rect id="button" ry="5" rx="5" y="6" x="6" height="38" width="38"
                fill="#f2f5e9" fill-opacity="0.5" stroke="#606060" stroke-width="1.0"/>
           <path id="arrow"
             d="M 11.500037,31.436501 C 11.940474,20.09759 22.043105,11.32322 32.158766,21.979434 L 37.068811,17.246167 C 37.068811,17.246167 37.088388,32 37.088388,32 L 22.160133,31.978069 C 22.160133,31.978069 26.997745,27.140456 26.997745,27.140456 C 18.528582,18.264221 13.291696,25.230495 11.500037,31.436501 z"
             style="fill:#404040;"/>
          </a>
         </g>
        </svg>
</svg>
