<?xml version="1.0" encoding="UTF-8" standalone="no"?>
<!DOCTYPE svg PUBLIC "-//W3C//DTD SVG 1.1//EN"
 "http://www.w3.org/Graphics/SVG/1.1/DTD/svg11.dtd">
<!-- Generated by graphviz version 2.43.0 (0)
 -->
<!-- Title: coap_remove_option Pages: 1 -->
<svg width="283pt" height="78pt"
 viewBox="0.00 0.00 283.00 77.50" xmlns="http://www.w3.org/2000/svg" xmlns:xlink="http://www.w3.org/1999/xlink">
<g id="graph0" class="graph" transform="scale(1 1) rotate(0) translate(4 73.5)">
<title>coap_remove_option</title>
<polygon fill="white" stroke="transparent" points="-4,4 -4,-73.5 279,-73.5 279,4 -4,4"/>
<!-- Node1 -->
<g id="node1" class="node">
<title>Node1</title>
<g id="a_node1"><a xlink:title="Removes (first) option of given number from the pdu.">
<polygon fill="#bfbfbf" stroke="black" points="156,-22.5 156,-41.5 275,-41.5 275,-22.5 156,-22.5"/>
<text text-anchor="middle" x="215.5" y="-29.5" font-family="Helvetica,sans-Serif" font-size="10.00">coap_remove_option</text>
</a>
</g>
</g>
<!-- Node2 -->
<g id="node2" class="node">
<title>Node2</title>
<g id="a_node2"><a xlink:href="coap__block_8c.html#a7ac9ac5682c27cf4b80b8e1bb28c330c" target="_top" xlink:title=" ">
<polygon fill="white" stroke="black" points="0,-39 0,-69 120,-69 120,-39 0,-39"/>
<text text-anchor="start" x="8" y="-57" font-family="Helvetica,sans-Serif" font-size="10.00">coap_add_data_large</text>
<text text-anchor="middle" x="60" y="-46" font-family="Helvetica,sans-Serif" font-size="10.00">_internal</text>
</a>
</g>
</g>
<!-- Node1&#45;&gt;Node2 -->
<g id="edge1" class="edge">
<title>Node1&#45;&gt;Node2</title>
<path fill="none" stroke="midnightblue" d="M145.64,-41.87C137.08,-43.1 128.39,-44.34 120,-45.54"/>
<polygon fill="midnightblue" stroke="midnightblue" points="146.19,-45.33 155.59,-40.44 145.2,-38.4 146.19,-45.33"/>
</g>
<!-- Node3 -->
<g id="node3" class="node">
<title>Node3</title>
<g id="a_node3"><a xlink:href="group__context.html#gaeadf53fc0202c2a9c881406d4aa12a4c" target="_top" xlink:title="Sends a CoAP message to given peer.">
<polygon fill="white" stroke="black" points="26,-0.5 26,-19.5 94,-19.5 94,-0.5 26,-0.5"/>
<text text-anchor="middle" x="60" y="-7.5" font-family="Helvetica,sans-Serif" font-size="10.00">coap_send</text>
</a>
</g>
</g>
<!-- Node1&#45;&gt;Node3 -->
<g id="edge2" class="edge">
<title>Node1&#45;&gt;Node3</title>
<path fill="none" stroke="midnightblue" d="M145.23,-22.07C127.49,-19.53 109.2,-16.91 94.22,-14.76"/>
<polygon fill="midnightblue" stroke="midnightblue" points="145.2,-25.6 155.59,-23.56 146.19,-18.67 145.2,-25.6"/>
</g>
</g>
</svg>
