<?xml version="1.0" encoding="UTF-8" standalone="no"?>
<!DOCTYPE svg PUBLIC "-//W3C//DTD SVG 1.1//EN"
 "http://www.w3.org/Graphics/SVG/1.1/DTD/svg11.dtd">
<!-- Generated by graphviz version 2.43.0 (0)
 -->
<!-- Title: oscore_add_recipient Pages: 1 -->
<svg width="283pt" height="66pt"
 viewBox="0.00 0.00 283.00 66.00" xmlns="http://www.w3.org/2000/svg" xmlns:xlink="http://www.w3.org/1999/xlink">
<g id="graph0" class="graph" transform="scale(1 1) rotate(0) translate(4 62)">
<title>oscore_add_recipient</title>
<polygon fill="white" stroke="transparent" points="-4,4 -4,-62 279,-62 279,4 -4,4"/>
<!-- Node1 -->
<g id="node1" class="node">
<title>Node1</title>
<g id="a_node1"><a xlink:title="oscore_add_recipient &#45; add in recipient information">
<polygon fill="#bfbfbf" stroke="black" points="155,-19.5 155,-38.5 275,-38.5 275,-19.5 155,-19.5"/>
<text text-anchor="middle" x="215" y="-26.5" font-family="Helvetica,sans-Serif" font-size="10.00">oscore_add_recipient</text>
</a>
</g>
</g>
<!-- Node2 -->
<g id="node2" class="node">
<title>Node2</title>
<g id="a_node2"><a xlink:href="group__oscore__internal.html#ga8636deef153df3f5c67fba15ff3893c0" target="_top" xlink:title="oscore_derive_ctx &#45; derive a osc_ctx from oscore_conf information">
<polygon fill="white" stroke="black" points="7,-38.5 7,-57.5 112,-57.5 112,-38.5 7,-38.5"/>
<text text-anchor="middle" x="59.5" y="-45.5" font-family="Helvetica,sans-Serif" font-size="10.00">oscore_derive_ctx</text>
</a>
</g>
</g>
<!-- Node1&#45;&gt;Node2 -->
<g id="edge1" class="edge">
<title>Node1&#45;&gt;Node2</title>
<path fill="none" stroke="midnightblue" d="M144.7,-37.58C133.77,-38.93 122.63,-40.31 112.19,-41.6"/>
<polygon fill="midnightblue" stroke="midnightblue" points="145.16,-41.05 154.65,-36.35 144.3,-34.1 145.16,-41.05"/>
</g>
<!-- Node3 -->
<g id="node3" class="node">
<title>Node3</title>
<g id="a_node3"><a xlink:href="group__oscore__internal.html#gac1dcb68cfe7c74e017f67ad7c085a492" target="_top" xlink:title="oscore_duplicate_ctx &#45; duplicate a osc_ctx">
<polygon fill="white" stroke="black" points="0,-0.5 0,-19.5 119,-19.5 119,-0.5 0,-0.5"/>
<text text-anchor="middle" x="59.5" y="-7.5" font-family="Helvetica,sans-Serif" font-size="10.00">oscore_duplicate_ctx</text>
</a>
</g>
</g>
<!-- Node1&#45;&gt;Node3 -->
<g id="edge2" class="edge">
<title>Node1&#45;&gt;Node3</title>
<path fill="none" stroke="midnightblue" d="M144.72,-20.42C136.19,-19.37 127.54,-18.3 119.18,-17.26"/>
<polygon fill="midnightblue" stroke="midnightblue" points="144.3,-23.9 154.65,-21.65 145.16,-16.95 144.3,-23.9"/>
</g>
</g>
</svg>
