<?xml version="1.0" encoding="UTF-8" standalone="no"?>
<!DOCTYPE svg PUBLIC "-//W3C//DTD SVG 1.1//EN"
 "http://www.w3.org/Graphics/SVG/1.1/DTD/svg11.dtd">
<!-- Generated by graphviz version 2.43.0 (0)
 -->
<!-- Title: coap_print_addr Pages: 1 -->
<svg width="268pt" height="66pt"
 viewBox="0.00 0.00 268.00 66.00" xmlns="http://www.w3.org/2000/svg" xmlns:xlink="http://www.w3.org/1999/xlink">
<g id="graph0" class="graph" transform="scale(1 1) rotate(0) translate(4 62)">
<title>coap_print_addr</title>
<polygon fill="white" stroke="transparent" points="-4,4 -4,-62 264,-62 264,4 -4,4"/>
<!-- Node1 -->
<g id="node1" class="node">
<title>Node1</title>
<g id="a_node1"><a xlink:title="Print the address into the defined buffer.">
<polygon fill="#bfbfbf" stroke="black" points="0,-19.5 0,-38.5 95,-38.5 95,-19.5 0,-19.5"/>
<text text-anchor="middle" x="47.5" y="-26.5" font-family="Helvetica,sans-Serif" font-size="10.00">coap_print_addr</text>
</a>
</g>
</g>
<!-- Node2 -->
<g id="node2" class="node">
<title>Node2</title>
<g id="a_node2"><a xlink:href="coap__address_8c.html#a694f57c7af8d83ebd2fbb8cf9236749d" target="_top" xlink:title="Returns the port from addr in host byte order.">
<polygon fill="white" stroke="black" points="131,-38.5 131,-57.5 260,-57.5 260,-38.5 131,-38.5"/>
<text text-anchor="middle" x="195.5" y="-45.5" font-family="Helvetica,sans-Serif" font-size="10.00">coap_address_get_port</text>
</a>
</g>
</g>
<!-- Node1&#45;&gt;Node2 -->
<g id="edge1" class="edge">
<title>Node1&#45;&gt;Node2</title>
<path fill="none" stroke="midnightblue" d="M95.1,-35.06C103.25,-36.13 111.92,-37.25 120.6,-38.38"/>
<polygon fill="midnightblue" stroke="midnightblue" points="120.41,-41.89 130.77,-39.71 121.31,-34.95 120.41,-41.89"/>
</g>
<!-- Node3 -->
<g id="node3" class="node">
<title>Node3</title>
<g id="a_node3"><a xlink:href="group__logging.html#gace4fa18bde300fa06afd396a0a689031" target="_top" xlink:title="Print the IP address into the defined buffer.">
<polygon fill="white" stroke="black" points="141,-0.5 141,-19.5 250,-19.5 250,-0.5 141,-0.5"/>
<text text-anchor="middle" x="195.5" y="-7.5" font-family="Helvetica,sans-Serif" font-size="10.00">coap_print_ip_addr</text>
</a>
</g>
</g>
<!-- Node1&#45;&gt;Node3 -->
<g id="edge2" class="edge">
<title>Node1&#45;&gt;Node3</title>
<path fill="none" stroke="midnightblue" d="M95.1,-22.94C106.51,-21.45 118.91,-19.84 130.96,-18.27"/>
<polygon fill="midnightblue" stroke="midnightblue" points="131.51,-21.73 140.98,-16.97 130.61,-14.79 131.51,-21.73"/>
</g>
</g>
</svg>
