<?xml version="1.0" encoding="UTF-8" standalone="no"?>
<!DOCTYPE svg PUBLIC "-//W3C//DTD SVG 1.1//EN"
 "http://www.w3.org/Graphics/SVG/1.1/DTD/svg11.dtd">
<!-- Generated by graphviz version 2.43.0 (0)
 -->
<!-- Title: coap_dtls_is_supported Pages: 1 -->
<svg width="619pt" height="241pt"
 viewBox="0.00 0.00 619.00 240.50" xmlns="http://www.w3.org/2000/svg" xmlns:xlink="http://www.w3.org/1999/xlink">
<g id="graph0" class="graph" transform="scale(1 1) rotate(0) translate(4 236.5)">
<title>coap_dtls_is_supported</title>
<polygon fill="white" stroke="transparent" points="-4,4 -4,-236.5 615,-236.5 615,4 -4,4"/>
<!-- Node1 -->
<g id="node1" class="node">
<title>Node1</title>
<g id="a_node1"><a xlink:title="Check whether DTLS is available.">
<polygon fill="#bfbfbf" stroke="black" points="480,-95.5 480,-114.5 611,-114.5 611,-95.5 480,-95.5"/>
<text text-anchor="middle" x="545.5" y="-102.5" font-family="Helvetica,sans-Serif" font-size="10.00">coap_dtls_is_supported</text>
</a>
</g>
</g>
<!-- Node2 -->
<g id="node2" class="node">
<title>Node2</title>
<g id="a_node2"><a xlink:href="group__context.html#ga7b56f148fda46ca44655e1a9b373b97e" target="_top" xlink:title="Set the context&#39;s default Root CA information for a client or server.">
<polygon fill="white" stroke="black" points="308.5,-202 308.5,-232 430.5,-232 430.5,-202 308.5,-202"/>
<text text-anchor="start" x="316.5" y="-220" font-family="Helvetica,sans-Serif" font-size="10.00">coap_context_set_pki</text>
<text text-anchor="middle" x="369.5" y="-209" font-family="Helvetica,sans-Serif" font-size="10.00">_root_cas</text>
</a>
</g>
</g>
<!-- Node1&#45;&gt;Node2 -->
<g id="edge1" class="edge">
<title>Node1&#45;&gt;Node2</title>
<path fill="none" stroke="midnightblue" d="M529.04,-122.21C510.56,-141.85 477.86,-173.73 444,-193 438.05,-196.39 431.55,-199.38 424.96,-201.99"/>
<polygon fill="midnightblue" stroke="midnightblue" points="531.84,-124.34 536.05,-114.62 526.7,-119.59 531.84,-124.34"/>
</g>
<!-- Node3 -->
<g id="node3" class="node">
<title>Node3</title>
<g id="a_node3"><a xlink:href="coap__address_8c.html#aadfc53e241992612829ccf86d8adeb38" target="_top" xlink:title="Determine and set up scheme_hint_bits for a server that can be used in a call to coap_resolve_address...">
<polygon fill="white" stroke="black" points="314,-153 314,-183 425,-183 425,-153 314,-153"/>
<text text-anchor="start" x="322" y="-171" font-family="Helvetica,sans-Serif" font-size="10.00">coap_get_available</text>
<text text-anchor="middle" x="369.5" y="-160" font-family="Helvetica,sans-Serif" font-size="10.00">_scheme_hint_bits</text>
</a>
</g>
</g>
<!-- Node1&#45;&gt;Node3 -->
<g id="edge2" class="edge">
<title>Node1&#45;&gt;Node3</title>
<path fill="none" stroke="midnightblue" d="M510.47,-118.19C491.05,-125.64 466.23,-135.02 444,-143 434.87,-146.28 425.06,-149.69 415.67,-152.9"/>
<polygon fill="midnightblue" stroke="midnightblue" points="511.73,-121.46 519.8,-114.6 509.22,-114.93 511.73,-121.46"/>
</g>
<!-- Node4 -->
<g id="node4" class="node">
<title>Node4</title>
<g id="a_node4"><a xlink:href="group__context.html#ga1ab369ca0a3c4fe7f8a9e0536346ff71" target="_top" xlink:title="Creates a new coap_context_t object that will hold the CoAP stack status.">
<polygon fill="white" stroke="black" points="316,-114.5 316,-133.5 423,-133.5 423,-114.5 316,-114.5"/>
<text text-anchor="middle" x="369.5" y="-121.5" font-family="Helvetica,sans-Serif" font-size="10.00">coap_new_context</text>
</a>
</g>
</g>
<!-- Node1&#45;&gt;Node4 -->
<g id="edge3" class="edge">
<title>Node1&#45;&gt;Node4</title>
<path fill="none" stroke="midnightblue" d="M469.54,-113.19C453.91,-114.89 437.75,-116.66 423.14,-118.25"/>
<polygon fill="midnightblue" stroke="midnightblue" points="470.15,-116.64 479.71,-112.07 469.39,-109.68 470.15,-116.64"/>
</g>
<!-- Node5 -->
<g id="node5" class="node">
<title>Node5</title>
<g id="a_node5"><a xlink:href="coap__address_8c.html#ab03b6dbb9be4439180ba52717d14c5d9" target="_top" xlink:title="Resolve the specified address into a set of coap_address_t that can be used to bind() (local) or conn...">
<polygon fill="white" stroke="black" points="295,-76.5 295,-95.5 444,-95.5 444,-76.5 295,-76.5"/>
<text text-anchor="middle" x="369.5" y="-83.5" font-family="Helvetica,sans-Serif" font-size="10.00">coap_resolve_address_info</text>
</a>
</g>
</g>
<!-- Node1&#45;&gt;Node5 -->
<g id="edge4" class="edge">
<title>Node1&#45;&gt;Node5</title>
<path fill="none" stroke="midnightblue" d="M469.53,-96.81C461.11,-95.89 452.54,-94.96 444.13,-94.04"/>
<polygon fill="midnightblue" stroke="midnightblue" points="469.39,-100.32 479.71,-97.93 470.15,-93.36 469.39,-100.32"/>
</g>
<!-- Node6 -->
<g id="node6" class="node">
<title>Node6</title>
<g id="a_node6"><a xlink:href="coap__uri_8c.html#a8890896e5d2defbaa2558aaea33b4c8a" target="_top" xlink:title=" ">
<polygon fill="white" stroke="black" points="316,-38.5 316,-57.5 423,-57.5 423,-38.5 316,-38.5"/>
<text text-anchor="middle" x="369.5" y="-45.5" font-family="Helvetica,sans-Serif" font-size="10.00">coap_split_uri_sub</text>
</a>
</g>
</g>
<!-- Node1&#45;&gt;Node6 -->
<g id="edge5" class="edge">
<title>Node1&#45;&gt;Node6</title>
<path fill="none" stroke="midnightblue" d="M511.85,-91.63C492.35,-83.9 466.97,-74.29 444,-67 433.32,-63.61 421.63,-60.38 410.78,-57.57"/>
<polygon fill="midnightblue" stroke="midnightblue" points="510.61,-94.9 521.2,-95.36 513.21,-88.4 510.61,-94.9"/>
</g>
<!-- Node11 -->
<g id="node11" class="node">
<title>Node11</title>
<g id="a_node11"><a xlink:href="group__logging.html#ga4a9140f2423b4970123d795f547b6a93" target="_top" xlink:title="Build a string containing the current (D)TLS library support.">
<polygon fill="white" stroke="black" points="303.5,-0.5 303.5,-19.5 435.5,-19.5 435.5,-0.5 303.5,-0.5"/>
<text text-anchor="middle" x="369.5" y="-7.5" font-family="Helvetica,sans-Serif" font-size="10.00">coap_string_tls_support</text>
</a>
</g>
</g>
<!-- Node1&#45;&gt;Node11 -->
<g id="edge10" class="edge">
<title>Node1&#45;&gt;Node11</title>
<path fill="none" stroke="midnightblue" d="M527.02,-88.31C508.03,-71.05 476.08,-44.51 444,-29 436.17,-25.21 427.49,-22.12 418.92,-19.61"/>
<polygon fill="midnightblue" stroke="midnightblue" points="524.85,-91.06 534.56,-95.29 529.6,-85.93 524.85,-91.06"/>
</g>
<!-- Node7 -->
<g id="node7" class="node">
<title>Node7</title>
<g id="a_node7"><a xlink:href="group__uri__parse.html#gaa86cf4fdd1773d3b4270daac72ba9eba" target="_top" xlink:title="Parses a given string into URI components.">
<polygon fill="white" stroke="black" points="142,-57.5 142,-76.5 259,-76.5 259,-57.5 142,-57.5"/>
<text text-anchor="middle" x="200.5" y="-64.5" font-family="Helvetica,sans-Serif" font-size="10.00">coap_split_proxy_uri</text>
</a>
</g>
</g>
<!-- Node6&#45;&gt;Node7 -->
<g id="edge6" class="edge">
<title>Node6&#45;&gt;Node7</title>
<path fill="none" stroke="midnightblue" d="M305.35,-55.18C290.2,-56.91 274.1,-58.74 259.21,-60.43"/>
<polygon fill="midnightblue" stroke="midnightblue" points="306.12,-58.62 315.66,-54.01 305.33,-51.66 306.12,-58.62"/>
</g>
<!-- Node9 -->
<g id="node9" class="node">
<title>Node9</title>
<g id="a_node9"><a xlink:href="group__uri__parse.html#ga9b19917fbf64f3a35a52d31ae5f6f76c" target="_top" xlink:title="Parses a given string into URI components.">
<polygon fill="white" stroke="black" points="158.5,-19.5 158.5,-38.5 242.5,-38.5 242.5,-19.5 158.5,-19.5"/>
<text text-anchor="middle" x="200.5" y="-26.5" font-family="Helvetica,sans-Serif" font-size="10.00">coap_split_uri</text>
</a>
</g>
</g>
<!-- Node6&#45;&gt;Node9 -->
<g id="edge8" class="edge">
<title>Node6&#45;&gt;Node9</title>
<path fill="none" stroke="midnightblue" d="M305.5,-40.83C284.46,-38.44 261.56,-35.83 242.62,-33.68"/>
<polygon fill="midnightblue" stroke="midnightblue" points="305.33,-44.34 315.66,-41.99 306.12,-37.38 305.33,-44.34"/>
</g>
<!-- Node8 -->
<g id="node8" class="node">
<title>Node8</title>
<g id="a_node8"><a xlink:href="group__uri__parse.html#ga11d902f573bcfee188d5ccd4903d0393" target="_top" xlink:title="Extract uri_path string from request PDU.">
<polygon fill="white" stroke="black" points="0,-57.5 0,-76.5 106,-76.5 106,-57.5 0,-57.5"/>
<text text-anchor="middle" x="53" y="-64.5" font-family="Helvetica,sans-Serif" font-size="10.00">coap_get_uri_path</text>
</a>
</g>
</g>
<!-- Node7&#45;&gt;Node8 -->
<g id="edge7" class="edge">
<title>Node7&#45;&gt;Node8</title>
<path fill="none" stroke="midnightblue" d="M131.97,-67C123.37,-67 114.67,-67 106.36,-67"/>
<polygon fill="midnightblue" stroke="midnightblue" points="131.99,-70.5 141.99,-67 131.99,-63.5 131.99,-70.5"/>
</g>
<!-- Node10 -->
<g id="node10" class="node">
<title>Node10</title>
<g id="a_node10"><a xlink:href="coap__uri_8c.html#aee99e6e8fd8df58150ec10e66c8dc265" target="_top" xlink:title="Creates a new coap_uri_t object from the specified URI.">
<polygon fill="white" stroke="black" points="11.5,-19.5 11.5,-38.5 94.5,-38.5 94.5,-19.5 11.5,-19.5"/>
<text text-anchor="middle" x="53" y="-26.5" font-family="Helvetica,sans-Serif" font-size="10.00">coap_new_uri</text>
</a>
</g>
</g>
<!-- Node9&#45;&gt;Node10 -->
<g id="edge9" class="edge">
<title>Node9&#45;&gt;Node10</title>
<path fill="none" stroke="midnightblue" d="M148.11,-29C130.58,-29 111.23,-29 94.65,-29"/>
<polygon fill="midnightblue" stroke="midnightblue" points="148.19,-32.5 158.19,-29 148.19,-25.5 148.19,-32.5"/>
</g>
</g>
</svg>
