<?xml version="1.0" encoding="UTF-8" standalone="no"?>
<!DOCTYPE svg PUBLIC "-//W3C//DTD SVG 1.1//EN"
 "http://www.w3.org/Graphics/SVG/1.1/DTD/svg11.dtd">
<!-- Generated by graphviz version 2.43.0 (0)
 -->
<!-- Title: oscore_cs_key_params Pages: 1 -->
<svg width="763pt" height="142pt"
 viewBox="0.00 0.00 763.00 142.00" xmlns="http://www.w3.org/2000/svg" xmlns:xlink="http://www.w3.org/1999/xlink">
<g id="graph0" class="graph" transform="scale(1 1) rotate(0) translate(4 138)">
<title>oscore_cs_key_params</title>
<polygon fill="white" stroke="transparent" points="-4,4 -4,-138 759,-138 759,4 -4,4"/>
<!-- Node1 -->
<g id="node1" class="node">
<title>Node1</title>
<g id="a_node1"><a xlink:title=" ">
<polygon fill="#bfbfbf" stroke="black" points="0,-76.5 0,-95.5 129,-95.5 129,-76.5 0,-76.5"/>
<text text-anchor="middle" x="64.5" y="-83.5" font-family="Helvetica,sans-Serif" font-size="10.00">oscore_cs_key_params</text>
</a>
</g>
</g>
<!-- Node2 -->
<g id="node2" class="node">
<title>Node2</title>
<g id="a_node2"><a xlink:href="coap__mem_8h.html#a9f9fd8d6cf24f9c45a5501aeba5acaf9" target="_top" xlink:title="Allocates a chunk of size bytes and returns a pointer to the newly allocated memory.">
<polygon fill="white" stroke="black" points="182,-114.5 182,-133.5 287,-133.5 287,-114.5 182,-114.5"/>
<text text-anchor="middle" x="234.5" y="-121.5" font-family="Helvetica,sans-Serif" font-size="10.00">coap_malloc_type</text>
</a>
</g>
</g>
<!-- Node1&#45;&gt;Node2 -->
<g id="edge1" class="edge">
<title>Node1&#45;&gt;Node2</title>
<path fill="none" stroke="midnightblue" d="M107.89,-95.59C130.26,-100.65 157.9,-106.9 181.55,-112.25"/>
<polygon fill="midnightblue" stroke="midnightblue" points="180.89,-115.69 191.41,-114.48 182.43,-108.86 180.89,-115.69"/>
</g>
<!-- Node3 -->
<g id="node3" class="node">
<title>Node3</title>
<g id="a_node3"><a xlink:href="group__oscore__cbor__internal.html#gae8bbc18aeabe6d51af22d14e6173cfcb" target="_top" xlink:title=" ">
<polygon fill="white" stroke="black" points="348.5,-76.5 348.5,-95.5 475.5,-95.5 475.5,-76.5 348.5,-76.5"/>
<text text-anchor="middle" x="412" y="-83.5" font-family="Helvetica,sans-Serif" font-size="10.00">oscore_cbor_put_array</text>
</a>
</g>
</g>
<!-- Node1&#45;&gt;Node3 -->
<g id="edge2" class="edge">
<title>Node1&#45;&gt;Node3</title>
<path fill="none" stroke="midnightblue" d="M129.27,-86C188.47,-86 276.52,-86 338.39,-86"/>
<polygon fill="midnightblue" stroke="midnightblue" points="338.47,-89.5 348.47,-86 338.47,-82.5 338.47,-89.5"/>
</g>
<!-- Node6 -->
<g id="node6" class="node">
<title>Node6</title>
<g id="a_node6"><a xlink:href="group__oscore__cbor__internal.html#ga498d463d390ee30806c4ef3536e9fbcc" target="_top" xlink:title=" ">
<polygon fill="white" stroke="black" points="165,-38.5 165,-57.5 304,-57.5 304,-38.5 165,-38.5"/>
<text text-anchor="middle" x="234.5" y="-45.5" font-family="Helvetica,sans-Serif" font-size="10.00">oscore_cbor_put_number</text>
</a>
</g>
</g>
<!-- Node1&#45;&gt;Node6 -->
<g id="edge5" class="edge">
<title>Node1&#45;&gt;Node6</title>
<path fill="none" stroke="midnightblue" d="M107.89,-76.41C130.26,-71.35 157.9,-65.1 181.55,-59.75"/>
<polygon fill="midnightblue" stroke="midnightblue" points="182.43,-63.14 191.41,-57.52 180.89,-56.31 182.43,-63.14"/>
</g>
<!-- Node4 -->
<g id="node4" class="node">
<title>Node4</title>
<g id="a_node4"><a xlink:href="group__oscore__cbor__internal.html#gab2b2acacb1b2fbf82de02ce4a4d05306" target="_top" xlink:title=" ">
<polygon fill="white" stroke="black" points="520,-38.5 520,-57.5 666,-57.5 666,-38.5 520,-38.5"/>
<text text-anchor="middle" x="593" y="-45.5" font-family="Helvetica,sans-Serif" font-size="10.00">oscore_cbor_put_unsigned</text>
</a>
</g>
</g>
<!-- Node3&#45;&gt;Node4 -->
<g id="edge3" class="edge">
<title>Node3&#45;&gt;Node4</title>
<path fill="none" stroke="midnightblue" d="M458.17,-76.41C482.22,-71.31 511.97,-64.99 537.32,-59.61"/>
<polygon fill="midnightblue" stroke="midnightblue" points="538.1,-63.02 547.16,-57.52 536.65,-56.17 538.1,-63.02"/>
</g>
<!-- Node5 -->
<g id="node5" class="node">
<title>Node5</title>
<g id="a_node5"><a xlink:href="oscore__cbor_8c.html#aba97ba36fc049fca79bd25b249ecc931" target="_top" xlink:title=" ">
<polygon fill="white" stroke="black" points="702,-38.5 702,-57.5 755,-57.5 755,-38.5 702,-38.5"/>
<text text-anchor="middle" x="728.5" y="-45.5" font-family="Helvetica,sans-Serif" font-size="10.00">put_b_f</text>
</a>
</g>
</g>
<!-- Node4&#45;&gt;Node5 -->
<g id="edge4" class="edge">
<title>Node4&#45;&gt;Node5</title>
<path fill="none" stroke="midnightblue" d="M666.22,-48C675.11,-48 683.86,-48 691.85,-48"/>
<polygon fill="midnightblue" stroke="midnightblue" points="691.86,-51.5 701.86,-48 691.86,-44.5 691.86,-51.5"/>
</g>
<!-- Node6&#45;&gt;Node4 -->
<g id="edge8" class="edge">
<title>Node6&#45;&gt;Node4</title>
<path fill="none" stroke="midnightblue" d="M304.24,-48C362.89,-48 447.36,-48 509.62,-48"/>
<polygon fill="midnightblue" stroke="midnightblue" points="509.8,-51.5 519.8,-48 509.8,-44.5 509.8,-51.5"/>
</g>
<!-- Node7 -->
<g id="node7" class="node">
<title>Node7</title>
<g id="a_node7"><a xlink:href="group__oscore__cbor__internal.html#ga96720f3d0f1ab31048fa6650de1cc331" target="_top" xlink:title=" ">
<polygon fill="white" stroke="black" points="340,-0.5 340,-19.5 484,-19.5 484,-0.5 340,-0.5"/>
<text text-anchor="middle" x="412" y="-7.5" font-family="Helvetica,sans-Serif" font-size="10.00">oscore_cbor_put_negative</text>
</a>
</g>
</g>
<!-- Node6&#45;&gt;Node7 -->
<g id="edge6" class="edge">
<title>Node6&#45;&gt;Node7</title>
<path fill="none" stroke="midnightblue" d="M279.79,-38.41C303.26,-33.33 332.28,-27.04 357.06,-21.68"/>
<polygon fill="midnightblue" stroke="midnightblue" points="358,-25.06 367.03,-19.52 356.52,-18.22 358,-25.06"/>
</g>
<!-- Node7&#45;&gt;Node4 -->
<g id="edge7" class="edge">
<title>Node7&#45;&gt;Node4</title>
<path fill="none" stroke="midnightblue" d="M458.17,-19.59C482.22,-24.69 511.97,-31.01 537.32,-36.39"/>
<polygon fill="midnightblue" stroke="midnightblue" points="536.65,-39.83 547.16,-38.48 538.1,-32.98 536.65,-39.83"/>
</g>
</g>
</svg>
