<?xml version="1.0" encoding="UTF-8" standalone="no"?>
<!DOCTYPE svg PUBLIC "-//W3C//DTD SVG 1.1//EN"
 "http://www.w3.org/Graphics/SVG/1.1/DTD/svg11.dtd">
<!-- Generated by graphviz version 2.43.0 (0)
 -->
<!-- Title: coap_context_set_pki_root_cas Pages: 1 -->
<svg width="297pt" height="116pt"
 viewBox="0.00 0.00 297.00 115.50" xmlns="http://www.w3.org/2000/svg" xmlns:xlink="http://www.w3.org/1999/xlink">
<g id="graph0" class="graph" transform="scale(1 1) rotate(0) translate(4 111.5)">
<title>coap_context_set_pki_root_cas</title>
<polygon fill="white" stroke="transparent" points="-4,4 -4,-111.5 293,-111.5 293,4 -4,4"/>
<!-- Node1 -->
<g id="node1" class="node">
<title>Node1</title>
<g id="a_node1"><a xlink:title="Set the context&#39;s default Root CA information for a client or server.">
<polygon fill="#bfbfbf" stroke="black" points="0,-33 0,-63 122,-63 122,-33 0,-33"/>
<text text-anchor="start" x="8" y="-51" font-family="Helvetica,sans-Serif" font-size="10.00">coap_context_set_pki</text>
<text text-anchor="middle" x="61" y="-40" font-family="Helvetica,sans-Serif" font-size="10.00">_root_cas</text>
</a>
</g>
</g>
<!-- Node2 -->
<g id="node2" class="node">
<title>Node2</title>
<g id="a_node2"><a xlink:href="coap__notls_8c.html#ab4559d423088e44600c8e338fc7da212" target="_top" xlink:title=" ">
<polygon fill="white" stroke="black" points="161,-77 161,-107 286,-107 286,-77 161,-77"/>
<text text-anchor="start" x="169" y="-95" font-family="Helvetica,sans-Serif" font-size="10.00">coap_dtls_context_set</text>
<text text-anchor="middle" x="223.5" y="-84" font-family="Helvetica,sans-Serif" font-size="10.00">_pki_root_cas</text>
</a>
</g>
</g>
<!-- Node1&#45;&gt;Node2 -->
<g id="edge1" class="edge">
<title>Node1&#45;&gt;Node2</title>
<path fill="none" stroke="midnightblue" d="M116.79,-63.02C130.01,-66.65 144.27,-70.55 157.9,-74.29"/>
<polygon fill="midnightblue" stroke="midnightblue" points="157.12,-77.71 167.69,-76.97 158.97,-70.95 157.12,-77.71"/>
</g>
<!-- Node3 -->
<g id="node3" class="node">
<title>Node3</title>
<g id="a_node3"><a xlink:href="group__dtls.html#ga9def28dc6da3b77c14e89d63769ec085" target="_top" xlink:title="Check whether DTLS is available.">
<polygon fill="white" stroke="black" points="158,-38.5 158,-57.5 289,-57.5 289,-38.5 158,-38.5"/>
<text text-anchor="middle" x="223.5" y="-45.5" font-family="Helvetica,sans-Serif" font-size="10.00">coap_dtls_is_supported</text>
</a>
</g>
</g>
<!-- Node1&#45;&gt;Node3 -->
<g id="edge2" class="edge">
<title>Node1&#45;&gt;Node3</title>
<path fill="none" stroke="midnightblue" d="M122.22,-48C130.6,-48 139.28,-48 147.88,-48"/>
<polygon fill="midnightblue" stroke="midnightblue" points="147.91,-51.5 157.91,-48 147.91,-44.5 147.91,-51.5"/>
</g>
<!-- Node4 -->
<g id="node4" class="node">
<title>Node4</title>
<g id="a_node4"><a xlink:href="group__dtls.html#ga55b3b545f0784c7a6135021017317e1b" target="_top" xlink:title="Check whether TLS is available.">
<polygon fill="white" stroke="black" points="161,-0.5 161,-19.5 286,-19.5 286,-0.5 161,-0.5"/>
<text text-anchor="middle" x="223.5" y="-7.5" font-family="Helvetica,sans-Serif" font-size="10.00">coap_tls_is_supported</text>
</a>
</g>
</g>
<!-- Node1&#45;&gt;Node4 -->
<g id="edge3" class="edge">
<title>Node1&#45;&gt;Node4</title>
<path fill="none" stroke="midnightblue" d="M122.22,-33.74C138.57,-29.87 156.09,-25.72 171.85,-21.99"/>
<polygon fill="midnightblue" stroke="midnightblue" points="173,-25.32 181.92,-19.61 171.38,-18.51 173,-25.32"/>
</g>
</g>
</svg>
