<?xml version="1.0" encoding="UTF-8" standalone="no"?>
<!DOCTYPE svg PUBLIC "-//W3C//DTD SVG 1.1//EN"
 "http://www.w3.org/Graphics/SVG/1.1/DTD/svg11.dtd">
<!-- Generated by graphviz version 2.43.0 (0)
 -->
<!-- Title: coap_address_init Pages: 1 -->
<!--zoomable 240 -->
<svg id="main" version="1.1" xmlns="http://www.w3.org/2000/svg" xmlns:xlink="http://www.w3.org/1999/xlink" xml:space="preserve" onload="init(evt)">
<style type="text/css"><![CDATA[
.edge:hover path { stroke: red; }
.edge:hover polygon { stroke: red; fill: red; }
]]></style>
<script type="text/javascript"><![CDATA[
var edges = document.getElementsByTagName('g');
if (edges && edges.length) {
  for (var i=0;i<edges.length;i++) {
    if (edges[i].id.substr(0,4)=='edge') {
      edges[i].setAttribute('class','edge');
    }
  }
}
]]></script>
        <defs>
                <circle id="rim" cx="0" cy="0" r="7"/>
                <circle id="rim2" cx="0" cy="0" r="3.5"/>
                <g id="zoomPlus">
                        <use xlink:href="#rim" fill="#404040">
                                <set attributeName="fill" to="#808080" begin="zoomplus.mouseover" end="zoomplus.mouseout"/>
                        </use>
                        <path d="M-4,0h8M0,-4v8" fill="none" stroke="white" stroke-width="1.5" pointer-events="none"/>
                </g>
                <g id="zoomMin">
                        <use xlink:href="#rim" fill="#404040">
                                <set attributeName="fill" to="#808080" begin="zoomminus.mouseover" end="zoomminus.mouseout"/>
                        </use>
                        <path d="M-4,0h8" fill="none" stroke="white" stroke-width="1.5" pointer-events="none"/>
                </g>
                <g id="dirArrow">
                        <path fill="none" stroke="white" stroke-width="1.5" d="M0,-3.0v7 M-2.5,-0.5L0,-3.0L2.5,-0.5"/>
                </g>
               <g id="resetDef">
                       <use xlink:href="#rim2" fill="#404040">
                               <set attributeName="fill" to="#808080" begin="reset.mouseover" end="reset.mouseout"/>
                       </use>
               </g>
        </defs>

<script type="text/javascript">
var viewWidth = 1239;
var viewHeight = 240;
var sectionId = 'dynsection-6';
</script>
<script xlink:href="svgpan.js"/>
<svg id="graph" class="graph">
<g id="viewport">
<title>coap_address_init</title>
<polygon fill="white" stroke="transparent" points="-4,4 -4,-236 1235,-236 1235,4 -4,4"/>
<!-- Node1 -->
<g id="node1" class="node">
<title>Node1</title>
<g id="a_node1"><a xlink:title="Resets the given coap_address_t object addr to its default values.">
<polygon fill="#bfbfbf" stroke="black" points="1136,-155.5 1136,-174.5 1231,-174.5 1231,-155.5 1136,-155.5"/>
<text text-anchor="middle" x="1183.5" y="-162.5" font-family="Helvetica,sans-Serif" font-size="10.00">coap_address_init</text>
</a>
</g>
</g>
<!-- Node2 -->
<g id="node2" class="node">
<title>Node2</title>
<g id="a_node2"><a xlink:href="group__context.html#gab4cb63f478fb45c56156b9d3cb47e06f" target="_top" xlink:title="Function interface for joining a multicast group for listening for the currently defined endpoints th...">
<polygon fill="white" stroke="black" points="962,-212.5 962,-231.5 1100,-231.5 1100,-212.5 962,-212.5"/>
<text text-anchor="middle" x="1031" y="-219.5" font-family="Helvetica,sans-Serif" font-size="10.00">coap_join_mcast_group_intf</text>
</a>
</g>
</g>
<!-- Node1&#45;&gt;Node2 -->
<g id="edge1" class="edge">
<title>Node1&#45;&gt;Node2</title>
<path fill="none" stroke="midnightblue" d="M1150.04,-178.34C1134.89,-184.48 1116.58,-191.76 1100,-198 1086.88,-202.94 1072.22,-208.15 1059.88,-212.45"/>
<polygon fill="midnightblue" stroke="midnightblue" points="1151.54,-181.51 1159.48,-174.5 1148.9,-175.03 1151.54,-181.51"/>
</g>
<!-- Node3 -->
<g id="node3" class="node">
<title>Node3</title>
<g id="a_node3"><a xlink:href="coap__session_8c.html#aafac09e29573ab6751b5f0ac754bfc2f" target="_top" xlink:title=" ">
<polygon fill="white" stroke="black" points="978,-117.5 978,-136.5 1084,-136.5 1084,-117.5 978,-117.5"/>
<text text-anchor="middle" x="1031" y="-124.5" font-family="Helvetica,sans-Serif" font-size="10.00">coap_make_session</text>
</a>
</g>
</g>
<!-- Node1&#45;&gt;Node3 -->
<g id="edge2" class="edge">
<title>Node1&#45;&gt;Node3</title>
<path fill="none" stroke="midnightblue" d="M1134.82,-152.96C1113.79,-147.65 1089.43,-141.5 1069.7,-136.52"/>
<polygon fill="midnightblue" stroke="midnightblue" points="1133.97,-156.36 1144.52,-155.41 1135.68,-149.57 1133.97,-156.36"/>
</g>
<!-- Node5 -->
<g id="node5" class="node">
<title>Node5</title>
<g id="a_node5"><a xlink:href="net_8c.html#a44ffb4b70e537043e9a9cf344be24b92" target="_top" xlink:title=" ">
<polygon fill="white" stroke="black" points="623.5,-152.5 623.5,-171.5 727.5,-171.5 727.5,-152.5 623.5,-152.5"/>
<text text-anchor="middle" x="675.5" y="-159.5" font-family="Helvetica,sans-Serif" font-size="10.00">coap_read_endpoint</text>
</a>
</g>
</g>
<!-- Node1&#45;&gt;Node5 -->
<g id="edge23" class="edge">
<title>Node1&#45;&gt;Node5</title>
<path fill="none" stroke="midnightblue" d="M1125.49,-165.48C1048.94,-166.01 908.72,-166.6 789,-165 768.98,-164.73 746.95,-164.2 727.74,-163.65"/>
<polygon fill="midnightblue" stroke="midnightblue" points="1125.88,-168.97 1135.86,-165.4 1125.83,-161.97 1125.88,-168.97"/>
</g>
<!-- Node20 -->
<g id="node20" class="node">
<title>Node20</title>
<g id="a_node20"><a xlink:href="coap__io_8c.html#a1086276cc42228e6b0b1c72b4f72fa84" target="_top" xlink:title=" ">
<polygon fill="white" stroke="black" points="964.5,-76.5 964.5,-95.5 1097.5,-95.5 1097.5,-76.5 964.5,-76.5"/>
<text text-anchor="middle" x="1031" y="-83.5" font-family="Helvetica,sans-Serif" font-size="10.00">coap_socket_connect_udp</text>
</a>
</g>
</g>
<!-- Node1&#45;&gt;Node20 -->
<g id="edge24" class="edge">
<title>Node1&#45;&gt;Node20</title>
<path fill="none" stroke="midnightblue" d="M1162.78,-148.91C1146.68,-136.4 1122.92,-119.32 1100,-108 1089.99,-103.05 1078.61,-98.87 1068.07,-95.52"/>
<polygon fill="midnightblue" stroke="midnightblue" points="1160.88,-151.87 1170.89,-155.33 1165.22,-146.38 1160.88,-151.87"/>
</g>
<!-- Node4 -->
<g id="node4" class="node">
<title>Node4</title>
<g id="a_node4"><a xlink:href="group__session__internal.html#ga0d8adbae82b2ced3accee1361ac8fe6c" target="_top" xlink:title="Lookup the server session for the packet received on an endpoint, or create a new one.">
<polygon fill="white" stroke="black" points="789,-136.5 789,-155.5 926,-155.5 926,-136.5 789,-136.5"/>
<text text-anchor="middle" x="857.5" y="-143.5" font-family="Helvetica,sans-Serif" font-size="10.00">coap_endpoint_get_session</text>
</a>
</g>
</g>
<!-- Node3&#45;&gt;Node4 -->
<g id="edge3" class="edge">
<title>Node3&#45;&gt;Node4</title>
<path fill="none" stroke="midnightblue" d="M967.5,-133.92C954.03,-135.42 939.73,-137 926.08,-138.51"/>
<polygon fill="midnightblue" stroke="midnightblue" points="968.06,-137.38 977.61,-132.8 967.29,-130.43 968.06,-137.38"/>
</g>
<!-- Node13 -->
<g id="node13" class="node">
<title>Node13</title>
<g id="a_node13"><a xlink:href="group__session__internal.html#ga3170fc82514b107cd69719a59880e7bd" target="_top" xlink:title="Creates a new server session for the specified endpoint.">
<polygon fill="white" stroke="black" points="791.5,-98.5 791.5,-117.5 923.5,-117.5 923.5,-98.5 791.5,-98.5"/>
<text text-anchor="middle" x="857.5" y="-105.5" font-family="Helvetica,sans-Serif" font-size="10.00">coap_new_server_session</text>
</a>
</g>
</g>
<!-- Node3&#45;&gt;Node13 -->
<g id="edge14" class="edge">
<title>Node3&#45;&gt;Node13</title>
<path fill="none" stroke="midnightblue" d="M967.41,-120.07C953.15,-118.49 937.96,-116.8 923.59,-115.21"/>
<polygon fill="midnightblue" stroke="midnightblue" points="967.29,-123.57 977.61,-121.2 968.06,-116.62 967.29,-123.57"/>
</g>
<!-- Node15 -->
<g id="node15" class="node">
<title>Node15</title>
<g id="a_node15"><a xlink:href="coap__session_8c.html#a78865254d0191854b0b7c35f28eefe71" target="_top" xlink:title=" ">
<polygon fill="white" stroke="black" points="803,-49 803,-79 912,-79 912,-49 803,-49"/>
<text text-anchor="start" x="811" y="-67" font-family="Helvetica,sans-Serif" font-size="10.00">coap_session_create</text>
<text text-anchor="middle" x="857.5" y="-56" font-family="Helvetica,sans-Serif" font-size="10.00">_client</text>
</a>
</g>
</g>
<!-- Node3&#45;&gt;Node15 -->
<g id="edge18" class="edge">
<title>Node3&#45;&gt;Node15</title>
<path fill="none" stroke="midnightblue" d="M988.54,-114.36C979.72,-111.45 970.5,-108.25 962,-105 945.65,-98.74 942.22,-95.6 926,-89 917.78,-85.66 908.93,-82.24 900.43,-79.06"/>
<polygon fill="midnightblue" stroke="midnightblue" points="987.68,-117.76 998.27,-117.5 989.83,-111.09 987.68,-117.76"/>
</g>
<!-- Node4&#45;&gt;Node5 -->
<g id="edge4" class="edge">
<title>Node4&#45;&gt;Node5</title>
<path fill="none" stroke="midnightblue" d="M778.83,-152.9C761.48,-154.45 743.49,-156.05 727.54,-157.46"/>
<polygon fill="midnightblue" stroke="midnightblue" points="779.31,-156.38 788.96,-152 778.69,-149.4 779.31,-156.38"/>
</g>
<!-- Node6 -->
<g id="node6" class="node">
<title>Node6</title>
<g id="a_node6"><a xlink:href="group__app__io__internal.html#ga503f851fa137eb8a9c2936e2098c5eb9" target="_top" xlink:title="Process all the epoll events.">
<polygon fill="white" stroke="black" points="441.5,-114.5 441.5,-133.5 533.5,-133.5 533.5,-114.5 441.5,-114.5"/>
<text text-anchor="middle" x="487.5" y="-121.5" font-family="Helvetica,sans-Serif" font-size="10.00">coap_io_do_epoll</text>
</a>
</g>
</g>
<!-- Node5&#45;&gt;Node6 -->
<g id="edge5" class="edge">
<title>Node5&#45;&gt;Node6</title>
<path fill="none" stroke="midnightblue" d="M617.52,-150.36C590.65,-144.87 559.03,-138.41 533.81,-133.26"/>
<polygon fill="midnightblue" stroke="midnightblue" points="617.07,-153.84 627.56,-152.41 618.47,-146.98 617.07,-153.84"/>
</g>
<!-- Node10 -->
<g id="node10" class="node">
<title>Node10</title>
<g id="a_node10"><a xlink:href="group__app__io__internal.html#ga2208802b0711ad20df07271b751b41dc" target="_top" xlink:title="Processes any outstanding read, write, accept or connect I/O as indicated in the coap_socket_t struct...">
<polygon fill="white" stroke="black" points="448,-152.5 448,-171.5 527,-171.5 527,-152.5 448,-152.5"/>
<text text-anchor="middle" x="487.5" y="-159.5" font-family="Helvetica,sans-Serif" font-size="10.00">coap_io_do_io</text>
</a>
</g>
</g>
<!-- Node5&#45;&gt;Node10 -->
<g id="edge10" class="edge">
<title>Node5&#45;&gt;Node10</title>
<path fill="none" stroke="midnightblue" d="M612.99,-162C584.71,-162 552.04,-162 527.26,-162"/>
<polygon fill="midnightblue" stroke="midnightblue" points="613.18,-165.5 623.18,-162 613.18,-158.5 613.18,-165.5"/>
</g>
<!-- Node7 -->
<g id="node7" class="node">
<title>Node7</title>
<g id="a_node7"><a xlink:href="group__app__io.html#ga2758ed5fdd6ce79ec95ea8dbf72a5644" target="_top" xlink:title="The main message processing loop with additional fds for internal select.">
<polygon fill="white" stroke="black" points="245,-114.5 245,-133.5 377,-133.5 377,-114.5 245,-114.5"/>
<text text-anchor="middle" x="311" y="-121.5" font-family="Helvetica,sans-Serif" font-size="10.00">coap_io_process_with_fds</text>
</a>
</g>
</g>
<!-- Node6&#45;&gt;Node7 -->
<g id="edge6" class="edge">
<title>Node6&#45;&gt;Node7</title>
<path fill="none" stroke="midnightblue" d="M430.76,-124C413.72,-124 394.82,-124 377.21,-124"/>
<polygon fill="midnightblue" stroke="midnightblue" points="431.11,-127.5 441.11,-124 431.11,-120.5 431.11,-127.5"/>
</g>
<!-- Node8 -->
<g id="node8" class="node">
<title>Node8</title>
<g id="a_node8"><a xlink:href="group__app__io.html#ga082f7bbf15d3f37c31c2a0a5e78ea4cf" target="_top" xlink:title="The main I/O processing function.">
<polygon fill="white" stroke="black" points="119,-114.5 119,-133.5 209,-133.5 209,-114.5 119,-114.5"/>
<text text-anchor="middle" x="164" y="-121.5" font-family="Helvetica,sans-Serif" font-size="10.00">coap_io_process</text>
</a>
</g>
</g>
<!-- Node7&#45;&gt;Node8 -->
<g id="edge7" class="edge">
<title>Node7&#45;&gt;Node8</title>
<path fill="none" stroke="midnightblue" d="M234.53,-117.26C225.85,-117.28 217.23,-117.44 209.17,-117.73"/>
<polygon fill="midnightblue" stroke="midnightblue" points="234.7,-120.76 244.71,-117.28 234.72,-113.76 234.7,-120.76"/>
</g>
<!-- Node8&#45;&gt;Node7 -->
<g id="edge8" class="edge">
<title>Node8&#45;&gt;Node7</title>
<path fill="none" stroke="midnightblue" d="M219.41,-130.56C227.67,-130.74 236.25,-130.79 244.71,-130.72"/>
<polygon fill="midnightblue" stroke="midnightblue" points="219.26,-127.05 209.17,-130.27 219.07,-134.05 219.26,-127.05"/>
</g>
<!-- Node9 -->
<g id="node9" class="node">
<title>Node9</title>
<g id="a_node9"><a xlink:href="net_8h.html#ac6b34aa979ec545eb710e45a26c98fc1" target="_top" xlink:title=" ">
<polygon fill="white" stroke="black" points="0,-114.5 0,-133.5 83,-133.5 83,-114.5 0,-114.5"/>
<text text-anchor="middle" x="41.5" y="-121.5" font-family="Helvetica,sans-Serif" font-size="10.00">coap_run_once</text>
</a>
</g>
</g>
<!-- Node8&#45;&gt;Node9 -->
<g id="edge9" class="edge">
<title>Node8&#45;&gt;Node9</title>
<path fill="none" stroke="midnightblue" d="M108.79,-124C100.15,-124 91.34,-124 83.08,-124"/>
<polygon fill="midnightblue" stroke="midnightblue" points="108.81,-127.5 118.81,-124 108.81,-120.5 108.81,-127.5"/>
</g>
<!-- Node10&#45;&gt;Node7 -->
<g id="edge11" class="edge">
<title>Node10&#45;&gt;Node7</title>
<path fill="none" stroke="midnightblue" d="M437.85,-151.41C412.13,-145.81 380.81,-138.98 355.84,-133.55"/>
<polygon fill="midnightblue" stroke="midnightblue" points="437.26,-154.86 447.77,-153.57 438.75,-148.02 437.26,-154.86"/>
</g>
<!-- Node11 -->
<g id="node11" class="node">
<title>Node11</title>
<g id="a_node11"><a xlink:href="net_8h.html#af937985e2b14a287a849663574d59bcb" target="_top" xlink:title=" ">
<polygon fill="white" stroke="black" points="280,-152.5 280,-171.5 342,-171.5 342,-152.5 280,-152.5"/>
<text text-anchor="middle" x="311" y="-159.5" font-family="Helvetica,sans-Serif" font-size="10.00">coap_read</text>
</a>
</g>
</g>
<!-- Node10&#45;&gt;Node11 -->
<g id="edge12" class="edge">
<title>Node10&#45;&gt;Node11</title>
<path fill="none" stroke="midnightblue" d="M437.71,-162C407.07,-162 368.51,-162 342.23,-162"/>
<polygon fill="midnightblue" stroke="midnightblue" points="437.77,-165.5 447.77,-162 437.77,-158.5 437.77,-165.5"/>
</g>
<!-- Node12 -->
<g id="node12" class="node">
<title>Node12</title>
<g id="a_node12"><a xlink:href="coap__io__contiki_8c.html#a75a7c93e10ca7858449ba304aad4ea37" target="_top" xlink:title=" ">
<polygon fill="white" stroke="black" points="122.5,-152.5 122.5,-171.5 205.5,-171.5 205.5,-152.5 122.5,-152.5"/>
<text text-anchor="middle" x="164" y="-159.5" font-family="Helvetica,sans-Serif" font-size="10.00">coap_run_once</text>
</a>
</g>
</g>
<!-- Node11&#45;&gt;Node12 -->
<g id="edge13" class="edge">
<title>Node11&#45;&gt;Node12</title>
<path fill="none" stroke="midnightblue" d="M269.92,-162C249.94,-162 225.81,-162 205.73,-162"/>
<polygon fill="midnightblue" stroke="midnightblue" points="269.96,-165.5 279.96,-162 269.96,-158.5 269.96,-165.5"/>
</g>
<!-- Node14 -->
<g id="node14" class="node">
<title>Node14</title>
<g id="a_node14"><a xlink:href="net_8c.html#a7437c90770ffd13685e6a77799b4753b" target="_top" xlink:title=" ">
<polygon fill="white" stroke="black" points="618.5,-114.5 618.5,-133.5 732.5,-133.5 732.5,-114.5 618.5,-114.5"/>
<text text-anchor="middle" x="675.5" y="-121.5" font-family="Helvetica,sans-Serif" font-size="10.00">coap_accept_endpoint</text>
</a>
</g>
</g>
<!-- Node13&#45;&gt;Node14 -->
<g id="edge15" class="edge">
<title>Node13&#45;&gt;Node14</title>
<path fill="none" stroke="midnightblue" d="M781.23,-114.69C764.94,-116.14 748,-117.64 732.6,-119.01"/>
<polygon fill="midnightblue" stroke="midnightblue" points="781.61,-118.17 791.26,-113.8 780.99,-111.2 781.61,-118.17"/>
</g>
<!-- Node14&#45;&gt;Node6 -->
<g id="edge16" class="edge">
<title>Node14&#45;&gt;Node6</title>
<path fill="none" stroke="midnightblue" d="M608.37,-124C583.57,-124 555.99,-124 533.54,-124"/>
<polygon fill="midnightblue" stroke="midnightblue" points="608.44,-127.5 618.44,-124 608.44,-120.5 608.44,-127.5"/>
</g>
<!-- Node14&#45;&gt;Node10 -->
<g id="edge17" class="edge">
<title>Node14&#45;&gt;Node10</title>
<path fill="none" stroke="midnightblue" d="M617.48,-135.65C588.23,-141.63 553.37,-148.75 527.27,-154.08"/>
<polygon fill="midnightblue" stroke="midnightblue" points="618.47,-139.02 627.56,-133.59 617.07,-132.16 618.47,-139.02"/>
</g>
<!-- Node16 -->
<g id="node16" class="node">
<title>Node16</title>
<g id="a_node16"><a xlink:href="group__session.html#ga6c9b57585703c357b0222b674044a88d" target="_top" xlink:title="Creates a new client session to the designated server.">
<polygon fill="white" stroke="black" points="611.5,-76.5 611.5,-95.5 739.5,-95.5 739.5,-76.5 611.5,-76.5"/>
<text text-anchor="middle" x="675.5" y="-83.5" font-family="Helvetica,sans-Serif" font-size="10.00">coap_new_client_session</text>
</a>
</g>
</g>
<!-- Node15&#45;&gt;Node16 -->
<g id="edge19" class="edge">
<title>Node15&#45;&gt;Node16</title>
<path fill="none" stroke="midnightblue" d="M792.98,-71.76C775.67,-73.88 756.93,-76.17 739.64,-78.28"/>
<polygon fill="midnightblue" stroke="midnightblue" points="793.48,-75.23 802.98,-70.54 792.63,-68.28 793.48,-75.23"/>
</g>
<!-- Node17 -->
<g id="node17" class="node">
<title>Node17</title>
<g id="a_node17"><a xlink:href="group__session.html#ga9ce8da7d62a9c35be01208c44e8c7737" target="_top" xlink:title="Creates a new client session to the designated server with PKI credentials.">
<polygon fill="white" stroke="black" points="602.5,-38.5 602.5,-57.5 748.5,-57.5 748.5,-38.5 602.5,-38.5"/>
<text text-anchor="middle" x="675.5" y="-45.5" font-family="Helvetica,sans-Serif" font-size="10.00">coap_new_client_session_pki</text>
</a>
</g>
</g>
<!-- Node15&#45;&gt;Node17 -->
<g id="edge20" class="edge">
<title>Node15&#45;&gt;Node17</title>
<path fill="none" stroke="midnightblue" d="M792.81,-58.34C778.57,-57.07 763.37,-55.72 748.81,-54.43"/>
<polygon fill="midnightblue" stroke="midnightblue" points="792.71,-61.84 802.98,-59.24 793.33,-54.87 792.71,-61.84"/>
</g>
<!-- Node18 -->
<g id="node18" class="node">
<title>Node18</title>
<g id="a_node18"><a xlink:href="group__session.html#gac9d4dbb58c94b63231d615fe27203939" target="_top" xlink:title="Creates a new client session to the designated server with PSK credentials.">
<polygon fill="white" stroke="black" points="598,-0.5 598,-19.5 753,-19.5 753,-0.5 598,-0.5"/>
<text text-anchor="middle" x="675.5" y="-7.5" font-family="Helvetica,sans-Serif" font-size="10.00">coap_new_client_session_psk2</text>
</a>
</g>
</g>
<!-- Node15&#45;&gt;Node18 -->
<g id="edge21" class="edge">
<title>Node15&#45;&gt;Node18</title>
<path fill="none" stroke="midnightblue" d="M804.98,-45.64C788.46,-40.01 770.04,-33.99 753,-29 741.57,-25.66 729.08,-22.39 717.56,-19.54"/>
<polygon fill="midnightblue" stroke="midnightblue" points="803.86,-48.96 814.45,-48.9 806.13,-42.34 803.86,-48.96"/>
</g>
<!-- Node19 -->
<g id="node19" class="node">
<title>Node19</title>
<g id="a_node19"><a xlink:href="group__session.html#ga5faf4dd14fcee5d87dd71eacfddf255a" target="_top" xlink:title="Creates a new client session to the designated server with PSK credentials.">
<polygon fill="white" stroke="black" points="413,-0.5 413,-19.5 562,-19.5 562,-0.5 413,-0.5"/>
<text text-anchor="middle" x="487.5" y="-7.5" font-family="Helvetica,sans-Serif" font-size="10.00">coap_new_client_session_psk</text>
</a>
</g>
</g>
<!-- Node18&#45;&gt;Node19 -->
<g id="edge22" class="edge">
<title>Node18&#45;&gt;Node19</title>
<path fill="none" stroke="midnightblue" d="M587.74,-10C579.15,-10 570.49,-10 562.06,-10"/>
<polygon fill="midnightblue" stroke="midnightblue" points="587.77,-13.5 597.77,-10 587.77,-6.5 587.77,-13.5"/>
</g>
<!-- Node20&#45;&gt;Node15 -->
<g id="edge25" class="edge">
<title>Node20&#45;&gt;Node15</title>
<path fill="none" stroke="midnightblue" d="M954,-76.25C939.9,-74.44 925.45,-72.59 912.19,-70.89"/>
<polygon fill="midnightblue" stroke="midnightblue" points="953.82,-79.76 964.18,-77.56 954.71,-72.81 953.82,-79.76"/>
</g>
</g>
</svg>
        <g id="navigator" transform="translate(0 0)" fill="#404254">
                <rect fill="#f2f5e9" fill-opacity="0.5" stroke="#606060" stroke-width=".5" x="0" y="0" width="60" height="60"/>
                <use id="zoomplus" xlink:href="#zoomPlus" x="17" y="9" onmousedown="handleZoom(evt,'in')"/>
                <use id="zoomminus" xlink:href="#zoomMin" x="42" y="9" onmousedown="handleZoom(evt,'out')"/>
                <use id="reset" xlink:href="#resetDef" x="30" y="36" onmousedown="handleReset()"/>
                <g id="arrowUp" xlink:href="#dirArrow" transform="translate(30 24)" onmousedown="handlePan(0,-1)">
                  <use xlink:href="#rim" fill="#404040">
                        <set attributeName="fill" to="#808080" begin="arrowUp.mouseover" end="arrowUp.mouseout"/>
                  </use>
                  <path fill="none" stroke="white" stroke-width="1.5" d="M0,-3.0v7 M-2.5,-0.5L0,-3.0L2.5,-0.5"/>
                </g>
                <g id="arrowRight" xlink:href="#dirArrow" transform="rotate(90) translate(36 -43)" onmousedown="handlePan(1,0)">
                  <use xlink:href="#rim" fill="#404040">
                        <set attributeName="fill" to="#808080" begin="arrowRight.mouseover" end="arrowRight.mouseout"/>
                  </use>
                  <path fill="none" stroke="white" stroke-width="1.5" d="M0,-3.0v7 M-2.5,-0.5L0,-3.0L2.5,-0.5"/>
                </g>
                <g id="arrowDown" xlink:href="#dirArrow" transform="rotate(180) translate(-30 -48)" onmousedown="handlePan(0,1)">
                  <use xlink:href="#rim" fill="#404040">
                        <set attributeName="fill" to="#808080" begin="arrowDown.mouseover" end="arrowDown.mouseout"/>
                  </use>
                  <path fill="none" stroke="white" stroke-width="1.5" d="M0,-3.0v7 M-2.5,-0.5L0,-3.0L2.5,-0.5"/>
                </g>
                <g id="arrowLeft" xlink:href="#dirArrow" transform="rotate(270) translate(-36 17)" onmousedown="handlePan(-1,0)">
                  <use xlink:href="#rim" fill="#404040">
                        <set attributeName="fill" to="#808080" begin="arrowLeft.mouseover" end="arrowLeft.mouseout"/>
                  </use>
                  <path fill="none" stroke="white" stroke-width="1.5" d="M0,-3.0v7 M-2.5,-0.5L0,-3.0L2.5,-0.5"/>
                </g>
        </g>
        <svg viewBox="0 0 15 15" width="100%" height="30px" preserveAspectRatio="xMaxYMin meet">
         <g id="arrow_out" transform="scale(0.3 0.3)">
          <a xlink:href="address_8h_a59e19389468d5ced36778ed07546bce2_icgraph_org.svg" target="_base">
           <rect id="button" ry="5" rx="5" y="6" x="6" height="38" width="38"
                fill="#f2f5e9" fill-opacity="0.5" stroke="#606060" stroke-width="1.0"/>
           <path id="arrow"
             d="M 11.500037,31.436501 C 11.940474,20.09759 22.043105,11.32322 32.158766,21.979434 L 37.068811,17.246167 C 37.068811,17.246167 37.088388,32 37.088388,32 L 22.160133,31.978069 C 22.160133,31.978069 26.997745,27.140456 26.997745,27.140456 C 18.528582,18.264221 13.291696,25.230495 11.500037,31.436501 z"
             style="fill:#404040;"/>
          </a>
         </g>
        </svg>
</svg>
