<?xml version="1.0" encoding="UTF-8" standalone="no"?>
<!DOCTYPE svg PUBLIC "-//W3C//DTD SVG 1.1//EN"
 "http://www.w3.org/Graphics/SVG/1.1/DTD/svg11.dtd">
<!-- Generated by graphviz version 2.43.0 (0)
 -->
<!-- Title: coap_add_data_blocked_response Pages: 1 -->
<!--zoomable 534 -->
<svg id="main" version="1.1" xmlns="http://www.w3.org/2000/svg" xmlns:xlink="http://www.w3.org/1999/xlink" xml:space="preserve" onload="init(evt)">
<style type="text/css"><![CDATA[
.edge:hover path { stroke: red; }
.edge:hover polygon { stroke: red; fill: red; }
]]></style>
<script type="text/javascript"><![CDATA[
var edges = document.getElementsByTagName('g');
if (edges && edges.length) {
  for (var i=0;i<edges.length;i++) {
    if (edges[i].id.substr(0,4)=='edge') {
      edges[i].setAttribute('class','edge');
    }
  }
}
]]></script>
        <defs>
                <circle id="rim" cx="0" cy="0" r="7"/>
                <circle id="rim2" cx="0" cy="0" r="3.5"/>
                <g id="zoomPlus">
                        <use xlink:href="#rim" fill="#404040">
                                <set attributeName="fill" to="#808080" begin="zoomplus.mouseover" end="zoomplus.mouseout"/>
                        </use>
                        <path d="M-4,0h8M0,-4v8" fill="none" stroke="white" stroke-width="1.5" pointer-events="none"/>
                </g>
                <g id="zoomMin">
                        <use xlink:href="#rim" fill="#404040">
                                <set attributeName="fill" to="#808080" begin="zoomminus.mouseover" end="zoomminus.mouseout"/>
                        </use>
                        <path d="M-4,0h8" fill="none" stroke="white" stroke-width="1.5" pointer-events="none"/>
                </g>
                <g id="dirArrow">
                        <path fill="none" stroke="white" stroke-width="1.5" d="M0,-3.0v7 M-2.5,-0.5L0,-3.0L2.5,-0.5"/>
                </g>
               <g id="resetDef">
                       <use xlink:href="#rim2" fill="#404040">
                               <set attributeName="fill" to="#808080" begin="reset.mouseover" end="reset.mouseout"/>
                       </use>
               </g>
        </defs>

<script type="text/javascript">
var viewWidth = 1101;
var viewHeight = 534;
var sectionId = 'dynsection-2';
</script>
<script xlink:href="svgpan.js"/>
<svg id="graph" class="graph">
<g id="viewport">
<title>coap_add_data_blocked_response</title>
<polygon fill="white" stroke="transparent" points="-4,4 -4,-530 1097,-530 1097,4 -4,4"/>
<!-- Node1 -->
<g id="node1" class="node">
<title>Node1</title>
<g id="a_node1"><a xlink:title="Adds the appropriate part of data to the response pdu.">
<polygon fill="#bfbfbf" stroke="black" points="0,-273 0,-303 122,-303 122,-273 0,-273"/>
<text text-anchor="start" x="8" y="-291" font-family="Helvetica,sans-Serif" font-size="10.00">coap_add_data_blocked</text>
<text text-anchor="middle" x="61" y="-280" font-family="Helvetica,sans-Serif" font-size="10.00">_response</text>
</a>
</g>
</g>
<!-- Node2 -->
<g id="node2" class="node">
<title>Node2</title>
<g id="a_node2"><a xlink:href="group__block.html#ga73094dc713e61b72cec8e37ffaf72a39" target="_top" xlink:title="Adds the block_num block of size 1 &lt;&lt; (block_szx + 4) from source data to pdu.">
<polygon fill="white" stroke="black" points="175.5,-487.5 175.5,-506.5 262.5,-506.5 262.5,-487.5 175.5,-487.5"/>
<text text-anchor="middle" x="219" y="-494.5" font-family="Helvetica,sans-Serif" font-size="10.00">coap_add_block</text>
</a>
</g>
</g>
<!-- Node1&#45;&gt;Node2 -->
<g id="edge1" class="edge">
<title>Node1&#45;&gt;Node2</title>
<path fill="none" stroke="midnightblue" d="M70.65,-303.25C86.49,-330.69 121.87,-389.74 158,-435 171.03,-451.32 187.67,-468.26 200.12,-480.3"/>
<polygon fill="midnightblue" stroke="midnightblue" points="197.96,-483.08 207.61,-487.45 202.79,-478.01 197.96,-483.08"/>
</g>
<!-- Node3 -->
<g id="node3" class="node">
<title>Node3</title>
<g id="a_node3"><a xlink:href="group__pdu.html#gaf71a3f810ab9f0f657c25c425826af40" target="_top" xlink:title="Adds given data to the pdu that is passed as first parameter.">
<polygon fill="white" stroke="black" points="333,-506.5 333,-525.5 416,-525.5 416,-506.5 333,-506.5"/>
<text text-anchor="middle" x="374.5" y="-513.5" font-family="Helvetica,sans-Serif" font-size="10.00">coap_add_data</text>
</a>
</g>
</g>
<!-- Node1&#45;&gt;Node3 -->
<g id="edge5" class="edge">
<title>Node1&#45;&gt;Node3</title>
<path fill="none" stroke="midnightblue" d="M75.37,-303.23C93.11,-322.95 125.93,-357.77 158,-383 221.13,-432.66 303.9,-479.17 346.13,-501.74"/>
<polygon fill="midnightblue" stroke="midnightblue" points="344.52,-504.85 354.99,-506.44 347.8,-498.66 344.52,-504.85"/>
</g>
<!-- Node6 -->
<g id="node6" class="node">
<title>Node6</title>
<g id="a_node6"><a xlink:href="group__pdu.html#ga9a5c9d83499b048b28d657abde04768b" target="_top" xlink:title="Adds option of given number to pdu that is passed as first parameter.">
<polygon fill="white" stroke="black" points="174,-354.5 174,-373.5 264,-373.5 264,-354.5 174,-354.5"/>
<text text-anchor="middle" x="219" y="-361.5" font-family="Helvetica,sans-Serif" font-size="10.00">coap_add_option</text>
</a>
</g>
</g>
<!-- Node1&#45;&gt;Node6 -->
<g id="edge6" class="edge">
<title>Node1&#45;&gt;Node6</title>
<path fill="none" stroke="midnightblue" d="M88.06,-303.18C107.14,-314.03 133.8,-328.65 158,-340 165.96,-343.73 174.66,-347.43 182.92,-350.76"/>
<polygon fill="midnightblue" stroke="midnightblue" points="181.74,-354.06 192.32,-354.48 184.31,-347.55 181.74,-354.06"/>
</g>
<!-- Node19 -->
<g id="node19" class="node">
<title>Node19</title>
<g id="a_node19"><a xlink:href="group__pdu__internal.html#ga24f3c35d834ec06d051a05a2572efb62" target="_top" xlink:title="Inserts option of given number in the pdu with the appropriate data.">
<polygon fill="white" stroke="black" points="325.5,-354.5 325.5,-373.5 423.5,-373.5 423.5,-354.5 325.5,-354.5"/>
<text text-anchor="middle" x="374.5" y="-361.5" font-family="Helvetica,sans-Serif" font-size="10.00">coap_insert_option</text>
</a>
</g>
</g>
<!-- Node1&#45;&gt;Node19 -->
<g id="edge41" class="edge">
<title>Node1&#45;&gt;Node19</title>
<path fill="none" stroke="midnightblue" d="M122.06,-302.65C180.98,-317.03 269.72,-338.68 324.51,-352.05"/>
<polygon fill="midnightblue" stroke="midnightblue" points="323.78,-355.47 334.32,-354.44 325.44,-348.67 323.78,-355.47"/>
</g>
<!-- Node24 -->
<g id="node24" class="node">
<title>Node24</title>
<g id="a_node24"><a xlink:href="group__encode.html#ga1f68ace3f70824f5c9427d5bfac50da3" target="_top" xlink:title="Encodes multiple&#45;length byte sequences.">
<polygon fill="white" stroke="black" points="316,-0.5 316,-19.5 433,-19.5 433,-0.5 316,-0.5"/>
<text text-anchor="middle" x="374.5" y="-7.5" font-family="Helvetica,sans-Serif" font-size="10.00">coap_encode_var_safe</text>
</a>
</g>
</g>
<!-- Node1&#45;&gt;Node24 -->
<g id="edge33" class="edge">
<title>Node1&#45;&gt;Node24</title>
<path fill="none" stroke="midnightblue" d="M84.09,-272.86C103.05,-260.36 131.44,-242.83 158,-231 209.88,-207.9 241.47,-234.72 280,-193 329.16,-139.78 269.38,-89.46 316,-34 319.14,-30.26 322.96,-27.1 327.12,-24.42"/>
<polygon fill="midnightblue" stroke="midnightblue" points="328.92,-27.43 336.04,-19.58 325.58,-21.27 328.92,-27.43"/>
</g>
<!-- Node25 -->
<g id="node25" class="node">
<title>Node25</title>
<g id="a_node25"><a xlink:href="group__encode.html#gad65e8f128870c6d06e9c4ece4c62a3fb" target="_top" xlink:title="Encodes multiple&#45;length byte sequences.">
<polygon fill="white" stroke="black" points="158,-164.5 158,-183.5 280,-183.5 280,-164.5 158,-164.5"/>
<text text-anchor="middle" x="219" y="-171.5" font-family="Helvetica,sans-Serif" font-size="10.00">coap_encode_var_safe8</text>
</a>
</g>
</g>
<!-- Node1&#45;&gt;Node25 -->
<g id="edge34" class="edge">
<title>Node1&#45;&gt;Node25</title>
<path fill="none" stroke="midnightblue" d="M74.92,-272.78C92.17,-253.25 124.47,-219.34 158,-198 164.31,-193.98 171.41,-190.43 178.45,-187.37"/>
<polygon fill="midnightblue" stroke="midnightblue" points="179.99,-190.52 187.94,-183.51 177.36,-184.04 179.99,-190.52"/>
</g>
<!-- Node26 -->
<g id="node26" class="node">
<title>Node26</title>
<g id="a_node26"><a xlink:href="group__block.html#gab4948cbc673c565b3eba270c5f784db3" target="_top" xlink:title="Initializes block from pdu.">
<polygon fill="white" stroke="black" points="176.5,-278.5 176.5,-297.5 261.5,-297.5 261.5,-278.5 176.5,-278.5"/>
<text text-anchor="middle" x="219" y="-285.5" font-family="Helvetica,sans-Serif" font-size="10.00">coap_get_block</text>
</a>
</g>
</g>
<!-- Node1&#45;&gt;Node26 -->
<g id="edge35" class="edge">
<title>Node1&#45;&gt;Node26</title>
<path fill="none" stroke="midnightblue" d="M122.31,-288C136.66,-288 151.85,-288 165.8,-288"/>
<polygon fill="midnightblue" stroke="midnightblue" points="166.19,-291.5 176.19,-288 166.19,-284.5 166.19,-291.5"/>
</g>
<!-- Node31 -->
<g id="node31" class="node">
<title>Node31</title>
<g id="a_node31"><a xlink:href="group__pdu.html#gacec118d3c702c5327fdca29256b496da" target="_top" xlink:title="Returns a human&#45;readable response phrase for the specified CoAP response code.">
<polygon fill="white" stroke="black" points="160.5,-126.5 160.5,-145.5 277.5,-145.5 277.5,-126.5 160.5,-126.5"/>
<text text-anchor="middle" x="219" y="-133.5" font-family="Helvetica,sans-Serif" font-size="10.00">coap_response_phrase</text>
</a>
</g>
</g>
<!-- Node1&#45;&gt;Node31 -->
<g id="edge42" class="edge">
<title>Node1&#45;&gt;Node31</title>
<path fill="none" stroke="midnightblue" d="M68.9,-272.8C82.18,-245.22 113.93,-186.87 158,-155 160.66,-153.08 163.51,-151.35 166.49,-149.79"/>
<polygon fill="midnightblue" stroke="midnightblue" points="168.03,-152.93 175.68,-145.6 165.13,-146.56 168.03,-152.93"/>
</g>
<!-- Node32 -->
<g id="node32" class="node">
<title>Node32</title>
<g id="a_node32"><a xlink:href="group__block.html#gae1451ec6a5dcc209ed79d6e571fb42fc" target="_top" xlink:title="Writes a block option of type number to message pdu.">
<polygon fill="white" stroke="black" points="163.5,-240.5 163.5,-259.5 274.5,-259.5 274.5,-240.5 163.5,-240.5"/>
<text text-anchor="middle" x="219" y="-247.5" font-family="Helvetica,sans-Serif" font-size="10.00">coap_write_block_opt</text>
</a>
</g>
</g>
<!-- Node1&#45;&gt;Node32 -->
<g id="edge43" class="edge">
<title>Node1&#45;&gt;Node32</title>
<path fill="none" stroke="midnightblue" d="M122.31,-273.31C137.64,-269.57 153.93,-265.61 168.64,-262.02"/>
<polygon fill="midnightblue" stroke="midnightblue" points="169.65,-265.38 178.54,-259.61 167.99,-258.58 169.65,-265.38"/>
</g>
<!-- Node2&#45;&gt;Node3 -->
<g id="edge2" class="edge">
<title>Node2&#45;&gt;Node3</title>
<path fill="none" stroke="midnightblue" d="M262.76,-502.29C281.33,-504.59 303.23,-507.3 322.63,-509.7"/>
<polygon fill="midnightblue" stroke="midnightblue" points="322.47,-513.21 332.82,-510.96 323.33,-506.26 322.47,-513.21"/>
</g>
<!-- Node4 -->
<g id="node4" class="node">
<title>Node4</title>
<g id="a_node4"><a xlink:href="group__pdu.html#gab2a710785ec579083f95ee049566fb83" target="_top" xlink:title="Adds given data to the pdu that is passed as first parameter but does not copy it.">
<polygon fill="white" stroke="black" points="476.5,-506.5 476.5,-525.5 583.5,-525.5 583.5,-506.5 476.5,-506.5"/>
<text text-anchor="middle" x="530" y="-513.5" font-family="Helvetica,sans-Serif" font-size="10.00">coap_add_data_after</text>
</a>
</g>
</g>
<!-- Node3&#45;&gt;Node4 -->
<g id="edge3" class="edge">
<title>Node3&#45;&gt;Node4</title>
<path fill="none" stroke="midnightblue" d="M416.23,-516C431.53,-516 449.3,-516 466.14,-516"/>
<polygon fill="midnightblue" stroke="midnightblue" points="466.48,-519.5 476.48,-516 466.48,-512.5 466.48,-519.5"/>
</g>
<!-- Node5 -->
<g id="node5" class="node">
<title>Node5</title>
<g id="a_node5"><a xlink:href="group__pdu__internal.html#gadd46ce956878a4121e8887b84c6d4a6b" target="_top" xlink:title="Dynamically grows the size of pdu to new_size.">
<polygon fill="white" stroke="black" points="638,-487.5 638,-506.5 728,-506.5 728,-487.5 638,-487.5"/>
<text text-anchor="middle" x="683" y="-494.5" font-family="Helvetica,sans-Serif" font-size="10.00">coap_pdu_resize</text>
</a>
</g>
</g>
<!-- Node4&#45;&gt;Node5 -->
<g id="edge4" class="edge">
<title>Node4&#45;&gt;Node5</title>
<path fill="none" stroke="midnightblue" d="M583.81,-509.35C598.05,-507.56 613.47,-505.62 627.78,-503.82"/>
<polygon fill="midnightblue" stroke="midnightblue" points="628.48,-507.26 637.97,-502.54 627.61,-500.32 628.48,-507.26"/>
</g>
<!-- Node7 -->
<g id="node7" class="node">
<title>Node7</title>
<g id="a_node7"><a xlink:href="group__opt__filter.html#ga7ba272705b429d7ca95f7a520d110c53" target="_top" xlink:title="Retrieves the first option of number number from pdu.">
<polygon fill="white" stroke="black" points="324,-278.5 324,-297.5 425,-297.5 425,-278.5 324,-278.5"/>
<text text-anchor="middle" x="374.5" y="-285.5" font-family="Helvetica,sans-Serif" font-size="10.00">coap_check_option</text>
</a>
</g>
</g>
<!-- Node6&#45;&gt;Node7 -->
<g id="edge7" class="edge">
<title>Node6&#45;&gt;Node7</title>
<path fill="none" stroke="midnightblue" d="M239.44,-354.37C266.08,-341.18 314.13,-317.39 344.89,-302.17"/>
<polygon fill="midnightblue" stroke="midnightblue" points="346.81,-305.12 354.22,-297.55 343.7,-298.85 346.81,-305.12"/>
</g>
<!-- Node6&#45;&gt;Node19 -->
<g id="edge20" class="edge">
<title>Node6&#45;&gt;Node19</title>
<path fill="none" stroke="midnightblue" d="M264.4,-357.81C280.24,-357.23 298.32,-357.1 315.16,-357.43"/>
<polygon fill="midnightblue" stroke="midnightblue" points="315.36,-360.93 325.44,-357.69 315.54,-353.93 315.36,-360.93"/>
</g>
<!-- Node20 -->
<g id="node20" class="node">
<title>Node20</title>
<g id="a_node20"><a xlink:href="group__opt__filter.html#ga358cb455deaefca1b1234298f018c9ab" target="_top" xlink:title="Encodes option with given delta into opt.">
<polygon fill="white" stroke="black" points="483.5,-392.5 483.5,-411.5 576.5,-411.5 576.5,-392.5 483.5,-392.5"/>
<text text-anchor="middle" x="530" y="-399.5" font-family="Helvetica,sans-Serif" font-size="10.00">coap_opt_encode</text>
</a>
</g>
</g>
<!-- Node6&#45;&gt;Node20 -->
<g id="edge30" class="edge">
<title>Node6&#45;&gt;Node20</title>
<path fill="none" stroke="midnightblue" d="M263.32,-373.59C279.75,-376.96 298.68,-380.52 316,-383 369.08,-390.6 430.06,-395.67 473.13,-398.65"/>
<polygon fill="midnightblue" stroke="midnightblue" points="472.92,-402.14 483.13,-399.32 473.39,-395.16 472.92,-402.14"/>
</g>
<!-- Node22 -->
<g id="node22" class="node">
<title>Node22</title>
<g id="a_node22"><a xlink:href="group__opt__filter.html#ga55f19454026048e906139d575feddecb" target="_top" xlink:title="Compute storage bytes needed for an option with given delta and length.">
<polygon fill="white" stroke="black" points="472,-430.5 472,-449.5 588,-449.5 588,-430.5 472,-430.5"/>
<text text-anchor="middle" x="530" y="-437.5" font-family="Helvetica,sans-Serif" font-size="10.00">coap_opt_encode_size</text>
</a>
</g>
</g>
<!-- Node6&#45;&gt;Node22 -->
<g id="edge31" class="edge">
<title>Node6&#45;&gt;Node22</title>
<path fill="none" stroke="midnightblue" d="M240.15,-373.67C259.27,-382.48 289.02,-395.27 316,-403 363.94,-416.73 419.48,-426.17 461.83,-432.08"/>
<polygon fill="midnightblue" stroke="midnightblue" points="461.37,-435.55 471.75,-433.44 462.31,-428.62 461.37,-435.55"/>
</g>
<!-- Node23 -->
<g id="node23" class="node">
<title>Node23</title>
<g id="a_node23"><a xlink:href="group__pdu__internal.html#gad741bcd3525c8d24389e4604c1cacb50" target="_top" xlink:title="Dynamically grows the size of pdu to new_size if needed.">
<polygon fill="white" stroke="black" points="469,-468.5 469,-487.5 591,-487.5 591,-468.5 469,-468.5"/>
<text text-anchor="middle" x="530" y="-475.5" font-family="Helvetica,sans-Serif" font-size="10.00">coap_pdu_check_resize</text>
</a>
</g>
</g>
<!-- Node6&#45;&gt;Node23 -->
<g id="edge32" class="edge">
<title>Node6&#45;&gt;Node23</title>
<path fill="none" stroke="midnightblue" d="M233.72,-373.7C258.09,-390.87 307.19,-425.16 316,-429 361.57,-448.84 416.28,-461.21 458.84,-468.55"/>
<polygon fill="midnightblue" stroke="midnightblue" points="458.39,-472.03 468.83,-470.23 459.54,-465.12 458.39,-472.03"/>
</g>
<!-- Node8 -->
<g id="node8" class="node">
<title>Node8</title>
<g id="a_node8"><a xlink:href="group__opt__filter.html#gab32cbf963c82364063041e5c84ca279a" target="_top" xlink:title="Clears filter filter.">
<polygon fill="white" stroke="black" points="483.5,-229 483.5,-259 576.5,-259 576.5,-229 483.5,-229"/>
<text text-anchor="start" x="491.5" y="-247" font-family="Helvetica,sans-Serif" font-size="10.00">coap_option_filter</text>
<text text-anchor="middle" x="530" y="-236" font-family="Helvetica,sans-Serif" font-size="10.00">_clear</text>
</a>
</g>
</g>
<!-- Node7&#45;&gt;Node8 -->
<g id="edge8" class="edge">
<title>Node7&#45;&gt;Node8</title>
<path fill="none" stroke="midnightblue" d="M408.81,-278.45C427.69,-273.04 451.81,-266.13 473.48,-259.91"/>
<polygon fill="midnightblue" stroke="midnightblue" points="474.59,-263.24 483.24,-257.12 472.66,-256.51 474.59,-263.24"/>
</g>
<!-- Node9 -->
<g id="node9" class="node">
<title>Node9</title>
<g id="a_node9"><a xlink:href="group__opt__filter.html#gafdbe6036d408220bbfa6eb2d7bd2443f" target="_top" xlink:title="Sets the corresponding entry for number in filter.">
<polygon fill="white" stroke="black" points="627,-190.5 627,-209.5 739,-209.5 739,-190.5 627,-190.5"/>
<text text-anchor="middle" x="683" y="-197.5" font-family="Helvetica,sans-Serif" font-size="10.00">coap_option_filter_set</text>
</a>
</g>
</g>
<!-- Node7&#45;&gt;Node9 -->
<g id="edge9" class="edge">
<title>Node7&#45;&gt;Node9</title>
<path fill="none" stroke="midnightblue" d="M384.82,-278.49C400.54,-263.11 434.08,-233.19 469,-220 516.28,-202.14 573.49,-197.61 616.71,-197.3"/>
<polygon fill="midnightblue" stroke="midnightblue" points="616.82,-200.8 626.82,-197.3 616.82,-193.8 616.82,-200.8"/>
</g>
<!-- Node14 -->
<g id="node14" class="node">
<title>Node14</title>
<g id="a_node14"><a xlink:href="group__opt__filter.html#gad799c84f95789d9dc6724da2b56d8ff5" target="_top" xlink:title="Initializes the given option iterator oi to point to the beginning of the pdu&#39;s option list.">
<polygon fill="white" stroke="black" points="469,-278.5 469,-297.5 591,-297.5 591,-278.5 469,-278.5"/>
<text text-anchor="middle" x="530" y="-285.5" font-family="Helvetica,sans-Serif" font-size="10.00">coap_option_iterator_init</text>
</a>
</g>
</g>
<!-- Node7&#45;&gt;Node14 -->
<g id="edge14" class="edge">
<title>Node7&#45;&gt;Node14</title>
<path fill="none" stroke="midnightblue" d="M425.34,-288C435.99,-288 447.44,-288 458.71,-288"/>
<polygon fill="midnightblue" stroke="midnightblue" points="458.97,-291.5 468.97,-288 458.97,-284.5 458.97,-291.5"/>
</g>
<!-- Node15 -->
<g id="node15" class="node">
<title>Node15</title>
<g id="a_node15"><a xlink:href="group__opt__filter.html#ga182fdeffe0b37e1ab0dc6ba8494abe4a" target="_top" xlink:title="Updates the iterator oi to point to the next option.">
<polygon fill="white" stroke="black" points="483.5,-316.5 483.5,-335.5 576.5,-335.5 576.5,-316.5 483.5,-316.5"/>
<text text-anchor="middle" x="530" y="-323.5" font-family="Helvetica,sans-Serif" font-size="10.00">coap_option_next</text>
</a>
</g>
</g>
<!-- Node7&#45;&gt;Node15 -->
<g id="edge15" class="edge">
<title>Node7&#45;&gt;Node15</title>
<path fill="none" stroke="midnightblue" d="M414.23,-297.59C434.4,-302.58 459.25,-308.73 480.66,-314.03"/>
<polygon fill="midnightblue" stroke="midnightblue" points="480,-317.47 490.54,-316.48 481.68,-310.68 480,-317.47"/>
</g>
<!-- Node10 -->
<g id="node10" class="node">
<title>Node10</title>
<g id="a_node10"><a xlink:href="option_8c.html#ab87ea79da1603a15ac624388a335bba6" target="_top" xlink:title="Applies op on filter with respect to number.">
<polygon fill="white" stroke="black" points="775,-190.5 775,-209.5 884,-209.5 884,-190.5 775,-190.5"/>
<text text-anchor="middle" x="829.5" y="-197.5" font-family="Helvetica,sans-Serif" font-size="10.00">coap_option_filter_op</text>
</a>
</g>
</g>
<!-- Node9&#45;&gt;Node10 -->
<g id="edge10" class="edge">
<title>Node9&#45;&gt;Node10</title>
<path fill="none" stroke="midnightblue" d="M739.04,-200C747.32,-200 755.92,-200 764.37,-200"/>
<polygon fill="midnightblue" stroke="midnightblue" points="764.57,-203.5 774.57,-200 764.57,-196.5 764.57,-203.5"/>
</g>
<!-- Node11 -->
<g id="node11" class="node">
<title>Node11</title>
<g id="a_node11"><a xlink:href="encode_8c.html#a671b4261b2d24de8696258a8efb0f359" target="_top" xlink:title=" ">
<polygon fill="white" stroke="black" points="933,-124.5 933,-143.5 986,-143.5 986,-124.5 933,-124.5"/>
<text text-anchor="middle" x="959.5" y="-131.5" font-family="Helvetica,sans-Serif" font-size="10.00">coap_fls</text>
</a>
</g>
</g>
<!-- Node10&#45;&gt;Node11 -->
<g id="edge11" class="edge">
<title>Node10&#45;&gt;Node11</title>
<path fill="none" stroke="midnightblue" d="M849.11,-190.4C870.63,-179.31 906.25,-160.94 930.98,-148.19"/>
<polygon fill="midnightblue" stroke="midnightblue" points="932.58,-151.3 939.87,-143.61 929.37,-145.08 932.58,-151.3"/>
</g>
<!-- Node13 -->
<g id="node13" class="node">
<title>Node13</title>
<g id="a_node13"><a xlink:href="option_8c.html#ad65a9bd8fcfb4ba4270819e6f87f5bcf" target="_top" xlink:title="Returns true iff number denotes an option number larger than 255.">
<polygon fill="white" stroke="black" points="920,-190.5 920,-209.5 999,-209.5 999,-190.5 920,-190.5"/>
<text text-anchor="middle" x="959.5" y="-197.5" font-family="Helvetica,sans-Serif" font-size="10.00">is_long_option</text>
</a>
</g>
</g>
<!-- Node10&#45;&gt;Node13 -->
<g id="edge13" class="edge">
<title>Node10&#45;&gt;Node13</title>
<path fill="none" stroke="midnightblue" d="M884.04,-200C892.61,-200 901.44,-200 909.89,-200"/>
<polygon fill="midnightblue" stroke="midnightblue" points="909.97,-203.5 919.97,-200 909.97,-196.5 909.97,-203.5"/>
</g>
<!-- Node12 -->
<g id="node12" class="node">
<title>Node12</title>
<g id="a_node12"><a xlink:href="encode_8c.html#a5732d87decbffe771159ea02a5e25488" target="_top" xlink:title=" ">
<polygon fill="white" stroke="black" points="1035,-95.5 1035,-114.5 1093,-114.5 1093,-95.5 1035,-95.5"/>
<text text-anchor="middle" x="1064" y="-102.5" font-family="Helvetica,sans-Serif" font-size="10.00">coap_flsll</text>
</a>
</g>
</g>
<!-- Node11&#45;&gt;Node12 -->
<g id="edge12" class="edge">
<title>Node11&#45;&gt;Node12</title>
<path fill="none" stroke="midnightblue" d="M986.1,-126.76C997.91,-123.41 1012.18,-119.38 1025.19,-115.7"/>
<polygon fill="midnightblue" stroke="midnightblue" points="1026.17,-119.06 1034.84,-112.97 1024.27,-112.32 1026.17,-119.06"/>
</g>
<!-- Node16 -->
<g id="node16" class="node">
<title>Node16</title>
<g id="a_node16"><a xlink:href="option_8c.html#a11de99f50cc9f5a34fd9e4d121ecfd13" target="_top" xlink:title="Parses the option pointed to by opt into result.">
<polygon fill="white" stroke="black" points="640,-354.5 640,-373.5 726,-373.5 726,-354.5 640,-354.5"/>
<text text-anchor="middle" x="683" y="-361.5" font-family="Helvetica,sans-Serif" font-size="10.00">coap_opt_parse</text>
</a>
</g>
</g>
<!-- Node15&#45;&gt;Node16 -->
<g id="edge16" class="edge">
<title>Node15&#45;&gt;Node16</title>
<path fill="none" stroke="midnightblue" d="M569.1,-335.59C588.94,-340.58 613.38,-346.73 634.45,-352.03"/>
<polygon fill="midnightblue" stroke="midnightblue" points="633.62,-355.43 644.17,-354.48 635.33,-348.65 633.62,-355.43"/>
</g>
<!-- Node17 -->
<g id="node17" class="node">
<title>Node17</title>
<g id="a_node17"><a xlink:href="group__opt__filter.html#gaecbb0b2fe1f6244aa6121d019070704b" target="_top" xlink:title="Checks if number is contained in filter.">
<polygon fill="white" stroke="black" points="627,-253.5 627,-272.5 739,-272.5 739,-253.5 627,-253.5"/>
<text text-anchor="middle" x="683" y="-260.5" font-family="Helvetica,sans-Serif" font-size="10.00">coap_option_filter_get</text>
</a>
</g>
</g>
<!-- Node15&#45;&gt;Node17 -->
<g id="edge17" class="edge">
<title>Node15&#45;&gt;Node17</title>
<path fill="none" stroke="midnightblue" d="M564,-316.49C572.86,-313.68 582.37,-310.43 591,-307 613.01,-298.25 637.12,-286.49 654.98,-277.33"/>
<polygon fill="midnightblue" stroke="midnightblue" points="656.95,-280.25 664.21,-272.54 653.72,-274.04 656.95,-280.25"/>
</g>
<!-- Node18 -->
<g id="node18" class="node">
<title>Node18</title>
<g id="a_node18"><a xlink:href="option_8c.html#a70fa9db0450134640b80cbf7c3720688" target="_top" xlink:title=" ">
<polygon fill="white" stroke="black" points="648.5,-316.5 648.5,-335.5 717.5,-335.5 717.5,-316.5 648.5,-316.5"/>
<text text-anchor="middle" x="683" y="-323.5" font-family="Helvetica,sans-Serif" font-size="10.00">opt_finished</text>
</a>
</g>
</g>
<!-- Node15&#45;&gt;Node18 -->
<g id="edge19" class="edge">
<title>Node15&#45;&gt;Node18</title>
<path fill="none" stroke="midnightblue" d="M576.71,-326C596.29,-326 619.04,-326 638.38,-326"/>
<polygon fill="midnightblue" stroke="midnightblue" points="638.43,-329.5 648.43,-326 638.43,-322.5 638.43,-329.5"/>
</g>
<!-- Node17&#45;&gt;Node10 -->
<g id="edge18" class="edge">
<title>Node17&#45;&gt;Node10</title>
<path fill="none" stroke="midnightblue" d="M705.95,-253.43C730.24,-242.84 769.6,-225.68 797.14,-213.67"/>
<polygon fill="midnightblue" stroke="midnightblue" points="798.58,-216.86 806.35,-209.66 795.78,-210.45 798.58,-216.86"/>
</g>
<!-- Node19&#45;&gt;Node6 -->
<g id="edge21" class="edge">
<title>Node19&#45;&gt;Node6</title>
<path fill="none" stroke="midnightblue" d="M325.44,-370.31C309.28,-370.83 291.14,-370.89 274.52,-370.49"/>
<polygon fill="midnightblue" stroke="midnightblue" points="274.5,-366.99 264.4,-370.19 274.29,-373.99 274.5,-366.99"/>
</g>
<!-- Node19&#45;&gt;Node14 -->
<g id="edge26" class="edge">
<title>Node19&#45;&gt;Node14</title>
<path fill="none" stroke="midnightblue" d="M388.87,-354.42C406.52,-342.11 438.89,-320.7 469,-307 473.79,-304.82 478.9,-302.79 484.04,-300.93"/>
<polygon fill="midnightblue" stroke="midnightblue" points="485.55,-304.11 493.88,-297.56 483.29,-297.48 485.55,-304.11"/>
</g>
<!-- Node19&#45;&gt;Node15 -->
<g id="edge27" class="edge">
<title>Node19&#45;&gt;Node15</title>
<path fill="none" stroke="midnightblue" d="M414.23,-354.41C434.4,-349.42 459.25,-343.27 480.66,-337.97"/>
<polygon fill="midnightblue" stroke="midnightblue" points="481.68,-341.32 490.54,-335.52 480,-334.53 481.68,-341.32"/>
</g>
<!-- Node19&#45;&gt;Node16 -->
<g id="edge25" class="edge">
<title>Node19&#45;&gt;Node16</title>
<path fill="none" stroke="midnightblue" d="M423.73,-364C479.87,-364 572.24,-364 629.96,-364"/>
<polygon fill="midnightblue" stroke="midnightblue" points="629.96,-367.5 639.96,-364 629.96,-360.5 629.96,-367.5"/>
</g>
<!-- Node19&#45;&gt;Node20 -->
<g id="edge22" class="edge">
<title>Node19&#45;&gt;Node20</title>
<path fill="none" stroke="midnightblue" d="M414.23,-373.59C434.4,-378.58 459.25,-384.73 480.66,-390.03"/>
<polygon fill="midnightblue" stroke="midnightblue" points="480,-393.47 490.54,-392.48 481.68,-386.68 480,-393.47"/>
</g>
<!-- Node19&#45;&gt;Node22 -->
<g id="edge24" class="edge">
<title>Node19&#45;&gt;Node22</title>
<path fill="none" stroke="midnightblue" d="M388.87,-373.58C406.52,-385.89 438.89,-407.3 469,-421 473.79,-423.18 478.9,-425.21 484.04,-427.07"/>
<polygon fill="midnightblue" stroke="midnightblue" points="483.29,-430.52 493.88,-430.44 485.55,-423.89 483.29,-430.52"/>
</g>
<!-- Node19&#45;&gt;Node23 -->
<g id="edge28" class="edge">
<title>Node19&#45;&gt;Node23</title>
<path fill="none" stroke="midnightblue" d="M382.34,-373.59C396.42,-392.64 430.53,-435.41 469,-459 472.41,-461.09 476.08,-462.98 479.85,-464.67"/>
<polygon fill="midnightblue" stroke="midnightblue" points="478.8,-468.01 489.38,-468.48 481.4,-461.51 478.8,-468.01"/>
</g>
<!-- Node21 -->
<g id="node21" class="node">
<title>Node21</title>
<g id="a_node21"><a xlink:href="group__opt__filter.html#gafebbd04a7895df694a9345dad0275aeb" target="_top" xlink:title="Encodes the given delta and length values into opt.">
<polygon fill="white" stroke="black" points="631,-392.5 631,-411.5 735,-411.5 735,-392.5 631,-392.5"/>
<text text-anchor="middle" x="683" y="-399.5" font-family="Helvetica,sans-Serif" font-size="10.00">coap_opt_setheader</text>
</a>
</g>
</g>
<!-- Node20&#45;&gt;Node21 -->
<g id="edge23" class="edge">
<title>Node20&#45;&gt;Node21</title>
<path fill="none" stroke="midnightblue" d="M576.71,-402C590.61,-402 606.11,-402 620.84,-402"/>
<polygon fill="midnightblue" stroke="midnightblue" points="620.9,-405.5 630.9,-402 620.9,-398.5 620.9,-405.5"/>
</g>
<!-- Node23&#45;&gt;Node5 -->
<g id="edge29" class="edge">
<title>Node23&#45;&gt;Node5</title>
<path fill="none" stroke="midnightblue" d="M591.11,-485.56C603.2,-487.08 615.83,-488.67 627.71,-490.17"/>
<polygon fill="midnightblue" stroke="midnightblue" points="627.56,-493.68 637.91,-491.45 628.43,-486.73 627.56,-493.68"/>
</g>
<!-- Node26&#45;&gt;Node7 -->
<g id="edge36" class="edge">
<title>Node26&#45;&gt;Node7</title>
<path fill="none" stroke="midnightblue" d="M261.54,-288C277.57,-288 296.22,-288 313.65,-288"/>
<polygon fill="midnightblue" stroke="midnightblue" points="313.74,-291.5 323.74,-288 313.74,-284.5 313.74,-291.5"/>
</g>
<!-- Node27 -->
<g id="node27" class="node">
<title>Node27</title>
<g id="a_node27"><a xlink:href="group__block.html#gaac6c90297abc6e2da80a6212b0d10e99" target="_top" xlink:title="Returns the value of field num in the given block option block_opt.">
<polygon fill="white" stroke="black" points="320,-133.5 320,-152.5 429,-152.5 429,-133.5 320,-133.5"/>
<text text-anchor="middle" x="374.5" y="-140.5" font-family="Helvetica,sans-Serif" font-size="10.00">coap_opt_block_num</text>
</a>
</g>
</g>
<!-- Node26&#45;&gt;Node27 -->
<g id="edge37" class="edge">
<title>Node26&#45;&gt;Node27</title>
<path fill="none" stroke="midnightblue" d="M261.64,-278.58C268.12,-276.08 274.48,-272.93 280,-269 320.1,-240.4 350.19,-189.35 364.41,-161.83"/>
<polygon fill="midnightblue" stroke="midnightblue" points="367.57,-163.34 368.93,-152.84 361.31,-160.21 367.57,-163.34"/>
</g>
<!-- Node28 -->
<g id="node28" class="node">
<title>Node28</title>
<g id="a_node28"><a xlink:href="group__encode.html#ga8bfaf6132a57d1f9e25282d61d7ed773" target="_top" xlink:title="Decodes multiple&#45;length byte sequences.">
<polygon fill="white" stroke="black" points="469,-114.5 469,-133.5 591,-133.5 591,-114.5 469,-114.5"/>
<text text-anchor="middle" x="530" y="-121.5" font-family="Helvetica,sans-Serif" font-size="10.00">coap_decode_var_bytes</text>
</a>
</g>
</g>
<!-- Node27&#45;&gt;Node28 -->
<g id="edge38" class="edge">
<title>Node27&#45;&gt;Node28</title>
<path fill="none" stroke="midnightblue" d="M429.19,-136.35C438.68,-135.18 448.7,-133.94 458.57,-132.72"/>
<polygon fill="midnightblue" stroke="midnightblue" points="459.29,-136.16 468.79,-131.45 458.43,-129.21 459.29,-136.16"/>
</g>
<!-- Node29 -->
<g id="node29" class="node">
<title>Node29</title>
<g id="a_node29"><a xlink:href="group__opt__filter.html#ga42d0b9d068b790ec1c490a7fb2674904" target="_top" xlink:title="Returns the length of the given option.">
<polygon fill="white" stroke="black" points="486,-76.5 486,-95.5 574,-95.5 574,-76.5 486,-76.5"/>
<text text-anchor="middle" x="530" y="-83.5" font-family="Helvetica,sans-Serif" font-size="10.00">coap_opt_length</text>
</a>
</g>
</g>
<!-- Node27&#45;&gt;Node29 -->
<g id="edge39" class="edge">
<title>Node27&#45;&gt;Node29</title>
<path fill="none" stroke="midnightblue" d="M397.6,-133.44C416.43,-125.44 444.28,-113.92 469,-105 474.94,-102.86 481.25,-100.72 487.46,-98.68"/>
<polygon fill="midnightblue" stroke="midnightblue" points="488.63,-101.98 497.08,-95.59 486.49,-95.32 488.63,-101.98"/>
</g>
<!-- Node30 -->
<g id="node30" class="node">
<title>Node30</title>
<g id="a_node30"><a xlink:href="group__opt__filter.html#gab713167d74579e79140b1112713b7637" target="_top" xlink:title="Returns a pointer to the value of the given option.">
<polygon fill="white" stroke="black" points="487.5,-152.5 487.5,-171.5 572.5,-171.5 572.5,-152.5 487.5,-152.5"/>
<text text-anchor="middle" x="530" y="-159.5" font-family="Helvetica,sans-Serif" font-size="10.00">coap_opt_value</text>
</a>
</g>
</g>
<!-- Node27&#45;&gt;Node30 -->
<g id="edge40" class="edge">
<title>Node27&#45;&gt;Node30</title>
<path fill="none" stroke="midnightblue" d="M429.19,-149.65C444.64,-151.56 461.47,-153.64 476.83,-155.54"/>
<polygon fill="midnightblue" stroke="midnightblue" points="476.84,-159.07 487.19,-156.83 477.7,-152.12 476.84,-159.07"/>
</g>
<!-- Node32&#45;&gt;Node12 -->
<g id="edge45" class="edge">
<title>Node32&#45;&gt;Node12</title>
<path fill="none" stroke="midnightblue" d="M257.9,-240.48C266,-237.01 273.94,-232.31 280,-226 313.29,-191.31 282.3,-158.29 316,-124 386.45,-52.31 428.49,-48 529,-48 529,-48 529,-48 830.5,-48 903.72,-48 986.27,-75 1030.64,-91.83"/>
<polygon fill="midnightblue" stroke="midnightblue" points="1029.44,-95.12 1040.03,-95.46 1031.96,-88.59 1029.44,-95.12"/>
</g>
<!-- Node32&#45;&gt;Node19 -->
<g id="edge46" class="edge">
<title>Node32&#45;&gt;Node19</title>
<path fill="none" stroke="midnightblue" d="M259.99,-259.54C266.94,-262.06 273.89,-265.17 280,-269 299.72,-281.35 299.74,-290.36 316,-307 329.41,-320.72 344.87,-336.01 356.38,-347.3"/>
<polygon fill="midnightblue" stroke="midnightblue" points="354.04,-349.92 363.64,-354.41 358.94,-344.91 354.04,-349.92"/>
</g>
<!-- Node32&#45;&gt;Node24 -->
<g id="edge44" class="edge">
<title>Node32&#45;&gt;Node24</title>
<path fill="none" stroke="midnightblue" d="M260.18,-240.44C267.69,-237 274.8,-232.33 280,-226 335.12,-158.92 261.38,-101.49 316,-34 318.95,-30.35 322.55,-27.25 326.5,-24.62"/>
<polygon fill="midnightblue" stroke="midnightblue" points="328.53,-27.49 335.57,-19.57 325.13,-21.38 328.53,-27.49"/>
</g>
</g>
</svg>
        <g id="navigator" transform="translate(0 0)" fill="#404254">
                <rect fill="#f2f5e9" fill-opacity="0.5" stroke="#606060" stroke-width=".5" x="0" y="0" width="60" height="60"/>
                <use id="zoomplus" xlink:href="#zoomPlus" x="17" y="9" onmousedown="handleZoom(evt,'in')"/>
                <use id="zoomminus" xlink:href="#zoomMin" x="42" y="9" onmousedown="handleZoom(evt,'out')"/>
                <use id="reset" xlink:href="#resetDef" x="30" y="36" onmousedown="handleReset()"/>
                <g id="arrowUp" xlink:href="#dirArrow" transform="translate(30 24)" onmousedown="handlePan(0,-1)">
                  <use xlink:href="#rim" fill="#404040">
                        <set attributeName="fill" to="#808080" begin="arrowUp.mouseover" end="arrowUp.mouseout"/>
                  </use>
                  <path fill="none" stroke="white" stroke-width="1.5" d="M0,-3.0v7 M-2.5,-0.5L0,-3.0L2.5,-0.5"/>
                </g>
                <g id="arrowRight" xlink:href="#dirArrow" transform="rotate(90) translate(36 -43)" onmousedown="handlePan(1,0)">
                  <use xlink:href="#rim" fill="#404040">
                        <set attributeName="fill" to="#808080" begin="arrowRight.mouseover" end="arrowRight.mouseout"/>
                  </use>
                  <path fill="none" stroke="white" stroke-width="1.5" d="M0,-3.0v7 M-2.5,-0.5L0,-3.0L2.5,-0.5"/>
                </g>
                <g id="arrowDown" xlink:href="#dirArrow" transform="rotate(180) translate(-30 -48)" onmousedown="handlePan(0,1)">
                  <use xlink:href="#rim" fill="#404040">
                        <set attributeName="fill" to="#808080" begin="arrowDown.mouseover" end="arrowDown.mouseout"/>
                  </use>
                  <path fill="none" stroke="white" stroke-width="1.5" d="M0,-3.0v7 M-2.5,-0.5L0,-3.0L2.5,-0.5"/>
                </g>
                <g id="arrowLeft" xlink:href="#dirArrow" transform="rotate(270) translate(-36 17)" onmousedown="handlePan(-1,0)">
                  <use xlink:href="#rim" fill="#404040">
                        <set attributeName="fill" to="#808080" begin="arrowLeft.mouseover" end="arrowLeft.mouseout"/>
                  </use>
                  <path fill="none" stroke="white" stroke-width="1.5" d="M0,-3.0v7 M-2.5,-0.5L0,-3.0L2.5,-0.5"/>
                </g>
        </g>
        <svg viewBox="0 0 15 15" width="100%" height="30px" preserveAspectRatio="xMaxYMin meet">
         <g id="arrow_out" transform="scale(0.3 0.3)">
          <a xlink:href="group__block_ga870799d383b3d3392ca711bd7dce467b_cgraph_org.svg" target="_base">
           <rect id="button" ry="5" rx="5" y="6" x="6" height="38" width="38"
                fill="#f2f5e9" fill-opacity="0.5" stroke="#606060" stroke-width="1.0"/>
           <path id="arrow"
             d="M 11.500037,31.436501 C 11.940474,20.09759 22.043105,11.32322 32.158766,21.979434 L 37.068811,17.246167 C 37.068811,17.246167 37.088388,32 37.088388,32 L 22.160133,31.978069 C 22.160133,31.978069 26.997745,27.140456 26.997745,27.140456 C 18.528582,18.264221 13.291696,25.230495 11.500037,31.436501 z"
             style="fill:#404040;"/>
          </a>
         </g>
        </svg>
</svg>
