<?xml version="1.0" encoding="UTF-8" standalone="no"?>
<!DOCTYPE svg PUBLIC "-//W3C//DTD SVG 1.1//EN"
 "http://www.w3.org/Graphics/SVG/1.1/DTD/svg11.dtd">
<!-- Generated by graphviz version 2.43.0 (0)
 -->
<!-- Title: coap_new_cache_entry Pages: 1 -->
<svg width="1107pt" height="598pt"
 viewBox="0.00 0.00 1107.00 598.00" xmlns="http://www.w3.org/2000/svg" xmlns:xlink="http://www.w3.org/1999/xlink">
<g id="graph0" class="graph" transform="scale(1 1) rotate(0) translate(4 594)">
<title>coap_new_cache_entry</title>
<polygon fill="white" stroke="transparent" points="-4,4 -4,-594 1103,-594 1103,4 -4,4"/>
<!-- Node1 -->
<g id="node1" class="node">
<title>Node1</title>
<g id="a_node1"><a xlink:title="Create a new cache&#45;entry hash keyed by cache&#45;key derived from the PDU.">
<polygon fill="#bfbfbf" stroke="black" points="0,-114.5 0,-133.5 119,-133.5 119,-114.5 0,-114.5"/>
<text text-anchor="middle" x="59.5" y="-121.5" font-family="Helvetica,sans-Serif" font-size="10.00">coap_new_cache_entry</text>
</a>
</g>
</g>
<!-- Node2 -->
<g id="node2" class="node">
<title>Node2</title>
<g id="a_node2"><a xlink:href="group__cache.html#ga8101e198de5e07d24c3ad1b37b128302" target="_top" xlink:title="Calculates a cache&#45;key for the given CoAP PDU.">
<polygon fill="white" stroke="black" points="155,-304.5 155,-323.5 277,-323.5 277,-304.5 155,-304.5"/>
<text text-anchor="middle" x="216" y="-311.5" font-family="Helvetica,sans-Serif" font-size="10.00">coap_cache_derive_key</text>
</a>
</g>
</g>
<!-- Node1&#45;&gt;Node2 -->
<g id="edge1" class="edge">
<title>Node1&#45;&gt;Node2</title>
<path fill="none" stroke="midnightblue" d="M68.37,-133.68C92.96,-163.91 168.54,-256.86 200.5,-296.16"/>
<polygon fill="midnightblue" stroke="midnightblue" points="197.93,-298.56 206.96,-304.11 203.36,-294.14 197.93,-298.56"/>
</g>
<!-- Node7 -->
<g id="node7" class="node">
<title>Node7</title>
<g id="a_node7"><a xlink:href="mem_8h.html#ae7214e0c73a4d4290525873e739ed422" target="_top" xlink:title="Releases the memory that was allocated by coap_malloc_type().">
<polygon fill="white" stroke="black" points="922,-152.5 922,-171.5 1005,-171.5 1005,-152.5 922,-152.5"/>
<text text-anchor="middle" x="963.5" y="-159.5" font-family="Helvetica,sans-Serif" font-size="10.00">coap_free_type</text>
</a>
</g>
</g>
<!-- Node1&#45;&gt;Node7 -->
<g id="edge29" class="edge">
<title>Node1&#45;&gt;Node7</title>
<path fill="none" stroke="midnightblue" d="M79.56,-133.65C98.3,-142.77 127.96,-156.17 155,-164 249.32,-191.33 274.8,-200 373,-200 373,-200 373,-200 686,-200 765.6,-200 856.9,-184.35 912.1,-173.14"/>
<polygon fill="midnightblue" stroke="midnightblue" points="912.89,-176.55 921.98,-171.1 911.48,-169.69 912.89,-176.55"/>
</g>
<!-- Node10 -->
<g id="node10" class="node">
<title>Node10</title>
<g id="a_node10"><a xlink:href="mem_8h.html#a0204710ce56cbaa4f062b7f2622857f5" target="_top" xlink:title="Allocates a chunk of size bytes and returns a pointer to the newly allocated memory.">
<polygon fill="white" stroke="black" points="784,-266.5 784,-285.5 879,-285.5 879,-266.5 784,-266.5"/>
<text text-anchor="middle" x="831.5" y="-273.5" font-family="Helvetica,sans-Serif" font-size="10.00">coap_malloc_type</text>
</a>
</g>
</g>
<!-- Node1&#45;&gt;Node10 -->
<g id="edge30" class="edge">
<title>Node1&#45;&gt;Node10</title>
<path fill="none" stroke="midnightblue" d="M108.73,-133.54C169.93,-144.8 278.86,-162 373,-162 373,-162 373,-162 533,-162 628.85,-162 653.37,-180.15 741,-219 766.1,-230.13 792.3,-247.61 809.82,-260.29"/>
<polygon fill="midnightblue" stroke="midnightblue" points="808.01,-263.3 818.14,-266.42 812.17,-257.67 808.01,-263.3"/>
</g>
<!-- Node25 -->
<g id="node25" class="node">
<title>Node25</title>
<g id="a_node25"><a xlink:href="group__pdu.html#ga48581f968a30ef4278702eb1c16b7a90" target="_top" xlink:title="Dispose of an CoAP PDU and frees associated storage.">
<polygon fill="white" stroke="black" points="329,-114.5 329,-133.5 419,-133.5 419,-114.5 329,-114.5"/>
<text text-anchor="middle" x="374" y="-121.5" font-family="Helvetica,sans-Serif" font-size="10.00">coap_delete_pdu</text>
</a>
</g>
</g>
<!-- Node1&#45;&gt;Node25 -->
<g id="edge27" class="edge">
<title>Node1&#45;&gt;Node25</title>
<path fill="none" stroke="midnightblue" d="M119.28,-124C176.54,-124 262.87,-124 318.59,-124"/>
<polygon fill="midnightblue" stroke="midnightblue" points="318.62,-127.5 328.62,-124 318.62,-120.5 318.62,-127.5"/>
</g>
<!-- Node26 -->
<g id="node26" class="node">
<title>Node26</title>
<g id="a_node26"><a xlink:href="group__pdu.html#gaf3e21f2ea18ed2fbbd002b0b20faf669" target="_top" xlink:title="Creates a new CoAP PDU with at least enough storage space for the given size maximum message size.">
<polygon fill="white" stroke="black" points="646.5,-76.5 646.5,-95.5 723.5,-95.5 723.5,-76.5 646.5,-76.5"/>
<text text-anchor="middle" x="685" y="-83.5" font-family="Helvetica,sans-Serif" font-size="10.00">coap_pdu_init</text>
</a>
</g>
</g>
<!-- Node1&#45;&gt;Node26 -->
<g id="edge31" class="edge">
<title>Node1&#45;&gt;Node26</title>
<path fill="none" stroke="midnightblue" d="M119.15,-119.19C170.3,-115.08 246.53,-109.2 313,-105 428.86,-97.67 565.22,-91.26 635.96,-88.09"/>
<polygon fill="midnightblue" stroke="midnightblue" points="636.49,-91.57 646.33,-87.63 636.18,-84.58 636.49,-91.57"/>
</g>
<!-- Node28 -->
<g id="node28" class="node">
<title>Node28</title>
<g id="a_node28"><a xlink:href="group__pdu__internal.html#gadd46ce956878a4121e8887b84c6d4a6b" target="_top" xlink:title="Dynamically grows the size of pdu to new_size.">
<polygon fill="white" stroke="black" points="171,-38.5 171,-57.5 261,-57.5 261,-38.5 171,-38.5"/>
<text text-anchor="middle" x="216" y="-45.5" font-family="Helvetica,sans-Serif" font-size="10.00">coap_pdu_resize</text>
</a>
</g>
</g>
<!-- Node1&#45;&gt;Node28 -->
<g id="edge35" class="edge">
<title>Node1&#45;&gt;Node28</title>
<path fill="none" stroke="midnightblue" d="M76.57,-114.36C95.13,-103.43 126.73,-85.37 155,-72 162.87,-68.28 171.49,-64.6 179.67,-61.3"/>
<polygon fill="midnightblue" stroke="midnightblue" points="181,-64.53 189.01,-57.6 178.42,-58.03 181,-64.53"/>
</g>
<!-- Node29 -->
<g id="node29" class="node">
<title>Node29</title>
<g id="a_node29"><a xlink:href="group__clock.html#ga350826988e63ff446a2a84034ecdf43d" target="_top" xlink:title="Sets t to the internal time with COAP_TICKS_PER_SECOND resolution.">
<polygon fill="white" stroke="black" points="184,-0.5 184,-19.5 248,-19.5 248,-0.5 184,-0.5"/>
<text text-anchor="middle" x="216" y="-7.5" font-family="Helvetica,sans-Serif" font-size="10.00">coap_ticks</text>
</a>
</g>
</g>
<!-- Node1&#45;&gt;Node29 -->
<g id="edge36" class="edge">
<title>Node1&#45;&gt;Node29</title>
<path fill="none" stroke="midnightblue" d="M67.44,-114.41C81.71,-95.37 116.26,-52.61 155,-29 160.89,-25.41 167.53,-22.43 174.18,-19.99"/>
<polygon fill="midnightblue" stroke="midnightblue" points="175.48,-23.25 183.86,-16.77 173.27,-16.6 175.48,-23.25"/>
</g>
<!-- Node3 -->
<g id="node3" class="node">
<title>Node3</title>
<g id="a_node3"><a xlink:href="group__cache.html#ga3bc1cd78370c67c5de39b5489511351c" target="_top" xlink:title="Calculates a cache&#45;key for the given CoAP PDU.">
<polygon fill="white" stroke="black" points="313,-375 313,-405 435,-405 435,-375 313,-375"/>
<text text-anchor="start" x="321" y="-393" font-family="Helvetica,sans-Serif" font-size="10.00">coap_cache_derive_key</text>
<text text-anchor="middle" x="374" y="-382" font-family="Helvetica,sans-Serif" font-size="10.00">_w_ignore</text>
</a>
</g>
</g>
<!-- Node2&#45;&gt;Node3 -->
<g id="edge2" class="edge">
<title>Node2&#45;&gt;Node3</title>
<path fill="none" stroke="midnightblue" d="M236.76,-323.63C260.83,-335.35 302.1,-355.46 332.93,-370.48"/>
<polygon fill="midnightblue" stroke="midnightblue" points="331.6,-373.73 342.13,-374.96 334.67,-367.43 331.6,-373.73"/>
</g>
<!-- Node4 -->
<g id="node4" class="node">
<title>Node4</title>
<g id="a_node4"><a xlink:href="group__cache__internal.html#ga97003c43333b624e1e8dbcb34b1fd877" target="_top" xlink:title="Finalize the coap_digest information into the provided digest_buffer.">
<polygon fill="white" stroke="black" points="486,-418.5 486,-437.5 578,-437.5 578,-418.5 486,-418.5"/>
<text text-anchor="middle" x="532" y="-425.5" font-family="Helvetica,sans-Serif" font-size="10.00">coap_digest_final</text>
</a>
</g>
</g>
<!-- Node3&#45;&gt;Node4 -->
<g id="edge3" class="edge">
<title>Node3&#45;&gt;Node4</title>
<path fill="none" stroke="midnightblue" d="M435.31,-404.69C450.64,-408.43 466.93,-412.39 481.64,-415.98"/>
<polygon fill="midnightblue" stroke="midnightblue" points="480.99,-419.42 491.54,-418.39 482.65,-412.62 480.99,-419.42"/>
</g>
<!-- Node5 -->
<g id="node5" class="node">
<title>Node5</title>
<g id="a_node5"><a xlink:href="group__cache__internal.html#ga37ed3d3914023efe3ed1d05b13325192" target="_top" xlink:title="Free off coap_digest_ctx_t.">
<polygon fill="white" stroke="black" points="639.5,-380.5 639.5,-399.5 730.5,-399.5 730.5,-380.5 639.5,-380.5"/>
<text text-anchor="middle" x="685" y="-387.5" font-family="Helvetica,sans-Serif" font-size="10.00">coap_digest_free</text>
</a>
</g>
</g>
<!-- Node3&#45;&gt;Node5 -->
<g id="edge7" class="edge">
<title>Node3&#45;&gt;Node5</title>
<path fill="none" stroke="midnightblue" d="M435.31,-390C491.58,-390 574.79,-390 629.2,-390"/>
<polygon fill="midnightblue" stroke="midnightblue" points="629.35,-393.5 639.35,-390 629.35,-386.5 629.35,-393.5"/>
</g>
<!-- Node8 -->
<g id="node8" class="node">
<title>Node8</title>
<g id="a_node8"><a xlink:href="group__cache__internal.html#ga68a0ea9de8a8a4fb757d96be93f5cbf2" target="_top" xlink:title="Initialize a coap_digest.">
<polygon fill="white" stroke="black" points="483,-342.5 483,-361.5 581,-361.5 581,-342.5 483,-342.5"/>
<text text-anchor="middle" x="532" y="-349.5" font-family="Helvetica,sans-Serif" font-size="10.00">coap_digest_setup</text>
</a>
</g>
</g>
<!-- Node3&#45;&gt;Node8 -->
<g id="edge8" class="edge">
<title>Node3&#45;&gt;Node8</title>
<path fill="none" stroke="midnightblue" d="M435.31,-375.31C450.64,-371.57 466.93,-367.61 481.64,-364.02"/>
<polygon fill="midnightblue" stroke="midnightblue" points="482.65,-367.38 491.54,-361.61 480.99,-360.58 482.65,-367.38"/>
</g>
<!-- Node3&#45;&gt;Node10 -->
<g id="edge14" class="edge">
<title>Node3&#45;&gt;Node10</title>
<path fill="none" stroke="midnightblue" d="M395.2,-374.89C413.89,-361.71 442.92,-343.14 471,-333 573.54,-295.97 701.14,-282.97 773.45,-278.42"/>
<polygon fill="midnightblue" stroke="midnightblue" points="773.94,-281.9 783.71,-277.81 773.52,-274.91 773.94,-281.9"/>
</g>
<!-- Node11 -->
<g id="node11" class="node">
<title>Node11</title>
<g id="a_node11"><a xlink:href="group__cache__internal.html#gaac68cab6efc578dda7ba92e5257c7851" target="_top" xlink:title="Update the coap_digest information with the next chunk of data.">
<polygon fill="white" stroke="black" points="480,-266.5 480,-285.5 584,-285.5 584,-266.5 480,-266.5"/>
<text text-anchor="middle" x="532" y="-273.5" font-family="Helvetica,sans-Serif" font-size="10.00">coap_digest_update</text>
</a>
</g>
</g>
<!-- Node3&#45;&gt;Node11 -->
<g id="edge11" class="edge">
<title>Node3&#45;&gt;Node11</title>
<path fill="none" stroke="midnightblue" d="M387.92,-374.78C405.17,-355.25 437.47,-321.34 471,-300 477.31,-295.98 484.41,-292.43 491.45,-289.37"/>
<polygon fill="midnightblue" stroke="midnightblue" points="492.99,-292.52 500.94,-285.51 490.36,-286.04 492.99,-292.52"/>
</g>
<!-- Node12 -->
<g id="node12" class="node">
<title>Node12</title>
<g id="a_node12"><a xlink:href="group__pdu.html#gab8ab682509ebdb989cf5d10170612cf0" target="_top" xlink:title="Retrieves the length and data pointer of specified PDU.">
<polygon fill="white" stroke="black" points="492,-228.5 492,-247.5 572,-247.5 572,-228.5 492,-228.5"/>
<text text-anchor="middle" x="532" y="-235.5" font-family="Helvetica,sans-Serif" font-size="10.00">coap_get_data</text>
</a>
</g>
</g>
<!-- Node3&#45;&gt;Node12 -->
<g id="edge12" class="edge">
<title>Node3&#45;&gt;Node12</title>
<path fill="none" stroke="midnightblue" d="M381.9,-374.8C395.18,-347.22 426.93,-288.87 471,-257 474.49,-254.48 478.32,-252.28 482.31,-250.37"/>
<polygon fill="midnightblue" stroke="midnightblue" points="483.93,-253.49 491.82,-246.42 481.24,-247.03 483.93,-253.49"/>
</g>
<!-- Node14 -->
<g id="node14" class="node">
<title>Node14</title>
<g id="a_node14"><a xlink:href="option_8c.html#a683c0121b4028a90f612809437aaa3d0" target="_top" xlink:title="Returns the size of the given option, taking into account a possible option jump.">
<polygon fill="white" stroke="black" points="492,-570.5 492,-589.5 572,-589.5 572,-570.5 492,-570.5"/>
<text text-anchor="middle" x="532" y="-577.5" font-family="Helvetica,sans-Serif" font-size="10.00">coap_opt_size</text>
</a>
</g>
</g>
<!-- Node3&#45;&gt;Node14 -->
<g id="edge15" class="edge">
<title>Node3&#45;&gt;Node14</title>
<path fill="none" stroke="midnightblue" d="M379.27,-405.05C389.44,-438.23 418.31,-518.14 471,-561 474.48,-563.83 478.38,-566.24 482.49,-568.3"/>
<polygon fill="midnightblue" stroke="midnightblue" points="481.14,-571.53 491.71,-572.24 483.9,-565.09 481.14,-571.53"/>
</g>
<!-- Node16 -->
<g id="node16" class="node">
<title>Node16</title>
<g id="a_node16"><a xlink:href="group__opt__filter.html#gad799c84f95789d9dc6724da2b56d8ff5" target="_top" xlink:title="Initializes the given option iterator oi to point to the beginning of the pdu&#39;s option list.">
<polygon fill="white" stroke="black" points="471,-532.5 471,-551.5 593,-551.5 593,-532.5 471,-532.5"/>
<text text-anchor="middle" x="532" y="-539.5" font-family="Helvetica,sans-Serif" font-size="10.00">coap_option_iterator_init</text>
</a>
</g>
</g>
<!-- Node3&#45;&gt;Node16 -->
<g id="edge17" class="edge">
<title>Node3&#45;&gt;Node16</title>
<path fill="none" stroke="midnightblue" d="M381.9,-405.2C395.18,-432.78 426.93,-491.13 471,-523 473.66,-524.92 476.51,-526.65 479.49,-528.21"/>
<polygon fill="midnightblue" stroke="midnightblue" points="478.13,-531.44 488.68,-532.4 481.03,-525.07 478.13,-531.44"/>
</g>
<!-- Node17 -->
<g id="node17" class="node">
<title>Node17</title>
<g id="a_node17"><a xlink:href="group__opt__filter.html#ga182fdeffe0b37e1ab0dc6ba8494abe4a" target="_top" xlink:title="Updates the iterator oi to point to the next option.">
<polygon fill="white" stroke="black" points="485.5,-494.5 485.5,-513.5 578.5,-513.5 578.5,-494.5 485.5,-494.5"/>
<text text-anchor="middle" x="532" y="-501.5" font-family="Helvetica,sans-Serif" font-size="10.00">coap_option_next</text>
</a>
</g>
</g>
<!-- Node3&#45;&gt;Node17 -->
<g id="edge18" class="edge">
<title>Node3&#45;&gt;Node17</title>
<path fill="none" stroke="midnightblue" d="M386.36,-405.07C402.82,-425.92 435.28,-463.42 471,-485 474.43,-487.07 478.1,-488.94 481.88,-490.62"/>
<polygon fill="midnightblue" stroke="midnightblue" points="480.84,-493.97 491.42,-494.41 483.43,-487.46 480.84,-493.97"/>
</g>
<!-- Node24 -->
<g id="node24" class="node">
<title>Node24</title>
<g id="a_node24"><a xlink:href="coap__cache_8c.html#ae46740289ba355f04194588da72b9277" target="_top" xlink:title=" ">
<polygon fill="white" stroke="black" points="493.5,-456.5 493.5,-475.5 570.5,-475.5 570.5,-456.5 493.5,-456.5"/>
<text text-anchor="middle" x="532" y="-463.5" font-family="Helvetica,sans-Serif" font-size="10.00">is_cache_key</text>
</a>
</g>
</g>
<!-- Node3&#45;&gt;Node24 -->
<g id="edge26" class="edge">
<title>Node3&#45;&gt;Node24</title>
<path fill="none" stroke="midnightblue" d="M397.1,-405.11C416.07,-417.59 444.47,-435.11 471,-447 475.99,-449.23 481.31,-451.32 486.66,-453.23"/>
<polygon fill="midnightblue" stroke="midnightblue" points="485.63,-456.58 496.23,-456.47 487.88,-449.95 485.63,-456.58"/>
</g>
<!-- Node4&#45;&gt;Node5 -->
<g id="edge4" class="edge">
<title>Node4&#45;&gt;Node5</title>
<path fill="none" stroke="midnightblue" d="M571.1,-418.41C590.94,-413.42 615.38,-407.27 636.45,-401.97"/>
<polygon fill="midnightblue" stroke="midnightblue" points="637.33,-405.35 646.17,-399.52 635.62,-398.57 637.33,-405.35"/>
</g>
<!-- Node6 -->
<g id="node6" class="node">
<title>Node6</title>
<g id="a_node6"><a xlink:href="mem_8h.html#a1e46a1505bb13f03fdacd5d1b32502a6" target="_top" xlink:title="Wrapper function to coap_free_type() for backwards compatibility.">
<polygon fill="white" stroke="black" points="802,-342.5 802,-361.5 861,-361.5 861,-342.5 802,-342.5"/>
<text text-anchor="middle" x="831.5" y="-349.5" font-family="Helvetica,sans-Serif" font-size="10.00">coap_free</text>
</a>
</g>
</g>
<!-- Node5&#45;&gt;Node6 -->
<g id="edge5" class="edge">
<title>Node5&#45;&gt;Node6</title>
<path fill="none" stroke="midnightblue" d="M722.46,-380.41C743.68,-374.83 770.41,-367.8 791.98,-362.13"/>
<polygon fill="midnightblue" stroke="midnightblue" points="793.01,-365.48 801.79,-359.55 791.23,-358.71 793.01,-365.48"/>
</g>
<!-- Node6&#45;&gt;Node7 -->
<g id="edge6" class="edge">
<title>Node6&#45;&gt;Node7</title>
<path fill="none" stroke="midnightblue" d="M843.13,-342.13C854.52,-331.25 872.75,-312.88 886,-295 914.27,-256.86 940.26,-207.36 953.44,-180.81"/>
<polygon fill="midnightblue" stroke="midnightblue" points="956.58,-182.34 957.84,-171.82 950.3,-179.26 956.58,-182.34"/>
</g>
<!-- Node9 -->
<g id="node9" class="node">
<title>Node9</title>
<g id="a_node9"><a xlink:href="mem_8h.html#a1539cf5011cdfb11500b476f4dbe9393" target="_top" xlink:title="Wrapper function to coap_malloc_type() for backwards compatibility.">
<polygon fill="white" stroke="black" points="649.5,-342.5 649.5,-361.5 720.5,-361.5 720.5,-342.5 649.5,-342.5"/>
<text text-anchor="middle" x="685" y="-349.5" font-family="Helvetica,sans-Serif" font-size="10.00">coap_malloc</text>
</a>
</g>
</g>
<!-- Node8&#45;&gt;Node9 -->
<g id="edge9" class="edge">
<title>Node8&#45;&gt;Node9</title>
<path fill="none" stroke="midnightblue" d="M581.19,-352C599.75,-352 620.85,-352 639.09,-352"/>
<polygon fill="midnightblue" stroke="midnightblue" points="639.17,-355.5 649.17,-352 639.17,-348.5 639.17,-355.5"/>
</g>
<!-- Node9&#45;&gt;Node10 -->
<g id="edge10" class="edge">
<title>Node9&#45;&gt;Node10</title>
<path fill="none" stroke="midnightblue" d="M709.56,-342.42C719.4,-338.24 730.87,-333.13 741,-328 763.8,-316.45 788.89,-301.69 806.68,-290.84"/>
<polygon fill="midnightblue" stroke="midnightblue" points="808.59,-293.78 815.28,-285.57 804.92,-287.82 808.59,-293.78"/>
</g>
<!-- Node13 -->
<g id="node13" class="node">
<title>Node13</title>
<g id="a_node13"><a xlink:href="group__pdu.html#gacb114ef7bdb588870ded91efc3c3d6d2" target="_top" xlink:title="Retrieves the data from a PDU, with support for large bodies of data that spans multiple PDUs.">
<polygon fill="white" stroke="black" points="631.5,-228.5 631.5,-247.5 738.5,-247.5 738.5,-228.5 631.5,-228.5"/>
<text text-anchor="middle" x="685" y="-235.5" font-family="Helvetica,sans-Serif" font-size="10.00">coap_get_data_large</text>
</a>
</g>
</g>
<!-- Node12&#45;&gt;Node13 -->
<g id="edge13" class="edge">
<title>Node12&#45;&gt;Node13</title>
<path fill="none" stroke="midnightblue" d="M572.28,-238C587.19,-238 604.56,-238 621.11,-238"/>
<polygon fill="midnightblue" stroke="midnightblue" points="621.27,-241.5 631.27,-238 621.27,-234.5 621.27,-241.5"/>
</g>
<!-- Node15 -->
<g id="node15" class="node">
<title>Node15</title>
<g id="a_node15"><a xlink:href="option_8c.html#a11de99f50cc9f5a34fd9e4d121ecfd13" target="_top" xlink:title="Parses the option pointed to by opt into result.">
<polygon fill="white" stroke="black" points="642,-560.5 642,-579.5 728,-579.5 728,-560.5 642,-560.5"/>
<text text-anchor="middle" x="685" y="-567.5" font-family="Helvetica,sans-Serif" font-size="10.00">coap_opt_parse</text>
</a>
</g>
</g>
<!-- Node14&#45;&gt;Node15 -->
<g id="edge16" class="edge">
<title>Node14&#45;&gt;Node15</title>
<path fill="none" stroke="midnightblue" d="M572.28,-577.4C590.35,-576.2 612.06,-574.76 631.51,-573.48"/>
<polygon fill="midnightblue" stroke="midnightblue" points="631.99,-576.95 641.74,-572.8 631.53,-569.97 631.99,-576.95"/>
</g>
<!-- Node17&#45;&gt;Node15 -->
<g id="edge19" class="edge">
<title>Node17&#45;&gt;Node15</title>
<path fill="none" stroke="midnightblue" d="M566.68,-513.56C575.36,-516.32 584.62,-519.54 593,-523 615.74,-532.39 640.49,-545.36 658.42,-555.3"/>
<polygon fill="midnightblue" stroke="midnightblue" points="657.2,-558.63 667.63,-560.47 660.62,-552.52 657.2,-558.63"/>
</g>
<!-- Node18 -->
<g id="node18" class="node">
<title>Node18</title>
<g id="a_node18"><a xlink:href="group__opt__filter.html#gaecbb0b2fe1f6244aa6121d019070704b" target="_top" xlink:title="Checks if number is contained in filter.">
<polygon fill="white" stroke="black" points="629,-465.5 629,-484.5 741,-484.5 741,-465.5 629,-465.5"/>
<text text-anchor="middle" x="685" y="-472.5" font-family="Helvetica,sans-Serif" font-size="10.00">coap_option_filter_get</text>
</a>
</g>
</g>
<!-- Node17&#45;&gt;Node18 -->
<g id="edge20" class="edge">
<title>Node17&#45;&gt;Node18</title>
<path fill="none" stroke="midnightblue" d="M578.71,-495.22C593.17,-492.44 609.36,-489.34 624.63,-486.4"/>
<polygon fill="midnightblue" stroke="midnightblue" points="625.34,-489.83 634.5,-484.51 624.02,-482.96 625.34,-489.83"/>
</g>
<!-- Node23 -->
<g id="node23" class="node">
<title>Node23</title>
<g id="a_node23"><a xlink:href="option_8c.html#a70fa9db0450134640b80cbf7c3720688" target="_top" xlink:title=" ">
<polygon fill="white" stroke="black" points="650.5,-503.5 650.5,-522.5 719.5,-522.5 719.5,-503.5 650.5,-503.5"/>
<text text-anchor="middle" x="685" y="-510.5" font-family="Helvetica,sans-Serif" font-size="10.00">opt_finished</text>
</a>
</g>
</g>
<!-- Node17&#45;&gt;Node23 -->
<g id="edge25" class="edge">
<title>Node17&#45;&gt;Node23</title>
<path fill="none" stroke="midnightblue" d="M578.71,-506.72C598.29,-507.89 621.04,-509.25 640.38,-510.4"/>
<polygon fill="midnightblue" stroke="midnightblue" points="640.24,-513.9 650.43,-511 640.66,-506.91 640.24,-513.9"/>
</g>
<!-- Node19 -->
<g id="node19" class="node">
<title>Node19</title>
<g id="a_node19"><a xlink:href="option_8c.html#ab87ea79da1603a15ac624388a335bba6" target="_top" xlink:title="Applies op on filter with respect to number.">
<polygon fill="white" stroke="black" points="777,-465.5 777,-484.5 886,-484.5 886,-465.5 777,-465.5"/>
<text text-anchor="middle" x="831.5" y="-472.5" font-family="Helvetica,sans-Serif" font-size="10.00">coap_option_filter_op</text>
</a>
</g>
</g>
<!-- Node18&#45;&gt;Node19 -->
<g id="edge21" class="edge">
<title>Node18&#45;&gt;Node19</title>
<path fill="none" stroke="midnightblue" d="M741.04,-475C749.32,-475 757.92,-475 766.37,-475"/>
<polygon fill="midnightblue" stroke="midnightblue" points="766.57,-478.5 776.57,-475 766.57,-471.5 766.57,-478.5"/>
</g>
<!-- Node20 -->
<g id="node20" class="node">
<title>Node20</title>
<g id="a_node20"><a xlink:href="encode_8c.html#a671b4261b2d24de8696258a8efb0f359" target="_top" xlink:title=" ">
<polygon fill="white" stroke="black" points="937,-446.5 937,-465.5 990,-465.5 990,-446.5 937,-446.5"/>
<text text-anchor="middle" x="963.5" y="-453.5" font-family="Helvetica,sans-Serif" font-size="10.00">coap_fls</text>
</a>
</g>
</g>
<!-- Node19&#45;&gt;Node20 -->
<g id="edge22" class="edge">
<title>Node19&#45;&gt;Node20</title>
<path fill="none" stroke="midnightblue" d="M886.13,-467.16C899.79,-465.17 914.14,-463.07 926.67,-461.24"/>
<polygon fill="midnightblue" stroke="midnightblue" points="927.32,-464.68 936.71,-459.77 926.31,-457.75 927.32,-464.68"/>
</g>
<!-- Node22 -->
<g id="node22" class="node">
<title>Node22</title>
<g id="a_node22"><a xlink:href="option_8c.html#ad65a9bd8fcfb4ba4270819e6f87f5bcf" target="_top" xlink:title="Returns true iff number denotes an option number larger than 255.">
<polygon fill="white" stroke="black" points="924,-484.5 924,-503.5 1003,-503.5 1003,-484.5 924,-484.5"/>
<text text-anchor="middle" x="963.5" y="-491.5" font-family="Helvetica,sans-Serif" font-size="10.00">is_long_option</text>
</a>
</g>
</g>
<!-- Node19&#45;&gt;Node22 -->
<g id="edge24" class="edge">
<title>Node19&#45;&gt;Node22</title>
<path fill="none" stroke="midnightblue" d="M886.13,-482.84C895.27,-484.17 904.73,-485.56 913.74,-486.87"/>
<polygon fill="midnightblue" stroke="midnightblue" points="913.29,-490.34 923.69,-488.33 914.3,-483.42 913.29,-490.34"/>
</g>
<!-- Node21 -->
<g id="node21" class="node">
<title>Node21</title>
<g id="a_node21"><a xlink:href="encode_8c.html#a5732d87decbffe771159ea02a5e25488" target="_top" xlink:title=" ">
<polygon fill="white" stroke="black" points="1041,-446.5 1041,-465.5 1099,-465.5 1099,-446.5 1041,-446.5"/>
<text text-anchor="middle" x="1070" y="-453.5" font-family="Helvetica,sans-Serif" font-size="10.00">coap_flsll</text>
</a>
</g>
</g>
<!-- Node20&#45;&gt;Node21 -->
<g id="edge23" class="edge">
<title>Node20&#45;&gt;Node21</title>
<path fill="none" stroke="midnightblue" d="M990.06,-456C1002.29,-456 1017.19,-456 1030.73,-456"/>
<polygon fill="midnightblue" stroke="midnightblue" points="1030.76,-459.5 1040.76,-456 1030.76,-452.5 1030.76,-459.5"/>
</g>
<!-- Node25&#45;&gt;Node7 -->
<g id="edge28" class="edge">
<title>Node25&#45;&gt;Node7</title>
<path fill="none" stroke="midnightblue" d="M419.16,-126.86C526.03,-133.77 798.16,-151.37 911.62,-158.71"/>
<polygon fill="midnightblue" stroke="midnightblue" points="911.57,-162.21 921.77,-159.37 912.02,-155.23 911.57,-162.21"/>
</g>
<!-- Node26&#45;&gt;Node7 -->
<g id="edge32" class="edge">
<title>Node26&#45;&gt;Node7</title>
<path fill="none" stroke="midnightblue" d="M723.74,-85.28C764.91,-85.67 832.12,-89.83 886,-110 907.88,-118.19 929.59,-133.86 944.26,-145.87"/>
<polygon fill="midnightblue" stroke="midnightblue" points="942.14,-148.65 952.04,-152.43 946.65,-143.3 942.14,-148.65"/>
</g>
<!-- Node26&#45;&gt;Node10 -->
<g id="edge33" class="edge">
<title>Node26&#45;&gt;Node10</title>
<path fill="none" stroke="midnightblue" d="M695.32,-95.79C706.57,-107.76 725.85,-128.8 741,-148 770.78,-185.75 802.25,-232.63 818.78,-257.87"/>
<polygon fill="midnightblue" stroke="midnightblue" points="815.96,-259.95 824.35,-266.42 821.82,-256.13 815.96,-259.95"/>
</g>
<!-- Node27 -->
<g id="node27" class="node">
<title>Node27</title>
<g id="a_node27"><a xlink:href="group__pdu__internal.html#ga9dbdf354e2da5e80fea4c0d4a8df6d05" target="_top" xlink:title="Clears any contents from pdu and resets used_size, and data pointers.">
<polygon fill="white" stroke="black" points="789,-38.5 789,-57.5 874,-57.5 874,-38.5 789,-38.5"/>
<text text-anchor="middle" x="831.5" y="-45.5" font-family="Helvetica,sans-Serif" font-size="10.00">coap_pdu_clear</text>
</a>
</g>
</g>
<!-- Node26&#45;&gt;Node27 -->
<g id="edge34" class="edge">
<title>Node26&#45;&gt;Node27</title>
<path fill="none" stroke="midnightblue" d="M722.46,-76.41C741.27,-71.46 764.41,-65.38 784.45,-60.11"/>
<polygon fill="midnightblue" stroke="midnightblue" points="785.52,-63.45 794.3,-57.52 783.74,-56.68 785.52,-63.45"/>
</g>
</g>
</svg>
