<?xml version="1.0" encoding="UTF-8" standalone="no"?>
<!DOCTYPE svg PUBLIC "-//W3C//DTD SVG 1.1//EN"
 "http://www.w3.org/Graphics/SVG/1.1/DTD/svg11.dtd">
<!-- Generated by graphviz version 2.43.0 (0)
 -->
<!-- Title: coap_free_async Pages: 1 -->
<!--zoomable 208 -->
<svg id="main" version="1.1" xmlns="http://www.w3.org/2000/svg" xmlns:xlink="http://www.w3.org/1999/xlink" xml:space="preserve" onload="init(evt)">
<style type="text/css"><![CDATA[
.edge:hover path { stroke: red; }
.edge:hover polygon { stroke: red; fill: red; }
]]></style>
<script type="text/javascript"><![CDATA[
var edges = document.getElementsByTagName('g');
if (edges && edges.length) {
  for (var i=0;i<edges.length;i++) {
    if (edges[i].id.substr(0,4)=='edge') {
      edges[i].setAttribute('class','edge');
    }
  }
}
]]></script>
        <defs>
                <circle id="rim" cx="0" cy="0" r="7"/>
                <circle id="rim2" cx="0" cy="0" r="3.5"/>
                <g id="zoomPlus">
                        <use xlink:href="#rim" fill="#404040">
                                <set attributeName="fill" to="#808080" begin="zoomplus.mouseover" end="zoomplus.mouseout"/>
                        </use>
                        <path d="M-4,0h8M0,-4v8" fill="none" stroke="white" stroke-width="1.5" pointer-events="none"/>
                </g>
                <g id="zoomMin">
                        <use xlink:href="#rim" fill="#404040">
                                <set attributeName="fill" to="#808080" begin="zoomminus.mouseover" end="zoomminus.mouseout"/>
                        </use>
                        <path d="M-4,0h8" fill="none" stroke="white" stroke-width="1.5" pointer-events="none"/>
                </g>
                <g id="dirArrow">
                        <path fill="none" stroke="white" stroke-width="1.5" d="M0,-3.0v7 M-2.5,-0.5L0,-3.0L2.5,-0.5"/>
                </g>
               <g id="resetDef">
                       <use xlink:href="#rim2" fill="#404040">
                               <set attributeName="fill" to="#808080" begin="reset.mouseover" end="reset.mouseout"/>
                       </use>
               </g>
        </defs>

<script type="text/javascript">
var viewWidth = 1484;
var viewHeight = 208;
var sectionId = 'dynsection-4';
</script>
<script xlink:href="svgpan.js"/>
<svg id="graph" class="graph">
<g id="viewport">
<title>coap_free_async</title>
<polygon fill="white" stroke="transparent" points="-4,4 -4,-204 1480,-204 1480,4 -4,4"/>
<!-- Node1 -->
<g id="node1" class="node">
<title>Node1</title>
<g id="a_node1"><a xlink:title="Releases the memory that was allocated by coap_register_async() for the object async.">
<polygon fill="#bfbfbf" stroke="black" points="1385,-95.5 1385,-114.5 1476,-114.5 1476,-95.5 1385,-95.5"/>
<text text-anchor="middle" x="1430.5" y="-102.5" font-family="Helvetica,sans-Serif" font-size="10.00">coap_free_async</text>
</a>
</g>
</g>
<!-- Node2 -->
<g id="node2" class="node">
<title>Node2</title>
<g id="a_node2"><a xlink:href="group__coap__async__internal.html#ga207685faa6c979bff227eb06a277d1fa" target="_top" xlink:title="Checks if there are any pending Async requests &#45; if so, send them off.">
<polygon fill="white" stroke="black" points="986,-114.5 986,-133.5 1087,-133.5 1087,-114.5 986,-114.5"/>
<text text-anchor="middle" x="1036.5" y="-121.5" font-family="Helvetica,sans-Serif" font-size="10.00">coap_check_async</text>
</a>
</g>
</g>
<!-- Node1&#45;&gt;Node2 -->
<g id="edge1" class="edge">
<title>Node1&#45;&gt;Node2</title>
<path fill="none" stroke="midnightblue" d="M1374.55,-107.66C1298.11,-111.37 1160.84,-118.02 1087.27,-121.59"/>
<polygon fill="midnightblue" stroke="midnightblue" points="1375.1,-111.14 1384.91,-107.16 1374.76,-104.15 1375.1,-111.14"/>
</g>
<!-- Node10 -->
<g id="node10" class="node">
<title>Node10</title>
<g id="a_node10"><a xlink:href="group__coap__async.html#ga266e32ca8780cd940f2b8f1ee075fbff" target="_top" xlink:title="Allocates a new coap_async_t object and fills its fields according to the given request.">
<polygon fill="white" stroke="black" points="1242,-76.5 1242,-95.5 1349,-95.5 1349,-76.5 1242,-76.5"/>
<text text-anchor="middle" x="1295.5" y="-83.5" font-family="Helvetica,sans-Serif" font-size="10.00">coap_register_async</text>
</a>
</g>
</g>
<!-- Node1&#45;&gt;Node10 -->
<g id="edge13" class="edge">
<title>Node1&#45;&gt;Node10</title>
<path fill="none" stroke="midnightblue" d="M1374.69,-97.17C1366.23,-95.96 1357.51,-94.72 1349.09,-93.51"/>
<polygon fill="midnightblue" stroke="midnightblue" points="1374.45,-100.67 1384.84,-98.62 1375.44,-93.74 1374.45,-100.67"/>
</g>
<!-- Node3 -->
<g id="node3" class="node">
<title>Node3</title>
<g id="a_node3"><a xlink:href="group__app__io__internal.html#gaf0cbbb00a6f2f8ac885f0e1575534e34" target="_top" xlink:title="Iterates through all the coap_socket_t structures embedded in endpoints or sessions associated with t...">
<polygon fill="white" stroke="black" points="699.5,-114.5 699.5,-133.5 800.5,-133.5 800.5,-114.5 699.5,-114.5"/>
<text text-anchor="middle" x="750" y="-121.5" font-family="Helvetica,sans-Serif" font-size="10.00">coap_io_prepare_io</text>
</a>
</g>
</g>
<!-- Node2&#45;&gt;Node3 -->
<g id="edge2" class="edge">
<title>Node2&#45;&gt;Node3</title>
<path fill="none" stroke="midnightblue" d="M975.89,-124C924.03,-124 849.73,-124 800.94,-124"/>
<polygon fill="midnightblue" stroke="midnightblue" points="975.94,-127.5 985.94,-124 975.94,-120.5 975.94,-127.5"/>
</g>
<!-- Node6 -->
<g id="node6" class="node">
<title>Node6</title>
<g id="a_node6"><a xlink:href="group__app__io.html#ga2758ed5fdd6ce79ec95ea8dbf72a5644" target="_top" xlink:title="The main message processing loop with additional fds for internal select.">
<polygon fill="white" stroke="black" points="245,-114.5 245,-133.5 377,-133.5 377,-114.5 245,-114.5"/>
<text text-anchor="middle" x="311" y="-121.5" font-family="Helvetica,sans-Serif" font-size="10.00">coap_io_process_with_fds</text>
</a>
</g>
</g>
<!-- Node2&#45;&gt;Node6 -->
<g id="edge12" class="edge">
<title>Node2&#45;&gt;Node6</title>
<path fill="none" stroke="midnightblue" d="M1005.11,-137.74C953.84,-159.64 846.38,-200 751,-200 751,-200 751,-200 596.5,-200 494.76,-200 379.28,-154.08 332.9,-133.63"/>
<polygon fill="midnightblue" stroke="midnightblue" points="1006.82,-140.82 1014.6,-133.63 1004.03,-134.39 1006.82,-140.82"/>
</g>
<!-- Node4 -->
<g id="node4" class="node">
<title>Node4</title>
<g id="a_node4"><a xlink:href="group__app__io__internal.html#ga3be92476a2c2c12d68c0cd07795c7e34" target="_top" xlink:title="Any now timed out delayed packet is transmitted, along with any packets associated with requested obs...">
<polygon fill="white" stroke="black" points="541,-114.5 541,-133.5 654,-133.5 654,-114.5 541,-114.5"/>
<text text-anchor="middle" x="597.5" y="-121.5" font-family="Helvetica,sans-Serif" font-size="10.00">coap_io_prepare_epoll</text>
</a>
</g>
</g>
<!-- Node3&#45;&gt;Node4 -->
<g id="edge3" class="edge">
<title>Node3&#45;&gt;Node4</title>
<path fill="none" stroke="midnightblue" d="M689.28,-124C677.69,-124 665.58,-124 654.12,-124"/>
<polygon fill="midnightblue" stroke="midnightblue" points="689.3,-127.5 699.3,-124 689.3,-120.5 689.3,-127.5"/>
</g>
<!-- Node3&#45;&gt;Node6 -->
<g id="edge10" class="edge">
<title>Node3&#45;&gt;Node6</title>
<path fill="none" stroke="midnightblue" d="M700.46,-135.62C685.64,-138.66 669.23,-141.49 654,-143 547.39,-153.56 519.72,-147.46 413,-138 400.22,-136.87 386.57,-135.25 373.58,-133.52"/>
<polygon fill="midnightblue" stroke="midnightblue" points="701.38,-139.01 710.43,-133.51 699.93,-132.16 701.38,-139.01"/>
</g>
<!-- Node9 -->
<g id="node9" class="node">
<title>Node9</title>
<g id="a_node9"><a xlink:href="net_8h.html#ab54010e3cade80e1417870c87dcd0402" target="_top" xlink:title=" ">
<polygon fill="white" stroke="black" points="565.5,-76.5 565.5,-95.5 629.5,-95.5 629.5,-76.5 565.5,-76.5"/>
<text text-anchor="middle" x="597.5" y="-83.5" font-family="Helvetica,sans-Serif" font-size="10.00">coap_write</text>
</a>
</g>
</g>
<!-- Node3&#45;&gt;Node9 -->
<g id="edge11" class="edge">
<title>Node3&#45;&gt;Node9</title>
<path fill="none" stroke="midnightblue" d="M701.3,-111.96C677.97,-106.06 650.52,-99.14 629.87,-93.92"/>
<polygon fill="midnightblue" stroke="midnightblue" points="700.47,-115.36 711.02,-114.41 702.18,-108.57 700.47,-115.36"/>
</g>
<!-- Node5 -->
<g id="node5" class="node">
<title>Node5</title>
<g id="a_node5"><a xlink:href="group__app__io__internal.html#ga503f851fa137eb8a9c2936e2098c5eb9" target="_top" xlink:title="Process all the epoll events.">
<polygon fill="white" stroke="black" points="413,-76.5 413,-95.5 505,-95.5 505,-76.5 413,-76.5"/>
<text text-anchor="middle" x="459" y="-83.5" font-family="Helvetica,sans-Serif" font-size="10.00">coap_io_do_epoll</text>
</a>
</g>
</g>
<!-- Node4&#45;&gt;Node5 -->
<g id="edge4" class="edge">
<title>Node4&#45;&gt;Node5</title>
<path fill="none" stroke="midnightblue" d="M552.25,-111.68C533.5,-106.46 511.97,-100.47 494.43,-95.59"/>
<polygon fill="midnightblue" stroke="midnightblue" points="551.48,-115.1 562.06,-114.41 553.36,-108.36 551.48,-115.1"/>
</g>
<!-- Node4&#45;&gt;Node6 -->
<g id="edge9" class="edge">
<title>Node4&#45;&gt;Node6</title>
<path fill="none" stroke="midnightblue" d="M530.77,-124C484.61,-124 423.13,-124 377.11,-124"/>
<polygon fill="midnightblue" stroke="midnightblue" points="530.97,-127.5 540.97,-124 530.97,-120.5 530.97,-127.5"/>
</g>
<!-- Node5&#45;&gt;Node6 -->
<g id="edge5" class="edge">
<title>Node5&#45;&gt;Node6</title>
<path fill="none" stroke="midnightblue" d="M411.46,-98.11C391.13,-103.4 367.63,-109.52 348.58,-114.48"/>
<polygon fill="midnightblue" stroke="midnightblue" points="412.36,-101.5 421.16,-95.59 410.6,-94.72 412.36,-101.5"/>
</g>
<!-- Node7 -->
<g id="node7" class="node">
<title>Node7</title>
<g id="a_node7"><a xlink:href="group__app__io.html#ga082f7bbf15d3f37c31c2a0a5e78ea4cf" target="_top" xlink:title="The main I/O processing function.">
<polygon fill="white" stroke="black" points="119,-114.5 119,-133.5 209,-133.5 209,-114.5 119,-114.5"/>
<text text-anchor="middle" x="164" y="-121.5" font-family="Helvetica,sans-Serif" font-size="10.00">coap_io_process</text>
</a>
</g>
</g>
<!-- Node6&#45;&gt;Node7 -->
<g id="edge6" class="edge">
<title>Node6&#45;&gt;Node7</title>
<path fill="none" stroke="midnightblue" d="M234.53,-117.26C225.85,-117.28 217.23,-117.44 209.17,-117.73"/>
<polygon fill="midnightblue" stroke="midnightblue" points="234.7,-120.76 244.71,-117.28 234.72,-113.76 234.7,-120.76"/>
</g>
<!-- Node7&#45;&gt;Node6 -->
<g id="edge7" class="edge">
<title>Node7&#45;&gt;Node6</title>
<path fill="none" stroke="midnightblue" d="M219.41,-130.56C227.67,-130.74 236.25,-130.79 244.71,-130.72"/>
<polygon fill="midnightblue" stroke="midnightblue" points="219.26,-127.05 209.17,-130.27 219.07,-134.05 219.26,-127.05"/>
</g>
<!-- Node8 -->
<g id="node8" class="node">
<title>Node8</title>
<g id="a_node8"><a xlink:href="net_8h.html#ac6b34aa979ec545eb710e45a26c98fc1" target="_top" xlink:title=" ">
<polygon fill="white" stroke="black" points="0,-114.5 0,-133.5 83,-133.5 83,-114.5 0,-114.5"/>
<text text-anchor="middle" x="41.5" y="-121.5" font-family="Helvetica,sans-Serif" font-size="10.00">coap_run_once</text>
</a>
</g>
</g>
<!-- Node7&#45;&gt;Node8 -->
<g id="edge8" class="edge">
<title>Node7&#45;&gt;Node8</title>
<path fill="none" stroke="midnightblue" d="M108.79,-124C100.15,-124 91.34,-124 83.08,-124"/>
<polygon fill="midnightblue" stroke="midnightblue" points="108.81,-127.5 118.81,-124 108.81,-120.5 108.81,-127.5"/>
</g>
<!-- Node11 -->
<g id="node11" class="node">
<title>Node11</title>
<g id="a_node11"><a xlink:href="net_8c.html#a1a280312c4bad55cf10243b9b9c3e966" target="_top" xlink:title=" ">
<polygon fill="white" stroke="black" points="1123,-76.5 1123,-95.5 1206,-95.5 1206,-76.5 1123,-76.5"/>
<text text-anchor="middle" x="1164.5" y="-83.5" font-family="Helvetica,sans-Serif" font-size="10.00">handle_request</text>
</a>
</g>
</g>
<!-- Node10&#45;&gt;Node11 -->
<g id="edge14" class="edge">
<title>Node10&#45;&gt;Node11</title>
<path fill="none" stroke="midnightblue" d="M1231.59,-86C1222.96,-86 1214.3,-86 1206.21,-86"/>
<polygon fill="midnightblue" stroke="midnightblue" points="1231.66,-89.5 1241.66,-86 1231.66,-82.5 1231.66,-89.5"/>
</g>
<!-- Node11&#45;&gt;Node2 -->
<g id="edge15" class="edge">
<title>Node11&#45;&gt;Node2</title>
<path fill="none" stroke="midnightblue" d="M1121.94,-98.54C1104.79,-103.7 1085.25,-109.6 1069.28,-114.41"/>
<polygon fill="midnightblue" stroke="midnightblue" points="1123.14,-101.83 1131.7,-95.59 1121.12,-95.13 1123.14,-101.83"/>
</g>
<!-- Node12 -->
<g id="node12" class="node">
<title>Node12</title>
<g id="a_node12"><a xlink:href="group__context__internal.html#ga7bb944fc52f772655356d95724317401" target="_top" xlink:title="Dispatches the PDUs from the receive queue in given context.">
<polygon fill="white" stroke="black" points="996.5,-41.5 996.5,-60.5 1076.5,-60.5 1076.5,-41.5 996.5,-41.5"/>
<text text-anchor="middle" x="1036.5" y="-48.5" font-family="Helvetica,sans-Serif" font-size="10.00">coap_dispatch</text>
</a>
</g>
</g>
<!-- Node11&#45;&gt;Node12 -->
<g id="edge16" class="edge">
<title>Node11&#45;&gt;Node12</title>
<path fill="none" stroke="midnightblue" d="M1119.16,-73.68C1103.64,-69.37 1086.47,-64.6 1071.89,-60.55"/>
<polygon fill="midnightblue" stroke="midnightblue" points="1118.5,-77.13 1129.07,-76.44 1120.37,-70.39 1118.5,-77.13"/>
</g>
<!-- Node13 -->
<g id="node13" class="node">
<title>Node13</title>
<g id="a_node13"><a xlink:href="group__context__internal.html#gae6b8ca457dd41f23372f9e9a7159312b" target="_top" xlink:title="Parses and interprets a CoAP datagram with context ctx.">
<polygon fill="white" stroke="black" points="846,-41.5 846,-60.5 950,-60.5 950,-41.5 846,-41.5"/>
<text text-anchor="middle" x="898" y="-48.5" font-family="Helvetica,sans-Serif" font-size="10.00">coap_handle_dgram</text>
</a>
</g>
</g>
<!-- Node12&#45;&gt;Node13 -->
<g id="edge17" class="edge">
<title>Node12&#45;&gt;Node13</title>
<path fill="none" stroke="midnightblue" d="M986.3,-51C974.53,-51 961.95,-51 950.1,-51"/>
<polygon fill="midnightblue" stroke="midnightblue" points="986.38,-54.5 996.38,-51 986.38,-47.5 986.38,-54.5"/>
</g>
<!-- Node19 -->
<g id="node19" class="node">
<title>Node19</title>
<g id="a_node19"><a xlink:href="net_8c.html#acd36f6fba6d30ab9557e0e6521f4a088" target="_top" xlink:title=" ">
<polygon fill="white" stroke="black" points="547,-0.5 547,-19.5 648,-19.5 648,-0.5 547,-0.5"/>
<text text-anchor="middle" x="597.5" y="-7.5" font-family="Helvetica,sans-Serif" font-size="10.00">coap_read_session</text>
</a>
</g>
</g>
<!-- Node12&#45;&gt;Node19 -->
<g id="edge28" class="edge">
<title>Node12&#45;&gt;Node19</title>
<path fill="none" stroke="midnightblue" d="M988.17,-39.1C975.82,-36.38 962.47,-33.76 950,-32 843.15,-16.88 716.55,-12.15 648.23,-10.67"/>
<polygon fill="midnightblue" stroke="midnightblue" points="987.75,-42.59 998.27,-41.4 989.3,-35.77 987.75,-42.59"/>
</g>
<!-- Node14 -->
<g id="node14" class="node">
<title>Node14</title>
<g id="a_node14"><a xlink:href="net_8c.html#a8534f7860b14e0743529daff196a27ce" target="_top" xlink:title=" ">
<polygon fill="white" stroke="black" points="690,-36 690,-66 810,-66 810,-36 690,-36"/>
<text text-anchor="start" x="698" y="-54" font-family="Helvetica,sans-Serif" font-size="10.00">coap_handle_dgram_for</text>
<text text-anchor="middle" x="750" y="-43" font-family="Helvetica,sans-Serif" font-size="10.00">_proto</text>
</a>
</g>
</g>
<!-- Node13&#45;&gt;Node14 -->
<g id="edge18" class="edge">
<title>Node13&#45;&gt;Node14</title>
<path fill="none" stroke="midnightblue" d="M835.71,-51C827.21,-51 818.49,-51 810.04,-51"/>
<polygon fill="midnightblue" stroke="midnightblue" points="835.94,-54.5 845.94,-51 835.94,-47.5 835.94,-54.5"/>
</g>
<!-- Node15 -->
<g id="node15" class="node">
<title>Node15</title>
<g id="a_node15"><a xlink:href="net_8c.html#a44ffb4b70e537043e9a9cf344be24b92" target="_top" xlink:title=" ">
<polygon fill="white" stroke="black" points="545.5,-38.5 545.5,-57.5 649.5,-57.5 649.5,-38.5 545.5,-38.5"/>
<text text-anchor="middle" x="597.5" y="-45.5" font-family="Helvetica,sans-Serif" font-size="10.00">coap_read_endpoint</text>
</a>
</g>
</g>
<!-- Node14&#45;&gt;Node15 -->
<g id="edge19" class="edge">
<title>Node14&#45;&gt;Node15</title>
<path fill="none" stroke="midnightblue" d="M679.84,-49.62C669.65,-49.42 659.31,-49.21 649.58,-49.02"/>
<polygon fill="midnightblue" stroke="midnightblue" points="679.88,-53.12 689.95,-49.82 680.02,-46.12 679.88,-53.12"/>
</g>
<!-- Node14&#45;&gt;Node19 -->
<g id="edge25" class="edge">
<title>Node14&#45;&gt;Node19</title>
<path fill="none" stroke="midnightblue" d="M683.77,-33.23C666.51,-28.53 648.54,-23.63 633.57,-19.55"/>
<polygon fill="midnightblue" stroke="midnightblue" points="683.25,-36.71 693.81,-35.97 685.09,-29.96 683.25,-36.71"/>
</g>
<!-- Node15&#45;&gt;Node5 -->
<g id="edge20" class="edge">
<title>Node15&#45;&gt;Node5</title>
<path fill="none" stroke="midnightblue" d="M552.25,-60.32C533.5,-65.54 511.97,-71.53 494.43,-76.41"/>
<polygon fill="midnightblue" stroke="midnightblue" points="553.36,-63.64 562.06,-57.59 551.48,-56.9 553.36,-63.64"/>
</g>
<!-- Node16 -->
<g id="node16" class="node">
<title>Node16</title>
<g id="a_node16"><a xlink:href="group__app__io__internal.html#ga2208802b0711ad20df07271b751b41dc" target="_top" xlink:title="Processes any outstanding read, write, accept or connect I/O as indicated in the coap_socket_t struct...">
<polygon fill="white" stroke="black" points="419.5,-38.5 419.5,-57.5 498.5,-57.5 498.5,-38.5 419.5,-38.5"/>
<text text-anchor="middle" x="459" y="-45.5" font-family="Helvetica,sans-Serif" font-size="10.00">coap_io_do_io</text>
</a>
</g>
</g>
<!-- Node15&#45;&gt;Node16 -->
<g id="edge21" class="edge">
<title>Node15&#45;&gt;Node16</title>
<path fill="none" stroke="midnightblue" d="M535.01,-48C522.66,-48 510.01,-48 498.7,-48"/>
<polygon fill="midnightblue" stroke="midnightblue" points="535.28,-51.5 545.28,-48 535.28,-44.5 535.28,-51.5"/>
</g>
<!-- Node16&#45;&gt;Node6 -->
<g id="edge22" class="edge">
<title>Node16&#45;&gt;Node6</title>
<path fill="none" stroke="midnightblue" d="M424.75,-61.53C420.76,-63.3 416.77,-65.15 413,-67 382.1,-82.18 347.41,-102.51 327.79,-114.34"/>
<polygon fill="midnightblue" stroke="midnightblue" points="426.16,-64.74 433.95,-57.56 423.38,-58.31 426.16,-64.74"/>
</g>
<!-- Node17 -->
<g id="node17" class="node">
<title>Node17</title>
<g id="a_node17"><a xlink:href="net_8h.html#af937985e2b14a287a849663574d59bcb" target="_top" xlink:title=" ">
<polygon fill="white" stroke="black" points="280,-38.5 280,-57.5 342,-57.5 342,-38.5 280,-38.5"/>
<text text-anchor="middle" x="311" y="-45.5" font-family="Helvetica,sans-Serif" font-size="10.00">coap_read</text>
</a>
</g>
</g>
<!-- Node16&#45;&gt;Node17 -->
<g id="edge23" class="edge">
<title>Node16&#45;&gt;Node17</title>
<path fill="none" stroke="midnightblue" d="M409.02,-48C386.88,-48 361.41,-48 342.12,-48"/>
<polygon fill="midnightblue" stroke="midnightblue" points="409.26,-51.5 419.26,-48 409.26,-44.5 409.26,-51.5"/>
</g>
<!-- Node18 -->
<g id="node18" class="node">
<title>Node18</title>
<g id="a_node18"><a xlink:href="coap__io__contiki_8c.html#a75a7c93e10ca7858449ba304aad4ea37" target="_top" xlink:title=" ">
<polygon fill="white" stroke="black" points="122.5,-38.5 122.5,-57.5 205.5,-57.5 205.5,-38.5 122.5,-38.5"/>
<text text-anchor="middle" x="164" y="-45.5" font-family="Helvetica,sans-Serif" font-size="10.00">coap_run_once</text>
</a>
</g>
</g>
<!-- Node17&#45;&gt;Node18 -->
<g id="edge24" class="edge">
<title>Node17&#45;&gt;Node18</title>
<path fill="none" stroke="midnightblue" d="M269.92,-48C249.94,-48 225.81,-48 205.73,-48"/>
<polygon fill="midnightblue" stroke="midnightblue" points="269.96,-51.5 279.96,-48 269.96,-44.5 269.96,-51.5"/>
</g>
<!-- Node19&#45;&gt;Node5 -->
<g id="edge26" class="edge">
<title>Node19&#45;&gt;Node5</title>
<path fill="none" stroke="midnightblue" d="M551,-23.5C547.52,-25.15 544.14,-26.98 541,-29 521.43,-41.58 524.12,-53.75 505,-67 499.7,-70.67 493.58,-73.84 487.6,-76.47"/>
<polygon fill="midnightblue" stroke="midnightblue" points="552.54,-26.65 560.39,-19.52 549.81,-20.2 552.54,-26.65"/>
</g>
<!-- Node19&#45;&gt;Node16 -->
<g id="edge27" class="edge">
<title>Node19&#45;&gt;Node16</title>
<path fill="none" stroke="midnightblue" d="M552.25,-22.32C533.5,-27.54 511.97,-33.53 494.43,-38.41"/>
<polygon fill="midnightblue" stroke="midnightblue" points="553.36,-25.64 562.06,-19.59 551.48,-18.9 553.36,-25.64"/>
</g>
</g>
</svg>
        <g id="navigator" transform="translate(0 0)" fill="#404254">
                <rect fill="#f2f5e9" fill-opacity="0.5" stroke="#606060" stroke-width=".5" x="0" y="0" width="60" height="60"/>
                <use id="zoomplus" xlink:href="#zoomPlus" x="17" y="9" onmousedown="handleZoom(evt,'in')"/>
                <use id="zoomminus" xlink:href="#zoomMin" x="42" y="9" onmousedown="handleZoom(evt,'out')"/>
                <use id="reset" xlink:href="#resetDef" x="30" y="36" onmousedown="handleReset()"/>
                <g id="arrowUp" xlink:href="#dirArrow" transform="translate(30 24)" onmousedown="handlePan(0,-1)">
                  <use xlink:href="#rim" fill="#404040">
                        <set attributeName="fill" to="#808080" begin="arrowUp.mouseover" end="arrowUp.mouseout"/>
                  </use>
                  <path fill="none" stroke="white" stroke-width="1.5" d="M0,-3.0v7 M-2.5,-0.5L0,-3.0L2.5,-0.5"/>
                </g>
                <g id="arrowRight" xlink:href="#dirArrow" transform="rotate(90) translate(36 -43)" onmousedown="handlePan(1,0)">
                  <use xlink:href="#rim" fill="#404040">
                        <set attributeName="fill" to="#808080" begin="arrowRight.mouseover" end="arrowRight.mouseout"/>
                  </use>
                  <path fill="none" stroke="white" stroke-width="1.5" d="M0,-3.0v7 M-2.5,-0.5L0,-3.0L2.5,-0.5"/>
                </g>
                <g id="arrowDown" xlink:href="#dirArrow" transform="rotate(180) translate(-30 -48)" onmousedown="handlePan(0,1)">
                  <use xlink:href="#rim" fill="#404040">
                        <set attributeName="fill" to="#808080" begin="arrowDown.mouseover" end="arrowDown.mouseout"/>
                  </use>
                  <path fill="none" stroke="white" stroke-width="1.5" d="M0,-3.0v7 M-2.5,-0.5L0,-3.0L2.5,-0.5"/>
                </g>
                <g id="arrowLeft" xlink:href="#dirArrow" transform="rotate(270) translate(-36 17)" onmousedown="handlePan(-1,0)">
                  <use xlink:href="#rim" fill="#404040">
                        <set attributeName="fill" to="#808080" begin="arrowLeft.mouseover" end="arrowLeft.mouseout"/>
                  </use>
                  <path fill="none" stroke="white" stroke-width="1.5" d="M0,-3.0v7 M-2.5,-0.5L0,-3.0L2.5,-0.5"/>
                </g>
        </g>
        <svg viewBox="0 0 15 15" width="100%" height="30px" preserveAspectRatio="xMaxYMin meet">
         <g id="arrow_out" transform="scale(0.3 0.3)">
          <a xlink:href="group__coap__async_ga084cd8353f2112c1cc740e1207be7ccc_icgraph_org.svg" target="_base">
           <rect id="button" ry="5" rx="5" y="6" x="6" height="38" width="38"
                fill="#f2f5e9" fill-opacity="0.5" stroke="#606060" stroke-width="1.0"/>
           <path id="arrow"
             d="M 11.500037,31.436501 C 11.940474,20.09759 22.043105,11.32322 32.158766,21.979434 L 37.068811,17.246167 C 37.068811,17.246167 37.088388,32 37.088388,32 L 22.160133,31.978069 C 22.160133,31.978069 26.997745,27.140456 26.997745,27.140456 C 18.528582,18.264221 13.291696,25.230495 11.500037,31.436501 z"
             style="fill:#404040;"/>
          </a>
         </g>
        </svg>
</svg>
