<?xml version="1.0" encoding="UTF-8" standalone="no"?>
<!DOCTYPE svg PUBLIC "-//W3C//DTD SVG 1.1//EN"
 "http://www.w3.org/Graphics/SVG/1.1/DTD/svg11.dtd">
<!-- Generated by graphviz version 2.43.0 (0)
 -->
<!-- Title: coap.h Pages: 1 -->
<svg width="1597pt" height="431pt"
 viewBox="0.00 0.00 1597.00 431.00" xmlns="http://www.w3.org/2000/svg" xmlns:xlink="http://www.w3.org/1999/xlink">
<g id="graph0" class="graph" transform="scale(1 1) rotate(0) translate(4 427)">
<title>coap.h</title>
<polygon fill="white" stroke="transparent" points="-4,4 -4,-427 1593,-427 1593,4 -4,4"/>
<!-- Node1 -->
<g id="node1" class="node">
<title>Node1</title>
<g id="a_node1"><a xlink:title=" ">
<polygon fill="#bfbfbf" stroke="black" points="783.5,-403.5 783.5,-422.5 829.5,-422.5 829.5,-403.5 783.5,-403.5"/>
<text text-anchor="middle" x="806.5" y="-410.5" font-family="Helvetica,sans-Serif" font-size="10.00">coap.h</text>
</a>
</g>
</g>
<!-- Node2 -->
<g id="node2" class="node">
<title>Node2</title>
<g id="a_node2"><a xlink:href="libcoap_8h.html" target="_top" xlink:title=" ">
<polygon fill="white" stroke="black" points="33,-56.5 33,-75.5 118,-75.5 118,-56.5 33,-56.5"/>
<text text-anchor="middle" x="75.5" y="-63.5" font-family="Helvetica,sans-Serif" font-size="10.00">coap3/libcoap.h</text>
</a>
</g>
</g>
<!-- Node1&#45;&gt;Node2 -->
<g id="edge1" class="edge">
<title>Node1&#45;&gt;Node2</title>
<path fill="none" stroke="midnightblue" d="M783.32,-411.96C683.99,-411.55 294.16,-407.33 179.5,-367 127.51,-348.72 77.5,-351.61 77.5,-296.5 77.5,-296.5 77.5,-296.5 77.5,-177 77.5,-144.94 76.64,-107.64 76.05,-85.75"/>
<polygon fill="midnightblue" stroke="midnightblue" points="79.54,-85.45 75.76,-75.56 72.54,-85.65 79.54,-85.45"/>
</g>
<!-- Node5 -->
<g id="node5" class="node">
<title>Node5</title>
<g id="a_node5"><a xlink:href="coap__forward__decls_8h.html" target="_top" xlink:title="COAP forward definitions.">
<polygon fill="white" stroke="black" points="1359.5,-280.5 1359.5,-310.5 1463.5,-310.5 1463.5,-280.5 1359.5,-280.5"/>
<text text-anchor="start" x="1367.5" y="-298.5" font-family="Helvetica,sans-Serif" font-size="10.00">coap3/coap_forward</text>
<text text-anchor="middle" x="1411.5" y="-287.5" font-family="Helvetica,sans-Serif" font-size="10.00">_decls.h</text>
</a>
</g>
</g>
<!-- Node1&#45;&gt;Node5 -->
<g id="edge4" class="edge">
<title>Node1&#45;&gt;Node5</title>
<path fill="none" stroke="midnightblue" d="M829.77,-411.54C916.71,-409.58 1222.01,-400.42 1312.5,-367 1342.12,-356.06 1370.93,-333.83 1389.77,-317.24"/>
<polygon fill="midnightblue" stroke="midnightblue" points="1392.13,-319.82 1397.2,-310.52 1387.43,-314.63 1392.13,-319.82"/>
</g>
<!-- Node6 -->
<g id="node6" class="node">
<title>Node6</title>
<g id="a_node6"><a xlink:href="address_8h.html" target="_top" xlink:title="Representation of network addresses.">
<polygon fill="white" stroke="black" points="172,-112.5 172,-131.5 261,-131.5 261,-112.5 172,-112.5"/>
<text text-anchor="middle" x="216.5" y="-119.5" font-family="Helvetica,sans-Serif" font-size="10.00">coap3/address.h</text>
</a>
</g>
</g>
<!-- Node1&#45;&gt;Node6 -->
<g id="edge5" class="edge">
<title>Node1&#45;&gt;Node6</title>
<path fill="none" stroke="midnightblue" d="M783.29,-412.5C673.84,-414.25 214.5,-414.57 214.5,-296.5 214.5,-296.5 214.5,-296.5 214.5,-233 214.5,-200.94 215.36,-163.64 215.95,-141.75"/>
<polygon fill="midnightblue" stroke="midnightblue" points="219.46,-141.65 216.24,-131.56 212.46,-141.45 219.46,-141.65"/>
</g>
<!-- Node11 -->
<g id="node11" class="node">
<title>Node11</title>
<g id="a_node11"><a xlink:href="async_8h.html" target="_top" xlink:title="State management for asynchronous messages.">
<polygon fill="white" stroke="black" points="622.5,-286 622.5,-305 702.5,-305 702.5,-286 622.5,-286"/>
<text text-anchor="middle" x="662.5" y="-293" font-family="Helvetica,sans-Serif" font-size="10.00">coap3/async.h</text>
</a>
</g>
</g>
<!-- Node1&#45;&gt;Node11 -->
<g id="edge11" class="edge">
<title>Node1&#45;&gt;Node11</title>
<path fill="none" stroke="midnightblue" d="M783.38,-403.83C764.13,-396.27 736.7,-383.69 716.5,-367 698.19,-351.88 682.37,-329.43 672.66,-313.95"/>
<polygon fill="midnightblue" stroke="midnightblue" points="675.62,-312.07 667.45,-305.33 669.63,-315.7 675.62,-312.07"/>
</g>
<!-- Node12 -->
<g id="node12" class="node">
<title>Node12</title>
<g id="a_node12"><a xlink:href="net_8h.html" target="_top" xlink:title=" ">
<polygon fill="white" stroke="black" points="556.5,-224.5 556.5,-243.5 594.5,-243.5 594.5,-224.5 556.5,-224.5"/>
<text text-anchor="middle" x="575.5" y="-231.5" font-family="Helvetica,sans-Serif" font-size="10.00">net.h</text>
</a>
</g>
</g>
<!-- Node1&#45;&gt;Node12 -->
<g id="edge55" class="edge">
<title>Node1&#45;&gt;Node12</title>
<path fill="none" stroke="midnightblue" d="M783.33,-410.9C749.03,-408.21 684.1,-398.93 640.5,-367 602.47,-339.15 585.5,-282.88 578.98,-253.62"/>
<polygon fill="midnightblue" stroke="midnightblue" points="582.35,-252.62 576.91,-243.52 575.49,-254.02 582.35,-252.62"/>
</g>
<!-- Node16 -->
<g id="node16" class="node">
<title>Node16</title>
<g id="a_node16"><a xlink:href="coap__io_8h.html" target="_top" xlink:title=" ">
<polygon fill="white" stroke="black" points="243,-168.5 243,-187.5 302,-187.5 302,-168.5 243,-168.5"/>
<text text-anchor="middle" x="272.5" y="-175.5" font-family="Helvetica,sans-Serif" font-size="10.00">coap_io.h</text>
</a>
</g>
</g>
<!-- Node1&#45;&gt;Node16 -->
<g id="edge49" class="edge">
<title>Node1&#45;&gt;Node16</title>
<path fill="none" stroke="midnightblue" d="M783.39,-411.06C696.07,-407.31 389.44,-392.44 354.5,-367 297.89,-325.78 279.87,-236.95 274.55,-197.98"/>
<polygon fill="midnightblue" stroke="midnightblue" points="277.97,-197.09 273.28,-187.59 271.02,-197.94 277.97,-197.09"/>
</g>
<!-- Node17 -->
<g id="node17" class="node">
<title>Node17</title>
<g id="a_node17"><a xlink:href="coap__dtls_8h.html" target="_top" xlink:title=" ">
<polygon fill="white" stroke="black" points="397,-168.5 397,-187.5 464,-187.5 464,-168.5 397,-168.5"/>
<text text-anchor="middle" x="430.5" y="-175.5" font-family="Helvetica,sans-Serif" font-size="10.00">coap_dtls.h</text>
</a>
</g>
</g>
<!-- Node1&#45;&gt;Node17 -->
<g id="edge47" class="edge">
<title>Node1&#45;&gt;Node17</title>
<path fill="none" stroke="midnightblue" d="M783.38,-410.62C746.06,-407.53 671.18,-397.71 616.5,-367 536.78,-322.24 468.54,-233.37 442.16,-196.09"/>
<polygon fill="midnightblue" stroke="midnightblue" points="444.96,-193.98 436.37,-187.78 439.22,-197.98 444.96,-193.98"/>
</g>
<!-- Node18 -->
<g id="node18" class="node">
<title>Node18</title>
<g id="a_node18"><a xlink:href="coap__time_8h.html" target="_top" xlink:title="Clock Handling.">
<polygon fill="white" stroke="black" points="735.5,-112.5 735.5,-131.5 805.5,-131.5 805.5,-112.5 735.5,-112.5"/>
<text text-anchor="middle" x="770.5" y="-119.5" font-family="Helvetica,sans-Serif" font-size="10.00">coap_time.h</text>
</a>
</g>
</g>
<!-- Node1&#45;&gt;Node18 -->
<g id="edge51" class="edge">
<title>Node1&#45;&gt;Node18</title>
<path fill="none" stroke="midnightblue" d="M790.72,-403.47C778.3,-395.77 761.89,-383.18 754.5,-367 720.97,-293.64 771.84,-267.67 784.5,-188 787.02,-172.15 782.67,-154.34 778.17,-141.37"/>
<polygon fill="midnightblue" stroke="midnightblue" points="781.34,-139.87 774.51,-131.77 774.8,-142.36 781.34,-139.87"/>
</g>
<!-- Node19 -->
<g id="node19" class="node">
<title>Node19</title>
<g id="a_node19"><a xlink:href="str_8h.html" target="_top" xlink:title=" ">
<polygon fill="white" stroke="black" points="413,-56.5 413,-75.5 448,-75.5 448,-56.5 413,-56.5"/>
<text text-anchor="middle" x="430.5" y="-63.5" font-family="Helvetica,sans-Serif" font-size="10.00">str.h</text>
</a>
</g>
</g>
<!-- Node1&#45;&gt;Node19 -->
<g id="edge70" class="edge">
<title>Node1&#45;&gt;Node19</title>
<path fill="none" stroke="midnightblue" d="M783.26,-410.94C692.71,-406.18 368.5,-383.1 368.5,-296.5 368.5,-296.5 368.5,-296.5 368.5,-177 368.5,-139.62 396,-103.24 414.37,-83.1"/>
<polygon fill="midnightblue" stroke="midnightblue" points="417.01,-85.41 421.35,-75.75 411.93,-80.59 417.01,-85.41"/>
</g>
<!-- Node20 -->
<g id="node20" class="node">
<title>Node20</title>
<g id="a_node20"><a xlink:href="coap__event_8h.html" target="_top" xlink:title=" ">
<polygon fill="white" stroke="black" points="111,-168.5 111,-187.5 186,-187.5 186,-168.5 111,-168.5"/>
<text text-anchor="middle" x="148.5" y="-175.5" font-family="Helvetica,sans-Serif" font-size="10.00">coap_event.h</text>
</a>
</g>
</g>
<!-- Node1&#45;&gt;Node20 -->
<g id="edge48" class="edge">
<title>Node1&#45;&gt;Node20</title>
<path fill="none" stroke="midnightblue" d="M783.31,-411.83C677.8,-410.85 246.26,-404.58 200.5,-367 149.03,-324.74 145.95,-236.46 147.29,-197.81"/>
<polygon fill="midnightblue" stroke="midnightblue" points="150.8,-197.67 147.8,-187.51 143.81,-197.33 150.8,-197.67"/>
</g>
<!-- Node21 -->
<g id="node21" class="node">
<title>Node21</title>
<g id="a_node21"><a xlink:href="pdu_8h.html" target="_top" xlink:title="Pre&#45;defined constants that reflect defaults for CoAP.">
<polygon fill="white" stroke="black" points="1062,-168.5 1062,-187.5 1103,-187.5 1103,-168.5 1062,-168.5"/>
<text text-anchor="middle" x="1082.5" y="-175.5" font-family="Helvetica,sans-Serif" font-size="10.00">pdu.h</text>
</a>
</g>
</g>
<!-- Node1&#45;&gt;Node21 -->
<g id="edge57" class="edge">
<title>Node1&#45;&gt;Node21</title>
<path fill="none" stroke="midnightblue" d="M829.74,-407.83C874.29,-398.62 971.95,-372.26 1024.5,-311 1054.01,-276.6 1070.79,-224.83 1078.08,-197.47"/>
<polygon fill="midnightblue" stroke="midnightblue" points="1081.51,-198.21 1080.57,-187.66 1074.72,-196.5 1081.51,-198.21"/>
</g>
<!-- Node22 -->
<g id="node22" class="node">
<title>Node22</title>
<g id="a_node22"><a xlink:href="uri_8h.html" target="_top" xlink:title=" ">
<polygon fill="white" stroke="black" points="862,-112.5 862,-131.5 897,-131.5 897,-112.5 862,-112.5"/>
<text text-anchor="middle" x="879.5" y="-119.5" font-family="Helvetica,sans-Serif" font-size="10.00">uri.h</text>
</a>
</g>
</g>
<!-- Node1&#45;&gt;Node22 -->
<g id="edge72" class="edge">
<title>Node1&#45;&gt;Node22</title>
<path fill="none" stroke="midnightblue" d="M804.22,-403.11C801.33,-390.54 797.1,-366.88 800.5,-347 814.17,-267.12 853.41,-177.88 870.9,-140.72"/>
<polygon fill="midnightblue" stroke="midnightblue" points="874.07,-142.2 875.22,-131.67 867.76,-139.19 874.07,-142.2"/>
</g>
<!-- Node23 -->
<g id="node23" class="node">
<title>Node23</title>
<g id="a_node23"><a xlink:href="option_8h.html" target="_top" xlink:title="Helpers for handling options in CoAP PDUs.">
<polygon fill="white" stroke="black" points="1117,-112.5 1117,-131.5 1168,-131.5 1168,-112.5 1117,-112.5"/>
<text text-anchor="middle" x="1142.5" y="-119.5" font-family="Helvetica,sans-Serif" font-size="10.00">option.h</text>
</a>
</g>
</g>
<!-- Node1&#45;&gt;Node23 -->
<g id="edge56" class="edge">
<title>Node1&#45;&gt;Node23</title>
<path fill="none" stroke="midnightblue" d="M829.6,-411.09C916.16,-407.51 1218.03,-393.21 1251.5,-367 1322.27,-311.59 1342.73,-238.91 1287.5,-168 1261.74,-134.93 1212.02,-125.58 1178.06,-123.24"/>
<polygon fill="midnightblue" stroke="midnightblue" points="1178.23,-119.75 1168.06,-122.72 1177.87,-126.74 1178.23,-119.75"/>
</g>
<!-- Node24 -->
<g id="node24" class="node">
<title>Node24</title>
<g id="a_node24"><a xlink:href="bits_8h.html" target="_top" xlink:title="Bit vector manipulation.">
<polygon fill="white" stroke="black" points="1122,-56.5 1122,-75.5 1163,-75.5 1163,-56.5 1122,-56.5"/>
<text text-anchor="middle" x="1142.5" y="-63.5" font-family="Helvetica,sans-Serif" font-size="10.00">bits.h</text>
</a>
</g>
</g>
<!-- Node1&#45;&gt;Node24 -->
<g id="edge36" class="edge">
<title>Node1&#45;&gt;Node24</title>
<path fill="none" stroke="midnightblue" d="M829.61,-411.69C899.66,-410.37 1108.18,-403.39 1163.5,-367 1187.64,-351.12 1188.9,-338.87 1196.5,-311 1210.46,-259.82 1224.39,-230.94 1176.5,-112 1172.27,-101.48 1164.91,-91.27 1158.12,-83.25"/>
<polygon fill="midnightblue" stroke="midnightblue" points="1160.68,-80.86 1151.4,-75.75 1155.46,-85.53 1160.68,-80.86"/>
</g>
<!-- Node26 -->
<g id="node26" class="node">
<title>Node26</title>
<g id="a_node26"><a xlink:href="block_8h.html" target="_top" xlink:title=" ">
<polygon fill="white" stroke="black" points="1111,-286 1111,-305 1188,-305 1188,-286 1111,-286"/>
<text text-anchor="middle" x="1149.5" y="-293" font-family="Helvetica,sans-Serif" font-size="10.00">coap3/block.h</text>
</a>
</g>
</g>
<!-- Node1&#45;&gt;Node26 -->
<g id="edge37" class="edge">
<title>Node1&#45;&gt;Node26</title>
<path fill="none" stroke="midnightblue" d="M829.7,-412.53C898.89,-413.57 1101.62,-412.61 1144.5,-367 1157.22,-353.48 1156.65,-331.32 1154.06,-315.45"/>
<polygon fill="midnightblue" stroke="midnightblue" points="1157.4,-314.32 1151.97,-305.22 1150.54,-315.72 1157.4,-314.32"/>
</g>
<!-- Node27 -->
<g id="node27" class="node">
<title>Node27</title>
<g id="a_node27"><a xlink:href="encode_8h.html" target="_top" xlink:title=" ">
<polygon fill="white" stroke="black" points="1225.5,-224.5 1225.5,-243.5 1281.5,-243.5 1281.5,-224.5 1225.5,-224.5"/>
<text text-anchor="middle" x="1253.5" y="-231.5" font-family="Helvetica,sans-Serif" font-size="10.00">encode.h</text>
</a>
</g>
</g>
<!-- Node1&#45;&gt;Node27 -->
<g id="edge52" class="edge">
<title>Node1&#45;&gt;Node27</title>
<path fill="none" stroke="midnightblue" d="M829.52,-411.15C913.63,-407.84 1201,-394.59 1230.5,-367 1261.7,-337.82 1259.97,-282.59 1256.5,-253.69"/>
<polygon fill="midnightblue" stroke="midnightblue" points="1259.96,-253.11 1255.1,-243.7 1253.03,-254.08 1259.96,-253.11"/>
</g>
<!-- Node29 -->
<g id="node29" class="node">
<title>Node29</title>
<g id="a_node29"><a xlink:href="coap__cache_8h.html" target="_top" xlink:title="Provides a simple cache request storage for CoAP requests.">
<polygon fill="white" stroke="black" points="1365,-347.5 1365,-366.5 1472,-366.5 1472,-347.5 1365,-347.5"/>
<text text-anchor="middle" x="1418.5" y="-354.5" font-family="Helvetica,sans-Serif" font-size="10.00">coap3/coap_cache.h</text>
</a>
</g>
</g>
<!-- Node1&#45;&gt;Node29 -->
<g id="edge43" class="edge">
<title>Node1&#45;&gt;Node29</title>
<path fill="none" stroke="midnightblue" d="M829.6,-410.5C904.77,-405.52 1149.1,-388.65 1350.5,-367 1351.8,-366.86 1353.11,-366.72 1354.43,-366.57"/>
<polygon fill="midnightblue" stroke="midnightblue" points="1355.18,-370 1364.71,-365.37 1354.37,-363.05 1355.18,-370"/>
</g>
<!-- Node30 -->
<g id="node30" class="node">
<title>Node30</title>
<g id="a_node30"><a xlink:href="coap__debug_8h.html" target="_top" xlink:title=" ">
<polygon fill="white" stroke="black" points="1029,-347.5 1029,-366.5 1136,-366.5 1136,-347.5 1029,-347.5"/>
<text text-anchor="middle" x="1082.5" y="-354.5" font-family="Helvetica,sans-Serif" font-size="10.00">coap3/coap_debug.h</text>
</a>
</g>
</g>
<!-- Node1&#45;&gt;Node30 -->
<g id="edge45" class="edge">
<title>Node1&#45;&gt;Node30</title>
<path fill="none" stroke="midnightblue" d="M829.56,-407.49C873.1,-398.97 968.45,-380.31 1028.85,-368.5"/>
<polygon fill="midnightblue" stroke="midnightblue" points="1029.82,-371.87 1038.96,-366.52 1028.47,-365 1029.82,-371.87"/>
</g>
<!-- Node31 -->
<g id="node31" class="node">
<title>Node31</title>
<g id="a_node31"><a xlink:href="coap__prng_8h.html" target="_top" xlink:title="Pseudo Random Numbers.">
<polygon fill="white" stroke="black" points="1490,-347.5 1490,-366.5 1589,-366.5 1589,-347.5 1490,-347.5"/>
<text text-anchor="middle" x="1539.5" y="-354.5" font-family="Helvetica,sans-Serif" font-size="10.00">coap3/coap_prng.h</text>
</a>
</g>
</g>
<!-- Node1&#45;&gt;Node31 -->
<g id="edge50" class="edge">
<title>Node1&#45;&gt;Node31</title>
<path fill="none" stroke="midnightblue" d="M829.58,-411.19C914.66,-408.07 1218.87,-395.53 1479.82,-367.1"/>
<polygon fill="midnightblue" stroke="midnightblue" points="1480.31,-370.57 1489.86,-365.99 1479.54,-363.61 1480.31,-370.57"/>
</g>
<!-- Node32 -->
<g id="node32" class="node">
<title>Node32</title>
<g id="a_node32"><a xlink:href="mem_8h.html" target="_top" xlink:title=" ">
<polygon fill="white" stroke="black" points="655.5,-224.5 655.5,-243.5 731.5,-243.5 731.5,-224.5 655.5,-224.5"/>
<text text-anchor="middle" x="693.5" y="-231.5" font-family="Helvetica,sans-Serif" font-size="10.00">coap3/mem.h</text>
</a>
</g>
</g>
<!-- Node1&#45;&gt;Node32 -->
<g id="edge53" class="edge">
<title>Node1&#45;&gt;Node32</title>
<path fill="none" stroke="midnightblue" d="M783.35,-408.4C739.88,-400.22 647.4,-375.64 613.5,-311 607.1,-298.8 606.54,-291.89 613.5,-280 622.36,-264.85 638.41,-254.41 653.81,-247.42"/>
<polygon fill="midnightblue" stroke="midnightblue" points="655.35,-250.57 663.25,-243.51 652.67,-244.11 655.35,-250.57"/>
</g>
<!-- Node33 -->
<g id="node33" class="node">
<title>Node33</title>
<g id="a_node33"><a xlink:href="resource_8h.html" target="_top" xlink:title="Generic resource handling.">
<polygon fill="white" stroke="black" points="809.5,-347.5 809.5,-366.5 901.5,-366.5 901.5,-347.5 809.5,-347.5"/>
<text text-anchor="middle" x="855.5" y="-354.5" font-family="Helvetica,sans-Serif" font-size="10.00">coap3/resource.h</text>
</a>
</g>
</g>
<!-- Node1&#45;&gt;Node33 -->
<g id="edge58" class="edge">
<title>Node1&#45;&gt;Node33</title>
<path fill="none" stroke="midnightblue" d="M814.59,-403.08C821.66,-395.3 832.09,-383.8 840.65,-374.37"/>
<polygon fill="midnightblue" stroke="midnightblue" points="843.43,-376.51 847.56,-366.75 838.25,-371.8 843.43,-376.51"/>
</g>
<!-- Node36 -->
<g id="node36" class="node">
<title>Node36</title>
<g id="a_node36"><a xlink:href="subscribe_8h.html" target="_top" xlink:title="Defines the application visible subscribe information.">
<polygon fill="white" stroke="black" points="949,-286 949,-305 1016,-305 1016,-286 949,-286"/>
<text text-anchor="middle" x="982.5" y="-293" font-family="Helvetica,sans-Serif" font-size="10.00">subscribe.h</text>
</a>
</g>
</g>
<!-- Node1&#45;&gt;Node36 -->
<g id="edge71" class="edge">
<title>Node1&#45;&gt;Node36</title>
<path fill="none" stroke="midnightblue" d="M829.63,-404.74C851.56,-397.25 884.86,-384.23 910.5,-367 933.29,-351.69 955.2,-328.65 968.74,-313.12"/>
<polygon fill="midnightblue" stroke="midnightblue" points="971.53,-315.24 975.35,-305.36 966.2,-310.7 971.53,-315.24"/>
</g>
<!-- Node3 -->
<g id="node3" class="node">
<title>Node3</title>
<g id="a_node3"><a xlink:title=" ">
<polygon fill="white" stroke="#bfbfbf" points="0,-0.5 0,-19.5 65,-19.5 65,-0.5 0,-0.5"/>
<text text-anchor="middle" x="32.5" y="-7.5" font-family="Helvetica,sans-Serif" font-size="10.00">netinet/in.h</text>
</a>
</g>
</g>
<!-- Node2&#45;&gt;Node3 -->
<g id="edge2" class="edge">
<title>Node2&#45;&gt;Node3</title>
<path fill="none" stroke="midnightblue" d="M68.4,-56.08C62.26,-48.38 53.23,-37.03 45.76,-27.65"/>
<polygon fill="midnightblue" stroke="midnightblue" points="48.44,-25.39 39.47,-19.75 42.96,-29.75 48.44,-25.39"/>
</g>
<!-- Node4 -->
<g id="node4" class="node">
<title>Node4</title>
<g id="a_node4"><a xlink:title=" ">
<polygon fill="white" stroke="#bfbfbf" points="83,-0.5 83,-19.5 156,-19.5 156,-0.5 83,-0.5"/>
<text text-anchor="middle" x="119.5" y="-7.5" font-family="Helvetica,sans-Serif" font-size="10.00">sys/socket.h</text>
</a>
</g>
</g>
<!-- Node2&#45;&gt;Node4 -->
<g id="edge3" class="edge">
<title>Node2&#45;&gt;Node4</title>
<path fill="none" stroke="midnightblue" d="M82.77,-56.08C89.04,-48.38 98.29,-37.03 105.93,-27.65"/>
<polygon fill="midnightblue" stroke="midnightblue" points="108.77,-29.71 112.37,-19.75 103.34,-25.29 108.77,-29.71"/>
</g>
<!-- Node6&#45;&gt;Node2 -->
<g id="edge10" class="edge">
<title>Node6&#45;&gt;Node2</title>
<path fill="none" stroke="midnightblue" d="M194.16,-112.44C170.75,-103.48 133.76,-89.31 107.31,-79.18"/>
<polygon fill="midnightblue" stroke="midnightblue" points="108.33,-75.82 97.74,-75.52 105.82,-82.36 108.33,-75.82"/>
</g>
<!-- Node7 -->
<g id="node7" class="node">
<title>Node7</title>
<g id="a_node7"><a xlink:title=" ">
<polygon fill="white" stroke="#bfbfbf" points="136.5,-56.5 136.5,-75.5 188.5,-75.5 188.5,-56.5 136.5,-56.5"/>
<text text-anchor="middle" x="162.5" y="-63.5" font-family="Helvetica,sans-Serif" font-size="10.00">assert.h</text>
</a>
</g>
</g>
<!-- Node6&#45;&gt;Node7 -->
<g id="edge6" class="edge">
<title>Node6&#45;&gt;Node7</title>
<path fill="none" stroke="midnightblue" d="M207.58,-112.08C199.72,-104.22 188.07,-92.57 178.58,-83.08"/>
<polygon fill="midnightblue" stroke="midnightblue" points="180.8,-80.35 171.25,-75.75 175.85,-85.3 180.8,-80.35"/>
</g>
<!-- Node8 -->
<g id="node8" class="node">
<title>Node8</title>
<g id="a_node8"><a xlink:title=" ">
<polygon fill="white" stroke="#bfbfbf" points="939,-0.5 939,-19.5 988,-19.5 988,-0.5 939,-0.5"/>
<text text-anchor="middle" x="963.5" y="-7.5" font-family="Helvetica,sans-Serif" font-size="10.00">stdint.h</text>
</a>
</g>
</g>
<!-- Node6&#45;&gt;Node8 -->
<g id="edge7" class="edge">
<title>Node6&#45;&gt;Node8</title>
<path fill="none" stroke="midnightblue" d="M221.07,-112.32C229.31,-97.68 248.19,-68.48 273.5,-56 332.48,-26.93 795.89,-14.66 928.28,-11.72"/>
<polygon fill="midnightblue" stroke="midnightblue" points="928.73,-15.21 938.65,-11.5 928.58,-8.22 928.73,-15.21"/>
</g>
<!-- Node9 -->
<g id="node9" class="node">
<title>Node9</title>
<g id="a_node9"><a xlink:title=" ">
<polygon fill="white" stroke="#bfbfbf" points="380,-0.5 380,-19.5 429,-19.5 429,-0.5 380,-0.5"/>
<text text-anchor="middle" x="404.5" y="-7.5" font-family="Helvetica,sans-Serif" font-size="10.00">string.h</text>
</a>
</g>
</g>
<!-- Node6&#45;&gt;Node9 -->
<g id="edge8" class="edge">
<title>Node6&#45;&gt;Node9</title>
<path fill="none" stroke="midnightblue" d="M217.2,-112.47C218.81,-98.59 224.01,-71.13 240.5,-56 276.04,-23.39 333.01,-14.07 369.58,-11.6"/>
<polygon fill="midnightblue" stroke="midnightblue" points="369.98,-15.09 379.78,-11.05 369.61,-8.1 369.98,-15.09"/>
</g>
<!-- Node10 -->
<g id="node10" class="node">
<title>Node10</title>
<g id="a_node10"><a xlink:title=" ">
<polygon fill="white" stroke="#bfbfbf" points="282.5,-56.5 282.5,-75.5 350.5,-75.5 350.5,-56.5 282.5,-56.5"/>
<text text-anchor="middle" x="316.5" y="-63.5" font-family="Helvetica,sans-Serif" font-size="10.00">sys/types.h</text>
</a>
</g>
</g>
<!-- Node6&#45;&gt;Node10 -->
<g id="edge9" class="edge">
<title>Node6&#45;&gt;Node10</title>
<path fill="none" stroke="midnightblue" d="M232.57,-112.32C248.46,-103.74 273.01,-90.49 291.46,-80.52"/>
<polygon fill="midnightblue" stroke="midnightblue" points="293.34,-83.49 300.47,-75.65 290.01,-77.33 293.34,-83.49"/>
</g>
<!-- Node11&#45;&gt;Node12 -->
<g id="edge12" class="edge">
<title>Node11&#45;&gt;Node12</title>
<path fill="none" stroke="midnightblue" d="M650.04,-285.98C636.08,-276.43 613.24,-260.81 596.51,-249.37"/>
<polygon fill="midnightblue" stroke="midnightblue" points="598.17,-246.27 587.94,-243.51 594.22,-252.04 598.17,-246.27"/>
</g>
<!-- Node12&#45;&gt;Node9 -->
<g id="edge14" class="edge">
<title>Node12&#45;&gt;Node9</title>
<path fill="none" stroke="midnightblue" d="M556.41,-231.36C512.89,-227.18 408.44,-214.55 387.5,-188 350.42,-141 379.28,-63.63 395.45,-28.88"/>
<polygon fill="midnightblue" stroke="midnightblue" points="398.76,-30.07 399.97,-19.54 392.46,-27.01 398.76,-30.07"/>
</g>
<!-- Node13 -->
<g id="node13" class="node">
<title>Node13</title>
<g id="a_node13"><a xlink:title=" ">
<polygon fill="white" stroke="#bfbfbf" points="727.5,-168.5 727.5,-187.5 775.5,-187.5 775.5,-168.5 727.5,-168.5"/>
<text text-anchor="middle" x="751.5" y="-175.5" font-family="Helvetica,sans-Serif" font-size="10.00">stdlib.h</text>
</a>
</g>
</g>
<!-- Node12&#45;&gt;Node13 -->
<g id="edge13" class="edge">
<title>Node12&#45;&gt;Node13</title>
<path fill="none" stroke="midnightblue" d="M594.67,-227.12C624.15,-218.07 681.03,-200.62 717.58,-189.41"/>
<polygon fill="midnightblue" stroke="midnightblue" points="718.78,-192.7 727.31,-186.42 716.72,-186.01 718.78,-192.7"/>
</g>
<!-- Node14 -->
<g id="node14" class="node">
<title>Node14</title>
<g id="a_node14"><a xlink:title=" ">
<polygon fill="white" stroke="#bfbfbf" points="585.5,-168.5 585.5,-187.5 647.5,-187.5 647.5,-168.5 585.5,-168.5"/>
<text text-anchor="middle" x="616.5" y="-175.5" font-family="Helvetica,sans-Serif" font-size="10.00">sys/time.h</text>
</a>
</g>
</g>
<!-- Node12&#45;&gt;Node14 -->
<g id="edge15" class="edge">
<title>Node12&#45;&gt;Node14</title>
<path fill="none" stroke="midnightblue" d="M582.27,-224.08C588.06,-216.46 596.56,-205.26 603.64,-195.94"/>
<polygon fill="midnightblue" stroke="midnightblue" points="606.6,-197.83 609.86,-187.75 601.02,-193.6 606.6,-197.83"/>
</g>
<!-- Node15 -->
<g id="node15" class="node">
<title>Node15</title>
<g id="a_node15"><a xlink:title=" ">
<polygon fill="white" stroke="#bfbfbf" points="665.5,-168.5 665.5,-187.5 709.5,-187.5 709.5,-168.5 665.5,-168.5"/>
<text text-anchor="middle" x="687.5" y="-175.5" font-family="Helvetica,sans-Serif" font-size="10.00">time.h</text>
</a>
</g>
</g>
<!-- Node12&#45;&gt;Node15 -->
<g id="edge16" class="edge">
<title>Node12&#45;&gt;Node15</title>
<path fill="none" stroke="midnightblue" d="M593.49,-224.32C611.54,-215.62 639.55,-202.12 660.3,-192.11"/>
<polygon fill="midnightblue" stroke="midnightblue" points="662.06,-195.15 669.55,-187.65 659.02,-188.84 662.06,-195.15"/>
</g>
<!-- Node12&#45;&gt;Node16 -->
<g id="edge17" class="edge">
<title>Node12&#45;&gt;Node16</title>
<path fill="none" stroke="midnightblue" d="M556.29,-229.86C513.28,-222.8 405.96,-204.92 316.5,-188 315.06,-187.73 313.6,-187.45 312.13,-187.16"/>
<polygon fill="midnightblue" stroke="midnightblue" points="312.79,-183.73 302.3,-185.22 311.43,-190.59 312.79,-183.73"/>
</g>
<!-- Node12&#45;&gt;Node17 -->
<g id="edge20" class="edge">
<title>Node12&#45;&gt;Node17</title>
<path fill="none" stroke="midnightblue" d="M556.25,-225.83C532.54,-217 491.91,-201.87 463.26,-191.2"/>
<polygon fill="midnightblue" stroke="midnightblue" points="464.26,-187.84 453.67,-187.63 461.82,-194.4 464.26,-187.84"/>
</g>
<!-- Node12&#45;&gt;Node20 -->
<g id="edge25" class="edge">
<title>Node12&#45;&gt;Node20</title>
<path fill="none" stroke="midnightblue" d="M556.32,-230.57C493.05,-222.57 289.66,-196.85 196.23,-185.04"/>
<polygon fill="midnightblue" stroke="midnightblue" points="196.56,-181.55 186.2,-183.77 195.69,-188.5 196.56,-181.55"/>
</g>
<!-- Node12&#45;&gt;Node21 -->
<g id="edge27" class="edge">
<title>Node12&#45;&gt;Node21</title>
<path fill="none" stroke="midnightblue" d="M594.76,-230.36C609.03,-228.45 628.96,-225.89 646.5,-224 823.36,-204.96 872.83,-221.58 1051.96,-187.68"/>
<polygon fill="midnightblue" stroke="midnightblue" points="1052.82,-191.08 1061.98,-185.75 1051.5,-184.2 1052.82,-191.08"/>
</g>
<!-- Node25 -->
<g id="node25" class="node">
<title>Node25</title>
<g id="a_node25"><a xlink:href="coap__session_8h.html" target="_top" xlink:title="Defines the application visible session information.">
<polygon fill="white" stroke="black" points="482,-168.5 482,-187.5 567,-187.5 567,-168.5 482,-168.5"/>
<text text-anchor="middle" x="524.5" y="-175.5" font-family="Helvetica,sans-Serif" font-size="10.00">coap_session.h</text>
</a>
</g>
</g>
<!-- Node12&#45;&gt;Node25 -->
<g id="edge35" class="edge">
<title>Node12&#45;&gt;Node25</title>
<path fill="none" stroke="midnightblue" d="M567.08,-224.08C559.65,-216.22 548.65,-204.57 539.69,-195.08"/>
<polygon fill="midnightblue" stroke="midnightblue" points="542.18,-192.62 532.76,-187.75 537.09,-197.42 542.18,-192.62"/>
</g>
<!-- Node16&#45;&gt;Node6 -->
<g id="edge19" class="edge">
<title>Node16&#45;&gt;Node6</title>
<path fill="none" stroke="midnightblue" d="M263.5,-168.32C255.31,-160.42 242.99,-148.55 233.03,-138.94"/>
<polygon fill="midnightblue" stroke="midnightblue" points="235.29,-136.26 225.66,-131.83 230.43,-141.29 235.29,-136.26"/>
</g>
<!-- Node16&#45;&gt;Node10 -->
<g id="edge18" class="edge">
<title>Node16&#45;&gt;Node10</title>
<path fill="none" stroke="midnightblue" d="M275.95,-168.37C283.12,-150.46 299.73,-108.92 309.32,-84.95"/>
<polygon fill="midnightblue" stroke="midnightblue" points="312.6,-86.18 313.06,-75.59 306.1,-83.58 312.6,-86.18"/>
</g>
<!-- Node17&#45;&gt;Node18 -->
<g id="edge21" class="edge">
<title>Node17&#45;&gt;Node18</title>
<path fill="none" stroke="midnightblue" d="M464.39,-169.55C467.13,-169.01 469.86,-168.48 472.5,-168 561.6,-151.74 666.46,-136.89 725.03,-128.98"/>
<polygon fill="midnightblue" stroke="midnightblue" points="725.62,-132.44 735.06,-127.64 724.68,-125.5 725.62,-132.44"/>
</g>
<!-- Node17&#45;&gt;Node19 -->
<g id="edge23" class="edge">
<title>Node17&#45;&gt;Node19</title>
<path fill="none" stroke="midnightblue" d="M430.5,-168.37C430.5,-150.62 430.5,-109.67 430.5,-85.6"/>
<polygon fill="midnightblue" stroke="midnightblue" points="434,-85.59 430.5,-75.59 427,-85.59 434,-85.59"/>
</g>
<!-- Node18&#45;&gt;Node8 -->
<g id="edge22" class="edge">
<title>Node18&#45;&gt;Node8</title>
<path fill="none" stroke="midnightblue" d="M785.64,-112.37C819.05,-93.33 899.26,-47.62 939.55,-24.65"/>
<polygon fill="midnightblue" stroke="midnightblue" points="941.47,-27.58 948.43,-19.59 938,-21.5 941.47,-27.58"/>
</g>
<!-- Node19&#45;&gt;Node9 -->
<g id="edge24" class="edge">
<title>Node19&#45;&gt;Node9</title>
<path fill="none" stroke="midnightblue" d="M426.21,-56.08C422.65,-48.69 417.48,-37.95 413.08,-28.81"/>
<polygon fill="midnightblue" stroke="midnightblue" points="416.21,-27.24 408.71,-19.75 409.9,-30.28 416.21,-27.24"/>
</g>
<!-- Node20&#45;&gt;Node2 -->
<g id="edge26" class="edge">
<title>Node20&#45;&gt;Node2</title>
<path fill="none" stroke="midnightblue" d="M142.77,-168.37C130.72,-150.22 102.58,-107.8 86.78,-83.99"/>
<polygon fill="midnightblue" stroke="midnightblue" points="89.65,-81.99 81.2,-75.59 83.81,-85.86 89.65,-81.99"/>
</g>
<!-- Node21&#45;&gt;Node8 -->
<g id="edge34" class="edge">
<title>Node21&#45;&gt;Node8</title>
<path fill="none" stroke="midnightblue" d="M1076.1,-168.08C1057.05,-141.49 1000.45,-62.54 975.52,-27.76"/>
<polygon fill="midnightblue" stroke="midnightblue" points="978.31,-25.66 969.64,-19.57 972.62,-29.73 978.31,-25.66"/>
</g>
<!-- Node21&#45;&gt;Node22 -->
<g id="edge28" class="edge">
<title>Node21&#45;&gt;Node22</title>
<path fill="none" stroke="midnightblue" d="M1061.87,-170.7C1058.74,-169.78 1055.54,-168.85 1052.5,-168 1001.31,-153.67 941.18,-138.37 906.98,-129.81"/>
<polygon fill="midnightblue" stroke="midnightblue" points="907.79,-126.41 897.24,-127.38 906.1,-133.2 907.79,-126.41"/>
</g>
<!-- Node21&#45;&gt;Node23 -->
<g id="edge31" class="edge">
<title>Node21&#45;&gt;Node23</title>
<path fill="none" stroke="midnightblue" d="M1092.14,-168.32C1101.01,-160.34 1114.37,-148.31 1125.11,-138.65"/>
<polygon fill="midnightblue" stroke="midnightblue" points="1127.59,-141.13 1132.68,-131.83 1122.91,-135.92 1127.59,-141.13"/>
</g>
<!-- Node22&#45;&gt;Node8 -->
<g id="edge29" class="edge">
<title>Node22&#45;&gt;Node8</title>
<path fill="none" stroke="midnightblue" d="M886.09,-112.37C900.02,-94.14 932.63,-51.43 950.77,-27.68"/>
<polygon fill="midnightblue" stroke="midnightblue" points="953.65,-29.66 956.94,-19.59 948.09,-25.41 953.65,-29.66"/>
</g>
<!-- Node22&#45;&gt;Node19 -->
<g id="edge30" class="edge">
<title>Node22&#45;&gt;Node19</title>
<path fill="none" stroke="midnightblue" d="M861.69,-115.42C857.1,-114.14 852.15,-112.9 847.5,-112 702.57,-84 525.69,-72.13 458.34,-68.4"/>
<polygon fill="midnightblue" stroke="midnightblue" points="458.31,-64.89 448.14,-67.85 457.93,-71.88 458.31,-64.89"/>
</g>
<!-- Node23&#45;&gt;Node24 -->
<g id="edge32" class="edge">
<title>Node23&#45;&gt;Node24</title>
<path fill="none" stroke="midnightblue" d="M1142.5,-112.08C1142.5,-105.01 1142.5,-94.86 1142.5,-85.99"/>
<polygon fill="midnightblue" stroke="midnightblue" points="1146,-85.75 1142.5,-75.75 1139,-85.75 1146,-85.75"/>
</g>
<!-- Node24&#45;&gt;Node8 -->
<g id="edge33" class="edge">
<title>Node24&#45;&gt;Node8</title>
<path fill="none" stroke="midnightblue" d="M1121.97,-58.81C1091.66,-49.66 1034.6,-32.45 997.86,-21.36"/>
<polygon fill="midnightblue" stroke="midnightblue" points="998.65,-17.95 988.07,-18.41 996.63,-24.65 998.65,-17.95"/>
</g>
<!-- Node26&#45;&gt;Node21 -->
<g id="edge42" class="edge">
<title>Node26&#45;&gt;Node21</title>
<path fill="none" stroke="midnightblue" d="M1144.46,-285.82C1133.5,-266.92 1107.3,-221.75 1092.72,-196.62"/>
<polygon fill="midnightblue" stroke="midnightblue" points="1095.64,-194.68 1087.59,-187.78 1089.58,-198.19 1095.64,-194.68"/>
</g>
<!-- Node26&#45;&gt;Node23 -->
<g id="edge41" class="edge">
<title>Node26&#45;&gt;Node23</title>
<path fill="none" stroke="midnightblue" d="M1149.14,-285.76C1148.06,-259.15 1144.77,-178.71 1143.27,-141.84"/>
<polygon fill="midnightblue" stroke="midnightblue" points="1146.75,-141.37 1142.85,-131.52 1139.76,-141.65 1146.75,-141.37"/>
</g>
<!-- Node26&#45;&gt;Node27 -->
<g id="edge38" class="edge">
<title>Node26&#45;&gt;Node27</title>
<path fill="none" stroke="midnightblue" d="M1164.4,-285.98C1181.47,-276.21 1209.66,-260.08 1229.76,-248.58"/>
<polygon fill="midnightblue" stroke="midnightblue" points="1231.69,-251.51 1238.63,-243.51 1228.21,-245.44 1231.69,-251.51"/>
</g>
<!-- Node27&#45;&gt;Node8 -->
<g id="edge40" class="edge">
<title>Node27&#45;&gt;Node8</title>
<path fill="none" stroke="midnightblue" d="M1263.51,-224.39C1276.46,-212.14 1296.36,-188.87 1287.5,-168 1259.5,-102.03 1234.72,-89.76 1171.5,-56 1115.62,-26.16 1041.28,-16.1 998.28,-12.72"/>
<polygon fill="midnightblue" stroke="midnightblue" points="998.28,-9.21 988.05,-11.99 997.78,-16.19 998.28,-9.21"/>
</g>
<!-- Node28 -->
<g id="node28" class="node">
<title>Node28</title>
<g id="a_node28"><a xlink:title=" ">
<polygon fill="white" stroke="#bfbfbf" points="1224.5,-168.5 1224.5,-187.5 1278.5,-187.5 1278.5,-168.5 1224.5,-168.5"/>
<text text-anchor="middle" x="1251.5" y="-175.5" font-family="Helvetica,sans-Serif" font-size="10.00">strings.h</text>
</a>
</g>
</g>
<!-- Node27&#45;&gt;Node28 -->
<g id="edge39" class="edge">
<title>Node27&#45;&gt;Node28</title>
<path fill="none" stroke="midnightblue" d="M1253.17,-224.08C1252.91,-217.01 1252.53,-206.86 1252.2,-197.99"/>
<polygon fill="midnightblue" stroke="midnightblue" points="1255.69,-197.61 1251.82,-187.75 1248.7,-197.87 1255.69,-197.61"/>
</g>
<!-- Node29&#45;&gt;Node5 -->
<g id="edge44" class="edge">
<title>Node29&#45;&gt;Node5</title>
<path fill="none" stroke="midnightblue" d="M1417.5,-347.48C1416.67,-340.47 1415.46,-330.19 1414.35,-320.7"/>
<polygon fill="midnightblue" stroke="midnightblue" points="1417.79,-320.05 1413.15,-310.52 1410.84,-320.86 1417.79,-320.05"/>
</g>
<!-- Node30&#45;&gt;Node21 -->
<g id="edge46" class="edge">
<title>Node30&#45;&gt;Node21</title>
<path fill="none" stroke="midnightblue" d="M1082.5,-347.46C1082.5,-320.43 1082.5,-236.24 1082.5,-198.11"/>
<polygon fill="midnightblue" stroke="midnightblue" points="1086,-197.87 1082.5,-187.87 1079,-197.87 1086,-197.87"/>
</g>
<!-- Node32&#45;&gt;Node13 -->
<g id="edge54" class="edge">
<title>Node32&#45;&gt;Node13</title>
<path fill="none" stroke="midnightblue" d="M702.82,-224.32C711.39,-216.34 724.31,-204.31 734.69,-194.65"/>
<polygon fill="midnightblue" stroke="midnightblue" points="737.08,-197.21 742.01,-187.83 732.31,-192.09 737.08,-197.21"/>
</g>
<!-- Node33&#45;&gt;Node11 -->
<g id="edge64" class="edge">
<title>Node33&#45;&gt;Node11</title>
<path fill="none" stroke="midnightblue" d="M827.85,-347.48C794.31,-337.14 737.63,-319.66 700.13,-308.1"/>
<polygon fill="midnightblue" stroke="midnightblue" points="700.69,-304.61 690.1,-305.01 698.63,-311.3 700.69,-304.61"/>
</g>
<!-- Node33&#45;&gt;Node12 -->
<g id="edge68" class="edge">
<title>Node33&#45;&gt;Node12</title>
<path fill="none" stroke="midnightblue" d="M841.17,-347.41C815.72,-332.38 760.66,-300.93 711.5,-280 675.59,-264.71 632.59,-251.25 604.7,-243.13"/>
<polygon fill="midnightblue" stroke="midnightblue" points="605.37,-239.68 594.79,-240.28 603.44,-246.41 605.37,-239.68"/>
</g>
<!-- Node33&#45;&gt;Node19 -->
<g id="edge66" class="edge">
<title>Node33&#45;&gt;Node19</title>
<path fill="none" stroke="midnightblue" d="M857.27,-347.23C863.86,-311.73 883.28,-177.43 814.5,-112 788.7,-87.46 541.83,-72.68 458.11,-68.35"/>
<polygon fill="midnightblue" stroke="midnightblue" points="458.24,-64.85 448.08,-67.84 457.88,-71.84 458.24,-64.85"/>
</g>
<!-- Node33&#45;&gt;Node21 -->
<g id="edge67" class="edge">
<title>Node33&#45;&gt;Node21</title>
<path fill="none" stroke="midnightblue" d="M865.36,-347.46C875.69,-338.48 892.36,-323.88 906.5,-311 921.38,-297.45 923.91,-292.72 939.5,-280 980.51,-246.53 1031.9,-211.86 1060.57,-193.11"/>
<polygon fill="midnightblue" stroke="midnightblue" points="1062.56,-195.99 1069.04,-187.6 1058.75,-190.12 1062.56,-195.99"/>
</g>
<!-- Node33&#45;&gt;Node26 -->
<g id="edge65" class="edge">
<title>Node33&#45;&gt;Node26</title>
<path fill="none" stroke="midnightblue" d="M897.62,-347.48C951.4,-336.59 1044.23,-317.8 1100.93,-306.33"/>
<polygon fill="midnightblue" stroke="midnightblue" points="1101.63,-309.76 1110.74,-304.35 1100.24,-302.9 1101.63,-309.76"/>
</g>
<!-- Node34 -->
<g id="node34" class="node">
<title>Node34</title>
<g id="a_node34"><a xlink:href="uthash_8h.html" target="_top" xlink:title=" ">
<polygon fill="white" stroke="black" points="907.5,-224.5 907.5,-243.5 961.5,-243.5 961.5,-224.5 907.5,-224.5"/>
<text text-anchor="middle" x="934.5" y="-231.5" font-family="Helvetica,sans-Serif" font-size="10.00">uthash.h</text>
</a>
</g>
</g>
<!-- Node33&#45;&gt;Node34 -->
<g id="edge59" class="edge">
<title>Node33&#45;&gt;Node34</title>
<path fill="none" stroke="midnightblue" d="M861.18,-347.3C874.16,-327.41 906.2,-278.35 923.3,-252.15"/>
<polygon fill="midnightblue" stroke="midnightblue" points="926.33,-253.91 928.87,-243.62 920.47,-250.08 926.33,-253.91"/>
</g>
<!-- Node33&#45;&gt;Node36 -->
<g id="edge69" class="edge">
<title>Node33&#45;&gt;Node36</title>
<path fill="none" stroke="midnightblue" d="M873.7,-347.48C895.01,-337.49 930.53,-320.85 955.16,-309.31"/>
<polygon fill="midnightblue" stroke="midnightblue" points="956.77,-312.42 964.34,-305.01 953.8,-306.08 956.77,-312.42"/>
</g>
<!-- Node34&#45;&gt;Node8 -->
<g id="edge63" class="edge">
<title>Node34&#45;&gt;Node8</title>
<path fill="none" stroke="midnightblue" d="M935.64,-224.3C939.9,-191.63 955.03,-75.87 961.02,-29.96"/>
<polygon fill="midnightblue" stroke="midnightblue" points="964.51,-30.25 962.34,-19.88 957.57,-29.35 964.51,-30.25"/>
</g>
<!-- Node34&#45;&gt;Node9 -->
<g id="edge60" class="edge">
<title>Node34&#45;&gt;Node9</title>
<path fill="none" stroke="midnightblue" d="M935.28,-224.49C936.79,-202.42 937.53,-142.89 905.5,-112 838.11,-47.01 541.37,-20.53 439.21,-13.24"/>
<polygon fill="midnightblue" stroke="midnightblue" points="439.33,-9.74 429.11,-12.54 438.84,-16.72 439.33,-9.74"/>
</g>
<!-- Node34&#45;&gt;Node13 -->
<g id="edge62" class="edge">
<title>Node34&#45;&gt;Node13</title>
<path fill="none" stroke="midnightblue" d="M907.5,-225.03C875.1,-215.47 820.76,-199.44 785.53,-189.04"/>
<polygon fill="midnightblue" stroke="midnightblue" points="786.27,-185.61 775.69,-186.14 784.29,-192.32 786.27,-185.61"/>
</g>
<!-- Node35 -->
<g id="node35" class="node">
<title>Node35</title>
<g id="a_node35"><a xlink:title=" ">
<polygon fill="white" stroke="#bfbfbf" points="991.5,-168.5 991.5,-187.5 1043.5,-187.5 1043.5,-168.5 991.5,-168.5"/>
<text text-anchor="middle" x="1017.5" y="-175.5" font-family="Helvetica,sans-Serif" font-size="10.00">stddef.h</text>
</a>
</g>
</g>
<!-- Node34&#45;&gt;Node35 -->
<g id="edge61" class="edge">
<title>Node34&#45;&gt;Node35</title>
<path fill="none" stroke="midnightblue" d="M947.84,-224.32C960.66,-215.98 980.28,-203.21 995.44,-193.35"/>
<polygon fill="midnightblue" stroke="midnightblue" points="997.72,-196.04 1004.2,-187.65 993.91,-190.17 997.72,-196.04"/>
</g>
</g>
</svg>
