<?xml version="1.0" encoding="UTF-8" standalone="no"?>
<!DOCTYPE svg PUBLIC "-//W3C//DTD SVG 1.1//EN"
 "http://www.w3.org/Graphics/SVG/1.1/DTD/svg11.dtd">
<!-- Generated by graphviz version 2.43.0 (0)
 -->
<!-- Title: coap_delete_bin_const Pages: 1 -->
<svg width="272pt" height="88pt"
 viewBox="0.00 0.00 272.00 88.00" xmlns="http://www.w3.org/2000/svg" xmlns:xlink="http://www.w3.org/1999/xlink">
<g id="graph0" class="graph" transform="scale(1 1) rotate(0) translate(4 84)">
<title>coap_delete_bin_const</title>
<polygon fill="white" stroke="transparent" points="-4,4 -4,-84 268,-84 268,4 -4,4"/>
<!-- Node1 -->
<g id="node1" class="node">
<title>Node1</title>
<g id="a_node1"><a xlink:title="Deletes the given const binary data and releases any memory allocated.">
<polygon fill="#bfbfbf" stroke="black" points="148,-30 148,-49 264,-49 264,-30 148,-30"/>
<text text-anchor="middle" x="206" y="-37" font-family="Helvetica,sans-Serif" font-size="10.00">coap_delete_bin_const</text>
</a>
</g>
</g>
<!-- Node2 -->
<g id="node2" class="node">
<title>Node2</title>
<g id="a_node2"><a xlink:href="group__session__internal.html#ga241d1a2311c1dcbdca0e6860237acf91" target="_top" xlink:title="Refresh the session&#39;s current Identity Hint (PSK).">
<polygon fill="white" stroke="black" points="0,-49.5 0,-79.5 112,-79.5 112,-49.5 0,-49.5"/>
<text text-anchor="start" x="8" y="-67.5" font-family="Helvetica,sans-Serif" font-size="10.00">coap_session_refresh</text>
<text text-anchor="middle" x="56" y="-56.5" font-family="Helvetica,sans-Serif" font-size="10.00">_psk_hint</text>
</a>
</g>
</g>
<!-- Node1&#45;&gt;Node2 -->
<g id="edge1" class="edge">
<title>Node1&#45;&gt;Node2</title>
<path fill="none" stroke="midnightblue" d="M138.72,-50.7C129.87,-52.19 120.87,-53.71 112.24,-55.17"/>
<polygon fill="midnightblue" stroke="midnightblue" points="139.35,-54.14 148.63,-49.02 138.18,-47.24 139.35,-54.14"/>
</g>
<!-- Node3 -->
<g id="node3" class="node">
<title>Node3</title>
<g id="a_node3"><a xlink:href="group__session__internal.html#gaa40e39af285755517824c26095494f91" target="_top" xlink:title="Refresh the session&#39;s current pre&#45;shared key (PSK).">
<polygon fill="white" stroke="black" points="0,-0.5 0,-30.5 112,-30.5 112,-0.5 0,-0.5"/>
<text text-anchor="start" x="8" y="-18.5" font-family="Helvetica,sans-Serif" font-size="10.00">coap_session_refresh</text>
<text text-anchor="middle" x="56" y="-7.5" font-family="Helvetica,sans-Serif" font-size="10.00">_psk_key</text>
</a>
</g>
</g>
<!-- Node1&#45;&gt;Node3 -->
<g id="edge2" class="edge">
<title>Node1&#45;&gt;Node3</title>
<path fill="none" stroke="midnightblue" d="M137.78,-28.6C129.2,-27.21 120.49,-25.8 112.12,-24.44"/>
<polygon fill="midnightblue" stroke="midnightblue" points="137.35,-32.08 147.78,-30.22 138.47,-25.17 137.35,-32.08"/>
</g>
</g>
</svg>
