<?xml version="1.0" encoding="UTF-8" standalone="no"?>
<!DOCTYPE svg PUBLIC "-//W3C//DTD SVG 1.1//EN"
 "http://www.w3.org/Graphics/SVG/1.1/DTD/svg11.dtd">
<!-- Generated by graphviz version 2.38.0 (20140413.2041)
 -->
<!-- Title: address.c Pages: 1 -->
<svg width="486pt" height="196pt"
 viewBox="0.00 0.00 486.22 196.00" xmlns="http://www.w3.org/2000/svg" xmlns:xlink="http://www.w3.org/1999/xlink">
<g id="graph0" class="graph" transform="scale(1 1) rotate(0) translate(4 192)">
<title>address.c</title>
<polygon fill="white" stroke="none" points="-4,4 -4,-192 482.22,-192 482.22,4 -4,4"/>
<!-- Node0 -->
<g id="node1" class="node"><title>Node0</title>
<polygon fill="#bfbfbf" stroke="black" points="145.72,-168.5 145.72,-187.5 204.72,-187.5 204.72,-168.5 145.72,-168.5"/>
<text text-anchor="middle" x="175.22" y="-175.5" font-family="Helvetica,sans-Serif" font-size="10.00">address.c</text>
</g>
<!-- Node1 -->
<g id="node2" class="node"><title>Node1</title>
<polygon fill="white" stroke="#bfbfbf" points="13.2204,-56.5 13.2204,-75.5 65.2204,-75.5 65.2204,-56.5 13.2204,-56.5"/>
<text text-anchor="middle" x="39.2204" y="-63.5" font-family="Helvetica,sans-Serif" font-size="10.00">assert.h</text>
</g>
<!-- Node0&#45;&gt;Node1 -->
<g id="edge1" class="edge"><title>Node0&#45;&gt;Node1</title>
<path fill="none" stroke="midnightblue" d="M164.549,-168.368C141.509,-149.733 86.8604,-105.532 57.9314,-82.1338"/>
<polygon fill="midnightblue" stroke="midnightblue" points="59.8187,-79.1589 49.8425,-75.5914 55.4166,-84.6014 59.8187,-79.1589"/>
</g>
<!-- Node2 -->
<g id="node3" class="node"><title>Node2</title>
<polygon fill="white" stroke="#bfbfbf" points="416.22,-112.5 416.22,-131.5 478.22,-131.5 478.22,-112.5 416.22,-112.5"/>
<text text-anchor="middle" x="447.22" y="-119.5" font-family="Helvetica,sans-Serif" font-size="10.00">arpa/inet.h</text>
</g>
<!-- Node0&#45;&gt;Node2 -->
<g id="edge2" class="edge"><title>Node0&#45;&gt;Node2</title>
<path fill="none" stroke="midnightblue" d="M204.97,-171.119C248.346,-162.541 331.492,-146.083 402.22,-132 403.314,-131.782 404.423,-131.561 405.542,-131.338"/>
<polygon fill="midnightblue" stroke="midnightblue" points="406.629,-134.69 415.751,-129.301 405.259,-127.826 406.629,-134.69"/>
</g>
<!-- Node3 -->
<g id="node4" class="node"><title>Node3</title>
<polygon fill="white" stroke="#bfbfbf" points="110.72,-0.5 110.72,-19.5 175.72,-19.5 175.72,-0.5 110.72,-0.5"/>
<text text-anchor="middle" x="143.22" y="-7.5" font-family="Helvetica,sans-Serif" font-size="10.00">netinet/in.h</text>
</g>
<!-- Node0&#45;&gt;Node3 -->
<g id="edge3" class="edge"><title>Node0&#45;&gt;Node3</title>
<path fill="none" stroke="midnightblue" d="M145.456,-169.59C104.804,-157.66 33.614,-129.876 4.22042,-76 -17.6373,-35.9363 52.0069,-20.385 100.476,-14.4804"/>
<polygon fill="midnightblue" stroke="midnightblue" points="100.909,-17.9539 110.457,-13.3615 100.129,-10.9974 100.909,-17.9539"/>
</g>
<!-- Node4 -->
<g id="node5" class="node"><title>Node4</title>
<polygon fill="white" stroke="#bfbfbf" points="323.72,-0.5 323.72,-19.5 396.72,-19.5 396.72,-0.5 323.72,-0.5"/>
<text text-anchor="middle" x="360.22" y="-7.5" font-family="Helvetica,sans-Serif" font-size="10.00">sys/socket.h</text>
</g>
<!-- Node0&#45;&gt;Node4 -->
<g id="edge4" class="edge"><title>Node0&#45;&gt;Node4</title>
<path fill="none" stroke="midnightblue" d="M204.755,-171.538C249.528,-161.492 333.173,-135.407 369.22,-76 377.792,-61.8745 373.763,-42.892 368.659,-29.0893"/>
<polygon fill="midnightblue" stroke="midnightblue" points="371.824,-27.5864 364.738,-19.7103 365.366,-30.2865 371.824,-27.5864"/>
</g>
<!-- Node5 -->
<g id="node6" class="node"><title>Node5</title>
<g id="a_node6"><a xlink:href="address_8h.html" target="_top" xlink:title="Representation of network addresses. ">
<polygon fill="white" stroke="black" points="145.72,-112.5 145.72,-131.5 204.72,-131.5 204.72,-112.5 145.72,-112.5"/>
<text text-anchor="middle" x="175.22" y="-119.5" font-family="Helvetica,sans-Serif" font-size="10.00">address.h</text>
</a>
</g>
</g>
<!-- Node0&#45;&gt;Node5 -->
<g id="edge5" class="edge"><title>Node0&#45;&gt;Node5</title>
<path fill="none" stroke="midnightblue" d="M175.22,-168.083C175.22,-161.006 175.22,-150.861 175.22,-141.986"/>
<polygon fill="midnightblue" stroke="midnightblue" points="178.721,-141.751 175.22,-131.751 171.721,-141.751 178.721,-141.751"/>
</g>
<!-- Node5&#45;&gt;Node1 -->
<g id="edge6" class="edge"><title>Node5&#45;&gt;Node1</title>
<path fill="none" stroke="midnightblue" d="M153.671,-112.444C131.189,-103.517 95.7328,-89.4387 70.2406,-79.3168"/>
<polygon fill="midnightblue" stroke="midnightblue" points="71.255,-75.9539 60.6692,-75.5164 68.6717,-82.4598 71.255,-75.9539"/>
</g>
<!-- Node6 -->
<g id="node7" class="node"><title>Node6</title>
<polygon fill="white" stroke="#bfbfbf" points="83.7204,-56.5 83.7204,-75.5 132.72,-75.5 132.72,-56.5 83.7204,-56.5"/>
<text text-anchor="middle" x="108.22" y="-63.5" font-family="Helvetica,sans-Serif" font-size="10.00">stdint.h</text>
</g>
<!-- Node5&#45;&gt;Node6 -->
<g id="edge7" class="edge"><title>Node5&#45;&gt;Node6</title>
<path fill="none" stroke="midnightblue" d="M164.456,-112.324C154.454,-104.263 139.334,-92.0765 127.29,-82.3695"/>
<polygon fill="midnightblue" stroke="midnightblue" points="129.163,-79.3841 119.181,-75.8339 124.771,-84.8343 129.163,-79.3841"/>
</g>
<!-- Node7 -->
<g id="node8" class="node"><title>Node7</title>
<polygon fill="white" stroke="#bfbfbf" points="150.72,-56.5 150.72,-75.5 199.72,-75.5 199.72,-56.5 150.72,-56.5"/>
<text text-anchor="middle" x="175.22" y="-63.5" font-family="Helvetica,sans-Serif" font-size="10.00">string.h</text>
</g>
<!-- Node5&#45;&gt;Node7 -->
<g id="edge8" class="edge"><title>Node5&#45;&gt;Node7</title>
<path fill="none" stroke="midnightblue" d="M175.22,-112.083C175.22,-105.006 175.22,-94.8611 175.22,-85.9865"/>
<polygon fill="midnightblue" stroke="midnightblue" points="178.721,-85.751 175.22,-75.7511 171.721,-85.7511 178.721,-85.751"/>
</g>
<!-- Node8 -->
<g id="node9" class="node"><title>Node8</title>
<polygon fill="white" stroke="#bfbfbf" points="218.22,-56.5 218.22,-75.5 286.22,-75.5 286.22,-56.5 218.22,-56.5"/>
<text text-anchor="middle" x="252.22" y="-63.5" font-family="Helvetica,sans-Serif" font-size="10.00">sys/types.h</text>
</g>
<!-- Node5&#45;&gt;Node8 -->
<g id="edge9" class="edge"><title>Node5&#45;&gt;Node8</title>
<path fill="none" stroke="midnightblue" d="M187.592,-112.324C199.379,-104.058 217.353,-91.4527 231.356,-81.6322"/>
<polygon fill="midnightblue" stroke="midnightblue" points="233.702,-84.2619 239.88,-75.6545 229.683,-78.5307 233.702,-84.2619"/>
</g>
<!-- Node9 -->
<g id="node10" class="node"><title>Node9</title>
<g id="a_node10"><a xlink:href="libcoap_8h.html" target="_top" xlink:title="libcoap.h">
<polygon fill="white" stroke="black" points="304.22,-56.5 304.22,-75.5 360.22,-75.5 360.22,-56.5 304.22,-56.5"/>
<text text-anchor="middle" x="332.22" y="-63.5" font-family="Helvetica,sans-Serif" font-size="10.00">libcoap.h</text>
</a>
</g>
</g>
<!-- Node5&#45;&gt;Node9 -->
<g id="edge10" class="edge"><title>Node5&#45;&gt;Node9</title>
<path fill="none" stroke="midnightblue" d="M200.098,-112.444C226.51,-103.359 268.436,-88.9388 297.962,-78.7831"/>
<polygon fill="midnightblue" stroke="midnightblue" points="299.142,-82.0787 307.46,-75.5164 296.865,-75.4593 299.142,-82.0787"/>
</g>
<!-- Node9&#45;&gt;Node3 -->
<g id="edge11" class="edge"><title>Node9&#45;&gt;Node3</title>
<path fill="none" stroke="midnightblue" d="M303.925,-56.9157C271.827,-47.7449 219.251,-32.7231 183.026,-22.3731"/>
<polygon fill="midnightblue" stroke="midnightblue" points="183.85,-18.9685 173.273,-19.5865 181.927,-25.6991 183.85,-18.9685"/>
</g>
<!-- Node9&#45;&gt;Node4 -->
<g id="edge12" class="edge"><title>Node9&#45;&gt;Node4</title>
<path fill="none" stroke="midnightblue" d="M336.844,-56.083C340.677,-48.6913 346.245,-37.9533 350.985,-28.8111"/>
<polygon fill="midnightblue" stroke="midnightblue" points="354.187,-30.2398 355.683,-19.7511 347.972,-27.0175 354.187,-30.2398"/>
</g>
</g>
</svg>
