<?xml version="1.0" encoding="UTF-8" standalone="no"?>
<!DOCTYPE svg PUBLIC "-//W3C//DTD SVG 1.1//EN"
 "http://www.w3.org/Graphics/SVG/1.1/DTD/svg11.dtd">
<!-- Generated by graphviz version 2.38.0 (20140413.2041)
 -->
<!-- Title: coap_packet_get_memmapped Pages: 1 -->
<!--zoomable 47 -->
<svg id="main" version="1.1" xmlns="http://www.w3.org/2000/svg" xmlns:xlink="http://www.w3.org/1999/xlink" xml:space="preserve" onload="init(evt)">
<style type="text/css"><![CDATA[
.edge:hover path { stroke: red; }
.edge:hover polygon { stroke: red; fill: red; }
]]></style>
<script type="text/javascript"><![CDATA[
var edges = document.getElementsByTagName('g');
if (edges && edges.length) {
  for (var i=0;i<edges.length;i++) {
    if (edges[i].id.substr(0,4)=='edge') {
      edges[i].setAttribute('class','edge');
    }
  }
}
]]></script>
        <defs>
                <circle id="rim" cx="0" cy="0" r="7"/>
                <circle id="rim2" cx="0" cy="0" r="3.5"/>
                <g id="zoomPlus">
                        <use xlink:href="#rim" fill="#404040">
                                <set attributeName="fill" to="#808080" begin="zoomplus.mouseover" end="zoomplus.mouseout"/>
                        </use>
                        <path d="M-4,0h8M0,-4v8" fill="none" stroke="white" stroke-width="1.5" pointer-events="none"/>
                </g>
                <g id="zoomMin">
                        <use xlink:href="#rim" fill="#404040">
                                <set attributeName="fill" to="#808080" begin="zoomminus.mouseover" end="zoomminus.mouseout"/>
                        </use>
                        <path d="M-4,0h8" fill="none" stroke="white" stroke-width="1.5" pointer-events="none"/>
                </g>
                <g id="dirArrow">
                        <path fill="none" stroke="white" stroke-width="1.5" d="M0,-3.0v7 M-2.5,-0.5L0,-3.0L2.5,-0.5"/>
                </g>
               <g id="resetDef">
                       <use xlink:href="#rim2" fill="#404040">
                               <set attributeName="fill" to="#808080" begin="reset.mouseover" end="reset.mouseout"/>
                       </use>
               </g>
        </defs>

<script type="text/javascript">
var viewWidth = 526;
var viewHeight = 47;
var sectionId = 'dynsection-19';
</script>
<script xlink:href="svgpan.js"/>
<svg id="graph" class="graph">
<g id="viewport">
<title>coap_packet_get_memmapped</title>
<polygon fill="white" stroke="none" points="-4,4 -4,-43 522,-43 522,4 -4,4"/>
<!-- Node110 -->
<g id="node1" class="node"><title>Node110</title>
<polygon fill="#bfbfbf" stroke="black" points="0,-0.5 0,-19.5 152,-19.5 152,-0.5 0,-0.5"/>
<text text-anchor="middle" x="76" y="-7.5" font-family="Helvetica,sans-Serif" font-size="10.00">coap_packet_get_memmapped</text>
</g>
<!-- Node111 -->
<g id="node2" class="node"><title>Node111</title>
<g id="a_node2"><a xlink:href="net_8h.html#a74c5ca78210280817a5586f61abfa5f3" target="_top" xlink:title="Parses and interprets a CoAP message with context ctx. ">
<polygon fill="white" stroke="black" points="188,-0.5 188,-19.5 304,-19.5 304,-0.5 188,-0.5"/>
<text text-anchor="middle" x="246" y="-7.5" font-family="Helvetica,sans-Serif" font-size="10.00">coap_handle_message</text>
</a>
</g>
</g>
<!-- Node110&#45;&gt;Node111 -->
<g id="edge1" class="edge"><title>Node110&#45;&gt;Node111</title>
<path fill="none" stroke="midnightblue" d="M162.29,-10C170.934,-10 179.561,-10 187.802,-10"/>
<polygon fill="midnightblue" stroke="midnightblue" points="162.155,-6.5001 152.155,-10 162.155,-13.5001 162.155,-6.5001"/>
</g>
<!-- Node112 -->
<g id="node3" class="node"><title>Node112</title>
<g id="a_node3"><a xlink:href="net_8h.html#ade17f093221599e839345cf88b74b496" target="_top" xlink:title="Reads data from the network and tries to parse as CoAP PDU. ">
<polygon fill="white" stroke="black" points="340,-19.5 340,-38.5 402,-38.5 402,-19.5 340,-19.5"/>
<text text-anchor="middle" x="371" y="-26.5" font-family="Helvetica,sans-Serif" font-size="10.00">coap_read</text>
</a>
</g>
</g>
<!-- Node111&#45;&gt;Node112 -->
<g id="edge2" class="edge"><title>Node111&#45;&gt;Node112</title>
<path fill="none" stroke="midnightblue" d="M314.277,-20.3924C323.196,-21.77 331.95,-23.1224 339.783,-24.3323"/>
<polygon fill="midnightblue" stroke="midnightblue" points="314.596,-16.9002 304.179,-18.8325 313.527,-23.8182 314.596,-16.9002"/>
</g>
<!-- Node113 -->
<g id="node4" class="node"><title>Node113</title>
<g id="a_node4"><a xlink:href="net_8h.html#a08ba53f8f554cf7a2559813ebde1bb1d" target="_top" xlink:title="Sends an RST message with code 0 for the specified request to dst. ">
<polygon fill="white" stroke="black" points="438,-0.5 438,-19.5 518,-19.5 518,-0.5 438,-0.5"/>
<text text-anchor="middle" x="478" y="-7.5" font-family="Helvetica,sans-Serif" font-size="10.00">coap_send_rst</text>
</a>
</g>
</g>
<!-- Node111&#45;&gt;Node113 -->
<g id="edge4" class="edge"><title>Node111&#45;&gt;Node113</title>
<path fill="none" stroke="midnightblue" d="M314.4,-10C354.533,-10 404.058,-10 437.835,-10"/>
<polygon fill="midnightblue" stroke="midnightblue" points="314.149,-6.5001 304.149,-10 314.149,-13.5001 314.149,-6.5001"/>
</g>
<!-- Node112&#45;&gt;Node113 -->
<g id="edge3" class="edge"><title>Node112&#45;&gt;Node113</title>
<path fill="none" stroke="midnightblue" d="M412.111,-21.7418C420.564,-20.2122 429.472,-18.6003 437.888,-17.0774"/>
<polygon fill="midnightblue" stroke="midnightblue" points="411.306,-18.3306 402.089,-23.5554 412.552,-25.2187 411.306,-18.3306"/>
</g>
</g>
</svg>
        <g id="navigator" transform="translate(0 0)" fill="#404254">
                <rect fill="#f2f5e9" fill-opacity="0.5" stroke="#606060" stroke-width=".5" x="0" y="0" width="60" height="60"/>
                <use id="zoomplus" xlink:href="#zoomPlus" x="17" y="9" onmousedown="handleZoom(evt,'in')"/>
                <use id="zoomminus" xlink:href="#zoomMin" x="42" y="9" onmousedown="handleZoom(evt,'out')"/>
                <use id="reset" xlink:href="#resetDef" x="30" y="36" onmousedown="handleReset()"/>
                <g id="arrowUp" xlink:href="#dirArrow" transform="translate(30 24)" onmousedown="handlePan(0,-1)">
                  <use xlink:href="#rim" fill="#404040">
                        <set attributeName="fill" to="#808080" begin="arrowUp.mouseover" end="arrowUp.mouseout"/>
                  </use>
                  <path fill="none" stroke="white" stroke-width="1.5" d="M0,-3.0v7 M-2.5,-0.5L0,-3.0L2.5,-0.5"/>
                </g>
                <g id="arrowRight" xlink:href="#dirArrow" transform="rotate(90) translate(36 -43)" onmousedown="handlePan(1,0)">
                  <use xlink:href="#rim" fill="#404040">
                        <set attributeName="fill" to="#808080" begin="arrowRight.mouseover" end="arrowRight.mouseout"/>
                  </use>
                  <path fill="none" stroke="white" stroke-width="1.5" d="M0,-3.0v7 M-2.5,-0.5L0,-3.0L2.5,-0.5"/>
                </g>
                <g id="arrowDown" xlink:href="#dirArrow" transform="rotate(180) translate(-30 -48)" onmousedown="handlePan(0,1)">
                  <use xlink:href="#rim" fill="#404040">
                        <set attributeName="fill" to="#808080" begin="arrowDown.mouseover" end="arrowDown.mouseout"/>
                  </use>
                  <path fill="none" stroke="white" stroke-width="1.5" d="M0,-3.0v7 M-2.5,-0.5L0,-3.0L2.5,-0.5"/>
                </g>
                <g id="arrowLeft" xlink:href="#dirArrow" transform="rotate(270) translate(-36 17)" onmousedown="handlePan(-1,0)">
                  <use xlink:href="#rim" fill="#404040">
                        <set attributeName="fill" to="#808080" begin="arrowLeft.mouseover" end="arrowLeft.mouseout"/>
                  </use>
                  <path fill="none" stroke="white" stroke-width="1.5" d="M0,-3.0v7 M-2.5,-0.5L0,-3.0L2.5,-0.5"/>
                </g>
        </g>
        <svg viewBox="0 0 15 15" width="100%" height="30px" preserveAspectRatio="xMaxYMin meet">
         <g id="arrow_out" transform="scale(0.3 0.3)">
          <a xlink:href="coap__io_8c_a4bc4949c9ad150282ec082c99510046b_icgraph_org.svg" target="_base">
           <rect id="button" ry="5" rx="5" y="6" x="6" height="38" width="38"
                fill="#f2f5e9" fill-opacity="0.5" stroke="#606060" stroke-width="1.0"/>
           <path id="arrow"
             d="M 11.500037,31.436501 C 11.940474,20.09759 22.043105,11.32322 32.158766,21.979434 L 37.068811,17.246167 C 37.068811,17.246167 37.088388,32 37.088388,32 L 22.160133,31.978069 C 22.160133,31.978069 26.997745,27.140456 26.997745,27.140456 C 18.528582,18.264221 13.291696,25.230495 11.500037,31.436501 z"
             style="fill:#404040;"/>
          </a>
         </g>
        </svg>
</svg>
