<?xml version="1.0" encoding="UTF-8" standalone="no"?>
<!DOCTYPE svg PUBLIC "-//W3C//DTD SVG 1.1//EN"
 "http://www.w3.org/Graphics/SVG/1.1/DTD/svg11.dtd">
<!-- Generated by graphviz version 2.38.0 (20140413.2041)
 -->
<!-- Title: coap_get_log_level Pages: 1 -->
<svg width="823pt" height="154pt"
 viewBox="0.00 0.00 823.00 153.50" xmlns="http://www.w3.org/2000/svg" xmlns:xlink="http://www.w3.org/1999/xlink">
<g id="graph0" class="graph" transform="scale(1 1) rotate(0) translate(4 149.5)">
<title>coap_get_log_level</title>
<polygon fill="white" stroke="none" points="-4,4 -4,-149.5 819,-149.5 819,4 -4,4"/>
<!-- Node1 -->
<g id="node1" class="node"><title>Node1</title>
<polygon fill="#bfbfbf" stroke="black" points="0,-69 0,-88 100,-88 100,-69 0,-69"/>
<text text-anchor="middle" x="50" y="-76" font-family="Helvetica,sans-Serif" font-size="10.00">coap_get_log_level</text>
</g>
<!-- Node2 -->
<g id="node2" class="node"><title>Node2</title>
<g id="a_node2"><a xlink:href="coap__io_8h.html#a8caaa551e1aa27c6b907a9afca7e5093" target="_top" xlink:title="coap_new_endpoint">
<polygon fill="white" stroke="black" points="136.5,-126 136.5,-145 239.5,-145 239.5,-126 136.5,-126"/>
<text text-anchor="middle" x="188" y="-133" font-family="Helvetica,sans-Serif" font-size="10.00">coap_new_endpoint</text>
</a>
</g>
</g>
<!-- Node1&#45;&gt;Node2 -->
<g id="edge1" class="edge"><title>Node1&#45;&gt;Node2</title>
<path fill="none" stroke="midnightblue" d="M80.9354,-92.4437C97.1292,-99.8442 117.541,-108.944 136,-116.5 143.87,-119.721 152.51,-123.026 160.406,-125.957"/>
<polygon fill="midnightblue" stroke="midnightblue" points="82.0006,-89.0813 71.4527,-88.0845 79.0768,-95.4415 82.0006,-89.0813"/>
</g>
<!-- Node5 -->
<g id="node5" class="node"><title>Node5</title>
<g id="a_node5"><a xlink:href="coap__io_8h.html#a01655aadc98d6957fcb27a612297254a" target="_top" xlink:title="Function interface for reading data. ">
<polygon fill="white" stroke="black" points="137.5,-88 137.5,-107 238.5,-107 238.5,-88 137.5,-88"/>
<text text-anchor="middle" x="188" y="-95" font-family="Helvetica,sans-Serif" font-size="10.00">coap_network_read</text>
</a>
</g>
</g>
<!-- Node1&#45;&gt;Node5 -->
<g id="edge4" class="edge"><title>Node1&#45;&gt;Node5</title>
<path fill="none" stroke="midnightblue" d="M110.118,-86.7592C119.102,-88.0142 128.296,-89.2987 137.059,-90.5229"/>
<polygon fill="midnightblue" stroke="midnightblue" points="110.487,-83.2768 100.099,-85.3594 109.519,-90.2095 110.487,-83.2768"/>
</g>
<!-- Node6 -->
<g id="node6" class="node"><title>Node6</title>
<g id="a_node6"><a xlink:href="net_8h.html#a74c5ca78210280817a5586f61abfa5f3" target="_top" xlink:title="Parses and interprets a CoAP message with context ctx. ">
<polygon fill="white" stroke="black" points="276,-50 276,-69 392,-69 392,-50 276,-50"/>
<text text-anchor="middle" x="334" y="-57" font-family="Helvetica,sans-Serif" font-size="10.00">coap_handle_message</text>
</a>
</g>
</g>
<!-- Node1&#45;&gt;Node6 -->
<g id="edge6" class="edge"><title>Node1&#45;&gt;Node6</title>
<path fill="none" stroke="midnightblue" d="M110.197,-74.5115C158.904,-71.2299 227.519,-66.6068 275.699,-63.3607"/>
<polygon fill="midnightblue" stroke="midnightblue" points="109.863,-71.026 100.121,-75.1905 110.333,-78.0102 109.863,-71.026"/>
</g>
<!-- Node9 -->
<g id="node9" class="node"><title>Node9</title>
<g id="a_node9"><a xlink:href="resource_8c.html#afbd204b59945b10d4e73b7a4a9915c6b" target="_top" xlink:title="Checks the failure counter for (peer, token) and removes peer from the list of observers for the give...">
<polygon fill="white" stroke="black" points="136,-0.5 136,-30.5 240,-30.5 240,-0.5 136,-0.5"/>
<text text-anchor="start" x="144" y="-18.5" font-family="Helvetica,sans-Serif" font-size="10.00">coap_remove_failed</text>
<text text-anchor="middle" x="188" y="-7.5" font-family="Helvetica,sans-Serif" font-size="10.00">_observers</text>
</a>
</g>
</g>
<!-- Node1&#45;&gt;Node9 -->
<g id="edge10" class="edge"><title>Node1&#45;&gt;Node9</title>
<path fill="none" stroke="midnightblue" d="M80.7672,-64.7108C102.547,-54.6214 132.08,-40.9409 154.479,-30.565"/>
<polygon fill="midnightblue" stroke="midnightblue" points="79.258,-61.5525 71.6555,-68.9317 82.2004,-67.9041 79.258,-61.5525"/>
</g>
<!-- Node3 -->
<g id="node3" class="node"><title>Node3</title>
<g id="a_node3"><a xlink:href="net_8h.html#a8baf4e3608ff5eb00adac694fe25eb60" target="_top" xlink:title="Creates a new coap_context_t object that will hold the CoAP stack status. ">
<polygon fill="white" stroke="black" points="285,-123 285,-142 383,-142 383,-123 285,-123"/>
<text text-anchor="middle" x="334" y="-130" font-family="Helvetica,sans-Serif" font-size="10.00">coap_new_context</text>
</a>
</g>
</g>
<!-- Node2&#45;&gt;Node3 -->
<g id="edge2" class="edge"><title>Node2&#45;&gt;Node3</title>
<path fill="none" stroke="midnightblue" d="M249.841,-134.232C261.453,-133.991 273.463,-133.74 284.621,-133.508"/>
<polygon fill="midnightblue" stroke="midnightblue" points="249.694,-130.735 239.769,-134.442 249.84,-137.733 249.694,-130.735"/>
</g>
<!-- Node4 -->
<g id="node4" class="node"><title>Node4</title>
<g id="a_node4"><a xlink:href="net_8h.html#a0b28834233cb704a89fb8e740ca65c69" target="_top" xlink:title="Registers the option type type with the given context object ctx. ">
<polygon fill="white" stroke="black" points="428,-123 428,-142 535,-142 535,-123 428,-123"/>
<text text-anchor="middle" x="481.5" y="-130" font-family="Helvetica,sans-Serif" font-size="10.00">coap_register_option</text>
</a>
</g>
</g>
<!-- Node3&#45;&gt;Node4 -->
<g id="edge3" class="edge"><title>Node3&#45;&gt;Node4</title>
<path fill="none" stroke="midnightblue" d="M393.38,-132.5C404.821,-132.5 416.757,-132.5 427.992,-132.5"/>
<polygon fill="midnightblue" stroke="midnightblue" points="393.045,-129 383.045,-132.5 393.045,-136 393.045,-129"/>
</g>
<!-- Node5&#45;&gt;Node3 -->
<g id="edge5" class="edge"><title>Node5&#45;&gt;Node3</title>
<path fill="none" stroke="midnightblue" d="M238.162,-109.449C256.285,-113.854 276.561,-118.782 293.699,-122.948"/>
<polygon fill="midnightblue" stroke="midnightblue" points="238.892,-106.025 228.349,-107.064 237.239,-112.827 238.892,-106.025"/>
</g>
<!-- Node7 -->
<g id="node7" class="node"><title>Node7</title>
<g id="a_node7"><a xlink:href="net_8h.html#ade17f093221599e839345cf88b74b496" target="_top" xlink:title="Reads data from the network and tries to parse as CoAP PDU. ">
<polygon fill="white" stroke="black" points="450.5,-82 450.5,-101 512.5,-101 512.5,-82 450.5,-82"/>
<text text-anchor="middle" x="481.5" y="-89" font-family="Helvetica,sans-Serif" font-size="10.00">coap_read</text>
</a>
</g>
</g>
<!-- Node6&#45;&gt;Node7 -->
<g id="edge7" class="edge"><title>Node6&#45;&gt;Node7</title>
<path fill="none" stroke="midnightblue" d="M388.265,-71.2147C409.088,-75.7944 432.211,-80.8797 450.095,-84.8131"/>
<polygon fill="midnightblue" stroke="midnightblue" points="388.779,-67.7442 378.261,-69.0144 387.276,-74.5808 388.779,-67.7442"/>
</g>
<!-- Node8 -->
<g id="node8" class="node"><title>Node8</title>
<g id="a_node8"><a xlink:href="net_8h.html#a08ba53f8f554cf7a2559813ebde1bb1d" target="_top" xlink:title="Sends an RST message with code 0 for the specified request to dst. ">
<polygon fill="white" stroke="black" points="571,-44 571,-63 651,-63 651,-44 571,-44"/>
<text text-anchor="middle" x="611" y="-51" font-family="Helvetica,sans-Serif" font-size="10.00">coap_send_rst</text>
</a>
</g>
</g>
<!-- Node6&#45;&gt;Node8 -->
<g id="edge9" class="edge"><title>Node6&#45;&gt;Node8</title>
<path fill="none" stroke="midnightblue" d="M402.627,-58.0245C455.514,-56.8706 527.184,-55.3069 570.925,-54.3525"/>
<polygon fill="midnightblue" stroke="midnightblue" points="402.236,-54.5321 392.314,-58.2495 402.388,-61.5304 402.236,-54.5321"/>
</g>
<!-- Node7&#45;&gt;Node8 -->
<g id="edge8" class="edge"><title>Node7&#45;&gt;Node8</title>
<path fill="none" stroke="midnightblue" d="M522.783,-79.494C540.52,-74.2077 561.074,-68.0818 577.772,-63.1051"/>
<polygon fill="midnightblue" stroke="midnightblue" points="521.299,-76.284 512.716,-82.4945 523.299,-82.9924 521.299,-76.284"/>
</g>
<!-- Node10 -->
<g id="node10" class="node"><title>Node10</title>
<g id="a_node10"><a xlink:href="resource_8h.html#a22ecaa5a662f30da5a2241f91faf8929" target="_top" xlink:title="coap_handle_failed\l_notify">
<polygon fill="white" stroke="black" points="284,-0.5 284,-30.5 384,-30.5 384,-0.5 284,-0.5"/>
<text text-anchor="start" x="292" y="-18.5" font-family="Helvetica,sans-Serif" font-size="10.00">coap_handle_failed</text>
<text text-anchor="middle" x="334" y="-7.5" font-family="Helvetica,sans-Serif" font-size="10.00">_notify</text>
</a>
</g>
</g>
<!-- Node9&#45;&gt;Node10 -->
<g id="edge11" class="edge"><title>Node9&#45;&gt;Node10</title>
<path fill="none" stroke="midnightblue" d="M250.342,-15.5C261.556,-15.5 273.123,-15.5 283.922,-15.5"/>
<polygon fill="midnightblue" stroke="midnightblue" points="250.175,-12.0001 240.174,-15.5 250.174,-19.0001 250.175,-12.0001"/>
</g>
<!-- Node11 -->
<g id="node11" class="node"><title>Node11</title>
<g id="a_node11"><a xlink:href="net_8h.html#a9900c032b74bd57f67d489484a2b3207" target="_top" xlink:title="Handles retransmissions of confirmable messages. ">
<polygon fill="white" stroke="black" points="438.5,-6 438.5,-25 524.5,-25 524.5,-6 438.5,-6"/>
<text text-anchor="middle" x="481.5" y="-13" font-family="Helvetica,sans-Serif" font-size="10.00">coap_retransmit</text>
</a>
</g>
</g>
<!-- Node10&#45;&gt;Node11 -->
<g id="edge12" class="edge"><title>Node10&#45;&gt;Node11</title>
<path fill="none" stroke="midnightblue" d="M394.274,-15.5C408.958,-15.5 424.402,-15.5 438.098,-15.5"/>
<polygon fill="midnightblue" stroke="midnightblue" points="394.26,-12.0001 384.26,-15.5 394.26,-19.0001 394.26,-12.0001"/>
</g>
<!-- Node11&#45;&gt;Node8 -->
<g id="edge15" class="edge"><title>Node11&#45;&gt;Node8</title>
<path fill="none" stroke="midnightblue" d="M524.559,-28.0353C541.904,-33.2048 561.681,-39.0991 577.837,-43.9141"/>
<polygon fill="midnightblue" stroke="midnightblue" points="525.257,-24.5911 514.674,-25.089 523.257,-31.2995 525.257,-24.5911"/>
</g>
<!-- Node12 -->
<g id="node12" class="node"><title>Node12</title>
<g id="a_node12"><a xlink:href="net_8h.html#a231e9a81ac7c03c3e5c251824a76d7b9" target="_top" xlink:title="Returns 1 if there are no messages to send or to dispatch in the context&#39;s queues. ">
<polygon fill="white" stroke="black" points="571,-6 571,-25 651,-25 651,-6 571,-6"/>
<text text-anchor="middle" x="611" y="-13" font-family="Helvetica,sans-Serif" font-size="10.00">coap_can_exit</text>
</a>
</g>
</g>
<!-- Node11&#45;&gt;Node12 -->
<g id="edge13" class="edge"><title>Node11&#45;&gt;Node12</title>
<path fill="none" stroke="midnightblue" d="M534.625,-15.5C546.77,-15.5 559.497,-15.5 570.962,-15.5"/>
<polygon fill="midnightblue" stroke="midnightblue" points="534.602,-12.0001 524.602,-15.5 534.602,-19.0001 534.602,-12.0001"/>
</g>
<!-- Node13 -->
<g id="node13" class="node"><title>Node13</title>
<g id="a_node13"><a xlink:href="net_8h.html#ac58be1c374afa04d10810aef1d073315" target="_top" xlink:title="Removes the transaction identified by id from given queue. ">
<polygon fill="white" stroke="black" points="687,-6 687,-25 815,-25 815,-6 687,-6"/>
<text text-anchor="middle" x="751" y="-13" font-family="Helvetica,sans-Serif" font-size="10.00">coap_remove_transaction</text>
</a>
</g>
</g>
<!-- Node12&#45;&gt;Node13 -->
<g id="edge14" class="edge"><title>Node12&#45;&gt;Node13</title>
<path fill="none" stroke="midnightblue" d="M661.412,-15.5C669.699,-15.5 678.396,-15.5 686.969,-15.5"/>
<polygon fill="midnightblue" stroke="midnightblue" points="661.176,-12.0001 651.176,-15.5 661.176,-19.0001 661.176,-12.0001"/>
</g>
</g>
</svg>
