<?xml version="1.0" encoding="UTF-8" standalone="no"?>
<!DOCTYPE svg PUBLIC "-//W3C//DTD SVG 1.1//EN"
 "http://www.w3.org/Graphics/SVG/1.1/DTD/svg11.dtd">
<!-- Generated by graphviz version 2.38.0 (20140413.2041)
 -->
<!-- Title: coap_option_next Pages: 1 -->
<!--zoomable 398 -->
<svg id="main" version="1.1" xmlns="http://www.w3.org/2000/svg" xmlns:xlink="http://www.w3.org/1999/xlink" xml:space="preserve" onload="init(evt)">
<style type="text/css"><![CDATA[
.edge:hover path { stroke: red; }
.edge:hover polygon { stroke: red; fill: red; }
]]></style>
<script type="text/javascript"><![CDATA[
var edges = document.getElementsByTagName('g');
if (edges && edges.length) {
  for (var i=0;i<edges.length;i++) {
    if (edges[i].id.substr(0,4)=='edge') {
      edges[i].setAttribute('class','edge');
    }
  }
}
]]></script>
        <defs>
                <circle id="rim" cx="0" cy="0" r="7"/>
                <circle id="rim2" cx="0" cy="0" r="3.5"/>
                <g id="zoomPlus">
                        <use xlink:href="#rim" fill="#404040">
                                <set attributeName="fill" to="#808080" begin="zoomplus.mouseover" end="zoomplus.mouseout"/>
                        </use>
                        <path d="M-4,0h8M0,-4v8" fill="none" stroke="white" stroke-width="1.5" pointer-events="none"/>
                </g>
                <g id="zoomMin">
                        <use xlink:href="#rim" fill="#404040">
                                <set attributeName="fill" to="#808080" begin="zoomminus.mouseover" end="zoomminus.mouseout"/>
                        </use>
                        <path d="M-4,0h8" fill="none" stroke="white" stroke-width="1.5" pointer-events="none"/>
                </g>
                <g id="dirArrow">
                        <path fill="none" stroke="white" stroke-width="1.5" d="M0,-3.0v7 M-2.5,-0.5L0,-3.0L2.5,-0.5"/>
                </g>
               <g id="resetDef">
                       <use xlink:href="#rim2" fill="#404040">
                               <set attributeName="fill" to="#808080" begin="reset.mouseover" end="reset.mouseout"/>
                       </use>
               </g>
        </defs>

<script type="text/javascript">
var viewWidth = 1360;
var viewHeight = 398;
var sectionId = 'dynsection-21';
</script>
<script xlink:href="svgpan.js"/>
<svg id="graph" class="graph">
<g id="viewport">
<title>coap_option_next</title>
<polygon fill="white" stroke="none" points="-4,4 -4,-394 1356,-394 1356,4 -4,4"/>
<!-- Node295 -->
<g id="node1" class="node"><title>Node295</title>
<polygon fill="#bfbfbf" stroke="black" points="0,-133.5 0,-152.5 93,-152.5 93,-133.5 0,-133.5"/>
<text text-anchor="middle" x="46.5" y="-140.5" font-family="Helvetica,sans-Serif" font-size="10.00">coap_option_next</text>
</g>
<!-- Node296 -->
<g id="node2" class="node"><title>Node296</title>
<g id="a_node2"><a xlink:href="debug_8h.html#a88cca636643023b4867f9c3fd8f0c09c" target="_top" xlink:title="coap_show_pdu">
<polygon fill="white" stroke="black" points="136,-332.5 136,-351.5 223,-351.5 223,-332.5 136,-332.5"/>
<text text-anchor="middle" x="179.5" y="-339.5" font-family="Helvetica,sans-Serif" font-size="10.00">coap_show_pdu</text>
</a>
</g>
</g>
<!-- Node295&#45;&gt;Node296 -->
<g id="edge1" class="edge"><title>Node295&#45;&gt;Node296</title>
<path fill="none" stroke="midnightblue" d="M59.4024,-161.081C86.4466,-202.163 151.759,-301.378 172.245,-332.498"/>
<polygon fill="midnightblue" stroke="midnightblue" points="62.2404,-159.026 53.8184,-152.598 56.3935,-162.875 62.2404,-159.026"/>
</g>
<!-- Node300 -->
<g id="node6" class="node"><title>Node300</title>
<g id="a_node6"><a xlink:href="net_8h.html#a9c6736c0418c3adf5e7f6fb76f000cfe" target="_top" xlink:title="Verifies that pdu contains no unknown critical options. ">
<polygon fill="white" stroke="black" points="603,-0.5 603,-19.5 737,-19.5 737,-0.5 603,-0.5"/>
<text text-anchor="middle" x="670" y="-7.5" font-family="Helvetica,sans-Serif" font-size="10.00">coap_option_check_critical</text>
</a>
</g>
</g>
<!-- Node295&#45;&gt;Node300 -->
<g id="edge6" class="edge"><title>Node295&#45;&gt;Node300</title>
<path fill="none" stroke="midnightblue" d="M66.4575,-126.857C82.2283,-114.227 105.775,-97.1573 129,-87 288.645,-17.1805 497.765,-7.94818 602.767,-8.27787"/>
<polygon fill="midnightblue" stroke="midnightblue" points="64.06,-124.297 58.5473,-133.344 68.499,-129.709 64.06,-124.297"/>
</g>
<!-- Node305 -->
<g id="node11" class="node"><title>Node305</title>
<g id="a_node11"><a xlink:href="net_8h.html#ab7953637ad760f76ffb8060ddf47fe6a" target="_top" xlink:title="Creates a new ACK PDU with specified error code. ">
<polygon fill="white" stroke="black" points="266,-266.5 266,-285.5 397,-285.5 397,-266.5 266,-266.5"/>
<text text-anchor="middle" x="331.5" y="-273.5" font-family="Helvetica,sans-Serif" font-size="10.00">coap_new_error_response</text>
</a>
</g>
</g>
<!-- Node295&#45;&gt;Node305 -->
<g id="edge15" class="edge"><title>Node295&#45;&gt;Node305</title>
<path fill="none" stroke="midnightblue" d="M77.1387,-156.929C134.748,-184.003 260.509,-243.107 309.952,-266.343"/>
<polygon fill="midnightblue" stroke="midnightblue" points="78.3917,-153.651 67.8527,-152.565 75.4143,-159.986 78.3917,-153.651"/>
</g>
<!-- Node312 -->
<g id="node18" class="node"><title>Node312</title>
<g id="a_node18"><a xlink:href="group__opt__filter.html#gadbabeb7658e877010cbf77ed220e64ea" target="_top" xlink:title="Retrieves the first option of type type from pdu. ">
<polygon fill="white" stroke="black" points="129,-133.5 129,-152.5 230,-152.5 230,-133.5 129,-133.5"/>
<text text-anchor="middle" x="179.5" y="-140.5" font-family="Helvetica,sans-Serif" font-size="10.00">coap_check_option</text>
</a>
</g>
</g>
<!-- Node295&#45;&gt;Node312 -->
<g id="edge26" class="edge"><title>Node295&#45;&gt;Node312</title>
<path fill="none" stroke="midnightblue" d="M103.484,-143C111.938,-143 120.609,-143 128.916,-143"/>
<polygon fill="midnightblue" stroke="midnightblue" points="103.317,-139.5 93.3174,-143 103.317,-146.5 103.317,-139.5"/>
</g>
<!-- Node317 -->
<g id="node23" class="node"><title>Node317</title>
<g id="a_node23"><a xlink:href="resource_8h.html#a5cd67cb7b62f8e0e74c81fd722cc614d" target="_top" xlink:title="Calculates the hash key for the resource requested by the Uri&#45;Options of request. ...">
<polygon fill="white" stroke="black" points="441.5,-38.5 441.5,-57.5 558.5,-57.5 558.5,-38.5 441.5,-38.5"/>
<text text-anchor="middle" x="500" y="-45.5" font-family="Helvetica,sans-Serif" font-size="10.00">coap_hash_request_uri</text>
</a>
</g>
</g>
<!-- Node295&#45;&gt;Node317 -->
<g id="edge36" class="edge"><title>Node295&#45;&gt;Node317</title>
<path fill="none" stroke="midnightblue" d="M87.6239,-130.436C131.186,-117.16 202.981,-96.3363 266,-83 325.228,-70.4659 393.849,-60.7264 441.206,-54.7394"/>
<polygon fill="midnightblue" stroke="midnightblue" points="86.5105,-127.116 77.9756,-133.394 88.5623,-133.809 86.5105,-127.116"/>
</g>
<!-- Node297 -->
<g id="node3" class="node"><title>Node297</title>
<g id="a_node3"><a xlink:href="net_8h.html#a74c5ca78210280817a5586f61abfa5f3" target="_top" xlink:title="Parses and interprets a CoAP message with context ctx. ">
<polygon fill="white" stroke="black" points="924,-323.5 924,-342.5 1040,-342.5 1040,-323.5 924,-323.5"/>
<text text-anchor="middle" x="982" y="-330.5" font-family="Helvetica,sans-Serif" font-size="10.00">coap_handle_message</text>
</a>
</g>
</g>
<!-- Node296&#45;&gt;Node297 -->
<g id="edge2" class="edge"><title>Node296&#45;&gt;Node297</title>
<path fill="none" stroke="midnightblue" d="M228.856,-353.896C290.977,-368.111 402.329,-390 499,-390 499,-390 499,-390 671,-390 774.698,-390 894.738,-358.767 950.105,-342.541"/>
<polygon fill="midnightblue" stroke="midnightblue" points="229.483,-350.448 218.95,-351.598 227.901,-357.267 229.483,-350.448"/>
</g>
<!-- Node298 -->
<g id="node4" class="node"><title>Node298</title>
<g id="a_node4"><a xlink:href="net_8h.html#ade17f093221599e839345cf88b74b496" target="_top" xlink:title="Reads data from the network and tries to parse as CoAP PDU. ">
<polygon fill="white" stroke="black" points="1101,-304.5 1101,-323.5 1163,-323.5 1163,-304.5 1101,-304.5"/>
<text text-anchor="middle" x="1132" y="-311.5" font-family="Helvetica,sans-Serif" font-size="10.00">coap_read</text>
</a>
</g>
</g>
<!-- Node297&#45;&gt;Node298 -->
<g id="edge3" class="edge"><title>Node297&#45;&gt;Node298</title>
<path fill="none" stroke="midnightblue" d="M1050.51,-324.333C1068.13,-322.071 1086.24,-319.746 1100.82,-317.875"/>
<polygon fill="midnightblue" stroke="midnightblue" points="1049.69,-320.909 1040.22,-325.654 1050.58,-327.852 1049.69,-320.909"/>
</g>
<!-- Node299 -->
<g id="node5" class="node"><title>Node299</title>
<g id="a_node5"><a xlink:href="net_8h.html#a08ba53f8f554cf7a2559813ebde1bb1d" target="_top" xlink:title="Sends an RST message with code 0 for the specified request to dst. ">
<polygon fill="white" stroke="black" points="1248,-304.5 1248,-323.5 1328,-323.5 1328,-304.5 1248,-304.5"/>
<text text-anchor="middle" x="1288" y="-311.5" font-family="Helvetica,sans-Serif" font-size="10.00">coap_send_rst</text>
</a>
</g>
</g>
<!-- Node297&#45;&gt;Node299 -->
<g id="edge5" class="edge"><title>Node297&#45;&gt;Node299</title>
<path fill="none" stroke="midnightblue" d="M1050.32,-336.203C1090.4,-337.312 1142.21,-337.355 1188,-333 1207.86,-331.111 1229.67,-327.137 1247.74,-323.309"/>
<polygon fill="midnightblue" stroke="midnightblue" points="1050.24,-332.698 1040.13,-335.891 1050.02,-339.695 1050.24,-332.698"/>
</g>
<!-- Node298&#45;&gt;Node299 -->
<g id="edge4" class="edge"><title>Node298&#45;&gt;Node299</title>
<path fill="none" stroke="midnightblue" d="M1173.21,-314C1196.27,-314 1225.1,-314 1247.96,-314"/>
<polygon fill="midnightblue" stroke="midnightblue" points="1173.06,-310.5 1163.06,-314 1173.06,-317.5 1173.06,-310.5"/>
</g>
<!-- Node301 -->
<g id="node7" class="node"><title>Node301</title>
<g id="a_node7"><a xlink:href="net_8h.html#ab458d1c3b0f5d695dfa86b805ae8463d" target="_top" xlink:title="Dispatches the PDUs from the receive queue in given context. ">
<polygon fill="white" stroke="black" points="790.5,-209.5 790.5,-228.5 870.5,-228.5 870.5,-209.5 790.5,-209.5"/>
<text text-anchor="middle" x="830.5" y="-216.5" font-family="Helvetica,sans-Serif" font-size="10.00">coap_dispatch</text>
</a>
</g>
</g>
<!-- Node300&#45;&gt;Node301 -->
<g id="edge7" class="edge"><title>Node300&#45;&gt;Node301</title>
<path fill="none" stroke="midnightblue" d="M676.31,-29.8707C687.586,-68.3086 717.546,-153.173 773,-200 778.06,-204.273 784.122,-207.597 790.367,-210.18"/>
<polygon fill="midnightblue" stroke="midnightblue" points="679.589,-28.6033 673.51,-19.9262 672.851,-30.5005 679.589,-28.6033"/>
</g>
<!-- Node304 -->
<g id="node10" class="node"><title>Node304</title>
<g id="a_node10"><a xlink:href="net_8h.html#ac58be1c374afa04d10810aef1d073315" target="_top" xlink:title="Removes the transaction identified by id from given queue. ">
<polygon fill="white" stroke="black" points="1224,-114.5 1224,-133.5 1352,-133.5 1352,-114.5 1224,-114.5"/>
<text text-anchor="middle" x="1288" y="-121.5" font-family="Helvetica,sans-Serif" font-size="10.00">coap_remove_transaction</text>
</a>
</g>
</g>
<!-- Node300&#45;&gt;Node304 -->
<g id="edge14" class="edge"><title>Node300&#45;&gt;Node304</title>
<path fill="none" stroke="midnightblue" d="M747.32,-10.562C849.803,-13.236 1036.53,-24.8951 1188,-72 1220.26,-82.0312 1254.4,-102.449 1272.96,-114.5"/>
<polygon fill="midnightblue" stroke="midnightblue" points="747.144,-7.05695 737.064,-10.3173 746.977,-14.055 747.144,-7.05695"/>
</g>
<!-- Node301&#45;&gt;Node297 -->
<g id="edge12" class="edge"><title>Node301&#45;&gt;Node297</title>
<path fill="none" stroke="midnightblue" d="M852.057,-234.675C883.427,-258.597 942.33,-303.512 968.229,-323.262"/>
<polygon fill="midnightblue" stroke="midnightblue" points="854.063,-231.804 843.989,-228.523 849.819,-237.37 854.063,-231.804"/>
</g>
<!-- Node302 -->
<g id="node8" class="node"><title>Node302</title>
<g id="a_node8"><a xlink:href="net_8h.html#a9900c032b74bd57f67d489484a2b3207" target="_top" xlink:title="Handles retransmissions of confirmable messages. ">
<polygon fill="white" stroke="black" points="939,-190.5 939,-209.5 1025,-209.5 1025,-190.5 939,-190.5"/>
<text text-anchor="middle" x="982" y="-197.5" font-family="Helvetica,sans-Serif" font-size="10.00">coap_retransmit</text>
</a>
</g>
</g>
<!-- Node301&#45;&gt;Node302 -->
<g id="edge8" class="edge"><title>Node301&#45;&gt;Node302</title>
<path fill="none" stroke="midnightblue" d="M880.912,-212.72C899.66,-210.337 920.821,-207.648 938.84,-205.358"/>
<polygon fill="midnightblue" stroke="midnightblue" points="880.258,-209.275 870.779,-214.008 881.141,-216.219 880.258,-209.275"/>
</g>
<!-- Node301&#45;&gt;Node304 -->
<g id="edge13" class="edge"><title>Node301&#45;&gt;Node304</title>
<path fill="none" stroke="midnightblue" d="M880.937,-222.475C923.322,-224.626 985.922,-225.832 1040,-219 1107.38,-210.488 1125.11,-206.622 1188,-181 1220.14,-167.905 1254.6,-146.077 1273.19,-133.575"/>
<polygon fill="midnightblue" stroke="midnightblue" points="881.056,-218.977 870.881,-221.928 880.676,-225.966 881.056,-218.977"/>
</g>
<!-- Node302&#45;&gt;Node299 -->
<g id="edge11" class="edge"><title>Node302&#45;&gt;Node299</title>
<path fill="none" stroke="midnightblue" d="M1018.1,-213.164C1080,-236.375 1207.13,-284.049 1261.46,-304.423"/>
<polygon fill="midnightblue" stroke="midnightblue" points="1018.99,-209.758 1008.4,-209.523 1016.53,-216.312 1018.99,-209.758"/>
</g>
<!-- Node303 -->
<g id="node9" class="node"><title>Node303</title>
<g id="a_node9"><a xlink:href="net_8h.html#a231e9a81ac7c03c3e5c251824a76d7b9" target="_top" xlink:title="Returns 1 if there are no messages to send or to dispatch in the context&#39;s queues. ">
<polygon fill="white" stroke="black" points="1092,-152.5 1092,-171.5 1172,-171.5 1172,-152.5 1092,-152.5"/>
<text text-anchor="middle" x="1132" y="-159.5" font-family="Helvetica,sans-Serif" font-size="10.00">coap_can_exit</text>
</a>
</g>
</g>
<!-- Node302&#45;&gt;Node303 -->
<g id="edge9" class="edge"><title>Node302&#45;&gt;Node303</title>
<path fill="none" stroke="midnightblue" d="M1030.17,-187.888C1050.79,-182.596 1074.61,-176.479 1093.92,-171.52"/>
<polygon fill="midnightblue" stroke="midnightblue" points="1029.16,-184.534 1020.35,-190.411 1030.9,-191.314 1029.16,-184.534"/>
</g>
<!-- Node303&#45;&gt;Node304 -->
<g id="edge10" class="edge"><title>Node303&#45;&gt;Node304</title>
<path fill="none" stroke="midnightblue" d="M1181.79,-149.96C1203.31,-144.651 1228.23,-138.501 1248.42,-133.52"/>
<polygon fill="midnightblue" stroke="midnightblue" points="1180.73,-146.617 1171.86,-152.411 1182.41,-153.413 1180.73,-146.617"/>
</g>
<!-- Node305&#45;&gt;Node301 -->
<g id="edge24" class="edge"><title>Node305&#45;&gt;Node301</title>
<path fill="none" stroke="midnightblue" d="M362.828,-289.555C382.413,-297.552 408.689,-306.888 433,-311 566.403,-333.565 611.903,-346.541 737,-295 773.513,-279.957 806.78,-245.379 821.506,-228.55"/>
<polygon fill="midnightblue" stroke="midnightblue" points="364.091,-286.29 353.516,-285.649 361.383,-292.745 364.091,-286.29"/>
</g>
<!-- Node306 -->
<g id="node12" class="node"><title>Node306</title>
<g id="a_node12"><a xlink:href="net_8h.html#aa6569347c5926252d65dd69f2dcfe521" target="_top" xlink:title="Sends an error response with code code for request request to dst. ">
<polygon fill="white" stroke="black" points="455.5,-266.5 455.5,-285.5 544.5,-285.5 544.5,-266.5 455.5,-266.5"/>
<text text-anchor="middle" x="500" y="-273.5" font-family="Helvetica,sans-Serif" font-size="10.00">coap_send_error</text>
</a>
</g>
</g>
<!-- Node305&#45;&gt;Node306 -->
<g id="edge16" class="edge"><title>Node305&#45;&gt;Node306</title>
<path fill="none" stroke="midnightblue" d="M407.432,-276C423.751,-276 440.5,-276 455.138,-276"/>
<polygon fill="midnightblue" stroke="midnightblue" points="407.35,-272.5 397.35,-276 407.35,-279.5 407.35,-272.5"/>
</g>
<!-- Node307 -->
<g id="node13" class="node"><title>Node307</title>
<g id="a_node13"><a xlink:href="net_8h.html#ac09b38583adc73fd96e33e9c61eac39f" target="_top" xlink:title="Returns a new message id and updates context&#45;&gt;message_id accordingly. ">
<polygon fill="white" stroke="black" points="610.5,-266.5 610.5,-285.5 729.5,-285.5 729.5,-266.5 610.5,-266.5"/>
<text text-anchor="middle" x="670" y="-273.5" font-family="Helvetica,sans-Serif" font-size="10.00">coap_new_message_id</text>
</a>
</g>
</g>
<!-- Node305&#45;&gt;Node307 -->
<g id="edge25" class="edge"><title>Node305&#45;&gt;Node307</title>
<path fill="none" stroke="midnightblue" d="M383.429,-287.538C399.228,-290.601 416.757,-293.478 433,-295 492.296,-300.556 507.697,-300.476 567,-295 587.089,-293.145 609.124,-289.276 627.556,-285.511"/>
<polygon fill="midnightblue" stroke="midnightblue" points="383.82,-284.047 373.327,-285.511 382.443,-290.91 383.82,-284.047"/>
</g>
<!-- Node311 -->
<g id="node17" class="node"><title>Node311</title>
<g id="a_node17"><a xlink:href="net_8c.html#a13ff6a2308c8e167a66218e43b819df2" target="_top" xlink:title="handle_request">
<polygon fill="white" stroke="black" points="628.5,-171.5 628.5,-190.5 711.5,-190.5 711.5,-171.5 628.5,-171.5"/>
<text text-anchor="middle" x="670" y="-178.5" font-family="Helvetica,sans-Serif" font-size="10.00">handle_request</text>
</a>
</g>
</g>
<!-- Node305&#45;&gt;Node311 -->
<g id="edge22" class="edge"><title>Node305&#45;&gt;Node311</title>
<path fill="none" stroke="midnightblue" d="M380.998,-263.998C428.568,-252.033 503.063,-232.78 567,-214 592.179,-206.604 620.565,-197.344 640.986,-190.518"/>
<polygon fill="midnightblue" stroke="midnightblue" points="380.118,-260.61 371.269,-266.438 381.82,-267.4 380.118,-260.61"/>
</g>
<!-- Node306&#45;&gt;Node307 -->
<g id="edge17" class="edge"><title>Node306&#45;&gt;Node307</title>
<path fill="none" stroke="midnightblue" d="M554.854,-276C572.549,-276 592.302,-276 610.336,-276"/>
<polygon fill="midnightblue" stroke="midnightblue" points="554.701,-272.5 544.701,-276 554.701,-279.5 554.701,-272.5"/>
</g>
<!-- Node308 -->
<g id="node14" class="node"><title>Node308</title>
<g id="a_node14"><a xlink:href="resource_8c.html#ae1a91e254baca4f43b7896f54a8d9944" target="_top" xlink:title="coap_notify_observers">
<polygon fill="white" stroke="black" points="773,-171.5 773,-190.5 888,-190.5 888,-171.5 773,-171.5"/>
<text text-anchor="middle" x="830.5" y="-178.5" font-family="Helvetica,sans-Serif" font-size="10.00">coap_notify_observers</text>
</a>
</g>
</g>
<!-- Node307&#45;&gt;Node308 -->
<g id="edge18" class="edge"><title>Node307&#45;&gt;Node308</title>
<path fill="none" stroke="midnightblue" d="M689.068,-259.731C708.579,-242.863 741.16,-216.673 773,-200 779.968,-196.351 787.778,-193.195 795.316,-190.559"/>
<polygon fill="midnightblue" stroke="midnightblue" points="686.752,-257.107 681.546,-266.334 691.37,-262.367 686.752,-257.107"/>
</g>
<!-- Node309 -->
<g id="node15" class="node"><title>Node309</title>
<g id="a_node15"><a xlink:href="resource_8h.html#a579bcb559463d3a872831c18d8d9a1c1" target="_top" xlink:title="Checks for all known resources, if they are dirty and notifies subscribed observers. ">
<polygon fill="white" stroke="black" points="933,-152.5 933,-171.5 1031,-171.5 1031,-152.5 933,-152.5"/>
<text text-anchor="middle" x="982" y="-159.5" font-family="Helvetica,sans-Serif" font-size="10.00">coap_check_notify</text>
</a>
</g>
</g>
<!-- Node308&#45;&gt;Node309 -->
<g id="edge19" class="edge"><title>Node308&#45;&gt;Node309</title>
<path fill="none" stroke="midnightblue" d="M898.149,-172.53C909.787,-171.051 921.689,-169.538 932.71,-168.137"/>
<polygon fill="midnightblue" stroke="midnightblue" points="897.498,-169.084 888.02,-173.817 898.381,-176.028 897.498,-169.084"/>
</g>
<!-- Node309&#45;&gt;Node303 -->
<g id="edge20" class="edge"><title>Node309&#45;&gt;Node303</title>
<path fill="none" stroke="midnightblue" d="M1041.36,-162C1058.21,-162 1076.19,-162 1091.59,-162"/>
<polygon fill="midnightblue" stroke="midnightblue" points="1041.05,-158.5 1031.05,-162 1041.05,-165.5 1041.05,-158.5"/>
</g>
<!-- Node310 -->
<g id="node16" class="node"><title>Node310</title>
<g id="a_node16"><a xlink:href="resource_8h.html#a8f78ecf70cfbe5a69677bf3b97f0b776" target="_top" xlink:title="Registers the specified handler as message handler for the request type method. ">
<polygon fill="white" stroke="black" points="1076,-114.5 1076,-133.5 1188,-133.5 1188,-114.5 1076,-114.5"/>
<text text-anchor="middle" x="1132" y="-121.5" font-family="Helvetica,sans-Serif" font-size="10.00">coap_register_handler</text>
</a>
</g>
</g>
<!-- Node309&#45;&gt;Node310 -->
<g id="edge21" class="edge"><title>Node309&#45;&gt;Node310</title>
<path fill="none" stroke="midnightblue" d="M1030.17,-149.888C1050.79,-144.596 1074.61,-138.479 1093.92,-133.52"/>
<polygon fill="midnightblue" stroke="midnightblue" points="1029.16,-146.534 1020.35,-152.411 1030.9,-153.314 1029.16,-146.534"/>
</g>
<!-- Node311&#45;&gt;Node301 -->
<g id="edge23" class="edge"><title>Node311&#45;&gt;Node301</title>
<path fill="none" stroke="midnightblue" d="M720.997,-192.987C743.385,-198.354 769.397,-204.591 790.339,-209.611"/>
<polygon fill="midnightblue" stroke="midnightblue" points="721.537,-189.517 710.996,-190.589 719.905,-196.324 721.537,-189.517"/>
</g>
<!-- Node312&#45;&gt;Node311 -->
<g id="edge35" class="edge"><title>Node312&#45;&gt;Node311</title>
<path fill="none" stroke="midnightblue" d="M205.87,-157.461C222.416,-166.077 244.803,-176.236 266,-181 395.698,-210.151 554.865,-196.031 628.315,-186.813"/>
<polygon fill="midnightblue" stroke="midnightblue" points="207.321,-154.268 196.855,-152.619 204.008,-160.434 207.321,-154.268"/>
</g>
<!-- Node313 -->
<g id="node19" class="node"><title>Node313</title>
<g id="a_node19"><a xlink:href="group__block.html#ga265adcc610026896a5e8a046bcc359ca" target="_top" xlink:title="Initializes block from pdu. ">
<polygon fill="white" stroke="black" points="289,-114.5 289,-133.5 374,-133.5 374,-114.5 289,-114.5"/>
<text text-anchor="middle" x="331.5" y="-121.5" font-family="Helvetica,sans-Serif" font-size="10.00">coap_get_block</text>
</a>
</g>
</g>
<!-- Node312&#45;&gt;Node313 -->
<g id="edge27" class="edge"><title>Node312&#45;&gt;Node313</title>
<path fill="none" stroke="midnightblue" d="M239.989,-135.465C256.238,-133.407 273.503,-131.22 288.55,-129.314"/>
<polygon fill="midnightblue" stroke="midnightblue" points="239.512,-131.997 230.031,-136.726 240.392,-138.942 239.512,-131.997"/>
</g>
<!-- Node315 -->
<g id="node21" class="node"><title>Node315</title>
<g id="a_node21"><a xlink:href="net_8h.html#a4bf688cc4467cb91b6ace43e735ffafa" target="_top" xlink:title="Creates a new response for given request with the contents of .well&#45;known/core. ">
<polygon fill="white" stroke="black" points="433,-76.5 433,-95.5 567,-95.5 567,-76.5 433,-76.5"/>
<text text-anchor="middle" x="500" y="-83.5" font-family="Helvetica,sans-Serif" font-size="10.00">coap_wellknown_response</text>
</a>
</g>
</g>
<!-- Node312&#45;&gt;Node315 -->
<g id="edge32" class="edge"><title>Node312&#45;&gt;Node315</title>
<path fill="none" stroke="midnightblue" d="M206.594,-128.636C223.115,-120.25 245.211,-110.304 266,-105 321.056,-90.9538 385.579,-86.5883 432.748,-85.516"/>
<polygon fill="midnightblue" stroke="midnightblue" points="204.81,-125.619 197.563,-133.347 208.048,-131.825 204.81,-125.619"/>
</g>
<!-- Node316 -->
<g id="node22" class="node"><title>Node316</title>
<g id="a_node22"><a xlink:href="net_8c.html#aa708f479d33a6ca76bf214a0e0e42de4" target="_top" xlink:title="Checks for No&#45;Response option in given request and returns 1 if response should be suppressed accordi...">
<polygon fill="white" stroke="black" points="295.5,-152.5 295.5,-171.5 367.5,-171.5 367.5,-152.5 295.5,-152.5"/>
<text text-anchor="middle" x="331.5" y="-159.5" font-family="Helvetica,sans-Serif" font-size="10.00">no_response</text>
</a>
</g>
</g>
<!-- Node312&#45;&gt;Node316 -->
<g id="edge33" class="edge"><title>Node312&#45;&gt;Node316</title>
<path fill="none" stroke="midnightblue" d="M239.97,-150.533C258.7,-152.905 278.78,-155.449 295.259,-157.536"/>
<polygon fill="midnightblue" stroke="midnightblue" points="240.392,-147.058 230.031,-149.274 239.512,-154.003 240.392,-147.058"/>
</g>
<!-- Node314 -->
<g id="node20" class="node"><title>Node314</title>
<g id="a_node20"><a xlink:href="group__block.html#ga86f7b29ef40d806ea3be9d0ff50963e7" target="_top" xlink:title="Sets the More&#45;bit in block_opt. ">
<polygon fill="white" stroke="black" points="441.5,-114.5 441.5,-133.5 558.5,-133.5 558.5,-114.5 441.5,-114.5"/>
<text text-anchor="middle" x="500" y="-121.5" font-family="Helvetica,sans-Serif" font-size="10.00">coap_opt_block_set_m</text>
</a>
</g>
</g>
<!-- Node313&#45;&gt;Node314 -->
<g id="edge28" class="edge"><title>Node313&#45;&gt;Node314</title>
<path fill="none" stroke="midnightblue" d="M384.165,-124C402.28,-124 422.739,-124 441.317,-124"/>
<polygon fill="midnightblue" stroke="midnightblue" points="384.086,-120.5 374.085,-124 384.085,-127.5 384.086,-120.5"/>
</g>
<!-- Node313&#45;&gt;Node315 -->
<g id="edge29" class="edge"><title>Node313&#45;&gt;Node315</title>
<path fill="none" stroke="midnightblue" d="M383.921,-112.264C407.509,-106.881 435.11,-100.581 457.368,-95.5017"/>
<polygon fill="midnightblue" stroke="midnightblue" points="383.056,-108.872 374.085,-114.509 384.614,-115.696 383.056,-108.872"/>
</g>
<!-- Node315&#45;&gt;Node304 -->
<g id="edge31" class="edge"><title>Node315&#45;&gt;Node304</title>
<path fill="none" stroke="midnightblue" d="M577.465,-86C644.043,-86 743.154,-86 829.5,-86 829.5,-86 829.5,-86 983,-86 1074.5,-86 1097.41,-92.1395 1188,-105 1205.85,-107.534 1225.36,-111.104 1242.31,-114.467"/>
<polygon fill="midnightblue" stroke="midnightblue" points="577.066,-82.5001 567.066,-86 577.066,-89.5001 577.066,-82.5001"/>
</g>
<!-- Node315&#45;&gt;Node311 -->
<g id="edge30" class="edge"><title>Node315&#45;&gt;Node311</title>
<path fill="none" stroke="midnightblue" d="M552.407,-98.8076C557.433,-100.648 562.378,-102.708 567,-105 603.997,-123.345 641.37,-155.442 658.828,-171.411"/>
<polygon fill="midnightblue" stroke="midnightblue" points="553.297,-95.4142 542.703,-95.5341 551.06,-102.047 553.297,-95.4142"/>
</g>
<!-- Node316&#45;&gt;Node311 -->
<g id="edge34" class="edge"><title>Node316&#45;&gt;Node311</title>
<path fill="none" stroke="midnightblue" d="M377.637,-164.549C443.514,-168.268 565.021,-175.129 628.294,-178.702"/>
<polygon fill="midnightblue" stroke="midnightblue" points="377.741,-161.049 367.559,-163.98 377.346,-168.038 377.741,-161.049"/>
</g>
<!-- Node317&#45;&gt;Node310 -->
<g id="edge38" class="edge"><title>Node317&#45;&gt;Node310</title>
<path fill="none" stroke="midnightblue" d="M568.817,-56.1811C694.239,-71.3114 960.153,-103.39 1075.59,-117.315"/>
<polygon fill="midnightblue" stroke="midnightblue" points="568.926,-52.6689 558.578,-54.946 568.087,-59.6185 568.926,-52.6689"/>
</g>
<!-- Node317&#45;&gt;Node311 -->
<g id="edge37" class="edge"><title>Node317&#45;&gt;Node311</title>
<path fill="none" stroke="midnightblue" d="M556.286,-61.3173C560.02,-62.9988 563.631,-64.8851 567,-67 612.21,-95.382 649.306,-149.473 663.159,-171.405"/>
<polygon fill="midnightblue" stroke="midnightblue" points="557.406,-57.9963 546.821,-57.5463 554.815,-64.4991 557.406,-57.9963"/>
</g>
</g>
</svg>
        <g id="navigator" transform="translate(0 0)" fill="#404254">
                <rect fill="#f2f5e9" fill-opacity="0.5" stroke="#606060" stroke-width=".5" x="0" y="0" width="60" height="60"/>
                <use id="zoomplus" xlink:href="#zoomPlus" x="17" y="9" onmousedown="handleZoom(evt,'in')"/>
                <use id="zoomminus" xlink:href="#zoomMin" x="42" y="9" onmousedown="handleZoom(evt,'out')"/>
                <use id="reset" xlink:href="#resetDef" x="30" y="36" onmousedown="handleReset()"/>
                <g id="arrowUp" xlink:href="#dirArrow" transform="translate(30 24)" onmousedown="handlePan(0,-1)">
                  <use xlink:href="#rim" fill="#404040">
                        <set attributeName="fill" to="#808080" begin="arrowUp.mouseover" end="arrowUp.mouseout"/>
                  </use>
                  <path fill="none" stroke="white" stroke-width="1.5" d="M0,-3.0v7 M-2.5,-0.5L0,-3.0L2.5,-0.5"/>
                </g>
                <g id="arrowRight" xlink:href="#dirArrow" transform="rotate(90) translate(36 -43)" onmousedown="handlePan(1,0)">
                  <use xlink:href="#rim" fill="#404040">
                        <set attributeName="fill" to="#808080" begin="arrowRight.mouseover" end="arrowRight.mouseout"/>
                  </use>
                  <path fill="none" stroke="white" stroke-width="1.5" d="M0,-3.0v7 M-2.5,-0.5L0,-3.0L2.5,-0.5"/>
                </g>
                <g id="arrowDown" xlink:href="#dirArrow" transform="rotate(180) translate(-30 -48)" onmousedown="handlePan(0,1)">
                  <use xlink:href="#rim" fill="#404040">
                        <set attributeName="fill" to="#808080" begin="arrowDown.mouseover" end="arrowDown.mouseout"/>
                  </use>
                  <path fill="none" stroke="white" stroke-width="1.5" d="M0,-3.0v7 M-2.5,-0.5L0,-3.0L2.5,-0.5"/>
                </g>
                <g id="arrowLeft" xlink:href="#dirArrow" transform="rotate(270) translate(-36 17)" onmousedown="handlePan(-1,0)">
                  <use xlink:href="#rim" fill="#404040">
                        <set attributeName="fill" to="#808080" begin="arrowLeft.mouseover" end="arrowLeft.mouseout"/>
                  </use>
                  <path fill="none" stroke="white" stroke-width="1.5" d="M0,-3.0v7 M-2.5,-0.5L0,-3.0L2.5,-0.5"/>
                </g>
        </g>
        <svg viewBox="0 0 15 15" width="100%" height="30px" preserveAspectRatio="xMaxYMin meet">
         <g id="arrow_out" transform="scale(0.3 0.3)">
          <a xlink:href="group__opt__filter_ga182fdeffe0b37e1ab0dc6ba8494abe4a_icgraph_org.svg" target="_base">
           <rect id="button" ry="5" rx="5" y="6" x="6" height="38" width="38"
                fill="#f2f5e9" fill-opacity="0.5" stroke="#606060" stroke-width="1.0"/>
           <path id="arrow"
             d="M 11.500037,31.436501 C 11.940474,20.09759 22.043105,11.32322 32.158766,21.979434 L 37.068811,17.246167 C 37.068811,17.246167 37.088388,32 37.088388,32 L 22.160133,31.978069 C 22.160133,31.978069 26.997745,27.140456 26.997745,27.140456 C 18.528582,18.264221 13.291696,25.230495 11.500037,31.436501 z"
             style="fill:#404040;"/>
          </a>
         </g>
        </svg>
</svg>
