<?xml version="1.0" encoding="UTF-8" standalone="no"?>
<!DOCTYPE svg PUBLIC "-//W3C//DTD SVG 1.1//EN"
 "http://www.w3.org/Graphics/SVG/1.1/DTD/svg11.dtd">
<!-- Generated by graphviz version 2.38.0 (20140413.2041)
 -->
<!-- Title: coap_option_clrb Pages: 1 -->
<!--zoomable 152 -->
<svg id="main" version="1.1" xmlns="http://www.w3.org/2000/svg" xmlns:xlink="http://www.w3.org/1999/xlink" xml:space="preserve" onload="init(evt)">
<style type="text/css"><![CDATA[
.edge:hover path { stroke: red; }
.edge:hover polygon { stroke: red; fill: red; }
]]></style>
<script type="text/javascript"><![CDATA[
var edges = document.getElementsByTagName('g');
if (edges && edges.length) {
  for (var i=0;i<edges.length;i++) {
    if (edges[i].id.substr(0,4)=='edge') {
      edges[i].setAttribute('class','edge');
    }
  }
}
]]></script>
        <defs>
                <circle id="rim" cx="0" cy="0" r="7"/>
                <circle id="rim2" cx="0" cy="0" r="3.5"/>
                <g id="zoomPlus">
                        <use xlink:href="#rim" fill="#404040">
                                <set attributeName="fill" to="#808080" begin="zoomplus.mouseover" end="zoomplus.mouseout"/>
                        </use>
                        <path d="M-4,0h8M0,-4v8" fill="none" stroke="white" stroke-width="1.5" pointer-events="none"/>
                </g>
                <g id="zoomMin">
                        <use xlink:href="#rim" fill="#404040">
                                <set attributeName="fill" to="#808080" begin="zoomminus.mouseover" end="zoomminus.mouseout"/>
                        </use>
                        <path d="M-4,0h8" fill="none" stroke="white" stroke-width="1.5" pointer-events="none"/>
                </g>
                <g id="dirArrow">
                        <path fill="none" stroke="white" stroke-width="1.5" d="M0,-3.0v7 M-2.5,-0.5L0,-3.0L2.5,-0.5"/>
                </g>
               <g id="resetDef">
                       <use xlink:href="#rim2" fill="#404040">
                               <set attributeName="fill" to="#808080" begin="reset.mouseover" end="reset.mouseout"/>
                       </use>
               </g>
        </defs>

<script type="text/javascript">
var viewWidth = 1143;
var viewHeight = 152;
var sectionId = 'dynsection-8';
</script>
<script xlink:href="svgpan.js"/>
<svg id="graph" class="graph">
<g id="viewport">
<title>coap_option_clrb</title>
<polygon fill="white" stroke="none" points="-4,4 -4,-148.492 1139,-148.492 1139,4 -4,4"/>
<!-- Node115 -->
<g id="node1" class="node"><title>Node115</title>
<polygon fill="#bfbfbf" stroke="black" points="0,-67.9922 0,-86.9922 90,-86.9922 90,-67.9922 0,-67.9922"/>
<text text-anchor="middle" x="45" y="-74.9922" font-family="Helvetica,sans-Serif" font-size="10.00">coap_option_clrb</text>
</g>
<!-- Node116 -->
<g id="node2" class="node"><title>Node116</title>
<g id="a_node2"><a xlink:href="net_8h.html#ab7953637ad760f76ffb8060ddf47fe6a" target="_top" xlink:title="Creates a new ACK PDU with specified error code. ">
<polygon fill="white" stroke="black" points="126,-67.9922 126,-86.9922 257,-86.9922 257,-67.9922 126,-67.9922"/>
<text text-anchor="middle" x="191.5" y="-74.9922" font-family="Helvetica,sans-Serif" font-size="10.00">coap_new_error_response</text>
</a>
</g>
</g>
<!-- Node115&#45;&gt;Node116 -->
<g id="edge1" class="edge"><title>Node115&#45;&gt;Node116</title>
<path fill="none" stroke="midnightblue" d="M100.167,-77.4922C108.556,-77.4922 117.293,-77.4922 125.884,-77.4922"/>
<polygon fill="midnightblue" stroke="midnightblue" points="100.14,-73.9923 90.1399,-77.4922 100.14,-80.9923 100.14,-73.9923"/>
</g>
<!-- Node117 -->
<g id="node3" class="node"><title>Node117</title>
<g id="a_node3"><a xlink:href="net_8h.html#aa6569347c5926252d65dd69f2dcfe521" target="_top" xlink:title="Sends an error response with code code for request request to dst. ">
<polygon fill="white" stroke="black" points="293,-124.992 293,-143.992 382,-143.992 382,-124.992 293,-124.992"/>
<text text-anchor="middle" x="337.5" y="-131.992" font-family="Helvetica,sans-Serif" font-size="10.00">coap_send_error</text>
</a>
</g>
</g>
<!-- Node116&#45;&gt;Node117 -->
<g id="edge2" class="edge"><title>Node116&#45;&gt;Node117</title>
<path fill="none" stroke="midnightblue" d="M226.203,-90.8331C252.614,-101.287 288.721,-115.58 312.319,-124.921"/>
<polygon fill="midnightblue" stroke="midnightblue" points="227.189,-87.4589 216.602,-87.0327 224.612,-93.9676 227.189,-87.4589"/>
</g>
<!-- Node118 -->
<g id="node4" class="node"><title>Node118</title>
<g id="a_node4"><a xlink:href="net_8h.html#ac09b38583adc73fd96e33e9c61eac39f" target="_top" xlink:title="Returns a new message id and updates context&#45;&gt;message_id accordingly. ">
<polygon fill="white" stroke="black" points="418,-119.992 418,-138.992 537,-138.992 537,-119.992 418,-119.992"/>
<text text-anchor="middle" x="477.5" y="-126.992" font-family="Helvetica,sans-Serif" font-size="10.00">coap_new_message_id</text>
</a>
</g>
</g>
<!-- Node116&#45;&gt;Node118 -->
<g id="edge20" class="edge"><title>Node116&#45;&gt;Node118</title>
<path fill="none" stroke="midnightblue" d="M254.464,-88.8377C305.251,-98.1368 376.322,-111.15 424.26,-119.927"/>
<polygon fill="midnightblue" stroke="midnightblue" points="255.057,-85.3882 244.59,-87.0298 253.796,-92.2737 255.057,-85.3882"/>
</g>
<!-- Node124 -->
<g id="node10" class="node"><title>Node124</title>
<g id="a_node10"><a xlink:href="net_8c.html#a13ff6a2308c8e167a66218e43b819df2" target="_top" xlink:title="handle_request">
<polygon fill="white" stroke="black" points="296,-48.9922 296,-67.9922 379,-67.9922 379,-48.9922 296,-48.9922"/>
<text text-anchor="middle" x="337.5" y="-55.9922" font-family="Helvetica,sans-Serif" font-size="10.00">handle_request</text>
</a>
</g>
</g>
<!-- Node116&#45;&gt;Node124 -->
<g id="edge9" class="edge"><title>Node116&#45;&gt;Node124</title>
<path fill="none" stroke="midnightblue" d="M267.534,-67.5919C277.321,-66.3005 287.033,-65.0191 295.945,-63.8432"/>
<polygon fill="midnightblue" stroke="midnightblue" points="266.795,-64.159 257.339,-68.9371 267.711,-71.0988 266.795,-64.159"/>
</g>
<!-- Node125 -->
<g id="node11" class="node"><title>Node125</title>
<g id="a_node11"><a xlink:href="net_8h.html#ab458d1c3b0f5d695dfa86b805ae8463d" target="_top" xlink:title="Dispatches the PDUs from the receive queue in given context. ">
<polygon fill="white" stroke="black" points="437.5,-14.9922 437.5,-33.9922 517.5,-33.9922 517.5,-14.9922 437.5,-14.9922"/>
<text text-anchor="middle" x="477.5" y="-21.9922" font-family="Helvetica,sans-Serif" font-size="10.00">coap_dispatch</text>
</a>
</g>
</g>
<!-- Node116&#45;&gt;Node125 -->
<g id="edge19" class="edge"><title>Node116&#45;&gt;Node125</title>
<path fill="none" stroke="midnightblue" d="M222.095,-63.7884C241.764,-55.3151 268.403,-45.032 293,-39.4922 341.957,-28.4659 399.882,-25.3223 437.362,-24.54"/>
<polygon fill="midnightblue" stroke="midnightblue" points="220.508,-60.663 212.767,-67.8965 223.329,-67.0693 220.508,-60.663"/>
</g>
<!-- Node117&#45;&gt;Node118 -->
<g id="edge3" class="edge"><title>Node117&#45;&gt;Node118</title>
<path fill="none" stroke="midnightblue" d="M392.256,-132.545C400.689,-132.239 409.442,-131.922 417.976,-131.613"/>
<polygon fill="midnightblue" stroke="midnightblue" points="392.031,-129.05 382.164,-132.91 392.284,-136.046 392.031,-129.05"/>
</g>
<!-- Node119 -->
<g id="node5" class="node"><title>Node119</title>
<g id="a_node5"><a xlink:href="resource_8c.html#ae1a91e254baca4f43b7896f54a8d9944" target="_top" xlink:title="coap_notify_observers">
<polygon fill="white" stroke="black" points="573.5,-119.992 573.5,-138.992 688.5,-138.992 688.5,-119.992 573.5,-119.992"/>
<text text-anchor="middle" x="631" y="-126.992" font-family="Helvetica,sans-Serif" font-size="10.00">coap_notify_observers</text>
</a>
</g>
</g>
<!-- Node118&#45;&gt;Node119 -->
<g id="edge4" class="edge"><title>Node118&#45;&gt;Node119</title>
<path fill="none" stroke="midnightblue" d="M547.162,-129.492C555.829,-129.492 564.62,-129.492 573.077,-129.492"/>
<polygon fill="midnightblue" stroke="midnightblue" points="547.074,-125.992 537.074,-129.492 547.074,-132.992 547.074,-125.992"/>
</g>
<!-- Node120 -->
<g id="node6" class="node"><title>Node120</title>
<g id="a_node6"><a xlink:href="resource_8h.html#a579bcb559463d3a872831c18d8d9a1c1" target="_top" xlink:title="Checks for all known resources, if they are dirty and notifies subscribed observers. ">
<polygon fill="white" stroke="black" points="725,-119.992 725,-138.992 823,-138.992 823,-119.992 725,-119.992"/>
<text text-anchor="middle" x="774" y="-126.992" font-family="Helvetica,sans-Serif" font-size="10.00">coap_check_notify</text>
</a>
</g>
</g>
<!-- Node119&#45;&gt;Node120 -->
<g id="edge5" class="edge"><title>Node119&#45;&gt;Node120</title>
<path fill="none" stroke="midnightblue" d="M698.722,-129.492C707.456,-129.492 716.267,-129.492 724.618,-129.492"/>
<polygon fill="midnightblue" stroke="midnightblue" points="698.538,-125.992 688.538,-129.492 698.538,-132.992 698.538,-125.992"/>
</g>
<!-- Node121 -->
<g id="node7" class="node"><title>Node121</title>
<g id="a_node7"><a xlink:href="net_8h.html#a231e9a81ac7c03c3e5c251824a76d7b9" target="_top" xlink:title="Returns 1 if there are no messages to send or to dispatch in the context&#39;s queues. ">
<polygon fill="white" stroke="black" points="875,-81.9922 875,-100.992 955,-100.992 955,-81.9922 875,-81.9922"/>
<text text-anchor="middle" x="915" y="-88.9922" font-family="Helvetica,sans-Serif" font-size="10.00">coap_can_exit</text>
</a>
</g>
</g>
<!-- Node120&#45;&gt;Node121 -->
<g id="edge6" class="edge"><title>Node120&#45;&gt;Node121</title>
<path fill="none" stroke="midnightblue" d="M819.795,-117.246C838.955,-112.008 860.994,-105.983 878.936,-101.078"/>
<polygon fill="midnightblue" stroke="midnightblue" points="818.799,-113.89 810.076,-119.903 820.645,-120.642 818.799,-113.89"/>
</g>
<!-- Node123 -->
<g id="node9" class="node"><title>Node123</title>
<g id="a_node9"><a xlink:href="resource_8h.html#a8f78ecf70cfbe5a69677bf3b97f0b776" target="_top" xlink:title="Registers the specified handler as message handler for the request type method. ">
<polygon fill="white" stroke="black" points="859,-119.992 859,-138.992 971,-138.992 971,-119.992 859,-119.992"/>
<text text-anchor="middle" x="915" y="-126.992" font-family="Helvetica,sans-Serif" font-size="10.00">coap_register_handler</text>
</a>
</g>
</g>
<!-- Node120&#45;&gt;Node123 -->
<g id="edge8" class="edge"><title>Node120&#45;&gt;Node123</title>
<path fill="none" stroke="midnightblue" d="M833.332,-129.492C841.737,-129.492 850.366,-129.492 858.709,-129.492"/>
<polygon fill="midnightblue" stroke="midnightblue" points="833.225,-125.992 823.225,-129.492 833.225,-132.992 833.225,-125.992"/>
</g>
<!-- Node122 -->
<g id="node8" class="node"><title>Node122</title>
<g id="a_node8"><a xlink:href="net_8h.html#ac58be1c374afa04d10810aef1d073315" target="_top" xlink:title="Removes the transaction identified by id from given queue. ">
<polygon fill="white" stroke="black" points="1007,-24.9922 1007,-43.9922 1135,-43.9922 1135,-24.9922 1007,-24.9922"/>
<text text-anchor="middle" x="1071" y="-31.9922" font-family="Helvetica,sans-Serif" font-size="10.00">coap_remove_transaction</text>
</a>
</g>
</g>
<!-- Node121&#45;&gt;Node122 -->
<g id="edge7" class="edge"><title>Node121&#45;&gt;Node122</title>
<path fill="none" stroke="midnightblue" d="M953.842,-78.6082C959.602,-76.5929 965.467,-74.5092 971,-72.4922 996.599,-63.1606 1025.69,-51.9179 1045.68,-44.0928"/>
<polygon fill="midnightblue" stroke="midnightblue" points="952.626,-75.3253 944.328,-81.9116 954.922,-81.9381 952.626,-75.3253"/>
</g>
<!-- Node124&#45;&gt;Node125 -->
<g id="edge10" class="edge"><title>Node124&#45;&gt;Node125</title>
<path fill="none" stroke="midnightblue" d="M387.302,-46.4686C403.762,-42.4131 421.904,-37.9433 437.505,-34.0996"/>
<polygon fill="midnightblue" stroke="midnightblue" points="386.18,-43.1401 377.308,-48.9308 387.855,-49.9369 386.18,-43.1401"/>
</g>
<!-- Node125&#45;&gt;Node122 -->
<g id="edge18" class="edge"><title>Node125&#45;&gt;Node122</title>
<path fill="none" stroke="midnightblue" d="M526.781,-12.8675C541.525,-9.83727 557.846,-7.00048 573,-5.4922 730.392,10.1735 916.73,-11.3769 1010.2,-24.9412"/>
<polygon fill="midnightblue" stroke="midnightblue" points="525.91,-9.47444 516.86,-14.9823 527.37,-16.3206 525.91,-9.47444"/>
</g>
<!-- Node126 -->
<g id="node12" class="node"><title>Node126</title>
<g id="a_node12"><a xlink:href="net_8h.html#a9900c032b74bd57f67d489484a2b3207" target="_top" xlink:title="Handles retransmissions of confirmable messages. ">
<polygon fill="white" stroke="black" points="731,-81.9922 731,-100.992 817,-100.992 817,-81.9922 731,-81.9922"/>
<text text-anchor="middle" x="774" y="-88.9922" font-family="Helvetica,sans-Serif" font-size="10.00">coap_retransmit</text>
</a>
</g>
</g>
<!-- Node125&#45;&gt;Node126 -->
<g id="edge11" class="edge"><title>Node125&#45;&gt;Node126</title>
<path fill="none" stroke="midnightblue" d="M527.441,-35.6264C584.283,-48.5583 677.109,-69.6766 730.871,-81.9078"/>
<polygon fill="midnightblue" stroke="midnightblue" points="528.135,-32.1949 517.607,-33.3893 526.582,-39.0205 528.135,-32.1949"/>
</g>
<!-- Node128 -->
<g id="node14" class="node"><title>Node128</title>
<g id="a_node14"><a xlink:href="net_8h.html#a74c5ca78210280817a5586f61abfa5f3" target="_top" xlink:title="Parses and interprets a CoAP message with context ctx. ">
<polygon fill="white" stroke="black" points="573,-14.9922 573,-33.9922 689,-33.9922 689,-14.9922 573,-14.9922"/>
<text text-anchor="middle" x="631" y="-21.9922" font-family="Helvetica,sans-Serif" font-size="10.00">coap_handle_message</text>
</a>
</g>
</g>
<!-- Node125&#45;&gt;Node128 -->
<g id="edge14" class="edge"><title>Node125&#45;&gt;Node128</title>
<path fill="none" stroke="midnightblue" d="M527.708,-24.4922C542.111,-24.4922 557.98,-24.4922 572.832,-24.4922"/>
<polygon fill="midnightblue" stroke="midnightblue" points="527.515,-20.9923 517.515,-24.4922 527.515,-27.9923 527.515,-20.9923"/>
</g>
<!-- Node126&#45;&gt;Node121 -->
<g id="edge12" class="edge"><title>Node126&#45;&gt;Node121</title>
<path fill="none" stroke="midnightblue" d="M827.246,-91.4922C843.05,-91.4922 860.123,-91.4922 874.909,-91.4922"/>
<polygon fill="midnightblue" stroke="midnightblue" points="827.082,-87.9923 817.082,-91.4922 827.082,-94.9923 827.082,-87.9923"/>
</g>
<!-- Node127 -->
<g id="node13" class="node"><title>Node127</title>
<g id="a_node13"><a xlink:href="net_8h.html#a08ba53f8f554cf7a2559813ebde1bb1d" target="_top" xlink:title="Sends an RST message with code 0 for the specified request to dst. ">
<polygon fill="white" stroke="black" points="875,-43.9922 875,-62.9922 955,-62.9922 955,-43.9922 875,-43.9922"/>
<text text-anchor="middle" x="915" y="-50.9922" font-family="Helvetica,sans-Serif" font-size="10.00">coap_send_rst</text>
</a>
</g>
</g>
<!-- Node126&#45;&gt;Node127 -->
<g id="edge13" class="edge"><title>Node126&#45;&gt;Node127</title>
<path fill="none" stroke="midnightblue" d="M819.795,-79.246C838.955,-74.0082 860.994,-67.9831 878.936,-63.0781"/>
<polygon fill="midnightblue" stroke="midnightblue" points="818.799,-75.89 810.076,-81.9032 820.645,-82.6422 818.799,-75.89"/>
</g>
<!-- Node128&#45;&gt;Node127 -->
<g id="edge17" class="edge"><title>Node128&#45;&gt;Node127</title>
<path fill="none" stroke="midnightblue" d="M699.13,-25.4905C735.848,-26.6681 782.065,-29.1792 823,-34.4922 840.125,-36.715 858.833,-40.3989 874.807,-43.9342"/>
<polygon fill="midnightblue" stroke="midnightblue" points="699.137,-21.9893 689.038,-25.1925 698.931,-28.9863 699.137,-21.9893"/>
</g>
<!-- Node129 -->
<g id="node15" class="node"><title>Node129</title>
<g id="a_node15"><a xlink:href="net_8h.html#ade17f093221599e839345cf88b74b496" target="_top" xlink:title="Reads data from the network and tries to parse as CoAP PDU. ">
<polygon fill="white" stroke="black" points="743,-43.9922 743,-62.9922 805,-62.9922 805,-43.9922 743,-43.9922"/>
<text text-anchor="middle" x="774" y="-50.9922" font-family="Helvetica,sans-Serif" font-size="10.00">coap_read</text>
</a>
</g>
</g>
<!-- Node128&#45;&gt;Node129 -->
<g id="edge15" class="edge"><title>Node128&#45;&gt;Node129</title>
<path fill="none" stroke="midnightblue" d="M688.434,-36.0991C707.052,-39.9284 727.034,-44.0383 742.898,-47.301"/>
<polygon fill="midnightblue" stroke="midnightblue" points="689.06,-32.6547 678.559,-34.0683 687.649,-39.5111 689.06,-32.6547"/>
</g>
<!-- Node129&#45;&gt;Node127 -->
<g id="edge16" class="edge"><title>Node129&#45;&gt;Node127</title>
<path fill="none" stroke="midnightblue" d="M815.193,-53.4922C833.98,-53.4922 856.264,-53.4922 874.911,-53.4922"/>
<polygon fill="midnightblue" stroke="midnightblue" points="815.161,-49.9923 805.161,-53.4922 815.161,-56.9923 815.161,-49.9923"/>
</g>
</g>
</svg>
        <g id="navigator" transform="translate(0 0)" fill="#404254">
                <rect fill="#f2f5e9" fill-opacity="0.5" stroke="#606060" stroke-width=".5" x="0" y="0" width="60" height="60"/>
                <use id="zoomplus" xlink:href="#zoomPlus" x="17" y="9" onmousedown="handleZoom(evt,'in')"/>
                <use id="zoomminus" xlink:href="#zoomMin" x="42" y="9" onmousedown="handleZoom(evt,'out')"/>
                <use id="reset" xlink:href="#resetDef" x="30" y="36" onmousedown="handleReset()"/>
                <g id="arrowUp" xlink:href="#dirArrow" transform="translate(30 24)" onmousedown="handlePan(0,-1)">
                  <use xlink:href="#rim" fill="#404040">
                        <set attributeName="fill" to="#808080" begin="arrowUp.mouseover" end="arrowUp.mouseout"/>
                  </use>
                  <path fill="none" stroke="white" stroke-width="1.5" d="M0,-3.0v7 M-2.5,-0.5L0,-3.0L2.5,-0.5"/>
                </g>
                <g id="arrowRight" xlink:href="#dirArrow" transform="rotate(90) translate(36 -43)" onmousedown="handlePan(1,0)">
                  <use xlink:href="#rim" fill="#404040">
                        <set attributeName="fill" to="#808080" begin="arrowRight.mouseover" end="arrowRight.mouseout"/>
                  </use>
                  <path fill="none" stroke="white" stroke-width="1.5" d="M0,-3.0v7 M-2.5,-0.5L0,-3.0L2.5,-0.5"/>
                </g>
                <g id="arrowDown" xlink:href="#dirArrow" transform="rotate(180) translate(-30 -48)" onmousedown="handlePan(0,1)">
                  <use xlink:href="#rim" fill="#404040">
                        <set attributeName="fill" to="#808080" begin="arrowDown.mouseover" end="arrowDown.mouseout"/>
                  </use>
                  <path fill="none" stroke="white" stroke-width="1.5" d="M0,-3.0v7 M-2.5,-0.5L0,-3.0L2.5,-0.5"/>
                </g>
                <g id="arrowLeft" xlink:href="#dirArrow" transform="rotate(270) translate(-36 17)" onmousedown="handlePan(-1,0)">
                  <use xlink:href="#rim" fill="#404040">
                        <set attributeName="fill" to="#808080" begin="arrowLeft.mouseover" end="arrowLeft.mouseout"/>
                  </use>
                  <path fill="none" stroke="white" stroke-width="1.5" d="M0,-3.0v7 M-2.5,-0.5L0,-3.0L2.5,-0.5"/>
                </g>
        </g>
        <svg viewBox="0 0 15 15" width="100%" height="30px" preserveAspectRatio="xMaxYMin meet">
         <g id="arrow_out" transform="scale(0.3 0.3)">
          <a xlink:href="group__opt__filter_ga07fbd5e0664ff9e975089ee1919eee96_icgraph_org.svg" target="_base">
           <rect id="button" ry="5" rx="5" y="6" x="6" height="38" width="38"
                fill="#f2f5e9" fill-opacity="0.5" stroke="#606060" stroke-width="1.0"/>
           <path id="arrow"
             d="M 11.500037,31.436501 C 11.940474,20.09759 22.043105,11.32322 32.158766,21.979434 L 37.068811,17.246167 C 37.068811,17.246167 37.088388,32 37.088388,32 L 22.160133,31.978069 C 22.160133,31.978069 26.997745,27.140456 26.997745,27.140456 C 18.528582,18.264221 13.291696,25.230495 11.500037,31.436501 z"
             style="fill:#404040;"/>
          </a>
         </g>
        </svg>
</svg>
