<?xml version="1.0" encoding="UTF-8" standalone="no"?>
<!DOCTYPE svg PUBLIC "-//W3C//DTD SVG 1.1//EN"
 "http://www.w3.org/Graphics/SVG/1.1/DTD/svg11.dtd">
<!-- Generated by graphviz version 2.38.0 (20140413.2041)
 -->
<!-- Title: coap_option_filter_unset Pages: 1 -->
<!--zoomable 339 -->
<svg id="main" version="1.1" xmlns="http://www.w3.org/2000/svg" xmlns:xlink="http://www.w3.org/1999/xlink" xml:space="preserve" onload="init(evt)">
<style type="text/css"><![CDATA[
.edge:hover path { stroke: red; }
.edge:hover polygon { stroke: red; fill: red; }
]]></style>
<script type="text/javascript"><![CDATA[
var edges = document.getElementsByTagName('g');
if (edges && edges.length) {
  for (var i=0;i<edges.length;i++) {
    if (edges[i].id.substr(0,4)=='edge') {
      edges[i].setAttribute('class','edge');
    }
  }
}
]]></script>
        <defs>
                <circle id="rim" cx="0" cy="0" r="7"/>
                <circle id="rim2" cx="0" cy="0" r="3.5"/>
                <g id="zoomPlus">
                        <use xlink:href="#rim" fill="#404040">
                                <set attributeName="fill" to="#808080" begin="zoomplus.mouseover" end="zoomplus.mouseout"/>
                        </use>
                        <path d="M-4,0h8M0,-4v8" fill="none" stroke="white" stroke-width="1.5" pointer-events="none"/>
                </g>
                <g id="zoomMin">
                        <use xlink:href="#rim" fill="#404040">
                                <set attributeName="fill" to="#808080" begin="zoomminus.mouseover" end="zoomminus.mouseout"/>
                        </use>
                        <path d="M-4,0h8" fill="none" stroke="white" stroke-width="1.5" pointer-events="none"/>
                </g>
                <g id="dirArrow">
                        <path fill="none" stroke="white" stroke-width="1.5" d="M0,-3.0v7 M-2.5,-0.5L0,-3.0L2.5,-0.5"/>
                </g>
               <g id="resetDef">
                       <use xlink:href="#rim2" fill="#404040">
                               <set attributeName="fill" to="#808080" begin="reset.mouseover" end="reset.mouseout"/>
                       </use>
               </g>
        </defs>

<script type="text/javascript">
var viewWidth = 1474;
var viewHeight = 339;
var sectionId = 'dynsection-16';
</script>
<script xlink:href="svgpan.js"/>
<svg id="graph" class="graph">
<g id="viewport">
<title>coap_option_filter_unset</title>
<polygon fill="white" stroke="none" points="-4,4 -4,-334.861 1470,-334.861 1470,4 -4,4"/>
<!-- Node211 -->
<g id="node1" class="node"><title>Node211</title>
<polygon fill="#bfbfbf" stroke="black" points="0,-175 0,-205 93,-205 93,-175 0,-175"/>
<text text-anchor="start" x="8" y="-193" font-family="Helvetica,sans-Serif" font-size="10.00">coap_option_filter</text>
<text text-anchor="middle" x="46.5" y="-182" font-family="Helvetica,sans-Serif" font-size="10.00">_unset</text>
</g>
<!-- Node212 -->
<g id="node2" class="node"><title>Node212</title>
<g id="a_node2"><a xlink:href="group__opt__filter.html#gabf9e0bc62ef945d1951acc76eea0c307" target="_top" xlink:title="Clears filter f. ">
<polygon fill="white" stroke="black" points="129,-131 129,-161 222,-161 222,-131 129,-131"/>
<text text-anchor="start" x="137" y="-149" font-family="Helvetica,sans-Serif" font-size="10.00">coap_option_filter</text>
<text text-anchor="middle" x="175.5" y="-138" font-family="Helvetica,sans-Serif" font-size="10.00">_clear</text>
</a>
</g>
</g>
<!-- Node211&#45;&gt;Node212 -->
<g id="edge1" class="edge"><title>Node211&#45;&gt;Node212</title>
<path fill="none" stroke="midnightblue" d="M100.432,-171.661C110.581,-168.145 121.1,-164.501 130.913,-161.101"/>
<polygon fill="midnightblue" stroke="midnightblue" points="99.1542,-168.4 90.851,-174.981 101.446,-175.014 99.1542,-168.4"/>
</g>
<!-- Node228 -->
<g id="node18" class="node"><title>Node228</title>
<g id="a_node18"><a xlink:href="group__opt__filter.html#ga07fbd5e0664ff9e975089ee1919eee96" target="_top" xlink:title="Clears the corresponding bit for type in filter. ">
<polygon fill="white" stroke="black" points="130.5,-224.5 130.5,-243.5 220.5,-243.5 220.5,-224.5 130.5,-224.5"/>
<text text-anchor="middle" x="175.5" y="-231.5" font-family="Helvetica,sans-Serif" font-size="10.00">coap_option_clrb</text>
</a>
</g>
</g>
<!-- Node211&#45;&gt;Node228 -->
<g id="edge26" class="edge"><title>Node211&#45;&gt;Node228</title>
<path fill="none" stroke="midnightblue" d="M100.6,-208.397C116.502,-213.906 133.299,-219.726 146.854,-224.422"/>
<polygon fill="midnightblue" stroke="midnightblue" points="101.446,-204.986 90.851,-205.019 99.1542,-211.6 101.446,-204.986"/>
</g>
<!-- Node213 -->
<g id="node3" class="node"><title>Node213</title>
<g id="a_node3"><a xlink:href="net_8c.html#a13ff6a2308c8e167a66218e43b819df2" target="_top" xlink:title="handle_request">
<polygon fill="white" stroke="black" points="750,-152.5 750,-171.5 833,-171.5 833,-152.5 750,-152.5"/>
<text text-anchor="middle" x="791.5" y="-159.5" font-family="Helvetica,sans-Serif" font-size="10.00">handle_request</text>
</a>
</g>
</g>
<!-- Node212&#45;&gt;Node213 -->
<g id="edge2" class="edge"><title>Node212&#45;&gt;Node213</title>
<path fill="none" stroke="midnightblue" d="M231.997,-153.252C327.037,-164.716 527.055,-184.684 696,-174 713.66,-172.883 733.067,-170.604 749.674,-168.328"/>
<polygon fill="midnightblue" stroke="midnightblue" points="232.383,-149.773 222.033,-152.034 231.534,-156.721 232.383,-149.773"/>
</g>
<!-- Node221 -->
<g id="node11" class="node"><title>Node221</title>
<g id="a_node11"><a xlink:href="group__opt__filter.html#gadbabeb7658e877010cbf77ed220e64ea" target="_top" xlink:title="Retrieves the first option of type type from pdu. ">
<polygon fill="white" stroke="black" points="258,-114.5 258,-133.5 359,-133.5 359,-114.5 258,-114.5"/>
<text text-anchor="middle" x="308.5" y="-121.5" font-family="Helvetica,sans-Serif" font-size="10.00">coap_check_option</text>
</a>
</g>
</g>
<!-- Node212&#45;&gt;Node221 -->
<g id="edge13" class="edge"><title>Node212&#45;&gt;Node221</title>
<path fill="none" stroke="midnightblue" d="M232.205,-136.645C240.748,-135.21 249.518,-133.737 257.916,-132.327"/>
<polygon fill="midnightblue" stroke="midnightblue" points="231.6,-133.198 222.317,-138.305 232.759,-140.101 231.6,-133.198"/>
</g>
<!-- Node226 -->
<g id="node16" class="node"><title>Node226</title>
<g id="a_node16"><a xlink:href="resource_8h.html#a5cd67cb7b62f8e0e74c81fd722cc614d" target="_top" xlink:title="Calculates the hash key for the resource requested by the Uri&#45;Options of request. ...">
<polygon fill="white" stroke="black" points="570.5,-0.5 570.5,-19.5 687.5,-19.5 687.5,-0.5 570.5,-0.5"/>
<text text-anchor="middle" x="629" y="-7.5" font-family="Helvetica,sans-Serif" font-size="10.00">coap_hash_request_uri</text>
</a>
</g>
</g>
<!-- Node212&#45;&gt;Node226 -->
<g id="edge23" class="edge"><title>Node212&#45;&gt;Node226</title>
<path fill="none" stroke="midnightblue" d="M214.868,-126.351C228.442,-119.492 243.853,-111.809 258,-105 318.388,-75.9364 330.662,-60.7624 395,-42 453.21,-25.0249 522.289,-16.9759 570.041,-13.2092"/>
<polygon fill="midnightblue" stroke="midnightblue" points="213.138,-123.304 205.801,-130.948 216.303,-129.547 213.138,-123.304"/>
</g>
<!-- Node214 -->
<g id="node4" class="node"><title>Node214</title>
<g id="a_node4"><a xlink:href="net_8h.html#ab458d1c3b0f5d695dfa86b805ae8463d" target="_top" xlink:title="Dispatches the PDUs from the receive queue in given context. ">
<polygon fill="white" stroke="black" points="904.5,-209.5 904.5,-228.5 984.5,-228.5 984.5,-209.5 904.5,-209.5"/>
<text text-anchor="middle" x="944.5" y="-216.5" font-family="Helvetica,sans-Serif" font-size="10.00">coap_dispatch</text>
</a>
</g>
</g>
<!-- Node213&#45;&gt;Node214 -->
<g id="edge3" class="edge"><title>Node213&#45;&gt;Node214</title>
<path fill="none" stroke="midnightblue" d="M827.476,-175.203C855.202,-185.669 893.289,-200.046 918.144,-209.428"/>
<polygon fill="midnightblue" stroke="midnightblue" points="828.366,-171.798 817.774,-171.541 825.894,-178.347 828.366,-171.798"/>
</g>
<!-- Node215 -->
<g id="node5" class="node"><title>Node215</title>
<g id="a_node5"><a xlink:href="net_8h.html#a9900c032b74bd57f67d489484a2b3207" target="_top" xlink:title="Handles retransmissions of confirmable messages. ">
<polygon fill="white" stroke="black" points="1053,-209.5 1053,-228.5 1139,-228.5 1139,-209.5 1053,-209.5"/>
<text text-anchor="middle" x="1096" y="-216.5" font-family="Helvetica,sans-Serif" font-size="10.00">coap_retransmit</text>
</a>
</g>
</g>
<!-- Node214&#45;&gt;Node215 -->
<g id="edge4" class="edge"><title>Node214&#45;&gt;Node215</title>
<path fill="none" stroke="midnightblue" d="M994.912,-219C1013.66,-219 1034.82,-219 1052.84,-219"/>
<polygon fill="midnightblue" stroke="midnightblue" points="994.779,-215.5 984.779,-219 994.779,-222.5 994.779,-215.5"/>
</g>
<!-- Node217 -->
<g id="node7" class="node"><title>Node217</title>
<g id="a_node7"><a xlink:href="net_8h.html#ac58be1c374afa04d10810aef1d073315" target="_top" xlink:title="Removes the transaction identified by id from given queue. ">
<polygon fill="white" stroke="black" points="1338,-152.5 1338,-171.5 1466,-171.5 1466,-152.5 1338,-152.5"/>
<text text-anchor="middle" x="1402" y="-159.5" font-family="Helvetica,sans-Serif" font-size="10.00">coap_remove_transaction</text>
</a>
</g>
</g>
<!-- Node214&#45;&gt;Node217 -->
<g id="edge12" class="edge"><title>Node214&#45;&gt;Node217</title>
<path fill="none" stroke="midnightblue" d="M994.471,-208.197C1008.49,-205.307 1023.81,-202.34 1038,-200 1142.41,-182.778 1265.07,-171.855 1337.74,-166.341"/>
<polygon fill="midnightblue" stroke="midnightblue" points="993.602,-204.803 984.531,-210.277 995.036,-211.654 993.602,-204.803"/>
</g>
<!-- Node219 -->
<g id="node9" class="node"><title>Node219</title>
<g id="a_node9"><a xlink:href="net_8h.html#a74c5ca78210280817a5586f61abfa5f3" target="_top" xlink:title="Parses and interprets a CoAP message with context ctx. ">
<polygon fill="white" stroke="black" points="1038,-266.5 1038,-285.5 1154,-285.5 1154,-266.5 1038,-266.5"/>
<text text-anchor="middle" x="1096" y="-273.5" font-family="Helvetica,sans-Serif" font-size="10.00">coap_handle_message</text>
</a>
</g>
</g>
<!-- Node214&#45;&gt;Node219 -->
<g id="edge8" class="edge"><title>Node214&#45;&gt;Node219</title>
<path fill="none" stroke="midnightblue" d="M980.129,-232.203C1007.58,-242.669 1045.29,-257.046 1069.9,-266.428"/>
<polygon fill="midnightblue" stroke="midnightblue" points="981.114,-228.833 970.523,-228.541 978.62,-235.373 981.114,-228.833"/>
</g>
<!-- Node216 -->
<g id="node6" class="node"><title>Node216</title>
<g id="a_node6"><a xlink:href="net_8h.html#a231e9a81ac7c03c3e5c251824a76d7b9" target="_top" xlink:title="Returns 1 if there are no messages to send or to dispatch in the context&#39;s queues. ">
<polygon fill="white" stroke="black" points="1206,-190.5 1206,-209.5 1286,-209.5 1286,-190.5 1206,-190.5"/>
<text text-anchor="middle" x="1246" y="-197.5" font-family="Helvetica,sans-Serif" font-size="10.00">coap_can_exit</text>
</a>
</g>
</g>
<!-- Node215&#45;&gt;Node216 -->
<g id="edge5" class="edge"><title>Node215&#45;&gt;Node216</title>
<path fill="none" stroke="midnightblue" d="M1149.15,-212.305C1167.83,-209.907 1188.54,-207.248 1205.93,-205.016"/>
<polygon fill="midnightblue" stroke="midnightblue" points="1148.49,-208.861 1139.01,-213.606 1149.38,-215.804 1148.49,-208.861"/>
</g>
<!-- Node218 -->
<g id="node8" class="node"><title>Node218</title>
<g id="a_node8"><a xlink:href="net_8h.html#a08ba53f8f554cf7a2559813ebde1bb1d" target="_top" xlink:title="Sends an RST message with code 0 for the specified request to dst. ">
<polygon fill="white" stroke="black" points="1362,-266.5 1362,-285.5 1442,-285.5 1442,-266.5 1362,-266.5"/>
<text text-anchor="middle" x="1402" y="-273.5" font-family="Helvetica,sans-Serif" font-size="10.00">coap_send_rst</text>
</a>
</g>
</g>
<!-- Node215&#45;&gt;Node218 -->
<g id="edge7" class="edge"><title>Node215&#45;&gt;Node218</title>
<path fill="none" stroke="midnightblue" d="M1149.37,-228.819C1209.82,-240.153 1307.84,-258.533 1361.98,-268.683"/>
<polygon fill="midnightblue" stroke="midnightblue" points="1149.74,-225.329 1139.27,-226.926 1148.45,-232.209 1149.74,-225.329"/>
</g>
<!-- Node216&#45;&gt;Node217 -->
<g id="edge6" class="edge"><title>Node216&#45;&gt;Node217</title>
<path fill="none" stroke="midnightblue" d="M1295.79,-187.96C1317.31,-182.651 1342.23,-176.501 1362.42,-171.52"/>
<polygon fill="midnightblue" stroke="midnightblue" points="1294.73,-184.617 1285.86,-190.411 1296.41,-191.413 1294.73,-184.617"/>
</g>
<!-- Node219&#45;&gt;Node218 -->
<g id="edge11" class="edge"><title>Node219&#45;&gt;Node218</title>
<path fill="none" stroke="midnightblue" d="M1164.43,-276C1225.09,-276 1312.1,-276 1361.94,-276"/>
<polygon fill="midnightblue" stroke="midnightblue" points="1164.18,-272.5 1154.18,-276 1164.18,-279.5 1164.18,-272.5"/>
</g>
<!-- Node220 -->
<g id="node10" class="node"><title>Node220</title>
<g id="a_node10"><a xlink:href="net_8h.html#ade17f093221599e839345cf88b74b496" target="_top" xlink:title="Reads data from the network and tries to parse as CoAP PDU. ">
<polygon fill="white" stroke="black" points="1215,-304.5 1215,-323.5 1277,-323.5 1277,-304.5 1215,-304.5"/>
<text text-anchor="middle" x="1246" y="-311.5" font-family="Helvetica,sans-Serif" font-size="10.00">coap_read</text>
</a>
</g>
</g>
<!-- Node219&#45;&gt;Node220 -->
<g id="edge9" class="edge"><title>Node219&#45;&gt;Node220</title>
<path fill="none" stroke="midnightblue" d="M1144.28,-288.14C1167.33,-294.059 1194.38,-301.003 1214.64,-306.204"/>
<polygon fill="midnightblue" stroke="midnightblue" points="1144.9,-284.686 1134.35,-285.589 1143.16,-291.466 1144.9,-284.686"/>
</g>
<!-- Node220&#45;&gt;Node218 -->
<g id="edge10" class="edge"><title>Node220&#45;&gt;Node218</title>
<path fill="none" stroke="midnightblue" d="M1286.93,-304.146C1310.14,-298.42 1339.24,-291.238 1362.25,-285.563"/>
<polygon fill="midnightblue" stroke="midnightblue" points="1285.93,-300.789 1277.06,-306.583 1287.61,-307.585 1285.93,-300.789"/>
</g>
<!-- Node221&#45;&gt;Node213 -->
<g id="edge22" class="edge"><title>Node221&#45;&gt;Node213</title>
<path fill="none" stroke="midnightblue" d="M355.737,-135.785C368.39,-138.596 382.157,-141.277 395,-143 523.77,-160.272 677.974,-162.397 749.87,-162.326"/>
<polygon fill="midnightblue" stroke="midnightblue" points="356.397,-132.346 345.868,-133.519 354.831,-139.168 356.397,-132.346"/>
</g>
<!-- Node222 -->
<g id="node12" class="node"><title>Node222</title>
<g id="a_node12"><a xlink:href="group__block.html#ga265adcc610026896a5e8a046bcc359ca" target="_top" xlink:title="Initializes block from pdu. ">
<polygon fill="white" stroke="black" points="418,-76.5 418,-95.5 503,-95.5 503,-76.5 418,-76.5"/>
<text text-anchor="middle" x="460.5" y="-83.5" font-family="Helvetica,sans-Serif" font-size="10.00">coap_get_block</text>
</a>
</g>
</g>
<!-- Node221&#45;&gt;Node222 -->
<g id="edge14" class="edge"><title>Node221&#45;&gt;Node222</title>
<path fill="none" stroke="midnightblue" d="M357.311,-111.888C378.202,-106.596 402.347,-100.479 421.921,-95.5201"/>
<polygon fill="midnightblue" stroke="midnightblue" points="356.186,-108.562 347.351,-114.411 357.905,-115.348 356.186,-108.562"/>
</g>
<!-- Node224 -->
<g id="node14" class="node"><title>Node224</title>
<g id="a_node14"><a xlink:href="net_8h.html#a4bf688cc4467cb91b6ace43e735ffafa" target="_top" xlink:title="Creates a new response for given request with the contents of .well&#45;known/core. ">
<polygon fill="white" stroke="black" points="562,-38.5 562,-57.5 696,-57.5 696,-38.5 562,-38.5"/>
<text text-anchor="middle" x="629" y="-45.5" font-family="Helvetica,sans-Serif" font-size="10.00">coap_wellknown_response</text>
</a>
</g>
</g>
<!-- Node221&#45;&gt;Node224 -->
<g id="edge19" class="edge"><title>Node221&#45;&gt;Node224</title>
<path fill="none" stroke="midnightblue" d="M327.548,-107.946C343.905,-94.436 369.315,-75.9322 395,-67 449.051,-48.203 514.244,-44.3482 561.909,-44.6782"/>
<polygon fill="midnightblue" stroke="midnightblue" points="325.217,-105.334 319.866,-114.479 329.751,-110.667 325.217,-105.334"/>
</g>
<!-- Node225 -->
<g id="node15" class="node"><title>Node225</title>
<g id="a_node15"><a xlink:href="net_8c.html#aa708f479d33a6ca76bf214a0e0e42de4" target="_top" xlink:title="Checks for No&#45;Response option in given request and returns 1 if response should be suppressed accordi...">
<polygon fill="white" stroke="black" points="424.5,-114.5 424.5,-133.5 496.5,-133.5 496.5,-114.5 424.5,-114.5"/>
<text text-anchor="middle" x="460.5" y="-121.5" font-family="Helvetica,sans-Serif" font-size="10.00">no_response</text>
</a>
</g>
</g>
<!-- Node221&#45;&gt;Node225 -->
<g id="edge20" class="edge"><title>Node221&#45;&gt;Node225</title>
<path fill="none" stroke="midnightblue" d="M369.229,-124C387.885,-124 407.856,-124 424.259,-124"/>
<polygon fill="midnightblue" stroke="midnightblue" points="369.031,-120.5 359.031,-124 369.031,-127.5 369.031,-120.5"/>
</g>
<!-- Node223 -->
<g id="node13" class="node"><title>Node223</title>
<g id="a_node13"><a xlink:href="group__block.html#ga86f7b29ef40d806ea3be9d0ff50963e7" target="_top" xlink:title="Sets the More&#45;bit in block_opt. ">
<polygon fill="white" stroke="black" points="570.5,-76.5 570.5,-95.5 687.5,-95.5 687.5,-76.5 570.5,-76.5"/>
<text text-anchor="middle" x="629" y="-83.5" font-family="Helvetica,sans-Serif" font-size="10.00">coap_opt_block_set_m</text>
</a>
</g>
</g>
<!-- Node222&#45;&gt;Node223 -->
<g id="edge15" class="edge"><title>Node222&#45;&gt;Node223</title>
<path fill="none" stroke="midnightblue" d="M513.165,-86C531.28,-86 551.739,-86 570.317,-86"/>
<polygon fill="midnightblue" stroke="midnightblue" points="513.086,-82.5001 503.085,-86 513.085,-89.5001 513.086,-82.5001"/>
</g>
<!-- Node222&#45;&gt;Node224 -->
<g id="edge16" class="edge"><title>Node222&#45;&gt;Node224</title>
<path fill="none" stroke="midnightblue" d="M512.921,-74.2642C536.509,-68.8808 564.11,-62.5815 586.368,-57.5017"/>
<polygon fill="midnightblue" stroke="midnightblue" points="512.056,-70.8716 503.085,-76.509 513.614,-77.6961 512.056,-70.8716"/>
</g>
<!-- Node224&#45;&gt;Node213 -->
<g id="edge17" class="edge"><title>Node224&#45;&gt;Node213</title>
<path fill="none" stroke="midnightblue" d="M684.457,-61.2178C688.469,-62.9289 692.363,-64.8487 696,-67 735.044,-90.0958 769.437,-133.127 783.611,-152.323"/>
<polygon fill="midnightblue" stroke="midnightblue" points="685.542,-57.8859 674.952,-57.593 683.048,-64.4265 685.542,-57.8859"/>
</g>
<!-- Node224&#45;&gt;Node217 -->
<g id="edge18" class="edge"><title>Node224&#45;&gt;Node217</title>
<path fill="none" stroke="midnightblue" d="M706.376,-48C769.855,-48 862.556,-48 943.5,-48 943.5,-48 943.5,-48 1097,-48 1189.66,-48 1217.35,-48.3001 1302,-86 1339.21,-102.573 1375.16,-135.792 1391.63,-152.27"/>
<polygon fill="midnightblue" stroke="midnightblue" points="706.053,-44.5001 696.053,-48 706.053,-51.5001 706.053,-44.5001"/>
</g>
<!-- Node225&#45;&gt;Node213 -->
<g id="edge21" class="edge"><title>Node225&#45;&gt;Node213</title>
<path fill="none" stroke="midnightblue" d="M506.729,-128.019C554.005,-132.363 630.311,-139.777 696,-148 713.609,-150.204 733.007,-153.012 749.622,-155.533"/>
<polygon fill="midnightblue" stroke="midnightblue" points="506.794,-124.511 496.518,-127.087 506.158,-131.482 506.794,-124.511"/>
</g>
<!-- Node226&#45;&gt;Node213 -->
<g id="edge24" class="edge"><title>Node226&#45;&gt;Node213</title>
<path fill="none" stroke="midnightblue" d="M687.323,-23.7732C690.359,-25.3335 693.276,-27.0692 696,-29 743.372,-62.5814 775.473,-127.666 786.383,-152.266"/>
<polygon fill="midnightblue" stroke="midnightblue" points="688.492,-20.463 677.933,-19.5994 685.649,-26.8595 688.492,-20.463"/>
</g>
<!-- Node227 -->
<g id="node17" class="node"><title>Node227</title>
<g id="a_node17"><a xlink:href="resource_8h.html#a8f78ecf70cfbe5a69677bf3b97f0b776" target="_top" xlink:title="Registers the specified handler as message handler for the request type method. ">
<polygon fill="white" stroke="black" points="1190,-95.5 1190,-114.5 1302,-114.5 1302,-95.5 1190,-95.5"/>
<text text-anchor="middle" x="1246" y="-102.5" font-family="Helvetica,sans-Serif" font-size="10.00">coap_register_handler</text>
</a>
</g>
</g>
<!-- Node226&#45;&gt;Node227 -->
<g id="edge25" class="edge"><title>Node226&#45;&gt;Node227</title>
<path fill="none" stroke="midnightblue" d="M697.6,-20.4422C820.236,-39.386 1077.11,-79.0651 1189.9,-96.4882"/>
<polygon fill="midnightblue" stroke="midnightblue" points="697.998,-16.9624 687.581,-18.8947 696.93,-23.8803 697.998,-16.9624"/>
</g>
<!-- Node229 -->
<g id="node19" class="node"><title>Node229</title>
<g id="a_node19"><a xlink:href="net_8h.html#ab7953637ad760f76ffb8060ddf47fe6a" target="_top" xlink:title="Creates a new ACK PDU with specified error code. ">
<polygon fill="white" stroke="black" points="395,-266.5 395,-285.5 526,-285.5 526,-266.5 395,-266.5"/>
<text text-anchor="middle" x="460.5" y="-273.5" font-family="Helvetica,sans-Serif" font-size="10.00">coap_new_error_response</text>
</a>
</g>
</g>
<!-- Node228&#45;&gt;Node229 -->
<g id="edge27" class="edge"><title>Node228&#45;&gt;Node229</title>
<path fill="none" stroke="midnightblue" d="M230.702,-242.044C277.672,-249.015 345.704,-259.112 395.371,-266.483"/>
<polygon fill="midnightblue" stroke="midnightblue" points="231.124,-238.569 220.719,-240.562 230.097,-245.493 231.124,-238.569"/>
</g>
<!-- Node229&#45;&gt;Node213 -->
<g id="edge34" class="edge"><title>Node229&#45;&gt;Node213</title>
<path fill="none" stroke="midnightblue" d="M521.539,-264.372C569.702,-254.043 638.515,-237.011 696,-214 725.554,-202.169 757.529,-183.12 775.677,-171.657"/>
<polygon fill="midnightblue" stroke="midnightblue" points="520.648,-260.983 511.587,-266.474 522.094,-267.832 520.648,-260.983"/>
</g>
<!-- Node229&#45;&gt;Node214 -->
<g id="edge35" class="edge"><title>Node229&#45;&gt;Node214</title>
<path fill="none" stroke="midnightblue" d="M491.039,-289.625C510.684,-297.917 537.319,-307.713 562,-312 688.768,-334.02 732.416,-344.929 851,-295 887.204,-279.757 920.369,-245.597 935.248,-228.76"/>
<polygon fill="midnightblue" stroke="midnightblue" points="492.29,-286.353 481.724,-285.585 489.505,-292.775 492.29,-286.353"/>
</g>
<!-- Node230 -->
<g id="node20" class="node"><title>Node230</title>
<g id="a_node20"><a xlink:href="net_8h.html#aa6569347c5926252d65dd69f2dcfe521" target="_top" xlink:title="Sends an error response with code code for request request to dst. ">
<polygon fill="white" stroke="black" points="584.5,-266.5 584.5,-285.5 673.5,-285.5 673.5,-266.5 584.5,-266.5"/>
<text text-anchor="middle" x="629" y="-273.5" font-family="Helvetica,sans-Serif" font-size="10.00">coap_send_error</text>
</a>
</g>
</g>
<!-- Node229&#45;&gt;Node230 -->
<g id="edge28" class="edge"><title>Node229&#45;&gt;Node230</title>
<path fill="none" stroke="midnightblue" d="M536.432,-276C552.751,-276 569.5,-276 584.138,-276"/>
<polygon fill="midnightblue" stroke="midnightblue" points="536.35,-272.5 526.35,-276 536.35,-279.5 536.35,-272.5"/>
</g>
<!-- Node231 -->
<g id="node21" class="node"><title>Node231</title>
<g id="a_node21"><a xlink:href="net_8h.html#ac09b38583adc73fd96e33e9c61eac39f" target="_top" xlink:title="Returns a new message id and updates context&#45;&gt;message_id accordingly. ">
<polygon fill="white" stroke="black" points="732,-266.5 732,-285.5 851,-285.5 851,-266.5 732,-266.5"/>
<text text-anchor="middle" x="791.5" y="-273.5" font-family="Helvetica,sans-Serif" font-size="10.00">coap_new_message_id</text>
</a>
</g>
</g>
<!-- Node229&#45;&gt;Node231 -->
<g id="edge36" class="edge"><title>Node229&#45;&gt;Node231</title>
<path fill="none" stroke="midnightblue" d="M512.429,-287.538C528.228,-290.601 545.757,-293.478 562,-295 621.296,-300.556 636.737,-300.899 696,-295 714.651,-293.144 735.07,-289.275 752.14,-285.51"/>
<polygon fill="midnightblue" stroke="midnightblue" points="512.82,-284.047 502.327,-285.511 511.443,-290.91 512.82,-284.047"/>
</g>
<!-- Node230&#45;&gt;Node231 -->
<g id="edge29" class="edge"><title>Node230&#45;&gt;Node231</title>
<path fill="none" stroke="midnightblue" d="M684.225,-276C699.576,-276 716.352,-276 731.946,-276"/>
<polygon fill="midnightblue" stroke="midnightblue" points="683.857,-272.5 673.857,-276 683.857,-279.5 683.857,-272.5"/>
</g>
<!-- Node232 -->
<g id="node22" class="node"><title>Node232</title>
<g id="a_node22"><a xlink:href="resource_8c.html#ae1a91e254baca4f43b7896f54a8d9944" target="_top" xlink:title="coap_notify_observers">
<polygon fill="white" stroke="black" points="887,-142.5 887,-161.5 1002,-161.5 1002,-142.5 887,-142.5"/>
<text text-anchor="middle" x="944.5" y="-149.5" font-family="Helvetica,sans-Serif" font-size="10.00">coap_notify_observers</text>
</a>
</g>
</g>
<!-- Node231&#45;&gt;Node232 -->
<g id="edge30" class="edge"><title>Node231&#45;&gt;Node232</title>
<path fill="none" stroke="midnightblue" d="M812.111,-259.896C843.93,-233.766 905.846,-182.921 931.706,-161.685"/>
<polygon fill="midnightblue" stroke="midnightblue" points="809.856,-257.219 804.349,-266.27 814.298,-262.628 809.856,-257.219"/>
</g>
<!-- Node233 -->
<g id="node23" class="node"><title>Node233</title>
<g id="a_node23"><a xlink:href="resource_8h.html#a579bcb559463d3a872831c18d8d9a1c1" target="_top" xlink:title="Checks for all known resources, if they are dirty and notifies subscribed observers. ">
<polygon fill="white" stroke="black" points="1047,-114.5 1047,-133.5 1145,-133.5 1145,-114.5 1047,-114.5"/>
<text text-anchor="middle" x="1096" y="-121.5" font-family="Helvetica,sans-Serif" font-size="10.00">coap_check_notify</text>
</a>
</g>
</g>
<!-- Node232&#45;&gt;Node233 -->
<g id="edge31" class="edge"><title>Node232&#45;&gt;Node233</title>
<path fill="none" stroke="midnightblue" d="M1006.6,-140.556C1019.97,-138.052 1033.94,-135.436 1046.72,-133.042"/>
<polygon fill="midnightblue" stroke="midnightblue" points="1005.72,-137.161 996.531,-142.442 1007,-144.042 1005.72,-137.161"/>
</g>
<!-- Node233&#45;&gt;Node216 -->
<g id="edge32" class="edge"><title>Node233&#45;&gt;Node216</title>
<path fill="none" stroke="midnightblue" d="M1124.76,-138.256C1154.48,-153.517 1200.8,-177.303 1226.41,-190.453"/>
<polygon fill="midnightblue" stroke="midnightblue" points="1126.24,-135.08 1115.74,-133.625 1123.04,-141.307 1126.24,-135.08"/>
</g>
<!-- Node233&#45;&gt;Node227 -->
<g id="edge33" class="edge"><title>Node233&#45;&gt;Node227</title>
<path fill="none" stroke="midnightblue" d="M1155,-116.554C1166.52,-115.075 1178.58,-113.527 1190,-112.061"/>
<polygon fill="midnightblue" stroke="midnightblue" points="1154.52,-113.086 1145.05,-117.831 1155.42,-120.029 1154.52,-113.086"/>
</g>
</g>
</svg>
        <g id="navigator" transform="translate(0 0)" fill="#404254">
                <rect fill="#f2f5e9" fill-opacity="0.5" stroke="#606060" stroke-width=".5" x="0" y="0" width="60" height="60"/>
                <use id="zoomplus" xlink:href="#zoomPlus" x="17" y="9" onmousedown="handleZoom(evt,'in')"/>
                <use id="zoomminus" xlink:href="#zoomMin" x="42" y="9" onmousedown="handleZoom(evt,'out')"/>
                <use id="reset" xlink:href="#resetDef" x="30" y="36" onmousedown="handleReset()"/>
                <g id="arrowUp" xlink:href="#dirArrow" transform="translate(30 24)" onmousedown="handlePan(0,-1)">
                  <use xlink:href="#rim" fill="#404040">
                        <set attributeName="fill" to="#808080" begin="arrowUp.mouseover" end="arrowUp.mouseout"/>
                  </use>
                  <path fill="none" stroke="white" stroke-width="1.5" d="M0,-3.0v7 M-2.5,-0.5L0,-3.0L2.5,-0.5"/>
                </g>
                <g id="arrowRight" xlink:href="#dirArrow" transform="rotate(90) translate(36 -43)" onmousedown="handlePan(1,0)">
                  <use xlink:href="#rim" fill="#404040">
                        <set attributeName="fill" to="#808080" begin="arrowRight.mouseover" end="arrowRight.mouseout"/>
                  </use>
                  <path fill="none" stroke="white" stroke-width="1.5" d="M0,-3.0v7 M-2.5,-0.5L0,-3.0L2.5,-0.5"/>
                </g>
                <g id="arrowDown" xlink:href="#dirArrow" transform="rotate(180) translate(-30 -48)" onmousedown="handlePan(0,1)">
                  <use xlink:href="#rim" fill="#404040">
                        <set attributeName="fill" to="#808080" begin="arrowDown.mouseover" end="arrowDown.mouseout"/>
                  </use>
                  <path fill="none" stroke="white" stroke-width="1.5" d="M0,-3.0v7 M-2.5,-0.5L0,-3.0L2.5,-0.5"/>
                </g>
                <g id="arrowLeft" xlink:href="#dirArrow" transform="rotate(270) translate(-36 17)" onmousedown="handlePan(-1,0)">
                  <use xlink:href="#rim" fill="#404040">
                        <set attributeName="fill" to="#808080" begin="arrowLeft.mouseover" end="arrowLeft.mouseout"/>
                  </use>
                  <path fill="none" stroke="white" stroke-width="1.5" d="M0,-3.0v7 M-2.5,-0.5L0,-3.0L2.5,-0.5"/>
                </g>
        </g>
        <svg viewBox="0 0 15 15" width="100%" height="30px" preserveAspectRatio="xMaxYMin meet">
         <g id="arrow_out" transform="scale(0.3 0.3)">
          <a xlink:href="group__opt__filter_ga77ae345bb3d5ecd89adfaedc9949a4b2_icgraph_org.svg" target="_base">
           <rect id="button" ry="5" rx="5" y="6" x="6" height="38" width="38"
                fill="#f2f5e9" fill-opacity="0.5" stroke="#606060" stroke-width="1.0"/>
           <path id="arrow"
             d="M 11.500037,31.436501 C 11.940474,20.09759 22.043105,11.32322 32.158766,21.979434 L 37.068811,17.246167 C 37.068811,17.246167 37.088388,32 37.088388,32 L 22.160133,31.978069 C 22.160133,31.978069 26.997745,27.140456 26.997745,27.140456 C 18.528582,18.264221 13.291696,25.230495 11.500037,31.436501 z"
             style="fill:#404040;"/>
          </a>
         </g>
        </svg>
</svg>
