<?xml version="1.0" encoding="UTF-8" standalone="no"?>
<!DOCTYPE svg PUBLIC "-//W3C//DTD SVG 1.1//EN"
 "http://www.w3.org/Graphics/SVG/1.1/DTD/svg11.dtd">
<!-- Generated by graphviz version 2.38.0 (20140413.2041)
 -->
<!-- Title: coap_opt_value Pages: 1 -->
<svg width="868pt" height="135pt"
 viewBox="0.00 0.00 868.00 134.63" xmlns="http://www.w3.org/2000/svg" xmlns:xlink="http://www.w3.org/1999/xlink">
<g id="graph0" class="graph" transform="scale(1 1) rotate(0) translate(4 130.63)">
<title>coap_opt_value</title>
<polygon fill="white" stroke="none" points="-4,4 -4,-130.63 864,-130.63 864,4 -4,4"/>
<!-- Node100 -->
<g id="node1" class="node"><title>Node100</title>
<polygon fill="#bfbfbf" stroke="black" points="0,-69.1298 0,-88.1298 85,-88.1298 85,-69.1298 0,-69.1298"/>
<text text-anchor="middle" x="42.5" y="-76.1298" font-family="Helvetica,sans-Serif" font-size="10.00">coap_opt_value</text>
</g>
<!-- Node101 -->
<g id="node2" class="node"><title>Node101</title>
<g id="a_node2"><a xlink:href="net_8c.html#aa708f479d33a6ca76bf214a0e0e42de4" target="_top" xlink:title="Checks for No&#45;Response option in given request and returns 1 if response should be suppressed accordi...">
<polygon fill="white" stroke="black" points="121,-88.1298 121,-107.13 193,-107.13 193,-88.1298 121,-88.1298"/>
<text text-anchor="middle" x="157" y="-95.1298" font-family="Helvetica,sans-Serif" font-size="10.00">no_response</text>
</a>
</g>
</g>
<!-- Node100&#45;&gt;Node101 -->
<g id="edge1" class="edge"><title>Node100&#45;&gt;Node101</title>
<path fill="none" stroke="midnightblue" d="M95.1682,-87.356C103.87,-88.8256 112.719,-90.32 120.874,-91.6974"/>
<polygon fill="midnightblue" stroke="midnightblue" points="95.5145,-83.865 85.0712,-85.6507 94.3487,-90.7672 95.5145,-83.865"/>
</g>
<!-- Node102 -->
<g id="node3" class="node"><title>Node102</title>
<g id="a_node3"><a xlink:href="net_8c.html#a13ff6a2308c8e167a66218e43b819df2" target="_top" xlink:title="handle_request">
<polygon fill="white" stroke="black" points="229,-69.1298 229,-88.1298 312,-88.1298 312,-69.1298 229,-69.1298"/>
<text text-anchor="middle" x="270.5" y="-76.1298" font-family="Helvetica,sans-Serif" font-size="10.00">handle_request</text>
</a>
</g>
</g>
<!-- Node100&#45;&gt;Node102 -->
<g id="edge13" class="edge"><title>Node100&#45;&gt;Node102</title>
<path fill="none" stroke="midnightblue" d="M95.4348,-78.6298C135.955,-78.6298 191.448,-78.6298 228.789,-78.6298"/>
<polygon fill="midnightblue" stroke="midnightblue" points="95.2153,-75.1299 85.2153,-78.6298 95.2152,-82.1299 95.2153,-75.1299"/>
</g>
<!-- Node101&#45;&gt;Node102 -->
<g id="edge2" class="edge"><title>Node101&#45;&gt;Node102</title>
<path fill="none" stroke="midnightblue" d="M203.286,-89.9129C211.667,-88.4848 220.374,-87.001 228.615,-85.5968"/>
<polygon fill="midnightblue" stroke="midnightblue" points="202.549,-86.4879 193.279,-91.6181 203.725,-93.3884 202.549,-86.4879"/>
</g>
<!-- Node103 -->
<g id="node4" class="node"><title>Node103</title>
<g id="a_node4"><a xlink:href="net_8h.html#ab458d1c3b0f5d695dfa86b805ae8463d" target="_top" xlink:title="Dispatches the PDUs from the receive queue in given context. ">
<polygon fill="white" stroke="black" points="348,-69.1298 348,-88.1298 428,-88.1298 428,-69.1298 348,-69.1298"/>
<text text-anchor="middle" x="388" y="-76.1298" font-family="Helvetica,sans-Serif" font-size="10.00">coap_dispatch</text>
</a>
</g>
</g>
<!-- Node102&#45;&gt;Node103 -->
<g id="edge3" class="edge"><title>Node102&#45;&gt;Node103</title>
<path fill="none" stroke="midnightblue" d="M322.446,-78.6298C330.952,-78.6298 339.657,-78.6298 347.81,-78.6298"/>
<polygon fill="midnightblue" stroke="midnightblue" points="322.221,-75.1299 312.221,-78.6298 322.221,-82.1299 322.221,-75.1299"/>
</g>
<!-- Node104 -->
<g id="node5" class="node"><title>Node104</title>
<g id="a_node5"><a xlink:href="net_8h.html#a9900c032b74bd57f67d489484a2b3207" target="_top" xlink:title="Handles retransmissions of confirmable messages. ">
<polygon fill="white" stroke="black" points="479,-69.1298 479,-88.1298 565,-88.1298 565,-69.1298 479,-69.1298"/>
<text text-anchor="middle" x="522" y="-76.1298" font-family="Helvetica,sans-Serif" font-size="10.00">coap_retransmit</text>
</a>
</g>
</g>
<!-- Node103&#45;&gt;Node104 -->
<g id="edge4" class="edge"><title>Node103&#45;&gt;Node104</title>
<path fill="none" stroke="midnightblue" d="M438.637,-78.6298C451.899,-78.6298 466.103,-78.6298 478.915,-78.6298"/>
<polygon fill="midnightblue" stroke="midnightblue" points="438.247,-75.1299 428.247,-78.6298 438.247,-82.1299 438.247,-75.1299"/>
</g>
<!-- Node106 -->
<g id="node7" class="node"><title>Node106</title>
<g id="a_node7"><a xlink:href="net_8h.html#ac58be1c374afa04d10810aef1d073315" target="_top" xlink:title="Removes the transaction identified by id from given queue. ">
<polygon fill="white" stroke="black" points="732,-107.13 732,-126.13 860,-126.13 860,-107.13 732,-107.13"/>
<text text-anchor="middle" x="796" y="-114.13" font-family="Helvetica,sans-Serif" font-size="10.00">coap_remove_transaction</text>
</a>
</g>
</g>
<!-- Node103&#45;&gt;Node106 -->
<g id="edge12" class="edge"><title>Node103&#45;&gt;Node106</title>
<path fill="none" stroke="midnightblue" d="M432.719,-90.6735C442.931,-93.2167 453.803,-95.7085 464,-97.6298 530.904,-110.236 548.05,-112.399 616,-116.63 654.46,-119.024 697.659,-119.099 731.982,-118.54"/>
<polygon fill="midnightblue" stroke="midnightblue" points="433.333,-87.2179 422.778,-88.1325 431.599,-93.9999 433.333,-87.2179"/>
</g>
<!-- Node108 -->
<g id="node9" class="node"><title>Node108</title>
<g id="a_node9"><a xlink:href="net_8h.html#a74c5ca78210280817a5586f61abfa5f3" target="_top" xlink:title="Parses and interprets a CoAP message with context ctx. ">
<polygon fill="white" stroke="black" points="464,-12.1298 464,-31.1298 580,-31.1298 580,-12.1298 464,-12.1298"/>
<text text-anchor="middle" x="522" y="-19.1298" font-family="Helvetica,sans-Serif" font-size="10.00">coap_handle_message</text>
</a>
</g>
</g>
<!-- Node103&#45;&gt;Node108 -->
<g id="edge8" class="edge"><title>Node103&#45;&gt;Node108</title>
<path fill="none" stroke="midnightblue" d="M420.537,-65.0117C444.687,-54.5833 477.393,-40.4601 498.834,-31.2014"/>
<polygon fill="midnightblue" stroke="midnightblue" points="418.887,-61.9116 411.094,-69.0893 421.662,-68.3381 418.887,-61.9116"/>
</g>
<!-- Node105 -->
<g id="node6" class="node"><title>Node105</title>
<g id="a_node6"><a xlink:href="net_8h.html#a231e9a81ac7c03c3e5c251824a76d7b9" target="_top" xlink:title="Returns 1 if there are no messages to send or to dispatch in the context&#39;s queues. ">
<polygon fill="white" stroke="black" points="616,-88.1298 616,-107.13 696,-107.13 696,-88.1298 616,-88.1298"/>
<text text-anchor="middle" x="656" y="-95.1298" font-family="Helvetica,sans-Serif" font-size="10.00">coap_can_exit</text>
</a>
</g>
</g>
<!-- Node104&#45;&gt;Node105 -->
<g id="edge5" class="edge"><title>Node104&#45;&gt;Node105</title>
<path fill="none" stroke="midnightblue" d="M575.297,-86.1574C588.853,-88.1087 603.216,-90.176 615.959,-92.0103"/>
<polygon fill="midnightblue" stroke="midnightblue" points="575.525,-82.6542 565.129,-84.6938 574.528,-89.5828 575.525,-82.6542"/>
</g>
<!-- Node107 -->
<g id="node8" class="node"><title>Node107</title>
<g id="a_node8"><a xlink:href="net_8h.html#a08ba53f8f554cf7a2559813ebde1bb1d" target="_top" xlink:title="Sends an RST message with code 0 for the specified request to dst. ">
<polygon fill="white" stroke="black" points="756,-12.1298 756,-31.1298 836,-31.1298 836,-12.1298 756,-12.1298"/>
<text text-anchor="middle" x="796" y="-19.1298" font-family="Helvetica,sans-Serif" font-size="10.00">coap_send_rst</text>
</a>
</g>
</g>
<!-- Node104&#45;&gt;Node107 -->
<g id="edge7" class="edge"><title>Node104&#45;&gt;Node107</title>
<path fill="none" stroke="midnightblue" d="M575.038,-67.7247C627.781,-56.672 708.2,-39.8196 755.792,-29.8462"/>
<polygon fill="midnightblue" stroke="midnightblue" points="574.271,-64.3094 565.202,-69.7861 575.707,-71.1606 574.271,-64.3094"/>
</g>
<!-- Node105&#45;&gt;Node106 -->
<g id="edge6" class="edge"><title>Node105&#45;&gt;Node106</title>
<path fill="none" stroke="midnightblue" d="M706.136,-104.395C714.505,-105.547 723.301,-106.758 731.969,-107.952"/>
<polygon fill="midnightblue" stroke="midnightblue" points="706.56,-100.92 696.176,-103.024 705.605,-107.855 706.56,-100.92"/>
</g>
<!-- Node108&#45;&gt;Node107 -->
<g id="edge11" class="edge"><title>Node108&#45;&gt;Node107</title>
<path fill="none" stroke="midnightblue" d="M570.925,-9.91804C585.325,-6.92074 601.223,-4.12381 616,-2.62979 651.375,0.946863 660.604,0.736068 696,-2.62979 715.862,-4.51848 737.666,-8.49282 755.744,-12.3207"/>
<polygon fill="midnightblue" stroke="midnightblue" points="569.777,-6.58539 560.743,-12.1202 571.257,-13.4272 569.777,-6.58539"/>
</g>
<!-- Node109 -->
<g id="node10" class="node"><title>Node109</title>
<g id="a_node10"><a xlink:href="net_8h.html#ade17f093221599e839345cf88b74b496" target="_top" xlink:title="Reads data from the network and tries to parse as CoAP PDU. ">
<polygon fill="white" stroke="black" points="625,-12.1298 625,-31.1298 687,-31.1298 687,-12.1298 625,-12.1298"/>
<text text-anchor="middle" x="656" y="-19.1298" font-family="Helvetica,sans-Serif" font-size="10.00">coap_read</text>
</a>
</g>
</g>
<!-- Node108&#45;&gt;Node109 -->
<g id="edge9" class="edge"><title>Node108&#45;&gt;Node109</title>
<path fill="none" stroke="midnightblue" d="M590.247,-21.6298C602.318,-21.6298 614.334,-21.6298 624.678,-21.6298"/>
<polygon fill="midnightblue" stroke="midnightblue" points="590.129,-18.1299 580.129,-21.6298 590.129,-25.1299 590.129,-18.1299"/>
</g>
<!-- Node109&#45;&gt;Node107 -->
<g id="edge10" class="edge"><title>Node109&#45;&gt;Node107</title>
<path fill="none" stroke="midnightblue" d="M697.422,-21.6298C715.853,-21.6298 737.589,-21.6298 755.863,-21.6298"/>
<polygon fill="midnightblue" stroke="midnightblue" points="697.285,-18.1299 687.285,-21.6298 697.285,-25.1299 697.285,-18.1299"/>
</g>
</g>
</svg>
