<?xml version="1.0" encoding="UTF-8" standalone="no"?>
<!DOCTYPE svg PUBLIC "-//W3C//DTD SVG 1.1//EN"
 "http://www.w3.org/Graphics/SVG/1.1/DTD/svg11.dtd">
<!-- Generated by graphviz version 2.38.0 (20140413.2041)
 -->
<!-- Title: coap_option_filter_set Pages: 1 -->
<svg width="1438pt" height="258pt"
 viewBox="0.00 0.00 1438.00 257.63" xmlns="http://www.w3.org/2000/svg" xmlns:xlink="http://www.w3.org/1999/xlink">
<g id="graph0" class="graph" transform="scale(1 1) rotate(0) translate(4 253.63)">
<title>coap_option_filter_set</title>
<polygon fill="white" stroke="none" points="-4,4 -4,-253.63 1434,-253.63 1434,4 -4,4"/>
<!-- Node187 -->
<g id="node1" class="node"><title>Node187</title>
<polygon fill="#bfbfbf" stroke="black" points="0,-112.5 0,-131.5 112,-131.5 112,-112.5 0,-112.5"/>
<text text-anchor="middle" x="56" y="-119.5" font-family="Helvetica,sans-Serif" font-size="10.00">coap_option_filter_set</text>
</g>
<!-- Node188 -->
<g id="node2" class="node"><title>Node188</title>
<g id="a_node2"><a xlink:href="net_8h.html#a9c6736c0418c3adf5e7f6fb76f000cfe" target="_top" xlink:title="Verifies that pdu contains no unknown critical options. ">
<polygon fill="white" stroke="black" points="748,-28.5 748,-47.5 882,-47.5 882,-28.5 748,-28.5"/>
<text text-anchor="middle" x="815" y="-35.5" font-family="Helvetica,sans-Serif" font-size="10.00">coap_option_check_critical</text>
</a>
</g>
</g>
<!-- Node187&#45;&gt;Node188 -->
<g id="edge1" class="edge"><title>Node187&#45;&gt;Node188</title>
<path fill="none" stroke="midnightblue" d="M77.0083,-106.219C120.911,-73.2289 230.121,-0 334.5,-0 334.5,-0 334.5,-0 487,-0 587.356,-0 612.546,-5.57221 712,-19 730.476,-21.4945 750.685,-25.0776 768.205,-28.4614"/>
<polygon fill="midnightblue" stroke="midnightblue" points="74.7061,-103.573 68.8873,-112.427 78.9575,-109.134 74.7061,-103.573"/>
</g>
<!-- Node196 -->
<g id="node10" class="node"><title>Node196</title>
<g id="a_node10"><a xlink:href="group__opt__filter.html#gabf9e0bc62ef945d1951acc76eea0c307" target="_top" xlink:title="Clears filter f. ">
<polygon fill="white" stroke="black" points="148,-155 148,-185 241,-185 241,-155 148,-155"/>
<text text-anchor="start" x="156" y="-173" font-family="Helvetica,sans-Serif" font-size="10.00">coap_option_filter</text>
<text text-anchor="middle" x="194.5" y="-162" font-family="Helvetica,sans-Serif" font-size="10.00">_clear</text>
</a>
</g>
</g>
<!-- Node187&#45;&gt;Node196 -->
<g id="edge13" class="edge"><title>Node187&#45;&gt;Node196</title>
<path fill="none" stroke="midnightblue" d="M94.1326,-135.058C111.601,-141.2 132.529,-148.56 150.665,-154.937"/>
<polygon fill="midnightblue" stroke="midnightblue" points="94.8896,-131.614 84.2947,-131.598 92.5674,-138.217 94.8896,-131.614"/>
</g>
<!-- Node205 -->
<g id="node19" class="node"><title>Node205</title>
<g id="a_node19"><a xlink:href="group__opt__filter.html#ga06ac62f16b91329a5f41e59adb262d90" target="_top" xlink:title="Sets the corresponding bit for type in filter. ">
<polygon fill="white" stroke="black" points="148,-112.5 148,-131.5 241,-131.5 241,-112.5 148,-112.5"/>
<text text-anchor="middle" x="194.5" y="-119.5" font-family="Helvetica,sans-Serif" font-size="10.00">coap_option_setb</text>
</a>
</g>
</g>
<!-- Node187&#45;&gt;Node205 -->
<g id="edge29" class="edge"><title>Node187&#45;&gt;Node205</title>
<path fill="none" stroke="midnightblue" d="M122.212,-122C130.857,-122 139.567,-122 147.786,-122"/>
<polygon fill="midnightblue" stroke="midnightblue" points="122.126,-118.5 112.126,-122 122.126,-125.5 122.126,-118.5"/>
</g>
<!-- Node189 -->
<g id="node3" class="node"><title>Node189</title>
<g id="a_node3"><a xlink:href="net_8h.html#ab458d1c3b0f5d695dfa86b805ae8463d" target="_top" xlink:title="Dispatches the PDUs from the receive queue in given context. ">
<polygon fill="white" stroke="black" points="918,-142.5 918,-161.5 998,-161.5 998,-142.5 918,-142.5"/>
<text text-anchor="middle" x="958" y="-149.5" font-family="Helvetica,sans-Serif" font-size="10.00">coap_dispatch</text>
</a>
</g>
</g>
<!-- Node188&#45;&gt;Node189 -->
<g id="edge2" class="edge"><title>Node188&#45;&gt;Node189</title>
<path fill="none" stroke="midnightblue" d="M836.046,-54.2075C865.814,-78.2749 920.789,-122.723 945.009,-142.305"/>
<polygon fill="midnightblue" stroke="midnightblue" points="837.998,-51.2851 828.022,-47.7196 833.597,-56.7285 837.998,-51.2851"/>
</g>
<!-- Node192 -->
<g id="node6" class="node"><title>Node192</title>
<g id="a_node6"><a xlink:href="net_8h.html#ac58be1c374afa04d10810aef1d073315" target="_top" xlink:title="Removes the transaction identified by id from given queue. ">
<polygon fill="white" stroke="black" points="1302,-85.5 1302,-104.5 1430,-104.5 1430,-85.5 1302,-85.5"/>
<text text-anchor="middle" x="1366" y="-92.5" font-family="Helvetica,sans-Serif" font-size="10.00">coap_remove_transaction</text>
</a>
</g>
</g>
<!-- Node188&#45;&gt;Node192 -->
<g id="edge12" class="edge"><title>Node188&#45;&gt;Node192</title>
<path fill="none" stroke="midnightblue" d="M892.375,-35.8818C982.498,-34.8028 1136.48,-37.4239 1266,-62 1292.88,-67.0999 1322.49,-77.6647 1342.26,-85.4732"/>
<polygon fill="midnightblue" stroke="midnightblue" points="892.195,-32.3839 882.244,-36.022 892.292,-39.3832 892.195,-32.3839"/>
</g>
<!-- Node190 -->
<g id="node4" class="node"><title>Node190</title>
<g id="a_node4"><a xlink:href="net_8h.html#a9900c032b74bd57f67d489484a2b3207" target="_top" xlink:title="Handles retransmissions of confirmable messages. ">
<polygon fill="white" stroke="black" points="1049,-142.5 1049,-161.5 1135,-161.5 1135,-142.5 1049,-142.5"/>
<text text-anchor="middle" x="1092" y="-149.5" font-family="Helvetica,sans-Serif" font-size="10.00">coap_retransmit</text>
</a>
</g>
</g>
<!-- Node189&#45;&gt;Node190 -->
<g id="edge3" class="edge"><title>Node189&#45;&gt;Node190</title>
<path fill="none" stroke="midnightblue" d="M1008.64,-152C1021.9,-152 1036.1,-152 1048.92,-152"/>
<polygon fill="midnightblue" stroke="midnightblue" points="1008.25,-148.5 998.247,-152 1008.25,-155.5 1008.25,-148.5"/>
</g>
<!-- Node189&#45;&gt;Node192 -->
<g id="edge11" class="edge"><title>Node189&#45;&gt;Node192</title>
<path fill="none" stroke="midnightblue" d="M1002.71,-139.881C1012.92,-137.342 1023.79,-134.87 1034,-133 1126.46,-116.06 1234.9,-105.315 1301.79,-99.7254"/>
<polygon fill="midnightblue" stroke="midnightblue" points="1001.58,-136.555 992.764,-142.424 1003.32,-143.337 1001.58,-136.555"/>
</g>
<!-- Node194 -->
<g id="node8" class="node"><title>Node194</title>
<g id="a_node8"><a xlink:href="net_8h.html#a74c5ca78210280817a5586f61abfa5f3" target="_top" xlink:title="Parses and interprets a CoAP message with context ctx. ">
<polygon fill="white" stroke="black" points="1034,-218.5 1034,-237.5 1150,-237.5 1150,-218.5 1034,-218.5"/>
<text text-anchor="middle" x="1092" y="-225.5" font-family="Helvetica,sans-Serif" font-size="10.00">coap_handle_message</text>
</a>
</g>
</g>
<!-- Node189&#45;&gt;Node194 -->
<g id="edge7" class="edge"><title>Node189&#45;&gt;Node194</title>
<path fill="none" stroke="midnightblue" d="M984.453,-166.655C1010.98,-181.929 1051.78,-205.417 1074.42,-218.453"/>
<polygon fill="midnightblue" stroke="midnightblue" points="986.131,-163.582 975.718,-161.625 982.638,-169.648 986.131,-163.582"/>
</g>
<!-- Node191 -->
<g id="node5" class="node"><title>Node191</title>
<g id="a_node5"><a xlink:href="net_8h.html#a231e9a81ac7c03c3e5c251824a76d7b9" target="_top" xlink:title="Returns 1 if there are no messages to send or to dispatch in the context&#39;s queues. ">
<polygon fill="white" stroke="black" points="1186,-142.5 1186,-161.5 1266,-161.5 1266,-142.5 1186,-142.5"/>
<text text-anchor="middle" x="1226" y="-149.5" font-family="Helvetica,sans-Serif" font-size="10.00">coap_can_exit</text>
</a>
</g>
</g>
<!-- Node190&#45;&gt;Node191 -->
<g id="edge4" class="edge"><title>Node190&#45;&gt;Node191</title>
<path fill="none" stroke="midnightblue" d="M1145.3,-152C1158.85,-152 1173.22,-152 1185.96,-152"/>
<polygon fill="midnightblue" stroke="midnightblue" points="1145.13,-148.5 1135.13,-152 1145.13,-155.5 1145.13,-148.5"/>
</g>
<!-- Node193 -->
<g id="node7" class="node"><title>Node193</title>
<g id="a_node7"><a xlink:href="net_8h.html#a08ba53f8f554cf7a2559813ebde1bb1d" target="_top" xlink:title="Sends an RST message with code 0 for the specified request to dst. ">
<polygon fill="white" stroke="black" points="1326,-218.5 1326,-237.5 1406,-237.5 1406,-218.5 1326,-218.5"/>
<text text-anchor="middle" x="1366" y="-225.5" font-family="Helvetica,sans-Serif" font-size="10.00">coap_send_rst</text>
</a>
</g>
</g>
<!-- Node190&#45;&gt;Node193 -->
<g id="edge6" class="edge"><title>Node190&#45;&gt;Node193</title>
<path fill="none" stroke="midnightblue" d="M1136.82,-164.243C1190.85,-179.34 1281.55,-204.683 1330.75,-218.431"/>
<polygon fill="midnightblue" stroke="midnightblue" points="1137.75,-160.869 1127.17,-161.548 1135.86,-167.611 1137.75,-160.869"/>
</g>
<!-- Node191&#45;&gt;Node192 -->
<g id="edge5" class="edge"><title>Node191&#45;&gt;Node192</title>
<path fill="none" stroke="midnightblue" d="M1259.63,-138.521C1284.91,-128.079 1319.31,-113.871 1341.83,-104.572"/>
<polygon fill="midnightblue" stroke="midnightblue" points="1258,-135.407 1250.1,-142.459 1260.68,-141.877 1258,-135.407"/>
</g>
<!-- Node194&#45;&gt;Node193 -->
<g id="edge10" class="edge"><title>Node194&#45;&gt;Node193</title>
<path fill="none" stroke="midnightblue" d="M1140.93,-239.712C1155.32,-242.709 1171.22,-245.506 1186,-247 1221.38,-250.577 1230.6,-250.366 1266,-247 1285.86,-245.111 1307.67,-241.137 1325.74,-237.309"/>
<polygon fill="midnightblue" stroke="midnightblue" points="1141.26,-236.203 1130.74,-237.51 1139.78,-243.044 1141.26,-236.203"/>
</g>
<!-- Node195 -->
<g id="node9" class="node"><title>Node195</title>
<g id="a_node9"><a xlink:href="net_8h.html#ade17f093221599e839345cf88b74b496" target="_top" xlink:title="Reads data from the network and tries to parse as CoAP PDU. ">
<polygon fill="white" stroke="black" points="1195,-218.5 1195,-237.5 1257,-237.5 1257,-218.5 1195,-218.5"/>
<text text-anchor="middle" x="1226" y="-225.5" font-family="Helvetica,sans-Serif" font-size="10.00">coap_read</text>
</a>
</g>
</g>
<!-- Node194&#45;&gt;Node195 -->
<g id="edge8" class="edge"><title>Node194&#45;&gt;Node195</title>
<path fill="none" stroke="midnightblue" d="M1160.25,-228C1172.32,-228 1184.33,-228 1194.68,-228"/>
<polygon fill="midnightblue" stroke="midnightblue" points="1160.13,-224.5 1150.13,-228 1160.13,-231.5 1160.13,-224.5"/>
</g>
<!-- Node195&#45;&gt;Node193 -->
<g id="edge9" class="edge"><title>Node195&#45;&gt;Node193</title>
<path fill="none" stroke="midnightblue" d="M1267.42,-228C1285.85,-228 1307.59,-228 1325.86,-228"/>
<polygon fill="midnightblue" stroke="midnightblue" points="1267.28,-224.5 1257.28,-228 1267.28,-231.5 1267.28,-224.5"/>
</g>
<!-- Node197 -->
<g id="node11" class="node"><title>Node197</title>
<g id="a_node11"><a xlink:href="net_8c.html#a13ff6a2308c8e167a66218e43b819df2" target="_top" xlink:title="handle_request">
<polygon fill="white" stroke="black" points="773.5,-142.5 773.5,-161.5 856.5,-161.5 856.5,-142.5 773.5,-142.5"/>
<text text-anchor="middle" x="815" y="-149.5" font-family="Helvetica,sans-Serif" font-size="10.00">handle_request</text>
</a>
</g>
</g>
<!-- Node196&#45;&gt;Node197 -->
<g id="edge14" class="edge"><title>Node196&#45;&gt;Node197</title>
<path fill="none" stroke="midnightblue" d="M250.12,-188.057C346.112,-216.859 550.229,-264.922 712,-213 747.56,-201.587 783.825,-175.819 802.022,-161.7"/>
<polygon fill="midnightblue" stroke="midnightblue" points="250.928,-184.645 240.342,-185.077 248.887,-191.341 250.928,-184.645"/>
</g>
<!-- Node198 -->
<g id="node12" class="node"><title>Node198</title>
<g id="a_node12"><a xlink:href="group__opt__filter.html#gadbabeb7658e877010cbf77ed220e64ea" target="_top" xlink:title="Retrieves the first option of type type from pdu. ">
<polygon fill="white" stroke="black" points="285,-112.5 285,-131.5 386,-131.5 386,-112.5 285,-112.5"/>
<text text-anchor="middle" x="335.5" y="-119.5" font-family="Helvetica,sans-Serif" font-size="10.00">coap_check_option</text>
</a>
</g>
</g>
<!-- Node196&#45;&gt;Node198 -->
<g id="edge16" class="edge"><title>Node196&#45;&gt;Node198</title>
<path fill="none" stroke="midnightblue" d="M248.649,-151.646C268.472,-144.801 290.177,-137.306 306.803,-131.564"/>
<polygon fill="midnightblue" stroke="midnightblue" points="247.409,-148.372 239.099,-154.944 249.694,-154.988 247.409,-148.372"/>
</g>
<!-- Node203 -->
<g id="node17" class="node"><title>Node203</title>
<g id="a_node17"><a xlink:href="resource_8h.html#a5cd67cb7b62f8e0e74c81fd722cc614d" target="_top" xlink:title="Calculates the hash key for the resource requested by the Uri&#45;Options of request. ...">
<polygon fill="white" stroke="black" points="277,-164.5 277,-183.5 394,-183.5 394,-164.5 277,-164.5"/>
<text text-anchor="middle" x="335.5" y="-171.5" font-family="Helvetica,sans-Serif" font-size="10.00">coap_hash_request_uri</text>
</a>
</g>
</g>
<!-- Node196&#45;&gt;Node203 -->
<g id="edge26" class="edge"><title>Node196&#45;&gt;Node203</title>
<path fill="none" stroke="midnightblue" d="M251.112,-171.6C259.535,-171.843 268.241,-172.093 276.709,-172.337"/>
<polygon fill="midnightblue" stroke="midnightblue" points="251.11,-168.099 241.014,-171.31 250.909,-175.096 251.11,-168.099"/>
</g>
<!-- Node197&#45;&gt;Node189 -->
<g id="edge15" class="edge"><title>Node197&#45;&gt;Node189</title>
<path fill="none" stroke="midnightblue" d="M866.962,-152C883.7,-152 902.034,-152 917.765,-152"/>
<polygon fill="midnightblue" stroke="midnightblue" points="866.783,-148.5 856.783,-152 866.783,-155.5 866.783,-148.5"/>
</g>
<!-- Node198&#45;&gt;Node197 -->
<g id="edge25" class="edge"><title>Node198&#45;&gt;Node197</title>
<path fill="none" stroke="midnightblue" d="M396.268,-120.904C470.52,-120.197 600.983,-121.1 712,-133 732.239,-135.169 754.484,-139.126 773.021,-142.868"/>
<polygon fill="midnightblue" stroke="midnightblue" points="396.133,-117.405 386.172,-121.014 396.209,-124.405 396.133,-117.405"/>
</g>
<!-- Node199 -->
<g id="node13" class="node"><title>Node199</title>
<g id="a_node13"><a xlink:href="group__block.html#ga265adcc610026896a5e8a046bcc359ca" target="_top" xlink:title="Initializes block from pdu. ">
<polygon fill="white" stroke="black" points="443.5,-28.5 443.5,-47.5 528.5,-47.5 528.5,-28.5 443.5,-28.5"/>
<text text-anchor="middle" x="486" y="-35.5" font-family="Helvetica,sans-Serif" font-size="10.00">coap_get_block</text>
</a>
</g>
</g>
<!-- Node198&#45;&gt;Node199 -->
<g id="edge17" class="edge"><title>Node198&#45;&gt;Node199</title>
<path fill="none" stroke="midnightblue" d="M384.191,-108.518C387.616,-106.868 390.926,-105.035 394,-103 414.221,-89.6156 410.418,-76.3032 430,-62 437.992,-56.1623 447.627,-51.3522 456.584,-47.611"/>
<polygon fill="midnightblue" stroke="midnightblue" points="382.766,-105.321 374.943,-112.466 385.514,-111.759 382.766,-105.321"/>
</g>
<!-- Node201 -->
<g id="node15" class="node"><title>Node201</title>
<g id="a_node15"><a xlink:href="net_8h.html#a4bf688cc4467cb91b6ace43e735ffafa" target="_top" xlink:title="Creates a new response for given request with the contents of .well&#45;known/core. ">
<polygon fill="white" stroke="black" points="578,-66.5 578,-85.5 712,-85.5 712,-66.5 578,-66.5"/>
<text text-anchor="middle" x="645" y="-73.5" font-family="Helvetica,sans-Serif" font-size="10.00">coap_wellknown_response</text>
</a>
</g>
</g>
<!-- Node198&#45;&gt;Node201 -->
<g id="edge22" class="edge"><title>Node198&#45;&gt;Node201</title>
<path fill="none" stroke="midnightblue" d="M382.764,-109.961C397.756,-106.369 414.513,-102.681 430,-100 479.179,-91.4879 535.262,-85.327 577.675,-81.3798"/>
<polygon fill="midnightblue" stroke="midnightblue" points="381.587,-106.645 372.703,-112.418 383.248,-113.445 381.587,-106.645"/>
</g>
<!-- Node202 -->
<g id="node16" class="node"><title>Node202</title>
<g id="a_node16"><a xlink:href="net_8c.html#aa708f479d33a6ca76bf214a0e0e42de4" target="_top" xlink:title="Checks for No&#45;Response option in given request and returns 1 if response should be suppressed accordi...">
<polygon fill="white" stroke="black" points="609,-142.5 609,-161.5 681,-161.5 681,-142.5 609,-142.5"/>
<text text-anchor="middle" x="645" y="-149.5" font-family="Helvetica,sans-Serif" font-size="10.00">no_response</text>
</a>
</g>
</g>
<!-- Node198&#45;&gt;Node202 -->
<g id="edge23" class="edge"><title>Node198&#45;&gt;Node202</title>
<path fill="none" stroke="midnightblue" d="M396.461,-127.85C459.603,-134.01 556.897,-143.502 608.701,-148.556"/>
<polygon fill="midnightblue" stroke="midnightblue" points="396.54,-124.341 386.247,-126.853 395.86,-131.308 396.54,-124.341"/>
</g>
<!-- Node200 -->
<g id="node14" class="node"><title>Node200</title>
<g id="a_node14"><a xlink:href="group__block.html#ga86f7b29ef40d806ea3be9d0ff50963e7" target="_top" xlink:title="Sets the More&#45;bit in block_opt. ">
<polygon fill="white" stroke="black" points="586.5,-28.5 586.5,-47.5 703.5,-47.5 703.5,-28.5 586.5,-28.5"/>
<text text-anchor="middle" x="645" y="-35.5" font-family="Helvetica,sans-Serif" font-size="10.00">coap_opt_block_set_m</text>
</a>
</g>
</g>
<!-- Node199&#45;&gt;Node200 -->
<g id="edge18" class="edge"><title>Node199&#45;&gt;Node200</title>
<path fill="none" stroke="midnightblue" d="M538.934,-38C554.169,-38 570.918,-38 586.48,-38"/>
<polygon fill="midnightblue" stroke="midnightblue" points="538.661,-34.5001 528.661,-38 538.661,-41.5001 538.661,-34.5001"/>
</g>
<!-- Node199&#45;&gt;Node201 -->
<g id="edge19" class="edge"><title>Node199&#45;&gt;Node201</title>
<path fill="none" stroke="midnightblue" d="M536.447,-49.968C558.448,-55.2931 583.994,-61.4762 604.667,-66.4799"/>
<polygon fill="midnightblue" stroke="midnightblue" points="537.16,-46.5398 526.618,-47.589 535.514,-53.3433 537.16,-46.5398"/>
</g>
<!-- Node201&#45;&gt;Node192 -->
<g id="edge21" class="edge"><title>Node201&#45;&gt;Node192</title>
<path fill="none" stroke="midnightblue" d="M722.37,-76C785.326,-76 876.957,-76 957,-76 957,-76 957,-76 1093,-76 1164.72,-76 1246.81,-82.6542 1301.88,-88.0868"/>
<polygon fill="midnightblue" stroke="midnightblue" points="722.129,-72.5001 712.129,-76 722.129,-79.5001 722.129,-72.5001"/>
</g>
<!-- Node201&#45;&gt;Node197 -->
<g id="edge20" class="edge"><title>Node201&#45;&gt;Node197</title>
<path fill="none" stroke="midnightblue" d="M684.247,-89.0065C693.424,-92.3742 703.132,-96.1444 712,-100 742.442,-113.235 776.573,-131.331 796.625,-142.314"/>
<polygon fill="midnightblue" stroke="midnightblue" points="685.158,-85.6146 674.563,-85.5253 682.79,-92.2019 685.158,-85.6146"/>
</g>
<!-- Node202&#45;&gt;Node197 -->
<g id="edge24" class="edge"><title>Node202&#45;&gt;Node197</title>
<path fill="none" stroke="midnightblue" d="M691.384,-152C716.897,-152 748.486,-152 773.21,-152"/>
<polygon fill="midnightblue" stroke="midnightblue" points="691.218,-148.5 681.218,-152 691.218,-155.5 691.218,-148.5"/>
</g>
<!-- Node203&#45;&gt;Node197 -->
<g id="edge27" class="edge"><title>Node203&#45;&gt;Node197</title>
<path fill="none" stroke="midnightblue" d="M365.368,-187.879C383.469,-195.798 407.551,-204.936 430,-209 564.296,-233.312 726.403,-183.496 788.293,-161.613"/>
<polygon fill="midnightblue" stroke="midnightblue" points="366.53,-184.564 355.975,-183.645 363.653,-190.945 366.53,-184.564"/>
</g>
<!-- Node204 -->
<g id="node18" class="node"><title>Node204</title>
<g id="a_node18"><a xlink:href="resource_8h.html#a8f78ecf70cfbe5a69677bf3b97f0b776" target="_top" xlink:title="Registers the specified handler as message handler for the request type method. ">
<polygon fill="white" stroke="black" points="430,-180.5 430,-199.5 542,-199.5 542,-180.5 430,-180.5"/>
<text text-anchor="middle" x="486" y="-187.5" font-family="Helvetica,sans-Serif" font-size="10.00">coap_register_handler</text>
</a>
</g>
</g>
<!-- Node203&#45;&gt;Node204 -->
<g id="edge28" class="edge"><title>Node203&#45;&gt;Node204</title>
<path fill="none" stroke="midnightblue" d="M404.343,-181.31C412.933,-182.235 421.638,-183.173 429.994,-184.073"/>
<polygon fill="midnightblue" stroke="midnightblue" points="404.657,-177.823 394.339,-180.232 403.907,-184.783 404.657,-177.823"/>
</g>
<!-- Node205&#45;&gt;Node198 -->
<g id="edge31" class="edge"><title>Node205&#45;&gt;Node198</title>
<path fill="none" stroke="midnightblue" d="M251.019,-122C262.103,-122 273.681,-122 284.563,-122"/>
<polygon fill="midnightblue" stroke="midnightblue" points="251.014,-118.5 241.014,-122 251.014,-125.5 251.014,-118.5"/>
</g>
<!-- Node205&#45;&gt;Node203 -->
<g id="edge32" class="edge"><title>Node205&#45;&gt;Node203</title>
<path fill="none" stroke="midnightblue" d="M230.568,-135.119C254.874,-144.212 286.698,-156.117 308.696,-164.347"/>
<polygon fill="midnightblue" stroke="midnightblue" points="231.587,-131.763 220.995,-131.538 229.134,-138.32 231.587,-131.763"/>
</g>
<!-- Node206 -->
<g id="node20" class="node"><title>Node206</title>
<g id="a_node20"><a xlink:href="net_8h.html#a0b28834233cb704a89fb8e740ca65c69" target="_top" xlink:title="Registers the option type type with the given context object ctx. ">
<polygon fill="white" stroke="black" points="282,-74.5 282,-93.5 389,-93.5 389,-74.5 282,-74.5"/>
<text text-anchor="middle" x="335.5" y="-81.5" font-family="Helvetica,sans-Serif" font-size="10.00">coap_register_option</text>
</a>
</g>
</g>
<!-- Node205&#45;&gt;Node206 -->
<g id="edge30" class="edge"><title>Node205&#45;&gt;Node206</title>
<path fill="none" stroke="midnightblue" d="M240.295,-109.754C259.455,-104.516 281.494,-98.4909 299.436,-93.5859"/>
<polygon fill="midnightblue" stroke="midnightblue" points="239.299,-106.398 230.576,-112.411 241.145,-113.15 239.299,-106.398"/>
</g>
</g>
</svg>
