<?xml version="1.0" encoding="UTF-8" standalone="no"?>
<!DOCTYPE svg PUBLIC "-//W3C//DTD SVG 1.1//EN"
 "http://www.w3.org/Graphics/SVG/1.1/DTD/svg11.dtd">
<!-- Generated by graphviz version 2.38.0 (20140413.2041)
 -->
<!-- Title: coap_option_getb Pages: 1 -->
<svg width="509pt" height="66pt"
 viewBox="0.00 0.00 509.00 66.00" xmlns="http://www.w3.org/2000/svg" xmlns:xlink="http://www.w3.org/1999/xlink">
<g id="graph0" class="graph" transform="scale(1 1) rotate(0) translate(4 62)">
<title>coap_option_getb</title>
<polygon fill="white" stroke="none" points="-4,4 -4,-62 505,-62 505,4 -4,4"/>
<!-- Node234 -->
<g id="node1" class="node"><title>Node234</title>
<polygon fill="#bfbfbf" stroke="black" points="0,-19.5 0,-38.5 93,-38.5 93,-19.5 0,-19.5"/>
<text text-anchor="middle" x="46.5" y="-26.5" font-family="Helvetica,sans-Serif" font-size="10.00">coap_option_getb</text>
</g>
<!-- Node235 -->
<g id="node2" class="node"><title>Node235</title>
<g id="a_node2"><a xlink:href="group__opt__filter.html#ga43220918c5f526de3738bdd95832eda3" target="_top" xlink:title="Checks if type is contained in filter. ">
<polygon fill="white" stroke="black" points="129,-19.5 129,-38.5 241,-38.5 241,-19.5 129,-19.5"/>
<text text-anchor="middle" x="185" y="-26.5" font-family="Helvetica,sans-Serif" font-size="10.00">coap_option_filter_get</text>
</a>
</g>
</g>
<!-- Node234&#45;&gt;Node235 -->
<g id="edge1" class="edge"><title>Node234&#45;&gt;Node235</title>
<path fill="none" stroke="midnightblue" d="M93.3323,-29C101.371,-29 109.877,-29 118.33,-29"/>
<polygon fill="midnightblue" stroke="midnightblue" points="118.58,-32.5001 128.58,-29 118.58,-25.5001 118.58,-32.5001"/>
</g>
<!-- Node236 -->
<g id="node3" class="node"><title>Node236</title>
<g id="a_node3"><a xlink:href="option_8c.html#a58b1764055e7ee09aca186314ea59beb" target="_top" xlink:title="Applies op on filter with respect to type. ">
<polygon fill="white" stroke="black" points="277,-19.5 277,-38.5 386,-38.5 386,-19.5 277,-19.5"/>
<text text-anchor="middle" x="331.5" y="-26.5" font-family="Helvetica,sans-Serif" font-size="10.00">coap_option_filter_op</text>
</a>
</g>
</g>
<!-- Node235&#45;&gt;Node236 -->
<g id="edge2" class="edge"><title>Node235&#45;&gt;Node236</title>
<path fill="none" stroke="midnightblue" d="M241.041,-29C249.32,-29 257.919,-29 266.367,-29"/>
<polygon fill="midnightblue" stroke="midnightblue" points="266.567,-32.5001 276.567,-29 266.567,-25.5001 266.567,-32.5001"/>
</g>
<!-- Node237 -->
<g id="node4" class="node"><title>Node237</title>
<g id="a_node4"><a xlink:href="option_8c.html#a613d8a39b97bcf7a9bae99072e5e23c6" target="_top" xlink:title="Returns true iff type denotes an option type larger than 255. ">
<polygon fill="white" stroke="black" points="422,-38.5 422,-57.5 501,-57.5 501,-38.5 422,-38.5"/>
<text text-anchor="middle" x="461.5" y="-45.5" font-family="Helvetica,sans-Serif" font-size="10.00">is_long_option</text>
</a>
</g>
</g>
<!-- Node236&#45;&gt;Node237 -->
<g id="edge3" class="edge"><title>Node236&#45;&gt;Node237</title>
<path fill="none" stroke="midnightblue" d="M386.042,-36.9476C394.614,-38.22 403.443,-39.5306 411.892,-40.7847"/>
<polygon fill="midnightblue" stroke="midnightblue" points="411.56,-44.2737 421.966,-42.2801 412.588,-37.3496 411.56,-44.2737"/>
</g>
<!-- Node238 -->
<g id="node5" class="node"><title>Node238</title>
<g id="a_node5"><a xlink:href="encode_8c.html#a671b4261b2d24de8696258a8efb0f359" target="_top" xlink:title="coap_fls">
<polygon fill="white" stroke="black" points="435,-0.5 435,-19.5 488,-19.5 488,-0.5 435,-0.5"/>
<text text-anchor="middle" x="461.5" y="-7.5" font-family="Helvetica,sans-Serif" font-size="10.00">coap_fls</text>
</a>
</g>
</g>
<!-- Node236&#45;&gt;Node238 -->
<g id="edge4" class="edge"><title>Node236&#45;&gt;Node238</title>
<path fill="none" stroke="midnightblue" d="M386.042,-21.0524C399.076,-19.1176 412.706,-17.0945 424.688,-15.3159"/>
<polygon fill="midnightblue" stroke="midnightblue" points="425.359,-18.7547 434.737,-13.8242 424.331,-11.8305 425.359,-18.7547"/>
</g>
</g>
</svg>
