<?xml version="1.0" encoding="UTF-8" standalone="no"?>
<!DOCTYPE svg PUBLIC "-//W3C//DTD SVG 1.1//EN"
 "http://www.w3.org/Graphics/SVG/1.1/DTD/svg11.dtd">
<!-- Generated by graphviz version 2.38.0 (20140413.2041)
 -->
<!-- Title: coap_option_next Pages: 1 -->
<svg width="638pt" height="123pt"
 viewBox="0.00 0.00 638.00 123.00" xmlns="http://www.w3.org/2000/svg" xmlns:xlink="http://www.w3.org/1999/xlink">
<g id="graph0" class="graph" transform="scale(1 1) rotate(0) translate(4 119)">
<title>coap_option_next</title>
<polygon fill="white" stroke="none" points="-4,4 -4,-119 634,-119 634,4 -4,4"/>
<!-- Node287 -->
<g id="node1" class="node"><title>Node287</title>
<polygon fill="#bfbfbf" stroke="black" points="0,-57.5 0,-76.5 93,-76.5 93,-57.5 0,-57.5"/>
<text text-anchor="middle" x="46.5" y="-64.5" font-family="Helvetica,sans-Serif" font-size="10.00">coap_option_next</text>
</g>
<!-- Node288 -->
<g id="node2" class="node"><title>Node288</title>
<g id="a_node2"><a xlink:href="option_8c.html#ad34ae741f83acf83251f2f720f73f58e" target="_top" xlink:title="opt_finished">
<polygon fill="white" stroke="black" points="141,-95.5 141,-114.5 210,-114.5 210,-95.5 141,-95.5"/>
<text text-anchor="middle" x="175.5" y="-102.5" font-family="Helvetica,sans-Serif" font-size="10.00">opt_finished</text>
</a>
</g>
</g>
<!-- Node287&#45;&gt;Node288 -->
<g id="edge1" class="edge"><title>Node287&#45;&gt;Node288</title>
<path fill="none" stroke="midnightblue" d="M79.5475,-76.589C95.6411,-81.4044 115.341,-87.2988 132.617,-92.468"/>
<polygon fill="midnightblue" stroke="midnightblue" points="131.879,-95.9006 142.463,-95.4141 133.886,-89.1943 131.879,-95.9006"/>
</g>
<!-- Node289 -->
<g id="node3" class="node"><title>Node289</title>
<g id="a_node3"><a xlink:href="option_8c.html#a11de99f50cc9f5a34fd9e4d121ecfd13" target="_top" xlink:title="Parses the option pointed to by opt into result. ">
<polygon fill="white" stroke="black" points="132.5,-57.5 132.5,-76.5 218.5,-76.5 218.5,-57.5 132.5,-57.5"/>
<text text-anchor="middle" x="175.5" y="-64.5" font-family="Helvetica,sans-Serif" font-size="10.00">coap_opt_parse</text>
</a>
</g>
</g>
<!-- Node287&#45;&gt;Node289 -->
<g id="edge2" class="edge"><title>Node287&#45;&gt;Node289</title>
<path fill="none" stroke="midnightblue" d="M93.3499,-67C102.637,-67 112.472,-67 121.969,-67"/>
<polygon fill="midnightblue" stroke="midnightblue" points="122.101,-70.5001 132.101,-67 122.1,-63.5001 122.101,-70.5001"/>
</g>
<!-- Node290 -->
<g id="node4" class="node"><title>Node290</title>
<g id="a_node4"><a xlink:href="group__opt__filter.html#ga7d109b7a83df74d0b3c2f709ecbbebad" target="_top" xlink:title="Gets the corresponding bit for type in filter. ">
<polygon fill="white" stroke="black" points="129,-19.5 129,-38.5 222,-38.5 222,-19.5 129,-19.5"/>
<text text-anchor="middle" x="175.5" y="-26.5" font-family="Helvetica,sans-Serif" font-size="10.00">coap_option_getb</text>
</a>
</g>
</g>
<!-- Node287&#45;&gt;Node290 -->
<g id="edge3" class="edge"><title>Node287&#45;&gt;Node290</title>
<path fill="none" stroke="midnightblue" d="M79.5475,-57.411C95.6411,-52.5956 115.341,-46.7012 132.617,-41.532"/>
<polygon fill="midnightblue" stroke="midnightblue" points="133.886,-44.8057 142.463,-38.5859 131.879,-38.0994 133.886,-44.8057"/>
</g>
<!-- Node291 -->
<g id="node5" class="node"><title>Node291</title>
<g id="a_node5"><a xlink:href="group__opt__filter.html#ga43220918c5f526de3738bdd95832eda3" target="_top" xlink:title="Checks if type is contained in filter. ">
<polygon fill="white" stroke="black" points="258,-19.5 258,-38.5 370,-38.5 370,-19.5 258,-19.5"/>
<text text-anchor="middle" x="314" y="-26.5" font-family="Helvetica,sans-Serif" font-size="10.00">coap_option_filter_get</text>
</a>
</g>
</g>
<!-- Node290&#45;&gt;Node291 -->
<g id="edge4" class="edge"><title>Node290&#45;&gt;Node291</title>
<path fill="none" stroke="midnightblue" d="M222.332,-29C230.371,-29 238.877,-29 247.33,-29"/>
<polygon fill="midnightblue" stroke="midnightblue" points="247.58,-32.5001 257.58,-29 247.58,-25.5001 247.58,-32.5001"/>
</g>
<!-- Node292 -->
<g id="node6" class="node"><title>Node292</title>
<g id="a_node6"><a xlink:href="option_8c.html#a58b1764055e7ee09aca186314ea59beb" target="_top" xlink:title="Applies op on filter with respect to type. ">
<polygon fill="white" stroke="black" points="406,-19.5 406,-38.5 515,-38.5 515,-19.5 406,-19.5"/>
<text text-anchor="middle" x="460.5" y="-26.5" font-family="Helvetica,sans-Serif" font-size="10.00">coap_option_filter_op</text>
</a>
</g>
</g>
<!-- Node291&#45;&gt;Node292 -->
<g id="edge5" class="edge"><title>Node291&#45;&gt;Node292</title>
<path fill="none" stroke="midnightblue" d="M370.041,-29C378.32,-29 386.919,-29 395.367,-29"/>
<polygon fill="midnightblue" stroke="midnightblue" points="395.567,-32.5001 405.567,-29 395.567,-25.5001 395.567,-32.5001"/>
</g>
<!-- Node293 -->
<g id="node7" class="node"><title>Node293</title>
<g id="a_node7"><a xlink:href="option_8c.html#a613d8a39b97bcf7a9bae99072e5e23c6" target="_top" xlink:title="Returns true iff type denotes an option type larger than 255. ">
<polygon fill="white" stroke="black" points="551,-38.5 551,-57.5 630,-57.5 630,-38.5 551,-38.5"/>
<text text-anchor="middle" x="590.5" y="-45.5" font-family="Helvetica,sans-Serif" font-size="10.00">is_long_option</text>
</a>
</g>
</g>
<!-- Node292&#45;&gt;Node293 -->
<g id="edge6" class="edge"><title>Node292&#45;&gt;Node293</title>
<path fill="none" stroke="midnightblue" d="M515.042,-36.9476C523.614,-38.22 532.443,-39.5306 540.892,-40.7847"/>
<polygon fill="midnightblue" stroke="midnightblue" points="540.56,-44.2737 550.966,-42.2801 541.588,-37.3496 540.56,-44.2737"/>
</g>
<!-- Node294 -->
<g id="node8" class="node"><title>Node294</title>
<g id="a_node8"><a xlink:href="encode_8c.html#a671b4261b2d24de8696258a8efb0f359" target="_top" xlink:title="coap_fls">
<polygon fill="white" stroke="black" points="564,-0.5 564,-19.5 617,-19.5 617,-0.5 564,-0.5"/>
<text text-anchor="middle" x="590.5" y="-7.5" font-family="Helvetica,sans-Serif" font-size="10.00">coap_fls</text>
</a>
</g>
</g>
<!-- Node292&#45;&gt;Node294 -->
<g id="edge7" class="edge"><title>Node292&#45;&gt;Node294</title>
<path fill="none" stroke="midnightblue" d="M515.042,-21.0524C528.076,-19.1176 541.706,-17.0945 553.688,-15.3159"/>
<polygon fill="midnightblue" stroke="midnightblue" points="554.359,-18.7547 563.737,-13.8242 553.331,-11.8305 554.359,-18.7547"/>
</g>
</g>
</svg>
