<?xml version="1.0" encoding="UTF-8" standalone="no"?>
<!DOCTYPE svg PUBLIC "-//W3C//DTD SVG 1.1//EN"
 "http://www.w3.org/Graphics/SVG/1.1/DTD/svg11.dtd">
<!-- Generated by graphviz version 2.38.0 (20140413.2041)
 -->
<!-- Title: coap_option_clrb Pages: 1 -->
<svg width="487pt" height="66pt"
 viewBox="0.00 0.00 487.00 66.00" xmlns="http://www.w3.org/2000/svg" xmlns:xlink="http://www.w3.org/1999/xlink">
<g id="graph0" class="graph" transform="scale(1 1) rotate(0) translate(4 62)">
<title>coap_option_clrb</title>
<polygon fill="white" stroke="none" points="-4,4 -4,-62 483,-62 483,4 -4,4"/>
<!-- Node110 -->
<g id="node1" class="node"><title>Node110</title>
<polygon fill="#bfbfbf" stroke="black" points="0,-19.5 0,-38.5 90,-38.5 90,-19.5 0,-19.5"/>
<text text-anchor="middle" x="45" y="-26.5" font-family="Helvetica,sans-Serif" font-size="10.00">coap_option_clrb</text>
</g>
<!-- Node111 -->
<g id="node2" class="node"><title>Node111</title>
<g id="a_node2"><a xlink:href="group__opt__filter.html#ga77ae345bb3d5ecd89adfaedc9949a4b2" target="_top" xlink:title="Clears the corresponding entry for type in filter. ">
<polygon fill="white" stroke="black" points="126,-14 126,-44 219,-44 219,-14 126,-14"/>
<text text-anchor="start" x="134" y="-32" font-family="Helvetica,sans-Serif" font-size="10.00">coap_option_filter</text>
<text text-anchor="middle" x="172.5" y="-21" font-family="Helvetica,sans-Serif" font-size="10.00">_unset</text>
</a>
</g>
</g>
<!-- Node110&#45;&gt;Node111 -->
<g id="edge1" class="edge"><title>Node110&#45;&gt;Node111</title>
<path fill="none" stroke="midnightblue" d="M90.2466,-29C98.4747,-29 107.169,-29 115.69,-29"/>
<polygon fill="midnightblue" stroke="midnightblue" points="115.956,-32.5001 125.956,-29 115.956,-25.5001 115.956,-32.5001"/>
</g>
<!-- Node112 -->
<g id="node3" class="node"><title>Node112</title>
<g id="a_node3"><a xlink:href="option_8c.html#a58b1764055e7ee09aca186314ea59beb" target="_top" xlink:title="Applies op on filter with respect to type. ">
<polygon fill="white" stroke="black" points="255,-19.5 255,-38.5 364,-38.5 364,-19.5 255,-19.5"/>
<text text-anchor="middle" x="309.5" y="-26.5" font-family="Helvetica,sans-Serif" font-size="10.00">coap_option_filter_op</text>
</a>
</g>
</g>
<!-- Node111&#45;&gt;Node112 -->
<g id="edge2" class="edge"><title>Node111&#45;&gt;Node112</title>
<path fill="none" stroke="midnightblue" d="M219.205,-29C227.452,-29 236.185,-29 244.834,-29"/>
<polygon fill="midnightblue" stroke="midnightblue" points="244.914,-32.5001 254.914,-29 244.914,-25.5001 244.914,-32.5001"/>
</g>
<!-- Node113 -->
<g id="node4" class="node"><title>Node113</title>
<g id="a_node4"><a xlink:href="option_8c.html#a613d8a39b97bcf7a9bae99072e5e23c6" target="_top" xlink:title="Returns true iff type denotes an option type larger than 255. ">
<polygon fill="white" stroke="black" points="400,-38.5 400,-57.5 479,-57.5 479,-38.5 400,-38.5"/>
<text text-anchor="middle" x="439.5" y="-45.5" font-family="Helvetica,sans-Serif" font-size="10.00">is_long_option</text>
</a>
</g>
</g>
<!-- Node112&#45;&gt;Node113 -->
<g id="edge3" class="edge"><title>Node112&#45;&gt;Node113</title>
<path fill="none" stroke="midnightblue" d="M364.042,-36.9476C372.614,-38.22 381.443,-39.5306 389.892,-40.7847"/>
<polygon fill="midnightblue" stroke="midnightblue" points="389.56,-44.2737 399.966,-42.2801 390.588,-37.3496 389.56,-44.2737"/>
</g>
<!-- Node114 -->
<g id="node5" class="node"><title>Node114</title>
<g id="a_node5"><a xlink:href="encode_8c.html#a671b4261b2d24de8696258a8efb0f359" target="_top" xlink:title="coap_fls">
<polygon fill="white" stroke="black" points="413,-0.5 413,-19.5 466,-19.5 466,-0.5 413,-0.5"/>
<text text-anchor="middle" x="439.5" y="-7.5" font-family="Helvetica,sans-Serif" font-size="10.00">coap_fls</text>
</a>
</g>
</g>
<!-- Node112&#45;&gt;Node114 -->
<g id="edge4" class="edge"><title>Node112&#45;&gt;Node114</title>
<path fill="none" stroke="midnightblue" d="M364.042,-21.0524C377.076,-19.1176 390.706,-17.0945 402.688,-15.3159"/>
<polygon fill="midnightblue" stroke="midnightblue" points="403.359,-18.7547 412.737,-13.8242 402.331,-11.8305 403.359,-18.7547"/>
</g>
</g>
</svg>
