<?xml version="1.0" encoding="UTF-8" standalone="no"?>
<!DOCTYPE svg PUBLIC "-//W3C//DTD SVG 1.1//EN"
 "http://www.w3.org/Graphics/SVG/1.1/DTD/svg11.dtd">
<!-- Generated by graphviz version 2.38.0 (20140413.2041)
 -->
<!-- Title: libcoap.h Pages: 1 -->
<!--zoomable 420 -->
<svg id="main" version="1.1" xmlns="http://www.w3.org/2000/svg" xmlns:xlink="http://www.w3.org/1999/xlink" xml:space="preserve" onload="init(evt)">
<style type="text/css"><![CDATA[
.edge:hover path { stroke: red; }
.edge:hover polygon { stroke: red; fill: red; }
]]></style>
<script type="text/javascript"><![CDATA[
var edges = document.getElementsByTagName('g');
if (edges && edges.length) {
  for (var i=0;i<edges.length;i++) {
    if (edges[i].id.substr(0,4)=='edge') {
      edges[i].setAttribute('class','edge');
    }
  }
}
]]></script>
        <defs>
                <circle id="rim" cx="0" cy="0" r="7"/>
                <circle id="rim2" cx="0" cy="0" r="3.5"/>
                <g id="zoomPlus">
                        <use xlink:href="#rim" fill="#404040">
                                <set attributeName="fill" to="#808080" begin="zoomplus.mouseover" end="zoomplus.mouseout"/>
                        </use>
                        <path d="M-4,0h8M0,-4v8" fill="none" stroke="white" stroke-width="1.5" pointer-events="none"/>
                </g>
                <g id="zoomMin">
                        <use xlink:href="#rim" fill="#404040">
                                <set attributeName="fill" to="#808080" begin="zoomminus.mouseover" end="zoomminus.mouseout"/>
                        </use>
                        <path d="M-4,0h8" fill="none" stroke="white" stroke-width="1.5" pointer-events="none"/>
                </g>
                <g id="dirArrow">
                        <path fill="none" stroke="white" stroke-width="1.5" d="M0,-3.0v7 M-2.5,-0.5L0,-3.0L2.5,-0.5"/>
                </g>
               <g id="resetDef">
                       <use xlink:href="#rim2" fill="#404040">
                               <set attributeName="fill" to="#808080" begin="reset.mouseover" end="reset.mouseout"/>
                       </use>
               </g>
        </defs>

<script type="text/javascript">
var viewWidth = 511;
var viewHeight = 420;
var sectionId = 'dynsection-1';
</script>
<script xlink:href="svgpan.js"/>
<svg id="graph" class="graph">
<g id="viewport">
<title>libcoap.h</title>
<polygon fill="white" stroke="none" points="-4,4 -4,-416 507.353,-416 507.353,4 -4,4"/>
<!-- Node3 -->
<g id="node1" class="node"><title>Node3</title>
<polygon fill="#bfbfbf" stroke="black" points="399.353,-392.5 399.353,-411.5 455.353,-411.5 455.353,-392.5 399.353,-392.5"/>
<text text-anchor="middle" x="427.353" y="-399.5" font-family="Helvetica,sans-Serif" font-size="10.00">libcoap.h</text>
</g>
<!-- Node4 -->
<g id="node2" class="node"><title>Node4</title>
<g id="a_node2"><a xlink:href="address_8h.html" target="_top" xlink:title="Representation of network addresses. ">
<polygon fill="white" stroke="black" points="321.853,-336.5 321.853,-355.5 380.853,-355.5 380.853,-336.5 321.853,-336.5"/>
<text text-anchor="middle" x="351.353" y="-343.5" font-family="Helvetica,sans-Serif" font-size="10.00">address.h</text>
</a>
</g>
</g>
<!-- Node3&#45;&gt;Node4 -->
<g id="edge1" class="edge"><title>Node3&#45;&gt;Node4</title>
<path fill="none" stroke="midnightblue" d="M406.778,-386.38C393.041,-376.62 375.428,-364.106 363.786,-355.834"/>
<polygon fill="midnightblue" stroke="midnightblue" points="404.964,-389.385 415.143,-392.324 409.018,-383.679 404.964,-389.385"/>
</g>
<!-- Node14 -->
<g id="node12" class="node"><title>Node14</title>
<g id="a_node12"><a xlink:href="coap_8h.html" target="_top" xlink:title="coap.h">
<polygon fill="white" stroke="black" points="316.353,-56.5 316.353,-75.5 362.353,-75.5 362.353,-56.5 316.353,-56.5"/>
<text text-anchor="middle" x="339.353" y="-63.5" font-family="Helvetica,sans-Serif" font-size="10.00">coap.h</text>
</a>
</g>
</g>
<!-- Node3&#45;&gt;Node14 -->
<g id="edge30" class="edge"><title>Node3&#45;&gt;Node14</title>
<path fill="none" stroke="midnightblue" d="M446.871,-385.846C469.389,-366.496 503.353,-330.724 503.353,-291 503.353,-291 503.353,-291 503.353,-177 503.353,-109.975 407.709,-81.169 362.503,-71.2968"/>
<polygon fill="midnightblue" stroke="midnightblue" points="444.378,-383.366 438.896,-392.433 448.835,-388.764 444.378,-383.366"/>
</g>
<!-- Node5 -->
<g id="node3" class="node"><title>Node5</title>
<g id="a_node3"><a xlink:href="address_8c.html" target="_top" xlink:title="address.c">
<polygon fill="white" stroke="black" points="263.853,-280.5 263.853,-299.5 322.853,-299.5 322.853,-280.5 263.853,-280.5"/>
<text text-anchor="middle" x="293.353" y="-287.5" font-family="Helvetica,sans-Serif" font-size="10.00">address.c</text>
</a>
</g>
</g>
<!-- Node4&#45;&gt;Node5 -->
<g id="edge2" class="edge"><title>Node4&#45;&gt;Node5</title>
<path fill="none" stroke="midnightblue" d="M334.44,-329.253C324.15,-319.673 311.388,-307.791 302.842,-299.834"/>
<polygon fill="midnightblue" stroke="midnightblue" points="332.331,-332.071 342.035,-336.324 337.101,-326.948 332.331,-332.071"/>
</g>
<!-- Node6 -->
<g id="node4" class="node"><title>Node6</title>
<g id="a_node4"><a xlink:href="coap__io_8h.html" target="_top" xlink:title="coap_io.h">
<polygon fill="white" stroke="black" points="186.853,-280.5 186.853,-299.5 245.853,-299.5 245.853,-280.5 186.853,-280.5"/>
<text text-anchor="middle" x="216.353" y="-287.5" font-family="Helvetica,sans-Serif" font-size="10.00">coap_io.h</text>
</a>
</g>
</g>
<!-- Node4&#45;&gt;Node6 -->
<g id="edge3" class="edge"><title>Node4&#45;&gt;Node6</title>
<path fill="none" stroke="midnightblue" d="M320.448,-332.638C295.113,-322.504 259.922,-308.427 237.644,-299.516"/>
<polygon fill="midnightblue" stroke="midnightblue" points="319.377,-335.979 329.962,-336.444 321.977,-329.48 319.377,-335.979"/>
</g>
<!-- Node4&#45;&gt;Node14 -->
<g id="edge28" class="edge"><title>Node4&#45;&gt;Node14</title>
<path fill="none" stroke="midnightblue" d="M381.024,-332.07C414.802,-315.106 465.353,-281.885 465.353,-235 465.353,-235 465.353,-235 465.353,-177 465.353,-122.989 398.839,-89.3944 362.464,-75.0608"/>
<polygon fill="midnightblue" stroke="midnightblue" points="379.486,-328.926 371.998,-336.421 382.526,-335.231 379.486,-328.926"/>
</g>
<!-- Node17 -->
<g id="node15" class="node"><title>Node17</title>
<g id="a_node15"><a xlink:href="subscribe_8h.html" target="_top" xlink:title="subscribe.h">
<polygon fill="white" stroke="black" points="293.853,-168.5 293.853,-187.5 360.853,-187.5 360.853,-168.5 293.853,-168.5"/>
<text text-anchor="middle" x="327.353" y="-175.5" font-family="Helvetica,sans-Serif" font-size="10.00">subscribe.h</text>
</a>
</g>
</g>
<!-- Node4&#45;&gt;Node17 -->
<g id="edge29" class="edge"><title>Node4&#45;&gt;Node17</title>
<path fill="none" stroke="midnightblue" d="M348.596,-325.93C343.39,-289.92 332.302,-213.231 328.592,-187.568"/>
<polygon fill="midnightblue" stroke="midnightblue" points="345.168,-326.679 350.063,-336.075 352.096,-325.677 345.168,-326.679"/>
</g>
<!-- Node7 -->
<g id="node5" class="node"><title>Node7</title>
<g id="a_node5"><a xlink:href="coap__io_8c.html" target="_top" xlink:title="coap_io.c">
<polygon fill="white" stroke="black" points="88.8533,-224.5 88.8533,-243.5 147.853,-243.5 147.853,-224.5 88.8533,-224.5"/>
<text text-anchor="middle" x="118.353" y="-231.5" font-family="Helvetica,sans-Serif" font-size="10.00">coap_io.c</text>
</a>
</g>
</g>
<!-- Node6&#45;&gt;Node7 -->
<g id="edge4" class="edge"><title>Node6&#45;&gt;Node7</title>
<path fill="none" stroke="midnightblue" d="M191.767,-275.453C173.675,-265.483 149.619,-252.228 134.06,-243.655"/>
<polygon fill="midnightblue" stroke="midnightblue" points="190.16,-278.563 200.608,-280.324 193.539,-272.432 190.16,-278.563"/>
</g>
<!-- Node8 -->
<g id="node6" class="node"><title>Node8</title>
<g id="a_node6"><a xlink:href="net_8h.html" target="_top" xlink:title="net.h">
<polygon fill="white" stroke="black" points="166.353,-224.5 166.353,-243.5 204.353,-243.5 204.353,-224.5 166.353,-224.5"/>
<text text-anchor="middle" x="185.353" y="-231.5" font-family="Helvetica,sans-Serif" font-size="10.00">net.h</text>
</a>
</g>
</g>
<!-- Node6&#45;&gt;Node8 -->
<g id="edge5" class="edge"><title>Node6&#45;&gt;Node8</title>
<path fill="none" stroke="midnightblue" d="M206.178,-271.275C200.879,-262.045 194.636,-251.17 190.377,-243.751"/>
<polygon fill="midnightblue" stroke="midnightblue" points="203.22,-273.153 211.234,-280.083 209.291,-269.668 203.22,-273.153"/>
</g>
<!-- Node6&#45;&gt;Node14 -->
<g id="edge22" class="edge"><title>Node6&#45;&gt;Node14</title>
<path fill="none" stroke="midnightblue" d="M252.658,-276.817C289.672,-262.208 345.009,-233.792 369.353,-188 389.876,-149.397 359.333,-96.3775 345.534,-75.7274"/>
<polygon fill="midnightblue" stroke="midnightblue" points="251.315,-273.583 243.209,-280.405 253.8,-280.127 251.315,-273.583"/>
</g>
<!-- Node6&#45;&gt;Node17 -->
<g id="edge23" class="edge"><title>Node6&#45;&gt;Node17</title>
<path fill="none" stroke="midnightblue" d="M232.292,-273.205C256.084,-249.627 300.078,-206.029 318.684,-187.591"/>
<polygon fill="midnightblue" stroke="midnightblue" points="229.703,-270.843 225.063,-280.368 234.63,-275.816 229.703,-270.843"/>
</g>
<!-- Node9 -->
<g id="node7" class="node"><title>Node9</title>
<g id="a_node7"><a xlink:href="debug_8c.html" target="_top" xlink:title="debug.c">
<polygon fill="white" stroke="black" points="12.8533,-168.5 12.8533,-187.5 63.8533,-187.5 63.8533,-168.5 12.8533,-168.5"/>
<text text-anchor="middle" x="38.3533" y="-175.5" font-family="Helvetica,sans-Serif" font-size="10.00">debug.c</text>
</a>
</g>
</g>
<!-- Node8&#45;&gt;Node9 -->
<g id="edge6" class="edge"><title>Node8&#45;&gt;Node9</title>
<path fill="none" stroke="midnightblue" d="M156.626,-222.447C128.993,-212.296 87.7193,-197.134 61.951,-187.669"/>
<polygon fill="midnightblue" stroke="midnightblue" points="155.542,-225.778 166.136,-225.94 157.956,-219.207 155.542,-225.778"/>
</g>
<!-- Node10 -->
<g id="node8" class="node"><title>Node10</title>
<g id="a_node8"><a xlink:href="net_8c.html" target="_top" xlink:title="net.c">
<polygon fill="white" stroke="black" points="100.353,-56.5 100.353,-75.5 138.353,-75.5 138.353,-56.5 100.353,-56.5"/>
<text text-anchor="middle" x="119.353" y="-63.5" font-family="Helvetica,sans-Serif" font-size="10.00">net.c</text>
</a>
</g>
</g>
<!-- Node8&#45;&gt;Node10 -->
<g id="edge7" class="edge"><title>Node8&#45;&gt;Node10</title>
<path fill="none" stroke="midnightblue" d="M157.006,-220.289C144.01,-212.864 129.854,-202.142 122.353,-188 102.366,-150.315 112.191,-96.3115 117.116,-75.5657"/>
<polygon fill="midnightblue" stroke="midnightblue" points="155.675,-223.544 166.153,-225.114 158.941,-217.352 155.675,-223.544"/>
</g>
<!-- Node11 -->
<g id="node9" class="node"><title>Node11</title>
<g id="a_node9"><a xlink:href="resource_8c.html" target="_top" xlink:title="resource.c">
<polygon fill="white" stroke="black" points="202.353,-0.5 202.353,-19.5 264.353,-19.5 264.353,-0.5 202.353,-0.5"/>
<text text-anchor="middle" x="233.353" y="-7.5" font-family="Helvetica,sans-Serif" font-size="10.00">resource.c</text>
</a>
</g>
</g>
<!-- Node8&#45;&gt;Node11 -->
<g id="edge8" class="edge"><title>Node8&#45;&gt;Node11</title>
<path fill="none" stroke="midnightblue" d="M156.649,-224.081C156.551,-224.054 156.452,-224.027 156.353,-224 86.4884,-204.964 -17.9143,-237.218 3.35331,-168 21.0214,-110.497 30.7258,-91.4137 79.3533,-56 116.28,-29.1079 169.096,-18.2033 202.288,-13.8387"/>
<polygon fill="midnightblue" stroke="midnightblue" points="155.486,-227.388 166.065,-226.808 157.434,-220.664 155.486,-227.388"/>
</g>
<!-- Node12 -->
<g id="node10" class="node"><title>Node12</title>
<g id="a_node10"><a xlink:href="async_8h.html" target="_top" xlink:title="State management for asynchronous messages. ">
<polygon fill="white" stroke="black" points="131.853,-168.5 131.853,-187.5 182.853,-187.5 182.853,-168.5 131.853,-168.5"/>
<text text-anchor="middle" x="157.353" y="-175.5" font-family="Helvetica,sans-Serif" font-size="10.00">async.h</text>
</a>
</g>
</g>
<!-- Node8&#45;&gt;Node12 -->
<g id="edge9" class="edge"><title>Node8&#45;&gt;Node12</title>
<path fill="none" stroke="midnightblue" d="M176.011,-214.983C171.258,-205.817 165.697,-195.092 161.891,-187.751"/>
<polygon fill="midnightblue" stroke="midnightblue" points="173.019,-216.817 180.73,-224.083 179.234,-213.594 173.019,-216.817"/>
</g>
<!-- Node8&#45;&gt;Node14 -->
<g id="edge20" class="edge"><title>Node8&#45;&gt;Node14</title>
<path fill="none" stroke="midnightblue" d="M200.52,-216.651C232.723,-181.939 306.978,-101.898 331.405,-75.5681"/>
<polygon fill="midnightblue" stroke="midnightblue" points="197.868,-214.364 193.633,-224.075 203,-219.124 197.868,-214.364"/>
</g>
<!-- Node16 -->
<g id="node14" class="node"><title>Node16</title>
<g id="a_node14"><a xlink:href="resource_8h.html" target="_top" xlink:title="Generic resource handling. ">
<polygon fill="white" stroke="black" points="185.353,-112.5 185.353,-131.5 247.353,-131.5 247.353,-112.5 185.353,-112.5"/>
<text text-anchor="middle" x="216.353" y="-119.5" font-family="Helvetica,sans-Serif" font-size="10.00">resource.h</text>
</a>
</g>
</g>
<!-- Node8&#45;&gt;Node16 -->
<g id="edge21" class="edge"><title>Node8&#45;&gt;Node16</title>
<path fill="none" stroke="midnightblue" d="M190.518,-214.674C197.295,-190.625 208.917,-149.388 213.932,-131.591"/>
<polygon fill="midnightblue" stroke="midnightblue" points="187.13,-213.794 187.786,-224.368 193.867,-215.693 187.13,-213.794"/>
</g>
<!-- Node12&#45;&gt;Node10 -->
<g id="edge11" class="edge"><title>Node12&#45;&gt;Node10</title>
<path fill="none" stroke="midnightblue" d="M151.023,-158.674C142.715,-134.625 128.469,-93.3881 122.321,-75.5914"/>
<polygon fill="midnightblue" stroke="midnightblue" points="147.798,-160.059 154.372,-168.368 154.414,-157.774 147.798,-160.059"/>
</g>
<!-- Node13 -->
<g id="node11" class="node"><title>Node13</title>
<g id="a_node11"><a xlink:href="async_8c.html" target="_top" xlink:title="state management for asynchronous messages ">
<polygon fill="white" stroke="black" points="301.853,-0.5 301.853,-19.5 352.853,-19.5 352.853,-0.5 301.853,-0.5"/>
<text text-anchor="middle" x="327.353" y="-7.5" font-family="Helvetica,sans-Serif" font-size="10.00">async.c</text>
</a>
</g>
</g>
<!-- Node12&#45;&gt;Node13 -->
<g id="edge10" class="edge"><title>Node12&#45;&gt;Node13</title>
<path fill="none" stroke="midnightblue" d="M138.318,-162.019C110.047,-137.986 63.1707,-90.0642 91.3533,-56 94.7267,-51.9226 241.147,-26.0157 301.629,-15.4634"/>
<polygon fill="midnightblue" stroke="midnightblue" points="136.115,-164.738 146.056,-168.401 140.569,-159.338 136.115,-164.738"/>
</g>
<!-- Node12&#45;&gt;Node14 -->
<g id="edge12" class="edge"><title>Node12&#45;&gt;Node14</title>
<path fill="none" stroke="midnightblue" d="M158.116,-157.74C159.715,-143.278 164.193,-123.979 176.353,-112 214.521,-74.401 281.109,-67.5404 316.198,-66.7002"/>
<polygon fill="midnightblue" stroke="midnightblue" points="154.599,-157.841 157.36,-168.07 161.581,-158.352 154.599,-157.841"/>
</g>
<!-- Node12&#45;&gt;Node16 -->
<g id="edge16" class="edge"><title>Node12&#45;&gt;Node16</title>
<path fill="none" stroke="midnightblue" d="M174.248,-161.537C184.768,-151.909 197.922,-139.869 206.701,-131.834"/>
<polygon fill="midnightblue" stroke="midnightblue" points="171.846,-158.99 166.833,-168.324 176.572,-164.154 171.846,-158.99"/>
</g>
<!-- Node14&#45;&gt;Node11 -->
<g id="edge14" class="edge"><title>Node14&#45;&gt;Node11</title>
<path fill="none" stroke="midnightblue" d="M313.297,-51.7261C293.669,-41.7271 267.325,-28.3065 250.342,-19.6545"/>
<polygon fill="midnightblue" stroke="midnightblue" points="311.823,-54.9033 322.323,-56.324 315.001,-48.666 311.823,-54.9033"/>
</g>
<!-- Node14&#45;&gt;Node13 -->
<g id="edge13" class="edge"><title>Node14&#45;&gt;Node13</title>
<path fill="none" stroke="midnightblue" d="M335.153,-46.1005C333.161,-37.1357 330.877,-26.8579 329.298,-19.7511"/>
<polygon fill="midnightblue" stroke="midnightblue" points="331.786,-47.0804 337.372,-56.083 338.619,-45.5618 331.786,-47.0804"/>
</g>
<!-- Node15 -->
<g id="node13" class="node"><title>Node15</title>
<g id="a_node13"><a xlink:href="subscribe_8c.html" target="_top" xlink:title="subscribe.c">
<polygon fill="white" stroke="black" points="385.853,-0.5 385.853,-19.5 452.853,-19.5 452.853,-0.5 385.853,-0.5"/>
<text text-anchor="middle" x="419.353" y="-7.5" font-family="Helvetica,sans-Serif" font-size="10.00">subscribe.c</text>
</a>
</g>
</g>
<!-- Node14&#45;&gt;Node15 -->
<g id="edge15" class="edge"><title>Node14&#45;&gt;Node15</title>
<path fill="none" stroke="midnightblue" d="M360.654,-50.6221C375.268,-40.7574 394.18,-27.9919 406.532,-19.6545"/>
<polygon fill="midnightblue" stroke="midnightblue" points="358.537,-47.8282 352.207,-56.324 362.453,-53.6302 358.537,-47.8282"/>
</g>
<!-- Node16&#45;&gt;Node10 -->
<g id="edge17" class="edge"><title>Node16&#45;&gt;Node10</title>
<path fill="none" stroke="midnightblue" d="M192.018,-107.453C174.111,-97.4835 150.3,-84.2279 134.899,-75.6545"/>
<polygon fill="midnightblue" stroke="midnightblue" points="190.329,-110.518 200.769,-112.324 193.734,-104.402 190.329,-110.518"/>
</g>
<!-- Node16&#45;&gt;Node11 -->
<g id="edge18" class="edge"><title>Node16&#45;&gt;Node11</title>
<path fill="none" stroke="midnightblue" d="M219.236,-102.348C222.96,-78.2538 229.288,-37.3079 232.026,-19.5914"/>
<polygon fill="midnightblue" stroke="midnightblue" points="215.756,-101.951 217.687,-112.368 222.674,-103.02 215.756,-101.951"/>
</g>
<!-- Node16&#45;&gt;Node14 -->
<g id="edge19" class="edge"><title>Node16&#45;&gt;Node14</title>
<path fill="none" stroke="midnightblue" d="M245.127,-108.368C268.161,-98.2553 299.837,-84.3486 319.955,-75.5164"/>
<polygon fill="midnightblue" stroke="midnightblue" points="243.592,-105.219 235.843,-112.444 246.406,-111.628 243.592,-105.219"/>
</g>
<!-- Node17&#45;&gt;Node11 -->
<g id="edge24" class="edge"><title>Node17&#45;&gt;Node11</title>
<path fill="none" stroke="midnightblue" d="M317.337,-159.312C297.296,-123.921 252.926,-45.5645 238.205,-19.5681"/>
<polygon fill="midnightblue" stroke="midnightblue" points="314.326,-161.098 322.299,-168.075 320.418,-157.649 314.326,-161.098"/>
</g>
<!-- Node17&#45;&gt;Node14 -->
<g id="edge27" class="edge"><title>Node17&#45;&gt;Node14</title>
<path fill="none" stroke="midnightblue" d="M329.388,-158.348C332.017,-134.254 336.483,-93.3079 338.416,-75.5914"/>
<polygon fill="midnightblue" stroke="midnightblue" points="325.9,-158.048 328.295,-168.368 332.859,-158.807 325.9,-158.048"/>
</g>
<!-- Node17&#45;&gt;Node15 -->
<g id="edge25" class="edge"><title>Node17&#45;&gt;Node15</title>
<path fill="none" stroke="midnightblue" d="M337.156,-159.312C356.771,-123.921 400.197,-45.5645 414.605,-19.5681"/>
<polygon fill="midnightblue" stroke="midnightblue" points="334.086,-157.632 332.3,-168.075 340.208,-161.025 334.086,-157.632"/>
</g>
<!-- Node17&#45;&gt;Node16 -->
<g id="edge26" class="edge"><title>Node17&#45;&gt;Node16</title>
<path fill="none" stroke="midnightblue" d="M300.348,-163.862C279.766,-153.849 252.009,-140.346 234.143,-131.655"/>
<polygon fill="midnightblue" stroke="midnightblue" points="298.996,-167.097 309.519,-168.324 302.058,-160.802 298.996,-167.097"/>
</g>
</g>
</svg>
        <g id="navigator" transform="translate(0 0)" fill="#404254">
                <rect fill="#f2f5e9" fill-opacity="0.5" stroke="#606060" stroke-width=".5" x="0" y="0" width="60" height="60"/>
                <use id="zoomplus" xlink:href="#zoomPlus" x="17" y="9" onmousedown="handleZoom(evt,'in')"/>
                <use id="zoomminus" xlink:href="#zoomMin" x="42" y="9" onmousedown="handleZoom(evt,'out')"/>
                <use id="reset" xlink:href="#resetDef" x="30" y="36" onmousedown="handleReset()"/>
                <g id="arrowUp" xlink:href="#dirArrow" transform="translate(30 24)" onmousedown="handlePan(0,-1)">
                  <use xlink:href="#rim" fill="#404040">
                        <set attributeName="fill" to="#808080" begin="arrowUp.mouseover" end="arrowUp.mouseout"/>
                  </use>
                  <path fill="none" stroke="white" stroke-width="1.5" d="M0,-3.0v7 M-2.5,-0.5L0,-3.0L2.5,-0.5"/>
                </g>
                <g id="arrowRight" xlink:href="#dirArrow" transform="rotate(90) translate(36 -43)" onmousedown="handlePan(1,0)">
                  <use xlink:href="#rim" fill="#404040">
                        <set attributeName="fill" to="#808080" begin="arrowRight.mouseover" end="arrowRight.mouseout"/>
                  </use>
                  <path fill="none" stroke="white" stroke-width="1.5" d="M0,-3.0v7 M-2.5,-0.5L0,-3.0L2.5,-0.5"/>
                </g>
                <g id="arrowDown" xlink:href="#dirArrow" transform="rotate(180) translate(-30 -48)" onmousedown="handlePan(0,1)">
                  <use xlink:href="#rim" fill="#404040">
                        <set attributeName="fill" to="#808080" begin="arrowDown.mouseover" end="arrowDown.mouseout"/>
                  </use>
                  <path fill="none" stroke="white" stroke-width="1.5" d="M0,-3.0v7 M-2.5,-0.5L0,-3.0L2.5,-0.5"/>
                </g>
                <g id="arrowLeft" xlink:href="#dirArrow" transform="rotate(270) translate(-36 17)" onmousedown="handlePan(-1,0)">
                  <use xlink:href="#rim" fill="#404040">
                        <set attributeName="fill" to="#808080" begin="arrowLeft.mouseover" end="arrowLeft.mouseout"/>
                  </use>
                  <path fill="none" stroke="white" stroke-width="1.5" d="M0,-3.0v7 M-2.5,-0.5L0,-3.0L2.5,-0.5"/>
                </g>
        </g>
        <svg viewBox="0 0 15 15" width="100%" height="30px" preserveAspectRatio="xMaxYMin meet">
         <g id="arrow_out" transform="scale(0.3 0.3)">
          <a xlink:href="libcoap_8h__dep__incl_org.svg" target="_base">
           <rect id="button" ry="5" rx="5" y="6" x="6" height="38" width="38"
                fill="#f2f5e9" fill-opacity="0.5" stroke="#606060" stroke-width="1.0"/>
           <path id="arrow"
             d="M 11.500037,31.436501 C 11.940474,20.09759 22.043105,11.32322 32.158766,21.979434 L 37.068811,17.246167 C 37.068811,17.246167 37.088388,32 37.088388,32 L 22.160133,31.978069 C 22.160133,31.978069 26.997745,27.140456 26.997745,27.140456 C 18.528582,18.264221 13.291696,25.230495 11.500037,31.436501 z"
             style="fill:#404040;"/>
          </a>
         </g>
        </svg>
</svg>
