<?xml version="1.0" encoding="UTF-8" standalone="no"?>
<!DOCTYPE svg PUBLIC "-//W3C//DTD SVG 1.1//EN"
 "http://www.w3.org/Graphics/SVG/1.1/DTD/svg11.dtd">
<!-- Generated by graphviz version 2.38.0 (20140413.2041)
 -->
<!-- Title: coap_remove_from_queue Pages: 1 -->
<!--zoomable 171 -->
<svg id="main" version="1.1" xmlns="http://www.w3.org/2000/svg" xmlns:xlink="http://www.w3.org/1999/xlink" xml:space="preserve" onload="init(evt)">
<style type="text/css"><![CDATA[
.edge:hover path { stroke: red; }
.edge:hover polygon { stroke: red; fill: red; }
]]></style>
<script type="text/javascript"><![CDATA[
var edges = document.getElementsByTagName('g');
if (edges && edges.length) {
  for (var i=0;i<edges.length;i++) {
    if (edges[i].id.substr(0,4)=='edge') {
      edges[i].setAttribute('class','edge');
    }
  }
}
]]></script>
        <defs>
                <circle id="rim" cx="0" cy="0" r="7"/>
                <circle id="rim2" cx="0" cy="0" r="3.5"/>
                <g id="zoomPlus">
                        <use xlink:href="#rim" fill="#404040">
                                <set attributeName="fill" to="#808080" begin="zoomplus.mouseover" end="zoomplus.mouseout"/>
                        </use>
                        <path d="M-4,0h8M0,-4v8" fill="none" stroke="white" stroke-width="1.5" pointer-events="none"/>
                </g>
                <g id="zoomMin">
                        <use xlink:href="#rim" fill="#404040">
                                <set attributeName="fill" to="#808080" begin="zoomminus.mouseover" end="zoomminus.mouseout"/>
                        </use>
                        <path d="M-4,0h8" fill="none" stroke="white" stroke-width="1.5" pointer-events="none"/>
                </g>
                <g id="dirArrow">
                        <path fill="none" stroke="white" stroke-width="1.5" d="M0,-3.0v7 M-2.5,-0.5L0,-3.0L2.5,-0.5"/>
                </g>
               <g id="resetDef">
                       <use xlink:href="#rim2" fill="#404040">
                               <set attributeName="fill" to="#808080" begin="reset.mouseover" end="reset.mouseout"/>
                       </use>
               </g>
        </defs>

<script type="text/javascript">
var viewWidth = 687;
var viewHeight = 171;
var sectionId = 'dynsection-37';
</script>
<script xlink:href="svgpan.js"/>
<svg id="graph" class="graph">
<g id="viewport">
<title>coap_remove_from_queue</title>
<polygon fill="white" stroke="none" points="-4,4 -4,-166.776 683,-166.776 683,4 -4,4"/>
<!-- Node676 -->
<g id="node1" class="node"><title>Node676</title>
<polygon fill="#bfbfbf" stroke="black" points="0,-57.5 0,-76.5 131,-76.5 131,-57.5 0,-57.5"/>
<text text-anchor="middle" x="65.5" y="-64.5" font-family="Helvetica,sans-Serif" font-size="10.00">coap_remove_from_queue</text>
</g>
<!-- Node677 -->
<g id="node2" class="node"><title>Node677</title>
<g id="a_node2"><a xlink:href="net_8h.html#ab458d1c3b0f5d695dfa86b805ae8463d" target="_top" xlink:title="Dispatches the PDUs from the receive queue in given context. ">
<polygon fill="white" stroke="black" points="167,-57.5 167,-76.5 247,-76.5 247,-57.5 167,-57.5"/>
<text text-anchor="middle" x="207" y="-64.5" font-family="Helvetica,sans-Serif" font-size="10.00">coap_dispatch</text>
</a>
</g>
</g>
<!-- Node676&#45;&gt;Node677 -->
<g id="edge1" class="edge"><title>Node676&#45;&gt;Node677</title>
<path fill="none" stroke="midnightblue" d="M141.569,-67C150.26,-67 158.839,-67 166.764,-67"/>
<polygon fill="midnightblue" stroke="midnightblue" points="141.349,-63.5001 131.349,-67 141.349,-70.5001 141.349,-63.5001"/>
</g>
<!-- Node680 -->
<g id="node5" class="node"><title>Node680</title>
<g id="a_node5"><a xlink:href="net_8h.html#ac58be1c374afa04d10810aef1d073315" target="_top" xlink:title="Removes the transaction identified by id from given queue. ">
<polygon fill="white" stroke="black" points="551,-0.5 551,-19.5 679,-19.5 679,-0.5 551,-0.5"/>
<text text-anchor="middle" x="615" y="-7.5" font-family="Helvetica,sans-Serif" font-size="10.00">coap_remove_transaction</text>
</a>
</g>
</g>
<!-- Node676&#45;&gt;Node680 -->
<g id="edge12" class="edge"><title>Node676&#45;&gt;Node680</title>
<path fill="none" stroke="midnightblue" d="M126.587,-55.5614C139.891,-53.0508 153.921,-50.4202 167,-48 218.519,-38.4668 231.064,-33.9066 283,-27 350.21,-18.0622 367.296,-17.6481 435,-14 473.333,-11.9345 516.34,-10.931 550.589,-10.4455"/>
<polygon fill="midnightblue" stroke="midnightblue" points="125.759,-52.156 116.583,-57.4525 127.059,-59.0342 125.759,-52.156"/>
</g>
<!-- Node681 -->
<g id="node6" class="node"><title>Node681</title>
<g id="a_node6"><a xlink:href="net_8h.html#a08ba53f8f554cf7a2559813ebde1bb1d" target="_top" xlink:title="Sends an RST message with code 0 for the specified request to dst. ">
<polygon fill="white" stroke="black" points="575,-133.5 575,-152.5 655,-152.5 655,-133.5 575,-133.5"/>
<text text-anchor="middle" x="615" y="-140.5" font-family="Helvetica,sans-Serif" font-size="10.00">coap_send_rst</text>
</a>
</g>
</g>
<!-- Node676&#45;&gt;Node681 -->
<g id="edge11" class="edge"><title>Node676&#45;&gt;Node681</title>
<path fill="none" stroke="midnightblue" d="M97.3851,-80.4912C138.783,-97.9543 214.948,-127.926 283,-143 383.881,-165.345 411.966,-165.761 515,-158 534.761,-156.511 556.555,-153.374 574.652,-150.352"/>
<polygon fill="midnightblue" stroke="midnightblue" points="98.6931,-77.2441 88.1213,-76.5466 95.9507,-83.6846 98.6931,-77.2441"/>
</g>
<!-- Node678 -->
<g id="node3" class="node"><title>Node678</title>
<g id="a_node3"><a xlink:href="net_8h.html#a9900c032b74bd57f67d489484a2b3207" target="_top" xlink:title="Handles retransmissions of confirmable messages. ">
<polygon fill="white" stroke="black" points="298,-57.5 298,-76.5 384,-76.5 384,-57.5 298,-57.5"/>
<text text-anchor="middle" x="341" y="-64.5" font-family="Helvetica,sans-Serif" font-size="10.00">coap_retransmit</text>
</a>
</g>
</g>
<!-- Node677&#45;&gt;Node678 -->
<g id="edge2" class="edge"><title>Node677&#45;&gt;Node678</title>
<path fill="none" stroke="midnightblue" d="M257.637,-67C270.899,-67 285.103,-67 297.915,-67"/>
<polygon fill="midnightblue" stroke="midnightblue" points="257.247,-63.5001 247.247,-67 257.247,-70.5001 257.247,-63.5001"/>
</g>
<!-- Node677&#45;&gt;Node680 -->
<g id="edge10" class="edge"><title>Node677&#45;&gt;Node680</title>
<path fill="none" stroke="midnightblue" d="M251.719,-54.9563C261.931,-52.4131 272.803,-49.9213 283,-48 375.369,-30.596 483.842,-19.9757 550.756,-14.5395"/>
<polygon fill="midnightblue" stroke="midnightblue" points="250.599,-51.6299 241.778,-57.4973 252.333,-58.4119 250.599,-51.6299"/>
</g>
<!-- Node682 -->
<g id="node7" class="node"><title>Node682</title>
<g id="a_node7"><a xlink:href="net_8h.html#a74c5ca78210280817a5586f61abfa5f3" target="_top" xlink:title="Parses and interprets a CoAP message with context ctx. ">
<polygon fill="white" stroke="black" points="283,-114.5 283,-133.5 399,-133.5 399,-114.5 283,-114.5"/>
<text text-anchor="middle" x="341" y="-121.5" font-family="Helvetica,sans-Serif" font-size="10.00">coap_handle_message</text>
</a>
</g>
</g>
<!-- Node677&#45;&gt;Node682 -->
<g id="edge6" class="edge"><title>Node677&#45;&gt;Node682</title>
<path fill="none" stroke="midnightblue" d="M239.537,-80.6181C263.687,-91.0465 296.393,-105.17 317.834,-114.428"/>
<polygon fill="midnightblue" stroke="midnightblue" points="240.662,-77.2917 230.094,-76.5405 237.887,-83.7182 240.662,-77.2917"/>
</g>
<!-- Node679 -->
<g id="node4" class="node"><title>Node679</title>
<g id="a_node4"><a xlink:href="net_8h.html#a231e9a81ac7c03c3e5c251824a76d7b9" target="_top" xlink:title="Returns 1 if there are no messages to send or to dispatch in the context&#39;s queues. ">
<polygon fill="white" stroke="black" points="435,-38.5 435,-57.5 515,-57.5 515,-38.5 435,-38.5"/>
<text text-anchor="middle" x="475" y="-45.5" font-family="Helvetica,sans-Serif" font-size="10.00">coap_can_exit</text>
</a>
</g>
</g>
<!-- Node678&#45;&gt;Node679 -->
<g id="edge3" class="edge"><title>Node678&#45;&gt;Node679</title>
<path fill="none" stroke="midnightblue" d="M394.297,-59.4724C407.853,-57.5211 422.216,-55.4538 434.959,-53.6195"/>
<polygon fill="midnightblue" stroke="midnightblue" points="393.528,-56.047 384.129,-60.936 394.525,-62.9755 393.528,-56.047"/>
</g>
<!-- Node678&#45;&gt;Node681 -->
<g id="edge5" class="edge"><title>Node678&#45;&gt;Node681</title>
<path fill="none" stroke="midnightblue" d="M393.943,-76.2921C428.573,-83.003 474.921,-92.9807 515,-105 541.98,-113.091 572.073,-125.084 591.92,-133.425"/>
<polygon fill="midnightblue" stroke="midnightblue" points="394.527,-72.8404 384.048,-74.4014 393.213,-79.716 394.527,-72.8404"/>
</g>
<!-- Node679&#45;&gt;Node680 -->
<g id="edge4" class="edge"><title>Node679&#45;&gt;Node680</title>
<path fill="none" stroke="midnightblue" d="M520.473,-35.7538C539.495,-30.516 561.375,-24.4909 579.188,-19.5859"/>
<polygon fill="midnightblue" stroke="midnightblue" points="519.535,-32.3817 510.823,-38.411 521.394,-39.1305 519.535,-32.3817"/>
</g>
<!-- Node682&#45;&gt;Node681 -->
<g id="edge9" class="edge"><title>Node682&#45;&gt;Node681</title>
<path fill="none" stroke="midnightblue" d="M389.925,-135.712C404.325,-138.709 420.223,-141.506 435,-143 482.924,-147.845 538.435,-146.823 574.777,-145.263"/>
<polygon fill="midnightblue" stroke="midnightblue" points="390.257,-132.203 379.743,-133.51 388.777,-139.044 390.257,-132.203"/>
</g>
<!-- Node683 -->
<g id="node8" class="node"><title>Node683</title>
<g id="a_node8"><a xlink:href="net_8h.html#ade17f093221599e839345cf88b74b496" target="_top" xlink:title="Reads data from the network and tries to parse as CoAP PDU. ">
<polygon fill="white" stroke="black" points="444,-114.5 444,-133.5 506,-133.5 506,-114.5 444,-114.5"/>
<text text-anchor="middle" x="475" y="-121.5" font-family="Helvetica,sans-Serif" font-size="10.00">coap_read</text>
</a>
</g>
</g>
<!-- Node682&#45;&gt;Node683 -->
<g id="edge7" class="edge"><title>Node682&#45;&gt;Node683</title>
<path fill="none" stroke="midnightblue" d="M409.247,-124C421.318,-124 433.334,-124 443.678,-124"/>
<polygon fill="midnightblue" stroke="midnightblue" points="409.129,-120.5 399.129,-124 409.129,-127.5 409.129,-120.5"/>
</g>
<!-- Node683&#45;&gt;Node681 -->
<g id="edge8" class="edge"><title>Node683&#45;&gt;Node681</title>
<path fill="none" stroke="midnightblue" d="M516.422,-129.565C534.853,-132.103 556.589,-135.096 574.863,-137.612"/>
<polygon fill="midnightblue" stroke="midnightblue" points="516.669,-126.066 506.285,-128.17 515.714,-133.001 516.669,-126.066"/>
</g>
</g>
</svg>
        <g id="navigator" transform="translate(0 0)" fill="#404254">
                <rect fill="#f2f5e9" fill-opacity="0.5" stroke="#606060" stroke-width=".5" x="0" y="0" width="60" height="60"/>
                <use id="zoomplus" xlink:href="#zoomPlus" x="17" y="9" onmousedown="handleZoom(evt,'in')"/>
                <use id="zoomminus" xlink:href="#zoomMin" x="42" y="9" onmousedown="handleZoom(evt,'out')"/>
                <use id="reset" xlink:href="#resetDef" x="30" y="36" onmousedown="handleReset()"/>
                <g id="arrowUp" xlink:href="#dirArrow" transform="translate(30 24)" onmousedown="handlePan(0,-1)">
                  <use xlink:href="#rim" fill="#404040">
                        <set attributeName="fill" to="#808080" begin="arrowUp.mouseover" end="arrowUp.mouseout"/>
                  </use>
                  <path fill="none" stroke="white" stroke-width="1.5" d="M0,-3.0v7 M-2.5,-0.5L0,-3.0L2.5,-0.5"/>
                </g>
                <g id="arrowRight" xlink:href="#dirArrow" transform="rotate(90) translate(36 -43)" onmousedown="handlePan(1,0)">
                  <use xlink:href="#rim" fill="#404040">
                        <set attributeName="fill" to="#808080" begin="arrowRight.mouseover" end="arrowRight.mouseout"/>
                  </use>
                  <path fill="none" stroke="white" stroke-width="1.5" d="M0,-3.0v7 M-2.5,-0.5L0,-3.0L2.5,-0.5"/>
                </g>
                <g id="arrowDown" xlink:href="#dirArrow" transform="rotate(180) translate(-30 -48)" onmousedown="handlePan(0,1)">
                  <use xlink:href="#rim" fill="#404040">
                        <set attributeName="fill" to="#808080" begin="arrowDown.mouseover" end="arrowDown.mouseout"/>
                  </use>
                  <path fill="none" stroke="white" stroke-width="1.5" d="M0,-3.0v7 M-2.5,-0.5L0,-3.0L2.5,-0.5"/>
                </g>
                <g id="arrowLeft" xlink:href="#dirArrow" transform="rotate(270) translate(-36 17)" onmousedown="handlePan(-1,0)">
                  <use xlink:href="#rim" fill="#404040">
                        <set attributeName="fill" to="#808080" begin="arrowLeft.mouseover" end="arrowLeft.mouseout"/>
                  </use>
                  <path fill="none" stroke="white" stroke-width="1.5" d="M0,-3.0v7 M-2.5,-0.5L0,-3.0L2.5,-0.5"/>
                </g>
        </g>
        <svg viewBox="0 0 15 15" width="100%" height="30px" preserveAspectRatio="xMaxYMin meet">
         <g id="arrow_out" transform="scale(0.3 0.3)">
          <a xlink:href="net_8c_ae0837ac6b89fc1021aa8a982ee651b91_icgraph_org.svg" target="_base">
           <rect id="button" ry="5" rx="5" y="6" x="6" height="38" width="38"
                fill="#f2f5e9" fill-opacity="0.5" stroke="#606060" stroke-width="1.0"/>
           <path id="arrow"
             d="M 11.500037,31.436501 C 11.940474,20.09759 22.043105,11.32322 32.158766,21.979434 L 37.068811,17.246167 C 37.068811,17.246167 37.088388,32 37.088388,32 L 22.160133,31.978069 C 22.160133,31.978069 26.997745,27.140456 26.997745,27.140456 C 18.528582,18.264221 13.291696,25.230495 11.500037,31.436501 z"
             style="fill:#404040;"/>
          </a>
         </g>
        </svg>
</svg>
