<?xml version="1.0" encoding="UTF-8" standalone="no"?>
<!DOCTYPE svg PUBLIC "-//W3C//DTD SVG 1.1//EN"
 "http://www.w3.org/Graphics/SVG/1.1/DTD/svg11.dtd">
<!-- Generated by graphviz version 2.38.0 (20140413.2041)
 -->
<!-- Title: coap_send_message_type Pages: 1 -->
<!--zoomable 142 -->
<svg id="main" version="1.1" xmlns="http://www.w3.org/2000/svg" xmlns:xlink="http://www.w3.org/1999/xlink" xml:space="preserve" onload="init(evt)">
<style type="text/css"><![CDATA[
.edge:hover path { stroke: red; }
.edge:hover polygon { stroke: red; fill: red; }
]]></style>
<script type="text/javascript"><![CDATA[
var edges = document.getElementsByTagName('g');
if (edges && edges.length) {
  for (var i=0;i<edges.length;i++) {
    if (edges[i].id.substr(0,4)=='edge') {
      edges[i].setAttribute('class','edge');
    }
  }
}
]]></script>
        <defs>
                <circle id="rim" cx="0" cy="0" r="7"/>
                <circle id="rim2" cx="0" cy="0" r="3.5"/>
                <g id="zoomPlus">
                        <use xlink:href="#rim" fill="#404040">
                                <set attributeName="fill" to="#808080" begin="zoomplus.mouseover" end="zoomplus.mouseout"/>
                        </use>
                        <path d="M-4,0h8M0,-4v8" fill="none" stroke="white" stroke-width="1.5" pointer-events="none"/>
                </g>
                <g id="zoomMin">
                        <use xlink:href="#rim" fill="#404040">
                                <set attributeName="fill" to="#808080" begin="zoomminus.mouseover" end="zoomminus.mouseout"/>
                        </use>
                        <path d="M-4,0h8" fill="none" stroke="white" stroke-width="1.5" pointer-events="none"/>
                </g>
                <g id="dirArrow">
                        <path fill="none" stroke="white" stroke-width="1.5" d="M0,-3.0v7 M-2.5,-0.5L0,-3.0L2.5,-0.5"/>
                </g>
               <g id="resetDef">
                       <use xlink:href="#rim2" fill="#404040">
                               <set attributeName="fill" to="#808080" begin="reset.mouseover" end="reset.mouseout"/>
                       </use>
               </g>
        </defs>

<script type="text/javascript">
var viewWidth = 530;
var viewHeight = 142;
var sectionId = 'dynsection-46';
</script>
<script xlink:href="svgpan.js"/>
<svg id="graph" class="graph">
<g id="viewport">
<title>coap_send_message_type</title>
<polygon fill="white" stroke="none" points="-4,4 -4,-138 526,-138 526,4 -4,4"/>
<!-- Node1000 -->
<g id="node1" class="node"><title>Node1000</title>
<polygon fill="#bfbfbf" stroke="black" points="0,-57.5 0,-76.5 133,-76.5 133,-57.5 0,-57.5"/>
<text text-anchor="middle" x="66.5" y="-64.5" font-family="Helvetica,sans-Serif" font-size="10.00">coap_send_message_type</text>
</g>
<!-- Node1001 -->
<g id="node2" class="node"><title>Node1001</title>
<g id="a_node2"><a xlink:href="pdu_8c.html#a36ddaad46f33b6a11aa312ddd7a9e3e1" target="_top" xlink:title="Creates a new CoAP PDU of given size (must be large enough to hold the basic CoAP message header (coa...">
<polygon fill="white" stroke="black" points="175.5,-95.5 175.5,-114.5 252.5,-114.5 252.5,-95.5 175.5,-95.5"/>
<text text-anchor="middle" x="214" y="-102.5" font-family="Helvetica,sans-Serif" font-size="10.00">coap_pdu_init</text>
</a>
</g>
</g>
<!-- Node1000&#45;&gt;Node1001 -->
<g id="edge1" class="edge"><title>Node1000&#45;&gt;Node1001</title>
<path fill="none" stroke="midnightblue" d="M104.216,-76.589C123.157,-81.5358 146.457,-87.6211 166.629,-92.8892"/>
<polygon fill="midnightblue" stroke="midnightblue" points="165.988,-96.3394 176.548,-95.4799 167.757,-89.5665 165.988,-96.3394"/>
</g>
<!-- Node1005 -->
<g id="node6" class="node"><title>Node1005</title>
<g id="a_node6"><a xlink:href="net_8c.html#a8970fb6f80408035fdcdfaf7cf02dbe2" target="_top" xlink:title="Sends a non&#45;confirmed CoAP message to given destination. ">
<polygon fill="white" stroke="black" points="182,-19.5 182,-38.5 246,-38.5 246,-19.5 182,-19.5"/>
<text text-anchor="middle" x="214" y="-26.5" font-family="Helvetica,sans-Serif" font-size="10.00">coap_send</text>
</a>
</g>
</g>
<!-- Node1000&#45;&gt;Node1005 -->
<g id="edge6" class="edge"><title>Node1000&#45;&gt;Node1005</title>
<path fill="none" stroke="midnightblue" d="M104.216,-57.411C124.856,-52.0205 150.673,-45.2779 171.976,-39.7141"/>
<polygon fill="midnightblue" stroke="midnightblue" points="172.929,-43.0829 181.72,-37.1695 171.16,-36.31 172.929,-43.0829"/>
</g>
<!-- Node1009 -->
<g id="node10" class="node"><title>Node1009</title>
<g id="a_node10"><a xlink:href="pdu_8c.html#a48581f968a30ef4278702eb1c16b7a90" target="_top" xlink:title="coap_delete_pdu">
<polygon fill="white" stroke="black" points="169,-57.5 169,-76.5 259,-76.5 259,-57.5 169,-57.5"/>
<text text-anchor="middle" x="214" y="-64.5" font-family="Helvetica,sans-Serif" font-size="10.00">coap_delete_pdu</text>
</a>
</g>
</g>
<!-- Node1000&#45;&gt;Node1009 -->
<g id="edge10" class="edge"><title>Node1000&#45;&gt;Node1009</title>
<path fill="none" stroke="midnightblue" d="M133.014,-67C141.594,-67 150.31,-67 158.677,-67"/>
<polygon fill="midnightblue" stroke="midnightblue" points="158.678,-70.5001 168.678,-67 158.678,-63.5001 158.678,-70.5001"/>
</g>
<!-- Node1002 -->
<g id="node3" class="node"><title>Node1002</title>
<g id="a_node3"><a xlink:href="mem_8h.html#a0204710ce56cbaa4f062b7f2622857f5" target="_top" xlink:title="Allocates a chunk of size bytes and returns a pointer to the newly allocated memory. ">
<polygon fill="white" stroke="black" points="422.5,-114.5 422.5,-133.5 517.5,-133.5 517.5,-114.5 422.5,-114.5"/>
<text text-anchor="middle" x="470" y="-121.5" font-family="Helvetica,sans-Serif" font-size="10.00">coap_malloc_type</text>
</a>
</g>
</g>
<!-- Node1001&#45;&gt;Node1002 -->
<g id="edge2" class="edge"><title>Node1001&#45;&gt;Node1002</title>
<path fill="none" stroke="midnightblue" d="M247.388,-114.507C261.823,-118.271 279.12,-122.14 295,-124 333.882,-128.554 377.988,-128.497 412.065,-127.331"/>
<polygon fill="midnightblue" stroke="midnightblue" points="412.443,-130.819 422.302,-126.937 412.174,-123.824 412.443,-130.819"/>
</g>
<!-- Node1003 -->
<g id="node4" class="node"><title>Node1003</title>
<g id="a_node4"><a xlink:href="mem_8h.html#ae7214e0c73a4d4290525873e739ed422" target="_top" xlink:title="Releases the memory that was allocated by coap_malloc_type(). ">
<polygon fill="white" stroke="black" points="297,-57.5 297,-76.5 380,-76.5 380,-57.5 297,-57.5"/>
<text text-anchor="middle" x="338.5" y="-64.5" font-family="Helvetica,sans-Serif" font-size="10.00">coap_free_type</text>
</a>
</g>
</g>
<!-- Node1001&#45;&gt;Node1003 -->
<g id="edge3" class="edge"><title>Node1001&#45;&gt;Node1003</title>
<path fill="none" stroke="midnightblue" d="M245.912,-95.411C261.29,-90.6406 280.082,-84.8112 296.633,-79.6771"/>
<polygon fill="midnightblue" stroke="midnightblue" points="298.084,-82.8916 306.598,-76.5859 296.01,-76.2059 298.084,-82.8916"/>
</g>
<!-- Node1004 -->
<g id="node5" class="node"><title>Node1004</title>
<g id="a_node5"><a xlink:href="pdu_8c.html#a9dbdf354e2da5e80fea4c0d4a8df6d05" target="_top" xlink:title="Clears any contents from pdu and resets version field, length and data pointers. ">
<polygon fill="white" stroke="black" points="296,-95.5 296,-114.5 381,-114.5 381,-95.5 296,-95.5"/>
<text text-anchor="middle" x="338.5" y="-102.5" font-family="Helvetica,sans-Serif" font-size="10.00">coap_pdu_clear</text>
</a>
</g>
</g>
<!-- Node1001&#45;&gt;Node1004 -->
<g id="edge4" class="edge"><title>Node1001&#45;&gt;Node1004</title>
<path fill="none" stroke="midnightblue" d="M252.754,-105C263.195,-105 274.711,-105 285.798,-105"/>
<polygon fill="midnightblue" stroke="midnightblue" points="285.817,-108.5 295.817,-105 285.817,-101.5 285.817,-108.5"/>
</g>
<!-- Node1004&#45;&gt;Node1002 -->
<g id="edge5" class="edge"><title>Node1004&#45;&gt;Node1002</title>
<path fill="none" stroke="midnightblue" d="M381.187,-111.116C391.161,-112.58 401.975,-114.166 412.493,-115.709"/>
<polygon fill="midnightblue" stroke="midnightblue" points="412.048,-119.182 422.45,-117.17 413.065,-112.256 412.048,-119.182"/>
</g>
<!-- Node1006 -->
<g id="node7" class="node"><title>Node1006</title>
<g id="a_node7"><a xlink:href="net_8c.html#aab05153e264360d06218abc2742f699a" target="_top" xlink:title="coap_send_impl">
<polygon fill="white" stroke="black" points="295,-19.5 295,-38.5 382,-38.5 382,-19.5 295,-19.5"/>
<text text-anchor="middle" x="338.5" y="-26.5" font-family="Helvetica,sans-Serif" font-size="10.00">coap_send_impl</text>
</a>
</g>
</g>
<!-- Node1005&#45;&gt;Node1006 -->
<g id="edge7" class="edge"><title>Node1005&#45;&gt;Node1006</title>
<path fill="none" stroke="midnightblue" d="M246.229,-29C257.863,-29 271.417,-29 284.465,-29"/>
<polygon fill="midnightblue" stroke="midnightblue" points="284.774,-32.5001 294.774,-29 284.774,-25.5001 284.774,-32.5001"/>
</g>
<!-- Node1007 -->
<g id="node8" class="node"><title>Node1007</title>
<g id="a_node8"><a xlink:href="address_8c.html#a5b47d6fe47a54a0798eddb9ea77005ea" target="_top" xlink:title="Checks if given address a denotes a multicast address. ">
<polygon fill="white" stroke="black" points="428.5,-38.5 428.5,-57.5 511.5,-57.5 511.5,-38.5 428.5,-38.5"/>
<text text-anchor="middle" x="470" y="-45.5" font-family="Helvetica,sans-Serif" font-size="10.00">coap_is_mcast</text>
</a>
</g>
</g>
<!-- Node1006&#45;&gt;Node1007 -->
<g id="edge8" class="edge"><title>Node1006&#45;&gt;Node1007</title>
<path fill="none" stroke="midnightblue" d="M382.262,-35.274C393.772,-36.9627 406.334,-38.8058 418.235,-40.5518"/>
<polygon fill="midnightblue" stroke="midnightblue" points="418.077,-44.0661 428.479,-42.0549 419.093,-37.1402 418.077,-44.0661"/>
</g>
<!-- Node1008 -->
<g id="node9" class="node"><title>Node1008</title>
<g id="a_node9"><a xlink:href="net_8c.html#aab5ca063fd19725ae1ddd8d7c9623f05" target="_top" xlink:title="Calculates a unique transaction id from given arguments peer and pdu. ">
<polygon fill="white" stroke="black" points="418,-0.5 418,-19.5 522,-19.5 522,-0.5 418,-0.5"/>
<text text-anchor="middle" x="470" y="-7.5" font-family="Helvetica,sans-Serif" font-size="10.00">coap_transaction_id</text>
</a>
</g>
</g>
<!-- Node1006&#45;&gt;Node1008 -->
<g id="edge9" class="edge"><title>Node1006&#45;&gt;Node1008</title>
<path fill="none" stroke="midnightblue" d="M382.262,-22.726C390.417,-21.5296 399.099,-20.2557 407.701,-18.9937"/>
<polygon fill="midnightblue" stroke="midnightblue" points="408.338,-22.4378 417.724,-17.5232 407.322,-15.512 408.338,-22.4378"/>
</g>
<!-- Node1009&#45;&gt;Node1003 -->
<g id="edge11" class="edge"><title>Node1009&#45;&gt;Node1003</title>
<path fill="none" stroke="midnightblue" d="M259.225,-67C268.088,-67 277.468,-67 286.538,-67"/>
<polygon fill="midnightblue" stroke="midnightblue" points="286.603,-70.5001 296.603,-67 286.603,-63.5001 286.603,-70.5001"/>
</g>
</g>
</svg>
        <g id="navigator" transform="translate(0 0)" fill="#404254">
                <rect fill="#f2f5e9" fill-opacity="0.5" stroke="#606060" stroke-width=".5" x="0" y="0" width="60" height="60"/>
                <use id="zoomplus" xlink:href="#zoomPlus" x="17" y="9" onmousedown="handleZoom(evt,'in')"/>
                <use id="zoomminus" xlink:href="#zoomMin" x="42" y="9" onmousedown="handleZoom(evt,'out')"/>
                <use id="reset" xlink:href="#resetDef" x="30" y="36" onmousedown="handleReset()"/>
                <g id="arrowUp" xlink:href="#dirArrow" transform="translate(30 24)" onmousedown="handlePan(0,-1)">
                  <use xlink:href="#rim" fill="#404040">
                        <set attributeName="fill" to="#808080" begin="arrowUp.mouseover" end="arrowUp.mouseout"/>
                  </use>
                  <path fill="none" stroke="white" stroke-width="1.5" d="M0,-3.0v7 M-2.5,-0.5L0,-3.0L2.5,-0.5"/>
                </g>
                <g id="arrowRight" xlink:href="#dirArrow" transform="rotate(90) translate(36 -43)" onmousedown="handlePan(1,0)">
                  <use xlink:href="#rim" fill="#404040">
                        <set attributeName="fill" to="#808080" begin="arrowRight.mouseover" end="arrowRight.mouseout"/>
                  </use>
                  <path fill="none" stroke="white" stroke-width="1.5" d="M0,-3.0v7 M-2.5,-0.5L0,-3.0L2.5,-0.5"/>
                </g>
                <g id="arrowDown" xlink:href="#dirArrow" transform="rotate(180) translate(-30 -48)" onmousedown="handlePan(0,1)">
                  <use xlink:href="#rim" fill="#404040">
                        <set attributeName="fill" to="#808080" begin="arrowDown.mouseover" end="arrowDown.mouseout"/>
                  </use>
                  <path fill="none" stroke="white" stroke-width="1.5" d="M0,-3.0v7 M-2.5,-0.5L0,-3.0L2.5,-0.5"/>
                </g>
                <g id="arrowLeft" xlink:href="#dirArrow" transform="rotate(270) translate(-36 17)" onmousedown="handlePan(-1,0)">
                  <use xlink:href="#rim" fill="#404040">
                        <set attributeName="fill" to="#808080" begin="arrowLeft.mouseover" end="arrowLeft.mouseout"/>
                  </use>
                  <path fill="none" stroke="white" stroke-width="1.5" d="M0,-3.0v7 M-2.5,-0.5L0,-3.0L2.5,-0.5"/>
                </g>
        </g>
        <svg viewBox="0 0 15 15" width="100%" height="30px" preserveAspectRatio="xMaxYMin meet">
         <g id="arrow_out" transform="scale(0.3 0.3)">
          <a xlink:href="net_8h_a4c4586bd08711835e746b3293d0b2061_cgraph_org.svg" target="_base">
           <rect id="button" ry="5" rx="5" y="6" x="6" height="38" width="38"
                fill="#f2f5e9" fill-opacity="0.5" stroke="#606060" stroke-width="1.0"/>
           <path id="arrow"
             d="M 11.500037,31.436501 C 11.940474,20.09759 22.043105,11.32322 32.158766,21.979434 L 37.068811,17.246167 C 37.068811,17.246167 37.088388,32 37.088388,32 L 22.160133,31.978069 C 22.160133,31.978069 26.997745,27.140456 26.997745,27.140456 C 18.528582,18.264221 13.291696,25.230495 11.500037,31.436501 z"
             style="fill:#404040;"/>
          </a>
         </g>
        </svg>
</svg>
