<?xml version="1.0" encoding="UTF-8" standalone="no"?>
<!DOCTYPE svg PUBLIC "-//W3C//DTD SVG 1.1//EN"
 "http://www.w3.org/Graphics/SVG/1.1/DTD/svg11.dtd">
<!-- Generated by graphviz version 2.38.0 (20140413.2041)
 -->
<!-- Title: net.h Pages: 1 -->
<svg width="314pt" height="252pt"
 viewBox="0.00 0.00 314.43 252.00" xmlns="http://www.w3.org/2000/svg" xmlns:xlink="http://www.w3.org/1999/xlink">
<g id="graph0" class="graph" transform="scale(1 1) rotate(0) translate(4 248)">
<title>net.h</title>
<polygon fill="white" stroke="none" points="-4,4 -4,-248 310.429,-248 310.429,4 -4,4"/>
<!-- Node21 -->
<g id="node1" class="node"><title>Node21</title>
<polygon fill="#bfbfbf" stroke="black" points="168.5,-224.5 168.5,-243.5 206.5,-243.5 206.5,-224.5 168.5,-224.5"/>
<text text-anchor="middle" x="187.5" y="-231.5" font-family="Helvetica,sans-Serif" font-size="10.00">net.h</text>
</g>
<!-- Node22 -->
<g id="node2" class="node"><title>Node22</title>
<g id="a_node2"><a xlink:href="debug_8c.html" target="_top" xlink:title="debug.c">
<polygon fill="white" stroke="black" points="0,-168.5 0,-187.5 51,-187.5 51,-168.5 0,-168.5"/>
<text text-anchor="middle" x="25.5" y="-175.5" font-family="Helvetica,sans-Serif" font-size="10.00">debug.c</text>
</a>
</g>
</g>
<!-- Node21&#45;&gt;Node22 -->
<g id="edge1" class="edge"><title>Node21&#45;&gt;Node22</title>
<path fill="none" stroke="midnightblue" d="M158.631,-223.377C128.081,-213.194 80.3286,-197.276 51.0856,-187.529"/>
<polygon fill="midnightblue" stroke="midnightblue" points="157.687,-226.751 168.28,-226.593 159.9,-220.111 157.687,-226.751"/>
</g>
<!-- Node23 -->
<g id="node3" class="node"><title>Node23</title>
<g id="a_node3"><a xlink:href="net_8c.html" target="_top" xlink:title="net.c">
<polygon fill="white" stroke="black" points="254.5,-56.5 254.5,-75.5 292.5,-75.5 292.5,-56.5 254.5,-56.5"/>
<text text-anchor="middle" x="273.5" y="-63.5" font-family="Helvetica,sans-Serif" font-size="10.00">net.c</text>
</a>
</g>
</g>
<!-- Node21&#45;&gt;Node23 -->
<g id="edge2" class="edge"><title>Node21&#45;&gt;Node23</title>
<path fill="none" stroke="midnightblue" d="M206.975,-217.667C228.011,-199.737 260.286,-167.902 273.5,-132 280.516,-112.938 277.666,-88.5468 275.355,-75.7447"/>
<polygon fill="midnightblue" stroke="midnightblue" points="204.476,-215.191 198.999,-224.261 208.937,-220.586 204.476,-215.191"/>
</g>
<!-- Node24 -->
<g id="node4" class="node"><title>Node24</title>
<g id="a_node4"><a xlink:href="resource_8c.html" target="_top" xlink:title="resource.c">
<polygon fill="white" stroke="black" points="234.5,-0.5 234.5,-19.5 296.5,-19.5 296.5,-0.5 234.5,-0.5"/>
<text text-anchor="middle" x="265.5" y="-7.5" font-family="Helvetica,sans-Serif" font-size="10.00">resource.c</text>
</a>
</g>
</g>
<!-- Node21&#45;&gt;Node24 -->
<g id="edge3" class="edge"><title>Node21&#45;&gt;Node24</title>
<path fill="none" stroke="midnightblue" d="M215.094,-219.769C229.305,-211.97 246.185,-201.069 258.5,-188 278.01,-167.297 279.523,-158.641 289.5,-132 301.493,-99.9759 312.819,-88.2685 301.5,-56 296.4,-41.461 284.408,-28.1298 275.662,-19.8145"/>
<polygon fill="midnightblue" stroke="midnightblue" points="213.438,-216.686 206.216,-224.438 216.696,-222.882 213.438,-216.686"/>
</g>
<!-- Node25 -->
<g id="node5" class="node"><title>Node25</title>
<g id="a_node5"><a xlink:href="async_8h.html" target="_top" xlink:title="State management for asynchronous messages. ">
<polygon fill="white" stroke="black" points="135,-168.5 135,-187.5 186,-187.5 186,-168.5 135,-168.5"/>
<text text-anchor="middle" x="160.5" y="-175.5" font-family="Helvetica,sans-Serif" font-size="10.00">async.h</text>
</a>
</g>
</g>
<!-- Node21&#45;&gt;Node25 -->
<g id="edge4" class="edge"><title>Node21&#45;&gt;Node25</title>
<path fill="none" stroke="midnightblue" d="M178.491,-214.983C173.908,-205.817 168.546,-195.092 164.876,-187.751"/>
<polygon fill="midnightblue" stroke="midnightblue" points="175.439,-216.704 183.041,-224.083 181.7,-213.573 175.439,-216.704"/>
</g>
<!-- Node27 -->
<g id="node7" class="node"><title>Node27</title>
<g id="a_node7"><a xlink:href="coap_8h.html" target="_top" xlink:title="coap.h">
<polygon fill="white" stroke="black" points="147.5,-56.5 147.5,-75.5 193.5,-75.5 193.5,-56.5 147.5,-56.5"/>
<text text-anchor="middle" x="170.5" y="-63.5" font-family="Helvetica,sans-Serif" font-size="10.00">coap.h</text>
</a>
</g>
</g>
<!-- Node21&#45;&gt;Node27 -->
<g id="edge15" class="edge"><title>Node21&#45;&gt;Node27</title>
<path fill="none" stroke="midnightblue" d="M159.443,-220.263C146.613,-212.832 132.695,-202.112 125.5,-188 105.038,-147.866 144.449,-96.1618 162.328,-75.7979"/>
<polygon fill="midnightblue" stroke="midnightblue" points="158.011,-223.467 168.48,-225.094 161.311,-217.293 158.011,-223.467"/>
</g>
<!-- Node29 -->
<g id="node9" class="node"><title>Node29</title>
<g id="a_node9"><a xlink:href="resource_8h.html" target="_top" xlink:title="Generic resource handling. ">
<polygon fill="white" stroke="black" points="183.5,-112.5 183.5,-131.5 245.5,-131.5 245.5,-112.5 183.5,-112.5"/>
<text text-anchor="middle" x="214.5" y="-119.5" font-family="Helvetica,sans-Serif" font-size="10.00">resource.h</text>
</a>
</g>
</g>
<!-- Node21&#45;&gt;Node29 -->
<g id="edge16" class="edge"><title>Node21&#45;&gt;Node29</title>
<path fill="none" stroke="midnightblue" d="M192.078,-214.348C197.992,-190.254 208.043,-149.308 212.391,-131.591"/>
<polygon fill="midnightblue" stroke="midnightblue" points="188.603,-213.822 189.619,-224.368 195.402,-215.491 188.603,-213.822"/>
</g>
<!-- Node25&#45;&gt;Node23 -->
<g id="edge6" class="edge"><title>Node25&#45;&gt;Node23</title>
<path fill="none" stroke="midnightblue" d="M195.709,-167.923C215.571,-161.104 239.366,-149.81 254.5,-132 268.508,-115.515 272.195,-89.1481 273.161,-75.6207"/>
<polygon fill="midnightblue" stroke="midnightblue" points="194.504,-164.634 186.04,-171.006 196.631,-171.303 194.504,-164.634"/>
</g>
<!-- Node26 -->
<g id="node6" class="node"><title>Node26</title>
<g id="a_node6"><a xlink:href="async_8c.html" target="_top" xlink:title="state management for asynchronous messages ">
<polygon fill="white" stroke="black" points="80,-0.5 80,-19.5 131,-19.5 131,-0.5 80,-0.5"/>
<text text-anchor="middle" x="105.5" y="-7.5" font-family="Helvetica,sans-Serif" font-size="10.00">async.c</text>
</a>
</g>
</g>
<!-- Node25&#45;&gt;Node26 -->
<g id="edge5" class="edge"><title>Node25&#45;&gt;Node26</title>
<path fill="none" stroke="midnightblue" d="M154.336,-158.395C142.471,-122.585 116.878,-45.3423 108.339,-19.5681"/>
<polygon fill="midnightblue" stroke="midnightblue" points="151.075,-159.683 157.543,-168.075 157.72,-157.482 151.075,-159.683"/>
</g>
<!-- Node25&#45;&gt;Node27 -->
<g id="edge7" class="edge"><title>Node25&#45;&gt;Node27</title>
<path fill="none" stroke="midnightblue" d="M162.196,-158.348C164.386,-134.254 168.108,-93.3079 169.719,-75.5914"/>
<polygon fill="midnightblue" stroke="midnightblue" points="158.705,-158.093 161.285,-168.368 165.676,-158.726 158.705,-158.093"/>
</g>
<!-- Node25&#45;&gt;Node29 -->
<g id="edge11" class="edge"><title>Node25&#45;&gt;Node29</title>
<path fill="none" stroke="midnightblue" d="M176.498,-161.002C186.067,-151.433 197.861,-139.639 205.749,-131.751"/>
<polygon fill="midnightblue" stroke="midnightblue" points="174.013,-158.537 169.417,-168.083 178.963,-163.487 174.013,-158.537"/>
</g>
<!-- Node27&#45;&gt;Node24 -->
<g id="edge9" class="edge"><title>Node27&#45;&gt;Node24</title>
<path fill="none" stroke="midnightblue" d="M194.818,-51.1774C212.299,-41.2407 235.33,-28.1492 250.274,-19.6545"/>
<polygon fill="midnightblue" stroke="midnightblue" points="192.727,-48.3395 185.763,-56.324 196.187,-54.425 192.727,-48.3395"/>
</g>
<!-- Node27&#45;&gt;Node26 -->
<g id="edge8" class="edge"><title>Node27&#45;&gt;Node26</title>
<path fill="none" stroke="midnightblue" d="M152.227,-49.8197C140.582,-40.1452 125.901,-27.9481 116.133,-19.8339"/>
<polygon fill="midnightblue" stroke="midnightblue" points="150.128,-52.6259 160.057,-56.324 154.601,-47.2416 150.128,-52.6259"/>
</g>
<!-- Node28 -->
<g id="node8" class="node"><title>Node28</title>
<g id="a_node8"><a xlink:href="subscribe_8c.html" target="_top" xlink:title="subscribe.c">
<polygon fill="white" stroke="black" points="149,-0.5 149,-19.5 216,-19.5 216,-0.5 149,-0.5"/>
<text text-anchor="middle" x="182.5" y="-7.5" font-family="Helvetica,sans-Serif" font-size="10.00">subscribe.c</text>
</a>
</g>
</g>
<!-- Node27&#45;&gt;Node28 -->
<g id="edge10" class="edge"><title>Node27&#45;&gt;Node28</title>
<path fill="none" stroke="midnightblue" d="M174.7,-46.1005C176.692,-37.1357 178.976,-26.8579 180.555,-19.7511"/>
<polygon fill="midnightblue" stroke="midnightblue" points="171.234,-45.5618 172.482,-56.083 178.068,-47.0804 171.234,-45.5618"/>
</g>
<!-- Node29&#45;&gt;Node23 -->
<g id="edge12" class="edge"><title>Node29&#45;&gt;Node23</title>
<path fill="none" stroke="midnightblue" d="M231.395,-105.537C241.915,-95.9087 255.069,-83.8694 263.848,-75.8339"/>
<polygon fill="midnightblue" stroke="midnightblue" points="228.993,-102.99 223.979,-112.324 233.719,-108.154 228.993,-102.99"/>
</g>
<!-- Node29&#45;&gt;Node24 -->
<g id="edge13" class="edge"><title>Node29&#45;&gt;Node24</title>
<path fill="none" stroke="midnightblue" d="M222.846,-102.998C233.974,-78.9968 253.228,-37.4683 261.517,-19.5914"/>
<polygon fill="midnightblue" stroke="midnightblue" points="219.533,-101.824 218.502,-112.368 225.884,-104.768 219.533,-101.824"/>
</g>
<!-- Node29&#45;&gt;Node27 -->
<g id="edge14" class="edge"><title>Node29&#45;&gt;Node27</title>
<path fill="none" stroke="midnightblue" d="M200.765,-104.144C193.099,-94.7357 183.867,-83.4046 177.631,-75.7511"/>
<polygon fill="midnightblue" stroke="midnightblue" points="198.204,-106.541 207.234,-112.083 203.631,-102.12 198.204,-106.541"/>
</g>
</g>
</svg>
