<?xml version="1.0" encoding="UTF-8" standalone="no"?>
<!DOCTYPE svg PUBLIC "-//W3C//DTD SVG 1.1//EN"
 "http://www.w3.org/Graphics/SVG/1.1/DTD/svg11.dtd">
<!-- Generated by graphviz version 2.38.0 (20140413.2041)
 -->
<!-- Title: coap_peek_next Pages: 1 -->
<svg width="996pt" height="142pt"
 viewBox="0.00 0.00 996.00 142.00" xmlns="http://www.w3.org/2000/svg" xmlns:xlink="http://www.w3.org/1999/xlink">
<g id="graph0" class="graph" transform="scale(1 1) rotate(0) translate(4 138)">
<title>coap_peek_next</title>
<polygon fill="white" stroke="none" points="-4,4 -4,-138 992,-138 992,4 -4,4"/>
<!-- Node541 -->
<g id="node1" class="node"><title>Node541</title>
<polygon fill="#bfbfbf" stroke="black" points="0,-38.5 0,-57.5 88,-57.5 88,-38.5 0,-38.5"/>
<text text-anchor="middle" x="44" y="-45.5" font-family="Helvetica,sans-Serif" font-size="10.00">coap_peek_next</text>
</g>
<!-- Node542 -->
<g id="node2" class="node"><title>Node542</title>
<g id="a_node2"><a xlink:href="net_8h.html#a6c0e56cd7bd35cb0961c3baf85e98eaf" target="_top" xlink:title="Sends a confirmed CoAP message to given destination. ">
<polygon fill="white" stroke="black" points="124,-76.5 124,-95.5 236,-95.5 236,-76.5 124,-76.5"/>
<text text-anchor="middle" x="180" y="-83.5" font-family="Helvetica,sans-Serif" font-size="10.00">coap_send_confirmed</text>
</a>
</g>
</g>
<!-- Node541&#45;&gt;Node542 -->
<g id="edge1" class="edge"><title>Node541&#45;&gt;Node542</title>
<path fill="none" stroke="midnightblue" d="M88.4383,-60.3183C106.849,-65.5393 127.98,-71.5316 145.197,-76.4141"/>
<polygon fill="midnightblue" stroke="midnightblue" points="89.3894,-56.9501 78.8139,-57.589 87.4796,-63.6845 89.3894,-56.9501"/>
</g>
<!-- Node546 -->
<g id="node6" class="node"><title>Node546</title>
<g id="a_node6"><a xlink:href="net_8h.html#a231e9a81ac7c03c3e5c251824a76d7b9" target="_top" xlink:title="Returns 1 if there are no messages to send or to dispatch in the context&#39;s queues. ">
<polygon fill="white" stroke="black" points="728,-38.5 728,-57.5 808,-57.5 808,-38.5 728,-38.5"/>
<text text-anchor="middle" x="768" y="-45.5" font-family="Helvetica,sans-Serif" font-size="10.00">coap_can_exit</text>
</a>
</g>
</g>
<!-- Node541&#45;&gt;Node546 -->
<g id="edge9" class="edge"><title>Node541&#45;&gt;Node546</title>
<path fill="none" stroke="midnightblue" d="M98.3198,-48C155.671,-48 249.542,-48 330.5,-48 330.5,-48 330.5,-48 485.5,-48 572.003,-48 673.457,-48 727.836,-48"/>
<polygon fill="midnightblue" stroke="midnightblue" points="98.0475,-44.5001 88.0475,-48 98.0474,-51.5001 98.0475,-44.5001"/>
</g>
<!-- Node549 -->
<g id="node9" class="node"><title>Node549</title>
<g id="a_node9"><a xlink:href="net_8h.html#a0b28834233cb704a89fb8e740ca65c69" target="_top" xlink:title="Registers the option type type with the given context object ctx. ">
<polygon fill="white" stroke="black" points="126.5,-0.5 126.5,-19.5 233.5,-19.5 233.5,-0.5 126.5,-0.5"/>
<text text-anchor="middle" x="180" y="-7.5" font-family="Helvetica,sans-Serif" font-size="10.00">coap_register_option</text>
</a>
</g>
</g>
<!-- Node541&#45;&gt;Node549 -->
<g id="edge10" class="edge"><title>Node541&#45;&gt;Node549</title>
<path fill="none" stroke="midnightblue" d="M88.4383,-35.6817C106.849,-30.4607 127.98,-24.4684 145.197,-19.5859"/>
<polygon fill="midnightblue" stroke="midnightblue" points="87.4796,-32.3155 78.8139,-38.411 89.3894,-39.0499 87.4796,-32.3155"/>
</g>
<!-- Node543 -->
<g id="node3" class="node"><title>Node543</title>
<g id="a_node3"><a xlink:href="net_8h.html#ac09b38583adc73fd96e33e9c61eac39f" target="_top" xlink:title="Returns a new message id and updates context&#45;&gt;message_id accordingly. ">
<polygon fill="white" stroke="black" points="272,-114.5 272,-133.5 391,-133.5 391,-114.5 272,-114.5"/>
<text text-anchor="middle" x="331.5" y="-121.5" font-family="Helvetica,sans-Serif" font-size="10.00">coap_new_message_id</text>
</a>
</g>
</g>
<!-- Node542&#45;&gt;Node543 -->
<g id="edge2" class="edge"><title>Node542&#45;&gt;Node543</title>
<path fill="none" stroke="midnightblue" d="M228.652,-98.1121C249.473,-103.404 273.538,-109.521 293.046,-114.48"/>
<polygon fill="midnightblue" stroke="midnightblue" points="229.279,-94.6604 218.725,-95.589 227.555,-101.445 229.279,-94.6604"/>
</g>
<!-- Node544 -->
<g id="node4" class="node"><title>Node544</title>
<g id="a_node4"><a xlink:href="resource_8c.html#ae1a91e254baca4f43b7896f54a8d9944" target="_top" xlink:title="coap_notify_observers">
<polygon fill="white" stroke="black" points="427,-76.5 427,-95.5 542,-95.5 542,-76.5 427,-76.5"/>
<text text-anchor="middle" x="484.5" y="-83.5" font-family="Helvetica,sans-Serif" font-size="10.00">coap_notify_observers</text>
</a>
</g>
</g>
<!-- Node542&#45;&gt;Node544 -->
<g id="edge8" class="edge"><title>Node542&#45;&gt;Node544</title>
<path fill="none" stroke="midnightblue" d="M246.255,-86C300.082,-86 375.669,-86 426.952,-86"/>
<polygon fill="midnightblue" stroke="midnightblue" points="246.131,-82.5001 236.131,-86 246.131,-89.5001 246.131,-82.5001"/>
</g>
<!-- Node543&#45;&gt;Node544 -->
<g id="edge3" class="edge"><title>Node543&#45;&gt;Node544</title>
<path fill="none" stroke="midnightblue" d="M380.343,-111.96C401.439,-106.651 425.877,-100.501 445.67,-95.5201"/>
<polygon fill="midnightblue" stroke="midnightblue" points="379.447,-108.576 370.604,-114.411 381.156,-115.365 379.447,-108.576"/>
</g>
<!-- Node545 -->
<g id="node5" class="node"><title>Node545</title>
<g id="a_node5"><a xlink:href="resource_8h.html#a579bcb559463d3a872831c18d8d9a1c1" target="_top" xlink:title="Checks for all known resources, if they are dirty and notifies subscribed observers. ">
<polygon fill="white" stroke="black" points="578,-76.5 578,-95.5 676,-95.5 676,-76.5 578,-76.5"/>
<text text-anchor="middle" x="627" y="-83.5" font-family="Helvetica,sans-Serif" font-size="10.00">coap_check_notify</text>
</a>
</g>
</g>
<!-- Node544&#45;&gt;Node545 -->
<g id="edge4" class="edge"><title>Node544&#45;&gt;Node545</title>
<path fill="none" stroke="midnightblue" d="M552.51,-86C560.982,-86 569.516,-86 577.619,-86"/>
<polygon fill="midnightblue" stroke="midnightblue" points="552.242,-82.5001 542.242,-86 552.242,-89.5001 552.242,-82.5001"/>
</g>
<!-- Node545&#45;&gt;Node546 -->
<g id="edge5" class="edge"><title>Node545&#45;&gt;Node546</title>
<path fill="none" stroke="midnightblue" d="M672.795,-73.7538C691.955,-68.516 713.994,-62.4909 731.936,-57.5859"/>
<polygon fill="midnightblue" stroke="midnightblue" points="671.799,-70.3978 663.076,-76.411 673.645,-77.15 671.799,-70.3978"/>
</g>
<!-- Node548 -->
<g id="node8" class="node"><title>Node548</title>
<g id="a_node8"><a xlink:href="resource_8h.html#a8f78ecf70cfbe5a69677bf3b97f0b776" target="_top" xlink:title="Registers the specified handler as message handler for the request type method. ">
<polygon fill="white" stroke="black" points="712,-76.5 712,-95.5 824,-95.5 824,-76.5 712,-76.5"/>
<text text-anchor="middle" x="768" y="-83.5" font-family="Helvetica,sans-Serif" font-size="10.00">coap_register_handler</text>
</a>
</g>
</g>
<!-- Node545&#45;&gt;Node548 -->
<g id="edge7" class="edge"><title>Node545&#45;&gt;Node548</title>
<path fill="none" stroke="midnightblue" d="M686.332,-86C694.737,-86 703.366,-86 711.709,-86"/>
<polygon fill="midnightblue" stroke="midnightblue" points="686.225,-82.5001 676.225,-86 686.225,-89.5001 686.225,-82.5001"/>
</g>
<!-- Node547 -->
<g id="node7" class="node"><title>Node547</title>
<g id="a_node7"><a xlink:href="net_8h.html#ac58be1c374afa04d10810aef1d073315" target="_top" xlink:title="Removes the transaction identified by id from given queue. ">
<polygon fill="white" stroke="black" points="860,-38.5 860,-57.5 988,-57.5 988,-38.5 860,-38.5"/>
<text text-anchor="middle" x="924" y="-45.5" font-family="Helvetica,sans-Serif" font-size="10.00">coap_remove_transaction</text>
</a>
</g>
</g>
<!-- Node546&#45;&gt;Node547 -->
<g id="edge6" class="edge"><title>Node546&#45;&gt;Node547</title>
<path fill="none" stroke="midnightblue" d="M818.519,-48C831.687,-48 846.089,-48 859.876,-48"/>
<polygon fill="midnightblue" stroke="midnightblue" points="818.259,-44.5001 808.259,-48 818.259,-51.5001 818.259,-44.5001"/>
</g>
</g>
</svg>
