<?xml version="1.0" encoding="UTF-8" standalone="no"?>
<!DOCTYPE svg PUBLIC "-//W3C//DTD SVG 1.1//EN"
 "http://www.w3.org/Graphics/SVG/1.1/DTD/svg11.dtd">
<!-- Generated by graphviz version 2.38.0 (20140413.2041)
 -->
<!-- Title: coap_send_message_type Pages: 1 -->
<!--zoomable 206 -->
<svg id="main" version="1.1" xmlns="http://www.w3.org/2000/svg" xmlns:xlink="http://www.w3.org/1999/xlink" xml:space="preserve" onload="init(evt)">
<style type="text/css"><![CDATA[
.edge:hover path { stroke: red; }
.edge:hover polygon { stroke: red; fill: red; }
]]></style>
<script type="text/javascript"><![CDATA[
var edges = document.getElementsByTagName('g');
if (edges && edges.length) {
  for (var i=0;i<edges.length;i++) {
    if (edges[i].id.substr(0,4)=='edge') {
      edges[i].setAttribute('class','edge');
    }
  }
}
]]></script>
        <defs>
                <circle id="rim" cx="0" cy="0" r="7"/>
                <circle id="rim2" cx="0" cy="0" r="3.5"/>
                <g id="zoomPlus">
                        <use xlink:href="#rim" fill="#404040">
                                <set attributeName="fill" to="#808080" begin="zoomplus.mouseover" end="zoomplus.mouseout"/>
                        </use>
                        <path d="M-4,0h8M0,-4v8" fill="none" stroke="white" stroke-width="1.5" pointer-events="none"/>
                </g>
                <g id="zoomMin">
                        <use xlink:href="#rim" fill="#404040">
                                <set attributeName="fill" to="#808080" begin="zoomminus.mouseover" end="zoomminus.mouseout"/>
                        </use>
                        <path d="M-4,0h8" fill="none" stroke="white" stroke-width="1.5" pointer-events="none"/>
                </g>
                <g id="dirArrow">
                        <path fill="none" stroke="white" stroke-width="1.5" d="M0,-3.0v7 M-2.5,-0.5L0,-3.0L2.5,-0.5"/>
                </g>
               <g id="resetDef">
                       <use xlink:href="#rim2" fill="#404040">
                               <set attributeName="fill" to="#808080" begin="reset.mouseover" end="reset.mouseout"/>
                       </use>
               </g>
        </defs>

<script type="text/javascript">
var viewWidth = 894;
var viewHeight = 206;
var sectionId = 'dynsection-51';
</script>
<script xlink:href="svgpan.js"/>
<svg id="graph" class="graph">
<g id="viewport">
<title>coap_send_message_type</title>
<polygon fill="white" stroke="none" points="-4,4 -4,-202.312 890,-202.312 890,4 -4,4"/>
<!-- Node900 -->
<g id="node1" class="node"><title>Node900</title>
<polygon fill="#bfbfbf" stroke="black" points="0,-114.5 0,-133.5 133,-133.5 133,-114.5 0,-114.5"/>
<text text-anchor="middle" x="66.5" y="-121.5" font-family="Helvetica,sans-Serif" font-size="10.00">coap_send_message_type</text>
</g>
<!-- Node901 -->
<g id="node2" class="node"><title>Node901</title>
<g id="a_node2"><a xlink:href="net_8h.html#ab458d1c3b0f5d695dfa86b805ae8463d" target="_top" xlink:title="Dispatches the PDUs from the receive queue in given context. ">
<polygon fill="white" stroke="black" points="188.5,-114.5 188.5,-133.5 268.5,-133.5 268.5,-114.5 188.5,-114.5"/>
<text text-anchor="middle" x="228.5" y="-121.5" font-family="Helvetica,sans-Serif" font-size="10.00">coap_dispatch</text>
</a>
</g>
</g>
<!-- Node900&#45;&gt;Node901 -->
<g id="edge1" class="edge"><title>Node900&#45;&gt;Node901</title>
<path fill="none" stroke="midnightblue" d="M143.263,-124C158.906,-124 174.766,-124 188.441,-124"/>
<polygon fill="midnightblue" stroke="midnightblue" points="143.04,-120.5 133.04,-124 143.04,-127.5 143.04,-120.5"/>
</g>
<!-- Node905 -->
<g id="node6" class="node"><title>Node905</title>
<g id="a_node6"><a xlink:href="net_8h.html#a08ba53f8f554cf7a2559813ebde1bb1d" target="_top" xlink:title="Sends an RST message with code 0 for the specified request to dst. ">
<polygon fill="white" stroke="black" points="626,-171.5 626,-190.5 706,-190.5 706,-171.5 626,-171.5"/>
<text text-anchor="middle" x="666" y="-178.5" font-family="Helvetica,sans-Serif" font-size="10.00">coap_send_rst</text>
</a>
</g>
</g>
<!-- Node900&#45;&gt;Node905 -->
<g id="edge16" class="edge"><title>Node900&#45;&gt;Node905</title>
<path fill="none" stroke="midnightblue" d="M113.516,-135.983C164.604,-148.874 249.675,-169.118 324,-181 391.033,-191.716 408.198,-192.663 476,-196 519.503,-198.141 530.59,-199.554 574,-196 591.076,-194.602 609.774,-191.752 625.757,-188.908"/>
<polygon fill="midnightblue" stroke="midnightblue" points="114.318,-132.576 103.764,-133.507 112.596,-139.36 114.318,-132.576"/>
</g>
<!-- Node908 -->
<g id="node9" class="node"><title>Node908</title>
<g id="a_node9"><a xlink:href="net_8h.html#ac09b38583adc73fd96e33e9c61eac39f" target="_top" xlink:title="Returns a new message id and updates context&#45;&gt;message_id accordingly. ">
<polygon fill="white" stroke="black" points="169,-57.5 169,-76.5 288,-76.5 288,-57.5 169,-57.5"/>
<text text-anchor="middle" x="228.5" y="-64.5" font-family="Helvetica,sans-Serif" font-size="10.00">coap_new_message_id</text>
</a>
</g>
</g>
<!-- Node900&#45;&gt;Node908 -->
<g id="edge11" class="edge"><title>Node900&#45;&gt;Node908</title>
<path fill="none" stroke="midnightblue" d="M103.79,-111.072C133.23,-100.584 174.065,-86.0361 200.632,-76.5716"/>
<polygon fill="midnightblue" stroke="midnightblue" points="102.526,-107.806 94.2804,-114.459 104.875,-114.401 102.526,-107.806"/>
</g>
<!-- Node902 -->
<g id="node3" class="node"><title>Node902</title>
<g id="a_node3"><a xlink:href="net_8h.html#a9900c032b74bd57f67d489484a2b3207" target="_top" xlink:title="Handles retransmissions of confirmable messages. ">
<polygon fill="white" stroke="black" points="482,-114.5 482,-133.5 568,-133.5 568,-114.5 482,-114.5"/>
<text text-anchor="middle" x="525" y="-121.5" font-family="Helvetica,sans-Serif" font-size="10.00">coap_retransmit</text>
</a>
</g>
</g>
<!-- Node901&#45;&gt;Node902 -->
<g id="edge2" class="edge"><title>Node901&#45;&gt;Node902</title>
<path fill="none" stroke="midnightblue" d="M278.794,-124C335.668,-124 428.22,-124 481.871,-124"/>
<polygon fill="midnightblue" stroke="midnightblue" points="278.607,-120.5 268.607,-124 278.607,-127.5 278.607,-120.5"/>
</g>
<!-- Node904 -->
<g id="node5" class="node"><title>Node904</title>
<g id="a_node5"><a xlink:href="net_8h.html#ac58be1c374afa04d10810aef1d073315" target="_top" xlink:title="Removes the transaction identified by id from given queue. ">
<polygon fill="white" stroke="black" points="758,-57.5 758,-76.5 886,-76.5 886,-57.5 758,-57.5"/>
<text text-anchor="middle" x="822" y="-64.5" font-family="Helvetica,sans-Serif" font-size="10.00">coap_remove_transaction</text>
</a>
</g>
</g>
<!-- Node901&#45;&gt;Node904 -->
<g id="edge10" class="edge"><title>Node901&#45;&gt;Node904</title>
<path fill="none" stroke="midnightblue" d="M278.966,-119.233C386.011,-108.918 639.03,-84.5356 757.607,-73.1089"/>
<polygon fill="midnightblue" stroke="midnightblue" points="278.386,-115.773 268.768,-120.216 279.058,-122.74 278.386,-115.773"/>
</g>
<!-- Node906 -->
<g id="node7" class="node"><title>Node906</title>
<g id="a_node7"><a xlink:href="net_8h.html#a74c5ca78210280817a5586f61abfa5f3" target="_top" xlink:title="Parses and interprets a CoAP message with context ctx. ">
<polygon fill="white" stroke="black" points="324,-152.5 324,-171.5 440,-171.5 440,-152.5 324,-152.5"/>
<text text-anchor="middle" x="382" y="-159.5" font-family="Helvetica,sans-Serif" font-size="10.00">coap_handle_message</text>
</a>
</g>
</g>
<!-- Node901&#45;&gt;Node906 -->
<g id="edge6" class="edge"><title>Node901&#45;&gt;Node906</title>
<path fill="none" stroke="midnightblue" d="M277.502,-136.04C298.667,-141.349 323.186,-147.499 343.045,-152.48"/>
<polygon fill="midnightblue" stroke="midnightblue" points="278.281,-132.627 267.73,-133.589 276.578,-139.417 278.281,-132.627"/>
</g>
<!-- Node903 -->
<g id="node4" class="node"><title>Node903</title>
<g id="a_node4"><a xlink:href="net_8h.html#a231e9a81ac7c03c3e5c251824a76d7b9" target="_top" xlink:title="Returns 1 if there are no messages to send or to dispatch in the context&#39;s queues. ">
<polygon fill="white" stroke="black" points="626,-38.5 626,-57.5 706,-57.5 706,-38.5 626,-38.5"/>
<text text-anchor="middle" x="666" y="-45.5" font-family="Helvetica,sans-Serif" font-size="10.00">coap_can_exit</text>
</a>
</g>
</g>
<!-- Node902&#45;&gt;Node903 -->
<g id="edge3" class="edge"><title>Node902&#45;&gt;Node903</title>
<path fill="none" stroke="midnightblue" d="M552.438,-109.545C580.362,-94.2768 623.593,-70.6397 647.538,-57.5473"/>
<polygon fill="midnightblue" stroke="midnightblue" points="550.699,-106.506 543.604,-114.375 554.058,-112.648 550.699,-106.506"/>
</g>
<!-- Node902&#45;&gt;Node905 -->
<g id="edge5" class="edge"><title>Node902&#45;&gt;Node905</title>
<path fill="none" stroke="midnightblue" d="M559.958,-137.35C564.68,-139.233 569.465,-141.156 574,-143 597.313,-152.481 623.858,-163.603 642.236,-171.356"/>
<polygon fill="midnightblue" stroke="midnightblue" points="561.04,-134.014 550.454,-133.578 558.457,-140.521 561.04,-134.014"/>
</g>
<!-- Node903&#45;&gt;Node904 -->
<g id="edge4" class="edge"><title>Node903&#45;&gt;Node904</title>
<path fill="none" stroke="midnightblue" d="M716.519,-54.1095C729.687,-55.7341 744.089,-57.5109 757.876,-59.212"/>
<polygon fill="midnightblue" stroke="midnightblue" points="716.613,-50.5946 706.259,-52.8437 715.755,-57.5419 716.613,-50.5946"/>
</g>
<!-- Node906&#45;&gt;Node905 -->
<g id="edge9" class="edge"><title>Node906&#45;&gt;Node905</title>
<path fill="none" stroke="midnightblue" d="M430.925,-173.712C445.325,-176.709 461.223,-179.506 476,-181 527.581,-186.215 587.485,-184.993 625.791,-183.293"/>
<polygon fill="midnightblue" stroke="midnightblue" points="431.257,-170.203 420.743,-171.51 429.777,-177.044 431.257,-170.203"/>
</g>
<!-- Node907 -->
<g id="node8" class="node"><title>Node907</title>
<g id="a_node8"><a xlink:href="net_8h.html#ade17f093221599e839345cf88b74b496" target="_top" xlink:title="Reads data from the network and tries to parse as CoAP PDU. ">
<polygon fill="white" stroke="black" points="494,-152.5 494,-171.5 556,-171.5 556,-152.5 494,-152.5"/>
<text text-anchor="middle" x="525" y="-159.5" font-family="Helvetica,sans-Serif" font-size="10.00">coap_read</text>
</a>
</g>
</g>
<!-- Node906&#45;&gt;Node907 -->
<g id="edge7" class="edge"><title>Node906&#45;&gt;Node907</title>
<path fill="none" stroke="midnightblue" d="M450.738,-162C465.831,-162 481.093,-162 493.752,-162"/>
<polygon fill="midnightblue" stroke="midnightblue" points="450.35,-158.5 440.35,-162 450.35,-165.5 450.35,-158.5"/>
</g>
<!-- Node907&#45;&gt;Node905 -->
<g id="edge8" class="edge"><title>Node907&#45;&gt;Node905</title>
<path fill="none" stroke="midnightblue" d="M566.193,-167.494C584.98,-170.062 607.264,-173.108 625.911,-175.657"/>
<polygon fill="midnightblue" stroke="midnightblue" points="566.543,-164.009 556.161,-166.123 565.595,-170.945 566.543,-164.009"/>
</g>
<!-- Node909 -->
<g id="node10" class="node"><title>Node909</title>
<g id="a_node10"><a xlink:href="resource_8c.html#ae1a91e254baca4f43b7896f54a8d9944" target="_top" xlink:title="coap_notify_observers">
<polygon fill="white" stroke="black" points="324.5,-38.5 324.5,-57.5 439.5,-57.5 439.5,-38.5 324.5,-38.5"/>
<text text-anchor="middle" x="382" y="-45.5" font-family="Helvetica,sans-Serif" font-size="10.00">coap_notify_observers</text>
</a>
</g>
</g>
<!-- Node908&#45;&gt;Node909 -->
<g id="edge12" class="edge"><title>Node908&#45;&gt;Node909</title>
<path fill="none" stroke="midnightblue" d="M298.162,-58.3889C306.829,-57.302 315.62,-56.1995 324.077,-55.1389"/>
<polygon fill="midnightblue" stroke="midnightblue" points="297.561,-54.9368 288.074,-59.6541 298.432,-61.8824 297.561,-54.9368"/>
</g>
<!-- Node910 -->
<g id="node11" class="node"><title>Node910</title>
<g id="a_node11"><a xlink:href="resource_8h.html#a579bcb559463d3a872831c18d8d9a1c1" target="_top" xlink:title="Checks for all known resources, if they are dirty and notifies subscribed observers. ">
<polygon fill="white" stroke="black" points="476,-38.5 476,-57.5 574,-57.5 574,-38.5 476,-38.5"/>
<text text-anchor="middle" x="525" y="-45.5" font-family="Helvetica,sans-Serif" font-size="10.00">coap_check_notify</text>
</a>
</g>
</g>
<!-- Node909&#45;&gt;Node910 -->
<g id="edge13" class="edge"><title>Node909&#45;&gt;Node910</title>
<path fill="none" stroke="midnightblue" d="M449.722,-48C458.456,-48 467.267,-48 475.618,-48"/>
<polygon fill="midnightblue" stroke="midnightblue" points="449.538,-44.5001 439.538,-48 449.538,-51.5001 449.538,-44.5001"/>
</g>
<!-- Node910&#45;&gt;Node903 -->
<g id="edge14" class="edge"><title>Node910&#45;&gt;Node903</title>
<path fill="none" stroke="midnightblue" d="M584.234,-48C598.175,-48 612.738,-48 625.597,-48"/>
<polygon fill="midnightblue" stroke="midnightblue" points="584.225,-44.5001 574.225,-48 584.225,-51.5001 584.225,-44.5001"/>
</g>
<!-- Node911 -->
<g id="node12" class="node"><title>Node911</title>
<g id="a_node12"><a xlink:href="resource_8h.html#a8f78ecf70cfbe5a69677bf3b97f0b776" target="_top" xlink:title="Registers the specified handler as message handler for the request type method. ">
<polygon fill="white" stroke="black" points="610,-0.5 610,-19.5 722,-19.5 722,-0.5 610,-0.5"/>
<text text-anchor="middle" x="666" y="-7.5" font-family="Helvetica,sans-Serif" font-size="10.00">coap_register_handler</text>
</a>
</g>
</g>
<!-- Node910&#45;&gt;Node911 -->
<g id="edge15" class="edge"><title>Node910&#45;&gt;Node911</title>
<path fill="none" stroke="midnightblue" d="M570.795,-35.7538C589.955,-30.516 611.994,-24.4909 629.936,-19.5859"/>
<polygon fill="midnightblue" stroke="midnightblue" points="569.799,-32.3978 561.076,-38.411 571.645,-39.15 569.799,-32.3978"/>
</g>
</g>
</svg>
        <g id="navigator" transform="translate(0 0)" fill="#404254">
                <rect fill="#f2f5e9" fill-opacity="0.5" stroke="#606060" stroke-width=".5" x="0" y="0" width="60" height="60"/>
                <use id="zoomplus" xlink:href="#zoomPlus" x="17" y="9" onmousedown="handleZoom(evt,'in')"/>
                <use id="zoomminus" xlink:href="#zoomMin" x="42" y="9" onmousedown="handleZoom(evt,'out')"/>
                <use id="reset" xlink:href="#resetDef" x="30" y="36" onmousedown="handleReset()"/>
                <g id="arrowUp" xlink:href="#dirArrow" transform="translate(30 24)" onmousedown="handlePan(0,-1)">
                  <use xlink:href="#rim" fill="#404040">
                        <set attributeName="fill" to="#808080" begin="arrowUp.mouseover" end="arrowUp.mouseout"/>
                  </use>
                  <path fill="none" stroke="white" stroke-width="1.5" d="M0,-3.0v7 M-2.5,-0.5L0,-3.0L2.5,-0.5"/>
                </g>
                <g id="arrowRight" xlink:href="#dirArrow" transform="rotate(90) translate(36 -43)" onmousedown="handlePan(1,0)">
                  <use xlink:href="#rim" fill="#404040">
                        <set attributeName="fill" to="#808080" begin="arrowRight.mouseover" end="arrowRight.mouseout"/>
                  </use>
                  <path fill="none" stroke="white" stroke-width="1.5" d="M0,-3.0v7 M-2.5,-0.5L0,-3.0L2.5,-0.5"/>
                </g>
                <g id="arrowDown" xlink:href="#dirArrow" transform="rotate(180) translate(-30 -48)" onmousedown="handlePan(0,1)">
                  <use xlink:href="#rim" fill="#404040">
                        <set attributeName="fill" to="#808080" begin="arrowDown.mouseover" end="arrowDown.mouseout"/>
                  </use>
                  <path fill="none" stroke="white" stroke-width="1.5" d="M0,-3.0v7 M-2.5,-0.5L0,-3.0L2.5,-0.5"/>
                </g>
                <g id="arrowLeft" xlink:href="#dirArrow" transform="rotate(270) translate(-36 17)" onmousedown="handlePan(-1,0)">
                  <use xlink:href="#rim" fill="#404040">
                        <set attributeName="fill" to="#808080" begin="arrowLeft.mouseover" end="arrowLeft.mouseout"/>
                  </use>
                  <path fill="none" stroke="white" stroke-width="1.5" d="M0,-3.0v7 M-2.5,-0.5L0,-3.0L2.5,-0.5"/>
                </g>
        </g>
        <svg viewBox="0 0 15 15" width="100%" height="30px" preserveAspectRatio="xMaxYMin meet">
         <g id="arrow_out" transform="scale(0.3 0.3)">
          <a xlink:href="net_8c_a4c4586bd08711835e746b3293d0b2061_icgraph_org.svg" target="_base">
           <rect id="button" ry="5" rx="5" y="6" x="6" height="38" width="38"
                fill="#f2f5e9" fill-opacity="0.5" stroke="#606060" stroke-width="1.0"/>
           <path id="arrow"
             d="M 11.500037,31.436501 C 11.940474,20.09759 22.043105,11.32322 32.158766,21.979434 L 37.068811,17.246167 C 37.068811,17.246167 37.088388,32 37.088388,32 L 22.160133,31.978069 C 22.160133,31.978069 26.997745,27.140456 26.997745,27.140456 C 18.528582,18.264221 13.291696,25.230495 11.500037,31.436501 z"
             style="fill:#404040;"/>
          </a>
         </g>
        </svg>
</svg>
