<?xml version="1.0" encoding="UTF-8" standalone="no"?>
<!DOCTYPE svg PUBLIC "-//W3C//DTD SVG 1.1//EN"
 "http://www.w3.org/Graphics/SVG/1.1/DTD/svg11.dtd">
<!-- Generated by graphviz version 2.38.0 (20140413.2041)
 -->
<!-- Title: coap_pdu_clear Pages: 1 -->
<!--zoomable 408 -->
<svg id="main" version="1.1" xmlns="http://www.w3.org/2000/svg" xmlns:xlink="http://www.w3.org/1999/xlink" xml:space="preserve" onload="init(evt)">
<style type="text/css"><![CDATA[
.edge:hover path { stroke: red; }
.edge:hover polygon { stroke: red; fill: red; }
]]></style>
<script type="text/javascript"><![CDATA[
var edges = document.getElementsByTagName('g');
if (edges && edges.length) {
  for (var i=0;i<edges.length;i++) {
    if (edges[i].id.substr(0,4)=='edge') {
      edges[i].setAttribute('class','edge');
    }
  }
}
]]></script>
        <defs>
                <circle id="rim" cx="0" cy="0" r="7"/>
                <circle id="rim2" cx="0" cy="0" r="3.5"/>
                <g id="zoomPlus">
                        <use xlink:href="#rim" fill="#404040">
                                <set attributeName="fill" to="#808080" begin="zoomplus.mouseover" end="zoomplus.mouseout"/>
                        </use>
                        <path d="M-4,0h8M0,-4v8" fill="none" stroke="white" stroke-width="1.5" pointer-events="none"/>
                </g>
                <g id="zoomMin">
                        <use xlink:href="#rim" fill="#404040">
                                <set attributeName="fill" to="#808080" begin="zoomminus.mouseover" end="zoomminus.mouseout"/>
                        </use>
                        <path d="M-4,0h8" fill="none" stroke="white" stroke-width="1.5" pointer-events="none"/>
                </g>
                <g id="dirArrow">
                        <path fill="none" stroke="white" stroke-width="1.5" d="M0,-3.0v7 M-2.5,-0.5L0,-3.0L2.5,-0.5"/>
                </g>
               <g id="resetDef">
                       <use xlink:href="#rim2" fill="#404040">
                               <set attributeName="fill" to="#808080" begin="reset.mouseover" end="reset.mouseout"/>
                       </use>
               </g>
        </defs>

<script type="text/javascript">
var viewWidth = 1298;
var viewHeight = 408;
var sectionId = 'dynsection-12';
</script>
<script xlink:href="svgpan.js"/>
<svg id="graph" class="graph">
<g id="viewport">
<title>coap_pdu_clear</title>
<polygon fill="white" stroke="none" points="-4,4 -4,-404 1294,-404 1294,4 -4,4"/>
<!-- Node101 -->
<g id="node1" class="node"><title>Node101</title>
<polygon fill="#bfbfbf" stroke="black" points="0,-247.5 0,-266.5 85,-266.5 85,-247.5 0,-247.5"/>
<text text-anchor="middle" x="42.5" y="-254.5" font-family="Helvetica,sans-Serif" font-size="10.00">coap_pdu_clear</text>
</g>
<!-- Node102 -->
<g id="node2" class="node"><title>Node102</title>
<g id="a_node2"><a xlink:href="pdu_8h.html#a36ddaad46f33b6a11aa312ddd7a9e3e1" target="_top" xlink:title="Creates a new CoAP PDU of given size (must be large enough to hold the basic CoAP message header (coa...">
<polygon fill="white" stroke="black" points="121,-247.5 121,-266.5 198,-266.5 198,-247.5 121,-247.5"/>
<text text-anchor="middle" x="159.5" y="-254.5" font-family="Helvetica,sans-Serif" font-size="10.00">coap_pdu_init</text>
</a>
</g>
</g>
<!-- Node101&#45;&gt;Node102 -->
<g id="edge1" class="edge"><title>Node101&#45;&gt;Node102</title>
<path fill="none" stroke="midnightblue" d="M95.0772,-257C103.759,-257 112.622,-257 120.865,-257"/>
<polygon fill="midnightblue" stroke="midnightblue" points="95.0177,-253.5 85.0176,-257 95.0176,-260.5 95.0177,-253.5"/>
</g>
<!-- Node103 -->
<g id="node3" class="node"><title>Node103</title>
<g id="a_node3"><a xlink:href="net_8h.html#a473d73a522f436b912a16a00dd646527" target="_top" xlink:title="Sends an ACK message with code 0 for the specified request to dst. ">
<polygon fill="white" stroke="black" points="258.5,-114.5 258.5,-133.5 343.5,-133.5 343.5,-114.5 258.5,-114.5"/>
<text text-anchor="middle" x="301" y="-121.5" font-family="Helvetica,sans-Serif" font-size="10.00">coap_send_ack</text>
</a>
</g>
</g>
<!-- Node102&#45;&gt;Node103 -->
<g id="edge2" class="edge"><title>Node102&#45;&gt;Node103</title>
<path fill="none" stroke="midnightblue" d="M178.013,-240.303C207.459,-212.229 265.987,-156.428 289.682,-133.837"/>
<polygon fill="midnightblue" stroke="midnightblue" points="175.355,-238.001 170.532,-247.435 180.185,-243.068 175.355,-238.001"/>
</g>
<!-- Node110 -->
<g id="node10" class="node"><title>Node110</title>
<g id="a_node10"><a xlink:href="net_8h.html#a74c5ca78210280817a5586f61abfa5f3" target="_top" xlink:title="Parses and interprets a CoAP message with context ctx. ">
<polygon fill="white" stroke="black" points="728,-323.5 728,-342.5 844,-342.5 844,-323.5 728,-323.5"/>
<text text-anchor="middle" x="786" y="-330.5" font-family="Helvetica,sans-Serif" font-size="10.00">coap_handle_message</text>
</a>
</g>
</g>
<!-- Node102&#45;&gt;Node110 -->
<g id="edge23" class="edge"><title>Node102&#45;&gt;Node110</title>
<path fill="none" stroke="midnightblue" d="M180.181,-272.692C194.346,-283.18 214.346,-296.401 234,-304 403.758,-369.637 625.045,-353.818 727.864,-341.299"/>
<polygon fill="midnightblue" stroke="midnightblue" points="182.247,-269.866 172.171,-266.59 178.005,-275.434 182.247,-269.866"/>
</g>
<!-- Node113 -->
<g id="node13" class="node"><title>Node113</title>
<g id="a_node13"><a xlink:href="resource_8c.html#ae1a91e254baca4f43b7896f54a8d9944" target="_top" xlink:title="coap_notify_observers">
<polygon fill="white" stroke="black" points="728.5,-152.5 728.5,-171.5 843.5,-171.5 843.5,-152.5 728.5,-152.5"/>
<text text-anchor="middle" x="786" y="-159.5" font-family="Helvetica,sans-Serif" font-size="10.00">coap_notify_observers</text>
</a>
</g>
</g>
<!-- Node102&#45;&gt;Node113 -->
<g id="edge36" class="edge"><title>Node102&#45;&gt;Node113</title>
<path fill="none" stroke="midnightblue" d="M163.577,-237.426C169.993,-203.877 188.214,-136.018 234,-105 409.96,14.2044 692.749,-114.885 766.785,-152.41"/>
<polygon fill="midnightblue" stroke="midnightblue" points="160.11,-236.93 161.83,-247.385 167.005,-238.14 160.11,-236.93"/>
</g>
<!-- Node116 -->
<g id="node16" class="node"><title>Node116</title>
<g id="a_node16"><a xlink:href="net_8h.html#a4c4586bd08711835e746b3293d0b2061" target="_top" xlink:title="Helper funktion to create and send a message with type (usually ACK or RST). ">
<polygon fill="white" stroke="black" points="404,-266.5 404,-285.5 537,-285.5 537,-266.5 404,-266.5"/>
<text text-anchor="middle" x="470.5" y="-273.5" font-family="Helvetica,sans-Serif" font-size="10.00">coap_send_message_type</text>
</a>
</g>
</g>
<!-- Node102&#45;&gt;Node116 -->
<g id="edge19" class="edge"><title>Node102&#45;&gt;Node116</title>
<path fill="none" stroke="midnightblue" d="M208.119,-259.928C260.545,-263.152 345.165,-268.355 403.861,-271.964"/>
<polygon fill="midnightblue" stroke="midnightblue" points="208.277,-256.431 198.081,-259.311 207.847,-263.418 208.277,-256.431"/>
</g>
<!-- Node117 -->
<g id="node17" class="node"><title>Node117</title>
<g id="a_node17"><a xlink:href="net_8h.html#ab7953637ad760f76ffb8060ddf47fe6a" target="_top" xlink:title="Creates a new ACK PDU with specified error code. ">
<polygon fill="white" stroke="black" points="235.5,-228.5 235.5,-247.5 366.5,-247.5 366.5,-228.5 235.5,-228.5"/>
<text text-anchor="middle" x="301" y="-235.5" font-family="Helvetica,sans-Serif" font-size="10.00">coap_new_error_response</text>
</a>
</g>
</g>
<!-- Node102&#45;&gt;Node117 -->
<g id="edge24" class="edge"><title>Node102&#45;&gt;Node117</title>
<path fill="none" stroke="midnightblue" d="M208.23,-250.499C216.963,-249.31 226.21,-248.05 235.34,-246.807"/>
<polygon fill="midnightblue" stroke="midnightblue" points="207.687,-247.041 198.251,-251.858 208.632,-253.977 207.687,-247.041"/>
</g>
<!-- Node119 -->
<g id="node19" class="node"><title>Node119</title>
<g id="a_node19"><a xlink:href="net_8c.html#a13ff6a2308c8e167a66218e43b819df2" target="_top" xlink:title="handle_request">
<polygon fill="white" stroke="black" points="429,-304.5 429,-323.5 512,-323.5 512,-304.5 429,-304.5"/>
<text text-anchor="middle" x="470.5" y="-311.5" font-family="Helvetica,sans-Serif" font-size="10.00">handle_request</text>
</a>
</g>
</g>
<!-- Node102&#45;&gt;Node119 -->
<g id="edge34" class="edge"><title>Node102&#45;&gt;Node119</title>
<path fill="none" stroke="midnightblue" d="M198.481,-269.499C209.819,-272.922 222.336,-276.402 234,-279 301.579,-294.054 381.543,-304.392 428.754,-309.741"/>
<polygon fill="midnightblue" stroke="midnightblue" points="199.459,-266.138 188.872,-266.528 197.392,-272.825 199.459,-266.138"/>
</g>
<!-- Node120 -->
<g id="node20" class="node"><title>Node120</title>
<g id="a_node20"><a xlink:href="net_8h.html#a4bf688cc4467cb91b6ace43e735ffafa" target="_top" xlink:title="Creates a new response for given request with the contents of .well&#45;known/core. ">
<polygon fill="white" stroke="black" points="234,-380.5 234,-399.5 368,-399.5 368,-380.5 234,-380.5"/>
<text text-anchor="middle" x="301" y="-387.5" font-family="Helvetica,sans-Serif" font-size="10.00">coap_wellknown_response</text>
</a>
</g>
</g>
<!-- Node102&#45;&gt;Node120 -->
<g id="edge31" class="edge"><title>Node102&#45;&gt;Node120</title>
<path fill="none" stroke="midnightblue" d="M168.635,-275.809C179.963,-299.923 202.681,-341.535 234,-366 241.975,-372.23 251.716,-376.943 261.241,-380.467"/>
<polygon fill="midnightblue" stroke="midnightblue" points="171.799,-274.312 164.485,-266.646 165.422,-277.2 171.799,-274.312"/>
</g>
<!-- Node121 -->
<g id="node21" class="node"><title>Node121</title>
<g id="a_node21"><a xlink:href="pdu_8h.html#af0a6b321860022c034ce9af33ed9b847" target="_top" xlink:title="Creates a new CoAP PDU. ">
<polygon fill="white" stroke="black" points="260,-0.5 260,-19.5 342,-19.5 342,-0.5 260,-0.5"/>
<text text-anchor="middle" x="301" y="-7.5" font-family="Helvetica,sans-Serif" font-size="10.00">coap_new_pdu</text>
</a>
</g>
</g>
<!-- Node102&#45;&gt;Node121 -->
<g id="edge35" class="edge"><title>Node102&#45;&gt;Node121</title>
<path fill="none" stroke="midnightblue" d="M161.419,-237.272C164.464,-194.448 177.581,-92.1599 234,-34 241.046,-26.7364 250.461,-21.66 259.968,-18.116"/>
<polygon fill="midnightblue" stroke="midnightblue" points="157.912,-237.28 160.809,-247.471 164.899,-237.698 157.912,-237.28"/>
</g>
<!-- Node104 -->
<g id="node4" class="node"><title>Node104</title>
<g id="a_node4"><a xlink:href="net_8c.html#a18949a9879fbf404538cddb5acc117c4" target="_top" xlink:title="handle_response">
<polygon fill="white" stroke="black" points="425.5,-114.5 425.5,-133.5 515.5,-133.5 515.5,-114.5 425.5,-114.5"/>
<text text-anchor="middle" x="470.5" y="-121.5" font-family="Helvetica,sans-Serif" font-size="10.00">handle_response</text>
</a>
</g>
</g>
<!-- Node103&#45;&gt;Node104 -->
<g id="edge3" class="edge"><title>Node103&#45;&gt;Node104</title>
<path fill="none" stroke="midnightblue" d="M354.039,-124C376.877,-124 403.406,-124 425.272,-124"/>
<polygon fill="midnightblue" stroke="midnightblue" points="353.835,-120.5 343.835,-124 353.835,-127.5 353.835,-120.5"/>
</g>
<!-- Node112 -->
<g id="node12" class="node"><title>Node112</title>
<g id="a_node12"><a xlink:href="net_8h.html#ac09b38583adc73fd96e33e9c61eac39f" target="_top" xlink:title="Returns a new message id and updates context&#45;&gt;message_id accordingly. ">
<polygon fill="white" stroke="black" points="573,-152.5 573,-171.5 692,-171.5 692,-152.5 573,-152.5"/>
<text text-anchor="middle" x="632.5" y="-159.5" font-family="Helvetica,sans-Serif" font-size="10.00">coap_new_message_id</text>
</a>
</g>
</g>
<!-- Node103&#45;&gt;Node112 -->
<g id="edge14" class="edge"><title>Node103&#45;&gt;Node112</title>
<path fill="none" stroke="midnightblue" d="M344.185,-111.916C391.878,-100.231 471.422,-86.7538 537,-105 570.225,-114.245 603.447,-138.669 620.244,-152.356"/>
<polygon fill="midnightblue" stroke="midnightblue" points="343.05,-108.593 334.219,-114.446 344.772,-115.377 343.05,-108.593"/>
</g>
<!-- Node105 -->
<g id="node5" class="node"><title>Node105</title>
<g id="a_node5"><a xlink:href="net_8h.html#ab458d1c3b0f5d695dfa86b805ae8463d" target="_top" xlink:title="Dispatches the PDUs from the receive queue in given context. ">
<polygon fill="white" stroke="black" points="592.5,-228.5 592.5,-247.5 672.5,-247.5 672.5,-228.5 592.5,-228.5"/>
<text text-anchor="middle" x="632.5" y="-235.5" font-family="Helvetica,sans-Serif" font-size="10.00">coap_dispatch</text>
</a>
</g>
</g>
<!-- Node104&#45;&gt;Node105 -->
<g id="edge4" class="edge"><title>Node104&#45;&gt;Node105</title>
<path fill="none" stroke="midnightblue" d="M524.883,-136.835C529.105,-138.639 533.201,-140.684 537,-143 556.865,-155.108 556.665,-164.435 573,-181 589.727,-197.963 609.693,-217.21 621.444,-228.438"/>
<polygon fill="midnightblue" stroke="midnightblue" points="526.093,-133.55 515.502,-133.258 523.599,-140.091 526.093,-133.55"/>
</g>
<!-- Node106 -->
<g id="node6" class="node"><title>Node106</title>
<g id="a_node6"><a xlink:href="net_8h.html#a9900c032b74bd57f67d489484a2b3207" target="_top" xlink:title="Handles retransmissions of confirmable messages. ">
<polygon fill="white" stroke="black" points="886,-190.5 886,-209.5 972,-209.5 972,-190.5 886,-190.5"/>
<text text-anchor="middle" x="929" y="-197.5" font-family="Helvetica,sans-Serif" font-size="10.00">coap_retransmit</text>
</a>
</g>
</g>
<!-- Node105&#45;&gt;Node106 -->
<g id="edge5" class="edge"><title>Node105&#45;&gt;Node106</title>
<path fill="none" stroke="midnightblue" d="M682.842,-230.427C697.376,-228.267 713.317,-225.968 728,-224 782.418,-216.705 845.312,-209.331 885.818,-204.719"/>
<polygon fill="midnightblue" stroke="midnightblue" points="681.918,-227.026 672.546,-231.968 682.954,-233.949 681.918,-227.026"/>
</g>
<!-- Node108 -->
<g id="node8" class="node"><title>Node108</title>
<g id="a_node8"><a xlink:href="net_8h.html#ac58be1c374afa04d10810aef1d073315" target="_top" xlink:title="Removes the transaction identified by id from given queue. ">
<polygon fill="white" stroke="black" points="1162,-228.5 1162,-247.5 1290,-247.5 1290,-228.5 1162,-228.5"/>
<text text-anchor="middle" x="1226" y="-235.5" font-family="Helvetica,sans-Serif" font-size="10.00">coap_remove_transaction</text>
</a>
</g>
</g>
<!-- Node105&#45;&gt;Node108 -->
<g id="edge13" class="edge"><title>Node105&#45;&gt;Node108</title>
<path fill="none" stroke="midnightblue" d="M682.966,-238C790.011,-238 1043.03,-238 1161.61,-238"/>
<polygon fill="midnightblue" stroke="midnightblue" points="682.768,-234.5 672.768,-238 682.768,-241.5 682.768,-234.5"/>
</g>
<!-- Node105&#45;&gt;Node110 -->
<g id="edge9" class="edge"><title>Node105&#45;&gt;Node110</title>
<path fill="none" stroke="midnightblue" d="M657.452,-253.019C688.881,-272.727 743.142,-306.752 769.599,-323.343"/>
<polygon fill="midnightblue" stroke="midnightblue" points="659.192,-249.979 648.86,-247.632 655.473,-255.91 659.192,-249.979"/>
</g>
<!-- Node107 -->
<g id="node7" class="node"><title>Node107</title>
<g id="a_node7"><a xlink:href="net_8h.html#a231e9a81ac7c03c3e5c251824a76d7b9" target="_top" xlink:title="Returns 1 if there are no messages to send or to dispatch in the context&#39;s queues. ">
<polygon fill="white" stroke="black" points="1030,-190.5 1030,-209.5 1110,-209.5 1110,-190.5 1030,-190.5"/>
<text text-anchor="middle" x="1070" y="-197.5" font-family="Helvetica,sans-Serif" font-size="10.00">coap_can_exit</text>
</a>
</g>
</g>
<!-- Node106&#45;&gt;Node107 -->
<g id="edge6" class="edge"><title>Node106&#45;&gt;Node107</title>
<path fill="none" stroke="midnightblue" d="M982.246,-200C998.05,-200 1015.12,-200 1029.91,-200"/>
<polygon fill="midnightblue" stroke="midnightblue" points="982.082,-196.5 972.082,-200 982.082,-203.5 982.082,-196.5"/>
</g>
<!-- Node109 -->
<g id="node9" class="node"><title>Node109</title>
<g id="a_node9"><a xlink:href="net_8h.html#a08ba53f8f554cf7a2559813ebde1bb1d" target="_top" xlink:title="Sends an RST message with code 0 for the specified request to dst. ">
<polygon fill="white" stroke="black" points="1030,-285.5 1030,-304.5 1110,-304.5 1110,-285.5 1030,-285.5"/>
<text text-anchor="middle" x="1070" y="-292.5" font-family="Helvetica,sans-Serif" font-size="10.00">coap_send_rst</text>
</a>
</g>
</g>
<!-- Node106&#45;&gt;Node109 -->
<g id="edge8" class="edge"><title>Node106&#45;&gt;Node109</title>
<path fill="none" stroke="midnightblue" d="M952.723,-215.53C981.664,-235.31 1030.8,-268.895 1054.87,-285.343"/>
<polygon fill="midnightblue" stroke="midnightblue" points="954.324,-212.385 944.093,-209.632 950.374,-218.164 954.324,-212.385"/>
</g>
<!-- Node107&#45;&gt;Node108 -->
<g id="edge7" class="edge"><title>Node107&#45;&gt;Node108</title>
<path fill="none" stroke="midnightblue" d="M1119.79,-212.04C1141.31,-217.349 1166.23,-223.499 1186.42,-228.48"/>
<polygon fill="midnightblue" stroke="midnightblue" points="1120.41,-208.587 1109.86,-209.589 1118.73,-215.383 1120.41,-208.587"/>
</g>
<!-- Node110&#45;&gt;Node109 -->
<g id="edge12" class="edge"><title>Node110&#45;&gt;Node109</title>
<path fill="none" stroke="midnightblue" d="M854.54,-339.43C891.379,-341.333 937.582,-341.1 978,-333 1005.03,-327.584 1034.05,-313.95 1051.87,-304.577"/>
<polygon fill="midnightblue" stroke="midnightblue" points="854.597,-335.928 844.411,-338.841 854.191,-342.916 854.597,-335.928"/>
</g>
<!-- Node111 -->
<g id="node11" class="node"><title>Node111</title>
<g id="a_node11"><a xlink:href="net_8h.html#ade17f093221599e839345cf88b74b496" target="_top" xlink:title="Reads data from the network and tries to parse as CoAP PDU. ">
<polygon fill="white" stroke="black" points="898,-304.5 898,-323.5 960,-323.5 960,-304.5 898,-304.5"/>
<text text-anchor="middle" x="929" y="-311.5" font-family="Helvetica,sans-Serif" font-size="10.00">coap_read</text>
</a>
</g>
</g>
<!-- Node110&#45;&gt;Node111 -->
<g id="edge10" class="edge"><title>Node110&#45;&gt;Node111</title>
<path fill="none" stroke="midnightblue" d="M854.303,-323.931C869.538,-321.878 884.972,-319.798 897.752,-318.076"/>
<polygon fill="midnightblue" stroke="midnightblue" points="853.793,-320.468 844.35,-325.272 854.728,-327.405 853.793,-320.468"/>
</g>
<!-- Node111&#45;&gt;Node109 -->
<g id="edge11" class="edge"><title>Node111&#45;&gt;Node109</title>
<path fill="none" stroke="midnightblue" d="M970.193,-308.506C988.98,-305.938 1011.26,-302.892 1029.91,-300.343"/>
<polygon fill="midnightblue" stroke="midnightblue" points="969.595,-305.055 960.161,-309.877 970.543,-311.991 969.595,-305.055"/>
</g>
<!-- Node112&#45;&gt;Node113 -->
<g id="edge15" class="edge"><title>Node112&#45;&gt;Node113</title>
<path fill="none" stroke="midnightblue" d="M702.162,-162C710.829,-162 719.62,-162 728.077,-162"/>
<polygon fill="midnightblue" stroke="midnightblue" points="702.074,-158.5 692.074,-162 702.074,-165.5 702.074,-158.5"/>
</g>
<!-- Node114 -->
<g id="node14" class="node"><title>Node114</title>
<g id="a_node14"><a xlink:href="resource_8h.html#a579bcb559463d3a872831c18d8d9a1c1" target="_top" xlink:title="Checks for all known resources, if they are dirty and notifies subscribed observers. ">
<polygon fill="white" stroke="black" points="880,-152.5 880,-171.5 978,-171.5 978,-152.5 880,-152.5"/>
<text text-anchor="middle" x="929" y="-159.5" font-family="Helvetica,sans-Serif" font-size="10.00">coap_check_notify</text>
</a>
</g>
</g>
<!-- Node113&#45;&gt;Node114 -->
<g id="edge16" class="edge"><title>Node113&#45;&gt;Node114</title>
<path fill="none" stroke="midnightblue" d="M853.722,-162C862.456,-162 871.267,-162 879.618,-162"/>
<polygon fill="midnightblue" stroke="midnightblue" points="853.538,-158.5 843.538,-162 853.538,-165.5 853.538,-158.5"/>
</g>
<!-- Node114&#45;&gt;Node107 -->
<g id="edge17" class="edge"><title>Node114&#45;&gt;Node107</title>
<path fill="none" stroke="midnightblue" d="M974.795,-174.246C993.955,-179.484 1015.99,-185.509 1033.94,-190.414"/>
<polygon fill="midnightblue" stroke="midnightblue" points="975.645,-170.85 965.076,-171.589 973.799,-177.602 975.645,-170.85"/>
</g>
<!-- Node115 -->
<g id="node15" class="node"><title>Node115</title>
<g id="a_node15"><a xlink:href="resource_8h.html#a8f78ecf70cfbe5a69677bf3b97f0b776" target="_top" xlink:title="Registers the specified handler as message handler for the request type method. ">
<polygon fill="white" stroke="black" points="1014,-152.5 1014,-171.5 1126,-171.5 1126,-152.5 1014,-152.5"/>
<text text-anchor="middle" x="1070" y="-159.5" font-family="Helvetica,sans-Serif" font-size="10.00">coap_register_handler</text>
</a>
</g>
</g>
<!-- Node114&#45;&gt;Node115 -->
<g id="edge18" class="edge"><title>Node114&#45;&gt;Node115</title>
<path fill="none" stroke="midnightblue" d="M988.332,-162C996.737,-162 1005.37,-162 1013.71,-162"/>
<polygon fill="midnightblue" stroke="midnightblue" points="988.225,-158.5 978.225,-162 988.225,-165.5 988.225,-158.5"/>
</g>
<!-- Node116&#45;&gt;Node105 -->
<g id="edge20" class="edge"><title>Node116&#45;&gt;Node105</title>
<path fill="none" stroke="midnightblue" d="M521.703,-264.077C544.461,-258.672 570.974,-252.375 592.244,-247.323"/>
<polygon fill="midnightblue" stroke="midnightblue" points="520.795,-260.695 511.875,-266.411 522.413,-267.505 520.795,-260.695"/>
</g>
<!-- Node116&#45;&gt;Node109 -->
<g id="edge22" class="edge"><title>Node116&#45;&gt;Node109</title>
<path fill="none" stroke="midnightblue" d="M547.312,-278.411C675.904,-282.5 932.318,-290.654 1029.99,-293.759"/>
<polygon fill="midnightblue" stroke="midnightblue" points="547.258,-274.907 537.152,-278.088 547.036,-281.904 547.258,-274.907"/>
</g>
<!-- Node116&#45;&gt;Node112 -->
<g id="edge21" class="edge"><title>Node116&#45;&gt;Node112</title>
<path fill="none" stroke="midnightblue" d="M493.072,-260.63C526.535,-236.787 589.996,-191.572 617.833,-171.738"/>
<polygon fill="midnightblue" stroke="midnightblue" points="490.98,-257.823 484.866,-266.477 495.042,-263.524 490.98,-257.823"/>
</g>
<!-- Node117&#45;&gt;Node105 -->
<g id="edge29" class="edge"><title>Node117&#45;&gt;Node105</title>
<path fill="none" stroke="midnightblue" d="M376.779,-238C443.722,-238 539.249,-238 592.254,-238"/>
<polygon fill="midnightblue" stroke="midnightblue" points="376.705,-234.5 366.705,-238 376.705,-241.5 376.705,-234.5"/>
</g>
<!-- Node117&#45;&gt;Node112 -->
<g id="edge30" class="edge"><title>Node117&#45;&gt;Node112</title>
<path fill="none" stroke="midnightblue" d="M353.474,-226.127C418.814,-211.056 530.237,-185.357 590.272,-171.509"/>
<polygon fill="midnightblue" stroke="midnightblue" points="352.355,-222.793 343.398,-228.452 353.929,-229.614 352.355,-222.793"/>
</g>
<!-- Node118 -->
<g id="node18" class="node"><title>Node118</title>
<g id="a_node18"><a xlink:href="net_8h.html#aa6569347c5926252d65dd69f2dcfe521" target="_top" xlink:title="Sends an error response with code code for request request to dst. ">
<polygon fill="white" stroke="black" points="426,-152.5 426,-171.5 515,-171.5 515,-152.5 426,-152.5"/>
<text text-anchor="middle" x="470.5" y="-159.5" font-family="Helvetica,sans-Serif" font-size="10.00">coap_send_error</text>
</a>
</g>
</g>
<!-- Node117&#45;&gt;Node118 -->
<g id="edge25" class="edge"><title>Node117&#45;&gt;Node118</title>
<path fill="none" stroke="midnightblue" d="M328.351,-223.46C348.703,-212.502 377.734,-197.458 404,-186 415.989,-180.77 429.52,-175.682 441.158,-171.546"/>
<polygon fill="midnightblue" stroke="midnightblue" points="326.501,-220.482 319.381,-228.328 329.839,-226.634 326.501,-220.482"/>
</g>
<!-- Node117&#45;&gt;Node119 -->
<g id="edge27" class="edge"><title>Node117&#45;&gt;Node119</title>
<path fill="none" stroke="midnightblue" d="M325.183,-252.966C345.373,-265.503 375.759,-283.194 404,-295 412.63,-298.608 422.171,-301.798 431.24,-304.485"/>
<polygon fill="midnightblue" stroke="midnightblue" points="326.995,-249.971 316.667,-247.608 323.267,-255.896 326.995,-249.971"/>
</g>
<!-- Node118&#45;&gt;Node112 -->
<g id="edge26" class="edge"><title>Node118&#45;&gt;Node112</title>
<path fill="none" stroke="midnightblue" d="M525.501,-162C540.722,-162 557.351,-162 572.83,-162"/>
<polygon fill="midnightblue" stroke="midnightblue" points="525.221,-158.5 515.221,-162 525.221,-165.5 525.221,-158.5"/>
</g>
<!-- Node119&#45;&gt;Node105 -->
<g id="edge28" class="edge"><title>Node119&#45;&gt;Node105</title>
<path fill="none" stroke="midnightblue" d="M520.18,-301.423C525.929,-299.486 531.649,-297.342 537,-295 567.541,-281.634 600.222,-260.105 618.025,-247.684"/>
<polygon fill="midnightblue" stroke="midnightblue" points="519.009,-298.122 510.537,-304.484 521.127,-304.794 519.009,-298.122"/>
</g>
<!-- Node120&#45;&gt;Node108 -->
<g id="edge33" class="edge"><title>Node120&#45;&gt;Node108</title>
<path fill="none" stroke="midnightblue" d="M378.286,-390C445.069,-390 544.713,-390 631.5,-390 631.5,-390 631.5,-390 930,-390 1055.02,-390 1180.06,-280.785 1215.25,-247.508"/>
<polygon fill="midnightblue" stroke="midnightblue" points="378.267,-386.5 368.267,-390 378.267,-393.5 378.267,-386.5"/>
</g>
<!-- Node120&#45;&gt;Node119 -->
<g id="edge32" class="edge"><title>Node120&#45;&gt;Node119</title>
<path fill="none" stroke="midnightblue" d="M332.551,-376.138C366.145,-360.895 419.227,-336.81 448.458,-323.547"/>
<polygon fill="midnightblue" stroke="midnightblue" points="330.874,-373.055 323.214,-380.375 333.767,-379.43 330.874,-373.055"/>
</g>
</g>
</svg>
        <g id="navigator" transform="translate(0 0)" fill="#404254">
                <rect fill="#f2f5e9" fill-opacity="0.5" stroke="#606060" stroke-width=".5" x="0" y="0" width="60" height="60"/>
                <use id="zoomplus" xlink:href="#zoomPlus" x="17" y="9" onmousedown="handleZoom(evt,'in')"/>
                <use id="zoomminus" xlink:href="#zoomMin" x="42" y="9" onmousedown="handleZoom(evt,'out')"/>
                <use id="reset" xlink:href="#resetDef" x="30" y="36" onmousedown="handleReset()"/>
                <g id="arrowUp" xlink:href="#dirArrow" transform="translate(30 24)" onmousedown="handlePan(0,-1)">
                  <use xlink:href="#rim" fill="#404040">
                        <set attributeName="fill" to="#808080" begin="arrowUp.mouseover" end="arrowUp.mouseout"/>
                  </use>
                  <path fill="none" stroke="white" stroke-width="1.5" d="M0,-3.0v7 M-2.5,-0.5L0,-3.0L2.5,-0.5"/>
                </g>
                <g id="arrowRight" xlink:href="#dirArrow" transform="rotate(90) translate(36 -43)" onmousedown="handlePan(1,0)">
                  <use xlink:href="#rim" fill="#404040">
                        <set attributeName="fill" to="#808080" begin="arrowRight.mouseover" end="arrowRight.mouseout"/>
                  </use>
                  <path fill="none" stroke="white" stroke-width="1.5" d="M0,-3.0v7 M-2.5,-0.5L0,-3.0L2.5,-0.5"/>
                </g>
                <g id="arrowDown" xlink:href="#dirArrow" transform="rotate(180) translate(-30 -48)" onmousedown="handlePan(0,1)">
                  <use xlink:href="#rim" fill="#404040">
                        <set attributeName="fill" to="#808080" begin="arrowDown.mouseover" end="arrowDown.mouseout"/>
                  </use>
                  <path fill="none" stroke="white" stroke-width="1.5" d="M0,-3.0v7 M-2.5,-0.5L0,-3.0L2.5,-0.5"/>
                </g>
                <g id="arrowLeft" xlink:href="#dirArrow" transform="rotate(270) translate(-36 17)" onmousedown="handlePan(-1,0)">
                  <use xlink:href="#rim" fill="#404040">
                        <set attributeName="fill" to="#808080" begin="arrowLeft.mouseover" end="arrowLeft.mouseout"/>
                  </use>
                  <path fill="none" stroke="white" stroke-width="1.5" d="M0,-3.0v7 M-2.5,-0.5L0,-3.0L2.5,-0.5"/>
                </g>
        </g>
        <svg viewBox="0 0 15 15" width="100%" height="30px" preserveAspectRatio="xMaxYMin meet">
         <g id="arrow_out" transform="scale(0.3 0.3)">
          <a xlink:href="pdu_8h_a9dbdf354e2da5e80fea4c0d4a8df6d05_icgraph_org.svg" target="_base">
           <rect id="button" ry="5" rx="5" y="6" x="6" height="38" width="38"
                fill="#f2f5e9" fill-opacity="0.5" stroke="#606060" stroke-width="1.0"/>
           <path id="arrow"
             d="M 11.500037,31.436501 C 11.940474,20.09759 22.043105,11.32322 32.158766,21.979434 L 37.068811,17.246167 C 37.068811,17.246167 37.088388,32 37.088388,32 L 22.160133,31.978069 C 22.160133,31.978069 26.997745,27.140456 26.997745,27.140456 C 18.528582,18.264221 13.291696,25.230495 11.500037,31.436501 z"
             style="fill:#404040;"/>
          </a>
         </g>
        </svg>
</svg>
