<?xml version="1.0" encoding="UTF-8" standalone="no"?>
<!DOCTYPE svg PUBLIC "-//W3C//DTD SVG 1.1//EN"
 "http://www.w3.org/Graphics/SVG/1.1/DTD/svg11.dtd">
<!-- Generated by graphviz version 2.38.0 (20140413.2041)
 -->
<!-- Title: coap_get_data Pages: 1 -->
<svg width="577pt" height="47pt"
 viewBox="0.00 0.00 577.00 47.00" xmlns="http://www.w3.org/2000/svg" xmlns:xlink="http://www.w3.org/1999/xlink">
<g id="graph0" class="graph" transform="scale(1 1) rotate(0) translate(4 43)">
<title>coap_get_data</title>
<polygon fill="white" stroke="none" points="-4,4 -4,-43 573,-43 573,4 -4,4"/>
<!-- Node88 -->
<g id="node1" class="node"><title>Node88</title>
<polygon fill="#bfbfbf" stroke="black" points="0,-0.5 0,-19.5 80,-19.5 80,-0.5 0,-0.5"/>
<text text-anchor="middle" x="40" y="-7.5" font-family="Helvetica,sans-Serif" font-size="10.00">coap_get_data</text>
</g>
<!-- Node89 -->
<g id="node2" class="node"><title>Node89</title>
<g id="a_node2"><a xlink:href="debug_8h.html#a88cca636643023b4867f9c3fd8f0c09c" target="_top" xlink:title="coap_show_pdu">
<polygon fill="white" stroke="black" points="116,-0.5 116,-19.5 203,-19.5 203,-0.5 116,-0.5"/>
<text text-anchor="middle" x="159.5" y="-7.5" font-family="Helvetica,sans-Serif" font-size="10.00">coap_show_pdu</text>
</a>
</g>
</g>
<!-- Node88&#45;&gt;Node89 -->
<g id="edge1" class="edge"><title>Node88&#45;&gt;Node89</title>
<path fill="none" stroke="midnightblue" d="M90.317,-10C98.8228,-10 107.599,-10 115.908,-10"/>
<polygon fill="midnightblue" stroke="midnightblue" points="90.1258,-6.5001 80.1258,-10 90.1258,-13.5001 90.1258,-6.5001"/>
</g>
<!-- Node90 -->
<g id="node3" class="node"><title>Node90</title>
<g id="a_node3"><a xlink:href="net_8h.html#a74c5ca78210280817a5586f61abfa5f3" target="_top" xlink:title="Parses and interprets a CoAP message with context ctx. ">
<polygon fill="white" stroke="black" points="239,-0.5 239,-19.5 355,-19.5 355,-0.5 239,-0.5"/>
<text text-anchor="middle" x="297" y="-7.5" font-family="Helvetica,sans-Serif" font-size="10.00">coap_handle_message</text>
</a>
</g>
</g>
<!-- Node89&#45;&gt;Node90 -->
<g id="edge2" class="edge"><title>Node89&#45;&gt;Node90</title>
<path fill="none" stroke="midnightblue" d="M213.066,-10C221.482,-10 230.227,-10 238.746,-10"/>
<polygon fill="midnightblue" stroke="midnightblue" points="213.001,-6.5001 203.001,-10 213.001,-13.5001 213.001,-6.5001"/>
</g>
<!-- Node91 -->
<g id="node4" class="node"><title>Node91</title>
<g id="a_node4"><a xlink:href="net_8h.html#ade17f093221599e839345cf88b74b496" target="_top" xlink:title="Reads data from the network and tries to parse as CoAP PDU. ">
<polygon fill="white" stroke="black" points="391,-19.5 391,-38.5 453,-38.5 453,-19.5 391,-19.5"/>
<text text-anchor="middle" x="422" y="-26.5" font-family="Helvetica,sans-Serif" font-size="10.00">coap_read</text>
</a>
</g>
</g>
<!-- Node90&#45;&gt;Node91 -->
<g id="edge3" class="edge"><title>Node90&#45;&gt;Node91</title>
<path fill="none" stroke="midnightblue" d="M365.277,-20.3924C374.196,-21.77 382.95,-23.1224 390.783,-24.3323"/>
<polygon fill="midnightblue" stroke="midnightblue" points="365.596,-16.9002 355.179,-18.8325 364.527,-23.8182 365.596,-16.9002"/>
</g>
<!-- Node92 -->
<g id="node5" class="node"><title>Node92</title>
<g id="a_node5"><a xlink:href="net_8h.html#a08ba53f8f554cf7a2559813ebde1bb1d" target="_top" xlink:title="Sends an RST message with code 0 for the specified request to dst. ">
<polygon fill="white" stroke="black" points="489,-0.5 489,-19.5 569,-19.5 569,-0.5 489,-0.5"/>
<text text-anchor="middle" x="529" y="-7.5" font-family="Helvetica,sans-Serif" font-size="10.00">coap_send_rst</text>
</a>
</g>
</g>
<!-- Node90&#45;&gt;Node92 -->
<g id="edge5" class="edge"><title>Node90&#45;&gt;Node92</title>
<path fill="none" stroke="midnightblue" d="M365.4,-10C405.533,-10 455.058,-10 488.835,-10"/>
<polygon fill="midnightblue" stroke="midnightblue" points="365.149,-6.5001 355.149,-10 365.149,-13.5001 365.149,-6.5001"/>
</g>
<!-- Node91&#45;&gt;Node92 -->
<g id="edge4" class="edge"><title>Node91&#45;&gt;Node92</title>
<path fill="none" stroke="midnightblue" d="M463.111,-21.7418C471.564,-20.2122 480.472,-18.6003 488.888,-17.0774"/>
<polygon fill="midnightblue" stroke="midnightblue" points="462.306,-18.3306 453.089,-23.5554 463.552,-25.2187 462.306,-18.3306"/>
</g>
</g>
</svg>
