<?xml version="1.0" encoding="UTF-8" standalone="no"?>
<!DOCTYPE svg PUBLIC "-//W3C//DTD SVG 1.1//EN"
 "http://www.w3.org/Graphics/SVG/1.1/DTD/svg11.dtd">
<!-- Generated by graphviz version 2.38.0 (20140413.2041)
 -->
<!-- Title: resource.h Pages: 1 -->
<svg width="254pt" height="140pt"
 viewBox="0.00 0.00 253.50 140.00" xmlns="http://www.w3.org/2000/svg" xmlns:xlink="http://www.w3.org/1999/xlink">
<g id="graph0" class="graph" transform="scale(1 1) rotate(0) translate(4 136)">
<title>resource.h</title>
<polygon fill="white" stroke="none" points="-4,4 -4,-136 249.5,-136 249.5,4 -4,4"/>
<!-- Node26 -->
<g id="node1" class="node"><title>Node26</title>
<polygon fill="#bfbfbf" stroke="black" points="35,-112.5 35,-131.5 97,-131.5 97,-112.5 35,-112.5"/>
<text text-anchor="middle" x="66" y="-119.5" font-family="Helvetica,sans-Serif" font-size="10.00">resource.h</text>
</g>
<!-- Node27 -->
<g id="node2" class="node"><title>Node27</title>
<g id="a_node2"><a xlink:href="net_8c.html" target="_top" xlink:title="net.c">
<polygon fill="white" stroke="black" points="0,-56.5 0,-75.5 38,-75.5 38,-56.5 0,-56.5"/>
<text text-anchor="middle" x="19" y="-63.5" font-family="Helvetica,sans-Serif" font-size="10.00">net.c</text>
</a>
</g>
</g>
<!-- Node26&#45;&gt;Node27 -->
<g id="edge1" class="edge"><title>Node26&#45;&gt;Node27</title>
<path fill="none" stroke="midnightblue" d="M51.5792,-104.431C43.3419,-94.9673 33.3461,-83.4827 26.6167,-75.7511"/>
<polygon fill="midnightblue" stroke="midnightblue" points="49.0336,-106.838 58.2389,-112.083 54.3137,-102.242 49.0336,-106.838"/>
</g>
<!-- Node28 -->
<g id="node3" class="node"><title>Node28</title>
<g id="a_node3"><a xlink:href="resource_8c.html" target="_top" xlink:title="resource.c">
<polygon fill="white" stroke="black" points="29,-0.5 29,-19.5 91,-19.5 91,-0.5 29,-0.5"/>
<text text-anchor="middle" x="60" y="-7.5" font-family="Helvetica,sans-Serif" font-size="10.00">resource.c</text>
</a>
</g>
</g>
<!-- Node26&#45;&gt;Node28 -->
<g id="edge2" class="edge"><title>Node26&#45;&gt;Node28</title>
<path fill="none" stroke="midnightblue" d="M64.9826,-102.348C63.6684,-78.2538 61.435,-37.3079 60.4686,-19.5914"/>
<polygon fill="midnightblue" stroke="midnightblue" points="61.4896,-102.574 65.5292,-112.368 68.4793,-102.193 61.4896,-102.574"/>
</g>
<!-- Node29 -->
<g id="node4" class="node"><title>Node29</title>
<g id="a_node4"><a xlink:href="coap_8h.html" target="_top" xlink:title="coap.h">
<polygon fill="white" stroke="black" points="106,-56.5 106,-75.5 152,-75.5 152,-56.5 106,-56.5"/>
<text text-anchor="middle" x="129" y="-63.5" font-family="Helvetica,sans-Serif" font-size="10.00">coap.h</text>
</a>
</g>
</g>
<!-- Node26&#45;&gt;Node29 -->
<g id="edge3" class="edge"><title>Node26&#45;&gt;Node29</title>
<path fill="none" stroke="midnightblue" d="M84.0399,-105.537C95.2731,-95.9087 109.319,-83.8694 118.694,-75.8339"/>
<polygon fill="midnightblue" stroke="midnightblue" points="81.4368,-103.159 76.122,-112.324 85.9924,-108.473 81.4368,-103.159"/>
</g>
<!-- Node29&#45;&gt;Node28 -->
<g id="edge5" class="edge"><title>Node29&#45;&gt;Node28</title>
<path fill="none" stroke="midnightblue" d="M109.962,-50.1008C97.5442,-40.3824 81.7566,-28.0269 71.2878,-19.8339"/>
<polygon fill="midnightblue" stroke="midnightblue" points="107.882,-52.9171 117.914,-56.324 112.196,-47.4046 107.882,-52.9171"/>
</g>
<!-- Node30 -->
<g id="node5" class="node"><title>Node30</title>
<g id="a_node5"><a xlink:href="async_8c.html" target="_top" xlink:title="state management for asynchronous messages ">
<polygon fill="white" stroke="black" points="109.5,-0.5 109.5,-19.5 160.5,-19.5 160.5,-0.5 109.5,-0.5"/>
<text text-anchor="middle" x="135" y="-7.5" font-family="Helvetica,sans-Serif" font-size="10.00">async.c</text>
</a>
</g>
</g>
<!-- Node29&#45;&gt;Node30 -->
<g id="edge4" class="edge"><title>Node29&#45;&gt;Node30</title>
<path fill="none" stroke="midnightblue" d="M131.1,-46.1005C132.096,-37.1357 133.238,-26.8579 134.028,-19.7511"/>
<polygon fill="midnightblue" stroke="midnightblue" points="127.617,-45.7576 129.991,-56.083 134.574,-46.5307 127.617,-45.7576"/>
</g>
<!-- Node31 -->
<g id="node6" class="node"><title>Node31</title>
<g id="a_node6"><a xlink:href="subscribe_8c.html" target="_top" xlink:title="subscribe.c">
<polygon fill="white" stroke="black" points="178.5,-0.5 178.5,-19.5 245.5,-19.5 245.5,-0.5 178.5,-0.5"/>
<text text-anchor="middle" x="212" y="-7.5" font-family="Helvetica,sans-Serif" font-size="10.00">subscribe.c</text>
</a>
</g>
</g>
<!-- Node29&#45;&gt;Node31 -->
<g id="edge6" class="edge"><title>Node29&#45;&gt;Node31</title>
<path fill="none" stroke="midnightblue" d="M151.099,-50.6221C166.262,-40.7574 185.883,-27.9919 198.698,-19.6545"/>
<polygon fill="midnightblue" stroke="midnightblue" points="148.809,-47.9367 142.335,-56.324 152.626,-53.8042 148.809,-47.9367"/>
</g>
</g>
</svg>
