<?xml version="1.0" encoding="UTF-8" standalone="no"?>
<!DOCTYPE svg PUBLIC "-//W3C//DTD SVG 1.1//EN"
 "http://www.w3.org/Graphics/SVG/1.1/DTD/svg11.dtd">
<!-- Generated by graphviz version 2.38.0 (20140413.2041)
 -->
<!-- Title: coap_delete_resource Pages: 1 -->
<!--zoomable 142 -->
<svg id="main" version="1.1" xmlns="http://www.w3.org/2000/svg" xmlns:xlink="http://www.w3.org/1999/xlink" xml:space="preserve" onload="init(evt)">
<style type="text/css"><![CDATA[
.edge:hover path { stroke: red; }
.edge:hover polygon { stroke: red; fill: red; }
]]></style>
<script type="text/javascript"><![CDATA[
var edges = document.getElementsByTagName('g');
if (edges && edges.length) {
  for (var i=0;i<edges.length;i++) {
    if (edges[i].id.substr(0,4)=='edge') {
      edges[i].setAttribute('class','edge');
    }
  }
}
]]></script>
        <defs>
                <circle id="rim" cx="0" cy="0" r="7"/>
                <circle id="rim2" cx="0" cy="0" r="3.5"/>
                <g id="zoomPlus">
                        <use xlink:href="#rim" fill="#404040">
                                <set attributeName="fill" to="#808080" begin="zoomplus.mouseover" end="zoomplus.mouseout"/>
                        </use>
                        <path d="M-4,0h8M0,-4v8" fill="none" stroke="white" stroke-width="1.5" pointer-events="none"/>
                </g>
                <g id="zoomMin">
                        <use xlink:href="#rim" fill="#404040">
                                <set attributeName="fill" to="#808080" begin="zoomminus.mouseover" end="zoomminus.mouseout"/>
                        </use>
                        <path d="M-4,0h8" fill="none" stroke="white" stroke-width="1.5" pointer-events="none"/>
                </g>
                <g id="dirArrow">
                        <path fill="none" stroke="white" stroke-width="1.5" d="M0,-3.0v7 M-2.5,-0.5L0,-3.0L2.5,-0.5"/>
                </g>
               <g id="resetDef">
                       <use xlink:href="#rim2" fill="#404040">
                               <set attributeName="fill" to="#808080" begin="reset.mouseover" end="reset.mouseout"/>
                       </use>
               </g>
        </defs>

<script type="text/javascript">
var viewWidth = 784;
var viewHeight = 142;
var sectionId = 'dynsection-15';
</script>
<script xlink:href="svgpan.js"/>
<svg id="graph" class="graph">
<g id="viewport">
<title>coap_delete_resource</title>
<polygon fill="white" stroke="none" points="-4,4 -4,-138 780,-138 780,4 -4,4"/>
<!-- Node130 -->
<g id="node1" class="node"><title>Node130</title>
<polygon fill="#bfbfbf" stroke="black" points="0,-95.5 0,-114.5 112,-114.5 112,-95.5 0,-95.5"/>
<text text-anchor="middle" x="56" y="-102.5" font-family="Helvetica,sans-Serif" font-size="10.00">coap_delete_resource</text>
</g>
<!-- Node131 -->
<g id="node2" class="node"><title>Node131</title>
<g id="a_node2"><a xlink:href="resource_8c.html#a0404016926e5d93a5124adf32533bf4b" target="_top" xlink:title="Returns the resource identified by the unique string key. ">
<polygon fill="white" stroke="black" points="148,-114.5 148,-133.5 293,-133.5 293,-114.5 148,-114.5"/>
<text text-anchor="middle" x="220.5" y="-121.5" font-family="Helvetica,sans-Serif" font-size="10.00">coap_get_resource_from_key</text>
</a>
</g>
</g>
<!-- Node130&#45;&gt;Node131 -->
<g id="edge1" class="edge"><title>Node130&#45;&gt;Node131</title>
<path fill="none" stroke="midnightblue" d="M112.015,-111.433C120.287,-112.4 128.966,-113.415 137.654,-114.43"/>
<polygon fill="midnightblue" stroke="midnightblue" points="137.495,-117.935 147.833,-115.621 138.308,-110.983 137.495,-117.935"/>
</g>
<!-- Node132 -->
<g id="node3" class="node"><title>Node132</title>
<g id="a_node3"><a xlink:href="resource_8c.html#a1307a6b8dadd6d005352ce02f6cf392f" target="_top" xlink:title="coap_free_resource">
<polygon fill="white" stroke="black" points="169.5,-76.5 169.5,-95.5 271.5,-95.5 271.5,-76.5 169.5,-76.5"/>
<text text-anchor="middle" x="220.5" y="-83.5" font-family="Helvetica,sans-Serif" font-size="10.00">coap_free_resource</text>
</a>
</g>
</g>
<!-- Node130&#45;&gt;Node132 -->
<g id="edge2" class="edge"><title>Node130&#45;&gt;Node132</title>
<path fill="none" stroke="midnightblue" d="M112.015,-98.5675C127.272,-96.7836 143.912,-94.838 159.441,-93.0222"/>
<polygon fill="midnightblue" stroke="midnightblue" points="159.934,-96.4885 169.46,-91.8508 159.121,-89.5359 159.934,-96.4885"/>
</g>
<!-- Node133 -->
<g id="node4" class="node"><title>Node133</title>
<g id="a_node4"><a xlink:href="resource_8c.html#a37883d9c8bafdd59fd1bd57dcb82e908" target="_top" xlink:title="Deletes an attribute. ">
<polygon fill="white" stroke="black" points="329,-76.5 329,-95.5 418,-95.5 418,-76.5 329,-76.5"/>
<text text-anchor="middle" x="373.5" y="-83.5" font-family="Helvetica,sans-Serif" font-size="10.00">coap_delete_attr</text>
</a>
</g>
</g>
<!-- Node132&#45;&gt;Node133 -->
<g id="edge3" class="edge"><title>Node132&#45;&gt;Node133</title>
<path fill="none" stroke="midnightblue" d="M271.781,-86C286.698,-86 303.099,-86 318.256,-86"/>
<polygon fill="midnightblue" stroke="midnightblue" points="318.517,-89.5001 328.517,-86 318.517,-82.5001 318.517,-89.5001"/>
</g>
<!-- Node134 -->
<g id="node5" class="node"><title>Node134</title>
<g id="a_node5"><a xlink:href="mem_8h.html#ac01dd5f787fced5a3f9160b4584e81c7" target="_top" xlink:title="Wrapper function to coap_free_type() for backwards compatibility. ">
<polygon fill="white" stroke="black" points="454,-38.5 454,-57.5 513,-57.5 513,-38.5 454,-38.5"/>
<text text-anchor="middle" x="483.5" y="-45.5" font-family="Helvetica,sans-Serif" font-size="10.00">coap_free</text>
</a>
</g>
</g>
<!-- Node132&#45;&gt;Node134 -->
<g id="edge10" class="edge"><title>Node132&#45;&gt;Node134</title>
<path fill="none" stroke="midnightblue" d="M271.726,-76.5677C289.755,-73.3291 310.258,-69.8143 329,-67 368.008,-61.1427 412.79,-55.7514 443.877,-52.22"/>
<polygon fill="midnightblue" stroke="midnightblue" points="444.32,-55.6923 453.866,-51.0957 443.537,-48.7362 444.32,-55.6923"/>
</g>
<!-- Node135 -->
<g id="node6" class="node"><title>Node135</title>
<g id="a_node6"><a xlink:href="mem_8h.html#ae7214e0c73a4d4290525873e739ed422" target="_top" xlink:title="Releases the memory that was allocated by coap_malloc_type(). ">
<polygon fill="white" stroke="black" points="555.5,-76.5 555.5,-95.5 638.5,-95.5 638.5,-76.5 555.5,-76.5"/>
<text text-anchor="middle" x="597" y="-83.5" font-family="Helvetica,sans-Serif" font-size="10.00">coap_free_type</text>
</a>
</g>
</g>
<!-- Node132&#45;&gt;Node135 -->
<g id="edge11" class="edge"><title>Node132&#45;&gt;Node135</title>
<path fill="none" stroke="midnightblue" d="M265.204,-95.5118C284.635,-99.2772 307.854,-103.146 329,-105 410.495,-112.147 431.685,-108.968 513,-100 523.457,-98.8467 534.597,-97.2349 545.208,-95.5137"/>
<polygon fill="midnightblue" stroke="midnightblue" points="545.897,-98.9471 555.18,-93.8413 544.739,-92.0435 545.897,-98.9471"/>
</g>
<!-- Node133&#45;&gt;Node134 -->
<g id="edge4" class="edge"><title>Node133&#45;&gt;Node134</title>
<path fill="none" stroke="midnightblue" d="M401.753,-76.411C415.055,-71.7306 431.254,-66.0308 445.642,-60.9685"/>
<polygon fill="midnightblue" stroke="midnightblue" points="446.984,-64.2067 455.256,-57.5859 444.661,-57.6035 446.984,-64.2067"/>
</g>
<!-- Node133&#45;&gt;Node135 -->
<g id="edge9" class="edge"><title>Node133&#45;&gt;Node135</title>
<path fill="none" stroke="midnightblue" d="M418.261,-86C454.678,-86 506.574,-86 544.893,-86"/>
<polygon fill="midnightblue" stroke="midnightblue" points="545.317,-89.5001 555.317,-86 545.317,-82.5001 545.317,-89.5001"/>
</g>
<!-- Node134&#45;&gt;Node135 -->
<g id="edge5" class="edge"><title>Node134&#45;&gt;Node135</title>
<path fill="none" stroke="midnightblue" d="M512.636,-57.589C526.502,-62.3144 543.416,-68.0789 558.376,-73.1774"/>
<polygon fill="midnightblue" stroke="midnightblue" points="557.278,-76.501 567.873,-76.4141 559.537,-69.8752 557.278,-76.501"/>
</g>
<!-- Node136 -->
<g id="node7" class="node"><title>Node136</title>
<g id="a_node7"><a xlink:href="mem_8h.html#a65d0fc0fe6cad555b56e92ccb57613ba" target="_top" xlink:title="Initializes libcoap&#39;s memory management. ">
<polygon fill="white" stroke="black" points="549,-38.5 549,-57.5 645,-57.5 645,-38.5 549,-38.5"/>
<text text-anchor="middle" x="597" y="-45.5" font-family="Helvetica,sans-Serif" font-size="10.00">coap_memory_init</text>
</a>
</g>
</g>
<!-- Node134&#45;&gt;Node136 -->
<g id="edge6" class="edge"><title>Node134&#45;&gt;Node136</title>
<path fill="none" stroke="midnightblue" d="M513.214,-48C521.005,-48 529.726,-48 538.505,-48"/>
<polygon fill="midnightblue" stroke="midnightblue" points="538.785,-51.5001 548.785,-48 538.785,-44.5001 538.785,-51.5001"/>
</g>
<!-- Node137 -->
<g id="node8" class="node"><title>Node137</title>
<g id="a_node8"><a xlink:href="mem_8h.html#a09b861aa54503f57f2a9412d546cd3c8" target="_top" xlink:title="Wrapper function to coap_malloc_type() for backwards compatibility. ">
<polygon fill="white" stroke="black" points="561.5,-0.5 561.5,-19.5 632.5,-19.5 632.5,-0.5 561.5,-0.5"/>
<text text-anchor="middle" x="597" y="-7.5" font-family="Helvetica,sans-Serif" font-size="10.00">coap_malloc</text>
</a>
</g>
</g>
<!-- Node134&#45;&gt;Node137 -->
<g id="edge7" class="edge"><title>Node134&#45;&gt;Node137</title>
<path fill="none" stroke="midnightblue" d="M512.636,-38.411C526.502,-33.6856 543.416,-27.9211 558.376,-22.8226"/>
<polygon fill="midnightblue" stroke="midnightblue" points="559.537,-26.1248 567.873,-19.5859 557.278,-19.499 559.537,-26.1248"/>
</g>
<!-- Node138 -->
<g id="node9" class="node"><title>Node138</title>
<g id="a_node9"><a xlink:href="mem_8h.html#a0204710ce56cbaa4f062b7f2622857f5" target="_top" xlink:title="Allocates a chunk of size bytes and returns a pointer to the newly allocated memory. ">
<polygon fill="white" stroke="black" points="681,-0.5 681,-19.5 776,-19.5 776,-0.5 681,-0.5"/>
<text text-anchor="middle" x="728.5" y="-7.5" font-family="Helvetica,sans-Serif" font-size="10.00">coap_malloc_type</text>
</a>
</g>
</g>
<!-- Node137&#45;&gt;Node138 -->
<g id="edge8" class="edge"><title>Node137&#45;&gt;Node138</title>
<path fill="none" stroke="midnightblue" d="M632.704,-10C644.291,-10 657.527,-10 670.359,-10"/>
<polygon fill="midnightblue" stroke="midnightblue" points="670.524,-13.5001 680.524,-10 670.524,-6.5001 670.524,-13.5001"/>
</g>
</g>
</svg>
        <g id="navigator" transform="translate(0 0)" fill="#404254">
                <rect fill="#f2f5e9" fill-opacity="0.5" stroke="#606060" stroke-width=".5" x="0" y="0" width="60" height="60"/>
                <use id="zoomplus" xlink:href="#zoomPlus" x="17" y="9" onmousedown="handleZoom(evt,'in')"/>
                <use id="zoomminus" xlink:href="#zoomMin" x="42" y="9" onmousedown="handleZoom(evt,'out')"/>
                <use id="reset" xlink:href="#resetDef" x="30" y="36" onmousedown="handleReset()"/>
                <g id="arrowUp" xlink:href="#dirArrow" transform="translate(30 24)" onmousedown="handlePan(0,-1)">
                  <use xlink:href="#rim" fill="#404040">
                        <set attributeName="fill" to="#808080" begin="arrowUp.mouseover" end="arrowUp.mouseout"/>
                  </use>
                  <path fill="none" stroke="white" stroke-width="1.5" d="M0,-3.0v7 M-2.5,-0.5L0,-3.0L2.5,-0.5"/>
                </g>
                <g id="arrowRight" xlink:href="#dirArrow" transform="rotate(90) translate(36 -43)" onmousedown="handlePan(1,0)">
                  <use xlink:href="#rim" fill="#404040">
                        <set attributeName="fill" to="#808080" begin="arrowRight.mouseover" end="arrowRight.mouseout"/>
                  </use>
                  <path fill="none" stroke="white" stroke-width="1.5" d="M0,-3.0v7 M-2.5,-0.5L0,-3.0L2.5,-0.5"/>
                </g>
                <g id="arrowDown" xlink:href="#dirArrow" transform="rotate(180) translate(-30 -48)" onmousedown="handlePan(0,1)">
                  <use xlink:href="#rim" fill="#404040">
                        <set attributeName="fill" to="#808080" begin="arrowDown.mouseover" end="arrowDown.mouseout"/>
                  </use>
                  <path fill="none" stroke="white" stroke-width="1.5" d="M0,-3.0v7 M-2.5,-0.5L0,-3.0L2.5,-0.5"/>
                </g>
                <g id="arrowLeft" xlink:href="#dirArrow" transform="rotate(270) translate(-36 17)" onmousedown="handlePan(-1,0)">
                  <use xlink:href="#rim" fill="#404040">
                        <set attributeName="fill" to="#808080" begin="arrowLeft.mouseover" end="arrowLeft.mouseout"/>
                  </use>
                  <path fill="none" stroke="white" stroke-width="1.5" d="M0,-3.0v7 M-2.5,-0.5L0,-3.0L2.5,-0.5"/>
                </g>
        </g>
        <svg viewBox="0 0 15 15" width="100%" height="30px" preserveAspectRatio="xMaxYMin meet">
         <g id="arrow_out" transform="scale(0.3 0.3)">
          <a xlink:href="resource_8h_a2fb1d46ece1dd907128cb407adcf5257_cgraph_org.svg" target="_base">
           <rect id="button" ry="5" rx="5" y="6" x="6" height="38" width="38"
                fill="#f2f5e9" fill-opacity="0.5" stroke="#606060" stroke-width="1.0"/>
           <path id="arrow"
             d="M 11.500037,31.436501 C 11.940474,20.09759 22.043105,11.32322 32.158766,21.979434 L 37.068811,17.246167 C 37.068811,17.246167 37.088388,32 37.088388,32 L 22.160133,31.978069 C 22.160133,31.978069 26.997745,27.140456 26.997745,27.140456 C 18.528582,18.264221 13.291696,25.230495 11.500037,31.436501 z"
             style="fill:#404040;"/>
          </a>
         </g>
        </svg>
</svg>
