<?xml version="1.0" encoding="UTF-8" standalone="no"?>
<!DOCTYPE svg PUBLIC "-//W3C//DTD SVG 1.1//EN"
 "http://www.w3.org/Graphics/SVG/1.1/DTD/svg11.dtd">
<!-- Generated by graphviz version 2.38.0 (20140413.2041)
 -->
<!-- Title: match Pages: 1 -->
<svg width="1145pt" height="182pt"
 viewBox="0.00 0.00 1145.00 181.63" xmlns="http://www.w3.org/2000/svg" xmlns:xlink="http://www.w3.org/1999/xlink">
<g id="graph0" class="graph" transform="scale(1 1) rotate(0) translate(4 177.63)">
<title>match</title>
<polygon fill="white" stroke="none" points="-4,4 -4,-177.63 1141,-177.63 1141,4 -4,4"/>
<!-- Node381 -->
<g id="node1" class="node"><title>Node381</title>
<polygon fill="#bfbfbf" stroke="black" points="0,-9.5 0,-28.5 44,-28.5 44,-9.5 0,-9.5"/>
<text text-anchor="middle" x="22" y="-16.5" font-family="Helvetica,sans-Serif" font-size="10.00">match</text>
</g>
<!-- Node382 -->
<g id="node2" class="node"><title>Node382</title>
<g id="a_node2"><a xlink:href="resource_8h.html#a0b2cba9f6c0af2c91707072ffc3a2237" target="_top" xlink:title="Prints the names of all known resources to buf. ">
<polygon fill="white" stroke="black" points="80,-9.5 80,-28.5 193,-28.5 193,-9.5 80,-9.5"/>
<text text-anchor="middle" x="136.5" y="-16.5" font-family="Helvetica,sans-Serif" font-size="10.00">coap_print_wellknown</text>
</a>
</g>
</g>
<!-- Node381&#45;&gt;Node382 -->
<g id="edge1" class="edge"><title>Node381&#45;&gt;Node382</title>
<path fill="none" stroke="midnightblue" d="M54.3772,-12.8745C62.3025,-12.4495 71.0527,-12.2414 79.7856,-12.2503"/>
<polygon fill="midnightblue" stroke="midnightblue" points="53.892,-9.39978 44.1604,-13.5885 54.3801,-16.3827 53.892,-9.39978"/>
</g>
<!-- Node382&#45;&gt;Node381 -->
<g id="edge17" class="edge"><title>Node382&#45;&gt;Node381</title>
<path fill="none" stroke="midnightblue" d="M69.7042,-25.6629C60.4959,-25.4933 51.6392,-25.0761 44.1604,-24.4115"/>
<polygon fill="midnightblue" stroke="midnightblue" points="69.7558,-29.1633 79.7856,-25.7497 69.8161,-22.1636 69.7558,-29.1633"/>
</g>
<!-- Node383 -->
<g id="node3" class="node"><title>Node383</title>
<g id="a_node3"><a xlink:href="net_8c.html#a54e7ebd1ffa580a9867d589de4380433" target="_top" xlink:title="Quick hack to determine the size of the resource description for .well&#45;known/core. ">
<polygon fill="white" stroke="black" points="229,-28.5 229,-47.5 300,-47.5 300,-28.5 229,-28.5"/>
<text text-anchor="middle" x="264.5" y="-35.5" font-family="Helvetica,sans-Serif" font-size="10.00">get_wkc_len</text>
</a>
</g>
</g>
<!-- Node382&#45;&gt;Node383 -->
<g id="edge2" class="edge"><title>Node382&#45;&gt;Node383</title>
<path fill="none" stroke="midnightblue" d="M203.128,-28.8963C211.989,-30.2324 220.78,-31.5581 228.799,-32.7673"/>
<polygon fill="midnightblue" stroke="midnightblue" points="203.542,-25.4193 193.132,-27.389 202.499,-32.341 203.542,-25.4193"/>
</g>
<!-- Node384 -->
<g id="node4" class="node"><title>Node384</title>
<g id="a_node4"><a xlink:href="net_8h.html#a4bf688cc4467cb91b6ace43e735ffafa" target="_top" xlink:title="Creates a new response for given request with the contents of .well&#45;known/core. ">
<polygon fill="white" stroke="black" points="336,-9.5 336,-28.5 470,-28.5 470,-9.5 336,-9.5"/>
<text text-anchor="middle" x="403" y="-16.5" font-family="Helvetica,sans-Serif" font-size="10.00">coap_wellknown_response</text>
</a>
</g>
</g>
<!-- Node382&#45;&gt;Node384 -->
<g id="edge16" class="edge"><title>Node382&#45;&gt;Node384</title>
<path fill="none" stroke="midnightblue" d="M203.271,-19C243.604,-19 295.086,-19 335.545,-19"/>
<polygon fill="midnightblue" stroke="midnightblue" points="203.27,-15.5001 193.27,-19 203.27,-22.5001 203.27,-15.5001"/>
</g>
<!-- Node383&#45;&gt;Node384 -->
<g id="edge3" class="edge"><title>Node383&#45;&gt;Node384</title>
<path fill="none" stroke="midnightblue" d="M310.364,-31.7552C318.56,-30.6144 327.268,-29.4023 335.929,-28.1967"/>
<polygon fill="midnightblue" stroke="midnightblue" points="309.72,-28.311 300.298,-33.1563 310.685,-35.2442 309.72,-28.311"/>
</g>
<!-- Node385 -->
<g id="node5" class="node"><title>Node385</title>
<g id="a_node5"><a xlink:href="net_8c.html#a13ff6a2308c8e167a66218e43b819df2" target="_top" xlink:title="handle_request">
<polygon fill="white" stroke="black" points="506,-47.5 506,-66.5 589,-66.5 589,-47.5 506,-47.5"/>
<text text-anchor="middle" x="547.5" y="-54.5" font-family="Helvetica,sans-Serif" font-size="10.00">handle_request</text>
</a>
</g>
</g>
<!-- Node384&#45;&gt;Node385 -->
<g id="edge4" class="edge"><title>Node384&#45;&gt;Node385</title>
<path fill="none" stroke="midnightblue" d="M449.653,-31.1742C469.358,-36.4287 492.075,-42.4866 510.553,-47.4141"/>
<polygon fill="midnightblue" stroke="midnightblue" points="450.523,-27.7839 439.959,-28.589 448.719,-34.5475 450.523,-27.7839"/>
</g>
<!-- Node389 -->
<g id="node9" class="node"><title>Node389</title>
<g id="a_node9"><a xlink:href="net_8h.html#ac58be1c374afa04d10810aef1d073315" target="_top" xlink:title="Removes the transaction identified by id from given queue. ">
<polygon fill="white" stroke="black" points="1009,-28.5 1009,-47.5 1137,-47.5 1137,-28.5 1009,-28.5"/>
<text text-anchor="middle" x="1073" y="-35.5" font-family="Helvetica,sans-Serif" font-size="10.00">coap_remove_transaction</text>
</a>
</g>
</g>
<!-- Node384&#45;&gt;Node389 -->
<g id="edge15" class="edge"><title>Node384&#45;&gt;Node389</title>
<path fill="none" stroke="midnightblue" d="M480.259,-10.4865C532.021,-5.43153 602.051,-3.33067e-15 664,-0 664,-0 664,-0 800,-0 882.011,-0 976.605,-17.1538 1029.85,-28.411"/>
<polygon fill="midnightblue" stroke="midnightblue" points="479.763,-7.01844 470.158,-11.4907 480.456,-13.9841 479.763,-7.01844"/>
</g>
<!-- Node386 -->
<g id="node6" class="node"><title>Node386</title>
<g id="a_node6"><a xlink:href="net_8h.html#ab458d1c3b0f5d695dfa86b805ae8463d" target="_top" xlink:title="Dispatches the PDUs from the receive queue in given context. ">
<polygon fill="white" stroke="black" points="625,-47.5 625,-66.5 705,-66.5 705,-47.5 625,-47.5"/>
<text text-anchor="middle" x="665" y="-54.5" font-family="Helvetica,sans-Serif" font-size="10.00">coap_dispatch</text>
</a>
</g>
</g>
<!-- Node385&#45;&gt;Node386 -->
<g id="edge5" class="edge"><title>Node385&#45;&gt;Node386</title>
<path fill="none" stroke="midnightblue" d="M599.446,-57C607.952,-57 616.657,-57 624.81,-57"/>
<polygon fill="midnightblue" stroke="midnightblue" points="599.221,-53.5001 589.221,-57 599.221,-60.5001 599.221,-53.5001"/>
</g>
<!-- Node387 -->
<g id="node7" class="node"><title>Node387</title>
<g id="a_node7"><a xlink:href="net_8h.html#a9900c032b74bd57f67d489484a2b3207" target="_top" xlink:title="Handles retransmissions of confirmable messages. ">
<polygon fill="white" stroke="black" points="756,-66.5 756,-85.5 842,-85.5 842,-66.5 756,-66.5"/>
<text text-anchor="middle" x="799" y="-73.5" font-family="Helvetica,sans-Serif" font-size="10.00">coap_retransmit</text>
</a>
</g>
</g>
<!-- Node386&#45;&gt;Node387 -->
<g id="edge6" class="edge"><title>Node386&#45;&gt;Node387</title>
<path fill="none" stroke="midnightblue" d="M715.243,-64.088C728.618,-66.0132 742.976,-68.0799 755.915,-69.9424"/>
<polygon fill="midnightblue" stroke="midnightblue" points="715.644,-60.6097 705.247,-62.6492 714.646,-67.5383 715.644,-60.6097"/>
</g>
<!-- Node386&#45;&gt;Node389 -->
<g id="edge14" class="edge"><title>Node386&#45;&gt;Node389</title>
<path fill="none" stroke="midnightblue" d="M715.703,-54.674C789.512,-51.2199 928.053,-44.7364 1008.92,-40.9522"/>
<polygon fill="midnightblue" stroke="midnightblue" points="715.123,-51.1972 705.298,-55.1609 715.451,-58.1895 715.123,-51.1972"/>
</g>
<!-- Node391 -->
<g id="node11" class="node"><title>Node391</title>
<g id="a_node11"><a xlink:href="net_8h.html#a74c5ca78210280817a5586f61abfa5f3" target="_top" xlink:title="Parses and interprets a CoAP message with context ctx. ">
<polygon fill="white" stroke="black" points="741,-142.5 741,-161.5 857,-161.5 857,-142.5 741,-142.5"/>
<text text-anchor="middle" x="799" y="-149.5" font-family="Helvetica,sans-Serif" font-size="10.00">coap_handle_message</text>
</a>
</g>
</g>
<!-- Node386&#45;&gt;Node391 -->
<g id="edge10" class="edge"><title>Node386&#45;&gt;Node391</title>
<path fill="none" stroke="midnightblue" d="M687.852,-72.7269C715.396,-92.55 761.885,-126.008 784.642,-142.386"/>
<polygon fill="midnightblue" stroke="midnightblue" points="689.79,-69.8095 679.629,-66.8089 685.701,-75.4911 689.79,-69.8095"/>
</g>
<!-- Node388 -->
<g id="node8" class="node"><title>Node388</title>
<g id="a_node8"><a xlink:href="net_8h.html#a231e9a81ac7c03c3e5c251824a76d7b9" target="_top" xlink:title="Returns 1 if there are no messages to send or to dispatch in the context&#39;s queues. ">
<polygon fill="white" stroke="black" points="893,-66.5 893,-85.5 973,-85.5 973,-66.5 893,-66.5"/>
<text text-anchor="middle" x="933" y="-73.5" font-family="Helvetica,sans-Serif" font-size="10.00">coap_can_exit</text>
</a>
</g>
</g>
<!-- Node387&#45;&gt;Node388 -->
<g id="edge7" class="edge"><title>Node387&#45;&gt;Node388</title>
<path fill="none" stroke="midnightblue" d="M852.297,-76C865.853,-76 880.216,-76 892.959,-76"/>
<polygon fill="midnightblue" stroke="midnightblue" points="852.129,-72.5001 842.129,-76 852.129,-79.5001 852.129,-72.5001"/>
</g>
<!-- Node390 -->
<g id="node10" class="node"><title>Node390</title>
<g id="a_node10"><a xlink:href="net_8h.html#a08ba53f8f554cf7a2559813ebde1bb1d" target="_top" xlink:title="Sends an RST message with code 0 for the specified request to dst. ">
<polygon fill="white" stroke="black" points="1033,-142.5 1033,-161.5 1113,-161.5 1113,-142.5 1033,-142.5"/>
<text text-anchor="middle" x="1073" y="-149.5" font-family="Helvetica,sans-Serif" font-size="10.00">coap_send_rst</text>
</a>
</g>
</g>
<!-- Node387&#45;&gt;Node390 -->
<g id="edge9" class="edge"><title>Node387&#45;&gt;Node390</title>
<path fill="none" stroke="midnightblue" d="M843.817,-88.243C897.847,-103.34 988.549,-128.683 1037.75,-142.431"/>
<polygon fill="midnightblue" stroke="midnightblue" points="844.747,-84.8687 834.174,-85.5485 842.863,-91.6105 844.747,-84.8687"/>
</g>
<!-- Node388&#45;&gt;Node389 -->
<g id="edge8" class="edge"><title>Node388&#45;&gt;Node389</title>
<path fill="none" stroke="midnightblue" d="M978.473,-63.7538C997.495,-58.516 1019.38,-52.4909 1037.19,-47.5859"/>
<polygon fill="midnightblue" stroke="midnightblue" points="977.535,-60.3817 968.823,-66.411 979.394,-67.1305 977.535,-60.3817"/>
</g>
<!-- Node391&#45;&gt;Node390 -->
<g id="edge13" class="edge"><title>Node391&#45;&gt;Node390</title>
<path fill="none" stroke="midnightblue" d="M847.925,-163.712C862.325,-166.709 878.223,-169.506 893,-171 928.375,-174.577 937.604,-174.366 973,-171 992.862,-169.111 1014.67,-165.137 1032.74,-161.309"/>
<polygon fill="midnightblue" stroke="midnightblue" points="848.257,-160.203 837.743,-161.51 846.777,-167.044 848.257,-160.203"/>
</g>
<!-- Node392 -->
<g id="node12" class="node"><title>Node392</title>
<g id="a_node12"><a xlink:href="net_8h.html#ade17f093221599e839345cf88b74b496" target="_top" xlink:title="Reads data from the network and tries to parse as CoAP PDU. ">
<polygon fill="white" stroke="black" points="902,-142.5 902,-161.5 964,-161.5 964,-142.5 902,-142.5"/>
<text text-anchor="middle" x="933" y="-149.5" font-family="Helvetica,sans-Serif" font-size="10.00">coap_read</text>
</a>
</g>
</g>
<!-- Node391&#45;&gt;Node392 -->
<g id="edge11" class="edge"><title>Node391&#45;&gt;Node392</title>
<path fill="none" stroke="midnightblue" d="M867.247,-152C879.318,-152 891.334,-152 901.678,-152"/>
<polygon fill="midnightblue" stroke="midnightblue" points="867.129,-148.5 857.129,-152 867.129,-155.5 867.129,-148.5"/>
</g>
<!-- Node392&#45;&gt;Node390 -->
<g id="edge12" class="edge"><title>Node392&#45;&gt;Node390</title>
<path fill="none" stroke="midnightblue" d="M974.422,-152C992.853,-152 1014.59,-152 1032.86,-152"/>
<polygon fill="midnightblue" stroke="midnightblue" points="974.285,-148.5 964.285,-152 974.285,-155.5 974.285,-148.5"/>
</g>
</g>
</svg>
