<?xml version="1.0" encoding="UTF-8" standalone="no"?>
<!DOCTYPE svg PUBLIC "-//W3C//DTD SVG 1.1//EN"
 "http://www.w3.org/Graphics/SVG/1.1/DTD/svg11.dtd">
<!-- Generated by graphviz version 2.38.0 (20140413.2041)
 -->
<!-- Title: coap_delete_string Pages: 1 -->
<svg width="464pt" height="104pt"
 viewBox="0.00 0.00 464.00 104.00" xmlns="http://www.w3.org/2000/svg" xmlns:xlink="http://www.w3.org/1999/xlink">
<g id="graph0" class="graph" transform="scale(1 1) rotate(0) translate(4 100)">
<title>coap_delete_string</title>
<polygon fill="white" stroke="none" points="-4,4 -4,-100 460,-100 460,4 -4,4"/>
<!-- Node0 -->
<g id="node1" class="node"><title>Node0</title>
<polygon fill="#bfbfbf" stroke="black" points="0,-38.5 0,-57.5 98,-57.5 98,-38.5 0,-38.5"/>
<text text-anchor="middle" x="49" y="-45.5" font-family="Helvetica,sans-Serif" font-size="10.00">coap_delete_string</text>
</g>
<!-- Node1 -->
<g id="node2" class="node"><title>Node1</title>
<g id="a_node2"><a xlink:href="mem_8h.html#ac01dd5f787fced5a3f9160b4584e81c7" target="_top" xlink:title="Wrapper function to coap_free_type() for backwards compatibility. ">
<polygon fill="white" stroke="black" points="134,-38.5 134,-57.5 193,-57.5 193,-38.5 134,-38.5"/>
<text text-anchor="middle" x="163.5" y="-45.5" font-family="Helvetica,sans-Serif" font-size="10.00">coap_free</text>
</a>
</g>
</g>
<!-- Node0&#45;&gt;Node1 -->
<g id="edge1" class="edge"><title>Node0&#45;&gt;Node1</title>
<path fill="none" stroke="midnightblue" d="M98.0364,-48C106.603,-48 115.429,-48 123.696,-48"/>
<polygon fill="midnightblue" stroke="midnightblue" points="123.809,-51.5001 133.809,-48 123.809,-44.5001 123.809,-51.5001"/>
</g>
<!-- Node2 -->
<g id="node3" class="node"><title>Node2</title>
<g id="a_node3"><a xlink:href="mem_8h.html#ae7214e0c73a4d4290525873e739ed422" target="_top" xlink:title="Releases the memory that was allocated by coap_malloc_type(). ">
<polygon fill="white" stroke="black" points="235.5,-76.5 235.5,-95.5 318.5,-95.5 318.5,-76.5 235.5,-76.5"/>
<text text-anchor="middle" x="277" y="-83.5" font-family="Helvetica,sans-Serif" font-size="10.00">coap_free_type</text>
</a>
</g>
</g>
<!-- Node1&#45;&gt;Node2 -->
<g id="edge2" class="edge"><title>Node1&#45;&gt;Node2</title>
<path fill="none" stroke="midnightblue" d="M192.636,-57.589C206.502,-62.3144 223.416,-68.0789 238.376,-73.1774"/>
<polygon fill="midnightblue" stroke="midnightblue" points="237.278,-76.501 247.873,-76.4141 239.537,-69.8752 237.278,-76.501"/>
</g>
<!-- Node3 -->
<g id="node4" class="node"><title>Node3</title>
<g id="a_node4"><a xlink:href="mem_8h.html#a65d0fc0fe6cad555b56e92ccb57613ba" target="_top" xlink:title="Initializes libcoap&#39;s memory management. ">
<polygon fill="white" stroke="black" points="229,-38.5 229,-57.5 325,-57.5 325,-38.5 229,-38.5"/>
<text text-anchor="middle" x="277" y="-45.5" font-family="Helvetica,sans-Serif" font-size="10.00">coap_memory_init</text>
</a>
</g>
</g>
<!-- Node1&#45;&gt;Node3 -->
<g id="edge3" class="edge"><title>Node1&#45;&gt;Node3</title>
<path fill="none" stroke="midnightblue" d="M193.214,-48C201.005,-48 209.726,-48 218.505,-48"/>
<polygon fill="midnightblue" stroke="midnightblue" points="218.785,-51.5001 228.785,-48 218.785,-44.5001 218.785,-51.5001"/>
</g>
<!-- Node4 -->
<g id="node5" class="node"><title>Node4</title>
<g id="a_node5"><a xlink:href="mem_8h.html#a09b861aa54503f57f2a9412d546cd3c8" target="_top" xlink:title="Wrapper function to coap_malloc_type() for backwards compatibility. ">
<polygon fill="white" stroke="black" points="241.5,-0.5 241.5,-19.5 312.5,-19.5 312.5,-0.5 241.5,-0.5"/>
<text text-anchor="middle" x="277" y="-7.5" font-family="Helvetica,sans-Serif" font-size="10.00">coap_malloc</text>
</a>
</g>
</g>
<!-- Node1&#45;&gt;Node4 -->
<g id="edge4" class="edge"><title>Node1&#45;&gt;Node4</title>
<path fill="none" stroke="midnightblue" d="M192.636,-38.411C206.502,-33.6856 223.416,-27.9211 238.376,-22.8226"/>
<polygon fill="midnightblue" stroke="midnightblue" points="239.537,-26.1248 247.873,-19.5859 237.278,-19.499 239.537,-26.1248"/>
</g>
<!-- Node5 -->
<g id="node6" class="node"><title>Node5</title>
<g id="a_node6"><a xlink:href="mem_8h.html#a0204710ce56cbaa4f062b7f2622857f5" target="_top" xlink:title="Allocates a chunk of size bytes and returns a pointer to the newly allocated memory. ">
<polygon fill="white" stroke="black" points="361,-0.5 361,-19.5 456,-19.5 456,-0.5 361,-0.5"/>
<text text-anchor="middle" x="408.5" y="-7.5" font-family="Helvetica,sans-Serif" font-size="10.00">coap_malloc_type</text>
</a>
</g>
</g>
<!-- Node4&#45;&gt;Node5 -->
<g id="edge5" class="edge"><title>Node4&#45;&gt;Node5</title>
<path fill="none" stroke="midnightblue" d="M312.704,-10C324.291,-10 337.527,-10 350.359,-10"/>
<polygon fill="midnightblue" stroke="midnightblue" points="350.524,-13.5001 360.524,-10 350.524,-6.5001 350.524,-13.5001"/>
</g>
</g>
</svg>
