<?xml version="1.0" encoding="UTF-8" standalone="no"?>
<!DOCTYPE svg PUBLIC "-//W3C//DTD SVG 1.1//EN"
 "http://www.w3.org/Graphics/SVG/1.1/DTD/svg11.dtd">
<!-- Generated by graphviz version 2.38.0 (20140413.2041)
 -->
<!-- Title: make_decoded_option Pages: 1 -->
<svg width="353pt" height="66pt"
 viewBox="0.00 0.00 353.00 66.00" xmlns="http://www.w3.org/2000/svg" xmlns:xlink="http://www.w3.org/1999/xlink">
<g id="graph0" class="graph" transform="scale(1 1) rotate(0) translate(4 62)">
<title>make_decoded_option</title>
<polygon fill="white" stroke="none" points="-4,4 -4,-62 349,-62 349,4 -4,4"/>
<!-- Node88 -->
<g id="node1" class="node"><title>Node88</title>
<polygon fill="#bfbfbf" stroke="black" points="0,-19.5 0,-38.5 114,-38.5 114,-19.5 0,-19.5"/>
<text text-anchor="middle" x="57" y="-26.5" font-family="Helvetica,sans-Serif" font-size="10.00">make_decoded_option</text>
</g>
<!-- Node89 -->
<g id="node2" class="node"><title>Node89</title>
<g id="a_node2"><a xlink:href="uri_8c.html#af32b0a60088eff0b14fb9cf8ab67ea35" target="_top" xlink:title="write_option">
<polygon fill="white" stroke="black" points="150,-19.5 150,-38.5 219,-38.5 219,-19.5 150,-19.5"/>
<text text-anchor="middle" x="184.5" y="-26.5" font-family="Helvetica,sans-Serif" font-size="10.00">write_option</text>
</a>
</g>
</g>
<!-- Node88&#45;&gt;Node89 -->
<g id="edge1" class="edge"><title>Node88&#45;&gt;Node89</title>
<path fill="none" stroke="midnightblue" d="M124.423,-29C133.178,-29 141.837,-29 149.716,-29"/>
<polygon fill="midnightblue" stroke="midnightblue" points="124.143,-25.5001 114.143,-29 124.143,-32.5001 124.143,-25.5001"/>
</g>
<!-- Node90 -->
<g id="node3" class="node"><title>Node90</title>
<g id="a_node3"><a xlink:href="group__uri__parse.html#gaf908e5dec2807e2591c9d4b7a2e1bdc9" target="_top" xlink:title="Splits the given URI path into segments. ">
<polygon fill="white" stroke="black" points="257.5,-38.5 257.5,-57.5 342.5,-57.5 342.5,-38.5 257.5,-38.5"/>
<text text-anchor="middle" x="300" y="-45.5" font-family="Helvetica,sans-Serif" font-size="10.00">coap_split_path</text>
</a>
</g>
</g>
<!-- Node89&#45;&gt;Node90 -->
<g id="edge2" class="edge"><title>Node89&#45;&gt;Node90</title>
<path fill="none" stroke="midnightblue" d="M229.312,-36.3341C238.453,-37.8644 248.067,-39.4738 257.136,-40.9919"/>
<polygon fill="midnightblue" stroke="midnightblue" points="229.687,-32.8483 219.246,-34.6492 228.531,-39.7523 229.687,-32.8483"/>
</g>
<!-- Node91 -->
<g id="node4" class="node"><title>Node91</title>
<g id="a_node4"><a xlink:href="group__uri__parse.html#ga11af018953df7b74380791222cc115a5" target="_top" xlink:title="Splits the given URI query into segments. ">
<polygon fill="white" stroke="black" points="255,-0.5 255,-19.5 345,-19.5 345,-0.5 255,-0.5"/>
<text text-anchor="middle" x="300" y="-7.5" font-family="Helvetica,sans-Serif" font-size="10.00">coap_split_query</text>
</a>
</g>
</g>
<!-- Node89&#45;&gt;Node91 -->
<g id="edge3" class="edge"><title>Node89&#45;&gt;Node91</title>
<path fill="none" stroke="midnightblue" d="M229.182,-21.6875C237.533,-20.2896 246.283,-18.8249 254.654,-17.4235"/>
<polygon fill="midnightblue" stroke="midnightblue" points="228.531,-18.2477 219.246,-23.3508 229.687,-25.1517 228.531,-18.2477"/>
</g>
</g>
</svg>
