<?xml version="1.0" encoding="UTF-8" standalone="no"?>
<!DOCTYPE svg PUBLIC "-//W3C//DTD SVG 1.1//EN"
 "http://www.w3.org/Graphics/SVG/1.1/DTD/svg11.dtd">
<!-- Generated by graphviz version 2.38.0 (20140413.2041)
 -->
<!-- Title: hash_segment Pages: 1 -->
<svg width="1013pt" height="135pt"
 viewBox="0.00 0.00 1013.00 134.63" xmlns="http://www.w3.org/2000/svg" xmlns:xlink="http://www.w3.org/1999/xlink">
<g id="graph0" class="graph" transform="scale(1 1) rotate(0) translate(4 130.63)">
<title>hash_segment</title>
<polygon fill="white" stroke="none" points="-4,4 -4,-130.63 1009,-130.63 1009,4 -4,4"/>
<!-- Node72 -->
<g id="node1" class="node"><title>Node72</title>
<polygon fill="#bfbfbf" stroke="black" points="0,-50.1298 0,-69.1298 80,-69.1298 80,-50.1298 0,-50.1298"/>
<text text-anchor="middle" x="40" y="-57.1298" font-family="Helvetica,sans-Serif" font-size="10.00">hash_segment</text>
</g>
<!-- Node73 -->
<g id="node2" class="node"><title>Node73</title>
<g id="a_node2"><a xlink:href="uri_8h.html#accca02f93d8db1fbf7c987a29a5e3697" target="_top" xlink:title="Calculates a hash over the given path and stores the result in key. ">
<polygon fill="white" stroke="black" points="116,-50.1298 116,-69.1298 204,-69.1298 204,-50.1298 116,-50.1298"/>
<text text-anchor="middle" x="160" y="-57.1298" font-family="Helvetica,sans-Serif" font-size="10.00">coap_hash_path</text>
</a>
</g>
</g>
<!-- Node72&#45;&gt;Node73 -->
<g id="edge1" class="edge"><title>Node72&#45;&gt;Node73</title>
<path fill="none" stroke="midnightblue" d="M90.4057,-59.6298C98.8458,-59.6298 107.555,-59.6298 115.817,-59.6298"/>
<polygon fill="midnightblue" stroke="midnightblue" points="90.2923,-56.1299 80.2923,-59.6298 90.2923,-63.1299 90.2923,-56.1299"/>
</g>
<!-- Node74 -->
<g id="node3" class="node"><title>Node74</title>
<g id="a_node3"><a xlink:href="net_8c.html#abc08875378b7f27452c4db00cffe7433" target="_top" xlink:title="is_wkc">
<polygon fill="white" stroke="black" points="265.5,-69.1298 265.5,-88.1298 312.5,-88.1298 312.5,-69.1298 265.5,-69.1298"/>
<text text-anchor="middle" x="289" y="-76.1298" font-family="Helvetica,sans-Serif" font-size="10.00">is_wkc</text>
</a>
</g>
</g>
<!-- Node73&#45;&gt;Node74 -->
<g id="edge2" class="edge"><title>Node73&#45;&gt;Node74</title>
<path fill="none" stroke="midnightblue" d="M214.603,-67.6491C232.293,-70.2957 251.034,-73.0994 265.151,-75.2114"/>
<polygon fill="midnightblue" stroke="midnightblue" points="214.759,-64.1336 204.351,-66.1154 213.723,-71.0565 214.759,-64.1336"/>
</g>
<!-- Node83 -->
<g id="node12" class="node"><title>Node83</title>
<g id="a_node12"><a xlink:href="resource_8h.html#ab541655395f1fa9e7088af153506d97e" target="_top" xlink:title="Creates a new resource object and initializes the link field to the string of length len...">
<polygon fill="white" stroke="black" points="240,-31.1298 240,-50.1298 338,-50.1298 338,-31.1298 240,-31.1298"/>
<text text-anchor="middle" x="289" y="-38.1298" font-family="Helvetica,sans-Serif" font-size="10.00">coap_resource_init</text>
</a>
</g>
</g>
<!-- Node73&#45;&gt;Node83 -->
<g id="edge14" class="edge"><title>Node73&#45;&gt;Node83</title>
<path fill="none" stroke="midnightblue" d="M214.396,-51.6413C222.763,-50.3897 231.369,-49.1021 239.615,-47.8686"/>
<polygon fill="midnightblue" stroke="midnightblue" points="213.723,-48.2031 204.351,-53.1442 214.759,-55.126 213.723,-48.2031"/>
</g>
<!-- Node75 -->
<g id="node4" class="node"><title>Node75</title>
<g id="a_node4"><a xlink:href="net_8c.html#a13ff6a2308c8e167a66218e43b819df2" target="_top" xlink:title="handle_request">
<polygon fill="white" stroke="black" points="374,-69.1298 374,-88.1298 457,-88.1298 457,-69.1298 374,-69.1298"/>
<text text-anchor="middle" x="415.5" y="-76.1298" font-family="Helvetica,sans-Serif" font-size="10.00">handle_request</text>
</a>
</g>
</g>
<!-- Node74&#45;&gt;Node75 -->
<g id="edge3" class="edge"><title>Node74&#45;&gt;Node75</title>
<path fill="none" stroke="midnightblue" d="M322.818,-78.6298C338.502,-78.6298 357.424,-78.6298 373.995,-78.6298"/>
<polygon fill="midnightblue" stroke="midnightblue" points="322.546,-75.1299 312.546,-78.6298 322.546,-82.1299 322.546,-75.1299"/>
</g>
<!-- Node76 -->
<g id="node5" class="node"><title>Node76</title>
<g id="a_node5"><a xlink:href="net_8h.html#ab458d1c3b0f5d695dfa86b805ae8463d" target="_top" xlink:title="Dispatches the PDUs from the receive queue in given context. ">
<polygon fill="white" stroke="black" points="493,-69.1298 493,-88.1298 573,-88.1298 573,-69.1298 493,-69.1298"/>
<text text-anchor="middle" x="533" y="-76.1298" font-family="Helvetica,sans-Serif" font-size="10.00">coap_dispatch</text>
</a>
</g>
</g>
<!-- Node75&#45;&gt;Node76 -->
<g id="edge4" class="edge"><title>Node75&#45;&gt;Node76</title>
<path fill="none" stroke="midnightblue" d="M467.446,-78.6298C475.952,-78.6298 484.657,-78.6298 492.81,-78.6298"/>
<polygon fill="midnightblue" stroke="midnightblue" points="467.221,-75.1299 457.221,-78.6298 467.221,-82.1299 467.221,-75.1299"/>
</g>
<!-- Node77 -->
<g id="node6" class="node"><title>Node77</title>
<g id="a_node6"><a xlink:href="net_8h.html#a9900c032b74bd57f67d489484a2b3207" target="_top" xlink:title="Handles retransmissions of confirmable messages. ">
<polygon fill="white" stroke="black" points="624,-69.1298 624,-88.1298 710,-88.1298 710,-69.1298 624,-69.1298"/>
<text text-anchor="middle" x="667" y="-76.1298" font-family="Helvetica,sans-Serif" font-size="10.00">coap_retransmit</text>
</a>
</g>
</g>
<!-- Node76&#45;&gt;Node77 -->
<g id="edge5" class="edge"><title>Node76&#45;&gt;Node77</title>
<path fill="none" stroke="midnightblue" d="M583.637,-78.6298C596.899,-78.6298 611.103,-78.6298 623.915,-78.6298"/>
<polygon fill="midnightblue" stroke="midnightblue" points="583.247,-75.1299 573.247,-78.6298 583.247,-82.1299 583.247,-75.1299"/>
</g>
<!-- Node79 -->
<g id="node8" class="node"><title>Node79</title>
<g id="a_node8"><a xlink:href="net_8h.html#ac58be1c374afa04d10810aef1d073315" target="_top" xlink:title="Removes the transaction identified by id from given queue. ">
<polygon fill="white" stroke="black" points="877,-107.13 877,-126.13 1005,-126.13 1005,-107.13 877,-107.13"/>
<text text-anchor="middle" x="941" y="-114.13" font-family="Helvetica,sans-Serif" font-size="10.00">coap_remove_transaction</text>
</a>
</g>
</g>
<!-- Node76&#45;&gt;Node79 -->
<g id="edge13" class="edge"><title>Node76&#45;&gt;Node79</title>
<path fill="none" stroke="midnightblue" d="M577.719,-90.6735C587.931,-93.2167 598.803,-95.7085 609,-97.6298 675.904,-110.236 693.05,-112.399 761,-116.63 799.46,-119.024 842.659,-119.099 876.982,-118.54"/>
<polygon fill="midnightblue" stroke="midnightblue" points="578.333,-87.2179 567.778,-88.1325 576.599,-93.9999 578.333,-87.2179"/>
</g>
<!-- Node81 -->
<g id="node10" class="node"><title>Node81</title>
<g id="a_node10"><a xlink:href="net_8h.html#a74c5ca78210280817a5586f61abfa5f3" target="_top" xlink:title="Parses and interprets a CoAP message with context ctx. ">
<polygon fill="white" stroke="black" points="609,-12.1298 609,-31.1298 725,-31.1298 725,-12.1298 609,-12.1298"/>
<text text-anchor="middle" x="667" y="-19.1298" font-family="Helvetica,sans-Serif" font-size="10.00">coap_handle_message</text>
</a>
</g>
</g>
<!-- Node76&#45;&gt;Node81 -->
<g id="edge9" class="edge"><title>Node76&#45;&gt;Node81</title>
<path fill="none" stroke="midnightblue" d="M565.537,-65.0117C589.687,-54.5833 622.393,-40.4601 643.834,-31.2014"/>
<polygon fill="midnightblue" stroke="midnightblue" points="563.887,-61.9116 556.094,-69.0893 566.662,-68.3381 563.887,-61.9116"/>
</g>
<!-- Node78 -->
<g id="node7" class="node"><title>Node78</title>
<g id="a_node7"><a xlink:href="net_8h.html#a231e9a81ac7c03c3e5c251824a76d7b9" target="_top" xlink:title="Returns 1 if there are no messages to send or to dispatch in the context&#39;s queues. ">
<polygon fill="white" stroke="black" points="761,-88.1298 761,-107.13 841,-107.13 841,-88.1298 761,-88.1298"/>
<text text-anchor="middle" x="801" y="-95.1298" font-family="Helvetica,sans-Serif" font-size="10.00">coap_can_exit</text>
</a>
</g>
</g>
<!-- Node77&#45;&gt;Node78 -->
<g id="edge6" class="edge"><title>Node77&#45;&gt;Node78</title>
<path fill="none" stroke="midnightblue" d="M720.297,-86.1574C733.853,-88.1087 748.216,-90.176 760.959,-92.0103"/>
<polygon fill="midnightblue" stroke="midnightblue" points="720.525,-82.6542 710.129,-84.6938 719.528,-89.5828 720.525,-82.6542"/>
</g>
<!-- Node80 -->
<g id="node9" class="node"><title>Node80</title>
<g id="a_node9"><a xlink:href="net_8h.html#a08ba53f8f554cf7a2559813ebde1bb1d" target="_top" xlink:title="Sends an RST message with code 0 for the specified request to dst. ">
<polygon fill="white" stroke="black" points="901,-12.1298 901,-31.1298 981,-31.1298 981,-12.1298 901,-12.1298"/>
<text text-anchor="middle" x="941" y="-19.1298" font-family="Helvetica,sans-Serif" font-size="10.00">coap_send_rst</text>
</a>
</g>
</g>
<!-- Node77&#45;&gt;Node80 -->
<g id="edge8" class="edge"><title>Node77&#45;&gt;Node80</title>
<path fill="none" stroke="midnightblue" d="M720.038,-67.7247C772.781,-56.672 853.2,-39.8196 900.792,-29.8462"/>
<polygon fill="midnightblue" stroke="midnightblue" points="719.271,-64.3094 710.202,-69.7861 720.707,-71.1606 719.271,-64.3094"/>
</g>
<!-- Node78&#45;&gt;Node79 -->
<g id="edge7" class="edge"><title>Node78&#45;&gt;Node79</title>
<path fill="none" stroke="midnightblue" d="M851.136,-104.395C859.505,-105.547 868.301,-106.758 876.969,-107.952"/>
<polygon fill="midnightblue" stroke="midnightblue" points="851.56,-100.92 841.176,-103.024 850.605,-107.855 851.56,-100.92"/>
</g>
<!-- Node81&#45;&gt;Node80 -->
<g id="edge12" class="edge"><title>Node81&#45;&gt;Node80</title>
<path fill="none" stroke="midnightblue" d="M715.925,-9.91804C730.325,-6.92074 746.223,-4.12381 761,-2.62979 796.375,0.946863 805.604,0.736068 841,-2.62979 860.862,-4.51848 882.666,-8.49282 900.744,-12.3207"/>
<polygon fill="midnightblue" stroke="midnightblue" points="714.777,-6.58539 705.743,-12.1202 716.257,-13.4272 714.777,-6.58539"/>
</g>
<!-- Node82 -->
<g id="node11" class="node"><title>Node82</title>
<g id="a_node11"><a xlink:href="net_8h.html#ade17f093221599e839345cf88b74b496" target="_top" xlink:title="Reads data from the network and tries to parse as CoAP PDU. ">
<polygon fill="white" stroke="black" points="770,-12.1298 770,-31.1298 832,-31.1298 832,-12.1298 770,-12.1298"/>
<text text-anchor="middle" x="801" y="-19.1298" font-family="Helvetica,sans-Serif" font-size="10.00">coap_read</text>
</a>
</g>
</g>
<!-- Node81&#45;&gt;Node82 -->
<g id="edge10" class="edge"><title>Node81&#45;&gt;Node82</title>
<path fill="none" stroke="midnightblue" d="M735.247,-21.6298C747.318,-21.6298 759.334,-21.6298 769.678,-21.6298"/>
<polygon fill="midnightblue" stroke="midnightblue" points="735.129,-18.1299 725.129,-21.6298 735.129,-25.1299 735.129,-18.1299"/>
</g>
<!-- Node82&#45;&gt;Node80 -->
<g id="edge11" class="edge"><title>Node82&#45;&gt;Node80</title>
<path fill="none" stroke="midnightblue" d="M842.422,-21.6298C860.853,-21.6298 882.589,-21.6298 900.863,-21.6298"/>
<polygon fill="midnightblue" stroke="midnightblue" points="842.285,-18.1299 832.285,-21.6298 842.285,-25.1299 842.285,-18.1299"/>
</g>
</g>
</svg>
