<?xml version="1.0" encoding="UTF-8" standalone="no"?>
<!DOCTYPE svg PUBLIC "-//W3C//DTD SVG 1.1//EN"
 "http://www.w3.org/Graphics/SVG/1.1/DTD/svg11.dtd">
<!-- Generated by graphviz version 2.38.0 (20140413.2041)
 -->
<!-- Title: dots Pages: 1 -->
<svg width="1112pt" height="135pt"
 viewBox="0.00 0.00 1112.00 134.63" xmlns="http://www.w3.org/2000/svg" xmlns:xlink="http://www.w3.org/1999/xlink">
<g id="graph0" class="graph" transform="scale(1 1) rotate(0) translate(4 130.63)">
<title>dots</title>
<polygon fill="white" stroke="none" points="-4,4 -4,-130.63 1108,-130.63 1108,4 -4,4"/>
<!-- Node57 -->
<g id="node1" class="node"><title>Node57</title>
<polygon fill="#bfbfbf" stroke="black" points="0,-69.1298 0,-88.1298 35,-88.1298 35,-69.1298 0,-69.1298"/>
<text text-anchor="middle" x="17.5" y="-76.1298" font-family="Helvetica,sans-Serif" font-size="10.00">dots</text>
</g>
<!-- Node58 -->
<g id="node2" class="node"><title>Node58</title>
<g id="a_node2"><a xlink:href="uri_8c.html#a671218632527de7da40ef24515d03a8a" target="_top" xlink:title="Splits the given string into segments. ">
<polygon fill="white" stroke="black" points="71,-69.1298 71,-88.1298 179,-88.1298 179,-69.1298 71,-69.1298"/>
<text text-anchor="middle" x="125" y="-76.1298" font-family="Helvetica,sans-Serif" font-size="10.00">coap_split_path_impl</text>
</a>
</g>
</g>
<!-- Node57&#45;&gt;Node58 -->
<g id="edge1" class="edge"><title>Node57&#45;&gt;Node58</title>
<path fill="none" stroke="midnightblue" d="M45.5788,-78.6298C53.2654,-78.6298 61.9137,-78.6298 70.586,-78.6298"/>
<polygon fill="midnightblue" stroke="midnightblue" points="45.4504,-75.1299 35.4504,-78.6298 45.4504,-82.1299 45.4504,-75.1299"/>
</g>
<!-- Node59 -->
<g id="node3" class="node"><title>Node59</title>
<g id="a_node3"><a xlink:href="group__uri__parse.html#gaf908e5dec2807e2591c9d4b7a2e1bdc9" target="_top" xlink:title="Splits the given URI path into segments. ">
<polygon fill="white" stroke="black" points="216.5,-88.1298 216.5,-107.13 301.5,-107.13 301.5,-88.1298 216.5,-88.1298"/>
<text text-anchor="middle" x="259" y="-95.1298" font-family="Helvetica,sans-Serif" font-size="10.00">coap_split_path</text>
</a>
</g>
</g>
<!-- Node58&#45;&gt;Node59 -->
<g id="edge2" class="edge"><title>Node58&#45;&gt;Node59</title>
<path fill="none" stroke="midnightblue" d="M189.212,-87.7285C198.395,-89.0503 207.651,-90.3826 216.266,-91.6226"/>
<polygon fill="midnightblue" stroke="midnightblue" points="189.706,-84.2636 179.309,-86.3031 188.708,-91.1921 189.706,-84.2636"/>
</g>
<!-- Node60 -->
<g id="node4" class="node"><title>Node60</title>
<g id="a_node4"><a xlink:href="uri_8h.html#accca02f93d8db1fbf7c987a29a5e3697" target="_top" xlink:title="Calculates a hash over the given path and stores the result in key. ">
<polygon fill="white" stroke="black" points="215,-50.1298 215,-69.1298 303,-69.1298 303,-50.1298 215,-50.1298"/>
<text text-anchor="middle" x="259" y="-57.1298" font-family="Helvetica,sans-Serif" font-size="10.00">coap_hash_path</text>
</a>
</g>
</g>
<!-- Node58&#45;&gt;Node60 -->
<g id="edge3" class="edge"><title>Node58&#45;&gt;Node60</title>
<path fill="none" stroke="midnightblue" d="M189.307,-69.5174C197.878,-68.2838 206.509,-67.0414 214.621,-65.8737"/>
<polygon fill="midnightblue" stroke="midnightblue" points="188.708,-66.0674 179.309,-70.9565 189.706,-72.996 188.708,-66.0674"/>
</g>
<!-- Node61 -->
<g id="node5" class="node"><title>Node61</title>
<g id="a_node5"><a xlink:href="net_8c.html#abc08875378b7f27452c4db00cffe7433" target="_top" xlink:title="is_wkc">
<polygon fill="white" stroke="black" points="364.5,-69.1298 364.5,-88.1298 411.5,-88.1298 411.5,-69.1298 364.5,-69.1298"/>
<text text-anchor="middle" x="388" y="-76.1298" font-family="Helvetica,sans-Serif" font-size="10.00">is_wkc</text>
</a>
</g>
</g>
<!-- Node60&#45;&gt;Node61 -->
<g id="edge4" class="edge"><title>Node60&#45;&gt;Node61</title>
<path fill="none" stroke="midnightblue" d="M313.603,-67.6491C331.293,-70.2957 350.034,-73.0994 364.151,-75.2114"/>
<polygon fill="midnightblue" stroke="midnightblue" points="313.759,-64.1336 303.351,-66.1154 312.723,-71.0565 313.759,-64.1336"/>
</g>
<!-- Node70 -->
<g id="node14" class="node"><title>Node70</title>
<g id="a_node14"><a xlink:href="resource_8h.html#ab541655395f1fa9e7088af153506d97e" target="_top" xlink:title="Creates a new resource object and initializes the link field to the string of length len...">
<polygon fill="white" stroke="black" points="339,-31.1298 339,-50.1298 437,-50.1298 437,-31.1298 339,-31.1298"/>
<text text-anchor="middle" x="388" y="-38.1298" font-family="Helvetica,sans-Serif" font-size="10.00">coap_resource_init</text>
</a>
</g>
</g>
<!-- Node60&#45;&gt;Node70 -->
<g id="edge16" class="edge"><title>Node60&#45;&gt;Node70</title>
<path fill="none" stroke="midnightblue" d="M313.396,-51.6413C321.763,-50.3897 330.369,-49.1021 338.615,-47.8686"/>
<polygon fill="midnightblue" stroke="midnightblue" points="312.723,-48.2031 303.351,-53.1442 313.759,-55.126 312.723,-48.2031"/>
</g>
<!-- Node62 -->
<g id="node6" class="node"><title>Node62</title>
<g id="a_node6"><a xlink:href="net_8c.html#a13ff6a2308c8e167a66218e43b819df2" target="_top" xlink:title="handle_request">
<polygon fill="white" stroke="black" points="473,-69.1298 473,-88.1298 556,-88.1298 556,-69.1298 473,-69.1298"/>
<text text-anchor="middle" x="514.5" y="-76.1298" font-family="Helvetica,sans-Serif" font-size="10.00">handle_request</text>
</a>
</g>
</g>
<!-- Node61&#45;&gt;Node62 -->
<g id="edge5" class="edge"><title>Node61&#45;&gt;Node62</title>
<path fill="none" stroke="midnightblue" d="M421.818,-78.6298C437.502,-78.6298 456.424,-78.6298 472.995,-78.6298"/>
<polygon fill="midnightblue" stroke="midnightblue" points="421.546,-75.1299 411.546,-78.6298 421.546,-82.1299 421.546,-75.1299"/>
</g>
<!-- Node63 -->
<g id="node7" class="node"><title>Node63</title>
<g id="a_node7"><a xlink:href="net_8h.html#ab458d1c3b0f5d695dfa86b805ae8463d" target="_top" xlink:title="Dispatches the PDUs from the receive queue in given context. ">
<polygon fill="white" stroke="black" points="592,-69.1298 592,-88.1298 672,-88.1298 672,-69.1298 592,-69.1298"/>
<text text-anchor="middle" x="632" y="-76.1298" font-family="Helvetica,sans-Serif" font-size="10.00">coap_dispatch</text>
</a>
</g>
</g>
<!-- Node62&#45;&gt;Node63 -->
<g id="edge6" class="edge"><title>Node62&#45;&gt;Node63</title>
<path fill="none" stroke="midnightblue" d="M566.446,-78.6298C574.952,-78.6298 583.657,-78.6298 591.81,-78.6298"/>
<polygon fill="midnightblue" stroke="midnightblue" points="566.221,-75.1299 556.221,-78.6298 566.221,-82.1299 566.221,-75.1299"/>
</g>
<!-- Node64 -->
<g id="node8" class="node"><title>Node64</title>
<g id="a_node8"><a xlink:href="net_8h.html#a9900c032b74bd57f67d489484a2b3207" target="_top" xlink:title="Handles retransmissions of confirmable messages. ">
<polygon fill="white" stroke="black" points="723,-69.1298 723,-88.1298 809,-88.1298 809,-69.1298 723,-69.1298"/>
<text text-anchor="middle" x="766" y="-76.1298" font-family="Helvetica,sans-Serif" font-size="10.00">coap_retransmit</text>
</a>
</g>
</g>
<!-- Node63&#45;&gt;Node64 -->
<g id="edge7" class="edge"><title>Node63&#45;&gt;Node64</title>
<path fill="none" stroke="midnightblue" d="M682.637,-78.6298C695.899,-78.6298 710.103,-78.6298 722.915,-78.6298"/>
<polygon fill="midnightblue" stroke="midnightblue" points="682.247,-75.1299 672.247,-78.6298 682.247,-82.1299 682.247,-75.1299"/>
</g>
<!-- Node66 -->
<g id="node10" class="node"><title>Node66</title>
<g id="a_node10"><a xlink:href="net_8h.html#ac58be1c374afa04d10810aef1d073315" target="_top" xlink:title="Removes the transaction identified by id from given queue. ">
<polygon fill="white" stroke="black" points="976,-107.13 976,-126.13 1104,-126.13 1104,-107.13 976,-107.13"/>
<text text-anchor="middle" x="1040" y="-114.13" font-family="Helvetica,sans-Serif" font-size="10.00">coap_remove_transaction</text>
</a>
</g>
</g>
<!-- Node63&#45;&gt;Node66 -->
<g id="edge15" class="edge"><title>Node63&#45;&gt;Node66</title>
<path fill="none" stroke="midnightblue" d="M676.719,-90.6735C686.931,-93.2167 697.803,-95.7085 708,-97.6298 774.904,-110.236 792.05,-112.399 860,-116.63 898.46,-119.024 941.659,-119.099 975.982,-118.54"/>
<polygon fill="midnightblue" stroke="midnightblue" points="677.333,-87.2179 666.778,-88.1325 675.599,-93.9999 677.333,-87.2179"/>
</g>
<!-- Node68 -->
<g id="node12" class="node"><title>Node68</title>
<g id="a_node12"><a xlink:href="net_8h.html#a74c5ca78210280817a5586f61abfa5f3" target="_top" xlink:title="Parses and interprets a CoAP message with context ctx. ">
<polygon fill="white" stroke="black" points="708,-12.1298 708,-31.1298 824,-31.1298 824,-12.1298 708,-12.1298"/>
<text text-anchor="middle" x="766" y="-19.1298" font-family="Helvetica,sans-Serif" font-size="10.00">coap_handle_message</text>
</a>
</g>
</g>
<!-- Node63&#45;&gt;Node68 -->
<g id="edge11" class="edge"><title>Node63&#45;&gt;Node68</title>
<path fill="none" stroke="midnightblue" d="M664.537,-65.0117C688.687,-54.5833 721.393,-40.4601 742.834,-31.2014"/>
<polygon fill="midnightblue" stroke="midnightblue" points="662.887,-61.9116 655.094,-69.0893 665.662,-68.3381 662.887,-61.9116"/>
</g>
<!-- Node65 -->
<g id="node9" class="node"><title>Node65</title>
<g id="a_node9"><a xlink:href="net_8h.html#a231e9a81ac7c03c3e5c251824a76d7b9" target="_top" xlink:title="Returns 1 if there are no messages to send or to dispatch in the context&#39;s queues. ">
<polygon fill="white" stroke="black" points="860,-88.1298 860,-107.13 940,-107.13 940,-88.1298 860,-88.1298"/>
<text text-anchor="middle" x="900" y="-95.1298" font-family="Helvetica,sans-Serif" font-size="10.00">coap_can_exit</text>
</a>
</g>
</g>
<!-- Node64&#45;&gt;Node65 -->
<g id="edge8" class="edge"><title>Node64&#45;&gt;Node65</title>
<path fill="none" stroke="midnightblue" d="M819.297,-86.1574C832.853,-88.1087 847.216,-90.176 859.959,-92.0103"/>
<polygon fill="midnightblue" stroke="midnightblue" points="819.525,-82.6542 809.129,-84.6938 818.528,-89.5828 819.525,-82.6542"/>
</g>
<!-- Node67 -->
<g id="node11" class="node"><title>Node67</title>
<g id="a_node11"><a xlink:href="net_8h.html#a08ba53f8f554cf7a2559813ebde1bb1d" target="_top" xlink:title="Sends an RST message with code 0 for the specified request to dst. ">
<polygon fill="white" stroke="black" points="1000,-12.1298 1000,-31.1298 1080,-31.1298 1080,-12.1298 1000,-12.1298"/>
<text text-anchor="middle" x="1040" y="-19.1298" font-family="Helvetica,sans-Serif" font-size="10.00">coap_send_rst</text>
</a>
</g>
</g>
<!-- Node64&#45;&gt;Node67 -->
<g id="edge10" class="edge"><title>Node64&#45;&gt;Node67</title>
<path fill="none" stroke="midnightblue" d="M819.038,-67.7247C871.781,-56.672 952.2,-39.8196 999.792,-29.8462"/>
<polygon fill="midnightblue" stroke="midnightblue" points="818.271,-64.3094 809.202,-69.7861 819.707,-71.1606 818.271,-64.3094"/>
</g>
<!-- Node65&#45;&gt;Node66 -->
<g id="edge9" class="edge"><title>Node65&#45;&gt;Node66</title>
<path fill="none" stroke="midnightblue" d="M950.136,-104.395C958.505,-105.547 967.301,-106.758 975.969,-107.952"/>
<polygon fill="midnightblue" stroke="midnightblue" points="950.56,-100.92 940.176,-103.024 949.605,-107.855 950.56,-100.92"/>
</g>
<!-- Node68&#45;&gt;Node67 -->
<g id="edge14" class="edge"><title>Node68&#45;&gt;Node67</title>
<path fill="none" stroke="midnightblue" d="M814.925,-9.91804C829.325,-6.92074 845.223,-4.12381 860,-2.62979 895.375,0.946863 904.604,0.736068 940,-2.62979 959.862,-4.51848 981.666,-8.49282 999.744,-12.3207"/>
<polygon fill="midnightblue" stroke="midnightblue" points="813.777,-6.58539 804.743,-12.1202 815.257,-13.4272 813.777,-6.58539"/>
</g>
<!-- Node69 -->
<g id="node13" class="node"><title>Node69</title>
<g id="a_node13"><a xlink:href="net_8h.html#ade17f093221599e839345cf88b74b496" target="_top" xlink:title="Reads data from the network and tries to parse as CoAP PDU. ">
<polygon fill="white" stroke="black" points="869,-12.1298 869,-31.1298 931,-31.1298 931,-12.1298 869,-12.1298"/>
<text text-anchor="middle" x="900" y="-19.1298" font-family="Helvetica,sans-Serif" font-size="10.00">coap_read</text>
</a>
</g>
</g>
<!-- Node68&#45;&gt;Node69 -->
<g id="edge12" class="edge"><title>Node68&#45;&gt;Node69</title>
<path fill="none" stroke="midnightblue" d="M834.247,-21.6298C846.318,-21.6298 858.334,-21.6298 868.678,-21.6298"/>
<polygon fill="midnightblue" stroke="midnightblue" points="834.129,-18.1299 824.129,-21.6298 834.129,-25.1299 834.129,-18.1299"/>
</g>
<!-- Node69&#45;&gt;Node67 -->
<g id="edge13" class="edge"><title>Node69&#45;&gt;Node67</title>
<path fill="none" stroke="midnightblue" d="M941.422,-21.6298C959.853,-21.6298 981.589,-21.6298 999.863,-21.6298"/>
<polygon fill="midnightblue" stroke="midnightblue" points="941.285,-18.1299 931.285,-21.6298 941.285,-25.1299 941.285,-18.1299"/>
</g>
</g>
</svg>
