<?xml version="1.0" encoding="UTF-8" standalone="no"?>
<!DOCTYPE svg PUBLIC "-//W3C//DTD SVG 1.1//EN"
 "http://www.w3.org/Graphics/SVG/1.1/DTD/svg11.dtd">
<!-- Generated by graphviz version 2.43.0 (0)
 -->
<!-- Title: coap_write_block_opt Pages: 1 -->
<!--zoomable 299 -->
<svg id="main" version="1.1" xmlns="http://www.w3.org/2000/svg" xmlns:xlink="http://www.w3.org/1999/xlink" xml:space="preserve" onload="init(evt)">
<style type="text/css"><![CDATA[
.edge:hover path { stroke: red; }
.edge:hover polygon { stroke: red; fill: red; }
]]></style>
<script type="text/javascript"><![CDATA[
var edges = document.getElementsByTagName('g');
if (edges && edges.length) {
  for (var i=0;i<edges.length;i++) {
    if (edges[i].id.substr(0,4)=='edge') {
      edges[i].setAttribute('class','edge');
    }
  }
}
]]></script>
        <defs>
                <circle id="rim" cx="0" cy="0" r="7"/>
                <circle id="rim2" cx="0" cy="0" r="3.5"/>
                <g id="zoomPlus">
                        <use xlink:href="#rim" fill="#404040">
                                <set attributeName="fill" to="#808080" begin="zoomplus.mouseover" end="zoomplus.mouseout"/>
                        </use>
                        <path d="M-4,0h8M0,-4v8" fill="none" stroke="white" stroke-width="1.5" pointer-events="none"/>
                </g>
                <g id="zoomMin">
                        <use xlink:href="#rim" fill="#404040">
                                <set attributeName="fill" to="#808080" begin="zoomminus.mouseover" end="zoomminus.mouseout"/>
                        </use>
                        <path d="M-4,0h8" fill="none" stroke="white" stroke-width="1.5" pointer-events="none"/>
                </g>
                <g id="dirArrow">
                        <path fill="none" stroke="white" stroke-width="1.5" d="M0,-3.0v7 M-2.5,-0.5L0,-3.0L2.5,-0.5"/>
                </g>
               <g id="resetDef">
                       <use xlink:href="#rim2" fill="#404040">
                               <set attributeName="fill" to="#808080" begin="reset.mouseover" end="reset.mouseout"/>
                       </use>
               </g>
        </defs>

<script type="text/javascript">
var viewWidth = 1216;
var viewHeight = 299;
var sectionId = 'dynsection-13';
</script>
<script xlink:href="svgpan.js"/>
<svg id="graph" class="graph">
<g id="viewport">
<title>coap_write_block_opt</title>
<polygon fill="white" stroke="transparent" points="-4,4 -4,-295.34 1212,-295.34 1212,4 -4,4"/>
<!-- Node1 -->
<g id="node1" class="node">
<title>Node1</title>
<g id="a_node1"><a xlink:title="Writes a block option of type number to message pdu.">
<polygon fill="#bfbfbf" stroke="black" points="0,-113.5 0,-132.5 111,-132.5 111,-113.5 0,-113.5"/>
<text text-anchor="middle" x="55.5" y="-120.5" font-family="Helvetica,sans-Serif" font-size="10.00">coap_write_block_opt</text>
</a>
</g>
</g>
<!-- Node2 -->
<g id="node2" class="node">
<title>Node2</title>
<g id="a_node2"><a xlink:href="group__encode.html#ga1f68ace3f70824f5c9427d5bfac50da3" target="_top" xlink:title="Encodes multiple&#45;length byte sequences.">
<polygon fill="white" stroke="black" points="147,-151.5 147,-170.5 264,-170.5 264,-151.5 147,-151.5"/>
<text text-anchor="middle" x="205.5" y="-158.5" font-family="Helvetica,sans-Serif" font-size="10.00">coap_encode_var_safe</text>
</a>
</g>
</g>
<!-- Node1&#45;&gt;Node2 -->
<g id="edge1" class="edge">
<title>Node1&#45;&gt;Node2</title>
<path fill="none" stroke="midnightblue" d="M93.85,-132.59C113.2,-137.56 137.03,-143.68 157.61,-148.96"/>
<polygon fill="midnightblue" stroke="midnightblue" points="156.87,-152.38 167.42,-151.48 158.61,-145.6 156.87,-152.38"/>
</g>
<!-- Node3 -->
<g id="node3" class="node">
<title>Node3</title>
<g id="a_node3"><a xlink:href="encode_8c.html#a5732d87decbffe771159ea02a5e25488" target="_top" xlink:title=" ">
<polygon fill="white" stroke="black" points="1150,-34.5 1150,-53.5 1208,-53.5 1208,-34.5 1150,-34.5"/>
<text text-anchor="middle" x="1179" y="-41.5" font-family="Helvetica,sans-Serif" font-size="10.00">coap_flsll</text>
</a>
</g>
</g>
<!-- Node1&#45;&gt;Node3 -->
<g id="edge2" class="edge">
<title>Node1&#45;&gt;Node3</title>
<path fill="none" stroke="midnightblue" d="M68.86,-113.35C107.27,-84.35 228.91,0 344,0 344,0 344,0 945.5,0 1015.01,0 1094.2,-19.22 1139.91,-32.26"/>
<polygon fill="midnightblue" stroke="midnightblue" points="1139.11,-35.67 1149.69,-35.1 1141.07,-28.95 1139.11,-35.67"/>
</g>
<!-- Node4 -->
<g id="node4" class="node">
<title>Node4</title>
<g id="a_node4"><a xlink:href="group__pdu__internal.html#ga24f3c35d834ec06d051a05a2572efb62" target="_top" xlink:title="Inserts option of given number in the pdu with the appropriate data.">
<polygon fill="white" stroke="black" points="156.5,-113.5 156.5,-132.5 254.5,-132.5 254.5,-113.5 156.5,-113.5"/>
<text text-anchor="middle" x="205.5" y="-120.5" font-family="Helvetica,sans-Serif" font-size="10.00">coap_insert_option</text>
</a>
</g>
</g>
<!-- Node1&#45;&gt;Node4 -->
<g id="edge3" class="edge">
<title>Node1&#45;&gt;Node4</title>
<path fill="none" stroke="midnightblue" d="M111.19,-123C122.65,-123 134.78,-123 146.37,-123"/>
<polygon fill="midnightblue" stroke="midnightblue" points="146.38,-126.5 156.38,-123 146.38,-119.5 146.38,-126.5"/>
</g>
<!-- Node5 -->
<g id="node5" class="node">
<title>Node5</title>
<g id="a_node5"><a xlink:href="group__pdu.html#ga9a5c9d83499b048b28d657abde04768b" target="_top" xlink:title="Adds option of given number to pdu that is passed as first parameter.">
<polygon fill="white" stroke="black" points="300,-113.5 300,-132.5 390,-132.5 390,-113.5 300,-113.5"/>
<text text-anchor="middle" x="345" y="-120.5" font-family="Helvetica,sans-Serif" font-size="10.00">coap_add_option</text>
</a>
</g>
</g>
<!-- Node4&#45;&gt;Node5 -->
<g id="edge4" class="edge">
<title>Node4&#45;&gt;Node5</title>
<path fill="none" stroke="midnightblue" d="M254.59,-116.53C265.97,-116.21 278.18,-116.17 289.81,-116.39"/>
<polygon fill="midnightblue" stroke="midnightblue" points="289.76,-119.89 299.85,-116.65 289.95,-112.89 289.76,-119.89"/>
</g>
<!-- Node12 -->
<g id="node12" class="node">
<title>Node12</title>
<g id="a_node12"><a xlink:href="group__opt__filter.html#gad799c84f95789d9dc6724da2b56d8ff5" target="_top" xlink:title="Initializes the given option iterator oi to point to the beginning of the pdu&#39;s option list.">
<polygon fill="white" stroke="black" points="584,-28.5 584,-47.5 706,-47.5 706,-28.5 584,-28.5"/>
<text text-anchor="middle" x="645" y="-35.5" font-family="Helvetica,sans-Serif" font-size="10.00">coap_option_iterator_init</text>
</a>
</g>
</g>
<!-- Node4&#45;&gt;Node12 -->
<g id="edge27" class="edge">
<title>Node4&#45;&gt;Node12</title>
<path fill="none" stroke="midnightblue" d="M230.4,-113.44C249.11,-106.23 275.9,-96.51 300,-90 392.96,-64.9 503.53,-50.89 573.74,-43.9"/>
<polygon fill="midnightblue" stroke="midnightblue" points="574.19,-47.37 583.8,-42.92 573.51,-40.41 574.19,-47.37"/>
</g>
<!-- Node13 -->
<g id="node13" class="node">
<title>Node13</title>
<g id="a_node13"><a xlink:href="group__opt__filter.html#ga182fdeffe0b37e1ab0dc6ba8494abe4a" target="_top" xlink:title="Updates the iterator oi to point to the next option.">
<polygon fill="white" stroke="black" points="598.5,-192.5 598.5,-211.5 691.5,-211.5 691.5,-192.5 598.5,-192.5"/>
<text text-anchor="middle" x="645" y="-199.5" font-family="Helvetica,sans-Serif" font-size="10.00">coap_option_next</text>
</a>
</g>
</g>
<!-- Node4&#45;&gt;Node13 -->
<g id="edge28" class="edge">
<title>Node4&#45;&gt;Node13</title>
<path fill="none" stroke="midnightblue" d="M246.03,-132.62C252.35,-135.1 258.58,-138.19 264,-142 285.24,-156.93 278.15,-173.99 300,-188 391.83,-246.9 527.59,-228.92 597.95,-213.76"/>
<polygon fill="midnightblue" stroke="midnightblue" points="598.84,-217.14 607.84,-211.55 597.32,-210.31 598.84,-217.14"/>
</g>
<!-- Node14 -->
<g id="node14" class="node">
<title>Node14</title>
<g id="a_node14"><a xlink:href="option_8c.html#a11de99f50cc9f5a34fd9e4d121ecfd13" target="_top" xlink:title="Parses the option pointed to by opt into result.">
<polygon fill="white" stroke="black" points="755,-249.5 755,-268.5 841,-268.5 841,-249.5 755,-249.5"/>
<text text-anchor="middle" x="798" y="-256.5" font-family="Helvetica,sans-Serif" font-size="10.00">coap_opt_parse</text>
</a>
</g>
</g>
<!-- Node4&#45;&gt;Node14 -->
<g id="edge26" class="edge">
<title>Node4&#45;&gt;Node14</title>
<path fill="none" stroke="midnightblue" d="M248.89,-132.51C254.37,-134.98 259.6,-138.09 264,-142 292.24,-167.09 269.91,-196.16 300,-219 434.38,-321.01 652.21,-290.88 748.54,-270.69"/>
<polygon fill="midnightblue" stroke="midnightblue" points="749.54,-274.05 758.58,-268.52 748.07,-267.21 749.54,-274.05"/>
</g>
<!-- Node17 -->
<g id="node17" class="node">
<title>Node17</title>
<g id="a_node17"><a xlink:href="group__opt__filter.html#ga358cb455deaefca1b1234298f018c9ab" target="_top" xlink:title="Encodes option with given delta into opt.">
<polygon fill="white" stroke="black" points="440.5,-151.5 440.5,-170.5 533.5,-170.5 533.5,-151.5 440.5,-151.5"/>
<text text-anchor="middle" x="487" y="-158.5" font-family="Helvetica,sans-Serif" font-size="10.00">coap_opt_encode</text>
</a>
</g>
</g>
<!-- Node4&#45;&gt;Node17 -->
<g id="edge24" class="edge">
<title>Node4&#45;&gt;Node17</title>
<path fill="none" stroke="midnightblue" d="M249.16,-132.59C265.06,-135.92 283.3,-139.46 300,-142 343.56,-148.63 393.22,-153.57 430.26,-156.75"/>
<polygon fill="midnightblue" stroke="midnightblue" points="430.1,-160.25 440.36,-157.6 430.69,-153.28 430.1,-160.25"/>
</g>
<!-- Node19 -->
<g id="node19" class="node">
<title>Node19</title>
<g id="a_node19"><a xlink:href="group__opt__filter.html#ga55f19454026048e906139d575feddecb" target="_top" xlink:title="Compute storage bytes needed for an option with given delta and length.">
<polygon fill="white" stroke="black" points="429,-75.5 429,-94.5 545,-94.5 545,-75.5 429,-75.5"/>
<text text-anchor="middle" x="487" y="-82.5" font-family="Helvetica,sans-Serif" font-size="10.00">coap_opt_encode_size</text>
</a>
</g>
</g>
<!-- Node4&#45;&gt;Node19 -->
<g id="edge25" class="edge">
<title>Node4&#45;&gt;Node19</title>
<path fill="none" stroke="midnightblue" d="M249.16,-113.41C265.06,-110.08 283.3,-106.54 300,-104 339.14,-98.04 383.2,-93.45 418.61,-90.27"/>
<polygon fill="midnightblue" stroke="midnightblue" points="419.18,-93.73 428.83,-89.37 418.56,-86.76 419.18,-93.73"/>
</g>
<!-- Node20 -->
<g id="node20" class="node">
<title>Node20</title>
<g id="a_node20"><a xlink:href="group__pdu__internal.html#gad741bcd3525c8d24389e4604c1cacb50" target="_top" xlink:title="Dynamically grows the size of pdu to new_size if needed.">
<polygon fill="white" stroke="black" points="426,-189.5 426,-208.5 548,-208.5 548,-189.5 426,-189.5"/>
<text text-anchor="middle" x="487" y="-196.5" font-family="Helvetica,sans-Serif" font-size="10.00">coap_pdu_check_resize</text>
</a>
</g>
</g>
<!-- Node4&#45;&gt;Node20 -->
<g id="edge29" class="edge">
<title>Node4&#45;&gt;Node20</title>
<path fill="none" stroke="midnightblue" d="M238.84,-132.5C247.15,-135.27 256.01,-138.5 264,-142 280.76,-149.35 282.82,-155.69 300,-162 336.99,-175.58 380.05,-184.55 415.42,-190.25"/>
<polygon fill="midnightblue" stroke="midnightblue" points="415.23,-193.76 425.65,-191.84 416.31,-186.84 415.23,-193.76"/>
</g>
<!-- Node5&#45;&gt;Node4 -->
<g id="edge18" class="edge">
<title>Node5&#45;&gt;Node4</title>
<path fill="none" stroke="midnightblue" d="M299.85,-129.35C288.68,-129.73 276.52,-129.84 264.77,-129.68"/>
<polygon fill="midnightblue" stroke="midnightblue" points="264.66,-126.18 254.59,-129.47 264.52,-133.18 264.66,-126.18"/>
</g>
<!-- Node6 -->
<g id="node6" class="node">
<title>Node6</title>
<g id="a_node6"><a xlink:href="group__opt__filter.html#ga7ba272705b429d7ca95f7a520d110c53" target="_top" xlink:title="Retrieves the first option of number number from pdu.">
<polygon fill="white" stroke="black" points="436.5,-113.5 436.5,-132.5 537.5,-132.5 537.5,-113.5 436.5,-113.5"/>
<text text-anchor="middle" x="487" y="-120.5" font-family="Helvetica,sans-Serif" font-size="10.00">coap_check_option</text>
</a>
</g>
</g>
<!-- Node5&#45;&gt;Node6 -->
<g id="edge5" class="edge">
<title>Node5&#45;&gt;Node6</title>
<path fill="none" stroke="midnightblue" d="M390.3,-123C401.57,-123 413.88,-123 425.81,-123"/>
<polygon fill="midnightblue" stroke="midnightblue" points="426.15,-126.5 436.15,-123 426.15,-119.5 426.15,-126.5"/>
</g>
<!-- Node5&#45;&gt;Node17 -->
<g id="edge19" class="edge">
<title>Node5&#45;&gt;Node17</title>
<path fill="none" stroke="midnightblue" d="M381.33,-132.59C399.4,-137.49 421.6,-143.52 440.89,-148.76"/>
<polygon fill="midnightblue" stroke="midnightblue" points="440.12,-152.17 450.68,-151.41 441.95,-145.42 440.12,-152.17"/>
</g>
<!-- Node5&#45;&gt;Node19 -->
<g id="edge21" class="edge">
<title>Node5&#45;&gt;Node19</title>
<path fill="none" stroke="midnightblue" d="M381.33,-113.41C399.4,-108.51 421.6,-102.48 440.89,-97.24"/>
<polygon fill="midnightblue" stroke="midnightblue" points="441.95,-100.58 450.68,-94.59 440.12,-93.83 441.95,-100.58"/>
</g>
<!-- Node5&#45;&gt;Node20 -->
<g id="edge22" class="edge">
<title>Node5&#45;&gt;Node20</title>
<path fill="none" stroke="midnightblue" d="M356.94,-132.51C371.72,-144.93 399.3,-166.67 426,-180 430.35,-182.17 435.01,-184.16 439.73,-185.97"/>
<polygon fill="midnightblue" stroke="midnightblue" points="438.83,-189.37 449.43,-189.42 441.18,-182.77 438.83,-189.37"/>
</g>
<!-- Node7 -->
<g id="node7" class="node">
<title>Node7</title>
<g id="a_node7"><a xlink:href="group__opt__filter.html#gab32cbf963c82364063041e5c84ca279a" target="_top" xlink:title="Clears filter filter.">
<polygon fill="white" stroke="black" points="598.5,-67 598.5,-97 691.5,-97 691.5,-67 598.5,-67"/>
<text text-anchor="start" x="606.5" y="-85" font-family="Helvetica,sans-Serif" font-size="10.00">coap_option_filter</text>
<text text-anchor="middle" x="645" y="-74" font-family="Helvetica,sans-Serif" font-size="10.00">_clear</text>
</a>
</g>
</g>
<!-- Node6&#45;&gt;Node7 -->
<g id="edge6" class="edge">
<title>Node6&#45;&gt;Node7</title>
<path fill="none" stroke="midnightblue" d="M524.18,-113.49C543.22,-108.49 566.97,-102.24 588.3,-96.64"/>
<polygon fill="midnightblue" stroke="midnightblue" points="589.44,-99.96 598.22,-94.03 587.66,-93.19 589.44,-99.96"/>
</g>
<!-- Node8 -->
<g id="node8" class="node">
<title>Node8</title>
<g id="a_node8"><a xlink:href="group__opt__filter.html#gafdbe6036d408220bbfa6eb2d7bd2443f" target="_top" xlink:title="Sets the corresponding entry for number in filter.">
<polygon fill="white" stroke="black" points="742,-116.5 742,-135.5 854,-135.5 854,-116.5 742,-116.5"/>
<text text-anchor="middle" x="798" y="-123.5" font-family="Helvetica,sans-Serif" font-size="10.00">coap_option_filter_set</text>
</a>
</g>
</g>
<!-- Node6&#45;&gt;Node8 -->
<g id="edge7" class="edge">
<title>Node6&#45;&gt;Node8</title>
<path fill="none" stroke="midnightblue" d="M537.65,-123.48C590.27,-123.99 673.63,-124.8 731.59,-125.36"/>
<polygon fill="midnightblue" stroke="midnightblue" points="731.7,-128.87 741.74,-125.46 731.77,-121.87 731.7,-128.87"/>
</g>
<!-- Node6&#45;&gt;Node12 -->
<g id="edge12" class="edge">
<title>Node6&#45;&gt;Node12</title>
<path fill="none" stroke="midnightblue" d="M529.91,-113.39C536.28,-110.91 542.54,-107.83 548,-104 569.54,-88.89 562.46,-72.11 584,-57 586.73,-55.09 589.66,-53.36 592.7,-51.8"/>
<polygon fill="midnightblue" stroke="midnightblue" points="594.38,-54.88 602.09,-47.61 591.53,-48.49 594.38,-54.88"/>
</g>
<!-- Node6&#45;&gt;Node13 -->
<g id="edge13" class="edge">
<title>Node6&#45;&gt;Node13</title>
<path fill="none" stroke="midnightblue" d="M528.74,-132.58C535.47,-135.08 542.14,-138.18 548,-142 568.3,-155.26 563.7,-169.74 584,-183 587.11,-185.03 590.45,-186.86 593.91,-188.5"/>
<polygon fill="midnightblue" stroke="midnightblue" points="592.68,-191.78 603.26,-192.42 595.39,-185.32 592.68,-191.78"/>
</g>
<!-- Node9 -->
<g id="node9" class="node">
<title>Node9</title>
<g id="a_node9"><a xlink:href="option_8c.html#ab87ea79da1603a15ac624388a335bba6" target="_top" xlink:title="Applies op on filter with respect to number.">
<polygon fill="white" stroke="black" points="890,-116.5 890,-135.5 999,-135.5 999,-116.5 890,-116.5"/>
<text text-anchor="middle" x="944.5" y="-123.5" font-family="Helvetica,sans-Serif" font-size="10.00">coap_option_filter_op</text>
</a>
</g>
</g>
<!-- Node8&#45;&gt;Node9 -->
<g id="edge8" class="edge">
<title>Node8&#45;&gt;Node9</title>
<path fill="none" stroke="midnightblue" d="M854.04,-126C862.32,-126 870.92,-126 879.37,-126"/>
<polygon fill="midnightblue" stroke="midnightblue" points="879.57,-129.5 889.57,-126 879.57,-122.5 879.57,-129.5"/>
</g>
<!-- Node10 -->
<g id="node10" class="node">
<title>Node10</title>
<g id="a_node10"><a xlink:href="encode_8c.html#a671b4261b2d24de8696258a8efb0f359" target="_top" xlink:title=" ">
<polygon fill="white" stroke="black" points="1048,-56.5 1048,-75.5 1101,-75.5 1101,-56.5 1048,-56.5"/>
<text text-anchor="middle" x="1074.5" y="-63.5" font-family="Helvetica,sans-Serif" font-size="10.00">coap_fls</text>
</a>
</g>
</g>
<!-- Node9&#45;&gt;Node10 -->
<g id="edge9" class="edge">
<title>Node9&#45;&gt;Node10</title>
<path fill="none" stroke="midnightblue" d="M965.78,-116.49C986.72,-106.68 1019.63,-91.25 1043.56,-80.03"/>
<polygon fill="midnightblue" stroke="midnightblue" points="1045.32,-83.07 1052.89,-75.66 1042.35,-76.74 1045.32,-83.07"/>
</g>
<!-- Node11 -->
<g id="node11" class="node">
<title>Node11</title>
<g id="a_node11"><a xlink:href="option_8c.html#ad65a9bd8fcfb4ba4270819e6f87f5bcf" target="_top" xlink:title="Returns true iff number denotes an option number larger than 255.">
<polygon fill="white" stroke="black" points="1035,-116.5 1035,-135.5 1114,-135.5 1114,-116.5 1035,-116.5"/>
<text text-anchor="middle" x="1074.5" y="-123.5" font-family="Helvetica,sans-Serif" font-size="10.00">is_long_option</text>
</a>
</g>
</g>
<!-- Node9&#45;&gt;Node11 -->
<g id="edge11" class="edge">
<title>Node9&#45;&gt;Node11</title>
<path fill="none" stroke="midnightblue" d="M999.04,-126C1007.61,-126 1016.44,-126 1024.89,-126"/>
<polygon fill="midnightblue" stroke="midnightblue" points="1024.97,-129.5 1034.97,-126 1024.97,-122.5 1024.97,-129.5"/>
</g>
<!-- Node10&#45;&gt;Node3 -->
<g id="edge10" class="edge">
<title>Node10&#45;&gt;Node3</title>
<path fill="none" stroke="midnightblue" d="M1101.1,-60.51C1112.8,-57.99 1126.9,-54.97 1139.81,-52.2"/>
<polygon fill="midnightblue" stroke="midnightblue" points="1140.8,-55.56 1149.84,-50.04 1139.33,-48.72 1140.8,-55.56"/>
</g>
<!-- Node13&#45;&gt;Node14 -->
<g id="edge14" class="edge">
<title>Node13&#45;&gt;Node14</title>
<path fill="none" stroke="midnightblue" d="M677.94,-211.54C687.06,-214.41 696.97,-217.69 706,-221 726.35,-228.45 748.82,-237.82 766.34,-245.4"/>
<polygon fill="midnightblue" stroke="midnightblue" points="764.95,-248.61 775.52,-249.39 767.75,-242.19 764.95,-248.61"/>
</g>
<!-- Node15 -->
<g id="node15" class="node">
<title>Node15</title>
<g id="a_node15"><a xlink:href="group__opt__filter.html#gaecbb0b2fe1f6244aa6121d019070704b" target="_top" xlink:title="Checks if number is contained in filter.">
<polygon fill="white" stroke="black" points="742,-154.5 742,-173.5 854,-173.5 854,-154.5 742,-154.5"/>
<text text-anchor="middle" x="798" y="-161.5" font-family="Helvetica,sans-Serif" font-size="10.00">coap_option_filter_get</text>
</a>
</g>
</g>
<!-- Node13&#45;&gt;Node15 -->
<g id="edge15" class="edge">
<title>Node13&#45;&gt;Node15</title>
<path fill="none" stroke="midnightblue" d="M684.1,-192.41C703.94,-187.42 728.38,-181.27 749.45,-175.97"/>
<polygon fill="midnightblue" stroke="midnightblue" points="750.33,-179.35 759.17,-173.52 748.62,-172.57 750.33,-179.35"/>
</g>
<!-- Node16 -->
<g id="node16" class="node">
<title>Node16</title>
<g id="a_node16"><a xlink:href="option_8c.html#a70fa9db0450134640b80cbf7c3720688" target="_top" xlink:title=" ">
<polygon fill="white" stroke="black" points="763.5,-192.5 763.5,-211.5 832.5,-211.5 832.5,-192.5 763.5,-192.5"/>
<text text-anchor="middle" x="798" y="-199.5" font-family="Helvetica,sans-Serif" font-size="10.00">opt_finished</text>
</a>
</g>
</g>
<!-- Node13&#45;&gt;Node16 -->
<g id="edge17" class="edge">
<title>Node13&#45;&gt;Node16</title>
<path fill="none" stroke="midnightblue" d="M691.71,-202C711.29,-202 734.04,-202 753.38,-202"/>
<polygon fill="midnightblue" stroke="midnightblue" points="753.43,-205.5 763.43,-202 753.43,-198.5 753.43,-205.5"/>
</g>
<!-- Node15&#45;&gt;Node9 -->
<g id="edge16" class="edge">
<title>Node15&#45;&gt;Node9</title>
<path fill="none" stroke="midnightblue" d="M835.46,-154.41C854.27,-149.46 877.41,-143.38 897.45,-138.11"/>
<polygon fill="midnightblue" stroke="midnightblue" points="898.52,-141.45 907.3,-135.52 896.74,-134.68 898.52,-141.45"/>
</g>
<!-- Node18 -->
<g id="node18" class="node">
<title>Node18</title>
<g id="a_node18"><a xlink:href="group__opt__filter.html#gafebbd04a7895df694a9345dad0275aeb" target="_top" xlink:title="Encodes the given delta and length values into opt.">
<polygon fill="white" stroke="black" points="593,-154.5 593,-173.5 697,-173.5 697,-154.5 593,-154.5"/>
<text text-anchor="middle" x="645" y="-161.5" font-family="Helvetica,sans-Serif" font-size="10.00">coap_opt_setheader</text>
</a>
</g>
</g>
<!-- Node17&#45;&gt;Node18 -->
<g id="edge20" class="edge">
<title>Node17&#45;&gt;Node18</title>
<path fill="none" stroke="midnightblue" d="M533.54,-161.88C548.96,-162.17 566.43,-162.51 582.86,-162.82"/>
<polygon fill="midnightblue" stroke="midnightblue" points="582.86,-166.32 592.93,-163.02 582.99,-159.33 582.86,-166.32"/>
</g>
<!-- Node21 -->
<g id="node21" class="node">
<title>Node21</title>
<g id="a_node21"><a xlink:href="group__pdu__internal.html#gadd46ce956878a4121e8887b84c6d4a6b" target="_top" xlink:title="Dynamically grows the size of pdu to new_size.">
<polygon fill="white" stroke="black" points="600,-230.5 600,-249.5 690,-249.5 690,-230.5 600,-230.5"/>
<text text-anchor="middle" x="645" y="-237.5" font-family="Helvetica,sans-Serif" font-size="10.00">coap_pdu_resize</text>
</a>
</g>
</g>
<!-- Node20&#45;&gt;Node21 -->
<g id="edge23" class="edge">
<title>Node20&#45;&gt;Node21</title>
<path fill="none" stroke="midnightblue" d="M524.18,-208.51C546.15,-214.28 574.41,-221.71 597.97,-227.9"/>
<polygon fill="midnightblue" stroke="midnightblue" points="597.18,-231.31 607.74,-230.47 598.96,-224.54 597.18,-231.31"/>
</g>
</g>
</svg>
        <g id="navigator" transform="translate(0 0)" fill="#404254">
                <rect fill="#f2f5e9" fill-opacity="0.5" stroke="#606060" stroke-width=".5" x="0" y="0" width="60" height="60"/>
                <use id="zoomplus" xlink:href="#zoomPlus" x="17" y="9" onmousedown="handleZoom(evt,'in')"/>
                <use id="zoomminus" xlink:href="#zoomMin" x="42" y="9" onmousedown="handleZoom(evt,'out')"/>
                <use id="reset" xlink:href="#resetDef" x="30" y="36" onmousedown="handleReset()"/>
                <g id="arrowUp" xlink:href="#dirArrow" transform="translate(30 24)" onmousedown="handlePan(0,-1)">
                  <use xlink:href="#rim" fill="#404040">
                        <set attributeName="fill" to="#808080" begin="arrowUp.mouseover" end="arrowUp.mouseout"/>
                  </use>
                  <path fill="none" stroke="white" stroke-width="1.5" d="M0,-3.0v7 M-2.5,-0.5L0,-3.0L2.5,-0.5"/>
                </g>
                <g id="arrowRight" xlink:href="#dirArrow" transform="rotate(90) translate(36 -43)" onmousedown="handlePan(1,0)">
                  <use xlink:href="#rim" fill="#404040">
                        <set attributeName="fill" to="#808080" begin="arrowRight.mouseover" end="arrowRight.mouseout"/>
                  </use>
                  <path fill="none" stroke="white" stroke-width="1.5" d="M0,-3.0v7 M-2.5,-0.5L0,-3.0L2.5,-0.5"/>
                </g>
                <g id="arrowDown" xlink:href="#dirArrow" transform="rotate(180) translate(-30 -48)" onmousedown="handlePan(0,1)">
                  <use xlink:href="#rim" fill="#404040">
                        <set attributeName="fill" to="#808080" begin="arrowDown.mouseover" end="arrowDown.mouseout"/>
                  </use>
                  <path fill="none" stroke="white" stroke-width="1.5" d="M0,-3.0v7 M-2.5,-0.5L0,-3.0L2.5,-0.5"/>
                </g>
                <g id="arrowLeft" xlink:href="#dirArrow" transform="rotate(270) translate(-36 17)" onmousedown="handlePan(-1,0)">
                  <use xlink:href="#rim" fill="#404040">
                        <set attributeName="fill" to="#808080" begin="arrowLeft.mouseover" end="arrowLeft.mouseout"/>
                  </use>
                  <path fill="none" stroke="white" stroke-width="1.5" d="M0,-3.0v7 M-2.5,-0.5L0,-3.0L2.5,-0.5"/>
                </g>
        </g>
        <svg viewBox="0 0 15 15" width="100%" height="30px" preserveAspectRatio="xMaxYMin meet">
         <g id="arrow_out" transform="scale(0.3 0.3)">
          <a xlink:href="group__block_gae1451ec6a5dcc209ed79d6e571fb42fc_cgraph_org.svg" target="_base">
           <rect id="button" ry="5" rx="5" y="6" x="6" height="38" width="38"
                fill="#f2f5e9" fill-opacity="0.5" stroke="#606060" stroke-width="1.0"/>
           <path id="arrow"
             d="M 11.500037,31.436501 C 11.940474,20.09759 22.043105,11.32322 32.158766,21.979434 L 37.068811,17.246167 C 37.068811,17.246167 37.088388,32 37.088388,32 L 22.160133,31.978069 C 22.160133,31.978069 26.997745,27.140456 26.997745,27.140456 C 18.528582,18.264221 13.291696,25.230495 11.500037,31.436501 z"
             style="fill:#404040;"/>
          </a>
         </g>
        </svg>
</svg>
