<?xml version="1.0" encoding="UTF-8" standalone="no"?>
<!DOCTYPE svg PUBLIC "-//W3C//DTD SVG 1.1//EN"
 "http://www.w3.org/Graphics/SVG/1.1/DTD/svg11.dtd">
<!-- Generated by graphviz version 2.43.0 (0)
 -->
<!-- Title: coap_is_mcast Pages: 1 -->
<svg width="1838pt" height="617pt"
 viewBox="0.00 0.00 1838.00 617.00" xmlns="http://www.w3.org/2000/svg" xmlns:xlink="http://www.w3.org/1999/xlink">
<g id="graph0" class="graph" transform="scale(1 1) rotate(0) translate(4 613)">
<title>coap_is_mcast</title>
<polygon fill="white" stroke="transparent" points="-4,4 -4,-613 1834,-613 1834,4 -4,4"/>
<!-- Node1 -->
<g id="node1" class="node">
<title>Node1</title>
<g id="a_node1"><a xlink:title="Checks if given address a denotes a multicast address.">
<polygon fill="#bfbfbf" stroke="black" points="1747,-171.5 1747,-190.5 1830,-190.5 1830,-171.5 1747,-171.5"/>
<text text-anchor="middle" x="1788.5" y="-178.5" font-family="Helvetica,sans-Serif" font-size="10.00">coap_is_mcast</text>
</a>
</g>
</g>
<!-- Node2 -->
<g id="node2" class="node">
<title>Node2</title>
<g id="a_node2"><a xlink:href="net_8c.html#a7bb944fc52f772655356d95724317401" target="_top" xlink:title="Dispatches the PDUs from the receive queue in given context.">
<polygon fill="white" stroke="black" points="915,-475.5 915,-494.5 995,-494.5 995,-475.5 915,-475.5"/>
<text text-anchor="middle" x="955" y="-482.5" font-family="Helvetica,sans-Serif" font-size="10.00">coap_dispatch</text>
</a>
</g>
</g>
<!-- Node1&#45;&gt;Node2 -->
<g id="edge1" class="edge">
<title>Node1&#45;&gt;Node2</title>
<path fill="none" stroke="midnightblue" d="M1774.57,-198.95C1730.35,-258.5 1577.81,-449.03 1397,-507 1253.09,-553.14 1206.84,-531.68 1057,-512 1031.81,-508.69 1003.96,-500.93 983.9,-494.57"/>
<polygon fill="midnightblue" stroke="midnightblue" points="1777.63,-200.69 1780.73,-190.56 1771.99,-196.55 1777.63,-200.69"/>
</g>
<!-- Node13 -->
<g id="node13" class="node">
<title>Node13</title>
<g id="a_node13"><a xlink:href="coap__io_8c.html#a9e9bc78d20872c6ea9cb8dddfcea45ad" target="_top" xlink:title=" ">
<polygon fill="white" stroke="black" points="1592.5,-152.5 1592.5,-171.5 1696.5,-171.5 1696.5,-152.5 1592.5,-152.5"/>
<text text-anchor="middle" x="1644.5" y="-159.5" font-family="Helvetica,sans-Serif" font-size="10.00">coap_network_send</text>
</a>
</g>
</g>
<!-- Node1&#45;&gt;Node13 -->
<g id="edge18" class="edge">
<title>Node1&#45;&gt;Node13</title>
<path fill="none" stroke="midnightblue" d="M1736.62,-174.19C1723.6,-172.45 1709.6,-170.58 1696.57,-168.83"/>
<polygon fill="midnightblue" stroke="midnightblue" points="1736.43,-177.7 1746.81,-175.56 1737.36,-170.76 1736.43,-177.7"/>
</g>
<!-- Node19 -->
<g id="node19" class="node">
<title>Node19</title>
<g id="a_node19"><a xlink:href="net_8c.html#a0c600aed61c8a8402d31ef795df3b0b6" target="_top" xlink:title=" ">
<polygon fill="white" stroke="black" points="1602,-190.5 1602,-209.5 1687,-209.5 1687,-190.5 1602,-190.5"/>
<text text-anchor="middle" x="1644.5" y="-197.5" font-family="Helvetica,sans-Serif" font-size="10.00">coap_send_pdu</text>
</a>
</g>
</g>
<!-- Node1&#45;&gt;Node19 -->
<g id="edge24" class="edge">
<title>Node1&#45;&gt;Node19</title>
<path fill="none" stroke="midnightblue" d="M1736.44,-187.83C1720.28,-189.99 1702.61,-192.36 1687.18,-194.42"/>
<polygon fill="midnightblue" stroke="midnightblue" points="1737.36,-191.24 1746.81,-186.44 1736.43,-184.3 1737.36,-191.24"/>
</g>
<!-- Node41 -->
<g id="node41" class="node">
<title>Node41</title>
<g id="a_node41"><a xlink:href="coap__io_8c.html#a1086276cc42228e6b0b1c72b4f72fa84" target="_top" xlink:title=" ">
<polygon fill="white" stroke="black" points="1578,-92.5 1578,-111.5 1711,-111.5 1711,-92.5 1578,-92.5"/>
<text text-anchor="middle" x="1644.5" y="-99.5" font-family="Helvetica,sans-Serif" font-size="10.00">coap_socket_connect_udp</text>
</a>
</g>
</g>
<!-- Node1&#45;&gt;Node41 -->
<g id="edge63" class="edge">
<title>Node1&#45;&gt;Node41</title>
<path fill="none" stroke="midnightblue" d="M1761.31,-166.43C1732.57,-150.44 1687.24,-125.22 1662.69,-111.56"/>
<polygon fill="midnightblue" stroke="midnightblue" points="1759.93,-169.67 1770.37,-171.47 1763.33,-163.55 1759.93,-169.67"/>
</g>
<!-- Node3 -->
<g id="node3" class="node">
<title>Node3</title>
<g id="a_node3"><a xlink:href="net_8c.html#a32887948ee273d1ad464ec47df194910" target="_top" xlink:title="Parses and interprets a CoAP datagram with context ctx.">
<polygon fill="white" stroke="black" points="738,-494.5 738,-513.5 842,-513.5 842,-494.5 738,-494.5"/>
<text text-anchor="middle" x="790" y="-501.5" font-family="Helvetica,sans-Serif" font-size="10.00">coap_handle_dgram</text>
</a>
</g>
</g>
<!-- Node2&#45;&gt;Node3 -->
<g id="edge2" class="edge">
<title>Node2&#45;&gt;Node3</title>
<path fill="none" stroke="midnightblue" d="M904.89,-490.73C885.03,-493.04 862.11,-495.71 842.06,-498.05"/>
<polygon fill="midnightblue" stroke="midnightblue" points="905.43,-494.19 914.96,-489.55 904.62,-487.23 905.43,-494.19"/>
</g>
<!-- Node12 -->
<g id="node12" class="node">
<title>Node12</title>
<g id="a_node12"><a xlink:href="net_8c.html#acd36f6fba6d30ab9557e0e6521f4a088" target="_top" xlink:title=" ">
<polygon fill="white" stroke="black" points="428,-456.5 428,-475.5 529,-475.5 529,-456.5 428,-456.5"/>
<text text-anchor="middle" x="478.5" y="-463.5" font-family="Helvetica,sans-Serif" font-size="10.00">coap_read_session</text>
</a>
</g>
</g>
<!-- Node2&#45;&gt;Node12 -->
<g id="edge17" class="edge">
<title>Node2&#45;&gt;Node12</title>
<path fill="none" stroke="midnightblue" d="M904.72,-483.03C813.8,-479.39 620.61,-471.65 529.3,-467.99"/>
<polygon fill="midnightblue" stroke="midnightblue" points="904.63,-486.53 914.77,-483.43 904.91,-479.53 904.63,-486.53"/>
</g>
<!-- Node4 -->
<g id="node4" class="node">
<title>Node4</title>
<g id="a_node4"><a xlink:href="net_8c.html#a8534f7860b14e0743529daff196a27ce" target="_top" xlink:title=" ">
<polygon fill="white" stroke="black" points="571,-489 571,-519 691,-519 691,-489 571,-489"/>
<text text-anchor="start" x="579" y="-507" font-family="Helvetica,sans-Serif" font-size="10.00">coap_handle_dgram_for</text>
<text text-anchor="middle" x="631" y="-496" font-family="Helvetica,sans-Serif" font-size="10.00">_proto</text>
</a>
</g>
</g>
<!-- Node3&#45;&gt;Node4 -->
<g id="edge3" class="edge">
<title>Node3&#45;&gt;Node4</title>
<path fill="none" stroke="midnightblue" d="M727.3,-504C715.41,-504 702.97,-504 691.15,-504"/>
<polygon fill="midnightblue" stroke="midnightblue" points="727.59,-507.5 737.59,-504 727.59,-500.5 727.59,-507.5"/>
</g>
<!-- Node5 -->
<g id="node5" class="node">
<title>Node5</title>
<g id="a_node5"><a xlink:href="net_8c.html#a44ffb4b70e537043e9a9cf344be24b92" target="_top" xlink:title=" ">
<polygon fill="white" stroke="black" points="426.5,-494.5 426.5,-513.5 530.5,-513.5 530.5,-494.5 426.5,-494.5"/>
<text text-anchor="middle" x="478.5" y="-501.5" font-family="Helvetica,sans-Serif" font-size="10.00">coap_read_endpoint</text>
</a>
</g>
</g>
<!-- Node4&#45;&gt;Node5 -->
<g id="edge4" class="edge">
<title>Node4&#45;&gt;Node5</title>
<path fill="none" stroke="midnightblue" d="M560.84,-504C550.65,-504 540.31,-504 530.58,-504"/>
<polygon fill="midnightblue" stroke="midnightblue" points="560.95,-507.5 570.95,-504 560.95,-500.5 560.95,-507.5"/>
</g>
<!-- Node4&#45;&gt;Node12 -->
<g id="edge14" class="edge">
<title>Node4&#45;&gt;Node12</title>
<path fill="none" stroke="midnightblue" d="M561.08,-486.6C545.95,-482.78 530.48,-478.87 517.13,-475.5"/>
<polygon fill="midnightblue" stroke="midnightblue" points="560.4,-490.04 570.95,-489.09 562.11,-483.25 560.4,-490.04"/>
</g>
<!-- Node6 -->
<g id="node6" class="node">
<title>Node6</title>
<g id="a_node6"><a xlink:href="group__app__io__internal.html#ga503f851fa137eb8a9c2936e2098c5eb9" target="_top" xlink:title="Process all the epoll events.">
<polygon fill="white" stroke="black" points="294,-418.5 294,-437.5 386,-437.5 386,-418.5 294,-418.5"/>
<text text-anchor="middle" x="340" y="-425.5" font-family="Helvetica,sans-Serif" font-size="10.00">coap_io_do_epoll</text>
</a>
</g>
</g>
<!-- Node5&#45;&gt;Node6 -->
<g id="edge5" class="edge">
<title>Node5&#45;&gt;Node6</title>
<path fill="none" stroke="midnightblue" d="M432,-490.5C428.52,-488.85 425.14,-487.02 422,-485 402.43,-472.42 405.12,-460.25 386,-447 380.7,-443.33 374.58,-440.16 368.6,-437.53"/>
<polygon fill="midnightblue" stroke="midnightblue" points="430.81,-493.8 441.39,-494.48 433.54,-487.35 430.81,-493.8"/>
</g>
<!-- Node9 -->
<g id="node9" class="node">
<title>Node9</title>
<g id="a_node9"><a xlink:href="group__app__io__internal.html#ga2208802b0711ad20df07271b751b41dc" target="_top" xlink:title="Processes any outstanding read, write, accept or connect I/O as indicated in the coap_socket_t struct...">
<polygon fill="white" stroke="black" points="300.5,-456.5 300.5,-475.5 379.5,-475.5 379.5,-456.5 300.5,-456.5"/>
<text text-anchor="middle" x="340" y="-463.5" font-family="Helvetica,sans-Serif" font-size="10.00">coap_io_do_io</text>
</a>
</g>
</g>
<!-- Node5&#45;&gt;Node9 -->
<g id="edge9" class="edge">
<title>Node5&#45;&gt;Node9</title>
<path fill="none" stroke="midnightblue" d="M433.25,-491.68C414.5,-486.46 392.97,-480.47 375.43,-475.59"/>
<polygon fill="midnightblue" stroke="midnightblue" points="432.48,-495.1 443.06,-494.41 434.36,-488.36 432.48,-495.1"/>
</g>
<!-- Node7 -->
<g id="node7" class="node">
<title>Node7</title>
<g id="a_node7"><a xlink:href="group__app__io.html#ga2758ed5fdd6ce79ec95ea8dbf72a5644" target="_top" xlink:title="The main message processing loop with additional fds for internal select.">
<polygon fill="white" stroke="black" points="126,-380.5 126,-399.5 258,-399.5 258,-380.5 126,-380.5"/>
<text text-anchor="middle" x="192" y="-387.5" font-family="Helvetica,sans-Serif" font-size="10.00">coap_io_process_with_fds</text>
</a>
</g>
</g>
<!-- Node6&#45;&gt;Node7 -->
<g id="edge6" class="edge">
<title>Node6&#45;&gt;Node7</title>
<path fill="none" stroke="midnightblue" d="M292.46,-415.89C272.13,-410.6 248.63,-404.48 229.58,-399.52"/>
<polygon fill="midnightblue" stroke="midnightblue" points="291.6,-419.28 302.16,-418.41 293.36,-412.5 291.6,-419.28"/>
</g>
<!-- Node8 -->
<g id="node8" class="node">
<title>Node8</title>
<g id="a_node8"><a xlink:href="group__app__io.html#ga082f7bbf15d3f37c31c2a0a5e78ea4cf" target="_top" xlink:title="The main I/O processing function.">
<polygon fill="white" stroke="black" points="0,-380.5 0,-399.5 90,-399.5 90,-380.5 0,-380.5"/>
<text text-anchor="middle" x="45" y="-387.5" font-family="Helvetica,sans-Serif" font-size="10.00">coap_io_process</text>
</a>
</g>
</g>
<!-- Node7&#45;&gt;Node8 -->
<g id="edge7" class="edge">
<title>Node7&#45;&gt;Node8</title>
<path fill="none" stroke="midnightblue" d="M115.53,-383.26C106.85,-383.28 98.23,-383.44 90.17,-383.73"/>
<polygon fill="midnightblue" stroke="midnightblue" points="115.7,-386.76 125.71,-383.28 115.72,-379.76 115.7,-386.76"/>
</g>
<!-- Node8&#45;&gt;Node7 -->
<g id="edge8" class="edge">
<title>Node8&#45;&gt;Node7</title>
<path fill="none" stroke="midnightblue" d="M100.41,-396.56C108.67,-396.74 117.25,-396.79 125.71,-396.72"/>
<polygon fill="midnightblue" stroke="midnightblue" points="100.26,-393.05 90.17,-396.27 100.07,-400.05 100.26,-393.05"/>
</g>
<!-- Node9&#45;&gt;Node7 -->
<g id="edge11" class="edge">
<title>Node9&#45;&gt;Node7</title>
<path fill="none" stroke="midnightblue" d="M302.17,-451.98C299.32,-450.44 296.57,-448.78 294,-447 274.88,-433.75 277.85,-421.13 258,-409 251.68,-405.14 244.53,-402.03 237.35,-399.53"/>
<polygon fill="midnightblue" stroke="midnightblue" points="300.88,-455.24 311.4,-456.47 303.94,-448.95 300.88,-455.24"/>
</g>
<!-- Node9&#45;&gt;Node8 -->
<g id="edge10" class="edge">
<title>Node9&#45;&gt;Node8</title>
<path fill="none" stroke="midnightblue" d="M290.17,-468.79C245.94,-469.68 179.68,-466.84 126,-447 97.53,-436.48 69.97,-413.03 55.82,-399.72"/>
<polygon fill="midnightblue" stroke="midnightblue" points="290.46,-472.29 300.36,-468.51 290.27,-465.29 290.46,-472.29"/>
</g>
<!-- Node10 -->
<g id="node10" class="node">
<title>Node10</title>
<g id="a_node10"><a xlink:href="net_8h.html#af937985e2b14a287a849663574d59bcb" target="_top" xlink:title=" ">
<polygon fill="white" stroke="black" points="161,-418.5 161,-437.5 223,-437.5 223,-418.5 161,-418.5"/>
<text text-anchor="middle" x="192" y="-425.5" font-family="Helvetica,sans-Serif" font-size="10.00">coap_read</text>
</a>
</g>
</g>
<!-- Node9&#45;&gt;Node10 -->
<g id="edge12" class="edge">
<title>Node9&#45;&gt;Node10</title>
<path fill="none" stroke="midnightblue" d="M292.43,-453.88C269.85,-448 243.38,-441.11 223.43,-435.92"/>
<polygon fill="midnightblue" stroke="midnightblue" points="291.6,-457.28 302.16,-456.41 293.36,-450.5 291.6,-457.28"/>
</g>
<!-- Node11 -->
<g id="node11" class="node">
<title>Node11</title>
<g id="a_node11"><a xlink:href="coap__io__contiki_8c.html#a75a7c93e10ca7858449ba304aad4ea37" target="_top" xlink:title=" ">
<polygon fill="white" stroke="black" points="3.5,-304.5 3.5,-323.5 86.5,-323.5 86.5,-304.5 3.5,-304.5"/>
<text text-anchor="middle" x="45" y="-311.5" font-family="Helvetica,sans-Serif" font-size="10.00">coap_run_once</text>
</a>
</g>
</g>
<!-- Node10&#45;&gt;Node11 -->
<g id="edge13" class="edge">
<title>Node10&#45;&gt;Node11</title>
<path fill="none" stroke="midnightblue" d="M151.23,-420.37C142.49,-417.63 133.59,-413.94 126,-409 116.83,-403.02 71.9,-346.79 53.69,-323.76"/>
<polygon fill="midnightblue" stroke="midnightblue" points="150.38,-423.77 160.96,-423.08 152.26,-417.03 150.38,-423.77"/>
</g>
<!-- Node12&#45;&gt;Node6 -->
<g id="edge15" class="edge">
<title>Node12&#45;&gt;Node6</title>
<path fill="none" stroke="midnightblue" d="M433.25,-453.68C414.5,-448.46 392.97,-442.47 375.43,-437.59"/>
<polygon fill="midnightblue" stroke="midnightblue" points="432.48,-457.1 443.06,-456.41 434.36,-450.36 432.48,-457.1"/>
</g>
<!-- Node12&#45;&gt;Node9 -->
<g id="edge16" class="edge">
<title>Node12&#45;&gt;Node9</title>
<path fill="none" stroke="midnightblue" d="M417.64,-466C404.78,-466 391.52,-466 379.72,-466"/>
<polygon fill="midnightblue" stroke="midnightblue" points="417.83,-469.5 427.83,-466 417.83,-462.5 417.83,-469.5"/>
</g>
<!-- Node14 -->
<g id="node14" class="node">
<title>Node14</title>
<g id="a_node14"><a xlink:href="net_8c.html#a8baf4e3608ff5eb00adac694fe25eb60" target="_top" xlink:title="Creates a new coap_context_t object that will hold the CoAP stack status.">
<polygon fill="white" stroke="black" points="582,-171.5 582,-190.5 680,-190.5 680,-171.5 582,-171.5"/>
<text text-anchor="middle" x="631" y="-178.5" font-family="Helvetica,sans-Serif" font-size="10.00">coap_new_context</text>
</a>
</g>
</g>
<!-- Node13&#45;&gt;Node14 -->
<g id="edge19" class="edge">
<title>Node13&#45;&gt;Node14</title>
<path fill="none" stroke="midnightblue" d="M1582.24,-162C1517.28,-162 1411.65,-162 1320.5,-162 1320.5,-162 1320.5,-162 954,-162 856.7,-162 743.15,-170.75 680.23,-176.38"/>
<polygon fill="midnightblue" stroke="midnightblue" points="1582.31,-165.5 1592.31,-162 1582.31,-158.5 1582.31,-165.5"/>
</g>
<!-- Node15 -->
<g id="node15" class="node">
<title>Node15</title>
<g id="a_node15"><a xlink:href="coap__dtls__gnutls_8c.html#aa05cb2c6f902d70c2c0797fa604dd2d4" target="_top" xlink:title=" ">
<polygon fill="white" stroke="black" points="1439.5,-114.5 1439.5,-133.5 1535.5,-133.5 1535.5,-114.5 1439.5,-114.5"/>
<text text-anchor="middle" x="1487.5" y="-121.5" font-family="Helvetica,sans-Serif" font-size="10.00">dtls_send_to_peer</text>
</a>
</g>
</g>
<!-- Node13&#45;&gt;Node15 -->
<g id="edge20" class="edge">
<title>Node13&#45;&gt;Node15</title>
<path fill="none" stroke="midnightblue" d="M1594.39,-149.96C1572.74,-144.65 1547.65,-138.5 1527.33,-133.52"/>
<polygon fill="midnightblue" stroke="midnightblue" points="1593.84,-153.43 1604.39,-152.41 1595.51,-146.63 1593.84,-153.43"/>
</g>
<!-- Node16 -->
<g id="node16" class="node">
<title>Node16</title>
<g id="a_node16"><a xlink:href="coap__dtls__gnutls_8c.html#a2e333b0d5a6d15a048071f654f7391bc" target="_top" xlink:title=" ">
<polygon fill="white" stroke="black" points="1259,-114.5 1259,-133.5 1380,-133.5 1380,-114.5 1259,-114.5"/>
<text text-anchor="middle" x="1319.5" y="-121.5" font-family="Helvetica,sans-Serif" font-size="10.00">coap_dtls_new_session</text>
</a>
</g>
</g>
<!-- Node15&#45;&gt;Node16 -->
<g id="edge21" class="edge">
<title>Node15&#45;&gt;Node16</title>
<path fill="none" stroke="midnightblue" d="M1429.2,-124C1413.37,-124 1396.16,-124 1380.2,-124"/>
<polygon fill="midnightblue" stroke="midnightblue" points="1429.38,-127.5 1439.38,-124 1429.38,-120.5 1429.38,-127.5"/>
</g>
<!-- Node17 -->
<g id="node17" class="node">
<title>Node17</title>
<g id="a_node17"><a xlink:href="coap__dtls__gnutls_8c.html#a1208fe255ba461cb9d369a83bbc0f98b" target="_top" xlink:title=" ">
<polygon fill="white" stroke="black" points="1073.5,-114.5 1073.5,-133.5 1189.5,-133.5 1189.5,-114.5 1073.5,-114.5"/>
<text text-anchor="middle" x="1131.5" y="-121.5" font-family="Helvetica,sans-Serif" font-size="10.00">coap_dtls_get_session</text>
</a>
</g>
</g>
<!-- Node16&#45;&gt;Node17 -->
<g id="edge22" class="edge">
<title>Node16&#45;&gt;Node17</title>
<path fill="none" stroke="midnightblue" d="M1248.82,-124C1229.28,-124 1208.28,-124 1189.56,-124"/>
<polygon fill="midnightblue" stroke="midnightblue" points="1248.88,-127.5 1258.88,-124 1248.88,-120.5 1248.88,-127.5"/>
</g>
<!-- Node18 -->
<g id="node18" class="node">
<title>Node18</title>
<g id="a_node18"><a xlink:href="coap__dtls__gnutls_8c.html#a174ab9010def9c77272219cabba1b48e" target="_top" xlink:title=" ">
<polygon fill="white" stroke="black" points="1063,-76.5 1063,-95.5 1200,-95.5 1200,-76.5 1063,-76.5"/>
<text text-anchor="middle" x="1131.5" y="-83.5" font-family="Helvetica,sans-Serif" font-size="10.00">coap_dtls_handle_message</text>
</a>
</g>
</g>
<!-- Node16&#45;&gt;Node18 -->
<g id="edge23" class="edge">
<title>Node16&#45;&gt;Node18</title>
<path fill="none" stroke="midnightblue" d="M1261.67,-112.39C1235.22,-106.99 1204.14,-100.64 1179.1,-95.52"/>
<polygon fill="midnightblue" stroke="midnightblue" points="1261.07,-115.84 1271.56,-114.41 1262.47,-108.98 1261.07,-115.84"/>
</g>
<!-- Node20 -->
<g id="node20" class="node">
<title>Node20</title>
<g id="a_node20"><a xlink:href="net_8c.html#a9900c032b74bd57f67d489484a2b3207" target="_top" xlink:title="Handles retransmissions of confirmable messages.">
<polygon fill="white" stroke="black" points="747,-228.5 747,-247.5 833,-247.5 833,-228.5 747,-228.5"/>
<text text-anchor="middle" x="790" y="-235.5" font-family="Helvetica,sans-Serif" font-size="10.00">coap_retransmit</text>
</a>
</g>
</g>
<!-- Node19&#45;&gt;Node20 -->
<g id="edge25" class="edge">
<title>Node19&#45;&gt;Node20</title>
<path fill="none" stroke="midnightblue" d="M1591.75,-200C1527.96,-200 1416.25,-200 1320.5,-200 1320.5,-200 1320.5,-200 1130.5,-200 1022.83,-200 995.69,-204.51 889,-219 870.62,-221.5 850.49,-225.22 833.28,-228.72"/>
<polygon fill="midnightblue" stroke="midnightblue" points="1591.94,-203.5 1601.94,-200 1591.94,-196.5 1591.94,-203.5"/>
</g>
<!-- Node25 -->
<g id="node25" class="node">
<title>Node25</title>
<g id="a_node25"><a xlink:href="net_8c.html#ab0b0b5db03427c4313c01ec2b12cf8ed" target="_top" xlink:title="Sends a CoAP message to given peer.">
<polygon fill="white" stroke="black" points="1455.5,-380.5 1455.5,-399.5 1519.5,-399.5 1519.5,-380.5 1455.5,-380.5"/>
<text text-anchor="middle" x="1487.5" y="-387.5" font-family="Helvetica,sans-Serif" font-size="10.00">coap_send</text>
</a>
</g>
</g>
<!-- Node19&#45;&gt;Node25 -->
<g id="edge35" class="edge">
<title>Node19&#45;&gt;Node25</title>
<path fill="none" stroke="midnightblue" d="M1629.17,-217.57C1597.31,-256.62 1521.47,-349.59 1496.57,-380.11"/>
<polygon fill="midnightblue" stroke="midnightblue" points="1631.99,-219.64 1635.6,-209.68 1626.57,-215.22 1631.99,-219.64"/>
</g>
<!-- Node21 -->
<g id="node21" class="node">
<title>Node21</title>
<g id="a_node21"><a xlink:href="group__app__io__internal.html#gaf0cbbb00a6f2f8ac885f0e1575534e34" target="_top" xlink:title="Iterates through all the coap_socket_t structures embedded in endpoints or sessions associated with t...">
<polygon fill="white" stroke="black" points="580.5,-342.5 580.5,-361.5 681.5,-361.5 681.5,-342.5 580.5,-342.5"/>
<text text-anchor="middle" x="631" y="-349.5" font-family="Helvetica,sans-Serif" font-size="10.00">coap_io_prepare_io</text>
</a>
</g>
</g>
<!-- Node20&#45;&gt;Node21 -->
<g id="edge26" class="edge">
<title>Node20&#45;&gt;Node21</title>
<path fill="none" stroke="midnightblue" d="M737.82,-251.31C734.05,-253 730.4,-254.89 727,-257 707.23,-269.26 707.37,-278.47 691,-295 674.16,-312 654.02,-331.24 642.15,-342.45"/>
<polygon fill="midnightblue" stroke="midnightblue" points="739.36,-254.47 747.35,-247.51 736.76,-247.97 739.36,-254.47"/>
</g>
<!-- Node24 -->
<g id="node24" class="node">
<title>Node24</title>
<g id="a_node24"><a xlink:href="coap__io__contiki_8c.html#aaac86ac50793f309678e4951ecf8863f" target="_top" xlink:title=" ">
<polygon fill="white" stroke="black" points="599,-266.5 599,-285.5 663,-285.5 663,-266.5 599,-266.5"/>
<text text-anchor="middle" x="631" y="-273.5" font-family="Helvetica,sans-Serif" font-size="10.00">coap_write</text>
</a>
</g>
</g>
<!-- Node20&#45;&gt;Node24 -->
<g id="edge33" class="edge">
<title>Node20&#45;&gt;Node24</title>
<path fill="none" stroke="midnightblue" d="M739.36,-250.02C714.41,-256.05 684.94,-263.19 663.19,-268.45"/>
<polygon fill="midnightblue" stroke="midnightblue" points="740.49,-253.34 749.38,-247.59 738.84,-246.54 740.49,-253.34"/>
</g>
<!-- Node21&#45;&gt;Node7 -->
<g id="edge31" class="edge">
<title>Node21&#45;&gt;Node7</title>
<path fill="none" stroke="midnightblue" d="M570.18,-357.2C488.52,-364.3 342.67,-376.99 258.26,-384.33"/>
<polygon fill="midnightblue" stroke="midnightblue" points="570.64,-360.68 580.3,-356.32 570.03,-353.7 570.64,-360.68"/>
</g>
<!-- Node21&#45;&gt;Node8 -->
<g id="edge30" class="edge">
<title>Node21&#45;&gt;Node8</title>
<path fill="none" stroke="midnightblue" d="M570.08,-350.24C475.29,-348.37 285.16,-348.26 126,-371 110.74,-373.18 94.11,-376.9 80,-380.48"/>
<polygon fill="midnightblue" stroke="midnightblue" points="570.26,-353.75 580.33,-350.46 570.41,-346.75 570.26,-353.75"/>
</g>
<!-- Node22 -->
<g id="node22" class="node">
<title>Node22</title>
<g id="a_node22"><a xlink:href="group__app__io__internal.html#ga3be92476a2c2c12d68c0cd07795c7e34" target="_top" xlink:title="Any now timed out delayed packet is transmitted, along with any packets associated with requested obs...">
<polygon fill="white" stroke="black" points="422,-380.5 422,-399.5 535,-399.5 535,-380.5 422,-380.5"/>
<text text-anchor="middle" x="478.5" y="-387.5" font-family="Helvetica,sans-Serif" font-size="10.00">coap_io_prepare_epoll</text>
</a>
</g>
</g>
<!-- Node21&#45;&gt;Node22 -->
<g id="edge27" class="edge">
<title>Node21&#45;&gt;Node22</title>
<path fill="none" stroke="midnightblue" d="M582.32,-364.04C561.29,-369.35 536.93,-375.5 517.2,-380.48"/>
<polygon fill="midnightblue" stroke="midnightblue" points="583.18,-367.43 592.02,-361.59 581.47,-360.64 583.18,-367.43"/>
</g>
<!-- Node23 -->
<g id="node23" class="node">
<title>Node23</title>
<g id="a_node23"><a xlink:href="net_8h.html#ab54010e3cade80e1417870c87dcd0402" target="_top" xlink:title=" ">
<polygon fill="white" stroke="black" points="446.5,-418.5 446.5,-437.5 510.5,-437.5 510.5,-418.5 446.5,-418.5"/>
<text text-anchor="middle" x="478.5" y="-425.5" font-family="Helvetica,sans-Serif" font-size="10.00">coap_write</text>
</a>
</g>
</g>
<!-- Node21&#45;&gt;Node23 -->
<g id="edge32" class="edge">
<title>Node21&#45;&gt;Node23</title>
<path fill="none" stroke="midnightblue" d="M607.58,-367.3C588.78,-379.67 560.93,-396.95 535,-409 527.33,-412.56 518.81,-415.81 510.78,-418.58"/>
<polygon fill="midnightblue" stroke="midnightblue" points="609.65,-370.13 616.03,-361.67 605.77,-364.3 609.65,-370.13"/>
</g>
<!-- Node22&#45;&gt;Node6 -->
<g id="edge28" class="edge">
<title>Node22&#45;&gt;Node6</title>
<path fill="none" stroke="midnightblue" d="M433.25,-402.32C414.5,-407.54 392.97,-413.53 375.43,-418.41"/>
<polygon fill="midnightblue" stroke="midnightblue" points="434.36,-405.64 443.06,-399.59 432.48,-398.9 434.36,-405.64"/>
</g>
<!-- Node22&#45;&gt;Node7 -->
<g id="edge29" class="edge">
<title>Node22&#45;&gt;Node7</title>
<path fill="none" stroke="midnightblue" d="M411.77,-390C365.61,-390 304.13,-390 258.11,-390"/>
<polygon fill="midnightblue" stroke="midnightblue" points="411.97,-393.5 421.97,-390 411.97,-386.5 411.97,-393.5"/>
</g>
<!-- Node24&#45;&gt;Node11 -->
<g id="edge34" class="edge">
<title>Node24&#45;&gt;Node11</title>
<path fill="none" stroke="midnightblue" d="M588.45,-278.7C480.7,-285.71 193.29,-304.42 86.6,-311.36"/>
<polygon fill="midnightblue" stroke="midnightblue" points="588.85,-282.19 598.6,-278.04 588.4,-275.2 588.85,-282.19"/>
</g>
<!-- Node25&#45;&gt;Node2 -->
<g id="edge36" class="edge">
<title>Node25&#45;&gt;Node2</title>
<path fill="none" stroke="midnightblue" d="M1475.79,-408.48C1461.29,-431.43 1433.04,-469.44 1397,-485 1325.48,-515.88 1089,-497.67 995.01,-488.9"/>
<polygon fill="midnightblue" stroke="midnightblue" points="1478.94,-410.04 1481.14,-399.68 1472.96,-406.41 1478.94,-410.04"/>
</g>
<!-- Node26 -->
<g id="node26" class="node">
<title>Node26</title>
<g id="a_node26"><a xlink:href="resource_8c.html#ac502b4f7cc5ef8b6d4a6b7b4d940076a" target="_top" xlink:title=" ">
<polygon fill="white" stroke="black" points="1262,-304.5 1262,-323.5 1377,-323.5 1377,-304.5 1262,-304.5"/>
<text text-anchor="middle" x="1319.5" y="-311.5" font-family="Helvetica,sans-Serif" font-size="10.00">coap_notify_observers</text>
</a>
</g>
</g>
<!-- Node25&#45;&gt;Node26 -->
<g id="edge37" class="edge">
<title>Node25&#45;&gt;Node26</title>
<path fill="none" stroke="midnightblue" d="M1465.89,-374.13C1448.41,-361.36 1422.23,-343.82 1397,-333 1388.2,-329.22 1378.49,-326.09 1369.03,-323.53"/>
<polygon fill="midnightblue" stroke="midnightblue" points="1464.08,-377.14 1474.19,-380.31 1468.26,-371.53 1464.08,-377.14"/>
</g>
<!-- Node33 -->
<g id="node33" class="node">
<title>Node33</title>
<g id="a_node33"><a xlink:href="net_8c.html#aba278b109415057d15196fa46afee970" target="_top" xlink:title="Sends an ACK message with code 0 for the specified request to dst.">
<polygon fill="white" stroke="black" points="1277,-456.5 1277,-475.5 1362,-475.5 1362,-456.5 1277,-456.5"/>
<text text-anchor="middle" x="1319.5" y="-463.5" font-family="Helvetica,sans-Serif" font-size="10.00">coap_send_ack</text>
</a>
</g>
</g>
<!-- Node25&#45;&gt;Node33 -->
<g id="edge48" class="edge">
<title>Node25&#45;&gt;Node33</title>
<path fill="none" stroke="midnightblue" d="M1463.66,-405.18C1446.01,-416.43 1420.66,-431.57 1397,-442 1384.14,-447.67 1369.51,-452.6 1356.53,-456.5"/>
<polygon fill="midnightblue" stroke="midnightblue" points="1465.65,-408.06 1472.14,-399.69 1461.85,-402.18 1465.65,-408.06"/>
</g>
<!-- Node35 -->
<g id="node35" class="node">
<title>Node35</title>
<g id="a_node35"><a xlink:href="net_8c.html#ab31cd76353f751ec4dc5c033152df575" target="_top" xlink:title="Sends an error response with code code for request request to dst.">
<polygon fill="white" stroke="black" points="1275,-342.5 1275,-361.5 1364,-361.5 1364,-342.5 1275,-342.5"/>
<text text-anchor="middle" x="1319.5" y="-349.5" font-family="Helvetica,sans-Serif" font-size="10.00">coap_send_error</text>
</a>
</g>
</g>
<!-- Node25&#45;&gt;Node35 -->
<g id="edge51" class="edge">
<title>Node25&#45;&gt;Node35</title>
<path fill="none" stroke="midnightblue" d="M1445.25,-380.56C1419.95,-374.76 1387.64,-367.37 1362.24,-361.56"/>
<polygon fill="midnightblue" stroke="midnightblue" points="1444.75,-384.03 1455.28,-382.85 1446.31,-377.21 1444.75,-384.03"/>
</g>
<!-- Node36 -->
<g id="node36" class="node">
<title>Node36</title>
<g id="a_node36"><a xlink:href="net_8c.html#a6aa830b46188549b51773f724eb8e752" target="_top" xlink:title="Helper funktion to create and send a message with type (usually ACK or RST).">
<polygon fill="white" stroke="black" points="1065,-589.5 1065,-608.5 1198,-608.5 1198,-589.5 1065,-589.5"/>
<text text-anchor="middle" x="1131.5" y="-596.5" font-family="Helvetica,sans-Serif" font-size="10.00">coap_send_message_type</text>
</a>
</g>
</g>
<!-- Node25&#45;&gt;Node36 -->
<g id="edge52" class="edge">
<title>Node25&#45;&gt;Node36</title>
<path fill="none" stroke="midnightblue" d="M1478.15,-409.14C1464.96,-437.16 1436.67,-489.15 1397,-518 1337.77,-561.08 1255.25,-581.58 1198.2,-591.11"/>
<polygon fill="midnightblue" stroke="midnightblue" points="1481.5,-410.22 1482.46,-399.67 1475.13,-407.32 1481.5,-410.22"/>
</g>
<!-- Node38 -->
<g id="node38" class="node">
<title>Node38</title>
<g id="a_node38"><a xlink:href="coap__session_8c.html#ab3f9f60c0a4857c147fef5721025944c" target="_top" xlink:title="Send a ping message for the session.">
<polygon fill="white" stroke="black" points="727,-266.5 727,-285.5 853,-285.5 853,-266.5 727,-266.5"/>
<text text-anchor="middle" x="790" y="-273.5" font-family="Helvetica,sans-Serif" font-size="10.00">coap_session_send_ping</text>
</a>
</g>
</g>
<!-- Node25&#45;&gt;Node38 -->
<g id="edge56" class="edge">
<title>Node25&#45;&gt;Node38</title>
<path fill="none" stroke="midnightblue" d="M1475.71,-371.69C1461.13,-348.93 1432.79,-311.12 1397,-295 1301.39,-251.93 987.51,-264.39 853.04,-272.04"/>
<polygon fill="midnightblue" stroke="midnightblue" points="1472.87,-373.75 1481.1,-380.42 1478.82,-370.07 1472.87,-373.75"/>
</g>
<!-- Node39 -->
<g id="node39" class="node">
<title>Node39</title>
<g id="a_node39"><a xlink:href="net_8c.html#a1a280312c4bad55cf10243b9b9c3e966" target="_top" xlink:title=" ">
<polygon fill="white" stroke="black" points="1090,-380.5 1090,-399.5 1173,-399.5 1173,-380.5 1090,-380.5"/>
<text text-anchor="middle" x="1131.5" y="-387.5" font-family="Helvetica,sans-Serif" font-size="10.00">handle_request</text>
</a>
</g>
</g>
<!-- Node25&#45;&gt;Node39 -->
<g id="edge59" class="edge">
<title>Node25&#45;&gt;Node39</title>
<path fill="none" stroke="midnightblue" d="M1445.01,-390C1376.57,-390 1240.85,-390 1173.04,-390"/>
<polygon fill="midnightblue" stroke="midnightblue" points="1445.4,-393.5 1455.4,-390 1445.4,-386.5 1445.4,-393.5"/>
</g>
<!-- Node40 -->
<g id="node40" class="node">
<title>Node40</title>
<g id="a_node40"><a xlink:href="net_8c.html#ac4cbcfd073489b57805db665ce3d0681" target="_top" xlink:title=" ">
<polygon fill="white" stroke="black" points="1087,-418.5 1087,-437.5 1176,-437.5 1176,-418.5 1087,-418.5"/>
<text text-anchor="middle" x="1131.5" y="-425.5" font-family="Helvetica,sans-Serif" font-size="10.00">handle_signaling</text>
</a>
</g>
</g>
<!-- Node25&#45;&gt;Node40 -->
<g id="edge61" class="edge">
<title>Node25&#45;&gt;Node40</title>
<path fill="none" stroke="midnightblue" d="M1445.03,-397.06C1429.94,-399.48 1412.73,-402.06 1397,-404 1319.43,-413.58 1228.63,-420.99 1176.12,-424.91"/>
<polygon fill="midnightblue" stroke="midnightblue" points="1445.78,-400.48 1455.09,-395.42 1444.66,-393.57 1445.78,-400.48"/>
</g>
<!-- Node27 -->
<g id="node27" class="node">
<title>Node27</title>
<g id="a_node27"><a xlink:href="resource_8c.html#a579bcb559463d3a872831c18d8d9a1c1" target="_top" xlink:title="Checks for all known resources, if they are dirty and notifies subscribed observers.">
<polygon fill="white" stroke="black" points="741,-342.5 741,-361.5 839,-361.5 839,-342.5 741,-342.5"/>
<text text-anchor="middle" x="790" y="-349.5" font-family="Helvetica,sans-Serif" font-size="10.00">coap_check_notify</text>
</a>
</g>
</g>
<!-- Node26&#45;&gt;Node27 -->
<g id="edge38" class="edge">
<title>Node26&#45;&gt;Node27</title>
<path fill="none" stroke="midnightblue" d="M1257.51,-325.29C1240.85,-328.1 1222.77,-330.91 1206,-333 1124.14,-343.21 1103.39,-343.95 1021,-348 958.18,-351.09 885.6,-351.89 839.05,-352.05"/>
<polygon fill="midnightblue" stroke="midnightblue" points="1258.41,-328.68 1267.67,-323.54 1257.23,-321.79 1258.41,-328.68"/>
</g>
<!-- Node28 -->
<g id="node28" class="node">
<title>Node28</title>
<g id="a_node28"><a xlink:href="resource_8c.html#a1307a6b8dadd6d005352ce02f6cf392f" target="_top" xlink:title=" ">
<polygon fill="white" stroke="black" points="1080.5,-304.5 1080.5,-323.5 1182.5,-323.5 1182.5,-304.5 1080.5,-304.5"/>
<text text-anchor="middle" x="1131.5" y="-311.5" font-family="Helvetica,sans-Serif" font-size="10.00">coap_free_resource</text>
</a>
</g>
</g>
<!-- Node26&#45;&gt;Node28 -->
<g id="edge41" class="edge">
<title>Node26&#45;&gt;Node28</title>
<path fill="none" stroke="midnightblue" d="M1251.68,-314C1228.97,-314 1204,-314 1182.8,-314"/>
<polygon fill="midnightblue" stroke="midnightblue" points="1251.94,-317.5 1261.94,-314 1251.94,-310.5 1251.94,-317.5"/>
</g>
<!-- Node27&#45;&gt;Node21 -->
<g id="edge39" class="edge">
<title>Node27&#45;&gt;Node21</title>
<path fill="none" stroke="midnightblue" d="M730.28,-352C714.25,-352 697.05,-352 681.58,-352"/>
<polygon fill="midnightblue" stroke="midnightblue" points="730.61,-355.5 740.61,-352 730.61,-348.5 730.61,-355.5"/>
</g>
<!-- Node27&#45;&gt;Node24 -->
<g id="edge40" class="edge">
<title>Node27&#45;&gt;Node24</title>
<path fill="none" stroke="midnightblue" d="M742.95,-339.27C737.5,-337.36 732.08,-335.26 727,-333 696.43,-319.39 663.53,-297.95 645.59,-285.61"/>
<polygon fill="midnightblue" stroke="midnightblue" points="742.13,-342.68 752.72,-342.5 744.33,-336.03 742.13,-342.68"/>
</g>
<!-- Node29 -->
<g id="node29" class="node">
<title>Node29</title>
<g id="a_node29"><a xlink:href="group__coap__resource.html#ga9a5f0705912b0a35a3d5764e86b94004" target="_top" xlink:title="Registers the given resource for context.">
<polygon fill="white" stroke="black" points="739.5,-304.5 739.5,-323.5 840.5,-323.5 840.5,-304.5 739.5,-304.5"/>
<text text-anchor="middle" x="790" y="-311.5" font-family="Helvetica,sans-Serif" font-size="10.00">coap_add_resource</text>
</a>
</g>
</g>
<!-- Node28&#45;&gt;Node29 -->
<g id="edge42" class="edge">
<title>Node28&#45;&gt;Node29</title>
<path fill="none" stroke="midnightblue" d="M1075.95,-325.36C1058.48,-328.49 1039,-331.45 1021,-333 962.55,-338.03 947.4,-338.61 889,-333 869.68,-331.14 848.51,-327.28 830.8,-323.51"/>
<polygon fill="midnightblue" stroke="midnightblue" points="1076.78,-328.77 1085.97,-323.51 1075.51,-321.89 1076.78,-328.77"/>
</g>
<!-- Node30 -->
<g id="node30" class="node">
<title>Node30</title>
<g id="a_node30"><a xlink:href="group__coap__resource.html#ga1fae3046ad94fce85a7ea23455328958" target="_top" xlink:title="Deletes all resources from given context and frees their storage.">
<polygon fill="white" stroke="black" points="889,-228.5 889,-247.5 1021,-247.5 1021,-228.5 889,-228.5"/>
<text text-anchor="middle" x="955" y="-235.5" font-family="Helvetica,sans-Serif" font-size="10.00">coap_delete_all_resources</text>
</a>
</g>
</g>
<!-- Node28&#45;&gt;Node30 -->
<g id="edge43" class="edge">
<title>Node28&#45;&gt;Node30</title>
<path fill="none" stroke="midnightblue" d="M1099.12,-300.33C1064.15,-285.1 1008.5,-260.87 977.92,-247.55"/>
<polygon fill="midnightblue" stroke="midnightblue" points="1097.83,-303.59 1108.4,-304.37 1100.63,-297.17 1097.83,-303.59"/>
</g>
<!-- Node32 -->
<g id="node32" class="node">
<title>Node32</title>
<g id="a_node32"><a xlink:href="group__coap__resource.html#gad3521b724ad4961e6bb11801fd82a3e3" target="_top" xlink:title="Deletes a resource identified by resource.">
<polygon fill="white" stroke="black" points="899,-304.5 899,-323.5 1011,-323.5 1011,-304.5 899,-304.5"/>
<text text-anchor="middle" x="955" y="-311.5" font-family="Helvetica,sans-Serif" font-size="10.00">coap_delete_resource</text>
</a>
</g>
</g>
<!-- Node28&#45;&gt;Node32 -->
<g id="edge46" class="edge">
<title>Node28&#45;&gt;Node32</title>
<path fill="none" stroke="midnightblue" d="M1070.36,-314C1051.17,-314 1030.04,-314 1011.22,-314"/>
<polygon fill="midnightblue" stroke="midnightblue" points="1070.5,-317.5 1080.5,-314 1070.5,-310.5 1070.5,-317.5"/>
</g>
<!-- Node31 -->
<g id="node31" class="node">
<title>Node31</title>
<g id="a_node31"><a xlink:href="net_8c.html#a4a0717822713783908dd33d300440b2e" target="_top" xlink:title="CoAP stack context must be released with coap_free_context().">
<polygon fill="white" stroke="black" points="741.5,-190.5 741.5,-209.5 838.5,-209.5 838.5,-190.5 741.5,-190.5"/>
<text text-anchor="middle" x="790" y="-197.5" font-family="Helvetica,sans-Serif" font-size="10.00">coap_free_context</text>
</a>
</g>
</g>
<!-- Node30&#45;&gt;Node31 -->
<g id="edge44" class="edge">
<title>Node30&#45;&gt;Node31</title>
<path fill="none" stroke="midnightblue" d="M902.97,-226.1C880.06,-220.76 853.4,-214.55 831.84,-209.52"/>
<polygon fill="midnightblue" stroke="midnightblue" points="902.33,-229.55 912.87,-228.41 903.92,-222.73 902.33,-229.55"/>
</g>
<!-- Node31&#45;&gt;Node14 -->
<g id="edge45" class="edge">
<title>Node31&#45;&gt;Node14</title>
<path fill="none" stroke="midnightblue" d="M731.23,-193.01C714.45,-190.98 696.31,-188.78 680.18,-186.83"/>
<polygon fill="midnightblue" stroke="midnightblue" points="731.12,-196.52 741.47,-194.25 731.96,-189.57 731.12,-196.52"/>
</g>
<!-- Node32&#45;&gt;Node29 -->
<g id="edge47" class="edge">
<title>Node32&#45;&gt;Node29</title>
<path fill="none" stroke="midnightblue" d="M888.48,-314C872.53,-314 855.73,-314 840.65,-314"/>
<polygon fill="midnightblue" stroke="midnightblue" points="888.82,-317.5 898.82,-314 888.82,-310.5 888.82,-317.5"/>
</g>
<!-- Node34 -->
<g id="node34" class="node">
<title>Node34</title>
<g id="a_node34"><a xlink:href="net_8c.html#af838d89087ad96495f8ed7f1a9297168" target="_top" xlink:title=" ">
<polygon fill="white" stroke="black" points="1086.5,-456.5 1086.5,-475.5 1176.5,-475.5 1176.5,-456.5 1086.5,-456.5"/>
<text text-anchor="middle" x="1131.5" y="-463.5" font-family="Helvetica,sans-Serif" font-size="10.00">handle_response</text>
</a>
</g>
</g>
<!-- Node33&#45;&gt;Node34 -->
<g id="edge49" class="edge">
<title>Node33&#45;&gt;Node34</title>
<path fill="none" stroke="midnightblue" d="M1266.65,-466C1238.35,-466 1203.7,-466 1176.7,-466"/>
<polygon fill="midnightblue" stroke="midnightblue" points="1266.76,-469.5 1276.76,-466 1266.76,-462.5 1266.76,-469.5"/>
</g>
<!-- Node34&#45;&gt;Node2 -->
<g id="edge50" class="edge">
<title>Node34&#45;&gt;Node2</title>
<path fill="none" stroke="midnightblue" d="M1076.3,-471.9C1050.07,-474.76 1019.17,-478.12 995.26,-480.73"/>
<polygon fill="midnightblue" stroke="midnightblue" points="1076.9,-475.36 1086.47,-470.79 1076.15,-468.4 1076.9,-475.36"/>
</g>
<!-- Node36&#45;&gt;Node2 -->
<g id="edge53" class="edge">
<title>Node36&#45;&gt;Node2</title>
<path fill="none" stroke="midnightblue" d="M1078.32,-586.02C1070.84,-583.02 1063.49,-579.39 1057,-575 1036.35,-561.04 1039.24,-548.99 1021,-532 1005.41,-517.48 985.24,-503.53 971.53,-494.65"/>
<polygon fill="midnightblue" stroke="midnightblue" points="1077.22,-589.34 1087.81,-589.48 1079.62,-582.77 1077.22,-589.34"/>
</g>
<!-- Node37 -->
<g id="node37" class="node">
<title>Node37</title>
<g id="a_node37"><a xlink:href="net_8h.html#a5854b1394bfddd574e48af116e3aaaf9" target="_top" xlink:title="Sends an RST message with code 0 for the specified request to dst.">
<polygon fill="white" stroke="black" points="915,-541.5 915,-560.5 995,-560.5 995,-541.5 915,-541.5"/>
<text text-anchor="middle" x="955" y="-548.5" font-family="Helvetica,sans-Serif" font-size="10.00">coap_send_rst</text>
</a>
</g>
</g>
<!-- Node36&#45;&gt;Node37 -->
<g id="edge54" class="edge">
<title>Node36&#45;&gt;Node37</title>
<path fill="none" stroke="midnightblue" d="M1085.94,-586.74C1056.39,-578.61 1018.16,-568.1 990.83,-560.58"/>
<polygon fill="midnightblue" stroke="midnightblue" points="1085.04,-590.12 1095.61,-589.4 1086.89,-583.37 1085.04,-590.12"/>
</g>
<!-- Node37&#45;&gt;Node3 -->
<g id="edge55" class="edge">
<title>Node37&#45;&gt;Node3</title>
<path fill="none" stroke="midnightblue" d="M911.36,-538.71C884.14,-530.86 849.38,-520.83 824.22,-513.58"/>
<polygon fill="midnightblue" stroke="midnightblue" points="910.44,-542.08 921.01,-541.49 912.38,-535.36 910.44,-542.08"/>
</g>
<!-- Node38&#45;&gt;Node21 -->
<g id="edge57" class="edge">
<title>Node38&#45;&gt;Node21</title>
<path fill="none" stroke="midnightblue" d="M742.95,-288.73C737.5,-290.64 732.08,-292.74 727,-295 696.43,-308.61 663.53,-330.05 645.59,-342.39"/>
<polygon fill="midnightblue" stroke="midnightblue" points="744.33,-291.97 752.72,-285.5 742.13,-285.32 744.33,-291.97"/>
</g>
<!-- Node38&#45;&gt;Node24 -->
<g id="edge58" class="edge">
<title>Node38&#45;&gt;Node24</title>
<path fill="none" stroke="midnightblue" d="M716.82,-276C697.9,-276 678.49,-276 663.02,-276"/>
<polygon fill="midnightblue" stroke="midnightblue" points="716.95,-279.5 726.95,-276 716.95,-272.5 716.95,-279.5"/>
</g>
<!-- Node39&#45;&gt;Node2 -->
<g id="edge60" class="edge">
<title>Node39&#45;&gt;Node2</title>
<path fill="none" stroke="midnightblue" d="M1079.93,-400.27C1072.07,-402.66 1064.18,-405.54 1057,-409 1020.03,-426.81 983.18,-459.15 966,-475.29"/>
<polygon fill="midnightblue" stroke="midnightblue" points="1081.13,-403.56 1089.82,-397.5 1079.25,-396.82 1081.13,-403.56"/>
</g>
<!-- Node40&#45;&gt;Node2 -->
<g id="edge62" class="edge">
<title>Node40&#45;&gt;Node2</title>
<path fill="none" stroke="midnightblue" d="M1080.39,-440.19C1072.52,-442.32 1064.51,-444.62 1057,-447 1030.03,-455.53 999.74,-467.22 979.42,-475.37"/>
<polygon fill="midnightblue" stroke="midnightblue" points="1081.45,-443.53 1090.23,-437.58 1079.66,-436.76 1081.45,-443.53"/>
</g>
<!-- Node42 -->
<g id="node42" class="node">
<title>Node42</title>
<g id="a_node42"><a xlink:href="coap__session_8c.html#a78865254d0191854b0b7c35f28eefe71" target="_top" xlink:title=" ">
<polygon fill="white" stroke="black" points="1433,-49 1433,-79 1542,-79 1542,-49 1433,-49"/>
<text text-anchor="start" x="1441" y="-67" font-family="Helvetica,sans-Serif" font-size="10.00">coap_session_create</text>
<text text-anchor="middle" x="1487.5" y="-56" font-family="Helvetica,sans-Serif" font-size="10.00">_client</text>
</a>
</g>
</g>
<!-- Node41&#45;&gt;Node42 -->
<g id="edge64" class="edge">
<title>Node41&#45;&gt;Node42</title>
<path fill="none" stroke="midnightblue" d="M1594.35,-89.95C1577.76,-85.88 1559.16,-81.32 1542.24,-77.17"/>
<polygon fill="midnightblue" stroke="midnightblue" points="1593.84,-93.43 1604.39,-92.41 1595.51,-86.63 1593.84,-93.43"/>
</g>
<!-- Node43 -->
<g id="node43" class="node">
<title>Node43</title>
<g id="a_node43"><a xlink:href="coap__session_8c.html#ad495fcd405fa86859fa36d45f89be910" target="_top" xlink:title="Creates a new client session to the designated server.">
<polygon fill="white" stroke="black" points="1255.5,-76.5 1255.5,-95.5 1383.5,-95.5 1383.5,-76.5 1255.5,-76.5"/>
<text text-anchor="middle" x="1319.5" y="-83.5" font-family="Helvetica,sans-Serif" font-size="10.00">coap_new_client_session</text>
</a>
</g>
</g>
<!-- Node42&#45;&gt;Node43 -->
<g id="edge65" class="edge">
<title>Node42&#45;&gt;Node43</title>
<path fill="none" stroke="midnightblue" d="M1422.53,-72.48C1409.78,-74.17 1396.39,-75.94 1383.66,-77.63"/>
<polygon fill="midnightblue" stroke="midnightblue" points="1423.15,-75.93 1432.6,-71.14 1422.23,-68.99 1423.15,-75.93"/>
</g>
<!-- Node44 -->
<g id="node44" class="node">
<title>Node44</title>
<g id="a_node44"><a xlink:href="coap__session_8c.html#ac63f29af82e4d3160c59b8451aa5868c" target="_top" xlink:title="Creates a new client session to the designated server with PKI credentials.">
<polygon fill="white" stroke="black" points="1246.5,-38.5 1246.5,-57.5 1392.5,-57.5 1392.5,-38.5 1246.5,-38.5"/>
<text text-anchor="middle" x="1319.5" y="-45.5" font-family="Helvetica,sans-Serif" font-size="10.00">coap_new_client_session_pki</text>
</a>
</g>
</g>
<!-- Node42&#45;&gt;Node44 -->
<g id="edge66" class="edge">
<title>Node42&#45;&gt;Node44</title>
<path fill="none" stroke="midnightblue" d="M1422.53,-57.83C1412.72,-56.89 1402.52,-55.91 1392.55,-54.94"/>
<polygon fill="midnightblue" stroke="midnightblue" points="1422.31,-61.33 1432.6,-58.81 1422.99,-54.36 1422.31,-61.33"/>
</g>
<!-- Node45 -->
<g id="node45" class="node">
<title>Node45</title>
<g id="a_node45"><a xlink:href="coap__session_8c.html#a72062f436d246bf3e91f92c12b2990a6" target="_top" xlink:title="Creates a new client session to the designated server with PSK credentials.">
<polygon fill="white" stroke="black" points="1242,-0.5 1242,-19.5 1397,-19.5 1397,-0.5 1242,-0.5"/>
<text text-anchor="middle" x="1319.5" y="-7.5" font-family="Helvetica,sans-Serif" font-size="10.00">coap_new_client_session_psk2</text>
</a>
</g>
</g>
<!-- Node42&#45;&gt;Node45 -->
<g id="edge67" class="edge">
<title>Node42&#45;&gt;Node45</title>
<path fill="none" stroke="midnightblue" d="M1441.66,-45.16C1427.51,-39.56 1411.73,-33.69 1397,-29 1386.18,-25.56 1374.33,-22.35 1363.26,-19.58"/>
<polygon fill="midnightblue" stroke="midnightblue" points="1440.58,-48.49 1451.17,-48.96 1443.19,-42 1440.58,-48.49"/>
</g>
<!-- Node46 -->
<g id="node46" class="node">
<title>Node46</title>
<g id="a_node46"><a xlink:href="coap__session_8c.html#a40790c70df0b38fe89f3fb2ad255d662" target="_top" xlink:title="Creates a new client session to the designated server with PSK credentials.">
<polygon fill="white" stroke="black" points="1057,-0.5 1057,-19.5 1206,-19.5 1206,-0.5 1057,-0.5"/>
<text text-anchor="middle" x="1131.5" y="-7.5" font-family="Helvetica,sans-Serif" font-size="10.00">coap_new_client_session_psk</text>
</a>
</g>
</g>
<!-- Node45&#45;&gt;Node46 -->
<g id="edge68" class="edge">
<title>Node45&#45;&gt;Node46</title>
<path fill="none" stroke="midnightblue" d="M1231.74,-10C1223.15,-10 1214.49,-10 1206.06,-10"/>
<polygon fill="midnightblue" stroke="midnightblue" points="1231.77,-13.5 1241.77,-10 1231.77,-6.5 1231.77,-13.5"/>
</g>
</g>
</svg>
