<?xml version="1.0" encoding="UTF-8" standalone="no"?>
<!DOCTYPE svg PUBLIC "-//W3C//DTD SVG 1.1//EN"
 "http://www.w3.org/Graphics/SVG/1.1/DTD/svg11.dtd">
<!-- Generated by graphviz version 2.43.0 (0)
 -->
<!-- Title: coap_free_endpoint Pages: 1 -->
<svg width="861pt" height="414pt"
 viewBox="0.00 0.00 861.00 413.50" xmlns="http://www.w3.org/2000/svg" xmlns:xlink="http://www.w3.org/1999/xlink">
<g id="graph0" class="graph" transform="scale(1 1) rotate(0) translate(4 409.5)">
<title>coap_free_endpoint</title>
<polygon fill="white" stroke="transparent" points="-4,4 -4,-409.5 857,-409.5 857,4 -4,4"/>
<!-- Node1 -->
<g id="node1" class="node">
<title>Node1</title>
<g id="a_node1"><a xlink:title=" ">
<polygon fill="#bfbfbf" stroke="black" points="0,-44 0,-63 101,-63 101,-44 0,-44"/>
<text text-anchor="middle" x="50.5" y="-51" font-family="Helvetica,sans-Serif" font-size="10.00">coap_free_endpoint</text>
</a>
</g>
</g>
<!-- Node2 -->
<g id="node2" class="node">
<title>Node2</title>
<g id="a_node2"><a xlink:href="coap__io_8c.html#ae7093e5952bbf283a46b912156ec32ae" target="_top" xlink:title=" ">
<polygon fill="white" stroke="black" points="137,-44 137,-63 247,-63 247,-44 137,-44"/>
<text text-anchor="middle" x="192" y="-51" font-family="Helvetica,sans-Serif" font-size="10.00">coap_mfree_endpoint</text>
</a>
</g>
</g>
<!-- Node1&#45;&gt;Node2 -->
<g id="edge1" class="edge">
<title>Node1&#45;&gt;Node2</title>
<path fill="none" stroke="midnightblue" d="M101.08,-53.5C109.41,-53.5 118.16,-53.5 126.79,-53.5"/>
<polygon fill="midnightblue" stroke="midnightblue" points="126.85,-57 136.85,-53.5 126.85,-50 126.85,-57"/>
</g>
<!-- Node4 -->
<g id="node4" class="node">
<title>Node4</title>
<g id="a_node4"><a xlink:href="coap__session_8c.html#ab3d24595515d6f66805791a7f821d5e7" target="_top" xlink:title=" ">
<polygon fill="white" stroke="black" points="143,-196 143,-215 241,-215 241,-196 143,-196"/>
<text text-anchor="middle" x="192" y="-203" font-family="Helvetica,sans-Serif" font-size="10.00">coap_session_free</text>
</a>
</g>
</g>
<!-- Node1&#45;&gt;Node4 -->
<g id="edge3" class="edge">
<title>Node1&#45;&gt;Node4</title>
<path fill="none" stroke="midnightblue" d="M60.23,-63.01C83.22,-88.07 145.74,-156.18 175.22,-188.3"/>
<polygon fill="midnightblue" stroke="midnightblue" points="172.94,-190.99 182.28,-196 178.09,-186.26 172.94,-190.99"/>
</g>
<!-- Node14 -->
<g id="node14" class="node">
<title>Node14</title>
<g id="a_node14"><a xlink:href="coap__io_8c.html#a2de382e7795c908d1a376da8c338386d" target="_top" xlink:title=" ">
<polygon fill="white" stroke="black" points="439.5,-6 439.5,-25 540.5,-25 540.5,-6 439.5,-6"/>
<text text-anchor="middle" x="490" y="-13" font-family="Helvetica,sans-Serif" font-size="10.00">coap_socket_close</text>
</a>
</g>
</g>
<!-- Node1&#45;&gt;Node14 -->
<g id="edge29" class="edge">
<title>Node1&#45;&gt;Node14</title>
<path fill="none" stroke="midnightblue" d="M88.29,-43.93C103.3,-40.39 120.88,-36.71 137,-34.5 238.94,-20.52 358.79,-16.71 429.07,-15.74"/>
<polygon fill="midnightblue" stroke="midnightblue" points="429.54,-19.23 439.5,-15.61 429.45,-12.23 429.54,-19.23"/>
</g>
<!-- Node3 -->
<g id="node3" class="node">
<title>Node3</title>
<g id="a_node3"><a xlink:href="mem_8h.html#ae7214e0c73a4d4290525873e739ed422" target="_top" xlink:title="Releases the memory that was allocated by coap_malloc_type().">
<polygon fill="white" stroke="black" points="759,-196 759,-215 842,-215 842,-196 759,-196"/>
<text text-anchor="middle" x="800.5" y="-203" font-family="Helvetica,sans-Serif" font-size="10.00">coap_free_type</text>
</a>
</g>
</g>
<!-- Node2&#45;&gt;Node3 -->
<g id="edge2" class="edge">
<title>Node2&#45;&gt;Node3</title>
<path fill="none" stroke="midnightblue" d="M247.1,-46.08C345.73,-35.18 558.76,-23.93 712,-103.5 748.22,-122.3 775.79,-163.03 789.62,-186.94"/>
<polygon fill="midnightblue" stroke="midnightblue" points="786.62,-188.74 794.55,-195.76 792.73,-185.33 786.62,-188.74"/>
</g>
<!-- Node4&#45;&gt;Node3 -->
<g id="edge4" class="edge">
<title>Node4&#45;&gt;Node3</title>
<path fill="none" stroke="midnightblue" d="M212.58,-195.93C282.69,-163.03 526.89,-60.33 712,-129.5 743.08,-141.11 770.42,-169.29 785.95,-187.88"/>
<polygon fill="midnightblue" stroke="midnightblue" points="783.4,-190.3 792.4,-195.89 788.85,-185.91 783.4,-190.3"/>
</g>
<!-- Node5 -->
<g id="node5" class="node">
<title>Node5</title>
<g id="a_node5"><a xlink:href="coap__session_8c.html#ab91ca670624ee770714727efff274c49" target="_top" xlink:title=" ">
<polygon fill="white" stroke="black" points="283,-196 283,-215 390,-215 390,-196 283,-196"/>
<text text-anchor="middle" x="336.5" y="-203" font-family="Helvetica,sans-Serif" font-size="10.00">coap_session_mfree</text>
</a>
</g>
</g>
<!-- Node4&#45;&gt;Node5 -->
<g id="edge5" class="edge">
<title>Node4&#45;&gt;Node5</title>
<path fill="none" stroke="midnightblue" d="M241.24,-205.5C251.4,-205.5 262.26,-205.5 272.86,-205.5"/>
<polygon fill="midnightblue" stroke="midnightblue" points="272.91,-209 282.91,-205.5 272.91,-202 272.91,-209"/>
</g>
<!-- Node18 -->
<g id="node18" class="node">
<title>Node18</title>
<g id="a_node18"><a xlink:href="group__logging.html#ga8b690dbed6cc3a5beb81ba5d2d27d290" target="_top" xlink:title="Get session description.">
<polygon fill="white" stroke="black" points="290,-386 290,-405 383,-405 383,-386 290,-386"/>
<text text-anchor="middle" x="336.5" y="-393" font-family="Helvetica,sans-Serif" font-size="10.00">coap_session_str</text>
</a>
</g>
</g>
<!-- Node4&#45;&gt;Node18 -->
<g id="edge26" class="edge">
<title>Node4&#45;&gt;Node18</title>
<path fill="none" stroke="midnightblue" d="M195.8,-215.1C204.36,-242.91 232.69,-324.5 283,-371.5 287.07,-375.31 291.86,-378.59 296.85,-381.4"/>
<polygon fill="midnightblue" stroke="midnightblue" points="295.44,-384.61 305.95,-385.96 298.57,-378.35 295.44,-384.61"/>
</g>
<!-- Node6 -->
<g id="node6" class="node">
<title>Node6</title>
<g id="a_node6"><a xlink:href="group__cache.html#ga09e46fc4bba8b37115a3fb964b76b21c" target="_top" xlink:title="Remove a cache&#45;entry from the hash list and free off all the appropriate contents apart from app_data...">
<polygon fill="white" stroke="black" points="426,-234 426,-253 554,-253 554,-234 426,-234"/>
<text text-anchor="middle" x="490" y="-241" font-family="Helvetica,sans-Serif" font-size="10.00">coap_delete_cache_entry</text>
</a>
</g>
</g>
<!-- Node5&#45;&gt;Node6 -->
<g id="edge6" class="edge">
<title>Node5&#45;&gt;Node6</title>
<path fill="none" stroke="midnightblue" d="M375.73,-215.09C395.63,-220.08 420.16,-226.23 441.29,-231.53"/>
<polygon fill="midnightblue" stroke="midnightblue" points="440.49,-234.94 451.05,-233.98 442.2,-228.15 440.49,-234.94"/>
</g>
<!-- Node8 -->
<g id="node8" class="node">
<title>Node8</title>
<g id="a_node8"><a xlink:href="pdu_8c.html#a48581f968a30ef4278702eb1c16b7a90" target="_top" xlink:title="Dispose of an CoAP PDU and frees associated storage.">
<polygon fill="white" stroke="black" points="606,-272 606,-291 696,-291 696,-272 606,-272"/>
<text text-anchor="middle" x="651" y="-279" font-family="Helvetica,sans-Serif" font-size="10.00">coap_delete_pdu</text>
</a>
</g>
</g>
<!-- Node5&#45;&gt;Node8 -->
<g id="edge18" class="edge">
<title>Node5&#45;&gt;Node8</title>
<path fill="none" stroke="midnightblue" d="M348.3,-215C364.1,-228.29 395.03,-251.95 426,-262.5 481.64,-281.46 549.34,-284.69 595.66,-284.13"/>
<polygon fill="midnightblue" stroke="midnightblue" points="595.85,-287.63 605.78,-283.94 595.72,-280.63 595.85,-287.63"/>
</g>
<!-- Node9 -->
<g id="node9" class="node">
<title>Node9</title>
<g id="a_node9"><a xlink:href="net_8c.html#a44c39a2314035989d3e07b9d9328e08c" target="_top" xlink:title="Destroys specified node.">
<polygon fill="white" stroke="black" points="442.5,-310 442.5,-329 537.5,-329 537.5,-310 442.5,-310"/>
<text text-anchor="middle" x="490" y="-317" font-family="Helvetica,sans-Serif" font-size="10.00">coap_delete_node</text>
</a>
</g>
</g>
<!-- Node5&#45;&gt;Node9 -->
<g id="edge12" class="edge">
<title>Node5&#45;&gt;Node9</title>
<path fill="none" stroke="midnightblue" d="M344.72,-215.25C358.61,-233.37 390.78,-272.48 426,-295.5 432.26,-299.59 439.33,-303.14 446.4,-306.16"/>
<polygon fill="midnightblue" stroke="midnightblue" points="445.4,-309.52 455.98,-309.94 447.97,-303.01 445.4,-309.52"/>
</g>
<!-- Node12 -->
<g id="node12" class="node">
<title>Node12</title>
<g id="a_node12"><a xlink:href="coap__dtls__gnutls_8c.html#a89102d85f6cce550adf91b075a6326c7" target="_top" xlink:title=" ">
<polygon fill="white" stroke="black" points="430.5,-196 430.5,-215 549.5,-215 549.5,-196 430.5,-196"/>
<text text-anchor="middle" x="490" y="-203" font-family="Helvetica,sans-Serif" font-size="10.00">coap_dtls_free_session</text>
</a>
</g>
</g>
<!-- Node5&#45;&gt;Node12 -->
<g id="edge19" class="edge">
<title>Node5&#45;&gt;Node12</title>
<path fill="none" stroke="midnightblue" d="M390.06,-205.5C399.8,-205.5 410.11,-205.5 420.25,-205.5"/>
<polygon fill="midnightblue" stroke="midnightblue" points="420.31,-209 430.31,-205.5 420.31,-202 420.31,-209"/>
</g>
<!-- Node13 -->
<g id="node13" class="node">
<title>Node13</title>
<g id="a_node13"><a xlink:href="mem_8h.html#a1e46a1505bb13f03fdacd5d1b32502a6" target="_top" xlink:title="Wrapper function to coap_free_type() for backwards compatibility.">
<polygon fill="white" stroke="black" points="621.5,-139 621.5,-158 680.5,-158 680.5,-139 621.5,-139"/>
<text text-anchor="middle" x="651" y="-146" font-family="Helvetica,sans-Serif" font-size="10.00">coap_free</text>
</a>
</g>
</g>
<!-- Node5&#45;&gt;Node13 -->
<g id="edge20" class="edge">
<title>Node5&#45;&gt;Node13</title>
<path fill="none" stroke="midnightblue" d="M347.92,-195.87C363.51,-182.19 394.44,-157.78 426,-148.5 488.82,-130.02 565.91,-135.85 611.32,-142.01"/>
<polygon fill="midnightblue" stroke="midnightblue" points="610.94,-145.49 621.33,-143.44 611.93,-138.56 610.94,-145.49"/>
</g>
<!-- Node5&#45;&gt;Node14 -->
<g id="edge22" class="edge">
<title>Node5&#45;&gt;Node14</title>
<path fill="none" stroke="midnightblue" d="M345.22,-195.82C369.33,-165.59 443.44,-72.64 474.78,-33.34"/>
<polygon fill="midnightblue" stroke="midnightblue" points="477.61,-35.39 481.11,-25.39 472.14,-31.03 477.61,-35.39"/>
</g>
<!-- Node17 -->
<g id="node17" class="node">
<title>Node17</title>
<g id="a_node17"><a xlink:href="coap__notls_8c.html#aa317934415639e23b64a3bd0b4edde6c" target="_top" xlink:title=" ">
<polygon fill="white" stroke="black" points="433,-158 433,-177 547,-177 547,-158 433,-158"/>
<text text-anchor="middle" x="490" y="-165" font-family="Helvetica,sans-Serif" font-size="10.00">coap_tls_free_session</text>
</a>
</g>
</g>
<!-- Node5&#45;&gt;Node17 -->
<g id="edge25" class="edge">
<title>Node5&#45;&gt;Node17</title>
<path fill="none" stroke="midnightblue" d="M375.73,-195.91C395.63,-190.92 420.16,-184.77 441.29,-179.47"/>
<polygon fill="midnightblue" stroke="midnightblue" points="442.2,-182.85 451.05,-177.02 440.49,-176.06 442.2,-182.85"/>
</g>
<!-- Node6&#45;&gt;Node3 -->
<g id="edge11" class="edge">
<title>Node6&#45;&gt;Node3</title>
<path fill="none" stroke="midnightblue" d="M554.12,-240.23C598.47,-237.4 659.07,-232.49 712,-224.5 724.61,-222.6 738.13,-219.96 750.68,-217.26"/>
<polygon fill="midnightblue" stroke="midnightblue" points="751.49,-220.66 760.5,-215.09 749.98,-213.83 751.49,-220.66"/>
</g>
<!-- Node7 -->
<g id="node7" class="node">
<title>Node7</title>
<g id="a_node7"><a xlink:href="group__cache.html#ga1930bf91ebbff5d5974ce0d55d2895b3" target="_top" xlink:title="Delete the cache&#45;key.">
<polygon fill="white" stroke="black" points="590,-196 590,-215 712,-215 712,-196 590,-196"/>
<text text-anchor="middle" x="651" y="-203" font-family="Helvetica,sans-Serif" font-size="10.00">coap_delete_cache_key</text>
</a>
</g>
</g>
<!-- Node6&#45;&gt;Node7 -->
<g id="edge7" class="edge">
<title>Node6&#45;&gt;Node7</title>
<path fill="none" stroke="midnightblue" d="M531.12,-233.91C552.1,-228.9 577.98,-222.71 600.23,-217.39"/>
<polygon fill="midnightblue" stroke="midnightblue" points="601.25,-220.75 610.17,-215.02 599.63,-213.94 601.25,-220.75"/>
</g>
<!-- Node6&#45;&gt;Node8 -->
<g id="edge9" class="edge">
<title>Node6&#45;&gt;Node8</title>
<path fill="none" stroke="midnightblue" d="M531.12,-253.09C552.1,-258.1 577.98,-264.29 600.23,-269.61"/>
<polygon fill="midnightblue" stroke="midnightblue" points="599.63,-273.06 610.17,-271.98 601.25,-266.25 599.63,-273.06"/>
</g>
<!-- Node7&#45;&gt;Node3 -->
<g id="edge8" class="edge">
<title>Node7&#45;&gt;Node3</title>
<path fill="none" stroke="midnightblue" d="M712.42,-205.5C724.48,-205.5 737.03,-205.5 748.73,-205.5"/>
<polygon fill="midnightblue" stroke="midnightblue" points="748.75,-209 758.75,-205.5 748.75,-202 748.75,-209"/>
</g>
<!-- Node8&#45;&gt;Node3 -->
<g id="edge10" class="edge">
<title>Node8&#45;&gt;Node3</title>
<path fill="none" stroke="midnightblue" d="M678.38,-271.97C688.99,-267.88 701.23,-262.81 712,-257.5 734.46,-246.42 758.88,-231.66 776.19,-220.7"/>
<polygon fill="midnightblue" stroke="midnightblue" points="778.49,-223.39 785.03,-215.05 774.72,-217.49 778.49,-223.39"/>
</g>
<!-- Node9&#45;&gt;Node8 -->
<g id="edge13" class="edge">
<title>Node9&#45;&gt;Node8</title>
<path fill="none" stroke="midnightblue" d="M531.12,-309.91C552.1,-304.9 577.98,-298.71 600.23,-293.39"/>
<polygon fill="midnightblue" stroke="midnightblue" points="601.25,-296.75 610.17,-291.02 599.63,-289.94 601.25,-296.75"/>
</g>
<!-- Node10 -->
<g id="node10" class="node">
<title>Node10</title>
<g id="a_node10"><a xlink:href="net_8c.html#aa2f296838e4a779197c43b254e385ddc" target="_top" xlink:title=" ">
<polygon fill="white" stroke="black" points="608,-310 608,-329 694,-329 694,-310 608,-310"/>
<text text-anchor="middle" x="651" y="-317" font-family="Helvetica,sans-Serif" font-size="10.00">coap_free_node</text>
</a>
</g>
</g>
<!-- Node9&#45;&gt;Node10 -->
<g id="edge14" class="edge">
<title>Node9&#45;&gt;Node10</title>
<path fill="none" stroke="midnightblue" d="M537.85,-319.5C556.64,-319.5 578.37,-319.5 597.68,-319.5"/>
<polygon fill="midnightblue" stroke="midnightblue" points="597.82,-323 607.82,-319.5 597.82,-316 597.82,-323"/>
</g>
<!-- Node11 -->
<g id="node11" class="node">
<title>Node11</title>
<g id="a_node11"><a xlink:href="coap__session_8c.html#a9aee135ba884d7c143b11bc42fd23e53" target="_top" xlink:title="Decrement reference counter on a session.">
<polygon fill="white" stroke="black" points="594.5,-348 594.5,-367 707.5,-367 707.5,-348 594.5,-348"/>
<text text-anchor="middle" x="651" y="-355" font-family="Helvetica,sans-Serif" font-size="10.00">coap_session_release</text>
</a>
</g>
</g>
<!-- Node9&#45;&gt;Node11 -->
<g id="edge16" class="edge">
<title>Node9&#45;&gt;Node11</title>
<path fill="none" stroke="midnightblue" d="M531.12,-329.09C552.1,-334.1 577.98,-340.29 600.23,-345.61"/>
<polygon fill="midnightblue" stroke="midnightblue" points="599.63,-349.06 610.17,-347.98 601.25,-342.25 599.63,-349.06"/>
</g>
<!-- Node10&#45;&gt;Node3 -->
<g id="edge15" class="edge">
<title>Node10&#45;&gt;Node3</title>
<path fill="none" stroke="midnightblue" d="M692.35,-309.92C699.19,-307.41 706.01,-304.31 712,-300.5 744.14,-280.06 772.15,-244.92 787.36,-223.58"/>
<polygon fill="midnightblue" stroke="midnightblue" points="790.42,-225.32 793.25,-215.11 784.67,-221.33 790.42,-225.32"/>
</g>
<!-- Node11&#45;&gt;Node4 -->
<g id="edge17" class="edge">
<title>Node11&#45;&gt;Node4</title>
<path fill="none" stroke="midnightblue" d="M594.42,-359.37C548.3,-359.38 481.53,-355.78 426,-338.5 340.77,-311.98 252.58,-250.64 213.62,-221.47"/>
<polygon fill="midnightblue" stroke="midnightblue" points="215.31,-218.35 205.22,-215.1 211.08,-223.93 215.31,-218.35"/>
</g>
<!-- Node13&#45;&gt;Node3 -->
<g id="edge21" class="edge">
<title>Node13&#45;&gt;Node3</title>
<path fill="none" stroke="midnightblue" d="M676.69,-158.04C700.94,-167.41 738.14,-181.79 765.24,-192.26"/>
<polygon fill="midnightblue" stroke="midnightblue" points="764.14,-195.59 774.73,-195.93 766.67,-189.06 764.14,-195.59"/>
</g>
<!-- Node15 -->
<g id="node15" class="node">
<title>Node15</title>
<g id="a_node15"><a xlink:href="coap__io_8c.html#ad3119e077bde4ee15a65271de0b70531" target="_top" xlink:title=" ">
<polygon fill="white" stroke="black" points="597,-6 597,-25 705,-25 705,-6 597,-6"/>
<text text-anchor="middle" x="651" y="-13" font-family="Helvetica,sans-Serif" font-size="10.00">coap_socket_strerror</text>
</a>
</g>
</g>
<!-- Node14&#45;&gt;Node15 -->
<g id="edge23" class="edge">
<title>Node14&#45;&gt;Node15</title>
<path fill="none" stroke="midnightblue" d="M540.87,-15.5C555.3,-15.5 571.25,-15.5 586.4,-15.5"/>
<polygon fill="midnightblue" stroke="midnightblue" points="586.73,-19 596.73,-15.5 586.73,-12 586.73,-19"/>
</g>
<!-- Node16 -->
<g id="node16" class="node">
<title>Node16</title>
<g id="a_node16"><a xlink:href="coap__io_8c.html#ae0cc13e29656551862a46150320f9390" target="_top" xlink:title=" ">
<polygon fill="white" stroke="black" points="748,-0.5 748,-30.5 853,-30.5 853,-0.5 748,-0.5"/>
<text text-anchor="start" x="756" y="-18.5" font-family="Helvetica,sans-Serif" font-size="10.00">coap_socket_format</text>
<text text-anchor="middle" x="800.5" y="-7.5" font-family="Helvetica,sans-Serif" font-size="10.00">_errno</text>
</a>
</g>
</g>
<!-- Node15&#45;&gt;Node16 -->
<g id="edge24" class="edge">
<title>Node15&#45;&gt;Node16</title>
<path fill="none" stroke="midnightblue" d="M705.25,-15.5C715.76,-15.5 726.87,-15.5 737.63,-15.5"/>
<polygon fill="midnightblue" stroke="midnightblue" points="737.81,-19 747.81,-15.5 737.81,-12 737.81,-19"/>
</g>
<!-- Node19 -->
<g id="node19" class="node">
<title>Node19</title>
<g id="a_node19"><a xlink:href="group__logging.html#ga6a4f5ef637bf85aa161adfe73ac81ff0" target="_top" xlink:title="Print the address into the defined buffer.">
<polygon fill="white" stroke="black" points="447,-386 447,-405 533,-405 533,-386 447,-386"/>
<text text-anchor="middle" x="490" y="-393" font-family="Helvetica,sans-Serif" font-size="10.00">coap_print_addr</text>
</a>
</g>
</g>
<!-- Node18&#45;&gt;Node19 -->
<g id="edge27" class="edge">
<title>Node18&#45;&gt;Node19</title>
<path fill="none" stroke="midnightblue" d="M383.37,-395.5C400.1,-395.5 419.15,-395.5 436.42,-395.5"/>
<polygon fill="midnightblue" stroke="midnightblue" points="436.91,-399 446.91,-395.5 436.91,-392 436.91,-399"/>
</g>
<!-- Node20 -->
<g id="node20" class="node">
<title>Node20</title>
<g id="a_node20"><a xlink:href="coap__debug_8c.html#aaa5ee5c2942fe13271a46000b2aebde6" target="_top" xlink:title="A length&#45;safe strlen() fake.">
<polygon fill="white" stroke="black" points="628,-386 628,-405 674,-405 674,-386 628,-386"/>
<text text-anchor="middle" x="651" y="-393" font-family="Helvetica,sans-Serif" font-size="10.00">strnlen</text>
</a>
</g>
</g>
<!-- Node19&#45;&gt;Node20 -->
<g id="edge28" class="edge">
<title>Node19&#45;&gt;Node20</title>
<path fill="none" stroke="midnightblue" d="M533.19,-395.5C559.64,-395.5 593.21,-395.5 617.57,-395.5"/>
<polygon fill="midnightblue" stroke="midnightblue" points="617.72,-399 627.72,-395.5 617.72,-392 617.72,-399"/>
</g>
</g>
</svg>
