<?xml version="1.0" encoding="UTF-8" standalone="no"?>
<!DOCTYPE svg PUBLIC "-//W3C//DTD SVG 1.1//EN"
 "http://www.w3.org/Graphics/SVG/1.1/DTD/svg11.dtd">
<!-- Generated by graphviz version 2.43.0 (0)
 -->
<!-- Title: coap_endpoint_get_session Pages: 1 -->
<svg width="893pt" height="370pt"
 viewBox="0.00 0.00 893.00 370.00" xmlns="http://www.w3.org/2000/svg" xmlns:xlink="http://www.w3.org/1999/xlink">
<g id="graph0" class="graph" transform="scale(1 1) rotate(0) translate(4 366)">
<title>coap_endpoint_get_session</title>
<polygon fill="white" stroke="transparent" points="-4,4 -4,-366 889,-366 889,4 -4,4"/>
<!-- Node1 -->
<g id="node1" class="node">
<title>Node1</title>
<g id="a_node1"><a xlink:title=" ">
<polygon fill="#bfbfbf" stroke="black" points="0,-57.5 0,-76.5 137,-76.5 137,-57.5 0,-57.5"/>
<text text-anchor="middle" x="68.5" y="-64.5" font-family="Helvetica,sans-Serif" font-size="10.00">coap_endpoint_get_session</text>
</a>
</g>
</g>
<!-- Node2 -->
<g id="node2" class="node">
<title>Node2</title>
<g id="a_node2"><a xlink:href="coap__session_8c.html#a492e784d51a3c04c4cd03662c263c64f" target="_top" xlink:title=" ">
<polygon fill="white" stroke="black" points="173,-266.5 173,-285.5 279,-285.5 279,-266.5 173,-266.5"/>
<text text-anchor="middle" x="226" y="-273.5" font-family="Helvetica,sans-Serif" font-size="10.00">coap_make_session</text>
</a>
</g>
</g>
<!-- Node1&#45;&gt;Node2 -->
<g id="edge1" class="edge">
<title>Node1&#45;&gt;Node2</title>
<path fill="none" stroke="midnightblue" d="M76.59,-76.52C100.77,-109.03 180.31,-215.93 211.9,-258.39"/>
<polygon fill="midnightblue" stroke="midnightblue" points="209.1,-260.49 217.87,-266.42 214.71,-256.31 209.1,-260.49"/>
</g>
<!-- Node7 -->
<g id="node7" class="node">
<title>Node7</title>
<g id="a_node7"><a xlink:href="coap__session_8c.html#ab3d24595515d6f66805791a7f821d5e7" target="_top" xlink:title=" ">
<polygon fill="white" stroke="black" points="177,-57.5 177,-76.5 275,-76.5 275,-57.5 177,-57.5"/>
<text text-anchor="middle" x="226" y="-64.5" font-family="Helvetica,sans-Serif" font-size="10.00">coap_session_free</text>
</a>
</g>
</g>
<!-- Node1&#45;&gt;Node7 -->
<g id="edge6" class="edge">
<title>Node1&#45;&gt;Node7</title>
<path fill="none" stroke="midnightblue" d="M137.25,-67C146.99,-67 156.94,-67 166.48,-67"/>
<polygon fill="midnightblue" stroke="midnightblue" points="166.63,-70.5 176.63,-67 166.63,-63.5 166.63,-70.5"/>
</g>
<!-- Node22 -->
<g id="node22" class="node">
<title>Node22</title>
<g id="a_node22"><a xlink:href="group__logging.html#ga8b690dbed6cc3a5beb81ba5d2d27d290" target="_top" xlink:title="Get session description.">
<polygon fill="white" stroke="black" points="322,-0.5 322,-19.5 415,-19.5 415,-0.5 322,-0.5"/>
<text text-anchor="middle" x="368.5" y="-7.5" font-family="Helvetica,sans-Serif" font-size="10.00">coap_session_str</text>
</a>
</g>
</g>
<!-- Node1&#45;&gt;Node22 -->
<g id="edge32" class="edge">
<title>Node1&#45;&gt;Node22</title>
<path fill="none" stroke="midnightblue" d="M119.38,-57.46C172.57,-47.29 256.6,-31.21 311.89,-20.64"/>
<polygon fill="midnightblue" stroke="midnightblue" points="312.7,-24.05 321.86,-18.73 311.38,-17.17 312.7,-24.05"/>
</g>
<!-- Node3 -->
<g id="node3" class="node">
<title>Node3</title>
<g id="a_node3"><a xlink:href="address_8h.html#ada8c7f0dd95000bb418860b970d8cb9f" target="_top" xlink:title=" ">
<polygon fill="white" stroke="black" points="316.5,-342.5 316.5,-361.5 420.5,-361.5 420.5,-342.5 316.5,-342.5"/>
<text text-anchor="middle" x="368.5" y="-349.5" font-family="Helvetica,sans-Serif" font-size="10.00">coap_address_copy</text>
</a>
</g>
</g>
<!-- Node2&#45;&gt;Node3 -->
<g id="edge2" class="edge">
<title>Node2&#45;&gt;Node3</title>
<path fill="none" stroke="midnightblue" d="M239.86,-285.67C256.52,-297.89 286.8,-318.99 315,-333 319.12,-335.04 323.51,-336.98 327.93,-338.78"/>
<polygon fill="midnightblue" stroke="midnightblue" points="326.98,-342.17 337.57,-342.5 329.5,-335.64 326.98,-342.17"/>
</g>
<!-- Node4 -->
<g id="node4" class="node">
<title>Node4</title>
<g id="a_node4"><a xlink:href="address_8c.html#a59e19389468d5ced36778ed07546bce2" target="_top" xlink:title="Resets the given coap_address_t object addr to its default values.">
<polygon fill="white" stroke="black" points="321,-304.5 321,-323.5 416,-323.5 416,-304.5 321,-304.5"/>
<text text-anchor="middle" x="368.5" y="-311.5" font-family="Helvetica,sans-Serif" font-size="10.00">coap_address_init</text>
</a>
</g>
</g>
<!-- Node2&#45;&gt;Node4 -->
<g id="edge3" class="edge">
<title>Node2&#45;&gt;Node4</title>
<path fill="none" stroke="midnightblue" d="M262.45,-285.59C280.59,-290.49 302.87,-296.52 322.23,-301.76"/>
<polygon fill="midnightblue" stroke="midnightblue" points="321.49,-305.18 332.06,-304.41 323.32,-298.42 321.49,-305.18"/>
</g>
<!-- Node5 -->
<g id="node5" class="node">
<title>Node5</title>
<g id="a_node5"><a xlink:href="mem_8h.html#a0204710ce56cbaa4f062b7f2622857f5" target="_top" xlink:title="Allocates a chunk of size bytes and returns a pointer to the newly allocated memory.">
<polygon fill="white" stroke="black" points="321,-266.5 321,-285.5 416,-285.5 416,-266.5 321,-266.5"/>
<text text-anchor="middle" x="368.5" y="-273.5" font-family="Helvetica,sans-Serif" font-size="10.00">coap_malloc_type</text>
</a>
</g>
</g>
<!-- Node2&#45;&gt;Node5 -->
<g id="edge4" class="edge">
<title>Node2&#45;&gt;Node5</title>
<path fill="none" stroke="midnightblue" d="M279.32,-276C289.5,-276 300.22,-276 310.54,-276"/>
<polygon fill="midnightblue" stroke="midnightblue" points="310.7,-279.5 320.7,-276 310.7,-272.5 310.7,-279.5"/>
</g>
<!-- Node6 -->
<g id="node6" class="node">
<title>Node6</title>
<g id="a_node6"><a xlink:href="group__coap__prng.html#gac64ef6bcef630d4c1e683baa269b4670" target="_top" xlink:title="Fills buf with len random bytes using the default pseudo random number generator.">
<polygon fill="white" stroke="black" points="337.5,-228.5 337.5,-247.5 399.5,-247.5 399.5,-228.5 337.5,-228.5"/>
<text text-anchor="middle" x="368.5" y="-235.5" font-family="Helvetica,sans-Serif" font-size="10.00">coap_prng</text>
</a>
</g>
</g>
<!-- Node2&#45;&gt;Node6 -->
<g id="edge5" class="edge">
<title>Node2&#45;&gt;Node6</title>
<path fill="none" stroke="midnightblue" d="M262.45,-266.41C282.29,-261.04 307.09,-254.34 327.61,-248.79"/>
<polygon fill="midnightblue" stroke="midnightblue" points="328.56,-252.16 337.29,-246.17 326.73,-245.4 328.56,-252.16"/>
</g>
<!-- Node8 -->
<g id="node8" class="node">
<title>Node8</title>
<g id="a_node8"><a xlink:href="mem_8h.html#ae7214e0c73a4d4290525873e739ed422" target="_top" xlink:title="Releases the memory that was allocated by coap_malloc_type().">
<polygon fill="white" stroke="black" points="791,-171.5 791,-190.5 874,-190.5 874,-171.5 791,-171.5"/>
<text text-anchor="middle" x="832.5" y="-178.5" font-family="Helvetica,sans-Serif" font-size="10.00">coap_free_type</text>
</a>
</g>
</g>
<!-- Node7&#45;&gt;Node8 -->
<g id="edge7" class="edge">
<title>Node7&#45;&gt;Node8</title>
<path fill="none" stroke="midnightblue" d="M275.04,-61.69C387.12,-50.14 662.59,-26.86 744,-67 784.28,-86.86 811.18,-135.15 823.59,-162.08"/>
<polygon fill="midnightblue" stroke="midnightblue" points="820.4,-163.51 827.64,-171.24 826.8,-160.68 820.4,-163.51"/>
</g>
<!-- Node9 -->
<g id="node9" class="node">
<title>Node9</title>
<g id="a_node9"><a xlink:href="coap__session_8c.html#ab91ca670624ee770714727efff274c49" target="_top" xlink:title=" ">
<polygon fill="white" stroke="black" points="315,-190.5 315,-209.5 422,-209.5 422,-190.5 315,-190.5"/>
<text text-anchor="middle" x="368.5" y="-197.5" font-family="Helvetica,sans-Serif" font-size="10.00">coap_session_mfree</text>
</a>
</g>
</g>
<!-- Node7&#45;&gt;Node9 -->
<g id="edge8" class="edge">
<title>Node7&#45;&gt;Node9</title>
<path fill="none" stroke="midnightblue" d="M237.1,-76.57C260.68,-98.89 319.61,-154.66 349.5,-182.96"/>
<polygon fill="midnightblue" stroke="midnightblue" points="347.44,-185.83 357.11,-190.16 352.25,-180.75 347.44,-185.83"/>
</g>
<!-- Node7&#45;&gt;Node22 -->
<g id="edge29" class="edge">
<title>Node7&#45;&gt;Node22</title>
<path fill="none" stroke="midnightblue" d="M250.52,-57.46C273.51,-48.13 308.74,-33.84 334.53,-23.38"/>
<polygon fill="midnightblue" stroke="midnightblue" points="335.96,-26.57 343.91,-19.57 333.32,-20.09 335.96,-26.57"/>
</g>
<!-- Node10 -->
<g id="node10" class="node">
<title>Node10</title>
<g id="a_node10"><a xlink:href="group__cache.html#ga09e46fc4bba8b37115a3fb964b76b21c" target="_top" xlink:title="Remove a cache&#45;entry from the hash list and free off all the appropriate contents apart from app_data...">
<polygon fill="white" stroke="black" points="458,-190.5 458,-209.5 586,-209.5 586,-190.5 458,-190.5"/>
<text text-anchor="middle" x="522" y="-197.5" font-family="Helvetica,sans-Serif" font-size="10.00">coap_delete_cache_entry</text>
</a>
</g>
</g>
<!-- Node9&#45;&gt;Node10 -->
<g id="edge9" class="edge">
<title>Node9&#45;&gt;Node10</title>
<path fill="none" stroke="midnightblue" d="M422.06,-200C430.35,-200 439.06,-200 447.72,-200"/>
<polygon fill="midnightblue" stroke="midnightblue" points="447.84,-203.5 457.84,-200 447.84,-196.5 447.84,-203.5"/>
</g>
<!-- Node12 -->
<g id="node12" class="node">
<title>Node12</title>
<g id="a_node12"><a xlink:href="pdu_8c.html#a48581f968a30ef4278702eb1c16b7a90" target="_top" xlink:title="Dispose of an CoAP PDU and frees associated storage.">
<polygon fill="white" stroke="black" points="638,-152.5 638,-171.5 728,-171.5 728,-152.5 638,-152.5"/>
<text text-anchor="middle" x="683" y="-159.5" font-family="Helvetica,sans-Serif" font-size="10.00">coap_delete_pdu</text>
</a>
</g>
</g>
<!-- Node9&#45;&gt;Node12 -->
<g id="edge21" class="edge">
<title>Node9&#45;&gt;Node12</title>
<path fill="none" stroke="midnightblue" d="M408.95,-190.41C424.2,-187 441.84,-183.41 458,-181 515.48,-172.43 581.87,-167.4 627.37,-164.69"/>
<polygon fill="midnightblue" stroke="midnightblue" points="627.82,-168.17 637.61,-164.1 627.42,-161.18 627.82,-168.17"/>
</g>
<!-- Node13 -->
<g id="node13" class="node">
<title>Node13</title>
<g id="a_node13"><a xlink:href="net_8c.html#a44c39a2314035989d3e07b9d9328e08c" target="_top" xlink:title="Destroys specified node.">
<polygon fill="white" stroke="black" points="474.5,-114.5 474.5,-133.5 569.5,-133.5 569.5,-114.5 474.5,-114.5"/>
<text text-anchor="middle" x="522" y="-121.5" font-family="Helvetica,sans-Serif" font-size="10.00">coap_delete_node</text>
</a>
</g>
</g>
<!-- Node9&#45;&gt;Node13 -->
<g id="edge15" class="edge">
<title>Node9&#45;&gt;Node13</title>
<path fill="none" stroke="midnightblue" d="M384.12,-190.38C401.33,-179.3 431.01,-160.96 458,-148 466.13,-144.1 475.06,-140.37 483.59,-137.07"/>
<polygon fill="midnightblue" stroke="midnightblue" points="484.85,-140.33 492.98,-133.53 482.39,-133.78 484.85,-140.33"/>
</g>
<!-- Node16 -->
<g id="node16" class="node">
<title>Node16</title>
<g id="a_node16"><a xlink:href="coap__dtls__gnutls_8c.html#a89102d85f6cce550adf91b075a6326c7" target="_top" xlink:title=" ">
<polygon fill="white" stroke="black" points="462.5,-342.5 462.5,-361.5 581.5,-361.5 581.5,-342.5 462.5,-342.5"/>
<text text-anchor="middle" x="522" y="-349.5" font-family="Helvetica,sans-Serif" font-size="10.00">coap_dtls_free_session</text>
</a>
</g>
</g>
<!-- Node9&#45;&gt;Node16 -->
<g id="edge22" class="edge">
<title>Node9&#45;&gt;Node16</title>
<path fill="none" stroke="midnightblue" d="M408.95,-209.63C413.78,-212.08 418.31,-215.15 422,-219 458.79,-257.34 420.19,-295.67 458,-333 459.46,-334.44 461.03,-335.78 462.69,-337.01"/>
<polygon fill="midnightblue" stroke="midnightblue" points="461.18,-340.19 471.54,-342.38 464.8,-334.21 461.18,-340.19"/>
</g>
<!-- Node17 -->
<g id="node17" class="node">
<title>Node17</title>
<g id="a_node17"><a xlink:href="mem_8h.html#a1e46a1505bb13f03fdacd5d1b32502a6" target="_top" xlink:title="Wrapper function to coap_free_type() for backwards compatibility.">
<polygon fill="white" stroke="black" points="653.5,-266.5 653.5,-285.5 712.5,-285.5 712.5,-266.5 653.5,-266.5"/>
<text text-anchor="middle" x="683" y="-273.5" font-family="Helvetica,sans-Serif" font-size="10.00">coap_free</text>
</a>
</g>
</g>
<!-- Node9&#45;&gt;Node17 -->
<g id="edge23" class="edge">
<title>Node9&#45;&gt;Node17</title>
<path fill="none" stroke="midnightblue" d="M408.76,-209.55C469.04,-224.21 583.68,-252.09 643.5,-266.64"/>
<polygon fill="midnightblue" stroke="midnightblue" points="642.77,-270.06 653.31,-269.02 644.42,-263.26 642.77,-270.06"/>
</g>
<!-- Node18 -->
<g id="node18" class="node">
<title>Node18</title>
<g id="a_node18"><a xlink:href="coap__io_8c.html#a2de382e7795c908d1a376da8c338386d" target="_top" xlink:title=" ">
<polygon fill="white" stroke="black" points="471.5,-304.5 471.5,-323.5 572.5,-323.5 572.5,-304.5 471.5,-304.5"/>
<text text-anchor="middle" x="522" y="-311.5" font-family="Helvetica,sans-Serif" font-size="10.00">coap_socket_close</text>
</a>
</g>
</g>
<!-- Node9&#45;&gt;Node18 -->
<g id="edge25" class="edge">
<title>Node9&#45;&gt;Node18</title>
<path fill="none" stroke="midnightblue" d="M407.4,-209.6C412.7,-212.07 417.77,-215.15 422,-219 449.66,-244.14 429.67,-270.62 458,-295 459.97,-296.7 462.09,-298.24 464.31,-299.65"/>
<polygon fill="midnightblue" stroke="midnightblue" points="462.84,-302.83 473.32,-304.42 466.12,-296.64 462.84,-302.83"/>
</g>
<!-- Node21 -->
<g id="node21" class="node">
<title>Node21</title>
<g id="a_node21"><a xlink:href="coap__notls_8c.html#aa317934415639e23b64a3bd0b4edde6c" target="_top" xlink:title=" ">
<polygon fill="white" stroke="black" points="465,-266.5 465,-285.5 579,-285.5 579,-266.5 465,-266.5"/>
<text text-anchor="middle" x="522" y="-273.5" font-family="Helvetica,sans-Serif" font-size="10.00">coap_tls_free_session</text>
</a>
</g>
</g>
<!-- Node9&#45;&gt;Node21 -->
<g id="edge28" class="edge">
<title>Node9&#45;&gt;Node21</title>
<path fill="none" stroke="midnightblue" d="M402.07,-209.52C408.89,-212.13 415.86,-215.28 422,-219 440.57,-230.24 439.53,-240.6 458,-252 464.51,-256.01 471.79,-259.54 479.04,-262.57"/>
<polygon fill="midnightblue" stroke="midnightblue" points="478.23,-266.01 488.82,-266.39 480.77,-259.49 478.23,-266.01"/>
</g>
<!-- Node10&#45;&gt;Node8 -->
<g id="edge14" class="edge">
<title>Node10&#45;&gt;Node8</title>
<path fill="none" stroke="midnightblue" d="M559.36,-209.5C603.48,-219.57 679.9,-232.32 744,-219 765.82,-214.47 788.88,-204.2 805.85,-195.48"/>
<polygon fill="midnightblue" stroke="midnightblue" points="807.89,-198.36 815.08,-190.57 804.61,-192.17 807.89,-198.36"/>
</g>
<!-- Node11 -->
<g id="node11" class="node">
<title>Node11</title>
<g id="a_node11"><a xlink:href="group__cache.html#ga1930bf91ebbff5d5974ce0d55d2895b3" target="_top" xlink:title="Delete the cache&#45;key.">
<polygon fill="white" stroke="black" points="622,-190.5 622,-209.5 744,-209.5 744,-190.5 622,-190.5"/>
<text text-anchor="middle" x="683" y="-197.5" font-family="Helvetica,sans-Serif" font-size="10.00">coap_delete_cache_key</text>
</a>
</g>
</g>
<!-- Node10&#45;&gt;Node11 -->
<g id="edge10" class="edge">
<title>Node10&#45;&gt;Node11</title>
<path fill="none" stroke="midnightblue" d="M586.3,-200C594.61,-200 603.17,-200 611.59,-200"/>
<polygon fill="midnightblue" stroke="midnightblue" points="611.77,-203.5 621.77,-200 611.77,-196.5 611.77,-203.5"/>
</g>
<!-- Node10&#45;&gt;Node12 -->
<g id="edge12" class="edge">
<title>Node10&#45;&gt;Node12</title>
<path fill="none" stroke="midnightblue" d="M563.12,-190.41C584.1,-185.4 609.98,-179.21 632.23,-173.89"/>
<polygon fill="midnightblue" stroke="midnightblue" points="633.25,-177.25 642.17,-171.52 631.63,-170.44 633.25,-177.25"/>
</g>
<!-- Node11&#45;&gt;Node8 -->
<g id="edge11" class="edge">
<title>Node11&#45;&gt;Node8</title>
<path fill="none" stroke="midnightblue" d="M744.42,-192.22C756.48,-190.66 769.03,-189.05 780.73,-187.54"/>
<polygon fill="midnightblue" stroke="midnightblue" points="781.28,-191 790.75,-186.25 780.39,-184.06 781.28,-191"/>
</g>
<!-- Node12&#45;&gt;Node8 -->
<g id="edge13" class="edge">
<title>Node12&#45;&gt;Node8</title>
<path fill="none" stroke="midnightblue" d="M728.25,-167.7C744.7,-169.82 763.48,-172.24 780.48,-174.43"/>
<polygon fill="midnightblue" stroke="midnightblue" points="780.44,-177.95 790.8,-175.76 781.33,-171.01 780.44,-177.95"/>
</g>
<!-- Node13&#45;&gt;Node12 -->
<g id="edge16" class="edge">
<title>Node13&#45;&gt;Node12</title>
<path fill="none" stroke="midnightblue" d="M563.12,-133.59C584.1,-138.6 609.98,-144.79 632.23,-150.11"/>
<polygon fill="midnightblue" stroke="midnightblue" points="631.63,-153.56 642.17,-152.48 633.25,-146.75 631.63,-153.56"/>
</g>
<!-- Node14 -->
<g id="node14" class="node">
<title>Node14</title>
<g id="a_node14"><a xlink:href="net_8c.html#aa2f296838e4a779197c43b254e385ddc" target="_top" xlink:title=" ">
<polygon fill="white" stroke="black" points="640,-114.5 640,-133.5 726,-133.5 726,-114.5 640,-114.5"/>
<text text-anchor="middle" x="683" y="-121.5" font-family="Helvetica,sans-Serif" font-size="10.00">coap_free_node</text>
</a>
</g>
</g>
<!-- Node13&#45;&gt;Node14 -->
<g id="edge17" class="edge">
<title>Node13&#45;&gt;Node14</title>
<path fill="none" stroke="midnightblue" d="M569.85,-124C588.64,-124 610.37,-124 629.68,-124"/>
<polygon fill="midnightblue" stroke="midnightblue" points="629.82,-127.5 639.82,-124 629.82,-120.5 629.82,-127.5"/>
</g>
<!-- Node15 -->
<g id="node15" class="node">
<title>Node15</title>
<g id="a_node15"><a xlink:href="coap__session_8c.html#a9aee135ba884d7c143b11bc42fd23e53" target="_top" xlink:title="Decrement reference counter on a session.">
<polygon fill="white" stroke="black" points="626.5,-76.5 626.5,-95.5 739.5,-95.5 739.5,-76.5 626.5,-76.5"/>
<text text-anchor="middle" x="683" y="-83.5" font-family="Helvetica,sans-Serif" font-size="10.00">coap_session_release</text>
</a>
</g>
</g>
<!-- Node13&#45;&gt;Node15 -->
<g id="edge19" class="edge">
<title>Node13&#45;&gt;Node15</title>
<path fill="none" stroke="midnightblue" d="M563.12,-114.41C584.1,-109.4 609.98,-103.21 632.23,-97.89"/>
<polygon fill="midnightblue" stroke="midnightblue" points="633.25,-101.25 642.17,-95.52 631.63,-94.44 633.25,-101.25"/>
</g>
<!-- Node14&#45;&gt;Node8 -->
<g id="edge18" class="edge">
<title>Node14&#45;&gt;Node8</title>
<path fill="none" stroke="midnightblue" d="M716.28,-133.55C725.32,-136.41 735.1,-139.67 744,-143 763.58,-150.33 785.12,-159.67 801.93,-167.26"/>
<polygon fill="midnightblue" stroke="midnightblue" points="800.68,-170.53 811.24,-171.49 803.58,-164.16 800.68,-170.53"/>
</g>
<!-- Node15&#45;&gt;Node7 -->
<g id="edge20" class="edge">
<title>Node15&#45;&gt;Node7</title>
<path fill="none" stroke="midnightblue" d="M626.48,-83.68C539.93,-80.07 373.64,-73.12 285.37,-69.44"/>
<polygon fill="midnightblue" stroke="midnightblue" points="285.4,-65.94 275.26,-69.02 285.11,-72.93 285.4,-65.94"/>
</g>
<!-- Node17&#45;&gt;Node8 -->
<g id="edge24" class="edge">
<title>Node17&#45;&gt;Node8</title>
<path fill="none" stroke="midnightblue" d="M712.61,-266.57C722.83,-262.69 734.23,-257.74 744,-252 770.53,-236.42 797.48,-213.19 814.33,-197.58"/>
<polygon fill="midnightblue" stroke="midnightblue" points="816.86,-200.01 821.74,-190.6 812.06,-194.91 816.86,-200.01"/>
</g>
<!-- Node19 -->
<g id="node19" class="node">
<title>Node19</title>
<g id="a_node19"><a xlink:href="coap__io_8c.html#ad3119e077bde4ee15a65271de0b70531" target="_top" xlink:title=" ">
<polygon fill="white" stroke="black" points="629,-304.5 629,-323.5 737,-323.5 737,-304.5 629,-304.5"/>
<text text-anchor="middle" x="683" y="-311.5" font-family="Helvetica,sans-Serif" font-size="10.00">coap_socket_strerror</text>
</a>
</g>
</g>
<!-- Node18&#45;&gt;Node19 -->
<g id="edge26" class="edge">
<title>Node18&#45;&gt;Node19</title>
<path fill="none" stroke="midnightblue" d="M572.87,-314C587.3,-314 603.25,-314 618.4,-314"/>
<polygon fill="midnightblue" stroke="midnightblue" points="618.73,-317.5 628.73,-314 618.73,-310.5 618.73,-317.5"/>
</g>
<!-- Node20 -->
<g id="node20" class="node">
<title>Node20</title>
<g id="a_node20"><a xlink:href="coap__io_8c.html#ae0cc13e29656551862a46150320f9390" target="_top" xlink:title=" ">
<polygon fill="white" stroke="black" points="780,-299 780,-329 885,-329 885,-299 780,-299"/>
<text text-anchor="start" x="788" y="-317" font-family="Helvetica,sans-Serif" font-size="10.00">coap_socket_format</text>
<text text-anchor="middle" x="832.5" y="-306" font-family="Helvetica,sans-Serif" font-size="10.00">_errno</text>
</a>
</g>
</g>
<!-- Node19&#45;&gt;Node20 -->
<g id="edge27" class="edge">
<title>Node19&#45;&gt;Node20</title>
<path fill="none" stroke="midnightblue" d="M737.25,-314C747.76,-314 758.87,-314 769.63,-314"/>
<polygon fill="midnightblue" stroke="midnightblue" points="769.81,-317.5 779.81,-314 769.81,-310.5 769.81,-317.5"/>
</g>
<!-- Node23 -->
<g id="node23" class="node">
<title>Node23</title>
<g id="a_node23"><a xlink:href="group__logging.html#ga6a4f5ef637bf85aa161adfe73ac81ff0" target="_top" xlink:title="Print the address into the defined buffer.">
<polygon fill="white" stroke="black" points="479,-0.5 479,-19.5 565,-19.5 565,-0.5 479,-0.5"/>
<text text-anchor="middle" x="522" y="-7.5" font-family="Helvetica,sans-Serif" font-size="10.00">coap_print_addr</text>
</a>
</g>
</g>
<!-- Node22&#45;&gt;Node23 -->
<g id="edge30" class="edge">
<title>Node22&#45;&gt;Node23</title>
<path fill="none" stroke="midnightblue" d="M415.37,-10C432.1,-10 451.15,-10 468.42,-10"/>
<polygon fill="midnightblue" stroke="midnightblue" points="468.91,-13.5 478.91,-10 468.91,-6.5 468.91,-13.5"/>
</g>
<!-- Node24 -->
<g id="node24" class="node">
<title>Node24</title>
<g id="a_node24"><a xlink:href="coap__debug_8c.html#aaa5ee5c2942fe13271a46000b2aebde6" target="_top" xlink:title="A length&#45;safe strlen() fake.">
<polygon fill="white" stroke="black" points="660,-0.5 660,-19.5 706,-19.5 706,-0.5 660,-0.5"/>
<text text-anchor="middle" x="683" y="-7.5" font-family="Helvetica,sans-Serif" font-size="10.00">strnlen</text>
</a>
</g>
</g>
<!-- Node23&#45;&gt;Node24 -->
<g id="edge31" class="edge">
<title>Node23&#45;&gt;Node24</title>
<path fill="none" stroke="midnightblue" d="M565.19,-10C591.64,-10 625.21,-10 649.57,-10"/>
<polygon fill="midnightblue" stroke="midnightblue" points="649.72,-13.5 659.72,-10 649.72,-6.5 649.72,-13.5"/>
</g>
</g>
</svg>
