<?xml version="1.0" encoding="UTF-8" standalone="no"?>
<!DOCTYPE svg PUBLIC "-//W3C//DTD SVG 1.1//EN"
 "http://www.w3.org/Graphics/SVG/1.1/DTD/svg11.dtd">
<!-- Generated by graphviz version 2.43.0 (0)
 -->
<!-- Title: dtls_send_to_peer Pages: 1 -->
<!--zoomable 148 -->
<svg id="main" version="1.1" xmlns="http://www.w3.org/2000/svg" xmlns:xlink="http://www.w3.org/1999/xlink" xml:space="preserve" onload="init(evt)">
<style type="text/css"><![CDATA[
.edge:hover path { stroke: red; }
.edge:hover polygon { stroke: red; fill: red; }
]]></style>
<script type="text/javascript"><![CDATA[
var edges = document.getElementsByTagName('g');
if (edges && edges.length) {
  for (var i=0;i<edges.length;i++) {
    if (edges[i].id.substr(0,4)=='edge') {
      edges[i].setAttribute('class','edge');
    }
  }
}
]]></script>
        <defs>
                <circle id="rim" cx="0" cy="0" r="7"/>
                <circle id="rim2" cx="0" cy="0" r="3.5"/>
                <g id="zoomPlus">
                        <use xlink:href="#rim" fill="#404040">
                                <set attributeName="fill" to="#808080" begin="zoomplus.mouseover" end="zoomplus.mouseout"/>
                        </use>
                        <path d="M-4,0h8M0,-4v8" fill="none" stroke="white" stroke-width="1.5" pointer-events="none"/>
                </g>
                <g id="zoomMin">
                        <use xlink:href="#rim" fill="#404040">
                                <set attributeName="fill" to="#808080" begin="zoomminus.mouseover" end="zoomminus.mouseout"/>
                        </use>
                        <path d="M-4,0h8" fill="none" stroke="white" stroke-width="1.5" pointer-events="none"/>
                </g>
                <g id="dirArrow">
                        <path fill="none" stroke="white" stroke-width="1.5" d="M0,-3.0v7 M-2.5,-0.5L0,-3.0L2.5,-0.5"/>
                </g>
               <g id="resetDef">
                       <use xlink:href="#rim2" fill="#404040">
                               <set attributeName="fill" to="#808080" begin="reset.mouseover" end="reset.mouseout"/>
                       </use>
               </g>
        </defs>

<script type="text/javascript">
var viewWidth = 580;
var viewHeight = 148;
var sectionId = 'dynsection-14';
</script>
<script xlink:href="svgpan.js"/>
<svg id="graph" class="graph">
<g id="viewport">
<title>dtls_send_to_peer</title>
<polygon fill="white" stroke="transparent" points="-4,4 -4,-143.5 576,-143.5 576,4 -4,4"/>
<!-- Node1 -->
<g id="node1" class="node">
<title>Node1</title>
<g id="a_node1"><a xlink:title=" ">
<polygon fill="#bfbfbf" stroke="black" points="0,-63 0,-82 96,-82 96,-63 0,-63"/>
<text text-anchor="middle" x="48" y="-70" font-family="Helvetica,sans-Serif" font-size="10.00">dtls_send_to_peer</text>
</a>
</g>
</g>
<!-- Node2 -->
<g id="node2" class="node">
<title>Node2</title>
<g id="a_node2"><a xlink:href="coap__io_8c.html#a9e9bc78d20872c6ea9cb8dddfcea45ad" target="_top" xlink:title=" ">
<polygon fill="white" stroke="black" points="132,-63 132,-82 236,-82 236,-63 132,-63"/>
<text text-anchor="middle" x="184" y="-70" font-family="Helvetica,sans-Serif" font-size="10.00">coap_network_send</text>
</a>
</g>
</g>
<!-- Node1&#45;&gt;Node2 -->
<g id="edge1" class="edge">
<title>Node1&#45;&gt;Node2</title>
<path fill="none" stroke="midnightblue" d="M96.24,-72.5C104.39,-72.5 112.96,-72.5 121.41,-72.5"/>
<polygon fill="midnightblue" stroke="midnightblue" points="121.63,-76 131.63,-72.5 121.63,-69 121.63,-76"/>
</g>
<!-- Node3 -->
<g id="node3" class="node">
<title>Node3</title>
<g id="a_node3"><a xlink:href="address_8h.html#a021998c955a6787c5cab7b1c385bef63" target="_top" xlink:title="Checks if given address object a denotes the wildcard address.">
<polygon fill="white" stroke="black" points="284,-120 284,-139 390,-139 390,-120 284,-120"/>
<text text-anchor="middle" x="337" y="-127" font-family="Helvetica,sans-Serif" font-size="10.00">coap_address_isany</text>
</a>
</g>
</g>
<!-- Node2&#45;&gt;Node3 -->
<g id="edge2" class="edge">
<title>Node2&#45;&gt;Node3</title>
<path fill="none" stroke="midnightblue" d="M205.1,-82.12C222.55,-90.27 248.62,-101.96 272,-110.5 278.07,-112.72 284.54,-114.87 290.94,-116.88"/>
<polygon fill="midnightblue" stroke="midnightblue" points="290.28,-120.34 300.87,-119.92 292.33,-113.65 290.28,-120.34"/>
</g>
<!-- Node5 -->
<g id="node5" class="node">
<title>Node5</title>
<g id="a_node5"><a xlink:href="coap__debug_8c.html#af01fc56422e6401f529b053b61e65cad" target="_top" xlink:title="Check to see whether a packet should be sent or not.">
<polygon fill="white" stroke="black" points="272,-82 272,-101 402,-101 402,-82 272,-82"/>
<text text-anchor="middle" x="337" y="-89" font-family="Helvetica,sans-Serif" font-size="10.00">coap_debug_send_packet</text>
</a>
</g>
</g>
<!-- Node2&#45;&gt;Node5 -->
<g id="edge4" class="edge">
<title>Node2&#45;&gt;Node5</title>
<path fill="none" stroke="midnightblue" d="M236.12,-78.93C244.36,-79.97 253.04,-81.06 261.69,-82.15"/>
<polygon fill="midnightblue" stroke="midnightblue" points="261.45,-85.65 271.81,-83.42 262.33,-78.7 261.45,-85.65"/>
</g>
<!-- Node7 -->
<g id="node7" class="node">
<title>Node7</title>
<g id="a_node7"><a xlink:href="address_8c.html#a5b47d6fe47a54a0798eddb9ea77005ea" target="_top" xlink:title="Checks if given address a denotes a multicast address.">
<polygon fill="white" stroke="black" points="295.5,-44 295.5,-63 378.5,-63 378.5,-44 295.5,-44"/>
<text text-anchor="middle" x="337" y="-51" font-family="Helvetica,sans-Serif" font-size="10.00">coap_is_mcast</text>
</a>
</g>
</g>
<!-- Node2&#45;&gt;Node7 -->
<g id="edge6" class="edge">
<title>Node2&#45;&gt;Node7</title>
<path fill="none" stroke="midnightblue" d="M236.12,-66.07C251.98,-64.07 269.45,-61.87 285.29,-59.88"/>
<polygon fill="midnightblue" stroke="midnightblue" points="285.94,-63.33 295.42,-58.61 285.06,-56.38 285.94,-63.33"/>
</g>
<!-- Node8 -->
<g id="node8" class="node">
<title>Node8</title>
<g id="a_node8"><a xlink:href="coap__io_8c.html#ad3119e077bde4ee15a65271de0b70531" target="_top" xlink:title=" ">
<polygon fill="white" stroke="black" points="283,-6 283,-25 391,-25 391,-6 283,-6"/>
<text text-anchor="middle" x="337" y="-13" font-family="Helvetica,sans-Serif" font-size="10.00">coap_socket_strerror</text>
</a>
</g>
</g>
<!-- Node2&#45;&gt;Node8 -->
<g id="edge7" class="edge">
<title>Node2&#45;&gt;Node8</title>
<path fill="none" stroke="midnightblue" d="M205.1,-62.88C222.55,-54.73 248.62,-43.04 272,-34.5 278.07,-32.28 284.54,-30.13 290.94,-28.12"/>
<polygon fill="midnightblue" stroke="midnightblue" points="292.33,-31.35 300.87,-25.08 290.28,-24.66 292.33,-31.35"/>
</g>
<!-- Node4 -->
<g id="node4" class="node">
<title>Node4</title>
<g id="a_node4"><a xlink:href="address_8h.html#a3aadd5b560a9e7424b572bb213aa4439" target="_top" xlink:title=" ">
<polygon fill="white" stroke="black" points="438,-120 438,-139 572,-139 572,-120 438,-120"/>
<text text-anchor="middle" x="505" y="-127" font-family="Helvetica,sans-Serif" font-size="10.00">_coap_address_isany_impl</text>
</a>
</g>
</g>
<!-- Node3&#45;&gt;Node4 -->
<g id="edge3" class="edge">
<title>Node3&#45;&gt;Node4</title>
<path fill="none" stroke="midnightblue" d="M390.07,-129.5C402,-129.5 414.92,-129.5 427.64,-129.5"/>
<polygon fill="midnightblue" stroke="midnightblue" points="427.77,-133 437.77,-129.5 427.77,-126 427.77,-133"/>
</g>
<!-- Node6 -->
<g id="node6" class="node">
<title>Node6</title>
<g id="a_node6"><a xlink:href="group__coap__prng.html#gac64ef6bcef630d4c1e683baa269b4670" target="_top" xlink:title="Fills buf with len random bytes using the default pseudo random number generator.">
<polygon fill="white" stroke="black" points="474,-82 474,-101 536,-101 536,-82 474,-82"/>
<text text-anchor="middle" x="505" y="-89" font-family="Helvetica,sans-Serif" font-size="10.00">coap_prng</text>
</a>
</g>
</g>
<!-- Node5&#45;&gt;Node6 -->
<g id="edge5" class="edge">
<title>Node5&#45;&gt;Node6</title>
<path fill="none" stroke="midnightblue" d="M402.18,-91.5C422.87,-91.5 445.2,-91.5 463.67,-91.5"/>
<polygon fill="midnightblue" stroke="midnightblue" points="463.77,-95 473.77,-91.5 463.77,-88 463.77,-95"/>
</g>
<!-- Node9 -->
<g id="node9" class="node">
<title>Node9</title>
<g id="a_node9"><a xlink:href="coap__io_8c.html#ae0cc13e29656551862a46150320f9390" target="_top" xlink:title=" ">
<polygon fill="white" stroke="black" points="452.5,-0.5 452.5,-30.5 557.5,-30.5 557.5,-0.5 452.5,-0.5"/>
<text text-anchor="start" x="460.5" y="-18.5" font-family="Helvetica,sans-Serif" font-size="10.00">coap_socket_format</text>
<text text-anchor="middle" x="505" y="-7.5" font-family="Helvetica,sans-Serif" font-size="10.00">_errno</text>
</a>
</g>
</g>
<!-- Node8&#45;&gt;Node9 -->
<g id="edge8" class="edge">
<title>Node8&#45;&gt;Node9</title>
<path fill="none" stroke="midnightblue" d="M391.44,-15.5C407.61,-15.5 425.5,-15.5 442.17,-15.5"/>
<polygon fill="midnightblue" stroke="midnightblue" points="442.36,-19 452.36,-15.5 442.36,-12 442.36,-19"/>
</g>
</g>
</svg>
        <g id="navigator" transform="translate(0 0)" fill="#404254">
                <rect fill="#f2f5e9" fill-opacity="0.5" stroke="#606060" stroke-width=".5" x="0" y="0" width="60" height="60"/>
                <use id="zoomplus" xlink:href="#zoomPlus" x="17" y="9" onmousedown="handleZoom(evt,'in')"/>
                <use id="zoomminus" xlink:href="#zoomMin" x="42" y="9" onmousedown="handleZoom(evt,'out')"/>
                <use id="reset" xlink:href="#resetDef" x="30" y="36" onmousedown="handleReset()"/>
                <g id="arrowUp" xlink:href="#dirArrow" transform="translate(30 24)" onmousedown="handlePan(0,-1)">
                  <use xlink:href="#rim" fill="#404040">
                        <set attributeName="fill" to="#808080" begin="arrowUp.mouseover" end="arrowUp.mouseout"/>
                  </use>
                  <path fill="none" stroke="white" stroke-width="1.5" d="M0,-3.0v7 M-2.5,-0.5L0,-3.0L2.5,-0.5"/>
                </g>
                <g id="arrowRight" xlink:href="#dirArrow" transform="rotate(90) translate(36 -43)" onmousedown="handlePan(1,0)">
                  <use xlink:href="#rim" fill="#404040">
                        <set attributeName="fill" to="#808080" begin="arrowRight.mouseover" end="arrowRight.mouseout"/>
                  </use>
                  <path fill="none" stroke="white" stroke-width="1.5" d="M0,-3.0v7 M-2.5,-0.5L0,-3.0L2.5,-0.5"/>
                </g>
                <g id="arrowDown" xlink:href="#dirArrow" transform="rotate(180) translate(-30 -48)" onmousedown="handlePan(0,1)">
                  <use xlink:href="#rim" fill="#404040">
                        <set attributeName="fill" to="#808080" begin="arrowDown.mouseover" end="arrowDown.mouseout"/>
                  </use>
                  <path fill="none" stroke="white" stroke-width="1.5" d="M0,-3.0v7 M-2.5,-0.5L0,-3.0L2.5,-0.5"/>
                </g>
                <g id="arrowLeft" xlink:href="#dirArrow" transform="rotate(270) translate(-36 17)" onmousedown="handlePan(-1,0)">
                  <use xlink:href="#rim" fill="#404040">
                        <set attributeName="fill" to="#808080" begin="arrowLeft.mouseover" end="arrowLeft.mouseout"/>
                  </use>
                  <path fill="none" stroke="white" stroke-width="1.5" d="M0,-3.0v7 M-2.5,-0.5L0,-3.0L2.5,-0.5"/>
                </g>
        </g>
        <svg viewBox="0 0 15 15" width="100%" height="30px" preserveAspectRatio="xMaxYMin meet">
         <g id="arrow_out" transform="scale(0.3 0.3)">
          <a xlink:href="coap__dtls__gnutls_8c_aa05cb2c6f902d70c2c0797fa604dd2d4_cgraph_org.svg" target="_base">
           <rect id="button" ry="5" rx="5" y="6" x="6" height="38" width="38"
                fill="#f2f5e9" fill-opacity="0.5" stroke="#606060" stroke-width="1.0"/>
           <path id="arrow"
             d="M 11.500037,31.436501 C 11.940474,20.09759 22.043105,11.32322 32.158766,21.979434 L 37.068811,17.246167 C 37.068811,17.246167 37.088388,32 37.088388,32 L 22.160133,31.978069 C 22.160133,31.978069 26.997745,27.140456 26.997745,27.140456 C 18.528582,18.264221 13.291696,25.230495 11.500037,31.436501 z"
             style="fill:#404040;"/>
          </a>
         </g>
        </svg>
</svg>
