<?xml version="1.0" encoding="UTF-8" standalone="no"?>
<!DOCTYPE svg PUBLIC "-//W3C//DTD SVG 1.1//EN"
 "http://www.w3.org/Graphics/SVG/1.1/DTD/svg11.dtd">
<!-- Generated by graphviz version 2.43.0 (0)
 -->
<!-- Title: coap_session_disconnected Pages: 1 -->
<!--zoomable 626 -->
<svg id="main" version="1.1" xmlns="http://www.w3.org/2000/svg" xmlns:xlink="http://www.w3.org/1999/xlink" xml:space="preserve" onload="init(evt)">
<style type="text/css"><![CDATA[
.edge:hover path { stroke: red; }
.edge:hover polygon { stroke: red; fill: red; }
]]></style>
<script type="text/javascript"><![CDATA[
var edges = document.getElementsByTagName('g');
if (edges && edges.length) {
  for (var i=0;i<edges.length;i++) {
    if (edges[i].id.substr(0,4)=='edge') {
      edges[i].setAttribute('class','edge');
    }
  }
}
]]></script>
        <defs>
                <circle id="rim" cx="0" cy="0" r="7"/>
                <circle id="rim2" cx="0" cy="0" r="3.5"/>
                <g id="zoomPlus">
                        <use xlink:href="#rim" fill="#404040">
                                <set attributeName="fill" to="#808080" begin="zoomplus.mouseover" end="zoomplus.mouseout"/>
                        </use>
                        <path d="M-4,0h8M0,-4v8" fill="none" stroke="white" stroke-width="1.5" pointer-events="none"/>
                </g>
                <g id="zoomMin">
                        <use xlink:href="#rim" fill="#404040">
                                <set attributeName="fill" to="#808080" begin="zoomminus.mouseover" end="zoomminus.mouseout"/>
                        </use>
                        <path d="M-4,0h8" fill="none" stroke="white" stroke-width="1.5" pointer-events="none"/>
                </g>
                <g id="dirArrow">
                        <path fill="none" stroke="white" stroke-width="1.5" d="M0,-3.0v7 M-2.5,-0.5L0,-3.0L2.5,-0.5"/>
                </g>
               <g id="resetDef">
                       <use xlink:href="#rim2" fill="#404040">
                               <set attributeName="fill" to="#808080" begin="reset.mouseover" end="reset.mouseout"/>
                       </use>
               </g>
        </defs>

<script type="text/javascript">
var viewWidth = 1351;
var viewHeight = 626;
var sectionId = 'dynsection-16';
</script>
<script xlink:href="svgpan.js"/>
<svg id="graph" class="graph">
<g id="viewport">
<title>coap_session_disconnected</title>
<polygon fill="white" stroke="transparent" points="-4,4 -4,-622 1347,-622 1347,4 -4,4"/>
<!-- Node1 -->
<g id="node1" class="node">
<title>Node1</title>
<g id="a_node1"><a xlink:title="Notify session that it has failed.">
<polygon fill="#bfbfbf" stroke="black" points="0,-314.5 0,-333.5 140,-333.5 140,-314.5 0,-314.5"/>
<text text-anchor="middle" x="70" y="-321.5" font-family="Helvetica,sans-Serif" font-size="10.00">coap_session_disconnected</text>
</a>
</g>
</g>
<!-- Node2 -->
<g id="node2" class="node">
<title>Node2</title>
<g id="a_node2"><a xlink:href="net_8c.html#add0197ad2daf24535c85e0ba1d28f099" target="_top" xlink:title="Cancels all outstanding messages for session session.">
<polygon fill="white" stroke="black" points="176,-331 176,-361 286,-361 286,-331 176,-331"/>
<text text-anchor="start" x="184" y="-349" font-family="Helvetica,sans-Serif" font-size="10.00">coap_cancel_session</text>
<text text-anchor="middle" x="231" y="-338" font-family="Helvetica,sans-Serif" font-size="10.00">_messages</text>
</a>
</g>
</g>
<!-- Node1&#45;&gt;Node2 -->
<g id="edge1" class="edge">
<title>Node1&#45;&gt;Node2</title>
<path fill="none" stroke="midnightblue" d="M139.81,-333.52C148.5,-334.72 157.36,-335.95 165.97,-337.14"/>
<polygon fill="midnightblue" stroke="midnightblue" points="165.55,-340.62 175.93,-338.52 166.51,-333.68 165.55,-340.62"/>
</g>
<!-- Node3 -->
<g id="node3" class="node">
<title>Node3</title>
<g id="a_node3"><a xlink:href="net_8c.html#a44c39a2314035989d3e07b9d9328e08c" target="_top" xlink:title="Destroys specified node.">
<polygon fill="white" stroke="black" points="333,-380.5 333,-399.5 428,-399.5 428,-380.5 333,-380.5"/>
<text text-anchor="middle" x="380.5" y="-387.5" font-family="Helvetica,sans-Serif" font-size="10.00">coap_delete_node</text>
</a>
</g>
</g>
<!-- Node1&#45;&gt;Node3 -->
<g id="edge29" class="edge">
<title>Node1&#45;&gt;Node3</title>
<path fill="none" stroke="midnightblue" d="M88.22,-333.57C108.54,-344.38 143.65,-361.55 176,-370 224.45,-382.65 281.28,-387.43 322.56,-389.18"/>
<polygon fill="midnightblue" stroke="midnightblue" points="322.58,-392.68 332.7,-389.56 322.84,-385.68 322.58,-392.68"/>
</g>
<!-- Node4 -->
<g id="node4" class="node">
<title>Node4</title>
<g id="a_node4"><a xlink:href="pdu_8c.html#a48581f968a30ef4278702eb1c16b7a90" target="_top" xlink:title="Dispose of an CoAP PDU and frees associated storage.">
<polygon fill="white" stroke="black" points="1096,-532.5 1096,-551.5 1186,-551.5 1186,-532.5 1096,-532.5"/>
<text text-anchor="middle" x="1141" y="-539.5" font-family="Helvetica,sans-Serif" font-size="10.00">coap_delete_pdu</text>
</a>
</g>
</g>
<!-- Node1&#45;&gt;Node4 -->
<g id="edge34" class="edge">
<title>Node1&#45;&gt;Node4</title>
<path fill="none" stroke="midnightblue" d="M74.01,-333.55C83.94,-363.71 118.32,-458.16 176,-514 248.98,-584.65 277.93,-618 379.5,-618 379.5,-618 379.5,-618 820,-618 927.19,-618 1049.25,-577.13 1106.73,-555.33"/>
<polygon fill="midnightblue" stroke="midnightblue" points="1108.29,-558.48 1116.37,-551.63 1105.78,-551.95 1108.29,-558.48"/>
</g>
<!-- Node12 -->
<g id="node12" class="node">
<title>Node12</title>
<g id="a_node12"><a xlink:href="coap__dtls__gnutls_8c.html#a89102d85f6cce550adf91b075a6326c7" target="_top" xlink:title=" ">
<polygon fill="white" stroke="black" points="920.5,-532.5 920.5,-551.5 1039.5,-551.5 1039.5,-532.5 920.5,-532.5"/>
<text text-anchor="middle" x="980" y="-539.5" font-family="Helvetica,sans-Serif" font-size="10.00">coap_dtls_free_session</text>
</a>
</g>
</g>
<!-- Node1&#45;&gt;Node12 -->
<g id="edge35" class="edge">
<title>Node1&#45;&gt;Node12</title>
<path fill="none" stroke="midnightblue" d="M75.44,-333.58C87.75,-359.11 124.81,-429.51 176,-468 252.92,-525.84 283.26,-542 379.5,-542 379.5,-542 379.5,-542 674,-542 755.13,-542 848.4,-542 910.22,-542"/>
<polygon fill="midnightblue" stroke="midnightblue" points="910.24,-545.5 920.24,-542 910.24,-538.5 910.24,-545.5"/>
</g>
<!-- Node14 -->
<g id="node14" class="node">
<title>Node14</title>
<g id="a_node14"><a xlink:href="coap__io_8c.html#a2de382e7795c908d1a376da8c338386d" target="_top" xlink:title=" ">
<polygon fill="white" stroke="black" points="929.5,-228.5 929.5,-247.5 1030.5,-247.5 1030.5,-228.5 929.5,-228.5"/>
<text text-anchor="middle" x="980" y="-235.5" font-family="Helvetica,sans-Serif" font-size="10.00">coap_socket_close</text>
</a>
</g>
</g>
<!-- Node1&#45;&gt;Node14 -->
<g id="edge38" class="edge">
<title>Node1&#45;&gt;Node14</title>
<path fill="none" stroke="midnightblue" d="M90.68,-314.47C138.78,-292.08 266.63,-238 379.5,-238 379.5,-238 379.5,-238 674,-238 759.09,-238 857.54,-238 919.05,-238"/>
<polygon fill="midnightblue" stroke="midnightblue" points="919.34,-241.5 929.34,-238 919.34,-234.5 919.34,-241.5"/>
</g>
<!-- Node17 -->
<g id="node17" class="node">
<title>Node17</title>
<g id="a_node17"><a xlink:href="coap__notls_8c.html#aa317934415639e23b64a3bd0b4edde6c" target="_top" xlink:title=" ">
<polygon fill="white" stroke="black" points="923,-456.5 923,-475.5 1037,-475.5 1037,-456.5 923,-456.5"/>
<text text-anchor="middle" x="980" y="-463.5" font-family="Helvetica,sans-Serif" font-size="10.00">coap_tls_free_session</text>
</a>
</g>
</g>
<!-- Node1&#45;&gt;Node17 -->
<g id="edge39" class="edge">
<title>Node1&#45;&gt;Node17</title>
<path fill="none" stroke="midnightblue" d="M79.49,-333.68C113.3,-371.07 243.08,-504 379.5,-504 379.5,-504 379.5,-504 532.5,-504 667.95,-504 825.68,-486.42 912.74,-475.18"/>
<polygon fill="midnightblue" stroke="midnightblue" points="913.28,-478.64 922.74,-473.87 912.37,-471.7 913.28,-478.64"/>
</g>
<!-- Node18 -->
<g id="node18" class="node">
<title>Node18</title>
<g id="a_node18"><a xlink:href="group__logging.html#ga8b690dbed6cc3a5beb81ba5d2d27d290" target="_top" xlink:title="Get session description.">
<polygon fill="white" stroke="black" points="772.5,-190.5 772.5,-209.5 865.5,-209.5 865.5,-190.5 772.5,-190.5"/>
<text text-anchor="middle" x="819" y="-197.5" font-family="Helvetica,sans-Serif" font-size="10.00">coap_session_str</text>
</a>
</g>
</g>
<!-- Node1&#45;&gt;Node18 -->
<g id="edge37" class="edge">
<title>Node1&#45;&gt;Node18</title>
<path fill="none" stroke="midnightblue" d="M77.78,-314.19C92.75,-293.42 130.89,-245.19 176,-224 258.43,-185.27 288.43,-200 379.5,-200 379.5,-200 379.5,-200 532.5,-200 612.06,-200 704.09,-200 761.67,-200"/>
<polygon fill="midnightblue" stroke="midnightblue" points="762.01,-203.5 772.01,-200 762.01,-196.5 762.01,-203.5"/>
</g>
<!-- Node21 -->
<g id="node21" class="node">
<title>Node21</title>
<g id="a_node21"><a xlink:href="group__observe.html#ga5456a0b3cbb6c2191420632da0c54bbf" target="_top" xlink:title="Removes any subscription for session and releases the allocated storage.">
<polygon fill="white" stroke="black" points="322,-304.5 322,-323.5 439,-323.5 439,-304.5 322,-304.5"/>
<text text-anchor="middle" x="380.5" y="-311.5" font-family="Helvetica,sans-Serif" font-size="10.00">coap_delete_observers</text>
</a>
</g>
</g>
<!-- Node1&#45;&gt;Node21 -->
<g id="edge30" class="edge">
<title>Node1&#45;&gt;Node21</title>
<path fill="none" stroke="midnightblue" d="M140.23,-321.76C191.42,-320.1 260.78,-317.85 311.64,-316.2"/>
<polygon fill="midnightblue" stroke="midnightblue" points="311.99,-319.69 321.87,-315.87 311.77,-312.69 311.99,-319.69"/>
</g>
<!-- Node23 -->
<g id="node23" class="node">
<title>Node23</title>
<g id="a_node23"><a xlink:href="net_8c.html#a5e2cee998ccf618ac07aa54f5e5f8743" target="_top" xlink:title="Invokes the event handler of context for the given event and data.">
<polygon fill="white" stroke="black" points="180.5,-152.5 180.5,-171.5 281.5,-171.5 281.5,-152.5 180.5,-152.5"/>
<text text-anchor="middle" x="231" y="-159.5" font-family="Helvetica,sans-Serif" font-size="10.00">coap_handle_event</text>
</a>
</g>
</g>
<!-- Node1&#45;&gt;Node23 -->
<g id="edge36" class="edge">
<title>Node1&#45;&gt;Node23</title>
<path fill="none" stroke="midnightblue" d="M76.08,-314.31C89.38,-289.75 127.6,-224.29 176,-186 180.79,-182.21 186.28,-178.88 191.88,-176.01"/>
<polygon fill="midnightblue" stroke="midnightblue" points="193.73,-179.01 201.3,-171.6 190.76,-172.67 193.73,-179.01"/>
</g>
<!-- Node24 -->
<g id="node24" class="node">
<title>Node24</title>
<g id="a_node24"><a xlink:href="net_8c.html#a7bee391c13b539a24d9f74b2fc23e08a" target="_top" xlink:title=" ">
<polygon fill="white" stroke="black" points="632,-114.5 632,-133.5 714,-133.5 714,-114.5 632,-114.5"/>
<text text-anchor="middle" x="673" y="-121.5" font-family="Helvetica,sans-Serif" font-size="10.00">coap_wait_ack</text>
</a>
</g>
</g>
<!-- Node1&#45;&gt;Node24 -->
<g id="edge40" class="edge">
<title>Node1&#45;&gt;Node24</title>
<path fill="none" stroke="midnightblue" d="M73.17,-314.22C80.77,-282.63 109.39,-183.08 176,-143 320.29,-56.17 533.33,-90.84 626.07,-112.1"/>
<polygon fill="midnightblue" stroke="midnightblue" points="625.44,-115.55 635.98,-114.43 627.04,-108.74 625.44,-115.55"/>
</g>
<!-- Node2&#45;&gt;Node3 -->
<g id="edge2" class="edge">
<title>Node2&#45;&gt;Node3</title>
<path fill="none" stroke="midnightblue" d="M282.35,-361.02C300.35,-366.39 320.42,-372.38 337.63,-377.51"/>
<polygon fill="midnightblue" stroke="midnightblue" points="336.81,-380.92 347.39,-380.42 338.81,-374.21 336.81,-380.92"/>
</g>
<!-- Node2&#45;&gt;Node18 -->
<g id="edge28" class="edge">
<title>Node2&#45;&gt;Node18</title>
<path fill="none" stroke="midnightblue" d="M253.94,-330.86C271.58,-319.37 297.39,-304.05 322,-295 402.6,-265.36 650.26,-225.46 762.13,-208.35"/>
<polygon fill="midnightblue" stroke="midnightblue" points="762.84,-211.78 772.2,-206.82 761.78,-204.86 762.84,-211.78"/>
</g>
<!-- Node3&#45;&gt;Node4 -->
<g id="edge3" class="edge">
<title>Node3&#45;&gt;Node4</title>
<path fill="none" stroke="midnightblue" d="M402.79,-399.59C473.74,-430.92 709.32,-530.07 916,-561 972.26,-569.42 987.38,-566.55 1044,-561 1059.39,-559.49 1075.97,-556.66 1090.94,-553.62"/>
<polygon fill="midnightblue" stroke="midnightblue" points="1091.96,-556.99 1101.02,-551.51 1090.52,-550.14 1091.96,-556.99"/>
</g>
<!-- Node6 -->
<g id="node6" class="node">
<title>Node6</title>
<g id="a_node6"><a xlink:href="net_8c.html#aa2f296838e4a779197c43b254e385ddc" target="_top" xlink:title=" ">
<polygon fill="white" stroke="black" points="630,-418.5 630,-437.5 716,-437.5 716,-418.5 630,-418.5"/>
<text text-anchor="middle" x="673" y="-425.5" font-family="Helvetica,sans-Serif" font-size="10.00">coap_free_node</text>
</a>
</g>
</g>
<!-- Node3&#45;&gt;Node6 -->
<g id="edge5" class="edge">
<title>Node3&#45;&gt;Node6</title>
<path fill="none" stroke="midnightblue" d="M428.07,-397.23C443.04,-399.49 459.71,-401.92 475,-404 524,-410.65 579.97,-417.39 619.69,-422.02"/>
<polygon fill="midnightblue" stroke="midnightblue" points="619.35,-425.51 629.69,-423.18 620.16,-418.55 619.35,-425.51"/>
</g>
<!-- Node7 -->
<g id="node7" class="node">
<title>Node7</title>
<g id="a_node7"><a xlink:href="coap__session_8c.html#a9aee135ba884d7c143b11bc42fd23e53" target="_top" xlink:title="Decrement reference counter on a session.">
<polygon fill="white" stroke="black" points="475,-342.5 475,-361.5 588,-361.5 588,-342.5 475,-342.5"/>
<text text-anchor="middle" x="531.5" y="-349.5" font-family="Helvetica,sans-Serif" font-size="10.00">coap_session_release</text>
</a>
</g>
</g>
<!-- Node3&#45;&gt;Node7 -->
<g id="edge7" class="edge">
<title>Node3&#45;&gt;Node7</title>
<path fill="none" stroke="midnightblue" d="M419.1,-380.41C438.58,-375.44 462.57,-369.32 483.3,-364.04"/>
<polygon fill="midnightblue" stroke="midnightblue" points="484.35,-367.38 493.17,-361.52 482.62,-360.6 484.35,-367.38"/>
</g>
<!-- Node5 -->
<g id="node5" class="node">
<title>Node5</title>
<g id="a_node5"><a xlink:href="mem_8h.html#ae7214e0c73a4d4290525873e739ed422" target="_top" xlink:title="Releases the memory that was allocated by coap_malloc_type().">
<polygon fill="white" stroke="black" points="1249,-380.5 1249,-399.5 1332,-399.5 1332,-380.5 1249,-380.5"/>
<text text-anchor="middle" x="1290.5" y="-387.5" font-family="Helvetica,sans-Serif" font-size="10.00">coap_free_type</text>
</a>
</g>
</g>
<!-- Node4&#45;&gt;Node5 -->
<g id="edge4" class="edge">
<title>Node4&#45;&gt;Node5</title>
<path fill="none" stroke="midnightblue" d="M1175.97,-532.41C1185.02,-528.83 1194.38,-524.11 1202,-518 1239.8,-487.69 1267.7,-436.72 1280.94,-409.13"/>
<polygon fill="midnightblue" stroke="midnightblue" points="1284.24,-410.34 1285.28,-399.79 1277.89,-407.38 1284.24,-410.34"/>
</g>
<!-- Node6&#45;&gt;Node5 -->
<g id="edge6" class="edge">
<title>Node6&#45;&gt;Node5</title>
<path fill="none" stroke="midnightblue" d="M704.54,-437.6C750.05,-451.36 838.61,-476.01 916,-485 972.51,-491.57 987.51,-491.7 1044,-485 1115.72,-476.5 1135.67,-475.57 1202,-447 1226.96,-436.25 1252.68,-418.55 1269.72,-405.72"/>
<polygon fill="midnightblue" stroke="midnightblue" points="1272,-408.39 1277.79,-399.52 1267.73,-402.84 1272,-408.39"/>
</g>
<!-- Node8 -->
<g id="node8" class="node">
<title>Node8</title>
<g id="a_node8"><a xlink:href="coap__session_8c.html#ab3d24595515d6f66805791a7f821d5e7" target="_top" xlink:title=" ">
<polygon fill="white" stroke="black" points="624,-342.5 624,-361.5 722,-361.5 722,-342.5 624,-342.5"/>
<text text-anchor="middle" x="673" y="-349.5" font-family="Helvetica,sans-Serif" font-size="10.00">coap_session_free</text>
</a>
</g>
</g>
<!-- Node7&#45;&gt;Node8 -->
<g id="edge8" class="edge">
<title>Node7&#45;&gt;Node8</title>
<path fill="none" stroke="midnightblue" d="M588.03,-352C596.46,-352 605.18,-352 613.66,-352"/>
<polygon fill="midnightblue" stroke="midnightblue" points="613.86,-355.5 623.86,-352 613.86,-348.5 613.86,-355.5"/>
</g>
<!-- Node8&#45;&gt;Node5 -->
<g id="edge9" class="edge">
<title>Node8&#45;&gt;Node5</title>
<path fill="none" stroke="midnightblue" d="M722.04,-344.16C816.12,-330.55 1030.42,-308.13 1202,-354 1222.3,-359.43 1244.15,-368.42 1260.94,-376.05"/>
<polygon fill="midnightblue" stroke="midnightblue" points="1259.65,-379.31 1270.2,-380.36 1262.61,-372.97 1259.65,-379.31"/>
</g>
<!-- Node9 -->
<g id="node9" class="node">
<title>Node9</title>
<g id="a_node9"><a xlink:href="coap__session_8c.html#ab91ca670624ee770714727efff274c49" target="_top" xlink:title=" ">
<polygon fill="white" stroke="black" points="765.5,-380.5 765.5,-399.5 872.5,-399.5 872.5,-380.5 765.5,-380.5"/>
<text text-anchor="middle" x="819" y="-387.5" font-family="Helvetica,sans-Serif" font-size="10.00">coap_session_mfree</text>
</a>
</g>
</g>
<!-- Node8&#45;&gt;Node9 -->
<g id="edge10" class="edge">
<title>Node8&#45;&gt;Node9</title>
<path fill="none" stroke="midnightblue" d="M710.34,-361.59C729.08,-366.54 752.14,-372.62 772.11,-377.89"/>
<polygon fill="midnightblue" stroke="midnightblue" points="771.36,-381.31 781.92,-380.48 773.15,-374.54 771.36,-381.31"/>
</g>
<!-- Node8&#45;&gt;Node18 -->
<g id="edge25" class="edge">
<title>Node8&#45;&gt;Node18</title>
<path fill="none" stroke="midnightblue" d="M683.01,-342.49C706.85,-317.33 771.83,-248.74 802.1,-216.79"/>
<polygon fill="midnightblue" stroke="midnightblue" points="804.66,-219.17 809,-209.5 799.58,-214.36 804.66,-219.17"/>
</g>
<!-- Node9&#45;&gt;Node3 -->
<g id="edge16" class="edge">
<title>Node9&#45;&gt;Node3</title>
<path fill="none" stroke="midnightblue" d="M765.21,-390C682.62,-390 523.54,-390 438.46,-390"/>
<polygon fill="midnightblue" stroke="midnightblue" points="438.21,-386.5 428.21,-390 438.21,-393.5 438.21,-386.5"/>
</g>
<!-- Node9&#45;&gt;Node4 -->
<g id="edge17" class="edge">
<title>Node9&#45;&gt;Node4</title>
<path fill="none" stroke="midnightblue" d="M858.08,-399.56C921.47,-415.48 1041.94,-445.84 1044,-447 1078.98,-466.78 1110.15,-502.66 1126.93,-524.21"/>
<polygon fill="midnightblue" stroke="midnightblue" points="1124.19,-526.38 1133.02,-532.22 1129.76,-522.14 1124.19,-526.38"/>
</g>
<!-- Node10 -->
<g id="node10" class="node">
<title>Node10</title>
<g id="a_node10"><a xlink:href="group__cache.html#ga09e46fc4bba8b37115a3fb964b76b21c" target="_top" xlink:title="Remove a cache&#45;entry from the hash list and free off all the appropriate contents apart from app_data...">
<polygon fill="white" stroke="black" points="916,-342.5 916,-361.5 1044,-361.5 1044,-342.5 916,-342.5"/>
<text text-anchor="middle" x="980" y="-349.5" font-family="Helvetica,sans-Serif" font-size="10.00">coap_delete_cache_entry</text>
</a>
</g>
</g>
<!-- Node9&#45;&gt;Node10 -->
<g id="edge11" class="edge">
<title>Node9&#45;&gt;Node10</title>
<path fill="none" stroke="midnightblue" d="M860.12,-380.41C881.1,-375.4 906.98,-369.21 929.23,-363.89"/>
<polygon fill="midnightblue" stroke="midnightblue" points="930.25,-367.25 939.17,-361.52 928.63,-360.44 930.25,-367.25"/>
</g>
<!-- Node9&#45;&gt;Node12 -->
<g id="edge18" class="edge">
<title>Node9&#45;&gt;Node12</title>
<path fill="none" stroke="midnightblue" d="M829.4,-399.58C846.43,-416.88 883.64,-454.38 916,-485 930.76,-498.97 947.89,-514.42 960.56,-525.7"/>
<polygon fill="midnightblue" stroke="midnightblue" points="958.36,-528.44 968.17,-532.46 963.01,-523.2 958.36,-528.44"/>
</g>
<!-- Node13 -->
<g id="node13" class="node">
<title>Node13</title>
<g id="a_node13"><a xlink:href="mem_8h.html#a1e46a1505bb13f03fdacd5d1b32502a6" target="_top" xlink:title="Wrapper function to coap_free_type() for backwards compatibility.">
<polygon fill="white" stroke="black" points="1111.5,-418.5 1111.5,-437.5 1170.5,-437.5 1170.5,-418.5 1111.5,-418.5"/>
<text text-anchor="middle" x="1141" y="-425.5" font-family="Helvetica,sans-Serif" font-size="10.00">coap_free</text>
</a>
</g>
</g>
<!-- Node9&#45;&gt;Node13 -->
<g id="edge19" class="edge">
<title>Node9&#45;&gt;Node13</title>
<path fill="none" stroke="midnightblue" d="M872.57,-395.06C918,-399.57 985.41,-406.59 1044,-414 1062.82,-416.38 1083.66,-419.38 1101.1,-421.98"/>
<polygon fill="midnightblue" stroke="midnightblue" points="1101.06,-425.52 1111.47,-423.55 1102.11,-418.6 1101.06,-425.52"/>
</g>
<!-- Node9&#45;&gt;Node14 -->
<g id="edge21" class="edge">
<title>Node9&#45;&gt;Node14</title>
<path fill="none" stroke="midnightblue" d="M829.95,-380.49C856.27,-355.33 928.02,-286.74 961.44,-254.79"/>
<polygon fill="midnightblue" stroke="midnightblue" points="964.25,-256.94 969.06,-247.5 959.41,-251.88 964.25,-256.94"/>
</g>
<!-- Node9&#45;&gt;Node17 -->
<g id="edge24" class="edge">
<title>Node9&#45;&gt;Node17</title>
<path fill="none" stroke="midnightblue" d="M835.97,-399.5C854.76,-410.48 887.06,-428.72 916,-442 924.35,-445.83 933.5,-449.57 942.17,-452.91"/>
<polygon fill="midnightblue" stroke="midnightblue" points="941.11,-456.25 951.7,-456.5 943.57,-449.7 941.11,-456.25"/>
</g>
<!-- Node10&#45;&gt;Node4 -->
<g id="edge14" class="edge">
<title>Node10&#45;&gt;Node4</title>
<path fill="none" stroke="midnightblue" d="M991.74,-361.64C1004.68,-373.46 1026.83,-394.36 1044,-414 1076.57,-451.25 1110.29,-498.63 1127.8,-524.01"/>
<polygon fill="midnightblue" stroke="midnightblue" points="1124.94,-526.04 1133.48,-532.31 1130.71,-522.08 1124.94,-526.04"/>
</g>
<!-- Node10&#45;&gt;Node5 -->
<g id="edge15" class="edge">
<title>Node10&#45;&gt;Node5</title>
<path fill="none" stroke="midnightblue" d="M1044.12,-355.27C1088.47,-358.1 1149.07,-363.01 1202,-371 1214.61,-372.9 1228.13,-375.54 1240.68,-378.24"/>
<polygon fill="midnightblue" stroke="midnightblue" points="1239.98,-381.67 1250.5,-380.41 1241.49,-374.84 1239.98,-381.67"/>
</g>
<!-- Node11 -->
<g id="node11" class="node">
<title>Node11</title>
<g id="a_node11"><a xlink:href="group__cache.html#ga1930bf91ebbff5d5974ce0d55d2895b3" target="_top" xlink:title="Delete the cache&#45;key.">
<polygon fill="white" stroke="black" points="1080,-380.5 1080,-399.5 1202,-399.5 1202,-380.5 1080,-380.5"/>
<text text-anchor="middle" x="1141" y="-387.5" font-family="Helvetica,sans-Serif" font-size="10.00">coap_delete_cache_key</text>
</a>
</g>
</g>
<!-- Node10&#45;&gt;Node11 -->
<g id="edge12" class="edge">
<title>Node10&#45;&gt;Node11</title>
<path fill="none" stroke="midnightblue" d="M1021.12,-361.59C1042.1,-366.6 1067.98,-372.79 1090.23,-378.11"/>
<polygon fill="midnightblue" stroke="midnightblue" points="1089.63,-381.56 1100.17,-380.48 1091.25,-374.75 1089.63,-381.56"/>
</g>
<!-- Node11&#45;&gt;Node5 -->
<g id="edge13" class="edge">
<title>Node11&#45;&gt;Node5</title>
<path fill="none" stroke="midnightblue" d="M1202.42,-390C1214.48,-390 1227.03,-390 1238.73,-390"/>
<polygon fill="midnightblue" stroke="midnightblue" points="1238.75,-393.5 1248.75,-390 1238.75,-386.5 1238.75,-393.5"/>
</g>
<!-- Node13&#45;&gt;Node5 -->
<g id="edge20" class="edge">
<title>Node13&#45;&gt;Node5</title>
<path fill="none" stroke="midnightblue" d="M1170.79,-420.58C1191.18,-415.33 1218.99,-408.16 1242.57,-402.09"/>
<polygon fill="midnightblue" stroke="midnightblue" points="1243.57,-405.45 1252.38,-399.56 1241.83,-398.67 1243.57,-405.45"/>
</g>
<!-- Node15 -->
<g id="node15" class="node">
<title>Node15</title>
<g id="a_node15"><a xlink:href="coap__io_8c.html#ad3119e077bde4ee15a65271de0b70531" target="_top" xlink:title=" ">
<polygon fill="white" stroke="black" points="1087,-228.5 1087,-247.5 1195,-247.5 1195,-228.5 1087,-228.5"/>
<text text-anchor="middle" x="1141" y="-235.5" font-family="Helvetica,sans-Serif" font-size="10.00">coap_socket_strerror</text>
</a>
</g>
</g>
<!-- Node14&#45;&gt;Node15 -->
<g id="edge22" class="edge">
<title>Node14&#45;&gt;Node15</title>
<path fill="none" stroke="midnightblue" d="M1030.87,-238C1045.3,-238 1061.25,-238 1076.4,-238"/>
<polygon fill="midnightblue" stroke="midnightblue" points="1076.73,-241.5 1086.73,-238 1076.73,-234.5 1076.73,-241.5"/>
</g>
<!-- Node16 -->
<g id="node16" class="node">
<title>Node16</title>
<g id="a_node16"><a xlink:href="coap__io_8c.html#ae0cc13e29656551862a46150320f9390" target="_top" xlink:title=" ">
<polygon fill="white" stroke="black" points="1238,-223 1238,-253 1343,-253 1343,-223 1238,-223"/>
<text text-anchor="start" x="1246" y="-241" font-family="Helvetica,sans-Serif" font-size="10.00">coap_socket_format</text>
<text text-anchor="middle" x="1290.5" y="-230" font-family="Helvetica,sans-Serif" font-size="10.00">_errno</text>
</a>
</g>
</g>
<!-- Node15&#45;&gt;Node16 -->
<g id="edge23" class="edge">
<title>Node15&#45;&gt;Node16</title>
<path fill="none" stroke="midnightblue" d="M1195.25,-238C1205.76,-238 1216.87,-238 1227.63,-238"/>
<polygon fill="midnightblue" stroke="midnightblue" points="1227.81,-241.5 1237.81,-238 1227.81,-234.5 1227.81,-241.5"/>
</g>
<!-- Node19 -->
<g id="node19" class="node">
<title>Node19</title>
<g id="a_node19"><a xlink:href="group__logging.html#ga6a4f5ef637bf85aa161adfe73ac81ff0" target="_top" xlink:title="Print the address into the defined buffer.">
<polygon fill="white" stroke="black" points="937,-190.5 937,-209.5 1023,-209.5 1023,-190.5 937,-190.5"/>
<text text-anchor="middle" x="980" y="-197.5" font-family="Helvetica,sans-Serif" font-size="10.00">coap_print_addr</text>
</a>
</g>
</g>
<!-- Node18&#45;&gt;Node19 -->
<g id="edge26" class="edge">
<title>Node18&#45;&gt;Node19</title>
<path fill="none" stroke="midnightblue" d="M865.56,-200C884.71,-200 907.09,-200 926.88,-200"/>
<polygon fill="midnightblue" stroke="midnightblue" points="926.97,-203.5 936.97,-200 926.97,-196.5 926.97,-203.5"/>
</g>
<!-- Node20 -->
<g id="node20" class="node">
<title>Node20</title>
<g id="a_node20"><a xlink:href="coap__debug_8c.html#aaa5ee5c2942fe13271a46000b2aebde6" target="_top" xlink:title="A length&#45;safe strlen() fake.">
<polygon fill="white" stroke="black" points="1118,-190.5 1118,-209.5 1164,-209.5 1164,-190.5 1118,-190.5"/>
<text text-anchor="middle" x="1141" y="-197.5" font-family="Helvetica,sans-Serif" font-size="10.00">strnlen</text>
</a>
</g>
</g>
<!-- Node19&#45;&gt;Node20 -->
<g id="edge27" class="edge">
<title>Node19&#45;&gt;Node20</title>
<path fill="none" stroke="midnightblue" d="M1023.19,-200C1049.64,-200 1083.21,-200 1107.57,-200"/>
<polygon fill="midnightblue" stroke="midnightblue" points="1107.72,-203.5 1117.72,-200 1107.72,-196.5 1107.72,-203.5"/>
</g>
<!-- Node21&#45;&gt;Node7 -->
<g id="edge33" class="edge">
<title>Node21&#45;&gt;Node7</title>
<path fill="none" stroke="midnightblue" d="M419.1,-323.59C438.58,-328.56 462.57,-334.68 483.3,-339.96"/>
<polygon fill="midnightblue" stroke="midnightblue" points="482.62,-343.4 493.17,-342.48 484.35,-336.62 482.62,-343.4"/>
</g>
<!-- Node22 -->
<g id="node22" class="node">
<title>Node22</title>
<g id="a_node22"><a xlink:href="group__string.html#gad991c87cfcf9b2414d2dc430c8701ed3" target="_top" xlink:title="Deletes the given string and releases any memory allocated.">
<polygon fill="white" stroke="black" points="482.5,-304.5 482.5,-323.5 580.5,-323.5 580.5,-304.5 482.5,-304.5"/>
<text text-anchor="middle" x="531.5" y="-311.5" font-family="Helvetica,sans-Serif" font-size="10.00">coap_delete_string</text>
</a>
</g>
</g>
<!-- Node21&#45;&gt;Node22 -->
<g id="edge31" class="edge">
<title>Node21&#45;&gt;Node22</title>
<path fill="none" stroke="midnightblue" d="M439.11,-314C449.91,-314 461.2,-314 472.03,-314"/>
<polygon fill="midnightblue" stroke="midnightblue" points="472.23,-317.5 482.23,-314 472.23,-310.5 472.23,-317.5"/>
</g>
<!-- Node22&#45;&gt;Node5 -->
<g id="edge32" class="edge">
<title>Node22&#45;&gt;Node5</title>
<path fill="none" stroke="midnightblue" d="M580.83,-305.56C693.35,-287.93 980.15,-254.65 1202,-329 1229.21,-338.12 1255.55,-358.56 1272.09,-373.26"/>
<polygon fill="midnightblue" stroke="midnightblue" points="1270.07,-376.16 1279.8,-380.34 1274.8,-371 1270.07,-376.16"/>
</g>
<!-- Node24&#45;&gt;Node15 -->
<g id="edge45" class="edge">
<title>Node24&#45;&gt;Node15</title>
<path fill="none" stroke="midnightblue" d="M712.74,-133.53C726.92,-136.82 743.14,-140.34 758,-143 884.22,-165.61 929.81,-122.67 1044,-181 1064.72,-191.58 1060.28,-206.65 1080,-219 1083.34,-221.09 1086.93,-222.97 1090.64,-224.66"/>
<polygon fill="midnightblue" stroke="midnightblue" points="1089.43,-227.94 1100.01,-228.46 1092.06,-221.46 1089.43,-227.94"/>
</g>
<!-- Node24&#45;&gt;Node18 -->
<g id="edge44" class="edge">
<title>Node24&#45;&gt;Node18</title>
<path fill="none" stroke="midnightblue" d="M687.83,-133.61C704.14,-144.68 732.28,-163.02 758,-176 765.55,-179.81 773.85,-183.46 781.81,-186.71"/>
<polygon fill="midnightblue" stroke="midnightblue" points="780.69,-190.03 791.28,-190.46 783.27,-183.52 780.69,-190.03"/>
</g>
<!-- Node25 -->
<g id="node25" class="node">
<title>Node25</title>
<g id="a_node25"><a xlink:href="net_8c.html#a80d2c3b0141e98bf3f7914e7e59b9530" target="_top" xlink:title="Adds node to given queue, ordered by variable t in node.">
<polygon fill="white" stroke="black" points="772.5,-114.5 772.5,-133.5 865.5,-133.5 865.5,-114.5 772.5,-114.5"/>
<text text-anchor="middle" x="819" y="-121.5" font-family="Helvetica,sans-Serif" font-size="10.00">coap_insert_node</text>
</a>
</g>
</g>
<!-- Node24&#45;&gt;Node25 -->
<g id="edge41" class="edge">
<title>Node24&#45;&gt;Node25</title>
<path fill="none" stroke="midnightblue" d="M714.11,-124C728.93,-124 746,-124 761.96,-124"/>
<polygon fill="midnightblue" stroke="midnightblue" points="762.26,-127.5 772.26,-124 762.26,-120.5 762.26,-127.5"/>
</g>
<!-- Node26 -->
<g id="node26" class="node">
<title>Node26</title>
<g id="a_node26"><a xlink:href="net_8c.html#a037d8de79abc81464f8c75b0aa89931b" target="_top" xlink:title="Returns the next pdu to send without removing from sendqeue.">
<polygon fill="white" stroke="black" points="775,-76.5 775,-95.5 863,-95.5 863,-76.5 775,-76.5"/>
<text text-anchor="middle" x="819" y="-83.5" font-family="Helvetica,sans-Serif" font-size="10.00">coap_peek_next</text>
</a>
</g>
</g>
<!-- Node24&#45;&gt;Node26 -->
<g id="edge42" class="edge">
<title>Node24&#45;&gt;Node26</title>
<path fill="none" stroke="midnightblue" d="M710.34,-114.41C729.08,-109.46 752.14,-103.38 772.11,-98.11"/>
<polygon fill="midnightblue" stroke="midnightblue" points="773.15,-101.46 781.92,-95.52 771.36,-94.69 773.15,-101.46"/>
</g>
<!-- Node27 -->
<g id="node27" class="node">
<title>Node27</title>
<g id="a_node27"><a xlink:href="coap__session_8c.html#a678a93d1dd7e1a9a52f4686778eef95b" target="_top" xlink:title="Increment reference counter on a session.">
<polygon fill="white" stroke="black" points="758,-38.5 758,-57.5 880,-57.5 880,-38.5 758,-38.5"/>
<text text-anchor="middle" x="819" y="-45.5" font-family="Helvetica,sans-Serif" font-size="10.00">coap_session_reference</text>
</a>
</g>
</g>
<!-- Node24&#45;&gt;Node27 -->
<g id="edge43" class="edge">
<title>Node24&#45;&gt;Node27</title>
<path fill="none" stroke="midnightblue" d="M685.84,-114.32C701.52,-101.9 730.41,-80.38 758,-67 762.55,-64.79 767.42,-62.76 772.35,-60.92"/>
<polygon fill="midnightblue" stroke="midnightblue" points="773.53,-64.21 781.81,-57.6 771.21,-57.6 773.53,-64.21"/>
</g>
<!-- Node28 -->
<g id="node28" class="node">
<title>Node28</title>
<g id="a_node28"><a xlink:href="group__clock.html#ga350826988e63ff446a2a84034ecdf43d" target="_top" xlink:title="Sets t to the internal time with COAP_TICKS_PER_SECOND resolution.">
<polygon fill="white" stroke="black" points="787,-0.5 787,-19.5 851,-19.5 851,-0.5 787,-0.5"/>
<text text-anchor="middle" x="819" y="-7.5" font-family="Helvetica,sans-Serif" font-size="10.00">coap_ticks</text>
</a>
</g>
</g>
<!-- Node24&#45;&gt;Node28 -->
<g id="edge46" class="edge">
<title>Node24&#45;&gt;Node28</title>
<path fill="none" stroke="midnightblue" d="M679.91,-114.38C692.11,-95.28 722.01,-52.41 758,-29 763.85,-25.2 770.51,-22.11 777.21,-19.62"/>
<polygon fill="midnightblue" stroke="midnightblue" points="778.59,-22.85 786.98,-16.38 776.39,-16.2 778.59,-22.85"/>
</g>
</g>
</svg>
        <g id="navigator" transform="translate(0 0)" fill="#404254">
                <rect fill="#f2f5e9" fill-opacity="0.5" stroke="#606060" stroke-width=".5" x="0" y="0" width="60" height="60"/>
                <use id="zoomplus" xlink:href="#zoomPlus" x="17" y="9" onmousedown="handleZoom(evt,'in')"/>
                <use id="zoomminus" xlink:href="#zoomMin" x="42" y="9" onmousedown="handleZoom(evt,'out')"/>
                <use id="reset" xlink:href="#resetDef" x="30" y="36" onmousedown="handleReset()"/>
                <g id="arrowUp" xlink:href="#dirArrow" transform="translate(30 24)" onmousedown="handlePan(0,-1)">
                  <use xlink:href="#rim" fill="#404040">
                        <set attributeName="fill" to="#808080" begin="arrowUp.mouseover" end="arrowUp.mouseout"/>
                  </use>
                  <path fill="none" stroke="white" stroke-width="1.5" d="M0,-3.0v7 M-2.5,-0.5L0,-3.0L2.5,-0.5"/>
                </g>
                <g id="arrowRight" xlink:href="#dirArrow" transform="rotate(90) translate(36 -43)" onmousedown="handlePan(1,0)">
                  <use xlink:href="#rim" fill="#404040">
                        <set attributeName="fill" to="#808080" begin="arrowRight.mouseover" end="arrowRight.mouseout"/>
                  </use>
                  <path fill="none" stroke="white" stroke-width="1.5" d="M0,-3.0v7 M-2.5,-0.5L0,-3.0L2.5,-0.5"/>
                </g>
                <g id="arrowDown" xlink:href="#dirArrow" transform="rotate(180) translate(-30 -48)" onmousedown="handlePan(0,1)">
                  <use xlink:href="#rim" fill="#404040">
                        <set attributeName="fill" to="#808080" begin="arrowDown.mouseover" end="arrowDown.mouseout"/>
                  </use>
                  <path fill="none" stroke="white" stroke-width="1.5" d="M0,-3.0v7 M-2.5,-0.5L0,-3.0L2.5,-0.5"/>
                </g>
                <g id="arrowLeft" xlink:href="#dirArrow" transform="rotate(270) translate(-36 17)" onmousedown="handlePan(-1,0)">
                  <use xlink:href="#rim" fill="#404040">
                        <set attributeName="fill" to="#808080" begin="arrowLeft.mouseover" end="arrowLeft.mouseout"/>
                  </use>
                  <path fill="none" stroke="white" stroke-width="1.5" d="M0,-3.0v7 M-2.5,-0.5L0,-3.0L2.5,-0.5"/>
                </g>
        </g>
        <svg viewBox="0 0 15 15" width="100%" height="30px" preserveAspectRatio="xMaxYMin meet">
         <g id="arrow_out" transform="scale(0.3 0.3)">
          <a xlink:href="coap__session_8h_ad3377d3198c10fa086502035ded9c268_cgraph_org.svg" target="_base">
           <rect id="button" ry="5" rx="5" y="6" x="6" height="38" width="38"
                fill="#f2f5e9" fill-opacity="0.5" stroke="#606060" stroke-width="1.0"/>
           <path id="arrow"
             d="M 11.500037,31.436501 C 11.940474,20.09759 22.043105,11.32322 32.158766,21.979434 L 37.068811,17.246167 C 37.068811,17.246167 37.088388,32 37.088388,32 L 22.160133,31.978069 C 22.160133,31.978069 26.997745,27.140456 26.997745,27.140456 C 18.528582,18.264221 13.291696,25.230495 11.500037,31.436501 z"
             style="fill:#404040;"/>
          </a>
         </g>
        </svg>
</svg>
