<?xml version="1.0" encoding="UTF-8" standalone="no"?>
<!DOCTYPE svg PUBLIC "-//W3C//DTD SVG 1.1//EN"
 "http://www.w3.org/Graphics/SVG/1.1/DTD/svg11.dtd">
<!-- Generated by graphviz version 2.43.0 (0)
 -->
<!-- Title: coap_network_read Pages: 1 -->
<svg width="394pt" height="114pt"
 viewBox="0.00 0.00 394.00 113.50" xmlns="http://www.w3.org/2000/svg" xmlns:xlink="http://www.w3.org/1999/xlink">
<g id="graph0" class="graph" transform="scale(1 1) rotate(0) translate(4 109.5)">
<title>coap_network_read</title>
<polygon fill="white" stroke="transparent" points="-4,4 -4,-109.5 390,-109.5 390,4 -4,4"/>
<!-- Node1 -->
<g id="node1" class="node">
<title>Node1</title>
<g id="a_node1"><a xlink:title="Function interface for reading data.">
<polygon fill="#bfbfbf" stroke="black" points="0,-48 0,-67 101,-67 101,-48 0,-48"/>
<text text-anchor="middle" x="50.5" y="-55" font-family="Helvetica,sans-Serif" font-size="10.00">coap_network_read</text>
</a>
</g>
</g>
<!-- Node2 -->
<g id="node2" class="node">
<title>Node2</title>
<g id="a_node2"><a xlink:href="group__logging.html#ga10c3fbd56b0eb3a8722b27a65fc9b0ce" target="_top" xlink:title="Get the current logging level.">
<polygon fill="white" stroke="black" points="141,-86 141,-105 241,-105 241,-86 141,-86"/>
<text text-anchor="middle" x="191" y="-93" font-family="Helvetica,sans-Serif" font-size="10.00">coap_get_log_level</text>
</a>
</g>
</g>
<!-- Node1&#45;&gt;Node2 -->
<g id="edge1" class="edge">
<title>Node1&#45;&gt;Node2</title>
<path fill="none" stroke="midnightblue" d="M86.45,-67.09C104.33,-71.99 126.29,-78.02 145.38,-83.26"/>
<polygon fill="midnightblue" stroke="midnightblue" points="144.49,-86.64 155.06,-85.91 146.34,-79.89 144.49,-86.64"/>
</g>
<!-- Node3 -->
<g id="node3" class="node">
<title>Node3</title>
<g id="a_node3"><a xlink:href="group__logging.html#ga6a4f5ef637bf85aa161adfe73ac81ff0" target="_top" xlink:title="Print the address into the defined buffer.">
<polygon fill="white" stroke="black" points="148,-48 148,-67 234,-67 234,-48 148,-48"/>
<text text-anchor="middle" x="191" y="-55" font-family="Helvetica,sans-Serif" font-size="10.00">coap_print_addr</text>
</a>
</g>
</g>
<!-- Node1&#45;&gt;Node3 -->
<g id="edge2" class="edge">
<title>Node1&#45;&gt;Node3</title>
<path fill="none" stroke="midnightblue" d="M101.11,-57.5C112.88,-57.5 125.47,-57.5 137.36,-57.5"/>
<polygon fill="midnightblue" stroke="midnightblue" points="137.6,-61 147.6,-57.5 137.6,-54 137.6,-61"/>
</g>
<!-- Node5 -->
<g id="node5" class="node">
<title>Node5</title>
<g id="a_node5"><a xlink:href="coap__io_8c.html#ad3119e077bde4ee15a65271de0b70531" target="_top" xlink:title=" ">
<polygon fill="white" stroke="black" points="137,-9 137,-28 245,-28 245,-9 137,-9"/>
<text text-anchor="middle" x="191" y="-16" font-family="Helvetica,sans-Serif" font-size="10.00">coap_socket_strerror</text>
</a>
</g>
</g>
<!-- Node1&#45;&gt;Node5 -->
<g id="edge4" class="edge">
<title>Node1&#45;&gt;Node5</title>
<path fill="none" stroke="midnightblue" d="M85.38,-47.96C103.74,-42.79 126.64,-36.34 146.32,-30.8"/>
<polygon fill="midnightblue" stroke="midnightblue" points="147.31,-34.16 155.99,-28.08 145.41,-27.42 147.31,-34.16"/>
</g>
<!-- Node4 -->
<g id="node4" class="node">
<title>Node4</title>
<g id="a_node4"><a xlink:href="coap__debug_8c.html#aaa5ee5c2942fe13271a46000b2aebde6" target="_top" xlink:title="A length&#45;safe strlen() fake.">
<polygon fill="white" stroke="black" points="310.5,-50 310.5,-69 356.5,-69 356.5,-50 310.5,-50"/>
<text text-anchor="middle" x="333.5" y="-57" font-family="Helvetica,sans-Serif" font-size="10.00">strnlen</text>
</a>
</g>
</g>
<!-- Node3&#45;&gt;Node4 -->
<g id="edge3" class="edge">
<title>Node3&#45;&gt;Node4</title>
<path fill="none" stroke="midnightblue" d="M234.15,-58.1C255.3,-58.4 280.5,-58.76 300.1,-59.04"/>
<polygon fill="midnightblue" stroke="midnightblue" points="300.31,-62.54 310.36,-59.18 300.41,-55.54 300.31,-62.54"/>
</g>
<!-- Node6 -->
<g id="node6" class="node">
<title>Node6</title>
<g id="a_node6"><a xlink:href="coap__io_8c.html#ae0cc13e29656551862a46150320f9390" target="_top" xlink:title=" ">
<polygon fill="white" stroke="black" points="281,-0.5 281,-30.5 386,-30.5 386,-0.5 281,-0.5"/>
<text text-anchor="start" x="289" y="-18.5" font-family="Helvetica,sans-Serif" font-size="10.00">coap_socket_format</text>
<text text-anchor="middle" x="333.5" y="-7.5" font-family="Helvetica,sans-Serif" font-size="10.00">_errno</text>
</a>
</g>
</g>
<!-- Node5&#45;&gt;Node6 -->
<g id="edge5" class="edge">
<title>Node5&#45;&gt;Node6</title>
<path fill="none" stroke="midnightblue" d="M245.12,-17.37C253.4,-17.19 262.03,-17 270.49,-16.82"/>
<polygon fill="midnightblue" stroke="midnightblue" points="270.78,-20.32 280.7,-16.61 270.63,-13.32 270.78,-20.32"/>
</g>
</g>
</svg>
