<?xml version="1.0" encoding="UTF-8" standalone="no"?>
<!DOCTYPE svg PUBLIC "-//W3C//DTD SVG 1.1//EN"
 "http://www.w3.org/Graphics/SVG/1.1/DTD/svg11.dtd">
<!-- Generated by graphviz version 2.43.0 (0)
 -->
<!-- Title: coap_session_release Pages: 1 -->
<!--zoomable 338 -->
<svg id="main" version="1.1" xmlns="http://www.w3.org/2000/svg" xmlns:xlink="http://www.w3.org/1999/xlink" xml:space="preserve" onload="init(evt)">
<style type="text/css"><![CDATA[
.edge:hover path { stroke: red; }
.edge:hover polygon { stroke: red; fill: red; }
]]></style>
<script type="text/javascript"><![CDATA[
var edges = document.getElementsByTagName('g');
if (edges && edges.length) {
  for (var i=0;i<edges.length;i++) {
    if (edges[i].id.substr(0,4)=='edge') {
      edges[i].setAttribute('class','edge');
    }
  }
}
]]></script>
        <defs>
                <circle id="rim" cx="0" cy="0" r="7"/>
                <circle id="rim2" cx="0" cy="0" r="3.5"/>
                <g id="zoomPlus">
                        <use xlink:href="#rim" fill="#404040">
                                <set attributeName="fill" to="#808080" begin="zoomplus.mouseover" end="zoomplus.mouseout"/>
                        </use>
                        <path d="M-4,0h8M0,-4v8" fill="none" stroke="white" stroke-width="1.5" pointer-events="none"/>
                </g>
                <g id="zoomMin">
                        <use xlink:href="#rim" fill="#404040">
                                <set attributeName="fill" to="#808080" begin="zoomminus.mouseover" end="zoomminus.mouseout"/>
                        </use>
                        <path d="M-4,0h8" fill="none" stroke="white" stroke-width="1.5" pointer-events="none"/>
                </g>
                <g id="dirArrow">
                        <path fill="none" stroke="white" stroke-width="1.5" d="M0,-3.0v7 M-2.5,-0.5L0,-3.0L2.5,-0.5"/>
                </g>
               <g id="resetDef">
                       <use xlink:href="#rim2" fill="#404040">
                               <set attributeName="fill" to="#808080" begin="reset.mouseover" end="reset.mouseout"/>
                       </use>
               </g>
        </defs>

<script type="text/javascript">
var viewWidth = 861;
var viewHeight = 338;
var sectionId = 'dynsection-37';
</script>
<script xlink:href="svgpan.js"/>
<svg id="graph" class="graph">
<g id="viewport">
<title>coap_session_release</title>
<polygon fill="white" stroke="transparent" points="-4,4 -4,-333.5 857,-333.5 857,4 -4,4"/>
<!-- Node1 -->
<g id="node1" class="node">
<title>Node1</title>
<g id="a_node1"><a xlink:title="Decrement reference counter on a session.">
<polygon fill="#bfbfbf" stroke="black" points="0,-101 0,-120 113,-120 113,-101 0,-101"/>
<text text-anchor="middle" x="56.5" y="-108" font-family="Helvetica,sans-Serif" font-size="10.00">coap_session_release</text>
</a>
</g>
</g>
<!-- Node2 -->
<g id="node2" class="node">
<title>Node2</title>
<g id="a_node2"><a xlink:href="coap__session_8c.html#ab3d24595515d6f66805791a7f821d5e7" target="_top" xlink:title=" ">
<polygon fill="white" stroke="black" points="149,-215 149,-234 247,-234 247,-215 149,-215"/>
<text text-anchor="middle" x="198" y="-222" font-family="Helvetica,sans-Serif" font-size="10.00">coap_session_free</text>
</a>
</g>
</g>
<!-- Node1&#45;&gt;Node2 -->
<g id="edge1" class="edge">
<title>Node1&#45;&gt;Node2</title>
<path fill="none" stroke="midnightblue" d="M69.39,-120.22C93.38,-139.82 147.77,-184.27 177.2,-208.32"/>
<polygon fill="midnightblue" stroke="midnightblue" points="175.18,-211.19 185.14,-214.81 179.61,-205.77 175.18,-211.19"/>
</g>
<!-- Node3 -->
<g id="node3" class="node">
<title>Node3</title>
<g id="a_node3"><a xlink:href="mem_8h.html#ae7214e0c73a4d4290525873e739ed422" target="_top" xlink:title="Releases the memory that was allocated by coap_malloc_type().">
<polygon fill="white" stroke="black" points="759,-177 759,-196 842,-196 842,-177 759,-177"/>
<text text-anchor="middle" x="800.5" y="-184" font-family="Helvetica,sans-Serif" font-size="10.00">coap_free_type</text>
</a>
</g>
</g>
<!-- Node2&#45;&gt;Node3 -->
<g id="edge2" class="edge">
<title>Node2&#45;&gt;Node3</title>
<path fill="none" stroke="midnightblue" d="M225.44,-234C303.11,-260.36 536.11,-328.22 712,-262.5 743.08,-250.89 770.42,-222.71 785.95,-204.12"/>
<polygon fill="midnightblue" stroke="midnightblue" points="788.85,-206.09 792.4,-196.11 783.4,-201.7 788.85,-206.09"/>
</g>
<!-- Node4 -->
<g id="node4" class="node">
<title>Node4</title>
<g id="a_node4"><a xlink:href="coap__session_8c.html#ab91ca670624ee770714727efff274c49" target="_top" xlink:title=" ">
<polygon fill="white" stroke="black" points="283,-139 283,-158 390,-158 390,-139 283,-139"/>
<text text-anchor="middle" x="336.5" y="-146" font-family="Helvetica,sans-Serif" font-size="10.00">coap_session_mfree</text>
</a>
</g>
</g>
<!-- Node2&#45;&gt;Node4 -->
<g id="edge3" class="edge">
<title>Node2&#45;&gt;Node4</title>
<path fill="none" stroke="midnightblue" d="M216.29,-214.87C239.77,-201.8 281.97,-178.3 309.34,-163.06"/>
<polygon fill="midnightblue" stroke="midnightblue" points="311.32,-165.97 318.35,-158.05 307.91,-159.85 311.32,-165.97"/>
</g>
<!-- Node16 -->
<g id="node16" class="node">
<title>Node16</title>
<g id="a_node16"><a xlink:href="group__logging.html#ga8b690dbed6cc3a5beb81ba5d2d27d290" target="_top" xlink:title="Get session description.">
<polygon fill="white" stroke="black" points="290,-310 290,-329 383,-329 383,-310 290,-310"/>
<text text-anchor="middle" x="336.5" y="-317" font-family="Helvetica,sans-Serif" font-size="10.00">coap_session_str</text>
</a>
</g>
</g>
<!-- Node2&#45;&gt;Node16 -->
<g id="edge23" class="edge">
<title>Node2&#45;&gt;Node16</title>
<path fill="none" stroke="midnightblue" d="M208.64,-234.2C223.58,-248.85 253.65,-276.89 283,-295.5 288.86,-299.21 295.38,-302.67 301.79,-305.75"/>
<polygon fill="midnightblue" stroke="midnightblue" points="300.45,-308.98 311,-309.95 303.36,-302.61 300.45,-308.98"/>
</g>
<!-- Node5 -->
<g id="node5" class="node">
<title>Node5</title>
<g id="a_node5"><a xlink:href="group__cache.html#ga09e46fc4bba8b37115a3fb964b76b21c" target="_top" xlink:title="Remove a cache&#45;entry from the hash list and free off all the appropriate contents apart from app_data...">
<polygon fill="white" stroke="black" points="426,-196 426,-215 554,-215 554,-196 426,-196"/>
<text text-anchor="middle" x="490" y="-203" font-family="Helvetica,sans-Serif" font-size="10.00">coap_delete_cache_entry</text>
</a>
</g>
</g>
<!-- Node4&#45;&gt;Node5 -->
<g id="edge4" class="edge">
<title>Node4&#45;&gt;Node5</title>
<path fill="none" stroke="midnightblue" d="M357.98,-158.07C375.75,-166.19 402.28,-177.86 426,-186.5 432.06,-188.71 438.51,-190.86 444.88,-192.89"/>
<polygon fill="midnightblue" stroke="midnightblue" points="444.18,-196.33 454.77,-195.94 446.24,-189.64 444.18,-196.33"/>
</g>
<!-- Node7 -->
<g id="node7" class="node">
<title>Node7</title>
<g id="a_node7"><a xlink:href="pdu_8c.html#a48581f968a30ef4278702eb1c16b7a90" target="_top" xlink:title="Dispose of an CoAP PDU and frees associated storage.">
<polygon fill="white" stroke="black" points="606,-111 606,-130 696,-130 696,-111 606,-111"/>
<text text-anchor="middle" x="651" y="-118" font-family="Helvetica,sans-Serif" font-size="10.00">coap_delete_pdu</text>
</a>
</g>
</g>
<!-- Node4&#45;&gt;Node7 -->
<g id="edge15" class="edge">
<title>Node4&#45;&gt;Node7</title>
<path fill="none" stroke="midnightblue" d="M354.12,-138.92C371.43,-129.55 399.63,-115.92 426,-110.5 483.07,-98.77 549.98,-104.17 595.72,-110.69"/>
<polygon fill="midnightblue" stroke="midnightblue" points="595.31,-114.16 605.71,-112.18 596.34,-107.24 595.31,-114.16"/>
</g>
<!-- Node8 -->
<g id="node8" class="node">
<title>Node8</title>
<g id="a_node8"><a xlink:href="net_8c.html#a44c39a2314035989d3e07b9d9328e08c" target="_top" xlink:title="Destroys specified node.">
<polygon fill="white" stroke="black" points="442.5,-44 442.5,-63 537.5,-63 537.5,-44 442.5,-44"/>
<text text-anchor="middle" x="490" y="-51" font-family="Helvetica,sans-Serif" font-size="10.00">coap_delete_node</text>
</a>
</g>
</g>
<!-- Node4&#45;&gt;Node8 -->
<g id="edge10" class="edge">
<title>Node4&#45;&gt;Node8</title>
<path fill="none" stroke="midnightblue" d="M349.47,-138.73C372.67,-119.83 421.83,-79.89 426,-77.5 433.15,-73.41 441.13,-69.75 448.94,-66.6"/>
<polygon fill="midnightblue" stroke="midnightblue" points="450.23,-69.85 458.32,-63.01 447.73,-63.31 450.23,-69.85"/>
</g>
<!-- Node10 -->
<g id="node10" class="node">
<title>Node10</title>
<g id="a_node10"><a xlink:href="coap__dtls__gnutls_8c.html#a89102d85f6cce550adf91b075a6326c7" target="_top" xlink:title=" ">
<polygon fill="white" stroke="black" points="430.5,-120 430.5,-139 549.5,-139 549.5,-120 430.5,-120"/>
<text text-anchor="middle" x="490" y="-127" font-family="Helvetica,sans-Serif" font-size="10.00">coap_dtls_free_session</text>
</a>
</g>
</g>
<!-- Node4&#45;&gt;Node10 -->
<g id="edge16" class="edge">
<title>Node4&#45;&gt;Node10</title>
<path fill="none" stroke="midnightblue" d="M390.06,-141.91C399.8,-140.69 410.11,-139.39 420.25,-138.12"/>
<polygon fill="midnightblue" stroke="midnightblue" points="420.82,-141.58 430.31,-136.86 419.95,-134.63 420.82,-141.58"/>
</g>
<!-- Node11 -->
<g id="node11" class="node">
<title>Node11</title>
<g id="a_node11"><a xlink:href="mem_8h.html#a1e46a1505bb13f03fdacd5d1b32502a6" target="_top" xlink:title="Wrapper function to coap_free_type() for backwards compatibility.">
<polygon fill="white" stroke="black" points="621.5,-234 621.5,-253 680.5,-253 680.5,-234 621.5,-234"/>
<text text-anchor="middle" x="651" y="-241" font-family="Helvetica,sans-Serif" font-size="10.00">coap_free</text>
</a>
</g>
</g>
<!-- Node4&#45;&gt;Node11 -->
<g id="edge17" class="edge">
<title>Node4&#45;&gt;Node11</title>
<path fill="none" stroke="midnightblue" d="M345.04,-158.08C358.95,-174.96 390.51,-209.62 426,-224.5 486.94,-250.06 565.25,-250.12 611.3,-247.23"/>
<polygon fill="midnightblue" stroke="midnightblue" points="611.72,-250.71 621.45,-246.51 611.23,-243.73 611.72,-250.71"/>
</g>
<!-- Node12 -->
<g id="node12" class="node">
<title>Node12</title>
<g id="a_node12"><a xlink:href="coap__io_8c.html#a2de382e7795c908d1a376da8c338386d" target="_top" xlink:title=" ">
<polygon fill="white" stroke="black" points="439.5,-6 439.5,-25 540.5,-25 540.5,-6 439.5,-6"/>
<text text-anchor="middle" x="490" y="-13" font-family="Helvetica,sans-Serif" font-size="10.00">coap_socket_close</text>
</a>
</g>
</g>
<!-- Node4&#45;&gt;Node12 -->
<g id="edge19" class="edge">
<title>Node4&#45;&gt;Node12</title>
<path fill="none" stroke="midnightblue" d="M342.25,-138.92C353.6,-117.03 384.49,-63.01 426,-34.5 428.91,-32.5 432.04,-30.7 435.29,-29.1"/>
<polygon fill="midnightblue" stroke="midnightblue" points="436.9,-32.21 444.7,-25.03 434.13,-25.79 436.9,-32.21"/>
</g>
<!-- Node15 -->
<g id="node15" class="node">
<title>Node15</title>
<g id="a_node15"><a xlink:href="coap__notls_8c.html#aa317934415639e23b64a3bd0b4edde6c" target="_top" xlink:title=" ">
<polygon fill="white" stroke="black" points="433,-158 433,-177 547,-177 547,-158 433,-158"/>
<text text-anchor="middle" x="490" y="-165" font-family="Helvetica,sans-Serif" font-size="10.00">coap_tls_free_session</text>
</a>
</g>
</g>
<!-- Node4&#45;&gt;Node15 -->
<g id="edge22" class="edge">
<title>Node4&#45;&gt;Node15</title>
<path fill="none" stroke="midnightblue" d="M390.06,-155.09C400.66,-156.42 411.93,-157.83 422.93,-159.21"/>
<polygon fill="midnightblue" stroke="midnightblue" points="422.56,-162.69 432.92,-160.47 423.43,-155.75 422.56,-162.69"/>
</g>
<!-- Node5&#45;&gt;Node3 -->
<g id="edge9" class="edge">
<title>Node5&#45;&gt;Node3</title>
<path fill="none" stroke="midnightblue" d="M554.17,-201.61C611.69,-198.07 695.51,-192.9 748.77,-189.62"/>
<polygon fill="midnightblue" stroke="midnightblue" points="749.23,-193.1 759,-188.99 748.8,-186.12 749.23,-193.1"/>
</g>
<!-- Node6 -->
<g id="node6" class="node">
<title>Node6</title>
<g id="a_node6"><a xlink:href="group__cache.html#ga1930bf91ebbff5d5974ce0d55d2895b3" target="_top" xlink:title="Delete the cache&#45;key.">
<polygon fill="white" stroke="black" points="590,-158 590,-177 712,-177 712,-158 590,-158"/>
<text text-anchor="middle" x="651" y="-165" font-family="Helvetica,sans-Serif" font-size="10.00">coap_delete_cache_key</text>
</a>
</g>
</g>
<!-- Node5&#45;&gt;Node6 -->
<g id="edge5" class="edge">
<title>Node5&#45;&gt;Node6</title>
<path fill="none" stroke="midnightblue" d="M531.12,-195.91C552.1,-190.9 577.98,-184.71 600.23,-179.39"/>
<polygon fill="midnightblue" stroke="midnightblue" points="601.25,-182.75 610.17,-177.02 599.63,-175.94 601.25,-182.75"/>
</g>
<!-- Node5&#45;&gt;Node7 -->
<g id="edge7" class="edge">
<title>Node5&#45;&gt;Node7</title>
<path fill="none" stroke="midnightblue" d="M533.66,-195.95C540.73,-193.44 547.78,-190.34 554,-186.5 573.8,-174.29 571.13,-162.1 590,-148.5 597.52,-143.08 606.26,-138.3 614.7,-134.28"/>
<polygon fill="midnightblue" stroke="midnightblue" points="616.34,-137.39 624.02,-130.09 613.47,-131 616.34,-137.39"/>
</g>
<!-- Node6&#45;&gt;Node3 -->
<g id="edge6" class="edge">
<title>Node6&#45;&gt;Node3</title>
<path fill="none" stroke="midnightblue" d="M712.42,-175.28C724.48,-176.84 737.03,-178.45 748.73,-179.96"/>
<polygon fill="midnightblue" stroke="midnightblue" points="748.39,-183.44 758.75,-181.25 749.28,-176.5 748.39,-183.44"/>
</g>
<!-- Node7&#45;&gt;Node3 -->
<g id="edge8" class="edge">
<title>Node7&#45;&gt;Node3</title>
<path fill="none" stroke="midnightblue" d="M673.45,-130.1C698.46,-141.29 740.02,-159.88 768.53,-172.64"/>
<polygon fill="midnightblue" stroke="midnightblue" points="767.47,-176 778.03,-176.89 770.33,-169.61 767.47,-176"/>
</g>
<!-- Node8&#45;&gt;Node1 -->
<g id="edge14" class="edge">
<title>Node8&#45;&gt;Node1</title>
<path fill="none" stroke="midnightblue" d="M442.27,-59.67C365.18,-69.86 211.16,-90.2 123.16,-101.83"/>
<polygon fill="midnightblue" stroke="midnightblue" points="122.48,-98.39 113.03,-103.16 123.4,-105.33 122.48,-98.39"/>
</g>
<!-- Node8&#45;&gt;Node7 -->
<g id="edge11" class="edge">
<title>Node8&#45;&gt;Node7</title>
<path fill="none" stroke="midnightblue" d="M517.19,-63.09C528.56,-67.36 542,-72.53 554,-77.5 576.41,-86.78 601.42,-98.01 620.29,-106.66"/>
<polygon fill="midnightblue" stroke="midnightblue" points="619,-109.92 629.55,-110.93 621.93,-103.57 619,-109.92"/>
</g>
<!-- Node9 -->
<g id="node9" class="node">
<title>Node9</title>
<g id="a_node9"><a xlink:href="net_8c.html#aa2f296838e4a779197c43b254e385ddc" target="_top" xlink:title=" ">
<polygon fill="white" stroke="black" points="608,-54 608,-73 694,-73 694,-54 608,-54"/>
<text text-anchor="middle" x="651" y="-61" font-family="Helvetica,sans-Serif" font-size="10.00">coap_free_node</text>
</a>
</g>
</g>
<!-- Node8&#45;&gt;Node9 -->
<g id="edge12" class="edge">
<title>Node8&#45;&gt;Node9</title>
<path fill="none" stroke="midnightblue" d="M537.85,-56.45C556.64,-57.63 578.37,-59 597.68,-60.21"/>
<polygon fill="midnightblue" stroke="midnightblue" points="597.62,-63.71 607.82,-60.85 598.06,-56.73 597.62,-63.71"/>
</g>
<!-- Node9&#45;&gt;Node3 -->
<g id="edge13" class="edge">
<title>Node9&#45;&gt;Node3</title>
<path fill="none" stroke="midnightblue" d="M669.18,-73.1C681.53,-80.3 698.35,-90.73 712,-101.5 739.11,-122.88 767.18,-151.5 783.99,-169.47"/>
<polygon fill="midnightblue" stroke="midnightblue" points="781.52,-171.95 790.88,-176.91 786.65,-167.2 781.52,-171.95"/>
</g>
<!-- Node11&#45;&gt;Node3 -->
<g id="edge18" class="edge">
<title>Node11&#45;&gt;Node3</title>
<path fill="none" stroke="midnightblue" d="M676.69,-233.96C700.94,-224.59 738.14,-210.21 765.24,-199.74"/>
<polygon fill="midnightblue" stroke="midnightblue" points="766.67,-202.94 774.73,-196.07 764.14,-196.41 766.67,-202.94"/>
</g>
<!-- Node13 -->
<g id="node13" class="node">
<title>Node13</title>
<g id="a_node13"><a xlink:href="coap__io_8c.html#ad3119e077bde4ee15a65271de0b70531" target="_top" xlink:title=" ">
<polygon fill="white" stroke="black" points="597,-6 597,-25 705,-25 705,-6 597,-6"/>
<text text-anchor="middle" x="651" y="-13" font-family="Helvetica,sans-Serif" font-size="10.00">coap_socket_strerror</text>
</a>
</g>
</g>
<!-- Node12&#45;&gt;Node13 -->
<g id="edge20" class="edge">
<title>Node12&#45;&gt;Node13</title>
<path fill="none" stroke="midnightblue" d="M540.87,-15.5C555.3,-15.5 571.25,-15.5 586.4,-15.5"/>
<polygon fill="midnightblue" stroke="midnightblue" points="586.73,-19 596.73,-15.5 586.73,-12 586.73,-19"/>
</g>
<!-- Node14 -->
<g id="node14" class="node">
<title>Node14</title>
<g id="a_node14"><a xlink:href="coap__io_8c.html#ae0cc13e29656551862a46150320f9390" target="_top" xlink:title=" ">
<polygon fill="white" stroke="black" points="748,-0.5 748,-30.5 853,-30.5 853,-0.5 748,-0.5"/>
<text text-anchor="start" x="756" y="-18.5" font-family="Helvetica,sans-Serif" font-size="10.00">coap_socket_format</text>
<text text-anchor="middle" x="800.5" y="-7.5" font-family="Helvetica,sans-Serif" font-size="10.00">_errno</text>
</a>
</g>
</g>
<!-- Node13&#45;&gt;Node14 -->
<g id="edge21" class="edge">
<title>Node13&#45;&gt;Node14</title>
<path fill="none" stroke="midnightblue" d="M705.25,-15.5C715.76,-15.5 726.87,-15.5 737.63,-15.5"/>
<polygon fill="midnightblue" stroke="midnightblue" points="737.81,-19 747.81,-15.5 737.81,-12 737.81,-19"/>
</g>
<!-- Node17 -->
<g id="node17" class="node">
<title>Node17</title>
<g id="a_node17"><a xlink:href="group__logging.html#ga6a4f5ef637bf85aa161adfe73ac81ff0" target="_top" xlink:title="Print the address into the defined buffer.">
<polygon fill="white" stroke="black" points="447,-310 447,-329 533,-329 533,-310 447,-310"/>
<text text-anchor="middle" x="490" y="-317" font-family="Helvetica,sans-Serif" font-size="10.00">coap_print_addr</text>
</a>
</g>
</g>
<!-- Node16&#45;&gt;Node17 -->
<g id="edge24" class="edge">
<title>Node16&#45;&gt;Node17</title>
<path fill="none" stroke="midnightblue" d="M383.37,-319.5C400.1,-319.5 419.15,-319.5 436.42,-319.5"/>
<polygon fill="midnightblue" stroke="midnightblue" points="436.91,-323 446.91,-319.5 436.91,-316 436.91,-323"/>
</g>
<!-- Node18 -->
<g id="node18" class="node">
<title>Node18</title>
<g id="a_node18"><a xlink:href="coap__debug_8c.html#aaa5ee5c2942fe13271a46000b2aebde6" target="_top" xlink:title="A length&#45;safe strlen() fake.">
<polygon fill="white" stroke="black" points="628,-310 628,-329 674,-329 674,-310 628,-310"/>
<text text-anchor="middle" x="651" y="-317" font-family="Helvetica,sans-Serif" font-size="10.00">strnlen</text>
</a>
</g>
</g>
<!-- Node17&#45;&gt;Node18 -->
<g id="edge25" class="edge">
<title>Node17&#45;&gt;Node18</title>
<path fill="none" stroke="midnightblue" d="M533.19,-319.5C559.64,-319.5 593.21,-319.5 617.57,-319.5"/>
<polygon fill="midnightblue" stroke="midnightblue" points="617.72,-323 627.72,-319.5 617.72,-316 617.72,-323"/>
</g>
</g>
</svg>
        <g id="navigator" transform="translate(0 0)" fill="#404254">
                <rect fill="#f2f5e9" fill-opacity="0.5" stroke="#606060" stroke-width=".5" x="0" y="0" width="60" height="60"/>
                <use id="zoomplus" xlink:href="#zoomPlus" x="17" y="9" onmousedown="handleZoom(evt,'in')"/>
                <use id="zoomminus" xlink:href="#zoomMin" x="42" y="9" onmousedown="handleZoom(evt,'out')"/>
                <use id="reset" xlink:href="#resetDef" x="30" y="36" onmousedown="handleReset()"/>
                <g id="arrowUp" xlink:href="#dirArrow" transform="translate(30 24)" onmousedown="handlePan(0,-1)">
                  <use xlink:href="#rim" fill="#404040">
                        <set attributeName="fill" to="#808080" begin="arrowUp.mouseover" end="arrowUp.mouseout"/>
                  </use>
                  <path fill="none" stroke="white" stroke-width="1.5" d="M0,-3.0v7 M-2.5,-0.5L0,-3.0L2.5,-0.5"/>
                </g>
                <g id="arrowRight" xlink:href="#dirArrow" transform="rotate(90) translate(36 -43)" onmousedown="handlePan(1,0)">
                  <use xlink:href="#rim" fill="#404040">
                        <set attributeName="fill" to="#808080" begin="arrowRight.mouseover" end="arrowRight.mouseout"/>
                  </use>
                  <path fill="none" stroke="white" stroke-width="1.5" d="M0,-3.0v7 M-2.5,-0.5L0,-3.0L2.5,-0.5"/>
                </g>
                <g id="arrowDown" xlink:href="#dirArrow" transform="rotate(180) translate(-30 -48)" onmousedown="handlePan(0,1)">
                  <use xlink:href="#rim" fill="#404040">
                        <set attributeName="fill" to="#808080" begin="arrowDown.mouseover" end="arrowDown.mouseout"/>
                  </use>
                  <path fill="none" stroke="white" stroke-width="1.5" d="M0,-3.0v7 M-2.5,-0.5L0,-3.0L2.5,-0.5"/>
                </g>
                <g id="arrowLeft" xlink:href="#dirArrow" transform="rotate(270) translate(-36 17)" onmousedown="handlePan(-1,0)">
                  <use xlink:href="#rim" fill="#404040">
                        <set attributeName="fill" to="#808080" begin="arrowLeft.mouseover" end="arrowLeft.mouseout"/>
                  </use>
                  <path fill="none" stroke="white" stroke-width="1.5" d="M0,-3.0v7 M-2.5,-0.5L0,-3.0L2.5,-0.5"/>
                </g>
        </g>
        <svg viewBox="0 0 15 15" width="100%" height="30px" preserveAspectRatio="xMaxYMin meet">
         <g id="arrow_out" transform="scale(0.3 0.3)">
          <a xlink:href="coap__session_8c_a9aee135ba884d7c143b11bc42fd23e53_cgraph_org.svg" target="_base">
           <rect id="button" ry="5" rx="5" y="6" x="6" height="38" width="38"
                fill="#f2f5e9" fill-opacity="0.5" stroke="#606060" stroke-width="1.0"/>
           <path id="arrow"
             d="M 11.500037,31.436501 C 11.940474,20.09759 22.043105,11.32322 32.158766,21.979434 L 37.068811,17.246167 C 37.068811,17.246167 37.088388,32 37.088388,32 L 22.160133,31.978069 C 22.160133,31.978069 26.997745,27.140456 26.997745,27.140456 C 18.528582,18.264221 13.291696,25.230495 11.500037,31.436501 z"
             style="fill:#404040;"/>
          </a>
         </g>
        </svg>
</svg>
