<?xml version="1.0" encoding="UTF-8" standalone="no"?>
<!DOCTYPE svg PUBLIC "-//W3C//DTD SVG 1.1//EN"
 "http://www.w3.org/Graphics/SVG/1.1/DTD/svg11.dtd">
<!-- Generated by graphviz version 2.43.0 (0)
 -->
<!-- Title: coap_tls_is_supported Pages: 1 -->
<svg width="643pt" height="142pt"
 viewBox="0.00 0.00 643.00 142.00" xmlns="http://www.w3.org/2000/svg" xmlns:xlink="http://www.w3.org/1999/xlink">
<g id="graph0" class="graph" transform="scale(1 1) rotate(0) translate(4 138)">
<title>coap_tls_is_supported</title>
<polygon fill="white" stroke="transparent" points="-4,4 -4,-138 639,-138 639,4 -4,4"/>
<!-- Node1 -->
<g id="node1" class="node">
<title>Node1</title>
<g id="a_node1"><a xlink:title="Check whether TLS is available.">
<polygon fill="#bfbfbf" stroke="black" points="521,-76.5 521,-95.5 635,-95.5 635,-76.5 521,-76.5"/>
<text text-anchor="middle" x="578" y="-83.5" font-family="Helvetica,sans-Serif" font-size="10.00">coap_tls_is_supported</text>
</a>
</g>
</g>
<!-- Node2 -->
<g id="node2" class="node">
<title>Node2</title>
<g id="a_node2"><a xlink:href="coap__session_8c.html#ab5232b5141e191638ee6b7da6239dd1b" target="_top" xlink:title="Create a new endpoint for communicating with peers.">
<polygon fill="white" stroke="black" points="379,-106.5 379,-125.5 482,-125.5 482,-106.5 379,-106.5"/>
<text text-anchor="middle" x="430.5" y="-113.5" font-family="Helvetica,sans-Serif" font-size="10.00">coap_new_endpoint</text>
</a>
</g>
</g>
<!-- Node1&#45;&gt;Node2 -->
<g id="edge1" class="edge">
<title>Node1&#45;&gt;Node2</title>
<path fill="none" stroke="midnightblue" d="M520.5,-97.65C506.44,-100.55 491.52,-103.63 478,-106.41"/>
<polygon fill="midnightblue" stroke="midnightblue" points="521.48,-101.02 530.56,-95.57 520.06,-94.17 521.48,-101.02"/>
</g>
<!-- Node4 -->
<g id="node4" class="node">
<title>Node4</title>
<g id="a_node4"><a xlink:href="coap__session_8c.html#a78865254d0191854b0b7c35f28eefe71" target="_top" xlink:title=" ">
<polygon fill="white" stroke="black" points="376,-49 376,-79 485,-79 485,-49 376,-49"/>
<text text-anchor="start" x="384" y="-67" font-family="Helvetica,sans-Serif" font-size="10.00">coap_session_create</text>
<text text-anchor="middle" x="430.5" y="-56" font-family="Helvetica,sans-Serif" font-size="10.00">_client</text>
</a>
</g>
</g>
<!-- Node1&#45;&gt;Node4 -->
<g id="edge3" class="edge">
<title>Node1&#45;&gt;Node4</title>
<path fill="none" stroke="midnightblue" d="M510.78,-75.99C502.22,-74.69 493.54,-73.38 485.22,-72.12"/>
<polygon fill="midnightblue" stroke="midnightblue" points="510.33,-79.46 520.75,-77.49 511.38,-72.54 510.33,-79.46"/>
</g>
<!-- Node3 -->
<g id="node3" class="node">
<title>Node3</title>
<g id="a_node3"><a xlink:href="net_8c.html#a8baf4e3608ff5eb00adac694fe25eb60" target="_top" xlink:title="Creates a new coap_context_t object that will hold the CoAP stack status.">
<polygon fill="white" stroke="black" points="213.5,-114.5 213.5,-133.5 311.5,-133.5 311.5,-114.5 213.5,-114.5"/>
<text text-anchor="middle" x="262.5" y="-121.5" font-family="Helvetica,sans-Serif" font-size="10.00">coap_new_context</text>
</a>
</g>
</g>
<!-- Node2&#45;&gt;Node3 -->
<g id="edge2" class="edge">
<title>Node2&#45;&gt;Node3</title>
<path fill="none" stroke="midnightblue" d="M368.56,-118.94C349.79,-119.84 329.4,-120.82 311.63,-121.68"/>
<polygon fill="midnightblue" stroke="midnightblue" points="368.97,-122.42 378.79,-118.44 368.64,-115.43 368.97,-122.42"/>
</g>
<!-- Node5 -->
<g id="node5" class="node">
<title>Node5</title>
<g id="a_node5"><a xlink:href="coap__session_8c.html#ad495fcd405fa86859fa36d45f89be910" target="_top" xlink:title="Creates a new client session to the designated server.">
<polygon fill="white" stroke="black" points="198.5,-76.5 198.5,-95.5 326.5,-95.5 326.5,-76.5 198.5,-76.5"/>
<text text-anchor="middle" x="262.5" y="-83.5" font-family="Helvetica,sans-Serif" font-size="10.00">coap_new_client_session</text>
</a>
</g>
</g>
<!-- Node4&#45;&gt;Node5 -->
<g id="edge4" class="edge">
<title>Node4&#45;&gt;Node5</title>
<path fill="none" stroke="midnightblue" d="M365.53,-72.48C352.78,-74.17 339.39,-75.94 326.66,-77.63"/>
<polygon fill="midnightblue" stroke="midnightblue" points="366.15,-75.93 375.6,-71.14 365.23,-68.99 366.15,-75.93"/>
</g>
<!-- Node6 -->
<g id="node6" class="node">
<title>Node6</title>
<g id="a_node6"><a xlink:href="coap__session_8c.html#ac63f29af82e4d3160c59b8451aa5868c" target="_top" xlink:title="Creates a new client session to the designated server with PKI credentials.">
<polygon fill="white" stroke="black" points="189.5,-38.5 189.5,-57.5 335.5,-57.5 335.5,-38.5 189.5,-38.5"/>
<text text-anchor="middle" x="262.5" y="-45.5" font-family="Helvetica,sans-Serif" font-size="10.00">coap_new_client_session_pki</text>
</a>
</g>
</g>
<!-- Node4&#45;&gt;Node6 -->
<g id="edge5" class="edge">
<title>Node4&#45;&gt;Node6</title>
<path fill="none" stroke="midnightblue" d="M365.53,-57.83C355.72,-56.89 345.52,-55.91 335.55,-54.94"/>
<polygon fill="midnightblue" stroke="midnightblue" points="365.31,-61.33 375.6,-58.81 365.99,-54.36 365.31,-61.33"/>
</g>
<!-- Node7 -->
<g id="node7" class="node">
<title>Node7</title>
<g id="a_node7"><a xlink:href="coap__session_8c.html#a72062f436d246bf3e91f92c12b2990a6" target="_top" xlink:title="Creates a new client session to the designated server with PSK credentials.">
<polygon fill="white" stroke="black" points="185,-0.5 185,-19.5 340,-19.5 340,-0.5 185,-0.5"/>
<text text-anchor="middle" x="262.5" y="-7.5" font-family="Helvetica,sans-Serif" font-size="10.00">coap_new_client_session_psk2</text>
</a>
</g>
</g>
<!-- Node4&#45;&gt;Node7 -->
<g id="edge6" class="edge">
<title>Node4&#45;&gt;Node7</title>
<path fill="none" stroke="midnightblue" d="M384.66,-45.16C370.51,-39.56 354.73,-33.69 340,-29 329.18,-25.56 317.33,-22.35 306.26,-19.58"/>
<polygon fill="midnightblue" stroke="midnightblue" points="383.58,-48.49 394.17,-48.96 386.19,-42 383.58,-48.49"/>
</g>
<!-- Node8 -->
<g id="node8" class="node">
<title>Node8</title>
<g id="a_node8"><a xlink:href="coap__session_8c.html#a40790c70df0b38fe89f3fb2ad255d662" target="_top" xlink:title="Creates a new client session to the designated server with PSK credentials.">
<polygon fill="white" stroke="black" points="0,-0.5 0,-19.5 149,-19.5 149,-0.5 0,-0.5"/>
<text text-anchor="middle" x="74.5" y="-7.5" font-family="Helvetica,sans-Serif" font-size="10.00">coap_new_client_session_psk</text>
</a>
</g>
</g>
<!-- Node7&#45;&gt;Node8 -->
<g id="edge7" class="edge">
<title>Node7&#45;&gt;Node8</title>
<path fill="none" stroke="midnightblue" d="M174.74,-10C166.15,-10 157.49,-10 149.06,-10"/>
<polygon fill="midnightblue" stroke="midnightblue" points="174.77,-13.5 184.77,-10 174.77,-6.5 174.77,-13.5"/>
</g>
</g>
</svg>
