<?xml version="1.0" encoding="UTF-8" standalone="no"?>
<!DOCTYPE svg PUBLIC "-//W3C//DTD SVG 1.1//EN"
 "http://www.w3.org/Graphics/SVG/1.1/DTD/svg11.dtd">
<!-- Generated by graphviz version 2.43.0 (0)
 -->
<!-- Title: coap_pdu_parse Pages: 1 -->
<!--zoomable 218 -->
<svg id="main" version="1.1" xmlns="http://www.w3.org/2000/svg" xmlns:xlink="http://www.w3.org/1999/xlink" xml:space="preserve" onload="init(evt)">
<style type="text/css"><![CDATA[
.edge:hover path { stroke: red; }
.edge:hover polygon { stroke: red; fill: red; }
]]></style>
<script type="text/javascript"><![CDATA[
var edges = document.getElementsByTagName('g');
if (edges && edges.length) {
  for (var i=0;i<edges.length;i++) {
    if (edges[i].id.substr(0,4)=='edge') {
      edges[i].setAttribute('class','edge');
    }
  }
}
]]></script>
        <defs>
                <circle id="rim" cx="0" cy="0" r="7"/>
                <circle id="rim2" cx="0" cy="0" r="3.5"/>
                <g id="zoomPlus">
                        <use xlink:href="#rim" fill="#404040">
                                <set attributeName="fill" to="#808080" begin="zoomplus.mouseover" end="zoomplus.mouseout"/>
                        </use>
                        <path d="M-4,0h8M0,-4v8" fill="none" stroke="white" stroke-width="1.5" pointer-events="none"/>
                </g>
                <g id="zoomMin">
                        <use xlink:href="#rim" fill="#404040">
                                <set attributeName="fill" to="#808080" begin="zoomminus.mouseover" end="zoomminus.mouseout"/>
                        </use>
                        <path d="M-4,0h8" fill="none" stroke="white" stroke-width="1.5" pointer-events="none"/>
                </g>
                <g id="dirArrow">
                        <path fill="none" stroke="white" stroke-width="1.5" d="M0,-3.0v7 M-2.5,-0.5L0,-3.0L2.5,-0.5"/>
                </g>
               <g id="resetDef">
                       <use xlink:href="#rim2" fill="#404040">
                               <set attributeName="fill" to="#808080" begin="reset.mouseover" end="reset.mouseout"/>
                       </use>
               </g>
        </defs>

<script type="text/javascript">
var viewWidth = 569;
var viewHeight = 218;
var sectionId = 'dynsection-6';
</script>
<script xlink:href="svgpan.js"/>
<svg id="graph" class="graph">
<g id="viewport">
<title>coap_pdu_parse</title>
<polygon fill="white" stroke="transparent" points="-4,4 -4,-214 565,-214 565,4 -4,4"/>
<!-- Node1 -->
<g id="node1" class="node">
<title>Node1</title>
<g id="a_node1"><a xlink:title="Parses data into the CoAP PDU structure given in result.">
<polygon fill="#bfbfbf" stroke="black" points="0,-114.5 0,-133.5 88,-133.5 88,-114.5 0,-114.5"/>
<text text-anchor="middle" x="44" y="-121.5" font-family="Helvetica,sans-Serif" font-size="10.00">coap_pdu_parse</text>
</a>
</g>
</g>
<!-- Node2 -->
<g id="node2" class="node">
<title>Node2</title>
<g id="a_node2"><a xlink:href="group__pdu__internal.html#ga516ac8dae1f2fe33963f80cf15ec59a0" target="_top" xlink:title="Decode the protocol specific header for the specified PDU.">
<polygon fill="white" stroke="black" points="136,-171.5 136,-190.5 258,-190.5 258,-171.5 136,-171.5"/>
<text text-anchor="middle" x="197" y="-178.5" font-family="Helvetica,sans-Serif" font-size="10.00">coap_pdu_parse_header</text>
</a>
</g>
</g>
<!-- Node1&#45;&gt;Node2 -->
<g id="edge1" class="edge">
<title>Node1&#45;&gt;Node2</title>
<path fill="none" stroke="midnightblue" d="M62.46,-133.59C78.2,-141.95 102.15,-153.95 124,-162 130.52,-164.4 137.48,-166.64 144.4,-168.66"/>
<polygon fill="midnightblue" stroke="midnightblue" points="143.89,-172.15 154.46,-171.48 145.77,-165.41 143.89,-172.15"/>
</g>
<!-- Node3 -->
<g id="node3" class="node">
<title>Node3</title>
<g id="a_node3"><a xlink:href="group__pdu__internal.html#ga53c48f11ca3bc0d2106bd8b76f7430c8" target="_top" xlink:title="Interprets data to determine the number of bytes in the header.">
<polygon fill="white" stroke="black" points="124,-133.5 124,-152.5 270,-152.5 270,-133.5 124,-133.5"/>
<text text-anchor="middle" x="197" y="-140.5" font-family="Helvetica,sans-Serif" font-size="10.00">coap_pdu_parse_header_size</text>
</a>
</g>
</g>
<!-- Node1&#45;&gt;Node3 -->
<g id="edge2" class="edge">
<title>Node1&#45;&gt;Node3</title>
<path fill="none" stroke="midnightblue" d="M88.27,-129.44C96.38,-130.46 105.09,-131.56 113.93,-132.67"/>
<polygon fill="midnightblue" stroke="midnightblue" points="113.57,-136.16 123.93,-133.93 114.44,-129.21 113.57,-136.16"/>
</g>
<!-- Node4 -->
<g id="node4" class="node">
<title>Node4</title>
<g id="a_node4"><a xlink:href="group__pdu__internal.html#gaa7fbcbe0f8d7415e82447747abf31d51" target="_top" xlink:title="Verify consistency in the given CoAP PDU structure and locate the data.">
<polygon fill="white" stroke="black" points="143.5,-95.5 143.5,-114.5 250.5,-114.5 250.5,-95.5 143.5,-95.5"/>
<text text-anchor="middle" x="197" y="-102.5" font-family="Helvetica,sans-Serif" font-size="10.00">coap_pdu_parse_opt</text>
</a>
</g>
</g>
<!-- Node1&#45;&gt;Node4 -->
<g id="edge3" class="edge">
<title>Node1&#45;&gt;Node4</title>
<path fill="none" stroke="midnightblue" d="M88.27,-118.56C102.22,-116.8 117.98,-114.82 133.05,-112.92"/>
<polygon fill="midnightblue" stroke="midnightblue" points="133.85,-116.35 143.34,-111.63 132.98,-109.4 133.85,-116.35"/>
</g>
<!-- Node12 -->
<g id="node12" class="node">
<title>Node12</title>
<g id="a_node12"><a xlink:href="group__pdu__internal.html#gadd46ce956878a4121e8887b84c6d4a6b" target="_top" xlink:title="Dynamically grows the size of pdu to new_size.">
<polygon fill="white" stroke="black" points="152,-57.5 152,-76.5 242,-76.5 242,-57.5 152,-57.5"/>
<text text-anchor="middle" x="197" y="-64.5" font-family="Helvetica,sans-Serif" font-size="10.00">coap_pdu_resize</text>
</a>
</g>
</g>
<!-- Node1&#45;&gt;Node12 -->
<g id="edge11" class="edge">
<title>Node1&#45;&gt;Node12</title>
<path fill="none" stroke="midnightblue" d="M62.46,-114.41C78.2,-106.05 102.15,-94.05 124,-86 130.52,-83.6 137.48,-81.36 144.4,-79.34"/>
<polygon fill="midnightblue" stroke="midnightblue" points="145.77,-82.59 154.46,-76.52 143.89,-75.85 145.77,-82.59"/>
</g>
<!-- Node5 -->
<g id="node5" class="node">
<title>Node5</title>
<g id="a_node5"><a xlink:href="group__opt__filter.html#ga42d0b9d068b790ec1c490a7fb2674904" target="_top" xlink:title="Returns the length of the given option.">
<polygon fill="white" stroke="black" points="328.5,-190.5 328.5,-209.5 416.5,-209.5 416.5,-190.5 328.5,-190.5"/>
<text text-anchor="middle" x="372.5" y="-197.5" font-family="Helvetica,sans-Serif" font-size="10.00">coap_opt_length</text>
</a>
</g>
</g>
<!-- Node4&#45;&gt;Node5 -->
<g id="edge4" class="edge">
<title>Node4&#45;&gt;Node5</title>
<path fill="none" stroke="midnightblue" d="M250.85,-113.97C257.67,-116.52 264.27,-119.8 270,-124 294.16,-141.72 282.05,-162.99 306,-181 309.88,-183.92 314.19,-186.39 318.7,-188.48"/>
<polygon fill="midnightblue" stroke="midnightblue" points="317.58,-191.8 328.16,-192.26 320.18,-185.3 317.58,-191.8"/>
</g>
<!-- Node6 -->
<g id="node6" class="node">
<title>Node6</title>
<g id="a_node6"><a xlink:href="pdu_8c.html#ac3aa3c4ad5539cf2545e9636d134ac51" target="_top" xlink:title=" ">
<polygon fill="white" stroke="black" points="306,-152.5 306,-171.5 439,-171.5 439,-152.5 306,-152.5"/>
<text text-anchor="middle" x="372.5" y="-159.5" font-family="Helvetica,sans-Serif" font-size="10.00">coap_pdu_parse_opt_base</text>
</a>
</g>
</g>
<!-- Node4&#45;&gt;Node6 -->
<g id="edge5" class="edge">
<title>Node4&#45;&gt;Node6</title>
<path fill="none" stroke="midnightblue" d="M240.77,-114.57C250.52,-117.22 260.73,-120.38 270,-124 286.86,-130.57 289.23,-136.22 306,-143 311.76,-145.33 317.92,-147.5 324.06,-149.48"/>
<polygon fill="midnightblue" stroke="midnightblue" points="323.06,-152.84 333.64,-152.44 325.12,-146.15 323.06,-152.84"/>
</g>
<!-- Node7 -->
<g id="node7" class="node">
<title>Node7</title>
<g id="a_node7"><a xlink:href="pdu_8c.html#a35dc1ec51b2b6433497dc99542f419c8" target="_top" xlink:title=" ">
<polygon fill="white" stroke="black" points="307,-114.5 307,-133.5 438,-133.5 438,-114.5 307,-114.5"/>
<text text-anchor="middle" x="372.5" y="-121.5" font-family="Helvetica,sans-Serif" font-size="10.00">coap_pdu_parse_opt_csm</text>
</a>
</g>
</g>
<!-- Node4&#45;&gt;Node7 -->
<g id="edge6" class="edge">
<title>Node4&#45;&gt;Node7</title>
<path fill="none" stroke="midnightblue" d="M250.53,-110.75C265.09,-112.35 281.19,-114.11 296.76,-115.81"/>
<polygon fill="midnightblue" stroke="midnightblue" points="296.57,-119.31 306.89,-116.92 297.33,-112.36 296.57,-119.31"/>
</g>
<!-- Node8 -->
<g id="node8" class="node">
<title>Node8</title>
<g id="a_node8"><a xlink:href="pdu_8c.html#a12840271a2e52ffc097d95de6e0c721a" target="_top" xlink:title="Advances *optp to next option if still in PDU.">
<polygon fill="white" stroke="black" points="327,-76.5 327,-95.5 418,-95.5 418,-76.5 327,-76.5"/>
<text text-anchor="middle" x="372.5" y="-83.5" font-family="Helvetica,sans-Serif" font-size="10.00">next_option_safe</text>
</a>
</g>
</g>
<!-- Node4&#45;&gt;Node8 -->
<g id="edge7" class="edge">
<title>Node4&#45;&gt;Node8</title>
<path fill="none" stroke="midnightblue" d="M250.53,-99.25C271.44,-96.96 295.51,-94.32 316.65,-92.01"/>
<polygon fill="midnightblue" stroke="midnightblue" points="317.21,-95.47 326.77,-90.9 316.44,-88.51 317.21,-95.47"/>
</g>
<!-- Node10 -->
<g id="node10" class="node">
<title>Node10</title>
<g id="a_node10"><a xlink:href="pdu_8c.html#a2763c085b50e161fae35c69a54004116" target="_top" xlink:title=" ">
<polygon fill="white" stroke="black" points="341.5,-38.5 341.5,-57.5 403.5,-57.5 403.5,-38.5 341.5,-38.5"/>
<text text-anchor="middle" x="372.5" y="-45.5" font-family="Helvetica,sans-Serif" font-size="10.00">write_char</text>
</a>
</g>
</g>
<!-- Node4&#45;&gt;Node10 -->
<g id="edge9" class="edge">
<title>Node4&#45;&gt;Node10</title>
<path fill="none" stroke="midnightblue" d="M240.77,-95.43C250.52,-92.78 260.73,-89.62 270,-86 286.86,-79.43 289.23,-73.78 306,-67 314.13,-63.72 323.03,-60.74 331.58,-58.17"/>
<polygon fill="midnightblue" stroke="midnightblue" points="332.75,-61.48 341.39,-55.35 330.82,-54.75 332.75,-61.48"/>
</g>
<!-- Node11 -->
<g id="node11" class="node">
<title>Node11</title>
<g id="a_node11"><a xlink:href="pdu_8c.html#a9e6843290a3b4f46af69e2e6076e006f" target="_top" xlink:title=" ">
<polygon fill="white" stroke="black" points="339,-0.5 339,-19.5 406,-19.5 406,-0.5 339,-0.5"/>
<text text-anchor="middle" x="372.5" y="-7.5" font-family="Helvetica,sans-Serif" font-size="10.00">write_prefix</text>
</a>
</g>
</g>
<!-- Node4&#45;&gt;Node11 -->
<g id="edge10" class="edge">
<title>Node4&#45;&gt;Node11</title>
<path fill="none" stroke="midnightblue" d="M250.85,-96.03C257.67,-93.48 264.27,-90.2 270,-86 294.16,-68.28 282.05,-47.01 306,-29 312.73,-23.94 320.77,-20.22 328.88,-17.5"/>
<polygon fill="midnightblue" stroke="midnightblue" points="330.09,-20.79 338.72,-14.64 328.14,-14.07 330.09,-20.79"/>
</g>
<!-- Node9 -->
<g id="node9" class="node">
<title>Node9</title>
<g id="a_node9"><a xlink:href="option_8c.html#a11de99f50cc9f5a34fd9e4d121ecfd13" target="_top" xlink:title="Parses the option pointed to by opt into result.">
<polygon fill="white" stroke="black" points="475,-76.5 475,-95.5 561,-95.5 561,-76.5 475,-76.5"/>
<text text-anchor="middle" x="518" y="-83.5" font-family="Helvetica,sans-Serif" font-size="10.00">coap_opt_parse</text>
</a>
</g>
</g>
<!-- Node8&#45;&gt;Node9 -->
<g id="edge8" class="edge">
<title>Node8&#45;&gt;Node9</title>
<path fill="none" stroke="midnightblue" d="M418.12,-86C432.82,-86 449.31,-86 464.55,-86"/>
<polygon fill="midnightblue" stroke="midnightblue" points="464.86,-89.5 474.86,-86 464.86,-82.5 464.86,-89.5"/>
</g>
</g>
</svg>
        <g id="navigator" transform="translate(0 0)" fill="#404254">
                <rect fill="#f2f5e9" fill-opacity="0.5" stroke="#606060" stroke-width=".5" x="0" y="0" width="60" height="60"/>
                <use id="zoomplus" xlink:href="#zoomPlus" x="17" y="9" onmousedown="handleZoom(evt,'in')"/>
                <use id="zoomminus" xlink:href="#zoomMin" x="42" y="9" onmousedown="handleZoom(evt,'out')"/>
                <use id="reset" xlink:href="#resetDef" x="30" y="36" onmousedown="handleReset()"/>
                <g id="arrowUp" xlink:href="#dirArrow" transform="translate(30 24)" onmousedown="handlePan(0,-1)">
                  <use xlink:href="#rim" fill="#404040">
                        <set attributeName="fill" to="#808080" begin="arrowUp.mouseover" end="arrowUp.mouseout"/>
                  </use>
                  <path fill="none" stroke="white" stroke-width="1.5" d="M0,-3.0v7 M-2.5,-0.5L0,-3.0L2.5,-0.5"/>
                </g>
                <g id="arrowRight" xlink:href="#dirArrow" transform="rotate(90) translate(36 -43)" onmousedown="handlePan(1,0)">
                  <use xlink:href="#rim" fill="#404040">
                        <set attributeName="fill" to="#808080" begin="arrowRight.mouseover" end="arrowRight.mouseout"/>
                  </use>
                  <path fill="none" stroke="white" stroke-width="1.5" d="M0,-3.0v7 M-2.5,-0.5L0,-3.0L2.5,-0.5"/>
                </g>
                <g id="arrowDown" xlink:href="#dirArrow" transform="rotate(180) translate(-30 -48)" onmousedown="handlePan(0,1)">
                  <use xlink:href="#rim" fill="#404040">
                        <set attributeName="fill" to="#808080" begin="arrowDown.mouseover" end="arrowDown.mouseout"/>
                  </use>
                  <path fill="none" stroke="white" stroke-width="1.5" d="M0,-3.0v7 M-2.5,-0.5L0,-3.0L2.5,-0.5"/>
                </g>
                <g id="arrowLeft" xlink:href="#dirArrow" transform="rotate(270) translate(-36 17)" onmousedown="handlePan(-1,0)">
                  <use xlink:href="#rim" fill="#404040">
                        <set attributeName="fill" to="#808080" begin="arrowLeft.mouseover" end="arrowLeft.mouseout"/>
                  </use>
                  <path fill="none" stroke="white" stroke-width="1.5" d="M0,-3.0v7 M-2.5,-0.5L0,-3.0L2.5,-0.5"/>
                </g>
        </g>
        <svg viewBox="0 0 15 15" width="100%" height="30px" preserveAspectRatio="xMaxYMin meet">
         <g id="arrow_out" transform="scale(0.3 0.3)">
          <a xlink:href="group__pdu__internal_gab9981ea277da8bc4e5c4f82d6ca4c006_cgraph_org.svg" target="_base">
           <rect id="button" ry="5" rx="5" y="6" x="6" height="38" width="38"
                fill="#f2f5e9" fill-opacity="0.5" stroke="#606060" stroke-width="1.0"/>
           <path id="arrow"
             d="M 11.500037,31.436501 C 11.940474,20.09759 22.043105,11.32322 32.158766,21.979434 L 37.068811,17.246167 C 37.068811,17.246167 37.088388,32 37.088388,32 L 22.160133,31.978069 C 22.160133,31.978069 26.997745,27.140456 26.997745,27.140456 C 18.528582,18.264221 13.291696,25.230495 11.500037,31.436501 z"
             style="fill:#404040;"/>
          </a>
         </g>
        </svg>
</svg>
