<?xml version="1.0" encoding="UTF-8" standalone="no"?>
<!DOCTYPE svg PUBLIC "-//W3C//DTD SVG 1.1//EN"
 "http://www.w3.org/Graphics/SVG/1.1/DTD/svg11.dtd">
<!-- Generated by graphviz version 2.43.0 (0)
 -->
<!-- Title: coap_delete_observers Pages: 1 -->
<svg width="1014pt" height="393pt"
 viewBox="0.00 0.00 1014.00 392.59" xmlns="http://www.w3.org/2000/svg" xmlns:xlink="http://www.w3.org/1999/xlink">
<g id="graph0" class="graph" transform="scale(1 1) rotate(0) translate(4 388.59)">
<title>coap_delete_observers</title>
<polygon fill="white" stroke="transparent" points="-4,4 -4,-388.59 1010,-388.59 1010,4 -4,4"/>
<!-- Node1 -->
<g id="node1" class="node">
<title>Node1</title>
<g id="a_node1"><a xlink:title="Removes any subscription for session and releases the allocated storage.">
<polygon fill="#bfbfbf" stroke="black" points="0,-285.5 0,-304.5 117,-304.5 117,-285.5 0,-285.5"/>
<text text-anchor="middle" x="58.5" y="-292.5" font-family="Helvetica,sans-Serif" font-size="10.00">coap_delete_observers</text>
</a>
</g>
</g>
<!-- Node2 -->
<g id="node2" class="node">
<title>Node2</title>
<g id="a_node2"><a xlink:href="group__string.html#gad991c87cfcf9b2414d2dc430c8701ed3" target="_top" xlink:title="Deletes the given string and releases any memory allocated.">
<polygon fill="white" stroke="black" points="302,-332.5 302,-351.5 400,-351.5 400,-332.5 302,-332.5"/>
<text text-anchor="middle" x="351" y="-339.5" font-family="Helvetica,sans-Serif" font-size="10.00">coap_delete_string</text>
</a>
</g>
</g>
<!-- Node1&#45;&gt;Node2 -->
<g id="edge1" class="edge">
<title>Node1&#45;&gt;Node2</title>
<path fill="none" stroke="midnightblue" d="M117.24,-304.34C167.86,-312.53 241.09,-324.38 291.83,-332.59"/>
<polygon fill="midnightblue" stroke="midnightblue" points="291.56,-336.09 301.99,-334.23 292.67,-329.18 291.56,-336.09"/>
</g>
<!-- Node4 -->
<g id="node4" class="node">
<title>Node4</title>
<g id="a_node4"><a xlink:href="coap__session_8c.html#a9aee135ba884d7c143b11bc42fd23e53" target="_top" xlink:title="Decrement reference counter on a session.">
<polygon fill="white" stroke="black" points="153,-266.5 153,-285.5 266,-285.5 266,-266.5 153,-266.5"/>
<text text-anchor="middle" x="209.5" y="-273.5" font-family="Helvetica,sans-Serif" font-size="10.00">coap_session_release</text>
</a>
</g>
</g>
<!-- Node1&#45;&gt;Node4 -->
<g id="edge3" class="edge">
<title>Node1&#45;&gt;Node4</title>
<path fill="none" stroke="midnightblue" d="M117.11,-287.65C125.37,-286.6 133.93,-285.51 142.35,-284.44"/>
<polygon fill="midnightblue" stroke="midnightblue" points="143.04,-287.88 152.52,-283.14 142.15,-280.93 143.04,-287.88"/>
</g>
<!-- Node3 -->
<g id="node3" class="node">
<title>Node3</title>
<g id="a_node3"><a xlink:href="mem_8h.html#ae7214e0c73a4d4290525873e739ed422" target="_top" xlink:title="Releases the memory that was allocated by coap_malloc_type().">
<polygon fill="white" stroke="black" points="912,-190.5 912,-209.5 995,-209.5 995,-190.5 912,-190.5"/>
<text text-anchor="middle" x="953.5" y="-197.5" font-family="Helvetica,sans-Serif" font-size="10.00">coap_free_type</text>
</a>
</g>
</g>
<!-- Node2&#45;&gt;Node3 -->
<g id="edge2" class="edge">
<title>Node2&#45;&gt;Node3</title>
<path fill="none" stroke="midnightblue" d="M385.92,-351.56C472.3,-373.86 705.03,-421.06 865,-333 909.83,-308.32 935.59,-249.76 946.41,-219.24"/>
<polygon fill="midnightblue" stroke="midnightblue" points="949.74,-220.31 949.62,-209.72 943.11,-218.08 949.74,-220.31"/>
</g>
<!-- Node5 -->
<g id="node5" class="node">
<title>Node5</title>
<g id="a_node5"><a xlink:href="coap__session_8c.html#ab3d24595515d6f66805791a7f821d5e7" target="_top" xlink:title=" ">
<polygon fill="white" stroke="black" points="302,-266.5 302,-285.5 400,-285.5 400,-266.5 302,-266.5"/>
<text text-anchor="middle" x="351" y="-273.5" font-family="Helvetica,sans-Serif" font-size="10.00">coap_session_free</text>
</a>
</g>
</g>
<!-- Node4&#45;&gt;Node5 -->
<g id="edge4" class="edge">
<title>Node4&#45;&gt;Node5</title>
<path fill="none" stroke="midnightblue" d="M266.03,-276C274.46,-276 283.18,-276 291.66,-276"/>
<polygon fill="midnightblue" stroke="midnightblue" points="291.86,-279.5 301.86,-276 291.86,-272.5 291.86,-279.5"/>
</g>
<!-- Node5&#45;&gt;Node3 -->
<g id="edge5" class="edge">
<title>Node5&#45;&gt;Node3</title>
<path fill="none" stroke="midnightblue" d="M400.13,-282.56C492.73,-293.4 701.04,-309.01 865,-257 891.34,-248.64 917.34,-230.03 934.06,-216.34"/>
<polygon fill="midnightblue" stroke="midnightblue" points="936.53,-218.83 941.91,-209.7 932.01,-213.48 936.53,-218.83"/>
</g>
<!-- Node6 -->
<g id="node6" class="node">
<title>Node6</title>
<g id="a_node6"><a xlink:href="coap__session_8c.html#ab91ca670624ee770714727efff274c49" target="_top" xlink:title=" ">
<polygon fill="white" stroke="black" points="436,-133.5 436,-152.5 543,-152.5 543,-133.5 436,-133.5"/>
<text text-anchor="middle" x="489.5" y="-140.5" font-family="Helvetica,sans-Serif" font-size="10.00">coap_session_mfree</text>
</a>
</g>
</g>
<!-- Node5&#45;&gt;Node6 -->
<g id="edge6" class="edge">
<title>Node5&#45;&gt;Node6</title>
<path fill="none" stroke="midnightblue" d="M361.82,-266.43C384.73,-244.11 441.97,-188.34 471.01,-160.04"/>
<polygon fill="midnightblue" stroke="midnightblue" points="473.68,-162.32 478.4,-152.84 468.8,-157.31 473.68,-162.32"/>
</g>
<!-- Node18 -->
<g id="node18" class="node">
<title>Node18</title>
<g id="a_node18"><a xlink:href="group__logging.html#ga8b690dbed6cc3a5beb81ba5d2d27d290" target="_top" xlink:title="Get session description.">
<polygon fill="white" stroke="black" points="443,-304.5 443,-323.5 536,-323.5 536,-304.5 443,-304.5"/>
<text text-anchor="middle" x="489.5" y="-311.5" font-family="Helvetica,sans-Serif" font-size="10.00">coap_session_str</text>
</a>
</g>
</g>
<!-- Node5&#45;&gt;Node18 -->
<g id="edge26" class="edge">
<title>Node5&#45;&gt;Node18</title>
<path fill="none" stroke="midnightblue" d="M386.44,-285.59C403.98,-290.47 425.51,-296.46 444.26,-301.68"/>
<polygon fill="midnightblue" stroke="midnightblue" points="443.49,-305.1 454.07,-304.41 445.37,-298.36 443.49,-305.1"/>
</g>
<!-- Node7 -->
<g id="node7" class="node">
<title>Node7</title>
<g id="a_node7"><a xlink:href="group__cache.html#ga09e46fc4bba8b37115a3fb964b76b21c" target="_top" xlink:title="Remove a cache&#45;entry from the hash list and free off all the appropriate contents apart from app_data...">
<polygon fill="white" stroke="black" points="579,-152.5 579,-171.5 707,-171.5 707,-152.5 579,-152.5"/>
<text text-anchor="middle" x="643" y="-159.5" font-family="Helvetica,sans-Serif" font-size="10.00">coap_delete_cache_entry</text>
</a>
</g>
</g>
<!-- Node6&#45;&gt;Node7 -->
<g id="edge7" class="edge">
<title>Node6&#45;&gt;Node7</title>
<path fill="none" stroke="midnightblue" d="M543.06,-149.59C551.35,-150.63 560.06,-151.72 568.72,-152.81"/>
<polygon fill="midnightblue" stroke="midnightblue" points="568.48,-156.31 578.84,-154.08 569.35,-149.36 568.48,-156.31"/>
</g>
<!-- Node9 -->
<g id="node9" class="node">
<title>Node9</title>
<g id="a_node9"><a xlink:href="pdu_8c.html#a48581f968a30ef4278702eb1c16b7a90" target="_top" xlink:title="Dispose of an CoAP PDU and frees associated storage.">
<polygon fill="white" stroke="black" points="759,-190.5 759,-209.5 849,-209.5 849,-190.5 759,-190.5"/>
<text text-anchor="middle" x="804" y="-197.5" font-family="Helvetica,sans-Serif" font-size="10.00">coap_delete_pdu</text>
</a>
</g>
</g>
<!-- Node6&#45;&gt;Node9 -->
<g id="edge18" class="edge">
<title>Node6&#45;&gt;Node9</title>
<path fill="none" stroke="midnightblue" d="M508.21,-152.62C525.67,-161.62 553.37,-174.59 579,-181 635.85,-195.22 703.07,-199.29 748.93,-200.23"/>
<polygon fill="midnightblue" stroke="midnightblue" points="748.91,-203.73 758.96,-200.4 749.02,-196.74 748.91,-203.73"/>
</g>
<!-- Node10 -->
<g id="node10" class="node">
<title>Node10</title>
<g id="a_node10"><a xlink:href="net_8c.html#a44c39a2314035989d3e07b9d9328e08c" target="_top" xlink:title="Destroys specified node.">
<polygon fill="white" stroke="black" points="595.5,-228.5 595.5,-247.5 690.5,-247.5 690.5,-228.5 595.5,-228.5"/>
<text text-anchor="middle" x="643" y="-235.5" font-family="Helvetica,sans-Serif" font-size="10.00">coap_delete_node</text>
</a>
</g>
</g>
<!-- Node6&#45;&gt;Node10 -->
<g id="edge13" class="edge">
<title>Node6&#45;&gt;Node10</title>
<path fill="none" stroke="midnightblue" d="M500.35,-152.66C515.94,-167.5 547.72,-196.09 579,-214 586.15,-218.09 594.13,-221.75 601.94,-224.9"/>
<polygon fill="midnightblue" stroke="midnightblue" points="600.73,-228.19 611.32,-228.49 603.23,-221.65 600.73,-228.19"/>
</g>
<!-- Node12 -->
<g id="node12" class="node">
<title>Node12</title>
<g id="a_node12"><a xlink:href="coap__dtls__gnutls_8c.html#a89102d85f6cce550adf91b075a6326c7" target="_top" xlink:title=" ">
<polygon fill="white" stroke="black" points="583.5,-38.5 583.5,-57.5 702.5,-57.5 702.5,-38.5 583.5,-38.5"/>
<text text-anchor="middle" x="643" y="-45.5" font-family="Helvetica,sans-Serif" font-size="10.00">coap_dtls_free_session</text>
</a>
</g>
</g>
<!-- Node6&#45;&gt;Node12 -->
<g id="edge19" class="edge">
<title>Node6&#45;&gt;Node12</title>
<path fill="none" stroke="midnightblue" d="M499.08,-133.38C513.87,-117.36 545.79,-85.2 579,-67 583,-64.81 587.28,-62.84 591.66,-61.08"/>
<polygon fill="midnightblue" stroke="midnightblue" points="593.14,-64.26 601.33,-57.54 590.74,-57.69 593.14,-64.26"/>
</g>
<!-- Node13 -->
<g id="node13" class="node">
<title>Node13</title>
<g id="a_node13"><a xlink:href="mem_8h.html#a1e46a1505bb13f03fdacd5d1b32502a6" target="_top" xlink:title="Wrapper function to coap_free_type() for backwards compatibility.">
<polygon fill="white" stroke="black" points="774.5,-76.5 774.5,-95.5 833.5,-95.5 833.5,-76.5 774.5,-76.5"/>
<text text-anchor="middle" x="804" y="-83.5" font-family="Helvetica,sans-Serif" font-size="10.00">coap_free</text>
</a>
</g>
</g>
<!-- Node6&#45;&gt;Node13 -->
<g id="edge20" class="edge">
<title>Node6&#45;&gt;Node13</title>
<path fill="none" stroke="midnightblue" d="M543.06,-134.1C586.93,-126.6 651.11,-115.44 707,-105 725.99,-101.46 747.04,-97.31 764.59,-93.8"/>
<polygon fill="midnightblue" stroke="midnightblue" points="765.35,-97.22 774.47,-91.82 763.97,-90.35 765.35,-97.22"/>
</g>
<!-- Node14 -->
<g id="node14" class="node">
<title>Node14</title>
<g id="a_node14"><a xlink:href="coap__io_8c.html#a2de382e7795c908d1a376da8c338386d" target="_top" xlink:title=" ">
<polygon fill="white" stroke="black" points="592.5,-76.5 592.5,-95.5 693.5,-95.5 693.5,-76.5 592.5,-76.5"/>
<text text-anchor="middle" x="643" y="-83.5" font-family="Helvetica,sans-Serif" font-size="10.00">coap_socket_close</text>
</a>
</g>
</g>
<!-- Node6&#45;&gt;Node14 -->
<g id="edge22" class="edge">
<title>Node6&#45;&gt;Node14</title>
<path fill="none" stroke="midnightblue" d="M515.86,-133.46C540.87,-124.05 579.31,-109.59 607.18,-99.1"/>
<polygon fill="midnightblue" stroke="midnightblue" points="608.43,-102.37 616.56,-95.57 605.97,-95.82 608.43,-102.37"/>
</g>
<!-- Node17 -->
<g id="node17" class="node">
<title>Node17</title>
<g id="a_node17"><a xlink:href="coap__notls_8c.html#aa317934415639e23b64a3bd0b4edde6c" target="_top" xlink:title=" ">
<polygon fill="white" stroke="black" points="586,-0.5 586,-19.5 700,-19.5 700,-0.5 586,-0.5"/>
<text text-anchor="middle" x="643" y="-7.5" font-family="Helvetica,sans-Serif" font-size="10.00">coap_tls_free_session</text>
</a>
</g>
</g>
<!-- Node6&#45;&gt;Node17 -->
<g id="edge25" class="edge">
<title>Node6&#45;&gt;Node17</title>
<path fill="none" stroke="midnightblue" d="M495.25,-133.42C506.6,-111.53 537.49,-57.51 579,-29 581.91,-27 585.04,-25.2 588.29,-23.6"/>
<polygon fill="midnightblue" stroke="midnightblue" points="589.9,-26.71 597.7,-19.53 587.13,-20.29 589.9,-26.71"/>
</g>
<!-- Node7&#45;&gt;Node3 -->
<g id="edge12" class="edge">
<title>Node7&#45;&gt;Node3</title>
<path fill="none" stroke="midnightblue" d="M707.12,-165.27C751.47,-168.1 812.07,-173.01 865,-181 877.61,-182.9 891.13,-185.54 903.68,-188.24"/>
<polygon fill="midnightblue" stroke="midnightblue" points="902.98,-191.67 913.5,-190.41 904.49,-184.84 902.98,-191.67"/>
</g>
<!-- Node8 -->
<g id="node8" class="node">
<title>Node8</title>
<g id="a_node8"><a xlink:href="group__cache.html#ga1930bf91ebbff5d5974ce0d55d2895b3" target="_top" xlink:title="Delete the cache&#45;key.">
<polygon fill="white" stroke="black" points="743,-114.5 743,-133.5 865,-133.5 865,-114.5 743,-114.5"/>
<text text-anchor="middle" x="804" y="-121.5" font-family="Helvetica,sans-Serif" font-size="10.00">coap_delete_cache_key</text>
</a>
</g>
</g>
<!-- Node7&#45;&gt;Node8 -->
<g id="edge8" class="edge">
<title>Node7&#45;&gt;Node8</title>
<path fill="none" stroke="midnightblue" d="M684.12,-152.41C705.1,-147.4 730.98,-141.21 753.23,-135.89"/>
<polygon fill="midnightblue" stroke="midnightblue" points="754.25,-139.25 763.17,-133.52 752.63,-132.44 754.25,-139.25"/>
</g>
<!-- Node7&#45;&gt;Node9 -->
<g id="edge10" class="edge">
<title>Node7&#45;&gt;Node9</title>
<path fill="none" stroke="midnightblue" d="M684.12,-171.59C705.1,-176.6 730.98,-182.79 753.23,-188.11"/>
<polygon fill="midnightblue" stroke="midnightblue" points="752.63,-191.56 763.17,-190.48 754.25,-184.75 752.63,-191.56"/>
</g>
<!-- Node8&#45;&gt;Node3 -->
<g id="edge9" class="edge">
<title>Node8&#45;&gt;Node3</title>
<path fill="none" stroke="midnightblue" d="M831.38,-133.53C841.99,-137.62 854.23,-142.69 865,-148 887.46,-159.08 911.88,-173.84 929.19,-184.8"/>
<polygon fill="midnightblue" stroke="midnightblue" points="927.72,-188.01 938.03,-190.45 931.49,-182.11 927.72,-188.01"/>
</g>
<!-- Node9&#45;&gt;Node3 -->
<g id="edge11" class="edge">
<title>Node9&#45;&gt;Node3</title>
<path fill="none" stroke="midnightblue" d="M849.25,-200C865.7,-200 884.48,-200 901.48,-200"/>
<polygon fill="midnightblue" stroke="midnightblue" points="901.8,-203.5 911.8,-200 901.8,-196.5 901.8,-203.5"/>
</g>
<!-- Node10&#45;&gt;Node4 -->
<g id="edge17" class="edge">
<title>Node10&#45;&gt;Node4</title>
<path fill="none" stroke="midnightblue" d="M595.33,-238.41C529.61,-239.49 406.19,-243.35 302,-257 288.28,-258.8 273.55,-261.5 260.01,-264.32"/>
<polygon fill="midnightblue" stroke="midnightblue" points="258.96,-260.96 249.91,-266.48 260.43,-267.81 258.96,-260.96"/>
</g>
<!-- Node10&#45;&gt;Node9 -->
<g id="edge14" class="edge">
<title>Node10&#45;&gt;Node9</title>
<path fill="none" stroke="midnightblue" d="M684.12,-228.41C705.1,-223.4 730.98,-217.21 753.23,-211.89"/>
<polygon fill="midnightblue" stroke="midnightblue" points="754.25,-215.25 763.17,-209.52 752.63,-208.44 754.25,-215.25"/>
</g>
<!-- Node11 -->
<g id="node11" class="node">
<title>Node11</title>
<g id="a_node11"><a xlink:href="net_8c.html#aa2f296838e4a779197c43b254e385ddc" target="_top" xlink:title=" ">
<polygon fill="white" stroke="black" points="761,-228.5 761,-247.5 847,-247.5 847,-228.5 761,-228.5"/>
<text text-anchor="middle" x="804" y="-235.5" font-family="Helvetica,sans-Serif" font-size="10.00">coap_free_node</text>
</a>
</g>
</g>
<!-- Node10&#45;&gt;Node11 -->
<g id="edge15" class="edge">
<title>Node10&#45;&gt;Node11</title>
<path fill="none" stroke="midnightblue" d="M690.85,-238C709.64,-238 731.37,-238 750.68,-238"/>
<polygon fill="midnightblue" stroke="midnightblue" points="750.82,-241.5 760.82,-238 750.82,-234.5 750.82,-241.5"/>
</g>
<!-- Node11&#45;&gt;Node3 -->
<g id="edge16" class="edge">
<title>Node11&#45;&gt;Node3</title>
<path fill="none" stroke="midnightblue" d="M842.22,-228.41C861.51,-223.44 885.26,-217.32 905.77,-212.04"/>
<polygon fill="midnightblue" stroke="midnightblue" points="906.74,-215.4 915.55,-209.52 904.99,-208.63 906.74,-215.4"/>
</g>
<!-- Node13&#45;&gt;Node3 -->
<g id="edge21" class="edge">
<title>Node13&#45;&gt;Node3</title>
<path fill="none" stroke="midnightblue" d="M833.5,-91.77C843.94,-94.7 855.5,-98.96 865,-105 897.14,-125.44 925.15,-160.58 940.36,-181.92"/>
<polygon fill="midnightblue" stroke="midnightblue" points="937.67,-184.17 946.25,-190.39 943.42,-180.18 937.67,-184.17"/>
</g>
<!-- Node15 -->
<g id="node15" class="node">
<title>Node15</title>
<g id="a_node15"><a xlink:href="coap__io_8c.html#ad3119e077bde4ee15a65271de0b70531" target="_top" xlink:title=" ">
<polygon fill="white" stroke="black" points="750,-38.5 750,-57.5 858,-57.5 858,-38.5 750,-38.5"/>
<text text-anchor="middle" x="804" y="-45.5" font-family="Helvetica,sans-Serif" font-size="10.00">coap_socket_strerror</text>
</a>
</g>
</g>
<!-- Node14&#45;&gt;Node15 -->
<g id="edge23" class="edge">
<title>Node14&#45;&gt;Node15</title>
<path fill="none" stroke="midnightblue" d="M684.12,-76.41C705.1,-71.4 730.98,-65.21 753.23,-59.89"/>
<polygon fill="midnightblue" stroke="midnightblue" points="754.25,-63.25 763.17,-57.52 752.63,-56.44 754.25,-63.25"/>
</g>
<!-- Node16 -->
<g id="node16" class="node">
<title>Node16</title>
<g id="a_node16"><a xlink:href="coap__io_8c.html#ae0cc13e29656551862a46150320f9390" target="_top" xlink:title=" ">
<polygon fill="white" stroke="black" points="901,-33 901,-63 1006,-63 1006,-33 901,-33"/>
<text text-anchor="start" x="909" y="-51" font-family="Helvetica,sans-Serif" font-size="10.00">coap_socket_format</text>
<text text-anchor="middle" x="953.5" y="-40" font-family="Helvetica,sans-Serif" font-size="10.00">_errno</text>
</a>
</g>
</g>
<!-- Node15&#45;&gt;Node16 -->
<g id="edge24" class="edge">
<title>Node15&#45;&gt;Node16</title>
<path fill="none" stroke="midnightblue" d="M858.25,-48C868.76,-48 879.87,-48 890.63,-48"/>
<polygon fill="midnightblue" stroke="midnightblue" points="890.81,-51.5 900.81,-48 890.81,-44.5 890.81,-51.5"/>
</g>
<!-- Node19 -->
<g id="node19" class="node">
<title>Node19</title>
<g id="a_node19"><a xlink:href="group__logging.html#ga6a4f5ef637bf85aa161adfe73ac81ff0" target="_top" xlink:title="Print the address into the defined buffer.">
<polygon fill="white" stroke="black" points="600,-304.5 600,-323.5 686,-323.5 686,-304.5 600,-304.5"/>
<text text-anchor="middle" x="643" y="-311.5" font-family="Helvetica,sans-Serif" font-size="10.00">coap_print_addr</text>
</a>
</g>
</g>
<!-- Node18&#45;&gt;Node19 -->
<g id="edge27" class="edge">
<title>Node18&#45;&gt;Node19</title>
<path fill="none" stroke="midnightblue" d="M536.37,-314C553.1,-314 572.15,-314 589.42,-314"/>
<polygon fill="midnightblue" stroke="midnightblue" points="589.91,-317.5 599.91,-314 589.91,-310.5 589.91,-317.5"/>
</g>
<!-- Node20 -->
<g id="node20" class="node">
<title>Node20</title>
<g id="a_node20"><a xlink:href="coap__debug_8c.html#aaa5ee5c2942fe13271a46000b2aebde6" target="_top" xlink:title="A length&#45;safe strlen() fake.">
<polygon fill="white" stroke="black" points="781,-304.5 781,-323.5 827,-323.5 827,-304.5 781,-304.5"/>
<text text-anchor="middle" x="804" y="-311.5" font-family="Helvetica,sans-Serif" font-size="10.00">strnlen</text>
</a>
</g>
</g>
<!-- Node19&#45;&gt;Node20 -->
<g id="edge28" class="edge">
<title>Node19&#45;&gt;Node20</title>
<path fill="none" stroke="midnightblue" d="M686.19,-314C712.64,-314 746.21,-314 770.57,-314"/>
<polygon fill="midnightblue" stroke="midnightblue" points="770.72,-317.5 780.72,-314 770.72,-310.5 770.72,-317.5"/>
</g>
</g>
</svg>
