<?xml version="1.0" encoding="UTF-8" standalone="no"?>
<!DOCTYPE svg PUBLIC "-//W3C//DTD SVG 1.1//EN"
 "http://www.w3.org/Graphics/SVG/1.1/DTD/svg11.dtd">
<!-- Generated by graphviz version 2.43.0 (0)
 -->
<!-- Title: coap_add_optlist_pdu Pages: 1 -->
<svg width="1042pt" height="306pt"
 viewBox="0.00 0.00 1042.00 305.50" xmlns="http://www.w3.org/2000/svg" xmlns:xlink="http://www.w3.org/1999/xlink">
<g id="graph0" class="graph" transform="scale(1 1) rotate(0) translate(4 301.5)">
<title>coap_add_optlist_pdu</title>
<polygon fill="white" stroke="transparent" points="-4,4 -4,-301.5 1038,-301.5 1038,4 -4,4"/>
<!-- Node1 -->
<g id="node1" class="node">
<title>Node1</title>
<g id="a_node1"><a xlink:title="The current optlist of optlist_chain is first sorted (as per RFC7272 ordering requirements) and then ...">
<polygon fill="#bfbfbf" stroke="black" points="0,-76.5 0,-95.5 111,-95.5 111,-76.5 0,-76.5"/>
<text text-anchor="middle" x="55.5" y="-83.5" font-family="Helvetica,sans-Serif" font-size="10.00">coap_add_optlist_pdu</text>
</a>
</g>
</g>
<!-- Node2 -->
<g id="node2" class="node">
<title>Node2</title>
<g id="a_node2"><a xlink:href="pdu_8c.html#aa1314f60fbc25733cfabaa975adc5aae" target="_top" xlink:title="Adds option of given type to pdu that is passed as first parameter.">
<polygon fill="white" stroke="black" points="147,-95.5 147,-114.5 237,-114.5 237,-95.5 147,-95.5"/>
<text text-anchor="middle" x="192" y="-102.5" font-family="Helvetica,sans-Serif" font-size="10.00">coap_add_option</text>
</a>
</g>
</g>
<!-- Node1&#45;&gt;Node2 -->
<g id="edge1" class="edge">
<title>Node1&#45;&gt;Node2</title>
<path fill="none" stroke="midnightblue" d="M111.21,-93.73C119.58,-94.91 128.23,-96.13 136.6,-97.31"/>
<polygon fill="midnightblue" stroke="midnightblue" points="136.24,-100.8 146.63,-98.73 137.22,-93.87 136.24,-100.8"/>
</g>
<!-- Node21 -->
<g id="node21" class="node">
<title>Node21</title>
<g id="a_node21"><a xlink:href="option_8c.html#ad773b314b1ac7591f38f7b4b04d9e68d" target="_top" xlink:title=" ">
<polygon fill="white" stroke="black" points="161,-57.5 161,-76.5 223,-76.5 223,-57.5 161,-57.5"/>
<text text-anchor="middle" x="192" y="-64.5" font-family="Helvetica,sans-Serif" font-size="10.00">order_opts</text>
</a>
</g>
</g>
<!-- Node1&#45;&gt;Node21 -->
<g id="edge28" class="edge">
<title>Node1&#45;&gt;Node21</title>
<path fill="none" stroke="midnightblue" d="M111.21,-78.27C124.39,-76.41 138.24,-74.45 150.63,-72.7"/>
<polygon fill="midnightblue" stroke="midnightblue" points="151.24,-76.15 160.65,-71.29 150.26,-69.22 151.24,-76.15"/>
</g>
<!-- Node3 -->
<g id="node3" class="node">
<title>Node3</title>
<g id="a_node3"><a xlink:href="group__opt__filter.html#gad4162a3db83918ae0e4f47b4b3aa523d" target="_top" xlink:title="Retrieves the first option of type type from pdu.">
<polygon fill="white" stroke="black" points="273,-190.5 273,-209.5 374,-209.5 374,-190.5 273,-190.5"/>
<text text-anchor="middle" x="323.5" y="-197.5" font-family="Helvetica,sans-Serif" font-size="10.00">coap_check_option</text>
</a>
</g>
</g>
<!-- Node2&#45;&gt;Node3 -->
<g id="edge2" class="edge">
<title>Node2&#45;&gt;Node3</title>
<path fill="none" stroke="midnightblue" d="M206.37,-114.81C228.78,-131.25 274.11,-164.5 301.03,-184.25"/>
<polygon fill="midnightblue" stroke="midnightblue" points="299.26,-187.29 309.39,-190.39 303.4,-181.65 299.26,-187.29"/>
</g>
<!-- Node15 -->
<g id="node15" class="node">
<title>Node15</title>
<g id="a_node15"><a xlink:href="pdu_8c.html#ad655b53faea6d02ac24116ec0956d6e1" target="_top" xlink:title="Inserts option of given type in the pdu with the appropriate data.">
<polygon fill="white" stroke="black" points="274.5,-114.5 274.5,-133.5 372.5,-133.5 372.5,-114.5 274.5,-114.5"/>
<text text-anchor="middle" x="323.5" y="-121.5" font-family="Helvetica,sans-Serif" font-size="10.00">coap_insert_option</text>
</a>
</g>
</g>
<!-- Node2&#45;&gt;Node15 -->
<g id="edge15" class="edge">
<title>Node2&#45;&gt;Node15</title>
<path fill="none" stroke="midnightblue" d="M237.2,-105.05C252.92,-106.86 270.44,-109.52 285.49,-112.4"/>
<polygon fill="midnightblue" stroke="midnightblue" points="284.97,-115.87 295.47,-114.43 286.36,-109.01 284.97,-115.87"/>
</g>
<!-- Node16 -->
<g id="node16" class="node">
<title>Node16</title>
<g id="a_node16"><a xlink:href="group__opt__filter.html#ga358cb455deaefca1b1234298f018c9ab" target="_top" xlink:title="Encodes option with given delta into opt.">
<polygon fill="white" stroke="black" points="424.5,-76.5 424.5,-95.5 517.5,-95.5 517.5,-76.5 424.5,-76.5"/>
<text text-anchor="middle" x="471" y="-83.5" font-family="Helvetica,sans-Serif" font-size="10.00">coap_opt_encode</text>
</a>
</g>
</g>
<!-- Node2&#45;&gt;Node16 -->
<g id="edge25" class="edge">
<title>Node2&#45;&gt;Node16</title>
<path fill="none" stroke="midnightblue" d="M237.2,-101.97C285.17,-98.68 361.88,-93.42 414.03,-89.84"/>
<polygon fill="midnightblue" stroke="midnightblue" points="414.38,-93.32 424.12,-89.15 413.9,-86.34 414.38,-93.32"/>
</g>
<!-- Node18 -->
<g id="node18" class="node">
<title>Node18</title>
<g id="a_node18"><a xlink:href="group__opt__filter.html#ga55f19454026048e906139d575feddecb" target="_top" xlink:title="Compute storage bytes needed for an option with given delta and length.">
<polygon fill="white" stroke="black" points="413,-38.5 413,-57.5 529,-57.5 529,-38.5 413,-38.5"/>
<text text-anchor="middle" x="471" y="-45.5" font-family="Helvetica,sans-Serif" font-size="10.00">coap_opt_encode_size</text>
</a>
</g>
</g>
<!-- Node2&#45;&gt;Node18 -->
<g id="edge26" class="edge">
<title>Node2&#45;&gt;Node18</title>
<path fill="none" stroke="midnightblue" d="M237.42,-95.49C249,-93.03 261.46,-90.4 273,-88 319.84,-78.27 372.99,-67.49 412.28,-59.58"/>
<polygon fill="midnightblue" stroke="midnightblue" points="413.09,-62.98 422.21,-57.58 411.71,-56.12 413.09,-62.98"/>
</g>
<!-- Node19 -->
<g id="node19" class="node">
<title>Node19</title>
<g id="a_node19"><a xlink:href="pdu_8c.html#a34b8d913366353610f308a36aa762c1c" target="_top" xlink:title="Dynamically grows the size of pdu to new_size if needed.">
<polygon fill="white" stroke="black" points="410,-0.5 410,-19.5 532,-19.5 532,-0.5 410,-0.5"/>
<text text-anchor="middle" x="471" y="-7.5" font-family="Helvetica,sans-Serif" font-size="10.00">coap_pdu_check_resize</text>
</a>
</g>
</g>
<!-- Node2&#45;&gt;Node19 -->
<g id="edge27" class="edge">
<title>Node2&#45;&gt;Node19</title>
<path fill="none" stroke="midnightblue" d="M217.03,-95.35C223.6,-92.52 230.65,-89.29 237,-86 253.65,-77.37 255.79,-71.44 273,-64 317.56,-44.74 370.8,-30.63 410.69,-21.68"/>
<polygon fill="midnightblue" stroke="midnightblue" points="411.52,-25.08 420.53,-19.51 410.01,-18.24 411.52,-25.08"/>
</g>
<!-- Node4 -->
<g id="node4" class="node">
<title>Node4</title>
<g id="a_node4"><a xlink:href="group__opt__filter.html#ga883885e793388359ef93d195bdbb4c2c" target="_top" xlink:title="Clears filter f.">
<polygon fill="white" stroke="black" points="424.5,-267 424.5,-297 517.5,-297 517.5,-267 424.5,-267"/>
<text text-anchor="start" x="432.5" y="-285" font-family="Helvetica,sans-Serif" font-size="10.00">coap_option_filter</text>
<text text-anchor="middle" x="471" y="-274" font-family="Helvetica,sans-Serif" font-size="10.00">_clear</text>
</a>
</g>
</g>
<!-- Node3&#45;&gt;Node4 -->
<g id="edge3" class="edge">
<title>Node3&#45;&gt;Node4</title>
<path fill="none" stroke="midnightblue" d="M339.41,-209.59C356.3,-220.32 384.76,-238.05 410,-252 416.16,-255.41 422.76,-258.88 429.25,-262.19"/>
<polygon fill="midnightblue" stroke="midnightblue" points="428.1,-265.53 438.6,-266.91 431.25,-259.28 428.1,-265.53"/>
</g>
<!-- Node5 -->
<g id="node5" class="node">
<title>Node5</title>
<g id="a_node5"><a xlink:href="group__opt__filter.html#ga0170aecd699295f02affd5b280244088" target="_top" xlink:title="Sets the corresponding entry for type in filter.">
<polygon fill="white" stroke="black" points="568,-228.5 568,-247.5 680,-247.5 680,-228.5 568,-228.5"/>
<text text-anchor="middle" x="624" y="-235.5" font-family="Helvetica,sans-Serif" font-size="10.00">coap_option_filter_set</text>
</a>
</g>
</g>
<!-- Node3&#45;&gt;Node5 -->
<g id="edge4" class="edge">
<title>Node3&#45;&gt;Node5</title>
<path fill="none" stroke="midnightblue" d="M362.6,-209.58C377.33,-212.99 394.37,-216.58 410,-219 459.14,-226.62 515.18,-231.47 557.44,-234.36"/>
<polygon fill="midnightblue" stroke="midnightblue" points="557.39,-237.86 567.6,-235.03 557.85,-230.88 557.39,-237.86"/>
</g>
<!-- Node10 -->
<g id="node10" class="node">
<title>Node10</title>
<g id="a_node10"><a xlink:href="group__opt__filter.html#gab38b82d0d166363523bbefc4b887f941" target="_top" xlink:title="Initializes the given option iterator oi to point to the beginning of the pdu&#39;s option list.">
<polygon fill="white" stroke="black" points="410,-152.5 410,-171.5 532,-171.5 532,-152.5 410,-152.5"/>
<text text-anchor="middle" x="471" y="-159.5" font-family="Helvetica,sans-Serif" font-size="10.00">coap_option_iterator_init</text>
</a>
</g>
</g>
<!-- Node3&#45;&gt;Node10 -->
<g id="edge9" class="edge">
<title>Node3&#45;&gt;Node10</title>
<path fill="none" stroke="midnightblue" d="M361.22,-190.41C380.16,-185.46 403.46,-179.38 423.63,-174.11"/>
<polygon fill="midnightblue" stroke="midnightblue" points="424.76,-177.43 433.55,-171.52 422.99,-170.66 424.76,-177.43"/>
</g>
<!-- Node11 -->
<g id="node11" class="node">
<title>Node11</title>
<g id="a_node11"><a xlink:href="group__opt__filter.html#ga182fdeffe0b37e1ab0dc6ba8494abe4a" target="_top" xlink:title="Updates the iterator oi to point to the next option.">
<polygon fill="white" stroke="black" points="424.5,-190.5 424.5,-209.5 517.5,-209.5 517.5,-190.5 424.5,-190.5"/>
<text text-anchor="middle" x="471" y="-197.5" font-family="Helvetica,sans-Serif" font-size="10.00">coap_option_next</text>
</a>
</g>
</g>
<!-- Node3&#45;&gt;Node11 -->
<g id="edge10" class="edge">
<title>Node3&#45;&gt;Node11</title>
<path fill="none" stroke="midnightblue" d="M374.17,-200C387.03,-200 400.96,-200 414.12,-200"/>
<polygon fill="midnightblue" stroke="midnightblue" points="414.47,-203.5 424.47,-200 414.47,-196.5 414.47,-203.5"/>
</g>
<!-- Node6 -->
<g id="node6" class="node">
<title>Node6</title>
<g id="a_node6"><a xlink:href="option_8c.html#a4225eb8945afcd42e9d4c50bd7c85ff1" target="_top" xlink:title="Applies op on filter with respect to type.">
<polygon fill="white" stroke="black" points="716,-209.5 716,-228.5 825,-228.5 825,-209.5 716,-209.5"/>
<text text-anchor="middle" x="770.5" y="-216.5" font-family="Helvetica,sans-Serif" font-size="10.00">coap_option_filter_op</text>
</a>
</g>
</g>
<!-- Node5&#45;&gt;Node6 -->
<g id="edge5" class="edge">
<title>Node5&#45;&gt;Node6</title>
<path fill="none" stroke="midnightblue" d="M680.04,-230.76C688.41,-229.66 697.11,-228.52 705.65,-227.4"/>
<polygon fill="midnightblue" stroke="midnightblue" points="706.11,-230.87 715.57,-226.09 705.2,-223.93 706.11,-230.87"/>
</g>
<!-- Node7 -->
<g id="node7" class="node">
<title>Node7</title>
<g id="a_node7"><a xlink:href="encode_8c.html#a671b4261b2d24de8696258a8efb0f359" target="_top" xlink:title=" ">
<polygon fill="white" stroke="black" points="874,-228.5 874,-247.5 927,-247.5 927,-228.5 874,-228.5"/>
<text text-anchor="middle" x="900.5" y="-235.5" font-family="Helvetica,sans-Serif" font-size="10.00">coap_fls</text>
</a>
</g>
</g>
<!-- Node6&#45;&gt;Node7 -->
<g id="edge6" class="edge">
<title>Node6&#45;&gt;Node7</title>
<path fill="none" stroke="midnightblue" d="M825.04,-226.95C838.08,-228.88 851.71,-230.91 863.69,-232.68"/>
<polygon fill="midnightblue" stroke="midnightblue" points="863.33,-236.17 873.74,-234.18 864.36,-229.25 863.33,-236.17"/>
</g>
<!-- Node9 -->
<g id="node9" class="node">
<title>Node9</title>
<g id="a_node9"><a xlink:href="option_8c.html#a2be7abc95dd3dfc1f1f3f4268ce41101" target="_top" xlink:title="Returns true iff type denotes an option type larger than 255.">
<polygon fill="white" stroke="black" points="861,-190.5 861,-209.5 940,-209.5 940,-190.5 861,-190.5"/>
<text text-anchor="middle" x="900.5" y="-197.5" font-family="Helvetica,sans-Serif" font-size="10.00">is_long_option</text>
</a>
</g>
</g>
<!-- Node6&#45;&gt;Node9 -->
<g id="edge8" class="edge">
<title>Node6&#45;&gt;Node9</title>
<path fill="none" stroke="midnightblue" d="M825.04,-211.05C833.61,-209.78 842.44,-208.47 850.89,-207.22"/>
<polygon fill="midnightblue" stroke="midnightblue" points="851.59,-210.65 860.97,-205.72 850.56,-203.73 851.59,-210.65"/>
</g>
<!-- Node8 -->
<g id="node8" class="node">
<title>Node8</title>
<g id="a_node8"><a xlink:href="encode_8c.html#a5732d87decbffe771159ea02a5e25488" target="_top" xlink:title=" ">
<polygon fill="white" stroke="black" points="976,-228.5 976,-247.5 1034,-247.5 1034,-228.5 976,-228.5"/>
<text text-anchor="middle" x="1005" y="-235.5" font-family="Helvetica,sans-Serif" font-size="10.00">coap_flsll</text>
</a>
</g>
</g>
<!-- Node7&#45;&gt;Node8 -->
<g id="edge7" class="edge">
<title>Node7&#45;&gt;Node8</title>
<path fill="none" stroke="midnightblue" d="M927.1,-238C938.8,-238 952.9,-238 965.81,-238"/>
<polygon fill="midnightblue" stroke="midnightblue" points="965.84,-241.5 975.84,-238 965.84,-234.5 965.84,-241.5"/>
</g>
<!-- Node12 -->
<g id="node12" class="node">
<title>Node12</title>
<g id="a_node12"><a xlink:href="option_8c.html#a11de99f50cc9f5a34fd9e4d121ecfd13" target="_top" xlink:title="Parses the option pointed to by opt into result.">
<polygon fill="white" stroke="black" points="581,-114.5 581,-133.5 667,-133.5 667,-114.5 581,-114.5"/>
<text text-anchor="middle" x="624" y="-121.5" font-family="Helvetica,sans-Serif" font-size="10.00">coap_opt_parse</text>
</a>
</g>
</g>
<!-- Node11&#45;&gt;Node12 -->
<g id="edge11" class="edge">
<title>Node11&#45;&gt;Node12</title>
<path fill="none" stroke="midnightblue" d="M511.99,-190.46C518.94,-187.94 525.89,-184.83 532,-181 551.72,-168.65 548.45,-155.6 568,-143 571.11,-140.99 574.46,-139.17 577.92,-137.52"/>
<polygon fill="midnightblue" stroke="midnightblue" points="579.39,-140.7 587.21,-133.56 576.64,-134.26 579.39,-140.7"/>
</g>
<!-- Node13 -->
<g id="node13" class="node">
<title>Node13</title>
<g id="a_node13"><a xlink:href="group__opt__filter.html#ga3d3a4336ff55e111eae4eb2a1883a98b" target="_top" xlink:title="Checks if type is contained in filter.">
<polygon fill="white" stroke="black" points="568,-190.5 568,-209.5 680,-209.5 680,-190.5 568,-190.5"/>
<text text-anchor="middle" x="624" y="-197.5" font-family="Helvetica,sans-Serif" font-size="10.00">coap_option_filter_get</text>
</a>
</g>
</g>
<!-- Node11&#45;&gt;Node13 -->
<g id="edge12" class="edge">
<title>Node11&#45;&gt;Node13</title>
<path fill="none" stroke="midnightblue" d="M517.71,-200C530.3,-200 544.21,-200 557.67,-200"/>
<polygon fill="midnightblue" stroke="midnightblue" points="557.86,-203.5 567.86,-200 557.86,-196.5 557.86,-203.5"/>
</g>
<!-- Node14 -->
<g id="node14" class="node">
<title>Node14</title>
<g id="a_node14"><a xlink:href="option_8c.html#a70fa9db0450134640b80cbf7c3720688" target="_top" xlink:title=" ">
<polygon fill="white" stroke="black" points="589.5,-152.5 589.5,-171.5 658.5,-171.5 658.5,-152.5 589.5,-152.5"/>
<text text-anchor="middle" x="624" y="-159.5" font-family="Helvetica,sans-Serif" font-size="10.00">opt_finished</text>
</a>
</g>
</g>
<!-- Node11&#45;&gt;Node14 -->
<g id="edge14" class="edge">
<title>Node11&#45;&gt;Node14</title>
<path fill="none" stroke="midnightblue" d="M510.1,-190.41C531.24,-185.09 557.61,-178.46 579.55,-172.93"/>
<polygon fill="midnightblue" stroke="midnightblue" points="580.44,-176.32 589.28,-170.49 578.73,-169.53 580.44,-176.32"/>
</g>
<!-- Node13&#45;&gt;Node6 -->
<g id="edge13" class="edge">
<title>Node13&#45;&gt;Node6</title>
<path fill="none" stroke="midnightblue" d="M680.04,-207.24C688.41,-208.34 697.11,-209.48 705.65,-210.6"/>
<polygon fill="midnightblue" stroke="midnightblue" points="705.2,-214.07 715.57,-211.91 706.11,-207.13 705.2,-214.07"/>
</g>
<!-- Node15&#45;&gt;Node2 -->
<g id="edge16" class="edge">
<title>Node15&#45;&gt;Node2</title>
<path fill="none" stroke="midnightblue" d="M274.5,-123.5C259.78,-121.71 243.83,-119.24 229.97,-116.59"/>
<polygon fill="midnightblue" stroke="midnightblue" points="230.33,-113.09 219.83,-114.53 228.94,-119.95 230.33,-113.09"/>
</g>
<!-- Node15&#45;&gt;Node10 -->
<g id="edge21" class="edge">
<title>Node15&#45;&gt;Node10</title>
<path fill="none" stroke="midnightblue" d="M361.22,-133.59C380.16,-138.54 403.46,-144.62 423.63,-149.89"/>
<polygon fill="midnightblue" stroke="midnightblue" points="422.99,-153.34 433.55,-152.48 424.76,-146.57 422.99,-153.34"/>
</g>
<!-- Node15&#45;&gt;Node11 -->
<g id="edge22" class="edge">
<title>Node15&#45;&gt;Node11</title>
<path fill="none" stroke="midnightblue" d="M336.58,-133.67C352.57,-146.07 382.01,-167.57 410,-181 414.62,-183.22 419.57,-185.26 424.56,-187.12"/>
<polygon fill="midnightblue" stroke="midnightblue" points="423.55,-190.47 434.14,-190.46 425.85,-183.86 423.55,-190.47"/>
</g>
<!-- Node15&#45;&gt;Node12 -->
<g id="edge20" class="edge">
<title>Node15&#45;&gt;Node12</title>
<path fill="none" stroke="midnightblue" d="M372.79,-124C427,-124 514.67,-124 570.53,-124"/>
<polygon fill="midnightblue" stroke="midnightblue" points="570.58,-127.5 580.58,-124 570.58,-120.5 570.58,-127.5"/>
</g>
<!-- Node15&#45;&gt;Node16 -->
<g id="edge17" class="edge">
<title>Node15&#45;&gt;Node16</title>
<path fill="none" stroke="midnightblue" d="M361.22,-114.41C380.16,-109.46 403.46,-103.38 423.63,-98.11"/>
<polygon fill="midnightblue" stroke="midnightblue" points="424.76,-101.43 433.55,-95.52 422.99,-94.66 424.76,-101.43"/>
</g>
<!-- Node15&#45;&gt;Node18 -->
<g id="edge19" class="edge">
<title>Node15&#45;&gt;Node18</title>
<path fill="none" stroke="midnightblue" d="M336.58,-114.33C352.57,-101.93 382.01,-80.43 410,-67 414.62,-64.78 419.57,-62.74 424.56,-60.88"/>
<polygon fill="midnightblue" stroke="midnightblue" points="425.85,-64.14 434.14,-57.54 423.55,-57.53 425.85,-64.14"/>
</g>
<!-- Node15&#45;&gt;Node19 -->
<g id="edge23" class="edge">
<title>Node15&#45;&gt;Node19</title>
<path fill="none" stroke="midnightblue" d="M330.55,-114.38C343.06,-95.29 373.63,-52.43 410,-29 413.17,-26.96 416.58,-25.12 420.1,-23.47"/>
<polygon fill="midnightblue" stroke="midnightblue" points="421.71,-26.59 429.61,-19.52 419.03,-20.12 421.71,-26.59"/>
</g>
<!-- Node17 -->
<g id="node17" class="node">
<title>Node17</title>
<g id="a_node17"><a xlink:href="group__opt__filter.html#gafebbd04a7895df694a9345dad0275aeb" target="_top" xlink:title="Encodes the given delta and length values into opt.">
<polygon fill="white" stroke="black" points="572,-76.5 572,-95.5 676,-95.5 676,-76.5 572,-76.5"/>
<text text-anchor="middle" x="624" y="-83.5" font-family="Helvetica,sans-Serif" font-size="10.00">coap_opt_setheader</text>
</a>
</g>
</g>
<!-- Node16&#45;&gt;Node17 -->
<g id="edge18" class="edge">
<title>Node16&#45;&gt;Node17</title>
<path fill="none" stroke="midnightblue" d="M517.71,-86C531.61,-86 547.11,-86 561.84,-86"/>
<polygon fill="midnightblue" stroke="midnightblue" points="561.9,-89.5 571.9,-86 561.9,-82.5 561.9,-89.5"/>
</g>
<!-- Node20 -->
<g id="node20" class="node">
<title>Node20</title>
<g id="a_node20"><a xlink:href="pdu_8c.html#add46ce956878a4121e8887b84c6d4a6b" target="_top" xlink:title="Dynamically grows the size of pdu to new_size.">
<polygon fill="white" stroke="black" points="579,-0.5 579,-19.5 669,-19.5 669,-0.5 579,-0.5"/>
<text text-anchor="middle" x="624" y="-7.5" font-family="Helvetica,sans-Serif" font-size="10.00">coap_pdu_resize</text>
</a>
</g>
</g>
<!-- Node19&#45;&gt;Node20 -->
<g id="edge24" class="edge">
<title>Node19&#45;&gt;Node20</title>
<path fill="none" stroke="midnightblue" d="M532.11,-10C544.2,-10 556.83,-10 568.71,-10"/>
<polygon fill="midnightblue" stroke="midnightblue" points="568.91,-13.5 578.91,-10 568.91,-6.5 568.91,-13.5"/>
</g>
</g>
</svg>
