<?xml version="1.0" encoding="UTF-8" standalone="no"?>
<!DOCTYPE svg PUBLIC "-//W3C//DTD SVG 1.1//EN"
 "http://www.w3.org/Graphics/SVG/1.1/DTD/svg11.dtd">
<!-- Generated by graphviz version 2.43.0 (0)
 -->
<!-- Title: coap_malloc_type Pages: 1 -->
<svg width="773pt" height="1517pt"
 viewBox="0.00 0.00 773.00 1517.43" xmlns="http://www.w3.org/2000/svg" xmlns:xlink="http://www.w3.org/1999/xlink">
<g id="graph0" class="graph" transform="scale(1 1) rotate(0) translate(4 1513.43)">
<title>coap_malloc_type</title>
<polygon fill="white" stroke="transparent" points="-4,4 -4,-1513.43 769,-1513.43 769,4 -4,4"/>
<!-- Node1 -->
<g id="node1" class="node">
<title>Node1</title>
<g id="a_node1"><a xlink:title="Allocates a chunk of size bytes and returns a pointer to the newly allocated memory.">
<polygon fill="#bfbfbf" stroke="black" points="670,-831.93 670,-850.93 765,-850.93 765,-831.93 670,-831.93"/>
<text text-anchor="middle" x="717.5" y="-838.93" font-family="Helvetica,sans-Serif" font-size="10.00">coap_malloc_type</text>
</a>
</g>
</g>
<!-- Node2 -->
<g id="node2" class="node">
<title>Node2</title>
<g id="a_node2"><a xlink:href="group__coap__resource.html#gaac85024611363b1353997dc9752a9169" target="_top" xlink:title="Registers a new attribute with the given resource.">
<polygon fill="white" stroke="black" points="193.5,-790.93 193.5,-809.93 271.5,-809.93 271.5,-790.93 193.5,-790.93"/>
<text text-anchor="middle" x="232.5" y="-797.93" font-family="Helvetica,sans-Serif" font-size="10.00">coap_add_attr</text>
</a>
</g>
</g>
<!-- Node1&#45;&gt;Node2 -->
<g id="edge1" class="edge">
<title>Node1&#45;&gt;Node2</title>
<path fill="none" stroke="midnightblue" d="M659.91,-841.27C586.03,-840.45 452.85,-836.85 340,-822.43 317.15,-819.51 291.89,-814.38 271.71,-809.8"/>
<polygon fill="midnightblue" stroke="midnightblue" points="659.89,-844.77 669.93,-841.37 659.96,-837.77 659.89,-844.77"/>
</g>
<!-- Node3 -->
<g id="node3" class="node">
<title>Node3</title>
<g id="a_node3"><a xlink:href="group__cache.html#ga8101e198de5e07d24c3ad1b37b128302" target="_top" xlink:title="Calculates a cache&#45;key for the given CoAP PDU.">
<polygon fill="white" stroke="black" points="171.5,-1211.93 171.5,-1230.93 293.5,-1230.93 293.5,-1211.93 171.5,-1211.93"/>
<text text-anchor="middle" x="232.5" y="-1218.93" font-family="Helvetica,sans-Serif" font-size="10.00">coap_cache_derive_key</text>
</a>
</g>
</g>
<!-- Node1&#45;&gt;Node3 -->
<g id="edge2" class="edge">
<title>Node1&#45;&gt;Node3</title>
<path fill="none" stroke="midnightblue" d="M716.59,-861.23C715.88,-915.91 707.12,-1071.47 634,-1169.43 552.02,-1279.26 474.74,-1287.47 340,-1262.43 307.86,-1256.46 272.91,-1241.15 252.12,-1231.03"/>
<polygon fill="midnightblue" stroke="midnightblue" points="720.09,-861.16 716.65,-851.15 713.09,-861.13 720.09,-861.16"/>
</g>
<!-- Node5 -->
<g id="node5" class="node">
<title>Node5</title>
<g id="a_node5"><a xlink:href="group__cache.html#gaa1fff4be228b51f08a9dba8dcb78f9c0" target="_top" xlink:title="Create a new cache&#45;entry hash keyed by cache&#45;key derived from the PDU.">
<polygon fill="white" stroke="black" points="3,-527.93 3,-546.93 122,-546.93 122,-527.93 3,-527.93"/>
<text text-anchor="middle" x="62.5" y="-534.93" font-family="Helvetica,sans-Serif" font-size="10.00">coap_new_cache_entry</text>
</a>
</g>
</g>
<!-- Node1&#45;&gt;Node5 -->
<g id="edge30" class="edge">
<title>Node1&#45;&gt;Node5</title>
<path fill="none" stroke="midnightblue" d="M717.21,-821.72C717.82,-771.4 711.7,-637.81 634,-576.43 556.1,-514.89 251.71,-525.7 122.27,-533.38"/>
<polygon fill="midnightblue" stroke="midnightblue" points="713.7,-821.82 716.97,-831.89 720.7,-821.98 713.7,-821.82"/>
</g>
<!-- Node6 -->
<g id="node6" class="node">
<title>Node6</title>
<g id="a_node6"><a xlink:href="coap__dtls__gnutls_8c.html#a2e333b0d5a6d15a048071f654f7391bc" target="_top" xlink:title=" ">
<polygon fill="white" stroke="black" points="513,-1451.93 513,-1470.93 634,-1470.93 634,-1451.93 513,-1451.93"/>
<text text-anchor="middle" x="573.5" y="-1458.93" font-family="Helvetica,sans-Serif" font-size="10.00">coap_dtls_new_session</text>
</a>
</g>
</g>
<!-- Node1&#45;&gt;Node6 -->
<g id="edge5" class="edge">
<title>Node1&#45;&gt;Node6</title>
<path fill="none" stroke="midnightblue" d="M716.9,-861.19C717.68,-933.81 714.3,-1191.67 634,-1382.43 622.14,-1410.6 598.01,-1437.79 584.4,-1451.74"/>
<polygon fill="midnightblue" stroke="midnightblue" points="720.4,-861.11 716.75,-851.16 713.4,-861.21 720.4,-861.11"/>
</g>
<!-- Node9 -->
<g id="node9" class="node">
<title>Node9</title>
<g id="a_node9"><a xlink:href="coap__session_8c.html#a492e784d51a3c04c4cd03662c263c64f" target="_top" xlink:title=" ">
<polygon fill="white" stroke="black" points="520.5,-1353.93 520.5,-1372.93 626.5,-1372.93 626.5,-1353.93 520.5,-1353.93"/>
<text text-anchor="middle" x="573.5" y="-1360.93" font-family="Helvetica,sans-Serif" font-size="10.00">coap_make_session</text>
</a>
</g>
</g>
<!-- Node1&#45;&gt;Node9 -->
<g id="edge8" class="edge">
<title>Node1&#45;&gt;Node9</title>
<path fill="none" stroke="midnightblue" d="M714.78,-861.29C707.68,-940.28 678.87,-1231.81 634,-1311.43 623.7,-1329.72 604.46,-1344.72 590.64,-1353.83"/>
<polygon fill="midnightblue" stroke="midnightblue" points="718.28,-861.5 715.67,-851.23 711.3,-860.88 718.28,-861.5"/>
</g>
<!-- Node25 -->
<g id="node15" class="node">
<title>Node25</title>
<g id="a_node15"><a xlink:href="mem_8h.html#a1539cf5011cdfb11500b476f4dbe9393" target="_top" xlink:title="Wrapper function to coap_malloc_type() for backwards compatibility.">
<polygon fill="white" stroke="black" points="538,-1059.93 538,-1078.93 609,-1078.93 609,-1059.93 538,-1059.93"/>
<text text-anchor="middle" x="573.5" y="-1066.93" font-family="Helvetica,sans-Serif" font-size="10.00">coap_malloc</text>
</a>
</g>
</g>
<!-- Node1&#45;&gt;Node25 -->
<g id="edge14" class="edge">
<title>Node1&#45;&gt;Node25</title>
<path fill="none" stroke="midnightblue" d="M705.21,-859.56C676.61,-905.48 602.05,-1025.2 580.45,-1059.88"/>
<polygon fill="midnightblue" stroke="midnightblue" points="708.26,-861.28 710.58,-850.94 702.32,-857.58 708.26,-861.28"/>
</g>
<!-- Node30 -->
<g id="node20" class="node">
<title>Node30</title>
<g id="a_node20"><a xlink:href="net_8c.html#a8baf4e3608ff5eb00adac694fe25eb60" target="_top" xlink:title="Creates a new coap_context_t object that will hold the CoAP stack status.">
<polygon fill="white" stroke="black" points="183.5,-1173.93 183.5,-1192.93 281.5,-1192.93 281.5,-1173.93 183.5,-1173.93"/>
<text text-anchor="middle" x="232.5" y="-1180.93" font-family="Helvetica,sans-Serif" font-size="10.00">coap_new_context</text>
</a>
</g>
</g>
<!-- Node1&#45;&gt;Node30 -->
<g id="edge31" class="edge">
<title>Node1&#45;&gt;Node30</title>
<path fill="none" stroke="midnightblue" d="M713.26,-860.98C705.35,-904.6 682.09,-1012.06 634,-1088.43 582.25,-1170.62 567.03,-1203.99 477,-1240.43 420.56,-1263.28 395.93,-1264.49 340,-1240.43 318.63,-1231.24 323.98,-1214.35 304,-1202.43 297.14,-1198.34 289.39,-1195.11 281.6,-1192.57"/>
<polygon fill="midnightblue" stroke="midnightblue" points="716.71,-861.55 714.98,-851.1 709.81,-860.35 716.71,-861.55"/>
</g>
<!-- Node33 -->
<g id="node23" class="node">
<title>Node33</title>
<g id="a_node23"><a xlink:href="group__coap__resource.html#ga0dea65613e61b49b85fe9dc4002d542d" target="_top" xlink:title="Creates a new resource object for handling proxy URIs.">
<polygon fill="white" stroke="black" points="177.5,-864.43 177.5,-894.43 287.5,-894.43 287.5,-864.43 177.5,-864.43"/>
<text text-anchor="start" x="185.5" y="-882.43" font-family="Helvetica,sans-Serif" font-size="10.00">coap_resource_proxy</text>
<text text-anchor="middle" x="232.5" y="-871.43" font-family="Helvetica,sans-Serif" font-size="10.00">_uri_init</text>
</a>
</g>
</g>
<!-- Node1&#45;&gt;Node33 -->
<g id="edge62" class="edge">
<title>Node1&#45;&gt;Node33</title>
<path fill="none" stroke="midnightblue" d="M659.91,-851.87C651.25,-853.22 642.4,-854.47 634,-855.43 510.64,-869.55 364.9,-875.64 287.75,-878.04"/>
<polygon fill="midnightblue" stroke="midnightblue" points="660.63,-855.29 669.94,-850.24 659.51,-848.38 660.63,-855.29"/>
</g>
<!-- Node68 -->
<g id="node25" class="node">
<title>Node68</title>
<g id="a_node25"><a xlink:href="coap__io_8c.html#af1cdf41660a1dd8f7989c9e9b38979e2" target="_top" xlink:title=" ">
<polygon fill="white" stroke="black" points="517,-907.93 517,-926.93 630,-926.93 630,-907.93 517,-907.93"/>
<text text-anchor="middle" x="573.5" y="-914.93" font-family="Helvetica,sans-Serif" font-size="10.00">coap_malloc_endpoint</text>
</a>
</g>
</g>
<!-- Node1&#45;&gt;Node68 -->
<g id="edge25" class="edge">
<title>Node1&#45;&gt;Node68</title>
<path fill="none" stroke="midnightblue" d="M694.64,-856.73C678.36,-867.73 655.37,-882.5 634,-893.43 623.49,-898.81 611.48,-903.85 601.02,-907.91"/>
<polygon fill="midnightblue" stroke="midnightblue" points="696.66,-859.58 702.93,-851.05 692.7,-853.81 696.66,-859.58"/>
</g>
<!-- Node70 -->
<g id="node27" class="node">
<title>Node70</title>
<g id="a_node27"><a xlink:href="net_8c.html#aeff229f443c6582fea71504f33364eb4" target="_top" xlink:title=" ">
<polygon fill="white" stroke="black" points="524.5,-793.93 524.5,-812.93 622.5,-812.93 622.5,-793.93 524.5,-793.93"/>
<text text-anchor="middle" x="573.5" y="-800.93" font-family="Helvetica,sans-Serif" font-size="10.00">coap_malloc_node</text>
</a>
</g>
</g>
<!-- Node1&#45;&gt;Node70 -->
<g id="edge28" class="edge">
<title>Node1&#45;&gt;Node70</title>
<path fill="none" stroke="midnightblue" d="M671.01,-829.26C651.37,-824 628.73,-817.94 610.32,-813.02"/>
<polygon fill="midnightblue" stroke="midnightblue" points="670.1,-832.64 680.67,-831.84 671.91,-825.88 670.1,-832.64"/>
</g>
<!-- Node73 -->
<g id="node29" class="node">
<title>Node73</title>
<g id="a_node29"><a xlink:href="group__opt__filter.html#ga0e0c8a98596d86d8ad7bef72487f9cec" target="_top" xlink:title="Create a new optlist entry.">
<polygon fill="white" stroke="black" points="527.5,-717.93 527.5,-736.93 619.5,-736.93 619.5,-717.93 527.5,-717.93"/>
<text text-anchor="middle" x="573.5" y="-724.93" font-family="Helvetica,sans-Serif" font-size="10.00">coap_new_optlist</text>
</a>
</g>
</g>
<!-- Node1&#45;&gt;Node73 -->
<g id="edge32" class="edge">
<title>Node1&#45;&gt;Node73</title>
<path fill="none" stroke="midnightblue" d="M703.94,-823.49C689.18,-803.56 663.01,-771.54 634,-751.43 625.39,-745.47 615.09,-740.65 605.49,-736.93"/>
<polygon fill="midnightblue" stroke="midnightblue" points="701.18,-825.66 709.88,-831.72 706.86,-821.56 701.18,-825.66"/>
</g>
<!-- Node74 -->
<g id="node30" class="node">
<title>Node74</title>
<g id="a_node30"><a xlink:href="group__string.html#ga48a2c3c1cc1cf95fc8443179c081ccb1" target="_top" xlink:title="Returns a new string object with at least size+1 bytes storage allocated.">
<polygon fill="white" stroke="black" points="528.5,-660.93 528.5,-679.93 618.5,-679.93 618.5,-660.93 528.5,-660.93"/>
<text text-anchor="middle" x="573.5" y="-667.93" font-family="Helvetica,sans-Serif" font-size="10.00">coap_new_string</text>
</a>
</g>
</g>
<!-- Node1&#45;&gt;Node74 -->
<g id="edge33" class="edge">
<title>Node1&#45;&gt;Node74</title>
<path fill="none" stroke="midnightblue" d="M708.09,-822.43C695.19,-794.86 668.36,-743.24 634,-708.43 622.38,-696.65 606.47,-686.73 594.02,-679.98"/>
<polygon fill="midnightblue" stroke="midnightblue" points="705,-824.09 712.34,-831.74 711.37,-821.19 705,-824.09"/>
</g>
<!-- Node84 -->
<g id="node37" class="node">
<title>Node84</title>
<g id="a_node37"><a xlink:href="group__coap__resource.html#ga96916a1d29ffa358a45e8ee9f50dbb9e" target="_top" xlink:title="Creates a new resource object and initializes the link field to the string uri_path.">
<polygon fill="white" stroke="black" points="183.5,-734.93 183.5,-753.93 281.5,-753.93 281.5,-734.93 183.5,-734.93"/>
<text text-anchor="middle" x="232.5" y="-741.93" font-family="Helvetica,sans-Serif" font-size="10.00">coap_resource_init</text>
</a>
</g>
</g>
<!-- Node1&#45;&gt;Node84 -->
<g id="edge61" class="edge">
<title>Node1&#45;&gt;Node84</title>
<path fill="none" stroke="midnightblue" d="M698.45,-824.89C682.68,-811.5 658.54,-793.45 634,-784.43 570.46,-761.09 373.69,-750.17 281.76,-746.24"/>
<polygon fill="midnightblue" stroke="midnightblue" points="696.46,-827.8 706.29,-831.76 701.07,-822.54 696.46,-827.8"/>
</g>
<!-- Node85 -->
<g id="node38" class="node">
<title>Node85</title>
<g id="a_node38"><a xlink:href="group__coap__resource.html#ga8214c7bdaede14cf652dcd93fb70cc83" target="_top" xlink:title="Creates a new resource object for the unknown resource handler with support for PUT.">
<polygon fill="white" stroke="black" points="161,-639.93 161,-658.93 304,-658.93 304,-639.93 161,-639.93"/>
<text text-anchor="middle" x="232.5" y="-646.93" font-family="Helvetica,sans-Serif" font-size="10.00">coap_resource_unknown_init</text>
</a>
</g>
</g>
<!-- Node1&#45;&gt;Node85 -->
<g id="edge63" class="edge">
<title>Node1&#45;&gt;Node85</title>
<path fill="none" stroke="midnightblue" d="M713.25,-821.73C705.97,-783.58 684.79,-699.19 634,-651.43 537.04,-560.25 469.34,-563.01 340,-594.43 303.8,-603.23 266.16,-626.61 246.78,-639.88"/>
<polygon fill="midnightblue" stroke="midnightblue" points="709.81,-822.37 715.02,-831.59 716.7,-821.13 709.81,-822.37"/>
</g>
<!-- Node86 -->
<g id="node39" class="node">
<title>Node86</title>
<g id="a_node39"><a xlink:href="pdu_8c.html#a8a1f5754d3309fd2880ee8a91607cfc1" target="_top" xlink:title="Creates a new CoAP PDU with at least enough storage space for the given size maximum message size.">
<polygon fill="white" stroke="black" points="535,-242.93 535,-261.93 612,-261.93 612,-242.93 535,-242.93"/>
<text text-anchor="middle" x="573.5" y="-249.93" font-family="Helvetica,sans-Serif" font-size="10.00">coap_pdu_init</text>
</a>
</g>
</g>
<!-- Node1&#45;&gt;Node86 -->
<g id="edge45" class="edge">
<title>Node1&#45;&gt;Node86</title>
<path fill="none" stroke="midnightblue" d="M711.78,-821.86C689.25,-728.4 593.03,-329.3 576.82,-262.07"/>
<polygon fill="midnightblue" stroke="midnightblue" points="708.41,-822.8 714.15,-831.7 715.21,-821.16 708.41,-822.8"/>
</g>
<!-- Node4 -->
<g id="node4" class="node">
<title>Node4</title>
<g id="a_node4"><a xlink:href="group__cache.html#ga13c59dcaba2fc8b10653a483227f7347" target="_top" xlink:title="Searches for a cache&#45;entry corresponding to pdu.">
<polygon fill="white" stroke="black" points="0,-1211.93 0,-1230.93 125,-1230.93 125,-1211.93 0,-1211.93"/>
<text text-anchor="middle" x="62.5" y="-1218.93" font-family="Helvetica,sans-Serif" font-size="10.00">coap_cache_get_by_pdu</text>
</a>
</g>
</g>
<!-- Node3&#45;&gt;Node4 -->
<g id="edge3" class="edge">
<title>Node3&#45;&gt;Node4</title>
<path fill="none" stroke="midnightblue" d="M161,-1221.43C149.12,-1221.43 136.87,-1221.43 125.24,-1221.43"/>
<polygon fill="midnightblue" stroke="midnightblue" points="161.32,-1224.93 171.32,-1221.43 161.32,-1217.93 161.32,-1224.93"/>
</g>
<!-- Node3&#45;&gt;Node5 -->
<g id="edge4" class="edge">
<title>Node3&#45;&gt;Node5</title>
<path fill="none" stroke="midnightblue" d="M164.34,-1205.78C163.17,-1204.73 162.05,-1203.62 161,-1202.43 69.53,-1099.51 63.85,-621.2 63.52,-547.09"/>
<polygon fill="midnightblue" stroke="midnightblue" points="162.63,-1208.85 172.82,-1211.77 166.68,-1203.14 162.63,-1208.85"/>
</g>
<!-- Node7 -->
<g id="node7" class="node">
<title>Node7</title>
<g id="a_node7"><a xlink:href="coap__dtls__gnutls_8c.html#a1208fe255ba461cb9d369a83bbc0f98b" target="_top" xlink:title=" ">
<polygon fill="white" stroke="black" points="350.5,-1489.93 350.5,-1508.93 466.5,-1508.93 466.5,-1489.93 350.5,-1489.93"/>
<text text-anchor="middle" x="408.5" y="-1496.93" font-family="Helvetica,sans-Serif" font-size="10.00">coap_dtls_get_session</text>
</a>
</g>
</g>
<!-- Node6&#45;&gt;Node7 -->
<g id="edge6" class="edge">
<title>Node6&#45;&gt;Node7</title>
<path fill="none" stroke="midnightblue" d="M521.47,-1473.33C498.56,-1478.67 471.9,-1484.88 450.34,-1489.91"/>
<polygon fill="midnightblue" stroke="midnightblue" points="522.42,-1476.7 531.37,-1471.02 520.83,-1469.88 522.42,-1476.7"/>
</g>
<!-- Node8 -->
<g id="node8" class="node">
<title>Node8</title>
<g id="a_node8"><a xlink:href="coap__dtls__gnutls_8c.html#a174ab9010def9c77272219cabba1b48e" target="_top" xlink:title=" ">
<polygon fill="white" stroke="black" points="340,-1451.93 340,-1470.93 477,-1470.93 477,-1451.93 340,-1451.93"/>
<text text-anchor="middle" x="408.5" y="-1458.93" font-family="Helvetica,sans-Serif" font-size="10.00">coap_dtls_handle_message</text>
</a>
</g>
</g>
<!-- Node6&#45;&gt;Node8 -->
<g id="edge7" class="edge">
<title>Node6&#45;&gt;Node8</title>
<path fill="none" stroke="midnightblue" d="M502.59,-1461.43C494.19,-1461.43 485.62,-1461.43 477.25,-1461.43"/>
<polygon fill="midnightblue" stroke="midnightblue" points="502.73,-1464.93 512.73,-1461.43 502.73,-1457.93 502.73,-1464.93"/>
</g>
<!-- Node10 -->
<g id="node10" class="node">
<title>Node10</title>
<g id="a_node10"><a xlink:href="coap__session_8c.html#a0d8adbae82b2ced3accee1361ac8fe6c" target="_top" xlink:title=" ">
<polygon fill="white" stroke="black" points="340,-1375.93 340,-1394.93 477,-1394.93 477,-1375.93 340,-1375.93"/>
<text text-anchor="middle" x="408.5" y="-1382.93" font-family="Helvetica,sans-Serif" font-size="10.00">coap_endpoint_get_session</text>
</a>
</g>
</g>
<!-- Node9&#45;&gt;Node10 -->
<g id="edge9" class="edge">
<title>Node9&#45;&gt;Node10</title>
<path fill="none" stroke="midnightblue" d="M510.26,-1371.83C499.41,-1373.3 488.09,-1374.82 477.11,-1376.31"/>
<polygon fill="midnightblue" stroke="midnightblue" points="511.04,-1375.26 520.48,-1370.45 510.1,-1368.32 511.04,-1375.26"/>
</g>
<!-- Node18 -->
<g id="node12" class="node">
<title>Node18</title>
<g id="a_node12"><a xlink:href="coap__session_8c.html#ad1f593f76f250a587ac733afb4f09878" target="_top" xlink:title="Creates a new server session for the specified endpoint.">
<polygon fill="white" stroke="black" points="342.5,-1413.93 342.5,-1432.93 474.5,-1432.93 474.5,-1413.93 342.5,-1413.93"/>
<text text-anchor="middle" x="408.5" y="-1420.93" font-family="Helvetica,sans-Serif" font-size="10.00">coap_new_server_session</text>
</a>
</g>
</g>
<!-- Node9&#45;&gt;Node18 -->
<g id="edge11" class="edge">
<title>Node9&#45;&gt;Node18</title>
<path fill="none" stroke="midnightblue" d="M543.15,-1377.22C524.46,-1385.7 499.6,-1396.44 477,-1404.43 467.36,-1407.84 456.78,-1411.06 446.91,-1413.84"/>
<polygon fill="midnightblue" stroke="midnightblue" points="544.68,-1380.37 552.32,-1373.02 541.77,-1374 544.68,-1380.37"/>
</g>
<!-- Node20 -->
<g id="node14" class="node">
<title>Node20</title>
<g id="a_node14"><a xlink:href="coap__session_8c.html#a78865254d0191854b0b7c35f28eefe71" target="_top" xlink:title=" ">
<polygon fill="white" stroke="red" points="354,-1326.43 354,-1356.43 463,-1356.43 463,-1326.43 354,-1326.43"/>
<text text-anchor="start" x="362" y="-1344.43" font-family="Helvetica,sans-Serif" font-size="10.00">coap_session_create</text>
<text text-anchor="middle" x="408.5" y="-1333.43" font-family="Helvetica,sans-Serif" font-size="10.00">_client</text>
</a>
</g>
</g>
<!-- Node9&#45;&gt;Node20 -->
<g id="edge13" class="edge">
<title>Node9&#45;&gt;Node20</title>
<path fill="none" stroke="midnightblue" d="M510.44,-1355.05C494.9,-1352.96 478.37,-1350.73 463.27,-1348.69"/>
<polygon fill="midnightblue" stroke="midnightblue" points="510.1,-1358.54 520.48,-1356.41 511.04,-1351.6 510.1,-1358.54"/>
</g>
<!-- Node11 -->
<g id="node11" class="node">
<title>Node11</title>
<g id="a_node11"><a xlink:href="net_8c.html#a44ffb4b70e537043e9a9cf344be24b92" target="_top" xlink:title=" ">
<polygon fill="white" stroke="red" points="180.5,-1375.93 180.5,-1394.93 284.5,-1394.93 284.5,-1375.93 180.5,-1375.93"/>
<text text-anchor="middle" x="232.5" y="-1382.93" font-family="Helvetica,sans-Serif" font-size="10.00">coap_read_endpoint</text>
</a>
</g>
</g>
<!-- Node10&#45;&gt;Node11 -->
<g id="edge10" class="edge">
<title>Node10&#45;&gt;Node11</title>
<path fill="none" stroke="midnightblue" d="M329.32,-1385.43C314.17,-1385.43 298.66,-1385.43 284.65,-1385.43"/>
<polygon fill="midnightblue" stroke="midnightblue" points="329.73,-1388.93 339.73,-1385.43 329.73,-1381.93 329.73,-1388.93"/>
</g>
<!-- Node19 -->
<g id="node13" class="node">
<title>Node19</title>
<g id="a_node13"><a xlink:href="net_8c.html#a7437c90770ffd13685e6a77799b4753b" target="_top" xlink:title=" ">
<polygon fill="white" stroke="red" points="175.5,-1413.93 175.5,-1432.93 289.5,-1432.93 289.5,-1413.93 175.5,-1413.93"/>
<text text-anchor="middle" x="232.5" y="-1420.93" font-family="Helvetica,sans-Serif" font-size="10.00">coap_accept_endpoint</text>
</a>
</g>
</g>
<!-- Node18&#45;&gt;Node19 -->
<g id="edge12" class="edge">
<title>Node18&#45;&gt;Node19</title>
<path fill="none" stroke="midnightblue" d="M331.98,-1423.43C317.8,-1423.43 303.2,-1423.43 289.74,-1423.43"/>
<polygon fill="midnightblue" stroke="midnightblue" points="332.21,-1426.93 342.21,-1423.43 332.21,-1419.93 332.21,-1426.93"/>
</g>
<!-- Node26 -->
<g id="node16" class="node">
<title>Node26</title>
<g id="a_node16"><a xlink:href="group__cache.html#ga83d189a51d30bc48a6b05b244a42193d" target="_top" xlink:title="Define the CoAP options that are not to be included when calculating the cache&#45;key.">
<polygon fill="white" stroke="black" points="340,-1135.93 340,-1154.93 477,-1154.93 477,-1135.93 340,-1135.93"/>
<text text-anchor="middle" x="408.5" y="-1142.93" font-family="Helvetica,sans-Serif" font-size="10.00">coap_cache_ignore_options</text>
</a>
</g>
</g>
<!-- Node25&#45;&gt;Node26 -->
<g id="edge15" class="edge">
<title>Node25&#45;&gt;Node26</title>
<path fill="none" stroke="midnightblue" d="M550.45,-1084.89C531.64,-1097.49 503.52,-1115.02 477,-1126.43 468.5,-1130.09 459.1,-1133.25 450.08,-1135.88"/>
<polygon fill="midnightblue" stroke="midnightblue" points="552.59,-1087.67 558.88,-1079.14 548.65,-1081.88 552.59,-1087.67"/>
</g>
<!-- Node27 -->
<g id="node17" class="node">
<title>Node27</title>
<g id="a_node17"><a xlink:href="uri_8c.html#abee90f9288ee9acc26a3af3d88c3758b" target="_top" xlink:title="Clones the specified coap_uri_t object.">
<polygon fill="white" stroke="black" points="367.5,-1097.93 367.5,-1116.93 449.5,-1116.93 449.5,-1097.93 367.5,-1097.93"/>
<text text-anchor="middle" x="408.5" y="-1104.93" font-family="Helvetica,sans-Serif" font-size="10.00">coap_clone_uri</text>
</a>
</g>
</g>
<!-- Node25&#45;&gt;Node27 -->
<g id="edge16" class="edge">
<title>Node25&#45;&gt;Node27</title>
<path fill="none" stroke="midnightblue" d="M528.17,-1079.76C503.71,-1085.47 473.56,-1092.5 449.77,-1098.04"/>
<polygon fill="midnightblue" stroke="midnightblue" points="528.99,-1083.17 537.93,-1077.49 527.4,-1076.35 528.99,-1083.17"/>
</g>
<!-- Node28 -->
<g id="node18" class="node">
<title>Node28</title>
<g id="a_node18"><a xlink:href="group__cache__internal.html#ga68a0ea9de8a8a4fb757d96be93f5cbf2" target="_top" xlink:title="Initialize a coap_digest.">
<polygon fill="white" stroke="black" points="359.5,-1211.93 359.5,-1230.93 457.5,-1230.93 457.5,-1211.93 359.5,-1211.93"/>
<text text-anchor="middle" x="408.5" y="-1218.93" font-family="Helvetica,sans-Serif" font-size="10.00">coap_digest_setup</text>
</a>
</g>
</g>
<!-- Node25&#45;&gt;Node28 -->
<g id="edge17" class="edge">
<title>Node25&#45;&gt;Node28</title>
<path fill="none" stroke="midnightblue" d="M563.93,-1088.63C549.96,-1117.7 519.5,-1172.65 477,-1202.43 471.22,-1206.48 464.59,-1209.67 457.8,-1212.19"/>
<polygon fill="midnightblue" stroke="midnightblue" points="567.28,-1089.73 568.32,-1079.18 560.93,-1086.77 567.28,-1089.73"/>
</g>
<!-- Node29 -->
<g id="node19" class="node">
<title>Node29</title>
<g id="a_node19"><a xlink:href="group__dtls__internal.html#gac3f26c28dfc018c8efb5ca410f5c4c0e" target="_top" xlink:title="Creates a new DTLS context for the given coap_context.">
<polygon fill="white" stroke="black" points="349,-1173.93 349,-1192.93 468,-1192.93 468,-1173.93 349,-1173.93"/>
<text text-anchor="middle" x="408.5" y="-1180.93" font-family="Helvetica,sans-Serif" font-size="10.00">coap_dtls_new_context</text>
</a>
</g>
</g>
<!-- Node25&#45;&gt;Node29 -->
<g id="edge19" class="edge">
<title>Node25&#45;&gt;Node29</title>
<path fill="none" stroke="midnightblue" d="M559.44,-1087.08C542.68,-1108.49 511.61,-1144.22 477,-1164.43 470.38,-1168.3 462.93,-1171.41 455.46,-1173.91"/>
<polygon fill="midnightblue" stroke="midnightblue" points="562.23,-1089.19 565.52,-1079.13 556.67,-1084.94 562.23,-1089.19"/>
</g>
<!-- Node31 -->
<g id="node21" class="node">
<title>Node31</title>
<g id="a_node21"><a xlink:href="uri_8c.html#a908cd03f5a2a7b04ae9051508e22f8de" target="_top" xlink:title="Creates a new coap_uri_t object from the specified URI.">
<polygon fill="white" stroke="black" points="370,-1059.93 370,-1078.93 447,-1078.93 447,-1059.93 370,-1059.93"/>
<text text-anchor="middle" x="408.5" y="-1066.93" font-family="Helvetica,sans-Serif" font-size="10.00">coap_new_uri</text>
</a>
</g>
</g>
<!-- Node25&#45;&gt;Node31 -->
<g id="edge21" class="edge">
<title>Node25&#45;&gt;Node31</title>
<path fill="none" stroke="midnightblue" d="M527.84,-1069.43C502.53,-1069.43 471.21,-1069.43 447.14,-1069.43"/>
<polygon fill="midnightblue" stroke="midnightblue" points="527.93,-1072.93 537.93,-1069.43 527.93,-1065.93 527.93,-1072.93"/>
</g>
<!-- Node32 -->
<g id="node22" class="node">
<title>Node32</title>
<g id="a_node22"><a xlink:href="group__coap__async.html#ga2036036f8a838be7e64938ce733d1600" target="_top" xlink:title="Allocates a new coap_async_state_t object and fills its fields according to the given request.">
<polygon fill="white" stroke="black" points="355,-1021.93 355,-1040.93 462,-1040.93 462,-1021.93 355,-1021.93"/>
<text text-anchor="middle" x="408.5" y="-1028.93" font-family="Helvetica,sans-Serif" font-size="10.00">coap_register_async</text>
</a>
</g>
</g>
<!-- Node25&#45;&gt;Node32 -->
<g id="edge22" class="edge">
<title>Node25&#45;&gt;Node32</title>
<path fill="none" stroke="midnightblue" d="M527.92,-1059.04C503.71,-1053.39 473.97,-1046.46 450.36,-1040.96"/>
<polygon fill="midnightblue" stroke="midnightblue" points="527.4,-1062.51 537.93,-1061.37 528.99,-1055.69 527.4,-1062.51"/>
</g>
<!-- Node25&#45;&gt;Node33 -->
<g id="edge23" class="edge">
<title>Node25&#45;&gt;Node33</title>
<path fill="none" stroke="midnightblue" d="M559.45,-1051.76C542.71,-1030.33 511.65,-994.58 477,-974.43 422.38,-942.67 398.66,-959.93 340,-936.43 310.8,-924.73 279.25,-907.18 258.14,-894.64"/>
<polygon fill="midnightblue" stroke="midnightblue" points="556.68,-1053.9 565.53,-1059.72 562.25,-1049.65 556.68,-1053.9"/>
</g>
<!-- Node34 -->
<g id="node24" class="node">
<title>Node34</title>
<g id="a_node24"><a xlink:href="coap__dtls__gnutls_8c.html#a5d084ed2e1e2f7e4c89d134db09d025c" target="_top" xlink:title=" ">
<polygon fill="white" stroke="red" points="365.5,-983.93 365.5,-1002.93 451.5,-1002.93 451.5,-983.93 365.5,-983.93"/>
<text text-anchor="middle" x="408.5" y="-990.93" font-family="Helvetica,sans-Serif" font-size="10.00">push_data_item</text>
</a>
</g>
</g>
<!-- Node25&#45;&gt;Node34 -->
<g id="edge24" class="edge">
<title>Node25&#45;&gt;Node34</title>
<path fill="none" stroke="midnightblue" d="M550.45,-1053.97C531.64,-1041.37 503.52,-1023.84 477,-1012.43 468.5,-1008.77 459.1,-1005.62 450.08,-1002.98"/>
<polygon fill="midnightblue" stroke="midnightblue" points="548.65,-1056.98 558.88,-1059.72 552.59,-1051.2 548.65,-1056.98"/>
</g>
<!-- Node28&#45;&gt;Node3 -->
<g id="edge18" class="edge">
<title>Node28&#45;&gt;Node3</title>
<path fill="none" stroke="midnightblue" d="M349.48,-1221.43C331.58,-1221.43 311.83,-1221.43 293.79,-1221.43"/>
<polygon fill="midnightblue" stroke="midnightblue" points="349.49,-1224.93 359.49,-1221.43 349.49,-1217.93 349.49,-1224.93"/>
</g>
<!-- Node29&#45;&gt;Node30 -->
<g id="edge20" class="edge">
<title>Node29&#45;&gt;Node30</title>
<path fill="none" stroke="midnightblue" d="M338.47,-1183.43C319.45,-1183.43 299.22,-1183.43 281.66,-1183.43"/>
<polygon fill="midnightblue" stroke="midnightblue" points="338.59,-1186.93 348.59,-1183.43 338.59,-1179.93 338.59,-1186.93"/>
</g>
<!-- Node69 -->
<g id="node26" class="node">
<title>Node69</title>
<g id="a_node26"><a xlink:href="coap__session_8c.html#ab5232b5141e191638ee6b7da6239dd1b" target="_top" xlink:title="Create a new endpoint for communicating with peers.">
<polygon fill="white" stroke="black" points="357,-907.93 357,-926.93 460,-926.93 460,-907.93 357,-907.93"/>
<text text-anchor="middle" x="408.5" y="-914.93" font-family="Helvetica,sans-Serif" font-size="10.00">coap_new_endpoint</text>
</a>
</g>
</g>
<!-- Node68&#45;&gt;Node69 -->
<g id="edge26" class="edge">
<title>Node68&#45;&gt;Node69</title>
<path fill="none" stroke="midnightblue" d="M506.8,-917.43C491.29,-917.43 474.97,-917.43 460.24,-917.43"/>
<polygon fill="midnightblue" stroke="midnightblue" points="506.86,-920.93 516.86,-917.43 506.86,-913.93 506.86,-920.93"/>
</g>
<!-- Node69&#45;&gt;Node30 -->
<g id="edge27" class="edge">
<title>Node69&#45;&gt;Node30</title>
<path fill="none" stroke="midnightblue" d="M384.87,-932.92C370.71,-943.43 352.78,-958.31 340,-974.43 285.85,-1042.72 247.81,-1142.89 236.79,-1173.91"/>
<polygon fill="midnightblue" stroke="midnightblue" points="387.06,-935.66 393.13,-926.97 382.97,-929.98 387.06,-935.66"/>
</g>
<!-- Node71 -->
<g id="node28" class="node">
<title>Node71</title>
<g id="a_node28"><a xlink:href="net_8c.html#a45d9cf1d576566b0a5ffd9e2e1c6b7fa" target="_top" xlink:title="Creates a new node suitable for adding to the CoAP sendqueue.">
<polygon fill="white" stroke="red" points="365,-793.93 365,-812.93 452,-812.93 452,-793.93 365,-793.93"/>
<text text-anchor="middle" x="408.5" y="-800.93" font-family="Helvetica,sans-Serif" font-size="10.00">coap_new_node</text>
</a>
</g>
</g>
<!-- Node70&#45;&gt;Node71 -->
<g id="edge29" class="edge">
<title>Node70&#45;&gt;Node71</title>
<path fill="none" stroke="midnightblue" d="M514.3,-803.43C493.81,-803.43 471.17,-803.43 452.19,-803.43"/>
<polygon fill="midnightblue" stroke="midnightblue" points="514.48,-806.93 524.48,-803.43 514.48,-799.93 514.48,-806.93"/>
</g>
<!-- Node75 -->
<g id="node31" class="node">
<title>Node75</title>
<g id="a_node31"><a xlink:href="uri_8c.html#a15cc296560619b6f9b80d9005a000167" target="_top" xlink:title=" ">
<polygon fill="white" stroke="black" points="365.5,-489.93 365.5,-508.93 451.5,-508.93 451.5,-489.93 365.5,-489.93"/>
<text text-anchor="middle" x="408.5" y="-496.93" font-family="Helvetica,sans-Serif" font-size="10.00">coap_get_query</text>
</a>
</g>
</g>
<!-- Node74&#45;&gt;Node75 -->
<g id="edge34" class="edge">
<title>Node74&#45;&gt;Node75</title>
<path fill="none" stroke="midnightblue" d="M555.96,-653.08C521.93,-617.38 445.06,-536.74 418.63,-509.01"/>
<polygon fill="midnightblue" stroke="midnightblue" points="553.84,-655.92 563.27,-660.75 558.9,-651.09 553.84,-655.92"/>
</g>
<!-- Node76 -->
<g id="node33" class="node">
<title>Node76</title>
<g id="a_node33"><a xlink:href="uri_8c.html#a062095681104f3175b8265e240989ade" target="_top" xlink:title=" ">
<polygon fill="white" stroke="black" points="360.5,-603.93 360.5,-622.93 456.5,-622.93 456.5,-603.93 360.5,-603.93"/>
<text text-anchor="middle" x="408.5" y="-610.93" font-family="Helvetica,sans-Serif" font-size="10.00">coap_get_uri_path</text>
</a>
</g>
</g>
<!-- Node74&#45;&gt;Node76 -->
<g id="edge36" class="edge">
<title>Node74&#45;&gt;Node76</title>
<path fill="none" stroke="midnightblue" d="M540.97,-656.93C522.51,-649.26 498.63,-639.76 477,-632.43 467.08,-629.07 456.21,-625.83 446.15,-623"/>
<polygon fill="midnightblue" stroke="midnightblue" points="539.79,-660.22 550.36,-660.86 542.49,-653.77 539.79,-660.22"/>
</g>
<!-- Node77 -->
<g id="node34" class="node">
<title>Node77</title>
<g id="a_node34"><a xlink:href="group__string.html#ga6f274b4a0278e936ebb2c64efc890e22" target="_top" xlink:title="Take the specified byte array (text) and create a coap_bin_const_t * Returns a new const binary objec...">
<polygon fill="white" stroke="red" points="354.5,-679.93 354.5,-698.93 462.5,-698.93 462.5,-679.93 354.5,-679.93"/>
<text text-anchor="middle" x="408.5" y="-686.93" font-family="Helvetica,sans-Serif" font-size="10.00">coap_new_bin_const</text>
</a>
</g>
</g>
<!-- Node74&#45;&gt;Node77 -->
<g id="edge38" class="edge">
<title>Node74&#45;&gt;Node77</title>
<path fill="none" stroke="midnightblue" d="M518.38,-676.74C500.44,-678.83 480.5,-681.15 462.64,-683.24"/>
<polygon fill="midnightblue" stroke="midnightblue" points="518.86,-680.21 528.39,-675.57 518.05,-673.25 518.86,-680.21"/>
</g>
<!-- Node80 -->
<g id="node35" class="node">
<title>Node80</title>
<g id="a_node35"><a xlink:href="group__string.html#ga8da8715d422db6376ff349e255911052" target="_top" xlink:title="Returns a new binary object with at least size bytes storage allocated.">
<polygon fill="white" stroke="red" points="362.5,-641.93 362.5,-660.93 454.5,-660.93 454.5,-641.93 362.5,-641.93"/>
<text text-anchor="middle" x="408.5" y="-648.93" font-family="Helvetica,sans-Serif" font-size="10.00">coap_new_binary</text>
</a>
</g>
</g>
<!-- Node74&#45;&gt;Node80 -->
<g id="edge39" class="edge">
<title>Node74&#45;&gt;Node80</title>
<path fill="none" stroke="midnightblue" d="M518.21,-664.1C497.64,-661.7 474.44,-659 454.78,-656.71"/>
<polygon fill="midnightblue" stroke="midnightblue" points="518.05,-667.61 528.39,-665.29 518.86,-660.66 518.05,-667.61"/>
</g>
<!-- Node83 -->
<g id="node36" class="node">
<title>Node83</title>
<g id="a_node36"><a xlink:href="group__string.html#ga983bc4d64851286070261bcc98baaa57" target="_top" xlink:title="Returns a new const string object with at least size+1 bytes storage allocated, and the provided data...">
<polygon fill="white" stroke="black" points="355,-717.93 355,-736.93 462,-736.93 462,-717.93 355,-717.93"/>
<text text-anchor="middle" x="408.5" y="-724.93" font-family="Helvetica,sans-Serif" font-size="10.00">coap_new_str_const</text>
</a>
</g>
</g>
<!-- Node74&#45;&gt;Node83 -->
<g id="edge40" class="edge">
<title>Node74&#45;&gt;Node83</title>
<path fill="none" stroke="midnightblue" d="M540.97,-683.94C522.51,-691.61 498.63,-701.1 477,-708.43 467.08,-711.79 456.21,-715.04 446.15,-717.87"/>
<polygon fill="midnightblue" stroke="midnightblue" points="542.49,-687.1 550.36,-680 539.79,-680.64 542.49,-687.1"/>
</g>
<!-- Node61 -->
<g id="node32" class="node">
<title>Node61</title>
<g id="a_node32"><a xlink:href="net_8c.html#a1a280312c4bad55cf10243b9b9c3e966" target="_top" xlink:title=" ">
<polygon fill="white" stroke="red" points="191,-451.93 191,-470.93 274,-470.93 274,-451.93 191,-451.93"/>
<text text-anchor="middle" x="232.5" y="-458.93" font-family="Helvetica,sans-Serif" font-size="10.00">handle_request</text>
</a>
</g>
</g>
<!-- Node75&#45;&gt;Node61 -->
<g id="edge35" class="edge">
<title>Node75&#45;&gt;Node61</title>
<path fill="none" stroke="midnightblue" d="M355.3,-488.03C329.27,-482.35 298.25,-475.57 274.03,-470.28"/>
<polygon fill="midnightblue" stroke="midnightblue" points="354.86,-491.52 365.38,-490.23 356.36,-484.68 354.86,-491.52"/>
</g>
<!-- Node76&#45;&gt;Node61 -->
<g id="edge37" class="edge">
<title>Node76&#45;&gt;Node61</title>
<path fill="none" stroke="midnightblue" d="M388.74,-597.04C352.37,-565.27 273.3,-496.2 244.38,-470.94"/>
<polygon fill="midnightblue" stroke="midnightblue" points="386.78,-599.98 396.62,-603.92 391.39,-594.71 386.78,-599.98"/>
</g>
<!-- Node83&#45;&gt;Node2 -->
<g id="edge41" class="edge">
<title>Node83&#45;&gt;Node2</title>
<path fill="none" stroke="midnightblue" d="M375.12,-741.02C340.53,-755.53 286.61,-778.15 256.25,-790.89"/>
<polygon fill="midnightblue" stroke="midnightblue" points="376.89,-744.07 384.75,-736.97 374.18,-737.62 376.89,-744.07"/>
</g>
<!-- Node83&#45;&gt;Node33 -->
<g id="edge43" class="edge">
<title>Node83&#45;&gt;Node33</title>
<path fill="none" stroke="midnightblue" d="M387.54,-743.67C373.93,-754.88 355.62,-770.27 340,-784.43 323.47,-799.42 320.51,-804.41 304,-819.43 286.76,-835.11 266.43,-852.28 252.05,-864.22"/>
<polygon fill="midnightblue" stroke="midnightblue" points="389.82,-746.32 395.33,-737.27 385.38,-740.91 389.82,-746.32"/>
</g>
<!-- Node83&#45;&gt;Node84 -->
<g id="edge42" class="edge">
<title>Node83&#45;&gt;Node84</title>
<path fill="none" stroke="midnightblue" d="M344.78,-733.56C323.95,-735.59 301.1,-737.83 281.55,-739.74"/>
<polygon fill="midnightblue" stroke="midnightblue" points="345.21,-737.03 354.82,-732.58 344.53,-730.07 345.21,-737.03"/>
</g>
<!-- Node83&#45;&gt;Node85 -->
<g id="edge44" class="edge">
<title>Node83&#45;&gt;Node85</title>
<path fill="none" stroke="midnightblue" d="M358.08,-714.96C351.92,-712.98 345.76,-710.8 340,-708.43 305.59,-694.28 268.16,-671.7 248.12,-658.97"/>
<polygon fill="midnightblue" stroke="midnightblue" points="357.13,-718.33 367.72,-717.89 359.17,-711.63 357.13,-718.33"/>
</g>
<!-- Node86&#45;&gt;Node5 -->
<g id="edge47" class="edge">
<title>Node86&#45;&gt;Node5</title>
<path fill="none" stroke="midnightblue" d="M571.17,-232.61C566.89,-186.52 549.14,-72.42 477,-24.43 426.31,9.3 392.28,6.78 340,-24.43 138.46,-144.75 75.12,-468.31 65.02,-527.92"/>
<polygon fill="midnightblue" stroke="midnightblue" points="567.7,-233.1 572,-242.78 574.68,-232.53 567.7,-233.1"/>
</g>
<!-- Node86&#45;&gt;Node61 -->
<g id="edge59" class="edge">
<title>Node86&#45;&gt;Node61</title>
<path fill="none" stroke="midnightblue" d="M540.98,-265.97C522.52,-273.65 498.65,-283.15 477,-290.43 417.11,-310.59 392.75,-293.64 340,-328.43 289.38,-361.82 251.54,-427.02 238.47,-451.67"/>
<polygon fill="midnightblue" stroke="midnightblue" points="542.5,-269.13 550.37,-262.03 539.79,-262.67 542.5,-269.13"/>
</g>
<!-- Node45 -->
<g id="node40" class="node">
<title>Node45</title>
<g id="a_node40"><a xlink:href="net_8c.html#a32887948ee273d1ad464ec47df194910" target="_top" xlink:title="Parses and interprets a CoAP datagram with context ctx.">
<polygon fill="white" stroke="red" points="356.5,-261.93 356.5,-280.93 460.5,-280.93 460.5,-261.93 356.5,-261.93"/>
<text text-anchor="middle" x="408.5" y="-268.93" font-family="Helvetica,sans-Serif" font-size="10.00">coap_handle_dgram</text>
</a>
</g>
</g>
<!-- Node86&#45;&gt;Node45 -->
<g id="edge46" class="edge">
<title>Node86&#45;&gt;Node45</title>
<path fill="none" stroke="midnightblue" d="M524.53,-258.02C504.45,-260.36 481.09,-263.09 460.68,-265.47"/>
<polygon fill="midnightblue" stroke="midnightblue" points="525.17,-261.47 534.69,-256.84 524.36,-254.52 525.17,-261.47"/>
</g>
<!-- Node87 -->
<g id="node41" class="node">
<title>Node87</title>
<g id="a_node41"><a xlink:href="net_8c.html#ab7953637ad760f76ffb8060ddf47fe6a" target="_top" xlink:title="Creates a new ACK PDU with specified error code.">
<polygon fill="white" stroke="red" points="343,-375.93 343,-394.93 474,-394.93 474,-375.93 343,-375.93"/>
<text text-anchor="middle" x="408.5" y="-382.93" font-family="Helvetica,sans-Serif" font-size="10.00">coap_new_error_response</text>
</a>
</g>
</g>
<!-- Node86&#45;&gt;Node87 -->
<g id="edge48" class="edge">
<title>Node86&#45;&gt;Node87</title>
<path fill="none" stroke="midnightblue" d="M562.11,-270.68C546.77,-295.99 515.64,-341.45 477,-366.43 470.97,-370.33 464.13,-373.44 457.18,-375.92"/>
<polygon fill="midnightblue" stroke="midnightblue" points="565.14,-272.45 567.2,-262.05 559.11,-268.89 565.14,-272.45"/>
</g>
<!-- Node88 -->
<g id="node42" class="node">
<title>Node88</title>
<g id="a_node42"><a xlink:href="pdu_8c.html#a95b5e0611afb772be6dfe3d25191878f" target="_top" xlink:title="Creates a new CoAP PDU.">
<polygon fill="white" stroke="black" points="367.5,-223.93 367.5,-242.93 449.5,-242.93 449.5,-223.93 367.5,-223.93"/>
<text text-anchor="middle" x="408.5" y="-230.93" font-family="Helvetica,sans-Serif" font-size="10.00">coap_new_pdu</text>
</a>
</g>
</g>
<!-- Node86&#45;&gt;Node88 -->
<g id="edge50" class="edge">
<title>Node86&#45;&gt;Node88</title>
<path fill="none" stroke="midnightblue" d="M524.47,-246.83C500.68,-244.06 472.28,-240.75 449.66,-238.11"/>
<polygon fill="midnightblue" stroke="midnightblue" points="524.36,-250.34 534.69,-248.02 525.17,-243.39 524.36,-250.34"/>
</g>
<!-- Node48 -->
<g id="node43" class="node">
<title>Node48</title>
<g id="a_node43"><a xlink:href="resource_8c.html#ac502b4f7cc5ef8b6d4a6b7b4d940076a" target="_top" xlink:title=" ">
<polygon fill="white" stroke="red" points="351,-185.93 351,-204.93 466,-204.93 466,-185.93 351,-185.93"/>
<text text-anchor="middle" x="408.5" y="-192.93" font-family="Helvetica,sans-Serif" font-size="10.00">coap_notify_observers</text>
</a>
</g>
</g>
<!-- Node86&#45;&gt;Node48 -->
<g id="edge51" class="edge">
<title>Node86&#45;&gt;Node48</title>
<path fill="none" stroke="midnightblue" d="M540.97,-238.93C522.51,-231.26 498.63,-221.76 477,-214.43 467.08,-211.07 456.21,-207.83 446.15,-205"/>
<polygon fill="midnightblue" stroke="midnightblue" points="539.79,-242.22 550.36,-242.86 542.49,-235.77 539.79,-242.22"/>
</g>
<!-- Node47 -->
<g id="node44" class="node">
<title>Node47</title>
<g id="a_node44"><a xlink:href="net_8c.html#acd36f6fba6d30ab9557e0e6521f4a088" target="_top" xlink:title=" ">
<polygon fill="white" stroke="red" points="358,-147.93 358,-166.93 459,-166.93 459,-147.93 358,-147.93"/>
<text text-anchor="middle" x="408.5" y="-154.93" font-family="Helvetica,sans-Serif" font-size="10.00">coap_read_session</text>
</a>
</g>
</g>
<!-- Node86&#45;&gt;Node47 -->
<g id="edge52" class="edge">
<title>Node86&#45;&gt;Node47</title>
<path fill="none" stroke="midnightblue" d="M555.74,-235.6C537.74,-218.41 507.58,-192.09 477,-176.43 469.63,-172.66 461.42,-169.55 453.32,-167.02"/>
<polygon fill="midnightblue" stroke="midnightblue" points="553.51,-238.31 563.11,-242.78 558.39,-233.29 553.51,-238.31"/>
</g>
<!-- Node55 -->
<g id="node45" class="node">
<title>Node55</title>
<g id="a_node45"><a xlink:href="net_8c.html#aba278b109415057d15196fa46afee970" target="_top" xlink:title="Sends an ACK message with code 0 for the specified request to dst.">
<polygon fill="white" stroke="red" points="366,-109.93 366,-128.93 451,-128.93 451,-109.93 366,-109.93"/>
<text text-anchor="middle" x="408.5" y="-116.93" font-family="Helvetica,sans-Serif" font-size="10.00">coap_send_ack</text>
</a>
</g>
</g>
<!-- Node86&#45;&gt;Node55 -->
<g id="edge53" class="edge">
<title>Node86&#45;&gt;Node55</title>
<path fill="none" stroke="midnightblue" d="M562.11,-234.18C546.77,-208.87 515.64,-163.42 477,-138.43 469.23,-133.41 460.12,-129.69 451.16,-126.95"/>
<polygon fill="midnightblue" stroke="midnightblue" points="559.11,-235.97 567.2,-242.81 565.14,-232.42 559.11,-235.97"/>
</g>
<!-- Node58 -->
<g id="node46" class="node">
<title>Node58</title>
<g id="a_node46"><a xlink:href="net_8c.html#a6aa830b46188549b51773f724eb8e752" target="_top" xlink:title="Helper funktion to create and send a message with type (usually ACK or RST).">
<polygon fill="white" stroke="red" points="342,-71.93 342,-90.93 475,-90.93 475,-71.93 342,-71.93"/>
<text text-anchor="middle" x="408.5" y="-78.93" font-family="Helvetica,sans-Serif" font-size="10.00">coap_send_message_type</text>
</a>
</g>
</g>
<!-- Node86&#45;&gt;Node58 -->
<g id="edge54" class="edge">
<title>Node86&#45;&gt;Node58</title>
<path fill="none" stroke="midnightblue" d="M565.75,-233.27C553.36,-200.89 523.86,-135.48 477,-100.43 471.83,-96.57 465.91,-93.49 459.77,-91.04"/>
<polygon fill="midnightblue" stroke="midnightblue" points="562.56,-234.71 569.3,-242.89 569.12,-232.29 562.56,-234.71"/>
</g>
<!-- Node64 -->
<g id="node47" class="node">
<title>Node64</title>
<g id="a_node47"><a xlink:href="coap__session_8c.html#a2f455ec1572982a5ae404beac0cfbd53" target="_top" xlink:title="Notify session transport has just connected and CSM exchange can now start.">
<polygon fill="white" stroke="red" points="345,-33.93 345,-52.93 472,-52.93 472,-33.93 345,-33.93"/>
<text text-anchor="middle" x="408.5" y="-40.93" font-family="Helvetica,sans-Serif" font-size="10.00">coap_session_send_csm</text>
</a>
</g>
</g>
<!-- Node86&#45;&gt;Node64 -->
<g id="edge55" class="edge">
<title>Node86&#45;&gt;Node64</title>
<path fill="none" stroke="midnightblue" d="M568.24,-232.88C558.82,-194.3 532.47,-108.19 477,-62.43 472.3,-58.56 466.87,-55.47 461.16,-53.02"/>
<polygon fill="midnightblue" stroke="midnightblue" points="564.88,-233.88 570.55,-242.83 571.7,-232.29 564.88,-233.88"/>
</g>
<!-- Node60 -->
<g id="node48" class="node">
<title>Node60</title>
<g id="a_node48"><a xlink:href="coap__session_8c.html#ab3f9f60c0a4857c147fef5721025944c" target="_top" xlink:title="Send a ping message for the session.">
<polygon fill="white" stroke="red" points="345.5,-413.93 345.5,-432.93 471.5,-432.93 471.5,-413.93 345.5,-413.93"/>
<text text-anchor="middle" x="408.5" y="-420.93" font-family="Helvetica,sans-Serif" font-size="10.00">coap_session_send_ping</text>
</a>
</g>
</g>
<!-- Node86&#45;&gt;Node60 -->
<g id="edge56" class="edge">
<title>Node86&#45;&gt;Node60</title>
<path fill="none" stroke="midnightblue" d="M565.75,-271.6C553.36,-303.97 523.86,-369.38 477,-404.43 471.83,-408.3 465.91,-411.37 459.77,-413.83"/>
<polygon fill="midnightblue" stroke="midnightblue" points="569.12,-272.57 569.3,-261.98 562.56,-270.15 569.12,-272.57"/>
</g>
<!-- Node89 -->
<g id="node49" class="node">
<title>Node89</title>
<g id="a_node49"><a xlink:href="net_8c.html#a69ff8481c32707b77813c051fc42dedd" target="_top" xlink:title="Creates a new response for given request with the contents of .well&#45;known/core.">
<polygon fill="white" stroke="black" points="341.5,-451.93 341.5,-470.93 475.5,-470.93 475.5,-451.93 341.5,-451.93"/>
<text text-anchor="middle" x="408.5" y="-458.93" font-family="Helvetica,sans-Serif" font-size="10.00">coap_wellknown_response</text>
</a>
</g>
</g>
<!-- Node86&#45;&gt;Node89 -->
<g id="edge57" class="edge">
<title>Node86&#45;&gt;Node89</title>
<path fill="none" stroke="midnightblue" d="M568.24,-271.99C558.82,-310.56 532.47,-396.68 477,-442.43 472.3,-446.3 466.87,-449.39 461.16,-451.85"/>
<polygon fill="midnightblue" stroke="midnightblue" points="571.7,-272.57 570.55,-262.04 564.88,-270.99 571.7,-272.57"/>
</g>
<!-- Node62 -->
<g id="node50" class="node">
<title>Node62</title>
<g id="a_node50"><a xlink:href="net_8c.html#ac4cbcfd073489b57805db665ce3d0681" target="_top" xlink:title=" ">
<polygon fill="white" stroke="red" points="364,-337.93 364,-356.93 453,-356.93 453,-337.93 364,-337.93"/>
<text text-anchor="middle" x="408.5" y="-344.93" font-family="Helvetica,sans-Serif" font-size="10.00">handle_signaling</text>
</a>
</g>
</g>
<!-- Node86&#45;&gt;Node62 -->
<g id="edge60" class="edge">
<title>Node86&#45;&gt;Node62</title>
<path fill="none" stroke="midnightblue" d="M554.13,-268.71C535.68,-284.41 505.92,-307.99 477,-323.43 466.25,-329.17 453.84,-334.04 442.61,-337.85"/>
<polygon fill="midnightblue" stroke="midnightblue" points="556.49,-271.3 561.77,-262.11 551.91,-266 556.49,-271.3"/>
</g>
<!-- Node87&#45;&gt;Node61 -->
<g id="edge49" class="edge">
<title>Node87&#45;&gt;Node61</title>
<path fill="none" stroke="midnightblue" d="M358.35,-397.91C352.11,-399.89 345.85,-402.07 340,-404.43 306.15,-418.06 269.12,-439.5 248.86,-451.83"/>
<polygon fill="midnightblue" stroke="midnightblue" points="359.55,-401.21 368.11,-394.97 357.53,-394.5 359.55,-401.21"/>
</g>
<!-- Node89&#45;&gt;Node61 -->
<g id="edge58" class="edge">
<title>Node89&#45;&gt;Node61</title>
<path fill="none" stroke="midnightblue" d="M331.06,-461.43C311.47,-461.43 291.15,-461.43 274.16,-461.43"/>
<polygon fill="midnightblue" stroke="midnightblue" points="331.22,-464.93 341.22,-461.43 331.22,-457.93 331.22,-464.93"/>
</g>
</g>
</svg>
