<?xml version="1.0" encoding="UTF-8" standalone="no"?>
<!DOCTYPE svg PUBLIC "-//W3C//DTD SVG 1.1//EN"
 "http://www.w3.org/Graphics/SVG/1.1/DTD/svg11.dtd">
<!-- Generated by graphviz version 2.43.0 (0)
 -->
<!-- Title: murmur3.c Pages: 1 -->
<svg width="209pt" height="140pt"
 viewBox="0.00 0.00 208.50 140.00" xmlns="http://www.w3.org/2000/svg" xmlns:xlink="http://www.w3.org/1999/xlink">
<g id="graph0" class="graph" transform="scale(1 1) rotate(0) translate(4 136)">
<title>murmur3.c</title>
<polygon fill="white" stroke="transparent" points="-4,4 -4,-136 204.5,-136 204.5,4 -4,4"/>
<!-- Node1 -->
<g id="node1" class="node">
<title>Node1</title>
<g id="a_node1"><a xlink:title=" ">
<polygon fill="#bfbfbf" stroke="black" points="63.5,-112.5 63.5,-131.5 126.5,-131.5 126.5,-112.5 63.5,-112.5"/>
<text text-anchor="middle" x="95" y="-119.5" font-family="Helvetica,sans-Serif" font-size="10.00">murmur3.c</text>
</a>
</g>
</g>
<!-- Node2 -->
<g id="node2" class="node">
<title>Node2</title>
<g id="a_node2"><a xlink:title=" ">
<polygon fill="white" stroke="#bfbfbf" points="0,-56.5 0,-75.5 52,-75.5 52,-56.5 0,-56.5"/>
<text text-anchor="middle" x="26" y="-63.5" font-family="Helvetica,sans-Serif" font-size="10.00">assert.h</text>
</a>
</g>
</g>
<!-- Node1&#45;&gt;Node2 -->
<g id="edge1" class="edge">
<title>Node1&#45;&gt;Node2</title>
<path fill="none" stroke="midnightblue" d="M83.91,-112.32C73.51,-104.18 57.74,-91.84 45.28,-82.09"/>
<polygon fill="midnightblue" stroke="midnightblue" points="47.32,-79.24 37.29,-75.83 43.01,-84.75 47.32,-79.24"/>
</g>
<!-- Node3 -->
<g id="node3" class="node">
<title>Node3</title>
<g id="a_node3"><a xlink:title=" ">
<polygon fill="white" stroke="#bfbfbf" points="70.5,-56.5 70.5,-75.5 119.5,-75.5 119.5,-56.5 70.5,-56.5"/>
<text text-anchor="middle" x="95" y="-63.5" font-family="Helvetica,sans-Serif" font-size="10.00">string.h</text>
</a>
</g>
</g>
<!-- Node1&#45;&gt;Node3 -->
<g id="edge2" class="edge">
<title>Node1&#45;&gt;Node3</title>
<path fill="none" stroke="midnightblue" d="M95,-112.08C95,-105.01 95,-94.86 95,-85.99"/>
<polygon fill="midnightblue" stroke="midnightblue" points="98.5,-85.75 95,-75.75 91.5,-85.75 98.5,-85.75"/>
</g>
<!-- Node4 -->
<g id="node4" class="node">
<title>Node4</title>
<g id="a_node4"><a xlink:href="murmur3_8h.html" target="_top" xlink:title=" ">
<polygon fill="white" stroke="black" points="137.5,-56.5 137.5,-75.5 200.5,-75.5 200.5,-56.5 137.5,-56.5"/>
<text text-anchor="middle" x="169" y="-63.5" font-family="Helvetica,sans-Serif" font-size="10.00">murmur3.h</text>
</a>
</g>
</g>
<!-- Node1&#45;&gt;Node4 -->
<g id="edge3" class="edge">
<title>Node1&#45;&gt;Node4</title>
<path fill="none" stroke="midnightblue" d="M106.89,-112.32C118.15,-104.11 135.29,-91.6 148.71,-81.81"/>
<polygon fill="midnightblue" stroke="midnightblue" points="150.88,-84.56 156.89,-75.83 146.75,-78.9 150.88,-84.56"/>
</g>
<!-- Node5 -->
<g id="node5" class="node">
<title>Node5</title>
<g id="a_node5"><a xlink:title=" ">
<polygon fill="white" stroke="#bfbfbf" points="144.5,-0.5 144.5,-19.5 193.5,-19.5 193.5,-0.5 144.5,-0.5"/>
<text text-anchor="middle" x="169" y="-7.5" font-family="Helvetica,sans-Serif" font-size="10.00">stdint.h</text>
</a>
</g>
</g>
<!-- Node4&#45;&gt;Node5 -->
<g id="edge4" class="edge">
<title>Node4&#45;&gt;Node5</title>
<path fill="none" stroke="midnightblue" d="M169,-56.08C169,-49.01 169,-38.86 169,-29.99"/>
<polygon fill="midnightblue" stroke="midnightblue" points="172.5,-29.75 169,-19.75 165.5,-29.75 172.5,-29.75"/>
</g>
</g>
</svg>
