<?xml version="1.0" encoding="UTF-8" standalone="no"?>
<!DOCTYPE svg PUBLIC "-//W3C//DTD SVG 1.1//EN"
 "http://www.w3.org/Graphics/SVG/1.1/DTD/svg11.dtd">
<!-- Generated by graphviz version 2.43.0 (0)
 -->
<!-- Title: coap_new_node Pages: 1 -->
<svg width="360pt" height="28pt"
 viewBox="0.00 0.00 360.00 28.00" xmlns="http://www.w3.org/2000/svg" xmlns:xlink="http://www.w3.org/1999/xlink">
<g id="graph0" class="graph" transform="scale(1 1) rotate(0) translate(4 24)">
<title>coap_new_node</title>
<polygon fill="white" stroke="transparent" points="-4,4 -4,-24 356,-24 356,4 -4,4"/>
<!-- Node1 -->
<g id="node1" class="node">
<title>Node1</title>
<g id="a_node1"><a xlink:title="Creates a new node suitable for adding to the CoAP sendqueue.">
<polygon fill="#bfbfbf" stroke="black" points="0,-0.5 0,-19.5 87,-19.5 87,-0.5 0,-0.5"/>
<text text-anchor="middle" x="43.5" y="-7.5" font-family="Helvetica,sans-Serif" font-size="10.00">coap_new_node</text>
</a>
</g>
</g>
<!-- Node2 -->
<g id="node2" class="node">
<title>Node2</title>
<g id="a_node2"><a xlink:href="net_8c.html#aeff229f443c6582fea71504f33364eb4" target="_top" xlink:title=" ">
<polygon fill="white" stroke="black" points="123,-0.5 123,-19.5 221,-19.5 221,-0.5 123,-0.5"/>
<text text-anchor="middle" x="172" y="-7.5" font-family="Helvetica,sans-Serif" font-size="10.00">coap_malloc_node</text>
</a>
</g>
</g>
<!-- Node1&#45;&gt;Node2 -->
<g id="edge1" class="edge">
<title>Node1&#45;&gt;Node2</title>
<path fill="none" stroke="midnightblue" d="M87.33,-10C95.57,-10 104.33,-10 112.96,-10"/>
<polygon fill="midnightblue" stroke="midnightblue" points="113,-13.5 123,-10 113,-6.5 113,-13.5"/>
</g>
<!-- Node3 -->
<g id="node3" class="node">
<title>Node3</title>
<g id="a_node3"><a xlink:href="mem_8h.html#a0204710ce56cbaa4f062b7f2622857f5" target="_top" xlink:title="Allocates a chunk of size bytes and returns a pointer to the newly allocated memory.">
<polygon fill="white" stroke="black" points="257,-0.5 257,-19.5 352,-19.5 352,-0.5 257,-0.5"/>
<text text-anchor="middle" x="304.5" y="-7.5" font-family="Helvetica,sans-Serif" font-size="10.00">coap_malloc_type</text>
</a>
</g>
</g>
<!-- Node2&#45;&gt;Node3 -->
<g id="edge2" class="edge">
<title>Node2&#45;&gt;Node3</title>
<path fill="none" stroke="midnightblue" d="M221.22,-10C229.48,-10 238.13,-10 246.59,-10"/>
<polygon fill="midnightblue" stroke="midnightblue" points="246.78,-13.5 256.78,-10 246.78,-6.5 246.78,-13.5"/>
</g>
</g>
</svg>
