<?xml version="1.0" encoding="UTF-8" standalone="no"?>
<!DOCTYPE svg PUBLIC "-//W3C//DTD SVG 1.1//EN"
 "http://www.w3.org/Graphics/SVG/1.1/DTD/svg11.dtd">
<!-- Generated by graphviz version 2.43.0 (0)
 -->
<!-- Title: coap_option_check_critical Pages: 1 -->
<svg width="802pt" height="161pt"
 viewBox="0.00 0.00 802.00 161.00" xmlns="http://www.w3.org/2000/svg" xmlns:xlink="http://www.w3.org/1999/xlink">
<g id="graph0" class="graph" transform="scale(1 1) rotate(0) translate(4 157)">
<title>coap_option_check_critical</title>
<polygon fill="white" stroke="transparent" points="-4,4 -4,-157 798,-157 798,4 -4,4"/>
<!-- Node1 -->
<g id="node1" class="node">
<title>Node1</title>
<g id="a_node1"><a xlink:title="Verifies that pdu contains no unknown critical options.">
<polygon fill="#bfbfbf" stroke="black" points="0,-76.5 0,-95.5 134,-95.5 134,-76.5 0,-76.5"/>
<text text-anchor="middle" x="67" y="-83.5" font-family="Helvetica,sans-Serif" font-size="10.00">coap_option_check_critical</text>
</a>
</g>
</g>
<!-- Node2 -->
<g id="node2" class="node">
<title>Node2</title>
<g id="a_node2"><a xlink:href="group__opt__filter.html#ga9ee20c34f52bc347e7e075386afb6f5f" target="_top" xlink:title="Checks if type is contained in filter.">
<polygon fill="white" stroke="black" points="328,-95.5 328,-114.5 440,-114.5 440,-95.5 328,-95.5"/>
<text text-anchor="middle" x="384" y="-102.5" font-family="Helvetica,sans-Serif" font-size="10.00">coap_option_filter_get</text>
</a>
</g>
</g>
<!-- Node1&#45;&gt;Node2 -->
<g id="edge1" class="edge">
<title>Node1&#45;&gt;Node2</title>
<path fill="none" stroke="midnightblue" d="M134.03,-89.98C188.01,-93.24 263.93,-97.82 317.71,-101.06"/>
<polygon fill="midnightblue" stroke="midnightblue" points="317.63,-104.56 327.82,-101.67 318.05,-97.58 317.63,-104.56"/>
</g>
<!-- Node7 -->
<g id="node7" class="node">
<title>Node7</title>
<g id="a_node7"><a xlink:href="group__opt__filter.html#ga01f5d67092a83e8f30154f1ff8860d0e" target="_top" xlink:title="Sets the corresponding entry for type in filter.">
<polygon fill="white" stroke="black" points="175,-133.5 175,-152.5 287,-152.5 287,-133.5 175,-133.5"/>
<text text-anchor="middle" x="231" y="-140.5" font-family="Helvetica,sans-Serif" font-size="10.00">coap_option_filter_set</text>
</a>
</g>
</g>
<!-- Node1&#45;&gt;Node7 -->
<g id="edge6" class="edge">
<title>Node1&#45;&gt;Node7</title>
<path fill="none" stroke="midnightblue" d="M95.12,-95.54C121.98,-104.99 163.32,-119.54 193.16,-130.04"/>
<polygon fill="midnightblue" stroke="midnightblue" points="192.2,-133.41 202.8,-133.43 194.52,-126.81 192.2,-133.41"/>
</g>
<!-- Node8 -->
<g id="node8" class="node">
<title>Node8</title>
<g id="a_node8"><a xlink:href="group__opt__filter.html#gad799c84f95789d9dc6724da2b56d8ff5" target="_top" xlink:title="Initializes the given option iterator oi to point to the beginning of the pdu&#39;s option list.">
<polygon fill="white" stroke="black" points="170,-57.5 170,-76.5 292,-76.5 292,-57.5 170,-57.5"/>
<text text-anchor="middle" x="231" y="-64.5" font-family="Helvetica,sans-Serif" font-size="10.00">coap_option_iterator_init</text>
</a>
</g>
</g>
<!-- Node1&#45;&gt;Node8 -->
<g id="edge8" class="edge">
<title>Node1&#45;&gt;Node8</title>
<path fill="none" stroke="midnightblue" d="M134.36,-78.22C142.75,-77.23 151.35,-76.22 159.79,-75.23"/>
<polygon fill="midnightblue" stroke="midnightblue" points="160.46,-78.68 169.99,-74.04 159.65,-71.73 160.46,-78.68"/>
</g>
<!-- Node9 -->
<g id="node9" class="node">
<title>Node9</title>
<g id="a_node9"><a xlink:href="group__opt__filter.html#ga182fdeffe0b37e1ab0dc6ba8494abe4a" target="_top" xlink:title="Updates the iterator oi to point to the next option.">
<polygon fill="white" stroke="black" points="184.5,-19.5 184.5,-38.5 277.5,-38.5 277.5,-19.5 184.5,-19.5"/>
<text text-anchor="middle" x="231" y="-26.5" font-family="Helvetica,sans-Serif" font-size="10.00">coap_option_next</text>
</a>
</g>
</g>
<!-- Node1&#45;&gt;Node9 -->
<g id="edge9" class="edge">
<title>Node1&#45;&gt;Node9</title>
<path fill="none" stroke="midnightblue" d="M92.61,-76.44C113.19,-68.54 143.38,-57.17 170,-48 176.1,-45.9 182.58,-43.76 188.94,-41.7"/>
<polygon fill="midnightblue" stroke="midnightblue" points="190.3,-44.94 198.76,-38.57 188.17,-38.27 190.3,-44.94"/>
</g>
<!-- Node3 -->
<g id="node3" class="node">
<title>Node3</title>
<g id="a_node3"><a xlink:href="option_8c.html#af4ada5c5312a5ae5d4b9694a72633e4e" target="_top" xlink:title="Applies op on filter with respect to type.">
<polygon fill="white" stroke="black" points="476,-114.5 476,-133.5 585,-133.5 585,-114.5 476,-114.5"/>
<text text-anchor="middle" x="530.5" y="-121.5" font-family="Helvetica,sans-Serif" font-size="10.00">coap_option_filter_op</text>
</a>
</g>
</g>
<!-- Node2&#45;&gt;Node3 -->
<g id="edge2" class="edge">
<title>Node2&#45;&gt;Node3</title>
<path fill="none" stroke="midnightblue" d="M440.04,-112.24C448.41,-113.34 457.11,-114.48 465.65,-115.6"/>
<polygon fill="midnightblue" stroke="midnightblue" points="465.2,-119.07 475.57,-116.91 466.11,-112.13 465.2,-119.07"/>
</g>
<!-- Node4 -->
<g id="node4" class="node">
<title>Node4</title>
<g id="a_node4"><a xlink:href="encode_8c.html#a671b4261b2d24de8696258a8efb0f359" target="_top" xlink:title=" ">
<polygon fill="white" stroke="black" points="634,-133.5 634,-152.5 687,-152.5 687,-133.5 634,-133.5"/>
<text text-anchor="middle" x="660.5" y="-140.5" font-family="Helvetica,sans-Serif" font-size="10.00">coap_fls</text>
</a>
</g>
</g>
<!-- Node3&#45;&gt;Node4 -->
<g id="edge3" class="edge">
<title>Node3&#45;&gt;Node4</title>
<path fill="none" stroke="midnightblue" d="M585.04,-131.95C598.08,-133.88 611.71,-135.91 623.69,-137.68"/>
<polygon fill="midnightblue" stroke="midnightblue" points="623.33,-141.17 633.74,-139.18 624.36,-134.25 623.33,-141.17"/>
</g>
<!-- Node6 -->
<g id="node6" class="node">
<title>Node6</title>
<g id="a_node6"><a xlink:href="option_8c.html#a2be7abc95dd3dfc1f1f3f4268ce41101" target="_top" xlink:title="Returns true iff type denotes an option type larger than 255.">
<polygon fill="white" stroke="black" points="621,-95.5 621,-114.5 700,-114.5 700,-95.5 621,-95.5"/>
<text text-anchor="middle" x="660.5" y="-102.5" font-family="Helvetica,sans-Serif" font-size="10.00">is_long_option</text>
</a>
</g>
</g>
<!-- Node3&#45;&gt;Node6 -->
<g id="edge5" class="edge">
<title>Node3&#45;&gt;Node6</title>
<path fill="none" stroke="midnightblue" d="M585.04,-116.05C593.61,-114.78 602.44,-113.47 610.89,-112.22"/>
<polygon fill="midnightblue" stroke="midnightblue" points="611.59,-115.65 620.97,-110.72 610.56,-108.73 611.59,-115.65"/>
</g>
<!-- Node5 -->
<g id="node5" class="node">
<title>Node5</title>
<g id="a_node5"><a xlink:href="encode_8c.html#a5732d87decbffe771159ea02a5e25488" target="_top" xlink:title=" ">
<polygon fill="white" stroke="black" points="736,-133.5 736,-152.5 794,-152.5 794,-133.5 736,-133.5"/>
<text text-anchor="middle" x="765" y="-140.5" font-family="Helvetica,sans-Serif" font-size="10.00">coap_flsll</text>
</a>
</g>
</g>
<!-- Node4&#45;&gt;Node5 -->
<g id="edge4" class="edge">
<title>Node4&#45;&gt;Node5</title>
<path fill="none" stroke="midnightblue" d="M687.1,-143C698.8,-143 712.9,-143 725.81,-143"/>
<polygon fill="midnightblue" stroke="midnightblue" points="725.84,-146.5 735.84,-143 725.84,-139.5 725.84,-146.5"/>
</g>
<!-- Node7&#45;&gt;Node3 -->
<g id="edge7" class="edge">
<title>Node7&#45;&gt;Node3</title>
<path fill="none" stroke="midnightblue" d="M287.26,-139.47C337.78,-136.24 412.48,-131.47 465.56,-128.08"/>
<polygon fill="midnightblue" stroke="midnightblue" points="465.78,-131.58 475.54,-127.45 465.34,-124.59 465.78,-131.58"/>
</g>
<!-- Node9&#45;&gt;Node2 -->
<g id="edge11" class="edge">
<title>Node9&#45;&gt;Node2</title>
<path fill="none" stroke="midnightblue" d="M267.46,-38.6C275.67,-41.26 284.26,-44.42 292,-48 317.07,-59.59 343.61,-76.86 361.51,-89.35"/>
<polygon fill="midnightblue" stroke="midnightblue" points="359.85,-92.47 370.03,-95.39 363.9,-86.75 359.85,-92.47"/>
</g>
<!-- Node10 -->
<g id="node10" class="node">
<title>Node10</title>
<g id="a_node10"><a xlink:href="option_8c.html#a11de99f50cc9f5a34fd9e4d121ecfd13" target="_top" xlink:title="Parses the option pointed to by opt into result.">
<polygon fill="white" stroke="black" points="341,-38.5 341,-57.5 427,-57.5 427,-38.5 341,-38.5"/>
<text text-anchor="middle" x="384" y="-45.5" font-family="Helvetica,sans-Serif" font-size="10.00">coap_opt_parse</text>
</a>
</g>
</g>
<!-- Node9&#45;&gt;Node10 -->
<g id="edge10" class="edge">
<title>Node9&#45;&gt;Node10</title>
<path fill="none" stroke="midnightblue" d="M277.71,-34.75C294.48,-36.86 313.57,-39.26 330.85,-41.44"/>
<polygon fill="midnightblue" stroke="midnightblue" points="330.43,-44.91 340.79,-42.69 331.31,-37.97 330.43,-44.91"/>
</g>
<!-- Node11 -->
<g id="node11" class="node">
<title>Node11</title>
<g id="a_node11"><a xlink:href="option_8c.html#a70fa9db0450134640b80cbf7c3720688" target="_top" xlink:title=" ">
<polygon fill="white" stroke="black" points="349.5,-0.5 349.5,-19.5 418.5,-19.5 418.5,-0.5 349.5,-0.5"/>
<text text-anchor="middle" x="384" y="-7.5" font-family="Helvetica,sans-Serif" font-size="10.00">opt_finished</text>
</a>
</g>
</g>
<!-- Node9&#45;&gt;Node11 -->
<g id="edge12" class="edge">
<title>Node9&#45;&gt;Node11</title>
<path fill="none" stroke="midnightblue" d="M277.71,-23.25C297.29,-20.79 320.04,-17.92 339.38,-15.49"/>
<polygon fill="midnightblue" stroke="midnightblue" points="339.95,-18.95 349.43,-14.22 339.07,-12 339.95,-18.95"/>
</g>
</g>
</svg>
