<?xml version="1.0" encoding="UTF-8" standalone="no"?>
<!DOCTYPE svg PUBLIC "-//W3C//DTD SVG 1.1//EN"
 "http://www.w3.org/Graphics/SVG/1.1/DTD/svg11.dtd">
<!-- Generated by graphviz version 2.43.0 (0)
 -->
<!-- Title: option.h Pages: 1 -->
<svg width="155pt" height="252pt"
 viewBox="0.00 0.00 155.00 252.00" xmlns="http://www.w3.org/2000/svg" xmlns:xlink="http://www.w3.org/1999/xlink">
<g id="graph0" class="graph" transform="scale(1 1) rotate(0) translate(4 248)">
<title>option.h</title>
<polygon fill="white" stroke="transparent" points="-4,4 -4,-248 151,-248 151,4 -4,4"/>
<!-- Node1 -->
<g id="node1" class="node">
<title>Node1</title>
<g id="a_node1"><a xlink:title="Helpers for handling options in CoAP PDUs.">
<polygon fill="#bfbfbf" stroke="black" points="19,-224.5 19,-243.5 70,-243.5 70,-224.5 19,-224.5"/>
<text text-anchor="middle" x="44.5" y="-231.5" font-family="Helvetica,sans-Serif" font-size="10.00">option.h</text>
</a>
</g>
</g>
<!-- Node2 -->
<g id="node2" class="node">
<title>Node2</title>
<g id="a_node2"><a xlink:href="bits_8h.html" target="_top" xlink:title="Bit vector manipulation.">
<polygon fill="white" stroke="black" points="0,-112.5 0,-131.5 41,-131.5 41,-112.5 0,-112.5"/>
<text text-anchor="middle" x="20.5" y="-119.5" font-family="Helvetica,sans-Serif" font-size="10.00">bits.h</text>
</a>
</g>
</g>
<!-- Node1&#45;&gt;Node2 -->
<g id="edge1" class="edge">
<title>Node1&#45;&gt;Node2</title>
<path fill="none" stroke="midnightblue" d="M42.62,-224.37C38.74,-206.62 29.81,-165.67 24.56,-141.6"/>
<polygon fill="midnightblue" stroke="midnightblue" points="27.93,-140.62 22.37,-131.59 21.09,-142.11 27.93,-140.62"/>
</g>
<!-- Node4 -->
<g id="node4" class="node">
<title>Node4</title>
<g id="a_node4"><a xlink:href="pdu_8h.html" target="_top" xlink:title="Pre&#45;defined constants that reflect defaults for CoAP.">
<polygon fill="white" stroke="black" points="49,-168.5 49,-187.5 90,-187.5 90,-168.5 49,-168.5"/>
<text text-anchor="middle" x="69.5" y="-175.5" font-family="Helvetica,sans-Serif" font-size="10.00">pdu.h</text>
</a>
</g>
</g>
<!-- Node1&#45;&gt;Node4 -->
<g id="edge3" class="edge">
<title>Node1&#45;&gt;Node4</title>
<path fill="none" stroke="midnightblue" d="M48.63,-224.08C52.01,-216.77 56.92,-206.18 61.12,-197.1"/>
<polygon fill="midnightblue" stroke="midnightblue" points="64.42,-198.3 65.45,-187.75 58.07,-195.36 64.42,-198.3"/>
</g>
<!-- Node3 -->
<g id="node3" class="node">
<title>Node3</title>
<g id="a_node3"><a xlink:title=" ">
<polygon fill="white" stroke="#bfbfbf" points="38,-56.5 38,-75.5 87,-75.5 87,-56.5 38,-56.5"/>
<text text-anchor="middle" x="62.5" y="-63.5" font-family="Helvetica,sans-Serif" font-size="10.00">stdint.h</text>
</a>
</g>
</g>
<!-- Node2&#45;&gt;Node3 -->
<g id="edge2" class="edge">
<title>Node2&#45;&gt;Node3</title>
<path fill="none" stroke="midnightblue" d="M27.44,-112.08C33.43,-104.38 42.25,-93.03 49.55,-83.65"/>
<polygon fill="midnightblue" stroke="midnightblue" points="52.32,-85.79 55.69,-75.75 46.79,-81.5 52.32,-85.79"/>
</g>
<!-- Node4&#45;&gt;Node3 -->
<g id="edge8" class="edge">
<title>Node4&#45;&gt;Node3</title>
<path fill="none" stroke="midnightblue" d="M68.95,-168.37C67.82,-150.62 65.22,-109.67 63.68,-85.6"/>
<polygon fill="midnightblue" stroke="midnightblue" points="67.17,-85.35 63.05,-75.59 60.19,-85.79 67.17,-85.35"/>
</g>
<!-- Node5 -->
<g id="node5" class="node">
<title>Node5</title>
<g id="a_node5"><a xlink:href="uri_8h.html" target="_top" xlink:title=" ">
<polygon fill="white" stroke="black" points="98,-112.5 98,-131.5 133,-131.5 133,-112.5 98,-112.5"/>
<text text-anchor="middle" x="115.5" y="-119.5" font-family="Helvetica,sans-Serif" font-size="10.00">uri.h</text>
</a>
</g>
</g>
<!-- Node4&#45;&gt;Node5 -->
<g id="edge4" class="edge">
<title>Node4&#45;&gt;Node5</title>
<path fill="none" stroke="midnightblue" d="M77.1,-168.08C83.73,-160.3 93.52,-148.8 101.56,-139.37"/>
<polygon fill="midnightblue" stroke="midnightblue" points="104.23,-141.63 108.05,-131.75 98.9,-137.09 104.23,-141.63"/>
</g>
<!-- Node5&#45;&gt;Node3 -->
<g id="edge5" class="edge">
<title>Node5&#45;&gt;Node3</title>
<path fill="none" stroke="midnightblue" d="M106.75,-112.08C99.03,-104.22 87.6,-92.57 78.28,-83.08"/>
<polygon fill="midnightblue" stroke="midnightblue" points="80.59,-80.44 71.09,-75.75 75.6,-85.34 80.59,-80.44"/>
</g>
<!-- Node6 -->
<g id="node6" class="node">
<title>Node6</title>
<g id="a_node6"><a xlink:href="str_8h.html" target="_top" xlink:title=" ">
<polygon fill="white" stroke="black" points="105,-56.5 105,-75.5 140,-75.5 140,-56.5 105,-56.5"/>
<text text-anchor="middle" x="122.5" y="-63.5" font-family="Helvetica,sans-Serif" font-size="10.00">str.h</text>
</a>
</g>
</g>
<!-- Node5&#45;&gt;Node6 -->
<g id="edge6" class="edge">
<title>Node5&#45;&gt;Node6</title>
<path fill="none" stroke="midnightblue" d="M116.66,-112.08C117.58,-104.93 118.92,-94.64 120.08,-85.69"/>
<polygon fill="midnightblue" stroke="midnightblue" points="123.55,-86.12 121.37,-75.75 116.61,-85.22 123.55,-86.12"/>
</g>
<!-- Node7 -->
<g id="node7" class="node">
<title>Node7</title>
<g id="a_node7"><a xlink:title=" ">
<polygon fill="white" stroke="#bfbfbf" points="98,-0.5 98,-19.5 147,-19.5 147,-0.5 98,-0.5"/>
<text text-anchor="middle" x="122.5" y="-7.5" font-family="Helvetica,sans-Serif" font-size="10.00">string.h</text>
</a>
</g>
</g>
<!-- Node6&#45;&gt;Node7 -->
<g id="edge7" class="edge">
<title>Node6&#45;&gt;Node7</title>
<path fill="none" stroke="midnightblue" d="M122.5,-56.08C122.5,-49.01 122.5,-38.86 122.5,-29.99"/>
<polygon fill="midnightblue" stroke="midnightblue" points="126,-29.75 122.5,-19.75 119,-29.75 126,-29.75"/>
</g>
</g>
</svg>
