<?xml version="1.0" encoding="UTF-8" standalone="no"?>
<!DOCTYPE svg PUBLIC "-//W3C//DTD SVG 1.1//EN"
 "http://www.w3.org/Graphics/SVG/1.1/DTD/svg11.dtd">
<!-- Generated by graphviz version 2.43.0 (0)
 -->
<!-- Title: coap_add_data_after Pages: 1 -->
<!--zoomable 496 -->
<svg id="main" version="1.1" xmlns="http://www.w3.org/2000/svg" xmlns:xlink="http://www.w3.org/1999/xlink" xml:space="preserve" onload="init(evt)">
<style type="text/css"><![CDATA[
.edge:hover path { stroke: red; }
.edge:hover polygon { stroke: red; fill: red; }
]]></style>
<script type="text/javascript"><![CDATA[
var edges = document.getElementsByTagName('g');
if (edges && edges.length) {
  for (var i=0;i<edges.length;i++) {
    if (edges[i].id.substr(0,4)=='edge') {
      edges[i].setAttribute('class','edge');
    }
  }
}
]]></script>
        <defs>
                <circle id="rim" cx="0" cy="0" r="7"/>
                <circle id="rim2" cx="0" cy="0" r="3.5"/>
                <g id="zoomPlus">
                        <use xlink:href="#rim" fill="#404040">
                                <set attributeName="fill" to="#808080" begin="zoomplus.mouseover" end="zoomplus.mouseout"/>
                        </use>
                        <path d="M-4,0h8M0,-4v8" fill="none" stroke="white" stroke-width="1.5" pointer-events="none"/>
                </g>
                <g id="zoomMin">
                        <use xlink:href="#rim" fill="#404040">
                                <set attributeName="fill" to="#808080" begin="zoomminus.mouseover" end="zoomminus.mouseout"/>
                        </use>
                        <path d="M-4,0h8" fill="none" stroke="white" stroke-width="1.5" pointer-events="none"/>
                </g>
                <g id="dirArrow">
                        <path fill="none" stroke="white" stroke-width="1.5" d="M0,-3.0v7 M-2.5,-0.5L0,-3.0L2.5,-0.5"/>
                </g>
               <g id="resetDef">
                       <use xlink:href="#rim2" fill="#404040">
                               <set attributeName="fill" to="#808080" begin="reset.mouseover" end="reset.mouseout"/>
                       </use>
               </g>
        </defs>

<script type="text/javascript">
var viewWidth = 1837;
var viewHeight = 496;
var sectionId = 'dynsection-5';
</script>
<script xlink:href="svgpan.js"/>
<svg id="graph" class="graph">
<g id="viewport">
<title>coap_add_data_after</title>
<polygon fill="white" stroke="transparent" points="-4,4 -4,-491.5 1833,-491.5 1833,4 -4,4"/>
<!-- Node1 -->
<g id="node1" class="node">
<title>Node1</title>
<g id="a_node1"><a xlink:title="Adds given data to the pdu that is passed as first parameter but does not copy it.">
<polygon fill="#bfbfbf" stroke="black" points="1722,-101 1722,-120 1829,-120 1829,-101 1722,-101"/>
<text text-anchor="middle" x="1775.5" y="-108" font-family="Helvetica,sans-Serif" font-size="10.00">coap_add_data_after</text>
</a>
</g>
</g>
<!-- Node2 -->
<g id="node2" class="node">
<title>Node2</title>
<g id="a_node2"><a xlink:href="pdu_8c.html#af71a3f810ab9f0f657c25c425826af40" target="_top" xlink:title="Adds given data to the pdu that is passed as first parameter.">
<polygon fill="white" stroke="black" points="1577.5,-82 1577.5,-101 1660.5,-101 1660.5,-82 1577.5,-82"/>
<text text-anchor="middle" x="1619" y="-89" font-family="Helvetica,sans-Serif" font-size="10.00">coap_add_data</text>
</a>
</g>
</g>
<!-- Node1&#45;&gt;Node2 -->
<g id="edge1" class="edge">
<title>Node1&#45;&gt;Node2</title>
<path fill="none" stroke="midnightblue" d="M1711.78,-102.79C1694.59,-100.67 1676.41,-98.44 1660.8,-96.52"/>
<polygon fill="midnightblue" stroke="midnightblue" points="1711.41,-106.27 1721.76,-104.01 1712.26,-99.32 1711.41,-106.27"/>
</g>
<!-- Node38 -->
<g id="node38" class="node">
<title>Node38</title>
<g id="a_node38"><a xlink:href="net_8c.html#a69ff8481c32707b77813c051fc42dedd" target="_top" xlink:title="Creates a new response for given request with the contents of .well&#45;known/core.">
<polygon fill="white" stroke="black" points="1552,-120 1552,-139 1686,-139 1686,-120 1552,-120"/>
<text text-anchor="middle" x="1619" y="-127" font-family="Helvetica,sans-Serif" font-size="10.00">coap_wellknown_response</text>
</a>
</g>
</g>
<!-- Node1&#45;&gt;Node38 -->
<g id="edge60" class="edge">
<title>Node1&#45;&gt;Node38</title>
<path fill="none" stroke="midnightblue" d="M1711.66,-118.23C1703.26,-119.26 1694.62,-120.32 1686.16,-121.36"/>
<polygon fill="midnightblue" stroke="midnightblue" points="1712.26,-121.68 1721.76,-116.99 1711.41,-114.73 1712.26,-121.68"/>
</g>
<!-- Node3 -->
<g id="node3" class="node">
<title>Node3</title>
<g id="a_node3"><a xlink:href="group__block.html#ga73094dc713e61b72cec8e37ffaf72a39" target="_top" xlink:title="Adds the block_num block of size 1 &lt;&lt; (block_szx + 4) from source data to pdu.">
<polygon fill="white" stroke="black" points="1407,-6 1407,-25 1494,-25 1494,-6 1407,-6"/>
<text text-anchor="middle" x="1450.5" y="-13" font-family="Helvetica,sans-Serif" font-size="10.00">coap_add_block</text>
</a>
</g>
</g>
<!-- Node2&#45;&gt;Node3 -->
<g id="edge2" class="edge">
<title>Node2&#45;&gt;Node3</title>
<path fill="none" stroke="midnightblue" d="M1591.63,-77C1571.27,-66.06 1542.24,-51.02 1516,-39.5 1504.19,-34.31 1490.86,-29.23 1479.4,-25.09"/>
<polygon fill="midnightblue" stroke="midnightblue" points="1590.15,-80.17 1600.61,-81.86 1593.48,-74.02 1590.15,-80.17"/>
</g>
<!-- Node4 -->
<g id="node4" class="node">
<title>Node4</title>
<g id="a_node4"><a xlink:href="group__block.html#ga38c1e9829062e3e2ce621641f1ae59c5" target="_top" xlink:title="Adds the appropriate part of data to the response pdu.">
<polygon fill="white" stroke="black" points="1227,-0.5 1227,-30.5 1349,-30.5 1349,-0.5 1227,-0.5"/>
<text text-anchor="start" x="1235" y="-18.5" font-family="Helvetica,sans-Serif" font-size="10.00">coap_add_data_blocked</text>
<text text-anchor="middle" x="1288" y="-7.5" font-family="Helvetica,sans-Serif" font-size="10.00">_response</text>
</a>
</g>
</g>
<!-- Node2&#45;&gt;Node4 -->
<g id="edge4" class="edge">
<title>Node2&#45;&gt;Node4</title>
<path fill="none" stroke="midnightblue" d="M1567.52,-79.84C1508.74,-66.26 1411.71,-43.85 1349.09,-29.38"/>
<polygon fill="midnightblue" stroke="midnightblue" points="1566.8,-83.26 1577.33,-82.1 1568.37,-76.44 1566.8,-83.26"/>
</g>
<!-- Node5 -->
<g id="node5" class="node">
<title>Node5</title>
<g id="a_node5"><a xlink:href="net_8c.html#ab7953637ad760f76ffb8060ddf47fe6a" target="_top" xlink:title="Creates a new ACK PDU with specified error code.">
<polygon fill="white" stroke="black" points="1385,-82 1385,-101 1516,-101 1516,-82 1385,-82"/>
<text text-anchor="middle" x="1450.5" y="-89" font-family="Helvetica,sans-Serif" font-size="10.00">coap_new_error_response</text>
</a>
</g>
</g>
<!-- Node2&#45;&gt;Node5 -->
<g id="edge5" class="edge">
<title>Node2&#45;&gt;Node5</title>
<path fill="none" stroke="midnightblue" d="M1567.02,-91.5C1550.96,-91.5 1533.01,-91.5 1516.14,-91.5"/>
<polygon fill="midnightblue" stroke="midnightblue" points="1567.27,-95 1577.27,-91.5 1567.27,-88 1567.27,-95"/>
</g>
<!-- Node19 -->
<g id="node19" class="node">
<title>Node19</title>
<g id="a_node19"><a xlink:href="net_8c.html#ab0b0b5db03427c4313c01ec2b12cf8ed" target="_top" xlink:title="Sends a CoAP message to given peer.">
<polygon fill="white" stroke="black" points="1418.5,-202 1418.5,-221 1482.5,-221 1482.5,-202 1418.5,-202"/>
<text text-anchor="middle" x="1450.5" y="-209" font-family="Helvetica,sans-Serif" font-size="10.00">coap_send</text>
</a>
</g>
</g>
<!-- Node2&#45;&gt;Node19 -->
<g id="edge26" class="edge">
<title>Node2&#45;&gt;Node19</title>
<path fill="none" stroke="midnightblue" d="M1567.46,-103.13C1562.07,-105.21 1556.81,-107.65 1552,-110.5 1510.06,-135.31 1473.15,-181.74 1458.37,-201.83"/>
<polygon fill="midnightblue" stroke="midnightblue" points="1568.92,-106.32 1577.22,-99.74 1566.62,-99.71 1568.92,-106.32"/>
</g>
<!-- Node3&#45;&gt;Node4 -->
<g id="edge3" class="edge">
<title>Node3&#45;&gt;Node4</title>
<path fill="none" stroke="midnightblue" d="M1396.63,-15.5C1381.39,-15.5 1364.65,-15.5 1349.01,-15.5"/>
<polygon fill="midnightblue" stroke="midnightblue" points="1396.91,-19 1406.91,-15.5 1396.91,-12 1396.91,-19"/>
</g>
<!-- Node6 -->
<g id="node6" class="node">
<title>Node6</title>
<g id="a_node6"><a xlink:href="net_8c.html#a7bb944fc52f772655356d95724317401" target="_top" xlink:title="Dispatches the PDUs from the receive queue in given context.">
<polygon fill="white" stroke="black" points="924.5,-183 924.5,-202 1004.5,-202 1004.5,-183 924.5,-183"/>
<text text-anchor="middle" x="964.5" y="-190" font-family="Helvetica,sans-Serif" font-size="10.00">coap_dispatch</text>
</a>
</g>
</g>
<!-- Node5&#45;&gt;Node6 -->
<g id="edge6" class="edge">
<title>Node5&#45;&gt;Node6</title>
<path fill="none" stroke="midnightblue" d="M1375.53,-80.84C1366.61,-79.87 1357.61,-79.05 1349,-78.5 1218.66,-70.1 1175.43,-62.33 1058,-119.5 1023.79,-136.16 990.46,-167.14 974.79,-182.85"/>
<polygon fill="midnightblue" stroke="midnightblue" points="1375.22,-84.32 1385.55,-81.98 1376.01,-77.37 1375.22,-84.32"/>
</g>
<!-- Node17 -->
<g id="node17" class="node">
<title>Node17</title>
<g id="a_node17"><a xlink:href="net_8c.html#ab31cd76353f751ec4dc5c033152df575" target="_top" xlink:title="Sends an error response with code code for request request to dst.">
<polygon fill="white" stroke="black" points="1243.5,-126 1243.5,-145 1332.5,-145 1332.5,-126 1243.5,-126"/>
<text text-anchor="middle" x="1288" y="-133" font-family="Helvetica,sans-Serif" font-size="10.00">coap_send_error</text>
</a>
</g>
</g>
<!-- Node5&#45;&gt;Node17 -->
<g id="edge23" class="edge">
<title>Node5&#45;&gt;Node17</title>
<path fill="none" stroke="midnightblue" d="M1404.82,-103.75C1379.2,-110.77 1347.51,-119.46 1323.76,-125.97"/>
<polygon fill="midnightblue" stroke="midnightblue" points="1405.96,-107.07 1414.67,-101.05 1404.1,-100.32 1405.96,-107.07"/>
</g>
<!-- Node18 -->
<g id="node18" class="node">
<title>Node18</title>
<g id="a_node18"><a xlink:href="net_8c.html#a1a280312c4bad55cf10243b9b9c3e966" target="_top" xlink:title=" ">
<polygon fill="white" stroke="black" points="1246.5,-88 1246.5,-107 1329.5,-107 1329.5,-88 1246.5,-88"/>
<text text-anchor="middle" x="1288" y="-95" font-family="Helvetica,sans-Serif" font-size="10.00">handle_request</text>
</a>
</g>
</g>
<!-- Node5&#45;&gt;Node18 -->
<g id="edge24" class="edge">
<title>Node5&#45;&gt;Node18</title>
<path fill="none" stroke="midnightblue" d="M1374.56,-94.3C1359.06,-94.88 1343.29,-95.47 1329.59,-95.98"/>
<polygon fill="midnightblue" stroke="midnightblue" points="1374.82,-97.79 1384.68,-93.92 1374.56,-90.8 1374.82,-97.79"/>
</g>
<!-- Node7 -->
<g id="node7" class="node">
<title>Node7</title>
<g id="a_node7"><a xlink:href="net_8c.html#a32887948ee273d1ad464ec47df194910" target="_top" xlink:title="Parses and interprets a CoAP datagram with context ctx.">
<polygon fill="white" stroke="black" points="756,-205 756,-224 860,-224 860,-205 756,-205"/>
<text text-anchor="middle" x="808" y="-212" font-family="Helvetica,sans-Serif" font-size="10.00">coap_handle_dgram</text>
</a>
</g>
</g>
<!-- Node6&#45;&gt;Node7 -->
<g id="edge7" class="edge">
<title>Node6&#45;&gt;Node7</title>
<path fill="none" stroke="midnightblue" d="M913.77,-199.58C896.67,-202.02 877.51,-204.75 860.29,-207.2"/>
<polygon fill="midnightblue" stroke="midnightblue" points="914.71,-202.98 924.11,-198.11 913.72,-196.05 914.71,-202.98"/>
</g>
<!-- Node16 -->
<g id="node16" class="node">
<title>Node16</title>
<g id="a_node16"><a xlink:href="net_8c.html#acd36f6fba6d30ab9557e0e6521f4a088" target="_top" xlink:title=" ">
<polygon fill="white" stroke="black" points="434,-164 434,-183 535,-183 535,-164 434,-164"/>
<text text-anchor="middle" x="484.5" y="-171" font-family="Helvetica,sans-Serif" font-size="10.00">coap_read_session</text>
</a>
</g>
</g>
<!-- Node6&#45;&gt;Node16 -->
<g id="edge22" class="edge">
<title>Node6&#45;&gt;Node16</title>
<path fill="none" stroke="midnightblue" d="M914.26,-190.54C822.63,-186.9 626.9,-179.12 535.04,-175.47"/>
<polygon fill="midnightblue" stroke="midnightblue" points="914.25,-194.05 924.38,-190.95 914.53,-187.05 914.25,-194.05"/>
</g>
<!-- Node8 -->
<g id="node8" class="node">
<title>Node8</title>
<g id="a_node8"><a xlink:href="net_8c.html#a8534f7860b14e0743529daff196a27ce" target="_top" xlink:title=" ">
<polygon fill="white" stroke="black" points="583,-199.5 583,-229.5 703,-229.5 703,-199.5 583,-199.5"/>
<text text-anchor="start" x="591" y="-217.5" font-family="Helvetica,sans-Serif" font-size="10.00">coap_handle_dgram_for</text>
<text text-anchor="middle" x="643" y="-206.5" font-family="Helvetica,sans-Serif" font-size="10.00">_proto</text>
</a>
</g>
</g>
<!-- Node7&#45;&gt;Node8 -->
<g id="edge8" class="edge">
<title>Node7&#45;&gt;Node8</title>
<path fill="none" stroke="midnightblue" d="M745.47,-214.5C731.62,-214.5 716.96,-214.5 703.2,-214.5"/>
<polygon fill="midnightblue" stroke="midnightblue" points="745.87,-218 755.87,-214.5 745.87,-211 745.87,-218"/>
</g>
<!-- Node9 -->
<g id="node9" class="node">
<title>Node9</title>
<g id="a_node9"><a xlink:href="net_8c.html#a44ffb4b70e537043e9a9cf344be24b92" target="_top" xlink:title=" ">
<polygon fill="white" stroke="black" points="432.5,-202 432.5,-221 536.5,-221 536.5,-202 432.5,-202"/>
<text text-anchor="middle" x="484.5" y="-209" font-family="Helvetica,sans-Serif" font-size="10.00">coap_read_endpoint</text>
</a>
</g>
</g>
<!-- Node8&#45;&gt;Node9 -->
<g id="edge9" class="edge">
<title>Node8&#45;&gt;Node9</title>
<path fill="none" stroke="midnightblue" d="M572.72,-213.17C560.56,-212.94 548.1,-212.7 536.55,-212.48"/>
<polygon fill="midnightblue" stroke="midnightblue" points="572.77,-216.67 582.83,-213.37 572.9,-209.67 572.77,-216.67"/>
</g>
<!-- Node8&#45;&gt;Node16 -->
<g id="edge19" class="edge">
<title>Node8&#45;&gt;Node16</title>
<path fill="none" stroke="midnightblue" d="M574.92,-196.93C556.75,-192.17 537.75,-187.19 521.97,-183.05"/>
<polygon fill="midnightblue" stroke="midnightblue" points="574.05,-200.32 584.61,-199.47 575.83,-193.55 574.05,-200.32"/>
</g>
<!-- Node10 -->
<g id="node10" class="node">
<title>Node10</title>
<g id="a_node10"><a xlink:href="group__app__io__internal.html#ga503f851fa137eb8a9c2936e2098c5eb9" target="_top" xlink:title="Process all the epoll events.">
<polygon fill="white" stroke="black" points="297,-202 297,-221 389,-221 389,-202 297,-202"/>
<text text-anchor="middle" x="343" y="-209" font-family="Helvetica,sans-Serif" font-size="10.00">coap_io_do_epoll</text>
</a>
</g>
</g>
<!-- Node9&#45;&gt;Node10 -->
<g id="edge10" class="edge">
<title>Node9&#45;&gt;Node10</title>
<path fill="none" stroke="midnightblue" d="M422.25,-211.5C411.13,-211.5 399.71,-211.5 389.16,-211.5"/>
<polygon fill="midnightblue" stroke="midnightblue" points="422.35,-215 432.35,-211.5 422.35,-208 422.35,-215"/>
</g>
<!-- Node13 -->
<g id="node13" class="node">
<title>Node13</title>
<g id="a_node13"><a xlink:href="group__app__io__internal.html#ga2208802b0711ad20df07271b751b41dc" target="_top" xlink:title="Processes any outstanding read, write, accept or connect I/O as indicated in the coap_socket_t struct...">
<polygon fill="white" stroke="black" points="303.5,-164 303.5,-183 382.5,-183 382.5,-164 303.5,-164"/>
<text text-anchor="middle" x="343" y="-171" font-family="Helvetica,sans-Serif" font-size="10.00">coap_io_do_io</text>
</a>
</g>
</g>
<!-- Node9&#45;&gt;Node13 -->
<g id="edge14" class="edge">
<title>Node9&#45;&gt;Node13</title>
<path fill="none" stroke="midnightblue" d="M438.54,-199.25C419.32,-194.02 397.2,-187.99 379.19,-183.09"/>
<polygon fill="midnightblue" stroke="midnightblue" points="437.73,-202.66 448.3,-201.91 439.57,-195.91 437.73,-202.66"/>
</g>
<!-- Node11 -->
<g id="node11" class="node">
<title>Node11</title>
<g id="a_node11"><a xlink:href="group__app__io.html#ga2758ed5fdd6ce79ec95ea8dbf72a5644" target="_top" xlink:title="The main message processing loop with additional fds for internal select.">
<polygon fill="white" stroke="black" points="126,-240 126,-259 258,-259 258,-240 126,-240"/>
<text text-anchor="middle" x="192" y="-247" font-family="Helvetica,sans-Serif" font-size="10.00">coap_io_process_with_fds</text>
</a>
</g>
</g>
<!-- Node10&#45;&gt;Node11 -->
<g id="edge11" class="edge">
<title>Node10&#45;&gt;Node11</title>
<path fill="none" stroke="midnightblue" d="M294.51,-223.61C273.76,-228.9 249.77,-235.02 230.33,-239.98"/>
<polygon fill="midnightblue" stroke="midnightblue" points="295.58,-226.95 304.4,-221.09 293.85,-220.17 295.58,-226.95"/>
</g>
<!-- Node12 -->
<g id="node12" class="node">
<title>Node12</title>
<g id="a_node12"><a xlink:href="group__app__io.html#ga082f7bbf15d3f37c31c2a0a5e78ea4cf" target="_top" xlink:title="The main I/O processing function.">
<polygon fill="white" stroke="black" points="0,-240 0,-259 90,-259 90,-240 0,-240"/>
<text text-anchor="middle" x="45" y="-247" font-family="Helvetica,sans-Serif" font-size="10.00">coap_io_process</text>
</a>
</g>
</g>
<!-- Node11&#45;&gt;Node12 -->
<g id="edge12" class="edge">
<title>Node11&#45;&gt;Node12</title>
<path fill="none" stroke="midnightblue" d="M115.53,-242.76C106.85,-242.78 98.23,-242.94 90.17,-243.23"/>
<polygon fill="midnightblue" stroke="midnightblue" points="115.7,-246.26 125.71,-242.78 115.72,-239.26 115.7,-246.26"/>
</g>
<!-- Node12&#45;&gt;Node11 -->
<g id="edge13" class="edge">
<title>Node12&#45;&gt;Node11</title>
<path fill="none" stroke="midnightblue" d="M100.41,-256.06C108.67,-256.24 117.25,-256.29 125.71,-256.22"/>
<polygon fill="midnightblue" stroke="midnightblue" points="100.26,-252.55 90.17,-255.77 100.07,-259.55 100.26,-252.55"/>
</g>
<!-- Node13&#45;&gt;Node11 -->
<g id="edge16" class="edge">
<title>Node13&#45;&gt;Node11</title>
<path fill="none" stroke="midnightblue" d="M302.75,-187.35C299.7,-188.92 296.75,-190.64 294,-192.5 274.73,-205.53 277.85,-218.37 258,-230.5 251.68,-234.36 244.53,-237.47 237.35,-239.97"/>
<polygon fill="midnightblue" stroke="midnightblue" points="304.45,-190.41 312.04,-183.02 301.5,-184.07 304.45,-190.41"/>
</g>
<!-- Node13&#45;&gt;Node12 -->
<g id="edge15" class="edge">
<title>Node13&#45;&gt;Node12</title>
<path fill="none" stroke="midnightblue" d="M293.17,-170.61C248.32,-169.6 180.72,-172.31 126,-192.5 97.52,-203.01 69.97,-226.46 55.82,-239.78"/>
<polygon fill="midnightblue" stroke="midnightblue" points="293.12,-174.11 303.22,-170.9 293.33,-167.11 293.12,-174.11"/>
</g>
<!-- Node14 -->
<g id="node14" class="node">
<title>Node14</title>
<g id="a_node14"><a xlink:href="net_8h.html#af937985e2b14a287a849663574d59bcb" target="_top" xlink:title=" ">
<polygon fill="white" stroke="black" points="161,-202 161,-221 223,-221 223,-202 161,-202"/>
<text text-anchor="middle" x="192" y="-209" font-family="Helvetica,sans-Serif" font-size="10.00">coap_read</text>
</a>
</g>
</g>
<!-- Node13&#45;&gt;Node14 -->
<g id="edge17" class="edge">
<title>Node13&#45;&gt;Node14</title>
<path fill="none" stroke="midnightblue" d="M294.64,-185.58C271.2,-191.56 243.6,-198.59 223.09,-203.83"/>
<polygon fill="midnightblue" stroke="midnightblue" points="295.58,-188.95 304.4,-183.09 293.85,-182.17 295.58,-188.95"/>
</g>
<!-- Node15 -->
<g id="node15" class="node">
<title>Node15</title>
<g id="a_node15"><a xlink:href="coap__io__contiki_8c.html#a75a7c93e10ca7858449ba304aad4ea37" target="_top" xlink:title=" ">
<polygon fill="white" stroke="black" points="3.5,-335 3.5,-354 86.5,-354 86.5,-335 3.5,-335"/>
<text text-anchor="middle" x="45" y="-342" font-family="Helvetica,sans-Serif" font-size="10.00">coap_run_once</text>
</a>
</g>
</g>
<!-- Node14&#45;&gt;Node15 -->
<g id="edge18" class="edge">
<title>Node14&#45;&gt;Node15</title>
<path fill="none" stroke="midnightblue" d="M151.15,-218.56C142.34,-221.33 133.43,-225.18 126,-230.5 105.75,-245 66.29,-309.98 51.65,-334.81"/>
<polygon fill="midnightblue" stroke="midnightblue" points="152.25,-221.89 160.97,-215.87 150.4,-215.14 152.25,-221.89"/>
</g>
<!-- Node16&#45;&gt;Node10 -->
<g id="edge20" class="edge">
<title>Node16&#45;&gt;Node10</title>
<path fill="none" stroke="midnightblue" d="M438.54,-185.75C419.32,-190.98 397.2,-197.01 379.19,-201.91"/>
<polygon fill="midnightblue" stroke="midnightblue" points="439.57,-189.09 448.3,-183.09 437.73,-182.34 439.57,-189.09"/>
</g>
<!-- Node16&#45;&gt;Node13 -->
<g id="edge21" class="edge">
<title>Node16&#45;&gt;Node13</title>
<path fill="none" stroke="midnightblue" d="M423.54,-173.5C409.78,-173.5 395.5,-173.5 382.9,-173.5"/>
<polygon fill="midnightblue" stroke="midnightblue" points="423.92,-177 433.92,-173.5 423.92,-170 423.92,-177"/>
</g>
<!-- Node18&#45;&gt;Node6 -->
<g id="edge25" class="edge">
<title>Node18&#45;&gt;Node6</title>
<path fill="none" stroke="midnightblue" d="M1238.42,-109.48C1191.84,-121.24 1119.7,-140.17 1058,-159.5 1035.06,-166.69 1009.33,-175.97 990.84,-182.86"/>
<polygon fill="midnightblue" stroke="midnightblue" points="1239.4,-112.84 1248.24,-107.01 1237.69,-106.05 1239.4,-112.84"/>
</g>
<!-- Node19&#45;&gt;Node6 -->
<g id="edge27" class="edge">
<title>Node19&#45;&gt;Node6</title>
<path fill="none" stroke="midnightblue" d="M1408.13,-207.52C1357.13,-202.83 1267.78,-195.32 1191,-192.5 1125.66,-190.1 1049.61,-190.83 1004.62,-191.63"/>
<polygon fill="midnightblue" stroke="midnightblue" points="1407.82,-211.01 1418.11,-208.45 1408.47,-204.04 1407.82,-211.01"/>
</g>
<!-- Node19&#45;&gt;Node17 -->
<g id="edge49" class="edge">
<title>Node19&#45;&gt;Node17</title>
<path fill="none" stroke="midnightblue" d="M1423.47,-197.14C1403.38,-186.28 1374.76,-171.28 1349,-159.5 1337.78,-154.37 1325.12,-149.21 1314.34,-145.01"/>
<polygon fill="midnightblue" stroke="midnightblue" points="1421.87,-200.26 1432.32,-201.96 1425.21,-194.11 1421.87,-200.26"/>
</g>
<!-- Node19&#45;&gt;Node18 -->
<g id="edge57" class="edge">
<title>Node19&#45;&gt;Node18</title>
<path fill="none" stroke="midnightblue" d="M1433.34,-194.49C1410.02,-170.25 1367.68,-127.5 1349,-116.5 1342.6,-112.73 1335.36,-109.62 1328.19,-107.09"/>
<polygon fill="midnightblue" stroke="midnightblue" points="1431.01,-197.12 1440.46,-201.92 1436.07,-192.28 1431.01,-197.12"/>
</g>
<!-- Node20 -->
<g id="node20" class="node">
<title>Node20</title>
<g id="a_node20"><a xlink:href="resource_8c.html#ac502b4f7cc5ef8b6d4a6b7b4d940076a" target="_top" xlink:title=" ">
<polygon fill="white" stroke="black" points="907,-354 907,-373 1022,-373 1022,-354 907,-354"/>
<text text-anchor="middle" x="964.5" y="-361" font-family="Helvetica,sans-Serif" font-size="10.00">coap_notify_observers</text>
</a>
</g>
</g>
<!-- Node19&#45;&gt;Node20 -->
<g id="edge28" class="edge">
<title>Node19&#45;&gt;Node20</title>
<path fill="none" stroke="midnightblue" d="M1441.11,-230.31C1426.9,-259.61 1395.09,-315.28 1349,-339.5 1242.26,-395.59 1095.07,-384.44 1017.76,-373.04"/>
<polygon fill="midnightblue" stroke="midnightblue" points="1444.33,-231.68 1445.39,-221.14 1437.99,-228.72 1444.33,-231.68"/>
</g>
<!-- Node32 -->
<g id="node32" class="node">
<title>Node32</title>
<g id="a_node32"><a xlink:href="net_8c.html#aba278b109415057d15196fa46afee970" target="_top" xlink:title="Sends an ACK message with code 0 for the specified request to dst.">
<polygon fill="white" stroke="black" points="1245.5,-240 1245.5,-259 1330.5,-259 1330.5,-240 1245.5,-240"/>
<text text-anchor="middle" x="1288" y="-247" font-family="Helvetica,sans-Serif" font-size="10.00">coap_send_ack</text>
</a>
</g>
</g>
<!-- Node19&#45;&gt;Node32 -->
<g id="edge46" class="edge">
<title>Node19&#45;&gt;Node32</title>
<path fill="none" stroke="midnightblue" d="M1408.21,-221.28C1383.97,-227.02 1353.47,-234.24 1329.39,-239.94"/>
<polygon fill="midnightblue" stroke="midnightblue" points="1409.25,-224.63 1418.17,-218.92 1407.64,-217.82 1409.25,-224.63"/>
</g>
<!-- Node34 -->
<g id="node34" class="node">
<title>Node34</title>
<g id="a_node34"><a xlink:href="net_8c.html#a6aa830b46188549b51773f724eb8e752" target="_top" xlink:title="Helper funktion to create and send a message with type (usually ACK or RST).">
<polygon fill="white" stroke="black" points="1058,-278 1058,-297 1191,-297 1191,-278 1058,-278"/>
<text text-anchor="middle" x="1124.5" y="-285" font-family="Helvetica,sans-Serif" font-size="10.00">coap_send_message_type</text>
</a>
</g>
</g>
<!-- Node19&#45;&gt;Node34 -->
<g id="edge50" class="edge">
<title>Node19&#45;&gt;Node34</title>
<path fill="none" stroke="midnightblue" d="M1428.28,-227.17C1408.75,-240.67 1378.44,-259.38 1349,-268.5 1297.67,-284.4 1236.73,-288.68 1191.46,-289.25"/>
<polygon fill="midnightblue" stroke="midnightblue" points="1430.56,-229.84 1436.69,-221.21 1426.51,-224.13 1430.56,-229.84"/>
</g>
<!-- Node36 -->
<g id="node36" class="node">
<title>Node36</title>
<g id="a_node36"><a xlink:href="coap__session_8c.html#ab3f9f60c0a4857c147fef5721025944c" target="_top" xlink:title="Send a ping message for the session.">
<polygon fill="white" stroke="black" points="745,-316 745,-335 871,-335 871,-316 745,-316"/>
<text text-anchor="middle" x="808" y="-323" font-family="Helvetica,sans-Serif" font-size="10.00">coap_session_send_ping</text>
</a>
</g>
</g>
<!-- Node19&#45;&gt;Node36 -->
<g id="edge54" class="edge">
<title>Node19&#45;&gt;Node36</title>
<path fill="none" stroke="midnightblue" d="M1434.42,-228.64C1416.29,-247.93 1383.91,-278.42 1349,-292.5 1186.76,-357.93 974.76,-345.62 871.29,-334.06"/>
<polygon fill="midnightblue" stroke="midnightblue" points="1437.11,-230.88 1441.28,-221.14 1431.95,-226.15 1437.11,-230.88"/>
</g>
<!-- Node37 -->
<g id="node37" class="node">
<title>Node37</title>
<g id="a_node37"><a xlink:href="net_8c.html#ac4cbcfd073489b57805db665ce3d0681" target="_top" xlink:title=" ">
<polygon fill="white" stroke="black" points="1080,-202 1080,-221 1169,-221 1169,-202 1080,-202"/>
<text text-anchor="middle" x="1124.5" y="-209" font-family="Helvetica,sans-Serif" font-size="10.00">handle_signaling</text>
</a>
</g>
</g>
<!-- Node19&#45;&gt;Node37 -->
<g id="edge58" class="edge">
<title>Node19&#45;&gt;Node37</title>
<path fill="none" stroke="midnightblue" d="M1408.34,-211.5C1346.99,-211.5 1232.05,-211.5 1169.23,-211.5"/>
<polygon fill="midnightblue" stroke="midnightblue" points="1408.43,-215 1418.43,-211.5 1408.43,-208 1408.43,-215"/>
</g>
<!-- Node21 -->
<g id="node21" class="node">
<title>Node21</title>
<g id="a_node21"><a xlink:href="resource_8c.html#a579bcb559463d3a872831c18d8d9a1c1" target="_top" xlink:title="Checks for all known resources, if they are dirty and notifies subscribed observers.">
<polygon fill="white" stroke="black" points="759,-354 759,-373 857,-373 857,-354 759,-354"/>
<text text-anchor="middle" x="808" y="-361" font-family="Helvetica,sans-Serif" font-size="10.00">coap_check_notify</text>
</a>
</g>
</g>
<!-- Node20&#45;&gt;Node21 -->
<g id="edge29" class="edge">
<title>Node20&#45;&gt;Node21</title>
<path fill="none" stroke="midnightblue" d="M896.74,-363.5C883.38,-363.5 869.59,-363.5 857.01,-363.5"/>
<polygon fill="midnightblue" stroke="midnightblue" points="896.85,-367 906.85,-363.5 896.85,-360 896.85,-367"/>
</g>
<!-- Node26 -->
<g id="node26" class="node">
<title>Node26</title>
<g id="a_node26"><a xlink:href="resource_8c.html#a1307a6b8dadd6d005352ce02f6cf392f" target="_top" xlink:title=" ">
<polygon fill="white" stroke="black" points="757,-411 757,-430 859,-430 859,-411 757,-411"/>
<text text-anchor="middle" x="808" y="-418" font-family="Helvetica,sans-Serif" font-size="10.00">coap_free_resource</text>
</a>
</g>
</g>
<!-- Node20&#45;&gt;Node26 -->
<g id="edge39" class="edge">
<title>Node20&#45;&gt;Node26</title>
<path fill="none" stroke="midnightblue" d="M928.09,-376.57C899.69,-387.04 860.49,-401.51 834.94,-410.93"/>
<polygon fill="midnightblue" stroke="midnightblue" points="929.47,-379.79 937.64,-373.04 927.05,-373.22 929.47,-379.79"/>
</g>
<!-- Node22 -->
<g id="node22" class="node">
<title>Node22</title>
<g id="a_node22"><a xlink:href="group__app__io__internal.html#gaf0cbbb00a6f2f8ac885f0e1575534e34" target="_top" xlink:title="Iterates through all the coap_socket_t structures embedded in endpoints or sessions associated with t...">
<polygon fill="white" stroke="black" points="592.5,-316 592.5,-335 693.5,-335 693.5,-316 592.5,-316"/>
<text text-anchor="middle" x="643" y="-323" font-family="Helvetica,sans-Serif" font-size="10.00">coap_io_prepare_io</text>
</a>
</g>
</g>
<!-- Node21&#45;&gt;Node22 -->
<g id="edge30" class="edge">
<title>Node21&#45;&gt;Node22</title>
<path fill="none" stroke="midnightblue" d="M755.97,-351.6C733.06,-346.26 706.4,-340.05 684.84,-335.02"/>
<polygon fill="midnightblue" stroke="midnightblue" points="755.33,-355.05 765.87,-353.91 756.92,-348.23 755.33,-355.05"/>
</g>
<!-- Node25 -->
<g id="node25" class="node">
<title>Node25</title>
<g id="a_node25"><a xlink:href="coap__io__contiki_8c.html#aaac86ac50793f309678e4951ecf8863f" target="_top" xlink:title=" ">
<polygon fill="white" stroke="black" points="611,-354 611,-373 675,-373 675,-354 611,-354"/>
<text text-anchor="middle" x="643" y="-361" font-family="Helvetica,sans-Serif" font-size="10.00">coap_write</text>
</a>
</g>
</g>
<!-- Node21&#45;&gt;Node25 -->
<g id="edge37" class="edge">
<title>Node21&#45;&gt;Node25</title>
<path fill="none" stroke="midnightblue" d="M748.92,-363.5C724.08,-363.5 696.06,-363.5 675.24,-363.5"/>
<polygon fill="midnightblue" stroke="midnightblue" points="748.98,-367 758.98,-363.5 748.98,-360 748.98,-367"/>
</g>
<!-- Node22&#45;&gt;Node11 -->
<g id="edge35" class="edge">
<title>Node22&#45;&gt;Node11</title>
<path fill="none" stroke="midnightblue" d="M582.89,-314.14C569.15,-311.57 554.57,-308.89 541,-306.5 440.46,-288.81 323.25,-269.98 253.74,-259"/>
<polygon fill="midnightblue" stroke="midnightblue" points="582.25,-317.58 592.73,-315.99 583.55,-310.7 582.25,-317.58"/>
</g>
<!-- Node22&#45;&gt;Node12 -->
<g id="edge34" class="edge">
<title>Node22&#45;&gt;Node12</title>
<path fill="none" stroke="midnightblue" d="M590.82,-337.04C574.94,-340.1 557.32,-342.98 541,-344.5 357.6,-361.6 141.13,-286.35 69.97,-259.06"/>
<polygon fill="midnightblue" stroke="midnightblue" points="591.85,-340.4 600.97,-335.01 590.48,-333.54 591.85,-340.4"/>
</g>
<!-- Node23 -->
<g id="node23" class="node">
<title>Node23</title>
<g id="a_node23"><a xlink:href="group__app__io__internal.html#ga3be92476a2c2c12d68c0cd07795c7e34" target="_top" xlink:title="Any now timed out delayed packet is transmitted, along with any packets associated with requested obs...">
<polygon fill="white" stroke="black" points="428,-240 428,-259 541,-259 541,-240 428,-240"/>
<text text-anchor="middle" x="484.5" y="-247" font-family="Helvetica,sans-Serif" font-size="10.00">coap_io_prepare_epoll</text>
</a>
</g>
</g>
<!-- Node22&#45;&gt;Node23 -->
<g id="edge31" class="edge">
<title>Node22&#45;&gt;Node23</title>
<path fill="none" stroke="midnightblue" d="M615.37,-311.17C595.14,-300.43 566.55,-285.58 541,-273.5 530.47,-268.52 518.63,-263.34 508.61,-259.08"/>
<polygon fill="midnightblue" stroke="midnightblue" points="613.83,-314.31 624.3,-315.93 617.12,-308.14 613.83,-314.31"/>
</g>
<!-- Node24 -->
<g id="node24" class="node">
<title>Node24</title>
<g id="a_node24"><a xlink:href="net_8h.html#ab54010e3cade80e1417870c87dcd0402" target="_top" xlink:title=" ">
<polygon fill="white" stroke="black" points="452.5,-316 452.5,-335 516.5,-335 516.5,-316 452.5,-316"/>
<text text-anchor="middle" x="484.5" y="-323" font-family="Helvetica,sans-Serif" font-size="10.00">coap_write</text>
</a>
</g>
</g>
<!-- Node22&#45;&gt;Node24 -->
<g id="edge36" class="edge">
<title>Node22&#45;&gt;Node24</title>
<path fill="none" stroke="midnightblue" d="M582.35,-325.5C559.91,-325.5 535.31,-325.5 516.51,-325.5"/>
<polygon fill="midnightblue" stroke="midnightblue" points="582.48,-329 592.48,-325.5 582.48,-322 582.48,-329"/>
</g>
<!-- Node23&#45;&gt;Node10 -->
<g id="edge32" class="edge">
<title>Node23&#45;&gt;Node10</title>
<path fill="none" stroke="midnightblue" d="M438.54,-237.25C419.32,-232.02 397.2,-225.99 379.19,-221.09"/>
<polygon fill="midnightblue" stroke="midnightblue" points="437.73,-240.66 448.3,-239.91 439.57,-233.91 437.73,-240.66"/>
</g>
<!-- Node23&#45;&gt;Node11 -->
<g id="edge33" class="edge">
<title>Node23&#45;&gt;Node11</title>
<path fill="none" stroke="midnightblue" d="M417.61,-249.5C369.88,-249.5 305.67,-249.5 258.12,-249.5"/>
<polygon fill="midnightblue" stroke="midnightblue" points="417.83,-253 427.83,-249.5 417.83,-246 417.83,-253"/>
</g>
<!-- Node25&#45;&gt;Node15 -->
<g id="edge38" class="edge">
<title>Node25&#45;&gt;Node15</title>
<path fill="none" stroke="midnightblue" d="M600.71,-370.53C582.47,-373.3 560.73,-376.14 541,-377.5 356.99,-390.19 306.93,-413.35 126,-377.5 103.45,-373.03 79.28,-362.12 63.48,-354.06"/>
<polygon fill="midnightblue" stroke="midnightblue" points="601.38,-373.97 610.72,-368.97 600.3,-367.05 601.38,-373.97"/>
</g>
<!-- Node27 -->
<g id="node27" class="node">
<title>Node27</title>
<g id="a_node27"><a xlink:href="group__coap__resource.html#ga9a5f0705912b0a35a3d5764e86b94004" target="_top" xlink:title="Registers the given resource for context.">
<polygon fill="white" stroke="black" points="434,-430 434,-449 535,-449 535,-430 434,-430"/>
<text text-anchor="middle" x="484.5" y="-437" font-family="Helvetica,sans-Serif" font-size="10.00">coap_add_resource</text>
</a>
</g>
</g>
<!-- Node26&#45;&gt;Node27 -->
<g id="edge40" class="edge">
<title>Node26&#45;&gt;Node27</title>
<path fill="none" stroke="midnightblue" d="M746.39,-417.13C699.92,-415.36 634.24,-414.62 577,-420.5 558.92,-422.36 539.15,-426.23 522.63,-429.99"/>
<polygon fill="midnightblue" stroke="midnightblue" points="746.46,-420.64 756.6,-417.55 746.75,-413.64 746.46,-420.64"/>
</g>
<!-- Node28 -->
<g id="node28" class="node">
<title>Node28</title>
<g id="a_node28"><a xlink:href="group__coap__resource.html#ga1fae3046ad94fce85a7ea23455328958" target="_top" xlink:title="Deletes all resources from given context and frees their storage.">
<polygon fill="white" stroke="black" points="577,-468 577,-487 709,-487 709,-468 577,-468"/>
<text text-anchor="middle" x="643" y="-475" font-family="Helvetica,sans-Serif" font-size="10.00">coap_delete_all_resources</text>
</a>
</g>
</g>
<!-- Node26&#45;&gt;Node28 -->
<g id="edge41" class="edge">
<title>Node26&#45;&gt;Node28</title>
<path fill="none" stroke="midnightblue" d="M774.47,-433.92C755.52,-441.53 731.07,-451.01 709,-458.5 699.2,-461.82 688.46,-465.11 678.58,-467.99"/>
<polygon fill="midnightblue" stroke="midnightblue" points="775.88,-437.12 783.84,-430.13 773.26,-430.63 775.88,-437.12"/>
</g>
<!-- Node31 -->
<g id="node31" class="node">
<title>Node31</title>
<g id="a_node31"><a xlink:href="group__coap__resource.html#gad3521b724ad4961e6bb11801fd82a3e3" target="_top" xlink:title="Deletes a resource identified by resource.">
<polygon fill="white" stroke="black" points="587,-430 587,-449 699,-449 699,-430 587,-430"/>
<text text-anchor="middle" x="643" y="-437" font-family="Helvetica,sans-Serif" font-size="10.00">coap_delete_resource</text>
</a>
</g>
</g>
<!-- Node26&#45;&gt;Node31 -->
<g id="edge44" class="edge">
<title>Node26&#45;&gt;Node31</title>
<path fill="none" stroke="midnightblue" d="M746.72,-427.53C731.15,-429.34 714.47,-431.29 699.18,-433.07"/>
<polygon fill="midnightblue" stroke="midnightblue" points="747.24,-430.99 756.76,-426.36 746.43,-424.04 747.24,-430.99"/>
</g>
<!-- Node29 -->
<g id="node29" class="node">
<title>Node29</title>
<g id="a_node29"><a xlink:href="net_8c.html#a4a0717822713783908dd33d300440b2e" target="_top" xlink:title="CoAP stack context must be released with coap_free_context().">
<polygon fill="white" stroke="black" points="436,-468 436,-487 533,-487 533,-468 436,-468"/>
<text text-anchor="middle" x="484.5" y="-475" font-family="Helvetica,sans-Serif" font-size="10.00">coap_free_context</text>
</a>
</g>
</g>
<!-- Node28&#45;&gt;Node29 -->
<g id="edge42" class="edge">
<title>Node28&#45;&gt;Node29</title>
<path fill="none" stroke="midnightblue" d="M566.98,-477.5C555.54,-477.5 544.01,-477.5 533.37,-477.5"/>
<polygon fill="midnightblue" stroke="midnightblue" points="566.99,-481 576.99,-477.5 566.99,-474 566.99,-481"/>
</g>
<!-- Node30 -->
<g id="node30" class="node">
<title>Node30</title>
<g id="a_node30"><a xlink:href="net_8c.html#a8baf4e3608ff5eb00adac694fe25eb60" target="_top" xlink:title="Creates a new coap_context_t object that will hold the CoAP stack status.">
<polygon fill="white" stroke="black" points="294,-468 294,-487 392,-487 392,-468 294,-468"/>
<text text-anchor="middle" x="343" y="-475" font-family="Helvetica,sans-Serif" font-size="10.00">coap_new_context</text>
</a>
</g>
</g>
<!-- Node29&#45;&gt;Node30 -->
<g id="edge43" class="edge">
<title>Node29&#45;&gt;Node30</title>
<path fill="none" stroke="midnightblue" d="M425.82,-477.5C414.69,-477.5 403.14,-477.5 392.35,-477.5"/>
<polygon fill="midnightblue" stroke="midnightblue" points="425.88,-481 435.88,-477.5 425.88,-474 425.88,-481"/>
</g>
<!-- Node31&#45;&gt;Node27 -->
<g id="edge45" class="edge">
<title>Node31&#45;&gt;Node27</title>
<path fill="none" stroke="midnightblue" d="M576.82,-439.5C562.91,-439.5 548.44,-439.5 535.22,-439.5"/>
<polygon fill="midnightblue" stroke="midnightblue" points="576.82,-443 586.82,-439.5 576.82,-436 576.82,-443"/>
</g>
<!-- Node33 -->
<g id="node33" class="node">
<title>Node33</title>
<g id="a_node33"><a xlink:href="net_8c.html#af838d89087ad96495f8ed7f1a9297168" target="_top" xlink:title=" ">
<polygon fill="white" stroke="black" points="1079.5,-240 1079.5,-259 1169.5,-259 1169.5,-240 1079.5,-240"/>
<text text-anchor="middle" x="1124.5" y="-247" font-family="Helvetica,sans-Serif" font-size="10.00">handle_response</text>
</a>
</g>
</g>
<!-- Node32&#45;&gt;Node33 -->
<g id="edge47" class="edge">
<title>Node32&#45;&gt;Node33</title>
<path fill="none" stroke="midnightblue" d="M1235.33,-249.5C1214.22,-249.5 1190.06,-249.5 1169.78,-249.5"/>
<polygon fill="midnightblue" stroke="midnightblue" points="1235.41,-253 1245.41,-249.5 1235.41,-246 1235.41,-253"/>
</g>
<!-- Node33&#45;&gt;Node6 -->
<g id="edge48" class="edge">
<title>Node33&#45;&gt;Node6</title>
<path fill="none" stroke="midnightblue" d="M1078.12,-237.02C1071.34,-234.96 1064.46,-232.76 1058,-230.5 1033.25,-221.85 1005.52,-210.19 986.93,-202.07"/>
<polygon fill="midnightblue" stroke="midnightblue" points="1077.34,-240.45 1087.93,-239.93 1079.34,-233.73 1077.34,-240.45"/>
</g>
<!-- Node34&#45;&gt;Node6 -->
<g id="edge51" class="edge">
<title>Node34&#45;&gt;Node6</title>
<path fill="none" stroke="midnightblue" d="M1071.58,-274.59C1066.89,-272.79 1062.29,-270.76 1058,-268.5 1048.99,-263.75 999.55,-221.72 976.88,-202.28"/>
<polygon fill="midnightblue" stroke="midnightblue" points="1070.68,-277.99 1081.28,-277.99 1073,-271.38 1070.68,-277.99"/>
</g>
<!-- Node35 -->
<g id="node35" class="node">
<title>Node35</title>
<g id="a_node35"><a xlink:href="net_8h.html#a5854b1394bfddd574e48af116e3aaaf9" target="_top" xlink:title="Sends an RST message with code 0 for the specified request to dst.">
<polygon fill="white" stroke="black" points="924.5,-250 924.5,-269 1004.5,-269 1004.5,-250 924.5,-250"/>
<text text-anchor="middle" x="964.5" y="-257" font-family="Helvetica,sans-Serif" font-size="10.00">coap_send_rst</text>
</a>
</g>
</g>
<!-- Node34&#45;&gt;Node35 -->
<g id="edge52" class="edge">
<title>Node34&#45;&gt;Node35</title>
<path fill="none" stroke="midnightblue" d="M1059.68,-276.19C1041.09,-272.89 1021.33,-269.39 1004.73,-266.45"/>
<polygon fill="midnightblue" stroke="midnightblue" points="1059.11,-279.64 1069.57,-277.94 1060.33,-272.75 1059.11,-279.64"/>
</g>
<!-- Node35&#45;&gt;Node7 -->
<g id="edge53" class="edge">
<title>Node35&#45;&gt;Node7</title>
<path fill="none" stroke="midnightblue" d="M921.12,-247.16C896.08,-239.86 864.85,-230.77 841.72,-224.03"/>
<polygon fill="midnightblue" stroke="midnightblue" points="920.15,-250.52 930.73,-249.96 922.11,-243.8 920.15,-250.52"/>
</g>
<!-- Node36&#45;&gt;Node22 -->
<g id="edge55" class="edge">
<title>Node36&#45;&gt;Node22</title>
<path fill="none" stroke="midnightblue" d="M734.84,-325.5C720.87,-325.5 706.54,-325.5 693.51,-325.5"/>
<polygon fill="midnightblue" stroke="midnightblue" points="734.91,-329 744.91,-325.5 734.91,-322 734.91,-329"/>
</g>
<!-- Node36&#45;&gt;Node25 -->
<g id="edge56" class="edge">
<title>Node36&#45;&gt;Node25</title>
<path fill="none" stroke="midnightblue" d="M755.98,-337.39C729.47,-343.57 697.93,-350.93 675.08,-356.25"/>
<polygon fill="midnightblue" stroke="midnightblue" points="756.92,-340.77 765.87,-335.09 755.33,-333.95 756.92,-340.77"/>
</g>
<!-- Node37&#45;&gt;Node6 -->
<g id="edge59" class="edge">
<title>Node37&#45;&gt;Node6</title>
<path fill="none" stroke="midnightblue" d="M1069.97,-205.06C1048.56,-202.49 1024.35,-199.58 1004.63,-197.21"/>
<polygon fill="midnightblue" stroke="midnightblue" points="1069.56,-208.54 1079.91,-206.26 1070.4,-201.59 1069.56,-208.54"/>
</g>
<!-- Node38&#45;&gt;Node18 -->
<g id="edge61" class="edge">
<title>Node38&#45;&gt;Node18</title>
<path fill="none" stroke="midnightblue" d="M1541.78,-124.31C1496.23,-120.96 1437.24,-116.16 1385,-110.5 1366.77,-108.52 1346.67,-105.87 1329.58,-103.48"/>
<polygon fill="midnightblue" stroke="midnightblue" points="1541.65,-127.81 1551.88,-125.05 1542.16,-120.83 1541.65,-127.81"/>
</g>
</g>
</svg>
        <g id="navigator" transform="translate(0 0)" fill="#404254">
                <rect fill="#f2f5e9" fill-opacity="0.5" stroke="#606060" stroke-width=".5" x="0" y="0" width="60" height="60"/>
                <use id="zoomplus" xlink:href="#zoomPlus" x="17" y="9" onmousedown="handleZoom(evt,'in')"/>
                <use id="zoomminus" xlink:href="#zoomMin" x="42" y="9" onmousedown="handleZoom(evt,'out')"/>
                <use id="reset" xlink:href="#resetDef" x="30" y="36" onmousedown="handleReset()"/>
                <g id="arrowUp" xlink:href="#dirArrow" transform="translate(30 24)" onmousedown="handlePan(0,-1)">
                  <use xlink:href="#rim" fill="#404040">
                        <set attributeName="fill" to="#808080" begin="arrowUp.mouseover" end="arrowUp.mouseout"/>
                  </use>
                  <path fill="none" stroke="white" stroke-width="1.5" d="M0,-3.0v7 M-2.5,-0.5L0,-3.0L2.5,-0.5"/>
                </g>
                <g id="arrowRight" xlink:href="#dirArrow" transform="rotate(90) translate(36 -43)" onmousedown="handlePan(1,0)">
                  <use xlink:href="#rim" fill="#404040">
                        <set attributeName="fill" to="#808080" begin="arrowRight.mouseover" end="arrowRight.mouseout"/>
                  </use>
                  <path fill="none" stroke="white" stroke-width="1.5" d="M0,-3.0v7 M-2.5,-0.5L0,-3.0L2.5,-0.5"/>
                </g>
                <g id="arrowDown" xlink:href="#dirArrow" transform="rotate(180) translate(-30 -48)" onmousedown="handlePan(0,1)">
                  <use xlink:href="#rim" fill="#404040">
                        <set attributeName="fill" to="#808080" begin="arrowDown.mouseover" end="arrowDown.mouseout"/>
                  </use>
                  <path fill="none" stroke="white" stroke-width="1.5" d="M0,-3.0v7 M-2.5,-0.5L0,-3.0L2.5,-0.5"/>
                </g>
                <g id="arrowLeft" xlink:href="#dirArrow" transform="rotate(270) translate(-36 17)" onmousedown="handlePan(-1,0)">
                  <use xlink:href="#rim" fill="#404040">
                        <set attributeName="fill" to="#808080" begin="arrowLeft.mouseover" end="arrowLeft.mouseout"/>
                  </use>
                  <path fill="none" stroke="white" stroke-width="1.5" d="M0,-3.0v7 M-2.5,-0.5L0,-3.0L2.5,-0.5"/>
                </g>
        </g>
        <svg viewBox="0 0 15 15" width="100%" height="30px" preserveAspectRatio="xMaxYMin meet">
         <g id="arrow_out" transform="scale(0.3 0.3)">
          <a xlink:href="pdu_8h_ab2a710785ec579083f95ee049566fb83_icgraph_org.svg" target="_base">
           <rect id="button" ry="5" rx="5" y="6" x="6" height="38" width="38"
                fill="#f2f5e9" fill-opacity="0.5" stroke="#606060" stroke-width="1.0"/>
           <path id="arrow"
             d="M 11.500037,31.436501 C 11.940474,20.09759 22.043105,11.32322 32.158766,21.979434 L 37.068811,17.246167 C 37.068811,17.246167 37.088388,32 37.088388,32 L 22.160133,31.978069 C 22.160133,31.978069 26.997745,27.140456 26.997745,27.140456 C 18.528582,18.264221 13.291696,25.230495 11.500037,31.436501 z"
             style="fill:#404040;"/>
          </a>
         </g>
        </svg>
</svg>
