<?xml version="1.0" encoding="UTF-8" standalone="no"?>
<!DOCTYPE svg PUBLIC "-//W3C//DTD SVG 1.1//EN"
 "http://www.w3.org/Graphics/SVG/1.1/DTD/svg11.dtd">
<!-- Generated by graphviz version 2.43.0 (0)
 -->
<!-- Title: coap_insert_option Pages: 1 -->
<!--zoomable 259 -->
<svg id="main" version="1.1" xmlns="http://www.w3.org/2000/svg" xmlns:xlink="http://www.w3.org/1999/xlink" xml:space="preserve" onload="init(evt)">
<style type="text/css"><![CDATA[
.edge:hover path { stroke: red; }
.edge:hover polygon { stroke: red; fill: red; }
]]></style>
<script type="text/javascript"><![CDATA[
var edges = document.getElementsByTagName('g');
if (edges && edges.length) {
  for (var i=0;i<edges.length;i++) {
    if (edges[i].id.substr(0,4)=='edge') {
      edges[i].setAttribute('class','edge');
    }
  }
}
]]></script>
        <defs>
                <circle id="rim" cx="0" cy="0" r="7"/>
                <circle id="rim2" cx="0" cy="0" r="3.5"/>
                <g id="zoomPlus">
                        <use xlink:href="#rim" fill="#404040">
                                <set attributeName="fill" to="#808080" begin="zoomplus.mouseover" end="zoomplus.mouseout"/>
                        </use>
                        <path d="M-4,0h8M0,-4v8" fill="none" stroke="white" stroke-width="1.5" pointer-events="none"/>
                </g>
                <g id="zoomMin">
                        <use xlink:href="#rim" fill="#404040">
                                <set attributeName="fill" to="#808080" begin="zoomminus.mouseover" end="zoomminus.mouseout"/>
                        </use>
                        <path d="M-4,0h8" fill="none" stroke="white" stroke-width="1.5" pointer-events="none"/>
                </g>
                <g id="dirArrow">
                        <path fill="none" stroke="white" stroke-width="1.5" d="M0,-3.0v7 M-2.5,-0.5L0,-3.0L2.5,-0.5"/>
                </g>
               <g id="resetDef">
                       <use xlink:href="#rim2" fill="#404040">
                               <set attributeName="fill" to="#808080" begin="reset.mouseover" end="reset.mouseout"/>
                       </use>
               </g>
        </defs>

<script type="text/javascript">
var viewWidth = 1050;
var viewHeight = 259;
var sectionId = 'dynsection-12';
</script>
<script xlink:href="svgpan.js"/>
<svg id="graph" class="graph">
<g id="viewport">
<title>coap_insert_option</title>
<polygon fill="white" stroke="transparent" points="-4,4 -4,-254.87 1046,-254.87 1046,4 -4,4"/>
<!-- Node1 -->
<g id="node1" class="node">
<title>Node1</title>
<g id="a_node1"><a xlink:title="Inserts option of given type in the pdu with the appropriate data.">
<polygon fill="#bfbfbf" stroke="black" points="0,-107.5 0,-126.5 98,-126.5 98,-107.5 0,-107.5"/>
<text text-anchor="middle" x="49" y="-114.5" font-family="Helvetica,sans-Serif" font-size="10.00">coap_insert_option</text>
</a>
</g>
</g>
<!-- Node2 -->
<g id="node2" class="node">
<title>Node2</title>
<g id="a_node2"><a xlink:href="pdu_8c.html#aa1314f60fbc25733cfabaa975adc5aae" target="_top" xlink:title="Adds option of given type to pdu that is passed as first parameter.">
<polygon fill="white" stroke="black" points="134,-88.5 134,-107.5 224,-107.5 224,-88.5 134,-88.5"/>
<text text-anchor="middle" x="179" y="-95.5" font-family="Helvetica,sans-Serif" font-size="10.00">coap_add_option</text>
</a>
</g>
</g>
<!-- Node1&#45;&gt;Node2 -->
<g id="edge1" class="edge">
<title>Node1&#45;&gt;Node2</title>
<path fill="none" stroke="midnightblue" d="M76.52,-107.47C90.23,-104.47 107.47,-101.55 123.84,-99.36"/>
<polygon fill="midnightblue" stroke="midnightblue" points="124.39,-102.82 133.87,-98.1 123.52,-95.87 124.39,-102.82"/>
</g>
<!-- Node10 -->
<g id="node10" class="node">
<title>Node10</title>
<g id="a_node10"><a xlink:href="group__opt__filter.html#gab38b82d0d166363523bbefc4b887f941" target="_top" xlink:title="Initializes the given option iterator oi to point to the beginning of the pdu&#39;s option list.">
<polygon fill="white" stroke="black" points="418,-126.5 418,-145.5 540,-145.5 540,-126.5 418,-126.5"/>
<text text-anchor="middle" x="479" y="-133.5" font-family="Helvetica,sans-Serif" font-size="10.00">coap_option_iterator_init</text>
</a>
</g>
</g>
<!-- Node1&#45;&gt;Node10 -->
<g id="edge24" class="edge">
<title>Node1&#45;&gt;Node10</title>
<path fill="none" stroke="midnightblue" d="M98.27,-119.14C173.87,-122.5 320.57,-129.01 407.84,-132.89"/>
<polygon fill="midnightblue" stroke="midnightblue" points="407.78,-136.39 417.92,-133.33 408.09,-129.39 407.78,-136.39"/>
</g>
<!-- Node11 -->
<g id="node11" class="node">
<title>Node11</title>
<g id="a_node11"><a xlink:href="group__opt__filter.html#ga182fdeffe0b37e1ab0dc6ba8494abe4a" target="_top" xlink:title="Updates the iterator oi to point to the next option.">
<polygon fill="white" stroke="black" points="432.5,-164.5 432.5,-183.5 525.5,-183.5 525.5,-164.5 432.5,-164.5"/>
<text text-anchor="middle" x="479" y="-171.5" font-family="Helvetica,sans-Serif" font-size="10.00">coap_option_next</text>
</a>
</g>
</g>
<!-- Node1&#45;&gt;Node11 -->
<g id="edge25" class="edge">
<title>Node1&#45;&gt;Node11</title>
<path fill="none" stroke="midnightblue" d="M61.68,-126.7C77.19,-139.03 105.9,-160.03 134,-171 237.08,-211.23 271.87,-203.79 382,-193 397.39,-191.49 413.97,-188.66 428.94,-185.62"/>
<polygon fill="midnightblue" stroke="midnightblue" points="429.96,-188.99 439.02,-183.51 428.52,-182.14 429.96,-188.99"/>
</g>
<!-- Node12 -->
<g id="node12" class="node">
<title>Node12</title>
<g id="a_node12"><a xlink:href="option_8c.html#a11de99f50cc9f5a34fd9e4d121ecfd13" target="_top" xlink:title="Parses the option pointed to by opt into result.">
<polygon fill="white" stroke="black" points="589,-221.5 589,-240.5 675,-240.5 675,-221.5 589,-221.5"/>
<text text-anchor="middle" x="632" y="-228.5" font-family="Helvetica,sans-Serif" font-size="10.00">coap_opt_parse</text>
</a>
</g>
</g>
<!-- Node1&#45;&gt;Node12 -->
<g id="edge23" class="edge">
<title>Node1&#45;&gt;Node12</title>
<path fill="none" stroke="midnightblue" d="M56.53,-126.54C69.17,-144.13 98.83,-181.38 134,-198 282.65,-268.24 484.63,-252.35 578.73,-239.52"/>
<polygon fill="midnightblue" stroke="midnightblue" points="579.44,-242.96 588.85,-238.1 578.46,-236.03 579.44,-242.96"/>
</g>
<!-- Node15 -->
<g id="node15" class="node">
<title>Node15</title>
<g id="a_node15"><a xlink:href="group__opt__filter.html#ga358cb455deaefca1b1234298f018c9ab" target="_top" xlink:title="Encodes option with given delta into opt.">
<polygon fill="white" stroke="black" points="274.5,-164.5 274.5,-183.5 367.5,-183.5 367.5,-164.5 274.5,-164.5"/>
<text text-anchor="middle" x="321" y="-171.5" font-family="Helvetica,sans-Serif" font-size="10.00">coap_opt_encode</text>
</a>
</g>
</g>
<!-- Node1&#45;&gt;Node15 -->
<g id="edge21" class="edge">
<title>Node1&#45;&gt;Node15</title>
<path fill="none" stroke="midnightblue" d="M70.24,-126.59C86.97,-134.1 111.54,-144.23 134,-150 176.95,-161.03 226.85,-167.11 264.14,-170.4"/>
<polygon fill="midnightblue" stroke="midnightblue" points="264.05,-173.9 274.31,-171.25 264.64,-166.93 264.05,-173.9"/>
</g>
<!-- Node17 -->
<g id="node17" class="node">
<title>Node17</title>
<g id="a_node17"><a xlink:href="group__opt__filter.html#ga55f19454026048e906139d575feddecb" target="_top" xlink:title="Compute storage bytes needed for an option with given delta and length.">
<polygon fill="white" stroke="black" points="263,-50.5 263,-69.5 379,-69.5 379,-50.5 263,-50.5"/>
<text text-anchor="middle" x="321" y="-57.5" font-family="Helvetica,sans-Serif" font-size="10.00">coap_opt_encode_size</text>
</a>
</g>
</g>
<!-- Node1&#45;&gt;Node17 -->
<g id="edge22" class="edge">
<title>Node1&#45;&gt;Node17</title>
<path fill="none" stroke="midnightblue" d="M66.77,-107.45C83.31,-98.51 109.58,-85.58 134,-79 172.51,-68.62 216.9,-63.83 252.66,-61.65"/>
<polygon fill="midnightblue" stroke="midnightblue" points="253.19,-65.12 262.98,-61.08 252.8,-58.14 253.19,-65.12"/>
</g>
<!-- Node18 -->
<g id="node18" class="node">
<title>Node18</title>
<g id="a_node18"><a xlink:href="pdu_8c.html#a34b8d913366353610f308a36aa762c1c" target="_top" xlink:title="Dynamically grows the size of pdu to new_size if needed.">
<polygon fill="white" stroke="black" points="260,-12.5 260,-31.5 382,-31.5 382,-12.5 260,-12.5"/>
<text text-anchor="middle" x="321" y="-19.5" font-family="Helvetica,sans-Serif" font-size="10.00">coap_pdu_check_resize</text>
</a>
</g>
</g>
<!-- Node1&#45;&gt;Node18 -->
<g id="edge26" class="edge">
<title>Node1&#45;&gt;Node18</title>
<path fill="none" stroke="midnightblue" d="M61.11,-107.31C76.43,-94.47 105.42,-72.05 134,-60 170.63,-44.56 214.02,-35.24 249.68,-29.69"/>
<polygon fill="midnightblue" stroke="midnightblue" points="250.62,-33.09 260,-28.16 249.59,-26.17 250.62,-33.09"/>
</g>
<!-- Node2&#45;&gt;Node1 -->
<g id="edge15" class="edge">
<title>Node2&#45;&gt;Node1</title>
<path fill="none" stroke="midnightblue" d="M151.27,-107.57C138.76,-110.3 123.32,-112.97 108.31,-115.07"/>
<polygon fill="midnightblue" stroke="midnightblue" points="107.48,-111.65 98.03,-116.43 108.4,-118.59 107.48,-111.65"/>
</g>
<!-- Node3 -->
<g id="node3" class="node">
<title>Node3</title>
<g id="a_node3"><a xlink:href="group__opt__filter.html#gad4162a3db83918ae0e4f47b4b3aa523d" target="_top" xlink:title="Retrieves the first option of type type from pdu.">
<polygon fill="white" stroke="black" points="270.5,-88.5 270.5,-107.5 371.5,-107.5 371.5,-88.5 270.5,-88.5"/>
<text text-anchor="middle" x="321" y="-95.5" font-family="Helvetica,sans-Serif" font-size="10.00">coap_check_option</text>
</a>
</g>
</g>
<!-- Node2&#45;&gt;Node3 -->
<g id="edge2" class="edge">
<title>Node2&#45;&gt;Node3</title>
<path fill="none" stroke="midnightblue" d="M224.3,-98C235.57,-98 247.88,-98 259.81,-98"/>
<polygon fill="midnightblue" stroke="midnightblue" points="260.15,-101.5 270.15,-98 260.15,-94.5 260.15,-101.5"/>
</g>
<!-- Node2&#45;&gt;Node15 -->
<g id="edge16" class="edge">
<title>Node2&#45;&gt;Node15</title>
<path fill="none" stroke="midnightblue" d="M197.73,-107.63C221.93,-120.76 265.48,-144.4 293.54,-159.64"/>
<polygon fill="midnightblue" stroke="midnightblue" points="291.95,-162.76 302.41,-164.45 295.29,-156.61 291.95,-162.76"/>
</g>
<!-- Node2&#45;&gt;Node17 -->
<g id="edge18" class="edge">
<title>Node2&#45;&gt;Node17</title>
<path fill="none" stroke="midnightblue" d="M215.33,-88.41C233.4,-83.51 255.6,-77.48 274.89,-72.24"/>
<polygon fill="midnightblue" stroke="midnightblue" points="275.95,-75.58 284.68,-69.59 274.12,-68.83 275.95,-75.58"/>
</g>
<!-- Node2&#45;&gt;Node18 -->
<g id="edge19" class="edge">
<title>Node2&#45;&gt;Node18</title>
<path fill="none" stroke="midnightblue" d="M190.94,-88.49C205.72,-76.07 233.3,-54.33 260,-41 264.35,-38.83 269.01,-36.84 273.73,-35.03"/>
<polygon fill="midnightblue" stroke="midnightblue" points="275.18,-38.23 283.43,-31.58 272.83,-31.63 275.18,-38.23"/>
</g>
<!-- Node4 -->
<g id="node4" class="node">
<title>Node4</title>
<g id="a_node4"><a xlink:href="group__opt__filter.html#ga883885e793388359ef93d195bdbb4c2c" target="_top" xlink:title="Clears filter f.">
<polygon fill="white" stroke="black" points="432.5,-39 432.5,-69 525.5,-69 525.5,-39 432.5,-39"/>
<text text-anchor="start" x="440.5" y="-57" font-family="Helvetica,sans-Serif" font-size="10.00">coap_option_filter</text>
<text text-anchor="middle" x="479" y="-46" font-family="Helvetica,sans-Serif" font-size="10.00">_clear</text>
</a>
</g>
</g>
<!-- Node3&#45;&gt;Node4 -->
<g id="edge3" class="edge">
<title>Node3&#45;&gt;Node4</title>
<path fill="none" stroke="midnightblue" d="M355.85,-88.45C375.36,-82.95 400.38,-75.89 422.68,-69.6"/>
<polygon fill="midnightblue" stroke="midnightblue" points="423.7,-72.95 432.38,-66.87 421.8,-66.21 423.7,-72.95"/>
</g>
<!-- Node5 -->
<g id="node5" class="node">
<title>Node5</title>
<g id="a_node5"><a xlink:href="group__opt__filter.html#ga0170aecd699295f02affd5b280244088" target="_top" xlink:title="Sets the corresponding entry for type in filter.">
<polygon fill="white" stroke="black" points="576,-88.5 576,-107.5 688,-107.5 688,-88.5 576,-88.5"/>
<text text-anchor="middle" x="632" y="-95.5" font-family="Helvetica,sans-Serif" font-size="10.00">coap_option_filter_set</text>
</a>
</g>
</g>
<!-- Node3&#45;&gt;Node5 -->
<g id="edge4" class="edge">
<title>Node3&#45;&gt;Node5</title>
<path fill="none" stroke="midnightblue" d="M371.65,-98C424.27,-98 507.63,-98 565.59,-98"/>
<polygon fill="midnightblue" stroke="midnightblue" points="565.74,-101.5 575.74,-98 565.74,-94.5 565.74,-101.5"/>
</g>
<!-- Node3&#45;&gt;Node10 -->
<g id="edge9" class="edge">
<title>Node3&#45;&gt;Node10</title>
<path fill="none" stroke="midnightblue" d="M361.37,-107.59C381.95,-112.6 407.34,-118.79 429.17,-124.11"/>
<polygon fill="midnightblue" stroke="midnightblue" points="428.37,-127.51 438.92,-126.48 430.03,-120.71 428.37,-127.51"/>
</g>
<!-- Node3&#45;&gt;Node11 -->
<g id="edge10" class="edge">
<title>Node3&#45;&gt;Node11</title>
<path fill="none" stroke="midnightblue" d="M335.77,-107.55C353.93,-119.83 387.22,-141.21 418,-155 422.99,-157.23 428.31,-159.32 433.66,-161.23"/>
<polygon fill="midnightblue" stroke="midnightblue" points="432.63,-164.58 443.23,-164.47 434.88,-157.95 432.63,-164.58"/>
</g>
<!-- Node6 -->
<g id="node6" class="node">
<title>Node6</title>
<g id="a_node6"><a xlink:href="option_8c.html#a4225eb8945afcd42e9d4c50bd7c85ff1" target="_top" xlink:title="Applies op on filter with respect to type.">
<polygon fill="white" stroke="black" points="724,-107.5 724,-126.5 833,-126.5 833,-107.5 724,-107.5"/>
<text text-anchor="middle" x="778.5" y="-114.5" font-family="Helvetica,sans-Serif" font-size="10.00">coap_option_filter_op</text>
</a>
</g>
</g>
<!-- Node5&#45;&gt;Node6 -->
<g id="edge5" class="edge">
<title>Node5&#45;&gt;Node6</title>
<path fill="none" stroke="midnightblue" d="M688.04,-105.24C696.41,-106.34 705.11,-107.48 713.65,-108.6"/>
<polygon fill="midnightblue" stroke="midnightblue" points="713.2,-112.07 723.57,-109.91 714.11,-105.13 713.2,-112.07"/>
</g>
<!-- Node7 -->
<g id="node7" class="node">
<title>Node7</title>
<g id="a_node7"><a xlink:href="encode_8c.html#a671b4261b2d24de8696258a8efb0f359" target="_top" xlink:title=" ">
<polygon fill="white" stroke="black" points="882,-126.5 882,-145.5 935,-145.5 935,-126.5 882,-126.5"/>
<text text-anchor="middle" x="908.5" y="-133.5" font-family="Helvetica,sans-Serif" font-size="10.00">coap_fls</text>
</a>
</g>
</g>
<!-- Node6&#45;&gt;Node7 -->
<g id="edge6" class="edge">
<title>Node6&#45;&gt;Node7</title>
<path fill="none" stroke="midnightblue" d="M833.04,-124.95C846.08,-126.88 859.71,-128.91 871.69,-130.68"/>
<polygon fill="midnightblue" stroke="midnightblue" points="871.33,-134.17 881.74,-132.18 872.36,-127.25 871.33,-134.17"/>
</g>
<!-- Node9 -->
<g id="node9" class="node">
<title>Node9</title>
<g id="a_node9"><a xlink:href="option_8c.html#a2be7abc95dd3dfc1f1f3f4268ce41101" target="_top" xlink:title="Returns true iff type denotes an option type larger than 255.">
<polygon fill="white" stroke="black" points="869,-88.5 869,-107.5 948,-107.5 948,-88.5 869,-88.5"/>
<text text-anchor="middle" x="908.5" y="-95.5" font-family="Helvetica,sans-Serif" font-size="10.00">is_long_option</text>
</a>
</g>
</g>
<!-- Node6&#45;&gt;Node9 -->
<g id="edge8" class="edge">
<title>Node6&#45;&gt;Node9</title>
<path fill="none" stroke="midnightblue" d="M833.04,-109.05C841.61,-107.78 850.44,-106.47 858.89,-105.22"/>
<polygon fill="midnightblue" stroke="midnightblue" points="859.59,-108.65 868.97,-103.72 858.56,-101.73 859.59,-108.65"/>
</g>
<!-- Node8 -->
<g id="node8" class="node">
<title>Node8</title>
<g id="a_node8"><a xlink:href="encode_8c.html#a5732d87decbffe771159ea02a5e25488" target="_top" xlink:title=" ">
<polygon fill="white" stroke="black" points="984,-126.5 984,-145.5 1042,-145.5 1042,-126.5 984,-126.5"/>
<text text-anchor="middle" x="1013" y="-133.5" font-family="Helvetica,sans-Serif" font-size="10.00">coap_flsll</text>
</a>
</g>
</g>
<!-- Node7&#45;&gt;Node8 -->
<g id="edge7" class="edge">
<title>Node7&#45;&gt;Node8</title>
<path fill="none" stroke="midnightblue" d="M935.1,-136C946.8,-136 960.9,-136 973.81,-136"/>
<polygon fill="midnightblue" stroke="midnightblue" points="973.84,-139.5 983.84,-136 973.84,-132.5 973.84,-139.5"/>
</g>
<!-- Node11&#45;&gt;Node12 -->
<g id="edge11" class="edge">
<title>Node11&#45;&gt;Node12</title>
<path fill="none" stroke="midnightblue" d="M511.94,-183.54C521.06,-186.41 530.97,-189.69 540,-193 560.35,-200.45 582.82,-209.82 600.34,-217.4"/>
<polygon fill="midnightblue" stroke="midnightblue" points="598.95,-220.61 609.52,-221.39 601.75,-214.19 598.95,-220.61"/>
</g>
<!-- Node13 -->
<g id="node13" class="node">
<title>Node13</title>
<g id="a_node13"><a xlink:href="group__opt__filter.html#ga3d3a4336ff55e111eae4eb2a1883a98b" target="_top" xlink:title="Checks if type is contained in filter.">
<polygon fill="white" stroke="black" points="576,-126.5 576,-145.5 688,-145.5 688,-126.5 576,-126.5"/>
<text text-anchor="middle" x="632" y="-133.5" font-family="Helvetica,sans-Serif" font-size="10.00">coap_option_filter_get</text>
</a>
</g>
</g>
<!-- Node11&#45;&gt;Node13 -->
<g id="edge12" class="edge">
<title>Node11&#45;&gt;Node13</title>
<path fill="none" stroke="midnightblue" d="M518.1,-164.41C537.94,-159.42 562.38,-153.27 583.45,-147.97"/>
<polygon fill="midnightblue" stroke="midnightblue" points="584.33,-151.35 593.17,-145.52 582.62,-144.57 584.33,-151.35"/>
</g>
<!-- Node14 -->
<g id="node14" class="node">
<title>Node14</title>
<g id="a_node14"><a xlink:href="option_8c.html#a70fa9db0450134640b80cbf7c3720688" target="_top" xlink:title=" ">
<polygon fill="white" stroke="black" points="597.5,-164.5 597.5,-183.5 666.5,-183.5 666.5,-164.5 597.5,-164.5"/>
<text text-anchor="middle" x="632" y="-171.5" font-family="Helvetica,sans-Serif" font-size="10.00">opt_finished</text>
</a>
</g>
</g>
<!-- Node11&#45;&gt;Node14 -->
<g id="edge14" class="edge">
<title>Node11&#45;&gt;Node14</title>
<path fill="none" stroke="midnightblue" d="M525.71,-174C545.29,-174 568.04,-174 587.38,-174"/>
<polygon fill="midnightblue" stroke="midnightblue" points="587.43,-177.5 597.43,-174 587.43,-170.5 587.43,-177.5"/>
</g>
<!-- Node13&#45;&gt;Node6 -->
<g id="edge13" class="edge">
<title>Node13&#45;&gt;Node6</title>
<path fill="none" stroke="midnightblue" d="M688.04,-128.76C696.41,-127.66 705.11,-126.52 713.65,-125.4"/>
<polygon fill="midnightblue" stroke="midnightblue" points="714.11,-128.87 723.57,-124.09 713.2,-121.93 714.11,-128.87"/>
</g>
<!-- Node16 -->
<g id="node16" class="node">
<title>Node16</title>
<g id="a_node16"><a xlink:href="group__opt__filter.html#gafebbd04a7895df694a9345dad0275aeb" target="_top" xlink:title="Encodes the given delta and length values into opt.">
<polygon fill="white" stroke="black" points="427,-202.5 427,-221.5 531,-221.5 531,-202.5 427,-202.5"/>
<text text-anchor="middle" x="479" y="-209.5" font-family="Helvetica,sans-Serif" font-size="10.00">coap_opt_setheader</text>
</a>
</g>
</g>
<!-- Node15&#45;&gt;Node16 -->
<g id="edge17" class="edge">
<title>Node15&#45;&gt;Node16</title>
<path fill="none" stroke="midnightblue" d="M361.37,-183.59C381.95,-188.6 407.34,-194.79 429.17,-200.11"/>
<polygon fill="midnightblue" stroke="midnightblue" points="428.37,-203.51 438.92,-202.48 430.03,-196.71 428.37,-203.51"/>
</g>
<!-- Node19 -->
<g id="node19" class="node">
<title>Node19</title>
<g id="a_node19"><a xlink:href="pdu_8c.html#add46ce956878a4121e8887b84c6d4a6b" target="_top" xlink:title="Dynamically grows the size of pdu to new_size.">
<polygon fill="white" stroke="black" points="434,-0.5 434,-19.5 524,-19.5 524,-0.5 434,-0.5"/>
<text text-anchor="middle" x="479" y="-7.5" font-family="Helvetica,sans-Serif" font-size="10.00">coap_pdu_resize</text>
</a>
</g>
</g>
<!-- Node18&#45;&gt;Node19 -->
<g id="edge20" class="edge">
<title>Node18&#45;&gt;Node19</title>
<path fill="none" stroke="midnightblue" d="M382.31,-17.36C395.98,-16.31 410.41,-15.2 423.8,-14.17"/>
<polygon fill="midnightblue" stroke="midnightblue" points="424.11,-17.66 433.81,-13.4 423.57,-10.68 424.11,-17.66"/>
</g>
</g>
</svg>
        <g id="navigator" transform="translate(0 0)" fill="#404254">
                <rect fill="#f2f5e9" fill-opacity="0.5" stroke="#606060" stroke-width=".5" x="0" y="0" width="60" height="60"/>
                <use id="zoomplus" xlink:href="#zoomPlus" x="17" y="9" onmousedown="handleZoom(evt,'in')"/>
                <use id="zoomminus" xlink:href="#zoomMin" x="42" y="9" onmousedown="handleZoom(evt,'out')"/>
                <use id="reset" xlink:href="#resetDef" x="30" y="36" onmousedown="handleReset()"/>
                <g id="arrowUp" xlink:href="#dirArrow" transform="translate(30 24)" onmousedown="handlePan(0,-1)">
                  <use xlink:href="#rim" fill="#404040">
                        <set attributeName="fill" to="#808080" begin="arrowUp.mouseover" end="arrowUp.mouseout"/>
                  </use>
                  <path fill="none" stroke="white" stroke-width="1.5" d="M0,-3.0v7 M-2.5,-0.5L0,-3.0L2.5,-0.5"/>
                </g>
                <g id="arrowRight" xlink:href="#dirArrow" transform="rotate(90) translate(36 -43)" onmousedown="handlePan(1,0)">
                  <use xlink:href="#rim" fill="#404040">
                        <set attributeName="fill" to="#808080" begin="arrowRight.mouseover" end="arrowRight.mouseout"/>
                  </use>
                  <path fill="none" stroke="white" stroke-width="1.5" d="M0,-3.0v7 M-2.5,-0.5L0,-3.0L2.5,-0.5"/>
                </g>
                <g id="arrowDown" xlink:href="#dirArrow" transform="rotate(180) translate(-30 -48)" onmousedown="handlePan(0,1)">
                  <use xlink:href="#rim" fill="#404040">
                        <set attributeName="fill" to="#808080" begin="arrowDown.mouseover" end="arrowDown.mouseout"/>
                  </use>
                  <path fill="none" stroke="white" stroke-width="1.5" d="M0,-3.0v7 M-2.5,-0.5L0,-3.0L2.5,-0.5"/>
                </g>
                <g id="arrowLeft" xlink:href="#dirArrow" transform="rotate(270) translate(-36 17)" onmousedown="handlePan(-1,0)">
                  <use xlink:href="#rim" fill="#404040">
                        <set attributeName="fill" to="#808080" begin="arrowLeft.mouseover" end="arrowLeft.mouseout"/>
                  </use>
                  <path fill="none" stroke="white" stroke-width="1.5" d="M0,-3.0v7 M-2.5,-0.5L0,-3.0L2.5,-0.5"/>
                </g>
        </g>
        <svg viewBox="0 0 15 15" width="100%" height="30px" preserveAspectRatio="xMaxYMin meet">
         <g id="arrow_out" transform="scale(0.3 0.3)">
          <a xlink:href="pdu_8c_ad655b53faea6d02ac24116ec0956d6e1_cgraph_org.svg" target="_base">
           <rect id="button" ry="5" rx="5" y="6" x="6" height="38" width="38"
                fill="#f2f5e9" fill-opacity="0.5" stroke="#606060" stroke-width="1.0"/>
           <path id="arrow"
             d="M 11.500037,31.436501 C 11.940474,20.09759 22.043105,11.32322 32.158766,21.979434 L 37.068811,17.246167 C 37.068811,17.246167 37.088388,32 37.088388,32 L 22.160133,31.978069 C 22.160133,31.978069 26.997745,27.140456 26.997745,27.140456 C 18.528582,18.264221 13.291696,25.230495 11.500037,31.436501 z"
             style="fill:#404040;"/>
          </a>
         </g>
        </svg>
</svg>
