<?xml version="1.0" encoding="UTF-8" standalone="no"?>
<!DOCTYPE svg PUBLIC "-//W3C//DTD SVG 1.1//EN"
 "http://www.w3.org/Graphics/SVG/1.1/DTD/svg11.dtd">
<!-- Generated by graphviz version 2.43.0 (0)
 -->
<!-- Title: coap_queue_t Pages: 1 -->
<svg width="1547pt" height="727pt"
 viewBox="0.00 0.00 1547.00 726.69" xmlns="http://www.w3.org/2000/svg" xmlns:xlink="http://www.w3.org/1999/xlink">
<g id="graph0" class="graph" transform="scale(1 1) rotate(0) translate(4 722.69)">
<title>coap_queue_t</title>
<polygon fill="white" stroke="transparent" points="-4,4 -4,-722.69 1543,-722.69 1543,4 -4,4"/>
<!-- Node1 -->
<g id="node1" class="node">
<title>Node1</title>
<g id="a_node1"><a xlink:title="Queue entry.">
<polygon fill="#bfbfbf" stroke="black" points="423.5,-199.19 423.5,-218.19 500.5,-218.19 500.5,-199.19 423.5,-199.19"/>
<text text-anchor="middle" x="462" y="-206.19" font-family="Helvetica,sans-Serif" font-size="10.00">coap_queue_t</text>
</a>
</g>
</g>
<!-- Node1&#45;&gt;Node1 -->
<g id="edge1" class="edge">
<title>Node1&#45;&gt;Node1</title>
<path fill="none" stroke="#9a32cd" stroke-dasharray="5,2" d="M441.63,-228.09C442.99,-233 449.78,-236.69 462,-236.69 481.55,-236.69 487.2,-227.25 478.95,-218.44"/>
<polygon fill="#9a32cd" stroke="#9a32cd" points="445.01,-229.04 445.05,-218.44 438.41,-226.7 445.01,-229.04"/>
<text text-anchor="middle" x="462" y="-239.69" font-family="Helvetica,sans-Serif" font-size="10.00"> next</text>
</g>
<!-- Node2 -->
<g id="node2" class="node">
<title>Node2</title>
<g id="a_node2"><a xlink:href="structcoap__session__t.html" target="_top" xlink:title=" ">
<polygon fill="white" stroke="black" points="640.5,-192.19 640.5,-211.19 725.5,-211.19 725.5,-192.19 640.5,-192.19"/>
<text text-anchor="middle" x="683" y="-199.19" font-family="Helvetica,sans-Serif" font-size="10.00">coap_session_t</text>
</a>
</g>
</g>
<!-- Node1&#45;&gt;Node2 -->
<g id="edge4" class="edge">
<title>Node1&#45;&gt;Node2</title>
<path fill="none" stroke="#9a32cd" stroke-dasharray="5,2" d="M511.07,-213.92C541.26,-216.38 580.97,-218.1 616,-214.69 623.9,-213.92 632.27,-212.64 640.28,-211.18"/>
<polygon fill="#9a32cd" stroke="#9a32cd" points="511.08,-210.41 500.81,-213.03 510.47,-217.38 511.08,-210.41"/>
<text text-anchor="middle" x="572.5" y="-218.69" font-family="Helvetica,sans-Serif" font-size="10.00"> delayqueue</text>
</g>
<!-- Node9 -->
<g id="node9" class="node">
<title>Node9</title>
<g id="a_node9"><a xlink:href="structcoap__context__t.html" target="_top" xlink:title="The CoAP stack&#39;s global state is stored in a coap_context_t object.">
<polygon fill="white" stroke="black" points="1245,-252.19 1245,-271.19 1328,-271.19 1328,-252.19 1245,-252.19"/>
<text text-anchor="middle" x="1286.5" y="-259.19" font-family="Helvetica,sans-Serif" font-size="10.00">coap_context_t</text>
</a>
</g>
</g>
<!-- Node1&#45;&gt;Node9 -->
<g id="edge27" class="edge">
<title>Node1&#45;&gt;Node9</title>
<path fill="none" stroke="#9a32cd" stroke-dasharray="5,2" d="M481.22,-225.26C490.58,-234.17 501.89,-245.58 511,-256.69 520.14,-267.84 516.67,-276.2 529,-283.69 613.46,-334.95 651.34,-302.35 750,-307.69 914.35,-316.59 1033.84,-303.48 1227,-274.69 1233.28,-273.75 1239.88,-272.52 1246.31,-271.2"/>
<polygon fill="#9a32cd" stroke="#9a32cd" points="483.61,-222.7 473.92,-218.43 478.83,-227.82 483.61,-222.7"/>
<text text-anchor="middle" x="871" y="-312.69" font-family="Helvetica,sans-Serif" font-size="10.00"> sendqueue</text>
</g>
<!-- Node2&#45;&gt;Node1 -->
<g id="edge2" class="edge">
<title>Node2&#45;&gt;Node1</title>
<path fill="none" stroke="#9a32cd" stroke-dasharray="5,2" d="M630.29,-201.56C600.64,-201.69 562.71,-202.19 529,-203.69 519.82,-204.09 509.93,-204.74 500.67,-205.42"/>
<polygon fill="#9a32cd" stroke="#9a32cd" points="630.43,-205.06 640.42,-201.53 630.41,-198.06 630.43,-205.06"/>
<text text-anchor="middle" x="572.5" y="-206.69" font-family="Helvetica,sans-Serif" font-size="10.00"> session</text>
</g>
<!-- Node2&#45;&gt;Node9 -->
<g id="edge28" class="edge">
<title>Node2&#45;&gt;Node9</title>
<path fill="none" stroke="#9a32cd" stroke-dasharray="5,2" d="M736.09,-209.86C740.79,-210.51 745.48,-211.13 750,-211.69 845.93,-223.42 1136.84,-248.87 1244.7,-258.18"/>
<polygon fill="#9a32cd" stroke="#9a32cd" points="736.24,-206.35 725.85,-208.4 735.25,-213.28 736.24,-206.35"/>
<text text-anchor="middle" x="993" y="-242.69" font-family="Helvetica,sans-Serif" font-size="10.00"> sessions</text>
</g>
<!-- Node12 -->
<g id="node12" class="node">
<title>Node12</title>
<g id="a_node12"><a xlink:href="structcoap__subscription__t.html" target="_top" xlink:title="Subscriber information.">
<polygon fill="white" stroke="black" points="819,-472.19 819,-491.19 923,-491.19 923,-472.19 819,-472.19"/>
<text text-anchor="middle" x="871" y="-479.19" font-family="Helvetica,sans-Serif" font-size="10.00">coap_subscription_t</text>
</a>
</g>
</g>
<!-- Node2&#45;&gt;Node12 -->
<g id="edge20" class="edge">
<title>Node2&#45;&gt;Node12</title>
<path fill="none" stroke="#9a32cd" stroke-dasharray="5,2" d="M691.1,-221.03C707.19,-264.78 745.41,-368.02 750,-374.69 779.62,-417.66 830,-454.95 855,-471.92"/>
<polygon fill="#9a32cd" stroke="#9a32cd" points="694.34,-219.69 687.6,-211.51 687.77,-222.11 694.34,-219.69"/>
<text text-anchor="middle" x="775.5" y="-431.69" font-family="Helvetica,sans-Serif" font-size="10.00"> session</text>
</g>
<!-- Node19 -->
<g id="node19" class="node">
<title>Node19</title>
<g id="a_node19"><a xlink:href="structcoap__cache__entry__t.html" target="_top" xlink:title=" ">
<polygon fill="white" stroke="black" points="819,-357.19 819,-376.19 923,-376.19 923,-357.19 819,-357.19"/>
<text text-anchor="middle" x="871" y="-364.19" font-family="Helvetica,sans-Serif" font-size="10.00">coap_cache_entry_t</text>
</a>
</g>
</g>
<!-- Node2&#45;&gt;Node19 -->
<g id="edge35" class="edge">
<title>Node2&#45;&gt;Node19</title>
<path fill="none" stroke="#9a32cd" stroke-dasharray="5,2" d="M698.7,-219.49C722.09,-247.06 770.15,-300.63 819,-336.69 829.25,-344.25 841.53,-351.53 851.48,-357.02"/>
<polygon fill="#9a32cd" stroke="#9a32cd" points="701.11,-216.92 692,-211.51 695.75,-221.42 701.11,-216.92"/>
<text text-anchor="middle" x="775.5" y="-322.69" font-family="Helvetica,sans-Serif" font-size="10.00"> session</text>
</g>
<!-- Node21 -->
<g id="node21" class="node">
<title>Node21</title>
<g id="a_node21"><a xlink:href="structcoap__async__state__t.html" target="_top" xlink:title=" ">
<polygon fill="white" stroke="black" points="941,-171.19 941,-190.19 1045,-190.19 1045,-171.19 941,-171.19"/>
<text text-anchor="middle" x="993" y="-178.19" font-family="Helvetica,sans-Serif" font-size="10.00">coap_async_state_t</text>
</a>
</g>
</g>
<!-- Node2&#45;&gt;Node21 -->
<g id="edge40" class="edge">
<title>Node2&#45;&gt;Node21</title>
<path fill="none" stroke="#9a32cd" stroke-dasharray="5,2" d="M735.78,-198.16C792.86,-194.27 884.09,-188.04 940.89,-184.17"/>
<polygon fill="#9a32cd" stroke="#9a32cd" points="735.28,-194.68 725.54,-198.86 735.75,-201.67 735.28,-194.68"/>
<text text-anchor="middle" x="775.5" y="-199.69" font-family="Helvetica,sans-Serif" font-size="10.00"> session</text>
</g>
<!-- Node22 -->
<g id="node22" class="node">
<title>Node22</title>
<g id="a_node22"><a xlink:href="structcoap__endpoint__t.html" target="_top" xlink:title="Abstraction of virtual endpoint that can be attached to coap_context_t.">
<polygon fill="white" stroke="black" points="1065,-111.19 1065,-130.19 1153,-130.19 1153,-111.19 1065,-111.19"/>
<text text-anchor="middle" x="1109" y="-118.19" font-family="Helvetica,sans-Serif" font-size="10.00">coap_endpoint_t</text>
</a>
</g>
</g>
<!-- Node2&#45;&gt;Node22 -->
<g id="edge44" class="edge">
<title>Node2&#45;&gt;Node22</title>
<path fill="none" stroke="#9a32cd" stroke-dasharray="5,2" d="M689.25,-182.23C697.56,-155.15 716.37,-106.43 750,-79.69 774.9,-59.89 787.48,-64.95 819,-60.69 918.7,-47.21 952.99,-32.99 1045,-73.69 1054.79,-78.02 1054.58,-83.08 1063,-89.69 1072.71,-97.3 1084.16,-105.17 1093.08,-111.08"/>
<polygon fill="#9a32cd" stroke="#9a32cd" points="685.81,-181.5 686.4,-192.08 692.54,-183.44 685.81,-181.5"/>
<text text-anchor="middle" x="871" y="-63.69" font-family="Helvetica,sans-Serif" font-size="10.00"> sessions</text>
</g>
<!-- Node23 -->
<g id="node23" class="node">
<title>Node23</title>
<g id="a_node23"><a xlink:href="structcoap__socket__t.html" target="_top" xlink:title=" ">
<polygon fill="white" stroke="black" points="831,-132.19 831,-151.19 911,-151.19 911,-132.19 831,-132.19"/>
<text text-anchor="middle" x="871" y="-139.19" font-family="Helvetica,sans-Serif" font-size="10.00">coap_socket_t</text>
</a>
</g>
</g>
<!-- Node2&#45;&gt;Node23 -->
<g id="edge47" class="edge">
<title>Node2&#45;&gt;Node23</title>
<path fill="none" stroke="#9a32cd" stroke-dasharray="5,2" d="M695.07,-183.55C706.47,-166.78 725.95,-142.96 750,-132.69 779.01,-120.29 815.55,-125.65 840.64,-132.13"/>
<polygon fill="#9a32cd" stroke="#9a32cd" points="692.09,-181.71 689.59,-192.01 697.96,-185.52 692.09,-181.71"/>
<text text-anchor="middle" x="775.5" y="-135.69" font-family="Helvetica,sans-Serif" font-size="10.00"> session</text>
</g>
<!-- Node3 -->
<g id="node3" class="node">
<title>Node3</title>
<g id="a_node3"><a xlink:href="structcoap__address__t.html" target="_top" xlink:title="multi&#45;purpose address abstraction">
<polygon fill="white" stroke="black" points="178,-37.19 178,-56.19 264,-56.19 264,-37.19 178,-37.19"/>
<text text-anchor="middle" x="221" y="-44.19" font-family="Helvetica,sans-Serif" font-size="10.00">coap_address_t</text>
</a>
</g>
</g>
<!-- Node3&#45;&gt;Node2 -->
<g id="edge3" class="edge">
<title>Node3&#45;&gt;Node2</title>
<path fill="none" stroke="#9a32cd" stroke-dasharray="5,2" d="M273.03,-35.25C354.54,-20.12 515.17,-3.62 616,-80.69 654.59,-110.18 673.48,-168.99 679.65,-192.07"/>
<polygon fill="#9a32cd" stroke="#9a32cd" points="272.17,-31.85 263.01,-37.17 273.5,-38.72 272.17,-31.85"/>
<text text-anchor="middle" x="462" y="-36.69" font-family="Helvetica,sans-Serif" font-size="10.00"> local_if</text>
</g>
<!-- Node4 -->
<g id="node4" class="node">
<title>Node4</title>
<g id="a_node4"><a xlink:href="structcoap__addr__tuple__t.html" target="_top" xlink:title=" ">
<polygon fill="white" stroke="black" points="414,-76.19 414,-95.19 510,-95.19 510,-76.19 414,-76.19"/>
<text text-anchor="middle" x="462" y="-83.19" font-family="Helvetica,sans-Serif" font-size="10.00">coap_addr_tuple_t</text>
</a>
</g>
</g>
<!-- Node3&#45;&gt;Node4 -->
<g id="edge6" class="edge">
<title>Node3&#45;&gt;Node4</title>
<path fill="none" stroke="#9a32cd" stroke-dasharray="5,2" d="M274.11,-56.79C281.45,-58.15 288.91,-59.48 296,-60.69 335.7,-67.45 380.93,-74.24 413.99,-79.03"/>
<polygon fill="#9a32cd" stroke="#9a32cd" points="274.69,-53.34 264.22,-54.95 273.41,-60.22 274.69,-53.34"/>
<text text-anchor="middle" x="345.5" y="-89.69" font-family="Helvetica,sans-Serif" font-size="10.00"> local</text>
<text text-anchor="middle" x="345.5" y="-78.69" font-family="Helvetica,sans-Serif" font-size="10.00">remote</text>
</g>
<!-- Node3&#45;&gt;Node22 -->
<g id="edge43" class="edge">
<title>Node3&#45;&gt;Node22</title>
<path fill="none" stroke="#9a32cd" stroke-dasharray="5,2" d="M252.43,-33.18C265.59,-27.87 281.31,-22.21 296,-18.69 367.74,-1.5 387.23,-0.69 461,-0.69 461,-0.69 461,-0.69 872,-0.69 951.23,-0.69 985.47,8.6 1045,-43.69 1061.49,-58.18 1049.36,-72.48 1063,-89.69 1069.95,-98.46 1080.06,-105.73 1088.93,-111.02"/>
<polygon fill="#9a32cd" stroke="#9a32cd" points="250.81,-30.07 242.92,-37.14 253.5,-36.53 250.81,-30.07"/>
<text text-anchor="middle" x="683" y="-3.69" font-family="Helvetica,sans-Serif" font-size="10.00"> bind_addr</text>
</g>
<!-- Node4&#45;&gt;Node2 -->
<g id="edge5" class="edge">
<title>Node4&#45;&gt;Node2</title>
<path fill="none" stroke="#9a32cd" stroke-dasharray="5,2" d="M520.12,-84.29C550.57,-85.98 587.51,-92.14 616,-109.69 648.64,-129.79 669.85,-172.65 678.1,-191.93"/>
<polygon fill="#9a32cd" stroke="#9a32cd" points="520.2,-80.79 510.07,-83.87 519.92,-87.78 520.2,-80.79"/>
<text text-anchor="middle" x="572.5" y="-112.69" font-family="Helvetica,sans-Serif" font-size="10.00"> addr_info</text>
</g>
<!-- Node5 -->
<g id="node5" class="node">
<title>Node5</title>
<g id="a_node5"><a xlink:href="structUT__hash__handle.html" target="_top" xlink:title=" ">
<polygon fill="white" stroke="black" points="417,-600.19 417,-619.19 507,-619.19 507,-600.19 417,-600.19"/>
<text text-anchor="middle" x="462" y="-607.19" font-family="Helvetica,sans-Serif" font-size="10.00">UT_hash_handle</text>
</a>
</g>
</g>
<!-- Node5&#45;&gt;Node2 -->
<g id="edge7" class="edge">
<title>Node5&#45;&gt;Node2</title>
<path fill="none" stroke="#9a32cd" stroke-dasharray="5,2" d="M467.46,-590.02C475.54,-557.64 494.96,-492.17 529,-446.69 558.57,-407.18 586.94,-417.58 616,-377.69 617.32,-375.88 664.9,-247.78 678.44,-211.29"/>
<polygon fill="#9a32cd" stroke="#9a32cd" points="464,-589.47 465.08,-600.01 470.81,-591.09 464,-589.47"/>
<text text-anchor="middle" x="572.5" y="-449.69" font-family="Helvetica,sans-Serif" font-size="10.00"> hh</text>
</g>
<!-- Node5&#45;&gt;Node5 -->
<g id="edge8" class="edge">
<title>Node5&#45;&gt;Node5</title>
<path fill="none" stroke="#9a32cd" stroke-dasharray="5,2" d="M441.63,-629.09C442.99,-634 449.78,-637.69 462,-637.69 481.55,-637.69 487.2,-628.25 478.95,-619.44"/>
<polygon fill="#9a32cd" stroke="#9a32cd" points="445.01,-630.04 445.05,-619.44 438.41,-627.7 445.01,-630.04"/>
<text text-anchor="middle" x="462" y="-651.69" font-family="Helvetica,sans-Serif" font-size="10.00"> hh_next</text>
<text text-anchor="middle" x="462" y="-640.69" font-family="Helvetica,sans-Serif" font-size="10.00">hh_prev</text>
</g>
<!-- Node6 -->
<g id="node6" class="node">
<title>Node6</title>
<g id="a_node6"><a xlink:href="structUT__hash__table.html" target="_top" xlink:title=" ">
<polygon fill="white" stroke="black" points="829.5,-662.19 829.5,-681.19 912.5,-681.19 912.5,-662.19 829.5,-662.19"/>
<text text-anchor="middle" x="871" y="-669.19" font-family="Helvetica,sans-Serif" font-size="10.00">UT_hash_table</text>
</a>
</g>
</g>
<!-- Node5&#45;&gt;Node6 -->
<g id="edge12" class="edge">
<title>Node5&#45;&gt;Node6</title>
<path fill="none" stroke="#9a32cd" stroke-dasharray="5,2" d="M474.18,-627.83C485.66,-644.7 505.19,-668.94 529,-680.69 633.36,-732.18 778.42,-699.32 840.21,-681.27"/>
<polygon fill="#9a32cd" stroke="#9a32cd" points="477.04,-625.82 468.65,-619.35 471.17,-629.64 477.04,-625.82"/>
<text text-anchor="middle" x="683" y="-710.69" font-family="Helvetica,sans-Serif" font-size="10.00"> tail</text>
</g>
<!-- Node7 -->
<g id="node7" class="node">
<title>Node7</title>
<g id="a_node7"><a xlink:href="structUT__hash__bucket.html" target="_top" xlink:title=" ">
<polygon fill="white" stroke="black" points="637.5,-662.19 637.5,-681.19 728.5,-681.19 728.5,-662.19 637.5,-662.19"/>
<text text-anchor="middle" x="683" y="-669.19" font-family="Helvetica,sans-Serif" font-size="10.00">UT_hash_bucket</text>
</a>
</g>
</g>
<!-- Node5&#45;&gt;Node7 -->
<g id="edge11" class="edge">
<title>Node5&#45;&gt;Node7</title>
<path fill="none" stroke="#9a32cd" stroke-dasharray="5,2" d="M485.67,-625C497.99,-632.64 513.78,-641.37 529,-646.69 564.31,-659.04 606.39,-665.35 637.47,-668.53"/>
<polygon fill="#9a32cd" stroke="#9a32cd" points="487.3,-621.89 476.99,-619.45 483.52,-627.79 487.3,-621.89"/>
<text text-anchor="middle" x="572.5" y="-668.69" font-family="Helvetica,sans-Serif" font-size="10.00"> hh_head</text>
</g>
<!-- Node10 -->
<g id="node10" class="node">
<title>Node10</title>
<g id="a_node10"><a xlink:href="structcoap__resource__t.html" target="_top" xlink:title=" ">
<polygon fill="white" stroke="black" points="1450,-251.19 1450,-270.19 1539,-270.19 1539,-251.19 1450,-251.19"/>
<text text-anchor="middle" x="1494.5" y="-258.19" font-family="Helvetica,sans-Serif" font-size="10.00">coap_resource_t</text>
</a>
</g>
</g>
<!-- Node5&#45;&gt;Node10 -->
<g id="edge17" class="edge">
<title>Node5&#45;&gt;Node10</title>
<path fill="none" stroke="#9a32cd" stroke-dasharray="5,2" d="M517.27,-600.8C561.49,-594.32 625.61,-586.69 682,-586.69 682,-586.69 682,-586.69 1287.5,-586.69 1441.15,-586.69 1484.87,-324.69 1492.27,-270.44"/>
<polygon fill="#9a32cd" stroke="#9a32cd" points="516.69,-597.34 507.32,-602.28 517.72,-604.27 516.69,-597.34"/>
<text text-anchor="middle" x="993" y="-589.69" font-family="Helvetica,sans-Serif" font-size="10.00"> hh</text>
</g>
<!-- Node5&#45;&gt;Node19 -->
<g id="edge36" class="edge">
<title>Node5&#45;&gt;Node19</title>
<path fill="none" stroke="#9a32cd" stroke-dasharray="5,2" d="M479.63,-593.14C508.46,-565.45 570.72,-509.87 634,-480.69 703.03,-448.85 744.39,-494.42 801,-443.69 819.53,-427.08 802.43,-409.24 819,-390.69 824.54,-384.48 832.03,-379.75 839.55,-376.2"/>
<polygon fill="#9a32cd" stroke="#9a32cd" points="477.14,-590.69 472.41,-600.17 482.02,-595.7 477.14,-590.69"/>
<text text-anchor="middle" x="683" y="-483.69" font-family="Helvetica,sans-Serif" font-size="10.00"> hh</text>
</g>
<!-- Node6&#45;&gt;Node5 -->
<g id="edge9" class="edge">
<title>Node6&#45;&gt;Node5</title>
<path fill="none" stroke="#9a32cd" stroke-dasharray="5,2" d="M820.86,-659.81C794.61,-653.76 761.67,-646.67 732,-641.69 653.38,-628.5 560.94,-618.74 507.45,-613.66"/>
<polygon fill="#9a32cd" stroke="#9a32cd" points="820.4,-663.29 830.93,-662.15 821.99,-656.48 820.4,-663.29"/>
<text text-anchor="middle" x="683" y="-644.69" font-family="Helvetica,sans-Serif" font-size="10.00"> tbl</text>
</g>
<!-- Node7&#45;&gt;Node6 -->
<g id="edge10" class="edge">
<title>Node7&#45;&gt;Node6</title>
<path fill="none" stroke="#9a32cd" stroke-dasharray="5,2" d="M738.92,-671.69C767.88,-671.69 802.79,-671.69 829.3,-671.69"/>
<polygon fill="#9a32cd" stroke="#9a32cd" points="738.55,-668.19 728.55,-671.69 738.55,-675.19 738.55,-668.19"/>
<text text-anchor="middle" x="775.5" y="-674.69" font-family="Helvetica,sans-Serif" font-size="10.00"> buckets</text>
</g>
<!-- Node8 -->
<g id="node8" class="node">
<title>Node8</title>
<g id="a_node8"><a xlink:href="structcoap__pdu__t.html" target="_top" xlink:title="structure for CoAP PDUs token, if any, follows the fixed size header, then options until payload mark...">
<polygon fill="white" stroke="black" points="187.5,-199.19 187.5,-218.19 254.5,-218.19 254.5,-199.19 187.5,-199.19"/>
<text text-anchor="middle" x="221" y="-206.19" font-family="Helvetica,sans-Serif" font-size="10.00">coap_pdu_t</text>
</a>
</g>
</g>
<!-- Node8&#45;&gt;Node1 -->
<g id="edge57" class="edge">
<title>Node8&#45;&gt;Node1</title>
<path fill="none" stroke="#9a32cd" stroke-dasharray="5,2" d="M264.77,-208.69C309.82,-208.69 380.06,-208.69 423.15,-208.69"/>
<polygon fill="#9a32cd" stroke="#9a32cd" points="264.73,-205.19 254.73,-208.69 264.73,-212.19 264.73,-205.19"/>
<text text-anchor="middle" x="345.5" y="-211.69" font-family="Helvetica,sans-Serif" font-size="10.00"> pdu</text>
</g>
<!-- Node8&#45;&gt;Node2 -->
<g id="edge13" class="edge">
<title>Node8&#45;&gt;Node2</title>
<path fill="none" stroke="#9a32cd" stroke-dasharray="5,2" d="M264.44,-200.08C303,-192.72 361.55,-182.7 413,-178.69 456.42,-175.3 467.54,-175.78 511,-178.69 555.38,-181.66 605.82,-188.92 640.34,-194.5"/>
<polygon fill="#9a32cd" stroke="#9a32cd" points="263.75,-196.64 254.6,-201.98 265.08,-203.52 263.75,-196.64"/>
<text text-anchor="middle" x="462" y="-181.69" font-family="Helvetica,sans-Serif" font-size="10.00"> partial_pdu</text>
</g>
<!-- Node8&#45;&gt;Node19 -->
<g id="edge37" class="edge">
<title>Node8&#45;&gt;Node19</title>
<path fill="none" stroke="#9a32cd" stroke-dasharray="5,2" d="M252.2,-222.55C289.77,-239.73 355.94,-269.79 413,-294.69 464.3,-317.07 475.82,-326.26 529,-343.69 531.85,-344.62 631.03,-368.27 634,-368.69 707.55,-378.93 726.84,-377.44 801,-373.69 806.77,-373.4 812.81,-372.97 818.8,-372.46"/>
<polygon fill="#9a32cd" stroke="#9a32cd" points="253.39,-219.24 242.84,-218.26 250.48,-225.61 253.39,-219.24"/>
<text text-anchor="middle" x="572.5" y="-366.69" font-family="Helvetica,sans-Serif" font-size="10.00"> pdu</text>
</g>
<!-- Node9&#45;&gt;Node2 -->
<g id="edge14" class="edge">
<title>Node9&#45;&gt;Node2</title>
<path fill="none" stroke="#9a32cd" stroke-dasharray="5,2" d="M1234.61,-261.37C1167.39,-260.85 1045.29,-259.58 941,-256.69 886.75,-255.18 873.22,-253.98 819,-251.69 788.33,-250.39 779.03,-258.67 750,-248.69 727.39,-240.91 705.7,-222.74 693.68,-211.4"/>
<polygon fill="#9a32cd" stroke="#9a32cd" points="1234.9,-264.87 1244.92,-261.45 1234.95,-257.87 1234.9,-264.87"/>
<text text-anchor="middle" x="993" y="-261.69" font-family="Helvetica,sans-Serif" font-size="10.00"> context</text>
</g>
<!-- Node9&#45;&gt;Node9 -->
<g id="edge29" class="edge">
<title>Node9&#45;&gt;Node9</title>
<path fill="none" stroke="#9a32cd" stroke-dasharray="5,2" d="M1270.57,-281.09C1271.64,-286 1276.95,-289.69 1286.5,-289.69 1301.79,-289.69 1306.2,-280.25 1299.76,-271.44"/>
<polygon fill="#9a32cd" stroke="#9a32cd" points="1273.95,-282.02 1273.24,-271.44 1267.2,-280.15 1273.95,-282.02"/>
<text text-anchor="middle" x="1286.5" y="-336.69" font-family="Helvetica,sans-Serif" font-size="10.00"> handle_event</text>
<text text-anchor="middle" x="1286.5" y="-325.69" font-family="Helvetica,sans-Serif" font-size="10.00">nack_handler</text>
<text text-anchor="middle" x="1286.5" y="-314.69" font-family="Helvetica,sans-Serif" font-size="10.00">ping_handler</text>
<text text-anchor="middle" x="1286.5" y="-303.69" font-family="Helvetica,sans-Serif" font-size="10.00">pong_handler</text>
<text text-anchor="middle" x="1286.5" y="-292.69" font-family="Helvetica,sans-Serif" font-size="10.00">response_handler</text>
</g>
<!-- Node9&#45;&gt;Node10 -->
<g id="edge18" class="edge">
<title>Node9&#45;&gt;Node10</title>
<path fill="none" stroke="#9a32cd" stroke-dasharray="5,2" d="M1313.5,-247.34C1323.37,-242.65 1334.91,-238.04 1346,-235.69 1383.39,-227.75 1394.49,-228.35 1432,-235.69 1447.16,-238.65 1463.3,-245.36 1475.24,-251.08"/>
<polygon fill="#9a32cd" stroke="#9a32cd" points="1311.63,-244.36 1304.26,-251.97 1314.77,-250.61 1311.63,-244.36"/>
<text text-anchor="middle" x="1389" y="-249.69" font-family="Helvetica,sans-Serif" font-size="10.00"> context</text>
<text text-anchor="middle" x="1389" y="-238.69" font-family="Helvetica,sans-Serif" font-size="10.00">handler</text>
</g>
<!-- Node9&#45;&gt;Node22 -->
<g id="edge45" class="edge">
<title>Node9&#45;&gt;Node22</title>
<path fill="none" stroke="#9a32cd" stroke-dasharray="5,2" d="M1281.56,-242.01C1275.1,-215.13 1259.56,-167.43 1227,-142.69 1206.1,-126.8 1177.14,-121.27 1153.27,-119.72"/>
<polygon fill="#9a32cd" stroke="#9a32cd" points="1278.22,-243.13 1283.8,-252.13 1285.06,-241.61 1278.22,-243.13"/>
<text text-anchor="middle" x="1200" y="-145.69" font-family="Helvetica,sans-Serif" font-size="10.00"> context</text>
</g>
<!-- Node10&#45;&gt;Node9 -->
<g id="edge15" class="edge">
<title>Node10&#45;&gt;Node9</title>
<path fill="none" stroke="#9a32cd" stroke-dasharray="5,2" d="M1439.71,-261.61C1437.1,-261.64 1434.52,-261.67 1432,-261.69 1397.01,-261.97 1357.24,-261.95 1328.3,-261.86"/>
<polygon fill="#9a32cd" stroke="#9a32cd" points="1439.87,-265.11 1449.83,-261.48 1439.78,-258.11 1439.87,-265.11"/>
<text text-anchor="middle" x="1389" y="-286.69" font-family="Helvetica,sans-Serif" font-size="10.00"> proxy_uri_resource</text>
<text text-anchor="middle" x="1389" y="-275.69" font-family="Helvetica,sans-Serif" font-size="10.00">resources</text>
<text text-anchor="middle" x="1389" y="-264.69" font-family="Helvetica,sans-Serif" font-size="10.00">unknown_resource</text>
</g>
<!-- Node11 -->
<g id="node11" class="node">
<title>Node11</title>
<g id="a_node11"><a xlink:href="structcoap__str__const__t.html" target="_top" xlink:title="CoAP string data definition with const data.">
<polygon fill="white" stroke="black" points="1063,-61.19 1063,-80.19 1155,-80.19 1155,-61.19 1063,-61.19"/>
<text text-anchor="middle" x="1109" y="-68.19" font-family="Helvetica,sans-Serif" font-size="10.00">coap_str_const_t</text>
</a>
</g>
</g>
<!-- Node11&#45;&gt;Node10 -->
<g id="edge16" class="edge">
<title>Node11&#45;&gt;Node10</title>
<path fill="none" stroke="#9a32cd" stroke-dasharray="5,2" d="M1140.67,-84.48C1198.39,-110.66 1326.82,-169.91 1432,-225.69 1447.52,-233.92 1464.89,-243.87 1477.2,-251.06"/>
<polygon fill="#9a32cd" stroke="#9a32cd" points="1141.94,-81.21 1131.38,-80.28 1139.05,-87.59 1141.94,-81.21"/>
<text text-anchor="middle" x="1286.5" y="-184.69" font-family="Helvetica,sans-Serif" font-size="10.00"> proxy_name_list</text>
<text text-anchor="middle" x="1286.5" y="-173.69" font-family="Helvetica,sans-Serif" font-size="10.00">uri_path</text>
</g>
<!-- Node15 -->
<g id="node15" class="node">
<title>Node15</title>
<g id="a_node15"><a xlink:href="structcoap__attr__t.html" target="_top" xlink:title=" ">
<polygon fill="white" stroke="black" points="1254,-26.19 1254,-45.19 1319,-45.19 1319,-26.19 1254,-26.19"/>
<text text-anchor="middle" x="1286.5" y="-33.19" font-family="Helvetica,sans-Serif" font-size="10.00">coap_attr_t</text>
</a>
</g>
</g>
<!-- Node11&#45;&gt;Node15 -->
<g id="edge25" class="edge">
<title>Node11&#45;&gt;Node15</title>
<path fill="none" stroke="#9a32cd" stroke-dasharray="5,2" d="M1165.25,-59.67C1194.4,-53.86 1229.12,-46.93 1253.74,-42.02"/>
<polygon fill="#9a32cd" stroke="#9a32cd" points="1164.32,-56.29 1155.2,-61.67 1165.69,-63.15 1164.32,-56.29"/>
<text text-anchor="middle" x="1200" y="-70.69" font-family="Helvetica,sans-Serif" font-size="10.00"> name</text>
<text text-anchor="middle" x="1200" y="-59.69" font-family="Helvetica,sans-Serif" font-size="10.00">value</text>
</g>
<!-- Node12&#45;&gt;Node10 -->
<g id="edge19" class="edge">
<title>Node12&#45;&gt;Node10</title>
<path fill="none" stroke="#9a32cd" stroke-dasharray="5,2" d="M933.58,-479.62C1005.91,-475.51 1128.5,-463.25 1227,-426.69 1335.08,-386.57 1446.48,-299.44 1481.94,-270.35"/>
<polygon fill="#9a32cd" stroke="#9a32cd" points="933.09,-476.14 923.29,-480.17 933.46,-483.13 933.09,-476.14"/>
<text text-anchor="middle" x="1200" y="-446.69" font-family="Helvetica,sans-Serif" font-size="10.00"> subscribers</text>
</g>
<!-- Node12&#45;&gt;Node12 -->
<g id="edge22" class="edge">
<title>Node12&#45;&gt;Node12</title>
<path fill="none" stroke="#9a32cd" stroke-dasharray="5,2" d="M853.59,-501.09C854.76,-506 860.56,-509.69 871,-509.69 887.71,-509.69 892.54,-500.25 885.49,-491.44"/>
<polygon fill="#9a32cd" stroke="#9a32cd" points="856.97,-502.03 856.51,-491.44 850.27,-500 856.97,-502.03"/>
<text text-anchor="middle" x="871" y="-512.69" font-family="Helvetica,sans-Serif" font-size="10.00"> next</text>
</g>
<!-- Node13 -->
<g id="node13" class="node">
<title>Node13</title>
<g id="a_node13"><a xlink:href="structcoap__block__t.html" target="_top" xlink:title="Structure of Block options.">
<polygon fill="white" stroke="black" points="646,-539.19 646,-558.19 720,-558.19 720,-539.19 646,-539.19"/>
<text text-anchor="middle" x="683" y="-546.19" font-family="Helvetica,sans-Serif" font-size="10.00">coap_block_t</text>
</a>
</g>
</g>
<!-- Node13&#45;&gt;Node12 -->
<g id="edge21" class="edge">
<title>Node13&#45;&gt;Node12</title>
<path fill="none" stroke="#9a32cd" stroke-dasharray="5,2" d="M729.71,-536.66C751.54,-530.5 777.88,-522.46 801,-513.69 818.41,-507.09 837.57,-498.05 851.28,-491.26"/>
<polygon fill="#9a32cd" stroke="#9a32cd" points="728.73,-533.3 720.03,-539.35 730.6,-540.04 728.73,-533.3"/>
<text text-anchor="middle" x="775.5" y="-533.69" font-family="Helvetica,sans-Serif" font-size="10.00"> block2</text>
</g>
<!-- Node14 -->
<g id="node14" class="node">
<title>Node14</title>
<g id="a_node14"><a xlink:href="structcoap__string__t.html" target="_top" xlink:title="CoAP string data definition.">
<polygon fill="white" stroke="black" points="645.5,-501.19 645.5,-520.19 720.5,-520.19 720.5,-501.19 645.5,-501.19"/>
<text text-anchor="middle" x="683" y="-508.19" font-family="Helvetica,sans-Serif" font-size="10.00">coap_string_t</text>
</a>
</g>
</g>
<!-- Node14&#45;&gt;Node12 -->
<g id="edge23" class="edge">
<title>Node14&#45;&gt;Node12</title>
<path fill="none" stroke="#9a32cd" stroke-dasharray="5,2" d="M730.68,-503.41C757.54,-499.22 791.32,-493.95 818.9,-489.66"/>
<polygon fill="#9a32cd" stroke="#9a32cd" points="730.09,-499.96 720.75,-504.96 731.17,-506.88 730.09,-499.96"/>
<text text-anchor="middle" x="775.5" y="-501.69" font-family="Helvetica,sans-Serif" font-size="10.00"> query</text>
</g>
<!-- Node15&#45;&gt;Node10 -->
<g id="edge24" class="edge">
<title>Node15&#45;&gt;Node10</title>
<path fill="none" stroke="#9a32cd" stroke-dasharray="5,2" d="M1328.98,-40.23C1361.02,-45.82 1404.41,-58.23 1432,-85.69 1480.16,-133.62 1490.71,-221.42 1492.93,-250.81"/>
<polygon fill="#9a32cd" stroke="#9a32cd" points="1329.44,-36.76 1319.01,-38.65 1328.34,-43.67 1329.44,-36.76"/>
<text text-anchor="middle" x="1389" y="-88.69" font-family="Helvetica,sans-Serif" font-size="10.00"> link_attr</text>
</g>
<!-- Node15&#45;&gt;Node15 -->
<g id="edge26" class="edge">
<title>Node15&#45;&gt;Node15</title>
<path fill="none" stroke="#9a32cd" stroke-dasharray="5,2" d="M1270.57,-55.09C1271.64,-60 1276.95,-63.69 1286.5,-63.69 1301.79,-63.69 1306.2,-54.25 1299.76,-45.44"/>
<polygon fill="#9a32cd" stroke="#9a32cd" points="1273.95,-56.02 1273.24,-45.44 1267.2,-54.15 1273.95,-56.02"/>
<text text-anchor="middle" x="1286.5" y="-66.69" font-family="Helvetica,sans-Serif" font-size="10.00"> next</text>
</g>
<!-- Node16 -->
<g id="node16" class="node">
<title>Node16</title>
<g id="a_node16"><a xlink:href="structcoap__dtls__spsk__t.html" target="_top" xlink:title="The structure used for defining the Server PSK setup data to be used.">
<polygon fill="white" stroke="black" points="415.5,-416.19 415.5,-435.19 508.5,-435.19 508.5,-416.19 415.5,-416.19"/>
<text text-anchor="middle" x="462" y="-423.19" font-family="Helvetica,sans-Serif" font-size="10.00">coap_dtls_spsk_t</text>
</a>
</g>
</g>
<!-- Node16&#45;&gt;Node9 -->
<g id="edge30" class="edge">
<title>Node16&#45;&gt;Node9</title>
<path fill="none" stroke="#9a32cd" stroke-dasharray="5,2" d="M518.89,-425.5C661.21,-424.61 1034.54,-419.62 1155,-391.69 1188.94,-383.82 1200.85,-383.71 1227,-360.69 1256.37,-334.83 1275.06,-290.54 1282.21,-271.19"/>
<polygon fill="#9a32cd" stroke="#9a32cd" points="518.62,-422 508.64,-425.56 518.66,-429 518.62,-422"/>
<text text-anchor="middle" x="871" y="-421.69" font-family="Helvetica,sans-Serif" font-size="10.00"> spsk_setup_data</text>
</g>
<!-- Node17 -->
<g id="node17" class="node">
<title>Node17</title>
<g id="a_node17"><a xlink:href="structcoap__dtls__spsk__info__t.html" target="_top" xlink:title="The structure that holds the Server Pre&#45;Shared Key and Identity Hint information.">
<polygon fill="white" stroke="black" points="164,-429.19 164,-448.19 278,-448.19 278,-429.19 164,-429.19"/>
<text text-anchor="middle" x="221" y="-436.19" font-family="Helvetica,sans-Serif" font-size="10.00">coap_dtls_spsk_info_t</text>
</a>
</g>
</g>
<!-- Node17&#45;&gt;Node16 -->
<g id="edge31" class="edge">
<title>Node17&#45;&gt;Node16</title>
<path fill="none" stroke="#9a32cd" stroke-dasharray="5,2" d="M288.09,-435.09C328.55,-432.89 379.3,-430.13 415.33,-428.17"/>
<polygon fill="#9a32cd" stroke="#9a32cd" points="287.83,-431.6 278.03,-435.64 288.21,-438.59 287.83,-431.6"/>
<text text-anchor="middle" x="345.5" y="-447.69" font-family="Helvetica,sans-Serif" font-size="10.00"> psk_info</text>
<text text-anchor="middle" x="345.5" y="-436.69" font-family="Helvetica,sans-Serif" font-size="10.00">validate_sni_call_back</text>
</g>
<!-- Node18 -->
<g id="node18" class="node">
<title>Node18</title>
<g id="a_node18"><a xlink:href="structcoap__bin__const__t.html" target="_top" xlink:title="CoAP binary data definition with const data.">
<polygon fill="white" stroke="black" points="0,-366.19 0,-385.19 93,-385.19 93,-366.19 0,-366.19"/>
<text text-anchor="middle" x="46.5" y="-373.19" font-family="Helvetica,sans-Serif" font-size="10.00">coap_bin_const_t</text>
</a>
</g>
</g>
<!-- Node18&#45;&gt;Node2 -->
<g id="edge50" class="edge">
<title>Node18&#45;&gt;Node2</title>
<path fill="none" stroke="#9a32cd" stroke-dasharray="5,2" d="M103.19,-371.75C228.65,-362.07 529.2,-334.17 616,-283.69 646.33,-266.05 668.29,-228.74 677.37,-211.19"/>
<polygon fill="#9a32cd" stroke="#9a32cd" points="102.74,-368.27 93.04,-372.52 103.27,-375.25 102.74,-368.27"/>
<text text-anchor="middle" x="345.5" y="-377.69" font-family="Helvetica,sans-Serif" font-size="10.00"> psk_hint</text>
<text text-anchor="middle" x="345.5" y="-366.69" font-family="Helvetica,sans-Serif" font-size="10.00">psk_identity</text>
<text text-anchor="middle" x="345.5" y="-355.69" font-family="Helvetica,sans-Serif" font-size="10.00">psk_key</text>
</g>
<!-- Node18&#45;&gt;Node16 -->
<g id="edge33" class="edge">
<title>Node18&#45;&gt;Node16</title>
<path fill="none" stroke="#9a32cd" stroke-dasharray="5,2" d="M103.28,-382.43C185.83,-392.41 338.95,-410.93 415.28,-420.16"/>
<polygon fill="#9a32cd" stroke="#9a32cd" points="103.68,-378.95 93.33,-381.23 102.84,-385.9 103.68,-378.95"/>
<text text-anchor="middle" x="221" y="-405.69" font-family="Helvetica,sans-Serif" font-size="10.00"> validate_id_call_back</text>
</g>
<!-- Node18&#45;&gt;Node17 -->
<g id="edge32" class="edge">
<title>Node18&#45;&gt;Node17</title>
<path fill="none" stroke="#9a32cd" stroke-dasharray="5,2" d="M69.32,-391.08C81.18,-398.83 96.37,-407.8 111,-413.69 127.66,-420.39 146.51,-425.51 163.8,-429.32"/>
<polygon fill="#9a32cd" stroke="#9a32cd" points="71.22,-388.14 60.97,-385.46 67.31,-393.95 71.22,-388.14"/>
<text text-anchor="middle" x="128.5" y="-438.69" font-family="Helvetica,sans-Serif" font-size="10.00"> hint</text>
<text text-anchor="middle" x="128.5" y="-427.69" font-family="Helvetica,sans-Serif" font-size="10.00">key</text>
</g>
<!-- Node25 -->
<g id="node25" class="node">
<title>Node25</title>
<g id="a_node25"><a xlink:href="structcoap__dtls__cpsk__info__t.html" target="_top" xlink:title="The structure that holds the Client PSK information.">
<polygon fill="white" stroke="black" points="164,-138.19 164,-157.19 278,-157.19 278,-138.19 164,-138.19"/>
<text text-anchor="middle" x="221" y="-145.19" font-family="Helvetica,sans-Serif" font-size="10.00">coap_dtls_cpsk_info_t</text>
</a>
</g>
</g>
<!-- Node18&#45;&gt;Node25 -->
<g id="edge53" class="edge">
<title>Node18&#45;&gt;Node25</title>
<path fill="none" stroke="#9a32cd" stroke-dasharray="5,2" d="M56.41,-356.75C73.69,-321.27 114.47,-243.55 164,-189.69 175.84,-176.8 192.08,-165.13 204.02,-157.37"/>
<polygon fill="#9a32cd" stroke="#9a32cd" points="53.16,-355.42 51.99,-365.95 59.47,-358.45 53.16,-355.42"/>
<text text-anchor="middle" x="128.5" y="-269.69" font-family="Helvetica,sans-Serif" font-size="10.00"> identity</text>
<text text-anchor="middle" x="128.5" y="-258.69" font-family="Helvetica,sans-Serif" font-size="10.00">key</text>
</g>
<!-- Node19&#45;&gt;Node9 -->
<g id="edge34" class="edge">
<title>Node19&#45;&gt;Node9</title>
<path fill="none" stroke="#9a32cd" stroke-dasharray="5,2" d="M933.3,-375.38C1007.54,-382.88 1134.16,-385.74 1227,-335.69 1254.24,-321 1273.15,-287.66 1281.17,-271.22"/>
<polygon fill="#9a32cd" stroke="#9a32cd" points="933.5,-371.88 923.18,-374.29 932.75,-378.84 933.5,-371.88"/>
<text text-anchor="middle" x="1109" y="-379.69" font-family="Helvetica,sans-Serif" font-size="10.00"> cache</text>
</g>
<!-- Node20 -->
<g id="node20" class="node">
<title>Node20</title>
<g id="a_node20"><a xlink:href="structcoap__cache__key__t.html" target="_top" xlink:title=" ">
<polygon fill="white" stroke="black" points="634,-340.19 634,-359.19 732,-359.19 732,-340.19 634,-340.19"/>
<text text-anchor="middle" x="683" y="-347.19" font-family="Helvetica,sans-Serif" font-size="10.00">coap_cache_key_t</text>
</a>
</g>
</g>
<!-- Node20&#45;&gt;Node19 -->
<g id="edge38" class="edge">
<title>Node20&#45;&gt;Node19</title>
<path fill="none" stroke="#9a32cd" stroke-dasharray="5,2" d="M742.63,-355.05C767.12,-357.28 795.31,-359.86 818.93,-362.02"/>
<polygon fill="#9a32cd" stroke="#9a32cd" points="742.66,-351.53 732.38,-354.11 742.02,-358.51 742.66,-351.53"/>
<text text-anchor="middle" x="775.5" y="-362.69" font-family="Helvetica,sans-Serif" font-size="10.00"> cache_key</text>
</g>
<!-- Node21&#45;&gt;Node9 -->
<g id="edge39" class="edge">
<title>Node21&#45;&gt;Node9</title>
<path fill="none" stroke="#9a32cd" stroke-dasharray="5,2" d="M1055.46,-188.04C1103.3,-195.01 1170.79,-207.63 1227,-228.69 1242.94,-234.66 1259.73,-244.55 1271.21,-251.95"/>
<polygon fill="#9a32cd" stroke="#9a32cd" points="1055.66,-184.53 1045.26,-186.59 1054.67,-191.46 1055.66,-184.53"/>
<text text-anchor="middle" x="1109" y="-208.69" font-family="Helvetica,sans-Serif" font-size="10.00"> async_state</text>
</g>
<!-- Node21&#45;&gt;Node21 -->
<g id="edge41" class="edge">
<title>Node21&#45;&gt;Node21</title>
<path fill="none" stroke="#9a32cd" stroke-dasharray="5,2" d="M971.52,-200.09C972.95,-205 980.11,-208.69 993,-208.69 1013.62,-208.69 1019.58,-199.25 1010.88,-190.44"/>
<polygon fill="#9a32cd" stroke="#9a32cd" points="974.9,-201.04 975.12,-190.44 968.34,-198.59 974.9,-201.04"/>
<text text-anchor="middle" x="993" y="-211.69" font-family="Helvetica,sans-Serif" font-size="10.00"> next</text>
</g>
<!-- Node22&#45;&gt;Node2 -->
<g id="edge56" class="edge">
<title>Node22&#45;&gt;Node2</title>
<path fill="none" stroke="#9a32cd" stroke-dasharray="5,2" d="M1066.72,-108.51C996.57,-90.34 851.81,-63.95 750,-120.69 719.74,-137.55 697.89,-174.34 688.75,-191.93"/>
<polygon fill="#9a32cd" stroke="#9a32cd" points="1065.95,-111.93 1076.51,-111.12 1067.75,-105.16 1065.95,-111.93"/>
<text text-anchor="middle" x="871" y="-97.69" font-family="Helvetica,sans-Serif" font-size="10.00"> endpoint</text>
</g>
<!-- Node22&#45;&gt;Node9 -->
<g id="edge42" class="edge">
<title>Node22&#45;&gt;Node9</title>
<path fill="none" stroke="#9a32cd" stroke-dasharray="5,2" d="M1135.04,-135.39C1146.47,-141.89 1160.27,-149.46 1173,-155.69 1196.43,-167.15 1206.71,-162.29 1227,-178.69 1253.05,-199.74 1272.66,-235.26 1281.03,-252.18"/>
<polygon fill="#9a32cd" stroke="#9a32cd" points="1136.48,-132.18 1126.07,-130.23 1132.99,-138.25 1136.48,-132.18"/>
<text text-anchor="middle" x="1200" y="-181.69" font-family="Helvetica,sans-Serif" font-size="10.00"> endpoint</text>
</g>
<!-- Node22&#45;&gt;Node22 -->
<g id="edge49" class="edge">
<title>Node22&#45;&gt;Node22</title>
<path fill="none" stroke="#9a32cd" stroke-dasharray="5,2" d="M1092.33,-140.09C1093.45,-145 1099,-148.69 1109,-148.69 1125,-148.69 1129.62,-139.25 1122.87,-130.44"/>
<polygon fill="#9a32cd" stroke="#9a32cd" points="1095.71,-141.02 1095.13,-130.44 1088.98,-139.08 1095.71,-141.02"/>
<text text-anchor="middle" x="1109" y="-151.69" font-family="Helvetica,sans-Serif" font-size="10.00"> next</text>
</g>
<!-- Node22&#45;&gt;Node23 -->
<g id="edge48" class="edge">
<title>Node22&#45;&gt;Node23</title>
<path fill="none" stroke="#9a32cd" stroke-dasharray="5,2" d="M1054.8,-131.35C1051.49,-131.85 1048.21,-132.3 1045,-132.69 999.32,-138.2 946.44,-140.34 911.29,-141.17"/>
<polygon fill="#9a32cd" stroke="#9a32cd" points="1055.43,-134.79 1064.74,-129.73 1054.31,-127.88 1055.43,-134.79"/>
<text text-anchor="middle" x="993" y="-142.69" font-family="Helvetica,sans-Serif" font-size="10.00"> endpoint</text>
</g>
<!-- Node23&#45;&gt;Node2 -->
<g id="edge55" class="edge">
<title>Node23&#45;&gt;Node2</title>
<path fill="none" stroke="#9a32cd" stroke-dasharray="5,2" d="M820.73,-148.72C798.69,-152.68 772.64,-158.51 750,-166.69 731.7,-173.29 712.19,-184.17 699.16,-192.05"/>
<polygon fill="#9a32cd" stroke="#9a32cd" points="821.6,-152.12 830.86,-146.98 820.41,-145.22 821.6,-152.12"/>
<text text-anchor="middle" x="775.5" y="-169.69" font-family="Helvetica,sans-Serif" font-size="10.00"> sock</text>
</g>
<!-- Node23&#45;&gt;Node22 -->
<g id="edge46" class="edge">
<title>Node23&#45;&gt;Node22</title>
<path fill="none" stroke="#9a32cd" stroke-dasharray="5,2" d="M908.15,-129.18C918.62,-126.11 930.15,-123.26 941,-121.69 982.75,-115.63 1030.99,-116.14 1064.85,-117.7"/>
<polygon fill="#9a32cd" stroke="#9a32cd" points="907.02,-125.86 898.49,-132.15 909.08,-132.55 907.02,-125.86"/>
<text text-anchor="middle" x="993" y="-124.69" font-family="Helvetica,sans-Serif" font-size="10.00"> sock</text>
</g>
<!-- Node24 -->
<g id="node24" class="node">
<title>Node24</title>
<g id="a_node24"><a xlink:href="structcoap__dtls__cpsk__t.html" target="_top" xlink:title="The structure used for defining the Client PSK setup data to be used.">
<polygon fill="white" stroke="black" points="415.5,-114.19 415.5,-133.19 508.5,-133.19 508.5,-114.19 415.5,-114.19"/>
<text text-anchor="middle" x="462" y="-121.19" font-family="Helvetica,sans-Serif" font-size="10.00">coap_dtls_cpsk_t</text>
</a>
</g>
</g>
<!-- Node24&#45;&gt;Node2 -->
<g id="edge51" class="edge">
<title>Node24&#45;&gt;Node2</title>
<path fill="none" stroke="#9a32cd" stroke-dasharray="5,2" d="M519,-123.77C548.92,-125.65 585.73,-131.01 616,-144.69 640.56,-155.78 662.87,-179.01 674.19,-192.13"/>
<polygon fill="#9a32cd" stroke="#9a32cd" points="518.89,-120.26 508.72,-123.23 518.53,-127.25 518.89,-120.26"/>
<text text-anchor="middle" x="572.5" y="-147.69" font-family="Helvetica,sans-Serif" font-size="10.00"> cpsk_setup_data</text>
</g>
<!-- Node25&#45;&gt;Node24 -->
<g id="edge52" class="edge">
<title>Node25&#45;&gt;Node24</title>
<path fill="none" stroke="#9a32cd" stroke-dasharray="5,2" d="M277.85,-136.35C283.96,-135.34 290.1,-134.42 296,-133.69 336.16,-128.69 382.13,-126.17 415.33,-124.9"/>
<polygon fill="#9a32cd" stroke="#9a32cd" points="276.9,-132.96 267.65,-138.12 278.1,-139.85 276.9,-132.96"/>
<text text-anchor="middle" x="345.5" y="-147.69" font-family="Helvetica,sans-Serif" font-size="10.00"> psk_info</text>
<text text-anchor="middle" x="345.5" y="-136.69" font-family="Helvetica,sans-Serif" font-size="10.00">validate_ih_call_back</text>
</g>
<!-- Node26 -->
<g id="node26" class="node">
<title>Node26</title>
<g id="a_node26"><a xlink:href="structcoap__fixed__point__t.html" target="_top" xlink:title="Abstraction of a fixed point number that can be used where necessary instead of a float.">
<polygon fill="white" stroke="black" points="413,-266.19 413,-285.19 511,-285.19 511,-266.19 413,-266.19"/>
<text text-anchor="middle" x="462" y="-273.19" font-family="Helvetica,sans-Serif" font-size="10.00">coap_fixed_point_t</text>
</a>
</g>
</g>
<!-- Node26&#45;&gt;Node2 -->
<g id="edge54" class="edge">
<title>Node26&#45;&gt;Node2</title>
<path fill="none" stroke="#9a32cd" stroke-dasharray="5,2" d="M510.16,-263.5C540.67,-255.2 581.07,-243.44 616,-230.69 631.75,-224.94 649.1,-217.26 662.05,-211.25"/>
<polygon fill="#9a32cd" stroke="#9a32cd" points="508.96,-260.19 500.22,-266.17 510.78,-266.95 508.96,-260.19"/>
<text text-anchor="middle" x="572.5" y="-271.69" font-family="Helvetica,sans-Serif" font-size="10.00"> ack_random_factor</text>
<text text-anchor="middle" x="572.5" y="-260.69" font-family="Helvetica,sans-Serif" font-size="10.00">ack_timeout</text>
</g>
</g>
</svg>
