<?xml version="1.0" encoding="UTF-8" standalone="no"?>
<!DOCTYPE svg PUBLIC "-//W3C//DTD SVG 1.1//EN"
 "http://www.w3.org/Graphics/SVG/1.1/DTD/svg11.dtd">
<!-- Generated by graphviz version 2.43.0 (0)
 -->
<!-- Title: UT_hash_bucket Pages: 1 -->
<svg width="188pt" height="164pt"
 viewBox="0.00 0.00 187.50 164.00" xmlns="http://www.w3.org/2000/svg" xmlns:xlink="http://www.w3.org/1999/xlink">
<g id="graph0" class="graph" transform="scale(1 1) rotate(0) translate(4 160)">
<title>UT_hash_bucket</title>
<polygon fill="white" stroke="transparent" points="-4,4 -4,-160 183.5,-160 183.5,4 -4,4"/>
<!-- Node1 -->
<g id="node1" class="node">
<title>Node1</title>
<g id="a_node1"><a xlink:title=" ">
<polygon fill="#bfbfbf" stroke="black" points="35,-136.5 35,-155.5 126,-155.5 126,-136.5 35,-136.5"/>
<text text-anchor="middle" x="80.5" y="-143.5" font-family="Helvetica,sans-Serif" font-size="10.00">UT_hash_bucket</text>
</a>
</g>
</g>
<!-- Node3 -->
<g id="node3" class="node">
<title>Node3</title>
<g id="a_node3"><a xlink:href="structUT__hash__table.html" target="_top" xlink:title=" ">
<polygon fill="white" stroke="black" points="0,-69.5 0,-88.5 83,-88.5 83,-69.5 0,-69.5"/>
<text text-anchor="middle" x="41.5" y="-76.5" font-family="Helvetica,sans-Serif" font-size="10.00">UT_hash_table</text>
</a>
</g>
</g>
<!-- Node1&#45;&gt;Node3 -->
<g id="edge4" class="edge">
<title>Node1&#45;&gt;Node3</title>
<path fill="none" stroke="#9a32cd" stroke-dasharray="5,2" d="M70.02,-127.53C62.47,-114.95 52.6,-98.51 46.68,-88.63"/>
<polygon fill="#9a32cd" stroke="#9a32cd" points="67.09,-129.46 75.24,-136.23 73.1,-125.86 67.09,-129.46"/>
<text text-anchor="middle" x="82.5" y="-110" font-family="Helvetica,sans-Serif" font-size="10.00"> buckets</text>
</g>
<!-- Node2 -->
<g id="node2" class="node">
<title>Node2</title>
<g id="a_node2"><a xlink:href="structUT__hash__handle.html" target="_top" xlink:title=" ">
<polygon fill="white" stroke="black" points="33.5,-1.5 33.5,-20.5 123.5,-20.5 123.5,-1.5 33.5,-1.5"/>
<text text-anchor="middle" x="78.5" y="-8.5" font-family="Helvetica,sans-Serif" font-size="10.00">UT_hash_handle</text>
</a>
</g>
</g>
<!-- Node2&#45;&gt;Node1 -->
<g id="edge1" class="edge">
<title>Node2&#45;&gt;Node1</title>
<path fill="none" stroke="#9a32cd" stroke-dasharray="5,2" d="M89.41,-29.36C101.35,-50.7 117.34,-87.79 105.5,-118 102.7,-125.14 97.04,-131.52 91.8,-136.28"/>
<polygon fill="#9a32cd" stroke="#9a32cd" points="92.42,-27.57 84.32,-20.75 86.39,-31.14 92.42,-27.57"/>
<text text-anchor="middle" x="129.5" y="-76.5" font-family="Helvetica,sans-Serif" font-size="10.00"> hh_head</text>
</g>
<!-- Node2&#45;&gt;Node2 -->
<g id="edge2" class="edge">
<title>Node2&#45;&gt;Node2</title>
<path fill="none" stroke="#9a32cd" stroke-dasharray="5,2" d="M133.76,-15.98C138.53,-14.92 141.5,-13.26 141.5,-11 141.5,-7.38 133.89,-5.3 123.52,-4.77"/>
<polygon fill="#9a32cd" stroke="#9a32cd" points="133.02,-12.54 123.52,-17.23 133.87,-19.49 133.02,-12.54"/>
<text text-anchor="middle" x="160.5" y="-14" font-family="Helvetica,sans-Serif" font-size="10.00"> hh_next</text>
<text text-anchor="middle" x="160.5" y="-3" font-family="Helvetica,sans-Serif" font-size="10.00">hh_prev</text>
</g>
<!-- Node2&#45;&gt;Node3 -->
<g id="edge5" class="edge">
<title>Node2&#45;&gt;Node3</title>
<path fill="none" stroke="#9a32cd" stroke-dasharray="5,2" d="M68.57,-29.71C61.38,-42.55 51.96,-59.35 46.34,-69.37"/>
<polygon fill="#9a32cd" stroke="#9a32cd" points="71.71,-31.28 73.54,-20.84 65.6,-27.85 71.71,-31.28"/>
<text text-anchor="middle" x="70.5" y="-43" font-family="Helvetica,sans-Serif" font-size="10.00"> tail</text>
</g>
<!-- Node3&#45;&gt;Node2 -->
<g id="edge3" class="edge">
<title>Node3&#45;&gt;Node2</title>
<path fill="none" stroke="#9a32cd" stroke-dasharray="5,2" d="M38.84,-58.94C38.76,-52.62 39.6,-45.74 42.5,-40 46.64,-31.8 54.42,-25.29 61.69,-20.61"/>
<polygon fill="#9a32cd" stroke="#9a32cd" points="35.39,-59.67 39.71,-69.34 42.36,-59.08 35.39,-59.67"/>
<text text-anchor="middle" x="49.5" y="-43" font-family="Helvetica,sans-Serif" font-size="10.00"> tbl</text>
</g>
</g>
</svg>
