<?xml version="1.0" encoding="UTF-8" standalone="no"?>
<!DOCTYPE svg PUBLIC "-//W3C//DTD SVG 1.1//EN"
 "http://www.w3.org/Graphics/SVG/1.1/DTD/svg11.dtd">
<!-- Generated by graphviz version 2.43.0 (0)
 -->
<!-- Title: coap_cache_entry_t Pages: 1 -->
<!--zoomable 970 -->
<svg id="main" version="1.1" xmlns="http://www.w3.org/2000/svg" xmlns:xlink="http://www.w3.org/1999/xlink" xml:space="preserve" onload="init(evt)">
<style type="text/css"><![CDATA[
.edge:hover path { stroke: red; }
.edge:hover polygon { stroke: red; fill: red; }
]]></style>
<script type="text/javascript"><![CDATA[
var edges = document.getElementsByTagName('g');
if (edges && edges.length) {
  for (var i=0;i<edges.length;i++) {
    if (edges[i].id.substr(0,4)=='edge') {
      edges[i].setAttribute('class','edge');
    }
  }
}
]]></script>
        <defs>
                <circle id="rim" cx="0" cy="0" r="7"/>
                <circle id="rim2" cx="0" cy="0" r="3.5"/>
                <g id="zoomPlus">
                        <use xlink:href="#rim" fill="#404040">
                                <set attributeName="fill" to="#808080" begin="zoomplus.mouseover" end="zoomplus.mouseout"/>
                        </use>
                        <path d="M-4,0h8M0,-4v8" fill="none" stroke="white" stroke-width="1.5" pointer-events="none"/>
                </g>
                <g id="zoomMin">
                        <use xlink:href="#rim" fill="#404040">
                                <set attributeName="fill" to="#808080" begin="zoomminus.mouseover" end="zoomminus.mouseout"/>
                        </use>
                        <path d="M-4,0h8" fill="none" stroke="white" stroke-width="1.5" pointer-events="none"/>
                </g>
                <g id="dirArrow">
                        <path fill="none" stroke="white" stroke-width="1.5" d="M0,-3.0v7 M-2.5,-0.5L0,-3.0L2.5,-0.5"/>
                </g>
               <g id="resetDef">
                       <use xlink:href="#rim2" fill="#404040">
                               <set attributeName="fill" to="#808080" begin="reset.mouseover" end="reset.mouseout"/>
                       </use>
               </g>
        </defs>

<script type="text/javascript">
var viewWidth = 1372;
var viewHeight = 970;
var sectionId = 'dynsection-0';
</script>
<script xlink:href="svgpan.js"/>
<svg id="graph" class="graph">
<g id="viewport">
<title>coap_cache_entry_t</title>
<polygon fill="white" stroke="transparent" points="-4,4 -4,-966 1368,-966 1368,4 -4,4"/>
<!-- Node1 -->
<g id="node1" class="node">
<title>Node1</title>
<g id="a_node1"><a xlink:title=" ">
<polygon fill="#bfbfbf" stroke="black" points="413,-392.5 413,-411.5 517,-411.5 517,-392.5 413,-392.5"/>
<text text-anchor="middle" x="465" y="-399.5" font-family="Helvetica,sans-Serif" font-size="10.00">coap_cache_entry_t</text>
</a>
</g>
</g>
<!-- Node10 -->
<g id="node10" class="node">
<title>Node10</title>
<g id="a_node10"><a xlink:href="structcoap__context__t.html" target="_top" xlink:title="The CoAP stack&#39;s global state is stored in a coap_context_t object.">
<polygon fill="white" stroke="black" points="653.5,-555.5 653.5,-574.5 736.5,-574.5 736.5,-555.5 653.5,-555.5"/>
<text text-anchor="middle" x="695" y="-562.5" font-family="Helvetica,sans-Serif" font-size="10.00">coap_context_t</text>
</a>
</g>
</g>
<!-- Node1&#45;&gt;Node10 -->
<g id="edge36" class="edge">
<title>Node1&#45;&gt;Node10</title>
<path fill="none" stroke="#9a32cd" stroke-dasharray="5,2" d="M498.27,-415.83C504.61,-418.93 511.12,-422.38 517,-426 551.92,-447.54 648.65,-527.28 682.29,-555.24"/>
<polygon fill="#9a32cd" stroke="#9a32cd" points="499.71,-412.64 489.17,-411.57 496.74,-418.98 499.71,-412.64"/>
<text text-anchor="middle" x="581.5" y="-512" font-family="Helvetica,sans-Serif" font-size="10.00"> cache</text>
</g>
<!-- Node2 -->
<g id="node2" class="node">
<title>Node2</title>
<g id="a_node2"><a xlink:href="structcoap__session__t.html" target="_top" xlink:title=" ">
<polygon fill="white" stroke="black" points="870.5,-348.5 870.5,-367.5 955.5,-367.5 955.5,-348.5 870.5,-348.5"/>
<text text-anchor="middle" x="913" y="-355.5" font-family="Helvetica,sans-Serif" font-size="10.00">coap_session_t</text>
</a>
</g>
</g>
<!-- Node2&#45;&gt;Node1 -->
<g id="edge1" class="edge">
<title>Node2&#45;&gt;Node1</title>
<path fill="none" stroke="#9a32cd" stroke-dasharray="5,2" d="M860.34,-369.19C856.51,-369.86 852.7,-370.47 849,-371 730.79,-387.91 590.64,-396.33 517.02,-399.86"/>
<polygon fill="#9a32cd" stroke="#9a32cd" points="861.25,-372.58 870.44,-367.33 859.98,-365.7 861.25,-372.58"/>
<text text-anchor="middle" x="695" y="-394" font-family="Helvetica,sans-Serif" font-size="10.00"> session</text>
</g>
<!-- Node4 -->
<g id="node4" class="node">
<title>Node4</title>
<g id="a_node4"><a xlink:href="structcoap__queue__t.html" target="_top" xlink:title="Queue entry.">
<polygon fill="white" stroke="black" points="1094.5,-430.5 1094.5,-449.5 1171.5,-449.5 1171.5,-430.5 1094.5,-430.5"/>
<text text-anchor="middle" x="1133" y="-437.5" font-family="Helvetica,sans-Serif" font-size="10.00">coap_queue_t</text>
</a>
</g>
</g>
<!-- Node2&#45;&gt;Node4 -->
<g id="edge5" class="edge">
<title>Node2&#45;&gt;Node4</title>
<path fill="none" stroke="#9a32cd" stroke-dasharray="5,2" d="M965.57,-368.76C1004.95,-377.14 1053.96,-388 1063,-392 1085.42,-401.91 1108.13,-419.48 1121.09,-430.4"/>
<polygon fill="#9a32cd" stroke="#9a32cd" points="966.05,-365.28 955.54,-366.63 964.6,-372.13 966.05,-365.28"/>
<text text-anchor="middle" x="1020" y="-395" font-family="Helvetica,sans-Serif" font-size="10.00"> session</text>
</g>
<!-- Node2&#45;&gt;Node10 -->
<g id="edge30" class="edge">
<title>Node2&#45;&gt;Node10</title>
<path fill="none" stroke="#9a32cd" stroke-dasharray="5,2" d="M900.17,-376.14C888.89,-391.96 870.48,-414.3 849,-427 814.76,-447.24 790.07,-419.81 762,-448 737.51,-472.6 762.09,-494.37 744,-524 736,-537.09 722.4,-548.13 711.71,-555.44"/>
<polygon fill="#9a32cd" stroke="#9a32cd" points="903.18,-377.93 905.95,-367.7 897.41,-373.97 903.18,-377.93"/>
<text text-anchor="middle" x="805.5" y="-451" font-family="Helvetica,sans-Serif" font-size="10.00"> sessions</text>
</g>
<!-- Node13 -->
<g id="node13" class="node">
<title>Node13</title>
<g id="a_node13"><a xlink:href="structcoap__subscription__t.html" target="_top" xlink:title="Subscriber information.">
<polygon fill="white" stroke="black" points="1081,-905.5 1081,-924.5 1185,-924.5 1185,-905.5 1081,-905.5"/>
<text text-anchor="middle" x="1133" y="-912.5" font-family="Helvetica,sans-Serif" font-size="10.00">coap_subscription_t</text>
</a>
</g>
</g>
<!-- Node2&#45;&gt;Node13 -->
<g id="edge22" class="edge">
<title>Node2&#45;&gt;Node13</title>
<path fill="none" stroke="#9a32cd" stroke-dasharray="5,2" d="M918.25,-377.53C925.78,-408.53 943.86,-469.69 977,-511 1006.16,-547.35 1039.97,-530.48 1063,-571 1090.42,-619.23 1065.54,-766.72 1081,-820 1090.76,-853.62 1113.47,-888.81 1125.01,-905.34"/>
<polygon fill="#9a32cd" stroke="#9a32cd" points="921.61,-376.53 915.95,-367.57 914.79,-378.1 921.61,-376.53"/>
<text text-anchor="middle" x="1020" y="-574" font-family="Helvetica,sans-Serif" font-size="10.00"> session</text>
</g>
<!-- Node20 -->
<g id="node20" class="node">
<title>Node20</title>
<g id="a_node20"><a xlink:href="structcoap__async__state__t.html" target="_top" xlink:title=" ">
<polygon fill="white" stroke="black" points="1081,-517.5 1081,-536.5 1185,-536.5 1185,-517.5 1081,-517.5"/>
<text text-anchor="middle" x="1133" y="-524.5" font-family="Helvetica,sans-Serif" font-size="10.00">coap_async_state_t</text>
</a>
</g>
</g>
<!-- Node2&#45;&gt;Node20 -->
<g id="edge38" class="edge">
<title>Node2&#45;&gt;Node20</title>
<path fill="none" stroke="#9a32cd" stroke-dasharray="5,2" d="M924.59,-376.44C935.82,-394.78 954.94,-422.87 977,-442 1017.57,-477.19 1075.11,-503.99 1107.45,-517.43"/>
<polygon fill="#9a32cd" stroke="#9a32cd" points="927.46,-374.42 919.34,-367.61 921.44,-377.99 927.46,-374.42"/>
<text text-anchor="middle" x="1020" y="-499" font-family="Helvetica,sans-Serif" font-size="10.00"> session</text>
</g>
<!-- Node21 -->
<g id="node21" class="node">
<title>Node21</title>
<g id="a_node21"><a xlink:href="structcoap__endpoint__t.html" target="_top" xlink:title="Abstraction of virtual endpoint that can be attached to coap_context_t.">
<polygon fill="white" stroke="black" points="1275.5,-324.5 1275.5,-343.5 1363.5,-343.5 1363.5,-324.5 1275.5,-324.5"/>
<text text-anchor="middle" x="1319.5" y="-331.5" font-family="Helvetica,sans-Serif" font-size="10.00">coap_endpoint_t</text>
</a>
</g>
</g>
<!-- Node2&#45;&gt;Node21 -->
<g id="edge42" class="edge">
<title>Node2&#45;&gt;Node21</title>
<path fill="none" stroke="#9a32cd" stroke-dasharray="5,2" d="M925.05,-339.6C936,-323.22 954.38,-300.16 977,-289 1088.59,-233.91 1141.53,-245.59 1257,-292 1276.43,-299.81 1295.9,-314.56 1307.57,-324.33"/>
<polygon fill="#9a32cd" stroke="#9a32cd" points="921.91,-338.03 919.49,-348.34 927.81,-341.79 921.91,-338.03"/>
<text text-anchor="middle" x="1133" y="-269" font-family="Helvetica,sans-Serif" font-size="10.00"> sessions</text>
</g>
<!-- Node22 -->
<g id="node22" class="node">
<title>Node22</title>
<g id="a_node22"><a xlink:href="structcoap__socket__t.html" target="_top" xlink:title=" ">
<polygon fill="white" stroke="black" points="1093,-300.5 1093,-319.5 1173,-319.5 1173,-300.5 1093,-300.5"/>
<text text-anchor="middle" x="1133" y="-307.5" font-family="Helvetica,sans-Serif" font-size="10.00">coap_socket_t</text>
</a>
</g>
</g>
<!-- Node2&#45;&gt;Node22 -->
<g id="edge45" class="edge">
<title>Node2&#45;&gt;Node22</title>
<path fill="none" stroke="#9a32cd" stroke-dasharray="5,2" d="M946.63,-344.75C956.29,-341.2 966.97,-337.62 977,-335 1015.77,-324.89 1061.13,-318.15 1092.72,-314.24"/>
<polygon fill="#9a32cd" stroke="#9a32cd" points="945.11,-341.58 937,-348.41 947.59,-348.13 945.11,-341.58"/>
<text text-anchor="middle" x="1020" y="-338" font-family="Helvetica,sans-Serif" font-size="10.00"> session</text>
</g>
<!-- Node3 -->
<g id="node3" class="node">
<title>Node3</title>
<g id="a_node3"><a xlink:href="structcoap__address__t.html" target="_top" xlink:title="multi&#45;purpose address abstraction">
<polygon fill="white" stroke="black" points="422,-28.5 422,-47.5 508,-47.5 508,-28.5 422,-28.5"/>
<text text-anchor="middle" x="465" y="-35.5" font-family="Helvetica,sans-Serif" font-size="10.00">coap_address_t</text>
</a>
</g>
</g>
<!-- Node3&#45;&gt;Node2 -->
<g id="edge2" class="edge">
<title>Node3&#45;&gt;Node2</title>
<path fill="none" stroke="#9a32cd" stroke-dasharray="5,2" d="M499.24,-51.2C510.52,-55.5 523.24,-60.15 535,-64 583.68,-79.93 596.52,-81.76 646,-95 690.98,-107.04 815.43,-114.73 849,-147 908.53,-204.23 912.45,-315.1 912.23,-348.35"/>
<polygon fill="#9a32cd" stroke="#9a32cd" points="500.36,-47.88 489.77,-47.55 497.84,-54.41 500.36,-47.88"/>
<text text-anchor="middle" x="695" y="-115" font-family="Helvetica,sans-Serif" font-size="10.00"> local_if</text>
</g>
<!-- Node6 -->
<g id="node6" class="node">
<title>Node6</title>
<g id="a_node6"><a xlink:href="structcoap__addr__tuple__t.html" target="_top" xlink:title=" ">
<polygon fill="white" stroke="black" points="647,-28.5 647,-47.5 743,-47.5 743,-28.5 647,-28.5"/>
<text text-anchor="middle" x="695" y="-35.5" font-family="Helvetica,sans-Serif" font-size="10.00">coap_addr_tuple_t</text>
</a>
</g>
</g>
<!-- Node3&#45;&gt;Node6 -->
<g id="edge8" class="edge">
<title>Node3&#45;&gt;Node6</title>
<path fill="none" stroke="#9a32cd" stroke-dasharray="5,2" d="M518.11,-38C556.8,-38 609.14,-38 646.65,-38"/>
<polygon fill="#9a32cd" stroke="#9a32cd" points="518.08,-34.5 508.08,-38 518.08,-41.5 518.08,-34.5"/>
<text text-anchor="middle" x="581.5" y="-52" font-family="Helvetica,sans-Serif" font-size="10.00"> local</text>
<text text-anchor="middle" x="581.5" y="-41" font-family="Helvetica,sans-Serif" font-size="10.00">remote</text>
</g>
<!-- Node3&#45;&gt;Node21 -->
<g id="edge41" class="edge">
<title>Node3&#45;&gt;Node21</title>
<path fill="none" stroke="#9a32cd" stroke-dasharray="5,2" d="M511.13,-25.96C556.87,-14.83 629.83,0 694,0 694,0 694,0 1134,0 1286.36,0 1313.88,-269.6 1317.89,-324.36"/>
<polygon fill="#9a32cd" stroke="#9a32cd" points="510.1,-22.61 501.24,-28.41 511.79,-29.4 510.1,-22.61"/>
<text text-anchor="middle" x="913" y="-3" font-family="Helvetica,sans-Serif" font-size="10.00"> bind_addr</text>
</g>
<!-- Node4&#45;&gt;Node2 -->
<g id="edge3" class="edge">
<title>Node4&#45;&gt;Node2</title>
<path fill="none" stroke="#9a32cd" stroke-dasharray="5,2" d="M1084.37,-431.5C1046.14,-424.26 995.86,-413.69 977,-405 956.42,-395.53 936.04,-378.58 924.26,-367.83"/>
<polygon fill="#9a32cd" stroke="#9a32cd" points="1083.82,-434.96 1094.29,-433.35 1085.11,-428.08 1083.82,-434.96"/>
<text text-anchor="middle" x="1020" y="-430" font-family="Helvetica,sans-Serif" font-size="10.00"> delayqueue</text>
</g>
<!-- Node4&#45;&gt;Node4 -->
<g id="edge4" class="edge">
<title>Node4&#45;&gt;Node4</title>
<path fill="none" stroke="#9a32cd" stroke-dasharray="5,2" d="M1115.22,-459.4C1116.41,-464.31 1122.34,-468 1133,-468 1150.06,-468 1154.99,-458.57 1147.8,-449.76"/>
<polygon fill="#9a32cd" stroke="#9a32cd" points="1118.59,-460.34 1118.2,-449.76 1111.91,-458.28 1118.59,-460.34"/>
<text text-anchor="middle" x="1133" y="-471" font-family="Helvetica,sans-Serif" font-size="10.00"> next</text>
</g>
<!-- Node4&#45;&gt;Node10 -->
<g id="edge29" class="edge">
<title>Node4&#45;&gt;Node10</title>
<path fill="none" stroke="#9a32cd" stroke-dasharray="5,2" d="M1116.64,-457.34C1103.72,-470.74 1084.04,-488.53 1063,-498 982.7,-534.14 953.76,-511.92 867,-527 820.11,-535.15 808.39,-537.39 762,-548 752.08,-550.27 741.38,-552.93 731.54,-555.47"/>
<polygon fill="#9a32cd" stroke="#9a32cd" points="1119.51,-459.39 1123.76,-449.69 1114.39,-454.63 1119.51,-459.39"/>
<text text-anchor="middle" x="913" y="-530" font-family="Helvetica,sans-Serif" font-size="10.00"> sendqueue</text>
</g>
<!-- Node5 -->
<g id="node5" class="node">
<title>Node5</title>
<g id="a_node5"><a xlink:href="structcoap__pdu__t.html" target="_top" xlink:title="structure for CoAP PDUs token, if any, follows the fixed size header, then options until payload mark...">
<polygon fill="white" stroke="black" points="187.5,-401.5 187.5,-420.5 254.5,-420.5 254.5,-401.5 187.5,-401.5"/>
<text text-anchor="middle" x="221" y="-408.5" font-family="Helvetica,sans-Serif" font-size="10.00">coap_pdu_t</text>
</a>
</g>
</g>
<!-- Node5&#45;&gt;Node1 -->
<g id="edge56" class="edge">
<title>Node5&#45;&gt;Node1</title>
<path fill="none" stroke="#9a32cd" stroke-dasharray="5,2" d="M264.67,-409.41C306.06,-407.87 368.89,-405.54 412.92,-403.9"/>
<polygon fill="#9a32cd" stroke="#9a32cd" points="264.5,-405.92 254.64,-409.79 264.76,-412.91 264.5,-405.92"/>
<text text-anchor="middle" x="345.5" y="-411" font-family="Helvetica,sans-Serif" font-size="10.00"> pdu</text>
</g>
<!-- Node5&#45;&gt;Node2 -->
<g id="edge15" class="edge">
<title>Node5&#45;&gt;Node2</title>
<path fill="none" stroke="#9a32cd" stroke-dasharray="5,2" d="M265.01,-403.49C303.63,-397.04 361.93,-388.01 413,-383 582.2,-366.4 784.82,-360.56 870.5,-358.74"/>
<polygon fill="#9a32cd" stroke="#9a32cd" points="263.95,-400.13 254.67,-405.24 265.11,-407.03 263.95,-400.13"/>
<text text-anchor="middle" x="581.5" y="-375" font-family="Helvetica,sans-Serif" font-size="10.00"> partial_pdu</text>
</g>
<!-- Node5&#45;&gt;Node4 -->
<g id="edge6" class="edge">
<title>Node5&#45;&gt;Node4</title>
<path fill="none" stroke="#9a32cd" stroke-dasharray="5,2" d="M264.24,-422.1C269.11,-424.3 273.83,-426.91 278,-430 289.01,-438.14 284.69,-447.28 296,-455 340.34,-485.26 360.06,-476.11 413,-485 604.15,-517.1 656.29,-515.83 849,-495 906.9,-488.74 919.86,-478.22 977,-467 1016.94,-459.16 1062.89,-451.3 1094.33,-446.1"/>
<polygon fill="#9a32cd" stroke="#9a32cd" points="265.36,-418.78 254.77,-418.36 262.79,-425.29 265.36,-418.78"/>
<text text-anchor="middle" x="695" y="-512" font-family="Helvetica,sans-Serif" font-size="10.00"> pdu</text>
</g>
<!-- Node6&#45;&gt;Node2 -->
<g id="edge7" class="edge">
<title>Node6&#45;&gt;Node2</title>
<path fill="none" stroke="#9a32cd" stroke-dasharray="5,2" d="M748.2,-27.14C780.98,-23.52 822.01,-25.29 849,-49 895.59,-89.92 909.05,-300.32 911.54,-348.27"/>
<polygon fill="#9a32cd" stroke="#9a32cd" points="747.34,-23.72 737.88,-28.49 748.24,-30.66 747.34,-23.72"/>
<text text-anchor="middle" x="805.5" y="-52" font-family="Helvetica,sans-Serif" font-size="10.00"> addr_info</text>
</g>
<!-- Node7 -->
<g id="node7" class="node">
<title>Node7</title>
<g id="a_node7"><a xlink:href="structUT__hash__handle.html" target="_top" xlink:title=" ">
<polygon fill="white" stroke="black" points="176,-234.5 176,-253.5 266,-253.5 266,-234.5 176,-234.5"/>
<text text-anchor="middle" x="221" y="-241.5" font-family="Helvetica,sans-Serif" font-size="10.00">UT_hash_handle</text>
</a>
</g>
</g>
<!-- Node7&#45;&gt;Node1 -->
<g id="edge55" class="edge">
<title>Node7&#45;&gt;Node1</title>
<path fill="none" stroke="#9a32cd" stroke-dasharray="5,2" d="M234.88,-261.7C248.25,-278.75 270.7,-303.96 296,-318 335.49,-339.93 354.85,-320.3 395,-341 420.3,-354.04 443.77,-378.44 455.73,-392.09"/>
<polygon fill="#9a32cd" stroke="#9a32cd" points="237.59,-259.48 228.76,-253.64 232.02,-263.72 237.59,-259.48"/>
<text text-anchor="middle" x="345.5" y="-344" font-family="Helvetica,sans-Serif" font-size="10.00"> hh</text>
</g>
<!-- Node7&#45;&gt;Node2 -->
<g id="edge9" class="edge">
<title>Node7&#45;&gt;Node2</title>
<path fill="none" stroke="#9a32cd" stroke-dasharray="5,2" d="M238.24,-227.28C252.17,-214.17 273.52,-196.87 296,-189 435.3,-140.24 481.38,-165.16 628,-182 680.59,-188.04 696.98,-184.69 744,-209 816.03,-246.24 881.92,-321.33 904.09,-348.18"/>
<polygon fill="#9a32cd" stroke="#9a32cd" points="235.64,-224.92 230.93,-234.42 240.53,-229.93 235.64,-224.92"/>
<text text-anchor="middle" x="581.5" y="-185" font-family="Helvetica,sans-Serif" font-size="10.00"> hh</text>
</g>
<!-- Node7&#45;&gt;Node7 -->
<g id="edge10" class="edge">
<title>Node7&#45;&gt;Node7</title>
<path fill="none" stroke="#9a32cd" stroke-dasharray="5,2" d="M203.96,-263.4C205.1,-268.31 210.78,-272 221,-272 237.35,-272 242.08,-262.57 235.18,-253.76"/>
<polygon fill="#9a32cd" stroke="#9a32cd" points="207.34,-264.34 206.82,-253.76 200.62,-262.35 207.34,-264.34"/>
<text text-anchor="middle" x="221" y="-286" font-family="Helvetica,sans-Serif" font-size="10.00"> hh_next</text>
<text text-anchor="middle" x="221" y="-275" font-family="Helvetica,sans-Serif" font-size="10.00">hh_prev</text>
</g>
<!-- Node8 -->
<g id="node8" class="node">
<title>Node8</title>
<g id="a_node8"><a xlink:href="structUT__hash__table.html" target="_top" xlink:title=" ">
<polygon fill="white" stroke="black" points="653.5,-218.5 653.5,-237.5 736.5,-237.5 736.5,-218.5 653.5,-218.5"/>
<text text-anchor="middle" x="695" y="-225.5" font-family="Helvetica,sans-Serif" font-size="10.00">UT_hash_table</text>
</a>
</g>
</g>
<!-- Node7&#45;&gt;Node8 -->
<g id="edge14" class="edge">
<title>Node7&#45;&gt;Node8</title>
<path fill="none" stroke="#9a32cd" stroke-dasharray="5,2" d="M276.76,-241.93C314.95,-240.5 367.08,-238.58 413,-237 498.37,-234.07 598.33,-230.94 653.05,-229.25"/>
<polygon fill="#9a32cd" stroke="#9a32cd" points="276.24,-238.44 266.38,-242.32 276.5,-245.44 276.24,-238.44"/>
<text text-anchor="middle" x="465" y="-240" font-family="Helvetica,sans-Serif" font-size="10.00"> tail</text>
</g>
<!-- Node9 -->
<g id="node9" class="node">
<title>Node9</title>
<g id="a_node9"><a xlink:href="structUT__hash__bucket.html" target="_top" xlink:title=" ">
<polygon fill="white" stroke="black" points="419.5,-257.5 419.5,-276.5 510.5,-276.5 510.5,-257.5 419.5,-257.5"/>
<text text-anchor="middle" x="465" y="-264.5" font-family="Helvetica,sans-Serif" font-size="10.00">UT_hash_bucket</text>
</a>
</g>
</g>
<!-- Node7&#45;&gt;Node9 -->
<g id="edge13" class="edge">
<title>Node7&#45;&gt;Node9</title>
<path fill="none" stroke="#9a32cd" stroke-dasharray="5,2" d="M276.14,-249.15C319.29,-253.25 378.95,-258.92 419.38,-262.76"/>
<polygon fill="#9a32cd" stroke="#9a32cd" points="276.39,-245.65 266.11,-248.19 275.73,-252.62 276.39,-245.65"/>
<text text-anchor="middle" x="345.5" y="-264" font-family="Helvetica,sans-Serif" font-size="10.00"> hh_head</text>
</g>
<!-- Node11 -->
<g id="node11" class="node">
<title>Node11</title>
<g id="a_node11"><a xlink:href="structcoap__resource__t.html" target="_top" xlink:title=" ">
<polygon fill="white" stroke="black" points="1275,-812.5 1275,-831.5 1364,-831.5 1364,-812.5 1275,-812.5"/>
<text text-anchor="middle" x="1319.5" y="-819.5" font-family="Helvetica,sans-Serif" font-size="10.00">coap_resource_t</text>
</a>
</g>
</g>
<!-- Node7&#45;&gt;Node11 -->
<g id="edge19" class="edge">
<title>Node7&#45;&gt;Node11</title>
<path fill="none" stroke="#9a32cd" stroke-dasharray="5,2" d="M236.88,-261.53C248.74,-275.92 265.4,-297.11 278,-317 287.36,-331.78 283.49,-339.78 296,-352 330.98,-386.17 365.12,-361.29 395,-400 420.19,-432.64 390.73,-456.3 413,-491 443.78,-538.96 477.45,-524.97 517,-566 527.01,-576.38 524.48,-583.14 535,-593 749.37,-793.87 896.36,-658.32 1185,-713 1217.63,-719.18 1229.94,-713.74 1257,-733 1286.53,-754.02 1306.49,-793.93 1314.53,-812.3"/>
<polygon fill="#9a32cd" stroke="#9a32cd" points="239.29,-258.95 230.19,-253.51 233.91,-263.43 239.29,-258.95"/>
<text text-anchor="middle" x="805.5" y="-710" font-family="Helvetica,sans-Serif" font-size="10.00"> hh</text>
</g>
<!-- Node8&#45;&gt;Node7 -->
<g id="edge11" class="edge">
<title>Node8&#45;&gt;Node7</title>
<path fill="none" stroke="#9a32cd" stroke-dasharray="5,2" d="M643.33,-217.04C638.16,-215.98 632.98,-214.95 628,-214 483.08,-186.24 438.09,-174.21 296,-214 277.18,-219.27 256.64,-227.84 241.99,-234.47"/>
<polygon fill="#9a32cd" stroke="#9a32cd" points="642.71,-220.49 653.21,-219.08 644.13,-213.63 642.71,-220.49"/>
<text text-anchor="middle" x="465" y="-197" font-family="Helvetica,sans-Serif" font-size="10.00"> tbl</text>
</g>
<!-- Node9&#45;&gt;Node8 -->
<g id="edge12" class="edge">
<title>Node9&#45;&gt;Node8</title>
<path fill="none" stroke="#9a32cd" stroke-dasharray="5,2" d="M521.11,-259.28C552.5,-254.68 592.54,-248.49 628,-242 636.18,-240.5 644.9,-238.76 653.23,-237.02"/>
<polygon fill="#9a32cd" stroke="#9a32cd" points="520.2,-255.87 510.81,-260.77 521.21,-262.8 520.2,-255.87"/>
<text text-anchor="middle" x="581.5" y="-261" font-family="Helvetica,sans-Serif" font-size="10.00"> buckets</text>
</g>
<!-- Node10&#45;&gt;Node2 -->
<g id="edge16" class="edge">
<title>Node10&#45;&gt;Node2</title>
<path fill="none" stroke="#9a32cd" stroke-dasharray="5,2" d="M714.84,-548.86C733.45,-532.94 759.48,-510.74 762,-509 798.35,-483.92 817.08,-491.52 849,-461 878.69,-432.61 899.85,-387.31 908.13,-367.64"/>
<polygon fill="#9a32cd" stroke="#9a32cd" points="712.49,-546.26 707.17,-555.42 717.04,-551.58 712.49,-546.26"/>
<text text-anchor="middle" x="805.5" y="-512" font-family="Helvetica,sans-Serif" font-size="10.00"> context</text>
</g>
<!-- Node10&#45;&gt;Node10 -->
<g id="edge31" class="edge">
<title>Node10&#45;&gt;Node10</title>
<path fill="none" stroke="#9a32cd" stroke-dasharray="5,2" d="M674.63,-584.4C675.99,-589.31 682.78,-593 695,-593 714.55,-593 720.2,-583.57 711.95,-574.76"/>
<polygon fill="#9a32cd" stroke="#9a32cd" points="678.01,-585.35 678.05,-574.76 671.41,-583.01 678.01,-585.35"/>
<text text-anchor="middle" x="695" y="-640" font-family="Helvetica,sans-Serif" font-size="10.00"> handle_event</text>
<text text-anchor="middle" x="695" y="-629" font-family="Helvetica,sans-Serif" font-size="10.00">nack_handler</text>
<text text-anchor="middle" x="695" y="-618" font-family="Helvetica,sans-Serif" font-size="10.00">ping_handler</text>
<text text-anchor="middle" x="695" y="-607" font-family="Helvetica,sans-Serif" font-size="10.00">pong_handler</text>
<text text-anchor="middle" x="695" y="-596" font-family="Helvetica,sans-Serif" font-size="10.00">response_handler</text>
</g>
<!-- Node10&#45;&gt;Node11 -->
<g id="edge20" class="edge">
<title>Node10&#45;&gt;Node11</title>
<path fill="none" stroke="#9a32cd" stroke-dasharray="5,2" d="M704.71,-583.54C715.53,-604.89 735.82,-639.85 762,-662 794.49,-689.49 822.69,-668.55 849,-702 874.76,-734.75 841.42,-761.12 867,-794 900.21,-836.68 924.24,-834.16 977,-846 1013.68,-854.23 1183.34,-854.46 1257,-842 1269.73,-839.85 1283.43,-835.59 1294.67,-831.56"/>
<polygon fill="#9a32cd" stroke="#9a32cd" points="707.83,-581.97 700.29,-574.53 701.55,-585.05 707.83,-581.97"/>
<text text-anchor="middle" x="1020" y="-865" font-family="Helvetica,sans-Serif" font-size="10.00"> context</text>
<text text-anchor="middle" x="1020" y="-854" font-family="Helvetica,sans-Serif" font-size="10.00">handler</text>
</g>
<!-- Node10&#45;&gt;Node21 -->
<g id="edge43" class="edge">
<title>Node10&#45;&gt;Node21</title>
<path fill="none" stroke="#9a32cd" stroke-dasharray="5,2" d="M722.88,-579.07C734.6,-584.6 748.67,-590.47 762,-594 943.74,-642.19 1010.65,-670.37 1185,-600 1222.59,-584.83 1234.2,-577.52 1257,-544 1302.72,-476.78 1314.98,-375.2 1317.77,-343.67"/>
<polygon fill="#9a32cd" stroke="#9a32cd" points="724.18,-575.81 713.66,-574.56 721.11,-582.1 724.18,-575.81"/>
<text text-anchor="middle" x="1020" y="-645" font-family="Helvetica,sans-Serif" font-size="10.00"> context</text>
</g>
<!-- Node11&#45;&gt;Node10 -->
<g id="edge17" class="edge">
<title>Node11&#45;&gt;Node10</title>
<path fill="none" stroke="#9a32cd" stroke-dasharray="5,2" d="M1264.43,-827.05C1215.93,-830.28 1143.06,-831.91 1081,-820 1072.57,-818.38 1071.15,-815.68 1063,-813 977.27,-784.83 929.18,-825.4 867,-760 840.99,-732.64 870.26,-708.19 849,-677 822.83,-638.6 799.36,-646.64 762,-619 742,-604.21 719.83,-585.58 706.95,-574.51"/>
<polygon fill="#9a32cd" stroke="#9a32cd" points="1264.97,-830.52 1274.7,-826.32 1264.47,-823.54 1264.97,-830.52"/>
<text text-anchor="middle" x="1020" y="-838" font-family="Helvetica,sans-Serif" font-size="10.00"> proxy_uri_resource</text>
<text text-anchor="middle" x="1020" y="-827" font-family="Helvetica,sans-Serif" font-size="10.00">resources</text>
<text text-anchor="middle" x="1020" y="-816" font-family="Helvetica,sans-Serif" font-size="10.00">unknown_resource</text>
</g>
<!-- Node12 -->
<g id="node12" class="node">
<title>Node12</title>
<g id="a_node12"><a xlink:href="structcoap__str__const__t.html" target="_top" xlink:title="CoAP string data definition with const data.">
<polygon fill="white" stroke="black" points="867,-731.5 867,-750.5 959,-750.5 959,-731.5 867,-731.5"/>
<text text-anchor="middle" x="913" y="-738.5" font-family="Helvetica,sans-Serif" font-size="10.00">coap_str_const_t</text>
</a>
</g>
</g>
<!-- Node12&#45;&gt;Node11 -->
<g id="edge18" class="edge">
<title>Node12&#45;&gt;Node11</title>
<path fill="none" stroke="#9a32cd" stroke-dasharray="5,2" d="M964.03,-729.47C1019.41,-718.91 1110.67,-708.08 1185,-731 1237.8,-747.28 1288.39,-792.39 1308.91,-812.32"/>
<polygon fill="#9a32cd" stroke="#9a32cd" points="963.25,-726.06 954.12,-731.43 964.6,-732.92 963.25,-726.06"/>
<text text-anchor="middle" x="1133" y="-745" font-family="Helvetica,sans-Serif" font-size="10.00"> proxy_name_list</text>
<text text-anchor="middle" x="1133" y="-734" font-family="Helvetica,sans-Serif" font-size="10.00">uri_path</text>
</g>
<!-- Node16 -->
<g id="node16" class="node">
<title>Node16</title>
<g id="a_node16"><a xlink:href="structcoap__attr__t.html" target="_top" xlink:title=" ">
<polygon fill="white" stroke="black" points="1100.5,-762.5 1100.5,-781.5 1165.5,-781.5 1165.5,-762.5 1100.5,-762.5"/>
<text text-anchor="middle" x="1133" y="-769.5" font-family="Helvetica,sans-Serif" font-size="10.00">coap_attr_t</text>
</a>
</g>
</g>
<!-- Node12&#45;&gt;Node16 -->
<g id="edge27" class="edge">
<title>Node12&#45;&gt;Node16</title>
<path fill="none" stroke="#9a32cd" stroke-dasharray="5,2" d="M969.07,-748.06C997.2,-751.75 1031.95,-756.44 1063,-761 1075.24,-762.8 1088.68,-764.91 1100.42,-766.8"/>
<polygon fill="#9a32cd" stroke="#9a32cd" points="969.4,-744.58 959.03,-746.75 968.49,-751.52 969.4,-744.58"/>
<text text-anchor="middle" x="1020" y="-775" font-family="Helvetica,sans-Serif" font-size="10.00"> name</text>
<text text-anchor="middle" x="1020" y="-764" font-family="Helvetica,sans-Serif" font-size="10.00">value</text>
</g>
<!-- Node13&#45;&gt;Node11 -->
<g id="edge21" class="edge">
<title>Node13&#45;&gt;Node11</title>
<path fill="none" stroke="#9a32cd" stroke-dasharray="5,2" d="M1195,-910.36C1215.7,-906.82 1238.29,-900.66 1257,-890 1282.45,-875.5 1303.08,-846.71 1312.68,-831.67"/>
<polygon fill="#9a32cd" stroke="#9a32cd" points="1194.37,-906.91 1185.02,-911.9 1195.44,-913.83 1194.37,-906.91"/>
<text text-anchor="middle" x="1230" y="-911" font-family="Helvetica,sans-Serif" font-size="10.00"> subscribers</text>
</g>
<!-- Node13&#45;&gt;Node13 -->
<g id="edge24" class="edge">
<title>Node13&#45;&gt;Node13</title>
<path fill="none" stroke="#9a32cd" stroke-dasharray="5,2" d="M1115.22,-934.4C1116.41,-939.31 1122.34,-943 1133,-943 1150.06,-943 1154.99,-933.57 1147.8,-924.76"/>
<polygon fill="#9a32cd" stroke="#9a32cd" points="1118.59,-935.34 1118.2,-924.76 1111.91,-933.28 1118.59,-935.34"/>
<text text-anchor="middle" x="1133" y="-946" font-family="Helvetica,sans-Serif" font-size="10.00"> next</text>
</g>
<!-- Node14 -->
<g id="node14" class="node">
<title>Node14</title>
<g id="a_node14"><a xlink:href="structcoap__block__t.html" target="_top" xlink:title="Structure of Block options.">
<polygon fill="white" stroke="black" points="876,-942.5 876,-961.5 950,-961.5 950,-942.5 876,-942.5"/>
<text text-anchor="middle" x="913" y="-949.5" font-family="Helvetica,sans-Serif" font-size="10.00">coap_block_t</text>
</a>
</g>
</g>
<!-- Node14&#45;&gt;Node13 -->
<g id="edge23" class="edge">
<title>Node14&#45;&gt;Node13</title>
<path fill="none" stroke="#9a32cd" stroke-dasharray="5,2" d="M960.21,-945.44C989.68,-941.11 1028.66,-935.13 1063,-929 1070.58,-927.65 1078.61,-926.11 1086.41,-924.57"/>
<polygon fill="#9a32cd" stroke="#9a32cd" points="959.6,-941.99 950.21,-946.9 960.61,-948.92 959.6,-941.99"/>
<text text-anchor="middle" x="1020" y="-945" font-family="Helvetica,sans-Serif" font-size="10.00"> block2</text>
</g>
<!-- Node15 -->
<g id="node15" class="node">
<title>Node15</title>
<g id="a_node15"><a xlink:href="structcoap__string__t.html" target="_top" xlink:title="CoAP string data definition.">
<polygon fill="white" stroke="black" points="875.5,-904.5 875.5,-923.5 950.5,-923.5 950.5,-904.5 875.5,-904.5"/>
<text text-anchor="middle" x="913" y="-911.5" font-family="Helvetica,sans-Serif" font-size="10.00">coap_string_t</text>
</a>
</g>
</g>
<!-- Node15&#45;&gt;Node13 -->
<g id="edge25" class="edge">
<title>Node15&#45;&gt;Node13</title>
<path fill="none" stroke="#9a32cd" stroke-dasharray="5,2" d="M961.03,-914.22C996.35,-914.38 1044.66,-914.6 1080.92,-914.77"/>
<polygon fill="#9a32cd" stroke="#9a32cd" points="961,-910.72 950.98,-914.17 960.96,-917.72 961,-910.72"/>
<text text-anchor="middle" x="1020" y="-917" font-family="Helvetica,sans-Serif" font-size="10.00"> query</text>
</g>
<!-- Node16&#45;&gt;Node11 -->
<g id="edge26" class="edge">
<title>Node16&#45;&gt;Node11</title>
<path fill="none" stroke="#9a32cd" stroke-dasharray="5,2" d="M1175.38,-783.21C1207.89,-792.03 1252.67,-804.16 1283.43,-812.5"/>
<polygon fill="#9a32cd" stroke="#9a32cd" points="1176.28,-779.83 1165.72,-780.6 1174.45,-786.59 1176.28,-779.83"/>
<text text-anchor="middle" x="1230" y="-807" font-family="Helvetica,sans-Serif" font-size="10.00"> link_attr</text>
</g>
<!-- Node16&#45;&gt;Node16 -->
<g id="edge28" class="edge">
<title>Node16&#45;&gt;Node16</title>
<path fill="none" stroke="#9a32cd" stroke-dasharray="5,2" d="M1115.22,-791.4C1116.41,-796.31 1122.34,-800 1133,-800 1150.06,-800 1154.99,-790.57 1147.8,-781.76"/>
<polygon fill="#9a32cd" stroke="#9a32cd" points="1118.59,-792.34 1118.2,-781.76 1111.91,-790.28 1118.59,-792.34"/>
<text text-anchor="middle" x="1133" y="-803" font-family="Helvetica,sans-Serif" font-size="10.00"> next</text>
</g>
<!-- Node17 -->
<g id="node17" class="node">
<title>Node17</title>
<g id="a_node17"><a xlink:href="structcoap__dtls__spsk__t.html" target="_top" xlink:title="The structure used for defining the Server PSK setup data to be used.">
<polygon fill="white" stroke="black" points="418.5,-575.5 418.5,-594.5 511.5,-594.5 511.5,-575.5 418.5,-575.5"/>
<text text-anchor="middle" x="465" y="-582.5" font-family="Helvetica,sans-Serif" font-size="10.00">coap_dtls_spsk_t</text>
</a>
</g>
</g>
<!-- Node17&#45;&gt;Node10 -->
<g id="edge32" class="edge">
<title>Node17&#45;&gt;Node10</title>
<path fill="none" stroke="#9a32cd" stroke-dasharray="5,2" d="M521.64,-580.12C562.39,-576.54 616.76,-571.78 653.45,-568.56"/>
<polygon fill="#9a32cd" stroke="#9a32cd" points="521.25,-576.64 511.59,-581 521.86,-583.61 521.25,-576.64"/>
<text text-anchor="middle" x="581.5" y="-581" font-family="Helvetica,sans-Serif" font-size="10.00"> spsk_setup_data</text>
</g>
<!-- Node18 -->
<g id="node18" class="node">
<title>Node18</title>
<g id="a_node18"><a xlink:href="structcoap__dtls__spsk__info__t.html" target="_top" xlink:title="The structure that holds the Server Pre&#45;Shared Key and Identity Hint information.">
<polygon fill="white" stroke="black" points="164,-520.5 164,-539.5 278,-539.5 278,-520.5 164,-520.5"/>
<text text-anchor="middle" x="221" y="-527.5" font-family="Helvetica,sans-Serif" font-size="10.00">coap_dtls_spsk_info_t</text>
</a>
</g>
</g>
<!-- Node18&#45;&gt;Node17 -->
<g id="edge33" class="edge">
<title>Node18&#45;&gt;Node17</title>
<path fill="none" stroke="#9a32cd" stroke-dasharray="5,2" d="M288.34,-524.35C321.73,-524.09 362,-527.86 395,-543 405.28,-547.72 403.74,-554.49 413,-561 421.01,-566.63 430.54,-571.52 439.19,-575.39"/>
<polygon fill="#9a32cd" stroke="#9a32cd" points="288.15,-520.85 278.22,-524.55 288.29,-527.85 288.15,-520.85"/>
<text text-anchor="middle" x="345.5" y="-557" font-family="Helvetica,sans-Serif" font-size="10.00"> psk_info</text>
<text text-anchor="middle" x="345.5" y="-546" font-family="Helvetica,sans-Serif" font-size="10.00">validate_sni_call_back</text>
</g>
<!-- Node19 -->
<g id="node19" class="node">
<title>Node19</title>
<g id="a_node19"><a xlink:href="structcoap__bin__const__t.html" target="_top" xlink:title="CoAP binary data definition with const data.">
<polygon fill="white" stroke="black" points="0,-498.5 0,-517.5 93,-517.5 93,-498.5 0,-498.5"/>
<text text-anchor="middle" x="46.5" y="-505.5" font-family="Helvetica,sans-Serif" font-size="10.00">coap_bin_const_t</text>
</a>
</g>
</g>
<!-- Node19&#45;&gt;Node2 -->
<g id="edge48" class="edge">
<title>Node19&#45;&gt;Node2</title>
<path fill="none" stroke="#9a32cd" stroke-dasharray="5,2" d="M103.4,-499.93C221.64,-482.82 505.83,-441.59 744,-406 790.69,-399.02 804.05,-404.43 849,-390 866.05,-384.53 884.15,-374.89 896.55,-367.62"/>
<polygon fill="#9a32cd" stroke="#9a32cd" points="102.54,-496.51 93.15,-501.41 103.55,-503.44 102.54,-496.51"/>
<text text-anchor="middle" x="465" y="-479" font-family="Helvetica,sans-Serif" font-size="10.00"> psk_hint</text>
<text text-anchor="middle" x="465" y="-468" font-family="Helvetica,sans-Serif" font-size="10.00">psk_identity</text>
<text text-anchor="middle" x="465" y="-457" font-family="Helvetica,sans-Serif" font-size="10.00">psk_key</text>
</g>
<!-- Node19&#45;&gt;Node17 -->
<g id="edge35" class="edge">
<title>Node19&#45;&gt;Node17</title>
<path fill="none" stroke="#9a32cd" stroke-dasharray="5,2" d="M68.15,-523.47C80.06,-531.56 95.67,-540.84 111,-546 216.92,-581.65 349.8,-586.37 418.38,-586.08"/>
<polygon fill="#9a32cd" stroke="#9a32cd" points="70.02,-520.5 59.83,-517.6 65.98,-526.22 70.02,-520.5"/>
<text text-anchor="middle" x="221" y="-582" font-family="Helvetica,sans-Serif" font-size="10.00"> validate_id_call_back</text>
</g>
<!-- Node19&#45;&gt;Node18 -->
<g id="edge34" class="edge">
<title>Node19&#45;&gt;Node18</title>
<path fill="none" stroke="#9a32cd" stroke-dasharray="5,2" d="M103.45,-515.14C122.8,-517.6 144.48,-520.37 163.84,-522.84"/>
<polygon fill="#9a32cd" stroke="#9a32cd" points="103.64,-511.63 93.27,-513.84 102.75,-518.57 103.64,-511.63"/>
<text text-anchor="middle" x="128.5" y="-534" font-family="Helvetica,sans-Serif" font-size="10.00"> hint</text>
<text text-anchor="middle" x="128.5" y="-523" font-family="Helvetica,sans-Serif" font-size="10.00">key</text>
</g>
<!-- Node24 -->
<g id="node24" class="node">
<title>Node24</title>
<g id="a_node24"><a xlink:href="structcoap__dtls__cpsk__info__t.html" target="_top" xlink:title="The structure that holds the Client PSK information.">
<polygon fill="white" stroke="black" points="164,-326.5 164,-345.5 278,-345.5 278,-326.5 164,-326.5"/>
<text text-anchor="middle" x="221" y="-333.5" font-family="Helvetica,sans-Serif" font-size="10.00">coap_dtls_cpsk_info_t</text>
</a>
</g>
</g>
<!-- Node19&#45;&gt;Node24 -->
<g id="edge51" class="edge">
<title>Node19&#45;&gt;Node24</title>
<path fill="none" stroke="#9a32cd" stroke-dasharray="5,2" d="M64.55,-491C100.33,-455.32 182.25,-373.64 210.34,-345.63"/>
<polygon fill="#9a32cd" stroke="#9a32cd" points="61.88,-488.72 57.27,-498.26 66.82,-493.68 61.88,-488.72"/>
<text text-anchor="middle" x="128.5" y="-456" font-family="Helvetica,sans-Serif" font-size="10.00"> identity</text>
<text text-anchor="middle" x="128.5" y="-445" font-family="Helvetica,sans-Serif" font-size="10.00">key</text>
</g>
<!-- Node20&#45;&gt;Node10 -->
<g id="edge37" class="edge">
<title>Node20&#45;&gt;Node10</title>
<path fill="none" stroke="#9a32cd" stroke-dasharray="5,2" d="M1070.54,-532.36C980.04,-540.24 813.37,-554.77 736.63,-561.46"/>
<polygon fill="#9a32cd" stroke="#9a32cd" points="1071,-535.83 1080.66,-531.47 1070.39,-528.86 1071,-535.83"/>
<text text-anchor="middle" x="913" y="-552" font-family="Helvetica,sans-Serif" font-size="10.00"> async_state</text>
</g>
<!-- Node20&#45;&gt;Node20 -->
<g id="edge39" class="edge">
<title>Node20&#45;&gt;Node20</title>
<path fill="none" stroke="#9a32cd" stroke-dasharray="5,2" d="M1115.22,-546.4C1116.41,-551.31 1122.34,-555 1133,-555 1150.06,-555 1154.99,-545.57 1147.8,-536.76"/>
<polygon fill="#9a32cd" stroke="#9a32cd" points="1118.59,-547.34 1118.2,-536.76 1111.91,-545.28 1118.59,-547.34"/>
<text text-anchor="middle" x="1133" y="-558" font-family="Helvetica,sans-Serif" font-size="10.00"> next</text>
</g>
<!-- Node21&#45;&gt;Node2 -->
<g id="edge54" class="edge">
<title>Node21&#45;&gt;Node2</title>
<path fill="none" stroke="#9a32cd" stroke-dasharray="5,2" d="M1265.15,-339.35C1262.4,-339.58 1259.67,-339.8 1257,-340 1148.48,-348.14 1020.37,-353.82 955.75,-356.41"/>
<polygon fill="#9a32cd" stroke="#9a32cd" points="1265.52,-342.83 1275.18,-338.47 1264.91,-335.86 1265.52,-342.83"/>
<text text-anchor="middle" x="1133" y="-353" font-family="Helvetica,sans-Serif" font-size="10.00"> endpoint</text>
</g>
<!-- Node21&#45;&gt;Node10 -->
<g id="edge40" class="edge">
<title>Node21&#45;&gt;Node10</title>
<path fill="none" stroke="#9a32cd" stroke-dasharray="5,2" d="M1314.39,-353.59C1303.22,-401.26 1267.48,-523.16 1185,-575 1111.04,-621.48 840.09,-586.79 736.58,-571.38"/>
<polygon fill="#9a32cd" stroke="#9a32cd" points="1317.85,-354.16 1316.61,-343.64 1311.01,-352.63 1317.85,-354.16"/>
<text text-anchor="middle" x="1020" y="-601" font-family="Helvetica,sans-Serif" font-size="10.00"> endpoint</text>
</g>
<!-- Node21&#45;&gt;Node21 -->
<g id="edge47" class="edge">
<title>Node21&#45;&gt;Node21</title>
<path fill="none" stroke="#9a32cd" stroke-dasharray="5,2" d="M1303.2,-353.4C1304.29,-358.31 1309.72,-362 1319.5,-362 1335.14,-362 1339.66,-352.57 1333.06,-343.76"/>
<polygon fill="#9a32cd" stroke="#9a32cd" points="1306.58,-354.33 1305.94,-343.76 1299.84,-352.42 1306.58,-354.33"/>
<text text-anchor="middle" x="1319.5" y="-365" font-family="Helvetica,sans-Serif" font-size="10.00"> next</text>
</g>
<!-- Node21&#45;&gt;Node22 -->
<g id="edge46" class="edge">
<title>Node21&#45;&gt;Node22</title>
<path fill="none" stroke="#9a32cd" stroke-dasharray="5,2" d="M1265.13,-327.06C1235.74,-323.23 1199.91,-318.57 1173.13,-315.09"/>
<polygon fill="#9a32cd" stroke="#9a32cd" points="1264.87,-330.55 1275.24,-328.37 1265.77,-323.61 1264.87,-330.55"/>
<text text-anchor="middle" x="1230" y="-328" font-family="Helvetica,sans-Serif" font-size="10.00"> endpoint</text>
</g>
<!-- Node22&#45;&gt;Node2 -->
<g id="edge53" class="edge">
<title>Node22&#45;&gt;Node2</title>
<path fill="none" stroke="#9a32cd" stroke-dasharray="5,2" d="M1085.79,-298.6C1054.16,-293 1011.82,-289.94 977,-303 952.8,-312.08 931.8,-335.12 921.24,-348.32"/>
<polygon fill="#9a32cd" stroke="#9a32cd" points="1085.18,-302.04 1095.66,-300.48 1086.49,-295.17 1085.18,-302.04"/>
<text text-anchor="middle" x="1020" y="-306" font-family="Helvetica,sans-Serif" font-size="10.00"> sock</text>
</g>
<!-- Node22&#45;&gt;Node21 -->
<g id="edge44" class="edge">
<title>Node22&#45;&gt;Node21</title>
<path fill="none" stroke="#9a32cd" stroke-dasharray="5,2" d="M1183.16,-299.35C1205.92,-296.2 1233.14,-295 1257,-301 1274.86,-305.49 1293.19,-316.28 1305.14,-324.31"/>
<polygon fill="#9a32cd" stroke="#9a32cd" points="1182.4,-295.92 1173.05,-300.91 1183.47,-302.84 1182.4,-295.92"/>
<text text-anchor="middle" x="1230" y="-304" font-family="Helvetica,sans-Serif" font-size="10.00"> sock</text>
</g>
<!-- Node23 -->
<g id="node23" class="node">
<title>Node23</title>
<g id="a_node23"><a xlink:href="structcoap__dtls__cpsk__t.html" target="_top" xlink:title="The structure used for defining the Client PSK setup data to be used.">
<polygon fill="white" stroke="black" points="535,-299.5 535,-318.5 628,-318.5 628,-299.5 535,-299.5"/>
<text text-anchor="middle" x="581.5" y="-306.5" font-family="Helvetica,sans-Serif" font-size="10.00">coap_dtls_cpsk_t</text>
</a>
</g>
</g>
<!-- Node23&#45;&gt;Node2 -->
<g id="edge49" class="edge">
<title>Node23&#45;&gt;Node2</title>
<path fill="none" stroke="#9a32cd" stroke-dasharray="5,2" d="M638.55,-314.39C692.66,-320.01 776.79,-329.84 849,-343 857.41,-344.53 866.37,-346.48 874.83,-348.45"/>
<polygon fill="#9a32cd" stroke="#9a32cd" points="638.78,-310.9 628.47,-313.36 638.06,-317.86 638.78,-310.9"/>
<text text-anchor="middle" x="695" y="-329" font-family="Helvetica,sans-Serif" font-size="10.00"> cpsk_setup_data</text>
</g>
<!-- Node24&#45;&gt;Node23 -->
<g id="edge50" class="edge">
<title>Node24&#45;&gt;Node23</title>
<path fill="none" stroke="#9a32cd" stroke-dasharray="5,2" d="M247.4,-321.15C257.01,-315.5 268.03,-308.98 278,-303 286.04,-298.18 286.97,-294.54 296,-292 339.58,-279.74 466.24,-293.69 534.92,-302.65"/>
<polygon fill="#9a32cd" stroke="#9a32cd" points="245.56,-318.17 238.7,-326.25 249.1,-324.21 245.56,-318.17"/>
<text text-anchor="middle" x="345.5" y="-306" font-family="Helvetica,sans-Serif" font-size="10.00"> psk_info</text>
<text text-anchor="middle" x="345.5" y="-295" font-family="Helvetica,sans-Serif" font-size="10.00">validate_ih_call_back</text>
</g>
<!-- Node25 -->
<g id="node25" class="node">
<title>Node25</title>
<g id="a_node25"><a xlink:href="structcoap__fixed__point__t.html" target="_top" xlink:title="Abstraction of a fixed point number that can be used where necessary instead of a float.">
<polygon fill="white" stroke="black" points="646,-66.5 646,-85.5 744,-85.5 744,-66.5 646,-66.5"/>
<text text-anchor="middle" x="695" y="-73.5" font-family="Helvetica,sans-Serif" font-size="10.00">coap_fixed_point_t</text>
</a>
</g>
</g>
<!-- Node25&#45;&gt;Node2 -->
<g id="edge52" class="edge">
<title>Node25&#45;&gt;Node2</title>
<path fill="none" stroke="#9a32cd" stroke-dasharray="5,2" d="M747.29,-65.06C780.07,-61.21 821.45,-62.6 849,-86 890.47,-121.23 907.65,-303.85 911.26,-348.26"/>
<polygon fill="#9a32cd" stroke="#9a32cd" points="746.41,-61.65 736.98,-66.48 747.36,-68.59 746.41,-61.65"/>
<text text-anchor="middle" x="805.5" y="-100" font-family="Helvetica,sans-Serif" font-size="10.00"> ack_random_factor</text>
<text text-anchor="middle" x="805.5" y="-89" font-family="Helvetica,sans-Serif" font-size="10.00">ack_timeout</text>
</g>
<!-- Node26 -->
<g id="node26" class="node">
<title>Node26</title>
<g id="a_node26"><a xlink:href="structcoap__cache__key__t.html" target="_top" xlink:title=" ">
<polygon fill="white" stroke="black" points="172,-439.5 172,-458.5 270,-458.5 270,-439.5 172,-439.5"/>
<text text-anchor="middle" x="221" y="-446.5" font-family="Helvetica,sans-Serif" font-size="10.00">coap_cache_key_t</text>
</a>
</g>
</g>
<!-- Node26&#45;&gt;Node1 -->
<g id="edge57" class="edge">
<title>Node26&#45;&gt;Node1</title>
<path fill="none" stroke="#9a32cd" stroke-dasharray="5,2" d="M280.23,-442.41C313.98,-438.05 357.15,-431.56 395,-423 408.68,-419.91 423.6,-415.5 436.05,-411.52"/>
<polygon fill="#9a32cd" stroke="#9a32cd" points="279.56,-438.96 270.08,-443.69 280.44,-445.91 279.56,-438.96"/>
<text text-anchor="middle" x="345.5" y="-443" font-family="Helvetica,sans-Serif" font-size="10.00"> cache_key</text>
</g>
</g>
</svg>
        <g id="navigator" transform="translate(0 0)" fill="#404254">
                <rect fill="#f2f5e9" fill-opacity="0.5" stroke="#606060" stroke-width=".5" x="0" y="0" width="60" height="60"/>
                <use id="zoomplus" xlink:href="#zoomPlus" x="17" y="9" onmousedown="handleZoom(evt,'in')"/>
                <use id="zoomminus" xlink:href="#zoomMin" x="42" y="9" onmousedown="handleZoom(evt,'out')"/>
                <use id="reset" xlink:href="#resetDef" x="30" y="36" onmousedown="handleReset()"/>
                <g id="arrowUp" xlink:href="#dirArrow" transform="translate(30 24)" onmousedown="handlePan(0,-1)">
                  <use xlink:href="#rim" fill="#404040">
                        <set attributeName="fill" to="#808080" begin="arrowUp.mouseover" end="arrowUp.mouseout"/>
                  </use>
                  <path fill="none" stroke="white" stroke-width="1.5" d="M0,-3.0v7 M-2.5,-0.5L0,-3.0L2.5,-0.5"/>
                </g>
                <g id="arrowRight" xlink:href="#dirArrow" transform="rotate(90) translate(36 -43)" onmousedown="handlePan(1,0)">
                  <use xlink:href="#rim" fill="#404040">
                        <set attributeName="fill" to="#808080" begin="arrowRight.mouseover" end="arrowRight.mouseout"/>
                  </use>
                  <path fill="none" stroke="white" stroke-width="1.5" d="M0,-3.0v7 M-2.5,-0.5L0,-3.0L2.5,-0.5"/>
                </g>
                <g id="arrowDown" xlink:href="#dirArrow" transform="rotate(180) translate(-30 -48)" onmousedown="handlePan(0,1)">
                  <use xlink:href="#rim" fill="#404040">
                        <set attributeName="fill" to="#808080" begin="arrowDown.mouseover" end="arrowDown.mouseout"/>
                  </use>
                  <path fill="none" stroke="white" stroke-width="1.5" d="M0,-3.0v7 M-2.5,-0.5L0,-3.0L2.5,-0.5"/>
                </g>
                <g id="arrowLeft" xlink:href="#dirArrow" transform="rotate(270) translate(-36 17)" onmousedown="handlePan(-1,0)">
                  <use xlink:href="#rim" fill="#404040">
                        <set attributeName="fill" to="#808080" begin="arrowLeft.mouseover" end="arrowLeft.mouseout"/>
                  </use>
                  <path fill="none" stroke="white" stroke-width="1.5" d="M0,-3.0v7 M-2.5,-0.5L0,-3.0L2.5,-0.5"/>
                </g>
        </g>
        <svg viewBox="0 0 15 15" width="100%" height="30px" preserveAspectRatio="xMaxYMin meet">
         <g id="arrow_out" transform="scale(0.3 0.3)">
          <a xlink:href="structcoap__cache__entry__t__coll__graph_org.svg" target="_base">
           <rect id="button" ry="5" rx="5" y="6" x="6" height="38" width="38"
                fill="#f2f5e9" fill-opacity="0.5" stroke="#606060" stroke-width="1.0"/>
           <path id="arrow"
             d="M 11.500037,31.436501 C 11.940474,20.09759 22.043105,11.32322 32.158766,21.979434 L 37.068811,17.246167 C 37.068811,17.246167 37.088388,32 37.088388,32 L 22.160133,31.978069 C 22.160133,31.978069 26.997745,27.140456 26.997745,27.140456 C 18.528582,18.264221 13.291696,25.230495 11.500037,31.436501 z"
             style="fill:#404040;"/>
          </a>
         </g>
        </svg>
</svg>
