<?xml version="1.0" encoding="UTF-8" standalone="no"?>
<!DOCTYPE svg PUBLIC "-//W3C//DTD SVG 1.1//EN"
 "http://www.w3.org/Graphics/SVG/1.1/DTD/svg11.dtd">
<!-- Generated by graphviz version 2.43.0 (0)
 -->
<!-- Title: write_option Pages: 1 -->
<svg width="203pt" height="66pt"
 viewBox="0.00 0.00 203.00 66.00" xmlns="http://www.w3.org/2000/svg" xmlns:xlink="http://www.w3.org/1999/xlink">
<g id="graph0" class="graph" transform="scale(1 1) rotate(0) translate(4 62)">
<title>write_option</title>
<polygon fill="white" stroke="transparent" points="-4,4 -4,-62 199,-62 199,4 -4,4"/>
<!-- Node1 -->
<g id="node1" class="node">
<title>Node1</title>
<g id="a_node1"><a xlink:title=" ">
<polygon fill="#bfbfbf" stroke="black" points="126,-19.5 126,-38.5 195,-38.5 195,-19.5 126,-19.5"/>
<text text-anchor="middle" x="160.5" y="-26.5" font-family="Helvetica,sans-Serif" font-size="10.00">write_option</text>
</a>
</g>
</g>
<!-- Node2 -->
<g id="node2" class="node">
<title>Node2</title>
<g id="a_node2"><a xlink:href="group__uri__parse.html#ga4a01c4a81338c39d0a2fb1e3859a6fb0" target="_top" xlink:title="Splits the given URI path into segments.">
<polygon fill="white" stroke="black" points="2.5,-38.5 2.5,-57.5 87.5,-57.5 87.5,-38.5 2.5,-38.5"/>
<text text-anchor="middle" x="45" y="-45.5" font-family="Helvetica,sans-Serif" font-size="10.00">coap_split_path</text>
</a>
</g>
</g>
<!-- Node1&#45;&gt;Node2 -->
<g id="edge1" class="edge">
<title>Node1&#45;&gt;Node2</title>
<path fill="none" stroke="midnightblue" d="M115.69,-36.33C106.55,-37.86 96.93,-39.47 87.86,-40.99"/>
<polygon fill="midnightblue" stroke="midnightblue" points="116.47,-39.75 125.75,-34.65 115.31,-32.85 116.47,-39.75"/>
</g>
<!-- Node3 -->
<g id="node3" class="node">
<title>Node3</title>
<g id="a_node3"><a xlink:href="group__uri__parse.html#ga522cc4dfe723c2a3537f35ee2389ef74" target="_top" xlink:title="Splits the given URI query into segments.">
<polygon fill="white" stroke="black" points="0,-0.5 0,-19.5 90,-19.5 90,-0.5 0,-0.5"/>
<text text-anchor="middle" x="45" y="-7.5" font-family="Helvetica,sans-Serif" font-size="10.00">coap_split_query</text>
</a>
</g>
</g>
<!-- Node1&#45;&gt;Node3 -->
<g id="edge2" class="edge">
<title>Node1&#45;&gt;Node3</title>
<path fill="none" stroke="midnightblue" d="M115.82,-21.69C107.47,-20.29 98.72,-18.82 90.35,-17.42"/>
<polygon fill="midnightblue" stroke="midnightblue" points="115.31,-25.15 125.75,-23.35 116.47,-18.25 115.31,-25.15"/>
</g>
</g>
</svg>
