<?xml version="1.0" encoding="UTF-8" standalone="no"?>
<!DOCTYPE svg PUBLIC "-//W3C//DTD SVG 1.1//EN"
 "http://www.w3.org/Graphics/SVG/1.1/DTD/svg11.dtd">
<!-- Generated by graphviz version 2.43.0 (0)
 -->
<!-- Title: coap_socket_bind_udp Pages: 1 -->
<svg width="581pt" height="218pt"
 viewBox="0.00 0.00 581.00 218.00" xmlns="http://www.w3.org/2000/svg" xmlns:xlink="http://www.w3.org/1999/xlink">
<g id="graph0" class="graph" transform="scale(1 1) rotate(0) translate(4 214)">
<title>coap_socket_bind_udp</title>
<polygon fill="white" stroke="transparent" points="-4,4 -4,-214 577,-214 577,4 -4,4"/>
<!-- Node1 -->
<g id="node1" class="node">
<title>Node1</title>
<g id="a_node1"><a xlink:title=" ">
<polygon fill="#bfbfbf" stroke="black" points="0,-95.5 0,-114.5 116,-114.5 116,-95.5 0,-95.5"/>
<text text-anchor="middle" x="58" y="-102.5" font-family="Helvetica,sans-Serif" font-size="10.00">coap_socket_bind_udp</text>
</a>
</g>
</g>
<!-- Node2 -->
<g id="node2" class="node">
<title>Node2</title>
<g id="a_node2"><a xlink:href="coap__address_8h.html#ada8c7f0dd95000bb418860b970d8cb9f" target="_top" xlink:title=" ">
<polygon fill="white" stroke="black" points="323,-190.5 323,-209.5 427,-209.5 427,-190.5 323,-190.5"/>
<text text-anchor="middle" x="375" y="-197.5" font-family="Helvetica,sans-Serif" font-size="10.00">coap_address_copy</text>
</a>
</g>
</g>
<!-- Node1&#45;&gt;Node2 -->
<g id="edge1" class="edge">
<title>Node1&#45;&gt;Node2</title>
<path fill="none" stroke="midnightblue" d="M70.46,-114.69C87.2,-128.29 119.87,-152.73 152,-165 204.02,-184.86 267.03,-193.45 312.61,-197.17"/>
<polygon fill="midnightblue" stroke="midnightblue" points="312.4,-200.66 322.64,-197.93 312.94,-193.68 312.4,-200.66"/>
</g>
<!-- Node3 -->
<g id="node3" class="node">
<title>Node3</title>
<g id="a_node3"><a xlink:href="coap__address_8c.html#a59e19389468d5ced36778ed07546bce2" target="_top" xlink:title="Resets the given coap_address_t object addr to its default values.">
<polygon fill="white" stroke="black" points="171,-76.5 171,-95.5 266,-95.5 266,-76.5 171,-76.5"/>
<text text-anchor="middle" x="218.5" y="-83.5" font-family="Helvetica,sans-Serif" font-size="10.00">coap_address_init</text>
</a>
</g>
</g>
<!-- Node1&#45;&gt;Node3 -->
<g id="edge2" class="edge">
<title>Node1&#45;&gt;Node3</title>
<path fill="none" stroke="midnightblue" d="M116.22,-98.14C130.64,-96.41 146.11,-94.56 160.51,-92.83"/>
<polygon fill="midnightblue" stroke="midnightblue" points="161.26,-96.27 170.78,-91.6 160.43,-89.32 161.26,-96.27"/>
</g>
<!-- Node4 -->
<g id="node4" class="node">
<title>Node4</title>
<g id="a_node4"><a xlink:href="coap__address_8c.html#a5b47d6fe47a54a0798eddb9ea77005ea" target="_top" xlink:title="Checks if given address a denotes a multicast address.">
<polygon fill="white" stroke="black" points="333.5,-152.5 333.5,-171.5 416.5,-171.5 416.5,-152.5 333.5,-152.5"/>
<text text-anchor="middle" x="375" y="-159.5" font-family="Helvetica,sans-Serif" font-size="10.00">coap_is_mcast</text>
</a>
</g>
</g>
<!-- Node1&#45;&gt;Node4 -->
<g id="edge3" class="edge">
<title>Node1&#45;&gt;Node4</title>
<path fill="none" stroke="midnightblue" d="M77.67,-114.6C96.06,-123.58 125.21,-136.54 152,-143 209.56,-156.88 277.66,-160.96 323.12,-161.99"/>
<polygon fill="midnightblue" stroke="midnightblue" points="323.25,-165.49 333.31,-162.18 323.38,-158.49 323.25,-165.49"/>
</g>
<!-- Node5 -->
<g id="node5" class="node">
<title>Node5</title>
<g id="a_node5"><a xlink:href="coap__io_8c.html#a2de382e7795c908d1a376da8c338386d" target="_top" xlink:title=" ">
<polygon fill="white" stroke="black" points="168,-0.5 168,-19.5 269,-19.5 269,-0.5 168,-0.5"/>
<text text-anchor="middle" x="218.5" y="-7.5" font-family="Helvetica,sans-Serif" font-size="10.00">coap_socket_close</text>
</a>
</g>
</g>
<!-- Node1&#45;&gt;Node5 -->
<g id="edge4" class="edge">
<title>Node1&#45;&gt;Node5</title>
<path fill="none" stroke="midnightblue" d="M69.42,-95.33C85.89,-80.48 119.41,-51.88 152,-34 159.56,-29.86 167.97,-26.16 176.19,-22.99"/>
<polygon fill="midnightblue" stroke="midnightblue" points="177.49,-26.24 185.67,-19.5 175.08,-19.67 177.49,-26.24"/>
</g>
<!-- Node6 -->
<g id="node6" class="node">
<title>Node6</title>
<g id="a_node6"><a xlink:href="coap__io_8c.html#a3d4397c1a2ce78e64c19fdcd25256737" target="_top" xlink:title=" ">
<polygon fill="white" stroke="black" points="321,-35.5 321,-54.5 429,-54.5 429,-35.5 321,-35.5"/>
<text text-anchor="middle" x="375" y="-42.5" font-family="Helvetica,sans-Serif" font-size="10.00">coap_socket_strerror</text>
</a>
</g>
</g>
<!-- Node1&#45;&gt;Node6 -->
<g id="edge13" class="edge">
<title>Node1&#45;&gt;Node6</title>
<path fill="none" stroke="midnightblue" d="M77.69,-95.48C96.1,-86.56 125.25,-73.64 152,-67 204.48,-53.97 265.76,-48.61 310.62,-46.43"/>
<polygon fill="midnightblue" stroke="midnightblue" points="310.96,-49.92 320.79,-45.97 310.64,-42.92 310.96,-49.92"/>
</g>
<!-- Node8 -->
<g id="node8" class="node">
<title>Node8</title>
<g id="a_node8"><a xlink:href="coap__io__contiki_8c.html#a1086276cc42228e6b0b1c72b4f72fa84" target="_top" xlink:title=" ">
<polygon fill="white" stroke="black" points="152,-114.5 152,-133.5 285,-133.5 285,-114.5 152,-114.5"/>
<text text-anchor="middle" x="218.5" y="-121.5" font-family="Helvetica,sans-Serif" font-size="10.00">coap_socket_connect_udp</text>
</a>
</g>
</g>
<!-- Node1&#45;&gt;Node8 -->
<g id="edge7" class="edge">
<title>Node1&#45;&gt;Node8</title>
<path fill="none" stroke="midnightblue" d="M116.22,-111.86C124.51,-112.85 133.14,-113.89 141.72,-114.92"/>
<polygon fill="midnightblue" stroke="midnightblue" points="141.4,-118.4 151.74,-116.12 142.23,-111.45 141.4,-118.4"/>
</g>
<!-- Node5&#45;&gt;Node6 -->
<g id="edge5" class="edge">
<title>Node5&#45;&gt;Node6</title>
<path fill="none" stroke="midnightblue" d="M261.72,-19.56C280.28,-23.77 302.27,-28.75 321.85,-33.19"/>
<polygon fill="midnightblue" stroke="midnightblue" points="321.31,-36.65 331.83,-35.45 322.85,-29.82 321.31,-36.65"/>
</g>
<!-- Node7 -->
<g id="node7" class="node">
<title>Node7</title>
<g id="a_node7"><a xlink:href="coap__io_8c.html#ae0cc13e29656551862a46150320f9390" target="_top" xlink:title=" ">
<polygon fill="white" stroke="black" points="466.5,-30 466.5,-60 571.5,-60 571.5,-30 466.5,-30"/>
<text text-anchor="start" x="474.5" y="-48" font-family="Helvetica,sans-Serif" font-size="10.00">coap_socket_format</text>
<text text-anchor="middle" x="519" y="-37" font-family="Helvetica,sans-Serif" font-size="10.00">_errno</text>
</a>
</g>
</g>
<!-- Node6&#45;&gt;Node7 -->
<g id="edge6" class="edge">
<title>Node6&#45;&gt;Node7</title>
<path fill="none" stroke="midnightblue" d="M429.28,-45C438.09,-45 447.28,-45 456.27,-45"/>
<polygon fill="midnightblue" stroke="midnightblue" points="456.31,-48.5 466.31,-45 456.31,-41.5 456.31,-48.5"/>
</g>
<!-- Node8&#45;&gt;Node2 -->
<g id="edge8" class="edge">
<title>Node8&#45;&gt;Node2</title>
<path fill="none" stroke="midnightblue" d="M234.56,-133.51C254.02,-145.56 289.19,-166.49 321,-181 325.44,-183.02 330.15,-184.98 334.88,-186.82"/>
<polygon fill="midnightblue" stroke="midnightblue" points="333.9,-190.19 344.49,-190.41 336.35,-183.63 333.9,-190.19"/>
</g>
<!-- Node8&#45;&gt;Node4 -->
<g id="edge9" class="edge">
<title>Node8&#45;&gt;Node4</title>
<path fill="none" stroke="midnightblue" d="M258.49,-133.59C278.78,-138.58 303.79,-144.73 325.35,-150.03"/>
<polygon fill="midnightblue" stroke="midnightblue" points="324.75,-153.49 335.29,-152.48 326.42,-146.69 324.75,-153.49"/>
</g>
<!-- Node9 -->
<g id="node9" class="node">
<title>Node9</title>
<g id="a_node9"><a xlink:href="coap__io__contiki_8c.html#a2de382e7795c908d1a376da8c338386d" target="_top" xlink:title=" ">
<polygon fill="white" stroke="black" points="324.5,-76.5 324.5,-95.5 425.5,-95.5 425.5,-76.5 324.5,-76.5"/>
<text text-anchor="middle" x="375" y="-83.5" font-family="Helvetica,sans-Serif" font-size="10.00">coap_socket_close</text>
</a>
</g>
</g>
<!-- Node8&#45;&gt;Node9 -->
<g id="edge10" class="edge">
<title>Node8&#45;&gt;Node9</title>
<path fill="none" stroke="midnightblue" d="M258.49,-114.41C278.78,-109.42 303.79,-103.27 325.35,-97.97"/>
<polygon fill="midnightblue" stroke="midnightblue" points="326.42,-101.31 335.29,-95.52 324.75,-94.51 326.42,-101.31"/>
</g>
<!-- Node10 -->
<g id="node10" class="node">
<title>Node10</title>
<g id="a_node10"><a xlink:href="coap__io__contiki_8c.html#a3d4397c1a2ce78e64c19fdcd25256737" target="_top" xlink:title=" ">
<polygon fill="white" stroke="black" points="465,-96.5 465,-115.5 573,-115.5 573,-96.5 465,-96.5"/>
<text text-anchor="middle" x="519" y="-103.5" font-family="Helvetica,sans-Serif" font-size="10.00">coap_socket_strerror</text>
</a>
</g>
</g>
<!-- Node8&#45;&gt;Node10 -->
<g id="edge12" class="edge">
<title>Node8&#45;&gt;Node10</title>
<path fill="none" stroke="midnightblue" d="M285.01,-120.05C335.42,-117.01 404.68,-112.83 454.57,-109.82"/>
<polygon fill="midnightblue" stroke="midnightblue" points="454.82,-113.32 464.59,-109.22 454.4,-106.33 454.82,-113.32"/>
</g>
<!-- Node9&#45;&gt;Node10 -->
<g id="edge11" class="edge">
<title>Node9&#45;&gt;Node10</title>
<path fill="none" stroke="midnightblue" d="M425.66,-93C435.04,-94.32 444.97,-95.71 454.7,-97.08"/>
<polygon fill="midnightblue" stroke="midnightblue" points="454.35,-100.57 464.74,-98.5 455.33,-93.64 454.35,-100.57"/>
</g>
</g>
</svg>
