<?xml version="1.0" encoding="UTF-8" standalone="no"?>
<!DOCTYPE svg PUBLIC "-//W3C//DTD SVG 1.1//EN"
 "http://www.w3.org/Graphics/SVG/1.1/DTD/svg11.dtd">
<!-- Generated by graphviz version 2.43.0 (0)
 -->
<!-- Title: coap_network_send Pages: 1 -->
<svg width="448pt" height="142pt"
 viewBox="0.00 0.00 448.00 142.00" xmlns="http://www.w3.org/2000/svg" xmlns:xlink="http://www.w3.org/1999/xlink">
<g id="graph0" class="graph" transform="scale(1 1) rotate(0) translate(4 138)">
<title>coap_network_send</title>
<polygon fill="white" stroke="transparent" points="-4,4 -4,-138 444,-138 444,4 -4,4"/>
<!-- Node1 -->
<g id="node1" class="node">
<title>Node1</title>
<g id="a_node1"><a xlink:title="Function interface for data transmission.">
<polygon fill="#bfbfbf" stroke="black" points="0,-57.5 0,-76.5 104,-76.5 104,-57.5 0,-57.5"/>
<text text-anchor="middle" x="52" y="-64.5" font-family="Helvetica,sans-Serif" font-size="10.00">coap_network_send</text>
</a>
</g>
</g>
<!-- Node2 -->
<g id="node2" class="node">
<title>Node2</title>
<g id="a_node2"><a xlink:href="coap__address_8h.html#a021998c955a6787c5cab7b1c385bef63" target="_top" xlink:title="Checks if given address object a denotes the wildcard address.">
<polygon fill="white" stroke="black" points="152,-114.5 152,-133.5 258,-133.5 258,-114.5 152,-114.5"/>
<text text-anchor="middle" x="205" y="-121.5" font-family="Helvetica,sans-Serif" font-size="10.00">coap_address_isany</text>
</a>
</g>
</g>
<!-- Node1&#45;&gt;Node2 -->
<g id="edge1" class="edge">
<title>Node1&#45;&gt;Node2</title>
<path fill="none" stroke="midnightblue" d="M73.1,-76.62C90.55,-84.77 116.62,-96.46 140,-105 146.07,-107.22 152.54,-109.37 158.94,-111.38"/>
<polygon fill="midnightblue" stroke="midnightblue" points="158.28,-114.84 168.87,-114.42 160.33,-108.15 158.28,-114.84"/>
</g>
<!-- Node4 -->
<g id="node4" class="node">
<title>Node4</title>
<g id="a_node4"><a xlink:href="coap__debug_8c.html#af01fc56422e6401f529b053b61e65cad" target="_top" xlink:title="Check to see whether a packet should be sent or not.">
<polygon fill="white" stroke="black" points="140,-76.5 140,-95.5 270,-95.5 270,-76.5 140,-76.5"/>
<text text-anchor="middle" x="205" y="-83.5" font-family="Helvetica,sans-Serif" font-size="10.00">coap_debug_send_packet</text>
</a>
</g>
</g>
<!-- Node1&#45;&gt;Node4 -->
<g id="edge3" class="edge">
<title>Node1&#45;&gt;Node4</title>
<path fill="none" stroke="midnightblue" d="M104.12,-73.43C112.36,-74.47 121.04,-75.56 129.69,-76.65"/>
<polygon fill="midnightblue" stroke="midnightblue" points="129.45,-80.15 139.81,-77.92 130.33,-73.2 129.45,-80.15"/>
</g>
<!-- Node6 -->
<g id="node6" class="node">
<title>Node6</title>
<g id="a_node6"><a xlink:href="coap__address_8c.html#a5b47d6fe47a54a0798eddb9ea77005ea" target="_top" xlink:title="Checks if given address a denotes a multicast address.">
<polygon fill="white" stroke="black" points="163.5,-38.5 163.5,-57.5 246.5,-57.5 246.5,-38.5 163.5,-38.5"/>
<text text-anchor="middle" x="205" y="-45.5" font-family="Helvetica,sans-Serif" font-size="10.00">coap_is_mcast</text>
</a>
</g>
</g>
<!-- Node1&#45;&gt;Node6 -->
<g id="edge5" class="edge">
<title>Node1&#45;&gt;Node6</title>
<path fill="none" stroke="midnightblue" d="M104.12,-60.57C119.98,-58.57 137.45,-56.37 153.29,-54.38"/>
<polygon fill="midnightblue" stroke="midnightblue" points="153.94,-57.83 163.42,-53.11 153.06,-50.88 153.94,-57.83"/>
</g>
<!-- Node7 -->
<g id="node7" class="node">
<title>Node7</title>
<g id="a_node7"><a xlink:href="coap__io__contiki_8c.html#a3d4397c1a2ce78e64c19fdcd25256737" target="_top" xlink:title=" ">
<polygon fill="white" stroke="black" points="151,-0.5 151,-19.5 259,-19.5 259,-0.5 151,-0.5"/>
<text text-anchor="middle" x="205" y="-7.5" font-family="Helvetica,sans-Serif" font-size="10.00">coap_socket_strerror</text>
</a>
</g>
</g>
<!-- Node1&#45;&gt;Node7 -->
<g id="edge6" class="edge">
<title>Node1&#45;&gt;Node7</title>
<path fill="none" stroke="midnightblue" d="M73.1,-57.38C90.55,-49.23 116.62,-37.54 140,-29 146.07,-26.78 152.54,-24.63 158.94,-22.62"/>
<polygon fill="midnightblue" stroke="midnightblue" points="160.33,-25.85 168.87,-19.58 158.28,-19.16 160.33,-25.85"/>
</g>
<!-- Node3 -->
<g id="node3" class="node">
<title>Node3</title>
<g id="a_node3"><a xlink:href="coap__address_8h.html#a3aadd5b560a9e7424b572bb213aa4439" target="_top" xlink:title=" ">
<polygon fill="white" stroke="black" points="306,-114.5 306,-133.5 440,-133.5 440,-114.5 306,-114.5"/>
<text text-anchor="middle" x="373" y="-121.5" font-family="Helvetica,sans-Serif" font-size="10.00">_coap_address_isany_impl</text>
</a>
</g>
</g>
<!-- Node2&#45;&gt;Node3 -->
<g id="edge2" class="edge">
<title>Node2&#45;&gt;Node3</title>
<path fill="none" stroke="midnightblue" d="M258.07,-124C270,-124 282.92,-124 295.64,-124"/>
<polygon fill="midnightblue" stroke="midnightblue" points="295.77,-127.5 305.77,-124 295.77,-120.5 295.77,-127.5"/>
</g>
<!-- Node5 -->
<g id="node5" class="node">
<title>Node5</title>
<g id="a_node5"><a xlink:href="group__coap__prng.html#gac64ef6bcef630d4c1e683baa269b4670" target="_top" xlink:title="Fills buf with len random bytes using the default pseudo random number generator.">
<polygon fill="white" stroke="black" points="342,-76.5 342,-95.5 404,-95.5 404,-76.5 342,-76.5"/>
<text text-anchor="middle" x="373" y="-83.5" font-family="Helvetica,sans-Serif" font-size="10.00">coap_prng</text>
</a>
</g>
</g>
<!-- Node4&#45;&gt;Node5 -->
<g id="edge4" class="edge">
<title>Node4&#45;&gt;Node5</title>
<path fill="none" stroke="midnightblue" d="M270.18,-86C290.87,-86 313.2,-86 331.67,-86"/>
<polygon fill="midnightblue" stroke="midnightblue" points="331.77,-89.5 341.77,-86 331.77,-82.5 331.77,-89.5"/>
</g>
</g>
</svg>
