<?xml version="1.0" encoding="UTF-8" standalone="no"?>
<!DOCTYPE svg PUBLIC "-//W3C//DTD SVG 1.1//EN"
 "http://www.w3.org/Graphics/SVG/1.1/DTD/svg11.dtd">
<!-- Generated by graphviz version 2.43.0 (0)
 -->
<!-- Title: coap_handle_event Pages: 1 -->
<!--zoomable 614 -->
<svg id="main" version="1.1" xmlns="http://www.w3.org/2000/svg" xmlns:xlink="http://www.w3.org/1999/xlink" xml:space="preserve" onload="init(evt)">
<style type="text/css"><![CDATA[
.edge:hover path { stroke: red; }
.edge:hover polygon { stroke: red; fill: red; }
]]></style>
<script type="text/javascript"><![CDATA[
var edges = document.getElementsByTagName('g');
if (edges && edges.length) {
  for (var i=0;i<edges.length;i++) {
    if (edges[i].id.substr(0,4)=='edge') {
      edges[i].setAttribute('class','edge');
    }
  }
}
]]></script>
        <defs>
                <circle id="rim" cx="0" cy="0" r="7"/>
                <circle id="rim2" cx="0" cy="0" r="3.5"/>
                <g id="zoomPlus">
                        <use xlink:href="#rim" fill="#404040">
                                <set attributeName="fill" to="#808080" begin="zoomplus.mouseover" end="zoomplus.mouseout"/>
                        </use>
                        <path d="M-4,0h8M0,-4v8" fill="none" stroke="white" stroke-width="1.5" pointer-events="none"/>
                </g>
                <g id="zoomMin">
                        <use xlink:href="#rim" fill="#404040">
                                <set attributeName="fill" to="#808080" begin="zoomminus.mouseover" end="zoomminus.mouseout"/>
                        </use>
                        <path d="M-4,0h8" fill="none" stroke="white" stroke-width="1.5" pointer-events="none"/>
                </g>
                <g id="dirArrow">
                        <path fill="none" stroke="white" stroke-width="1.5" d="M0,-3.0v7 M-2.5,-0.5L0,-3.0L2.5,-0.5"/>
                </g>
               <g id="resetDef">
                       <use xlink:href="#rim2" fill="#404040">
                               <set attributeName="fill" to="#808080" begin="reset.mouseover" end="reset.mouseout"/>
                       </use>
               </g>
        </defs>

<script type="text/javascript">
var viewWidth = 2711;
var viewHeight = 614;
var sectionId = 'dynsection-4';
</script>
<script xlink:href="svgpan.js"/>
<svg id="graph" class="graph">
<g id="viewport">
<title>coap_handle_event</title>
<polygon fill="white" stroke="transparent" points="-4,4 -4,-609.82 2707,-609.82 2707,4 -4,4"/>
<!-- Node1 -->
<g id="node1" class="node">
<title>Node1</title>
<g id="a_node1"><a xlink:title="Invokes the event handler of context for the given event and data.">
<polygon fill="#bfbfbf" stroke="black" points="2602,-470.82 2602,-489.82 2703,-489.82 2703,-470.82 2602,-470.82"/>
<text text-anchor="middle" x="2652.5" y="-477.82" font-family="Helvetica,sans-Serif" font-size="10.00">coap_handle_event</text>
</a>
</g>
</g>
<!-- Node2 -->
<g id="node2" class="node">
<title>Node2</title>
<g id="a_node2"><a xlink:href="block_8c.html#a4d4d27db5bb7929f8f55fe8a3dfeea8b" target="_top" xlink:title=" ">
<polygon fill="white" stroke="black" points="2441.5,-575.32 2441.5,-605.32 2550.5,-605.32 2550.5,-575.32 2441.5,-575.32"/>
<text text-anchor="start" x="2449.5" y="-593.32" font-family="Helvetica,sans-Serif" font-size="10.00">coap_add_data_large</text>
<text text-anchor="middle" x="2496" y="-582.32" font-family="Helvetica,sans-Serif" font-size="10.00">_internal</text>
</a>
</g>
</g>
<!-- Node1&#45;&gt;Node2 -->
<g id="edge1" class="edge">
<title>Node1&#45;&gt;Node2</title>
<path fill="none" stroke="midnightblue" d="M2636.13,-497.87C2620.02,-515.44 2593.31,-542.39 2566,-560.32 2557.37,-565.99 2547.5,-571.01 2537.97,-575.25"/>
<polygon fill="midnightblue" stroke="midnightblue" points="2639.05,-499.85 2643.14,-490.08 2633.85,-495.17 2639.05,-499.85"/>
</g>
<!-- Node3 -->
<g id="node3" class="node">
<title>Node3</title>
<g id="a_node3"><a xlink:href="group__block__internal.html#gaffc70ae87a01e0ed2b2291028671ebf5" target="_top" xlink:title=" ">
<polygon fill="white" stroke="black" points="2271.5,-487.32 2271.5,-517.32 2381.5,-517.32 2381.5,-487.32 2271.5,-487.32"/>
<text text-anchor="start" x="2279.5" y="-505.32" font-family="Helvetica,sans-Serif" font-size="10.00">coap_block_check_lg</text>
<text text-anchor="middle" x="2326.5" y="-494.32" font-family="Helvetica,sans-Serif" font-size="10.00">_xmit_timeouts</text>
</a>
</g>
</g>
<!-- Node1&#45;&gt;Node3 -->
<g id="edge2" class="edge">
<title>Node1&#45;&gt;Node3</title>
<path fill="none" stroke="midnightblue" d="M2591.84,-484.37C2531.71,-488.46 2439.73,-494.7 2381.65,-498.65"/>
<polygon fill="midnightblue" stroke="midnightblue" points="2592.2,-487.86 2601.94,-483.69 2591.72,-480.87 2592.2,-487.86"/>
</g>
<!-- Node4 -->
<g id="node4" class="node">
<title>Node4</title>
<g id="a_node4"><a xlink:href="group__app__io__internal.html#gaf0cbbb00a6f2f8ac885f0e1575534e34" target="_top" xlink:title="Iterates through all the coap_socket_t structures embedded in endpoints or sessions associated with t...">
<polygon fill="white" stroke="black" points="1669,-457.82 1669,-476.82 1770,-476.82 1770,-457.82 1669,-457.82"/>
<text text-anchor="middle" x="1719.5" y="-464.82" font-family="Helvetica,sans-Serif" font-size="10.00">coap_io_prepare_io</text>
</a>
</g>
</g>
<!-- Node1&#45;&gt;Node4 -->
<g id="edge27" class="edge">
<title>Node1&#45;&gt;Node4</title>
<path fill="none" stroke="midnightblue" d="M2613.96,-493.09C2554.11,-512.28 2433.05,-546.32 2327.5,-546.32 2327.5,-546.32 2327.5,-546.32 2041.5,-546.32 1934.94,-546.32 1908.3,-531.14 1806,-501.32 1783.3,-494.71 1758.27,-484.38 1741.19,-476.84"/>
<polygon fill="midnightblue" stroke="midnightblue" points="2615.29,-496.34 2623.72,-489.92 2613.13,-489.68 2615.29,-496.34"/>
</g>
<!-- Node22 -->
<g id="node22" class="node">
<title>Node22</title>
<g id="a_node22"><a xlink:href="net_8c.html#a0c600aed61c8a8402d31ef795df3b0b6" target="_top" xlink:title=" ">
<polygon fill="white" stroke="black" points="2142,-191.82 2142,-210.82 2227,-210.82 2227,-191.82 2142,-191.82"/>
<text text-anchor="middle" x="2184.5" y="-198.82" font-family="Helvetica,sans-Serif" font-size="10.00">coap_send_pdu</text>
</a>
</g>
</g>
<!-- Node1&#45;&gt;Node22 -->
<g id="edge28" class="edge">
<title>Node1&#45;&gt;Node22</title>
<path fill="none" stroke="midnightblue" d="M2649.03,-460.29C2642.79,-417.7 2622.62,-317.25 2566,-258.32 2469.81,-158.2 2400.84,-165.67 2263,-182.32 2247.6,-184.18 2230.84,-188.05 2216.86,-191.82"/>
<polygon fill="midnightblue" stroke="midnightblue" points="2645.6,-461.03 2650.42,-470.47 2652.54,-460.09 2645.6,-461.03"/>
</g>
<!-- Node34 -->
<g id="node34" class="node">
<title>Node34</title>
<g id="a_node34"><a xlink:href="group__session__internal.html#gaa8b3a2da8480911b0216dad076038cb6" target="_top" xlink:title="Notify session that it has just connected or reconnected.">
<polygon fill="white" stroke="black" points="1979,-343.82 1979,-362.82 2106,-362.82 2106,-343.82 1979,-343.82"/>
<text text-anchor="middle" x="2042.5" y="-350.82" font-family="Helvetica,sans-Serif" font-size="10.00">coap_session_connected</text>
</a>
</g>
</g>
<!-- Node1&#45;&gt;Node34 -->
<g id="edge50" class="edge">
<title>Node1&#45;&gt;Node34</title>
<path fill="none" stroke="midnightblue" d="M2595.8,-468.69C2476.66,-443.8 2199.05,-385.81 2089.31,-362.89"/>
<polygon fill="midnightblue" stroke="midnightblue" points="2595.3,-472.16 2605.8,-470.78 2596.73,-465.31 2595.3,-472.16"/>
</g>
<!-- Node37 -->
<g id="node37" class="node">
<title>Node37</title>
<g id="a_node37"><a xlink:href="group__session.html#gad3377d3198c10fa086502035ded9c268" target="_top" xlink:title="Notify session that it has failed.">
<polygon fill="white" stroke="black" points="2426,-267.82 2426,-286.82 2566,-286.82 2566,-267.82 2426,-267.82"/>
<text text-anchor="middle" x="2496" y="-274.82" font-family="Helvetica,sans-Serif" font-size="10.00">coap_session_disconnected</text>
</a>
</g>
</g>
<!-- Node1&#45;&gt;Node37 -->
<g id="edge57" class="edge">
<title>Node1&#45;&gt;Node37</title>
<path fill="none" stroke="midnightblue" d="M2638.12,-462.74C2606.65,-421.39 2528.77,-319.07 2504.41,-287.06"/>
<polygon fill="midnightblue" stroke="midnightblue" points="2635.41,-464.97 2644.26,-470.8 2640.98,-460.73 2635.41,-464.97"/>
</g>
<!-- Node3&#45;&gt;Node4 -->
<g id="edge3" class="edge">
<title>Node3&#45;&gt;Node4</title>
<path fill="none" stroke="midnightblue" d="M2261.04,-502.24C2162.67,-501.54 1969.27,-497.93 1806,-481.32 1794.33,-480.14 1781.83,-478.37 1770.1,-476.49"/>
<polygon fill="midnightblue" stroke="midnightblue" points="2261.1,-505.74 2271.12,-502.3 2261.15,-498.74 2261.1,-505.74"/>
</g>
<!-- Node5 -->
<g id="node5" class="node">
<title>Node5</title>
<g id="a_node5"><a xlink:href="group__app__io__internal.html#ga3be92476a2c2c12d68c0cd07795c7e34" target="_top" xlink:title="Any now timed out delayed packet is transmitted, along with any packets associated with requested obs...">
<polygon fill="white" stroke="black" points="1520,-425.82 1520,-444.82 1633,-444.82 1633,-425.82 1520,-425.82"/>
<text text-anchor="middle" x="1576.5" y="-432.82" font-family="Helvetica,sans-Serif" font-size="10.00">coap_io_prepare_epoll</text>
</a>
</g>
</g>
<!-- Node4&#45;&gt;Node5 -->
<g id="edge4" class="edge">
<title>Node4&#45;&gt;Node5</title>
<path fill="none" stroke="midnightblue" d="M1666.61,-455.54C1651.1,-452.03 1634.3,-448.21 1619.5,-444.86"/>
<polygon fill="midnightblue" stroke="midnightblue" points="1666.05,-459.01 1676.58,-457.81 1667.6,-452.18 1666.05,-459.01"/>
</g>
<!-- Node7 -->
<g id="node7" class="node">
<title>Node7</title>
<g id="a_node7"><a xlink:href="group__app__io.html#ga2758ed5fdd6ce79ec95ea8dbf72a5644" target="_top" xlink:title="The main message processing loop with additional fds for internal select.">
<polygon fill="white" stroke="black" points="1224,-482.82 1224,-501.82 1356,-501.82 1356,-482.82 1224,-482.82"/>
<text text-anchor="middle" x="1290" y="-489.82" font-family="Helvetica,sans-Serif" font-size="10.00">coap_io_process_with_fds</text>
</a>
</g>
</g>
<!-- Node4&#45;&gt;Node7 -->
<g id="edge25" class="edge">
<title>Node4&#45;&gt;Node7</title>
<path fill="none" stroke="midnightblue" d="M1683.19,-480.1C1667.97,-484.96 1649.83,-489.91 1633,-492.32 1537.49,-506 1425.43,-502.31 1356.32,-497.8"/>
<polygon fill="midnightblue" stroke="midnightblue" points="1684.34,-483.41 1692.73,-476.94 1682.14,-476.76 1684.34,-483.41"/>
</g>
<!-- Node21 -->
<g id="node21" class="node">
<title>Node21</title>
<g id="a_node21"><a xlink:href="net_8h.html#ab54010e3cade80e1417870c87dcd0402" target="_top" xlink:title=" ">
<polygon fill="white" stroke="black" points="1544.5,-463.82 1544.5,-482.82 1608.5,-482.82 1608.5,-463.82 1544.5,-463.82"/>
<text text-anchor="middle" x="1576.5" y="-470.82" font-family="Helvetica,sans-Serif" font-size="10.00">coap_write</text>
</a>
</g>
</g>
<!-- Node4&#45;&gt;Node21 -->
<g id="edge26" class="edge">
<title>Node4&#45;&gt;Node21</title>
<path fill="none" stroke="midnightblue" d="M1658.79,-469.86C1641.58,-470.6 1623.49,-471.37 1608.76,-471.99"/>
<polygon fill="midnightblue" stroke="midnightblue" points="1658.95,-473.36 1668.79,-469.44 1658.65,-466.37 1658.95,-473.36"/>
</g>
<!-- Node6 -->
<g id="node6" class="node">
<title>Node6</title>
<g id="a_node6"><a xlink:href="group__app__io__internal.html#ga503f851fa137eb8a9c2936e2098c5eb9" target="_top" xlink:title="Process all the epoll events.">
<polygon fill="white" stroke="black" points="1392,-425.82 1392,-444.82 1484,-444.82 1484,-425.82 1392,-425.82"/>
<text text-anchor="middle" x="1438" y="-432.82" font-family="Helvetica,sans-Serif" font-size="10.00">coap_io_do_epoll</text>
</a>
</g>
</g>
<!-- Node5&#45;&gt;Node6 -->
<g id="edge5" class="edge">
<title>Node5&#45;&gt;Node6</title>
<path fill="none" stroke="midnightblue" d="M1509.8,-435.32C1501.07,-435.32 1492.29,-435.32 1484.03,-435.32"/>
<polygon fill="midnightblue" stroke="midnightblue" points="1509.98,-438.82 1519.98,-435.32 1509.98,-431.82 1509.98,-438.82"/>
</g>
<!-- Node5&#45;&gt;Node7 -->
<g id="edge24" class="edge">
<title>Node5&#45;&gt;Node7</title>
<path fill="none" stroke="midnightblue" d="M1520.09,-446.92C1508.19,-449.39 1495.68,-451.96 1484,-454.32 1435.13,-464.21 1379.23,-475.18 1340.21,-482.78"/>
<polygon fill="midnightblue" stroke="midnightblue" points="1520.83,-450.35 1529.91,-444.89 1519.41,-443.49 1520.83,-450.35"/>
</g>
<!-- Node6&#45;&gt;Node7 -->
<g id="edge6" class="edge">
<title>Node6&#45;&gt;Node7</title>
<path fill="none" stroke="midnightblue" d="M1403.18,-448.53C1376.37,-458.99 1339.55,-473.37 1315.52,-482.75"/>
<polygon fill="midnightblue" stroke="midnightblue" points="1404.52,-451.76 1412.56,-444.86 1401.97,-445.24 1404.52,-451.76"/>
</g>
<!-- Node8 -->
<g id="node8" class="node">
<title>Node8</title>
<g id="a_node8"><a xlink:href="group__app__io.html#ga082f7bbf15d3f37c31c2a0a5e78ea4cf" target="_top" xlink:title="The main I/O processing function.">
<polygon fill="white" stroke="black" points="1098,-482.82 1098,-501.82 1188,-501.82 1188,-482.82 1098,-482.82"/>
<text text-anchor="middle" x="1143" y="-489.82" font-family="Helvetica,sans-Serif" font-size="10.00">coap_io_process</text>
</a>
</g>
</g>
<!-- Node7&#45;&gt;Node8 -->
<g id="edge7" class="edge">
<title>Node7&#45;&gt;Node8</title>
<path fill="none" stroke="midnightblue" d="M1213.53,-485.58C1204.85,-485.61 1196.23,-485.77 1188.17,-486.05"/>
<polygon fill="midnightblue" stroke="midnightblue" points="1213.7,-489.08 1223.71,-485.6 1213.72,-482.08 1213.7,-489.08"/>
</g>
<!-- Node8&#45;&gt;Node7 -->
<g id="edge22" class="edge">
<title>Node8&#45;&gt;Node7</title>
<path fill="none" stroke="midnightblue" d="M1198.41,-498.88C1206.67,-499.06 1215.25,-499.11 1223.71,-499.04"/>
<polygon fill="midnightblue" stroke="midnightblue" points="1198.26,-495.38 1188.17,-498.59 1198.07,-502.37 1198.26,-495.38"/>
</g>
<!-- Node9 -->
<g id="node9" class="node">
<title>Node9</title>
<g id="a_node9"><a xlink:href="group__context__internal.html#ga5d013d40174c7c217b24bf624f9d7310" target="_top" xlink:title="Delay the sending of the first client request until some other negotiation has completed.">
<polygon fill="white" stroke="black" points="946,-463.82 946,-482.82 1062,-482.82 1062,-463.82 946,-463.82"/>
<text text-anchor="middle" x="1004" y="-470.82" font-family="Helvetica,sans-Serif" font-size="10.00">coap_client_delay_first</text>
</a>
</g>
</g>
<!-- Node8&#45;&gt;Node9 -->
<g id="edge8" class="edge">
<title>Node8&#45;&gt;Node9</title>
<path fill="none" stroke="midnightblue" d="M1087.77,-484.8C1079.31,-483.63 1070.55,-482.41 1062.04,-481.23"/>
<polygon fill="midnightblue" stroke="midnightblue" points="1087.51,-488.3 1097.9,-486.21 1088.47,-481.37 1087.51,-488.3"/>
</g>
<!-- Node20 -->
<g id="node20" class="node">
<title>Node20</title>
<g id="a_node20"><a xlink:href="net_8h.html#ac6b34aa979ec545eb710e45a26c98fc1" target="_top" xlink:title=" ">
<polygon fill="white" stroke="black" points="962.5,-501.82 962.5,-520.82 1045.5,-520.82 1045.5,-501.82 962.5,-501.82"/>
<text text-anchor="middle" x="1004" y="-508.82" font-family="Helvetica,sans-Serif" font-size="10.00">coap_run_once</text>
</a>
</g>
</g>
<!-- Node8&#45;&gt;Node20 -->
<g id="edge23" class="edge">
<title>Node8&#45;&gt;Node20</title>
<path fill="none" stroke="midnightblue" d="M1087.87,-499.83C1073.84,-501.77 1058.98,-503.84 1045.77,-505.67"/>
<polygon fill="midnightblue" stroke="midnightblue" points="1088.47,-503.28 1097.9,-498.44 1087.51,-496.35 1088.47,-503.28"/>
</g>
<!-- Node10 -->
<g id="node10" class="node">
<title>Node10</title>
<g id="a_node10"><a xlink:href="group__session.html#ga4368ee622c681bf7cf0b7cfe99c8ab37" target="_top" xlink:title="Get maximum acceptable PDU size.">
<polygon fill="white" stroke="black" points="765,-463.82 765,-482.82 910,-482.82 910,-463.82 765,-463.82"/>
<text text-anchor="middle" x="837.5" y="-470.82" font-family="Helvetica,sans-Serif" font-size="10.00">coap_session_max_pdu_size</text>
</a>
</g>
</g>
<!-- Node9&#45;&gt;Node10 -->
<g id="edge9" class="edge">
<title>Node9&#45;&gt;Node10</title>
<path fill="none" stroke="midnightblue" d="M935.79,-473.32C927.37,-473.32 918.74,-473.32 910.25,-473.32"/>
<polygon fill="midnightblue" stroke="midnightblue" points="935.93,-476.82 945.93,-473.32 935.93,-469.82 935.93,-476.82"/>
</g>
<!-- Node11 -->
<g id="node11" class="node">
<title>Node11</title>
<g id="a_node11"><a xlink:href="group__context__internal.html#gae6b8ca457dd41f23372f9e9a7159312b" target="_top" xlink:title="Parses and interprets a CoAP datagram with context ctx.">
<polygon fill="white" stroke="black" points="625,-305.82 625,-324.82 729,-324.82 729,-305.82 625,-305.82"/>
<text text-anchor="middle" x="677" y="-312.82" font-family="Helvetica,sans-Serif" font-size="10.00">coap_handle_dgram</text>
</a>
</g>
</g>
<!-- Node10&#45;&gt;Node11 -->
<g id="edge10" class="edge">
<title>Node10&#45;&gt;Node11</title>
<path fill="none" stroke="midnightblue" d="M819.41,-456.29C786.28,-423.26 714.26,-351.47 687.91,-325.2"/>
<polygon fill="midnightblue" stroke="midnightblue" points="817.03,-458.86 826.59,-463.44 821.97,-453.9 817.03,-458.86"/>
</g>
<!-- Node17 -->
<g id="node17" class="node">
<title>Node17</title>
<g id="a_node17"><a xlink:href="group__pdu.html#ga6ab63e25c7c9eed3de00b0e1153b33b6" target="_top" xlink:title="Creates a new CoAP PDU.">
<polygon fill="white" stroke="black" points="636,-501.82 636,-520.82 718,-520.82 718,-501.82 636,-501.82"/>
<text text-anchor="middle" x="677" y="-508.82" font-family="Helvetica,sans-Serif" font-size="10.00">coap_new_pdu</text>
</a>
</g>
</g>
<!-- Node10&#45;&gt;Node17 -->
<g id="edge19" class="edge">
<title>Node10&#45;&gt;Node17</title>
<path fill="none" stroke="midnightblue" d="M786.58,-485.29C764.37,-490.62 738.58,-496.8 717.71,-501.8"/>
<polygon fill="midnightblue" stroke="midnightblue" points="787.6,-488.65 796.5,-482.91 785.96,-481.84 787.6,-488.65"/>
</g>
<!-- Node18 -->
<g id="node18" class="node">
<title>Node18</title>
<g id="a_node18"><a xlink:href="group__pdu.html#gabf10450d37381b133fb780480b4fca1b" target="_top" xlink:title="Duplicate an existing PDU.">
<polygon fill="white" stroke="black" points="625.5,-463.82 625.5,-482.82 728.5,-482.82 728.5,-463.82 625.5,-463.82"/>
<text text-anchor="middle" x="677" y="-470.82" font-family="Helvetica,sans-Serif" font-size="10.00">coap_pdu_duplicate</text>
</a>
</g>
</g>
<!-- Node10&#45;&gt;Node18 -->
<g id="edge20" class="edge">
<title>Node10&#45;&gt;Node18</title>
<path fill="none" stroke="midnightblue" d="M754.41,-473.32C745.67,-473.32 736.97,-473.32 728.75,-473.32"/>
<polygon fill="midnightblue" stroke="midnightblue" points="754.67,-476.82 764.67,-473.32 754.67,-469.82 754.67,-476.82"/>
</g>
<!-- Node12 -->
<g id="node12" class="node">
<title>Node12</title>
<g id="a_node12"><a xlink:href="net_8c.html#a8534f7860b14e0743529daff196a27ce" target="_top" xlink:title=" ">
<polygon fill="white" stroke="black" points="469,-300.32 469,-330.32 589,-330.32 589,-300.32 469,-300.32"/>
<text text-anchor="start" x="477" y="-318.32" font-family="Helvetica,sans-Serif" font-size="10.00">coap_handle_dgram_for</text>
<text text-anchor="middle" x="529" y="-307.32" font-family="Helvetica,sans-Serif" font-size="10.00">_proto</text>
</a>
</g>
</g>
<!-- Node11&#45;&gt;Node12 -->
<g id="edge11" class="edge">
<title>Node11&#45;&gt;Node12</title>
<path fill="none" stroke="midnightblue" d="M614.71,-315.32C606.21,-315.32 597.49,-315.32 589.04,-315.32"/>
<polygon fill="midnightblue" stroke="midnightblue" points="614.94,-318.82 624.94,-315.32 614.94,-311.82 614.94,-318.82"/>
</g>
<!-- Node13 -->
<g id="node13" class="node">
<title>Node13</title>
<g id="a_node13"><a xlink:href="net_8c.html#acd36f6fba6d30ab9557e0e6521f4a088" target="_top" xlink:title=" ">
<polygon fill="white" stroke="black" points="332,-368.82 332,-387.82 433,-387.82 433,-368.82 332,-368.82"/>
<text text-anchor="middle" x="382.5" y="-375.82" font-family="Helvetica,sans-Serif" font-size="10.00">coap_read_session</text>
</a>
</g>
</g>
<!-- Node12&#45;&gt;Node13 -->
<g id="edge12" class="edge">
<title>Node12&#45;&gt;Node13</title>
<path fill="none" stroke="midnightblue" d="M484.13,-334.45C458.22,-345.75 426.51,-359.57 405.69,-368.65"/>
<polygon fill="midnightblue" stroke="midnightblue" points="485.62,-337.62 493.39,-330.41 482.82,-331.2 485.62,-337.62"/>
</g>
<!-- Node13&#45;&gt;Node6 -->
<g id="edge13" class="edge">
<title>Node13&#45;&gt;Node6</title>
<path fill="none" stroke="midnightblue" d="M413.54,-392.07C429.66,-398.89 450.07,-406.65 469,-411.32 558.92,-433.51 583.38,-435.32 676,-435.32 1144,-435.32 1144,-435.32 1144,-435.32 1231.75,-435.32 1334.28,-435.32 1391.83,-435.32"/>
<polygon fill="midnightblue" stroke="midnightblue" points="414.67,-388.74 404.1,-387.97 411.89,-395.16 414.67,-388.74"/>
</g>
<!-- Node14 -->
<g id="node14" class="node">
<title>Node14</title>
<g id="a_node14"><a xlink:href="group__app__io__internal.html#ga2208802b0711ad20df07271b751b41dc" target="_top" xlink:title="Processes any outstanding read, write, accept or connect I/O as indicated in the coap_socket_t struct...">
<polygon fill="white" stroke="black" points="217,-368.82 217,-387.82 296,-387.82 296,-368.82 217,-368.82"/>
<text text-anchor="middle" x="256.5" y="-375.82" font-family="Helvetica,sans-Serif" font-size="10.00">coap_io_do_io</text>
</a>
</g>
</g>
<!-- Node13&#45;&gt;Node14 -->
<g id="edge14" class="edge">
<title>Node13&#45;&gt;Node14</title>
<path fill="none" stroke="midnightblue" d="M321.67,-378.32C312.99,-378.32 304.27,-378.32 296.16,-378.32"/>
<polygon fill="midnightblue" stroke="midnightblue" points="321.78,-381.82 331.78,-378.32 321.78,-374.82 321.78,-381.82"/>
</g>
<!-- Node14&#45;&gt;Node7 -->
<g id="edge15" class="edge">
<title>Node14&#45;&gt;Node7</title>
<path fill="none" stroke="midnightblue" d="M271.7,-395.78C308.84,-439.33 413.93,-549.32 528,-549.32 1005,-549.32 1005,-549.32 1005,-549.32 1100.3,-549.32 1210.13,-518.09 1260.76,-501.86"/>
<polygon fill="midnightblue" stroke="midnightblue" points="274.3,-393.43 265.19,-388.01 268.93,-397.92 274.3,-393.43"/>
</g>
<!-- Node15 -->
<g id="node15" class="node">
<title>Node15</title>
<g id="a_node15"><a xlink:href="net_8h.html#af937985e2b14a287a849663574d59bcb" target="_top" xlink:title=" ">
<polygon fill="white" stroke="black" points="119,-310.82 119,-329.82 181,-329.82 181,-310.82 119,-310.82"/>
<text text-anchor="middle" x="150" y="-317.82" font-family="Helvetica,sans-Serif" font-size="10.00">coap_read</text>
</a>
</g>
</g>
<!-- Node14&#45;&gt;Node15 -->
<g id="edge16" class="edge">
<title>Node14&#45;&gt;Node15</title>
<path fill="none" stroke="midnightblue" d="M229.44,-363.86C210.33,-353.25 184.93,-339.15 168.28,-329.91"/>
<polygon fill="midnightblue" stroke="midnightblue" points="227.8,-366.95 238.24,-368.74 231.2,-360.83 227.8,-366.95"/>
</g>
<!-- Node16 -->
<g id="node16" class="node">
<title>Node16</title>
<g id="a_node16"><a xlink:href="coap__io__contiki_8c.html#a75a7c93e10ca7858449ba304aad4ea37" target="_top" xlink:title=" ">
<polygon fill="white" stroke="black" points="0,-232.82 0,-251.82 83,-251.82 83,-232.82 0,-232.82"/>
<text text-anchor="middle" x="41.5" y="-239.82" font-family="Helvetica,sans-Serif" font-size="10.00">coap_run_once</text>
</a>
</g>
</g>
<!-- Node15&#45;&gt;Node16 -->
<g id="edge17" class="edge">
<title>Node15&#45;&gt;Node16</title>
<path fill="none" stroke="midnightblue" d="M127.75,-304.76C106.25,-289.01 73.69,-265.16 55.67,-251.96"/>
<polygon fill="midnightblue" stroke="midnightblue" points="125.81,-307.67 135.94,-310.76 129.94,-302.03 125.81,-307.67"/>
</g>
<!-- Node16&#45;&gt;Node16 -->
<g id="edge18" class="edge">
<title>Node16&#45;&gt;Node16</title>
<path fill="none" stroke="midnightblue" d="M61.5,-261.72C60.16,-266.64 53.5,-270.32 41.5,-270.32 22.3,-270.32 16.76,-260.89 24.85,-252.08"/>
<polygon fill="midnightblue" stroke="midnightblue" points="64.74,-260.37 58.15,-252.08 58.12,-262.67 64.74,-260.37"/>
</g>
<!-- Node19 -->
<g id="node19" class="node">
<title>Node19</title>
<g id="a_node19"><a xlink:href="group__coap__async.html#ga14b20d8c5bf07bdda9f8bc6777540a84" target="_top" xlink:title="Allocates a new coap_async_t object and fills its fields according to the given request.">
<polygon fill="white" stroke="black" points="475.5,-463.82 475.5,-482.82 582.5,-482.82 582.5,-463.82 475.5,-463.82"/>
<text text-anchor="middle" x="529" y="-470.82" font-family="Helvetica,sans-Serif" font-size="10.00">coap_register_async</text>
</a>
</g>
</g>
<!-- Node18&#45;&gt;Node19 -->
<g id="edge21" class="edge">
<title>Node18&#45;&gt;Node19</title>
<path fill="none" stroke="midnightblue" d="M615.12,-473.32C604.3,-473.32 593.11,-473.32 582.55,-473.32"/>
<polygon fill="midnightblue" stroke="midnightblue" points="615.35,-476.82 625.35,-473.32 615.35,-469.82 615.35,-476.82"/>
</g>
<!-- Node23 -->
<g id="node23" class="node">
<title>Node23</title>
<g id="a_node23"><a xlink:href="group__context__internal.html#gaad5ccd0b3161f63c0854c2624e892ef4" target="_top" xlink:title="Handles retransmissions of confirmable messages.">
<polygon fill="white" stroke="black" points="1831.5,-305.82 1831.5,-324.82 1917.5,-324.82 1917.5,-305.82 1831.5,-305.82"/>
<text text-anchor="middle" x="1874.5" y="-312.82" font-family="Helvetica,sans-Serif" font-size="10.00">coap_retransmit</text>
</a>
</g>
</g>
<!-- Node22&#45;&gt;Node23 -->
<g id="edge29" class="edge">
<title>Node22&#45;&gt;Node23</title>
<path fill="none" stroke="midnightblue" d="M2152.24,-214.85C2106.72,-234.29 2019.29,-270.59 1943,-296.32 1933.08,-299.67 1922.21,-302.91 1912.14,-305.74"/>
<polygon fill="midnightblue" stroke="midnightblue" points="2153.75,-218.02 2161.56,-210.86 2150.99,-211.58 2153.75,-218.02"/>
</g>
<!-- Node25 -->
<g id="node25" class="node">
<title>Node25</title>
<g id="a_node25"><a xlink:href="group__context__internal.html#ga7d1802ed0aab8ba0b1e00f81c15869bd" target="_top" xlink:title="Sends a CoAP message to given peer.">
<polygon fill="white" stroke="black" points="1992,-172.82 1992,-191.82 2093,-191.82 2093,-172.82 1992,-172.82"/>
<text text-anchor="middle" x="2042.5" y="-179.82" font-family="Helvetica,sans-Serif" font-size="10.00">coap_send_internal</text>
</a>
</g>
</g>
<!-- Node22&#45;&gt;Node25 -->
<g id="edge33" class="edge">
<title>Node22&#45;&gt;Node25</title>
<path fill="none" stroke="midnightblue" d="M2131.93,-194.32C2119.25,-192.6 2105.7,-190.76 2093.12,-189.06"/>
<polygon fill="midnightblue" stroke="midnightblue" points="2131.49,-197.8 2141.87,-195.67 2132.44,-190.86 2131.49,-197.8"/>
</g>
<!-- Node23&#45;&gt;Node4 -->
<g id="edge30" class="edge">
<title>Node23&#45;&gt;Node4</title>
<path fill="none" stroke="midnightblue" d="M1853.23,-331.23C1839.49,-342.3 1821.14,-357.65 1806,-372.32 1790.14,-387.69 1747.27,-436.57 1728.97,-457.58"/>
<polygon fill="midnightblue" stroke="midnightblue" points="1855.48,-333.91 1861.12,-324.93 1851.12,-328.43 1855.48,-333.91"/>
</g>
<!-- Node24 -->
<g id="node24" class="node">
<title>Node24</title>
<g id="a_node24"><a xlink:href="coap__io__contiki_8c.html#aaac86ac50793f309678e4951ecf8863f" target="_top" xlink:title=" ">
<polygon fill="white" stroke="black" points="1687.5,-153.82 1687.5,-172.82 1751.5,-172.82 1751.5,-153.82 1687.5,-153.82"/>
<text text-anchor="middle" x="1719.5" y="-160.82" font-family="Helvetica,sans-Serif" font-size="10.00">coap_write</text>
</a>
</g>
</g>
<!-- Node23&#45;&gt;Node24 -->
<g id="edge31" class="edge">
<title>Node23&#45;&gt;Node24</title>
<path fill="none" stroke="midnightblue" d="M1821.83,-306.72C1816,-304.11 1810.53,-300.71 1806,-296.32 1767.84,-259.35 1806.41,-221.01 1770,-182.32 1765.02,-177.03 1758.39,-173.19 1751.62,-170.42"/>
<polygon fill="midnightblue" stroke="midnightblue" points="1820.63,-310.01 1831.22,-310.23 1823.08,-303.45 1820.63,-310.01"/>
</g>
<!-- Node24&#45;&gt;Node16 -->
<g id="edge32" class="edge">
<title>Node24&#45;&gt;Node16</title>
<path fill="none" stroke="midnightblue" d="M1677.14,-167.9C1622.64,-173.52 1523.76,-182.32 1439,-182.32 1439,-182.32 1439,-182.32 255.5,-182.32 181.93,-182.32 99.24,-215.9 62.24,-232.81"/>
<polygon fill="midnightblue" stroke="midnightblue" points="1677.53,-171.37 1687.11,-166.85 1676.8,-164.41 1677.53,-171.37"/>
</g>
<!-- Node26 -->
<g id="node26" class="node">
<title>Node26</title>
<g id="a_node26"><a xlink:href="group__context__internal.html#ga7bb944fc52f772655356d95724317401" target="_top" xlink:title="Dispatches the PDUs from the receive queue in given context.">
<polygon fill="white" stroke="black" points="1536.5,-305.82 1536.5,-324.82 1616.5,-324.82 1616.5,-305.82 1536.5,-305.82"/>
<text text-anchor="middle" x="1576.5" y="-312.82" font-family="Helvetica,sans-Serif" font-size="10.00">coap_dispatch</text>
</a>
</g>
</g>
<!-- Node25&#45;&gt;Node26 -->
<g id="edge34" class="edge">
<title>Node25&#45;&gt;Node26</title>
<path fill="none" stroke="midnightblue" d="M2009.26,-195.83C1990.19,-203.56 1965.44,-213.11 1943,-220.32 1883.12,-239.56 1729.87,-275.45 1669,-291.32 1650.88,-296.05 1630.76,-301.32 1614,-305.72"/>
<polygon fill="midnightblue" stroke="midnightblue" points="2010.75,-199.01 2018.68,-191.98 2008.1,-192.53 2010.75,-199.01"/>
</g>
<!-- Node27 -->
<g id="node27" class="node">
<title>Node27</title>
<g id="a_node27"><a xlink:href="group__context.html#gaeadf53fc0202c2a9c881406d4aa12a4c" target="_top" xlink:title="Sends a CoAP message to given peer.">
<polygon fill="white" stroke="black" points="1842.5,-115.82 1842.5,-134.82 1906.5,-134.82 1906.5,-115.82 1842.5,-115.82"/>
<text text-anchor="middle" x="1874.5" y="-122.82" font-family="Helvetica,sans-Serif" font-size="10.00">coap_send</text>
</a>
</g>
</g>
<!-- Node25&#45;&gt;Node27 -->
<g id="edge37" class="edge">
<title>Node25&#45;&gt;Node27</title>
<path fill="none" stroke="midnightblue" d="M2009.21,-168.98C1990.11,-161.32 1965.36,-151.76 1943,-144.32 1931.22,-140.4 1918.11,-136.59 1906.6,-133.42"/>
<polygon fill="midnightblue" stroke="midnightblue" points="2008.05,-172.29 2018.63,-172.8 2010.68,-165.8 2008.05,-172.29"/>
</g>
<!-- Node28 -->
<g id="node28" class="node">
<title>Node28</title>
<g id="a_node28"><a xlink:href="group__context.html#ga059557785c3f40b683269ba4090203e8" target="_top" xlink:title="Sends an ACK message with code 0 for the specified request to dst.">
<polygon fill="white" stroke="black" points="1832,-77.82 1832,-96.82 1917,-96.82 1917,-77.82 1832,-77.82"/>
<text text-anchor="middle" x="1874.5" y="-84.82" font-family="Helvetica,sans-Serif" font-size="10.00">coap_send_ack</text>
</a>
</g>
</g>
<!-- Node25&#45;&gt;Node28 -->
<g id="edge38" class="edge">
<title>Node25&#45;&gt;Node28</title>
<path fill="none" stroke="midnightblue" d="M2024.36,-165.75C2005.75,-148.59 1974.44,-122.12 1943,-106.32 1934.95,-102.28 1925.91,-98.98 1917.14,-96.34"/>
<polygon fill="midnightblue" stroke="midnightblue" points="2022.07,-168.39 2031.76,-172.69 2026.86,-163.29 2022.07,-168.39"/>
</g>
<!-- Node29 -->
<g id="node29" class="node">
<title>Node29</title>
<g id="a_node29"><a xlink:href="group__context.html#ga95c41b8af7a987b4e376db0a70370006" target="_top" xlink:title="Sends an error response with code code for request request to dst.">
<polygon fill="white" stroke="black" points="1830,-39.82 1830,-58.82 1919,-58.82 1919,-39.82 1830,-39.82"/>
<text text-anchor="middle" x="1874.5" y="-46.82" font-family="Helvetica,sans-Serif" font-size="10.00">coap_send_error</text>
</a>
</g>
</g>
<!-- Node25&#45;&gt;Node29 -->
<g id="edge39" class="edge">
<title>Node25&#45;&gt;Node29</title>
<path fill="none" stroke="midnightblue" d="M2030.64,-164.08C2014.65,-138.78 1982.34,-93.33 1943,-68.32 1935.81,-63.75 1927.5,-60.26 1919.23,-57.6"/>
<polygon fill="midnightblue" stroke="midnightblue" points="2027.73,-166.02 2035.96,-172.7 2033.69,-162.35 2027.73,-166.02"/>
</g>
<!-- Node30 -->
<g id="node30" class="node">
<title>Node30</title>
<g id="a_node30"><a xlink:href="group__context.html#ga8f46c87e4908ae0ee8c9a0e3e15f8f4a" target="_top" xlink:title="Helper function to create and send a message with type (usually ACK or RST).">
<polygon fill="white" stroke="black" points="1808,-191.82 1808,-210.82 1941,-210.82 1941,-191.82 1808,-191.82"/>
<text text-anchor="middle" x="1874.5" y="-198.82" font-family="Helvetica,sans-Serif" font-size="10.00">coap_send_message_type</text>
</a>
</g>
</g>
<!-- Node25&#45;&gt;Node30 -->
<g id="edge40" class="edge">
<title>Node25&#45;&gt;Node30</title>
<path fill="none" stroke="midnightblue" d="M1981.43,-189.2C1968.38,-190.69 1954.51,-192.28 1941.25,-193.8"/>
<polygon fill="midnightblue" stroke="midnightblue" points="1982.16,-192.64 1991.69,-188.02 1981.36,-185.68 1982.16,-192.64"/>
</g>
<!-- Node32 -->
<g id="node32" class="node">
<title>Node32</title>
<g id="a_node32"><a xlink:href="coap__session_8c.html#a1aeb41a0f4f9a70e4ff5f58cdae96b5a" target="_top" xlink:title="Send a ping message for the session.">
<polygon fill="white" stroke="black" points="1811.5,-153.82 1811.5,-172.82 1937.5,-172.82 1937.5,-153.82 1811.5,-153.82"/>
<text text-anchor="middle" x="1874.5" y="-160.82" font-family="Helvetica,sans-Serif" font-size="10.00">coap_session_send_ping</text>
</a>
</g>
</g>
<!-- Node25&#45;&gt;Node32 -->
<g id="edge45" class="edge">
<title>Node25&#45;&gt;Node32</title>
<path fill="none" stroke="midnightblue" d="M1981.51,-175.46C1967.24,-173.82 1951.99,-172.08 1937.63,-170.43"/>
<polygon fill="midnightblue" stroke="midnightblue" points="1981.36,-178.96 1991.69,-176.62 1982.16,-172.01 1981.36,-178.96"/>
</g>
<!-- Node33 -->
<g id="node33" class="node">
<title>Node33</title>
<g id="a_node33"><a xlink:href="net_8c.html#ac4cbcfd073489b57805db665ce3d0681" target="_top" xlink:title=" ">
<polygon fill="white" stroke="black" points="1830,-267.82 1830,-286.82 1919,-286.82 1919,-267.82 1830,-267.82"/>
<text text-anchor="middle" x="1874.5" y="-274.82" font-family="Helvetica,sans-Serif" font-size="10.00">handle_signaling</text>
</a>
</g>
</g>
<!-- Node25&#45;&gt;Node33 -->
<g id="edge48" class="edge">
<title>Node25&#45;&gt;Node33</title>
<path fill="none" stroke="midnightblue" d="M2022.47,-198.56C2003.37,-214.23 1972.63,-237.78 1943,-253.32 1932.1,-259.04 1919.53,-263.93 1908.22,-267.77"/>
<polygon fill="midnightblue" stroke="midnightblue" points="2024.93,-201.07 2030.37,-191.98 2020.45,-195.69 2024.93,-201.07"/>
</g>
<!-- Node26&#45;&gt;Node11 -->
<g id="edge35" class="edge">
<title>Node26&#45;&gt;Node11</title>
<path fill="none" stroke="midnightblue" d="M1526.26,-315.32C1469.54,-315.32 1373.53,-315.32 1291,-315.32 1291,-315.32 1291,-315.32 1003,-315.32 906.23,-315.32 793.26,-315.32 729.22,-315.32"/>
<polygon fill="midnightblue" stroke="midnightblue" points="1526.38,-318.82 1536.38,-315.32 1526.38,-311.82 1526.38,-318.82"/>
</g>
<!-- Node26&#45;&gt;Node13 -->
<g id="edge36" class="edge">
<title>Node26&#45;&gt;Node13</title>
<path fill="none" stroke="midnightblue" d="M1528.04,-327.23C1471.84,-340.26 1375.22,-359.32 1291,-359.32 1291,-359.32 1291,-359.32 676,-359.32 590.51,-359.32 491.25,-367.5 433.12,-373.13"/>
<polygon fill="midnightblue" stroke="midnightblue" points="1529.12,-330.57 1538.05,-324.87 1527.51,-323.75 1529.12,-330.57"/>
</g>
<!-- Node30&#45;&gt;Node26 -->
<g id="edge41" class="edge">
<title>Node30&#45;&gt;Node26</title>
<path fill="none" stroke="midnightblue" d="M1822.85,-213.32C1780.78,-224.08 1719.81,-241.5 1669,-263.32 1640.46,-275.58 1609.47,-294.49 1591.88,-305.81"/>
<polygon fill="midnightblue" stroke="midnightblue" points="1823.75,-216.7 1832.59,-210.86 1822.04,-209.92 1823.75,-216.7"/>
</g>
<!-- Node31 -->
<g id="node31" class="node">
<title>Node31</title>
<g id="a_node31"><a xlink:href="group__context.html#ga7f4dd3326d1d0619a5baa9812bef6906" target="_top" xlink:title="Sends an RST message with code 0 for the specified request to dst.">
<polygon fill="white" stroke="black" points="1679.5,-191.82 1679.5,-210.82 1759.5,-210.82 1759.5,-191.82 1679.5,-191.82"/>
<text text-anchor="middle" x="1719.5" y="-198.82" font-family="Helvetica,sans-Serif" font-size="10.00">coap_send_rst</text>
</a>
</g>
</g>
<!-- Node30&#45;&gt;Node31 -->
<g id="edge42" class="edge">
<title>Node30&#45;&gt;Node31</title>
<path fill="none" stroke="midnightblue" d="M1797.7,-201.32C1784.55,-201.32 1771.37,-201.32 1759.72,-201.32"/>
<polygon fill="midnightblue" stroke="midnightblue" points="1797.73,-204.82 1807.73,-201.32 1797.73,-197.82 1797.73,-204.82"/>
</g>
<!-- Node31&#45;&gt;Node11 -->
<g id="edge44" class="edge">
<title>Node31&#45;&gt;Node11</title>
<path fill="none" stroke="midnightblue" d="M1681.04,-213.96C1627.87,-230.76 1527.16,-258.32 1439,-258.32 1439,-258.32 1439,-258.32 1003,-258.32 894.45,-258.32 768.52,-289.56 710.42,-305.78"/>
<polygon fill="midnightblue" stroke="midnightblue" points="1682.26,-217.25 1690.72,-210.86 1680.12,-210.58 1682.26,-217.25"/>
</g>
<!-- Node31&#45;&gt;Node26 -->
<g id="edge43" class="edge">
<title>Node31&#45;&gt;Node26</title>
<path fill="none" stroke="midnightblue" d="M1683.69,-215.61C1678.52,-218.46 1673.44,-221.7 1669,-225.32 1648.61,-241.96 1651.55,-253.67 1633,-272.32 1620.28,-285.11 1603.72,-297.49 1592.01,-305.65"/>
<polygon fill="midnightblue" stroke="midnightblue" points="1685.63,-218.56 1692.99,-210.94 1682.48,-212.31 1685.63,-218.56"/>
</g>
<!-- Node32&#45;&gt;Node4 -->
<g id="edge46" class="edge">
<title>Node32&#45;&gt;Node4</title>
<path fill="none" stroke="midnightblue" d="M1809.74,-178.64C1808.42,-179.78 1807.17,-181.01 1806,-182.32 1737.85,-259.01 1813.31,-317.32 1770,-410.32 1761.04,-429.57 1743.59,-447.28 1731.99,-457.7"/>
<polygon fill="midnightblue" stroke="midnightblue" points="1811.74,-181.51 1817.97,-172.94 1807.76,-175.75 1811.74,-181.51"/>
</g>
<!-- Node32&#45;&gt;Node24 -->
<g id="edge47" class="edge">
<title>Node32&#45;&gt;Node24</title>
<path fill="none" stroke="midnightblue" d="M1801.08,-163.32C1783.68,-163.32 1766,-163.32 1751.65,-163.32"/>
<polygon fill="midnightblue" stroke="midnightblue" points="1801.27,-166.82 1811.27,-163.32 1801.27,-159.82 1801.27,-166.82"/>
</g>
<!-- Node33&#45;&gt;Node26 -->
<g id="edge49" class="edge">
<title>Node33&#45;&gt;Node26</title>
<path fill="none" stroke="midnightblue" d="M1819.7,-284.71C1803.71,-286.87 1786.15,-289.22 1770,-291.32 1716.9,-298.22 1655.5,-305.81 1616.6,-310.57"/>
<polygon fill="midnightblue" stroke="midnightblue" points="1820.52,-288.13 1829.95,-283.32 1819.57,-281.19 1820.52,-288.13"/>
</g>
<!-- Node34&#45;&gt;Node23 -->
<g id="edge55" class="edge">
<title>Node34&#45;&gt;Node23</title>
<path fill="none" stroke="midnightblue" d="M1989.85,-341.5C1966.44,-336.14 1939.14,-329.89 1917.09,-324.84"/>
<polygon fill="midnightblue" stroke="midnightblue" points="1989.08,-344.91 1999.61,-343.73 1990.64,-338.09 1989.08,-344.91"/>
</g>
<!-- Node34&#45;&gt;Node26 -->
<g id="edge54" class="edge">
<title>Node34&#45;&gt;Node26</title>
<path fill="none" stroke="midnightblue" d="M1968.54,-347.48C1922.02,-343.75 1860.46,-338.78 1806,-334.32 1739.55,-328.88 1662.23,-322.42 1616.72,-318.61"/>
<polygon fill="midnightblue" stroke="midnightblue" points="1968.28,-350.97 1978.52,-348.28 1968.84,-343.99 1968.28,-350.97"/>
</g>
<!-- Node34&#45;&gt;Node33 -->
<g id="edge56" class="edge">
<title>Node34&#45;&gt;Node33</title>
<path fill="none" stroke="midnightblue" d="M2018.95,-338.08C1999.51,-325.49 1970.34,-307.87 1943,-296.32 1934.36,-292.68 1924.82,-289.5 1915.69,-286.85"/>
<polygon fill="midnightblue" stroke="midnightblue" points="2017.13,-341.07 2027.4,-343.64 2020.97,-335.22 2017.13,-341.07"/>
</g>
<!-- Node35 -->
<g id="node35" class="node">
<title>Node35</title>
<g id="a_node35"><a xlink:href="group__context__internal.html#gab0ffe6312ad95fb07b0212f912cf196c" target="_top" xlink:title="Cancels all outstanding messages for session session that have the specified token.">
<polygon fill="white" stroke="black" points="1806,-381.82 1806,-400.82 1943,-400.82 1943,-381.82 1806,-381.82"/>
<text text-anchor="middle" x="1874.5" y="-388.82" font-family="Helvetica,sans-Serif" font-size="10.00">coap_cancel_all_messages</text>
</a>
</g>
</g>
<!-- Node34&#45;&gt;Node35 -->
<g id="edge51" class="edge">
<title>Node34&#45;&gt;Node35</title>
<path fill="none" stroke="midnightblue" d="M1989.85,-365.15C1966.44,-370.5 1939.14,-376.75 1917.09,-381.8"/>
<polygon fill="midnightblue" stroke="midnightblue" points="1990.64,-368.55 1999.61,-362.91 1989.08,-361.73 1990.64,-368.55"/>
</g>
<!-- Node36 -->
<g id="node36" class="node">
<title>Node36</title>
<g id="a_node36"><a xlink:href="net_8c.html#a6b355153e3bba3af3df1e72f33ced85c" target="_top" xlink:title="This function cancels outstanding messages for the session and token specified in sent.">
<polygon fill="white" stroke="black" points="1684,-381.82 1684,-400.82 1755,-400.82 1755,-381.82 1684,-381.82"/>
<text text-anchor="middle" x="1719.5" y="-388.82" font-family="Helvetica,sans-Serif" font-size="10.00">coap_cancel</text>
</a>
</g>
</g>
<!-- Node35&#45;&gt;Node36 -->
<g id="edge52" class="edge">
<title>Node35&#45;&gt;Node36</title>
<path fill="none" stroke="midnightblue" d="M1795.68,-391.32C1781.55,-391.32 1767.48,-391.32 1755.4,-391.32"/>
<polygon fill="midnightblue" stroke="midnightblue" points="1795.95,-394.82 1805.95,-391.32 1795.95,-387.82 1795.95,-394.82"/>
</g>
<!-- Node36&#45;&gt;Node26 -->
<g id="edge53" class="edge">
<title>Node36&#45;&gt;Node26</title>
<path fill="none" stroke="midnightblue" d="M1688.83,-377.33C1682.26,-374.12 1675.36,-370.67 1669,-367.32 1642.15,-353.21 1611.65,-335.53 1593.52,-324.85"/>
<polygon fill="midnightblue" stroke="midnightblue" points="1687.59,-380.62 1698.12,-381.81 1690.63,-374.31 1687.59,-380.62"/>
</g>
<!-- Node37&#45;&gt;Node4 -->
<g id="edge58" class="edge">
<title>Node37&#45;&gt;Node4</title>
<path fill="none" stroke="midnightblue" d="M2484.84,-295.78C2468.71,-323.05 2434.48,-373.35 2390,-396.32 2281.86,-452.17 1906.62,-464.14 1770.4,-466.66"/>
<polygon fill="midnightblue" stroke="midnightblue" points="2488.01,-297.28 2489.94,-286.86 2481.94,-293.8 2488.01,-297.28"/>
</g>
<!-- Node37&#45;&gt;Node13 -->
<g id="edge59" class="edge">
<title>Node37&#45;&gt;Node13</title>
<path fill="none" stroke="midnightblue" d="M2446.77,-289.27C2373.29,-307.44 2228.87,-343 2106,-372.32 2033.65,-389.59 2016.9,-401.82 1943,-410.32 1720.39,-435.93 1663.07,-397.32 1439,-397.32 1439,-397.32 1439,-397.32 676,-397.32 590.51,-397.32 491.25,-389.14 433.12,-383.51"/>
<polygon fill="midnightblue" stroke="midnightblue" points="2447.79,-292.63 2456.66,-286.83 2446.11,-285.83 2447.79,-292.63"/>
</g>
<!-- Node37&#45;&gt;Node22 -->
<g id="edge60" class="edge">
<title>Node37&#45;&gt;Node22</title>
<path fill="none" stroke="midnightblue" d="M2446.29,-265.36C2384.95,-250.3 2280.81,-224.73 2224.47,-210.89"/>
<polygon fill="midnightblue" stroke="midnightblue" points="2445.57,-268.79 2456.11,-267.77 2447.24,-261.99 2445.57,-268.79"/>
</g>
<!-- Node37&#45;&gt;Node24 -->
<g id="edge63" class="edge">
<title>Node37&#45;&gt;Node24</title>
<path fill="none" stroke="midnightblue" d="M2485.24,-258.66C2452.12,-198.17 2337.51,-11.32 2185.5,-11.32 2185.5,-11.32 2185.5,-11.32 2041.5,-11.32 1936.49,-11.32 1896.07,23.66 1806,-30.32 1757.26,-59.54 1731.44,-128.46 1723.34,-153.78"/>
<polygon fill="midnightblue" stroke="midnightblue" points="2482.2,-260.39 2490.01,-267.54 2488.36,-257.07 2482.2,-260.39"/>
</g>
<!-- Node37&#45;&gt;Node33 -->
<g id="edge64" class="edge">
<title>Node37&#45;&gt;Node33</title>
<path fill="none" stroke="midnightblue" d="M2415.68,-277.32C2283.53,-277.32 2022.64,-277.32 1919.22,-277.32"/>
<polygon fill="midnightblue" stroke="midnightblue" points="2415.74,-280.82 2425.74,-277.32 2415.74,-273.82 2415.74,-280.82"/>
</g>
<!-- Node38 -->
<g id="node38" class="node">
<title>Node38</title>
<g id="a_node38"><a xlink:href="group__session__internal.html#ga2f455ec1572982a5ae404beac0cfbd53" target="_top" xlink:title="Notify session transport has just connected and CSM exchange can now start.">
<polygon fill="white" stroke="black" points="2263,-191.82 2263,-210.82 2390,-210.82 2390,-191.82 2263,-191.82"/>
<text text-anchor="middle" x="2326.5" y="-198.82" font-family="Helvetica,sans-Serif" font-size="10.00">coap_session_send_csm</text>
</a>
</g>
</g>
<!-- Node37&#45;&gt;Node38 -->
<g id="edge61" class="edge">
<title>Node37&#45;&gt;Node38</title>
<path fill="none" stroke="midnightblue" d="M2468.06,-263.11C2447.04,-252.24 2416.98,-237.15 2390,-225.32 2378.29,-220.19 2365.1,-215.03 2353.87,-210.83"/>
<polygon fill="midnightblue" stroke="midnightblue" points="2466.55,-266.27 2477.03,-267.78 2469.78,-260.06 2466.55,-266.27"/>
</g>
<!-- Node38&#45;&gt;Node22 -->
<g id="edge62" class="edge">
<title>Node38&#45;&gt;Node22</title>
<path fill="none" stroke="midnightblue" d="M2252.64,-201.32C2243.91,-201.32 2235.25,-201.32 2227.19,-201.32"/>
<polygon fill="midnightblue" stroke="midnightblue" points="2252.87,-204.82 2262.87,-201.32 2252.87,-197.82 2252.87,-204.82"/>
</g>
</g>
</svg>
        <g id="navigator" transform="translate(0 0)" fill="#404254">
                <rect fill="#f2f5e9" fill-opacity="0.5" stroke="#606060" stroke-width=".5" x="0" y="0" width="60" height="60"/>
                <use id="zoomplus" xlink:href="#zoomPlus" x="17" y="9" onmousedown="handleZoom(evt,'in')"/>
                <use id="zoomminus" xlink:href="#zoomMin" x="42" y="9" onmousedown="handleZoom(evt,'out')"/>
                <use id="reset" xlink:href="#resetDef" x="30" y="36" onmousedown="handleReset()"/>
                <g id="arrowUp" xlink:href="#dirArrow" transform="translate(30 24)" onmousedown="handlePan(0,-1)">
                  <use xlink:href="#rim" fill="#404040">
                        <set attributeName="fill" to="#808080" begin="arrowUp.mouseover" end="arrowUp.mouseout"/>
                  </use>
                  <path fill="none" stroke="white" stroke-width="1.5" d="M0,-3.0v7 M-2.5,-0.5L0,-3.0L2.5,-0.5"/>
                </g>
                <g id="arrowRight" xlink:href="#dirArrow" transform="rotate(90) translate(36 -43)" onmousedown="handlePan(1,0)">
                  <use xlink:href="#rim" fill="#404040">
                        <set attributeName="fill" to="#808080" begin="arrowRight.mouseover" end="arrowRight.mouseout"/>
                  </use>
                  <path fill="none" stroke="white" stroke-width="1.5" d="M0,-3.0v7 M-2.5,-0.5L0,-3.0L2.5,-0.5"/>
                </g>
                <g id="arrowDown" xlink:href="#dirArrow" transform="rotate(180) translate(-30 -48)" onmousedown="handlePan(0,1)">
                  <use xlink:href="#rim" fill="#404040">
                        <set attributeName="fill" to="#808080" begin="arrowDown.mouseover" end="arrowDown.mouseout"/>
                  </use>
                  <path fill="none" stroke="white" stroke-width="1.5" d="M0,-3.0v7 M-2.5,-0.5L0,-3.0L2.5,-0.5"/>
                </g>
                <g id="arrowLeft" xlink:href="#dirArrow" transform="rotate(270) translate(-36 17)" onmousedown="handlePan(-1,0)">
                  <use xlink:href="#rim" fill="#404040">
                        <set attributeName="fill" to="#808080" begin="arrowLeft.mouseover" end="arrowLeft.mouseout"/>
                  </use>
                  <path fill="none" stroke="white" stroke-width="1.5" d="M0,-3.0v7 M-2.5,-0.5L0,-3.0L2.5,-0.5"/>
                </g>
        </g>
        <svg viewBox="0 0 15 15" width="100%" height="30px" preserveAspectRatio="xMaxYMin meet">
         <g id="arrow_out" transform="scale(0.3 0.3)">
          <a xlink:href="group__context_ga5e2cee998ccf618ac07aa54f5e5f8743_icgraph_org.svg" target="_base">
           <rect id="button" ry="5" rx="5" y="6" x="6" height="38" width="38"
                fill="#f2f5e9" fill-opacity="0.5" stroke="#606060" stroke-width="1.0"/>
           <path id="arrow"
             d="M 11.500037,31.436501 C 11.940474,20.09759 22.043105,11.32322 32.158766,21.979434 L 37.068811,17.246167 C 37.068811,17.246167 37.088388,32 37.088388,32 L 22.160133,31.978069 C 22.160133,31.978069 26.997745,27.140456 26.997745,27.140456 C 18.528582,18.264221 13.291696,25.230495 11.500037,31.436501 z"
             style="fill:#404040;"/>
          </a>
         </g>
        </svg>
</svg>
