<?xml version="1.0" encoding="UTF-8" standalone="no"?>
<!DOCTYPE svg PUBLIC "-//W3C//DTD SVG 1.1//EN"
 "http://www.w3.org/Graphics/SVG/1.1/DTD/svg11.dtd">
<!-- Generated by graphviz version 2.43.0 (0)
 -->
<!-- Title: coap_session_connected Pages: 1 -->
<!--zoomable 237 -->
<svg id="main" version="1.1" xmlns="http://www.w3.org/2000/svg" xmlns:xlink="http://www.w3.org/1999/xlink" xml:space="preserve" onload="init(evt)">
<style type="text/css"><![CDATA[
.edge:hover path { stroke: red; }
.edge:hover polygon { stroke: red; fill: red; }
]]></style>
<script type="text/javascript"><![CDATA[
var edges = document.getElementsByTagName('g');
if (edges && edges.length) {
  for (var i=0;i<edges.length;i++) {
    if (edges[i].id.substr(0,4)=='edge') {
      edges[i].setAttribute('class','edge');
    }
  }
}
]]></script>
        <defs>
                <circle id="rim" cx="0" cy="0" r="7"/>
                <circle id="rim2" cx="0" cy="0" r="3.5"/>
                <g id="zoomPlus">
                        <use xlink:href="#rim" fill="#404040">
                                <set attributeName="fill" to="#808080" begin="zoomplus.mouseover" end="zoomplus.mouseout"/>
                        </use>
                        <path d="M-4,0h8M0,-4v8" fill="none" stroke="white" stroke-width="1.5" pointer-events="none"/>
                </g>
                <g id="zoomMin">
                        <use xlink:href="#rim" fill="#404040">
                                <set attributeName="fill" to="#808080" begin="zoomminus.mouseover" end="zoomminus.mouseout"/>
                        </use>
                        <path d="M-4,0h8" fill="none" stroke="white" stroke-width="1.5" pointer-events="none"/>
                </g>
                <g id="dirArrow">
                        <path fill="none" stroke="white" stroke-width="1.5" d="M0,-3.0v7 M-2.5,-0.5L0,-3.0L2.5,-0.5"/>
                </g>
               <g id="resetDef">
                       <use xlink:href="#rim2" fill="#404040">
                               <set attributeName="fill" to="#808080" begin="reset.mouseover" end="reset.mouseout"/>
                       </use>
               </g>
        </defs>

<script type="text/javascript">
var viewWidth = 2031;
var viewHeight = 237;
var sectionId = 'dynsection-2';
</script>
<script xlink:href="svgpan.js"/>
<svg id="graph" class="graph">
<g id="viewport">
<title>coap_session_connected</title>
<polygon fill="white" stroke="transparent" points="-4,4 -4,-233 2027,-233 2027,4 -4,4"/>
<!-- Node1 -->
<g id="node1" class="node">
<title>Node1</title>
<g id="a_node1"><a xlink:title="Notify session that it has just connected or reconnected.">
<polygon fill="#bfbfbf" stroke="black" points="1896,-105.5 1896,-124.5 2023,-124.5 2023,-105.5 1896,-105.5"/>
<text text-anchor="middle" x="1959.5" y="-112.5" font-family="Helvetica,sans-Serif" font-size="10.00">coap_session_connected</text>
</a>
</g>
</g>
<!-- Node2 -->
<g id="node2" class="node">
<title>Node2</title>
<g id="a_node2"><a xlink:href="group__context__internal.html#gab0ffe6312ad95fb07b0212f912cf196c" target="_top" xlink:title="Cancels all outstanding messages for session session that have the specified token.">
<polygon fill="white" stroke="black" points="1723,-124.5 1723,-143.5 1860,-143.5 1860,-124.5 1723,-124.5"/>
<text text-anchor="middle" x="1791.5" y="-131.5" font-family="Helvetica,sans-Serif" font-size="10.00">coap_cancel_all_messages</text>
</a>
</g>
</g>
<!-- Node1&#45;&gt;Node2 -->
<g id="edge1" class="edge">
<title>Node1&#45;&gt;Node2</title>
<path fill="none" stroke="midnightblue" d="M1885.79,-123.32C1877.24,-124.3 1868.54,-125.3 1860.06,-126.27"/>
<polygon fill="midnightblue" stroke="midnightblue" points="1886.21,-126.8 1895.74,-122.18 1885.41,-119.84 1886.21,-126.8"/>
</g>
<!-- Node4 -->
<g id="node4" class="node">
<title>Node4</title>
<g id="a_node4"><a xlink:href="group__context__internal.html#ga7bb944fc52f772655356d95724317401" target="_top" xlink:title="Dispatches the PDUs from the receive queue in given context.">
<polygon fill="white" stroke="black" points="1482,-124.5 1482,-143.5 1562,-143.5 1562,-124.5 1482,-124.5"/>
<text text-anchor="middle" x="1522" y="-131.5" font-family="Helvetica,sans-Serif" font-size="10.00">coap_dispatch</text>
</a>
</g>
</g>
<!-- Node1&#45;&gt;Node4 -->
<g id="edge24" class="edge">
<title>Node1&#45;&gt;Node4</title>
<path fill="none" stroke="midnightblue" d="M1930.75,-128.88C1911.44,-137.73 1884.82,-148.38 1860,-153 1745.52,-174.32 1713.55,-167.41 1598,-153 1583.07,-151.14 1566.85,-147.27 1553.32,-143.5"/>
<polygon fill="midnightblue" stroke="midnightblue" points="1932.31,-132.01 1939.86,-124.58 1929.32,-125.68 1932.31,-132.01"/>
</g>
<!-- Node20 -->
<g id="node20" class="node">
<title>Node20</title>
<g id="a_node20"><a xlink:href="group__context__internal.html#gaad5ccd0b3161f63c0854c2624e892ef4" target="_top" xlink:title="Handles retransmissions of confirmable messages.">
<polygon fill="white" stroke="black" points="1351,-48.5 1351,-67.5 1437,-67.5 1437,-48.5 1351,-48.5"/>
<text text-anchor="middle" x="1394" y="-55.5" font-family="Helvetica,sans-Serif" font-size="10.00">coap_retransmit</text>
</a>
</g>
</g>
<!-- Node1&#45;&gt;Node20 -->
<g id="edge25" class="edge">
<title>Node1&#45;&gt;Node20</title>
<path fill="none" stroke="midnightblue" d="M1900.12,-103.68C1886.95,-101.31 1873.02,-98.94 1860,-97 1705.15,-73.93 1519.11,-63.46 1437.21,-59.72"/>
<polygon fill="midnightblue" stroke="midnightblue" points="1899.54,-107.13 1910.01,-105.48 1900.8,-100.24 1899.54,-107.13"/>
</g>
<!-- Node25 -->
<g id="node25" class="node">
<title>Node25</title>
<g id="a_node25"><a xlink:href="net_8c.html#ac4cbcfd073489b57805db665ce3d0681" target="_top" xlink:title=" ">
<polygon fill="white" stroke="black" points="1598,-86.5 1598,-105.5 1687,-105.5 1687,-86.5 1598,-86.5"/>
<text text-anchor="middle" x="1642.5" y="-93.5" font-family="Helvetica,sans-Serif" font-size="10.00">handle_signaling</text>
</a>
</g>
</g>
<!-- Node1&#45;&gt;Node25 -->
<g id="edge34" class="edge">
<title>Node1&#45;&gt;Node25</title>
<path fill="none" stroke="midnightblue" d="M1885.88,-110.62C1824.5,-106.92 1738.59,-101.74 1687.25,-98.64"/>
<polygon fill="midnightblue" stroke="midnightblue" points="1885.7,-114.11 1895.89,-111.22 1886.12,-107.13 1885.7,-114.11"/>
</g>
<!-- Node3 -->
<g id="node3" class="node">
<title>Node3</title>
<g id="a_node3"><a xlink:href="net_8c.html#a6b355153e3bba3af3df1e72f33ced85c" target="_top" xlink:title="This function cancels outstanding messages for the session and token specified in sent.">
<polygon fill="white" stroke="black" points="1607,-124.5 1607,-143.5 1678,-143.5 1678,-124.5 1607,-124.5"/>
<text text-anchor="middle" x="1642.5" y="-131.5" font-family="Helvetica,sans-Serif" font-size="10.00">coap_cancel</text>
</a>
</g>
</g>
<!-- Node2&#45;&gt;Node3 -->
<g id="edge2" class="edge">
<title>Node2&#45;&gt;Node3</title>
<path fill="none" stroke="midnightblue" d="M1712.5,-134C1700.5,-134 1688.66,-134 1678.27,-134"/>
<polygon fill="midnightblue" stroke="midnightblue" points="1712.59,-137.5 1722.59,-134 1712.59,-130.5 1712.59,-137.5"/>
</g>
<!-- Node3&#45;&gt;Node4 -->
<g id="edge3" class="edge">
<title>Node3&#45;&gt;Node4</title>
<path fill="none" stroke="midnightblue" d="M1596.69,-134C1585.28,-134 1573.11,-134 1562.01,-134"/>
<polygon fill="midnightblue" stroke="midnightblue" points="1596.91,-137.5 1606.91,-134 1596.91,-130.5 1596.91,-137.5"/>
</g>
<!-- Node5 -->
<g id="node5" class="node">
<title>Node5</title>
<g id="a_node5"><a xlink:href="group__context__internal.html#gae6b8ca457dd41f23372f9e9a7159312b" target="_top" xlink:title="Parses and interprets a CoAP datagram with context ctx.">
<polygon fill="white" stroke="black" points="1342,-165.5 1342,-184.5 1446,-184.5 1446,-165.5 1342,-165.5"/>
<text text-anchor="middle" x="1394" y="-172.5" font-family="Helvetica,sans-Serif" font-size="10.00">coap_handle_dgram</text>
</a>
</g>
</g>
<!-- Node4&#45;&gt;Node5 -->
<g id="edge4" class="edge">
<title>Node4&#45;&gt;Node5</title>
<path fill="none" stroke="midnightblue" d="M1482.13,-146.65C1463.55,-152.69 1441.68,-159.81 1424.5,-165.4"/>
<polygon fill="midnightblue" stroke="midnightblue" points="1483.35,-149.93 1491.78,-143.51 1481.18,-143.28 1483.35,-149.93"/>
</g>
<!-- Node7 -->
<g id="node7" class="node">
<title>Node7</title>
<g id="a_node7"><a xlink:href="net_8c.html#acd36f6fba6d30ab9557e0e6521f4a088" target="_top" xlink:title=" ">
<polygon fill="white" stroke="black" points="1043,-149.5 1043,-168.5 1144,-168.5 1144,-149.5 1043,-149.5"/>
<text text-anchor="middle" x="1093.5" y="-156.5" font-family="Helvetica,sans-Serif" font-size="10.00">coap_read_session</text>
</a>
</g>
</g>
<!-- Node4&#45;&gt;Node7 -->
<g id="edge23" class="edge">
<title>Node4&#45;&gt;Node7</title>
<path fill="none" stroke="midnightblue" d="M1471.76,-135.94C1406.41,-138.63 1287.47,-143.99 1186,-151 1172.48,-151.93 1157.85,-153.13 1144.34,-154.31"/>
<polygon fill="midnightblue" stroke="midnightblue" points="1471.93,-139.43 1481.78,-135.53 1471.64,-132.44 1471.93,-139.43"/>
</g>
<!-- Node6 -->
<g id="node6" class="node">
<title>Node6</title>
<g id="a_node6"><a xlink:href="net_8c.html#a8534f7860b14e0743529daff196a27ce" target="_top" xlink:title=" ">
<polygon fill="white" stroke="black" points="1186,-160 1186,-190 1306,-190 1306,-160 1186,-160"/>
<text text-anchor="start" x="1194" y="-178" font-family="Helvetica,sans-Serif" font-size="10.00">coap_handle_dgram_for</text>
<text text-anchor="middle" x="1246" y="-167" font-family="Helvetica,sans-Serif" font-size="10.00">_proto</text>
</a>
</g>
</g>
<!-- Node5&#45;&gt;Node6 -->
<g id="edge5" class="edge">
<title>Node5&#45;&gt;Node6</title>
<path fill="none" stroke="midnightblue" d="M1331.71,-175C1323.21,-175 1314.49,-175 1306.04,-175"/>
<polygon fill="midnightblue" stroke="midnightblue" points="1331.94,-178.5 1341.94,-175 1331.94,-171.5 1331.94,-178.5"/>
</g>
<!-- Node6&#45;&gt;Node7 -->
<g id="edge6" class="edge">
<title>Node6&#45;&gt;Node7</title>
<path fill="none" stroke="midnightblue" d="M1175.79,-167.64C1165.11,-166.51 1154.27,-165.35 1144.14,-164.28"/>
<polygon fill="midnightblue" stroke="midnightblue" points="1175.64,-171.15 1185.95,-168.72 1176.38,-164.18 1175.64,-171.15"/>
</g>
<!-- Node8 -->
<g id="node8" class="node">
<title>Node8</title>
<g id="a_node8"><a xlink:href="group__app__io__internal.html#ga503f851fa137eb8a9c2936e2098c5eb9" target="_top" xlink:title="Process all the epoll events.">
<polygon fill="white" stroke="black" points="909,-133.5 909,-152.5 1001,-152.5 1001,-133.5 909,-133.5"/>
<text text-anchor="middle" x="955" y="-140.5" font-family="Helvetica,sans-Serif" font-size="10.00">coap_io_do_epoll</text>
</a>
</g>
</g>
<!-- Node7&#45;&gt;Node8 -->
<g id="edge7" class="edge">
<title>Node7&#45;&gt;Node8</title>
<path fill="none" stroke="midnightblue" d="M1032.82,-152C1022.26,-150.77 1011.41,-149.5 1001.32,-148.31"/>
<polygon fill="midnightblue" stroke="midnightblue" points="1032.49,-155.49 1042.83,-153.18 1033.31,-148.54 1032.49,-155.49"/>
</g>
<!-- Node17 -->
<g id="node17" class="node">
<title>Node17</title>
<g id="a_node17"><a xlink:href="group__app__io__internal.html#ga2208802b0711ad20df07271b751b41dc" target="_top" xlink:title="Processes any outstanding read, write, accept or connect I/O as indicated in the coap_socket_t struct...">
<polygon fill="white" stroke="black" points="915.5,-171.5 915.5,-190.5 994.5,-190.5 994.5,-171.5 915.5,-171.5"/>
<text text-anchor="middle" x="955" y="-178.5" font-family="Helvetica,sans-Serif" font-size="10.00">coap_io_do_io</text>
</a>
</g>
</g>
<!-- Node7&#45;&gt;Node17 -->
<g id="edge18" class="edge">
<title>Node7&#45;&gt;Node17</title>
<path fill="none" stroke="midnightblue" d="M1032.64,-168.65C1019.78,-170.72 1006.52,-172.86 994.72,-174.76"/>
<polygon fill="midnightblue" stroke="midnightblue" points="1033.52,-172.05 1042.83,-167 1032.4,-165.14 1033.52,-172.05"/>
</g>
<!-- Node9 -->
<g id="node9" class="node">
<title>Node9</title>
<g id="a_node9"><a xlink:href="group__app__io.html#ga2758ed5fdd6ce79ec95ea8dbf72a5644" target="_top" xlink:title="The main message processing loop with additional fds for internal select.">
<polygon fill="white" stroke="black" points="741,-133.5 741,-152.5 873,-152.5 873,-133.5 741,-133.5"/>
<text text-anchor="middle" x="807" y="-140.5" font-family="Helvetica,sans-Serif" font-size="10.00">coap_io_process_with_fds</text>
</a>
</g>
</g>
<!-- Node8&#45;&gt;Node9 -->
<g id="edge8" class="edge">
<title>Node8&#45;&gt;Node9</title>
<path fill="none" stroke="midnightblue" d="M898.38,-143C890.15,-143 881.6,-143 873.2,-143"/>
<polygon fill="midnightblue" stroke="midnightblue" points="898.61,-146.5 908.61,-143 898.6,-139.5 898.61,-146.5"/>
</g>
<!-- Node10 -->
<g id="node10" class="node">
<title>Node10</title>
<g id="a_node10"><a xlink:href="group__app__io.html#ga082f7bbf15d3f37c31c2a0a5e78ea4cf" target="_top" xlink:title="The main I/O processing function.">
<polygon fill="white" stroke="black" points="615,-133.5 615,-152.5 705,-152.5 705,-133.5 615,-133.5"/>
<text text-anchor="middle" x="660" y="-140.5" font-family="Helvetica,sans-Serif" font-size="10.00">coap_io_process</text>
</a>
</g>
</g>
<!-- Node9&#45;&gt;Node10 -->
<g id="edge9" class="edge">
<title>Node9&#45;&gt;Node10</title>
<path fill="none" stroke="midnightblue" d="M730.53,-136.26C721.85,-136.28 713.23,-136.44 705.17,-136.73"/>
<polygon fill="midnightblue" stroke="midnightblue" points="730.7,-139.76 740.71,-136.28 730.72,-132.76 730.7,-139.76"/>
</g>
<!-- Node10&#45;&gt;Node9 -->
<g id="edge16" class="edge">
<title>Node10&#45;&gt;Node9</title>
<path fill="none" stroke="midnightblue" d="M715.41,-149.56C723.67,-149.74 732.25,-149.79 740.71,-149.72"/>
<polygon fill="midnightblue" stroke="midnightblue" points="715.26,-146.05 705.17,-149.27 715.07,-153.05 715.26,-146.05"/>
</g>
<!-- Node11 -->
<g id="node11" class="node">
<title>Node11</title>
<g id="a_node11"><a xlink:href="group__context__internal.html#ga5d013d40174c7c217b24bf624f9d7310" target="_top" xlink:title="Delay the sending of the first client request until some other negotiation has completed.">
<polygon fill="white" stroke="black" points="463,-171.5 463,-190.5 579,-190.5 579,-171.5 463,-171.5"/>
<text text-anchor="middle" x="521" y="-178.5" font-family="Helvetica,sans-Serif" font-size="10.00">coap_client_delay_first</text>
</a>
</g>
</g>
<!-- Node10&#45;&gt;Node11 -->
<g id="edge10" class="edge">
<title>Node10&#45;&gt;Node11</title>
<path fill="none" stroke="midnightblue" d="M614.59,-155.32C595.77,-160.54 574.16,-166.53 556.56,-171.41"/>
<polygon fill="midnightblue" stroke="midnightblue" points="615.73,-158.63 624.43,-152.59 613.86,-151.89 615.73,-158.63"/>
</g>
<!-- Node16 -->
<g id="node16" class="node">
<title>Node16</title>
<g id="a_node16"><a xlink:href="net_8h.html#ac6b34aa979ec545eb710e45a26c98fc1" target="_top" xlink:title=" ">
<polygon fill="white" stroke="black" points="479.5,-133.5 479.5,-152.5 562.5,-152.5 562.5,-133.5 479.5,-133.5"/>
<text text-anchor="middle" x="521" y="-140.5" font-family="Helvetica,sans-Serif" font-size="10.00">coap_run_once</text>
</a>
</g>
</g>
<!-- Node10&#45;&gt;Node16 -->
<g id="edge17" class="edge">
<title>Node10&#45;&gt;Node16</title>
<path fill="none" stroke="midnightblue" d="M604.87,-143C590.84,-143 575.98,-143 562.77,-143"/>
<polygon fill="midnightblue" stroke="midnightblue" points="604.9,-146.5 614.9,-143 604.9,-139.5 604.9,-146.5"/>
</g>
<!-- Node12 -->
<g id="node12" class="node">
<title>Node12</title>
<g id="a_node12"><a xlink:href="group__session.html#ga4368ee622c681bf7cf0b7cfe99c8ab37" target="_top" xlink:title="Get maximum acceptable PDU size.">
<polygon fill="white" stroke="black" points="282,-190.5 282,-209.5 427,-209.5 427,-190.5 282,-190.5"/>
<text text-anchor="middle" x="354.5" y="-197.5" font-family="Helvetica,sans-Serif" font-size="10.00">coap_session_max_pdu_size</text>
</a>
</g>
</g>
<!-- Node11&#45;&gt;Node12 -->
<g id="edge11" class="edge">
<title>Node11&#45;&gt;Node12</title>
<path fill="none" stroke="midnightblue" d="M452.79,-188.76C444.37,-189.74 435.74,-190.73 427.25,-191.71"/>
<polygon fill="midnightblue" stroke="midnightblue" points="453.4,-192.22 462.93,-187.59 452.59,-185.26 453.4,-192.22"/>
</g>
<!-- Node12&#45;&gt;Node5 -->
<g id="edge12" class="edge">
<title>Node12&#45;&gt;Node5</title>
<path fill="none" stroke="midnightblue" d="M437.51,-207.92C498.53,-213.13 583.89,-219 659,-219 1094.5,-219 1094.5,-219 1094.5,-219 1188.88,-219 1213.23,-217.33 1306,-200 1325.93,-196.28 1347.86,-189.96 1364.72,-184.6"/>
<polygon fill="midnightblue" stroke="midnightblue" points="437.43,-204.4 427.17,-207.02 436.83,-211.37 437.43,-204.4"/>
</g>
<!-- Node13 -->
<g id="node13" class="node">
<title>Node13</title>
<g id="a_node13"><a xlink:href="group__pdu.html#ga6ab63e25c7c9eed3de00b0e1153b33b6" target="_top" xlink:title="Creates a new CoAP PDU.">
<polygon fill="white" stroke="black" points="153.5,-209.5 153.5,-228.5 235.5,-228.5 235.5,-209.5 153.5,-209.5"/>
<text text-anchor="middle" x="194.5" y="-216.5" font-family="Helvetica,sans-Serif" font-size="10.00">coap_new_pdu</text>
</a>
</g>
</g>
<!-- Node12&#45;&gt;Node13 -->
<g id="edge13" class="edge">
<title>Node12&#45;&gt;Node13</title>
<path fill="none" stroke="midnightblue" d="M271.84,-209.82C259.3,-211.33 246.85,-212.83 235.75,-214.16"/>
<polygon fill="midnightblue" stroke="midnightblue" points="272.39,-213.28 281.9,-208.61 271.55,-206.33 272.39,-213.28"/>
</g>
<!-- Node14 -->
<g id="node14" class="node">
<title>Node14</title>
<g id="a_node14"><a xlink:href="group__pdu.html#gabf10450d37381b133fb780480b4fca1b" target="_top" xlink:title="Duplicate an existing PDU.">
<polygon fill="white" stroke="black" points="143,-171.5 143,-190.5 246,-190.5 246,-171.5 143,-171.5"/>
<text text-anchor="middle" x="194.5" y="-178.5" font-family="Helvetica,sans-Serif" font-size="10.00">coap_pdu_duplicate</text>
</a>
</g>
</g>
<!-- Node12&#45;&gt;Node14 -->
<g id="edge14" class="edge">
<title>Node12&#45;&gt;Node14</title>
<path fill="none" stroke="midnightblue" d="M271.95,-190.19C263.14,-189.13 254.38,-188.08 246.09,-187.08"/>
<polygon fill="midnightblue" stroke="midnightblue" points="271.55,-193.67 281.9,-191.39 272.39,-186.72 271.55,-193.67"/>
</g>
<!-- Node15 -->
<g id="node15" class="node">
<title>Node15</title>
<g id="a_node15"><a xlink:href="group__coap__async.html#ga14b20d8c5bf07bdda9f8bc6777540a84" target="_top" xlink:title="Allocates a new coap_async_t object and fills its fields according to the given request.">
<polygon fill="white" stroke="black" points="0,-171.5 0,-190.5 107,-190.5 107,-171.5 0,-171.5"/>
<text text-anchor="middle" x="53.5" y="-178.5" font-family="Helvetica,sans-Serif" font-size="10.00">coap_register_async</text>
</a>
</g>
</g>
<!-- Node14&#45;&gt;Node15 -->
<g id="edge15" class="edge">
<title>Node14&#45;&gt;Node15</title>
<path fill="none" stroke="midnightblue" d="M132.67,-181C124.16,-181 115.48,-181 107.14,-181"/>
<polygon fill="midnightblue" stroke="midnightblue" points="132.92,-184.5 142.92,-181 132.92,-177.5 132.92,-184.5"/>
</g>
<!-- Node17&#45;&gt;Node9 -->
<g id="edge19" class="edge">
<title>Node17&#45;&gt;Node9</title>
<path fill="none" stroke="midnightblue" d="M907.46,-168.89C887.13,-163.6 863.63,-157.48 844.58,-152.52"/>
<polygon fill="midnightblue" stroke="midnightblue" points="906.6,-172.28 917.16,-171.41 908.36,-165.5 906.6,-172.28"/>
</g>
<!-- Node18 -->
<g id="node18" class="node">
<title>Node18</title>
<g id="a_node18"><a xlink:href="net_8h.html#af937985e2b14a287a849663574d59bcb" target="_top" xlink:title=" ">
<polygon fill="white" stroke="black" points="776,-171.5 776,-190.5 838,-190.5 838,-171.5 776,-171.5"/>
<text text-anchor="middle" x="807" y="-178.5" font-family="Helvetica,sans-Serif" font-size="10.00">coap_read</text>
</a>
</g>
</g>
<!-- Node17&#45;&gt;Node18 -->
<g id="edge20" class="edge">
<title>Node17&#45;&gt;Node18</title>
<path fill="none" stroke="midnightblue" d="M905.02,-181C882.88,-181 857.41,-181 838.12,-181"/>
<polygon fill="midnightblue" stroke="midnightblue" points="905.26,-184.5 915.26,-181 905.26,-177.5 905.26,-184.5"/>
</g>
<!-- Node19 -->
<g id="node19" class="node">
<title>Node19</title>
<g id="a_node19"><a xlink:href="coap__io__contiki_8c.html#a75a7c93e10ca7858449ba304aad4ea37" target="_top" xlink:title=" ">
<polygon fill="white" stroke="black" points="618.5,-63.5 618.5,-82.5 701.5,-82.5 701.5,-63.5 618.5,-63.5"/>
<text text-anchor="middle" x="660" y="-70.5" font-family="Helvetica,sans-Serif" font-size="10.00">coap_run_once</text>
</a>
</g>
</g>
<!-- Node18&#45;&gt;Node19 -->
<g id="edge21" class="edge">
<title>Node18&#45;&gt;Node19</title>
<path fill="none" stroke="midnightblue" d="M766.1,-173.12C757.43,-170.39 748.59,-166.78 741,-162 736.54,-159.19 688.85,-104.87 669.29,-82.5"/>
<polygon fill="midnightblue" stroke="midnightblue" points="765.17,-176.49 775.74,-175.83 767.06,-169.75 765.17,-176.49"/>
</g>
<!-- Node19&#45;&gt;Node19 -->
<g id="edge22" class="edge">
<title>Node19&#45;&gt;Node19</title>
<path fill="none" stroke="midnightblue" d="M685.67,-92.03C684.27,-97.13 675.71,-101 660,-101 635.47,-101 628.38,-91.57 638.73,-82.76"/>
<polygon fill="midnightblue" stroke="midnightblue" points="688.72,-90.29 681.27,-82.76 682.39,-93.29 688.72,-90.29"/>
</g>
<!-- Node21 -->
<g id="node21" class="node">
<title>Node21</title>
<g id="a_node21"><a xlink:href="group__app__io__internal.html#gaf0cbbb00a6f2f8ac885f0e1575534e34" target="_top" xlink:title="Iterates through all the coap_socket_t structures embedded in endpoints or sessions associated with t...">
<polygon fill="white" stroke="black" points="1195.5,-51.5 1195.5,-70.5 1296.5,-70.5 1296.5,-51.5 1195.5,-51.5"/>
<text text-anchor="middle" x="1246" y="-58.5" font-family="Helvetica,sans-Serif" font-size="10.00">coap_io_prepare_io</text>
</a>
</g>
</g>
<!-- Node20&#45;&gt;Node21 -->
<g id="edge26" class="edge">
<title>Node20&#45;&gt;Node21</title>
<path fill="none" stroke="midnightblue" d="M1340.58,-59.08C1326.25,-59.37 1310.78,-59.69 1296.61,-59.98"/>
<polygon fill="midnightblue" stroke="midnightblue" points="1340.84,-62.57 1350.77,-58.87 1340.7,-55.57 1340.84,-62.57"/>
</g>
<!-- Node24 -->
<g id="node24" class="node">
<title>Node24</title>
<g id="a_node24"><a xlink:href="coap__io__contiki_8c.html#aaac86ac50793f309678e4951ecf8863f" target="_top" xlink:title=" ">
<polygon fill="white" stroke="black" points="923,-0.5 923,-19.5 987,-19.5 987,-0.5 923,-0.5"/>
<text text-anchor="middle" x="955" y="-7.5" font-family="Helvetica,sans-Serif" font-size="10.00">coap_write</text>
</a>
</g>
</g>
<!-- Node20&#45;&gt;Node24 -->
<g id="edge32" class="edge">
<title>Node20&#45;&gt;Node24</title>
<path fill="none" stroke="midnightblue" d="M1346.38,-45.97C1297.75,-34.1 1219.12,-16.76 1150,-10 1092.68,-4.39 1025.38,-6.28 987,-8.15"/>
<polygon fill="midnightblue" stroke="midnightblue" points="1345.73,-49.42 1356.28,-48.42 1347.41,-42.62 1345.73,-49.42"/>
</g>
<!-- Node21&#45;&gt;Node9 -->
<g id="edge30" class="edge">
<title>Node21&#45;&gt;Node9</title>
<path fill="none" stroke="midnightblue" d="M1185.3,-65.56C1117.52,-71.65 1004,-84.61 909,-109 882.66,-115.76 853.26,-125.97 833.01,-133.43"/>
<polygon fill="midnightblue" stroke="midnightblue" points="1185.72,-69.04 1195.37,-64.68 1185.1,-62.06 1185.72,-69.04"/>
</g>
<!-- Node22 -->
<g id="node22" class="node">
<title>Node22</title>
<g id="a_node22"><a xlink:href="group__app__io__internal.html#ga3be92476a2c2c12d68c0cd07795c7e34" target="_top" xlink:title="Any now timed out delayed packet is transmitted, along with any packets associated with requested obs...">
<polygon fill="white" stroke="black" points="1037,-95.5 1037,-114.5 1150,-114.5 1150,-95.5 1037,-95.5"/>
<text text-anchor="middle" x="1093.5" y="-102.5" font-family="Helvetica,sans-Serif" font-size="10.00">coap_io_prepare_epoll</text>
</a>
</g>
</g>
<!-- Node21&#45;&gt;Node22 -->
<g id="edge27" class="edge">
<title>Node21&#45;&gt;Node22</title>
<path fill="none" stroke="midnightblue" d="M1202.47,-73.43C1178.55,-80.43 1149.17,-89.02 1127.09,-95.47"/>
<polygon fill="midnightblue" stroke="midnightblue" points="1203.73,-76.71 1212.34,-70.55 1201.76,-69.99 1203.73,-76.71"/>
</g>
<!-- Node23 -->
<g id="node23" class="node">
<title>Node23</title>
<g id="a_node23"><a xlink:href="net_8h.html#ab54010e3cade80e1417870c87dcd0402" target="_top" xlink:title=" ">
<polygon fill="white" stroke="black" points="1061.5,-19.5 1061.5,-38.5 1125.5,-38.5 1125.5,-19.5 1061.5,-19.5"/>
<text text-anchor="middle" x="1093.5" y="-26.5" font-family="Helvetica,sans-Serif" font-size="10.00">coap_write</text>
</a>
</g>
</g>
<!-- Node21&#45;&gt;Node23 -->
<g id="edge31" class="edge">
<title>Node21&#45;&gt;Node23</title>
<path fill="none" stroke="midnightblue" d="M1190.2,-49.35C1168.58,-44.75 1144.53,-39.64 1125.95,-35.69"/>
<polygon fill="midnightblue" stroke="midnightblue" points="1189.74,-52.83 1200.25,-51.49 1191.2,-45.98 1189.74,-52.83"/>
</g>
<!-- Node22&#45;&gt;Node8 -->
<g id="edge28" class="edge">
<title>Node22&#45;&gt;Node8</title>
<path fill="none" stroke="midnightblue" d="M1048.25,-117.32C1029.5,-122.54 1007.97,-128.53 990.43,-133.41"/>
<polygon fill="midnightblue" stroke="midnightblue" points="1049.36,-120.64 1058.06,-114.59 1047.48,-113.9 1049.36,-120.64"/>
</g>
<!-- Node22&#45;&gt;Node9 -->
<g id="edge29" class="edge">
<title>Node22&#45;&gt;Node9</title>
<path fill="none" stroke="midnightblue" d="M1026.83,-110.47C991.78,-113.73 947.94,-118.33 909,-124 890.99,-126.62 871.3,-130.17 854.12,-133.49"/>
<polygon fill="midnightblue" stroke="midnightblue" points="1027.31,-113.94 1036.95,-109.55 1026.67,-106.97 1027.31,-113.94"/>
</g>
<!-- Node24&#45;&gt;Node19 -->
<g id="edge33" class="edge">
<title>Node24&#45;&gt;Node19</title>
<path fill="none" stroke="midnightblue" d="M913,-18.82C857.02,-30.85 757.28,-52.3 701.54,-64.28"/>
<polygon fill="midnightblue" stroke="midnightblue" points="913.88,-22.21 922.92,-16.68 912.41,-15.36 913.88,-22.21"/>
</g>
<!-- Node25&#45;&gt;Node4 -->
<g id="edge35" class="edge">
<title>Node25&#45;&gt;Node4</title>
<path fill="none" stroke="midnightblue" d="M1601.96,-108.68C1585.95,-113.81 1567.77,-119.64 1552.89,-124.41"/>
<polygon fill="midnightblue" stroke="midnightblue" points="1603.14,-111.98 1611.6,-105.59 1601.01,-105.31 1603.14,-111.98"/>
</g>
</g>
</svg>
        <g id="navigator" transform="translate(0 0)" fill="#404254">
                <rect fill="#f2f5e9" fill-opacity="0.5" stroke="#606060" stroke-width=".5" x="0" y="0" width="60" height="60"/>
                <use id="zoomplus" xlink:href="#zoomPlus" x="17" y="9" onmousedown="handleZoom(evt,'in')"/>
                <use id="zoomminus" xlink:href="#zoomMin" x="42" y="9" onmousedown="handleZoom(evt,'out')"/>
                <use id="reset" xlink:href="#resetDef" x="30" y="36" onmousedown="handleReset()"/>
                <g id="arrowUp" xlink:href="#dirArrow" transform="translate(30 24)" onmousedown="handlePan(0,-1)">
                  <use xlink:href="#rim" fill="#404040">
                        <set attributeName="fill" to="#808080" begin="arrowUp.mouseover" end="arrowUp.mouseout"/>
                  </use>
                  <path fill="none" stroke="white" stroke-width="1.5" d="M0,-3.0v7 M-2.5,-0.5L0,-3.0L2.5,-0.5"/>
                </g>
                <g id="arrowRight" xlink:href="#dirArrow" transform="rotate(90) translate(36 -43)" onmousedown="handlePan(1,0)">
                  <use xlink:href="#rim" fill="#404040">
                        <set attributeName="fill" to="#808080" begin="arrowRight.mouseover" end="arrowRight.mouseout"/>
                  </use>
                  <path fill="none" stroke="white" stroke-width="1.5" d="M0,-3.0v7 M-2.5,-0.5L0,-3.0L2.5,-0.5"/>
                </g>
                <g id="arrowDown" xlink:href="#dirArrow" transform="rotate(180) translate(-30 -48)" onmousedown="handlePan(0,1)">
                  <use xlink:href="#rim" fill="#404040">
                        <set attributeName="fill" to="#808080" begin="arrowDown.mouseover" end="arrowDown.mouseout"/>
                  </use>
                  <path fill="none" stroke="white" stroke-width="1.5" d="M0,-3.0v7 M-2.5,-0.5L0,-3.0L2.5,-0.5"/>
                </g>
                <g id="arrowLeft" xlink:href="#dirArrow" transform="rotate(270) translate(-36 17)" onmousedown="handlePan(-1,0)">
                  <use xlink:href="#rim" fill="#404040">
                        <set attributeName="fill" to="#808080" begin="arrowLeft.mouseover" end="arrowLeft.mouseout"/>
                  </use>
                  <path fill="none" stroke="white" stroke-width="1.5" d="M0,-3.0v7 M-2.5,-0.5L0,-3.0L2.5,-0.5"/>
                </g>
        </g>
        <svg viewBox="0 0 15 15" width="100%" height="30px" preserveAspectRatio="xMaxYMin meet">
         <g id="arrow_out" transform="scale(0.3 0.3)">
          <a xlink:href="group__session__internal_gaa8b3a2da8480911b0216dad076038cb6_icgraph_org.svg" target="_base">
           <rect id="button" ry="5" rx="5" y="6" x="6" height="38" width="38"
                fill="#f2f5e9" fill-opacity="0.5" stroke="#606060" stroke-width="1.0"/>
           <path id="arrow"
             d="M 11.500037,31.436501 C 11.940474,20.09759 22.043105,11.32322 32.158766,21.979434 L 37.068811,17.246167 C 37.068811,17.246167 37.088388,32 37.088388,32 L 22.160133,31.978069 C 22.160133,31.978069 26.997745,27.140456 26.997745,27.140456 C 18.528582,18.264221 13.291696,25.230495 11.500037,31.436501 z"
             style="fill:#404040;"/>
          </a>
         </g>
        </svg>
</svg>
