<?xml version="1.0" encoding="UTF-8" standalone="no"?>
<!DOCTYPE svg PUBLIC "-//W3C//DTD SVG 1.1//EN"
 "http://www.w3.org/Graphics/SVG/1.1/DTD/svg11.dtd">
<!-- Generated by graphviz version 2.43.0 (0)
 -->
<!-- Title: coap_option_filter_unset Pages: 1 -->
<!--zoomable 151 -->
<svg id="main" version="1.1" xmlns="http://www.w3.org/2000/svg" xmlns:xlink="http://www.w3.org/1999/xlink" xml:space="preserve" onload="init(evt)">
<style type="text/css"><![CDATA[
.edge:hover path { stroke: red; }
.edge:hover polygon { stroke: red; fill: red; }
]]></style>
<script type="text/javascript"><![CDATA[
var edges = document.getElementsByTagName('g');
if (edges && edges.length) {
  for (var i=0;i<edges.length;i++) {
    if (edges[i].id.substr(0,4)=='edge') {
      edges[i].setAttribute('class','edge');
    }
  }
}
]]></script>
        <defs>
                <circle id="rim" cx="0" cy="0" r="7"/>
                <circle id="rim2" cx="0" cy="0" r="3.5"/>
                <g id="zoomPlus">
                        <use xlink:href="#rim" fill="#404040">
                                <set attributeName="fill" to="#808080" begin="zoomplus.mouseover" end="zoomplus.mouseout"/>
                        </use>
                        <path d="M-4,0h8M0,-4v8" fill="none" stroke="white" stroke-width="1.5" pointer-events="none"/>
                </g>
                <g id="zoomMin">
                        <use xlink:href="#rim" fill="#404040">
                                <set attributeName="fill" to="#808080" begin="zoomminus.mouseover" end="zoomminus.mouseout"/>
                        </use>
                        <path d="M-4,0h8" fill="none" stroke="white" stroke-width="1.5" pointer-events="none"/>
                </g>
                <g id="dirArrow">
                        <path fill="none" stroke="white" stroke-width="1.5" d="M0,-3.0v7 M-2.5,-0.5L0,-3.0L2.5,-0.5"/>
                </g>
               <g id="resetDef">
                       <use xlink:href="#rim2" fill="#404040">
                               <set attributeName="fill" to="#808080" begin="reset.mouseover" end="reset.mouseout"/>
                       </use>
               </g>
        </defs>

<script type="text/javascript">
var viewWidth = 1863;
var viewHeight = 151;
var sectionId = 'dynsection-18';
</script>
<script xlink:href="svgpan.js"/>
<svg id="graph" class="graph">
<g id="viewport">
<title>coap_option_filter_unset</title>
<polygon fill="white" stroke="transparent" points="-4,4 -4,-147 1859,-147 1859,4 -4,4"/>
<!-- Node1 -->
<g id="node1" class="node">
<title>Node1</title>
<g id="a_node1"><a xlink:title="Clears the corresponding entry for number in filter.">
<polygon fill="#bfbfbf" stroke="black" points="1762,-14 1762,-44 1855,-44 1855,-14 1762,-14"/>
<text text-anchor="start" x="1770" y="-32" font-family="Helvetica,sans-Serif" font-size="10.00">coap_option_filter</text>
<text text-anchor="middle" x="1808.5" y="-21" font-family="Helvetica,sans-Serif" font-size="10.00">_unset</text>
</a>
</g>
</g>
<!-- Node2 -->
<g id="node2" class="node">
<title>Node2</title>
<g id="a_node2"><a xlink:href="group__context.html#ga47427850288b1d6e73d4b35d633d100e" target="_top" xlink:title="Creates a new ACK PDU with specified error code.">
<polygon fill="white" stroke="black" points="1595,-38.5 1595,-57.5 1726,-57.5 1726,-38.5 1595,-38.5"/>
<text text-anchor="middle" x="1660.5" y="-45.5" font-family="Helvetica,sans-Serif" font-size="10.00">coap_new_error_response</text>
</a>
</g>
</g>
<!-- Node1&#45;&gt;Node2 -->
<g id="edge1" class="edge">
<title>Node1&#45;&gt;Node2</title>
<path fill="none" stroke="midnightblue" d="M1751.69,-36.26C1743.33,-37.35 1734.65,-38.48 1726.12,-39.59"/>
<polygon fill="midnightblue" stroke="midnightblue" points="1752.24,-39.72 1761.71,-34.96 1751.34,-32.78 1752.24,-39.72"/>
</g>
<!-- Node20 -->
<g id="node20" class="node">
<title>Node20</title>
<g id="a_node20"><a xlink:href="coap__option_8h.html#aaf1d2c14694e1d6d258eb5a549030604" target="_top" xlink:title="Clears the corresponding bit for type in filter.">
<polygon fill="white" stroke="black" points="1615.5,-0.5 1615.5,-19.5 1705.5,-19.5 1705.5,-0.5 1615.5,-0.5"/>
<text text-anchor="middle" x="1660.5" y="-7.5" font-family="Helvetica,sans-Serif" font-size="10.00">coap_option_clrb</text>
</a>
</g>
</g>
<!-- Node1&#45;&gt;Node20 -->
<g id="edge24" class="edge">
<title>Node1&#45;&gt;Node20</title>
<path fill="none" stroke="midnightblue" d="M1751.4,-21.7C1736.24,-19.73 1720.04,-17.62 1705.63,-15.74"/>
<polygon fill="midnightblue" stroke="midnightblue" points="1751.34,-25.22 1761.71,-23.04 1752.24,-18.28 1751.34,-25.22"/>
</g>
<!-- Node3 -->
<g id="node3" class="node">
<title>Node3</title>
<g id="a_node3"><a xlink:href="group__context__internal.html#ga7bb944fc52f772655356d95724317401" target="_top" xlink:title="Dispatches the PDUs from the receive queue in given context.">
<polygon fill="white" stroke="black" points="1474.5,-57.5 1474.5,-76.5 1554.5,-76.5 1554.5,-57.5 1474.5,-57.5"/>
<text text-anchor="middle" x="1514.5" y="-64.5" font-family="Helvetica,sans-Serif" font-size="10.00">coap_dispatch</text>
</a>
</g>
</g>
<!-- Node2&#45;&gt;Node3 -->
<g id="edge2" class="edge">
<title>Node2&#45;&gt;Node3</title>
<path fill="none" stroke="midnightblue" d="M1584.44,-57.9C1574.21,-59.25 1564.07,-60.59 1554.83,-61.81"/>
<polygon fill="midnightblue" stroke="midnightblue" points="1585.21,-61.33 1594.66,-56.56 1584.29,-54.39 1585.21,-61.33"/>
</g>
<!-- Node19 -->
<g id="node19" class="node">
<title>Node19</title>
<g id="a_node19"><a xlink:href="group__context.html#ga95c41b8af7a987b4e376db0a70370006" target="_top" xlink:title="Sends an error response with code code for request request to dst.">
<polygon fill="white" stroke="black" points="1470,-19.5 1470,-38.5 1559,-38.5 1559,-19.5 1470,-19.5"/>
<text text-anchor="middle" x="1514.5" y="-26.5" font-family="Helvetica,sans-Serif" font-size="10.00">coap_send_error</text>
</a>
</g>
</g>
<!-- Node2&#45;&gt;Node19 -->
<g id="edge23" class="edge">
<title>Node2&#45;&gt;Node19</title>
<path fill="none" stroke="midnightblue" d="M1584.55,-38.11C1575.93,-36.97 1567.37,-35.84 1559.36,-34.79"/>
<polygon fill="midnightblue" stroke="midnightblue" points="1584.29,-41.61 1594.66,-39.44 1585.21,-34.67 1584.29,-41.61"/>
</g>
<!-- Node4 -->
<g id="node4" class="node">
<title>Node4</title>
<g id="a_node4"><a xlink:href="group__context__internal.html#gae6b8ca457dd41f23372f9e9a7159312b" target="_top" xlink:title="Parses and interprets a CoAP datagram with context ctx.">
<polygon fill="white" stroke="black" points="1330,-79.5 1330,-98.5 1434,-98.5 1434,-79.5 1330,-79.5"/>
<text text-anchor="middle" x="1382" y="-86.5" font-family="Helvetica,sans-Serif" font-size="10.00">coap_handle_dgram</text>
</a>
</g>
</g>
<!-- Node3&#45;&gt;Node4 -->
<g id="edge3" class="edge">
<title>Node3&#45;&gt;Node4</title>
<path fill="none" stroke="midnightblue" d="M1464.32,-75.29C1454.48,-76.95 1444.12,-78.7 1434.21,-80.37"/>
<polygon fill="midnightblue" stroke="midnightblue" points="1465.07,-78.71 1474.35,-73.6 1463.9,-71.81 1465.07,-78.71"/>
</g>
<!-- Node6 -->
<g id="node6" class="node">
<title>Node6</title>
<g id="a_node6"><a xlink:href="net_8c.html#acd36f6fba6d30ab9557e0e6521f4a088" target="_top" xlink:title=" ">
<polygon fill="white" stroke="black" points="1037,-41.5 1037,-60.5 1138,-60.5 1138,-41.5 1037,-41.5"/>
<text text-anchor="middle" x="1087.5" y="-48.5" font-family="Helvetica,sans-Serif" font-size="10.00">coap_read_session</text>
</a>
</g>
</g>
<!-- Node3&#45;&gt;Node6 -->
<g id="edge22" class="edge">
<title>Node3&#45;&gt;Node6</title>
<path fill="none" stroke="midnightblue" d="M1464.27,-65.15C1382.67,-62.07 1220.3,-55.96 1138.32,-52.88"/>
<polygon fill="midnightblue" stroke="midnightblue" points="1464.15,-68.64 1474.28,-65.52 1464.42,-61.65 1464.15,-68.64"/>
</g>
<!-- Node5 -->
<g id="node5" class="node">
<title>Node5</title>
<g id="a_node5"><a xlink:href="net_8c.html#a8534f7860b14e0743529daff196a27ce" target="_top" xlink:title=" ">
<polygon fill="white" stroke="black" points="1174,-74 1174,-104 1294,-104 1294,-74 1174,-74"/>
<text text-anchor="start" x="1182" y="-92" font-family="Helvetica,sans-Serif" font-size="10.00">coap_handle_dgram_for</text>
<text text-anchor="middle" x="1234" y="-81" font-family="Helvetica,sans-Serif" font-size="10.00">_proto</text>
</a>
</g>
</g>
<!-- Node4&#45;&gt;Node5 -->
<g id="edge4" class="edge">
<title>Node4&#45;&gt;Node5</title>
<path fill="none" stroke="midnightblue" d="M1319.71,-89C1311.21,-89 1302.49,-89 1294.04,-89"/>
<polygon fill="midnightblue" stroke="midnightblue" points="1319.94,-92.5 1329.94,-89 1319.94,-85.5 1319.94,-92.5"/>
</g>
<!-- Node5&#45;&gt;Node6 -->
<g id="edge5" class="edge">
<title>Node5&#45;&gt;Node6</title>
<path fill="none" stroke="midnightblue" d="M1166.12,-71.41C1151.9,-67.67 1137.4,-63.86 1124.84,-60.56"/>
<polygon fill="midnightblue" stroke="midnightblue" points="1165.33,-74.82 1175.89,-73.98 1167.11,-68.05 1165.33,-74.82"/>
</g>
<!-- Node7 -->
<g id="node7" class="node">
<title>Node7</title>
<g id="a_node7"><a xlink:href="group__app__io__internal.html#ga503f851fa137eb8a9c2936e2098c5eb9" target="_top" xlink:title="Process all the epoll events.">
<polygon fill="white" stroke="black" points="909,-63.5 909,-82.5 1001,-82.5 1001,-63.5 909,-63.5"/>
<text text-anchor="middle" x="955" y="-70.5" font-family="Helvetica,sans-Serif" font-size="10.00">coap_io_do_epoll</text>
</a>
</g>
</g>
<!-- Node6&#45;&gt;Node7 -->
<g id="edge6" class="edge">
<title>Node6&#45;&gt;Node7</title>
<path fill="none" stroke="midnightblue" d="M1026.81,-61.06C1018.23,-62.51 1009.53,-63.98 1001.29,-65.37"/>
<polygon fill="midnightblue" stroke="midnightblue" points="1027.51,-64.49 1036.79,-59.38 1026.35,-57.59 1027.51,-64.49"/>
</g>
<!-- Node16 -->
<g id="node16" class="node">
<title>Node16</title>
<g id="a_node16"><a xlink:href="group__app__io__internal.html#ga2208802b0711ad20df07271b751b41dc" target="_top" xlink:title="Processes any outstanding read, write, accept or connect I/O as indicated in the coap_socket_t struct...">
<polygon fill="white" stroke="black" points="915.5,-25.5 915.5,-44.5 994.5,-44.5 994.5,-25.5 915.5,-25.5"/>
<text text-anchor="middle" x="955" y="-32.5" font-family="Helvetica,sans-Serif" font-size="10.00">coap_io_do_io</text>
</a>
</g>
</g>
<!-- Node6&#45;&gt;Node16 -->
<g id="edge17" class="edge">
<title>Node6&#45;&gt;Node16</title>
<path fill="none" stroke="midnightblue" d="M1026.84,-43.68C1015.89,-42.34 1004.74,-40.98 994.61,-39.73"/>
<polygon fill="midnightblue" stroke="midnightblue" points="1026.44,-47.16 1036.79,-44.91 1027.29,-40.21 1026.44,-47.16"/>
</g>
<!-- Node8 -->
<g id="node8" class="node">
<title>Node8</title>
<g id="a_node8"><a xlink:href="group__app__io.html#ga2758ed5fdd6ce79ec95ea8dbf72a5644" target="_top" xlink:title="The main message processing loop with additional fds for internal select.">
<polygon fill="white" stroke="black" points="741,-63.5 741,-82.5 873,-82.5 873,-63.5 741,-63.5"/>
<text text-anchor="middle" x="807" y="-70.5" font-family="Helvetica,sans-Serif" font-size="10.00">coap_io_process_with_fds</text>
</a>
</g>
</g>
<!-- Node7&#45;&gt;Node8 -->
<g id="edge7" class="edge">
<title>Node7&#45;&gt;Node8</title>
<path fill="none" stroke="midnightblue" d="M898.38,-73C890.15,-73 881.6,-73 873.2,-73"/>
<polygon fill="midnightblue" stroke="midnightblue" points="898.61,-76.5 908.61,-73 898.6,-69.5 898.61,-76.5"/>
</g>
<!-- Node9 -->
<g id="node9" class="node">
<title>Node9</title>
<g id="a_node9"><a xlink:href="group__app__io.html#ga082f7bbf15d3f37c31c2a0a5e78ea4cf" target="_top" xlink:title="The main I/O processing function.">
<polygon fill="white" stroke="black" points="615,-63.5 615,-82.5 705,-82.5 705,-63.5 615,-63.5"/>
<text text-anchor="middle" x="660" y="-70.5" font-family="Helvetica,sans-Serif" font-size="10.00">coap_io_process</text>
</a>
</g>
</g>
<!-- Node8&#45;&gt;Node9 -->
<g id="edge8" class="edge">
<title>Node8&#45;&gt;Node9</title>
<path fill="none" stroke="midnightblue" d="M730.53,-66.26C721.85,-66.28 713.23,-66.44 705.17,-66.73"/>
<polygon fill="midnightblue" stroke="midnightblue" points="730.7,-69.76 740.71,-66.28 730.72,-62.76 730.7,-69.76"/>
</g>
<!-- Node9&#45;&gt;Node8 -->
<g id="edge15" class="edge">
<title>Node9&#45;&gt;Node8</title>
<path fill="none" stroke="midnightblue" d="M715.41,-79.56C723.67,-79.74 732.25,-79.79 740.71,-79.72"/>
<polygon fill="midnightblue" stroke="midnightblue" points="715.26,-76.05 705.17,-79.27 715.07,-83.05 715.26,-76.05"/>
</g>
<!-- Node10 -->
<g id="node10" class="node">
<title>Node10</title>
<g id="a_node10"><a xlink:href="group__context__internal.html#ga5d013d40174c7c217b24bf624f9d7310" target="_top" xlink:title="Delay the sending of the first client request until some other negotiation has completed.">
<polygon fill="white" stroke="black" points="463,-85.5 463,-104.5 579,-104.5 579,-85.5 463,-85.5"/>
<text text-anchor="middle" x="521" y="-92.5" font-family="Helvetica,sans-Serif" font-size="10.00">coap_client_delay_first</text>
</a>
</g>
</g>
<!-- Node9&#45;&gt;Node10 -->
<g id="edge9" class="edge">
<title>Node9&#45;&gt;Node10</title>
<path fill="none" stroke="midnightblue" d="M604.77,-81.71C596.31,-83.07 587.55,-84.47 579.04,-85.84"/>
<polygon fill="midnightblue" stroke="midnightblue" points="605.58,-85.12 614.9,-80.08 604.47,-78.21 605.58,-85.12"/>
</g>
<!-- Node15 -->
<g id="node15" class="node">
<title>Node15</title>
<g id="a_node15"><a xlink:href="net_8h.html#ac6b34aa979ec545eb710e45a26c98fc1" target="_top" xlink:title=" ">
<polygon fill="white" stroke="black" points="479.5,-47.5 479.5,-66.5 562.5,-66.5 562.5,-47.5 479.5,-47.5"/>
<text text-anchor="middle" x="521" y="-54.5" font-family="Helvetica,sans-Serif" font-size="10.00">coap_run_once</text>
</a>
</g>
</g>
<!-- Node9&#45;&gt;Node15 -->
<g id="edge16" class="edge">
<title>Node9&#45;&gt;Node15</title>
<path fill="none" stroke="midnightblue" d="M604.87,-66.68C590.84,-65.04 575.98,-63.3 562.77,-61.76"/>
<polygon fill="midnightblue" stroke="midnightblue" points="604.56,-70.17 614.9,-67.85 605.37,-63.21 604.56,-70.17"/>
</g>
<!-- Node11 -->
<g id="node11" class="node">
<title>Node11</title>
<g id="a_node11"><a xlink:href="group__session.html#ga4368ee622c681bf7cf0b7cfe99c8ab37" target="_top" xlink:title="Get maximum acceptable PDU size.">
<polygon fill="white" stroke="black" points="282,-104.5 282,-123.5 427,-123.5 427,-104.5 282,-104.5"/>
<text text-anchor="middle" x="354.5" y="-111.5" font-family="Helvetica,sans-Serif" font-size="10.00">coap_session_max_pdu_size</text>
</a>
</g>
</g>
<!-- Node10&#45;&gt;Node11 -->
<g id="edge10" class="edge">
<title>Node10&#45;&gt;Node11</title>
<path fill="none" stroke="midnightblue" d="M452.79,-102.76C444.37,-103.74 435.74,-104.73 427.25,-105.71"/>
<polygon fill="midnightblue" stroke="midnightblue" points="453.4,-106.22 462.93,-101.59 452.59,-99.26 453.4,-106.22"/>
</g>
<!-- Node11&#45;&gt;Node4 -->
<g id="edge11" class="edge">
<title>Node11&#45;&gt;Node4</title>
<path fill="none" stroke="midnightblue" d="M437.51,-121.92C498.53,-127.13 583.89,-133 659,-133 1088.5,-133 1088.5,-133 1088.5,-133 1180.22,-133 1203.86,-130.96 1294,-114 1313.92,-110.25 1335.86,-103.93 1352.72,-98.59"/>
<polygon fill="midnightblue" stroke="midnightblue" points="437.43,-118.4 427.17,-121.02 436.83,-125.37 437.43,-118.4"/>
</g>
<!-- Node12 -->
<g id="node12" class="node">
<title>Node12</title>
<g id="a_node12"><a xlink:href="group__pdu.html#ga6ab63e25c7c9eed3de00b0e1153b33b6" target="_top" xlink:title="Creates a new CoAP PDU.">
<polygon fill="white" stroke="black" points="153.5,-123.5 153.5,-142.5 235.5,-142.5 235.5,-123.5 153.5,-123.5"/>
<text text-anchor="middle" x="194.5" y="-130.5" font-family="Helvetica,sans-Serif" font-size="10.00">coap_new_pdu</text>
</a>
</g>
</g>
<!-- Node11&#45;&gt;Node12 -->
<g id="edge12" class="edge">
<title>Node11&#45;&gt;Node12</title>
<path fill="none" stroke="midnightblue" d="M271.84,-123.82C259.3,-125.33 246.85,-126.83 235.75,-128.16"/>
<polygon fill="midnightblue" stroke="midnightblue" points="272.39,-127.28 281.9,-122.61 271.55,-120.33 272.39,-127.28"/>
</g>
<!-- Node13 -->
<g id="node13" class="node">
<title>Node13</title>
<g id="a_node13"><a xlink:href="group__pdu.html#gabf10450d37381b133fb780480b4fca1b" target="_top" xlink:title="Duplicate an existing PDU.">
<polygon fill="white" stroke="black" points="143,-85.5 143,-104.5 246,-104.5 246,-85.5 143,-85.5"/>
<text text-anchor="middle" x="194.5" y="-92.5" font-family="Helvetica,sans-Serif" font-size="10.00">coap_pdu_duplicate</text>
</a>
</g>
</g>
<!-- Node11&#45;&gt;Node13 -->
<g id="edge13" class="edge">
<title>Node11&#45;&gt;Node13</title>
<path fill="none" stroke="midnightblue" d="M271.95,-104.19C263.14,-103.13 254.38,-102.08 246.09,-101.08"/>
<polygon fill="midnightblue" stroke="midnightblue" points="271.55,-107.67 281.9,-105.39 272.39,-100.72 271.55,-107.67"/>
</g>
<!-- Node14 -->
<g id="node14" class="node">
<title>Node14</title>
<g id="a_node14"><a xlink:href="group__coap__async.html#ga14b20d8c5bf07bdda9f8bc6777540a84" target="_top" xlink:title="Allocates a new coap_async_t object and fills its fields according to the given request.">
<polygon fill="white" stroke="black" points="0,-85.5 0,-104.5 107,-104.5 107,-85.5 0,-85.5"/>
<text text-anchor="middle" x="53.5" y="-92.5" font-family="Helvetica,sans-Serif" font-size="10.00">coap_register_async</text>
</a>
</g>
</g>
<!-- Node13&#45;&gt;Node14 -->
<g id="edge14" class="edge">
<title>Node13&#45;&gt;Node14</title>
<path fill="none" stroke="midnightblue" d="M132.67,-95C124.16,-95 115.48,-95 107.14,-95"/>
<polygon fill="midnightblue" stroke="midnightblue" points="132.92,-98.5 142.92,-95 132.92,-91.5 132.92,-98.5"/>
</g>
<!-- Node16&#45;&gt;Node8 -->
<g id="edge18" class="edge">
<title>Node16&#45;&gt;Node8</title>
<path fill="none" stroke="midnightblue" d="M907.46,-47.11C887.13,-52.4 863.63,-58.52 844.58,-63.48"/>
<polygon fill="midnightblue" stroke="midnightblue" points="908.36,-50.5 917.16,-44.59 906.6,-43.72 908.36,-50.5"/>
</g>
<!-- Node17 -->
<g id="node17" class="node">
<title>Node17</title>
<g id="a_node17"><a xlink:href="net_8h.html#af937985e2b14a287a849663574d59bcb" target="_top" xlink:title=" ">
<polygon fill="white" stroke="black" points="776,-16.5 776,-35.5 838,-35.5 838,-16.5 776,-16.5"/>
<text text-anchor="middle" x="807" y="-23.5" font-family="Helvetica,sans-Serif" font-size="10.00">coap_read</text>
</a>
</g>
</g>
<!-- Node16&#45;&gt;Node17 -->
<g id="edge19" class="edge">
<title>Node16&#45;&gt;Node17</title>
<path fill="none" stroke="midnightblue" d="M905.02,-31.98C882.88,-30.62 857.41,-29.05 838.12,-27.86"/>
<polygon fill="midnightblue" stroke="midnightblue" points="905.06,-35.49 915.26,-32.61 905.49,-28.5 905.06,-35.49"/>
</g>
<!-- Node18 -->
<g id="node18" class="node">
<title>Node18</title>
<g id="a_node18"><a xlink:href="coap__io__contiki_8c.html#a75a7c93e10ca7858449ba304aad4ea37" target="_top" xlink:title=" ">
<polygon fill="white" stroke="black" points="618.5,-7.5 618.5,-26.5 701.5,-26.5 701.5,-7.5 618.5,-7.5"/>
<text text-anchor="middle" x="660" y="-14.5" font-family="Helvetica,sans-Serif" font-size="10.00">coap_run_once</text>
</a>
</g>
</g>
<!-- Node17&#45;&gt;Node18 -->
<g id="edge20" class="edge">
<title>Node17&#45;&gt;Node18</title>
<path fill="none" stroke="midnightblue" d="M765.92,-23.51C745.94,-22.27 721.81,-20.77 701.73,-19.53"/>
<polygon fill="midnightblue" stroke="midnightblue" points="765.76,-27.01 775.96,-24.14 766.19,-20.02 765.76,-27.01"/>
</g>
<!-- Node18&#45;&gt;Node18 -->
<g id="edge21" class="edge">
<title>Node18&#45;&gt;Node18</title>
<path fill="none" stroke="midnightblue" d="M685.67,-36.03C684.27,-41.13 675.71,-45 660,-45 635.47,-45 628.38,-35.57 638.73,-26.76"/>
<polygon fill="midnightblue" stroke="midnightblue" points="688.72,-34.29 681.27,-26.76 682.39,-37.29 688.72,-34.29"/>
</g>
</g>
</svg>
        <g id="navigator" transform="translate(0 0)" fill="#404254">
                <rect fill="#f2f5e9" fill-opacity="0.5" stroke="#606060" stroke-width=".5" x="0" y="0" width="60" height="60"/>
                <use id="zoomplus" xlink:href="#zoomPlus" x="17" y="9" onmousedown="handleZoom(evt,'in')"/>
                <use id="zoomminus" xlink:href="#zoomMin" x="42" y="9" onmousedown="handleZoom(evt,'out')"/>
                <use id="reset" xlink:href="#resetDef" x="30" y="36" onmousedown="handleReset()"/>
                <g id="arrowUp" xlink:href="#dirArrow" transform="translate(30 24)" onmousedown="handlePan(0,-1)">
                  <use xlink:href="#rim" fill="#404040">
                        <set attributeName="fill" to="#808080" begin="arrowUp.mouseover" end="arrowUp.mouseout"/>
                  </use>
                  <path fill="none" stroke="white" stroke-width="1.5" d="M0,-3.0v7 M-2.5,-0.5L0,-3.0L2.5,-0.5"/>
                </g>
                <g id="arrowRight" xlink:href="#dirArrow" transform="rotate(90) translate(36 -43)" onmousedown="handlePan(1,0)">
                  <use xlink:href="#rim" fill="#404040">
                        <set attributeName="fill" to="#808080" begin="arrowRight.mouseover" end="arrowRight.mouseout"/>
                  </use>
                  <path fill="none" stroke="white" stroke-width="1.5" d="M0,-3.0v7 M-2.5,-0.5L0,-3.0L2.5,-0.5"/>
                </g>
                <g id="arrowDown" xlink:href="#dirArrow" transform="rotate(180) translate(-30 -48)" onmousedown="handlePan(0,1)">
                  <use xlink:href="#rim" fill="#404040">
                        <set attributeName="fill" to="#808080" begin="arrowDown.mouseover" end="arrowDown.mouseout"/>
                  </use>
                  <path fill="none" stroke="white" stroke-width="1.5" d="M0,-3.0v7 M-2.5,-0.5L0,-3.0L2.5,-0.5"/>
                </g>
                <g id="arrowLeft" xlink:href="#dirArrow" transform="rotate(270) translate(-36 17)" onmousedown="handlePan(-1,0)">
                  <use xlink:href="#rim" fill="#404040">
                        <set attributeName="fill" to="#808080" begin="arrowLeft.mouseover" end="arrowLeft.mouseout"/>
                  </use>
                  <path fill="none" stroke="white" stroke-width="1.5" d="M0,-3.0v7 M-2.5,-0.5L0,-3.0L2.5,-0.5"/>
                </g>
        </g>
        <svg viewBox="0 0 15 15" width="100%" height="30px" preserveAspectRatio="xMaxYMin meet">
         <g id="arrow_out" transform="scale(0.3 0.3)">
          <a xlink:href="group__opt__filter_ga9fba33df6876f251ae59678a83508ac4_icgraph_org.svg" target="_base">
           <rect id="button" ry="5" rx="5" y="6" x="6" height="38" width="38"
                fill="#f2f5e9" fill-opacity="0.5" stroke="#606060" stroke-width="1.0"/>
           <path id="arrow"
             d="M 11.500037,31.436501 C 11.940474,20.09759 22.043105,11.32322 32.158766,21.979434 L 37.068811,17.246167 C 37.068811,17.246167 37.088388,32 37.088388,32 L 22.160133,31.978069 C 22.160133,31.978069 26.997745,27.140456 26.997745,27.140456 C 18.528582,18.264221 13.291696,25.230495 11.500037,31.436501 z"
             style="fill:#404040;"/>
          </a>
         </g>
        </svg>
</svg>
