<?xml version="1.0" encoding="UTF-8" standalone="no"?>
<!DOCTYPE svg PUBLIC "-//W3C//DTD SVG 1.1//EN"
 "http://www.w3.org/Graphics/SVG/1.1/DTD/svg11.dtd">
<!-- Generated by graphviz version 2.43.0 (0)
 -->
<!-- Title: coap_add_option Pages: 1 -->
<svg width="1058pt" height="344pt"
 viewBox="0.00 0.00 1058.00 343.50" xmlns="http://www.w3.org/2000/svg" xmlns:xlink="http://www.w3.org/1999/xlink">
<g id="graph0" class="graph" transform="scale(1 1) rotate(0) translate(4 339.5)">
<title>coap_add_option</title>
<polygon fill="white" stroke="transparent" points="-4,4 -4,-339.5 1054,-339.5 1054,4 -4,4"/>
<!-- Node1 -->
<g id="node1" class="node">
<title>Node1</title>
<g id="a_node1"><a xlink:title="Adds option of given number to pdu that is passed as first parameter.">
<polygon fill="#bfbfbf" stroke="black" points="0,-114.5 0,-133.5 90,-133.5 90,-114.5 0,-114.5"/>
<text text-anchor="middle" x="45" y="-121.5" font-family="Helvetica,sans-Serif" font-size="10.00">coap_add_option</text>
</a>
</g>
</g>
<!-- Node2 -->
<g id="node2" class="node">
<title>Node2</title>
<g id="a_node2"><a xlink:href="group__pdu__internal.html#gaf5852382a0595538ac113f44a6f36509" target="_top" xlink:title="Adds option of given number to pdu that is passed as first parameter.">
<polygon fill="white" stroke="black" points="126,-114.5 126,-133.5 253,-133.5 253,-114.5 126,-114.5"/>
<text text-anchor="middle" x="189.5" y="-121.5" font-family="Helvetica,sans-Serif" font-size="10.00">coap_add_option_internal</text>
</a>
</g>
</g>
<!-- Node1&#45;&gt;Node2 -->
<g id="edge1" class="edge">
<title>Node1&#45;&gt;Node2</title>
<path fill="none" stroke="midnightblue" d="M90.31,-124C98.41,-124 107.06,-124 115.74,-124"/>
<polygon fill="midnightblue" stroke="midnightblue" points="115.91,-127.5 125.91,-124 115.91,-120.5 115.91,-127.5"/>
</g>
<!-- Node3 -->
<g id="node3" class="node">
<title>Node3</title>
<g id="a_node3"><a xlink:href="pdu_8c.html#a81deae4b462b64f7cd6a1371efec07a7" target="_top" xlink:title=" ">
<polygon fill="white" stroke="black" points="440.5,-152.5 440.5,-171.5 533.5,-171.5 533.5,-152.5 440.5,-152.5"/>
<text text-anchor="middle" x="487" y="-159.5" font-family="Helvetica,sans-Serif" font-size="10.00">check_repeatable</text>
</a>
</g>
</g>
<!-- Node2&#45;&gt;Node3 -->
<g id="edge2" class="edge">
<title>Node2&#45;&gt;Node3</title>
<path fill="none" stroke="midnightblue" d="M234.97,-133.5C251.83,-136.86 271.25,-140.44 289,-143 336.55,-149.86 390.93,-154.9 430.49,-158.05"/>
<polygon fill="midnightblue" stroke="midnightblue" points="430.23,-161.54 440.47,-158.83 430.78,-154.56 430.23,-161.54"/>
</g>
<!-- Node4 -->
<g id="node4" class="node">
<title>Node4</title>
<g id="a_node4"><a xlink:href="group__opt__filter.html#gac766f0e78b5ef3ffc8c67d993c6ca8b6" target="_top" xlink:title="Retrieves the first option of number number from pdu.">
<polygon fill="white" stroke="black" points="289,-228.5 289,-247.5 390,-247.5 390,-228.5 289,-228.5"/>
<text text-anchor="middle" x="339.5" y="-235.5" font-family="Helvetica,sans-Serif" font-size="10.00">coap_check_option</text>
</a>
</g>
</g>
<!-- Node2&#45;&gt;Node4 -->
<g id="edge3" class="edge">
<title>Node2&#45;&gt;Node4</title>
<path fill="none" stroke="midnightblue" d="M202.86,-133.52C228.26,-153.09 286.56,-197.99 317.81,-222.06"/>
<polygon fill="midnightblue" stroke="midnightblue" points="315.8,-224.93 325.86,-228.26 320.07,-219.39 315.8,-224.93"/>
</g>
<!-- Node16 -->
<g id="node16" class="node">
<title>Node16</title>
<g id="a_node16"><a xlink:href="group__pdu__internal.html#ga24f3c35d834ec06d051a05a2572efb62" target="_top" xlink:title="Inserts option of given number in the pdu with the appropriate data.">
<polygon fill="white" stroke="black" points="290.5,-114.5 290.5,-133.5 388.5,-133.5 388.5,-114.5 290.5,-114.5"/>
<text text-anchor="middle" x="339.5" y="-121.5" font-family="Helvetica,sans-Serif" font-size="10.00">coap_insert_option</text>
</a>
</g>
</g>
<!-- Node2&#45;&gt;Node16 -->
<g id="edge16" class="edge">
<title>Node2&#45;&gt;Node16</title>
<path fill="none" stroke="midnightblue" d="M253.27,-117.32C262.21,-117.21 271.38,-117.23 280.24,-117.39"/>
<polygon fill="midnightblue" stroke="midnightblue" points="280.38,-120.89 290.46,-117.63 280.55,-113.89 280.38,-120.89"/>
</g>
<!-- Node17 -->
<g id="node17" class="node">
<title>Node17</title>
<g id="a_node17"><a xlink:href="group__opt__filter.html#ga358cb455deaefca1b1234298f018c9ab" target="_top" xlink:title="Encodes option with given delta into opt.">
<polygon fill="white" stroke="black" points="440.5,-76.5 440.5,-95.5 533.5,-95.5 533.5,-76.5 440.5,-76.5"/>
<text text-anchor="middle" x="487" y="-83.5" font-family="Helvetica,sans-Serif" font-size="10.00">coap_opt_encode</text>
</a>
</g>
</g>
<!-- Node2&#45;&gt;Node17 -->
<g id="edge27" class="edge">
<title>Node2&#45;&gt;Node17</title>
<path fill="none" stroke="midnightblue" d="M234.97,-114.5C251.83,-111.14 271.25,-107.56 289,-105 336.55,-98.14 390.93,-93.1 430.49,-89.95"/>
<polygon fill="midnightblue" stroke="midnightblue" points="430.78,-93.44 440.47,-89.17 430.23,-86.46 430.78,-93.44"/>
</g>
<!-- Node19 -->
<g id="node19" class="node">
<title>Node19</title>
<g id="a_node19"><a xlink:href="group__opt__filter.html#ga55f19454026048e906139d575feddecb" target="_top" xlink:title="Compute storage bytes needed for an option with given delta and length.">
<polygon fill="white" stroke="black" points="429,-38.5 429,-57.5 545,-57.5 545,-38.5 429,-38.5"/>
<text text-anchor="middle" x="487" y="-45.5" font-family="Helvetica,sans-Serif" font-size="10.00">coap_opt_encode_size</text>
</a>
</g>
</g>
<!-- Node2&#45;&gt;Node19 -->
<g id="edge28" class="edge">
<title>Node2&#45;&gt;Node19</title>
<path fill="none" stroke="midnightblue" d="M214.49,-114.44C234.26,-106.81 263.14,-96.25 289,-89 332.08,-76.93 381.35,-66.67 419.84,-59.44"/>
<polygon fill="midnightblue" stroke="midnightblue" points="420.7,-62.84 429.89,-57.57 419.42,-55.96 420.7,-62.84"/>
</g>
<!-- Node20 -->
<g id="node20" class="node">
<title>Node20</title>
<g id="a_node20"><a xlink:href="group__pdu__internal.html#gad741bcd3525c8d24389e4604c1cacb50" target="_top" xlink:title="Dynamically grows the size of pdu to new_size if needed.">
<polygon fill="white" stroke="black" points="426,-0.5 426,-19.5 548,-19.5 548,-0.5 426,-0.5"/>
<text text-anchor="middle" x="487" y="-7.5" font-family="Helvetica,sans-Serif" font-size="10.00">coap_pdu_check_resize</text>
</a>
</g>
</g>
<!-- Node2&#45;&gt;Node20 -->
<g id="edge29" class="edge">
<title>Node2&#45;&gt;Node20</title>
<path fill="none" stroke="midnightblue" d="M202.87,-114.46C220.89,-100.98 255.83,-76.42 289,-62 331.83,-43.39 382.87,-30.15 422.27,-21.68"/>
<polygon fill="midnightblue" stroke="midnightblue" points="423.21,-25.06 432.28,-19.58 421.77,-18.21 423.21,-25.06"/>
</g>
<!-- Node5 -->
<g id="node5" class="node">
<title>Node5</title>
<g id="a_node5"><a xlink:href="group__opt__filter.html#gab32cbf963c82364063041e5c84ca279a" target="_top" xlink:title="Clears filter filter.">
<polygon fill="white" stroke="black" points="440.5,-305 440.5,-335 533.5,-335 533.5,-305 440.5,-305"/>
<text text-anchor="start" x="448.5" y="-323" font-family="Helvetica,sans-Serif" font-size="10.00">coap_option_filter</text>
<text text-anchor="middle" x="487" y="-312" font-family="Helvetica,sans-Serif" font-size="10.00">_clear</text>
</a>
</g>
</g>
<!-- Node4&#45;&gt;Node5 -->
<g id="edge4" class="edge">
<title>Node4&#45;&gt;Node5</title>
<path fill="none" stroke="midnightblue" d="M355.41,-247.59C372.3,-258.32 400.76,-276.05 426,-290 432.16,-293.41 438.76,-296.88 445.25,-300.19"/>
<polygon fill="midnightblue" stroke="midnightblue" points="444.1,-303.53 454.6,-304.91 447.25,-297.28 444.1,-303.53"/>
</g>
<!-- Node6 -->
<g id="node6" class="node">
<title>Node6</title>
<g id="a_node6"><a xlink:href="group__opt__filter.html#gafdbe6036d408220bbfa6eb2d7bd2443f" target="_top" xlink:title="Sets the corresponding entry for number in filter.">
<polygon fill="white" stroke="black" points="584,-266.5 584,-285.5 696,-285.5 696,-266.5 584,-266.5"/>
<text text-anchor="middle" x="640" y="-273.5" font-family="Helvetica,sans-Serif" font-size="10.00">coap_option_filter_set</text>
</a>
</g>
</g>
<!-- Node4&#45;&gt;Node6 -->
<g id="edge5" class="edge">
<title>Node4&#45;&gt;Node6</title>
<path fill="none" stroke="midnightblue" d="M378.6,-247.58C393.33,-250.99 410.37,-254.58 426,-257 475.14,-264.62 531.18,-269.47 573.44,-272.36"/>
<polygon fill="midnightblue" stroke="midnightblue" points="573.39,-275.86 583.6,-273.03 573.85,-268.88 573.39,-275.86"/>
</g>
<!-- Node11 -->
<g id="node11" class="node">
<title>Node11</title>
<g id="a_node11"><a xlink:href="group__opt__filter.html#ga46d7817d055728114b3c62499426b25c" target="_top" xlink:title="Initializes the given option iterator oi to point to the beginning of the pdu&#39;s option list.">
<polygon fill="white" stroke="black" points="426,-190.5 426,-209.5 548,-209.5 548,-190.5 426,-190.5"/>
<text text-anchor="middle" x="487" y="-197.5" font-family="Helvetica,sans-Serif" font-size="10.00">coap_option_iterator_init</text>
</a>
</g>
</g>
<!-- Node4&#45;&gt;Node11 -->
<g id="edge10" class="edge">
<title>Node4&#45;&gt;Node11</title>
<path fill="none" stroke="midnightblue" d="M377.22,-228.41C396.16,-223.46 419.46,-217.38 439.63,-212.11"/>
<polygon fill="midnightblue" stroke="midnightblue" points="440.76,-215.43 449.55,-209.52 438.99,-208.66 440.76,-215.43"/>
</g>
<!-- Node12 -->
<g id="node12" class="node">
<title>Node12</title>
<g id="a_node12"><a xlink:href="group__opt__filter.html#ga19d4dbbc03ef362996964fbfdd1d4c7b" target="_top" xlink:title="Updates the iterator oi to point to the next option.">
<polygon fill="white" stroke="black" points="440.5,-228.5 440.5,-247.5 533.5,-247.5 533.5,-228.5 440.5,-228.5"/>
<text text-anchor="middle" x="487" y="-235.5" font-family="Helvetica,sans-Serif" font-size="10.00">coap_option_next</text>
</a>
</g>
</g>
<!-- Node4&#45;&gt;Node12 -->
<g id="edge11" class="edge">
<title>Node4&#45;&gt;Node12</title>
<path fill="none" stroke="midnightblue" d="M390.17,-238C403.03,-238 416.96,-238 430.12,-238"/>
<polygon fill="midnightblue" stroke="midnightblue" points="430.47,-241.5 440.47,-238 430.47,-234.5 430.47,-241.5"/>
</g>
<!-- Node7 -->
<g id="node7" class="node">
<title>Node7</title>
<g id="a_node7"><a xlink:href="coap__option_8c.html#ab87ea79da1603a15ac624388a335bba6" target="_top" xlink:title="Applies op on filter with respect to number.">
<polygon fill="white" stroke="black" points="732,-247.5 732,-266.5 841,-266.5 841,-247.5 732,-247.5"/>
<text text-anchor="middle" x="786.5" y="-254.5" font-family="Helvetica,sans-Serif" font-size="10.00">coap_option_filter_op</text>
</a>
</g>
</g>
<!-- Node6&#45;&gt;Node7 -->
<g id="edge6" class="edge">
<title>Node6&#45;&gt;Node7</title>
<path fill="none" stroke="midnightblue" d="M696.04,-268.76C704.41,-267.66 713.11,-266.52 721.65,-265.4"/>
<polygon fill="midnightblue" stroke="midnightblue" points="722.11,-268.87 731.57,-264.09 721.2,-261.93 722.11,-268.87"/>
</g>
<!-- Node8 -->
<g id="node8" class="node">
<title>Node8</title>
<g id="a_node8"><a xlink:href="encode_8c.html#a671b4261b2d24de8696258a8efb0f359" target="_top" xlink:title=" ">
<polygon fill="white" stroke="black" points="890,-266.5 890,-285.5 943,-285.5 943,-266.5 890,-266.5"/>
<text text-anchor="middle" x="916.5" y="-273.5" font-family="Helvetica,sans-Serif" font-size="10.00">coap_fls</text>
</a>
</g>
</g>
<!-- Node7&#45;&gt;Node8 -->
<g id="edge7" class="edge">
<title>Node7&#45;&gt;Node8</title>
<path fill="none" stroke="midnightblue" d="M841.04,-264.95C854.08,-266.88 867.71,-268.91 879.69,-270.68"/>
<polygon fill="midnightblue" stroke="midnightblue" points="879.33,-274.17 889.74,-272.18 880.36,-267.25 879.33,-274.17"/>
</g>
<!-- Node10 -->
<g id="node10" class="node">
<title>Node10</title>
<g id="a_node10"><a xlink:href="coap__option_8c.html#ad65a9bd8fcfb4ba4270819e6f87f5bcf" target="_top" xlink:title="Returns true iff number denotes an option number larger than 255.">
<polygon fill="white" stroke="black" points="877,-228.5 877,-247.5 956,-247.5 956,-228.5 877,-228.5"/>
<text text-anchor="middle" x="916.5" y="-235.5" font-family="Helvetica,sans-Serif" font-size="10.00">is_long_option</text>
</a>
</g>
</g>
<!-- Node7&#45;&gt;Node10 -->
<g id="edge9" class="edge">
<title>Node7&#45;&gt;Node10</title>
<path fill="none" stroke="midnightblue" d="M841.04,-249.05C849.61,-247.78 858.44,-246.47 866.89,-245.22"/>
<polygon fill="midnightblue" stroke="midnightblue" points="867.59,-248.65 876.97,-243.72 866.56,-241.73 867.59,-248.65"/>
</g>
<!-- Node9 -->
<g id="node9" class="node">
<title>Node9</title>
<g id="a_node9"><a xlink:href="encode_8c.html#a5732d87decbffe771159ea02a5e25488" target="_top" xlink:title=" ">
<polygon fill="white" stroke="black" points="992,-266.5 992,-285.5 1050,-285.5 1050,-266.5 992,-266.5"/>
<text text-anchor="middle" x="1021" y="-273.5" font-family="Helvetica,sans-Serif" font-size="10.00">coap_flsll</text>
</a>
</g>
</g>
<!-- Node8&#45;&gt;Node9 -->
<g id="edge8" class="edge">
<title>Node8&#45;&gt;Node9</title>
<path fill="none" stroke="midnightblue" d="M943.1,-276C954.8,-276 968.9,-276 981.81,-276"/>
<polygon fill="midnightblue" stroke="midnightblue" points="981.84,-279.5 991.84,-276 981.84,-272.5 981.84,-279.5"/>
</g>
<!-- Node13 -->
<g id="node13" class="node">
<title>Node13</title>
<g id="a_node13"><a xlink:href="coap__option_8c.html#a11de99f50cc9f5a34fd9e4d121ecfd13" target="_top" xlink:title="Parses the option pointed to by opt into result.">
<polygon fill="white" stroke="black" points="597,-133.5 597,-152.5 683,-152.5 683,-133.5 597,-133.5"/>
<text text-anchor="middle" x="640" y="-140.5" font-family="Helvetica,sans-Serif" font-size="10.00">coap_opt_parse</text>
</a>
</g>
</g>
<!-- Node12&#45;&gt;Node13 -->
<g id="edge12" class="edge">
<title>Node12&#45;&gt;Node13</title>
<path fill="none" stroke="midnightblue" d="M527.99,-228.46C534.94,-225.94 541.89,-222.83 548,-219 567.72,-206.65 566.33,-196.14 584,-181 593.58,-172.79 604.94,-164.7 614.85,-158.11"/>
<polygon fill="midnightblue" stroke="midnightblue" points="616.97,-160.9 623.44,-152.52 613.15,-155.04 616.97,-160.9"/>
</g>
<!-- Node14 -->
<g id="node14" class="node">
<title>Node14</title>
<g id="a_node14"><a xlink:href="group__opt__filter.html#gaecbb0b2fe1f6244aa6121d019070704b" target="_top" xlink:title="Checks if number is contained in filter.">
<polygon fill="white" stroke="black" points="584,-228.5 584,-247.5 696,-247.5 696,-228.5 584,-228.5"/>
<text text-anchor="middle" x="640" y="-235.5" font-family="Helvetica,sans-Serif" font-size="10.00">coap_option_filter_get</text>
</a>
</g>
</g>
<!-- Node12&#45;&gt;Node14 -->
<g id="edge13" class="edge">
<title>Node12&#45;&gt;Node14</title>
<path fill="none" stroke="midnightblue" d="M533.71,-238C546.3,-238 560.21,-238 573.67,-238"/>
<polygon fill="midnightblue" stroke="midnightblue" points="573.86,-241.5 583.86,-238 573.86,-234.5 573.86,-241.5"/>
</g>
<!-- Node15 -->
<g id="node15" class="node">
<title>Node15</title>
<g id="a_node15"><a xlink:href="coap__option_8c.html#a70fa9db0450134640b80cbf7c3720688" target="_top" xlink:title=" ">
<polygon fill="white" stroke="black" points="605.5,-190.5 605.5,-209.5 674.5,-209.5 674.5,-190.5 605.5,-190.5"/>
<text text-anchor="middle" x="640" y="-197.5" font-family="Helvetica,sans-Serif" font-size="10.00">opt_finished</text>
</a>
</g>
</g>
<!-- Node12&#45;&gt;Node15 -->
<g id="edge15" class="edge">
<title>Node12&#45;&gt;Node15</title>
<path fill="none" stroke="midnightblue" d="M526.1,-228.41C547.24,-223.09 573.61,-216.46 595.55,-210.93"/>
<polygon fill="midnightblue" stroke="midnightblue" points="596.44,-214.32 605.28,-208.49 594.73,-207.53 596.44,-214.32"/>
</g>
<!-- Node14&#45;&gt;Node7 -->
<g id="edge14" class="edge">
<title>Node14&#45;&gt;Node7</title>
<path fill="none" stroke="midnightblue" d="M696.04,-245.24C704.41,-246.34 713.11,-247.48 721.65,-248.6"/>
<polygon fill="midnightblue" stroke="midnightblue" points="721.2,-252.07 731.57,-249.91 722.11,-245.13 721.2,-252.07"/>
</g>
<!-- Node16&#45;&gt;Node2 -->
<g id="edge18" class="edge">
<title>Node16&#45;&gt;Node2</title>
<path fill="none" stroke="midnightblue" d="M290.46,-130.37C281.84,-130.63 272.68,-130.76 263.54,-130.75"/>
<polygon fill="midnightblue" stroke="midnightblue" points="263.29,-127.25 253.27,-130.68 263.24,-134.25 263.29,-127.25"/>
</g>
<!-- Node16&#45;&gt;Node3 -->
<g id="edge17" class="edge">
<title>Node16&#45;&gt;Node3</title>
<path fill="none" stroke="midnightblue" d="M377.22,-133.59C396.16,-138.54 419.46,-144.62 439.63,-149.89"/>
<polygon fill="midnightblue" stroke="midnightblue" points="438.99,-153.34 449.55,-152.48 440.76,-146.57 438.99,-153.34"/>
</g>
<!-- Node16&#45;&gt;Node11 -->
<g id="edge23" class="edge">
<title>Node16&#45;&gt;Node11</title>
<path fill="none" stroke="midnightblue" d="M352.58,-133.67C368.57,-146.07 398.01,-167.57 426,-181 430.62,-183.22 435.57,-185.26 440.56,-187.12"/>
<polygon fill="midnightblue" stroke="midnightblue" points="439.55,-190.47 450.14,-190.46 441.85,-183.86 439.55,-190.47"/>
</g>
<!-- Node16&#45;&gt;Node12 -->
<g id="edge24" class="edge">
<title>Node16&#45;&gt;Node12</title>
<path fill="none" stroke="midnightblue" d="M346.55,-133.62C359.06,-152.71 389.63,-195.57 426,-219 429.17,-221.04 432.58,-222.88 436.1,-224.53"/>
<polygon fill="midnightblue" stroke="midnightblue" points="435.03,-227.88 445.61,-228.48 437.71,-221.41 435.03,-227.88"/>
</g>
<!-- Node16&#45;&gt;Node13 -->
<g id="edge22" class="edge">
<title>Node16&#45;&gt;Node13</title>
<path fill="none" stroke="midnightblue" d="M388.79,-127.07C443,-130.52 530.67,-136.1 586.53,-139.66"/>
<polygon fill="midnightblue" stroke="midnightblue" points="586.38,-143.16 596.58,-140.3 586.82,-136.17 586.38,-143.16"/>
</g>
<!-- Node16&#45;&gt;Node17 -->
<g id="edge19" class="edge">
<title>Node16&#45;&gt;Node17</title>
<path fill="none" stroke="midnightblue" d="M377.22,-114.41C396.16,-109.46 419.46,-103.38 439.63,-98.11"/>
<polygon fill="midnightblue" stroke="midnightblue" points="440.76,-101.43 449.55,-95.52 438.99,-94.66 440.76,-101.43"/>
</g>
<!-- Node16&#45;&gt;Node19 -->
<g id="edge21" class="edge">
<title>Node16&#45;&gt;Node19</title>
<path fill="none" stroke="midnightblue" d="M352.58,-114.33C368.57,-101.93 398.01,-80.43 426,-67 430.62,-64.78 435.57,-62.74 440.56,-60.88"/>
<polygon fill="midnightblue" stroke="midnightblue" points="441.85,-64.14 450.14,-57.54 439.55,-57.53 441.85,-64.14"/>
</g>
<!-- Node16&#45;&gt;Node20 -->
<g id="edge25" class="edge">
<title>Node16&#45;&gt;Node20</title>
<path fill="none" stroke="midnightblue" d="M346.55,-114.38C359.06,-95.29 389.63,-52.43 426,-29 429.17,-26.96 432.58,-25.12 436.1,-23.47"/>
<polygon fill="midnightblue" stroke="midnightblue" points="437.71,-26.59 445.61,-19.52 435.03,-20.12 437.71,-26.59"/>
</g>
<!-- Node18 -->
<g id="node18" class="node">
<title>Node18</title>
<g id="a_node18"><a xlink:href="group__opt__filter.html#gafebbd04a7895df694a9345dad0275aeb" target="_top" xlink:title="Encodes the given delta and length values into opt.">
<polygon fill="white" stroke="black" points="588,-76.5 588,-95.5 692,-95.5 692,-76.5 588,-76.5"/>
<text text-anchor="middle" x="640" y="-83.5" font-family="Helvetica,sans-Serif" font-size="10.00">coap_opt_setheader</text>
</a>
</g>
</g>
<!-- Node17&#45;&gt;Node18 -->
<g id="edge20" class="edge">
<title>Node17&#45;&gt;Node18</title>
<path fill="none" stroke="midnightblue" d="M533.71,-86C547.61,-86 563.11,-86 577.84,-86"/>
<polygon fill="midnightblue" stroke="midnightblue" points="577.9,-89.5 587.9,-86 577.9,-82.5 577.9,-89.5"/>
</g>
<!-- Node21 -->
<g id="node21" class="node">
<title>Node21</title>
<g id="a_node21"><a xlink:href="group__pdu__internal.html#gadd46ce956878a4121e8887b84c6d4a6b" target="_top" xlink:title="Dynamically grows the size of pdu to new_size.">
<polygon fill="white" stroke="black" points="595,-0.5 595,-19.5 685,-19.5 685,-0.5 595,-0.5"/>
<text text-anchor="middle" x="640" y="-7.5" font-family="Helvetica,sans-Serif" font-size="10.00">coap_pdu_resize</text>
</a>
</g>
</g>
<!-- Node20&#45;&gt;Node21 -->
<g id="edge26" class="edge">
<title>Node20&#45;&gt;Node21</title>
<path fill="none" stroke="midnightblue" d="M548.11,-10C560.2,-10 572.83,-10 584.71,-10"/>
<polygon fill="midnightblue" stroke="midnightblue" points="584.91,-13.5 594.91,-10 584.91,-6.5 584.91,-13.5"/>
</g>
</g>
</svg>
