<?xml version="1.0" encoding="UTF-8" standalone="no"?>
<!DOCTYPE svg PUBLIC "-//W3C//DTD SVG 1.1//EN"
 "http://www.w3.org/Graphics/SVG/1.1/DTD/svg11.dtd">
<!-- Generated by graphviz version 2.43.0 (0)
 -->
<!-- Title: coap_add_optlist_pdu Pages: 1 -->
<!--zoomable 344 -->
<svg id="main" version="1.1" xmlns="http://www.w3.org/2000/svg" xmlns:xlink="http://www.w3.org/1999/xlink" xml:space="preserve" onload="init(evt)">
<style type="text/css"><![CDATA[
.edge:hover path { stroke: red; }
.edge:hover polygon { stroke: red; fill: red; }
]]></style>
<script type="text/javascript"><![CDATA[
var edges = document.getElementsByTagName('g');
if (edges && edges.length) {
  for (var i=0;i<edges.length;i++) {
    if (edges[i].id.substr(0,4)=='edge') {
      edges[i].setAttribute('class','edge');
    }
  }
}
]]></script>
        <defs>
                <circle id="rim" cx="0" cy="0" r="7"/>
                <circle id="rim2" cx="0" cy="0" r="3.5"/>
                <g id="zoomPlus">
                        <use xlink:href="#rim" fill="#404040">
                                <set attributeName="fill" to="#808080" begin="zoomplus.mouseover" end="zoomplus.mouseout"/>
                        </use>
                        <path d="M-4,0h8M0,-4v8" fill="none" stroke="white" stroke-width="1.5" pointer-events="none"/>
                </g>
                <g id="zoomMin">
                        <use xlink:href="#rim" fill="#404040">
                                <set attributeName="fill" to="#808080" begin="zoomminus.mouseover" end="zoomminus.mouseout"/>
                        </use>
                        <path d="M-4,0h8" fill="none" stroke="white" stroke-width="1.5" pointer-events="none"/>
                </g>
                <g id="dirArrow">
                        <path fill="none" stroke="white" stroke-width="1.5" d="M0,-3.0v7 M-2.5,-0.5L0,-3.0L2.5,-0.5"/>
                </g>
               <g id="resetDef">
                       <use xlink:href="#rim2" fill="#404040">
                               <set attributeName="fill" to="#808080" begin="reset.mouseover" end="reset.mouseout"/>
                       </use>
               </g>
        </defs>

<script type="text/javascript">
var viewWidth = 1079;
var viewHeight = 344;
var sectionId = 'dynsection-1';
</script>
<script xlink:href="svgpan.js"/>
<svg id="graph" class="graph">
<g id="viewport">
<title>coap_add_optlist_pdu</title>
<polygon fill="white" stroke="transparent" points="-4,4 -4,-339.5 1075,-339.5 1075,4 -4,4"/>
<!-- Node1 -->
<g id="node1" class="node">
<title>Node1</title>
<g id="a_node1"><a xlink:title="The current optlist of optlist_chain is first sorted (as per RFC7272 ordering requirements) and then ...">
<polygon fill="#bfbfbf" stroke="black" points="0,-95.5 0,-114.5 111,-114.5 111,-95.5 0,-95.5"/>
<text text-anchor="middle" x="55.5" y="-102.5" font-family="Helvetica,sans-Serif" font-size="10.00">coap_add_optlist_pdu</text>
</a>
</g>
</g>
<!-- Node2 -->
<g id="node2" class="node">
<title>Node2</title>
<g id="a_node2"><a xlink:href="group__pdu__internal.html#gaf5852382a0595538ac113f44a6f36509" target="_top" xlink:title="Adds option of given number to pdu that is passed as first parameter.">
<polygon fill="white" stroke="black" points="147,-114.5 147,-133.5 274,-133.5 274,-114.5 147,-114.5"/>
<text text-anchor="middle" x="210.5" y="-121.5" font-family="Helvetica,sans-Serif" font-size="10.00">coap_add_option_internal</text>
</a>
</g>
</g>
<!-- Node1&#45;&gt;Node2 -->
<g id="edge1" class="edge">
<title>Node1&#45;&gt;Node2</title>
<path fill="none" stroke="midnightblue" d="M111.3,-111.81C119.56,-112.83 128.19,-113.9 136.75,-114.97"/>
<polygon fill="midnightblue" stroke="midnightblue" points="136.39,-118.45 146.75,-116.21 137.26,-111.5 136.39,-118.45"/>
</g>
<!-- Node22 -->
<g id="node22" class="node">
<title>Node22</title>
<g id="a_node22"><a xlink:href="coap__option_8c.html#ad773b314b1ac7591f38f7b4b04d9e68d" target="_top" xlink:title=" ">
<polygon fill="white" stroke="black" points="179.5,-76.5 179.5,-95.5 241.5,-95.5 241.5,-76.5 179.5,-76.5"/>
<text text-anchor="middle" x="210.5" y="-83.5" font-family="Helvetica,sans-Serif" font-size="10.00">order_opts</text>
</a>
</g>
</g>
<!-- Node1&#45;&gt;Node22 -->
<g id="edge30" class="edge">
<title>Node1&#45;&gt;Node22</title>
<path fill="none" stroke="midnightblue" d="M111.3,-98.19C130.37,-95.83 151.4,-93.22 169.08,-91.02"/>
<polygon fill="midnightblue" stroke="midnightblue" points="169.58,-94.48 179.07,-89.78 168.72,-87.54 169.58,-94.48"/>
</g>
<!-- Node3 -->
<g id="node3" class="node">
<title>Node3</title>
<g id="a_node3"><a xlink:href="pdu_8c.html#a81deae4b462b64f7cd6a1371efec07a7" target="_top" xlink:title=" ">
<polygon fill="white" stroke="black" points="461.5,-152.5 461.5,-171.5 554.5,-171.5 554.5,-152.5 461.5,-152.5"/>
<text text-anchor="middle" x="508" y="-159.5" font-family="Helvetica,sans-Serif" font-size="10.00">check_repeatable</text>
</a>
</g>
</g>
<!-- Node2&#45;&gt;Node3 -->
<g id="edge2" class="edge">
<title>Node2&#45;&gt;Node3</title>
<path fill="none" stroke="midnightblue" d="M255.97,-133.5C272.83,-136.86 292.25,-140.44 310,-143 357.55,-149.86 411.93,-154.9 451.49,-158.05"/>
<polygon fill="midnightblue" stroke="midnightblue" points="451.23,-161.54 461.47,-158.83 451.78,-154.56 451.23,-161.54"/>
</g>
<!-- Node4 -->
<g id="node4" class="node">
<title>Node4</title>
<g id="a_node4"><a xlink:href="group__opt__filter.html#gac766f0e78b5ef3ffc8c67d993c6ca8b6" target="_top" xlink:title="Retrieves the first option of number number from pdu.">
<polygon fill="white" stroke="black" points="310,-228.5 310,-247.5 411,-247.5 411,-228.5 310,-228.5"/>
<text text-anchor="middle" x="360.5" y="-235.5" font-family="Helvetica,sans-Serif" font-size="10.00">coap_check_option</text>
</a>
</g>
</g>
<!-- Node2&#45;&gt;Node4 -->
<g id="edge3" class="edge">
<title>Node2&#45;&gt;Node4</title>
<path fill="none" stroke="midnightblue" d="M223.86,-133.52C249.26,-153.09 307.56,-197.99 338.81,-222.06"/>
<polygon fill="midnightblue" stroke="midnightblue" points="336.8,-224.93 346.86,-228.26 341.07,-219.39 336.8,-224.93"/>
</g>
<!-- Node16 -->
<g id="node16" class="node">
<title>Node16</title>
<g id="a_node16"><a xlink:href="group__pdu__internal.html#ga24f3c35d834ec06d051a05a2572efb62" target="_top" xlink:title="Inserts option of given number in the pdu with the appropriate data.">
<polygon fill="white" stroke="black" points="311.5,-114.5 311.5,-133.5 409.5,-133.5 409.5,-114.5 311.5,-114.5"/>
<text text-anchor="middle" x="360.5" y="-121.5" font-family="Helvetica,sans-Serif" font-size="10.00">coap_insert_option</text>
</a>
</g>
</g>
<!-- Node2&#45;&gt;Node16 -->
<g id="edge16" class="edge">
<title>Node2&#45;&gt;Node16</title>
<path fill="none" stroke="midnightblue" d="M274.27,-117.32C283.21,-117.21 292.38,-117.23 301.24,-117.39"/>
<polygon fill="midnightblue" stroke="midnightblue" points="301.38,-120.89 311.46,-117.63 301.55,-113.89 301.38,-120.89"/>
</g>
<!-- Node17 -->
<g id="node17" class="node">
<title>Node17</title>
<g id="a_node17"><a xlink:href="group__opt__filter.html#ga358cb455deaefca1b1234298f018c9ab" target="_top" xlink:title="Encodes option with given delta into opt.">
<polygon fill="white" stroke="black" points="461.5,-76.5 461.5,-95.5 554.5,-95.5 554.5,-76.5 461.5,-76.5"/>
<text text-anchor="middle" x="508" y="-83.5" font-family="Helvetica,sans-Serif" font-size="10.00">coap_opt_encode</text>
</a>
</g>
</g>
<!-- Node2&#45;&gt;Node17 -->
<g id="edge27" class="edge">
<title>Node2&#45;&gt;Node17</title>
<path fill="none" stroke="midnightblue" d="M255.97,-114.5C272.83,-111.14 292.25,-107.56 310,-105 357.55,-98.14 411.93,-93.1 451.49,-89.95"/>
<polygon fill="midnightblue" stroke="midnightblue" points="451.78,-93.44 461.47,-89.17 451.23,-86.46 451.78,-93.44"/>
</g>
<!-- Node19 -->
<g id="node19" class="node">
<title>Node19</title>
<g id="a_node19"><a xlink:href="group__opt__filter.html#ga55f19454026048e906139d575feddecb" target="_top" xlink:title="Compute storage bytes needed for an option with given delta and length.">
<polygon fill="white" stroke="black" points="450,-38.5 450,-57.5 566,-57.5 566,-38.5 450,-38.5"/>
<text text-anchor="middle" x="508" y="-45.5" font-family="Helvetica,sans-Serif" font-size="10.00">coap_opt_encode_size</text>
</a>
</g>
</g>
<!-- Node2&#45;&gt;Node19 -->
<g id="edge28" class="edge">
<title>Node2&#45;&gt;Node19</title>
<path fill="none" stroke="midnightblue" d="M245.49,-114.5C254.81,-111.67 264.86,-108.41 274,-105 290.41,-98.89 293.33,-94.37 310,-89 352.27,-75.38 401.15,-65.17 439.64,-58.35"/>
<polygon fill="midnightblue" stroke="midnightblue" points="440.44,-61.77 449.7,-56.61 439.25,-54.87 440.44,-61.77"/>
</g>
<!-- Node20 -->
<g id="node20" class="node">
<title>Node20</title>
<g id="a_node20"><a xlink:href="group__pdu__internal.html#gad741bcd3525c8d24389e4604c1cacb50" target="_top" xlink:title="Dynamically grows the size of pdu to new_size if needed.">
<polygon fill="white" stroke="black" points="447,-0.5 447,-19.5 569,-19.5 569,-0.5 447,-0.5"/>
<text text-anchor="middle" x="508" y="-7.5" font-family="Helvetica,sans-Serif" font-size="10.00">coap_pdu_check_resize</text>
</a>
</g>
</g>
<!-- Node2&#45;&gt;Node20 -->
<g id="edge29" class="edge">
<title>Node2&#45;&gt;Node20</title>
<path fill="none" stroke="midnightblue" d="M255.08,-114.48C261.73,-111.99 268.27,-108.88 274,-105 295.2,-90.63 288.47,-73.87 310,-60 347.79,-35.65 396.76,-23.16 436.43,-16.74"/>
<polygon fill="midnightblue" stroke="midnightblue" points="437.2,-20.17 446.56,-15.2 436.15,-13.25 437.2,-20.17"/>
</g>
<!-- Node5 -->
<g id="node5" class="node">
<title>Node5</title>
<g id="a_node5"><a xlink:href="group__opt__filter.html#gab32cbf963c82364063041e5c84ca279a" target="_top" xlink:title="Clears filter filter.">
<polygon fill="white" stroke="black" points="461.5,-305 461.5,-335 554.5,-335 554.5,-305 461.5,-305"/>
<text text-anchor="start" x="469.5" y="-323" font-family="Helvetica,sans-Serif" font-size="10.00">coap_option_filter</text>
<text text-anchor="middle" x="508" y="-312" font-family="Helvetica,sans-Serif" font-size="10.00">_clear</text>
</a>
</g>
</g>
<!-- Node4&#45;&gt;Node5 -->
<g id="edge4" class="edge">
<title>Node4&#45;&gt;Node5</title>
<path fill="none" stroke="midnightblue" d="M376.41,-247.59C393.3,-258.32 421.76,-276.05 447,-290 453.16,-293.41 459.76,-296.88 466.25,-300.19"/>
<polygon fill="midnightblue" stroke="midnightblue" points="465.1,-303.53 475.6,-304.91 468.25,-297.28 465.1,-303.53"/>
</g>
<!-- Node6 -->
<g id="node6" class="node">
<title>Node6</title>
<g id="a_node6"><a xlink:href="group__opt__filter.html#gafdbe6036d408220bbfa6eb2d7bd2443f" target="_top" xlink:title="Sets the corresponding entry for number in filter.">
<polygon fill="white" stroke="black" points="605,-266.5 605,-285.5 717,-285.5 717,-266.5 605,-266.5"/>
<text text-anchor="middle" x="661" y="-273.5" font-family="Helvetica,sans-Serif" font-size="10.00">coap_option_filter_set</text>
</a>
</g>
</g>
<!-- Node4&#45;&gt;Node6 -->
<g id="edge5" class="edge">
<title>Node4&#45;&gt;Node6</title>
<path fill="none" stroke="midnightblue" d="M399.6,-247.58C414.33,-250.99 431.37,-254.58 447,-257 496.14,-264.62 552.18,-269.47 594.44,-272.36"/>
<polygon fill="midnightblue" stroke="midnightblue" points="594.39,-275.86 604.6,-273.03 594.85,-268.88 594.39,-275.86"/>
</g>
<!-- Node11 -->
<g id="node11" class="node">
<title>Node11</title>
<g id="a_node11"><a xlink:href="group__opt__filter.html#ga46d7817d055728114b3c62499426b25c" target="_top" xlink:title="Initializes the given option iterator oi to point to the beginning of the pdu&#39;s option list.">
<polygon fill="white" stroke="black" points="447,-190.5 447,-209.5 569,-209.5 569,-190.5 447,-190.5"/>
<text text-anchor="middle" x="508" y="-197.5" font-family="Helvetica,sans-Serif" font-size="10.00">coap_option_iterator_init</text>
</a>
</g>
</g>
<!-- Node4&#45;&gt;Node11 -->
<g id="edge10" class="edge">
<title>Node4&#45;&gt;Node11</title>
<path fill="none" stroke="midnightblue" d="M398.22,-228.41C417.16,-223.46 440.46,-217.38 460.63,-212.11"/>
<polygon fill="midnightblue" stroke="midnightblue" points="461.76,-215.43 470.55,-209.52 459.99,-208.66 461.76,-215.43"/>
</g>
<!-- Node12 -->
<g id="node12" class="node">
<title>Node12</title>
<g id="a_node12"><a xlink:href="group__opt__filter.html#ga19d4dbbc03ef362996964fbfdd1d4c7b" target="_top" xlink:title="Updates the iterator oi to point to the next option.">
<polygon fill="white" stroke="black" points="461.5,-228.5 461.5,-247.5 554.5,-247.5 554.5,-228.5 461.5,-228.5"/>
<text text-anchor="middle" x="508" y="-235.5" font-family="Helvetica,sans-Serif" font-size="10.00">coap_option_next</text>
</a>
</g>
</g>
<!-- Node4&#45;&gt;Node12 -->
<g id="edge11" class="edge">
<title>Node4&#45;&gt;Node12</title>
<path fill="none" stroke="midnightblue" d="M411.17,-238C424.03,-238 437.96,-238 451.12,-238"/>
<polygon fill="midnightblue" stroke="midnightblue" points="451.47,-241.5 461.47,-238 451.47,-234.5 451.47,-241.5"/>
</g>
<!-- Node7 -->
<g id="node7" class="node">
<title>Node7</title>
<g id="a_node7"><a xlink:href="coap__option_8c.html#ab87ea79da1603a15ac624388a335bba6" target="_top" xlink:title="Applies op on filter with respect to number.">
<polygon fill="white" stroke="black" points="753,-247.5 753,-266.5 862,-266.5 862,-247.5 753,-247.5"/>
<text text-anchor="middle" x="807.5" y="-254.5" font-family="Helvetica,sans-Serif" font-size="10.00">coap_option_filter_op</text>
</a>
</g>
</g>
<!-- Node6&#45;&gt;Node7 -->
<g id="edge6" class="edge">
<title>Node6&#45;&gt;Node7</title>
<path fill="none" stroke="midnightblue" d="M717.04,-268.76C725.41,-267.66 734.11,-266.52 742.65,-265.4"/>
<polygon fill="midnightblue" stroke="midnightblue" points="743.11,-268.87 752.57,-264.09 742.2,-261.93 743.11,-268.87"/>
</g>
<!-- Node8 -->
<g id="node8" class="node">
<title>Node8</title>
<g id="a_node8"><a xlink:href="encode_8c.html#a671b4261b2d24de8696258a8efb0f359" target="_top" xlink:title=" ">
<polygon fill="white" stroke="black" points="911,-266.5 911,-285.5 964,-285.5 964,-266.5 911,-266.5"/>
<text text-anchor="middle" x="937.5" y="-273.5" font-family="Helvetica,sans-Serif" font-size="10.00">coap_fls</text>
</a>
</g>
</g>
<!-- Node7&#45;&gt;Node8 -->
<g id="edge7" class="edge">
<title>Node7&#45;&gt;Node8</title>
<path fill="none" stroke="midnightblue" d="M862.04,-264.95C875.08,-266.88 888.71,-268.91 900.69,-270.68"/>
<polygon fill="midnightblue" stroke="midnightblue" points="900.33,-274.17 910.74,-272.18 901.36,-267.25 900.33,-274.17"/>
</g>
<!-- Node10 -->
<g id="node10" class="node">
<title>Node10</title>
<g id="a_node10"><a xlink:href="coap__option_8c.html#ad65a9bd8fcfb4ba4270819e6f87f5bcf" target="_top" xlink:title="Returns true iff number denotes an option number larger than 255.">
<polygon fill="white" stroke="black" points="898,-228.5 898,-247.5 977,-247.5 977,-228.5 898,-228.5"/>
<text text-anchor="middle" x="937.5" y="-235.5" font-family="Helvetica,sans-Serif" font-size="10.00">is_long_option</text>
</a>
</g>
</g>
<!-- Node7&#45;&gt;Node10 -->
<g id="edge9" class="edge">
<title>Node7&#45;&gt;Node10</title>
<path fill="none" stroke="midnightblue" d="M862.04,-249.05C870.61,-247.78 879.44,-246.47 887.89,-245.22"/>
<polygon fill="midnightblue" stroke="midnightblue" points="888.59,-248.65 897.97,-243.72 887.56,-241.73 888.59,-248.65"/>
</g>
<!-- Node9 -->
<g id="node9" class="node">
<title>Node9</title>
<g id="a_node9"><a xlink:href="encode_8c.html#a5732d87decbffe771159ea02a5e25488" target="_top" xlink:title=" ">
<polygon fill="white" stroke="black" points="1013,-266.5 1013,-285.5 1071,-285.5 1071,-266.5 1013,-266.5"/>
<text text-anchor="middle" x="1042" y="-273.5" font-family="Helvetica,sans-Serif" font-size="10.00">coap_flsll</text>
</a>
</g>
</g>
<!-- Node8&#45;&gt;Node9 -->
<g id="edge8" class="edge">
<title>Node8&#45;&gt;Node9</title>
<path fill="none" stroke="midnightblue" d="M964.1,-276C975.8,-276 989.9,-276 1002.81,-276"/>
<polygon fill="midnightblue" stroke="midnightblue" points="1002.84,-279.5 1012.84,-276 1002.84,-272.5 1002.84,-279.5"/>
</g>
<!-- Node13 -->
<g id="node13" class="node">
<title>Node13</title>
<g id="a_node13"><a xlink:href="coap__option_8c.html#a11de99f50cc9f5a34fd9e4d121ecfd13" target="_top" xlink:title="Parses the option pointed to by opt into result.">
<polygon fill="white" stroke="black" points="618,-133.5 618,-152.5 704,-152.5 704,-133.5 618,-133.5"/>
<text text-anchor="middle" x="661" y="-140.5" font-family="Helvetica,sans-Serif" font-size="10.00">coap_opt_parse</text>
</a>
</g>
</g>
<!-- Node12&#45;&gt;Node13 -->
<g id="edge12" class="edge">
<title>Node12&#45;&gt;Node13</title>
<path fill="none" stroke="midnightblue" d="M548.99,-228.46C555.94,-225.94 562.89,-222.83 569,-219 588.72,-206.65 587.33,-196.14 605,-181 614.58,-172.79 625.94,-164.7 635.85,-158.11"/>
<polygon fill="midnightblue" stroke="midnightblue" points="637.97,-160.9 644.44,-152.52 634.15,-155.04 637.97,-160.9"/>
</g>
<!-- Node14 -->
<g id="node14" class="node">
<title>Node14</title>
<g id="a_node14"><a xlink:href="group__opt__filter.html#gaecbb0b2fe1f6244aa6121d019070704b" target="_top" xlink:title="Checks if number is contained in filter.">
<polygon fill="white" stroke="black" points="605,-228.5 605,-247.5 717,-247.5 717,-228.5 605,-228.5"/>
<text text-anchor="middle" x="661" y="-235.5" font-family="Helvetica,sans-Serif" font-size="10.00">coap_option_filter_get</text>
</a>
</g>
</g>
<!-- Node12&#45;&gt;Node14 -->
<g id="edge13" class="edge">
<title>Node12&#45;&gt;Node14</title>
<path fill="none" stroke="midnightblue" d="M554.71,-238C567.3,-238 581.21,-238 594.67,-238"/>
<polygon fill="midnightblue" stroke="midnightblue" points="594.86,-241.5 604.86,-238 594.86,-234.5 594.86,-241.5"/>
</g>
<!-- Node15 -->
<g id="node15" class="node">
<title>Node15</title>
<g id="a_node15"><a xlink:href="coap__option_8c.html#a70fa9db0450134640b80cbf7c3720688" target="_top" xlink:title=" ">
<polygon fill="white" stroke="black" points="626.5,-190.5 626.5,-209.5 695.5,-209.5 695.5,-190.5 626.5,-190.5"/>
<text text-anchor="middle" x="661" y="-197.5" font-family="Helvetica,sans-Serif" font-size="10.00">opt_finished</text>
</a>
</g>
</g>
<!-- Node12&#45;&gt;Node15 -->
<g id="edge15" class="edge">
<title>Node12&#45;&gt;Node15</title>
<path fill="none" stroke="midnightblue" d="M547.1,-228.41C568.24,-223.09 594.61,-216.46 616.55,-210.93"/>
<polygon fill="midnightblue" stroke="midnightblue" points="617.44,-214.32 626.28,-208.49 615.73,-207.53 617.44,-214.32"/>
</g>
<!-- Node14&#45;&gt;Node7 -->
<g id="edge14" class="edge">
<title>Node14&#45;&gt;Node7</title>
<path fill="none" stroke="midnightblue" d="M717.04,-245.24C725.41,-246.34 734.11,-247.48 742.65,-248.6"/>
<polygon fill="midnightblue" stroke="midnightblue" points="742.2,-252.07 752.57,-249.91 743.11,-245.13 742.2,-252.07"/>
</g>
<!-- Node16&#45;&gt;Node2 -->
<g id="edge18" class="edge">
<title>Node16&#45;&gt;Node2</title>
<path fill="none" stroke="midnightblue" d="M311.46,-130.37C302.84,-130.63 293.68,-130.76 284.54,-130.75"/>
<polygon fill="midnightblue" stroke="midnightblue" points="284.29,-127.25 274.27,-130.68 284.24,-134.25 284.29,-127.25"/>
</g>
<!-- Node16&#45;&gt;Node3 -->
<g id="edge17" class="edge">
<title>Node16&#45;&gt;Node3</title>
<path fill="none" stroke="midnightblue" d="M398.22,-133.59C417.16,-138.54 440.46,-144.62 460.63,-149.89"/>
<polygon fill="midnightblue" stroke="midnightblue" points="459.99,-153.34 470.55,-152.48 461.76,-146.57 459.99,-153.34"/>
</g>
<!-- Node16&#45;&gt;Node11 -->
<g id="edge23" class="edge">
<title>Node16&#45;&gt;Node11</title>
<path fill="none" stroke="midnightblue" d="M373.58,-133.67C389.57,-146.07 419.01,-167.57 447,-181 451.62,-183.22 456.57,-185.26 461.56,-187.12"/>
<polygon fill="midnightblue" stroke="midnightblue" points="460.55,-190.47 471.14,-190.46 462.85,-183.86 460.55,-190.47"/>
</g>
<!-- Node16&#45;&gt;Node12 -->
<g id="edge24" class="edge">
<title>Node16&#45;&gt;Node12</title>
<path fill="none" stroke="midnightblue" d="M367.55,-133.62C380.06,-152.71 410.63,-195.57 447,-219 450.17,-221.04 453.58,-222.88 457.1,-224.53"/>
<polygon fill="midnightblue" stroke="midnightblue" points="456.03,-227.88 466.61,-228.48 458.71,-221.41 456.03,-227.88"/>
</g>
<!-- Node16&#45;&gt;Node13 -->
<g id="edge22" class="edge">
<title>Node16&#45;&gt;Node13</title>
<path fill="none" stroke="midnightblue" d="M409.79,-127.07C464,-130.52 551.67,-136.1 607.53,-139.66"/>
<polygon fill="midnightblue" stroke="midnightblue" points="607.38,-143.16 617.58,-140.3 607.82,-136.17 607.38,-143.16"/>
</g>
<!-- Node16&#45;&gt;Node17 -->
<g id="edge19" class="edge">
<title>Node16&#45;&gt;Node17</title>
<path fill="none" stroke="midnightblue" d="M398.22,-114.41C417.16,-109.46 440.46,-103.38 460.63,-98.11"/>
<polygon fill="midnightblue" stroke="midnightblue" points="461.76,-101.43 470.55,-95.52 459.99,-94.66 461.76,-101.43"/>
</g>
<!-- Node16&#45;&gt;Node19 -->
<g id="edge21" class="edge">
<title>Node16&#45;&gt;Node19</title>
<path fill="none" stroke="midnightblue" d="M373.58,-114.33C389.57,-101.93 419.01,-80.43 447,-67 451.62,-64.78 456.57,-62.74 461.56,-60.88"/>
<polygon fill="midnightblue" stroke="midnightblue" points="462.85,-64.14 471.14,-57.54 460.55,-57.53 462.85,-64.14"/>
</g>
<!-- Node16&#45;&gt;Node20 -->
<g id="edge25" class="edge">
<title>Node16&#45;&gt;Node20</title>
<path fill="none" stroke="midnightblue" d="M367.55,-114.38C380.06,-95.29 410.63,-52.43 447,-29 450.17,-26.96 453.58,-25.12 457.1,-23.47"/>
<polygon fill="midnightblue" stroke="midnightblue" points="458.71,-26.59 466.61,-19.52 456.03,-20.12 458.71,-26.59"/>
</g>
<!-- Node18 -->
<g id="node18" class="node">
<title>Node18</title>
<g id="a_node18"><a xlink:href="group__opt__filter.html#gafebbd04a7895df694a9345dad0275aeb" target="_top" xlink:title="Encodes the given delta and length values into opt.">
<polygon fill="white" stroke="black" points="609,-76.5 609,-95.5 713,-95.5 713,-76.5 609,-76.5"/>
<text text-anchor="middle" x="661" y="-83.5" font-family="Helvetica,sans-Serif" font-size="10.00">coap_opt_setheader</text>
</a>
</g>
</g>
<!-- Node17&#45;&gt;Node18 -->
<g id="edge20" class="edge">
<title>Node17&#45;&gt;Node18</title>
<path fill="none" stroke="midnightblue" d="M554.71,-86C568.61,-86 584.11,-86 598.84,-86"/>
<polygon fill="midnightblue" stroke="midnightblue" points="598.9,-89.5 608.9,-86 598.9,-82.5 598.9,-89.5"/>
</g>
<!-- Node21 -->
<g id="node21" class="node">
<title>Node21</title>
<g id="a_node21"><a xlink:href="group__pdu__internal.html#gadd46ce956878a4121e8887b84c6d4a6b" target="_top" xlink:title="Dynamically grows the size of pdu to new_size.">
<polygon fill="white" stroke="black" points="616,-0.5 616,-19.5 706,-19.5 706,-0.5 616,-0.5"/>
<text text-anchor="middle" x="661" y="-7.5" font-family="Helvetica,sans-Serif" font-size="10.00">coap_pdu_resize</text>
</a>
</g>
</g>
<!-- Node20&#45;&gt;Node21 -->
<g id="edge26" class="edge">
<title>Node20&#45;&gt;Node21</title>
<path fill="none" stroke="midnightblue" d="M569.11,-10C581.2,-10 593.83,-10 605.71,-10"/>
<polygon fill="midnightblue" stroke="midnightblue" points="605.91,-13.5 615.91,-10 605.91,-6.5 605.91,-13.5"/>
</g>
</g>
</svg>
        <g id="navigator" transform="translate(0 0)" fill="#404254">
                <rect fill="#f2f5e9" fill-opacity="0.5" stroke="#606060" stroke-width=".5" x="0" y="0" width="60" height="60"/>
                <use id="zoomplus" xlink:href="#zoomPlus" x="17" y="9" onmousedown="handleZoom(evt,'in')"/>
                <use id="zoomminus" xlink:href="#zoomMin" x="42" y="9" onmousedown="handleZoom(evt,'out')"/>
                <use id="reset" xlink:href="#resetDef" x="30" y="36" onmousedown="handleReset()"/>
                <g id="arrowUp" xlink:href="#dirArrow" transform="translate(30 24)" onmousedown="handlePan(0,-1)">
                  <use xlink:href="#rim" fill="#404040">
                        <set attributeName="fill" to="#808080" begin="arrowUp.mouseover" end="arrowUp.mouseout"/>
                  </use>
                  <path fill="none" stroke="white" stroke-width="1.5" d="M0,-3.0v7 M-2.5,-0.5L0,-3.0L2.5,-0.5"/>
                </g>
                <g id="arrowRight" xlink:href="#dirArrow" transform="rotate(90) translate(36 -43)" onmousedown="handlePan(1,0)">
                  <use xlink:href="#rim" fill="#404040">
                        <set attributeName="fill" to="#808080" begin="arrowRight.mouseover" end="arrowRight.mouseout"/>
                  </use>
                  <path fill="none" stroke="white" stroke-width="1.5" d="M0,-3.0v7 M-2.5,-0.5L0,-3.0L2.5,-0.5"/>
                </g>
                <g id="arrowDown" xlink:href="#dirArrow" transform="rotate(180) translate(-30 -48)" onmousedown="handlePan(0,1)">
                  <use xlink:href="#rim" fill="#404040">
                        <set attributeName="fill" to="#808080" begin="arrowDown.mouseover" end="arrowDown.mouseout"/>
                  </use>
                  <path fill="none" stroke="white" stroke-width="1.5" d="M0,-3.0v7 M-2.5,-0.5L0,-3.0L2.5,-0.5"/>
                </g>
                <g id="arrowLeft" xlink:href="#dirArrow" transform="rotate(270) translate(-36 17)" onmousedown="handlePan(-1,0)">
                  <use xlink:href="#rim" fill="#404040">
                        <set attributeName="fill" to="#808080" begin="arrowLeft.mouseover" end="arrowLeft.mouseout"/>
                  </use>
                  <path fill="none" stroke="white" stroke-width="1.5" d="M0,-3.0v7 M-2.5,-0.5L0,-3.0L2.5,-0.5"/>
                </g>
        </g>
        <svg viewBox="0 0 15 15" width="100%" height="30px" preserveAspectRatio="xMaxYMin meet">
         <g id="arrow_out" transform="scale(0.3 0.3)">
          <a xlink:href="group__opt__filter_gaac21dee6a4689d2000017e4b95564a2a_cgraph_org.svg" target="_base">
           <rect id="button" ry="5" rx="5" y="6" x="6" height="38" width="38"
                fill="#f2f5e9" fill-opacity="0.5" stroke="#606060" stroke-width="1.0"/>
           <path id="arrow"
             d="M 11.500037,31.436501 C 11.940474,20.09759 22.043105,11.32322 32.158766,21.979434 L 37.068811,17.246167 C 37.068811,17.246167 37.088388,32 37.088388,32 L 22.160133,31.978069 C 22.160133,31.978069 26.997745,27.140456 26.997745,27.140456 C 18.528582,18.264221 13.291696,25.230495 11.500037,31.436501 z"
             style="fill:#404040;"/>
          </a>
         </g>
        </svg>
</svg>
