<?xml version="1.0" encoding="UTF-8" standalone="no"?>
<!DOCTYPE svg PUBLIC "-//W3C//DTD SVG 1.1//EN"
 "http://www.w3.org/Graphics/SVG/1.1/DTD/svg11.dtd">
<!-- Generated by graphviz version 2.43.0 (0)
 -->
<!-- Title: asn1_tag_c Pages: 1 -->
<svg width="186pt" height="46pt"
 viewBox="0.00 0.00 186.00 46.00" xmlns="http://www.w3.org/2000/svg" xmlns:xlink="http://www.w3.org/1999/xlink">
<g id="graph0" class="graph" transform="scale(1 1) rotate(0) translate(4 42)">
<title>asn1_tag_c</title>
<polygon fill="white" stroke="transparent" points="-4,4 -4,-42 182,-42 182,4 -4,4"/>
<!-- Node1 -->
<g id="node1" class="node">
<title>Node1</title>
<g id="a_node1"><a xlink:title="Get the asn1 tag from the current ptr.">
<polygon fill="#bfbfbf" stroke="black" points="111,-0.5 111,-19.5 178,-19.5 178,-0.5 111,-0.5"/>
<text text-anchor="middle" x="144.5" y="-7.5" font-family="Helvetica,sans-Serif" font-size="10.00">asn1_tag_c</text>
</a>
</g>
</g>
<!-- Node2 -->
<g id="node2" class="node">
<title>Node2</title>
<g id="a_node2"><a xlink:href="group__asn1.html#ga2651414d8dfa01e3dca3ca076730bdfd" target="_top" xlink:title="Get the asn1 tag and data from the current ptr.">
<polygon fill="white" stroke="black" points="0,-0.5 0,-19.5 75,-19.5 75,-0.5 0,-0.5"/>
<text text-anchor="middle" x="37.5" y="-7.5" font-family="Helvetica,sans-Serif" font-size="10.00">get_asn1_tag</text>
</a>
</g>
</g>
<!-- Node1&#45;&gt;Node2 -->
<g id="edge1" class="edge">
<title>Node1&#45;&gt;Node2</title>
<path fill="none" stroke="midnightblue" d="M100.74,-10C92.25,-10 83.42,-10 75.15,-10"/>
<polygon fill="midnightblue" stroke="midnightblue" points="100.85,-13.5 110.85,-10 100.85,-6.5 100.85,-13.5"/>
</g>
<!-- Node2&#45;&gt;Node2 -->
<g id="edge2" class="edge">
<title>Node2&#45;&gt;Node2</title>
<path fill="none" stroke="midnightblue" d="M57.13,-29.4C55.82,-34.31 49.27,-38 37.5,-38 18.66,-38 13.21,-28.57 21.16,-19.76"/>
<polygon fill="midnightblue" stroke="midnightblue" points="60.38,-28.09 53.84,-19.76 53.76,-30.35 60.38,-28.09"/>
</g>
</g>
</svg>
