<?xml version="1.0" encoding="UTF-8" standalone="no"?>
<!DOCTYPE svg PUBLIC "-//W3C//DTD SVG 1.1//EN"
 "http://www.w3.org/Graphics/SVG/1.1/DTD/svg11.dtd">
<!-- Generated by graphviz version 2.43.0 (0)
 -->
<!-- Title: coap_update_option Pages: 1 -->
<!--zoomable 328 -->
<svg id="main" version="1.1" xmlns="http://www.w3.org/2000/svg" xmlns:xlink="http://www.w3.org/1999/xlink" xml:space="preserve" onload="init(evt)">
<style type="text/css"><![CDATA[
.edge:hover path { stroke: red; }
.edge:hover polygon { stroke: red; fill: red; }
]]></style>
<script type="text/javascript"><![CDATA[
var edges = document.getElementsByTagName('g');
if (edges && edges.length) {
  for (var i=0;i<edges.length;i++) {
    if (edges[i].id.substr(0,4)=='edge') {
      edges[i].setAttribute('class','edge');
    }
  }
}
]]></script>
        <defs>
                <circle id="rim" cx="0" cy="0" r="7"/>
                <circle id="rim2" cx="0" cy="0" r="3.5"/>
                <g id="zoomPlus">
                        <use xlink:href="#rim" fill="#404040">
                                <set attributeName="fill" to="#808080" begin="zoomplus.mouseover" end="zoomplus.mouseout"/>
                        </use>
                        <path d="M-4,0h8M0,-4v8" fill="none" stroke="white" stroke-width="1.5" pointer-events="none"/>
                </g>
                <g id="zoomMin">
                        <use xlink:href="#rim" fill="#404040">
                                <set attributeName="fill" to="#808080" begin="zoomminus.mouseover" end="zoomminus.mouseout"/>
                        </use>
                        <path d="M-4,0h8" fill="none" stroke="white" stroke-width="1.5" pointer-events="none"/>
                </g>
                <g id="dirArrow">
                        <path fill="none" stroke="white" stroke-width="1.5" d="M0,-3.0v7 M-2.5,-0.5L0,-3.0L2.5,-0.5"/>
                </g>
               <g id="resetDef">
                       <use xlink:href="#rim2" fill="#404040">
                               <set attributeName="fill" to="#808080" begin="reset.mouseover" end="reset.mouseout"/>
                       </use>
               </g>
        </defs>

<script type="text/javascript">
var viewWidth = 2184;
var viewHeight = 328;
var sectionId = 'dynsection-18';
</script>
<script xlink:href="svgpan.js"/>
<svg id="graph" class="graph">
<g id="viewport">
<title>coap_update_option</title>
<polygon fill="white" stroke="transparent" points="-4,4 -4,-324 2180,-324 2180,4 -4,4"/>
<!-- Node1 -->
<g id="node1" class="node">
<title>Node1</title>
<g id="a_node1"><a xlink:title="Updates existing first option of given number in the pdu with the new data.">
<polygon fill="#bfbfbf" stroke="black" points="2072,-148.5 2072,-167.5 2176,-167.5 2176,-148.5 2072,-148.5"/>
<text text-anchor="middle" x="2124" y="-155.5" font-family="Helvetica,sans-Serif" font-size="10.00">coap_update_option</text>
</a>
</g>
</g>
<!-- Node2 -->
<g id="node2" class="node">
<title>Node2</title>
<g id="a_node2"><a xlink:href="block_8c.html#a4d4d27db5bb7929f8f55fe8a3dfeea8b" target="_top" xlink:title=" ">
<polygon fill="white" stroke="black" points="1920.5,-206 1920.5,-236 2029.5,-236 2029.5,-206 1920.5,-206"/>
<text text-anchor="start" x="1928.5" y="-224" font-family="Helvetica,sans-Serif" font-size="10.00">coap_add_data_large</text>
<text text-anchor="middle" x="1975" y="-213" font-family="Helvetica,sans-Serif" font-size="10.00">_internal</text>
</a>
</g>
</g>
<!-- Node1&#45;&gt;Node2 -->
<g id="edge1" class="edge">
<title>Node1&#45;&gt;Node2</title>
<path fill="none" stroke="midnightblue" d="M2092,-171.69C2075.42,-178.98 2054.63,-188.05 2036,-196 2028.42,-199.23 2020.29,-202.66 2012.53,-205.9"/>
<polygon fill="midnightblue" stroke="midnightblue" points="2093.49,-174.86 2101.23,-167.63 2090.67,-168.45 2093.49,-174.86"/>
</g>
<!-- Node3 -->
<g id="node3" class="node">
<title>Node3</title>
<g id="a_node3"><a xlink:href="group__context__internal.html#ga7d1802ed0aab8ba0b1e00f81c15869bd" target="_top" xlink:title="Sends a CoAP message to given peer.">
<polygon fill="white" stroke="black" points="1924.5,-167.5 1924.5,-186.5 2025.5,-186.5 2025.5,-167.5 1924.5,-167.5"/>
<text text-anchor="middle" x="1975" y="-174.5" font-family="Helvetica,sans-Serif" font-size="10.00">coap_send_internal</text>
</a>
</g>
</g>
<!-- Node1&#45;&gt;Node3 -->
<g id="edge2" class="edge">
<title>Node1&#45;&gt;Node3</title>
<path fill="none" stroke="midnightblue" d="M2062.04,-165.88C2050.01,-167.43 2037.53,-169.05 2025.92,-170.55"/>
<polygon fill="midnightblue" stroke="midnightblue" points="2062.53,-169.35 2072,-164.59 2061.63,-162.4 2062.53,-169.35"/>
</g>
<!-- Node31 -->
<g id="node31" class="node">
<title>Node31</title>
<g id="a_node31"><a xlink:href="group__block.html#ga6e5de6865934ed03e6d150c95acfdc97" target="_top" xlink:title="Writes a block option of type number to message pdu.">
<polygon fill="white" stroke="black" points="1914,-129.5 1914,-148.5 2036,-148.5 2036,-129.5 1914,-129.5"/>
<text text-anchor="middle" x="1975" y="-136.5" font-family="Helvetica,sans-Serif" font-size="10.00">coap_write_block_b_opt</text>
</a>
</g>
</g>
<!-- Node1&#45;&gt;Node31 -->
<g id="edge43" class="edge">
<title>Node1&#45;&gt;Node31</title>
<path fill="none" stroke="midnightblue" d="M2062.04,-150.12C2053.43,-149.01 2044.59,-147.87 2036.01,-146.76"/>
<polygon fill="midnightblue" stroke="midnightblue" points="2061.63,-153.6 2072,-151.41 2062.53,-146.65 2061.63,-153.6"/>
</g>
<!-- Node32 -->
<g id="node32" class="node">
<title>Node32</title>
<g id="a_node32"><a xlink:href="group__block.html#gae1451ec6a5dcc209ed79d6e571fb42fc" target="_top" xlink:title="Writes a block option of type number to message pdu.">
<polygon fill="white" stroke="black" points="1919.5,-69.5 1919.5,-88.5 2030.5,-88.5 2030.5,-69.5 1919.5,-69.5"/>
<text text-anchor="middle" x="1975" y="-76.5" font-family="Helvetica,sans-Serif" font-size="10.00">coap_write_block_opt</text>
</a>
</g>
</g>
<!-- Node1&#45;&gt;Node32 -->
<g id="edge44" class="edge">
<title>Node1&#45;&gt;Node32</title>
<path fill="none" stroke="midnightblue" d="M2096.28,-143.64C2066.54,-127.66 2019.33,-102.28 1993.79,-88.56"/>
<polygon fill="midnightblue" stroke="midnightblue" points="2094.8,-146.82 2105.27,-148.47 2098.12,-140.65 2094.8,-146.82"/>
</g>
<!-- Node4 -->
<g id="node4" class="node">
<title>Node4</title>
<g id="a_node4"><a xlink:href="group__context__internal.html#ga7bb944fc52f772655356d95724317401" target="_top" xlink:title="Dispatches the PDUs from the receive queue in given context.">
<polygon fill="white" stroke="black" points="1504,-75.5 1504,-94.5 1584,-94.5 1584,-75.5 1504,-75.5"/>
<text text-anchor="middle" x="1544" y="-82.5" font-family="Helvetica,sans-Serif" font-size="10.00">coap_dispatch</text>
</a>
</g>
</g>
<!-- Node3&#45;&gt;Node4 -->
<g id="edge3" class="edge">
<title>Node3&#45;&gt;Node4</title>
<path fill="none" stroke="midnightblue" d="M1914.08,-179.73C1841.89,-180.98 1718.08,-176.53 1620,-139 1593.63,-128.91 1568.07,-107.17 1554.67,-94.57"/>
<polygon fill="midnightblue" stroke="midnightblue" points="1914.43,-183.23 1924.35,-179.51 1914.28,-176.23 1914.43,-183.23"/>
</g>
<!-- Node20 -->
<g id="node20" class="node">
<title>Node20</title>
<g id="a_node20"><a xlink:href="group__context.html#gaeadf53fc0202c2a9c881406d4aa12a4c" target="_top" xlink:title="Sends a CoAP message to given peer.">
<polygon fill="white" stroke="black" points="1779.5,-300.5 1779.5,-319.5 1843.5,-319.5 1843.5,-300.5 1779.5,-300.5"/>
<text text-anchor="middle" x="1811.5" y="-307.5" font-family="Helvetica,sans-Serif" font-size="10.00">coap_send</text>
</a>
</g>
</g>
<!-- Node3&#45;&gt;Node20 -->
<g id="edge24" class="edge">
<title>Node3&#45;&gt;Node20</title>
<path fill="none" stroke="midnightblue" d="M1920.93,-191.51C1918.45,-193.15 1916.12,-194.97 1914,-197 1881.68,-227.93 1910.93,-260.71 1878,-291 1868.68,-299.58 1855.7,-304.3 1843.76,-306.9"/>
<polygon fill="midnightblue" stroke="midnightblue" points="1922.73,-194.51 1929.8,-186.62 1919.35,-188.38 1922.73,-194.51"/>
</g>
<!-- Node21 -->
<g id="node21" class="node">
<title>Node21</title>
<g id="a_node21"><a xlink:href="group__context.html#ga059557785c3f40b683269ba4090203e8" target="_top" xlink:title="Sends an ACK message with code 0 for the specified request to dst.">
<polygon fill="white" stroke="black" points="1769,-262.5 1769,-281.5 1854,-281.5 1854,-262.5 1769,-262.5"/>
<text text-anchor="middle" x="1811.5" y="-269.5" font-family="Helvetica,sans-Serif" font-size="10.00">coap_send_ack</text>
</a>
</g>
</g>
<!-- Node3&#45;&gt;Node21 -->
<g id="edge25" class="edge">
<title>Node3&#45;&gt;Node21</title>
<path fill="none" stroke="midnightblue" d="M1923.54,-190.87C1920.17,-192.67 1916.95,-194.71 1914,-197 1890.64,-215.16 1901.72,-235.31 1878,-253 1870.98,-258.24 1862.54,-262.04 1854.1,-264.79"/>
<polygon fill="midnightblue" stroke="midnightblue" points="1925.14,-193.98 1932.74,-186.6 1922.19,-187.64 1925.14,-193.98"/>
</g>
<!-- Node22 -->
<g id="node22" class="node">
<title>Node22</title>
<g id="a_node22"><a xlink:href="group__context.html#ga95c41b8af7a987b4e376db0a70370006" target="_top" xlink:title="Sends an error response with code code for request request to dst.">
<polygon fill="white" stroke="black" points="1767,-224.5 1767,-243.5 1856,-243.5 1856,-224.5 1767,-224.5"/>
<text text-anchor="middle" x="1811.5" y="-231.5" font-family="Helvetica,sans-Serif" font-size="10.00">coap_send_error</text>
</a>
</g>
</g>
<!-- Node3&#45;&gt;Node22 -->
<g id="edge26" class="edge">
<title>Node3&#45;&gt;Node22</title>
<path fill="none" stroke="midnightblue" d="M1935.44,-189.68C1928.3,-192.08 1920.91,-194.59 1914,-197 1906.65,-199.56 1866.15,-214.36 1838.59,-224.45"/>
<polygon fill="midnightblue" stroke="midnightblue" points="1936.58,-192.99 1944.95,-186.5 1934.36,-186.35 1936.58,-192.99"/>
</g>
<!-- Node23 -->
<g id="node23" class="node">
<title>Node23</title>
<g id="a_node23"><a xlink:href="group__context.html#ga8f46c87e4908ae0ee8c9a0e3e15f8f4a" target="_top" xlink:title="Helper function to create and send a message with type (usually ACK or RST).">
<polygon fill="white" stroke="black" points="1745,-72.5 1745,-91.5 1878,-91.5 1878,-72.5 1745,-72.5"/>
<text text-anchor="middle" x="1811.5" y="-79.5" font-family="Helvetica,sans-Serif" font-size="10.00">coap_send_message_type</text>
</a>
</g>
</g>
<!-- Node3&#45;&gt;Node23 -->
<g id="edge27" class="edge">
<title>Node3&#45;&gt;Node23</title>
<path fill="none" stroke="midnightblue" d="M1922.44,-163.27C1919.48,-161.7 1916.64,-159.95 1914,-158 1891.39,-141.3 1900.24,-123.19 1878,-106 1869.95,-99.78 1860.13,-95.05 1850.57,-91.52"/>
<polygon fill="midnightblue" stroke="midnightblue" points="1921.07,-166.49 1931.62,-167.49 1923.99,-160.13 1921.07,-166.49"/>
</g>
<!-- Node25 -->
<g id="node25" class="node">
<title>Node25</title>
<g id="a_node25"><a xlink:href="coap__session_8c.html#a1aeb41a0f4f9a70e4ff5f58cdae96b5a" target="_top" xlink:title="Send a ping message for the session.">
<polygon fill="white" stroke="black" points="1342,-186.5 1342,-205.5 1468,-205.5 1468,-186.5 1342,-186.5"/>
<text text-anchor="middle" x="1405" y="-193.5" font-family="Helvetica,sans-Serif" font-size="10.00">coap_session_send_ping</text>
</a>
</g>
</g>
<!-- Node3&#45;&gt;Node25 -->
<g id="edge32" class="edge">
<title>Node3&#45;&gt;Node25</title>
<path fill="none" stroke="midnightblue" d="M1913.89,-180.34C1902,-180.94 1889.61,-181.53 1878,-182 1731.17,-188 1558.55,-192.46 1468.24,-194.6"/>
<polygon fill="midnightblue" stroke="midnightblue" points="1914.38,-183.82 1924.18,-179.81 1914.02,-176.83 1914.38,-183.82"/>
</g>
<!-- Node30 -->
<g id="node30" class="node">
<title>Node30</title>
<g id="a_node30"><a xlink:href="net_8c.html#ac4cbcfd073489b57805db665ce3d0681" target="_top" xlink:title=" ">
<polygon fill="white" stroke="black" points="1620,-110.5 1620,-129.5 1709,-129.5 1709,-110.5 1620,-110.5"/>
<text text-anchor="middle" x="1664.5" y="-117.5" font-family="Helvetica,sans-Serif" font-size="10.00">handle_signaling</text>
</a>
</g>
</g>
<!-- Node3&#45;&gt;Node30 -->
<g id="edge41" class="edge">
<title>Node3&#45;&gt;Node30</title>
<path fill="none" stroke="midnightblue" d="M1932.7,-164.31C1926.41,-162.26 1920.02,-160.12 1914,-158 1897.81,-152.29 1894.67,-148.11 1878,-144 1820.68,-129.87 1752.59,-124.04 1709.22,-121.64"/>
<polygon fill="midnightblue" stroke="midnightblue" points="1931.83,-167.7 1942.42,-167.42 1933.97,-161.04 1931.83,-167.7"/>
</g>
<!-- Node5 -->
<g id="node5" class="node">
<title>Node5</title>
<g id="a_node5"><a xlink:href="group__context__internal.html#gae6b8ca457dd41f23372f9e9a7159312b" target="_top" xlink:title="Parses and interprets a CoAP datagram with context ctx.">
<polygon fill="white" stroke="black" points="1353,-34.5 1353,-53.5 1457,-53.5 1457,-34.5 1353,-34.5"/>
<text text-anchor="middle" x="1405" y="-41.5" font-family="Helvetica,sans-Serif" font-size="10.00">coap_handle_dgram</text>
</a>
</g>
</g>
<!-- Node4&#45;&gt;Node5 -->
<g id="edge4" class="edge">
<title>Node4&#45;&gt;Node5</title>
<path fill="none" stroke="midnightblue" d="M1501.57,-72.6C1481.2,-66.5 1457.02,-59.27 1438.08,-53.6"/>
<polygon fill="midnightblue" stroke="midnightblue" points="1500.64,-75.98 1511.23,-75.49 1502.65,-69.27 1500.64,-75.98"/>
</g>
<!-- Node7 -->
<g id="node7" class="node">
<title>Node7</title>
<g id="a_node7"><a xlink:href="net_8c.html#acd36f6fba6d30ab9557e0e6521f4a088" target="_top" xlink:title=" ">
<polygon fill="white" stroke="black" points="1043,-78.5 1043,-97.5 1144,-97.5 1144,-78.5 1043,-78.5"/>
<text text-anchor="middle" x="1093.5" y="-85.5" font-family="Helvetica,sans-Serif" font-size="10.00">coap_read_session</text>
</a>
</g>
</g>
<!-- Node4&#45;&gt;Node7 -->
<g id="edge23" class="edge">
<title>Node4&#45;&gt;Node7</title>
<path fill="none" stroke="midnightblue" d="M1493.95,-85.33C1407.91,-85.9 1230.69,-87.09 1144.19,-87.67"/>
<polygon fill="midnightblue" stroke="midnightblue" points="1494.01,-88.83 1503.98,-85.26 1493.96,-81.83 1494.01,-88.83"/>
</g>
<!-- Node6 -->
<g id="node6" class="node">
<title>Node6</title>
<g id="a_node6"><a xlink:href="net_8c.html#a8534f7860b14e0743529daff196a27ce" target="_top" xlink:title=" ">
<polygon fill="white" stroke="black" points="1186,-29 1186,-59 1306,-59 1306,-29 1186,-29"/>
<text text-anchor="start" x="1194" y="-47" font-family="Helvetica,sans-Serif" font-size="10.00">coap_handle_dgram_for</text>
<text text-anchor="middle" x="1246" y="-36" font-family="Helvetica,sans-Serif" font-size="10.00">_proto</text>
</a>
</g>
</g>
<!-- Node5&#45;&gt;Node6 -->
<g id="edge5" class="edge">
<title>Node5&#45;&gt;Node6</title>
<path fill="none" stroke="midnightblue" d="M1342.3,-44C1330.41,-44 1317.97,-44 1306.15,-44"/>
<polygon fill="midnightblue" stroke="midnightblue" points="1342.59,-47.5 1352.59,-44 1342.59,-40.5 1342.59,-47.5"/>
</g>
<!-- Node6&#45;&gt;Node7 -->
<g id="edge6" class="edge">
<title>Node6&#45;&gt;Node7</title>
<path fill="none" stroke="midnightblue" d="M1183.94,-61.85C1164.55,-67.52 1143.86,-73.57 1127.26,-78.42"/>
<polygon fill="midnightblue" stroke="midnightblue" points="1185.01,-65.18 1193.63,-59.02 1183.05,-58.47 1185.01,-65.18"/>
</g>
<!-- Node8 -->
<g id="node8" class="node">
<title>Node8</title>
<g id="a_node8"><a xlink:href="group__app__io__internal.html#ga503f851fa137eb8a9c2936e2098c5eb9" target="_top" xlink:title="Process all the epoll events.">
<polygon fill="white" stroke="black" points="909,-154.5 909,-173.5 1001,-173.5 1001,-154.5 909,-154.5"/>
<text text-anchor="middle" x="955" y="-161.5" font-family="Helvetica,sans-Serif" font-size="10.00">coap_io_do_epoll</text>
</a>
</g>
</g>
<!-- Node7&#45;&gt;Node8 -->
<g id="edge7" class="edge">
<title>Node7&#45;&gt;Node8</title>
<path fill="none" stroke="midnightblue" d="M1069.95,-103.45C1051.78,-115.54 1025.34,-132.38 1001,-145 994.53,-148.36 987.32,-151.6 980.61,-154.43"/>
<polygon fill="midnightblue" stroke="midnightblue" points="1072.3,-106.08 1078.64,-97.6 1068.39,-100.27 1072.3,-106.08"/>
</g>
<!-- Node17 -->
<g id="node17" class="node">
<title>Node17</title>
<g id="a_node17"><a xlink:href="group__app__io__internal.html#ga2208802b0711ad20df07271b751b41dc" target="_top" xlink:title="Processes any outstanding read, write, accept or connect I/O as indicated in the coap_socket_t struct...">
<polygon fill="white" stroke="black" points="915.5,-78.5 915.5,-97.5 994.5,-97.5 994.5,-78.5 915.5,-78.5"/>
<text text-anchor="middle" x="955" y="-85.5" font-family="Helvetica,sans-Serif" font-size="10.00">coap_io_do_io</text>
</a>
</g>
</g>
<!-- Node7&#45;&gt;Node17 -->
<g id="edge18" class="edge">
<title>Node7&#45;&gt;Node17</title>
<path fill="none" stroke="midnightblue" d="M1032.64,-88C1019.78,-88 1006.52,-88 994.72,-88"/>
<polygon fill="midnightblue" stroke="midnightblue" points="1032.83,-91.5 1042.83,-88 1032.83,-84.5 1032.83,-91.5"/>
</g>
<!-- Node9 -->
<g id="node9" class="node">
<title>Node9</title>
<g id="a_node9"><a xlink:href="group__app__io.html#ga2758ed5fdd6ce79ec95ea8dbf72a5644" target="_top" xlink:title="The main message processing loop with additional fds for internal select.">
<polygon fill="white" stroke="black" points="741,-154.5 741,-173.5 873,-173.5 873,-154.5 741,-154.5"/>
<text text-anchor="middle" x="807" y="-161.5" font-family="Helvetica,sans-Serif" font-size="10.00">coap_io_process_with_fds</text>
</a>
</g>
</g>
<!-- Node8&#45;&gt;Node9 -->
<g id="edge8" class="edge">
<title>Node8&#45;&gt;Node9</title>
<path fill="none" stroke="midnightblue" d="M898.38,-164C890.15,-164 881.6,-164 873.2,-164"/>
<polygon fill="midnightblue" stroke="midnightblue" points="898.61,-167.5 908.61,-164 898.6,-160.5 898.61,-167.5"/>
</g>
<!-- Node10 -->
<g id="node10" class="node">
<title>Node10</title>
<g id="a_node10"><a xlink:href="group__app__io.html#ga082f7bbf15d3f37c31c2a0a5e78ea4cf" target="_top" xlink:title="The main I/O processing function.">
<polygon fill="white" stroke="black" points="615,-154.5 615,-173.5 705,-173.5 705,-154.5 615,-154.5"/>
<text text-anchor="middle" x="660" y="-161.5" font-family="Helvetica,sans-Serif" font-size="10.00">coap_io_process</text>
</a>
</g>
</g>
<!-- Node9&#45;&gt;Node10 -->
<g id="edge9" class="edge">
<title>Node9&#45;&gt;Node10</title>
<path fill="none" stroke="midnightblue" d="M730.53,-157.26C721.85,-157.28 713.23,-157.44 705.17,-157.73"/>
<polygon fill="midnightblue" stroke="midnightblue" points="730.7,-160.76 740.71,-157.28 730.72,-153.76 730.7,-160.76"/>
</g>
<!-- Node10&#45;&gt;Node9 -->
<g id="edge16" class="edge">
<title>Node10&#45;&gt;Node9</title>
<path fill="none" stroke="midnightblue" d="M715.41,-170.56C723.67,-170.74 732.25,-170.79 740.71,-170.72"/>
<polygon fill="midnightblue" stroke="midnightblue" points="715.26,-167.05 705.17,-170.27 715.07,-174.05 715.26,-167.05"/>
</g>
<!-- Node11 -->
<g id="node11" class="node">
<title>Node11</title>
<g id="a_node11"><a xlink:href="group__context__internal.html#ga5d013d40174c7c217b24bf624f9d7310" target="_top" xlink:title="Delay the sending of the first client request until some other negotiation has completed.">
<polygon fill="white" stroke="black" points="463,-154.5 463,-173.5 579,-173.5 579,-154.5 463,-154.5"/>
<text text-anchor="middle" x="521" y="-161.5" font-family="Helvetica,sans-Serif" font-size="10.00">coap_client_delay_first</text>
</a>
</g>
</g>
<!-- Node10&#45;&gt;Node11 -->
<g id="edge10" class="edge">
<title>Node10&#45;&gt;Node11</title>
<path fill="none" stroke="midnightblue" d="M604.77,-164C596.31,-164 587.55,-164 579.04,-164"/>
<polygon fill="midnightblue" stroke="midnightblue" points="604.9,-167.5 614.9,-164 604.9,-160.5 604.9,-167.5"/>
</g>
<!-- Node16 -->
<g id="node16" class="node">
<title>Node16</title>
<g id="a_node16"><a xlink:href="net_8h.html#ac6b34aa979ec545eb710e45a26c98fc1" target="_top" xlink:title=" ">
<polygon fill="white" stroke="black" points="479.5,-116.5 479.5,-135.5 562.5,-135.5 562.5,-116.5 479.5,-116.5"/>
<text text-anchor="middle" x="521" y="-123.5" font-family="Helvetica,sans-Serif" font-size="10.00">coap_run_once</text>
</a>
</g>
</g>
<!-- Node10&#45;&gt;Node16 -->
<g id="edge17" class="edge">
<title>Node10&#45;&gt;Node16</title>
<path fill="none" stroke="midnightblue" d="M614.59,-151.68C595.77,-146.46 574.16,-140.47 556.56,-135.59"/>
<polygon fill="midnightblue" stroke="midnightblue" points="613.86,-155.11 624.43,-154.41 615.73,-148.37 613.86,-155.11"/>
</g>
<!-- Node12 -->
<g id="node12" class="node">
<title>Node12</title>
<g id="a_node12"><a xlink:href="group__session.html#ga4368ee622c681bf7cf0b7cfe99c8ab37" target="_top" xlink:title="Get maximum acceptable PDU size.">
<polygon fill="white" stroke="black" points="282,-72.5 282,-91.5 427,-91.5 427,-72.5 282,-72.5"/>
<text text-anchor="middle" x="354.5" y="-79.5" font-family="Helvetica,sans-Serif" font-size="10.00">coap_session_max_pdu_size</text>
</a>
</g>
</g>
<!-- Node11&#45;&gt;Node12 -->
<g id="edge11" class="edge">
<title>Node11&#45;&gt;Node12</title>
<path fill="none" stroke="midnightblue" d="M477.89,-151.07C472.81,-149.19 467.75,-147.15 463,-145 427.94,-129.09 389.66,-104.85 369.59,-91.55"/>
<polygon fill="midnightblue" stroke="midnightblue" points="477,-154.47 487.59,-154.5 479.33,-147.87 477,-154.47"/>
</g>
<!-- Node12&#45;&gt;Node5 -->
<g id="edge12" class="edge">
<title>Node12&#45;&gt;Node5</title>
<path fill="none" stroke="midnightblue" d="M385.2,-68.35C438.73,-45.02 555.46,0 659,0 1094.5,0 1094.5,0 1094.5,0 1188.88,0 1212.98,-3.06 1306,-19 1328.33,-22.83 1353.04,-29.14 1372.06,-34.47"/>
<polygon fill="midnightblue" stroke="midnightblue" points="383.69,-65.19 375.96,-72.43 386.52,-71.59 383.69,-65.19"/>
</g>
<!-- Node13 -->
<g id="node13" class="node">
<title>Node13</title>
<g id="a_node13"><a xlink:href="group__pdu.html#ga6ab63e25c7c9eed3de00b0e1153b33b6" target="_top" xlink:title="Creates a new CoAP PDU.">
<polygon fill="white" stroke="black" points="153.5,-91.5 153.5,-110.5 235.5,-110.5 235.5,-91.5 153.5,-91.5"/>
<text text-anchor="middle" x="194.5" y="-98.5" font-family="Helvetica,sans-Serif" font-size="10.00">coap_new_pdu</text>
</a>
</g>
</g>
<!-- Node12&#45;&gt;Node13 -->
<g id="edge13" class="edge">
<title>Node12&#45;&gt;Node13</title>
<path fill="none" stroke="midnightblue" d="M271.84,-91.82C259.3,-93.33 246.85,-94.83 235.75,-96.16"/>
<polygon fill="midnightblue" stroke="midnightblue" points="272.39,-95.28 281.9,-90.61 271.55,-88.33 272.39,-95.28"/>
</g>
<!-- Node14 -->
<g id="node14" class="node">
<title>Node14</title>
<g id="a_node14"><a xlink:href="group__pdu.html#gabf10450d37381b133fb780480b4fca1b" target="_top" xlink:title="Duplicate an existing PDU.">
<polygon fill="white" stroke="black" points="143,-53.5 143,-72.5 246,-72.5 246,-53.5 143,-53.5"/>
<text text-anchor="middle" x="194.5" y="-60.5" font-family="Helvetica,sans-Serif" font-size="10.00">coap_pdu_duplicate</text>
</a>
</g>
</g>
<!-- Node12&#45;&gt;Node14 -->
<g id="edge14" class="edge">
<title>Node12&#45;&gt;Node14</title>
<path fill="none" stroke="midnightblue" d="M271.95,-72.19C263.14,-71.13 254.38,-70.08 246.09,-69.08"/>
<polygon fill="midnightblue" stroke="midnightblue" points="271.55,-75.67 281.9,-73.39 272.39,-68.72 271.55,-75.67"/>
</g>
<!-- Node15 -->
<g id="node15" class="node">
<title>Node15</title>
<g id="a_node15"><a xlink:href="group__coap__async.html#ga14b20d8c5bf07bdda9f8bc6777540a84" target="_top" xlink:title="Allocates a new coap_async_t object and fills its fields according to the given request.">
<polygon fill="white" stroke="black" points="0,-53.5 0,-72.5 107,-72.5 107,-53.5 0,-53.5"/>
<text text-anchor="middle" x="53.5" y="-60.5" font-family="Helvetica,sans-Serif" font-size="10.00">coap_register_async</text>
</a>
</g>
</g>
<!-- Node14&#45;&gt;Node15 -->
<g id="edge15" class="edge">
<title>Node14&#45;&gt;Node15</title>
<path fill="none" stroke="midnightblue" d="M132.67,-63C124.16,-63 115.48,-63 107.14,-63"/>
<polygon fill="midnightblue" stroke="midnightblue" points="132.92,-66.5 142.92,-63 132.92,-59.5 132.92,-66.5"/>
</g>
<!-- Node17&#45;&gt;Node9 -->
<g id="edge19" class="edge">
<title>Node17&#45;&gt;Node9</title>
<path fill="none" stroke="midnightblue" d="M920.75,-101.53C916.76,-103.3 912.77,-105.15 909,-107 878.1,-122.18 843.41,-142.51 823.79,-154.34"/>
<polygon fill="midnightblue" stroke="midnightblue" points="922.16,-104.74 929.95,-97.56 919.38,-98.31 922.16,-104.74"/>
</g>
<!-- Node18 -->
<g id="node18" class="node">
<title>Node18</title>
<g id="a_node18"><a xlink:href="net_8h.html#af937985e2b14a287a849663574d59bcb" target="_top" xlink:title=" ">
<polygon fill="white" stroke="black" points="776,-78.5 776,-97.5 838,-97.5 838,-78.5 776,-78.5"/>
<text text-anchor="middle" x="807" y="-85.5" font-family="Helvetica,sans-Serif" font-size="10.00">coap_read</text>
</a>
</g>
</g>
<!-- Node17&#45;&gt;Node18 -->
<g id="edge20" class="edge">
<title>Node17&#45;&gt;Node18</title>
<path fill="none" stroke="midnightblue" d="M905.02,-88C882.88,-88 857.41,-88 838.12,-88"/>
<polygon fill="midnightblue" stroke="midnightblue" points="905.26,-91.5 915.26,-88 905.26,-84.5 905.26,-91.5"/>
</g>
<!-- Node19 -->
<g id="node19" class="node">
<title>Node19</title>
<g id="a_node19"><a xlink:href="coap__io__contiki_8c.html#a75a7c93e10ca7858449ba304aad4ea37" target="_top" xlink:title=" ">
<polygon fill="white" stroke="black" points="618.5,-88.5 618.5,-107.5 701.5,-107.5 701.5,-88.5 618.5,-88.5"/>
<text text-anchor="middle" x="660" y="-95.5" font-family="Helvetica,sans-Serif" font-size="10.00">coap_run_once</text>
</a>
</g>
</g>
<!-- Node18&#45;&gt;Node19 -->
<g id="edge21" class="edge">
<title>Node18&#45;&gt;Node19</title>
<path fill="none" stroke="midnightblue" d="M765.92,-90.76C745.94,-92.14 721.81,-93.81 701.73,-95.19"/>
<polygon fill="midnightblue" stroke="midnightblue" points="766.22,-94.25 775.96,-90.07 765.74,-87.27 766.22,-94.25"/>
</g>
<!-- Node19&#45;&gt;Node19 -->
<g id="edge22" class="edge">
<title>Node19&#45;&gt;Node19</title>
<path fill="none" stroke="midnightblue" d="M685.67,-117.03C684.27,-122.13 675.71,-126 660,-126 635.47,-126 628.38,-116.57 638.73,-107.76"/>
<polygon fill="midnightblue" stroke="midnightblue" points="688.72,-115.29 681.27,-107.76 682.39,-118.29 688.72,-115.29"/>
</g>
<!-- Node23&#45;&gt;Node4 -->
<g id="edge28" class="edge">
<title>Node23&#45;&gt;Node4</title>
<path fill="none" stroke="midnightblue" d="M1734.62,-82.86C1685.6,-83.41 1623.84,-84.11 1584.37,-84.56"/>
<polygon fill="midnightblue" stroke="midnightblue" points="1734.91,-86.35 1744.87,-82.74 1734.83,-79.35 1734.91,-86.35"/>
</g>
<!-- Node24 -->
<g id="node24" class="node">
<title>Node24</title>
<g id="a_node24"><a xlink:href="group__context.html#ga7f4dd3326d1d0619a5baa9812bef6906" target="_top" xlink:title="Sends an RST message with code 0 for the specified request to dst.">
<polygon fill="white" stroke="black" points="1624.5,-34.5 1624.5,-53.5 1704.5,-53.5 1704.5,-34.5 1624.5,-34.5"/>
<text text-anchor="middle" x="1664.5" y="-41.5" font-family="Helvetica,sans-Serif" font-size="10.00">coap_send_rst</text>
</a>
</g>
</g>
<!-- Node23&#45;&gt;Node24 -->
<g id="edge29" class="edge">
<title>Node23&#45;&gt;Node24</title>
<path fill="none" stroke="midnightblue" d="M1764.01,-69.82C1743.88,-64.54 1720.66,-58.46 1701.83,-53.52"/>
<polygon fill="midnightblue" stroke="midnightblue" points="1763.35,-73.26 1773.91,-72.41 1765.12,-66.49 1763.35,-73.26"/>
</g>
<!-- Node24&#45;&gt;Node4 -->
<g id="edge30" class="edge">
<title>Node24&#45;&gt;Node4</title>
<path fill="none" stroke="midnightblue" d="M1626.22,-56.9C1608.91,-62.89 1588.68,-69.89 1572.75,-75.4"/>
<polygon fill="midnightblue" stroke="midnightblue" points="1627.71,-60.09 1636.02,-53.51 1625.42,-53.47 1627.71,-60.09"/>
</g>
<!-- Node24&#45;&gt;Node5 -->
<g id="edge31" class="edge">
<title>Node24&#45;&gt;Node5</title>
<path fill="none" stroke="midnightblue" d="M1614.26,-44C1569.17,-44 1502.68,-44 1457.03,-44"/>
<polygon fill="midnightblue" stroke="midnightblue" points="1614.39,-47.5 1624.39,-44 1614.39,-40.5 1614.39,-47.5"/>
</g>
<!-- Node26 -->
<g id="node26" class="node">
<title>Node26</title>
<g id="a_node26"><a xlink:href="group__app__io__internal.html#gaf0cbbb00a6f2f8ac885f0e1575534e34" target="_top" xlink:title="Iterates through all the coap_socket_t structures embedded in endpoints or sessions associated with t...">
<polygon fill="white" stroke="black" points="1195.5,-189.5 1195.5,-208.5 1296.5,-208.5 1296.5,-189.5 1195.5,-189.5"/>
<text text-anchor="middle" x="1246" y="-196.5" font-family="Helvetica,sans-Serif" font-size="10.00">coap_io_prepare_io</text>
</a>
</g>
</g>
<!-- Node25&#45;&gt;Node26 -->
<g id="edge33" class="edge">
<title>Node25&#45;&gt;Node26</title>
<path fill="none" stroke="midnightblue" d="M1331.59,-197.38C1319.72,-197.61 1307.66,-197.84 1296.51,-198.05"/>
<polygon fill="midnightblue" stroke="midnightblue" points="1332.02,-200.88 1341.95,-197.19 1331.88,-193.88 1332.02,-200.88"/>
</g>
<!-- Node29 -->
<g id="node29" class="node">
<title>Node29</title>
<g id="a_node29"><a xlink:href="coap__io__contiki_8c.html#aaac86ac50793f309678e4951ecf8863f" target="_top" xlink:title=" ">
<polygon fill="white" stroke="black" points="923,-116.5 923,-135.5 987,-135.5 987,-116.5 923,-116.5"/>
<text text-anchor="middle" x="955" y="-123.5" font-family="Helvetica,sans-Serif" font-size="10.00">coap_write</text>
</a>
</g>
</g>
<!-- Node25&#45;&gt;Node29 -->
<g id="edge39" class="edge">
<title>Node25&#45;&gt;Node29</title>
<path fill="none" stroke="midnightblue" d="M1353.06,-184.2C1301.97,-172.74 1220.9,-155.56 1150,-145 1092.76,-136.47 1025.43,-130.86 987.03,-128.07"/>
<polygon fill="midnightblue" stroke="midnightblue" points="1352.34,-187.63 1362.87,-186.41 1353.88,-180.8 1352.34,-187.63"/>
</g>
<!-- Node26&#45;&gt;Node9 -->
<g id="edge37" class="edge">
<title>Node26&#45;&gt;Node9</title>
<path fill="none" stroke="midnightblue" d="M1202.18,-211.1C1185.97,-215.1 1167.27,-219.03 1150,-221 1043.25,-233.2 1013.01,-228.96 909,-202 880.71,-194.67 849.39,-182.16 829.24,-173.51"/>
<polygon fill="midnightblue" stroke="midnightblue" points="1203.09,-214.48 1211.91,-208.61 1201.35,-207.69 1203.09,-214.48"/>
</g>
<!-- Node27 -->
<g id="node27" class="node">
<title>Node27</title>
<g id="a_node27"><a xlink:href="group__app__io__internal.html#ga3be92476a2c2c12d68c0cd07795c7e34" target="_top" xlink:title="Any now timed out delayed packet is transmitted, along with any packets associated with requested obs...">
<polygon fill="white" stroke="black" points="1037,-192.5 1037,-211.5 1150,-211.5 1150,-192.5 1037,-192.5"/>
<text text-anchor="middle" x="1093.5" y="-199.5" font-family="Helvetica,sans-Serif" font-size="10.00">coap_io_prepare_epoll</text>
</a>
</g>
</g>
<!-- Node26&#45;&gt;Node27 -->
<g id="edge34" class="edge">
<title>Node26&#45;&gt;Node27</title>
<path fill="none" stroke="midnightblue" d="M1185.28,-200.19C1173.69,-200.42 1161.58,-200.66 1150.12,-200.89"/>
<polygon fill="midnightblue" stroke="midnightblue" points="1185.38,-203.69 1195.3,-199.99 1185.24,-196.69 1185.38,-203.69"/>
</g>
<!-- Node28 -->
<g id="node28" class="node">
<title>Node28</title>
<g id="a_node28"><a xlink:href="net_8h.html#ab54010e3cade80e1417870c87dcd0402" target="_top" xlink:title=" ">
<polygon fill="white" stroke="black" points="1061.5,-154.5 1061.5,-173.5 1125.5,-173.5 1125.5,-154.5 1061.5,-154.5"/>
<text text-anchor="middle" x="1093.5" y="-161.5" font-family="Helvetica,sans-Serif" font-size="10.00">coap_write</text>
</a>
</g>
</g>
<!-- Node26&#45;&gt;Node28 -->
<g id="edge38" class="edge">
<title>Node26&#45;&gt;Node28</title>
<path fill="none" stroke="midnightblue" d="M1194.04,-187.15C1171.32,-181.86 1145.29,-175.81 1125.55,-171.22"/>
<polygon fill="midnightblue" stroke="midnightblue" points="1193.34,-190.58 1203.88,-189.44 1194.93,-183.76 1193.34,-190.58"/>
</g>
<!-- Node27&#45;&gt;Node8 -->
<g id="edge35" class="edge">
<title>Node27&#45;&gt;Node8</title>
<path fill="none" stroke="midnightblue" d="M1048.25,-189.68C1029.5,-184.46 1007.97,-178.47 990.43,-173.59"/>
<polygon fill="midnightblue" stroke="midnightblue" points="1047.48,-193.1 1058.06,-192.41 1049.36,-186.36 1047.48,-193.1"/>
</g>
<!-- Node27&#45;&gt;Node9 -->
<g id="edge36" class="edge">
<title>Node27&#45;&gt;Node9</title>
<path fill="none" stroke="midnightblue" d="M1026.83,-196.53C991.78,-193.27 947.94,-188.67 909,-183 890.99,-180.38 871.3,-176.83 854.12,-173.51"/>
<polygon fill="midnightblue" stroke="midnightblue" points="1026.67,-200.03 1036.95,-197.45 1027.31,-193.06 1026.67,-200.03"/>
</g>
<!-- Node29&#45;&gt;Node19 -->
<g id="edge40" class="edge">
<title>Node29&#45;&gt;Node19</title>
<path fill="none" stroke="midnightblue" d="M912.88,-122.61C869.96,-119.02 800.72,-113.02 741,-107 728.21,-105.71 714.28,-104.18 701.68,-102.76"/>
<polygon fill="midnightblue" stroke="midnightblue" points="912.68,-126.11 922.94,-123.45 913.26,-119.13 912.68,-126.11"/>
</g>
<!-- Node30&#45;&gt;Node4 -->
<g id="edge42" class="edge">
<title>Node30&#45;&gt;Node4</title>
<path fill="none" stroke="midnightblue" d="M1621.38,-107.56C1606.9,-103.28 1590.92,-98.56 1577.34,-94.55"/>
<polygon fill="midnightblue" stroke="midnightblue" points="1620.54,-110.96 1631.12,-110.44 1622.52,-104.25 1620.54,-110.96"/>
</g>
<!-- Node33 -->
<g id="node33" class="node">
<title>Node33</title>
<g id="a_node33"><a xlink:href="group__block.html#ga870799d383b3d3392ca711bd7dce467b" target="_top" xlink:title="Adds the appropriate part of data to the response pdu.">
<polygon fill="white" stroke="black" points="1750.5,-23 1750.5,-53 1872.5,-53 1872.5,-23 1750.5,-23"/>
<text text-anchor="start" x="1758.5" y="-41" font-family="Helvetica,sans-Serif" font-size="10.00">coap_add_data_blocked</text>
<text text-anchor="middle" x="1811.5" y="-30" font-family="Helvetica,sans-Serif" font-size="10.00">_response</text>
</a>
</g>
</g>
<!-- Node32&#45;&gt;Node33 -->
<g id="edge45" class="edge">
<title>Node32&#45;&gt;Node33</title>
<path fill="none" stroke="midnightblue" d="M1926.75,-67C1909.59,-62.65 1889.97,-57.67 1871.89,-53.08"/>
<polygon fill="midnightblue" stroke="midnightblue" points="1925.99,-70.42 1936.54,-69.49 1927.71,-63.64 1925.99,-70.42"/>
</g>
</g>
</svg>
        <g id="navigator" transform="translate(0 0)" fill="#404254">
                <rect fill="#f2f5e9" fill-opacity="0.5" stroke="#606060" stroke-width=".5" x="0" y="0" width="60" height="60"/>
                <use id="zoomplus" xlink:href="#zoomPlus" x="17" y="9" onmousedown="handleZoom(evt,'in')"/>
                <use id="zoomminus" xlink:href="#zoomMin" x="42" y="9" onmousedown="handleZoom(evt,'out')"/>
                <use id="reset" xlink:href="#resetDef" x="30" y="36" onmousedown="handleReset()"/>
                <g id="arrowUp" xlink:href="#dirArrow" transform="translate(30 24)" onmousedown="handlePan(0,-1)">
                  <use xlink:href="#rim" fill="#404040">
                        <set attributeName="fill" to="#808080" begin="arrowUp.mouseover" end="arrowUp.mouseout"/>
                  </use>
                  <path fill="none" stroke="white" stroke-width="1.5" d="M0,-3.0v7 M-2.5,-0.5L0,-3.0L2.5,-0.5"/>
                </g>
                <g id="arrowRight" xlink:href="#dirArrow" transform="rotate(90) translate(36 -43)" onmousedown="handlePan(1,0)">
                  <use xlink:href="#rim" fill="#404040">
                        <set attributeName="fill" to="#808080" begin="arrowRight.mouseover" end="arrowRight.mouseout"/>
                  </use>
                  <path fill="none" stroke="white" stroke-width="1.5" d="M0,-3.0v7 M-2.5,-0.5L0,-3.0L2.5,-0.5"/>
                </g>
                <g id="arrowDown" xlink:href="#dirArrow" transform="rotate(180) translate(-30 -48)" onmousedown="handlePan(0,1)">
                  <use xlink:href="#rim" fill="#404040">
                        <set attributeName="fill" to="#808080" begin="arrowDown.mouseover" end="arrowDown.mouseout"/>
                  </use>
                  <path fill="none" stroke="white" stroke-width="1.5" d="M0,-3.0v7 M-2.5,-0.5L0,-3.0L2.5,-0.5"/>
                </g>
                <g id="arrowLeft" xlink:href="#dirArrow" transform="rotate(270) translate(-36 17)" onmousedown="handlePan(-1,0)">
                  <use xlink:href="#rim" fill="#404040">
                        <set attributeName="fill" to="#808080" begin="arrowLeft.mouseover" end="arrowLeft.mouseout"/>
                  </use>
                  <path fill="none" stroke="white" stroke-width="1.5" d="M0,-3.0v7 M-2.5,-0.5L0,-3.0L2.5,-0.5"/>
                </g>
        </g>
        <svg viewBox="0 0 15 15" width="100%" height="30px" preserveAspectRatio="xMaxYMin meet">
         <g id="arrow_out" transform="scale(0.3 0.3)">
          <a xlink:href="group__pdu__internal_gab46558ad80403bf37b915a8adc15e3f4_icgraph_org.svg" target="_base">
           <rect id="button" ry="5" rx="5" y="6" x="6" height="38" width="38"
                fill="#f2f5e9" fill-opacity="0.5" stroke="#606060" stroke-width="1.0"/>
           <path id="arrow"
             d="M 11.500037,31.436501 C 11.940474,20.09759 22.043105,11.32322 32.158766,21.979434 L 37.068811,17.246167 C 37.068811,17.246167 37.088388,32 37.088388,32 L 22.160133,31.978069 C 22.160133,31.978069 26.997745,27.140456 26.997745,27.140456 C 18.528582,18.264221 13.291696,25.230495 11.500037,31.436501 z"
             style="fill:#404040;"/>
          </a>
         </g>
        </svg>
</svg>
