<?xml version="1.0" encoding="UTF-8" standalone="no"?>
<!DOCTYPE svg PUBLIC "-//W3C//DTD SVG 1.1//EN"
 "http://www.w3.org/Graphics/SVG/1.1/DTD/svg11.dtd">
<!-- Generated by graphviz version 2.43.0 (0)
 -->
<!-- Title: coap_session_set_default_leisure Pages: 1 -->
<svg width="389pt" height="39pt"
 viewBox="0.00 0.00 389.00 39.00" xmlns="http://www.w3.org/2000/svg" xmlns:xlink="http://www.w3.org/1999/xlink">
<g id="graph0" class="graph" transform="scale(1 1) rotate(0) translate(4 35)">
<title>coap_session_set_default_leisure</title>
<polygon fill="white" stroke="transparent" points="-4,4 -4,-35 385,-35 385,4 -4,4"/>
<!-- Node1 -->
<g id="node1" class="node">
<title>Node1</title>
<g id="a_node1"><a xlink:title="Set the CoAP default leisure time (for multicast) RFC7252 DEFAULT_LEISURE.">
<polygon fill="#bfbfbf" stroke="black" points="0,-0.5 0,-30.5 130,-30.5 130,-0.5 0,-0.5"/>
<text text-anchor="start" x="8" y="-18.5" font-family="Helvetica,sans-Serif" font-size="10.00">coap_session_set_default</text>
<text text-anchor="middle" x="65" y="-7.5" font-family="Helvetica,sans-Serif" font-size="10.00">_leisure</text>
</a>
</g>
</g>
<!-- Node2 -->
<g id="node2" class="node">
<title>Node2</title>
<g id="a_node2"><a xlink:href="group__logging.html#gabf09c67f27059ca278900e7e8fdd475e" target="_top" xlink:title="Get session description.">
<polygon fill="white" stroke="black" points="166,-6 166,-25 259,-25 259,-6 166,-6"/>
<text text-anchor="middle" x="212.5" y="-13" font-family="Helvetica,sans-Serif" font-size="10.00">coap_session_str</text>
</a>
</g>
</g>
<!-- Node1&#45;&gt;Node2 -->
<g id="edge1" class="edge">
<title>Node1&#45;&gt;Node2</title>
<path fill="none" stroke="midnightblue" d="M130.24,-15.5C138.79,-15.5 147.5,-15.5 155.89,-15.5"/>
<polygon fill="midnightblue" stroke="midnightblue" points="155.93,-19 165.93,-15.5 155.93,-12 155.93,-19"/>
</g>
<!-- Node3 -->
<g id="node3" class="node">
<title>Node3</title>
<g id="a_node3"><a xlink:href="group__logging.html#ga9e421197c17712bedbec55e42b4493fc" target="_top" xlink:title="Print the address into the defined buffer.">
<polygon fill="white" stroke="black" points="295,-6 295,-25 381,-25 381,-6 295,-6"/>
<text text-anchor="middle" x="338" y="-13" font-family="Helvetica,sans-Serif" font-size="10.00">coap_print_addr</text>
</a>
</g>
</g>
<!-- Node2&#45;&gt;Node3 -->
<g id="edge2" class="edge">
<title>Node2&#45;&gt;Node3</title>
<path fill="none" stroke="midnightblue" d="M259.14,-15.5C267.44,-15.5 276.16,-15.5 284.64,-15.5"/>
<polygon fill="midnightblue" stroke="midnightblue" points="284.82,-19 294.82,-15.5 284.82,-12 284.82,-19"/>
</g>
</g>
</svg>
