<?xml version="1.0" encoding="UTF-8" standalone="no"?>
<!DOCTYPE svg PUBLIC "-//W3C//DTD SVG 1.1//EN"
 "http://www.w3.org/Graphics/SVG/1.1/DTD/svg11.dtd">
<!-- Generated by graphviz version 2.43.0 (0)
 -->
<!-- Title: coap_io_process Pages: 1 -->
<!--zoomable 198 -->
<svg id="main" version="1.1" xmlns="http://www.w3.org/2000/svg" xmlns:xlink="http://www.w3.org/1999/xlink" xml:space="preserve" onload="init(evt)">
<style type="text/css"><![CDATA[
.edge:hover path { stroke: red; }
.edge:hover polygon { stroke: red; fill: red; }
]]></style>
<script type="text/javascript"><![CDATA[
var edges = document.getElementsByTagName('g');
if (edges && edges.length) {
  for (var i=0;i<edges.length;i++) {
    if (edges[i].id.substr(0,4)=='edge') {
      edges[i].setAttribute('class','edge');
    }
  }
}
]]></script>
        <defs>
                <circle id="rim" cx="0" cy="0" r="7"/>
                <circle id="rim2" cx="0" cy="0" r="3.5"/>
                <g id="zoomPlus">
                        <use xlink:href="#rim" fill="#404040">
                                <set attributeName="fill" to="#808080" begin="zoomplus.mouseover" end="zoomplus.mouseout"/>
                        </use>
                        <path d="M-4,0h8M0,-4v8" fill="none" stroke="white" stroke-width="1.5" pointer-events="none"/>
                </g>
                <g id="zoomMin">
                        <use xlink:href="#rim" fill="#404040">
                                <set attributeName="fill" to="#808080" begin="zoomminus.mouseover" end="zoomminus.mouseout"/>
                        </use>
                        <path d="M-4,0h8" fill="none" stroke="white" stroke-width="1.5" pointer-events="none"/>
                </g>
                <g id="dirArrow">
                        <path fill="none" stroke="white" stroke-width="1.5" d="M0,-3.0v7 M-2.5,-0.5L0,-3.0L2.5,-0.5"/>
                </g>
               <g id="resetDef">
                       <use xlink:href="#rim2" fill="#404040">
                               <set attributeName="fill" to="#808080" begin="reset.mouseover" end="reset.mouseout"/>
                       </use>
               </g>
        </defs>

<script type="text/javascript">
var viewWidth = 1279;
var viewHeight = 198;
var sectionId = 'dynsection-2';
</script>
<script xlink:href="svgpan.js"/>
<svg id="graph" class="graph">
<g id="viewport">
<title>coap_io_process</title>
<polygon fill="white" stroke="transparent" points="-4,4 -4,-194 1275,-194 1275,4 -4,4"/>
<!-- Node1 -->
<g id="node1" class="node">
<title>Node1</title>
<g id="a_node1"><a xlink:title="The main I/O processing function.">
<polygon fill="#bfbfbf" stroke="black" points="1181,-47.5 1181,-66.5 1271,-66.5 1271,-47.5 1181,-47.5"/>
<text text-anchor="middle" x="1226" y="-54.5" font-family="Helvetica,sans-Serif" font-size="10.00">coap_io_process</text>
</a>
</g>
</g>
<!-- Node2 -->
<g id="node2" class="node">
<title>Node2</title>
<g id="a_node2"><a xlink:href="group__context__internal.html#ga5d013d40174c7c217b24bf624f9d7310" target="_top" xlink:title="Delay the sending of the first client request until some other negotiation has completed.">
<polygon fill="white" stroke="black" points="1029,-94.5 1029,-113.5 1145,-113.5 1145,-94.5 1029,-94.5"/>
<text text-anchor="middle" x="1087" y="-101.5" font-family="Helvetica,sans-Serif" font-size="10.00">coap_client_delay_first</text>
</a>
</g>
</g>
<!-- Node1&#45;&gt;Node2 -->
<g id="edge1" class="edge">
<title>Node1&#45;&gt;Node2</title>
<path fill="none" stroke="midnightblue" d="M1187.68,-69.8C1165.12,-77.54 1136.83,-87.25 1116.15,-94.34"/>
<polygon fill="midnightblue" stroke="midnightblue" points="1188.95,-73.07 1197.28,-66.51 1186.68,-66.45 1188.95,-73.07"/>
</g>
<!-- Node8 -->
<g id="node8" class="node">
<title>Node8</title>
<g id="a_node8"><a xlink:href="group__app__io.html#ga2758ed5fdd6ce79ec95ea8dbf72a5644" target="_top" xlink:title="The main message processing loop with additional fds for internal select.">
<polygon fill="white" stroke="black" points="119,-71.5 119,-90.5 251,-90.5 251,-71.5 119,-71.5"/>
<text text-anchor="middle" x="185" y="-78.5" font-family="Helvetica,sans-Serif" font-size="10.00">coap_io_process_with_fds</text>
</a>
</g>
</g>
<!-- Node1&#45;&gt;Node8 -->
<g id="edge17" class="edge">
<title>Node1&#45;&gt;Node8</title>
<path fill="none" stroke="midnightblue" d="M1170.65,-50.43C1109.91,-48 1008.67,-48 921.5,-48 921.5,-48 921.5,-48 464.5,-48 373.02,-48 265.26,-61.01 214.8,-71.47"/>
<polygon fill="midnightblue" stroke="midnightblue" points="1170.62,-53.93 1180.77,-50.87 1170.93,-46.94 1170.62,-53.93"/>
</g>
<!-- Node15 -->
<g id="node15" class="node">
<title>Node15</title>
<g id="a_node15"><a xlink:href="net_8h.html#ac6b34aa979ec545eb710e45a26c98fc1" target="_top" xlink:title=" ">
<polygon fill="white" stroke="black" points="1045.5,-0.5 1045.5,-19.5 1128.5,-19.5 1128.5,-0.5 1045.5,-0.5"/>
<text text-anchor="middle" x="1087" y="-7.5" font-family="Helvetica,sans-Serif" font-size="10.00">coap_run_once</text>
</a>
</g>
</g>
<!-- Node1&#45;&gt;Node15 -->
<g id="edge18" class="edge">
<title>Node1&#45;&gt;Node15</title>
<path fill="none" stroke="midnightblue" d="M1187.68,-44.2C1165.12,-36.46 1136.83,-26.75 1116.15,-19.66"/>
<polygon fill="midnightblue" stroke="midnightblue" points="1186.68,-47.55 1197.28,-47.49 1188.95,-40.93 1186.68,-47.55"/>
</g>
<!-- Node3 -->
<g id="node3" class="node">
<title>Node3</title>
<g id="a_node3"><a xlink:href="group__session.html#ga4368ee622c681bf7cf0b7cfe99c8ab37" target="_top" xlink:title="Get maximum acceptable PDU size.">
<polygon fill="white" stroke="black" points="848,-113.5 848,-132.5 993,-132.5 993,-113.5 848,-113.5"/>
<text text-anchor="middle" x="920.5" y="-120.5" font-family="Helvetica,sans-Serif" font-size="10.00">coap_session_max_pdu_size</text>
</a>
</g>
</g>
<!-- Node2&#45;&gt;Node3 -->
<g id="edge2" class="edge">
<title>Node2&#45;&gt;Node3</title>
<path fill="none" stroke="midnightblue" d="M1018.79,-111.76C1010.37,-112.74 1001.74,-113.73 993.25,-114.71"/>
<polygon fill="midnightblue" stroke="midnightblue" points="1019.4,-115.22 1028.93,-110.59 1018.59,-108.26 1019.4,-115.22"/>
</g>
<!-- Node4 -->
<g id="node4" class="node">
<title>Node4</title>
<g id="a_node4"><a xlink:href="group__context__internal.html#gae6b8ca457dd41f23372f9e9a7159312b" target="_top" xlink:title="Parses and interprets a CoAP datagram with context ctx.">
<polygon fill="white" stroke="black" points="708,-170.5 708,-189.5 812,-189.5 812,-170.5 708,-170.5"/>
<text text-anchor="middle" x="760" y="-177.5" font-family="Helvetica,sans-Serif" font-size="10.00">coap_handle_dgram</text>
</a>
</g>
</g>
<!-- Node3&#45;&gt;Node4 -->
<g id="edge3" class="edge">
<title>Node3&#45;&gt;Node4</title>
<path fill="none" stroke="midnightblue" d="M883.55,-135.93C854.39,-146.42 813.93,-160.96 787.62,-170.43"/>
<polygon fill="midnightblue" stroke="midnightblue" points="884.75,-139.22 892.97,-132.54 882.38,-132.63 884.75,-139.22"/>
</g>
<!-- Node12 -->
<g id="node12" class="node">
<title>Node12</title>
<g id="a_node12"><a xlink:href="group__pdu.html#ga6ab63e25c7c9eed3de00b0e1153b33b6" target="_top" xlink:title="Creates a new CoAP PDU.">
<polygon fill="white" stroke="black" points="719,-132.5 719,-151.5 801,-151.5 801,-132.5 719,-132.5"/>
<text text-anchor="middle" x="760" y="-139.5" font-family="Helvetica,sans-Serif" font-size="10.00">coap_new_pdu</text>
</a>
</g>
</g>
<!-- Node3&#45;&gt;Node12 -->
<g id="edge14" class="edge">
<title>Node3&#45;&gt;Node12</title>
<path fill="none" stroke="midnightblue" d="M837.59,-132.82C825,-134.33 812.51,-135.83 801.38,-137.16"/>
<polygon fill="midnightblue" stroke="midnightblue" points="838.16,-136.28 847.67,-131.61 837.32,-129.33 838.16,-136.28"/>
</g>
<!-- Node13 -->
<g id="node13" class="node">
<title>Node13</title>
<g id="a_node13"><a xlink:href="group__pdu.html#gabf10450d37381b133fb780480b4fca1b" target="_top" xlink:title="Duplicate an existing PDU.">
<polygon fill="white" stroke="black" points="708.5,-94.5 708.5,-113.5 811.5,-113.5 811.5,-94.5 708.5,-94.5"/>
<text text-anchor="middle" x="760" y="-101.5" font-family="Helvetica,sans-Serif" font-size="10.00">coap_pdu_duplicate</text>
</a>
</g>
</g>
<!-- Node3&#45;&gt;Node13 -->
<g id="edge15" class="edge">
<title>Node3&#45;&gt;Node13</title>
<path fill="none" stroke="midnightblue" d="M837.7,-113.19C828.86,-112.13 820.06,-111.08 811.75,-110.08"/>
<polygon fill="midnightblue" stroke="midnightblue" points="837.32,-116.67 847.67,-114.39 838.16,-109.72 837.32,-116.67"/>
</g>
<!-- Node5 -->
<g id="node5" class="node">
<title>Node5</title>
<g id="a_node5"><a xlink:href="net_8c.html#a8534f7860b14e0743529daff196a27ce" target="_top" xlink:title=" ">
<polygon fill="white" stroke="black" points="552,-149 552,-179 672,-179 672,-149 552,-149"/>
<text text-anchor="start" x="560" y="-167" font-family="Helvetica,sans-Serif" font-size="10.00">coap_handle_dgram_for</text>
<text text-anchor="middle" x="612" y="-156" font-family="Helvetica,sans-Serif" font-size="10.00">_proto</text>
</a>
</g>
</g>
<!-- Node4&#45;&gt;Node5 -->
<g id="edge4" class="edge">
<title>Node4&#45;&gt;Node5</title>
<path fill="none" stroke="midnightblue" d="M697.99,-173.31C689.4,-172.37 680.59,-171.41 672.04,-170.47"/>
<polygon fill="midnightblue" stroke="midnightblue" points="697.61,-176.79 707.94,-174.4 698.38,-169.84 697.61,-176.79"/>
</g>
<!-- Node6 -->
<g id="node6" class="node">
<title>Node6</title>
<g id="a_node6"><a xlink:href="net_8c.html#acd36f6fba6d30ab9557e0e6521f4a088" target="_top" xlink:title=" ">
<polygon fill="white" stroke="black" points="415,-132.5 415,-151.5 516,-151.5 516,-132.5 415,-132.5"/>
<text text-anchor="middle" x="465.5" y="-139.5" font-family="Helvetica,sans-Serif" font-size="10.00">coap_read_session</text>
</a>
</g>
</g>
<!-- Node5&#45;&gt;Node6 -->
<g id="edge5" class="edge">
<title>Node5&#45;&gt;Node6</title>
<path fill="none" stroke="midnightblue" d="M541.73,-153.45C533.09,-152.14 524.4,-150.82 516.15,-149.56"/>
<polygon fill="midnightblue" stroke="midnightblue" points="541.4,-156.94 551.81,-154.99 542.45,-150.02 541.4,-156.94"/>
</g>
<!-- Node7 -->
<g id="node7" class="node">
<title>Node7</title>
<g id="a_node7"><a xlink:href="group__app__io__internal.html#ga503f851fa137eb8a9c2936e2098c5eb9" target="_top" xlink:title="Process all the epoll events.">
<polygon fill="white" stroke="black" points="287,-94.5 287,-113.5 379,-113.5 379,-94.5 287,-94.5"/>
<text text-anchor="middle" x="333" y="-101.5" font-family="Helvetica,sans-Serif" font-size="10.00">coap_io_do_epoll</text>
</a>
</g>
</g>
<!-- Node6&#45;&gt;Node7 -->
<g id="edge6" class="edge">
<title>Node6&#45;&gt;Node7</title>
<path fill="none" stroke="midnightblue" d="M421.95,-129.61C404.08,-124.41 383.61,-118.45 366.92,-113.59"/>
<polygon fill="midnightblue" stroke="midnightblue" points="420.99,-132.98 431.57,-132.41 422.95,-126.25 420.99,-132.98"/>
</g>
<!-- Node9 -->
<g id="node9" class="node">
<title>Node9</title>
<g id="a_node9"><a xlink:href="group__app__io__internal.html#ga2208802b0711ad20df07271b751b41dc" target="_top" xlink:title="Processes any outstanding read, write, accept or connect I/O as indicated in the coap_socket_t struct...">
<polygon fill="white" stroke="black" points="293.5,-132.5 293.5,-151.5 372.5,-151.5 372.5,-132.5 293.5,-132.5"/>
<text text-anchor="middle" x="333" y="-139.5" font-family="Helvetica,sans-Serif" font-size="10.00">coap_io_do_io</text>
</a>
</g>
</g>
<!-- Node6&#45;&gt;Node9 -->
<g id="edge9" class="edge">
<title>Node6&#45;&gt;Node9</title>
<path fill="none" stroke="midnightblue" d="M404.5,-142C393.66,-142 382.63,-142 372.61,-142"/>
<polygon fill="midnightblue" stroke="midnightblue" points="404.79,-145.5 414.79,-142 404.79,-138.5 404.79,-145.5"/>
</g>
<!-- Node7&#45;&gt;Node8 -->
<g id="edge7" class="edge">
<title>Node7&#45;&gt;Node8</title>
<path fill="none" stroke="midnightblue" d="M276.53,-95.26C266.68,-93.71 256.38,-92.09 246.4,-90.51"/>
<polygon fill="midnightblue" stroke="midnightblue" points="276.18,-98.75 286.61,-96.85 277.27,-91.84 276.18,-98.75"/>
</g>
<!-- Node8&#45;&gt;Node1 -->
<g id="edge8" class="edge">
<title>Node8&#45;&gt;Node1</title>
<path fill="none" stroke="midnightblue" d="M261.32,-78.44C317.27,-73.4 395.51,-66 464.5,-66 921.5,-66 921.5,-66 921.5,-66 1013.71,-66 1121.68,-66 1180.77,-63.13"/>
<polygon fill="midnightblue" stroke="midnightblue" points="260.79,-74.97 251.14,-79.35 261.41,-81.95 260.79,-74.97"/>
</g>
<!-- Node9&#45;&gt;Node8 -->
<g id="edge10" class="edge">
<title>Node9&#45;&gt;Node8</title>
<path fill="none" stroke="midnightblue" d="M299.64,-128.48C272.21,-117.02 233.55,-100.87 209.13,-90.67"/>
<polygon fill="midnightblue" stroke="midnightblue" points="298.61,-131.84 309.19,-132.47 301.31,-125.38 298.61,-131.84"/>
</g>
<!-- Node10 -->
<g id="node10" class="node">
<title>Node10</title>
<g id="a_node10"><a xlink:href="net_8h.html#af937985e2b14a287a849663574d59bcb" target="_top" xlink:title=" ">
<polygon fill="white" stroke="black" points="154,-132.5 154,-151.5 216,-151.5 216,-132.5 154,-132.5"/>
<text text-anchor="middle" x="185" y="-139.5" font-family="Helvetica,sans-Serif" font-size="10.00">coap_read</text>
</a>
</g>
</g>
<!-- Node9&#45;&gt;Node10 -->
<g id="edge11" class="edge">
<title>Node9&#45;&gt;Node10</title>
<path fill="none" stroke="midnightblue" d="M283.02,-142C260.88,-142 235.41,-142 216.12,-142"/>
<polygon fill="midnightblue" stroke="midnightblue" points="283.26,-145.5 293.26,-142 283.26,-138.5 283.26,-145.5"/>
</g>
<!-- Node11 -->
<g id="node11" class="node">
<title>Node11</title>
<g id="a_node11"><a xlink:href="coap__io__contiki_8c.html#a75a7c93e10ca7858449ba304aad4ea37" target="_top" xlink:title=" ">
<polygon fill="white" stroke="black" points="0,-132.5 0,-151.5 83,-151.5 83,-132.5 0,-132.5"/>
<text text-anchor="middle" x="41.5" y="-139.5" font-family="Helvetica,sans-Serif" font-size="10.00">coap_run_once</text>
</a>
</g>
</g>
<!-- Node10&#45;&gt;Node11 -->
<g id="edge12" class="edge">
<title>Node10&#45;&gt;Node11</title>
<path fill="none" stroke="midnightblue" d="M143.87,-142C124.88,-142 102.26,-142 83.2,-142"/>
<polygon fill="midnightblue" stroke="midnightblue" points="143.99,-145.5 153.99,-142 143.99,-138.5 143.99,-145.5"/>
</g>
<!-- Node11&#45;&gt;Node11 -->
<g id="edge13" class="edge">
<title>Node11&#45;&gt;Node11</title>
<path fill="none" stroke="midnightblue" d="M68.01,-160.65C66.9,-165.94 58.06,-170 41.5,-170 16.26,-170 8.97,-160.57 19.61,-151.76"/>
<polygon fill="midnightblue" stroke="midnightblue" points="71.1,-159.02 63.39,-151.76 64.89,-162.24 71.1,-159.02"/>
</g>
<!-- Node14 -->
<g id="node14" class="node">
<title>Node14</title>
<g id="a_node14"><a xlink:href="group__coap__async.html#ga14b20d8c5bf07bdda9f8bc6777540a84" target="_top" xlink:title="Allocates a new coap_async_t object and fills its fields according to the given request.">
<polygon fill="white" stroke="black" points="558.5,-94.5 558.5,-113.5 665.5,-113.5 665.5,-94.5 558.5,-94.5"/>
<text text-anchor="middle" x="612" y="-101.5" font-family="Helvetica,sans-Serif" font-size="10.00">coap_register_async</text>
</a>
</g>
</g>
<!-- Node13&#45;&gt;Node14 -->
<g id="edge16" class="edge">
<title>Node13&#45;&gt;Node14</title>
<path fill="none" stroke="midnightblue" d="M698.12,-104C687.3,-104 676.11,-104 665.55,-104"/>
<polygon fill="midnightblue" stroke="midnightblue" points="698.35,-107.5 708.35,-104 698.35,-100.5 698.35,-107.5"/>
</g>
</g>
</svg>
        <g id="navigator" transform="translate(0 0)" fill="#404254">
                <rect fill="#f2f5e9" fill-opacity="0.5" stroke="#606060" stroke-width=".5" x="0" y="0" width="60" height="60"/>
                <use id="zoomplus" xlink:href="#zoomPlus" x="17" y="9" onmousedown="handleZoom(evt,'in')"/>
                <use id="zoomminus" xlink:href="#zoomMin" x="42" y="9" onmousedown="handleZoom(evt,'out')"/>
                <use id="reset" xlink:href="#resetDef" x="30" y="36" onmousedown="handleReset()"/>
                <g id="arrowUp" xlink:href="#dirArrow" transform="translate(30 24)" onmousedown="handlePan(0,-1)">
                  <use xlink:href="#rim" fill="#404040">
                        <set attributeName="fill" to="#808080" begin="arrowUp.mouseover" end="arrowUp.mouseout"/>
                  </use>
                  <path fill="none" stroke="white" stroke-width="1.5" d="M0,-3.0v7 M-2.5,-0.5L0,-3.0L2.5,-0.5"/>
                </g>
                <g id="arrowRight" xlink:href="#dirArrow" transform="rotate(90) translate(36 -43)" onmousedown="handlePan(1,0)">
                  <use xlink:href="#rim" fill="#404040">
                        <set attributeName="fill" to="#808080" begin="arrowRight.mouseover" end="arrowRight.mouseout"/>
                  </use>
                  <path fill="none" stroke="white" stroke-width="1.5" d="M0,-3.0v7 M-2.5,-0.5L0,-3.0L2.5,-0.5"/>
                </g>
                <g id="arrowDown" xlink:href="#dirArrow" transform="rotate(180) translate(-30 -48)" onmousedown="handlePan(0,1)">
                  <use xlink:href="#rim" fill="#404040">
                        <set attributeName="fill" to="#808080" begin="arrowDown.mouseover" end="arrowDown.mouseout"/>
                  </use>
                  <path fill="none" stroke="white" stroke-width="1.5" d="M0,-3.0v7 M-2.5,-0.5L0,-3.0L2.5,-0.5"/>
                </g>
                <g id="arrowLeft" xlink:href="#dirArrow" transform="rotate(270) translate(-36 17)" onmousedown="handlePan(-1,0)">
                  <use xlink:href="#rim" fill="#404040">
                        <set attributeName="fill" to="#808080" begin="arrowLeft.mouseover" end="arrowLeft.mouseout"/>
                  </use>
                  <path fill="none" stroke="white" stroke-width="1.5" d="M0,-3.0v7 M-2.5,-0.5L0,-3.0L2.5,-0.5"/>
                </g>
        </g>
        <svg viewBox="0 0 15 15" width="100%" height="30px" preserveAspectRatio="xMaxYMin meet">
         <g id="arrow_out" transform="scale(0.3 0.3)">
          <a xlink:href="group__app__io_ga082f7bbf15d3f37c31c2a0a5e78ea4cf_icgraph_org.svg" target="_base">
           <rect id="button" ry="5" rx="5" y="6" x="6" height="38" width="38"
                fill="#f2f5e9" fill-opacity="0.5" stroke="#606060" stroke-width="1.0"/>
           <path id="arrow"
             d="M 11.500037,31.436501 C 11.940474,20.09759 22.043105,11.32322 32.158766,21.979434 L 37.068811,17.246167 C 37.068811,17.246167 37.088388,32 37.088388,32 L 22.160133,31.978069 C 22.160133,31.978069 26.997745,27.140456 26.997745,27.140456 C 18.528582,18.264221 13.291696,25.230495 11.500037,31.436501 z"
             style="fill:#404040;"/>
          </a>
         </g>
        </svg>
</svg>
