<?xml version="1.0" encoding="UTF-8" standalone="no"?>
<!DOCTYPE svg PUBLIC "-//W3C//DTD SVG 1.1//EN"
 "http://www.w3.org/Graphics/SVG/1.1/DTD/svg11.dtd">
<!-- Generated by graphviz version 2.43.0 (0)
 -->
<!-- Title: coap_handle_dgram_for_proto Pages: 1 -->
<svg width="1303pt" height="122pt"
 viewBox="0.00 0.00 1303.00 122.00" xmlns="http://www.w3.org/2000/svg" xmlns:xlink="http://www.w3.org/1999/xlink">
<g id="graph0" class="graph" transform="scale(1 1) rotate(0) translate(4 118)">
<title>coap_handle_dgram_for_proto</title>
<polygon fill="white" stroke="transparent" points="-4,4 -4,-118 1299,-118 1299,4 -4,4"/>
<!-- Node1 -->
<g id="node1" class="node">
<title>Node1</title>
<g id="a_node1"><a xlink:title=" ">
<polygon fill="#bfbfbf" stroke="black" points="1175,-14 1175,-44 1295,-44 1295,-14 1175,-14"/>
<text text-anchor="start" x="1183" y="-32" font-family="Helvetica,sans-Serif" font-size="10.00">coap_handle_dgram_for</text>
<text text-anchor="middle" x="1235" y="-21" font-family="Helvetica,sans-Serif" font-size="10.00">_proto</text>
</a>
</g>
</g>
<!-- Node2 -->
<g id="node2" class="node">
<title>Node2</title>
<g id="a_node2"><a xlink:href="net_8c.html#acd36f6fba6d30ab9557e0e6521f4a088" target="_top" xlink:title=" ">
<polygon fill="white" stroke="black" points="1038,-38.5 1038,-57.5 1139,-57.5 1139,-38.5 1038,-38.5"/>
<text text-anchor="middle" x="1088.5" y="-45.5" font-family="Helvetica,sans-Serif" font-size="10.00">coap_read_session</text>
</a>
</g>
</g>
<!-- Node1&#45;&gt;Node2 -->
<g id="edge1" class="edge">
<title>Node1&#45;&gt;Node2</title>
<path fill="none" stroke="midnightblue" d="M1164.73,-38.11C1156.09,-39.24 1147.4,-40.39 1139.15,-41.47"/>
<polygon fill="midnightblue" stroke="midnightblue" points="1165.35,-41.56 1174.81,-36.78 1164.44,-34.62 1165.35,-41.56"/>
</g>
<!-- Node3 -->
<g id="node3" class="node">
<title>Node3</title>
<g id="a_node3"><a xlink:href="group__app__io__internal.html#ga503f851fa137eb8a9c2936e2098c5eb9" target="_top" xlink:title="Process all the epoll events.">
<polygon fill="white" stroke="black" points="910,-38.5 910,-57.5 1002,-57.5 1002,-38.5 910,-38.5"/>
<text text-anchor="middle" x="956" y="-45.5" font-family="Helvetica,sans-Serif" font-size="10.00">coap_io_do_epoll</text>
</a>
</g>
</g>
<!-- Node2&#45;&gt;Node3 -->
<g id="edge2" class="edge">
<title>Node2&#45;&gt;Node3</title>
<path fill="none" stroke="midnightblue" d="M1027.53,-48C1019.05,-48 1010.44,-48 1002.29,-48"/>
<polygon fill="midnightblue" stroke="midnightblue" points="1027.79,-51.5 1037.79,-48 1027.79,-44.5 1027.79,-51.5"/>
</g>
<!-- Node13 -->
<g id="node13" class="node">
<title>Node13</title>
<g id="a_node13"><a xlink:href="group__app__io__internal.html#ga2208802b0711ad20df07271b751b41dc" target="_top" xlink:title="Processes any outstanding read, write, accept or connect I/O as indicated in the coap_socket_t struct...">
<polygon fill="white" stroke="black" points="916.5,-76.5 916.5,-95.5 995.5,-95.5 995.5,-76.5 916.5,-76.5"/>
<text text-anchor="middle" x="956" y="-83.5" font-family="Helvetica,sans-Serif" font-size="10.00">coap_io_do_io</text>
</a>
</g>
</g>
<!-- Node2&#45;&gt;Node13 -->
<g id="edge14" class="edge">
<title>Node2&#45;&gt;Node13</title>
<path fill="none" stroke="midnightblue" d="M1044.95,-60.39C1027.08,-65.59 1006.61,-71.55 989.92,-76.41"/>
<polygon fill="midnightblue" stroke="midnightblue" points="1045.95,-63.75 1054.57,-57.59 1043.99,-57.02 1045.95,-63.75"/>
</g>
<!-- Node4 -->
<g id="node4" class="node">
<title>Node4</title>
<g id="a_node4"><a xlink:href="group__app__io.html#ga2758ed5fdd6ce79ec95ea8dbf72a5644" target="_top" xlink:title="The main message processing loop with additional fds for internal select.">
<polygon fill="white" stroke="black" points="742,-38.5 742,-57.5 874,-57.5 874,-38.5 742,-38.5"/>
<text text-anchor="middle" x="808" y="-45.5" font-family="Helvetica,sans-Serif" font-size="10.00">coap_io_process_with_fds</text>
</a>
</g>
</g>
<!-- Node3&#45;&gt;Node4 -->
<g id="edge3" class="edge">
<title>Node3&#45;&gt;Node4</title>
<path fill="none" stroke="midnightblue" d="M899.38,-48C891.15,-48 882.6,-48 874.2,-48"/>
<polygon fill="midnightblue" stroke="midnightblue" points="899.61,-51.5 909.61,-48 899.6,-44.5 899.61,-51.5"/>
</g>
<!-- Node5 -->
<g id="node5" class="node">
<title>Node5</title>
<g id="a_node5"><a xlink:href="group__app__io.html#ga082f7bbf15d3f37c31c2a0a5e78ea4cf" target="_top" xlink:title="The main I/O processing function.">
<polygon fill="white" stroke="black" points="616,-38.5 616,-57.5 706,-57.5 706,-38.5 616,-38.5"/>
<text text-anchor="middle" x="661" y="-45.5" font-family="Helvetica,sans-Serif" font-size="10.00">coap_io_process</text>
</a>
</g>
</g>
<!-- Node4&#45;&gt;Node5 -->
<g id="edge4" class="edge">
<title>Node4&#45;&gt;Node5</title>
<path fill="none" stroke="midnightblue" d="M731.53,-41.26C722.85,-41.28 714.23,-41.44 706.17,-41.73"/>
<polygon fill="midnightblue" stroke="midnightblue" points="731.7,-44.76 741.71,-41.28 731.72,-37.76 731.7,-44.76"/>
</g>
<!-- Node5&#45;&gt;Node4 -->
<g id="edge12" class="edge">
<title>Node5&#45;&gt;Node4</title>
<path fill="none" stroke="midnightblue" d="M716.41,-54.56C724.67,-54.74 733.25,-54.79 741.71,-54.72"/>
<polygon fill="midnightblue" stroke="midnightblue" points="716.26,-51.05 706.17,-54.27 716.07,-58.05 716.26,-51.05"/>
</g>
<!-- Node6 -->
<g id="node6" class="node">
<title>Node6</title>
<g id="a_node6"><a xlink:href="group__context__internal.html#ga5d013d40174c7c217b24bf624f9d7310" target="_top" xlink:title="Delay the sending of the first client request until some other negotiation has completed.">
<polygon fill="white" stroke="black" points="464,-38.5 464,-57.5 580,-57.5 580,-38.5 464,-38.5"/>
<text text-anchor="middle" x="522" y="-45.5" font-family="Helvetica,sans-Serif" font-size="10.00">coap_client_delay_first</text>
</a>
</g>
</g>
<!-- Node5&#45;&gt;Node6 -->
<g id="edge5" class="edge">
<title>Node5&#45;&gt;Node6</title>
<path fill="none" stroke="midnightblue" d="M605.77,-48C597.31,-48 588.55,-48 580.04,-48"/>
<polygon fill="midnightblue" stroke="midnightblue" points="605.9,-51.5 615.9,-48 605.9,-44.5 605.9,-51.5"/>
</g>
<!-- Node12 -->
<g id="node12" class="node">
<title>Node12</title>
<g id="a_node12"><a xlink:href="net_8h.html#ac6b34aa979ec545eb710e45a26c98fc1" target="_top" xlink:title=" ">
<polygon fill="white" stroke="black" points="480.5,-76.5 480.5,-95.5 563.5,-95.5 563.5,-76.5 480.5,-76.5"/>
<text text-anchor="middle" x="522" y="-83.5" font-family="Helvetica,sans-Serif" font-size="10.00">coap_run_once</text>
</a>
</g>
</g>
<!-- Node5&#45;&gt;Node12 -->
<g id="edge13" class="edge">
<title>Node5&#45;&gt;Node12</title>
<path fill="none" stroke="midnightblue" d="M615.59,-60.32C596.77,-65.54 575.16,-71.53 557.56,-76.41"/>
<polygon fill="midnightblue" stroke="midnightblue" points="616.73,-63.63 625.43,-57.59 614.86,-56.89 616.73,-63.63"/>
</g>
<!-- Node7 -->
<g id="node7" class="node">
<title>Node7</title>
<g id="a_node7"><a xlink:href="group__session.html#ga4368ee622c681bf7cf0b7cfe99c8ab37" target="_top" xlink:title="Get maximum acceptable PDU size.">
<polygon fill="white" stroke="black" points="283,-38.5 283,-57.5 428,-57.5 428,-38.5 283,-38.5"/>
<text text-anchor="middle" x="355.5" y="-45.5" font-family="Helvetica,sans-Serif" font-size="10.00">coap_session_max_pdu_size</text>
</a>
</g>
</g>
<!-- Node6&#45;&gt;Node7 -->
<g id="edge6" class="edge">
<title>Node6&#45;&gt;Node7</title>
<path fill="none" stroke="midnightblue" d="M453.79,-48C445.37,-48 436.74,-48 428.25,-48"/>
<polygon fill="midnightblue" stroke="midnightblue" points="453.93,-51.5 463.93,-48 453.93,-44.5 453.93,-51.5"/>
</g>
<!-- Node8 -->
<g id="node8" class="node">
<title>Node8</title>
<g id="a_node8"><a xlink:href="group__context__internal.html#gae6b8ca457dd41f23372f9e9a7159312b" target="_top" xlink:title="Parses and interprets a CoAP datagram with context ctx.">
<polygon fill="white" stroke="black" points="143,-0.5 143,-19.5 247,-19.5 247,-0.5 143,-0.5"/>
<text text-anchor="middle" x="195" y="-7.5" font-family="Helvetica,sans-Serif" font-size="10.00">coap_handle_dgram</text>
</a>
</g>
</g>
<!-- Node7&#45;&gt;Node8 -->
<g id="edge7" class="edge">
<title>Node7&#45;&gt;Node8</title>
<path fill="none" stroke="midnightblue" d="M304.58,-36.03C282.37,-30.71 256.58,-24.52 235.71,-19.52"/>
<polygon fill="midnightblue" stroke="midnightblue" points="303.96,-39.48 314.5,-38.41 305.6,-32.68 303.96,-39.48"/>
</g>
<!-- Node9 -->
<g id="node9" class="node">
<title>Node9</title>
<g id="a_node9"><a xlink:href="group__pdu.html#ga6ab63e25c7c9eed3de00b0e1153b33b6" target="_top" xlink:title="Creates a new CoAP PDU.">
<polygon fill="white" stroke="black" points="154,-38.5 154,-57.5 236,-57.5 236,-38.5 154,-38.5"/>
<text text-anchor="middle" x="195" y="-45.5" font-family="Helvetica,sans-Serif" font-size="10.00">coap_new_pdu</text>
</a>
</g>
</g>
<!-- Node7&#45;&gt;Node9 -->
<g id="edge9" class="edge">
<title>Node7&#45;&gt;Node9</title>
<path fill="none" stroke="midnightblue" d="M272.59,-48C260,-48 247.51,-48 236.38,-48"/>
<polygon fill="midnightblue" stroke="midnightblue" points="272.67,-51.5 282.67,-48 272.67,-44.5 272.67,-51.5"/>
</g>
<!-- Node10 -->
<g id="node10" class="node">
<title>Node10</title>
<g id="a_node10"><a xlink:href="group__pdu.html#gabf10450d37381b133fb780480b4fca1b" target="_top" xlink:title="Duplicate an existing PDU.">
<polygon fill="white" stroke="black" points="143.5,-76.5 143.5,-95.5 246.5,-95.5 246.5,-76.5 143.5,-76.5"/>
<text text-anchor="middle" x="195" y="-83.5" font-family="Helvetica,sans-Serif" font-size="10.00">coap_pdu_duplicate</text>
</a>
</g>
</g>
<!-- Node7&#45;&gt;Node10 -->
<g id="edge10" class="edge">
<title>Node7&#45;&gt;Node10</title>
<path fill="none" stroke="midnightblue" d="M304.58,-59.97C282.37,-65.29 256.58,-71.48 235.71,-76.48"/>
<polygon fill="midnightblue" stroke="midnightblue" points="305.6,-63.32 314.5,-57.59 303.96,-56.52 305.6,-63.32"/>
</g>
<!-- Node8&#45;&gt;Node1 -->
<g id="edge8" class="edge">
<title>Node8&#45;&gt;Node1</title>
<path fill="none" stroke="midnightblue" d="M257.35,-10C322.69,-10 429.15,-10 521,-10 957,-10 957,-10 957,-10 1032.32,-10 1118.89,-17.08 1174.91,-22.59"/>
<polygon fill="midnightblue" stroke="midnightblue" points="257.22,-6.5 247.22,-10 257.22,-13.5 257.22,-6.5"/>
</g>
<!-- Node11 -->
<g id="node11" class="node">
<title>Node11</title>
<g id="a_node11"><a xlink:href="group__coap__async.html#ga14b20d8c5bf07bdda9f8bc6777540a84" target="_top" xlink:title="Allocates a new coap_async_t object and fills its fields according to the given request.">
<polygon fill="white" stroke="black" points="0,-76.5 0,-95.5 107,-95.5 107,-76.5 0,-76.5"/>
<text text-anchor="middle" x="53.5" y="-83.5" font-family="Helvetica,sans-Serif" font-size="10.00">coap_register_async</text>
</a>
</g>
</g>
<!-- Node10&#45;&gt;Node11 -->
<g id="edge11" class="edge">
<title>Node10&#45;&gt;Node11</title>
<path fill="none" stroke="midnightblue" d="M133.23,-86C124.61,-86 115.79,-86 107.33,-86"/>
<polygon fill="midnightblue" stroke="midnightblue" points="133.24,-89.5 143.24,-86 133.24,-82.5 133.24,-89.5"/>
</g>
<!-- Node13&#45;&gt;Node4 -->
<g id="edge15" class="edge">
<title>Node13&#45;&gt;Node4</title>
<path fill="none" stroke="midnightblue" d="M908.46,-73.89C888.13,-68.6 864.63,-62.48 845.58,-57.52"/>
<polygon fill="midnightblue" stroke="midnightblue" points="907.6,-77.28 918.16,-76.41 909.36,-70.5 907.6,-77.28"/>
</g>
<!-- Node14 -->
<g id="node14" class="node">
<title>Node14</title>
<g id="a_node14"><a xlink:href="net_8h.html#af937985e2b14a287a849663574d59bcb" target="_top" xlink:title=" ">
<polygon fill="white" stroke="black" points="777,-76.5 777,-95.5 839,-95.5 839,-76.5 777,-76.5"/>
<text text-anchor="middle" x="808" y="-83.5" font-family="Helvetica,sans-Serif" font-size="10.00">coap_read</text>
</a>
</g>
</g>
<!-- Node13&#45;&gt;Node14 -->
<g id="edge16" class="edge">
<title>Node13&#45;&gt;Node14</title>
<path fill="none" stroke="midnightblue" d="M906.02,-86C883.88,-86 858.41,-86 839.12,-86"/>
<polygon fill="midnightblue" stroke="midnightblue" points="906.26,-89.5 916.26,-86 906.26,-82.5 906.26,-89.5"/>
</g>
<!-- Node15 -->
<g id="node15" class="node">
<title>Node15</title>
<g id="a_node15"><a xlink:href="coap__io__contiki_8c.html#a75a7c93e10ca7858449ba304aad4ea37" target="_top" xlink:title=" ">
<polygon fill="white" stroke="black" points="619.5,-76.5 619.5,-95.5 702.5,-95.5 702.5,-76.5 619.5,-76.5"/>
<text text-anchor="middle" x="661" y="-83.5" font-family="Helvetica,sans-Serif" font-size="10.00">coap_run_once</text>
</a>
</g>
</g>
<!-- Node14&#45;&gt;Node15 -->
<g id="edge17" class="edge">
<title>Node14&#45;&gt;Node15</title>
<path fill="none" stroke="midnightblue" d="M766.92,-86C746.94,-86 722.81,-86 702.73,-86"/>
<polygon fill="midnightblue" stroke="midnightblue" points="766.96,-89.5 776.96,-86 766.96,-82.5 766.96,-89.5"/>
</g>
<!-- Node15&#45;&gt;Node15 -->
<g id="edge18" class="edge">
<title>Node15&#45;&gt;Node15</title>
<path fill="none" stroke="midnightblue" d="M686.67,-105.03C685.27,-110.13 676.71,-114 661,-114 636.47,-114 629.38,-104.57 639.73,-95.76"/>
<polygon fill="midnightblue" stroke="midnightblue" points="689.72,-103.29 682.27,-95.76 683.39,-106.29 689.72,-103.29"/>
</g>
</g>
</svg>
