<?xml version="1.0" encoding="UTF-8" standalone="no"?>
<!DOCTYPE svg PUBLIC "-//W3C//DTD SVG 1.1//EN"
 "http://www.w3.org/Graphics/SVG/1.1/DTD/svg11.dtd">
<!-- Generated by graphviz version 2.43.0 (0)
 -->
<!-- Title: is_unescaped_in_path Pages: 1 -->
<svg width="398pt" height="66pt"
 viewBox="0.00 0.00 398.00 66.00" xmlns="http://www.w3.org/2000/svg" xmlns:xlink="http://www.w3.org/1999/xlink">
<g id="graph0" class="graph" transform="scale(1 1) rotate(0) translate(4 62)">
<title>is_unescaped_in_path</title>
<polygon fill="white" stroke="transparent" points="-4,4 -4,-62 394,-62 394,4 -4,4"/>
<!-- Node1 -->
<g id="node1" class="node">
<title>Node1</title>
<g id="a_node1"><a xlink:title=" ">
<polygon fill="#bfbfbf" stroke="black" points="277,-19.5 277,-38.5 390,-38.5 390,-19.5 277,-19.5"/>
<text text-anchor="middle" x="333.5" y="-26.5" font-family="Helvetica,sans-Serif" font-size="10.00">is_unescaped_in_path</text>
</a>
</g>
</g>
<!-- Node2 -->
<g id="node2" class="node">
<title>Node2</title>
<g id="a_node2"><a xlink:href="group__uri__parse.html#ga11d902f573bcfee188d5ccd4903d0393" target="_top" xlink:title="Extract uri_path string from request PDU.">
<polygon fill="white" stroke="black" points="133.5,-38.5 133.5,-57.5 229.5,-57.5 229.5,-38.5 133.5,-38.5"/>
<text text-anchor="middle" x="181.5" y="-45.5" font-family="Helvetica,sans-Serif" font-size="10.00">coap_get_uri_path</text>
</a>
</g>
</g>
<!-- Node1&#45;&gt;Node2 -->
<g id="edge1" class="edge">
<title>Node1&#45;&gt;Node2</title>
<path fill="none" stroke="midnightblue" d="M266.71,-37.33C254.2,-38.92 241.34,-40.55 229.56,-42.04"/>
<polygon fill="midnightblue" stroke="midnightblue" points="267.16,-40.8 276.65,-36.07 266.28,-33.86 267.16,-40.8"/>
</g>
<!-- Node3 -->
<g id="node3" class="node">
<title>Node3</title>
<g id="a_node3"><a xlink:href="uri_8c.html#a2fe9cec4fe3abcf1606bc725bb54b009" target="_top" xlink:title=" ">
<polygon fill="white" stroke="black" points="122,-0.5 122,-19.5 241,-19.5 241,-0.5 122,-0.5"/>
<text text-anchor="middle" x="181.5" y="-7.5" font-family="Helvetica,sans-Serif" font-size="10.00">is_unescaped_in_query</text>
</a>
</g>
</g>
<!-- Node1&#45;&gt;Node3 -->
<g id="edge2" class="edge">
<title>Node1&#45;&gt;Node3</title>
<path fill="none" stroke="midnightblue" d="M266.47,-20.64C258.04,-19.57 249.46,-18.48 241.16,-17.43"/>
<polygon fill="midnightblue" stroke="midnightblue" points="266.28,-24.14 276.65,-21.93 267.16,-17.2 266.28,-24.14"/>
</g>
<!-- Node4 -->
<g id="node4" class="node">
<title>Node4</title>
<g id="a_node4"><a xlink:href="group__uri__parse.html#gaf625b48713927c0c7cf9fb994ab7a7d4" target="_top" xlink:title="Extract query string from request PDU according to escape rules in 6.5.8.">
<polygon fill="white" stroke="black" points="0,-0.5 0,-19.5 86,-19.5 86,-0.5 0,-0.5"/>
<text text-anchor="middle" x="43" y="-7.5" font-family="Helvetica,sans-Serif" font-size="10.00">coap_get_query</text>
</a>
</g>
</g>
<!-- Node3&#45;&gt;Node4 -->
<g id="edge3" class="edge">
<title>Node3&#45;&gt;Node4</title>
<path fill="none" stroke="midnightblue" d="M111.64,-10C102.94,-10 94.26,-10 86.15,-10"/>
<polygon fill="midnightblue" stroke="midnightblue" points="111.82,-13.5 121.82,-10 111.82,-6.5 111.82,-13.5"/>
</g>
</g>
</svg>
