<?xml version="1.0" encoding="UTF-8" standalone="no"?>
<!DOCTYPE svg PUBLIC "-//W3C//DTD SVG 1.1//EN"
 "http://www.w3.org/Graphics/SVG/1.1/DTD/svg11.dtd">
<!-- Generated by graphviz version 2.43.0 (0)
 -->
<!-- Title: coap_socket_send Pages: 1 -->
<!--zoomable 154 -->
<svg id="main" version="1.1" xmlns="http://www.w3.org/2000/svg" xmlns:xlink="http://www.w3.org/1999/xlink" xml:space="preserve" onload="init(evt)">
<style type="text/css"><![CDATA[
.edge:hover path { stroke: red; }
.edge:hover polygon { stroke: red; fill: red; }
]]></style>
<script type="text/javascript"><![CDATA[
var edges = document.getElementsByTagName('g');
if (edges && edges.length) {
  for (var i=0;i<edges.length;i++) {
    if (edges[i].id.substr(0,4)=='edge') {
      edges[i].setAttribute('class','edge');
    }
  }
}
]]></script>
        <defs>
                <circle id="rim" cx="0" cy="0" r="7"/>
                <circle id="rim2" cx="0" cy="0" r="3.5"/>
                <g id="zoomPlus">
                        <use xlink:href="#rim" fill="#404040">
                                <set attributeName="fill" to="#808080" begin="zoomplus.mouseover" end="zoomplus.mouseout"/>
                        </use>
                        <path d="M-4,0h8M0,-4v8" fill="none" stroke="white" stroke-width="1.5" pointer-events="none"/>
                </g>
                <g id="zoomMin">
                        <use xlink:href="#rim" fill="#404040">
                                <set attributeName="fill" to="#808080" begin="zoomminus.mouseover" end="zoomminus.mouseout"/>
                        </use>
                        <path d="M-4,0h8" fill="none" stroke="white" stroke-width="1.5" pointer-events="none"/>
                </g>
                <g id="dirArrow">
                        <path fill="none" stroke="white" stroke-width="1.5" d="M0,-3.0v7 M-2.5,-0.5L0,-3.0L2.5,-0.5"/>
                </g>
               <g id="resetDef">
                       <use xlink:href="#rim2" fill="#404040">
                               <set attributeName="fill" to="#808080" begin="reset.mouseover" end="reset.mouseout"/>
                       </use>
               </g>
        </defs>

<script type="text/javascript">
var viewWidth = 577;
var viewHeight = 154;
var sectionId = 'dynsection-13';
</script>
<script xlink:href="svgpan.js"/>
<svg id="graph" class="graph">
<g id="viewport">
<title>coap_socket_send</title>
<polygon fill="white" stroke="transparent" points="-4,4 -4,-149.5 573,-149.5 573,4 -4,4"/>
<!-- Node1 -->
<g id="node1" class="node">
<title>Node1</title>
<g id="a_node1"><a xlink:title="Function interface for data transmission.">
<polygon fill="#bfbfbf" stroke="black" points="0,-69 0,-88 105,-88 105,-69 0,-69"/>
<text text-anchor="middle" x="52.5" y="-76" font-family="Helvetica,sans-Serif" font-size="10.00">coap_socket_send</text>
</a>
</g>
</g>
<!-- Node2 -->
<g id="node2" class="node">
<title>Node2</title>
<g id="a_node2"><a xlink:href="coap__address_8h.html#a021998c955a6787c5cab7b1c385bef63" target="_top" xlink:title="Checks if given address object a denotes the wildcard address.">
<polygon fill="white" stroke="black" points="154,-126 154,-145 269,-145 269,-126 154,-126"/>
<text text-anchor="middle" x="211.5" y="-133" font-family="Helvetica,sans-Serif" font-size="10.00">coap_address_isany</text>
</a>
</g>
</g>
<!-- Node1&#45;&gt;Node2 -->
<g id="edge1" class="edge">
<title>Node1&#45;&gt;Node2</title>
<path fill="none" stroke="midnightblue" d="M73.33,-88.08C90.86,-96.32 117.25,-108.15 141,-116.5 147.58,-118.81 154.59,-121.02 161.53,-123.06"/>
<polygon fill="midnightblue" stroke="midnightblue" points="161.02,-126.55 171.6,-125.92 162.93,-119.82 161.02,-126.55"/>
</g>
<!-- Node4 -->
<g id="node4" class="node">
<title>Node4</title>
<g id="a_node4"><a xlink:href="coap__debug_8c.html#af01fc56422e6401f529b053b61e65cad" target="_top" xlink:title="Check to see whether a packet should be sent or not.">
<polygon fill="white" stroke="black" points="141,-88 141,-107 282,-107 282,-88 141,-88"/>
<text text-anchor="middle" x="211.5" y="-95" font-family="Helvetica,sans-Serif" font-size="10.00">coap_debug_send_packet</text>
</a>
</g>
</g>
<!-- Node1&#45;&gt;Node4 -->
<g id="edge3" class="edge">
<title>Node1&#45;&gt;Node4</title>
<path fill="none" stroke="midnightblue" d="M105.34,-84.77C113.5,-85.76 122.08,-86.8 130.69,-87.84"/>
<polygon fill="midnightblue" stroke="midnightblue" points="130.44,-91.34 140.78,-89.06 131.28,-84.39 130.44,-91.34"/>
</g>
<!-- Node6 -->
<g id="node6" class="node">
<title>Node6</title>
<g id="a_node6"><a xlink:href="coap__address_8c.html#a5b47d6fe47a54a0798eddb9ea77005ea" target="_top" xlink:title="Checks if given address a denotes a multicast address.">
<polygon fill="white" stroke="black" points="167,-50 167,-69 256,-69 256,-50 167,-50"/>
<text text-anchor="middle" x="211.5" y="-57" font-family="Helvetica,sans-Serif" font-size="10.00">coap_is_mcast</text>
</a>
</g>
</g>
<!-- Node1&#45;&gt;Node6 -->
<g id="edge5" class="edge">
<title>Node1&#45;&gt;Node6</title>
<path fill="none" stroke="midnightblue" d="M105.34,-72.23C121.84,-70.23 140.11,-68.02 156.74,-66.01"/>
<polygon fill="midnightblue" stroke="midnightblue" points="157.34,-69.46 166.85,-64.78 156.5,-62.51 157.34,-69.46"/>
</g>
<!-- Node9 -->
<g id="node9" class="node">
<title>Node9</title>
<g id="a_node9"><a xlink:href="coap__io_8c.html#a3d4397c1a2ce78e64c19fdcd25256737" target="_top" xlink:title=" ">
<polygon fill="white" stroke="black" points="152.5,-9 152.5,-28 270.5,-28 270.5,-9 152.5,-9"/>
<text text-anchor="middle" x="211.5" y="-16" font-family="Helvetica,sans-Serif" font-size="10.00">coap_socket_strerror</text>
</a>
</g>
</g>
<!-- Node1&#45;&gt;Node9 -->
<g id="edge8" class="edge">
<title>Node1&#45;&gt;Node9</title>
<path fill="none" stroke="midnightblue" d="M73.76,-68.99C91.34,-60.91 117.58,-49.27 141,-40.5 149.79,-37.21 159.32,-33.98 168.43,-31.05"/>
<polygon fill="midnightblue" stroke="midnightblue" points="169.6,-34.35 178.08,-28 167.49,-27.67 169.6,-34.35"/>
</g>
<!-- Node3 -->
<g id="node3" class="node">
<title>Node3</title>
<g id="a_node3"><a xlink:href="coap__address_8c.html#a682c57431a3f820090dbeaa65ab43de1" target="_top" xlink:title=" ">
<polygon fill="white" stroke="black" points="318,-126 318,-145 465,-145 465,-126 318,-126"/>
<text text-anchor="middle" x="391.5" y="-133" font-family="Helvetica,sans-Serif" font-size="10.00">_coap_address_isany_impl</text>
</a>
</g>
</g>
<!-- Node2&#45;&gt;Node3 -->
<g id="edge2" class="edge">
<title>Node2&#45;&gt;Node3</title>
<path fill="none" stroke="midnightblue" d="M269.31,-135.5C281.51,-135.5 294.65,-135.5 307.61,-135.5"/>
<polygon fill="midnightblue" stroke="midnightblue" points="307.95,-139 317.95,-135.5 307.95,-132 307.95,-139"/>
</g>
<!-- Node5 -->
<g id="node5" class="node">
<title>Node5</title>
<g id="a_node5"><a xlink:href="group__coap__prng.html#gac64ef6bcef630d4c1e683baa269b4670" target="_top" xlink:title="Fills buf with len random bytes using the default pseudo random number generator.">
<polygon fill="white" stroke="black" points="358,-88 358,-107 425,-107 425,-88 358,-88"/>
<text text-anchor="middle" x="391.5" y="-95" font-family="Helvetica,sans-Serif" font-size="10.00">coap_prng</text>
</a>
</g>
</g>
<!-- Node4&#45;&gt;Node5 -->
<g id="edge4" class="edge">
<title>Node4&#45;&gt;Node5</title>
<path fill="none" stroke="midnightblue" d="M282.08,-97.5C304.24,-97.5 328.07,-97.5 347.74,-97.5"/>
<polygon fill="midnightblue" stroke="midnightblue" points="347.91,-101 357.91,-97.5 347.91,-94 347.91,-101"/>
</g>
<!-- Node7 -->
<g id="node7" class="node">
<title>Node7</title>
<g id="a_node7"><a xlink:href="coap__address_8c.html#a53db74f2c091df389aa8bbd809e098b6" target="_top" xlink:title="Checks if given address a denotes a broadcast address.">
<polygon fill="white" stroke="black" points="349,-50 349,-69 434,-69 434,-50 349,-50"/>
<text text-anchor="middle" x="391.5" y="-57" font-family="Helvetica,sans-Serif" font-size="10.00">coap_is_bcast</text>
</a>
</g>
</g>
<!-- Node6&#45;&gt;Node7 -->
<g id="edge6" class="edge">
<title>Node6&#45;&gt;Node7</title>
<path fill="none" stroke="midnightblue" d="M256.04,-59.5C281.03,-59.5 312.55,-59.5 338.79,-59.5"/>
<polygon fill="midnightblue" stroke="midnightblue" points="338.94,-63 348.94,-59.5 338.94,-56 338.94,-63"/>
</g>
<!-- Node8 -->
<g id="node8" class="node">
<title>Node8</title>
<g id="a_node8"><a xlink:href="group__context.html#ga757eecd5cda6e32472313df73a9297fd" target="_top" xlink:title="Returns the current value of an internal tick counter.">
<polygon fill="white" stroke="black" points="501,-50 501,-69 569,-69 569,-50 501,-50"/>
<text text-anchor="middle" x="535" y="-57" font-family="Helvetica,sans-Serif" font-size="10.00">coap_ticks</text>
</a>
</g>
</g>
<!-- Node7&#45;&gt;Node8 -->
<g id="edge7" class="edge">
<title>Node7&#45;&gt;Node8</title>
<path fill="none" stroke="midnightblue" d="M434.19,-59.5C451.91,-59.5 472.57,-59.5 490.48,-59.5"/>
<polygon fill="midnightblue" stroke="midnightblue" points="490.67,-63 500.67,-59.5 490.67,-56 490.67,-63"/>
</g>
<!-- Node10 -->
<g id="node10" class="node">
<title>Node10</title>
<g id="a_node10"><a xlink:href="coap__io_8c.html#a198ae48fdbe1762be87328d3a5f5f4b2" target="_top" xlink:title=" ">
<polygon fill="white" stroke="black" points="334,-0.5 334,-30.5 449,-30.5 449,-0.5 334,-0.5"/>
<text text-anchor="start" x="342" y="-18.5" font-family="Helvetica,sans-Serif" font-size="10.00">coap_socket_format</text>
<text text-anchor="middle" x="391.5" y="-7.5" font-family="Helvetica,sans-Serif" font-size="10.00">_errno</text>
</a>
</g>
</g>
<!-- Node9&#45;&gt;Node10 -->
<g id="edge9" class="edge">
<title>Node9&#45;&gt;Node10</title>
<path fill="none" stroke="midnightblue" d="M270.78,-17.52C287.74,-17.23 306.38,-16.92 323.81,-16.62"/>
<polygon fill="midnightblue" stroke="midnightblue" points="323.96,-20.12 333.9,-16.45 323.85,-13.12 323.96,-20.12"/>
</g>
</g>
</svg>
        <g id="navigator" transform="translate(0 0)" fill="#404254">
                <rect fill="#f2f5e9" fill-opacity="0.5" stroke="#606060" stroke-width=".5" x="0" y="0" width="60" height="60"/>
                <use id="zoomplus" xlink:href="#zoomPlus" x="17" y="9" onmousedown="handleZoom(evt,'in')"/>
                <use id="zoomminus" xlink:href="#zoomMin" x="42" y="9" onmousedown="handleZoom(evt,'out')"/>
                <use id="reset" xlink:href="#resetDef" x="30" y="36" onmousedown="handleReset()"/>
                <g id="arrowUp" xlink:href="#dirArrow" transform="translate(30 24)" onmousedown="handlePan(0,-1)">
                  <use xlink:href="#rim" fill="#404040">
                        <set attributeName="fill" to="#808080" begin="arrowUp.mouseover" end="arrowUp.mouseout"/>
                  </use>
                  <path fill="none" stroke="white" stroke-width="1.5" d="M0,-3.0v7 M-2.5,-0.5L0,-3.0L2.5,-0.5"/>
                </g>
                <g id="arrowRight" xlink:href="#dirArrow" transform="rotate(90) translate(36 -43)" onmousedown="handlePan(1,0)">
                  <use xlink:href="#rim" fill="#404040">
                        <set attributeName="fill" to="#808080" begin="arrowRight.mouseover" end="arrowRight.mouseout"/>
                  </use>
                  <path fill="none" stroke="white" stroke-width="1.5" d="M0,-3.0v7 M-2.5,-0.5L0,-3.0L2.5,-0.5"/>
                </g>
                <g id="arrowDown" xlink:href="#dirArrow" transform="rotate(180) translate(-30 -48)" onmousedown="handlePan(0,1)">
                  <use xlink:href="#rim" fill="#404040">
                        <set attributeName="fill" to="#808080" begin="arrowDown.mouseover" end="arrowDown.mouseout"/>
                  </use>
                  <path fill="none" stroke="white" stroke-width="1.5" d="M0,-3.0v7 M-2.5,-0.5L0,-3.0L2.5,-0.5"/>
                </g>
                <g id="arrowLeft" xlink:href="#dirArrow" transform="rotate(270) translate(-36 17)" onmousedown="handlePan(-1,0)">
                  <use xlink:href="#rim" fill="#404040">
                        <set attributeName="fill" to="#808080" begin="arrowLeft.mouseover" end="arrowLeft.mouseout"/>
                  </use>
                  <path fill="none" stroke="white" stroke-width="1.5" d="M0,-3.0v7 M-2.5,-0.5L0,-3.0L2.5,-0.5"/>
                </g>
        </g>
        <svg viewBox="0 0 15 15" width="100%" height="30px" preserveAspectRatio="xMaxYMin meet">
         <g id="arrow_out" transform="scale(0.3 0.3)">
          <a xlink:href="coap__io__internal_8h_a35f848af42969271891f26fd235ef443_cgraph_org.svg" target="_base">
           <rect id="button" ry="5" rx="5" y="6" x="6" height="38" width="38"
                fill="#f2f5e9" fill-opacity="0.5" stroke="#606060" stroke-width="1.0"/>
           <path id="arrow"
             d="M 11.500037,31.436501 C 11.940474,20.09759 22.043105,11.32322 32.158766,21.979434 L 37.068811,17.246167 C 37.068811,17.246167 37.088388,32 37.088388,32 L 22.160133,31.978069 C 22.160133,31.978069 26.997745,27.140456 26.997745,27.140456 C 18.528582,18.264221 13.291696,25.230495 11.500037,31.436501 z"
             style="fill:#404040;"/>
          </a>
         </g>
        </svg>
</svg>
