<?xml version="1.0" encoding="UTF-8" standalone="no"?>
<!DOCTYPE svg PUBLIC "-//W3C//DTD SVG 1.1//EN"
 "http://www.w3.org/Graphics/SVG/1.1/DTD/svg11.dtd">
<!-- Generated by graphviz version 2.43.0 (0)
 -->
<!-- Title: coap_socket_write Pages: 1 -->
<svg width="2712pt" height="445pt"
 viewBox="0.00 0.00 2712.00 445.00" xmlns="http://www.w3.org/2000/svg" xmlns:xlink="http://www.w3.org/1999/xlink">
<g id="graph0" class="graph" transform="scale(1 1) rotate(0) translate(4 441)">
<title>coap_socket_write</title>
<polygon fill="white" stroke="transparent" points="-4,4 -4,-441 2708,-441 2708,4 -4,4"/>
<!-- Node1 -->
<g id="node1" class="node">
<title>Node1</title>
<g id="a_node1"><a xlink:title=" ">
<polygon fill="#bfbfbf" stroke="black" points="2606,-85.5 2606,-104.5 2704,-104.5 2704,-85.5 2606,-85.5"/>
<text text-anchor="middle" x="2655" y="-92.5" font-family="Helvetica,sans-Serif" font-size="10.00">coap_socket_write</text>
</a>
</g>
</g>
<!-- Node2 -->
<g id="node2" class="node">
<title>Node2</title>
<g id="a_node2"><a xlink:href="group__session__internal.html#gadb19e1f2544b8b01424fa2e9dce41e7b" target="_top" xlink:title="Function interface for stream data transmission.">
<polygon fill="white" stroke="black" points="2467,-85.5 2467,-104.5 2570,-104.5 2570,-85.5 2467,-85.5"/>
<text text-anchor="middle" x="2518.5" y="-92.5" font-family="Helvetica,sans-Serif" font-size="10.00">coap_session_write</text>
</a>
</g>
</g>
<!-- Node1&#45;&gt;Node2 -->
<g id="edge1" class="edge">
<title>Node1&#45;&gt;Node2</title>
<path fill="none" stroke="midnightblue" d="M2595.59,-95C2587.09,-95 2578.39,-95 2570.07,-95"/>
<polygon fill="midnightblue" stroke="midnightblue" points="2595.82,-98.5 2605.82,-95 2595.82,-91.5 2595.82,-98.5"/>
</g>
<!-- Node3 -->
<g id="node3" class="node">
<title>Node3</title>
<g id="a_node3"><a xlink:href="group__session__internal.html#gaaf20c9b0b2ad3168c15e535a67ea3ce5" target="_top" xlink:title="Send a pdu according to the session&#39;s protocol.">
<polygon fill="white" stroke="black" points="2307,-231.5 2307,-250.5 2431,-250.5 2431,-231.5 2307,-231.5"/>
<text text-anchor="middle" x="2369" y="-238.5" font-family="Helvetica,sans-Serif" font-size="10.00">coap_session_send_pdu</text>
</a>
</g>
</g>
<!-- Node2&#45;&gt;Node3 -->
<g id="edge2" class="edge">
<title>Node2&#45;&gt;Node3</title>
<path fill="none" stroke="midnightblue" d="M2500.35,-111.97C2469.29,-142.72 2404.63,-206.72 2379.91,-231.19"/>
<polygon fill="midnightblue" stroke="midnightblue" points="2503.18,-114.1 2507.82,-104.58 2498.25,-109.13 2503.18,-114.1"/>
</g>
<!-- Node37 -->
<g id="node37" class="node">
<title>Node37</title>
<g id="a_node37"><a xlink:href="net_8c.html#a8fe30a827bdd0d518fc5c5a3a860dfde" target="_top" xlink:title=" ">
<polygon fill="white" stroke="black" points="1406,-28.5 1406,-47.5 1509,-47.5 1509,-28.5 1406,-28.5"/>
<text text-anchor="middle" x="1457.5" y="-35.5" font-family="Helvetica,sans-Serif" font-size="10.00">coap_write_session</text>
</a>
</g>
</g>
<!-- Node2&#45;&gt;Node37 -->
<g id="edge52" class="edge">
<title>Node2&#45;&gt;Node37</title>
<path fill="none" stroke="midnightblue" d="M2477.09,-82.67C2418.48,-65.91 2306.22,-38 2208.5,-38 2208.5,-38 2208.5,-38 1754.5,-38 1668.3,-38 1567.97,-38 1509.04,-38"/>
<polygon fill="midnightblue" stroke="midnightblue" points="2476.13,-86.04 2486.71,-85.46 2478.08,-79.31 2476.13,-86.04"/>
</g>
<!-- Node4 -->
<g id="node4" class="node">
<title>Node4</title>
<g id="a_node4"><a xlink:href="net_8c.html#a0c600aed61c8a8402d31ef795df3b0b6" target="_top" xlink:title=" ">
<polygon fill="white" stroke="black" points="2023,-231.5 2023,-250.5 2108,-250.5 2108,-231.5 2023,-231.5"/>
<text text-anchor="middle" x="2065.5" y="-238.5" font-family="Helvetica,sans-Serif" font-size="10.00">coap_send_pdu</text>
</a>
</g>
</g>
<!-- Node3&#45;&gt;Node4 -->
<g id="edge3" class="edge">
<title>Node3&#45;&gt;Node4</title>
<path fill="none" stroke="midnightblue" d="M2296.66,-241C2237.92,-241 2156.66,-241 2108.07,-241"/>
<polygon fill="midnightblue" stroke="midnightblue" points="2296.99,-244.5 2306.99,-241 2296.99,-237.5 2296.99,-244.5"/>
</g>
<!-- Node33 -->
<g id="node33" class="node">
<title>Node33</title>
<g id="a_node33"><a xlink:href="group__session__internal.html#gaa8b3a2da8480911b0216dad076038cb6" target="_top" xlink:title="Notify session that it has just connected or reconnected.">
<polygon fill="white" stroke="black" points="1860,-341.5 1860,-360.5 1987,-360.5 1987,-341.5 1860,-341.5"/>
<text text-anchor="middle" x="1923.5" y="-348.5" font-family="Helvetica,sans-Serif" font-size="10.00">coap_session_connected</text>
</a>
</g>
</g>
<!-- Node3&#45;&gt;Node33 -->
<g id="edge43" class="edge">
<title>Node3&#45;&gt;Node33</title>
<path fill="none" stroke="midnightblue" d="M2319.61,-253C2230.86,-275.01 2043.78,-321.42 1962.99,-341.45"/>
<polygon fill="midnightblue" stroke="midnightblue" points="2320.55,-256.37 2329.42,-250.57 2318.87,-249.58 2320.55,-256.37"/>
</g>
<!-- Node36 -->
<g id="node36" class="node">
<title>Node36</title>
<g id="a_node36"><a xlink:href="group__session__internal.html#ga2f455ec1572982a5ae404beac0cfbd53" target="_top" xlink:title="Notify session transport has just connected and CSM exchange can now start.">
<polygon fill="white" stroke="black" points="2144,-212.5 2144,-231.5 2271,-231.5 2271,-212.5 2144,-212.5"/>
<text text-anchor="middle" x="2207.5" y="-219.5" font-family="Helvetica,sans-Serif" font-size="10.00">coap_session_send_csm</text>
</a>
</g>
</g>
<!-- Node3&#45;&gt;Node36 -->
<g id="edge50" class="edge">
<title>Node3&#45;&gt;Node36</title>
<path fill="none" stroke="midnightblue" d="M2296.82,-232.52C2288.26,-231.5 2279.56,-230.46 2271.13,-229.46"/>
<polygon fill="midnightblue" stroke="midnightblue" points="2296.45,-236 2306.79,-233.71 2297.27,-229.05 2296.45,-236"/>
</g>
<!-- Node5 -->
<g id="node5" class="node">
<title>Node5</title>
<g id="a_node5"><a xlink:href="group__context__internal.html#gaad5ccd0b3161f63c0854c2624e892ef4" target="_top" xlink:title="Handles retransmissions of confirmable messages.">
<polygon fill="white" stroke="black" points="1712.5,-303.5 1712.5,-322.5 1798.5,-322.5 1798.5,-303.5 1712.5,-303.5"/>
<text text-anchor="middle" x="1755.5" y="-310.5" font-family="Helvetica,sans-Serif" font-size="10.00">coap_retransmit</text>
</a>
</g>
</g>
<!-- Node4&#45;&gt;Node5 -->
<g id="edge4" class="edge">
<title>Node4&#45;&gt;Node5</title>
<path fill="none" stroke="midnightblue" d="M2013.51,-252.92C1953.01,-267.06 1853.35,-290.36 1797.57,-303.4"/>
<polygon fill="midnightblue" stroke="midnightblue" points="2014.66,-256.25 2023.6,-250.56 2013.07,-249.43 2014.66,-256.25"/>
</g>
<!-- Node24 -->
<g id="node24" class="node">
<title>Node24</title>
<g id="a_node24"><a xlink:href="group__context__internal.html#ga7d1802ed0aab8ba0b1e00f81c15869bd" target="_top" xlink:title="Sends a CoAP message to given peer.">
<polygon fill="white" stroke="black" points="1873,-203.5 1873,-222.5 1974,-222.5 1974,-203.5 1873,-203.5"/>
<text text-anchor="middle" x="1923.5" y="-210.5" font-family="Helvetica,sans-Serif" font-size="10.00">coap_send_internal</text>
</a>
</g>
</g>
<!-- Node4&#45;&gt;Node24 -->
<g id="edge27" class="edge">
<title>Node4&#45;&gt;Node24</title>
<path fill="none" stroke="midnightblue" d="M2012.89,-230.68C1999.55,-228.01 1985.24,-225.15 1972.11,-222.52"/>
<polygon fill="midnightblue" stroke="midnightblue" points="2012.38,-234.15 2022.87,-232.67 2013.76,-227.28 2012.38,-234.15"/>
</g>
<!-- Node6 -->
<g id="node6" class="node">
<title>Node6</title>
<g id="a_node6"><a xlink:href="group__app__io__internal.html#gaf0cbbb00a6f2f8ac885f0e1575534e34" target="_top" xlink:title="Iterates through all the coap_socket_t structures embedded in endpoints or sessions associated with t...">
<polygon fill="white" stroke="black" points="1550,-104.5 1550,-123.5 1651,-123.5 1651,-104.5 1550,-104.5"/>
<text text-anchor="middle" x="1600.5" y="-111.5" font-family="Helvetica,sans-Serif" font-size="10.00">coap_io_prepare_io</text>
</a>
</g>
</g>
<!-- Node5&#45;&gt;Node6 -->
<g id="edge5" class="edge">
<title>Node5&#45;&gt;Node6</title>
<path fill="none" stroke="midnightblue" d="M1731.86,-297.52C1717.69,-287.01 1699.77,-272.14 1687,-256 1665.05,-228.26 1669.16,-215.36 1651,-185 1637.42,-162.3 1619.12,-137.26 1609,-123.82"/>
<polygon fill="midnightblue" stroke="midnightblue" points="1729.96,-300.46 1740.12,-303.47 1734.05,-294.78 1729.96,-300.46"/>
</g>
<!-- Node7 -->
<g id="node7" class="node">
<title>Node7</title>
<g id="a_node7"><a xlink:href="group__app__io__internal.html#ga3be92476a2c2c12d68c0cd07795c7e34" target="_top" xlink:title="Any now timed out delayed packet is transmitted, along with any packets associated with requested obs...">
<polygon fill="white" stroke="black" points="1401,-66.5 1401,-85.5 1514,-85.5 1514,-66.5 1401,-66.5"/>
<text text-anchor="middle" x="1457.5" y="-73.5" font-family="Helvetica,sans-Serif" font-size="10.00">coap_io_prepare_epoll</text>
</a>
</g>
</g>
<!-- Node6&#45;&gt;Node7 -->
<g id="edge6" class="edge">
<title>Node6&#45;&gt;Node7</title>
<path fill="none" stroke="midnightblue" d="M1554.06,-101.75C1534.63,-96.52 1512.27,-90.49 1494.07,-85.59"/>
<polygon fill="midnightblue" stroke="midnightblue" points="1553.35,-105.19 1563.92,-104.41 1555.18,-98.43 1553.35,-105.19"/>
</g>
<!-- Node9 -->
<g id="node9" class="node">
<title>Node9</title>
<g id="a_node9"><a xlink:href="group__app__io.html#ga2758ed5fdd6ce79ec95ea8dbf72a5644" target="_top" xlink:title="The main message processing loop with additional fds for internal select.">
<polygon fill="white" stroke="black" points="1105,-66.5 1105,-85.5 1237,-85.5 1237,-66.5 1105,-66.5"/>
<text text-anchor="middle" x="1171" y="-73.5" font-family="Helvetica,sans-Serif" font-size="10.00">coap_io_process_with_fds</text>
</a>
</g>
</g>
<!-- Node6&#45;&gt;Node9 -->
<g id="edge25" class="edge">
<title>Node6&#45;&gt;Node9</title>
<path fill="none" stroke="midnightblue" d="M1539.76,-110.77C1474.21,-106.95 1365.95,-99.85 1273,-90 1261.03,-88.73 1248.29,-87.15 1236.04,-85.51"/>
<polygon fill="midnightblue" stroke="midnightblue" points="1539.72,-114.27 1549.91,-111.35 1540.12,-107.28 1539.72,-114.27"/>
</g>
<!-- Node23 -->
<g id="node23" class="node">
<title>Node23</title>
<g id="a_node23"><a xlink:href="net_8h.html#ab54010e3cade80e1417870c87dcd0402" target="_top" xlink:title=" ">
<polygon fill="white" stroke="black" points="1425.5,-142.5 1425.5,-161.5 1489.5,-161.5 1489.5,-142.5 1425.5,-142.5"/>
<text text-anchor="middle" x="1457.5" y="-149.5" font-family="Helvetica,sans-Serif" font-size="10.00">coap_write</text>
</a>
</g>
</g>
<!-- Node6&#45;&gt;Node23 -->
<g id="edge26" class="edge">
<title>Node6&#45;&gt;Node23</title>
<path fill="none" stroke="midnightblue" d="M1554.22,-126.2C1533.18,-131.87 1508.69,-138.47 1489.75,-143.58"/>
<polygon fill="midnightblue" stroke="midnightblue" points="1555.18,-129.57 1563.92,-123.59 1553.35,-122.81 1555.18,-129.57"/>
</g>
<!-- Node8 -->
<g id="node8" class="node">
<title>Node8</title>
<g id="a_node8"><a xlink:href="group__app__io__internal.html#ga503f851fa137eb8a9c2936e2098c5eb9" target="_top" xlink:title="Process all the epoll events.">
<polygon fill="white" stroke="black" points="1273,-28.5 1273,-47.5 1365,-47.5 1365,-28.5 1273,-28.5"/>
<text text-anchor="middle" x="1319" y="-35.5" font-family="Helvetica,sans-Serif" font-size="10.00">coap_io_do_epoll</text>
</a>
</g>
</g>
<!-- Node7&#45;&gt;Node8 -->
<g id="edge7" class="edge">
<title>Node7&#45;&gt;Node8</title>
<path fill="none" stroke="midnightblue" d="M1412.25,-63.68C1393.5,-58.46 1371.97,-52.47 1354.43,-47.59"/>
<polygon fill="midnightblue" stroke="midnightblue" points="1411.48,-67.1 1422.06,-66.41 1413.36,-60.36 1411.48,-67.1"/>
</g>
<!-- Node7&#45;&gt;Node9 -->
<g id="edge24" class="edge">
<title>Node7&#45;&gt;Node9</title>
<path fill="none" stroke="midnightblue" d="M1390.77,-76C1344.61,-76 1283.13,-76 1237.11,-76"/>
<polygon fill="midnightblue" stroke="midnightblue" points="1390.97,-79.5 1400.97,-76 1390.97,-72.5 1390.97,-79.5"/>
</g>
<!-- Node8&#45;&gt;Node9 -->
<g id="edge8" class="edge">
<title>Node8&#45;&gt;Node9</title>
<path fill="none" stroke="midnightblue" d="M1271.46,-50.11C1251.13,-55.4 1227.63,-61.52 1208.58,-66.48"/>
<polygon fill="midnightblue" stroke="midnightblue" points="1272.36,-53.5 1281.16,-47.59 1270.6,-46.72 1272.36,-53.5"/>
</g>
<!-- Node10 -->
<g id="node10" class="node">
<title>Node10</title>
<g id="a_node10"><a xlink:href="group__app__io.html#ga082f7bbf15d3f37c31c2a0a5e78ea4cf" target="_top" xlink:title="The main I/O processing function.">
<polygon fill="white" stroke="black" points="979,-123.5 979,-142.5 1069,-142.5 1069,-123.5 979,-123.5"/>
<text text-anchor="middle" x="1024" y="-130.5" font-family="Helvetica,sans-Serif" font-size="10.00">coap_io_process</text>
</a>
</g>
</g>
<!-- Node9&#45;&gt;Node10 -->
<g id="edge9" class="edge">
<title>Node9&#45;&gt;Node10</title>
<path fill="none" stroke="midnightblue" d="M1136.41,-89.2C1109.79,-99.67 1073.22,-114.05 1049.35,-123.43"/>
<polygon fill="midnightblue" stroke="midnightblue" points="1137.7,-92.46 1145.73,-85.54 1135.14,-85.94 1137.7,-92.46"/>
</g>
<!-- Node11 -->
<g id="node11" class="node">
<title>Node11</title>
<g id="a_node11"><a xlink:href="group__context__internal.html#ga5d013d40174c7c217b24bf624f9d7310" target="_top" xlink:title="Delay the sending of the first client request until some other negotiation has completed.">
<polygon fill="white" stroke="black" points="827,-180.5 827,-199.5 943,-199.5 943,-180.5 827,-180.5"/>
<text text-anchor="middle" x="885" y="-187.5" font-family="Helvetica,sans-Serif" font-size="10.00">coap_client_delay_first</text>
</a>
</g>
</g>
<!-- Node10&#45;&gt;Node11 -->
<g id="edge10" class="edge">
<title>Node10&#45;&gt;Node11</title>
<path fill="none" stroke="midnightblue" d="M995.18,-147.24C979.97,-154.76 960.67,-163.89 943,-171 934.68,-174.35 925.51,-177.59 917.01,-180.42"/>
<polygon fill="midnightblue" stroke="midnightblue" points="997.16,-150.16 1004.54,-142.56 994.03,-143.9 997.16,-150.16"/>
</g>
<!-- Node21 -->
<g id="node21" class="node">
<title>Node21</title>
<g id="a_node21"><a xlink:href="group__app__io.html#gaca10debdb496ee890c45fe49a5799330" target="_top" xlink:title="Check to see if there is any i/o pending for the context.">
<polygon fill="white" stroke="black" points="840.5,-142.5 840.5,-161.5 929.5,-161.5 929.5,-142.5 840.5,-142.5"/>
<text text-anchor="middle" x="885" y="-149.5" font-family="Helvetica,sans-Serif" font-size="10.00">coap_io_pending</text>
</a>
</g>
</g>
<!-- Node10&#45;&gt;Node21 -->
<g id="edge22" class="edge">
<title>Node10&#45;&gt;Node21</title>
<path fill="none" stroke="midnightblue" d="M968.67,-140.53C955.68,-142.34 941.98,-144.24 929.55,-145.96"/>
<polygon fill="midnightblue" stroke="midnightblue" points="969.47,-143.96 978.9,-139.12 968.51,-137.02 969.47,-143.96"/>
</g>
<!-- Node22 -->
<g id="node22" class="node">
<title>Node22</title>
<g id="a_node22"><a xlink:href="net_8h.html#ac6b34aa979ec545eb710e45a26c98fc1" target="_top" xlink:title=" ">
<polygon fill="white" stroke="black" points="843.5,-104.5 843.5,-123.5 926.5,-123.5 926.5,-104.5 843.5,-104.5"/>
<text text-anchor="middle" x="885" y="-111.5" font-family="Helvetica,sans-Serif" font-size="10.00">coap_run_once</text>
</a>
</g>
</g>
<!-- Node10&#45;&gt;Node22 -->
<g id="edge23" class="edge">
<title>Node10&#45;&gt;Node22</title>
<path fill="none" stroke="midnightblue" d="M968.87,-125.49C954.84,-123.55 939.98,-121.49 926.77,-119.65"/>
<polygon fill="midnightblue" stroke="midnightblue" points="968.51,-128.98 978.9,-126.88 969.47,-122.04 968.51,-128.98"/>
</g>
<!-- Node12 -->
<g id="node12" class="node">
<title>Node12</title>
<g id="a_node12"><a xlink:href="group__session.html#ga4368ee622c681bf7cf0b7cfe99c8ab37" target="_top" xlink:title="Get maximum acceptable PDU size.">
<polygon fill="white" stroke="black" points="646,-180.5 646,-199.5 791,-199.5 791,-180.5 646,-180.5"/>
<text text-anchor="middle" x="718.5" y="-187.5" font-family="Helvetica,sans-Serif" font-size="10.00">coap_session_max_pdu_size</text>
</a>
</g>
</g>
<!-- Node11&#45;&gt;Node12 -->
<g id="edge11" class="edge">
<title>Node11&#45;&gt;Node12</title>
<path fill="none" stroke="midnightblue" d="M816.79,-190C808.37,-190 799.74,-190 791.25,-190"/>
<polygon fill="midnightblue" stroke="midnightblue" points="816.93,-193.5 826.93,-190 816.93,-186.5 816.93,-193.5"/>
</g>
<!-- Node13 -->
<g id="node13" class="node">
<title>Node13</title>
<g id="a_node13"><a xlink:href="group__context__internal.html#gae6b8ca457dd41f23372f9e9a7159312b" target="_top" xlink:title="Parses and interprets a CoAP datagram with context ctx.">
<polygon fill="white" stroke="black" points="506,-218.5 506,-237.5 610,-237.5 610,-218.5 506,-218.5"/>
<text text-anchor="middle" x="558" y="-225.5" font-family="Helvetica,sans-Serif" font-size="10.00">coap_handle_dgram</text>
</a>
</g>
</g>
<!-- Node12&#45;&gt;Node13 -->
<g id="edge12" class="edge">
<title>Node12&#45;&gt;Node13</title>
<path fill="none" stroke="midnightblue" d="M667.58,-201.97C645.37,-207.29 619.58,-213.48 598.71,-218.48"/>
<polygon fill="midnightblue" stroke="midnightblue" points="668.6,-205.32 677.5,-199.59 666.96,-198.52 668.6,-205.32"/>
</g>
<!-- Node18 -->
<g id="node18" class="node">
<title>Node18</title>
<g id="a_node18"><a xlink:href="group__pdu.html#ga6ab63e25c7c9eed3de00b0e1153b33b6" target="_top" xlink:title="Creates a new CoAP PDU.">
<polygon fill="white" stroke="black" points="517,-142.5 517,-161.5 599,-161.5 599,-142.5 517,-142.5"/>
<text text-anchor="middle" x="558" y="-149.5" font-family="Helvetica,sans-Serif" font-size="10.00">coap_new_pdu</text>
</a>
</g>
</g>
<!-- Node12&#45;&gt;Node18 -->
<g id="edge19" class="edge">
<title>Node12&#45;&gt;Node18</title>
<path fill="none" stroke="midnightblue" d="M667.58,-178.03C645.37,-172.71 619.58,-166.52 598.71,-161.52"/>
<polygon fill="midnightblue" stroke="midnightblue" points="666.96,-181.48 677.5,-180.41 668.6,-174.68 666.96,-181.48"/>
</g>
<!-- Node19 -->
<g id="node19" class="node">
<title>Node19</title>
<g id="a_node19"><a xlink:href="group__pdu.html#gabf10450d37381b133fb780480b4fca1b" target="_top" xlink:title="Duplicate an existing PDU.">
<polygon fill="white" stroke="black" points="506.5,-180.5 506.5,-199.5 609.5,-199.5 609.5,-180.5 506.5,-180.5"/>
<text text-anchor="middle" x="558" y="-187.5" font-family="Helvetica,sans-Serif" font-size="10.00">coap_pdu_duplicate</text>
</a>
</g>
</g>
<!-- Node12&#45;&gt;Node19 -->
<g id="edge20" class="edge">
<title>Node12&#45;&gt;Node19</title>
<path fill="none" stroke="midnightblue" d="M635.41,-190C626.67,-190 617.97,-190 609.75,-190"/>
<polygon fill="midnightblue" stroke="midnightblue" points="635.67,-193.5 645.67,-190 635.67,-186.5 635.67,-193.5"/>
</g>
<!-- Node14 -->
<g id="node14" class="node">
<title>Node14</title>
<g id="a_node14"><a xlink:href="net_8c.html#a8534f7860b14e0743529daff196a27ce" target="_top" xlink:title=" ">
<polygon fill="white" stroke="black" points="350,-213 350,-243 470,-243 470,-213 350,-213"/>
<text text-anchor="start" x="358" y="-231" font-family="Helvetica,sans-Serif" font-size="10.00">coap_handle_dgram_for</text>
<text text-anchor="middle" x="410" y="-220" font-family="Helvetica,sans-Serif" font-size="10.00">_proto</text>
</a>
</g>
</g>
<!-- Node13&#45;&gt;Node14 -->
<g id="edge13" class="edge">
<title>Node13&#45;&gt;Node14</title>
<path fill="none" stroke="midnightblue" d="M495.71,-228C487.21,-228 478.49,-228 470.04,-228"/>
<polygon fill="midnightblue" stroke="midnightblue" points="495.94,-231.5 505.94,-228 495.94,-224.5 495.94,-231.5"/>
</g>
<!-- Node15 -->
<g id="node15" class="node">
<title>Node15</title>
<g id="a_node15"><a xlink:href="net_8c.html#acd36f6fba6d30ab9557e0e6521f4a088" target="_top" xlink:title=" ">
<polygon fill="white" stroke="black" points="213,-161.5 213,-180.5 314,-180.5 314,-161.5 213,-161.5"/>
<text text-anchor="middle" x="263.5" y="-168.5" font-family="Helvetica,sans-Serif" font-size="10.00">coap_read_session</text>
</a>
</g>
</g>
<!-- Node14&#45;&gt;Node15 -->
<g id="edge14" class="edge">
<title>Node14&#45;&gt;Node15</title>
<path fill="none" stroke="midnightblue" d="M361.26,-209.17C337.05,-199.62 308.67,-188.42 288.93,-180.64"/>
<polygon fill="midnightblue" stroke="midnightblue" points="360.07,-212.46 370.66,-212.87 362.64,-205.95 360.07,-212.46"/>
</g>
<!-- Node15&#45;&gt;Node8 -->
<g id="edge15" class="edge">
<title>Node15&#45;&gt;Node8</title>
<path fill="none" stroke="midnightblue" d="M291.89,-156.96C361.2,-122.78 549.97,-38 717.5,-38 1025,-38 1025,-38 1025,-38 1112.75,-38 1215.28,-38 1272.83,-38"/>
<polygon fill="midnightblue" stroke="midnightblue" points="290.3,-153.84 282.91,-161.43 293.43,-160.11 290.3,-153.84"/>
</g>
<!-- Node16 -->
<g id="node16" class="node">
<title>Node16</title>
<g id="a_node16"><a xlink:href="group__app__io__internal.html#ga2208802b0711ad20df07271b751b41dc" target="_top" xlink:title="Processes any outstanding read, write, accept or connect I/O as indicated in the coap_socket_t struct...">
<polygon fill="white" stroke="black" points="98,-66.5 98,-85.5 177,-85.5 177,-66.5 98,-66.5"/>
<text text-anchor="middle" x="137.5" y="-73.5" font-family="Helvetica,sans-Serif" font-size="10.00">coap_io_do_io</text>
</a>
</g>
</g>
<!-- Node15&#45;&gt;Node16 -->
<g id="edge16" class="edge">
<title>Node15&#45;&gt;Node16</title>
<path fill="none" stroke="midnightblue" d="M241.64,-155.01C215.72,-135.16 172.33,-101.92 151.05,-85.61"/>
<polygon fill="midnightblue" stroke="midnightblue" points="239.63,-157.89 249.7,-161.19 243.89,-152.33 239.63,-157.89"/>
</g>
<!-- Node16&#45;&gt;Node9 -->
<g id="edge17" class="edge">
<title>Node16&#45;&gt;Node9</title>
<path fill="none" stroke="midnightblue" d="M187.03,-76C241.17,-76 331.35,-76 409,-76 886,-76 886,-76 886,-76 961.07,-76 1047.3,-76 1104.86,-76"/>
<polygon fill="midnightblue" stroke="midnightblue" points="187.02,-72.5 177.02,-76 187.02,-79.5 187.02,-72.5"/>
</g>
<!-- Node17 -->
<g id="node17" class="node">
<title>Node17</title>
<g id="a_node17"><a xlink:href="net_8h.html#af937985e2b14a287a849663574d59bcb" target="_top" xlink:title=" ">
<polygon fill="white" stroke="black" points="0,-66.5 0,-85.5 62,-85.5 62,-66.5 0,-66.5"/>
<text text-anchor="middle" x="31" y="-73.5" font-family="Helvetica,sans-Serif" font-size="10.00">coap_read</text>
</a>
</g>
</g>
<!-- Node16&#45;&gt;Node17 -->
<g id="edge18" class="edge">
<title>Node16&#45;&gt;Node17</title>
<path fill="none" stroke="midnightblue" d="M87.8,-76C79.11,-76 70.28,-76 62.29,-76"/>
<polygon fill="midnightblue" stroke="midnightblue" points="87.88,-79.5 97.88,-76 87.88,-72.5 87.88,-79.5"/>
</g>
<!-- Node20 -->
<g id="node20" class="node">
<title>Node20</title>
<g id="a_node20"><a xlink:href="group__coap__async.html#ga14b20d8c5bf07bdda9f8bc6777540a84" target="_top" xlink:title="Allocates a new coap_async_t object and fills its fields according to the given request.">
<polygon fill="white" stroke="black" points="356.5,-174.5 356.5,-193.5 463.5,-193.5 463.5,-174.5 356.5,-174.5"/>
<text text-anchor="middle" x="410" y="-181.5" font-family="Helvetica,sans-Serif" font-size="10.00">coap_register_async</text>
</a>
</g>
</g>
<!-- Node19&#45;&gt;Node20 -->
<g id="edge21" class="edge">
<title>Node19&#45;&gt;Node20</title>
<path fill="none" stroke="midnightblue" d="M496.12,-187.5C485.3,-187.05 474.11,-186.59 463.55,-186.16"/>
<polygon fill="midnightblue" stroke="midnightblue" points="496.21,-191 506.35,-187.92 496.5,-184.01 496.21,-191"/>
</g>
<!-- Node25 -->
<g id="node25" class="node">
<title>Node25</title>
<g id="a_node25"><a xlink:href="group__context__internal.html#ga7bb944fc52f772655356d95724317401" target="_top" xlink:title="Dispatches the PDUs from the receive queue in given context.">
<polygon fill="white" stroke="black" points="1417.5,-275.5 1417.5,-294.5 1497.5,-294.5 1497.5,-275.5 1417.5,-275.5"/>
<text text-anchor="middle" x="1457.5" y="-282.5" font-family="Helvetica,sans-Serif" font-size="10.00">coap_dispatch</text>
</a>
</g>
</g>
<!-- Node24&#45;&gt;Node25 -->
<g id="edge28" class="edge">
<title>Node24&#45;&gt;Node25</title>
<path fill="none" stroke="midnightblue" d="M1896.24,-227.33C1876.87,-237.19 1849.55,-249.6 1824,-256 1707.92,-285.07 1565.21,-287.08 1497.59,-286.1"/>
<polygon fill="midnightblue" stroke="midnightblue" points="1898.08,-230.32 1905.33,-222.6 1894.84,-224.12 1898.08,-230.32"/>
</g>
<!-- Node26 -->
<g id="node26" class="node">
<title>Node26</title>
<g id="a_node26"><a xlink:href="group__context.html#gaeadf53fc0202c2a9c881406d4aa12a4c" target="_top" xlink:title="Sends a CoAP message to given peer.">
<polygon fill="white" stroke="black" points="1723.5,-189.5 1723.5,-208.5 1787.5,-208.5 1787.5,-189.5 1723.5,-189.5"/>
<text text-anchor="middle" x="1755.5" y="-196.5" font-family="Helvetica,sans-Serif" font-size="10.00">coap_send</text>
</a>
</g>
</g>
<!-- Node24&#45;&gt;Node26 -->
<g id="edge31" class="edge">
<title>Node24&#45;&gt;Node26</title>
<path fill="none" stroke="midnightblue" d="M1862.47,-207.94C1837.26,-205.81 1808.97,-203.43 1787.97,-201.65"/>
<polygon fill="midnightblue" stroke="midnightblue" points="1862.44,-211.45 1872.69,-208.8 1863.02,-204.47 1862.44,-211.45"/>
</g>
<!-- Node27 -->
<g id="node27" class="node">
<title>Node27</title>
<g id="a_node27"><a xlink:href="group__context.html#ga059557785c3f40b683269ba4090203e8" target="_top" xlink:title="Sends an ACK message with code 0 for the specified request to dst.">
<polygon fill="white" stroke="black" points="1713,-151.5 1713,-170.5 1798,-170.5 1798,-151.5 1713,-151.5"/>
<text text-anchor="middle" x="1755.5" y="-158.5" font-family="Helvetica,sans-Serif" font-size="10.00">coap_send_ack</text>
</a>
</g>
</g>
<!-- Node24&#45;&gt;Node27 -->
<g id="edge32" class="edge">
<title>Node24&#45;&gt;Node27</title>
<path fill="none" stroke="midnightblue" d="M1885.53,-200.14C1867.11,-193.85 1844.45,-186.3 1824,-180 1813.53,-176.77 1802.08,-173.47 1791.63,-170.54"/>
<polygon fill="midnightblue" stroke="midnightblue" points="1884.42,-203.46 1895.02,-203.39 1886.7,-196.84 1884.42,-203.46"/>
</g>
<!-- Node28 -->
<g id="node28" class="node">
<title>Node28</title>
<g id="a_node28"><a xlink:href="group__context.html#ga95c41b8af7a987b4e376db0a70370006" target="_top" xlink:title="Sends an error response with code code for request request to dst.">
<polygon fill="white" stroke="black" points="1711,-113.5 1711,-132.5 1800,-132.5 1800,-113.5 1711,-113.5"/>
<text text-anchor="middle" x="1755.5" y="-120.5" font-family="Helvetica,sans-Serif" font-size="10.00">coap_send_error</text>
</a>
</g>
</g>
<!-- Node24&#45;&gt;Node28 -->
<g id="edge33" class="edge">
<title>Node24&#45;&gt;Node28</title>
<path fill="none" stroke="midnightblue" d="M1903.99,-196.59C1885.09,-180.59 1854.3,-156.61 1824,-142 1816.21,-138.24 1807.56,-135.11 1799.11,-132.54"/>
<polygon fill="midnightblue" stroke="midnightblue" points="1901.94,-199.43 1911.8,-203.31 1906.51,-194.13 1901.94,-199.43"/>
</g>
<!-- Node29 -->
<g id="node29" class="node">
<title>Node29</title>
<g id="a_node29"><a xlink:href="group__context.html#ga8f46c87e4908ae0ee8c9a0e3e15f8f4a" target="_top" xlink:title="Helper function to create and send a message with type (usually ACK or RST).">
<polygon fill="white" stroke="black" points="1689,-227.5 1689,-246.5 1822,-246.5 1822,-227.5 1689,-227.5"/>
<text text-anchor="middle" x="1755.5" y="-234.5" font-family="Helvetica,sans-Serif" font-size="10.00">coap_send_message_type</text>
</a>
</g>
</g>
<!-- Node24&#45;&gt;Node29 -->
<g id="edge34" class="edge">
<title>Node24&#45;&gt;Node29</title>
<path fill="none" stroke="midnightblue" d="M1862.43,-221.68C1849.38,-223.57 1835.51,-225.58 1822.25,-227.49"/>
<polygon fill="midnightblue" stroke="midnightblue" points="1863.3,-225.1 1872.69,-220.2 1862.3,-218.17 1863.3,-225.1"/>
</g>
<!-- Node31 -->
<g id="node31" class="node">
<title>Node31</title>
<g id="a_node31"><a xlink:href="coap__session_8c.html#a1aeb41a0f4f9a70e4ff5f58cdae96b5a" target="_top" xlink:title="Send a ping message for the session.">
<polygon fill="white" stroke="black" points="1692.5,-75.5 1692.5,-94.5 1818.5,-94.5 1818.5,-75.5 1692.5,-75.5"/>
<text text-anchor="middle" x="1755.5" y="-82.5" font-family="Helvetica,sans-Serif" font-size="10.00">coap_session_send_ping</text>
</a>
</g>
</g>
<!-- Node24&#45;&gt;Node31 -->
<g id="edge39" class="edge">
<title>Node24&#45;&gt;Node31</title>
<path fill="none" stroke="midnightblue" d="M1910.99,-194.88C1894.61,-170.58 1862.27,-127.74 1824,-104 1817.79,-100.15 1810.79,-97.06 1803.7,-94.59"/>
<polygon fill="midnightblue" stroke="midnightblue" points="1908.23,-197.06 1916.65,-203.49 1914.08,-193.21 1908.23,-197.06"/>
</g>
<!-- Node32 -->
<g id="node32" class="node">
<title>Node32</title>
<g id="a_node32"><a xlink:href="net_8c.html#ac4cbcfd073489b57805db665ce3d0681" target="_top" xlink:title=" ">
<polygon fill="white" stroke="black" points="1711,-341.5 1711,-360.5 1800,-360.5 1800,-341.5 1711,-341.5"/>
<text text-anchor="middle" x="1755.5" y="-348.5" font-family="Helvetica,sans-Serif" font-size="10.00">handle_signaling</text>
</a>
</g>
</g>
<!-- Node24&#45;&gt;Node32 -->
<g id="edge41" class="edge">
<title>Node24&#45;&gt;Node32</title>
<path fill="none" stroke="midnightblue" d="M1912.08,-231.66C1896.4,-258.01 1864.26,-305.8 1824,-332 1816.86,-336.65 1808.57,-340.17 1800.31,-342.85"/>
<polygon fill="midnightblue" stroke="midnightblue" points="1915.28,-233.11 1917.26,-222.71 1909.22,-229.61 1915.28,-233.11"/>
</g>
<!-- Node25&#45;&gt;Node13 -->
<g id="edge29" class="edge">
<title>Node25&#45;&gt;Node13</title>
<path fill="none" stroke="midnightblue" d="M1407.33,-279.72C1350.66,-274.1 1254.72,-266 1172,-266 1172,-266 1172,-266 884,-266 786.15,-266 672.84,-248.8 609.17,-237.54"/>
<polygon fill="midnightblue" stroke="midnightblue" points="1407.14,-283.22 1417.44,-280.74 1407.84,-276.25 1407.14,-283.22"/>
</g>
<!-- Node25&#45;&gt;Node15 -->
<g id="edge30" class="edge">
<title>Node25&#45;&gt;Node15</title>
<path fill="none" stroke="midnightblue" d="M1407.33,-290.28C1350.66,-295.9 1254.72,-304 1172,-304 1172,-304 1172,-304 557,-304 462.14,-304 433.14,-297.66 350,-252 315.95,-233.3 285.34,-197.74 271.83,-180.65"/>
<polygon fill="midnightblue" stroke="midnightblue" points="1407.84,-293.75 1417.44,-289.26 1407.14,-286.78 1407.84,-293.75"/>
</g>
<!-- Node29&#45;&gt;Node25 -->
<g id="edge35" class="edge">
<title>Node29&#45;&gt;Node25</title>
<path fill="none" stroke="midnightblue" d="M1678.81,-246.56C1640.17,-251.74 1592.48,-258.59 1550,-266 1532.74,-269.01 1513.76,-272.87 1497.58,-276.31"/>
<polygon fill="midnightblue" stroke="midnightblue" points="1679.49,-250 1688.94,-245.21 1678.57,-243.06 1679.49,-250"/>
</g>
<!-- Node30 -->
<g id="node30" class="node">
<title>Node30</title>
<g id="a_node30"><a xlink:href="group__context.html#ga7f4dd3326d1d0619a5baa9812bef6906" target="_top" xlink:title="Sends an RST message with code 0 for the specified request to dst.">
<polygon fill="white" stroke="black" points="1560.5,-194.5 1560.5,-213.5 1640.5,-213.5 1640.5,-194.5 1560.5,-194.5"/>
<text text-anchor="middle" x="1600.5" y="-201.5" font-family="Helvetica,sans-Serif" font-size="10.00">coap_send_rst</text>
</a>
</g>
</g>
<!-- Node29&#45;&gt;Node30 -->
<g id="edge36" class="edge">
<title>Node29&#45;&gt;Node30</title>
<path fill="none" stroke="midnightblue" d="M1700.2,-225.29C1680.57,-221.05 1658.8,-216.36 1640.71,-212.46"/>
<polygon fill="midnightblue" stroke="midnightblue" points="1699.73,-228.77 1710.25,-227.46 1701.21,-221.93 1699.73,-228.77"/>
</g>
<!-- Node30&#45;&gt;Node13 -->
<g id="edge38" class="edge">
<title>Node30&#45;&gt;Node13</title>
<path fill="none" stroke="midnightblue" d="M1550.29,-210.79C1494.55,-217.89 1400.92,-228 1320,-228 1320,-228 1320,-228 884,-228 787.23,-228 674.26,-228 610.22,-228"/>
<polygon fill="midnightblue" stroke="midnightblue" points="1550.78,-214.26 1560.25,-209.51 1549.88,-207.32 1550.78,-214.26"/>
</g>
<!-- Node30&#45;&gt;Node25 -->
<g id="edge37" class="edge">
<title>Node30&#45;&gt;Node25</title>
<path fill="none" stroke="midnightblue" d="M1569.37,-217.98C1562.92,-221.15 1556.18,-224.59 1550,-228 1521.98,-243.46 1490.57,-263.7 1472.8,-275.44"/>
<polygon fill="midnightblue" stroke="midnightblue" points="1571.05,-221.06 1578.54,-213.56 1568.01,-214.75 1571.05,-221.06"/>
</g>
<!-- Node31&#45;&gt;Node6 -->
<g id="edge40" class="edge">
<title>Node31&#45;&gt;Node6</title>
<path fill="none" stroke="midnightblue" d="M1693.84,-96.5C1679.69,-99.18 1664.79,-102 1651.19,-104.58"/>
<polygon fill="midnightblue" stroke="midnightblue" points="1694.8,-99.88 1703.98,-94.58 1693.5,-93 1694.8,-99.88"/>
</g>
<!-- Node32&#45;&gt;Node25 -->
<g id="edge42" class="edge">
<title>Node32&#45;&gt;Node25</title>
<path fill="none" stroke="midnightblue" d="M1701.99,-339.29C1643.55,-326.26 1550.43,-305.5 1497.9,-293.79"/>
<polygon fill="midnightblue" stroke="midnightblue" points="1701.25,-342.71 1711.78,-341.47 1702.78,-335.88 1701.25,-342.71"/>
</g>
<!-- Node33&#45;&gt;Node5 -->
<g id="edge48" class="edge">
<title>Node33&#45;&gt;Node5</title>
<path fill="none" stroke="midnightblue" d="M1870.85,-339.18C1847.44,-333.82 1820.14,-327.57 1798.09,-322.52"/>
<polygon fill="midnightblue" stroke="midnightblue" points="1870.08,-342.59 1880.61,-341.41 1871.64,-335.77 1870.08,-342.59"/>
</g>
<!-- Node33&#45;&gt;Node25 -->
<g id="edge47" class="edge">
<title>Node33&#45;&gt;Node25</title>
<path fill="none" stroke="midnightblue" d="M1872.59,-362.54C1857.11,-365.6 1839.93,-368.48 1824,-370 1701.55,-381.7 1664.61,-375.66 1550,-331 1523,-320.48 1493.29,-304.71 1475.26,-294.64"/>
<polygon fill="midnightblue" stroke="midnightblue" points="1873.4,-365.95 1882.5,-360.51 1872,-359.09 1873.4,-365.95"/>
</g>
<!-- Node33&#45;&gt;Node32 -->
<g id="edge49" class="edge">
<title>Node33&#45;&gt;Node32</title>
<path fill="none" stroke="midnightblue" d="M1849.4,-351C1832.63,-351 1815.31,-351 1800.24,-351"/>
<polygon fill="midnightblue" stroke="midnightblue" points="1849.74,-354.5 1859.74,-351 1849.74,-347.5 1849.74,-354.5"/>
</g>
<!-- Node34 -->
<g id="node34" class="node">
<title>Node34</title>
<g id="a_node34"><a xlink:href="group__context__internal.html#gab0ffe6312ad95fb07b0212f912cf196c" target="_top" xlink:title="Cancels all outstanding messages for session session that have the specified token.">
<polygon fill="white" stroke="black" points="1687,-417.5 1687,-436.5 1824,-436.5 1824,-417.5 1687,-417.5"/>
<text text-anchor="middle" x="1755.5" y="-424.5" font-family="Helvetica,sans-Serif" font-size="10.00">coap_cancel_all_messages</text>
</a>
</g>
</g>
<!-- Node33&#45;&gt;Node34 -->
<g id="edge44" class="edge">
<title>Node33&#45;&gt;Node34</title>
<path fill="none" stroke="midnightblue" d="M1897.23,-365.64C1877.62,-376.67 1849.56,-391.78 1824,-403 1811.93,-408.3 1798.28,-413.33 1786.43,-417.4"/>
<polygon fill="midnightblue" stroke="midnightblue" points="1899.16,-368.56 1906.13,-360.58 1895.71,-362.48 1899.16,-368.56"/>
</g>
<!-- Node35 -->
<g id="node35" class="node">
<title>Node35</title>
<g id="a_node35"><a xlink:href="net_8c.html#a6b355153e3bba3af3df1e72f33ced85c" target="_top" xlink:title="This function cancels outstanding messages for the session and token specified in sent.">
<polygon fill="white" stroke="black" points="1565,-417.5 1565,-436.5 1636,-436.5 1636,-417.5 1565,-417.5"/>
<text text-anchor="middle" x="1600.5" y="-424.5" font-family="Helvetica,sans-Serif" font-size="10.00">coap_cancel</text>
</a>
</g>
</g>
<!-- Node34&#45;&gt;Node35 -->
<g id="edge45" class="edge">
<title>Node34&#45;&gt;Node35</title>
<path fill="none" stroke="midnightblue" d="M1676.68,-427C1662.55,-427 1648.48,-427 1636.4,-427"/>
<polygon fill="midnightblue" stroke="midnightblue" points="1676.95,-430.5 1686.95,-427 1676.95,-423.5 1676.95,-430.5"/>
</g>
<!-- Node35&#45;&gt;Node25 -->
<g id="edge46" class="edge">
<title>Node35&#45;&gt;Node25</title>
<path fill="none" stroke="midnightblue" d="M1565.26,-412.99C1559.9,-410.08 1554.61,-406.74 1550,-403 1509.73,-370.35 1476.53,-316.69 1463.94,-294.78"/>
<polygon fill="midnightblue" stroke="midnightblue" points="1563.75,-416.14 1574.26,-417.48 1566.88,-409.88 1563.75,-416.14"/>
</g>
<!-- Node36&#45;&gt;Node4 -->
<g id="edge51" class="edge">
<title>Node36&#45;&gt;Node4</title>
<path fill="none" stroke="midnightblue" d="M2133.92,-231.85C2125.1,-233.05 2116.34,-234.24 2108.19,-235.34"/>
<polygon fill="midnightblue" stroke="midnightblue" points="2134.43,-235.31 2143.87,-230.5 2133.49,-228.38 2134.43,-235.31"/>
</g>
<!-- Node37&#45;&gt;Node8 -->
<g id="edge53" class="edge">
<title>Node37&#45;&gt;Node8</title>
<path fill="none" stroke="midnightblue" d="M1395.52,-38C1385.27,-38 1374.79,-38 1365.03,-38"/>
<polygon fill="midnightblue" stroke="midnightblue" points="1395.67,-41.5 1405.67,-38 1395.67,-34.5 1395.67,-41.5"/>
</g>
<!-- Node37&#45;&gt;Node16 -->
<g id="edge54" class="edge">
<title>Node37&#45;&gt;Node16</title>
<path fill="none" stroke="midnightblue" d="M1405.41,-26.39C1392.29,-23.68 1378.16,-21.01 1365,-19 1279.79,-6 1258.19,0 1172,0 1172,0 1172,0 409,0 311.93,0 202.32,-45.92 158.32,-66.37"/>
<polygon fill="midnightblue" stroke="midnightblue" points="1404.71,-29.82 1415.22,-28.45 1406.16,-22.97 1404.71,-29.82"/>
</g>
</g>
</svg>
