<?xml version="1.0" encoding="UTF-8" standalone="no"?>
<!DOCTYPE svg PUBLIC "-//W3C//DTD SVG 1.1//EN"
 "http://www.w3.org/Graphics/SVG/1.1/DTD/svg11.dtd">
<!-- Generated by graphviz version 2.43.0 (0)
 -->
<!-- Title: get_asn1_tag Pages: 1 -->
<svg width="502pt" height="104pt"
 viewBox="0.00 0.00 502.00 104.00" xmlns="http://www.w3.org/2000/svg" xmlns:xlink="http://www.w3.org/1999/xlink">
<g id="graph0" class="graph" transform="scale(1 1) rotate(0) translate(4 100)">
<title>get_asn1_tag</title>
<polygon fill="white" stroke="transparent" points="-4,4 -4,-100 498,-100 498,4 -4,4"/>
<!-- Node1 -->
<g id="node1" class="node">
<title>Node1</title>
<g id="a_node1"><a xlink:title="Get the asn1 tag and data from the current ptr.">
<polygon fill="#bfbfbf" stroke="black" points="0,-38.5 0,-57.5 82,-57.5 82,-38.5 0,-38.5"/>
<text text-anchor="middle" x="41" y="-45.5" font-family="Helvetica,sans-Serif" font-size="10.00">get_asn1_tag</text>
</a>
</g>
</g>
<!-- Node1&#45;&gt;Node1 -->
<g id="edge6" class="edge">
<title>Node1&#45;&gt;Node1</title>
<path fill="none" stroke="midnightblue" d="M21.58,-57.76C12.13,-66.57 18.61,-76 41,-76 55.35,-76 63.16,-72.13 64.44,-67.03"/>
<polygon fill="midnightblue" stroke="midnightblue" points="67.61,-65.54 60.42,-57.76 61.18,-68.32 67.61,-65.54"/>
</g>
<!-- Node2 -->
<g id="node2" class="node">
<title>Node2</title>
<g id="a_node2"><a xlink:href="group__asn1.html#gab0b2cdf4081790ee762743d5557c2706" target="_top" xlink:title="Get the asn1 length from the current ptr.">
<polygon fill="white" stroke="black" points="138.5,-76.5 138.5,-95.5 198.5,-95.5 198.5,-76.5 138.5,-76.5"/>
<text text-anchor="middle" x="168.5" y="-83.5" font-family="Helvetica,sans-Serif" font-size="10.00">asn1_len</text>
</a>
</g>
</g>
<!-- Node1&#45;&gt;Node2 -->
<g id="edge1" class="edge">
<title>Node1&#45;&gt;Node2</title>
<path fill="none" stroke="midnightblue" d="M73.67,-57.59C90.3,-62.62 110.83,-68.84 128.44,-74.17"/>
<polygon fill="midnightblue" stroke="midnightblue" points="127.84,-77.65 138.42,-77.2 129.87,-70.95 127.84,-77.65"/>
</g>
<!-- Node3 -->
<g id="node3" class="node">
<title>Node3</title>
<g id="a_node3"><a xlink:href="group__asn1.html#ga3ae904a62e7e1d1326b61a04d1de1333" target="_top" xlink:title="Get the asn1 tag from the current ptr.">
<polygon fill="white" stroke="black" points="133,-38.5 133,-57.5 204,-57.5 204,-38.5 133,-38.5"/>
<text text-anchor="middle" x="168.5" y="-45.5" font-family="Helvetica,sans-Serif" font-size="10.00">asn1_tag_c</text>
</a>
</g>
</g>
<!-- Node1&#45;&gt;Node3 -->
<g id="edge2" class="edge">
<title>Node1&#45;&gt;Node3</title>
<path fill="none" stroke="midnightblue" d="M82.05,-48C94.96,-48 109.35,-48 122.58,-48"/>
<polygon fill="midnightblue" stroke="midnightblue" points="122.89,-51.5 132.89,-48 122.89,-44.5 122.89,-51.5"/>
</g>
<!-- Node4 -->
<g id="node4" class="node">
<title>Node4</title>
<g id="a_node4"><a xlink:href="group__string.html#ga4ddcb94c1d26bd87a5ed1af801f35793" target="_top" xlink:title="Returns a new binary object with at least size bytes storage allocated.">
<polygon fill="white" stroke="black" points="118,-0.5 118,-19.5 219,-19.5 219,-0.5 118,-0.5"/>
<text text-anchor="middle" x="168.5" y="-7.5" font-family="Helvetica,sans-Serif" font-size="10.00">coap_new_binary</text>
</a>
</g>
</g>
<!-- Node1&#45;&gt;Node4 -->
<g id="edge3" class="edge">
<title>Node1&#45;&gt;Node4</title>
<path fill="none" stroke="midnightblue" d="M73.67,-38.41C89.57,-33.6 109.04,-27.7 126.11,-22.53"/>
<polygon fill="midnightblue" stroke="midnightblue" points="127.28,-25.83 135.84,-19.59 125.26,-19.13 127.28,-25.83"/>
</g>
<!-- Node5 -->
<g id="node5" class="node">
<title>Node5</title>
<g id="a_node5"><a xlink:href="group__string.html#ga9862b1ade5e6e2eb01aabd0fa98b63e1" target="_top" xlink:title="Returns a new string object with at least size+1 bytes storage allocated.">
<polygon fill="white" stroke="black" points="255,-0.5 255,-19.5 353,-19.5 353,-0.5 255,-0.5"/>
<text text-anchor="middle" x="304" y="-7.5" font-family="Helvetica,sans-Serif" font-size="10.00">coap_new_string</text>
</a>
</g>
</g>
<!-- Node4&#45;&gt;Node5 -->
<g id="edge4" class="edge">
<title>Node4&#45;&gt;Node5</title>
<path fill="none" stroke="midnightblue" d="M219.21,-10C227.43,-10 236.02,-10 244.44,-10"/>
<polygon fill="midnightblue" stroke="midnightblue" points="244.58,-13.5 254.58,-10 244.58,-6.5 244.58,-13.5"/>
</g>
<!-- Node6 -->
<g id="node6" class="node">
<title>Node6</title>
<g id="a_node6"><a xlink:href="coap__mem_8h.html#a9f9fd8d6cf24f9c45a5501aeba5acaf9" target="_top" xlink:title="Allocates a chunk of size bytes and returns a pointer to the newly allocated memory.">
<polygon fill="white" stroke="black" points="389,-0.5 389,-19.5 494,-19.5 494,-0.5 389,-0.5"/>
<text text-anchor="middle" x="441.5" y="-7.5" font-family="Helvetica,sans-Serif" font-size="10.00">coap_malloc_type</text>
</a>
</g>
</g>
<!-- Node5&#45;&gt;Node6 -->
<g id="edge5" class="edge">
<title>Node5&#45;&gt;Node6</title>
<path fill="none" stroke="midnightblue" d="M353.15,-10C361.46,-10 370.2,-10 378.81,-10"/>
<polygon fill="midnightblue" stroke="midnightblue" points="378.83,-13.5 388.83,-10 378.83,-6.5 378.83,-13.5"/>
</g>
</g>
</svg>
