<?xml version="1.0" encoding="UTF-8" standalone="no"?>
<!DOCTYPE svg PUBLIC "-//W3C//DTD SVG 1.1//EN"
 "http://www.w3.org/Graphics/SVG/1.1/DTD/svg11.dtd">
<!-- Generated by graphviz version 2.43.0 (0)
 -->
<!-- Title: coap_free_async Pages: 1 -->
<!--zoomable 208 -->
<svg id="main" version="1.1" xmlns="http://www.w3.org/2000/svg" xmlns:xlink="http://www.w3.org/1999/xlink" xml:space="preserve" onload="init(evt)">
<style type="text/css"><![CDATA[
.edge:hover path { stroke: red; }
.edge:hover polygon { stroke: red; fill: red; }
]]></style>
<script type="text/javascript"><![CDATA[
var edges = document.getElementsByTagName('g');
if (edges && edges.length) {
  for (var i=0;i<edges.length;i++) {
    if (edges[i].id.substr(0,4)=='edge') {
      edges[i].setAttribute('class','edge');
    }
  }
}
]]></script>
        <defs>
                <circle id="rim" cx="0" cy="0" r="7"/>
                <circle id="rim2" cx="0" cy="0" r="3.5"/>
                <g id="zoomPlus">
                        <use xlink:href="#rim" fill="#404040">
                                <set attributeName="fill" to="#808080" begin="zoomplus.mouseover" end="zoomplus.mouseout"/>
                        </use>
                        <path d="M-4,0h8M0,-4v8" fill="none" stroke="white" stroke-width="1.5" pointer-events="none"/>
                </g>
                <g id="zoomMin">
                        <use xlink:href="#rim" fill="#404040">
                                <set attributeName="fill" to="#808080" begin="zoomminus.mouseover" end="zoomminus.mouseout"/>
                        </use>
                        <path d="M-4,0h8" fill="none" stroke="white" stroke-width="1.5" pointer-events="none"/>
                </g>
                <g id="dirArrow">
                        <path fill="none" stroke="white" stroke-width="1.5" d="M0,-3.0v7 M-2.5,-0.5L0,-3.0L2.5,-0.5"/>
                </g>
               <g id="resetDef">
                       <use xlink:href="#rim2" fill="#404040">
                               <set attributeName="fill" to="#808080" begin="reset.mouseover" end="reset.mouseout"/>
                       </use>
               </g>
        </defs>

<script type="text/javascript">
var viewWidth = 1923;
var viewHeight = 208;
var sectionId = 'dynsection-5';
</script>
<script xlink:href="svgpan.js"/>
<svg id="graph" class="graph">
<g id="viewport">
<title>coap_free_async</title>
<polygon fill="white" stroke="transparent" points="-4,4 -4,-204 1919,-204 1919,4 -4,4"/>
<!-- Node1 -->
<g id="node1" class="node">
<title>Node1</title>
<g id="a_node1"><a xlink:title="Releases the memory that was allocated by coap_register_async() for the object async.">
<polygon fill="#bfbfbf" stroke="black" points="1824,-142.5 1824,-161.5 1915,-161.5 1915,-142.5 1824,-142.5"/>
<text text-anchor="middle" x="1869.5" y="-149.5" font-family="Helvetica,sans-Serif" font-size="10.00">coap_free_async</text>
</a>
</g>
</g>
<!-- Node2 -->
<g id="node2" class="node">
<title>Node2</title>
<g id="a_node2"><a xlink:href="group__coap__async__internal.html#ga207685faa6c979bff227eb06a277d1fa" target="_top" xlink:title="Checks if there are any pending Async requests &#45; if so, send them off.">
<polygon fill="white" stroke="black" points="1687,-104.5 1687,-123.5 1788,-123.5 1788,-104.5 1687,-104.5"/>
<text text-anchor="middle" x="1737.5" y="-111.5" font-family="Helvetica,sans-Serif" font-size="10.00">coap_check_async</text>
</a>
</g>
</g>
<!-- Node1&#45;&gt;Node2 -->
<g id="edge1" class="edge">
<title>Node1&#45;&gt;Node2</title>
<path fill="none" stroke="midnightblue" d="M1825.62,-139.46C1807.93,-134.3 1787.77,-128.4 1771.29,-123.59"/>
<polygon fill="midnightblue" stroke="midnightblue" points="1825.12,-142.96 1835.7,-142.41 1827.08,-136.25 1825.12,-142.96"/>
</g>
<!-- Node17 -->
<g id="node17" class="node">
<title>Node17</title>
<g id="a_node17"><a xlink:href="group__coap__async.html#ga14b20d8c5bf07bdda9f8bc6777540a84" target="_top" xlink:title="Allocates a new coap_async_t object and fills its fields according to the given request.">
<polygon fill="white" stroke="black" points="356.5,-180.5 356.5,-199.5 463.5,-199.5 463.5,-180.5 356.5,-180.5"/>
<text text-anchor="middle" x="410" y="-187.5" font-family="Helvetica,sans-Serif" font-size="10.00">coap_register_async</text>
</a>
</g>
</g>
<!-- Node1&#45;&gt;Node17 -->
<g id="edge25" class="edge">
<title>Node1&#45;&gt;Node17</title>
<path fill="none" stroke="midnightblue" d="M1817.21,-163.69C1763.68,-174.86 1677.16,-190 1601.5,-190 1601.5,-190 1601.5,-190 717.5,-190 628.37,-190 524.66,-190 463.61,-190"/>
<polygon fill="midnightblue" stroke="midnightblue" points="1818.08,-167.09 1827.14,-161.59 1816.63,-160.24 1818.08,-167.09"/>
</g>
<!-- Node3 -->
<g id="node3" class="node">
<title>Node3</title>
<g id="a_node3"><a xlink:href="group__app__io__internal.html#gaf0cbbb00a6f2f8ac885f0e1575534e34" target="_top" xlink:title="Iterates through all the coap_socket_t structures embedded in endpoints or sessions associated with t...">
<polygon fill="white" stroke="black" points="1550,-104.5 1550,-123.5 1651,-123.5 1651,-104.5 1550,-104.5"/>
<text text-anchor="middle" x="1600.5" y="-111.5" font-family="Helvetica,sans-Serif" font-size="10.00">coap_io_prepare_io</text>
</a>
</g>
</g>
<!-- Node2&#45;&gt;Node3 -->
<g id="edge2" class="edge">
<title>Node2&#45;&gt;Node3</title>
<path fill="none" stroke="midnightblue" d="M1676.79,-114C1668.33,-114 1659.7,-114 1651.45,-114"/>
<polygon fill="midnightblue" stroke="midnightblue" points="1677,-117.5 1687,-114 1677,-110.5 1677,-117.5"/>
</g>
<!-- Node6 -->
<g id="node6" class="node">
<title>Node6</title>
<g id="a_node6"><a xlink:href="group__app__io.html#ga2758ed5fdd6ce79ec95ea8dbf72a5644" target="_top" xlink:title="The main message processing loop with additional fds for internal select.">
<polygon fill="white" stroke="black" points="1105,-66.5 1105,-85.5 1237,-85.5 1237,-66.5 1105,-66.5"/>
<text text-anchor="middle" x="1171" y="-73.5" font-family="Helvetica,sans-Serif" font-size="10.00">coap_io_process_with_fds</text>
</a>
</g>
</g>
<!-- Node2&#45;&gt;Node6 -->
<g id="edge24" class="edge">
<title>Node2&#45;&gt;Node6</title>
<path fill="none" stroke="midnightblue" d="M1688.06,-102.27C1676,-99.61 1663.07,-97 1651,-95 1484.99,-67.55 1441.25,-72.33 1273,-74 1261.43,-74.11 1249.11,-74.3 1237.19,-74.52"/>
<polygon fill="midnightblue" stroke="midnightblue" points="1687.42,-105.71 1697.94,-104.49 1688.95,-98.88 1687.42,-105.71"/>
</g>
<!-- Node4 -->
<g id="node4" class="node">
<title>Node4</title>
<g id="a_node4"><a xlink:href="group__app__io__internal.html#ga3be92476a2c2c12d68c0cd07795c7e34" target="_top" xlink:title="Any now timed out delayed packet is transmitted, along with any packets associated with requested obs...">
<polygon fill="white" stroke="black" points="1401,-104.5 1401,-123.5 1514,-123.5 1514,-104.5 1401,-104.5"/>
<text text-anchor="middle" x="1457.5" y="-111.5" font-family="Helvetica,sans-Serif" font-size="10.00">coap_io_prepare_epoll</text>
</a>
</g>
</g>
<!-- Node3&#45;&gt;Node4 -->
<g id="edge3" class="edge">
<title>Node3&#45;&gt;Node4</title>
<path fill="none" stroke="midnightblue" d="M1539.58,-114C1531.09,-114 1522.4,-114 1514.01,-114"/>
<polygon fill="midnightblue" stroke="midnightblue" points="1539.79,-117.5 1549.79,-114 1539.79,-110.5 1539.79,-117.5"/>
</g>
<!-- Node3&#45;&gt;Node6 -->
<g id="edge22" class="edge">
<title>Node3&#45;&gt;Node6</title>
<path fill="none" stroke="midnightblue" d="M1552.9,-102.2C1540.35,-99.42 1526.72,-96.75 1514,-95 1418.27,-81.79 1306.27,-77.7 1237.23,-76.47"/>
<polygon fill="midnightblue" stroke="midnightblue" points="1552.18,-105.62 1562.7,-104.44 1553.74,-98.8 1552.18,-105.62"/>
</g>
<!-- Node20 -->
<g id="node20" class="node">
<title>Node20</title>
<g id="a_node20"><a xlink:href="net_8h.html#ab54010e3cade80e1417870c87dcd0402" target="_top" xlink:title=" ">
<polygon fill="white" stroke="black" points="1425.5,-142.5 1425.5,-161.5 1489.5,-161.5 1489.5,-142.5 1425.5,-142.5"/>
<text text-anchor="middle" x="1457.5" y="-149.5" font-family="Helvetica,sans-Serif" font-size="10.00">coap_write</text>
</a>
</g>
</g>
<!-- Node3&#45;&gt;Node20 -->
<g id="edge23" class="edge">
<title>Node3&#45;&gt;Node20</title>
<path fill="none" stroke="midnightblue" d="M1554.22,-126.2C1533.18,-131.87 1508.69,-138.47 1489.75,-143.58"/>
<polygon fill="midnightblue" stroke="midnightblue" points="1555.18,-129.57 1563.92,-123.59 1553.35,-122.81 1555.18,-129.57"/>
</g>
<!-- Node5 -->
<g id="node5" class="node">
<title>Node5</title>
<g id="a_node5"><a xlink:href="group__app__io__internal.html#ga503f851fa137eb8a9c2936e2098c5eb9" target="_top" xlink:title="Process all the epoll events.">
<polygon fill="white" stroke="black" points="1273,-142.5 1273,-161.5 1365,-161.5 1365,-142.5 1273,-142.5"/>
<text text-anchor="middle" x="1319" y="-149.5" font-family="Helvetica,sans-Serif" font-size="10.00">coap_io_do_epoll</text>
</a>
</g>
</g>
<!-- Node4&#45;&gt;Node5 -->
<g id="edge4" class="edge">
<title>Node4&#45;&gt;Node5</title>
<path fill="none" stroke="midnightblue" d="M1412.25,-126.32C1393.5,-131.54 1371.97,-137.53 1354.43,-142.41"/>
<polygon fill="midnightblue" stroke="midnightblue" points="1413.36,-129.64 1422.06,-123.59 1411.48,-122.9 1413.36,-129.64"/>
</g>
<!-- Node4&#45;&gt;Node6 -->
<g id="edge21" class="edge">
<title>Node4&#45;&gt;Node6</title>
<path fill="none" stroke="midnightblue" d="M1390.59,-105.5C1355.64,-100.97 1311.98,-95.25 1273,-90 1261.42,-88.44 1249.1,-86.75 1237.19,-85.11"/>
<polygon fill="midnightblue" stroke="midnightblue" points="1390.31,-109 1400.67,-106.81 1391.21,-102.05 1390.31,-109"/>
</g>
<!-- Node5&#45;&gt;Node6 -->
<g id="edge5" class="edge">
<title>Node5&#45;&gt;Node6</title>
<path fill="none" stroke="midnightblue" d="M1290.61,-137.74C1261.3,-122.48 1215.6,-98.7 1190.34,-85.55"/>
<polygon fill="midnightblue" stroke="midnightblue" points="1289.02,-140.86 1299.51,-142.37 1292.25,-134.65 1289.02,-140.86"/>
</g>
<!-- Node7 -->
<g id="node7" class="node">
<title>Node7</title>
<g id="a_node7"><a xlink:href="group__app__io.html#ga082f7bbf15d3f37c31c2a0a5e78ea4cf" target="_top" xlink:title="The main I/O processing function.">
<polygon fill="white" stroke="black" points="979,-66.5 979,-85.5 1069,-85.5 1069,-66.5 979,-66.5"/>
<text text-anchor="middle" x="1024" y="-73.5" font-family="Helvetica,sans-Serif" font-size="10.00">coap_io_process</text>
</a>
</g>
</g>
<!-- Node6&#45;&gt;Node7 -->
<g id="edge6" class="edge">
<title>Node6&#45;&gt;Node7</title>
<path fill="none" stroke="midnightblue" d="M1094.53,-76C1085.85,-76 1077.23,-76 1069.17,-76"/>
<polygon fill="midnightblue" stroke="midnightblue" points="1094.71,-79.5 1104.71,-76 1094.71,-72.5 1094.71,-79.5"/>
</g>
<!-- Node8 -->
<g id="node8" class="node">
<title>Node8</title>
<g id="a_node8"><a xlink:href="group__context__internal.html#ga5d013d40174c7c217b24bf624f9d7310" target="_top" xlink:title="Delay the sending of the first client request until some other negotiation has completed.">
<polygon fill="white" stroke="black" points="827,-104.5 827,-123.5 943,-123.5 943,-104.5 827,-104.5"/>
<text text-anchor="middle" x="885" y="-111.5" font-family="Helvetica,sans-Serif" font-size="10.00">coap_client_delay_first</text>
</a>
</g>
</g>
<!-- Node7&#45;&gt;Node8 -->
<g id="edge7" class="edge">
<title>Node7&#45;&gt;Node8</title>
<path fill="none" stroke="midnightblue" d="M978.59,-88.32C959.77,-93.54 938.16,-99.53 920.56,-104.41"/>
<polygon fill="midnightblue" stroke="midnightblue" points="979.73,-91.63 988.43,-85.59 977.86,-84.89 979.73,-91.63"/>
</g>
<!-- Node18 -->
<g id="node18" class="node">
<title>Node18</title>
<g id="a_node18"><a xlink:href="group__app__io.html#gaca10debdb496ee890c45fe49a5799330" target="_top" xlink:title="Check to see if there is any i/o pending for the context.">
<polygon fill="white" stroke="black" points="840.5,-66.5 840.5,-85.5 929.5,-85.5 929.5,-66.5 840.5,-66.5"/>
<text text-anchor="middle" x="885" y="-73.5" font-family="Helvetica,sans-Serif" font-size="10.00">coap_io_pending</text>
</a>
</g>
</g>
<!-- Node7&#45;&gt;Node18 -->
<g id="edge19" class="edge">
<title>Node7&#45;&gt;Node18</title>
<path fill="none" stroke="midnightblue" d="M968.67,-76C955.68,-76 941.98,-76 929.55,-76"/>
<polygon fill="midnightblue" stroke="midnightblue" points="968.9,-79.5 978.9,-76 968.9,-72.5 968.9,-79.5"/>
</g>
<!-- Node19 -->
<g id="node19" class="node">
<title>Node19</title>
<g id="a_node19"><a xlink:href="net_8h.html#ac6b34aa979ec545eb710e45a26c98fc1" target="_top" xlink:title=" ">
<polygon fill="white" stroke="black" points="843.5,-28.5 843.5,-47.5 926.5,-47.5 926.5,-28.5 843.5,-28.5"/>
<text text-anchor="middle" x="885" y="-35.5" font-family="Helvetica,sans-Serif" font-size="10.00">coap_run_once</text>
</a>
</g>
</g>
<!-- Node7&#45;&gt;Node19 -->
<g id="edge20" class="edge">
<title>Node7&#45;&gt;Node19</title>
<path fill="none" stroke="midnightblue" d="M978.59,-63.68C959.77,-58.46 938.16,-52.47 920.56,-47.59"/>
<polygon fill="midnightblue" stroke="midnightblue" points="977.86,-67.11 988.43,-66.41 979.73,-60.37 977.86,-67.11"/>
</g>
<!-- Node9 -->
<g id="node9" class="node">
<title>Node9</title>
<g id="a_node9"><a xlink:href="group__session.html#ga4368ee622c681bf7cf0b7cfe99c8ab37" target="_top" xlink:title="Get maximum acceptable PDU size.">
<polygon fill="white" stroke="black" points="646,-85.5 646,-104.5 791,-104.5 791,-85.5 646,-85.5"/>
<text text-anchor="middle" x="718.5" y="-92.5" font-family="Helvetica,sans-Serif" font-size="10.00">coap_session_max_pdu_size</text>
</a>
</g>
</g>
<!-- Node8&#45;&gt;Node9 -->
<g id="edge8" class="edge">
<title>Node8&#45;&gt;Node9</title>
<path fill="none" stroke="midnightblue" d="M816.79,-106.24C808.37,-105.26 799.74,-104.27 791.25,-103.29"/>
<polygon fill="midnightblue" stroke="midnightblue" points="816.59,-109.74 826.93,-107.41 817.4,-102.78 816.59,-109.74"/>
</g>
<!-- Node10 -->
<g id="node10" class="node">
<title>Node10</title>
<g id="a_node10"><a xlink:href="group__context__internal.html#gae6b8ca457dd41f23372f9e9a7159312b" target="_top" xlink:title="Parses and interprets a CoAP datagram with context ctx.">
<polygon fill="white" stroke="black" points="506,-28.5 506,-47.5 610,-47.5 610,-28.5 506,-28.5"/>
<text text-anchor="middle" x="558" y="-35.5" font-family="Helvetica,sans-Serif" font-size="10.00">coap_handle_dgram</text>
</a>
</g>
</g>
<!-- Node9&#45;&gt;Node10 -->
<g id="edge9" class="edge">
<title>Node9&#45;&gt;Node10</title>
<path fill="none" stroke="midnightblue" d="M681.55,-82.07C652.39,-71.58 611.93,-57.04 585.62,-47.57"/>
<polygon fill="midnightblue" stroke="midnightblue" points="680.38,-85.37 690.97,-85.46 682.75,-78.78 680.38,-85.37"/>
</g>
<!-- Node15 -->
<g id="node15" class="node">
<title>Node15</title>
<g id="a_node15"><a xlink:href="group__pdu.html#ga6ab63e25c7c9eed3de00b0e1153b33b6" target="_top" xlink:title="Creates a new CoAP PDU.">
<polygon fill="white" stroke="black" points="517,-66.5 517,-85.5 599,-85.5 599,-66.5 517,-66.5"/>
<text text-anchor="middle" x="558" y="-73.5" font-family="Helvetica,sans-Serif" font-size="10.00">coap_new_pdu</text>
</a>
</g>
</g>
<!-- Node9&#45;&gt;Node15 -->
<g id="edge16" class="edge">
<title>Node9&#45;&gt;Node15</title>
<path fill="none" stroke="midnightblue" d="M635.59,-85.18C623,-83.67 610.51,-82.17 599.38,-80.84"/>
<polygon fill="midnightblue" stroke="midnightblue" points="635.32,-88.67 645.67,-86.39 636.16,-81.72 635.32,-88.67"/>
</g>
<!-- Node16 -->
<g id="node16" class="node">
<title>Node16</title>
<g id="a_node16"><a xlink:href="group__pdu.html#gabf10450d37381b133fb780480b4fca1b" target="_top" xlink:title="Duplicate an existing PDU.">
<polygon fill="white" stroke="black" points="506.5,-104.5 506.5,-123.5 609.5,-123.5 609.5,-104.5 506.5,-104.5"/>
<text text-anchor="middle" x="558" y="-111.5" font-family="Helvetica,sans-Serif" font-size="10.00">coap_pdu_duplicate</text>
</a>
</g>
</g>
<!-- Node9&#45;&gt;Node16 -->
<g id="edge17" class="edge">
<title>Node9&#45;&gt;Node16</title>
<path fill="none" stroke="midnightblue" d="M635.7,-104.81C626.86,-105.87 618.06,-106.92 609.75,-107.92"/>
<polygon fill="midnightblue" stroke="midnightblue" points="636.16,-108.28 645.67,-103.61 635.32,-101.33 636.16,-108.28"/>
</g>
<!-- Node11 -->
<g id="node11" class="node">
<title>Node11</title>
<g id="a_node11"><a xlink:href="net_8c.html#a8534f7860b14e0743529daff196a27ce" target="_top" xlink:title=" ">
<polygon fill="white" stroke="black" points="350,-29 350,-59 470,-59 470,-29 350,-29"/>
<text text-anchor="start" x="358" y="-47" font-family="Helvetica,sans-Serif" font-size="10.00">coap_handle_dgram_for</text>
<text text-anchor="middle" x="410" y="-36" font-family="Helvetica,sans-Serif" font-size="10.00">_proto</text>
</a>
</g>
</g>
<!-- Node10&#45;&gt;Node11 -->
<g id="edge10" class="edge">
<title>Node10&#45;&gt;Node11</title>
<path fill="none" stroke="midnightblue" d="M495.71,-40.52C487.21,-40.87 478.49,-41.23 470.04,-41.57"/>
<polygon fill="midnightblue" stroke="midnightblue" points="496.09,-44.01 505.94,-40.1 495.8,-37.01 496.09,-44.01"/>
</g>
<!-- Node12 -->
<g id="node12" class="node">
<title>Node12</title>
<g id="a_node12"><a xlink:href="net_8c.html#acd36f6fba6d30ab9557e0e6521f4a088" target="_top" xlink:title=" ">
<polygon fill="white" stroke="black" points="213,-34.5 213,-53.5 314,-53.5 314,-34.5 213,-34.5"/>
<text text-anchor="middle" x="263.5" y="-41.5" font-family="Helvetica,sans-Serif" font-size="10.00">coap_read_session</text>
</a>
</g>
</g>
<!-- Node11&#45;&gt;Node12 -->
<g id="edge11" class="edge">
<title>Node11&#45;&gt;Node12</title>
<path fill="none" stroke="midnightblue" d="M339.73,-44C331.09,-44 322.4,-44 314.15,-44"/>
<polygon fill="midnightblue" stroke="midnightblue" points="339.81,-47.5 349.81,-44 339.81,-40.5 339.81,-47.5"/>
</g>
<!-- Node12&#45;&gt;Node5 -->
<g id="edge12" class="edge">
<title>Node12&#45;&gt;Node5</title>
<path fill="none" stroke="midnightblue" d="M287.73,-59.05C335.88,-88.73 450.93,-152 557,-152 1025,-152 1025,-152 1025,-152 1112.75,-152 1215.28,-152 1272.83,-152"/>
<polygon fill="midnightblue" stroke="midnightblue" points="289.35,-55.93 279.02,-53.58 285.63,-61.86 289.35,-55.93"/>
</g>
<!-- Node13 -->
<g id="node13" class="node">
<title>Node13</title>
<g id="a_node13"><a xlink:href="group__app__io__internal.html#ga2208802b0711ad20df07271b751b41dc" target="_top" xlink:title="Processes any outstanding read, write, accept or connect I/O as indicated in the coap_socket_t struct...">
<polygon fill="white" stroke="black" points="98,-12.5 98,-31.5 177,-31.5 177,-12.5 98,-12.5"/>
<text text-anchor="middle" x="137.5" y="-19.5" font-family="Helvetica,sans-Serif" font-size="10.00">coap_io_do_io</text>
</a>
</g>
</g>
<!-- Node12&#45;&gt;Node13 -->
<g id="edge13" class="edge">
<title>Node12&#45;&gt;Node13</title>
<path fill="none" stroke="midnightblue" d="M202.67,-33.38C193.99,-31.85 185.27,-30.3 177.16,-28.86"/>
<polygon fill="midnightblue" stroke="midnightblue" points="202.32,-36.88 212.78,-35.18 203.54,-29.99 202.32,-36.88"/>
</g>
<!-- Node13&#45;&gt;Node6 -->
<g id="edge14" class="edge">
<title>Node13&#45;&gt;Node6</title>
<path fill="none" stroke="midnightblue" d="M187.39,-15.62C241.5,-9.13 331.32,0 409,0 886,0 886,0 886,0 987.57,0 1102.84,-45.92 1149.14,-66.37"/>
<polygon fill="midnightblue" stroke="midnightblue" points="186.89,-12.16 177.39,-16.84 187.74,-19.11 186.89,-12.16"/>
</g>
<!-- Node14 -->
<g id="node14" class="node">
<title>Node14</title>
<g id="a_node14"><a xlink:href="net_8h.html#af937985e2b14a287a849663574d59bcb" target="_top" xlink:title=" ">
<polygon fill="white" stroke="black" points="0,-12.5 0,-31.5 62,-31.5 62,-12.5 0,-12.5"/>
<text text-anchor="middle" x="31" y="-19.5" font-family="Helvetica,sans-Serif" font-size="10.00">coap_read</text>
</a>
</g>
</g>
<!-- Node13&#45;&gt;Node14 -->
<g id="edge15" class="edge">
<title>Node13&#45;&gt;Node14</title>
<path fill="none" stroke="midnightblue" d="M87.8,-22C79.11,-22 70.28,-22 62.29,-22"/>
<polygon fill="midnightblue" stroke="midnightblue" points="87.88,-25.5 97.88,-22 87.88,-18.5 87.88,-25.5"/>
</g>
<!-- Node16&#45;&gt;Node17 -->
<g id="edge18" class="edge">
<title>Node16&#45;&gt;Node17</title>
<path fill="none" stroke="midnightblue" d="M529.61,-128.26C500.3,-143.52 454.6,-167.3 429.34,-180.45"/>
<polygon fill="midnightblue" stroke="midnightblue" points="531.25,-131.35 538.51,-123.63 528.02,-125.14 531.25,-131.35"/>
</g>
</g>
</svg>
        <g id="navigator" transform="translate(0 0)" fill="#404254">
                <rect fill="#f2f5e9" fill-opacity="0.5" stroke="#606060" stroke-width=".5" x="0" y="0" width="60" height="60"/>
                <use id="zoomplus" xlink:href="#zoomPlus" x="17" y="9" onmousedown="handleZoom(evt,'in')"/>
                <use id="zoomminus" xlink:href="#zoomMin" x="42" y="9" onmousedown="handleZoom(evt,'out')"/>
                <use id="reset" xlink:href="#resetDef" x="30" y="36" onmousedown="handleReset()"/>
                <g id="arrowUp" xlink:href="#dirArrow" transform="translate(30 24)" onmousedown="handlePan(0,-1)">
                  <use xlink:href="#rim" fill="#404040">
                        <set attributeName="fill" to="#808080" begin="arrowUp.mouseover" end="arrowUp.mouseout"/>
                  </use>
                  <path fill="none" stroke="white" stroke-width="1.5" d="M0,-3.0v7 M-2.5,-0.5L0,-3.0L2.5,-0.5"/>
                </g>
                <g id="arrowRight" xlink:href="#dirArrow" transform="rotate(90) translate(36 -43)" onmousedown="handlePan(1,0)">
                  <use xlink:href="#rim" fill="#404040">
                        <set attributeName="fill" to="#808080" begin="arrowRight.mouseover" end="arrowRight.mouseout"/>
                  </use>
                  <path fill="none" stroke="white" stroke-width="1.5" d="M0,-3.0v7 M-2.5,-0.5L0,-3.0L2.5,-0.5"/>
                </g>
                <g id="arrowDown" xlink:href="#dirArrow" transform="rotate(180) translate(-30 -48)" onmousedown="handlePan(0,1)">
                  <use xlink:href="#rim" fill="#404040">
                        <set attributeName="fill" to="#808080" begin="arrowDown.mouseover" end="arrowDown.mouseout"/>
                  </use>
                  <path fill="none" stroke="white" stroke-width="1.5" d="M0,-3.0v7 M-2.5,-0.5L0,-3.0L2.5,-0.5"/>
                </g>
                <g id="arrowLeft" xlink:href="#dirArrow" transform="rotate(270) translate(-36 17)" onmousedown="handlePan(-1,0)">
                  <use xlink:href="#rim" fill="#404040">
                        <set attributeName="fill" to="#808080" begin="arrowLeft.mouseover" end="arrowLeft.mouseout"/>
                  </use>
                  <path fill="none" stroke="white" stroke-width="1.5" d="M0,-3.0v7 M-2.5,-0.5L0,-3.0L2.5,-0.5"/>
                </g>
        </g>
        <svg viewBox="0 0 15 15" width="100%" height="30px" preserveAspectRatio="xMaxYMin meet">
         <g id="arrow_out" transform="scale(0.3 0.3)">
          <a xlink:href="group__coap__async_ga084cd8353f2112c1cc740e1207be7ccc_icgraph_org.svg" target="_base">
           <rect id="button" ry="5" rx="5" y="6" x="6" height="38" width="38"
                fill="#f2f5e9" fill-opacity="0.5" stroke="#606060" stroke-width="1.0"/>
           <path id="arrow"
             d="M 11.500037,31.436501 C 11.940474,20.09759 22.043105,11.32322 32.158766,21.979434 L 37.068811,17.246167 C 37.068811,17.246167 37.088388,32 37.088388,32 L 22.160133,31.978069 C 22.160133,31.978069 26.997745,27.140456 26.997745,27.140456 C 18.528582,18.264221 13.291696,25.230495 11.500037,31.436501 z"
             style="fill:#404040;"/>
          </a>
         </g>
        </svg>
</svg>
