<?xml version="1.0" encoding="UTF-8" standalone="no"?>
<!DOCTYPE svg PUBLIC "-//W3C//DTD SVG 1.1//EN"
 "http://www.w3.org/Graphics/SVG/1.1/DTD/svg11.dtd">
<!-- Generated by graphviz version 2.43.0 (0)
 -->
<!-- Title: coap_netif_dgrm_read Pages: 1 -->
<svg width="742pt" height="191pt"
 viewBox="0.00 0.00 742.00 191.00" xmlns="http://www.w3.org/2000/svg" xmlns:xlink="http://www.w3.org/1999/xlink">
<g id="graph0" class="graph" transform="scale(1 1) rotate(0) translate(4 187)">
<title>coap_netif_dgrm_read</title>
<polygon fill="white" stroke="transparent" points="-4,4 -4,-187 738,-187 738,4 -4,4"/>
<!-- Node1 -->
<g id="node1" class="node">
<title>Node1</title>
<g id="a_node1"><a xlink:title="Function interface for layer data datagram receiving for sessions.">
<polygon fill="#bfbfbf" stroke="black" points="0,-57.5 0,-76.5 125,-76.5 125,-57.5 0,-57.5"/>
<text text-anchor="middle" x="62.5" y="-64.5" font-family="Helvetica,sans-Serif" font-size="10.00">coap_netif_dgrm_read</text>
</a>
</g>
</g>
<!-- Node2 -->
<g id="node2" class="node">
<title>Node2</title>
<g id="a_node2"><a xlink:href="group__logging.html#gabf09c67f27059ca278900e7e8fdd475e" target="_top" xlink:title="Get session description.">
<polygon fill="white" stroke="black" points="309,-110.5 309,-129.5 409,-129.5 409,-110.5 309,-110.5"/>
<text text-anchor="middle" x="359" y="-117.5" font-family="Helvetica,sans-Serif" font-size="10.00">coap_session_str</text>
</a>
</g>
</g>
<!-- Node1&#45;&gt;Node2 -->
<g id="edge1" class="edge">
<title>Node1&#45;&gt;Node2</title>
<path fill="none" stroke="midnightblue" d="M83.12,-76.64C102.43,-85.65 133.01,-98.63 161,-105 206.44,-115.34 259.13,-118.93 298.58,-120.02"/>
<polygon fill="midnightblue" stroke="midnightblue" points="298.75,-123.53 308.83,-120.26 298.91,-116.53 298.75,-123.53"/>
</g>
<!-- Node7 -->
<g id="node7" class="node">
<title>Node7</title>
<g id="a_node7"><a xlink:href="coap__io_8c.html#a49399ab868d1eebf6033f0322f6b9c2d" target="_top" xlink:title="Function interface for reading data.">
<polygon fill="white" stroke="black" points="161,-76.5 161,-95.5 264,-95.5 264,-76.5 161,-76.5"/>
<text text-anchor="middle" x="212.5" y="-83.5" font-family="Helvetica,sans-Serif" font-size="10.00">coap_socket_recv</text>
</a>
</g>
</g>
<!-- Node1&#45;&gt;Node7 -->
<g id="edge6" class="edge">
<title>Node1&#45;&gt;Node7</title>
<path fill="none" stroke="midnightblue" d="M125.41,-74.95C133.74,-76.02 142.29,-77.11 150.6,-78.18"/>
<polygon fill="midnightblue" stroke="midnightblue" points="150.24,-81.66 160.61,-79.47 151.13,-74.72 150.24,-81.66"/>
</g>
<!-- Node8 -->
<g id="node8" class="node">
<title>Node8</title>
<g id="a_node8"><a xlink:href="coap__io_8c.html#a3d4397c1a2ce78e64c19fdcd25256737" target="_top" xlink:title=" ">
<polygon fill="white" stroke="black" points="300,-54.5 300,-73.5 418,-73.5 418,-54.5 300,-54.5"/>
<text text-anchor="middle" x="359" y="-61.5" font-family="Helvetica,sans-Serif" font-size="10.00">coap_socket_strerror</text>
</a>
</g>
</g>
<!-- Node1&#45;&gt;Node8 -->
<g id="edge10" class="edge">
<title>Node1&#45;&gt;Node8</title>
<path fill="none" stroke="midnightblue" d="M125.24,-66.37C173.36,-65.88 240.14,-65.2 289.84,-64.69"/>
<polygon fill="midnightblue" stroke="midnightblue" points="289.89,-68.19 299.85,-64.59 289.82,-61.19 289.89,-68.19"/>
</g>
<!-- Node10 -->
<g id="node10" class="node">
<title>Node10</title>
<g id="a_node10"><a xlink:href="group__context.html#ga757eecd5cda6e32472313df73a9297fd" target="_top" xlink:title="Returns the current value of an internal tick counter.">
<polygon fill="white" stroke="black" points="178.5,-0.5 178.5,-19.5 246.5,-19.5 246.5,-0.5 178.5,-0.5"/>
<text text-anchor="middle" x="212.5" y="-7.5" font-family="Helvetica,sans-Serif" font-size="10.00">coap_ticks</text>
</a>
</g>
</g>
<!-- Node1&#45;&gt;Node10 -->
<g id="edge11" class="edge">
<title>Node1&#45;&gt;Node10</title>
<path fill="none" stroke="midnightblue" d="M88.27,-57.46C112.6,-48.09 149.93,-33.71 177.13,-23.24"/>
<polygon fill="midnightblue" stroke="midnightblue" points="178.57,-26.43 186.65,-19.57 176.06,-19.9 178.57,-26.43"/>
</g>
<!-- Node3 -->
<g id="node3" class="node">
<title>Node3</title>
<g id="a_node3"><a xlink:href="group__logging.html#ga9e421197c17712bedbec55e42b4493fc" target="_top" xlink:title="Print the address into the defined buffer.">
<polygon fill="white" stroke="black" points="464,-144.5 464,-163.5 559,-163.5 559,-144.5 464,-144.5"/>
<text text-anchor="middle" x="511.5" y="-151.5" font-family="Helvetica,sans-Serif" font-size="10.00">coap_print_addr</text>
</a>
</g>
</g>
<!-- Node2&#45;&gt;Node3 -->
<g id="edge2" class="edge">
<title>Node2&#45;&gt;Node3</title>
<path fill="none" stroke="midnightblue" d="M402.32,-129.56C419.71,-133.49 440.02,-138.08 458.31,-142.21"/>
<polygon fill="midnightblue" stroke="midnightblue" points="457.71,-145.66 468.23,-144.45 459.25,-138.83 457.71,-145.66"/>
</g>
<!-- Node6 -->
<g id="node6" class="node">
<title>Node6</title>
<g id="a_node6"><a xlink:href="coap__session_8c.html#a3a2aa859a36db11e0c195174f907f116" target="_top" xlink:title=" ">
<polygon fill="white" stroke="black" points="459.5,-106.5 459.5,-125.5 563.5,-125.5 563.5,-106.5 459.5,-106.5"/>
<text text-anchor="middle" x="511.5" y="-113.5" font-family="Helvetica,sans-Serif" font-size="10.00">coap_proto_name</text>
</a>
</g>
</g>
<!-- Node2&#45;&gt;Node6 -->
<g id="edge5" class="edge">
<title>Node2&#45;&gt;Node6</title>
<path fill="none" stroke="midnightblue" d="M409.28,-118.69C422.05,-118.35 435.97,-117.98 449.27,-117.63"/>
<polygon fill="midnightblue" stroke="midnightblue" points="449.4,-121.13 459.3,-117.36 449.21,-114.13 449.4,-121.13"/>
</g>
<!-- Node4 -->
<g id="node4" class="node">
<title>Node4</title>
<g id="a_node4"><a xlink:href="coap__address_8c.html#a694f57c7af8d83ebd2fbb8cf9236749d" target="_top" xlink:title="Returns the port from addr in host byte order.">
<polygon fill="white" stroke="black" points="605,-163.5 605,-182.5 734,-182.5 734,-163.5 605,-163.5"/>
<text text-anchor="middle" x="669.5" y="-170.5" font-family="Helvetica,sans-Serif" font-size="10.00">coap_address_get_port</text>
</a>
</g>
</g>
<!-- Node3&#45;&gt;Node4 -->
<g id="edge3" class="edge">
<title>Node3&#45;&gt;Node4</title>
<path fill="none" stroke="midnightblue" d="M559.31,-159.7C570.52,-161.07 582.77,-162.56 594.88,-164.03"/>
<polygon fill="midnightblue" stroke="midnightblue" points="594.64,-167.53 604.99,-165.27 595.49,-160.58 594.64,-167.53"/>
</g>
<!-- Node5 -->
<g id="node5" class="node">
<title>Node5</title>
<g id="a_node5"><a xlink:href="group__logging.html#gace4fa18bde300fa06afd396a0a689031" target="_top" xlink:title="Print the IP address into the defined buffer.">
<polygon fill="white" stroke="black" points="615,-125.5 615,-144.5 724,-144.5 724,-125.5 615,-125.5"/>
<text text-anchor="middle" x="669.5" y="-132.5" font-family="Helvetica,sans-Serif" font-size="10.00">coap_print_ip_addr</text>
</a>
</g>
</g>
<!-- Node3&#45;&gt;Node5 -->
<g id="edge4" class="edge">
<title>Node3&#45;&gt;Node5</title>
<path fill="none" stroke="midnightblue" d="M559.31,-148.3C573.52,-146.57 589.4,-144.63 604.54,-142.79"/>
<polygon fill="midnightblue" stroke="midnightblue" points="605.38,-146.21 614.88,-141.53 604.53,-139.26 605.38,-146.21"/>
</g>
<!-- Node7&#45;&gt;Node2 -->
<g id="edge7" class="edge">
<title>Node7&#45;&gt;Node2</title>
<path fill="none" stroke="midnightblue" d="M254.14,-95.56C270.67,-99.45 289.96,-103.99 307.4,-108.09"/>
<polygon fill="midnightblue" stroke="midnightblue" points="306.88,-111.57 317.42,-110.45 308.49,-104.75 306.88,-111.57"/>
</g>
<!-- Node7&#45;&gt;Node8 -->
<g id="edge8" class="edge">
<title>Node7&#45;&gt;Node8</title>
<path fill="none" stroke="midnightblue" d="M264.04,-78.31C272.35,-77.04 281.07,-75.71 289.73,-74.39"/>
<polygon fill="midnightblue" stroke="midnightblue" points="290.46,-77.82 299.82,-72.86 289.41,-70.9 290.46,-77.82"/>
</g>
<!-- Node9 -->
<g id="node9" class="node">
<title>Node9</title>
<g id="a_node9"><a xlink:href="coap__io_8c.html#a198ae48fdbe1762be87328d3a5f5f4b2" target="_top" xlink:title=" ">
<polygon fill="white" stroke="black" points="454,-49 454,-79 569,-79 569,-49 454,-49"/>
<text text-anchor="start" x="462" y="-67" font-family="Helvetica,sans-Serif" font-size="10.00">coap_socket_format</text>
<text text-anchor="middle" x="511.5" y="-56" font-family="Helvetica,sans-Serif" font-size="10.00">_errno</text>
</a>
</g>
</g>
<!-- Node8&#45;&gt;Node9 -->
<g id="edge9" class="edge">
<title>Node8&#45;&gt;Node9</title>
<path fill="none" stroke="midnightblue" d="M418.19,-64C426.54,-64 435.18,-64 443.68,-64"/>
<polygon fill="midnightblue" stroke="midnightblue" points="443.95,-67.5 453.95,-64 443.95,-60.5 443.95,-67.5"/>
</g>
</g>
</svg>
