<?xml version="1.0" encoding="UTF-8" standalone="no"?>
<!DOCTYPE svg PUBLIC "-//W3C//DTD SVG 1.1//EN"
 "http://www.w3.org/Graphics/SVG/1.1/DTD/svg11.dtd">
<!-- Generated by graphviz version 2.43.0 (0)
 -->
<!-- Title: coap_log_impl Pages: 1 -->
<svg width="378pt" height="85pt"
 viewBox="0.00 0.00 378.00 85.00" xmlns="http://www.w3.org/2000/svg" xmlns:xlink="http://www.w3.org/1999/xlink">
<g id="graph0" class="graph" transform="scale(1 1) rotate(0) translate(4 81)">
<title>coap_log_impl</title>
<polygon fill="white" stroke="transparent" points="-4,4 -4,-81 374,-81 374,4 -4,4"/>
<!-- Node1 -->
<g id="node1" class="node">
<title>Node1</title>
<g id="a_node1"><a xlink:title="Writes the given text to COAP_ERR_FD (for level &lt;= COAP_LOG_CRIT) or COAP_DEBUG_FD (for level &gt;= COAP...">
<polygon fill="#bfbfbf" stroke="black" points="0,-38.5 0,-57.5 87,-57.5 87,-38.5 0,-38.5"/>
<text text-anchor="middle" x="43.5" y="-45.5" font-family="Helvetica,sans-Serif" font-size="10.00">coap_log_impl</text>
</a>
</g>
</g>
<!-- Node2 -->
<g id="node2" class="node">
<title>Node2</title>
<g id="a_node2"><a xlink:href="group__context.html#ga757eecd5cda6e32472313df73a9297fd" target="_top" xlink:title="Returns the current value of an internal tick counter.">
<polygon fill="white" stroke="black" points="138,-57.5 138,-76.5 206,-76.5 206,-57.5 138,-57.5"/>
<text text-anchor="middle" x="172" y="-64.5" font-family="Helvetica,sans-Serif" font-size="10.00">coap_ticks</text>
</a>
</g>
</g>
<!-- Node1&#45;&gt;Node2 -->
<g id="edge1" class="edge">
<title>Node1&#45;&gt;Node2</title>
<path fill="none" stroke="midnightblue" d="M87.33,-54.43C100.34,-56.39 114.63,-58.53 127.68,-60.49"/>
<polygon fill="midnightblue" stroke="midnightblue" points="127.41,-63.99 137.82,-62.02 128.45,-57.07 127.41,-63.99"/>
</g>
<!-- Node3 -->
<g id="node3" class="node">
<title>Node3</title>
<g id="a_node3"><a xlink:href="coap__debug_8c.html#ac22594f737f12f0c3947d2934070cd93" target="_top" xlink:title=" ">
<polygon fill="white" stroke="black" points="123,-19.5 123,-38.5 221,-38.5 221,-19.5 123,-19.5"/>
<text text-anchor="middle" x="172" y="-26.5" font-family="Helvetica,sans-Serif" font-size="10.00">print_timestamp</text>
</a>
</g>
</g>
<!-- Node1&#45;&gt;Node3 -->
<g id="edge2" class="edge">
<title>Node1&#45;&gt;Node3</title>
<path fill="none" stroke="midnightblue" d="M87.33,-41.57C95.57,-40.33 104.33,-39.01 112.96,-37.72"/>
<polygon fill="midnightblue" stroke="midnightblue" points="113.63,-41.16 123,-36.21 112.59,-34.23 113.63,-41.16"/>
</g>
<!-- Node4 -->
<g id="node4" class="node">
<title>Node4</title>
<g id="a_node4"><a xlink:href="group__clock.html#gaaa7cb35533d86c8f87eac2ad42de0323" target="_top" xlink:title="Helper function that converts coap ticks to wallclock time.">
<polygon fill="white" stroke="black" points="265.5,-38.5 265.5,-57.5 361.5,-57.5 361.5,-38.5 265.5,-38.5"/>
<text text-anchor="middle" x="313.5" y="-45.5" font-family="Helvetica,sans-Serif" font-size="10.00">coap_ticks_to_rt</text>
</a>
</g>
</g>
<!-- Node3&#45;&gt;Node4 -->
<g id="edge3" class="edge">
<title>Node3&#45;&gt;Node4</title>
<path fill="none" stroke="midnightblue" d="M221.01,-35.54C231.99,-37.03 243.77,-38.64 255.1,-40.18"/>
<polygon fill="midnightblue" stroke="midnightblue" points="254.97,-43.7 265.35,-41.58 255.91,-36.76 254.97,-43.7"/>
</g>
<!-- Node5 -->
<g id="node5" class="node">
<title>Node5</title>
<g id="a_node5"><a xlink:href="group__clock.html#gaefd1d943d41dc7a8c32188741bad4844" target="_top" xlink:title="Helper function that converts coap ticks to POSIX wallclock time in us.">
<polygon fill="white" stroke="black" points="257,-0.5 257,-19.5 370,-19.5 370,-0.5 257,-0.5"/>
<text text-anchor="middle" x="313.5" y="-7.5" font-family="Helvetica,sans-Serif" font-size="10.00">coap_ticks_to_rt_us</text>
</a>
</g>
</g>
<!-- Node3&#45;&gt;Node5 -->
<g id="edge4" class="edge">
<title>Node3&#45;&gt;Node5</title>
<path fill="none" stroke="midnightblue" d="M221.01,-22.46C229.28,-21.33 238,-20.15 246.65,-18.97"/>
<polygon fill="midnightblue" stroke="midnightblue" points="247.29,-22.41 256.72,-17.6 246.34,-15.48 247.29,-22.41"/>
</g>
</g>
</svg>
