<?xml version="1.0" encoding="UTF-8" standalone="no"?>
<!DOCTYPE svg PUBLIC "-//W3C//DTD SVG 1.1//EN"
 "http://www.w3.org/Graphics/SVG/1.1/DTD/svg11.dtd">
<!-- Generated by graphviz version 2.43.0 (0)
 -->
<!-- Title: coap_option_next Pages: 1 -->
<svg width="650pt" height="104pt"
 viewBox="0.00 0.00 650.00 104.00" xmlns="http://www.w3.org/2000/svg" xmlns:xlink="http://www.w3.org/1999/xlink">
<g id="graph0" class="graph" transform="scale(1 1) rotate(0) translate(4 100)">
<title>coap_option_next</title>
<polygon fill="white" stroke="transparent" points="-4,4 -4,-100 646,-100 646,4 -4,4"/>
<!-- Node1 -->
<g id="node1" class="node">
<title>Node1</title>
<g id="a_node1"><a xlink:title="Updates the iterator oi to point to the next option.">
<polygon fill="#bfbfbf" stroke="black" points="0,-38.5 0,-57.5 103,-57.5 103,-38.5 0,-38.5"/>
<text text-anchor="middle" x="51.5" y="-45.5" font-family="Helvetica,sans-Serif" font-size="10.00">coap_option_next</text>
</a>
</g>
</g>
<!-- Node2 -->
<g id="node2" class="node">
<title>Node2</title>
<g id="a_node2"><a xlink:href="coap__option_8c.html#a11de99f50cc9f5a34fd9e4d121ecfd13" target="_top" xlink:title="Parses the option pointed to by opt into result.">
<polygon fill="white" stroke="black" points="155,-76.5 155,-95.5 248,-95.5 248,-76.5 155,-76.5"/>
<text text-anchor="middle" x="201.5" y="-83.5" font-family="Helvetica,sans-Serif" font-size="10.00">coap_opt_parse</text>
</a>
</g>
</g>
<!-- Node1&#45;&gt;Node2 -->
<g id="edge1" class="edge">
<title>Node1&#45;&gt;Node2</title>
<path fill="none" stroke="midnightblue" d="M89.85,-57.59C109.2,-62.56 133.03,-68.68 153.61,-73.96"/>
<polygon fill="midnightblue" stroke="midnightblue" points="152.87,-77.38 163.42,-76.48 154.61,-70.6 152.87,-77.38"/>
</g>
<!-- Node3 -->
<g id="node3" class="node">
<title>Node3</title>
<g id="a_node3"><a xlink:href="group__opt__filter.html#gaecbb0b2fe1f6244aa6121d019070704b" target="_top" xlink:title="Checks if number is contained in filter.">
<polygon fill="white" stroke="black" points="139,-38.5 139,-57.5 264,-57.5 264,-38.5 139,-38.5"/>
<text text-anchor="middle" x="201.5" y="-45.5" font-family="Helvetica,sans-Serif" font-size="10.00">coap_option_filter_get</text>
</a>
</g>
</g>
<!-- Node1&#45;&gt;Node3 -->
<g id="edge2" class="edge">
<title>Node1&#45;&gt;Node3</title>
<path fill="none" stroke="midnightblue" d="M103.02,-48C111.33,-48 120.07,-48 128.78,-48"/>
<polygon fill="midnightblue" stroke="midnightblue" points="128.95,-51.5 138.95,-48 128.95,-44.5 128.95,-51.5"/>
</g>
<!-- Node8 -->
<g id="node8" class="node">
<title>Node8</title>
<g id="a_node8"><a xlink:href="coap__option_8c.html#a70fa9db0450134640b80cbf7c3720688" target="_top" xlink:title=" ">
<polygon fill="white" stroke="black" points="163.5,-0.5 163.5,-19.5 239.5,-19.5 239.5,-0.5 163.5,-0.5"/>
<text text-anchor="middle" x="201.5" y="-7.5" font-family="Helvetica,sans-Serif" font-size="10.00">opt_finished</text>
</a>
</g>
</g>
<!-- Node1&#45;&gt;Node8 -->
<g id="edge7" class="edge">
<title>Node1&#45;&gt;Node8</title>
<path fill="none" stroke="midnightblue" d="M89.85,-38.41C109.2,-33.44 133.03,-27.32 153.61,-22.04"/>
<polygon fill="midnightblue" stroke="midnightblue" points="154.61,-25.4 163.42,-19.52 152.87,-18.62 154.61,-25.4"/>
</g>
<!-- Node4 -->
<g id="node4" class="node">
<title>Node4</title>
<g id="a_node4"><a xlink:href="coap__option_8c.html#ab87ea79da1603a15ac624388a335bba6" target="_top" xlink:title="Applies op on filter with respect to number.">
<polygon fill="white" stroke="black" points="300,-38.5 300,-57.5 421,-57.5 421,-38.5 300,-38.5"/>
<text text-anchor="middle" x="360.5" y="-45.5" font-family="Helvetica,sans-Serif" font-size="10.00">coap_option_filter_op</text>
</a>
</g>
</g>
<!-- Node3&#45;&gt;Node4 -->
<g id="edge3" class="edge">
<title>Node3&#45;&gt;Node4</title>
<path fill="none" stroke="midnightblue" d="M264.1,-48C272.47,-48 281.1,-48 289.6,-48"/>
<polygon fill="midnightblue" stroke="midnightblue" points="289.88,-51.5 299.88,-48 289.88,-44.5 289.88,-51.5"/>
</g>
<!-- Node5 -->
<g id="node5" class="node">
<title>Node5</title>
<g id="a_node5"><a xlink:href="coap__encode_8c.html#a671b4261b2d24de8696258a8efb0f359" target="_top" xlink:title=" ">
<polygon fill="white" stroke="black" points="472.5,-57.5 472.5,-76.5 528.5,-76.5 528.5,-57.5 472.5,-57.5"/>
<text text-anchor="middle" x="500.5" y="-64.5" font-family="Helvetica,sans-Serif" font-size="10.00">coap_fls</text>
</a>
</g>
</g>
<!-- Node4&#45;&gt;Node5 -->
<g id="edge4" class="edge">
<title>Node4&#45;&gt;Node5</title>
<path fill="none" stroke="midnightblue" d="M421.23,-56.22C435.11,-58.13 449.51,-60.12 462.11,-61.85"/>
<polygon fill="midnightblue" stroke="midnightblue" points="461.84,-65.35 472.22,-63.24 462.79,-58.41 461.84,-65.35"/>
</g>
<!-- Node7 -->
<g id="node7" class="node">
<title>Node7</title>
<g id="a_node7"><a xlink:href="coap__option_8c.html#ad65a9bd8fcfb4ba4270819e6f87f5bcf" target="_top" xlink:title="Returns true iff number denotes an option number larger than 255.">
<polygon fill="white" stroke="black" points="457,-19.5 457,-38.5 544,-38.5 544,-19.5 457,-19.5"/>
<text text-anchor="middle" x="500.5" y="-26.5" font-family="Helvetica,sans-Serif" font-size="10.00">is_long_option</text>
</a>
</g>
</g>
<!-- Node4&#45;&gt;Node7 -->
<g id="edge6" class="edge">
<title>Node4&#45;&gt;Node7</title>
<path fill="none" stroke="midnightblue" d="M421.23,-39.78C429.72,-38.61 438.4,-37.41 446.75,-36.26"/>
<polygon fill="midnightblue" stroke="midnightblue" points="447.3,-39.72 456.73,-34.89 446.35,-32.79 447.3,-39.72"/>
</g>
<!-- Node6 -->
<g id="node6" class="node">
<title>Node6</title>
<g id="a_node6"><a xlink:href="coap__encode_8c.html#a1c66d23b22bbf747ff8b0a649f85f060" target="_top" xlink:title=" ">
<polygon fill="white" stroke="black" points="580,-57.5 580,-76.5 642,-76.5 642,-57.5 580,-57.5"/>
<text text-anchor="middle" x="611" y="-64.5" font-family="Helvetica,sans-Serif" font-size="10.00">coap_flsll</text>
</a>
</g>
</g>
<!-- Node5&#45;&gt;Node6 -->
<g id="edge5" class="edge">
<title>Node5&#45;&gt;Node6</title>
<path fill="none" stroke="midnightblue" d="M528.6,-67C541,-67 555.96,-67 569.65,-67"/>
<polygon fill="midnightblue" stroke="midnightblue" points="569.81,-70.5 579.81,-67 569.81,-63.5 569.81,-70.5"/>
</g>
</g>
</svg>
