<?xml version="1.0" encoding="UTF-8" standalone="no"?>
<!DOCTYPE svg PUBLIC "-//W3C//DTD SVG 1.1//EN"
 "http://www.w3.org/Graphics/SVG/1.1/DTD/svg11.dtd">
<!-- Generated by graphviz version 2.43.0 (0)
 -->
<!-- Title: coap_read_session Pages: 1 -->
<svg width="1160pt" height="132pt"
 viewBox="0.00 0.00 1160.00 132.00" xmlns="http://www.w3.org/2000/svg" xmlns:xlink="http://www.w3.org/1999/xlink">
<g id="graph0" class="graph" transform="scale(1 1) rotate(0) translate(4 128)">
<title>coap_read_session</title>
<polygon fill="white" stroke="transparent" points="-4,4 -4,-128 1156,-128 1156,4 -4,4"/>
<!-- Node1 -->
<g id="node1" class="node">
<title>Node1</title>
<g id="a_node1"><a xlink:title=" ">
<polygon fill="#bfbfbf" stroke="black" points="1051,-28.5 1051,-47.5 1152,-47.5 1152,-28.5 1051,-28.5"/>
<text text-anchor="middle" x="1101.5" y="-35.5" font-family="Helvetica,sans-Serif" font-size="10.00">coap_read_session</text>
</a>
</g>
</g>
<!-- Node2 -->
<g id="node2" class="node">
<title>Node2</title>
<g id="a_node2"><a xlink:href="group__app__io__internal.html#ga503f851fa137eb8a9c2936e2098c5eb9" target="_top" xlink:title="Process all the epoll events.">
<polygon fill="white" stroke="black" points="923,-66.5 923,-85.5 1015,-85.5 1015,-66.5 923,-66.5"/>
<text text-anchor="middle" x="969" y="-73.5" font-family="Helvetica,sans-Serif" font-size="10.00">coap_io_do_epoll</text>
</a>
</g>
</g>
<!-- Node1&#45;&gt;Node2 -->
<g id="edge1" class="edge">
<title>Node1&#45;&gt;Node2</title>
<path fill="none" stroke="midnightblue" d="M1057.95,-50.39C1040.08,-55.59 1019.61,-61.55 1002.92,-66.41"/>
<polygon fill="midnightblue" stroke="midnightblue" points="1058.95,-53.75 1067.57,-47.59 1056.99,-47.02 1058.95,-53.75"/>
</g>
<!-- Node14 -->
<g id="node14" class="node">
<title>Node14</title>
<g id="a_node14"><a xlink:href="group__app__io__internal.html#ga2208802b0711ad20df07271b751b41dc" target="_top" xlink:title="Processes any outstanding read, write, accept or connect I/O as indicated in the coap_socket_t struct...">
<polygon fill="white" stroke="black" points="929.5,-28.5 929.5,-47.5 1008.5,-47.5 1008.5,-28.5 929.5,-28.5"/>
<text text-anchor="middle" x="969" y="-35.5" font-family="Helvetica,sans-Serif" font-size="10.00">coap_io_do_io</text>
</a>
</g>
</g>
<!-- Node1&#45;&gt;Node14 -->
<g id="edge14" class="edge">
<title>Node1&#45;&gt;Node14</title>
<path fill="none" stroke="midnightblue" d="M1040.5,-38C1029.66,-38 1018.63,-38 1008.61,-38"/>
<polygon fill="midnightblue" stroke="midnightblue" points="1040.79,-41.5 1050.79,-38 1040.79,-34.5 1040.79,-41.5"/>
</g>
<!-- Node3 -->
<g id="node3" class="node">
<title>Node3</title>
<g id="a_node3"><a xlink:href="group__app__io.html#ga2758ed5fdd6ce79ec95ea8dbf72a5644" target="_top" xlink:title="The main message processing loop with additional fds for internal select.">
<polygon fill="white" stroke="black" points="755,-66.5 755,-85.5 887,-85.5 887,-66.5 755,-66.5"/>
<text text-anchor="middle" x="821" y="-73.5" font-family="Helvetica,sans-Serif" font-size="10.00">coap_io_process_with_fds</text>
</a>
</g>
</g>
<!-- Node2&#45;&gt;Node3 -->
<g id="edge2" class="edge">
<title>Node2&#45;&gt;Node3</title>
<path fill="none" stroke="midnightblue" d="M912.38,-76C904.15,-76 895.6,-76 887.2,-76"/>
<polygon fill="midnightblue" stroke="midnightblue" points="912.61,-79.5 922.61,-76 912.6,-72.5 912.61,-79.5"/>
</g>
<!-- Node4 -->
<g id="node4" class="node">
<title>Node4</title>
<g id="a_node4"><a xlink:href="group__app__io.html#ga082f7bbf15d3f37c31c2a0a5e78ea4cf" target="_top" xlink:title="The main I/O processing function.">
<polygon fill="white" stroke="black" points="629,-66.5 629,-85.5 719,-85.5 719,-66.5 629,-66.5"/>
<text text-anchor="middle" x="674" y="-73.5" font-family="Helvetica,sans-Serif" font-size="10.00">coap_io_process</text>
</a>
</g>
</g>
<!-- Node3&#45;&gt;Node4 -->
<g id="edge3" class="edge">
<title>Node3&#45;&gt;Node4</title>
<path fill="none" stroke="midnightblue" d="M744.53,-76C735.85,-76 727.23,-76 719.17,-76"/>
<polygon fill="midnightblue" stroke="midnightblue" points="744.71,-79.5 754.71,-76 744.71,-72.5 744.71,-79.5"/>
</g>
<!-- Node5 -->
<g id="node5" class="node">
<title>Node5</title>
<g id="a_node5"><a xlink:href="group__context__internal.html#ga5d013d40174c7c217b24bf624f9d7310" target="_top" xlink:title="Delay the sending of the first client request until some other negotiation has completed.">
<polygon fill="white" stroke="black" points="477,-66.5 477,-85.5 593,-85.5 593,-66.5 477,-66.5"/>
<text text-anchor="middle" x="535" y="-73.5" font-family="Helvetica,sans-Serif" font-size="10.00">coap_client_delay_first</text>
</a>
</g>
</g>
<!-- Node4&#45;&gt;Node5 -->
<g id="edge4" class="edge">
<title>Node4&#45;&gt;Node5</title>
<path fill="none" stroke="midnightblue" d="M618.77,-76C610.31,-76 601.55,-76 593.04,-76"/>
<polygon fill="midnightblue" stroke="midnightblue" points="618.9,-79.5 628.9,-76 618.9,-72.5 618.9,-79.5"/>
</g>
<!-- Node12 -->
<g id="node12" class="node">
<title>Node12</title>
<g id="a_node12"><a xlink:href="group__app__io.html#gaca10debdb496ee890c45fe49a5799330" target="_top" xlink:title="Check to see if there is any i/o pending for the context.">
<polygon fill="white" stroke="black" points="490.5,-28.5 490.5,-47.5 579.5,-47.5 579.5,-28.5 490.5,-28.5"/>
<text text-anchor="middle" x="535" y="-35.5" font-family="Helvetica,sans-Serif" font-size="10.00">coap_io_pending</text>
</a>
</g>
</g>
<!-- Node4&#45;&gt;Node12 -->
<g id="edge12" class="edge">
<title>Node4&#45;&gt;Node12</title>
<path fill="none" stroke="midnightblue" d="M628.59,-63.68C609.77,-58.46 588.16,-52.47 570.56,-47.59"/>
<polygon fill="midnightblue" stroke="midnightblue" points="627.86,-67.11 638.43,-66.41 629.73,-60.37 627.86,-67.11"/>
</g>
<!-- Node13 -->
<g id="node13" class="node">
<title>Node13</title>
<g id="a_node13"><a xlink:href="net_8h.html#ac6b34aa979ec545eb710e45a26c98fc1" target="_top" xlink:title=" ">
<polygon fill="white" stroke="black" points="493.5,-104.5 493.5,-123.5 576.5,-123.5 576.5,-104.5 493.5,-104.5"/>
<text text-anchor="middle" x="535" y="-111.5" font-family="Helvetica,sans-Serif" font-size="10.00">coap_run_once</text>
</a>
</g>
</g>
<!-- Node4&#45;&gt;Node13 -->
<g id="edge13" class="edge">
<title>Node4&#45;&gt;Node13</title>
<path fill="none" stroke="midnightblue" d="M628.59,-88.32C609.77,-93.54 588.16,-99.53 570.56,-104.41"/>
<polygon fill="midnightblue" stroke="midnightblue" points="629.73,-91.63 638.43,-85.59 627.86,-84.89 629.73,-91.63"/>
</g>
<!-- Node6 -->
<g id="node6" class="node">
<title>Node6</title>
<g id="a_node6"><a xlink:href="group__session.html#ga4368ee622c681bf7cf0b7cfe99c8ab37" target="_top" xlink:title="Get maximum acceptable PDU size.">
<polygon fill="white" stroke="black" points="296,-66.5 296,-85.5 441,-85.5 441,-66.5 296,-66.5"/>
<text text-anchor="middle" x="368.5" y="-73.5" font-family="Helvetica,sans-Serif" font-size="10.00">coap_session_max_pdu_size</text>
</a>
</g>
</g>
<!-- Node5&#45;&gt;Node6 -->
<g id="edge5" class="edge">
<title>Node5&#45;&gt;Node6</title>
<path fill="none" stroke="midnightblue" d="M466.79,-76C458.37,-76 449.74,-76 441.25,-76"/>
<polygon fill="midnightblue" stroke="midnightblue" points="466.93,-79.5 476.93,-76 466.93,-72.5 466.93,-79.5"/>
</g>
<!-- Node7 -->
<g id="node7" class="node">
<title>Node7</title>
<g id="a_node7"><a xlink:href="group__context__internal.html#gae6b8ca457dd41f23372f9e9a7159312b" target="_top" xlink:title="Parses and interprets a CoAP datagram with context ctx.">
<polygon fill="white" stroke="black" points="156,-66.5 156,-85.5 260,-85.5 260,-66.5 156,-66.5"/>
<text text-anchor="middle" x="208" y="-73.5" font-family="Helvetica,sans-Serif" font-size="10.00">coap_handle_dgram</text>
</a>
</g>
</g>
<!-- Node6&#45;&gt;Node7 -->
<g id="edge6" class="edge">
<title>Node6&#45;&gt;Node7</title>
<path fill="none" stroke="midnightblue" d="M285.55,-76C276.93,-76 268.34,-76 260.21,-76"/>
<polygon fill="midnightblue" stroke="midnightblue" points="285.67,-79.5 295.67,-76 285.67,-72.5 285.67,-79.5"/>
</g>
<!-- Node9 -->
<g id="node9" class="node">
<title>Node9</title>
<g id="a_node9"><a xlink:href="group__pdu.html#ga6ab63e25c7c9eed3de00b0e1153b33b6" target="_top" xlink:title="Creates a new CoAP PDU.">
<polygon fill="white" stroke="black" points="167,-28.5 167,-47.5 249,-47.5 249,-28.5 167,-28.5"/>
<text text-anchor="middle" x="208" y="-35.5" font-family="Helvetica,sans-Serif" font-size="10.00">coap_new_pdu</text>
</a>
</g>
</g>
<!-- Node6&#45;&gt;Node9 -->
<g id="edge9" class="edge">
<title>Node6&#45;&gt;Node9</title>
<path fill="none" stroke="midnightblue" d="M317.58,-64.03C295.37,-58.71 269.58,-52.52 248.71,-47.52"/>
<polygon fill="midnightblue" stroke="midnightblue" points="316.96,-67.48 327.5,-66.41 318.6,-60.68 316.96,-67.48"/>
</g>
<!-- Node10 -->
<g id="node10" class="node">
<title>Node10</title>
<g id="a_node10"><a xlink:href="group__pdu.html#gabf10450d37381b133fb780480b4fca1b" target="_top" xlink:title="Duplicate an existing PDU.">
<polygon fill="white" stroke="black" points="156.5,-104.5 156.5,-123.5 259.5,-123.5 259.5,-104.5 156.5,-104.5"/>
<text text-anchor="middle" x="208" y="-111.5" font-family="Helvetica,sans-Serif" font-size="10.00">coap_pdu_duplicate</text>
</a>
</g>
</g>
<!-- Node6&#45;&gt;Node10 -->
<g id="edge10" class="edge">
<title>Node6&#45;&gt;Node10</title>
<path fill="none" stroke="midnightblue" d="M317.58,-87.97C295.37,-93.29 269.58,-99.48 248.71,-104.48"/>
<polygon fill="midnightblue" stroke="midnightblue" points="318.6,-91.32 327.5,-85.59 316.96,-84.52 318.6,-91.32"/>
</g>
<!-- Node8 -->
<g id="node8" class="node">
<title>Node8</title>
<g id="a_node8"><a xlink:href="net_8c.html#a8534f7860b14e0743529daff196a27ce" target="_top" xlink:title=" ">
<polygon fill="white" stroke="black" points="0,-20 0,-50 120,-50 120,-20 0,-20"/>
<text text-anchor="start" x="8" y="-38" font-family="Helvetica,sans-Serif" font-size="10.00">coap_handle_dgram_for</text>
<text text-anchor="middle" x="60" y="-27" font-family="Helvetica,sans-Serif" font-size="10.00">_proto</text>
</a>
</g>
</g>
<!-- Node7&#45;&gt;Node8 -->
<g id="edge7" class="edge">
<title>Node7&#45;&gt;Node8</title>
<path fill="none" stroke="midnightblue" d="M163.41,-63.76C148.11,-59.46 130.73,-54.58 114.69,-50.08"/>
<polygon fill="midnightblue" stroke="midnightblue" points="162.56,-67.16 173.14,-66.49 164.46,-60.42 162.56,-67.16"/>
</g>
<!-- Node8&#45;&gt;Node1 -->
<g id="edge8" class="edge">
<title>Node8&#45;&gt;Node1</title>
<path fill="none" stroke="midnightblue" d="M130.15,-22.56C192.1,-12.5 285.57,0 367.5,0 822,0 822,0 822,0 908.19,0 929.89,-5.4 1015,-19 1030.62,-21.49 1047.65,-25.1 1062.38,-28.5"/>
<polygon fill="midnightblue" stroke="midnightblue" points="129.4,-19.13 120.1,-24.21 130.54,-26.04 129.4,-19.13"/>
</g>
<!-- Node11 -->
<g id="node11" class="node">
<title>Node11</title>
<g id="a_node11"><a xlink:href="group__coap__async.html#ga14b20d8c5bf07bdda9f8bc6777540a84" target="_top" xlink:title="Allocates a new coap_async_t object and fills its fields according to the given request.">
<polygon fill="white" stroke="black" points="6.5,-104.5 6.5,-123.5 113.5,-123.5 113.5,-104.5 6.5,-104.5"/>
<text text-anchor="middle" x="60" y="-111.5" font-family="Helvetica,sans-Serif" font-size="10.00">coap_register_async</text>
</a>
</g>
</g>
<!-- Node10&#45;&gt;Node11 -->
<g id="edge11" class="edge">
<title>Node10&#45;&gt;Node11</title>
<path fill="none" stroke="midnightblue" d="M146.12,-114C135.3,-114 124.11,-114 113.55,-114"/>
<polygon fill="midnightblue" stroke="midnightblue" points="146.35,-117.5 156.35,-114 146.35,-110.5 146.35,-117.5"/>
</g>
<!-- Node14&#45;&gt;Node3 -->
<g id="edge15" class="edge">
<title>Node14&#45;&gt;Node3</title>
<path fill="none" stroke="midnightblue" d="M921.46,-50.11C901.13,-55.4 877.63,-61.52 858.58,-66.48"/>
<polygon fill="midnightblue" stroke="midnightblue" points="922.36,-53.5 931.16,-47.59 920.6,-46.72 922.36,-53.5"/>
</g>
<!-- Node15 -->
<g id="node15" class="node">
<title>Node15</title>
<g id="a_node15"><a xlink:href="net_8h.html#af937985e2b14a287a849663574d59bcb" target="_top" xlink:title=" ">
<polygon fill="white" stroke="black" points="790,-28.5 790,-47.5 852,-47.5 852,-28.5 790,-28.5"/>
<text text-anchor="middle" x="821" y="-35.5" font-family="Helvetica,sans-Serif" font-size="10.00">coap_read</text>
</a>
</g>
</g>
<!-- Node14&#45;&gt;Node15 -->
<g id="edge16" class="edge">
<title>Node14&#45;&gt;Node15</title>
<path fill="none" stroke="midnightblue" d="M919.02,-38C896.88,-38 871.41,-38 852.12,-38"/>
<polygon fill="midnightblue" stroke="midnightblue" points="919.26,-41.5 929.26,-38 919.26,-34.5 919.26,-41.5"/>
</g>
</g>
</svg>
