<?xml version="1.0" encoding="UTF-8" standalone="no"?>
<!DOCTYPE svg PUBLIC "-//W3C//DTD SVG 1.1//EN"
 "http://www.w3.org/Graphics/SVG/1.1/DTD/svg11.dtd">
<!-- Generated by graphviz version 2.43.0 (0)
 -->
<!-- Title: net.h Pages: 1 -->
<svg width="3655pt" height="364pt"
 viewBox="0.00 0.00 3655.00 364.00" xmlns="http://www.w3.org/2000/svg" xmlns:xlink="http://www.w3.org/1999/xlink">
<g id="graph0" class="graph" transform="scale(1 1) rotate(0) translate(4 360)">
<title>net.h</title>
<polygon fill="white" stroke="transparent" points="-4,4 -4,-360 3651,-360 3651,4 -4,4"/>
<!-- Node1 -->
<g id="node1" class="node">
<title>Node1</title>
<g id="a_node1"><a xlink:title="CoAP context interface.">
<polygon fill="#bfbfbf" stroke="black" points="2252,-336.5 2252,-355.5 2290,-355.5 2290,-336.5 2252,-336.5"/>
<text text-anchor="middle" x="2271" y="-343.5" font-family="Helvetica,sans-Serif" font-size="10.00">net.h</text>
</a>
</g>
</g>
<!-- Node2 -->
<g id="node2" class="node">
<title>Node2</title>
<g id="a_node2"><a xlink:href="coap__async_8h.html" target="_top" xlink:title="State management for asynchronous messages.">
<polygon fill="white" stroke="black" points="2165.5,-280.5 2165.5,-299.5 2242.5,-299.5 2242.5,-280.5 2165.5,-280.5"/>
<text text-anchor="middle" x="2204" y="-287.5" font-family="Helvetica,sans-Serif" font-size="10.00">coap_async.h</text>
</a>
</g>
</g>
<!-- Node1&#45;&gt;Node2 -->
<g id="edge1" class="edge">
<title>Node1&#45;&gt;Node2</title>
<path fill="none" stroke="midnightblue" d="M2252.17,-329.82C2240.16,-320.15 2225.03,-307.95 2214.96,-299.83"/>
<polygon fill="midnightblue" stroke="midnightblue" points="2250.25,-332.77 2260.24,-336.32 2254.65,-327.32 2250.25,-332.77"/>
</g>
<!-- Node3 -->
<g id="node3" class="node">
<title>Node3</title>
<g id="a_node3"><a xlink:href="resource_8h.html" target="_top" xlink:title="Generic resource handling.">
<polygon fill="white" stroke="black" points="2173,-224.5 2173,-243.5 2235,-243.5 2235,-224.5 2173,-224.5"/>
<text text-anchor="middle" x="2204" y="-231.5" font-family="Helvetica,sans-Serif" font-size="10.00">resource.h</text>
</a>
</g>
</g>
<!-- Node1&#45;&gt;Node3 -->
<g id="edge58" class="edge">
<title>Node1&#45;&gt;Node3</title>
<path fill="none" stroke="midnightblue" d="M2267.88,-326.35C2265.01,-312.76 2259.82,-294.29 2251,-280 2241.87,-265.19 2226.71,-251.92 2216.09,-243.69"/>
<polygon fill="midnightblue" stroke="midnightblue" points="2264.49,-327.25 2269.78,-336.43 2271.37,-325.96 2264.49,-327.25"/>
</g>
<!-- Node11 -->
<g id="node11" class="node">
<title>Node11</title>
<g id="a_node11"><a xlink:href="coap__async__internal_8h.html" target="_top" xlink:title="CoAP async internal information.">
<polygon fill="white" stroke="black" points="3533,-56.5 3533,-75.5 3647,-75.5 3647,-56.5 3533,-56.5"/>
<text text-anchor="middle" x="3590" y="-63.5" font-family="Helvetica,sans-Serif" font-size="10.00">coap_async_internal.h</text>
</a>
</g>
</g>
<!-- Node1&#45;&gt;Node11 -->
<g id="edge57" class="edge">
<title>Node1&#45;&gt;Node11</title>
<path fill="none" stroke="midnightblue" d="M2300.13,-344.54C2453.77,-341.75 3163,-324.05 3163,-235 3163,-235 3163,-235 3163,-177 3163,-139.11 3418.43,-94.03 3534.18,-75.55"/>
<polygon fill="midnightblue" stroke="midnightblue" points="2299.98,-341.04 2290.04,-344.72 2300.1,-348.04 2299.98,-341.04"/>
</g>
<!-- Node2&#45;&gt;Node3 -->
<g id="edge2" class="edge">
<title>Node2&#45;&gt;Node3</title>
<path fill="none" stroke="midnightblue" d="M2204,-269.8C2204,-260.91 2204,-250.78 2204,-243.75"/>
<polygon fill="midnightblue" stroke="midnightblue" points="2200.5,-270.08 2204,-280.08 2207.5,-270.08 2200.5,-270.08"/>
</g>
<!-- Node4 -->
<g id="node4" class="node">
<title>Node4</title>
<g id="a_node4"><a xlink:href="coap__block__internal_8h.html" target="_top" xlink:title="CoAP block internal information.">
<polygon fill="white" stroke="black" points="1721.5,-168.5 1721.5,-187.5 1832.5,-187.5 1832.5,-168.5 1721.5,-168.5"/>
<text text-anchor="middle" x="1777" y="-175.5" font-family="Helvetica,sans-Serif" font-size="10.00">coap_block_internal.h</text>
</a>
</g>
</g>
<!-- Node3&#45;&gt;Node4 -->
<g id="edge3" class="edge">
<title>Node3&#45;&gt;Node4</title>
<path fill="none" stroke="midnightblue" d="M2162.66,-227.77C2085.47,-218.01 1919.37,-197.01 1832.51,-186.02"/>
<polygon fill="midnightblue" stroke="midnightblue" points="2162.59,-231.29 2172.95,-229.07 2163.47,-224.35 2162.59,-231.29"/>
</g>
<!-- Node5 -->
<g id="node5" class="node">
<title>Node5</title>
<g id="a_node5"><a xlink:href="coap__internal_8h.html" target="_top" xlink:title="Pulls together all the internal only header files.">
<polygon fill="white" stroke="black" points="1735.5,-112.5 1735.5,-131.5 1818.5,-131.5 1818.5,-112.5 1735.5,-112.5"/>
<text text-anchor="middle" x="1777" y="-119.5" font-family="Helvetica,sans-Serif" font-size="10.00">coap_internal.h</text>
</a>
</g>
</g>
<!-- Node4&#45;&gt;Node5 -->
<g id="edge4" class="edge">
<title>Node4&#45;&gt;Node5</title>
<path fill="none" stroke="midnightblue" d="M1770.53,-158.1C1769.9,-149.14 1770.34,-138.86 1771.87,-131.75"/>
<polygon fill="midnightblue" stroke="midnightblue" points="1767.07,-158.62 1771.83,-168.08 1774.01,-157.71 1767.07,-158.62"/>
</g>
<!-- Node5&#45;&gt;Node4 -->
<g id="edge13" class="edge">
<title>Node5&#45;&gt;Node4</title>
<path fill="none" stroke="midnightblue" d="M1783.46,-141.69C1784.11,-150.64 1783.68,-160.93 1782.17,-168.08"/>
<polygon fill="midnightblue" stroke="midnightblue" points="1786.92,-141.2 1782.13,-131.75 1779.98,-142.13 1786.92,-141.2"/>
</g>
<!-- Node6 -->
<g id="node6" class="node">
<title>Node6</title>
<g id="a_node6"><a xlink:href="block_8c.html" target="_top" xlink:title="CoAP Block handling.">
<polygon fill="white" stroke="black" points="3363,-56.5 3363,-75.5 3411,-75.5 3411,-56.5 3363,-56.5"/>
<text text-anchor="middle" x="3387" y="-63.5" font-family="Helvetica,sans-Serif" font-size="10.00">block.c</text>
</a>
</g>
</g>
<!-- Node5&#45;&gt;Node6 -->
<g id="edge5" class="edge">
<title>Node5&#45;&gt;Node6</title>
<path fill="none" stroke="midnightblue" d="M1828.78,-121.12C2065.82,-121.43 3048.86,-120 3353,-76 3356.26,-75.53 3359.66,-74.85 3363,-74.09"/>
<polygon fill="midnightblue" stroke="midnightblue" points="1828.72,-117.62 1818.71,-121.11 1828.71,-124.62 1828.72,-117.62"/>
</g>
<!-- Node7 -->
<g id="node7" class="node">
<title>Node7</title>
<g id="a_node7"><a xlink:href="coap__address_8c.html" target="_top" xlink:title="Handling of network addresses.">
<polygon fill="white" stroke="black" points="3429,-56.5 3429,-75.5 3515,-75.5 3515,-56.5 3429,-56.5"/>
<text text-anchor="middle" x="3472" y="-63.5" font-family="Helvetica,sans-Serif" font-size="10.00">coap_address.c</text>
</a>
</g>
</g>
<!-- Node5&#45;&gt;Node7 -->
<g id="edge6" class="edge">
<title>Node5&#45;&gt;Node7</title>
<path fill="none" stroke="midnightblue" d="M1828.89,-120.59C2072.06,-118.49 3100.35,-107.87 3420,-76 3422.92,-75.71 3425.92,-75.35 3428.94,-74.95"/>
<polygon fill="midnightblue" stroke="midnightblue" points="1828.54,-117.09 1818.57,-120.67 1828.6,-124.09 1828.54,-117.09"/>
</g>
<!-- Node8 -->
<g id="node8" class="node">
<title>Node8</title>
<g id="a_node8"><a xlink:href="coap__asn1_8c.html" target="_top" xlink:title="CoAP specific ASN.1 handling.">
<polygon fill="white" stroke="black" points="122,-56.5 122,-75.5 194,-75.5 194,-56.5 122,-56.5"/>
<text text-anchor="middle" x="158" y="-63.5" font-family="Helvetica,sans-Serif" font-size="10.00">coap_asn1.c</text>
</a>
</g>
</g>
<!-- Node5&#45;&gt;Node8 -->
<g id="edge7" class="edge">
<title>Node5&#45;&gt;Node8</title>
<path fill="none" stroke="midnightblue" d="M1725.34,-120.7C1488.84,-119.12 507.96,-110.6 203,-76 200.15,-75.68 197.21,-75.27 194.27,-74.8"/>
<polygon fill="midnightblue" stroke="midnightblue" points="1725.36,-124.2 1735.39,-120.76 1725.41,-117.2 1725.36,-124.2"/>
</g>
<!-- Node9 -->
<g id="node9" class="node">
<title>Node9</title>
<g id="a_node9"><a xlink:href="coap__asn1__internal_8h.html" target="_top" xlink:title="CoAP ASN.1 internal information.">
<polygon fill="white" stroke="black" points="212.5,-56.5 212.5,-75.5 321.5,-75.5 321.5,-56.5 212.5,-56.5"/>
<text text-anchor="middle" x="267" y="-63.5" font-family="Helvetica,sans-Serif" font-size="10.00">coap_asn1_internal.h</text>
</a>
</g>
</g>
<!-- Node5&#45;&gt;Node9 -->
<g id="edge8" class="edge">
<title>Node5&#45;&gt;Node9</title>
<path fill="none" stroke="midnightblue" d="M1725.07,-121.44C1536.13,-122.68 868.41,-123.47 321,-76 319.35,-75.86 317.68,-75.7 315.99,-75.53"/>
<polygon fill="midnightblue" stroke="midnightblue" points="1725.29,-124.94 1735.27,-121.37 1725.24,-117.94 1725.29,-124.94"/>
</g>
<!-- Node10 -->
<g id="node10" class="node">
<title>Node10</title>
<g id="a_node10"><a xlink:href="coap__async_8c.html" target="_top" xlink:title="State handling for asynchronous messages.">
<polygon fill="white" stroke="black" points="339.5,-56.5 339.5,-75.5 416.5,-75.5 416.5,-56.5 339.5,-56.5"/>
<text text-anchor="middle" x="378" y="-63.5" font-family="Helvetica,sans-Serif" font-size="10.00">coap_async.c</text>
</a>
</g>
</g>
<!-- Node5&#45;&gt;Node10 -->
<g id="edge10" class="edge">
<title>Node5&#45;&gt;Node10</title>
<path fill="none" stroke="midnightblue" d="M1725.11,-120.36C1509.55,-117.51 683.92,-104.92 425,-76 422.28,-75.7 419.47,-75.32 416.66,-74.9"/>
<polygon fill="midnightblue" stroke="midnightblue" points="1725.16,-123.86 1735.21,-120.49 1725.25,-116.86 1725.16,-123.86"/>
</g>
<!-- Node5&#45;&gt;Node11 -->
<g id="edge11" class="edge">
<title>Node5&#45;&gt;Node11</title>
<path fill="none" stroke="midnightblue" d="M1828.9,-120.4C2080.52,-117.45 3174.39,-103.53 3515,-76 3520.76,-75.53 3526.79,-74.91 3532.83,-74.2"/>
<polygon fill="midnightblue" stroke="midnightblue" points="1828.54,-116.9 1818.59,-120.52 1828.63,-123.9 1828.54,-116.9"/>
</g>
<!-- Node12 -->
<g id="node12" class="node">
<title>Node12</title>
<g id="a_node12"><a xlink:href="coap__cache_8c.html" target="_top" xlink:title="CoAP Cache handling.">
<polygon fill="white" stroke="black" points="434.5,-56.5 434.5,-75.5 511.5,-75.5 511.5,-56.5 434.5,-56.5"/>
<text text-anchor="middle" x="473" y="-63.5" font-family="Helvetica,sans-Serif" font-size="10.00">coap_cache.c</text>
</a>
</g>
</g>
<!-- Node5&#45;&gt;Node12 -->
<g id="edge14" class="edge">
<title>Node5&#45;&gt;Node12</title>
<path fill="none" stroke="midnightblue" d="M1725.15,-120.18C1519.4,-116.75 760.14,-102.55 521,-76 517.97,-75.66 514.84,-75.24 511.7,-74.77"/>
<polygon fill="midnightblue" stroke="midnightblue" points="1725.31,-123.68 1735.37,-120.35 1725.43,-116.68 1725.31,-123.68"/>
</g>
<!-- Node13 -->
<g id="node13" class="node">
<title>Node13</title>
<g id="a_node13"><a xlink:href="coap__cache__internal_8h.html" target="_top" xlink:title="CoAP cache internal information.">
<polygon fill="white" stroke="black" points="530,-56.5 530,-75.5 644,-75.5 644,-56.5 530,-56.5"/>
<text text-anchor="middle" x="587" y="-63.5" font-family="Helvetica,sans-Serif" font-size="10.00">coap_cache_internal.h</text>
</a>
</g>
</g>
<!-- Node5&#45;&gt;Node13 -->
<g id="edge15" class="edge">
<title>Node5&#45;&gt;Node13</title>
<path fill="none" stroke="midnightblue" d="M1725.33,-120.72C1564.55,-119.45 1059.71,-112.58 644,-76 642.27,-75.85 640.52,-75.68 638.75,-75.51"/>
<polygon fill="midnightblue" stroke="midnightblue" points="1725.39,-124.22 1735.42,-120.79 1725.44,-117.22 1725.39,-124.22"/>
</g>
<!-- Node14 -->
<g id="node14" class="node">
<title>Node14</title>
<g id="a_node14"><a xlink:href="coap__debug_8c.html" target="_top" xlink:title="Debug utilities.">
<polygon fill="white" stroke="black" points="662.5,-56.5 662.5,-75.5 739.5,-75.5 739.5,-56.5 662.5,-56.5"/>
<text text-anchor="middle" x="701" y="-63.5" font-family="Helvetica,sans-Serif" font-size="10.00">coap_debug.c</text>
</a>
</g>
</g>
<!-- Node5&#45;&gt;Node14 -->
<g id="edge17" class="edge">
<title>Node5&#45;&gt;Node14</title>
<path fill="none" stroke="midnightblue" d="M1724.84,-121.32C1573.47,-121.68 1121.19,-118.82 749,-76 745.97,-75.65 742.84,-75.22 739.7,-74.74"/>
<polygon fill="midnightblue" stroke="midnightblue" points="1725.23,-124.82 1735.22,-121.29 1725.2,-117.82 1725.23,-124.82"/>
</g>
<!-- Node15 -->
<g id="node15" class="node">
<title>Node15</title>
<g id="a_node15"><a xlink:href="coap__dtls__internal_8h.html" target="_top" xlink:title="Internal CoAP DTLS support.">
<polygon fill="white" stroke="black" points="758,-56.5 758,-75.5 862,-75.5 862,-56.5 758,-56.5"/>
<text text-anchor="middle" x="810" y="-63.5" font-family="Helvetica,sans-Serif" font-size="10.00">coap_dtls_internal.h</text>
</a>
</g>
</g>
<!-- Node5&#45;&gt;Node15 -->
<g id="edge18" class="edge">
<title>Node5&#45;&gt;Node15</title>
<path fill="none" stroke="midnightblue" d="M1725.17,-120.26C1585.29,-117.8 1189.21,-108.19 862,-76 860.51,-75.85 859,-75.7 857.48,-75.53"/>
<polygon fill="midnightblue" stroke="midnightblue" points="1725.13,-123.76 1735.18,-120.43 1725.24,-116.76 1725.13,-123.76"/>
</g>
<!-- Node16 -->
<g id="node16" class="node">
<title>Node16</title>
<g id="a_node16"><a xlink:href="coap__event_8c.html" target="_top" xlink:title="Event handling.">
<polygon fill="white" stroke="black" points="880.5,-56.5 880.5,-75.5 955.5,-75.5 955.5,-56.5 880.5,-56.5"/>
<text text-anchor="middle" x="918" y="-63.5" font-family="Helvetica,sans-Serif" font-size="10.00">coap_event.c</text>
</a>
</g>
</g>
<!-- Node5&#45;&gt;Node16 -->
<g id="edge20" class="edge">
<title>Node5&#45;&gt;Node16</title>
<path fill="none" stroke="midnightblue" d="M1724.98,-120.6C1595.74,-119.08 1249.83,-111.7 964,-76 961.25,-75.66 958.43,-75.25 955.59,-74.79"/>
<polygon fill="midnightblue" stroke="midnightblue" points="1725.32,-124.11 1735.36,-120.72 1725.4,-117.11 1725.32,-124.11"/>
</g>
<!-- Node17 -->
<g id="node17" class="node">
<title>Node17</title>
<g id="a_node17"><a xlink:href="coap__gnutls_8c.html" target="_top" xlink:title="GndTLS interafe functions.">
<polygon fill="white" stroke="black" points="973.5,-56.5 973.5,-75.5 1050.5,-75.5 1050.5,-56.5 973.5,-56.5"/>
<text text-anchor="middle" x="1012" y="-63.5" font-family="Helvetica,sans-Serif" font-size="10.00">coap_gnutls.c</text>
</a>
</g>
</g>
<!-- Node5&#45;&gt;Node17 -->
<g id="edge21" class="edge">
<title>Node5&#45;&gt;Node17</title>
<path fill="none" stroke="midnightblue" d="M1724.99,-119.92C1606.54,-116.99 1307.79,-106.89 1060,-76 1056.97,-75.62 1053.84,-75.17 1050.71,-74.68"/>
<polygon fill="midnightblue" stroke="midnightblue" points="1725.13,-123.43 1735.21,-120.17 1725.3,-116.43 1725.13,-123.43"/>
</g>
<!-- Node18 -->
<g id="node18" class="node">
<title>Node18</title>
<g id="a_node18"><a xlink:href="coap__hashkey_8c.html" target="_top" xlink:title="Hashkey functions.">
<polygon fill="white" stroke="black" points="1069,-56.5 1069,-75.5 1155,-75.5 1155,-56.5 1069,-56.5"/>
<text text-anchor="middle" x="1112" y="-63.5" font-family="Helvetica,sans-Serif" font-size="10.00">coap_hashkey.c</text>
</a>
</g>
</g>
<!-- Node5&#45;&gt;Node18 -->
<g id="edge22" class="edge">
<title>Node5&#45;&gt;Node18</title>
<path fill="none" stroke="midnightblue" d="M1725.15,-118.91C1619.34,-114.27 1371.05,-101.46 1164,-76 1161.09,-75.64 1158.1,-75.23 1155.08,-74.79"/>
<polygon fill="midnightblue" stroke="midnightblue" points="1725.1,-122.41 1735.24,-119.35 1725.4,-115.42 1725.1,-122.41"/>
</g>
<!-- Node19 -->
<g id="node19" class="node">
<title>Node19</title>
<g id="a_node19"><a xlink:href="coap__io_8c.html" target="_top" xlink:title="Network I/O functions.">
<polygon fill="white" stroke="black" points="1173.5,-56.5 1173.5,-75.5 1232.5,-75.5 1232.5,-56.5 1173.5,-56.5"/>
<text text-anchor="middle" x="1203" y="-63.5" font-family="Helvetica,sans-Serif" font-size="10.00">coap_io.c</text>
</a>
</g>
</g>
<!-- Node5&#45;&gt;Node19 -->
<g id="edge23" class="edge">
<title>Node5&#45;&gt;Node19</title>
<path fill="none" stroke="midnightblue" d="M1725.37,-119.22C1629.43,-115.35 1417.39,-104.13 1241,-76 1238.32,-75.57 1235.55,-75.06 1232.79,-74.5"/>
<polygon fill="midnightblue" stroke="midnightblue" points="1725.26,-122.72 1735.39,-119.61 1725.53,-115.72 1725.26,-122.72"/>
</g>
<!-- Node20 -->
<g id="node20" class="node">
<title>Node20</title>
<g id="a_node20"><a xlink:href="coap__io__internal_8h.html" target="_top" xlink:title="Internal network I/O functions.">
<polygon fill="white" stroke="black" points="1250.5,-56.5 1250.5,-75.5 1345.5,-75.5 1345.5,-56.5 1250.5,-56.5"/>
<text text-anchor="middle" x="1298" y="-63.5" font-family="Helvetica,sans-Serif" font-size="10.00">coap_io_internal.h</text>
</a>
</g>
</g>
<!-- Node5&#45;&gt;Node20 -->
<g id="edge24" class="edge">
<title>Node5&#45;&gt;Node20</title>
<path fill="none" stroke="midnightblue" d="M1724.98,-116.55C1644.45,-109.03 1485.3,-92.99 1351,-76 1349.27,-75.78 1347.52,-75.56 1345.75,-75.32"/>
<polygon fill="midnightblue" stroke="midnightblue" points="1725.06,-120.07 1735.34,-117.51 1725.71,-113.1 1725.06,-120.07"/>
</g>
<!-- Node21 -->
<g id="node21" class="node">
<title>Node21</title>
<g id="a_node21"><a xlink:href="coap__session__internal_8h.html" target="_top" xlink:title="CoAP session internal information.">
<polygon fill="white" stroke="black" points="1322,-0.5 1322,-19.5 1444,-19.5 1444,-0.5 1322,-0.5"/>
<text text-anchor="middle" x="1383" y="-7.5" font-family="Helvetica,sans-Serif" font-size="10.00">coap_session_internal.h</text>
</a>
</g>
</g>
<!-- Node5&#45;&gt;Node21 -->
<g id="edge41" class="edge">
<title>Node5&#45;&gt;Node21</title>
<path fill="none" stroke="midnightblue" d="M1725.33,-120.9C1634.47,-119.82 1451.45,-113.06 1402,-76 1383.71,-62.29 1377.22,-34.19 1378.49,-19.85"/>
<polygon fill="midnightblue" stroke="midnightblue" points="1725.38,-124.4 1735.42,-121 1725.45,-117.4 1725.38,-124.4"/>
</g>
<!-- Node22 -->
<g id="node22" class="node">
<title>Node22</title>
<g id="a_node22"><a xlink:href="coap__mbedtls_8c.html" target="_top" xlink:title="Mbed TLS specific interface functions.">
<polygon fill="white" stroke="black" points="1420,-56.5 1420,-75.5 1506,-75.5 1506,-56.5 1420,-56.5"/>
<text text-anchor="middle" x="1463" y="-63.5" font-family="Helvetica,sans-Serif" font-size="10.00">coap_mbedtls.c</text>
</a>
</g>
</g>
<!-- Node5&#45;&gt;Node22 -->
<g id="edge28" class="edge">
<title>Node5&#45;&gt;Node22</title>
<path fill="none" stroke="midnightblue" d="M1725.11,-112.11C1672.25,-103.04 1587.91,-88.57 1515,-76 1512.11,-75.5 1509.13,-74.99 1506.13,-74.47"/>
<polygon fill="midnightblue" stroke="midnightblue" points="1724.8,-115.61 1735.25,-113.85 1725.99,-108.71 1724.8,-115.61"/>
</g>
<!-- Node23 -->
<g id="node23" class="node">
<title>Node23</title>
<g id="a_node23"><a xlink:href="coap__net__internal_8h.html" target="_top" xlink:title="CoAP context internal information.">
<polygon fill="white" stroke="black" points="1524.5,-56.5 1524.5,-75.5 1625.5,-75.5 1625.5,-56.5 1524.5,-56.5"/>
<text text-anchor="middle" x="1575" y="-63.5" font-family="Helvetica,sans-Serif" font-size="10.00">coap_net_internal.h</text>
</a>
</g>
</g>
<!-- Node5&#45;&gt;Node23 -->
<g id="edge29" class="edge">
<title>Node5&#45;&gt;Node23</title>
<path fill="none" stroke="midnightblue" d="M1730.13,-109.96C1690.25,-99.76 1634.54,-84.82 1601.78,-75.52"/>
<polygon fill="midnightblue" stroke="midnightblue" points="1729.35,-113.37 1739.9,-112.44 1731.07,-106.59 1729.35,-113.37"/>
</g>
<!-- Node24 -->
<g id="node24" class="node">
<title>Node24</title>
<g id="a_node24"><a xlink:href="coap__notls_8c.html" target="_top" xlink:title="NoTLS specific interface functions.">
<polygon fill="white" stroke="black" points="1644,-56.5 1644,-75.5 1716,-75.5 1716,-56.5 1644,-56.5"/>
<text text-anchor="middle" x="1680" y="-63.5" font-family="Helvetica,sans-Serif" font-size="10.00">coap_notls.c</text>
</a>
</g>
</g>
<!-- Node5&#45;&gt;Node24 -->
<g id="edge31" class="edge">
<title>Node5&#45;&gt;Node24</title>
<path fill="none" stroke="midnightblue" d="M1752.66,-107.45C1734.76,-97.48 1710.95,-84.23 1695.55,-75.65"/>
<polygon fill="midnightblue" stroke="midnightblue" points="1750.98,-110.52 1761.42,-112.32 1754.38,-104.4 1750.98,-110.52"/>
</g>
<!-- Node25 -->
<g id="node25" class="node">
<title>Node25</title>
<g id="a_node25"><a xlink:href="coap__openssl_8c.html" target="_top" xlink:title="OpenSSL specific interface functions.">
<polygon fill="white" stroke="black" points="1734.5,-56.5 1734.5,-75.5 1819.5,-75.5 1819.5,-56.5 1734.5,-56.5"/>
<text text-anchor="middle" x="1777" y="-63.5" font-family="Helvetica,sans-Serif" font-size="10.00">coap_openssl.c</text>
</a>
</g>
</g>
<!-- Node5&#45;&gt;Node25 -->
<g id="edge32" class="edge">
<title>Node5&#45;&gt;Node25</title>
<path fill="none" stroke="midnightblue" d="M1777,-101.8C1777,-92.91 1777,-82.78 1777,-75.75"/>
<polygon fill="midnightblue" stroke="midnightblue" points="1773.5,-102.08 1777,-112.08 1780.5,-102.08 1773.5,-102.08"/>
</g>
<!-- Node26 -->
<g id="node26" class="node">
<title>Node26</title>
<g id="a_node26"><a xlink:href="coap__option_8c.html" target="_top" xlink:title="CoAP option handling functions.">
<polygon fill="white" stroke="black" points="1837.5,-56.5 1837.5,-75.5 1914.5,-75.5 1914.5,-56.5 1837.5,-56.5"/>
<text text-anchor="middle" x="1876" y="-63.5" font-family="Helvetica,sans-Serif" font-size="10.00">coap_option.c</text>
</a>
</g>
</g>
<!-- Node5&#45;&gt;Node26 -->
<g id="edge33" class="edge">
<title>Node5&#45;&gt;Node26</title>
<path fill="none" stroke="midnightblue" d="M1801.84,-107.45C1820.11,-97.48 1844.42,-84.23 1860.13,-75.65"/>
<polygon fill="midnightblue" stroke="midnightblue" points="1800.01,-104.46 1792.91,-112.32 1803.36,-110.61 1800.01,-104.46"/>
</g>
<!-- Node27 -->
<g id="node27" class="node">
<title>Node27</title>
<g id="a_node27"><a xlink:href="coap__pdu__internal_8h.html" target="_top" xlink:title="CoAP PDU internal information.">
<polygon fill="white" stroke="black" points="0,-56.5 0,-75.5 104,-75.5 104,-56.5 0,-56.5"/>
<text text-anchor="middle" x="52" y="-63.5" font-family="Helvetica,sans-Serif" font-size="10.00">coap_pdu_internal.h</text>
</a>
</g>
</g>
<!-- Node5&#45;&gt;Node27 -->
<g id="edge34" class="edge">
<title>Node5&#45;&gt;Node27</title>
<path fill="none" stroke="midnightblue" d="M1725.22,-120.47C1479.42,-117.73 429.7,-104.33 104,-76 102.29,-75.85 100.56,-75.69 98.82,-75.51"/>
<polygon fill="midnightblue" stroke="midnightblue" points="1725.27,-123.97 1735.3,-120.58 1725.34,-116.97 1725.27,-123.97"/>
</g>
<!-- Node28 -->
<g id="node28" class="node">
<title>Node28</title>
<g id="a_node28"><a xlink:href="coap__prng_8c.html" target="_top" xlink:title="Pseudo Random Number functions.">
<polygon fill="white" stroke="black" points="1933,-56.5 1933,-75.5 2003,-75.5 2003,-56.5 1933,-56.5"/>
<text text-anchor="middle" x="1968" y="-63.5" font-family="Helvetica,sans-Serif" font-size="10.00">coap_prng.c</text>
</a>
</g>
</g>
<!-- Node5&#45;&gt;Node28 -->
<g id="edge37" class="edge">
<title>Node5&#45;&gt;Node28</title>
<path fill="none" stroke="midnightblue" d="M1816.97,-109.7C1853.02,-99.51 1905.24,-84.74 1937.88,-75.52"/>
<polygon fill="midnightblue" stroke="midnightblue" points="1815.94,-106.35 1807.26,-112.44 1817.84,-113.09 1815.94,-106.35"/>
</g>
<!-- Node29 -->
<g id="node29" class="node">
<title>Node29</title>
<g id="a_node29"><a xlink:href="coap__resource__internal_8h.html" target="_top" xlink:title="Generic resource internal handling.">
<polygon fill="white" stroke="black" points="2021.5,-56.5 2021.5,-75.5 2146.5,-75.5 2146.5,-56.5 2021.5,-56.5"/>
<text text-anchor="middle" x="2084" y="-63.5" font-family="Helvetica,sans-Serif" font-size="10.00">coap_resource_internal.h</text>
</a>
</g>
</g>
<!-- Node5&#45;&gt;Node29 -->
<g id="edge38" class="edge">
<title>Node5&#45;&gt;Node29</title>
<path fill="none" stroke="midnightblue" d="M1828.7,-110.96C1884.81,-100.75 1973.82,-85.11 2030.59,-75.5"/>
<polygon fill="midnightblue" stroke="midnightblue" points="1827.83,-107.56 1818.62,-112.8 1829.08,-114.45 1827.83,-107.56"/>
</g>
<!-- Node30 -->
<g id="node30" class="node">
<title>Node30</title>
<g id="a_node30"><a xlink:href="coap__session_8c.html" target="_top" xlink:title="Session handling functions.">
<polygon fill="white" stroke="black" points="2164.5,-56.5 2164.5,-75.5 2249.5,-75.5 2249.5,-56.5 2164.5,-56.5"/>
<text text-anchor="middle" x="2207" y="-63.5" font-family="Helvetica,sans-Serif" font-size="10.00">coap_session.c</text>
</a>
</g>
</g>
<!-- Node5&#45;&gt;Node30 -->
<g id="edge40" class="edge">
<title>Node5&#45;&gt;Node30</title>
<path fill="none" stroke="midnightblue" d="M1829.06,-115.68C1902.06,-108.03 2038.91,-92.94 2155,-76 2158.08,-75.55 2161.26,-75.06 2164.46,-74.55"/>
<polygon fill="midnightblue" stroke="midnightblue" points="1828.35,-112.24 1818.77,-116.76 1829.08,-119.2 1828.35,-112.24"/>
</g>
<!-- Node31 -->
<g id="node31" class="node">
<title>Node31</title>
<g id="a_node31"><a xlink:href="coap__subscribe_8c.html" target="_top" xlink:title="Subscription handling functions.">
<polygon fill="white" stroke="black" points="2267.5,-56.5 2267.5,-75.5 2360.5,-75.5 2360.5,-56.5 2267.5,-56.5"/>
<text text-anchor="middle" x="2314" y="-63.5" font-family="Helvetica,sans-Serif" font-size="10.00">coap_subscribe.c</text>
</a>
</g>
</g>
<!-- Node5&#45;&gt;Node31 -->
<g id="edge42" class="edge">
<title>Node5&#45;&gt;Node31</title>
<path fill="none" stroke="midnightblue" d="M1828.61,-117.3C1916.81,-110.72 2102.13,-95.79 2258,-76 2261.03,-75.62 2264.14,-75.19 2267.28,-74.74"/>
<polygon fill="midnightblue" stroke="midnightblue" points="1828.31,-113.81 1818.6,-118.04 1828.83,-120.79 1828.31,-113.81"/>
</g>
<!-- Node32 -->
<g id="node32" class="node">
<title>Node32</title>
<g id="a_node32"><a xlink:href="coap__subscribe__internal_8h.html" target="_top" xlink:title="CoAP subscribe internal information.">
<polygon fill="white" stroke="black" points="2379,-56.5 2379,-75.5 2509,-75.5 2509,-56.5 2379,-56.5"/>
<text text-anchor="middle" x="2444" y="-63.5" font-family="Helvetica,sans-Serif" font-size="10.00">coap_subscribe_internal.h</text>
</a>
</g>
</g>
<!-- Node5&#45;&gt;Node32 -->
<g id="edge43" class="edge">
<title>Node5&#45;&gt;Node32</title>
<path fill="none" stroke="midnightblue" d="M1828.66,-117.5C1930.51,-110.83 2163.88,-95.21 2360,-76 2366.13,-75.4 2372.54,-74.72 2378.98,-74"/>
<polygon fill="midnightblue" stroke="midnightblue" points="1828.39,-114.01 1818.64,-118.16 1828.85,-121 1828.39,-114.01"/>
</g>
<!-- Node33 -->
<g id="node33" class="node">
<title>Node33</title>
<g id="a_node33"><a xlink:href="coap__tcp_8c.html" target="_top" xlink:title="CoAP TCP handling functions.">
<polygon fill="white" stroke="black" points="2527.5,-56.5 2527.5,-75.5 2592.5,-75.5 2592.5,-56.5 2527.5,-56.5"/>
<text text-anchor="middle" x="2560" y="-63.5" font-family="Helvetica,sans-Serif" font-size="10.00">coap_tcp.c</text>
</a>
</g>
</g>
<!-- Node5&#45;&gt;Node33 -->
<g id="edge45" class="edge">
<title>Node5&#45;&gt;Node33</title>
<path fill="none" stroke="midnightblue" d="M1828.68,-120.53C1949.73,-118.85 2260.85,-111.16 2518,-76 2520.96,-75.6 2524.01,-75.1 2527.07,-74.55"/>
<polygon fill="midnightblue" stroke="midnightblue" points="1828.54,-117.03 1818.59,-120.66 1828.63,-124.03 1828.54,-117.03"/>
</g>
<!-- Node34 -->
<g id="node34" class="node">
<title>Node34</title>
<g id="a_node34"><a xlink:href="coap__tcp__internal_8h.html" target="_top" xlink:title="CoAP TCP internal information.">
<polygon fill="white" stroke="black" points="2610.5,-56.5 2610.5,-75.5 2711.5,-75.5 2711.5,-56.5 2610.5,-56.5"/>
<text text-anchor="middle" x="2661" y="-63.5" font-family="Helvetica,sans-Serif" font-size="10.00">coap_tcp_internal.h</text>
</a>
</g>
</g>
<!-- Node5&#45;&gt;Node34 -->
<g id="edge46" class="edge">
<title>Node5&#45;&gt;Node34</title>
<path fill="none" stroke="midnightblue" d="M1828.93,-119.75C1958.24,-116.39 2304.4,-105.36 2592,-76 2597.87,-75.4 2604.04,-74.63 2610.2,-73.8"/>
<polygon fill="midnightblue" stroke="midnightblue" points="1828.81,-116.25 1818.9,-120.01 1828.99,-123.25 1828.81,-116.25"/>
</g>
<!-- Node35 -->
<g id="node35" class="node">
<title>Node35</title>
<g id="a_node35"><a xlink:href="coap__time_8c.html" target="_top" xlink:title="Clock handling functions.">
<polygon fill="white" stroke="black" points="2730,-56.5 2730,-75.5 2800,-75.5 2800,-56.5 2730,-56.5"/>
<text text-anchor="middle" x="2765" y="-63.5" font-family="Helvetica,sans-Serif" font-size="10.00">coap_time.c</text>
</a>
</g>
</g>
<!-- Node5&#45;&gt;Node35 -->
<g id="edge48" class="edge">
<title>Node5&#45;&gt;Node35</title>
<path fill="none" stroke="midnightblue" d="M1828.75,-121.24C1971.38,-121.33 2381.97,-117.63 2720,-76 2723.16,-75.61 2726.44,-75.12 2729.71,-74.58"/>
<polygon fill="midnightblue" stroke="midnightblue" points="1828.56,-117.74 1818.55,-121.23 1828.55,-124.74 1828.56,-117.74"/>
</g>
<!-- Node36 -->
<g id="node36" class="node">
<title>Node36</title>
<g id="a_node36"><a xlink:href="coap__tinydtls_8c.html" target="_top" xlink:title="TinyDTLS specific handling functions.">
<polygon fill="white" stroke="black" points="2818.5,-56.5 2818.5,-75.5 2901.5,-75.5 2901.5,-56.5 2818.5,-56.5"/>
<text text-anchor="middle" x="2860" y="-63.5" font-family="Helvetica,sans-Serif" font-size="10.00">coap_tinydtls.c</text>
</a>
</g>
</g>
<!-- Node5&#45;&gt;Node36 -->
<g id="edge49" class="edge">
<title>Node5&#45;&gt;Node36</title>
<path fill="none" stroke="midnightblue" d="M1829.34,-121.14C1981.24,-121.01 2435.14,-116.96 2809,-76 2812.04,-75.67 2815.17,-75.26 2818.32,-74.81"/>
<polygon fill="midnightblue" stroke="midnightblue" points="1828.93,-117.64 1818.93,-121.14 1828.93,-124.64 1828.93,-117.64"/>
</g>
<!-- Node37 -->
<g id="node37" class="node">
<title>Node37</title>
<g id="a_node37"><a xlink:href="encode_8c.html" target="_top" xlink:title="Encoding and decoding Coap data types functions.">
<polygon fill="white" stroke="black" points="2920,-56.5 2920,-75.5 2976,-75.5 2976,-56.5 2920,-56.5"/>
<text text-anchor="middle" x="2948" y="-63.5" font-family="Helvetica,sans-Serif" font-size="10.00">encode.c</text>
</a>
</g>
</g>
<!-- Node5&#45;&gt;Node37 -->
<g id="edge50" class="edge">
<title>Node5&#45;&gt;Node37</title>
<path fill="none" stroke="midnightblue" d="M1828.82,-120.27C2021.56,-117.34 2696.82,-105.2 2910,-76 2913.22,-75.56 2916.58,-74.97 2919.89,-74.29"/>
<polygon fill="midnightblue" stroke="midnightblue" points="1828.63,-116.77 1818.68,-120.42 1828.73,-123.77 1828.63,-116.77"/>
</g>
<!-- Node38 -->
<g id="node38" class="node">
<title>Node38</title>
<g id="a_node38"><a xlink:href="mem_8c.html" target="_top" xlink:title="Memory handling functions.">
<polygon fill="white" stroke="black" points="2994.5,-56.5 2994.5,-75.5 3041.5,-75.5 3041.5,-56.5 2994.5,-56.5"/>
<text text-anchor="middle" x="3018" y="-63.5" font-family="Helvetica,sans-Serif" font-size="10.00">mem.c</text>
</a>
</g>
</g>
<!-- Node5&#45;&gt;Node38 -->
<g id="edge51" class="edge">
<title>Node5&#45;&gt;Node38</title>
<path fill="none" stroke="midnightblue" d="M1828.91,-120.65C2029.89,-119.03 2756.99,-110.87 2985,-76 2988.05,-75.53 2991.23,-74.88 2994.35,-74.15"/>
<polygon fill="midnightblue" stroke="midnightblue" points="1828.61,-117.15 1818.63,-120.73 1828.66,-124.15 1828.61,-117.15"/>
</g>
<!-- Node39 -->
<g id="node39" class="node">
<title>Node39</title>
<g id="a_node39"><a xlink:href="net_8c.html" target="_top" xlink:title="CoAP context functions.">
<polygon fill="white" stroke="black" points="3060,-56.5 3060,-75.5 3098,-75.5 3098,-56.5 3060,-56.5"/>
<text text-anchor="middle" x="3079" y="-63.5" font-family="Helvetica,sans-Serif" font-size="10.00">net.c</text>
</a>
</g>
</g>
<!-- Node5&#45;&gt;Node39 -->
<g id="edge52" class="edge">
<title>Node5&#45;&gt;Node39</title>
<path fill="none" stroke="midnightblue" d="M1828.66,-121C2036.14,-120.71 2809.19,-116.87 3050,-76 3053.22,-75.45 3056.58,-74.64 3059.83,-73.73"/>
<polygon fill="midnightblue" stroke="midnightblue" points="1828.64,-117.5 1818.64,-121.01 1828.65,-124.5 1828.64,-117.5"/>
</g>
<!-- Node40 -->
<g id="node40" class="node">
<title>Node40</title>
<g id="a_node40"><a xlink:href="pdu_8c.html" target="_top" xlink:title="CoAP PDU handling.">
<polygon fill="white" stroke="black" points="3116.5,-56.5 3116.5,-75.5 3157.5,-75.5 3157.5,-56.5 3116.5,-56.5"/>
<text text-anchor="middle" x="3137" y="-63.5" font-family="Helvetica,sans-Serif" font-size="10.00">pdu.c</text>
</a>
</g>
</g>
<!-- Node5&#45;&gt;Node40 -->
<g id="edge53" class="edge">
<title>Node5&#45;&gt;Node40</title>
<path fill="none" stroke="midnightblue" d="M1828.81,-121.03C2042.29,-120.86 2854.35,-117.46 3107,-76 3110,-75.51 3113.13,-74.8 3116.18,-73.99"/>
<polygon fill="midnightblue" stroke="midnightblue" points="1828.52,-117.53 1818.52,-121.03 1828.52,-124.53 1828.52,-117.53"/>
</g>
<!-- Node41 -->
<g id="node41" class="node">
<title>Node41</title>
<g id="a_node41"><a xlink:href="resource_8c.html" target="_top" xlink:title="Server resource handling functions.">
<polygon fill="white" stroke="black" points="3176,-56.5 3176,-75.5 3238,-75.5 3238,-56.5 3176,-56.5"/>
<text text-anchor="middle" x="3207" y="-63.5" font-family="Helvetica,sans-Serif" font-size="10.00">resource.c</text>
</a>
</g>
</g>
<!-- Node5&#45;&gt;Node41 -->
<g id="edge54" class="edge">
<title>Node5&#45;&gt;Node41</title>
<path fill="none" stroke="midnightblue" d="M1828.87,-120.59C2048.12,-118.69 2899.82,-109.24 3166,-76 3169.18,-75.6 3172.48,-75.08 3175.76,-74.48"/>
<polygon fill="midnightblue" stroke="midnightblue" points="1828.58,-117.1 1818.61,-120.68 1828.64,-124.1 1828.58,-117.1"/>
</g>
<!-- Node42 -->
<g id="node42" class="node">
<title>Node42</title>
<g id="a_node42"><a xlink:href="str_8c.html" target="_top" xlink:title="String handling functions.">
<polygon fill="white" stroke="black" points="3256.5,-56.5 3256.5,-75.5 3291.5,-75.5 3291.5,-56.5 3256.5,-56.5"/>
<text text-anchor="middle" x="3274" y="-63.5" font-family="Helvetica,sans-Serif" font-size="10.00">str.c</text>
</a>
</g>
</g>
<!-- Node5&#45;&gt;Node42 -->
<g id="edge55" class="edge">
<title>Node5&#45;&gt;Node42</title>
<path fill="none" stroke="midnightblue" d="M1828.56,-120.31C2072.54,-116.93 3105.28,-101.23 3247,-76 3250.11,-75.45 3253.36,-74.61 3256.47,-73.66"/>
<polygon fill="midnightblue" stroke="midnightblue" points="1828.49,-116.81 1818.54,-120.45 1828.58,-123.81 1828.49,-116.81"/>
</g>
<!-- Node43 -->
<g id="node43" class="node">
<title>Node43</title>
<g id="a_node43"><a xlink:href="uri_8c.html" target="_top" xlink:title="URI handling functions.">
<polygon fill="white" stroke="black" points="3309.5,-56.5 3309.5,-75.5 3344.5,-75.5 3344.5,-56.5 3309.5,-56.5"/>
<text text-anchor="middle" x="3327" y="-63.5" font-family="Helvetica,sans-Serif" font-size="10.00">uri.c</text>
</a>
</g>
</g>
<!-- Node5&#45;&gt;Node43 -->
<g id="edge56" class="edge">
<title>Node5&#45;&gt;Node43</title>
<path fill="none" stroke="midnightblue" d="M1828.77,-120.37C2078.51,-117.19 3152.84,-102.12 3300,-76 3303.11,-75.45 3306.36,-74.61 3309.47,-73.66"/>
<polygon fill="midnightblue" stroke="midnightblue" points="1828.48,-116.87 1818.52,-120.5 1828.57,-123.87 1828.48,-116.87"/>
</g>
<!-- Node9&#45;&gt;Node5 -->
<g id="edge9" class="edge">
<title>Node9&#45;&gt;Node5</title>
<path fill="none" stroke="midnightblue" d="M331.77,-75.3C334.22,-75.56 336.63,-75.79 339,-76 890.19,-123.79 1563.34,-122.67 1735.47,-121.41"/>
<polygon fill="midnightblue" stroke="midnightblue" points="331.96,-71.8 321.62,-74.13 331.16,-78.76 331.96,-71.8"/>
</g>
<!-- Node11&#45;&gt;Node5 -->
<g id="edge12" class="edge">
<title>Node11&#45;&gt;Node5</title>
<path fill="none" stroke="midnightblue" d="M3528.56,-76.3C3164.07,-104.38 2048.81,-118.07 1818.73,-120.58"/>
<polygon fill="midnightblue" stroke="midnightblue" points="3528.91,-79.78 3538.6,-75.51 3528.36,-72.8 3528.91,-79.78"/>
</g>
<!-- Node13&#45;&gt;Node5 -->
<g id="edge16" class="edge">
<title>Node13&#45;&gt;Node5</title>
<path fill="none" stroke="midnightblue" d="M654.31,-75.26C656.91,-75.53 659.48,-75.78 662,-76 1080.03,-112.78 1588.18,-119.52 1735.34,-120.74"/>
<polygon fill="midnightblue" stroke="midnightblue" points="654.5,-71.76 644.17,-74.12 653.72,-78.71 654.5,-71.76"/>
</g>
<!-- Node15&#45;&gt;Node5 -->
<g id="edge19" class="edge">
<title>Node15&#45;&gt;Node5</title>
<path fill="none" stroke="midnightblue" d="M872.31,-75.17C874.91,-75.47 877.48,-75.75 880,-76 1208.74,-108.34 1606.99,-117.89 1735.21,-120.29"/>
<polygon fill="midnightblue" stroke="midnightblue" points="872.53,-71.67 862.17,-73.91 871.66,-78.62 872.53,-71.67"/>
</g>
<!-- Node20&#45;&gt;Node5 -->
<g id="edge25" class="edge">
<title>Node20&#45;&gt;Node5</title>
<path fill="none" stroke="midnightblue" d="M1356.08,-74.3C1360.47,-74.89 1364.81,-75.47 1369,-76 1502.83,-92.93 1661.33,-108.92 1735.31,-116.47"/>
<polygon fill="midnightblue" stroke="midnightblue" points="1356.21,-70.78 1345.82,-72.88 1355.25,-77.72 1356.21,-70.78"/>
</g>
<!-- Node20&#45;&gt;Node21 -->
<g id="edge26" class="edge">
<title>Node20&#45;&gt;Node21</title>
<path fill="none" stroke="midnightblue" d="M1320.19,-50.9C1335.78,-41 1356.13,-28.07 1369.38,-19.65"/>
<polygon fill="midnightblue" stroke="midnightblue" points="1318.22,-48.01 1311.66,-56.32 1321.97,-53.92 1318.22,-48.01"/>
</g>
<!-- Node21&#45;&gt;Node5 -->
<g id="edge27" class="edge">
<title>Node21&#45;&gt;Node5</title>
<path fill="none" stroke="midnightblue" d="M1393.06,-29.62C1398.2,-44.62 1405.28,-64.97 1420,-76 1469.37,-113 1651.88,-119.8 1735.21,-120.89"/>
<polygon fill="midnightblue" stroke="midnightblue" points="1396.24,-28.09 1389.58,-19.85 1389.64,-30.44 1396.24,-28.09"/>
</g>
<!-- Node23&#45;&gt;Node5 -->
<g id="edge30" class="edge">
<title>Node23&#45;&gt;Node5</title>
<path fill="none" stroke="midnightblue" d="M1621.7,-78C1661.53,-88.18 1717.26,-103.12 1750.08,-112.44"/>
<polygon fill="midnightblue" stroke="midnightblue" points="1622.49,-74.59 1611.94,-75.52 1620.77,-81.37 1622.49,-74.59"/>
</g>
<!-- Node27&#45;&gt;Node4 -->
<g id="edge35" class="edge">
<title>Node27&#45;&gt;Node4</title>
<path fill="none" stroke="midnightblue" d="M114.5,-76.07C750.59,-141.7 1511.49,-168.8 1721.2,-175.35"/>
<polygon fill="midnightblue" stroke="midnightblue" points="114.51,-72.55 104.21,-75 113.79,-79.52 114.51,-72.55"/>
</g>
<!-- Node27&#45;&gt;Node5 -->
<g id="edge36" class="edge">
<title>Node27&#45;&gt;Node5</title>
<path fill="none" stroke="midnightblue" d="M114.3,-75.24C116.91,-75.53 119.48,-75.78 122,-76 449.85,-104.52 1511.37,-117.91 1735.32,-120.52"/>
<polygon fill="midnightblue" stroke="midnightblue" points="114.51,-71.74 104.16,-74.03 113.68,-78.69 114.51,-71.74"/>
</g>
<!-- Node29&#45;&gt;Node5 -->
<g id="edge39" class="edge">
<title>Node29&#45;&gt;Node5</title>
<path fill="none" stroke="midnightblue" d="M2030.46,-77.38C1970.15,-88.33 1873.57,-105.27 1818.62,-114.49"/>
<polygon fill="midnightblue" stroke="midnightblue" points="2031.34,-80.77 2040.55,-75.54 2030.08,-73.89 2031.34,-80.77"/>
</g>
<!-- Node32&#45;&gt;Node5 -->
<g id="edge44" class="edge">
<title>Node32&#45;&gt;Node5</title>
<path fill="none" stroke="midnightblue" d="M2372.68,-76.51C2160.64,-97.04 1914.91,-113.03 1818.54,-118.74"/>
<polygon fill="midnightblue" stroke="midnightblue" points="2373.13,-79.98 2382.75,-75.52 2372.45,-73.01 2373.13,-79.98"/>
</g>
<!-- Node34&#45;&gt;Node5 -->
<g id="edge47" class="edge">
<title>Node34&#45;&gt;Node5</title>
<path fill="none" stroke="midnightblue" d="M2604.1,-76.57C2299.63,-107.08 1939.67,-117.49 1818.77,-120.2"/>
<polygon fill="midnightblue" stroke="midnightblue" points="2604.85,-80.01 2614.45,-75.52 2604.15,-73.05 2604.85,-80.01"/>
</g>
</g>
</svg>
