<?xml version="1.0" encoding="UTF-8" standalone="no"?>
<!DOCTYPE svg PUBLIC "-//W3C//DTD SVG 1.1//EN"
 "http://www.w3.org/Graphics/SVG/1.1/DTD/svg11.dtd">
<!-- Generated by graphviz version 2.43.0 (0)
 -->
<!-- Title: uri.h Pages: 1 -->
<svg width="138pt" height="140pt"
 viewBox="0.00 0.00 137.50 140.00" xmlns="http://www.w3.org/2000/svg" xmlns:xlink="http://www.w3.org/1999/xlink">
<g id="graph0" class="graph" transform="scale(1 1) rotate(0) translate(4 136)">
<title>uri.h</title>
<polygon fill="white" stroke="transparent" points="-4,4 -4,-136 133.5,-136 133.5,4 -4,4"/>
<!-- Node1 -->
<g id="node1" class="node">
<title>Node1</title>
<g id="a_node1"><a xlink:title="Helper functions for URI treatment.">
<polygon fill="#bfbfbf" stroke="black" points="44,-112.5 44,-131.5 79,-131.5 79,-112.5 44,-112.5"/>
<text text-anchor="middle" x="61.5" y="-119.5" font-family="Helvetica,sans-Serif" font-size="10.00">uri.h</text>
</a>
</g>
</g>
<!-- Node2 -->
<g id="node2" class="node">
<title>Node2</title>
<g id="a_node2"><a xlink:title=" ">
<polygon fill="white" stroke="#bfbfbf" points="0,-56.5 0,-75.5 49,-75.5 49,-56.5 0,-56.5"/>
<text text-anchor="middle" x="24.5" y="-63.5" font-family="Helvetica,sans-Serif" font-size="10.00">stdint.h</text>
</a>
</g>
</g>
<!-- Node1&#45;&gt;Node2 -->
<g id="edge1" class="edge">
<title>Node1&#45;&gt;Node2</title>
<path fill="none" stroke="midnightblue" d="M55.39,-112.08C50.22,-104.53 42.65,-93.49 36.31,-84.23"/>
<polygon fill="midnightblue" stroke="midnightblue" points="39.04,-82.02 30.5,-75.75 33.26,-85.98 39.04,-82.02"/>
</g>
<!-- Node3 -->
<g id="node3" class="node">
<title>Node3</title>
<g id="a_node3"><a xlink:href="coap__str_8h.html" target="_top" xlink:title="Strings to be used in the CoAP library.">
<polygon fill="white" stroke="black" points="67.5,-56.5 67.5,-75.5 129.5,-75.5 129.5,-56.5 67.5,-56.5"/>
<text text-anchor="middle" x="98.5" y="-63.5" font-family="Helvetica,sans-Serif" font-size="10.00">coap_str.h</text>
</a>
</g>
</g>
<!-- Node1&#45;&gt;Node3 -->
<g id="edge2" class="edge">
<title>Node1&#45;&gt;Node3</title>
<path fill="none" stroke="midnightblue" d="M67.61,-112.08C72.78,-104.53 80.35,-93.49 86.69,-84.23"/>
<polygon fill="midnightblue" stroke="midnightblue" points="89.74,-85.98 92.5,-75.75 83.96,-82.02 89.74,-85.98"/>
</g>
<!-- Node4 -->
<g id="node4" class="node">
<title>Node4</title>
<g id="a_node4"><a xlink:title=" ">
<polygon fill="white" stroke="#bfbfbf" points="74,-0.5 74,-19.5 123,-19.5 123,-0.5 74,-0.5"/>
<text text-anchor="middle" x="98.5" y="-7.5" font-family="Helvetica,sans-Serif" font-size="10.00">string.h</text>
</a>
</g>
</g>
<!-- Node3&#45;&gt;Node4 -->
<g id="edge3" class="edge">
<title>Node3&#45;&gt;Node4</title>
<path fill="none" stroke="midnightblue" d="M98.5,-56.08C98.5,-49.01 98.5,-38.86 98.5,-29.99"/>
<polygon fill="midnightblue" stroke="midnightblue" points="102,-29.75 98.5,-19.75 95,-29.75 102,-29.75"/>
</g>
</g>
</svg>
