<?xml version="1.0" encoding="UTF-8" standalone="no"?>
<!DOCTYPE svg PUBLIC "-//W3C//DTD SVG 1.1//EN"
 "http://www.w3.org/Graphics/SVG/1.1/DTD/svg11.dtd">
<!-- Generated by graphviz version 2.42.4 (0)
 -->
<!-- Title: coap_crypto_internal.h Pages: 1 -->
<svg width="136pt" height="137pt"
 viewBox="0.00 0.00 136.00 137.00" xmlns="http://www.w3.org/2000/svg" xmlns:xlink="http://www.w3.org/1999/xlink">
<g id="graph0" class="graph" transform="scale(1 1) rotate(0) translate(4 133)">
<title>coap_crypto_internal.h</title>
<!-- Node1 -->
<g id="Node000001" class="node">
<title>Node1</title>
<g id="a_Node000001"><a xlink:title="COAP crypto internal information.">
<polygon fill="#999999" stroke="#666666" points="128,-129 0,-129 0,-110 128,-110 128,-129"/>
<text text-anchor="middle" x="64" y="-117" font-family="Helvetica,sans-Serif" font-size="10.00">coap_crypto_internal.h</text>
</a>
</g>
</g>
<!-- Node2 -->
<g id="Node000002" class="node">
<title>Node2</title>
<g id="a_Node000002"><a xlink:href="oscore__cose_8h.html" target="_top" xlink:title="An implementation of the CBOR Object Signing and Encryption (RFC).">
<polygon fill="white" stroke="#666666" points="124.5,-74 3.5,-74 3.5,-55 124.5,-55 124.5,-74"/>
<text text-anchor="middle" x="64" y="-62" font-family="Helvetica,sans-Serif" font-size="10.00">oscore/oscore_cose.h</text>
</a>
</g>
</g>
<!-- Node1&#45;&gt;Node2 -->
<g id="edge1_Node000001_Node000002" class="edge">
<title>Node1&#45;&gt;Node2</title>
<g id="a_edge1_Node000001_Node000002"><a xlink:title=" ">
<path fill="none" stroke="#63b8ff" d="M64,-109.75C64,-102.8 64,-92.85 64,-84.13"/>
<polygon fill="#63b8ff" stroke="#63b8ff" points="67.5,-84.09 64,-74.09 60.5,-84.09 67.5,-84.09"/>
</a>
</g>
</g>
<!-- Node3 -->
<g id="Node000003" class="node">
<title>Node3</title>
<g id="a_Node000003"><a xlink:title=" ">
<polygon fill="#e0e0e0" stroke="#999999" points="90.5,-19 37.5,-19 37.5,0 90.5,0 90.5,-19"/>
<text text-anchor="middle" x="64" y="-7" font-family="Helvetica,sans-Serif" font-size="10.00">stdint.h</text>
</a>
</g>
</g>
<!-- Node2&#45;&gt;Node3 -->
<g id="edge2_Node000002_Node000003" class="edge">
<title>Node2&#45;&gt;Node3</title>
<g id="a_edge2_Node000002_Node000003"><a xlink:title=" ">
<path fill="none" stroke="#63b8ff" d="M64,-54.75C64,-47.8 64,-37.85 64,-29.13"/>
<polygon fill="#63b8ff" stroke="#63b8ff" points="67.5,-29.09 64,-19.09 60.5,-29.09 67.5,-29.09"/>
</a>
</g>
</g>
</g>
</svg>
