<?xml version="1.0" encoding="UTF-8" standalone="no"?>
<!DOCTYPE svg PUBLIC "-//W3C//DTD SVG 1.1//EN"
 "http://www.w3.org/Graphics/SVG/1.1/DTD/svg11.dtd">
<!-- Generated by graphviz version 2.42.4 (0)
 -->
<!-- Title: coap_get_available_scheme_hint_bits Pages: 1 -->
<svg width="286pt" height="175pt"
 viewBox="0.00 0.00 286.00 175.00" xmlns="http://www.w3.org/2000/svg" xmlns:xlink="http://www.w3.org/1999/xlink">

<svg id="main" version="1.1" xmlns="http://www.w3.org/2000/svg" xmlns:xlink="http://www.w3.org/1999/xlink" xml:space="preserve" onload="init(evt)">
<style type="text/css"><![CDATA[
.node, .edge {opacity: 0.7;}
.node.selected, .edge.selected {opacity: 1;}
.edge:hover path { stroke: red; }
.edge:hover polygon { stroke: red; fill: red; }
]]></style>
<script type="application/ecmascript" xlink:href="svg.min.js"/>
<svg id="graph" class="graph">
<g id="graph0" class="graph" transform="scale(1 1) rotate(0) translate(4 171)">
<title>coap_get_available_scheme_hint_bits</title>
<!-- Node1 -->
<g id="Node000001" class="node">
<title>Node1</title>
<g id="a_Node000001"><a xlink:title="Determine and set up scheme_hint_bits for a server that can be used in a call to coap_resolve_address...">
<polygon fill="#999999" stroke="#666666" points="111,-98.5 0,-98.5 0,-68.5 111,-68.5 111,-98.5"/>
<text text-anchor="start" x="8" y="-86.5" font-family="Helvetica,sans-Serif" font-size="10.00">coap_get_available</text>
<text text-anchor="middle" x="55.5" y="-75.5" font-family="Helvetica,sans-Serif" font-size="10.00">_scheme_hint_bits</text>
</a>
</g>
</g>
<!-- Node2 -->
<g id="Node000002" class="node">
<title>Node2</title>
<g id="a_Node000002"><a xlink:href="group__supported.html#ga9def28dc6da3b77c14e89d63769ec085" target="_top" xlink:title="Check whether DTLS is available.">
<polygon fill="white" stroke="#666666" points="278,-167 147,-167 147,-148 278,-148 278,-167"/>
<text text-anchor="middle" x="212.5" y="-155" font-family="Helvetica,sans-Serif" font-size="10.00">coap_dtls_is_supported</text>
</a>
</g>
</g>
<!-- Node1&#45;&gt;Node2 -->
<g id="edge1_Node000001_Node000002" class="edge">
<title>Node1&#45;&gt;Node2</title>
<g id="a_edge1_Node000001_Node000002"><a xlink:title=" ">
<path fill="none" stroke="#63b8ff" d="M77.14,-98.63C94.91,-111.06 121.62,-128.37 147,-139.5 151.43,-141.44 156.11,-143.22 160.86,-144.85"/>
<polygon fill="#63b8ff" stroke="#63b8ff" points="160.04,-148.26 170.63,-147.98 162.17,-141.6 160.04,-148.26"/>
</a>
</g>
</g>
<!-- Node3 -->
<g id="Node000003" class="node">
<title>Node3</title>
<g id="a_Node000003"><a xlink:href="group__supported.html#ga2d25d72f564c765b85708b26ee01e27e" target="_top" xlink:title="Check whether TCP is available.">
<polygon fill="white" stroke="#666666" points="276.5,-130 148.5,-130 148.5,-111 276.5,-111 276.5,-130"/>
<text text-anchor="middle" x="212.5" y="-118" font-family="Helvetica,sans-Serif" font-size="10.00">coap_tcp_is_supported</text>
</a>
</g>
</g>
<!-- Node1&#45;&gt;Node3 -->
<g id="edge2_Node000001_Node000003" class="edge">
<title>Node1&#45;&gt;Node3</title>
<g id="a_edge2_Node000001_Node000003"><a xlink:title=" ">
<path fill="none" stroke="#63b8ff" d="M111.15,-96.54C127.6,-100.47 145.57,-104.76 161.7,-108.61"/>
<polygon fill="#63b8ff" stroke="#63b8ff" points="160.93,-112.03 171.47,-110.94 162.55,-105.22 160.93,-112.03"/>
</a>
</g>
</g>
<!-- Node4 -->
<g id="Node000004" class="node">
<title>Node4</title>
<g id="a_Node000004"><a xlink:href="group__supported.html#ga55b3b545f0784c7a6135021017317e1b" target="_top" xlink:title="Check whether TLS is available.">
<polygon fill="white" stroke="#666666" points="275,-93 150,-93 150,-74 275,-74 275,-93"/>
<text text-anchor="middle" x="212.5" y="-81" font-family="Helvetica,sans-Serif" font-size="10.00">coap_tls_is_supported</text>
</a>
</g>
</g>
<!-- Node1&#45;&gt;Node4 -->
<g id="edge3_Node000001_Node000004" class="edge">
<title>Node1&#45;&gt;Node4</title>
<g id="a_edge3_Node000001_Node000004"><a xlink:title=" ">
<path fill="none" stroke="#63b8ff" d="M111.15,-83.5C120.46,-83.5 130.26,-83.5 139.94,-83.5"/>
<polygon fill="#63b8ff" stroke="#63b8ff" points="139.95,-87 149.95,-83.5 139.95,-80 139.95,-87"/>
</a>
</g>
</g>
<!-- Node5 -->
<g id="Node000005" class="node">
<title>Node5</title>
<g id="a_Node000005"><a xlink:href="group__supported.html#ga85ebb276d1475de14d90e103b255c749" target="_top" xlink:title="Check whether WebSockets is available.">
<polygon fill="white" stroke="#666666" points="275.5,-56 149.5,-56 149.5,-37 275.5,-37 275.5,-56"/>
<text text-anchor="middle" x="212.5" y="-44" font-family="Helvetica,sans-Serif" font-size="10.00">coap_ws_is_supported</text>
</a>
</g>
</g>
<!-- Node1&#45;&gt;Node5 -->
<g id="edge4_Node000001_Node000005" class="edge">
<title>Node1&#45;&gt;Node5</title>
<g id="a_edge4_Node000001_Node000005"><a xlink:title=" ">
<path fill="none" stroke="#63b8ff" d="M111.15,-70.46C127.6,-66.53 145.57,-62.24 161.7,-58.39"/>
<polygon fill="#63b8ff" stroke="#63b8ff" points="162.55,-61.78 171.47,-56.06 160.93,-54.97 162.55,-61.78"/>
</a>
</g>
</g>
<!-- Node6 -->
<g id="Node000006" class="node">
<title>Node6</title>
<g id="a_Node000006"><a xlink:href="group__supported.html#gae3150f4272480b18b3771e6b6465624e" target="_top" xlink:title="Check whether Secure WebSockets is available.">
<polygon fill="white" stroke="#666666" points="278,-19 147,-19 147,0 278,0 278,-19"/>
<text text-anchor="middle" x="212.5" y="-7" font-family="Helvetica,sans-Serif" font-size="10.00">coap_wss_is_supported</text>
</a>
</g>
</g>
<!-- Node1&#45;&gt;Node6 -->
<g id="edge5_Node000001_Node000006" class="edge">
<title>Node1&#45;&gt;Node6</title>
<g id="a_edge5_Node000001_Node000006"><a xlink:title=" ">
<path fill="none" stroke="#63b8ff" d="M77.94,-68.27C95.75,-56.17 122.11,-39.5 147,-28.5 152.14,-26.23 157.62,-24.14 163.14,-22.24"/>
<polygon fill="#63b8ff" stroke="#63b8ff" points="164.61,-25.45 173.05,-19.05 162.46,-18.79 164.61,-25.45"/>
</a>
</g>
</g>
</g>
</svg>
</svg>

<style type='text/css'>
<![CDATA[
[data-mouse-over-selected='false'] { opacity: 0.7; }
[data-mouse-over-selected='true']  { opacity: 1.0; }
]]>
</style>
<script type="application/ecmascript"><![CDATA[
document.addEventListener('DOMContentLoaded', (event) => {
  highlightEdges();
  highlightAdjacentNodes();
});
]]></script>
</svg>
