<?xml version="1.0" encoding="UTF-8" standalone="no"?>
<!DOCTYPE svg PUBLIC "-//W3C//DTD SVG 1.1//EN"
 "http://www.w3.org/Graphics/SVG/1.1/DTD/svg11.dtd">
<!-- Generated by graphviz version 2.42.4 (0)
 -->
<!-- Title: coap_mem.h Pages: 1 -->
<svg width="329pt" height="82pt"
 viewBox="0.00 0.00 329.00 82.00" xmlns="http://www.w3.org/2000/svg" xmlns:xlink="http://www.w3.org/1999/xlink">
<g id="graph0" class="graph" transform="scale(1 1) rotate(0) translate(4 78)">
<title>coap_mem.h</title>
<!-- Node1 -->
<g id="Node000001" class="node">
<title>Node1</title>
<g id="a_Node000001"><a xlink:title="CoAP memory handling.">
<polygon fill="#999999" stroke="#666666" points="233.5,-74 153.5,-74 153.5,-55 233.5,-55 233.5,-74"/>
<text text-anchor="middle" x="193.5" y="-62" font-family="Helvetica,sans-Serif" font-size="10.00">coap_mem.h</text>
</a>
</g>
</g>
<!-- Node2 -->
<g id="Node000002" class="node">
<title>Node2</title>
<g id="a_Node000002"><a xlink:href="coap__oscore_8h.html" target="_top" xlink:title="CoAP OSCORE support.">
<polygon fill="white" stroke="#666666" points="119,-19 0,-19 0,0 119,0 119,-19"/>
<text text-anchor="middle" x="59.5" y="-7" font-family="Helvetica,sans-Serif" font-size="10.00">coap3/coap_oscore.h</text>
</a>
</g>
</g>
<!-- Node1&#45;&gt;Node2 -->
<g id="edge1_Node000001_Node000002" class="edge">
<title>Node1&#45;&gt;Node2</title>
<g id="a_edge1_Node000001_Node000002"><a xlink:title=" ">
<path fill="none" stroke="#63b8ff" d="M171.97,-54.98C150.03,-46.3 115.76,-32.75 90.81,-22.88"/>
<polygon fill="#63b8ff" stroke="#63b8ff" points="92.01,-19.59 81.42,-19.17 89.43,-26.1 92.01,-19.59"/>
</a>
</g>
</g>
<!-- Node3 -->
<g id="Node000003" class="node">
<title>Node3</title>
<g id="a_Node000003"><a xlink:href="coap__proxy_8h.html" target="_top" xlink:title="Helper functions for proxy handling.">
<polygon fill="white" stroke="#666666" points="250,-19 137,-19 137,0 250,0 250,-19"/>
<text text-anchor="middle" x="193.5" y="-7" font-family="Helvetica,sans-Serif" font-size="10.00">coap3/coap_proxy.h</text>
</a>
</g>
</g>
<!-- Node1&#45;&gt;Node3 -->
<g id="edge2_Node000001_Node000003" class="edge">
<title>Node1&#45;&gt;Node3</title>
<g id="a_edge2_Node000001_Node000003"><a xlink:title=" ">
<path fill="none" stroke="#63b8ff" d="M193.5,-54.75C193.5,-47.8 193.5,-37.85 193.5,-29.13"/>
<polygon fill="#63b8ff" stroke="#63b8ff" points="197,-29.09 193.5,-19.09 190,-29.09 197,-29.09"/>
</a>
</g>
</g>
<!-- Node4 -->
<g id="Node000004" class="node">
<title>Node4</title>
<g id="a_Node000004"><a xlink:title=" ">
<polygon fill="#e0e0e0" stroke="#999999" points="321,-19 268,-19 268,0 321,0 321,-19"/>
<text text-anchor="middle" x="294.5" y="-7" font-family="Helvetica,sans-Serif" font-size="10.00">stdlib.h</text>
</a>
</g>
</g>
<!-- Node1&#45;&gt;Node4 -->
<g id="edge3_Node000001_Node000004" class="edge">
<title>Node1&#45;&gt;Node4</title>
<g id="a_edge3_Node000001_Node000004"><a xlink:title=" ">
<path fill="none" stroke="#63b8ff" d="M209.73,-54.98C225.68,-46.61 250.28,-33.7 268.88,-23.95"/>
<polygon fill="#63b8ff" stroke="#63b8ff" points="270.75,-26.92 277.98,-19.17 267.5,-20.72 270.75,-26.92"/>
</a>
</g>
</g>
</g>
</svg>
