<?xml version="1.0" encoding="UTF-8" standalone="no"?>
<!DOCTYPE svg PUBLIC "-//W3C//DTD SVG 1.1//EN"
 "http://www.w3.org/Graphics/SVG/1.1/DTD/svg11.dtd">
<!-- Generated by graphviz version 2.42.4 (0)
 -->
<!-- Title: coap_address_set_port Pages: 1 -->
<svg width="599pt" height="27pt"
 viewBox="0.00 0.00 599.00 27.00" xmlns="http://www.w3.org/2000/svg" xmlns:xlink="http://www.w3.org/1999/xlink">
<g id="graph0" class="graph" transform="scale(1 1) rotate(0) translate(4 23)">
<title>coap_address_set_port</title>
<!-- Node1 -->
<g id="Node000001" class="node">
<title>Node1</title>
<g id="a_Node000001"><a xlink:title="Set the port field of addr to port (in host byte order).">
<polygon fill="#999999" stroke="#666666" points="591,-19 463,-19 463,0 591,0 591,-19"/>
<text text-anchor="middle" x="527" y="-7" font-family="Helvetica,sans-Serif" font-size="10.00">coap_address_set_port</text>
</a>
</g>
</g>
<!-- Node2 -->
<g id="Node000002" class="node">
<title>Node2</title>
<g id="a_Node000002"><a xlink:href="coap__address_8c.html#af074e389a057dde48a62725e63b442e1" target="_top" xlink:title=" ">
<polygon fill="white" stroke="#666666" points="427,-19 352,-19 352,0 427,0 427,-19"/>
<text text-anchor="middle" x="389.5" y="-7" font-family="Helvetica,sans-Serif" font-size="10.00">update_port</text>
</a>
</g>
</g>
<!-- Node1&#45;&gt;Node2 -->
<g id="edge1_Node000001_Node000002" class="edge">
<title>Node1&#45;&gt;Node2</title>
<g id="a_edge1_Node000001_Node000002"><a xlink:title=" ">
<path fill="none" stroke="#63b8ff" d="M452.38,-9.5C443.68,-9.5 435.11,-9.5 427.25,-9.5"/>
<polygon fill="#63b8ff" stroke="#63b8ff" points="452.61,-13 462.61,-9.5 452.61,-6 452.61,-13"/>
</a>
</g>
</g>
<!-- Node3 -->
<g id="Node000003" class="node">
<title>Node3</title>
<g id="a_Node000003"><a xlink:href="coap__address_8c.html#ad2c607dc29a9a33aef87c20172bdd06d" target="_top" xlink:title=" ">
<polygon fill="white" stroke="#666666" points="316,-19 185,-19 185,0 316,0 316,-19"/>
<text text-anchor="middle" x="250.5" y="-7" font-family="Helvetica,sans-Serif" font-size="10.00">update_coap_addr_port</text>
</a>
</g>
</g>
<!-- Node2&#45;&gt;Node3 -->
<g id="edge2_Node000002_Node000003" class="edge">
<title>Node2&#45;&gt;Node3</title>
<g id="a_edge2_Node000002_Node000003"><a xlink:title=" ">
<path fill="none" stroke="#63b8ff" d="M341.64,-9.5C333.41,-9.5 324.7,-9.5 316.08,-9.5"/>
<polygon fill="#63b8ff" stroke="#63b8ff" points="341.79,-13 351.79,-9.5 341.79,-6 341.79,-13"/>
</a>
</g>
</g>
<!-- Node4 -->
<g id="Node000004" class="node">
<title>Node4</title>
<g id="a_Node000004"><a xlink:href="coap__address_8c.html#ab03b6dbb9be4439180ba52717d14c5d9" target="_top" xlink:title="Resolve the specified address into a set of coap_address_t that can be used to bind() (local) or conn...">
<polygon fill="white" stroke="#666666" points="149,-19 0,-19 0,0 149,0 149,-19"/>
<text text-anchor="middle" x="74.5" y="-7" font-family="Helvetica,sans-Serif" font-size="10.00">coap_resolve_address_info</text>
</a>
</g>
</g>
<!-- Node3&#45;&gt;Node4 -->
<g id="edge3_Node000003_Node000004" class="edge">
<title>Node3&#45;&gt;Node4</title>
<g id="a_edge3_Node000003_Node000004"><a xlink:title=" ">
<path fill="none" stroke="#63b8ff" d="M174.53,-9.5C166.11,-9.5 157.54,-9.5 149.13,-9.5"/>
<polygon fill="#63b8ff" stroke="#63b8ff" points="174.71,-13 184.71,-9.5 174.71,-6 174.71,-13"/>
</a>
</g>
</g>
</g>
</svg>
