<?xml version="1.0" encoding="UTF-8" standalone="no"?>
<!DOCTYPE svg PUBLIC "-//W3C//DTD SVG 1.1//EN"
 "http://www.w3.org/Graphics/SVG/1.1/DTD/svg11.dtd">
<!-- Generated by graphviz version 2.42.4 (0)
 -->
<!-- Title: update_coap_addr_port Pages: 1 -->
<svg width="414pt" height="27pt"
 viewBox="0.00 0.00 414.00 27.00" xmlns="http://www.w3.org/2000/svg" xmlns:xlink="http://www.w3.org/1999/xlink">
<g id="graph0" class="graph" transform="scale(1 1) rotate(0) translate(4 23)">
<title>update_coap_addr_port</title>
<!-- Node1 -->
<g id="Node000001" class="node">
<title>Node1</title>
<g id="a_Node000001"><a xlink:title=" ">
<polygon fill="#999999" stroke="#666666" points="131,-19 0,-19 0,0 131,0 131,-19"/>
<text text-anchor="middle" x="65.5" y="-7" font-family="Helvetica,sans-Serif" font-size="10.00">update_coap_addr_port</text>
</a>
</g>
</g>
<!-- Node2 -->
<g id="Node000002" class="node">
<title>Node2</title>
<g id="a_Node000002"><a xlink:href="coap__address_8c.html#af074e389a057dde48a62725e63b442e1" target="_top" xlink:title=" ">
<polygon fill="white" stroke="#666666" points="242,-19 167,-19 167,0 242,0 242,-19"/>
<text text-anchor="middle" x="204.5" y="-7" font-family="Helvetica,sans-Serif" font-size="10.00">update_port</text>
</a>
</g>
</g>
<!-- Node1&#45;&gt;Node2 -->
<g id="edge1_Node000001_Node000002" class="edge">
<title>Node1&#45;&gt;Node2</title>
<g id="a_edge1_Node000001_Node000002"><a xlink:title=" ">
<path fill="none" stroke="#63b8ff" d="M131.39,-9.5C139.95,-9.5 148.58,-9.5 156.75,-9.5"/>
<polygon fill="#63b8ff" stroke="#63b8ff" points="156.82,-13 166.82,-9.5 156.82,-6 156.82,-13"/>
</a>
</g>
</g>
<!-- Node3 -->
<g id="Node000003" class="node">
<title>Node3</title>
<g id="a_Node000003"><a xlink:href="coap__address_8c.html#a15c4882bf12507e6b42ea1567b46abac" target="_top" xlink:title="Set the port field of addr to port (in host byte order).">
<polygon fill="white" stroke="#666666" points="406,-19 278,-19 278,0 406,0 406,-19"/>
<text text-anchor="middle" x="342" y="-7" font-family="Helvetica,sans-Serif" font-size="10.00">coap_address_set_port</text>
</a>
</g>
</g>
<!-- Node2&#45;&gt;Node3 -->
<g id="edge2_Node000002_Node000003" class="edge">
<title>Node2&#45;&gt;Node3</title>
<g id="a_edge2_Node000002_Node000003"><a xlink:title=" ">
<path fill="none" stroke="#63b8ff" d="M242.17,-9.5C250.2,-9.5 258.97,-9.5 267.87,-9.5"/>
<polygon fill="#63b8ff" stroke="#63b8ff" points="267.93,-13 277.93,-9.5 267.93,-6 267.93,-13"/>
</a>
</g>
</g>
</g>
</svg>
