<?xml version="1.0" encoding="UTF-8" standalone="no"?>
<!DOCTYPE svg PUBLIC "-//W3C//DTD SVG 1.1//EN"
 "http://www.w3.org/Graphics/SVG/1.1/DTD/svg11.dtd">
<!-- Generated by graphviz version 2.42.4 (0)
 -->
<!-- Title: coap_get_block Pages: 1 -->
<!--zoomable 299 -->

<svg id="main" version="1.1" xmlns="http://www.w3.org/2000/svg" xmlns:xlink="http://www.w3.org/1999/xlink" xml:space="preserve" onload="init(evt)">
<style type="text/css"><![CDATA[
.node, .edge {opacity: 0.7;}
.node.selected, .edge.selected {opacity: 1;}
.edge:hover path { stroke: red; }
.edge:hover polygon { stroke: red; fill: red; }
]]></style>

<defs>
  <circle id="rim" cx="0" cy="0" r="7"/>
  <circle id="rim2" cx="0" cy="0" r="3.5"/>
  <g id="zoomPlus">
    <use xlink:href="#rim" fill="#404040"><set attributeName="fill" to="#808080" begin="zoomplus.mouseover" end="zoomplus.mouseout"/></use>
    <path d="M-4,0h8M0,-4v8" fill="none" stroke="white" stroke-width="1.5" pointer-events="none"/>
  </g>
  <g id="zoomMin">
    <use xlink:href="#rim" fill="#404040"><set attributeName="fill" to="#808080" begin="zoomminus.mouseover" end="zoomminus.mouseout"/></use>
    <path d="M-4,0h8" fill="none" stroke="white" stroke-width="1.5" pointer-events="none"/>
  </g>
  <g id="arrowUp" transform="translate(30 24)">
    <use xlink:href="#rim"/>
    <path pointer-events="none" fill="none" stroke="white" stroke-width="1.5" d="M0,-3.0v7 M-2.5,-0.5L0,-3.0L2.5,-0.5"/>
  </g>
  <g id="arrowRight" transform="rotate(90) translate(36 -43)">
    <use xlink:href="#rim"/>
    <path pointer-events="none" fill="none" stroke="white" stroke-width="1.5" d="M0,-3.0v7 M-2.5,-0.5L0,-3.0L2.5,-0.5"/>
  </g>
  <g id="arrowDown" transform="rotate(180) translate(-30 -48)">
    <use xlink:href="#rim"/>
    <path pointer-events="none" fill="none" stroke="white" stroke-width="1.5" d="M0,-3.0v7 M-2.5,-0.5L0,-3.0L2.5,-0.5"/>
  </g>
  <g id="arrowLeft" transform="rotate(270) translate(-36 17)">
    <use xlink:href="#rim"/>
    <path pointer-events="none" fill="none" stroke="white" stroke-width="1.5" d="M0,-3.0v7 M-2.5,-0.5L0,-3.0L2.5,-0.5"/>
  </g>
  <g id="resetDef">
    <use xlink:href="#rim2" fill="#404040"><set attributeName="fill" to="#808080" begin="reset.mouseover" end="reset.mouseout"/></use>
  </g>
</defs>
<script type="application/ecmascript">
var viewWidth = 1108;
var viewHeight = 299;
var sectionId = 'dynsection-8';
</script>
<script type="application/ecmascript" xlink:href="svg.min.js"/>
<svg id="graph" class="graph">
<g id="viewport">
<title>coap_get_block</title>
<!-- Node1 -->
<g id="Node000001" class="node">
<title>Node1</title>
<g id="a_Node000001"><a xlink:title="Initializes block from pdu.">
<polygon fill="#999999" stroke="#666666" points="92,-130 0,-130 0,-111 92,-111 92,-130"/>
<text text-anchor="middle" x="46" y="-118" font-family="Helvetica,sans-Serif" font-size="10.00">coap_get_block</text>
</a>
</g>
</g>
<!-- Node2 -->
<g id="Node000002" class="node">
<title>Node2</title>
<g id="a_Node000002"><a xlink:href="group__block.html#ga9791ef236293c2e629f98b2d2a7af478" target="_top" xlink:title="Initializes block from pdu.">
<polygon fill="white" stroke="#666666" points="232,-130 128,-130 128,-111 232,-111 232,-130"/>
<text text-anchor="middle" x="180" y="-118" font-family="Helvetica,sans-Serif" font-size="10.00">coap_get_block_b</text>
</a>
</g>
</g>
<!-- Node1&#45;&gt;Node2 -->
<g id="edge1_Node000001_Node000002" class="edge">
<title>Node1&#45;&gt;Node2</title>
<g id="a_edge1_Node000001_Node000002"><a xlink:title=" ">
<path fill="none" stroke="#63b8ff" d="M92.06,-120.5C100.32,-120.5 109.08,-120.5 117.73,-120.5"/>
<polygon fill="#63b8ff" stroke="#63b8ff" points="117.79,-124 127.79,-120.5 117.79,-117 117.79,-124"/>
</a>
</g>
</g>
<!-- Node3 -->
<g id="Node000003" class="node">
<title>Node3</title>
<g id="a_Node000003"><a xlink:href="group__opt__filter.html#gac766f0e78b5ef3ffc8c67d993c6ca8b6" target="_top" xlink:title="Retrieves the first option of number number from pdu.">
<polygon fill="white" stroke="#666666" points="382.5,-204 272.5,-204 272.5,-185 382.5,-185 382.5,-204"/>
<text text-anchor="middle" x="327.5" y="-192" font-family="Helvetica,sans-Serif" font-size="10.00">coap_check_option</text>
</a>
</g>
</g>
<!-- Node2&#45;&gt;Node3 -->
<g id="edge2_Node000002_Node000003" class="edge">
<title>Node2&#45;&gt;Node3</title>
<g id="a_edge2_Node000002_Node000003"><a xlink:title=" ">
<path fill="none" stroke="#63b8ff" d="M199.72,-130.02C224.69,-142.72 269.09,-165.3 298.16,-180.09"/>
<polygon fill="#63b8ff" stroke="#63b8ff" points="296.89,-183.37 307.39,-184.78 300.06,-177.13 296.89,-183.37"/>
</a>
</g>
</g>
<!-- Node15 -->
<g id="Node000015" class="node">
<title>Node15</title>
<g id="a_Node000015"><a xlink:href="group__pdu.html#gab8ab682509ebdb989cf5d10170612cf0" target="_top" xlink:title="Retrieves the length and data pointer of specified PDU.">
<polygon fill="white" stroke="#666666" points="371.5,-130 283.5,-130 283.5,-111 371.5,-111 371.5,-130"/>
<text text-anchor="middle" x="327.5" y="-118" font-family="Helvetica,sans-Serif" font-size="10.00">coap_get_data</text>
</a>
</g>
</g>
<!-- Node2&#45;&gt;Node15 -->
<g id="edge15_Node000002_Node000015" class="edge">
<title>Node2&#45;&gt;Node15</title>
<g id="a_edge15_Node000002_Node000015"><a xlink:title=" ">
<path fill="none" stroke="#63b8ff" d="M232.3,-120.5C245.6,-120.5 259.95,-120.5 273.34,-120.5"/>
<polygon fill="#63b8ff" stroke="#63b8ff" points="273.37,-124 283.37,-120.5 273.37,-117 273.37,-124"/>
</a>
</g>
</g>
<!-- Node17 -->
<g id="Node000017" class="node">
<title>Node17</title>
<g id="a_Node000017"><a xlink:href="group__block.html#gaac6c90297abc6e2da80a6212b0d10e99" target="_top" xlink:title="Returns the value of field num in the given block option block_opt.">
<polygon fill="white" stroke="#666666" points="387,-75 268,-75 268,-56 387,-56 387,-75"/>
<text text-anchor="middle" x="327.5" y="-63" font-family="Helvetica,sans-Serif" font-size="10.00">coap_opt_block_num</text>
</a>
</g>
</g>
<!-- Node2&#45;&gt;Node17 -->
<g id="edge17_Node000002_Node000017" class="edge">
<title>Node2&#45;&gt;Node17</title>
<g id="a_edge17_Node000002_Node000017"><a xlink:title=" ">
<path fill="none" stroke="#63b8ff" d="M206.34,-110.92C229.88,-102.02 265.14,-88.69 291.38,-78.77"/>
<polygon fill="#63b8ff" stroke="#63b8ff" points="292.84,-81.96 300.96,-75.16 290.37,-75.42 292.84,-81.96"/>
</a>
</g>
</g>
<!-- Node4 -->
<g id="Node000004" class="node">
<title>Node4</title>
<g id="a_Node000004"><a xlink:href="group__opt__filter.html#gab32cbf963c82364063041e5c84ca279a" target="_top" xlink:title="Clears filter filter.">
<polygon fill="white" stroke="#666666" points="544,-290.5 440,-290.5 440,-260.5 544,-260.5 544,-290.5"/>
<text text-anchor="start" x="448" y="-278.5" font-family="Helvetica,sans-Serif" font-size="10.00">coap_option_filter</text>
<text text-anchor="middle" x="492" y="-267.5" font-family="Helvetica,sans-Serif" font-size="10.00">_clear</text>
</a>
</g>
</g>
<!-- Node3&#45;&gt;Node4 -->
<g id="edge3_Node000003_Node000004" class="edge">
<title>Node3&#45;&gt;Node4</title>
<g id="a_edge3_Node000003_Node000004"><a xlink:title=" ">
<path fill="none" stroke="#63b8ff" d="M344.63,-204.02C363.24,-214.85 394.88,-232.81 423,-246.5 429.74,-249.78 436.95,-253.08 444.06,-256.21"/>
<polygon fill="#63b8ff" stroke="#63b8ff" points="443.07,-259.6 453.64,-260.36 445.86,-253.17 443.07,-259.6"/>
</a>
</g>
</g>
<!-- Node5 -->
<g id="Node000005" class="node">
<title>Node5</title>
<g id="a_Node000005"><a xlink:href="group__opt__filter.html#gafdbe6036d408220bbfa6eb2d7bd2443f" target="_top" xlink:title="Sets the corresponding entry for number in filter.">
<polygon fill="white" stroke="#666666" points="721.5,-241 597.5,-241 597.5,-222 721.5,-222 721.5,-241"/>
<text text-anchor="middle" x="659.5" y="-229" font-family="Helvetica,sans-Serif" font-size="10.00">coap_option_filter_set</text>
</a>
</g>
</g>
<!-- Node3&#45;&gt;Node5 -->
<g id="edge4_Node000003_Node000005" class="edge">
<title>Node3&#45;&gt;Node5</title>
<g id="a_edge4_Node000003_Node000005"><a xlink:title=" ">
<path fill="none" stroke="#63b8ff" d="M370.18,-204.02C386.57,-207.47 405.59,-211.09 423,-213.5 477.87,-221.08 540.41,-225.68 587.24,-228.32"/>
<polygon fill="#63b8ff" stroke="#63b8ff" points="587.11,-231.82 597.29,-228.87 587.5,-224.83 587.11,-231.82"/>
</a>
</g>
</g>
<!-- Node10 -->
<g id="Node000010" class="node">
<title>Node10</title>
<g id="a_Node000010"><a xlink:href="group__opt__filter.html#ga46d7817d055728114b3c62499426b25c" target="_top" xlink:title="Initializes the given option iterator oi to point to the beginning of the pdu&#39;s option list.">
<polygon fill="white" stroke="#666666" points="561,-204 423,-204 423,-185 561,-185 561,-204"/>
<text text-anchor="middle" x="492" y="-192" font-family="Helvetica,sans-Serif" font-size="10.00">coap_option_iterator_init</text>
</a>
</g>
</g>
<!-- Node3&#45;&gt;Node10 -->
<g id="edge9_Node000003_Node000010" class="edge">
<title>Node3&#45;&gt;Node10</title>
<g id="a_edge9_Node000003_Node000010"><a xlink:title=" ">
<path fill="none" stroke="#63b8ff" d="M382.61,-194.5C392.3,-194.5 402.58,-194.5 412.79,-194.5"/>
<polygon fill="#63b8ff" stroke="#63b8ff" points="412.96,-198 422.96,-194.5 412.96,-191 412.96,-198"/>
</a>
</g>
</g>
<!-- Node11 -->
<g id="Node000011" class="node">
<title>Node11</title>
<g id="a_Node000011"><a xlink:href="group__opt__filter.html#ga19d4dbbc03ef362996964fbfdd1d4c7b" target="_top" xlink:title="Updates the iterator oi to point to the next option.">
<polygon fill="white" stroke="#666666" points="543.5,-167 440.5,-167 440.5,-148 543.5,-148 543.5,-167"/>
<text text-anchor="middle" x="492" y="-155" font-family="Helvetica,sans-Serif" font-size="10.00">coap_option_next</text>
</a>
</g>
</g>
<!-- Node3&#45;&gt;Node11 -->
<g id="edge10_Node000003_Node000011" class="edge">
<title>Node3&#45;&gt;Node11</title>
<g id="a_edge10_Node000003_Node000011"><a xlink:title=" ">
<path fill="none" stroke="#63b8ff" d="M370.35,-184.97C391.31,-180.2 416.88,-174.38 439.08,-169.32"/>
<polygon fill="#63b8ff" stroke="#63b8ff" points="440.04,-172.69 449.01,-167.06 438.48,-165.87 440.04,-172.69"/>
</a>
</g>
</g>
<!-- Node6 -->
<g id="Node000006" class="node">
<title>Node6</title>
<g id="a_Node000006"><a xlink:href="coap__option_8c.html#ab87ea79da1603a15ac624388a335bba6" target="_top" xlink:title="Applies op on filter with respect to number.">
<polygon fill="white" stroke="#666666" points="879,-204 758,-204 758,-185 879,-185 879,-204"/>
<text text-anchor="middle" x="818.5" y="-192" font-family="Helvetica,sans-Serif" font-size="10.00">coap_option_filter_op</text>
</a>
</g>
</g>
<!-- Node5&#45;&gt;Node6 -->
<g id="edge5_Node000005_Node000006" class="edge">
<title>Node5&#45;&gt;Node6</title>
<g id="a_edge5_Node000005_Node000006"><a xlink:title=" ">
<path fill="none" stroke="#63b8ff" d="M700.93,-221.97C721.09,-217.22 745.67,-211.43 767.05,-206.39"/>
<polygon fill="#63b8ff" stroke="#63b8ff" points="768,-209.76 776.93,-204.06 766.4,-202.95 768,-209.76"/>
</a>
</g>
</g>
<!-- Node7 -->
<g id="Node000007" class="node">
<title>Node7</title>
<g id="a_Node000007"><a xlink:href="coap__encode_8c.html#a671b4261b2d24de8696258a8efb0f359" target="_top" xlink:title=" ">
<polygon fill="white" stroke="#666666" points="986.5,-223 930.5,-223 930.5,-204 986.5,-204 986.5,-223"/>
<text text-anchor="middle" x="958.5" y="-211" font-family="Helvetica,sans-Serif" font-size="10.00">coap_fls</text>
</a>
</g>
</g>
<!-- Node6&#45;&gt;Node7 -->
<g id="edge6_Node000006_Node000007" class="edge">
<title>Node6&#45;&gt;Node7</title>
<g id="a_edge6_Node000006_Node000007"><a xlink:title=" ">
<path fill="none" stroke="#63b8ff" d="M879.23,-202.72C893.11,-204.63 907.51,-206.62 920.11,-208.35"/>
<polygon fill="#63b8ff" stroke="#63b8ff" points="919.84,-211.85 930.22,-209.74 920.79,-204.91 919.84,-211.85"/>
</a>
</g>
</g>
<!-- Node9 -->
<g id="Node000009" class="node">
<title>Node9</title>
<g id="a_Node000009"><a xlink:href="coap__option_8c.html#ad65a9bd8fcfb4ba4270819e6f87f5bcf" target="_top" xlink:title="Returns true iff number denotes an option number larger than 255.">
<polygon fill="white" stroke="#666666" points="1002,-186 915,-186 915,-167 1002,-167 1002,-186"/>
<text text-anchor="middle" x="958.5" y="-174" font-family="Helvetica,sans-Serif" font-size="10.00">is_long_option</text>
</a>
</g>
</g>
<!-- Node6&#45;&gt;Node9 -->
<g id="edge8_Node000006_Node000009" class="edge">
<title>Node6&#45;&gt;Node9</title>
<g id="a_edge8_Node000006_Node000009"><a xlink:title=" ">
<path fill="none" stroke="#63b8ff" d="M879.23,-186.71C887.72,-185.6 896.4,-184.47 904.75,-183.38"/>
<polygon fill="#63b8ff" stroke="#63b8ff" points="905.27,-186.84 914.73,-182.08 904.36,-179.9 905.27,-186.84"/>
</a>
</g>
</g>
<!-- Node8 -->
<g id="Node000008" class="node">
<title>Node8</title>
<g id="a_Node000008"><a xlink:href="coap__encode_8c.html#a1c66d23b22bbf747ff8b0a649f85f060" target="_top" xlink:title=" ">
<polygon fill="white" stroke="#666666" points="1100,-223 1038,-223 1038,-204 1100,-204 1100,-223"/>
<text text-anchor="middle" x="1069" y="-211" font-family="Helvetica,sans-Serif" font-size="10.00">coap_flsll</text>
</a>
</g>
</g>
<!-- Node7&#45;&gt;Node8 -->
<g id="edge7_Node000007_Node000008" class="edge">
<title>Node7&#45;&gt;Node8</title>
<g id="a_edge7_Node000007_Node000008"><a xlink:title=" ">
<path fill="none" stroke="#63b8ff" d="M986.6,-213.5C999,-213.5 1013.96,-213.5 1027.65,-213.5"/>
<polygon fill="#63b8ff" stroke="#63b8ff" points="1027.81,-217 1037.81,-213.5 1027.81,-210 1027.81,-217"/>
</a>
</g>
</g>
<!-- Node12 -->
<g id="Node000012" class="node">
<title>Node12</title>
<g id="a_Node000012"><a xlink:href="coap__option_8c.html#a11de99f50cc9f5a34fd9e4d121ecfd13" target="_top" xlink:title="Parses the option pointed to by opt into result.">
<polygon fill="white" stroke="#666666" points="706,-204 613,-204 613,-185 706,-185 706,-204"/>
<text text-anchor="middle" x="659.5" y="-192" font-family="Helvetica,sans-Serif" font-size="10.00">coap_opt_parse</text>
</a>
</g>
</g>
<!-- Node11&#45;&gt;Node12 -->
<g id="edge11_Node000011_Node000012" class="edge">
<title>Node11&#45;&gt;Node12</title>
<g id="a_edge11_Node000011_Node000012"><a xlink:title=" ">
<path fill="none" stroke="#63b8ff" d="M535.62,-167.03C557.06,-171.82 583.25,-177.68 605.93,-182.75"/>
<polygon fill="#63b8ff" stroke="#63b8ff" points="605.21,-186.17 615.74,-184.94 606.74,-179.34 605.21,-186.17"/>
</a>
</g>
</g>
<!-- Node13 -->
<g id="Node000013" class="node">
<title>Node13</title>
<g id="a_Node000013"><a xlink:href="group__opt__filter.html#gaecbb0b2fe1f6244aa6121d019070704b" target="_top" xlink:title="Checks if number is contained in filter.">
<polygon fill="white" stroke="#666666" points="722,-167 597,-167 597,-148 722,-148 722,-167"/>
<text text-anchor="middle" x="659.5" y="-155" font-family="Helvetica,sans-Serif" font-size="10.00">coap_option_filter_get</text>
</a>
</g>
</g>
<!-- Node11&#45;&gt;Node13 -->
<g id="edge12_Node000011_Node000013" class="edge">
<title>Node11&#45;&gt;Node13</title>
<g id="a_edge12_Node000011_Node000013"><a xlink:title=" ">
<path fill="none" stroke="#63b8ff" d="M543.55,-157.5C557.23,-157.5 572.29,-157.5 586.87,-157.5"/>
<polygon fill="#63b8ff" stroke="#63b8ff" points="586.88,-161 596.88,-157.5 586.88,-154 586.88,-161"/>
</a>
</g>
</g>
<!-- Node14 -->
<g id="Node000014" class="node">
<title>Node14</title>
<g id="a_Node000014"><a xlink:href="coap__option_8c.html#a70fa9db0450134640b80cbf7c3720688" target="_top" xlink:title=" ">
<polygon fill="white" stroke="#666666" points="697.5,-130 621.5,-130 621.5,-111 697.5,-111 697.5,-130"/>
<text text-anchor="middle" x="659.5" y="-118" font-family="Helvetica,sans-Serif" font-size="10.00">opt_finished</text>
</a>
</g>
</g>
<!-- Node11&#45;&gt;Node14 -->
<g id="edge14_Node000011_Node000014" class="edge">
<title>Node11&#45;&gt;Node14</title>
<g id="a_edge14_Node000011_Node000014"><a xlink:title=" ">
<path fill="none" stroke="#63b8ff" d="M535.62,-147.97C558.83,-142.78 587.61,-136.35 611.47,-131.01"/>
<polygon fill="#63b8ff" stroke="#63b8ff" points="612.37,-134.4 621.37,-128.8 610.85,-127.57 612.37,-134.4"/>
</a>
</g>
</g>
<!-- Node13&#45;&gt;Node6 -->
<g id="edge13_Node000013_Node000006" class="edge">
<title>Node13&#45;&gt;Node6</title>
<g id="a_edge13_Node000013_Node000006"><a xlink:title=" ">
<path fill="none" stroke="#63b8ff" d="M700.93,-167.03C721.09,-171.78 745.67,-177.57 767.05,-182.61"/>
<polygon fill="#63b8ff" stroke="#63b8ff" points="766.4,-186.05 776.93,-184.94 768,-179.24 766.4,-186.05"/>
</a>
</g>
</g>
<!-- Node16 -->
<g id="Node000016" class="node">
<title>Node16</title>
<g id="a_Node000016"><a xlink:href="group__pdu.html#gacb114ef7bdb588870ded91efc3c3d6d2" target="_top" xlink:title="Retrieves the data from a PDU, with support for large bodies of data that spans multiple PDUs.">
<polygon fill="white" stroke="#666666" points="551,-130 433,-130 433,-111 551,-111 551,-130"/>
<text text-anchor="middle" x="492" y="-118" font-family="Helvetica,sans-Serif" font-size="10.00">coap_get_data_large</text>
</a>
</g>
</g>
<!-- Node15&#45;&gt;Node16 -->
<g id="edge16_Node000015_Node000016" class="edge">
<title>Node15&#45;&gt;Node16</title>
<g id="a_edge16_Node000015_Node000016"><a xlink:title=" ">
<path fill="none" stroke="#63b8ff" d="M371.62,-120.5C387.34,-120.5 405.52,-120.5 422.88,-120.5"/>
<polygon fill="#63b8ff" stroke="#63b8ff" points="422.99,-124 432.99,-120.5 422.99,-117 422.99,-124"/>
</a>
</g>
</g>
<!-- Node18 -->
<g id="Node000018" class="node">
<title>Node18</title>
<g id="a_Node000018"><a xlink:href="group__encode.html#ga8bfaf6132a57d1f9e25282d61d7ed773" target="_top" xlink:title="Decodes multiple&#45;length byte sequences.">
<polygon fill="white" stroke="#666666" points="559,-93 425,-93 425,-74 559,-74 559,-93"/>
<text text-anchor="middle" x="492" y="-81" font-family="Helvetica,sans-Serif" font-size="10.00">coap_decode_var_bytes</text>
</a>
</g>
</g>
<!-- Node17&#45;&gt;Node18 -->
<g id="edge18_Node000017_Node000018" class="edge">
<title>Node17&#45;&gt;Node18</title>
<g id="a_edge18_Node000017_Node000018"><a xlink:title=" ">
<path fill="none" stroke="#63b8ff" d="M387.17,-72C396.18,-73 405.59,-74.04 414.92,-75.07"/>
<polygon fill="#63b8ff" stroke="#63b8ff" points="414.65,-78.56 424.98,-76.19 415.42,-71.61 414.65,-78.56"/>
</a>
</g>
</g>
<!-- Node19 -->
<g id="Node000019" class="node">
<title>Node19</title>
<g id="a_Node000019"><a xlink:href="group__opt__filter.html#ga42d0b9d068b790ec1c490a7fb2674904" target="_top" xlink:title="Returns the length of the given option.">
<polygon fill="white" stroke="#666666" points="540.5,-56 443.5,-56 443.5,-37 540.5,-37 540.5,-56"/>
<text text-anchor="middle" x="492" y="-44" font-family="Helvetica,sans-Serif" font-size="10.00">coap_opt_length</text>
</a>
</g>
</g>
<!-- Node17&#45;&gt;Node19 -->
<g id="edge19_Node000017_Node000019" class="edge">
<title>Node17&#45;&gt;Node19</title>
<g id="a_edge19_Node000017_Node000019"><a xlink:title=" ">
<path fill="none" stroke="#63b8ff" d="M387.17,-58.64C402.16,-56.89 418.27,-55 433.22,-53.26"/>
<polygon fill="#63b8ff" stroke="#63b8ff" points="433.83,-56.71 443.36,-52.07 433.02,-49.76 433.83,-56.71"/>
</a>
</g>
</g>
<!-- Node20 -->
<g id="Node000020" class="node">
<title>Node20</title>
<g id="a_Node000020"><a xlink:href="group__opt__filter.html#gaec4e944d39722779cac610ed22ee09db" target="_top" xlink:title="Returns a pointer to the value of the given option.">
<polygon fill="white" stroke="#666666" points="538.5,-19 445.5,-19 445.5,0 538.5,0 538.5,-19"/>
<text text-anchor="middle" x="492" y="-7" font-family="Helvetica,sans-Serif" font-size="10.00">coap_opt_value</text>
</a>
</g>
</g>
<!-- Node17&#45;&gt;Node20 -->
<g id="edge20_Node000017_Node000020" class="edge">
<title>Node17&#45;&gt;Node20</title>
<g id="a_edge20_Node000017_Node000020"><a xlink:title=" ">
<path fill="none" stroke="#63b8ff" d="M349.99,-55.97C368.96,-47.78 397.49,-35.97 423,-27.5 429.01,-25.51 435.37,-23.58 441.7,-21.78"/>
<polygon fill="#63b8ff" stroke="#63b8ff" points="442.85,-25.09 451.56,-19.06 440.99,-18.34 442.85,-25.09"/>
</a>
</g>
</g>
</g>
</svg>

<g id="navigator" transform="translate(0 0)" fill="#404254">
  <rect fill="#f2f5e9" fill-opacity="0.5" stroke="#606060" stroke-width=".5" x="0" y="0" width="60" height="60"/>
  <use id="zoomplus" xlink:href="#zoomPlus" x="17" y="9" onmousedown="handleZoom(evt,'in')"/>
  <use id="zoomminus" xlink:href="#zoomMin" x="42" y="9" onmousedown="handleZoom(evt,'out')"/>
  <use id="reset" xlink:href="#resetDef" x="30" y="36" onmousedown="handleReset()"/>
   <use id="arrowup" xlink:href="#arrowUp" x="0" y="0" onmousedown="handlePan(0,-1)"/>
  <use id="arrowright" xlink:href="#arrowRight" x="0" y="0" onmousedown="handlePan(1,0)"/>
  <use id="arrowdown" xlink:href="#arrowDown" x="0" y="0" onmousedown="handlePan(0,1)"/>
  <use id="arrowleft" xlink:href="#arrowLeft" x="0" y="0" onmousedown="handlePan(-1,0)"/>
</g>
<svg viewBox="0 0 15 15" width="100%" height="30px" preserveAspectRatio="xMaxYMin meet">
 <g id="arrow_out" transform="scale(0.3 0.3)">
  <a xlink:href="group__block_gab4948cbc673c565b3eba270c5f784db3_cgraph_org.svg" target="_base">
   <rect id="button" ry="5" rx="5" y="6" x="6" height="38" width="38"
        fill="#f2f5e9" fill-opacity="0.5" stroke="#606060" stroke-width="1.0"/>
   <path id="arrow"
     d="M 11.500037,31.436501 C 11.940474,20.09759 22.043105,11.32322 32.158766,21.979434 L 37.068811,17.246167 C 37.068811,17.246167 37.088388,32 37.088388,32 L 22.160133,31.978069 C 22.160133,31.978069 26.997745,27.140456 26.997745,27.140456 C 18.528582,18.264221 13.291696,25.230495 11.500037,31.436501 z"
     style="fill:#404040;"/>
  </a>
 </g>
</svg>

<style type='text/css'>
<![CDATA[
[data-mouse-over-selected='false'] { opacity: 0.7; }
[data-mouse-over-selected='true']  { opacity: 1.0; }
]]>
</style>
<script type="application/ecmascript"><![CDATA[
document.addEventListener('DOMContentLoaded', (event) => {
  highlightEdges();
  highlightAdjacentNodes();
});
]]></script>
</svg>
