<?xml version="1.0" encoding="UTF-8" standalone="no"?>
<!DOCTYPE svg PUBLIC "-//W3C//DTD SVG 1.1//EN"
 "http://www.w3.org/Graphics/SVG/1.1/DTD/svg11.dtd">
<!-- Generated by graphviz version 2.42.4 (0)
 -->
<!-- Title: coap_new_bin_const Pages: 1 -->
<svg width="607pt" height="304pt"
 viewBox="0.00 0.00 607.00 304.00" xmlns="http://www.w3.org/2000/svg" xmlns:xlink="http://www.w3.org/1999/xlink">
<g id="graph0" class="graph" transform="scale(1 1) rotate(0) translate(4 300)">
<title>coap_new_bin_const</title>
<!-- Node1 -->
<g id="Node000001" class="node">
<title>Node1</title>
<g id="a_Node000001"><a xlink:title="Take the specified byte array (text) and create a coap_bin_const_t * Returns a new const binary objec...">
<polygon fill="#999999" stroke="#666666" points="599,-157 482,-157 482,-138 599,-138 599,-157"/>
<text text-anchor="middle" x="540.5" y="-145" font-family="Helvetica,sans-Serif" font-size="10.00">coap_new_bin_const</text>
</a>
</g>
</g>
<!-- Node2 -->
<g id="Node000002" class="node">
<title>Node2</title>
<g id="a_Node000002"><a xlink:href="group__app__io__internal.html#gae138b6aba5c244fb8e582e63615f5112" target="_top" xlink:title="Sends a CoAP message to given peer.">
<polygon fill="white" stroke="#666666" points="423,-296 334,-296 334,-277 423,-277 423,-296"/>
<text text-anchor="middle" x="378.5" y="-284" font-family="Helvetica,sans-Serif" font-size="10.00">coap_send_lkd</text>
</a>
</g>
</g>
<!-- Node1&#45;&gt;Node2 -->
<g id="edge1_Node000001_Node000002" class="edge">
<title>Node1&#45;&gt;Node2</title>
<g id="a_edge1_Node000001_Node000002"><a xlink:title=" ">
<path fill="none" stroke="#63b8ff" d="M529.88,-166.31C515.33,-192.86 485.21,-241.04 446,-267.5 439.13,-272.13 431.14,-275.65 423.12,-278.31"/>
<polygon fill="#63b8ff" stroke="#63b8ff" points="533.07,-167.75 534.68,-157.28 526.89,-164.47 533.07,-167.75"/>
</a>
</g>
</g>
<!-- Node4 -->
<g id="Node000004" class="node">
<title>Node4</title>
<g id="a_Node000004"><a xlink:href="group__session__internal.html#ga241d1a2311c1dcbdca0e6860237acf91" target="_top" xlink:title="Refresh the session&#39;s current Identity Hint (PSK).">
<polygon fill="white" stroke="#666666" points="439.5,-258.5 317.5,-258.5 317.5,-228.5 439.5,-228.5 439.5,-258.5"/>
<text text-anchor="start" x="325.5" y="-246.5" font-family="Helvetica,sans-Serif" font-size="10.00">coap_session_refresh</text>
<text text-anchor="middle" x="378.5" y="-235.5" font-family="Helvetica,sans-Serif" font-size="10.00">_psk_hint</text>
</a>
</g>
</g>
<!-- Node1&#45;&gt;Node4 -->
<g id="edge3_Node000001_Node000004" class="edge">
<title>Node1&#45;&gt;Node4</title>
<g id="a_edge3_Node000001_Node000004"><a xlink:title=" ">
<path fill="none" stroke="#63b8ff" d="M521.41,-164.2C503.4,-180.13 474.41,-203.93 446,-219.5 439.97,-222.8 433.4,-225.81 426.81,-228.49"/>
<polygon fill="#63b8ff" stroke="#63b8ff" points="524.22,-166.37 529.32,-157.08 519.54,-161.17 524.22,-166.37"/>
</a>
</g>
</g>
<!-- Node5 -->
<g id="Node000005" class="node">
<title>Node5</title>
<g id="a_Node000005"><a xlink:href="group__session__internal.html#gabf03da17a2f79fd94e20c58cd05e5d0e" target="_top" xlink:title="Refresh the session&#39;s current pre&#45;shared identity (PSK).">
<polygon fill="white" stroke="#666666" points="439.5,-210.5 317.5,-210.5 317.5,-180.5 439.5,-180.5 439.5,-210.5"/>
<text text-anchor="start" x="325.5" y="-198.5" font-family="Helvetica,sans-Serif" font-size="10.00">coap_session_refresh</text>
<text text-anchor="middle" x="378.5" y="-187.5" font-family="Helvetica,sans-Serif" font-size="10.00">_psk_identity</text>
</a>
</g>
</g>
<!-- Node1&#45;&gt;Node5 -->
<g id="edge4_Node000001_Node000005" class="edge">
<title>Node1&#45;&gt;Node5</title>
<g id="a_edge4_Node000001_Node000005"><a xlink:title=" ">
<path fill="none" stroke="#63b8ff" d="M497.69,-160.04C476.88,-166.29 451.56,-173.88 429.71,-180.44"/>
<polygon fill="#63b8ff" stroke="#63b8ff" points="498.93,-163.32 507.51,-157.1 496.92,-156.62 498.93,-163.32"/>
</a>
</g>
</g>
<!-- Node6 -->
<g id="Node000006" class="node">
<title>Node6</title>
<g id="a_Node000006"><a xlink:href="group__session__internal.html#gaa40e39af285755517824c26095494f91" target="_top" xlink:title="Refresh the session&#39;s current pre&#45;shared key (PSK).">
<polygon fill="white" stroke="#666666" points="439.5,-162.5 317.5,-162.5 317.5,-132.5 439.5,-132.5 439.5,-162.5"/>
<text text-anchor="start" x="325.5" y="-150.5" font-family="Helvetica,sans-Serif" font-size="10.00">coap_session_refresh</text>
<text text-anchor="middle" x="378.5" y="-139.5" font-family="Helvetica,sans-Serif" font-size="10.00">_psk_key</text>
</a>
</g>
</g>
<!-- Node1&#45;&gt;Node6 -->
<g id="edge5_Node000001_Node000006" class="edge">
<title>Node1&#45;&gt;Node6</title>
<g id="a_edge5_Node000001_Node000006"><a xlink:title=" ">
<path fill="none" stroke="#63b8ff" d="M471.65,-147.5C461,-147.5 450.06,-147.5 439.6,-147.5"/>
<polygon fill="#63b8ff" stroke="#63b8ff" points="471.74,-151 481.74,-147.5 471.74,-144 471.74,-151"/>
</a>
</g>
</g>
<!-- Node7 -->
<g id="Node000007" class="node">
<title>Node7</title>
<g id="a_Node000007"><a xlink:href="oscore__context_8c.html#a5dd2a845d237fab6455e841459932301" target="_top" xlink:title=" ">
<polygon fill="white" stroke="#666666" points="429,-114 328,-114 328,-95 429,-95 429,-114"/>
<text text-anchor="middle" x="378.5" y="-102" font-family="Helvetica,sans-Serif" font-size="10.00">oscore_build_key</text>
</a>
</g>
</g>
<!-- Node1&#45;&gt;Node7 -->
<g id="edge6_Node000001_Node000007" class="edge">
<title>Node1&#45;&gt;Node7</title>
<g id="a_edge6_Node000001_Node000007"><a xlink:title=" ">
<path fill="none" stroke="#63b8ff" d="M494.31,-135.35C469.15,-128.59 438.3,-120.3 414.91,-114.02"/>
<polygon fill="#63b8ff" stroke="#63b8ff" points="493.43,-138.74 503.99,-137.96 495.24,-131.98 493.43,-138.74"/>
</a>
</g>
</g>
<!-- Node10 -->
<g id="Node000010" class="node">
<title>Node10</title>
<g id="a_Node000010"><a xlink:href="group__oscore__internal.html#gac1dcb68cfe7c74e017f67ad7c085a492" target="_top" xlink:title="oscore_duplicate_ctx &#45; duplicate a osc_ctx">
<polygon fill="white" stroke="#666666" points="119,-133 0,-133 0,-114 119,-114 119,-133"/>
<text text-anchor="middle" x="59.5" y="-121" font-family="Helvetica,sans-Serif" font-size="10.00">oscore_duplicate_ctx</text>
</a>
</g>
</g>
<!-- Node1&#45;&gt;Node10 -->
<g id="edge13_Node000001_Node000010" class="edge">
<title>Node1&#45;&gt;Node10</title>
<g id="a_edge13_Node000001_Node000010"><a xlink:title=" ">
<path fill="none" stroke="#63b8ff" d="M521.06,-131.37C503.18,-116.73 474.64,-95.89 446,-85.5 324.16,-41.29 279.87,-31.76 155,-66.5 121.77,-75.74 88.55,-100.17 71.76,-113.86"/>
<polygon fill="#63b8ff" stroke="#63b8ff" points="519.02,-134.23 528.93,-137.98 523.53,-128.87 519.02,-134.23"/>
</a>
</g>
</g>
<!-- Node12 -->
<g id="Node000012" class="node">
<title>Node12</title>
<g id="a_Node000012"><a xlink:href="group__oscore__internal.html#ga8cf885624714b9a4705974adf2629cb2" target="_top" xlink:title=" ">
<polygon fill="white" stroke="#666666" points="446,-19 311,-19 311,0 446,0 446,-19"/>
<text text-anchor="middle" x="378.5" y="-7" font-family="Helvetica,sans-Serif" font-size="10.00">oscore_new_association</text>
</a>
</g>
</g>
<!-- Node1&#45;&gt;Node12 -->
<g id="edge14_Node000001_Node000012" class="edge">
<title>Node1&#45;&gt;Node12</title>
<g id="a_edge14_Node000001_Node000012"><a xlink:title=" ">
<path fill="none" stroke="#63b8ff" d="M528.74,-128.92C513.38,-103.91 482.91,-59.58 446,-33.5 437.28,-27.34 426.81,-22.59 416.78,-19.01"/>
<polygon fill="#63b8ff" stroke="#63b8ff" points="525.9,-130.98 534.04,-137.76 531.9,-127.38 525.9,-130.98"/>
</a>
</g>
</g>
<!-- Node3 -->
<g id="Node000003" class="node">
<title>Node3</title>
<g id="a_Node000003"><a xlink:href="group__context.html#ga1c3d60f40aa03a974b4472951abae1f0" target="_top" xlink:title="Sends a CoAP message to given peer.">
<polygon fill="white" stroke="#666666" points="249,-296 181,-296 181,-277 249,-277 249,-296"/>
<text text-anchor="middle" x="215" y="-284" font-family="Helvetica,sans-Serif" font-size="10.00">coap_send</text>
</a>
</g>
</g>
<!-- Node2&#45;&gt;Node3 -->
<g id="edge2_Node000002_Node000003" class="edge">
<title>Node2&#45;&gt;Node3</title>
<g id="a_edge2_Node000002_Node000003"><a xlink:title=" ">
<path fill="none" stroke="#63b8ff" d="M323.52,-286.5C298.94,-286.5 270.63,-286.5 249.23,-286.5"/>
<polygon fill="#63b8ff" stroke="#63b8ff" points="323.8,-290 333.8,-286.5 323.8,-283 323.8,-290"/>
</a>
</g>
</g>
<!-- Node8 -->
<g id="Node000008" class="node">
<title>Node8</title>
<g id="a_Node000008"><a xlink:href="group__oscore__internal.html#ga28cf1e32f7d4f13cd4f25aca27169580" target="_top" xlink:title="oscore_add_recipient &#45; add in recipient information">
<polygon fill="white" stroke="#666666" points="275,-171 155,-171 155,-152 275,-152 275,-171"/>
<text text-anchor="middle" x="215" y="-159" font-family="Helvetica,sans-Serif" font-size="10.00">oscore_add_recipient</text>
</a>
</g>
</g>
<!-- Node7&#45;&gt;Node8 -->
<g id="edge7_Node000007_Node000008" class="edge">
<title>Node7&#45;&gt;Node8</title>
<g id="a_edge7_Node000007_Node000008"><a xlink:title=" ">
<path fill="none" stroke="#63b8ff" d="M331.44,-117C324.55,-119.06 317.56,-121.26 311,-123.5 303.94,-125.91 265.23,-141.52 239.46,-151.97"/>
<polygon fill="#63b8ff" stroke="#63b8ff" points="332.78,-120.25 341.4,-114.09 330.82,-113.53 332.78,-120.25"/>
</a>
</g>
</g>
<!-- Node9 -->
<g id="Node000009" class="node">
<title>Node9</title>
<g id="a_Node000009"><a xlink:href="group__oscore__internal.html#ga8636deef153df3f5c67fba15ff3893c0" target="_top" xlink:title="oscore_derive_ctx &#45; derive a osc_ctx from oscore_conf information">
<polygon fill="white" stroke="#666666" points="112,-190 7,-190 7,-171 112,-171 112,-190"/>
<text text-anchor="middle" x="59.5" y="-178" font-family="Helvetica,sans-Serif" font-size="10.00">oscore_derive_ctx</text>
</a>
</g>
</g>
<!-- Node7&#45;&gt;Node9 -->
<g id="edge10_Node000007_Node000009" class="edge">
<title>Node7&#45;&gt;Node9</title>
<g id="a_edge10_Node000007_Node000009"><a xlink:title=" ">
<path fill="none" stroke="#63b8ff" d="M319.02,-118.39C316.21,-119.92 313.51,-121.62 311,-123.5 287.02,-141.46 301.24,-166.04 275,-180.5 218.09,-211.87 139.1,-200.47 94.57,-190.04"/>
<polygon fill="#63b8ff" stroke="#63b8ff" points="320.73,-121.45 328.32,-114.06 317.78,-115.11 320.73,-121.45"/>
</a>
</g>
</g>
<!-- Node7&#45;&gt;Node10 -->
<g id="edge11_Node000007_Node000010" class="edge">
<title>Node7&#45;&gt;Node10</title>
<g id="a_edge11_Node000007_Node000010"><a xlink:title=" ">
<path fill="none" stroke="#63b8ff" d="M317.68,-108.09C260.75,-111.5 175.63,-116.6 119.1,-119.99"/>
<polygon fill="#63b8ff" stroke="#63b8ff" points="318.2,-111.56 327.97,-107.47 317.78,-104.57 318.2,-111.56"/>
</a>
</g>
</g>
<!-- Node11 -->
<g id="Node000011" class="node">
<title>Node11</title>
<g id="a_Node000011"><a xlink:href="group__oscore__internal.html#ga77af2b488323aca8684f23dfde52e1d5" target="_top" xlink:title="oscore_update_ctx &#45; update a osc_ctx with a new id_context">
<polygon fill="white" stroke="#666666" points="269,-95 161,-95 161,-76 269,-76 269,-95"/>
<text text-anchor="middle" x="215" y="-83" font-family="Helvetica,sans-Serif" font-size="10.00">oscore_update_ctx</text>
</a>
</g>
</g>
<!-- Node7&#45;&gt;Node11 -->
<g id="edge12_Node000007_Node000011" class="edge">
<title>Node7&#45;&gt;Node11</title>
<g id="a_edge12_Node000007_Node000011"><a xlink:title=" ">
<path fill="none" stroke="#63b8ff" d="M317.51,-97.44C301.68,-95.58 284.7,-93.58 269.25,-91.76"/>
<polygon fill="#63b8ff" stroke="#63b8ff" points="317.39,-100.95 327.73,-98.64 318.2,-94 317.39,-100.95"/>
</a>
</g>
</g>
<!-- Node8&#45;&gt;Node9 -->
<g id="edge8_Node000008_Node000009" class="edge">
<title>Node8&#45;&gt;Node9</title>
<g id="a_edge8_Node000008_Node000009"><a xlink:title=" ">
<path fill="none" stroke="#63b8ff" d="M144.7,-170.08C133.77,-171.43 122.63,-172.81 112.19,-174.1"/>
<polygon fill="#63b8ff" stroke="#63b8ff" points="145.16,-173.55 154.65,-168.85 144.3,-166.6 145.16,-173.55"/>
</a>
</g>
</g>
<!-- Node8&#45;&gt;Node10 -->
<g id="edge9_Node000008_Node000010" class="edge">
<title>Node8&#45;&gt;Node10</title>
<g id="a_edge9_Node000008_Node000010"><a xlink:title=" ">
<path fill="none" stroke="#63b8ff" d="M165.36,-149.46C143.92,-144.15 119.08,-138 98.96,-133.02"/>
<polygon fill="#63b8ff" stroke="#63b8ff" points="164.72,-152.91 175.27,-151.91 166.4,-146.11 164.72,-152.91"/>
</a>
</g>
</g>
</g>
</svg>
