<?xml version="1.0" encoding="UTF-8" standalone="no"?>
<!DOCTYPE svg PUBLIC "-//W3C//DTD SVG 1.1//EN"
 "http://www.w3.org/Graphics/SVG/1.1/DTD/svg11.dtd">
<!-- Generated by graphviz version 2.42.4 (0)
 -->
<!-- Title: coap_handle_failed_notify Pages: 1 -->
<!--zoomable 263 -->

<svg id="main" version="1.1" xmlns="http://www.w3.org/2000/svg" xmlns:xlink="http://www.w3.org/1999/xlink" xml:space="preserve" onload="init(evt)">
<style type="text/css"><![CDATA[
.node, .edge {opacity: 0.7;}
.node.selected, .edge.selected {opacity: 1;}
.edge:hover path { stroke: red; }
.edge:hover polygon { stroke: red; fill: red; }
]]></style>

<defs>
  <circle id="rim" cx="0" cy="0" r="7"/>
  <circle id="rim2" cx="0" cy="0" r="3.5"/>
  <g id="zoomPlus">
    <use xlink:href="#rim" fill="#404040"><set attributeName="fill" to="#808080" begin="zoomplus.mouseover" end="zoomplus.mouseout"/></use>
    <path d="M-4,0h8M0,-4v8" fill="none" stroke="white" stroke-width="1.5" pointer-events="none"/>
  </g>
  <g id="zoomMin">
    <use xlink:href="#rim" fill="#404040"><set attributeName="fill" to="#808080" begin="zoomminus.mouseover" end="zoomminus.mouseout"/></use>
    <path d="M-4,0h8" fill="none" stroke="white" stroke-width="1.5" pointer-events="none"/>
  </g>
  <g id="arrowUp" transform="translate(30 24)">
    <use xlink:href="#rim"/>
    <path pointer-events="none" fill="none" stroke="white" stroke-width="1.5" d="M0,-3.0v7 M-2.5,-0.5L0,-3.0L2.5,-0.5"/>
  </g>
  <g id="arrowRight" transform="rotate(90) translate(36 -43)">
    <use xlink:href="#rim"/>
    <path pointer-events="none" fill="none" stroke="white" stroke-width="1.5" d="M0,-3.0v7 M-2.5,-0.5L0,-3.0L2.5,-0.5"/>
  </g>
  <g id="arrowDown" transform="rotate(180) translate(-30 -48)">
    <use xlink:href="#rim"/>
    <path pointer-events="none" fill="none" stroke="white" stroke-width="1.5" d="M0,-3.0v7 M-2.5,-0.5L0,-3.0L2.5,-0.5"/>
  </g>
  <g id="arrowLeft" transform="rotate(270) translate(-36 17)">
    <use xlink:href="#rim"/>
    <path pointer-events="none" fill="none" stroke="white" stroke-width="1.5" d="M0,-3.0v7 M-2.5,-0.5L0,-3.0L2.5,-0.5"/>
  </g>
  <g id="resetDef">
    <use xlink:href="#rim2" fill="#404040"><set attributeName="fill" to="#808080" begin="reset.mouseover" end="reset.mouseout"/></use>
  </g>
</defs>
<script type="application/ecmascript">
var viewWidth = 1796;
var viewHeight = 263;
var sectionId = 'dynsection-5';
</script>
<script type="application/ecmascript" xlink:href="svg.min.js"/>
<svg id="graph" class="graph">
<g id="viewport">
<title>coap_handle_failed_notify</title>
<!-- Node1 -->
<g id="Node000001" class="node">
<title>Node1</title>
<g id="a_Node000001"><a xlink:title="Handles a failed observe notify.">
<polygon fill="#999999" stroke="#666666" points="1788,-62.5 1677,-62.5 1677,-32.5 1788,-32.5 1788,-62.5"/>
<text text-anchor="start" x="1685" y="-50.5" font-family="Helvetica,sans-Serif" font-size="10.00">coap_handle_failed</text>
<text text-anchor="middle" x="1732.5" y="-39.5" font-family="Helvetica,sans-Serif" font-size="10.00">_notify</text>
</a>
</g>
</g>
<!-- Node2 -->
<g id="Node000002" class="node">
<title>Node2</title>
<g id="a_Node000002"><a xlink:href="group__context__internal.html#gaad5ccd0b3161f63c0854c2624e892ef4" target="_top" xlink:title="Handles retransmissions of confirmable messages.">
<polygon fill="white" stroke="#666666" points="1641,-57 1545,-57 1545,-38 1641,-38 1641,-57"/>
<text text-anchor="middle" x="1593" y="-45" font-family="Helvetica,sans-Serif" font-size="10.00">coap_retransmit</text>
</a>
</g>
</g>
<!-- Node1&#45;&gt;Node2 -->
<g id="edge1_Node000001_Node000002" class="edge">
<title>Node1&#45;&gt;Node2</title>
<g id="a_edge1_Node000001_Node000002"><a xlink:title=" ">
<path fill="none" stroke="#63b8ff" d="M1666.67,-47.5C1658.02,-47.5 1649.28,-47.5 1641.01,-47.5"/>
<polygon fill="#63b8ff" stroke="#63b8ff" points="1666.76,-51 1676.76,-47.5 1666.76,-44 1666.76,-51"/>
</a>
</g>
</g>
<!-- Node3 -->
<g id="Node000003" class="node">
<title>Node3</title>
<g id="a_Node000003"><a xlink:href="group__app__io__internal.html#gacaa3af99c009b68f13f5c05aefdac41d" target="_top" xlink:title="Iterates through all the coap_socket_t structures embedded in endpoints or sessions associated with t...">
<polygon fill="white" stroke="#666666" points="1509,-57 1378,-57 1378,-38 1509,-38 1509,-57"/>
<text text-anchor="middle" x="1443.5" y="-45" font-family="Helvetica,sans-Serif" font-size="10.00">coap_io_prepare_io_lkd</text>
</a>
</g>
</g>
<!-- Node2&#45;&gt;Node3 -->
<g id="edge2_Node000002_Node000003" class="edge">
<title>Node2&#45;&gt;Node3</title>
<g id="a_edge2_Node000002_Node000003"><a xlink:title=" ">
<path fill="none" stroke="#63b8ff" d="M1534.84,-47.5C1526.42,-47.5 1517.7,-47.5 1509.15,-47.5"/>
<polygon fill="#63b8ff" stroke="#63b8ff" points="1534.92,-51 1544.92,-47.5 1534.92,-44 1534.92,-51"/>
</a>
</g>
</g>
<!-- Node4 -->
<g id="Node000004" class="node">
<title>Node4</title>
<g id="a_Node000004"><a xlink:href="group__app__io__internal.html#gade3ed4566ae99eaf4fb7bd50f7c23822" target="_top" xlink:title="Any now timed out delayed packet is transmitted, along with any packets associated with requested obs...">
<polygon fill="white" stroke="#666666" points="1342,-114 1196,-114 1196,-95 1342,-95 1342,-114"/>
<text text-anchor="middle" x="1269" y="-102" font-family="Helvetica,sans-Serif" font-size="10.00">coap_io_prepare_epoll_lkd</text>
</a>
</g>
</g>
<!-- Node3&#45;&gt;Node4 -->
<g id="edge3_Node000003_Node000004" class="edge">
<title>Node3&#45;&gt;Node4</title>
<g id="a_edge3_Node000003_Node000004"><a xlink:title=" ">
<path fill="none" stroke="#63b8ff" d="M1403.79,-60.29C1372.02,-70.79 1327.73,-85.42 1298.97,-94.93"/>
<polygon fill="#63b8ff" stroke="#63b8ff" points="1405.23,-63.5 1413.63,-57.04 1403.03,-56.85 1405.23,-63.5"/>
</a>
</g>
</g>
<!-- Node7 -->
<g id="Node000007" class="node">
<title>Node7</title>
<g id="a_Node000007"><a xlink:href="group__app__io__internal.html#gac72796b7754e146e86da15fa5f8d5992" target="_top" xlink:title="The main message processing loop with additional fds for internal select.">
<polygon fill="white" stroke="#666666" points="998,-135.5 875,-135.5 875,-105.5 998,-105.5 998,-135.5"/>
<text text-anchor="start" x="883" y="-123.5" font-family="Helvetica,sans-Serif" font-size="10.00">coap_io_process_with</text>
<text text-anchor="middle" x="936.5" y="-112.5" font-family="Helvetica,sans-Serif" font-size="10.00">_fds_lkd</text>
</a>
</g>
</g>
<!-- Node3&#45;&gt;Node7 -->
<g id="edge25_Node000003_Node000007" class="edge">
<title>Node3&#45;&gt;Node7</title>
<g id="a_edge25_Node000003_Node000007"><a xlink:title=" ">
<path fill="none" stroke="#63b8ff" d="M1367.58,-40.83C1284.36,-35.73 1146.88,-34.25 1034,-66.5 1005.57,-74.62 976.43,-92.51 957.71,-105.48"/>
<polygon fill="#63b8ff" stroke="#63b8ff" points="1367.49,-44.33 1377.7,-41.48 1367.95,-37.34 1367.49,-44.33"/>
</a>
</g>
</g>
<!-- Node24 -->
<g id="Node000024" class="node">
<title>Node24</title>
<g id="a_Node000024"><a xlink:href="group__app__io.html#ga6213c0f2f9c7365c439589374ec3c91b" target="_top" xlink:title="Iterates through all the coap_socket_t structures embedded in endpoints or sessions associated with t...">
<polygon fill="white" stroke="#666666" points="1324.5,-19 1213.5,-19 1213.5,0 1324.5,0 1324.5,-19"/>
<text text-anchor="middle" x="1269" y="-7" font-family="Helvetica,sans-Serif" font-size="10.00">coap_io_prepare_io</text>
</a>
</g>
</g>
<!-- Node3&#45;&gt;Node24 -->
<g id="edge24_Node000003_Node000024" class="edge">
<title>Node3&#45;&gt;Node24</title>
<g id="a_edge24_Node000003_Node000024"><a xlink:title=" ">
<path fill="none" stroke="#63b8ff" d="M1389.15,-35.75C1364.76,-30.37 1336.24,-24.09 1313.22,-19.02"/>
<polygon fill="#63b8ff" stroke="#63b8ff" points="1388.45,-39.18 1398.97,-37.91 1389.96,-32.34 1388.45,-39.18"/>
</a>
</g>
</g>
<!-- Node5 -->
<g id="Node000005" class="node">
<title>Node5</title>
<g id="a_Node000005"><a xlink:href="group__app__io__internal.html#ga16a04e534316586853e010ddeec64bd7" target="_top" xlink:title="Process all the epoll events.">
<polygon fill="white" stroke="#666666" points="1157.5,-171 1036.5,-171 1036.5,-152 1157.5,-152 1157.5,-171"/>
<text text-anchor="middle" x="1097" y="-159" font-family="Helvetica,sans-Serif" font-size="10.00">coap_io_do_epoll_lkd</text>
</a>
</g>
</g>
<!-- Node4&#45;&gt;Node5 -->
<g id="edge4_Node000004_Node000005" class="edge">
<title>Node4&#45;&gt;Node5</title>
<g id="a_edge4_Node000004_Node000005"><a xlink:title=" ">
<path fill="none" stroke="#63b8ff" d="M1229.85,-117.29C1198.54,-127.79 1154.9,-142.42 1126.55,-151.93"/>
<polygon fill="#63b8ff" stroke="#63b8ff" points="1231.18,-120.54 1239.55,-114.04 1228.95,-113.9 1231.18,-120.54"/>
</a>
</g>
</g>
<!-- Node4&#45;&gt;Node7 -->
<g id="edge23_Node000004_Node000007" class="edge">
<title>Node4&#45;&gt;Node7</title>
<g id="a_edge23_Node000004_Node000007"><a xlink:title=" ">
<path fill="none" stroke="#63b8ff" d="M1185.61,-108.49C1127.42,-111.31 1050.74,-115.02 998.12,-117.57"/>
<polygon fill="#63b8ff" stroke="#63b8ff" points="1186.06,-111.97 1195.88,-107.99 1185.72,-104.98 1186.06,-111.97"/>
</a>
</g>
</g>
<!-- Node23 -->
<g id="Node000023" class="node">
<title>Node23</title>
<g id="a_Node000023"><a xlink:href="group__app__io.html#ga95cf986f7935247aca8bd20c8d7adb12" target="_top" xlink:title="Any now timed out delayed packet is transmitted, along with any packets associated with requested obs...">
<polygon fill="white" stroke="#666666" points="1160,-95 1034,-95 1034,-76 1160,-76 1160,-95"/>
<text text-anchor="middle" x="1097" y="-83" font-family="Helvetica,sans-Serif" font-size="10.00">coap_io_prepare_epoll</text>
</a>
</g>
</g>
<!-- Node4&#45;&gt;Node23 -->
<g id="edge22_Node000004_Node000023" class="edge">
<title>Node4&#45;&gt;Node23</title>
<g id="a_edge22_Node000004_Node000023"><a xlink:title=" ">
<path fill="none" stroke="#63b8ff" d="M1185.84,-95.32C1177.24,-94.36 1168.59,-93.39 1160.26,-92.46"/>
<polygon fill="#63b8ff" stroke="#63b8ff" points="1185.58,-98.81 1195.9,-96.44 1186.36,-91.85 1185.58,-98.81"/>
</a>
</g>
</g>
<!-- Node6 -->
<g id="Node000006" class="node">
<title>Node6</title>
<g id="a_Node000006"><a xlink:href="group__app__io.html#gae75a791665f7ae378bb27fcd2617c402" target="_top" xlink:title="Process all the epoll events.">
<polygon fill="white" stroke="#666666" points="987,-173 886,-173 886,-154 987,-154 987,-173"/>
<text text-anchor="middle" x="936.5" y="-161" font-family="Helvetica,sans-Serif" font-size="10.00">coap_io_do_epoll</text>
</a>
</g>
</g>
<!-- Node5&#45;&gt;Node6 -->
<g id="edge5_Node000005_Node000006" class="edge">
<title>Node5&#45;&gt;Node6</title>
<g id="a_edge5_Node000005_Node000006"><a xlink:title=" ">
<path fill="none" stroke="#63b8ff" d="M1025.75,-162.39C1012.74,-162.55 999.41,-162.72 987.17,-162.87"/>
<polygon fill="#63b8ff" stroke="#63b8ff" points="1026.12,-165.88 1036.08,-162.26 1026.03,-158.88 1026.12,-165.88"/>
</a>
</g>
</g>
<!-- Node5&#45;&gt;Node7 -->
<g id="edge6_Node000005_Node000007" class="edge">
<title>Node5&#45;&gt;Node7</title>
<g id="a_edge6_Node000005_Node000007"><a xlink:title=" ">
<path fill="none" stroke="#63b8ff" d="M1049.16,-149.38C1032.42,-145.05 1013.37,-140.12 995.79,-135.58"/>
<polygon fill="#63b8ff" stroke="#63b8ff" points="1048.68,-152.87 1059.24,-151.99 1050.43,-146.1 1048.68,-152.87"/>
</a>
</g>
</g>
<!-- Node8 -->
<g id="Node000008" class="node">
<title>Node8</title>
<g id="a_Node000008"><a xlink:href="group__app__io__internal.html#gaacf6492e591390793c32fa2974a620b2" target="_top" xlink:title="The main I/O processing function.">
<polygon fill="white" stroke="#666666" points="826,-149 709,-149 709,-130 826,-130 826,-149"/>
<text text-anchor="middle" x="767.5" y="-137" font-family="Helvetica,sans-Serif" font-size="10.00">coap_io_process_lkd</text>
</a>
</g>
</g>
<!-- Node7&#45;&gt;Node8 -->
<g id="edge7_Node000007_Node000008" class="edge">
<title>Node7&#45;&gt;Node8</title>
<g id="a_edge7_Node000007_Node000008"><a xlink:title=" ">
<path fill="none" stroke="#63b8ff" d="M864.57,-128.57C851.75,-130.03 838.54,-131.53 826.16,-132.94"/>
<polygon fill="#63b8ff" stroke="#63b8ff" points="865.2,-132.02 874.74,-127.41 864.41,-125.07 865.2,-132.02"/>
</a>
</g>
</g>
<!-- Node22 -->
<g id="Node000022" class="node">
<title>Node22</title>
<g id="a_Node000022"><a xlink:href="group__app__io.html#gaa68c0208f033c5e0c4201a2d2d5e515f" target="_top" xlink:title="The main message processing loop with additional fds for internal select.">
<polygon fill="white" stroke="#666666" points="839,-112 696,-112 696,-93 839,-93 839,-112"/>
<text text-anchor="middle" x="767.5" y="-100" font-family="Helvetica,sans-Serif" font-size="10.00">coap_io_process_with_fds</text>
</a>
</g>
</g>
<!-- Node7&#45;&gt;Node22 -->
<g id="edge21_Node000007_Node000022" class="edge">
<title>Node7&#45;&gt;Node22</title>
<g id="a_edge21_Node000007_Node000022"><a xlink:title=" ">
<path fill="none" stroke="#63b8ff" d="M864.57,-112.86C856.15,-111.95 847.56,-111.02 839.14,-110.11"/>
<polygon fill="#63b8ff" stroke="#63b8ff" points="864.42,-116.36 874.74,-113.95 865.17,-109.4 864.42,-116.36"/>
</a>
</g>
</g>
<!-- Node9 -->
<g id="Node000009" class="node">
<title>Node9</title>
<g id="a_Node000009"><a xlink:href="group__context__internal.html#ga5d013d40174c7c217b24bf624f9d7310" target="_top" xlink:title="Delay the sending of the first client request until some other negotiation has completed.">
<polygon fill="white" stroke="#666666" points="660,-189 532,-189 532,-170 660,-170 660,-189"/>
<text text-anchor="middle" x="596" y="-177" font-family="Helvetica,sans-Serif" font-size="10.00">coap_client_delay_first</text>
</a>
</g>
</g>
<!-- Node8&#45;&gt;Node9 -->
<g id="edge8_Node000008_Node000009" class="edge">
<title>Node8&#45;&gt;Node9</title>
<g id="a_edge8_Node000008_Node000009"><a xlink:title=" ">
<path fill="none" stroke="#63b8ff" d="M716.16,-151.38C690.97,-157.32 660.9,-164.42 637.27,-170"/>
<polygon fill="#63b8ff" stroke="#63b8ff" points="716.97,-154.78 725.9,-149.08 715.36,-147.97 716.97,-154.78"/>
</a>
</g>
</g>
<!-- Node19 -->
<g id="Node000019" class="node">
<title>Node19</title>
<g id="a_Node000019"><a xlink:href="group__app__io__internal.html#ga3db928bd0e68b72fb53001495a2e3bac" target="_top" xlink:title="Check to see if there is any i/o pending for the context.">
<polygon fill="white" stroke="#666666" points="655.5,-149 536.5,-149 536.5,-130 655.5,-130 655.5,-149"/>
<text text-anchor="middle" x="596" y="-137" font-family="Helvetica,sans-Serif" font-size="10.00">coap_io_pending_lkd</text>
</a>
</g>
</g>
<!-- Node8&#45;&gt;Node19 -->
<g id="edge18_Node000008_Node000019" class="edge">
<title>Node8&#45;&gt;Node19</title>
<g id="a_edge18_Node000008_Node000019"><a xlink:title=" ">
<path fill="none" stroke="#63b8ff" d="M698.48,-139.5C684.33,-139.5 669.53,-139.5 655.75,-139.5"/>
<polygon fill="#63b8ff" stroke="#63b8ff" points="698.64,-143 708.64,-139.5 698.64,-136 698.64,-143"/>
</a>
</g>
</g>
<!-- Node21 -->
<g id="Node000021" class="node">
<title>Node21</title>
<g id="a_Node000021"><a xlink:href="group__app__io.html#ga0acc0068f8442ab2fb70bc30242fc5ef" target="_top" xlink:title="The main I/O processing function.">
<polygon fill="white" stroke="#666666" points="644.5,-112 547.5,-112 547.5,-93 644.5,-93 644.5,-112"/>
<text text-anchor="middle" x="596" y="-100" font-family="Helvetica,sans-Serif" font-size="10.00">coap_io_process</text>
</a>
</g>
</g>
<!-- Node8&#45;&gt;Node21 -->
<g id="edge20_Node000008_Node000021" class="edge">
<title>Node8&#45;&gt;Node21</title>
<g id="a_edge20_Node000008_Node000021"><a xlink:title=" ">
<path fill="none" stroke="#63b8ff" d="M712.81,-127.78C689.6,-122.71 662.78,-116.86 640.8,-112.06"/>
<polygon fill="#63b8ff" stroke="#63b8ff" points="712.33,-131.26 722.85,-129.97 713.83,-124.42 712.33,-131.26"/>
</a>
</g>
</g>
<!-- Node10 -->
<g id="Node000010" class="node">
<title>Node10</title>
<g id="a_Node000010"><a xlink:href="group__app__io__internal.html#gae138b6aba5c244fb8e582e63615f5112" target="_top" xlink:title="Sends a CoAP message to given peer.">
<polygon fill="white" stroke="#666666" points="474.5,-247 385.5,-247 385.5,-228 474.5,-228 474.5,-247"/>
<text text-anchor="middle" x="430" y="-235" font-family="Helvetica,sans-Serif" font-size="10.00">coap_send_lkd</text>
</a>
</g>
</g>
<!-- Node9&#45;&gt;Node10 -->
<g id="edge9_Node000009_Node000010" class="edge">
<title>Node9&#45;&gt;Node10</title>
<g id="a_edge9_Node000009_Node000010"><a xlink:title=" ">
<path fill="none" stroke="#63b8ff" d="M558.12,-192.54C527.77,-203.28 485.44,-218.25 458.12,-227.91"/>
<polygon fill="#63b8ff" stroke="#63b8ff" points="559.66,-195.71 567.92,-189.08 557.32,-189.11 559.66,-195.71"/>
</a>
</g>
</g>
<!-- Node12 -->
<g id="Node000012" class="node">
<title>Node12</title>
<g id="a_Node000012"><a xlink:href="group__session__internal.html#gab00aa6136bf734263db0dec5360a9798" target="_top" xlink:title="Get maximum acceptable PDU size.">
<polygon fill="white" stroke="#666666" points="496,-194.5 364,-194.5 364,-164.5 496,-164.5 496,-194.5"/>
<text text-anchor="start" x="372" y="-182.5" font-family="Helvetica,sans-Serif" font-size="10.00">coap_session_max_pdu</text>
<text text-anchor="middle" x="430" y="-171.5" font-family="Helvetica,sans-Serif" font-size="10.00">_size_lkd</text>
</a>
</g>
</g>
<!-- Node9&#45;&gt;Node12 -->
<g id="edge11_Node000009_Node000012" class="edge">
<title>Node9&#45;&gt;Node12</title>
<g id="a_edge11_Node000009_Node000012"><a xlink:title=" ">
<path fill="none" stroke="#63b8ff" d="M521.4,-179.5C512.98,-179.5 504.44,-179.5 496.13,-179.5"/>
<polygon fill="#63b8ff" stroke="#63b8ff" points="521.59,-183 531.59,-179.5 521.59,-176 521.59,-183"/>
</a>
</g>
</g>
<!-- Node11 -->
<g id="Node000011" class="node">
<title>Node11</title>
<g id="a_Node000011"><a xlink:href="group__context.html#ga1c3d60f40aa03a974b4472951abae1f0" target="_top" xlink:title="Sends a CoAP message to given peer.">
<polygon fill="white" stroke="#666666" points="283.5,-255 215.5,-255 215.5,-236 283.5,-236 283.5,-255"/>
<text text-anchor="middle" x="249.5" y="-243" font-family="Helvetica,sans-Serif" font-size="10.00">coap_send</text>
</a>
</g>
</g>
<!-- Node10&#45;&gt;Node11 -->
<g id="edge10_Node000010_Node000011" class="edge">
<title>Node10&#45;&gt;Node11</title>
<g id="a_edge10_Node000010_Node000011"><a xlink:title=" ">
<path fill="none" stroke="#63b8ff" d="M375.09,-239.92C345.32,-241.25 309.28,-242.87 283.64,-244.01"/>
<polygon fill="#63b8ff" stroke="#63b8ff" points="375.5,-243.4 385.33,-239.46 375.19,-236.41 375.5,-243.4"/>
</a>
</g>
</g>
<!-- Node13 -->
<g id="Node000013" class="node">
<title>Node13</title>
<g id="a_Node000013"><a xlink:href="group__pdu__internal.html#ga5b11b2f0af35b0ef48a06a781893dc8d" target="_top" xlink:title="Creates a new CoAP PDU.">
<polygon fill="white" stroke="#666666" points="304,-218 195,-218 195,-199 304,-199 304,-218"/>
<text text-anchor="middle" x="249.5" y="-206" font-family="Helvetica,sans-Serif" font-size="10.00">coap_new_pdu_lkd</text>
</a>
</g>
</g>
<!-- Node12&#45;&gt;Node13 -->
<g id="edge12_Node000012_Node000013" class="edge">
<title>Node12&#45;&gt;Node13</title>
<g id="a_edge12_Node000012_Node000013"><a xlink:title=" ">
<path fill="none" stroke="#63b8ff" d="M353.56,-191.76C336.93,-194.46 319.66,-197.26 304.11,-199.79"/>
<polygon fill="#63b8ff" stroke="#63b8ff" points="354.49,-195.15 363.8,-190.09 353.37,-188.24 354.49,-195.15"/>
</a>
</g>
</g>
<!-- Node15 -->
<g id="Node000015" class="node">
<title>Node15</title>
<g id="a_Node000015"><a xlink:href="group__pdu__internal.html#gabfad643886d38578860d06a9ade5caf8" target="_top" xlink:title="Duplicate an existing PDU.">
<polygon fill="white" stroke="#666666" points="316.5,-181 182.5,-181 182.5,-162 316.5,-162 316.5,-181"/>
<text text-anchor="middle" x="249.5" y="-169" font-family="Helvetica,sans-Serif" font-size="10.00">coap_pdu_duplicate_lkd</text>
</a>
</g>
</g>
<!-- Node12&#45;&gt;Node15 -->
<g id="edge14_Node000012_Node000015" class="edge">
<title>Node12&#45;&gt;Node15</title>
<g id="a_edge14_Node000012_Node000015"><a xlink:title=" ">
<path fill="none" stroke="#63b8ff" d="M353.61,-176.12C341.35,-175.57 328.74,-175.01 316.72,-174.47"/>
<polygon fill="#63b8ff" stroke="#63b8ff" points="353.65,-179.63 363.8,-176.58 353.97,-172.63 353.65,-179.63"/>
</a>
</g>
</g>
<!-- Node18 -->
<g id="Node000018" class="node">
<title>Node18</title>
<g id="a_Node000018"><a xlink:href="group__session.html#gae5a6b848046e0f3ae3b1d0b055bce60f" target="_top" xlink:title="Get maximum acceptable PDU size.">
<polygon fill="white" stroke="#666666" points="328,-144 171,-144 171,-125 328,-125 328,-144"/>
<text text-anchor="middle" x="249.5" y="-132" font-family="Helvetica,sans-Serif" font-size="10.00">coap_session_max_pdu_size</text>
</a>
</g>
</g>
<!-- Node12&#45;&gt;Node18 -->
<g id="edge17_Node000012_Node000018" class="edge">
<title>Node12&#45;&gt;Node18</title>
<g id="a_edge17_Node000012_Node000018"><a xlink:title=" ">
<path fill="none" stroke="#63b8ff" d="M361.38,-161.98C350.24,-159.12 338.8,-156.21 328,-153.5 315.64,-150.39 302.15,-147.07 289.95,-144.08"/>
<polygon fill="#63b8ff" stroke="#63b8ff" points="360.52,-165.37 371.08,-164.47 362.26,-158.59 360.52,-165.37"/>
</a>
</g>
</g>
<!-- Node14 -->
<g id="Node000014" class="node">
<title>Node14</title>
<g id="a_Node000014"><a xlink:href="group__pdu.html#gac2580e04276e6b66390a66f559c3452d" target="_top" xlink:title="Creates a new CoAP PDU.">
<polygon fill="white" stroke="#666666" points="112,-218 23,-218 23,-199 112,-199 112,-218"/>
<text text-anchor="middle" x="67.5" y="-206" font-family="Helvetica,sans-Serif" font-size="10.00">coap_new_pdu</text>
</a>
</g>
</g>
<!-- Node13&#45;&gt;Node14 -->
<g id="edge13_Node000013_Node000014" class="edge">
<title>Node13&#45;&gt;Node14</title>
<g id="a_edge13_Node000013_Node000014"><a xlink:title=" ">
<path fill="none" stroke="#63b8ff" d="M184.86,-208.5C160.79,-208.5 133.96,-208.5 112.14,-208.5"/>
<polygon fill="#63b8ff" stroke="#63b8ff" points="184.98,-212 194.98,-208.5 184.98,-205 184.98,-212"/>
</a>
</g>
</g>
<!-- Node16 -->
<g id="Node000016" class="node">
<title>Node16</title>
<g id="a_Node000016"><a xlink:href="group__pdu.html#ga4d2b83e4f9e5264ac3c065b0cff03395" target="_top" xlink:title="Duplicate an existing PDU.">
<polygon fill="white" stroke="#666666" points="124,-181 11,-181 11,-162 124,-162 124,-181"/>
<text text-anchor="middle" x="67.5" y="-169" font-family="Helvetica,sans-Serif" font-size="10.00">coap_pdu_duplicate</text>
</a>
</g>
</g>
<!-- Node15&#45;&gt;Node16 -->
<g id="edge15_Node000015_Node000016" class="edge">
<title>Node15&#45;&gt;Node16</title>
<g id="a_edge15_Node000015_Node000016"><a xlink:title=" ">
<path fill="none" stroke="#63b8ff" d="M172.5,-171.5C156.27,-171.5 139.43,-171.5 124.14,-171.5"/>
<polygon fill="#63b8ff" stroke="#63b8ff" points="172.5,-175 182.5,-171.5 172.5,-168 172.5,-175"/>
</a>
</g>
</g>
<!-- Node17 -->
<g id="Node000017" class="node">
<title>Node17</title>
<g id="a_Node000017"><a xlink:href="group__oscore__internal.html#ga8cf885624714b9a4705974adf2629cb2" target="_top" xlink:title=" ">
<polygon fill="white" stroke="#666666" points="135,-144 0,-144 0,-125 135,-125 135,-144"/>
<text text-anchor="middle" x="67.5" y="-132" font-family="Helvetica,sans-Serif" font-size="10.00">oscore_new_association</text>
</a>
</g>
</g>
<!-- Node15&#45;&gt;Node17 -->
<g id="edge16_Node000015_Node000017" class="edge">
<title>Node15&#45;&gt;Node17</title>
<g id="a_edge16_Node000015_Node000017"><a xlink:title=" ">
<path fill="none" stroke="#63b8ff" d="M192.15,-159.92C167.34,-154.82 138.56,-148.9 115.01,-144.06"/>
<polygon fill="#63b8ff" stroke="#63b8ff" points="191.65,-163.39 202.15,-161.97 193.06,-156.53 191.65,-163.39"/>
</a>
</g>
</g>
<!-- Node20 -->
<g id="Node000020" class="node">
<title>Node20</title>
<g id="a_Node000020"><a xlink:href="group__app__io.html#ga2023144481df2258b5947666a02ede6c" target="_top" xlink:title="Check to see if there is any i/o pending for the context.">
<polygon fill="white" stroke="#666666" points="479,-146 381,-146 381,-127 479,-127 479,-146"/>
<text text-anchor="middle" x="430" y="-134" font-family="Helvetica,sans-Serif" font-size="10.00">coap_io_pending</text>
</a>
</g>
</g>
<!-- Node19&#45;&gt;Node20 -->
<g id="edge19_Node000019_Node000020" class="edge">
<title>Node19&#45;&gt;Node20</title>
<g id="a_edge19_Node000019_Node000020"><a xlink:title=" ">
<path fill="none" stroke="#63b8ff" d="M526,-138.24C510.22,-137.95 493.77,-137.65 479.09,-137.38"/>
<polygon fill="#63b8ff" stroke="#63b8ff" points="526.19,-141.74 536.26,-138.43 526.32,-134.74 526.19,-141.74"/>
</a>
</g>
</g>
</g>
</svg>

<g id="navigator" transform="translate(0 0)" fill="#404254">
  <rect fill="#f2f5e9" fill-opacity="0.5" stroke="#606060" stroke-width=".5" x="0" y="0" width="60" height="60"/>
  <use id="zoomplus" xlink:href="#zoomPlus" x="17" y="9" onmousedown="handleZoom(evt,'in')"/>
  <use id="zoomminus" xlink:href="#zoomMin" x="42" y="9" onmousedown="handleZoom(evt,'out')"/>
  <use id="reset" xlink:href="#resetDef" x="30" y="36" onmousedown="handleReset()"/>
   <use id="arrowup" xlink:href="#arrowUp" x="0" y="0" onmousedown="handlePan(0,-1)"/>
  <use id="arrowright" xlink:href="#arrowRight" x="0" y="0" onmousedown="handlePan(1,0)"/>
  <use id="arrowdown" xlink:href="#arrowDown" x="0" y="0" onmousedown="handlePan(0,1)"/>
  <use id="arrowleft" xlink:href="#arrowLeft" x="0" y="0" onmousedown="handlePan(-1,0)"/>
</g>
<svg viewBox="0 0 15 15" width="100%" height="30px" preserveAspectRatio="xMaxYMin meet">
 <g id="arrow_out" transform="scale(0.3 0.3)">
  <a xlink:href="group__subscribe__internal_ga666aa6a484387ee7217058d2969af4c6_icgraph_org.svg" target="_base">
   <rect id="button" ry="5" rx="5" y="6" x="6" height="38" width="38"
        fill="#f2f5e9" fill-opacity="0.5" stroke="#606060" stroke-width="1.0"/>
   <path id="arrow"
     d="M 11.500037,31.436501 C 11.940474,20.09759 22.043105,11.32322 32.158766,21.979434 L 37.068811,17.246167 C 37.068811,17.246167 37.088388,32 37.088388,32 L 22.160133,31.978069 C 22.160133,31.978069 26.997745,27.140456 26.997745,27.140456 C 18.528582,18.264221 13.291696,25.230495 11.500037,31.436501 z"
     style="fill:#404040;"/>
  </a>
 </g>
</svg>

<style type='text/css'>
<![CDATA[
[data-mouse-over-selected='false'] { opacity: 0.7; }
[data-mouse-over-selected='true']  { opacity: 1.0; }
]]>
</style>
<script type="application/ecmascript"><![CDATA[
document.addEventListener('DOMContentLoaded', (event) => {
  highlightEdges();
  highlightAdjacentNodes();
});
]]></script>
</svg>
