<?xml version="1.0" encoding="UTF-8" standalone="no"?>
<!DOCTYPE svg PUBLIC "-//W3C//DTD SVG 1.1//EN"
 "http://www.w3.org/Graphics/SVG/1.1/DTD/svg11.dtd">
<!-- Generated by graphviz version 2.42.4 (0)
 -->
<!-- Title: oscore_cbor_strip_value Pages: 1 -->
<svg width="629pt" height="125pt"
 viewBox="0.00 0.00 629.00 125.00" xmlns="http://www.w3.org/2000/svg" xmlns:xlink="http://www.w3.org/1999/xlink">
<g id="graph0" class="graph" transform="scale(1 1) rotate(0) translate(4 121)">
<title>oscore_cbor_strip_value</title>
<!-- Node1 -->
<g id="Node000001" class="node">
<title>Node1</title>
<g id="a_Node000001"><a xlink:title=" ">
<polygon fill="#999999" stroke="#666666" points="134,-89 0,-89 0,-70 134,-70 134,-89"/>
<text text-anchor="middle" x="67" y="-77" font-family="Helvetica,sans-Serif" font-size="10.00">oscore_cbor_strip_value</text>
</a>
</g>
</g>
<!-- Node2 -->
<g id="Node000002" class="node">
<title>Node2</title>
<g id="a_Node000002"><a xlink:href="coap__mem_8h.html#a9f9fd8d6cf24f9c45a5501aeba5acaf9" target="_top" xlink:title="Allocates a chunk of size bytes and returns a pointer to the newly allocated memory.">
<polygon fill="white" stroke="#666666" points="289,-117 184,-117 184,-98 289,-98 289,-117"/>
<text text-anchor="middle" x="236.5" y="-105" font-family="Helvetica,sans-Serif" font-size="10.00">coap_malloc_type</text>
</a>
</g>
</g>
<!-- Node1&#45;&gt;Node2 -->
<g id="edge1_Node000001_Node000002" class="edge">
<title>Node1&#45;&gt;Node2</title>
<g id="a_edge1_Node000001_Node000002"><a xlink:title=" ">
<path fill="none" stroke="#63b8ff" d="M125.18,-89.06C140.8,-91.67 157.81,-94.51 173.68,-97.17"/>
<polygon fill="#63b8ff" stroke="#63b8ff" points="173.48,-100.68 183.92,-98.88 174.63,-93.78 173.48,-100.68"/>
</a>
</g>
</g>
<!-- Node3 -->
<g id="Node000003" class="node">
<title>Node3</title>
<g id="a_Node000003"><a xlink:href="oscore__cbor_8c.html#ad0f75cc96b866a32fc5dddfffe776310" target="_top" xlink:title=" ">
<polygon fill="white" stroke="#666666" points="303,-62 170,-62 170,-43 303,-43 303,-62"/>
<text text-anchor="middle" x="236.5" y="-50" font-family="Helvetica,sans-Serif" font-size="10.00">oscore_cbor_skip_value</text>
</a>
</g>
</g>
<!-- Node1&#45;&gt;Node3 -->
<g id="edge2_Node000001_Node000003" class="edge">
<title>Node1&#45;&gt;Node3</title>
<g id="a_edge2_Node000001_Node000003"><a xlink:title=" ">
<path fill="none" stroke="#63b8ff" d="M127.05,-69.98C139.81,-67.92 153.41,-65.73 166.51,-63.62"/>
<polygon fill="#63b8ff" stroke="#63b8ff" points="167.1,-67.07 176.41,-62.02 165.98,-60.16 167.1,-67.07"/>
</a>
</g>
</g>
<!-- Node3&#45;&gt;Node3 -->
<g id="edge8_Node000003_Node000003" class="edge">
<title>Node3&#45;&gt;Node3</title>
<g id="a_edge8_Node000003_Node000003"><a xlink:title=" ">
<path fill="none" stroke="#63b8ff" d="M210.61,-62.08C198.01,-70.73 206.64,-80 236.5,-80 256.56,-80 267.04,-75.82 267.94,-70.45"/>
<polygon fill="#63b8ff" stroke="#63b8ff" points="270.84,-68.49 262.39,-62.08 265,-72.35 270.84,-68.49"/>
</a>
</g>
</g>
<!-- Node4 -->
<g id="Node000004" class="node">
<title>Node4</title>
<g id="a_Node000004"><a xlink:href="oscore__cbor_8c.html#a575a02cbfa6b36b6a146f793915847e8" target="_top" xlink:title=" ">
<polygon fill="white" stroke="#666666" points="611,-83 552,-83 552,-64 611,-64 611,-83"/>
<text text-anchor="middle" x="581.5" y="-71" font-family="Helvetica,sans-Serif" font-size="10.00">get_byte</text>
</a>
</g>
</g>
<!-- Node3&#45;&gt;Node4 -->
<g id="edge3_Node000003_Node000004" class="edge">
<title>Node3&#45;&gt;Node4</title>
<g id="a_edge3_Node000003_Node000004"><a xlink:title=" ">
<path fill="none" stroke="#63b8ff" d="M269.61,-62.11C289.41,-67.53 315.44,-73.75 339,-76.5 412.72,-85.1 431.79,-77.99 506,-76.5 517.59,-76.27 530.19,-75.83 541.68,-75.36"/>
<polygon fill="#63b8ff" stroke="#63b8ff" points="542.01,-78.85 551.85,-74.92 541.71,-71.85 542.01,-78.85"/>
</a>
</g>
</g>
<!-- Node5 -->
<g id="Node000005" class="node">
<title>Node5</title>
<g id="a_Node000005"><a xlink:href="group__oscore__cbor__internal.html#ga3629a66f8876ce66b6cd233f92e9e7f6" target="_top" xlink:title=" ">
<polygon fill="white" stroke="#666666" points="506,-19 339,-19 339,0 506,0 506,-19"/>
<text text-anchor="middle" x="422.5" y="-7" font-family="Helvetica,sans-Serif" font-size="10.00">oscore_cbor_get_element_size</text>
</a>
</g>
</g>
<!-- Node3&#45;&gt;Node5 -->
<g id="edge4_Node000003_Node000005" class="edge">
<title>Node3&#45;&gt;Node5</title>
<g id="a_edge4_Node000003_Node000005"><a xlink:title=" ">
<path fill="none" stroke="#63b8ff" d="M277.5,-42.99C296.18,-38.56 318.72,-33.23 339,-28.5 348.98,-26.17 359.65,-23.7 369.89,-21.34"/>
<polygon fill="#63b8ff" stroke="#63b8ff" points="370.98,-24.68 379.94,-19.02 369.41,-17.86 370.98,-24.68"/>
</a>
</g>
</g>
<!-- Node7 -->
<g id="Node000007" class="node">
<title>Node7</title>
<g id="a_Node000007"><a xlink:href="group__oscore__cbor__internal.html#ga91cd1cf8a776f9f27c91932da7786675" target="_top" xlink:title=" ">
<polygon fill="white" stroke="#666666" points="484,-67.5 361,-67.5 361,-37.5 484,-37.5 484,-67.5"/>
<text text-anchor="start" x="369" y="-55.5" font-family="Helvetica,sans-Serif" font-size="10.00">oscore_cbor_get_next</text>
<text text-anchor="middle" x="422.5" y="-44.5" font-family="Helvetica,sans-Serif" font-size="10.00">_element</text>
</a>
</g>
</g>
<!-- Node3&#45;&gt;Node7 -->
<g id="edge6_Node000003_Node000007" class="edge">
<title>Node3&#45;&gt;Node7</title>
<g id="a_edge6_Node000003_Node000007"><a xlink:title=" ">
<path fill="none" stroke="#63b8ff" d="M303.15,-52.5C318.56,-52.5 335.04,-52.5 350.67,-52.5"/>
<polygon fill="#63b8ff" stroke="#63b8ff" points="350.79,-56 360.79,-52.5 350.79,-49 350.79,-56"/>
</a>
</g>
</g>
<!-- Node6 -->
<g id="Node000006" class="node">
<title>Node6</title>
<g id="a_Node000006"><a xlink:href="oscore__cbor_8c.html#a902c77b8cd89c65064985c8f5bb16da9" target="_top" xlink:title=" ">
<polygon fill="white" stroke="#666666" points="621,-19 542,-19 542,0 621,0 621,-19"/>
<text text-anchor="middle" x="581.5" y="-7" font-family="Helvetica,sans-Serif" font-size="10.00">get_byte_inc</text>
</a>
</g>
</g>
<!-- Node5&#45;&gt;Node6 -->
<g id="edge5_Node000005_Node000006" class="edge">
<title>Node5&#45;&gt;Node6</title>
<g id="a_edge5_Node000005_Node000006"><a xlink:title=" ">
<path fill="none" stroke="#63b8ff" d="M506.14,-9.5C514.86,-9.5 523.52,-9.5 531.68,-9.5"/>
<polygon fill="#63b8ff" stroke="#63b8ff" points="531.71,-13 541.71,-9.5 531.71,-6 531.71,-13"/>
</a>
</g>
</g>
<!-- Node7&#45;&gt;Node4 -->
<g id="edge7_Node000007_Node000004" class="edge">
<title>Node7&#45;&gt;Node4</title>
<g id="a_edge7_Node000007_Node000004"><a xlink:title=" ">
<path fill="none" stroke="#63b8ff" d="M484.2,-60.62C503.49,-63.2 524.3,-65.98 541.62,-68.3"/>
<polygon fill="#63b8ff" stroke="#63b8ff" points="541.53,-71.82 551.91,-69.68 542.46,-64.88 541.53,-71.82"/>
</a>
</g>
</g>
</g>
</svg>
