<?xml version="1.0" encoding="UTF-8" standalone="no"?>
<!DOCTYPE svg PUBLIC "-//W3C//DTD SVG 1.1//EN"
 "http://www.w3.org/Graphics/SVG/1.1/DTD/svg11.dtd">
<!-- Generated by graphviz version 2.42.4 (0)
 -->
<!-- Title: get_asn1_tag Pages: 1 -->
<svg width="502pt" height="101pt"
 viewBox="0.00 0.00 502.00 101.00" xmlns="http://www.w3.org/2000/svg" xmlns:xlink="http://www.w3.org/1999/xlink">
<g id="graph0" class="graph" transform="scale(1 1) rotate(0) translate(4 97)">
<title>get_asn1_tag</title>
<!-- Node1 -->
<g id="Node000001" class="node">
<title>Node1</title>
<g id="a_Node000001"><a xlink:title="Get the asn1 tag and data from the current ptr.">
<polygon fill="#999999" stroke="#666666" points="82,-56 0,-56 0,-37 82,-37 82,-56"/>
<text text-anchor="middle" x="41" y="-44" font-family="Helvetica,sans-Serif" font-size="10.00">get_asn1_tag</text>
</a>
</g>
</g>
<!-- Node1&#45;&gt;Node1 -->
<g id="edge6_Node000001_Node000001" class="edge">
<title>Node1&#45;&gt;Node1</title>
<g id="a_edge6_Node000001_Node000001"><a xlink:title=" ">
<path fill="none" stroke="#63b8ff" d="M21.58,-56.08C12.13,-64.73 18.61,-74 41,-74 55,-74 62.77,-70.38 64.33,-65.55"/>
<polygon fill="#63b8ff" stroke="#63b8ff" points="67.47,-63.99 60.42,-56.08 61,-66.66 67.47,-63.99"/>
</a>
</g>
</g>
<!-- Node2 -->
<g id="Node000002" class="node">
<title>Node2</title>
<g id="a_Node000002"><a xlink:href="group__asn1.html#gab0b2cdf4081790ee762743d5557c2706" target="_top" xlink:title="Get the asn1 length from the current ptr.">
<polygon fill="white" stroke="#666666" points="198.5,-93 138.5,-93 138.5,-74 198.5,-74 198.5,-93"/>
<text text-anchor="middle" x="168.5" y="-81" font-family="Helvetica,sans-Serif" font-size="10.00">asn1_len</text>
</a>
</g>
</g>
<!-- Node1&#45;&gt;Node2 -->
<g id="edge1_Node000001_Node000002" class="edge">
<title>Node1&#45;&gt;Node2</title>
<g id="a_edge1_Node000001_Node000002"><a xlink:title=" ">
<path fill="none" stroke="#63b8ff" d="M74.32,-56.03C90.83,-60.9 111.06,-66.86 128.44,-71.98"/>
<polygon fill="#63b8ff" stroke="#63b8ff" points="127.71,-75.42 138.29,-74.89 129.69,-68.7 127.71,-75.42"/>
</a>
</g>
</g>
<!-- Node3 -->
<g id="Node000003" class="node">
<title>Node3</title>
<g id="a_Node000003"><a xlink:href="group__asn1.html#ga3ae904a62e7e1d1326b61a04d1de1333" target="_top" xlink:title="Get the asn1 tag from the current ptr.">
<polygon fill="white" stroke="#666666" points="204,-56 133,-56 133,-37 204,-37 204,-56"/>
<text text-anchor="middle" x="168.5" y="-44" font-family="Helvetica,sans-Serif" font-size="10.00">asn1_tag_c</text>
</a>
</g>
</g>
<!-- Node1&#45;&gt;Node3 -->
<g id="edge2_Node000001_Node000003" class="edge">
<title>Node1&#45;&gt;Node3</title>
<g id="a_edge2_Node000001_Node000003"><a xlink:title=" ">
<path fill="none" stroke="#63b8ff" d="M82.05,-46.5C94.96,-46.5 109.35,-46.5 122.58,-46.5"/>
<polygon fill="#63b8ff" stroke="#63b8ff" points="122.89,-50 132.89,-46.5 122.89,-43 122.89,-50"/>
</a>
</g>
</g>
<!-- Node4 -->
<g id="Node000004" class="node">
<title>Node4</title>
<g id="a_Node000004"><a xlink:href="group__string.html#ga4ddcb94c1d26bd87a5ed1af801f35793" target="_top" xlink:title="Returns a new binary object with at least size bytes storage allocated.">
<polygon fill="white" stroke="#666666" points="219,-19 118,-19 118,0 219,0 219,-19"/>
<text text-anchor="middle" x="168.5" y="-7" font-family="Helvetica,sans-Serif" font-size="10.00">coap_new_binary</text>
</a>
</g>
</g>
<!-- Node1&#45;&gt;Node4 -->
<g id="edge3_Node000001_Node000004" class="edge">
<title>Node1&#45;&gt;Node4</title>
<g id="a_edge3_Node000001_Node000004"><a xlink:title=" ">
<path fill="none" stroke="#63b8ff" d="M74.32,-36.97C89.72,-32.43 108.34,-26.94 124.87,-22.07"/>
<polygon fill="#63b8ff" stroke="#63b8ff" points="126.25,-25.31 134.85,-19.12 124.27,-18.6 126.25,-25.31"/>
</a>
</g>
</g>
<!-- Node5 -->
<g id="Node000005" class="node">
<title>Node5</title>
<g id="a_Node000005"><a xlink:href="group__string.html#ga9862b1ade5e6e2eb01aabd0fa98b63e1" target="_top" xlink:title="Returns a new string object with at least size+1 bytes storage allocated.">
<polygon fill="white" stroke="#666666" points="353,-19 255,-19 255,0 353,0 353,-19"/>
<text text-anchor="middle" x="304" y="-7" font-family="Helvetica,sans-Serif" font-size="10.00">coap_new_string</text>
</a>
</g>
</g>
<!-- Node4&#45;&gt;Node5 -->
<g id="edge4_Node000004_Node000005" class="edge">
<title>Node4&#45;&gt;Node5</title>
<g id="a_edge4_Node000004_Node000005"><a xlink:title=" ">
<path fill="none" stroke="#63b8ff" d="M219.21,-9.5C227.43,-9.5 236.02,-9.5 244.44,-9.5"/>
<polygon fill="#63b8ff" stroke="#63b8ff" points="244.58,-13 254.58,-9.5 244.58,-6 244.58,-13"/>
</a>
</g>
</g>
<!-- Node6 -->
<g id="Node000006" class="node">
<title>Node6</title>
<g id="a_Node000006"><a xlink:href="coap__mem_8h.html#a9f9fd8d6cf24f9c45a5501aeba5acaf9" target="_top" xlink:title="Allocates a chunk of size bytes and returns a pointer to the newly allocated memory.">
<polygon fill="white" stroke="#666666" points="494,-19 389,-19 389,0 494,0 494,-19"/>
<text text-anchor="middle" x="441.5" y="-7" font-family="Helvetica,sans-Serif" font-size="10.00">coap_malloc_type</text>
</a>
</g>
</g>
<!-- Node5&#45;&gt;Node6 -->
<g id="edge5_Node000005_Node000006" class="edge">
<title>Node5&#45;&gt;Node6</title>
<g id="a_edge5_Node000005_Node000006"><a xlink:title=" ">
<path fill="none" stroke="#63b8ff" d="M353.15,-9.5C361.46,-9.5 370.2,-9.5 378.81,-9.5"/>
<polygon fill="#63b8ff" stroke="#63b8ff" points="378.83,-13 388.83,-9.5 378.83,-6 378.83,-13"/>
</a>
</g>
</g>
</g>
</svg>
