<?xml version="1.0" encoding="UTF-8" standalone="no"?>
<!DOCTYPE svg PUBLIC "-//W3C//DTD SVG 1.1//EN"
 "http://www.w3.org/Graphics/SVG/1.1/DTD/svg11.dtd">
<!-- Generated by graphviz version 2.42.4 (0)
 -->
<!-- Title: coap_send_internal Pages: 1 -->
<svg width="2505pt" height="420pt"
 viewBox="0.00 0.00 2505.00 420.00" xmlns="http://www.w3.org/2000/svg" xmlns:xlink="http://www.w3.org/1999/xlink">
<g id="graph0" class="graph" transform="scale(1 1) rotate(0) translate(4 416)">
<title>coap_send_internal</title>
<!-- Node1 -->
<g id="Node000001" class="node">
<title>Node1</title>
<g id="a_Node000001"><a xlink:title="Sends a CoAP message to given peer.">
<polygon fill="#999999" stroke="#666666" points="2497,-151 2386,-151 2386,-132 2497,-132 2497,-151"/>
<text text-anchor="middle" x="2441.5" y="-139" font-family="Helvetica,sans-Serif" font-size="10.00">coap_send_internal</text>
</a>
</g>
</g>
<!-- Node2 -->
<g id="Node000002" class="node">
<title>Node2</title>
<g id="a_Node000002"><a xlink:href="coap__net_8c.html#ad02a6d6c0f94ef455980d531575d1d0c" target="_top" xlink:title=" ">
<polygon fill="white" stroke="#666666" points="1968,-412 1866,-412 1866,-393 1968,-393 1968,-412"/>
<text text-anchor="middle" x="1917" y="-400" font-family="Helvetica,sans-Serif" font-size="10.00">check_token_size</text>
</a>
</g>
</g>
<!-- Node1&#45;&gt;Node2 -->
<g id="edge1_Node000001_Node000002" class="edge">
<title>Node1&#45;&gt;Node2</title>
<g id="a_edge1_Node000001_Node000002"><a xlink:title=" ">
<path fill="none" stroke="#63b8ff" d="M2432.39,-160.34C2419.16,-188.95 2390.33,-243.29 2350,-274.5 2233.55,-364.63 2054.76,-391.42 1968.29,-399.29"/>
<polygon fill="#63b8ff" stroke="#63b8ff" points="2435.65,-161.62 2436.55,-151.06 2429.26,-158.76 2435.65,-161.62"/>
</a>
</g>
</g>
<!-- Node3 -->
<g id="Node000003" class="node">
<title>Node3</title>
<g id="a_Node000003"><a xlink:href="group__context__internal.html#ga7bb944fc52f772655356d95724317401" target="_top" xlink:title="Dispatches the PDUs from the receive queue in given context.">
<polygon fill="white" stroke="#666666" points="1830,-286 1744,-286 1744,-267 1830,-267 1830,-286"/>
<text text-anchor="middle" x="1787" y="-274" font-family="Helvetica,sans-Serif" font-size="10.00">coap_dispatch</text>
</a>
</g>
</g>
<!-- Node1&#45;&gt;Node3 -->
<g id="edge28_Node000001_Node000003" class="edge">
<title>Node1&#45;&gt;Node3</title>
<g id="a_edge28_Node000001_Node000003"><a xlink:title=" ">
<path fill="none" stroke="#63b8ff" d="M2389.52,-153.27C2376.65,-156.11 2362.84,-159.03 2350,-161.5 2196.97,-190.99 2156.33,-185.58 2004,-218.5 1937.77,-232.81 1861.47,-254.56 1819.6,-266.96"/>
<polygon fill="#63b8ff" stroke="#63b8ff" points="2390.6,-156.62 2399.6,-151.03 2389.08,-149.79 2390.6,-156.62"/>
</a>
</g>
</g>
<!-- Node12 -->
<g id="Node000012" class="node">
<title>Node12</title>
<g id="a_Node000012"><a xlink:href="group__app__io__internal.html#gae138b6aba5c244fb8e582e63615f5112" target="_top" xlink:title="Sends a CoAP message to given peer.">
<polygon fill="white" stroke="#666666" points="474.5,-109 385.5,-109 385.5,-90 474.5,-90 474.5,-109"/>
<text text-anchor="middle" x="430" y="-97" font-family="Helvetica,sans-Serif" font-size="10.00">coap_send_lkd</text>
</a>
</g>
</g>
<!-- Node1&#45;&gt;Node12 -->
<g id="edge33_Node000001_Node000012" class="edge">
<title>Node1&#45;&gt;Node12</title>
<g id="a_edge33_Node000001_Node000012"><a xlink:title=" ">
<path fill="none" stroke="#63b8ff" d="M2394.16,-129.48C2325.51,-112.76 2192.49,-84.5 2077.5,-84.5 2077.5,-84.5 2077.5,-84.5 766.5,-84.5 661.7,-84.5 538.66,-91.9 474.67,-96.3"/>
<polygon fill="#63b8ff" stroke="#63b8ff" points="2393.67,-132.96 2404.21,-131.96 2395.34,-126.17 2393.67,-132.96"/>
</a>
</g>
</g>
<!-- Node27 -->
<g id="Node000027" class="node">
<title>Node27</title>
<g id="a_Node000027"><a xlink:href="group__app__io__internal.html#gaedffdc1b9bbfb21551df55b94f85abc2" target="_top" xlink:title="Sends an ACK message with code 0 for the specified request to dst.">
<polygon fill="white" stroke="#666666" points="2323,-56 2212,-56 2212,-37 2323,-37 2323,-56"/>
<text text-anchor="middle" x="2267.5" y="-44" font-family="Helvetica,sans-Serif" font-size="10.00">coap_send_ack_lkd</text>
</a>
</g>
</g>
<!-- Node1&#45;&gt;Node27 -->
<g id="edge29_Node000001_Node000027" class="edge">
<title>Node1&#45;&gt;Node27</title>
<g id="a_edge29_Node000001_Node000027"><a xlink:title=" ">
<path fill="none" stroke="#63b8ff" d="M2423.24,-124.64C2405.99,-108.65 2378.07,-84.96 2350,-70.5 2338.2,-64.42 2324.62,-59.65 2311.98,-56.02"/>
<polygon fill="#63b8ff" stroke="#63b8ff" points="2421.13,-127.47 2430.8,-131.8 2425.95,-122.39 2421.13,-127.47"/>
</a>
</g>
</g>
<!-- Node29 -->
<g id="Node000029" class="node">
<title>Node29</title>
<g id="a_Node000029"><a xlink:href="group__app__io__internal.html#ga5e79981fe16b1e1797a7a8828f7e4c67" target="_top" xlink:title="Sends an error response with code code for request request to dst.">
<polygon fill="white" stroke="#666666" points="2326,-19 2209,-19 2209,0 2326,0 2326,-19"/>
<text text-anchor="middle" x="2267.5" y="-7" font-family="Helvetica,sans-Serif" font-size="10.00">coap_send_error_lkd</text>
</a>
</g>
</g>
<!-- Node1&#45;&gt;Node29 -->
<g id="edge31_Node000001_Node000029" class="edge">
<title>Node1&#45;&gt;Node29</title>
<g id="a_edge31_Node000001_Node000029"><a xlink:title=" ">
<path fill="none" stroke="#63b8ff" d="M2430.91,-122.6C2416.82,-96.86 2388.02,-51.26 2350,-27.5 2342.75,-22.97 2334.51,-19.57 2326.13,-17.02"/>
<polygon fill="#63b8ff" stroke="#63b8ff" points="2427.95,-124.5 2435.73,-131.7 2434.14,-121.23 2427.95,-124.5"/>
</a>
</g>
</g>
<!-- Node31 -->
<g id="Node000031" class="node">
<title>Node31</title>
<g id="a_Node000031"><a xlink:href="group__app__io__internal.html#ga3744d7f959bb156cae5d54245f1c45cc" target="_top" xlink:title="Helper function to create and send a message with type (usually ACK or RST).">
<polygon fill="white" stroke="#666666" points="2350,-265 2185,-265 2185,-246 2350,-246 2350,-265"/>
<text text-anchor="middle" x="2267.5" y="-253" font-family="Helvetica,sans-Serif" font-size="10.00">coap_send_message_type_lkd</text>
</a>
</g>
</g>
<!-- Node1&#45;&gt;Node31 -->
<g id="edge34_Node000001_Node000031" class="edge">
<title>Node1&#45;&gt;Node31</title>
<g id="a_edge34_Node000001_Node000031"><a xlink:title=" ">
<path fill="none" stroke="#63b8ff" d="M2421.67,-157.91C2403.86,-173.02 2376.06,-195.6 2350,-212.5 2330.14,-225.38 2306,-237.74 2289.17,-245.88"/>
<polygon fill="#63b8ff" stroke="#63b8ff" points="2424.24,-160.31 2429.56,-151.15 2419.69,-155 2424.24,-160.31"/>
</a>
</g>
</g>
<!-- Node35 -->
<g id="Node000035" class="node">
<title>Node35</title>
<g id="a_Node000035"><a xlink:href="group__session__internal.html#gab183485c5c8d0f885301de696dbcb81f" target="_top" xlink:title="Send a ping message for the session.">
<polygon fill="white" stroke="#666666" points="1708,-151 1551,-151 1551,-132 1708,-132 1708,-151"/>
<text text-anchor="middle" x="1629.5" y="-139" font-family="Helvetica,sans-Serif" font-size="10.00">coap_session_send_ping_lkd</text>
</a>
</g>
</g>
<!-- Node1&#45;&gt;Node35 -->
<g id="edge42_Node000001_Node000035" class="edge">
<title>Node1&#45;&gt;Node35</title>
<g id="a_edge42_Node000001_Node000035"><a xlink:title=" ">
<path fill="none" stroke="#63b8ff" d="M2375.46,-136.04C2302.86,-130.43 2181.86,-122.5 2077.5,-122.5 2077.5,-122.5 2077.5,-122.5 1916,-122.5 1845.58,-122.5 1765.62,-128.33 1708.26,-133.52"/>
<polygon fill="#63b8ff" stroke="#63b8ff" points="2375.57,-139.56 2385.81,-136.85 2376.12,-132.58 2375.57,-139.56"/>
</a>
</g>
</g>
<!-- Node41 -->
<g id="Node000041" class="node">
<title>Node41</title>
<g id="a_Node000041"><a xlink:href="coap__net_8c.html#ac4cbcfd073489b57805db665ce3d0681" target="_top" xlink:title=" ">
<polygon fill="white" stroke="#666666" points="1966.5,-170 1867.5,-170 1867.5,-151 1966.5,-151 1966.5,-170"/>
<text text-anchor="middle" x="1917" y="-158" font-family="Helvetica,sans-Serif" font-size="10.00">handle_signaling</text>
</a>
</g>
</g>
<!-- Node1&#45;&gt;Node41 -->
<g id="edge51_Node000001_Node000041" class="edge">
<title>Node1&#45;&gt;Node41</title>
<g id="a_edge51_Node000001_Node000041"><a xlink:title=" ">
<path fill="none" stroke="#63b8ff" d="M2375.31,-143.87C2269.16,-147.73 2061.32,-155.29 1966.83,-158.72"/>
<polygon fill="#63b8ff" stroke="#63b8ff" points="2375.7,-147.36 2385.57,-143.5 2375.45,-140.36 2375.7,-147.36"/>
</a>
</g>
</g>
<!-- Node2&#45;&gt;Node3 -->
<g id="edge2_Node000002_Node000003" class="edge">
<title>Node2&#45;&gt;Node3</title>
<g id="a_edge2_Node000002_Node000003"><a xlink:title=" ">
<path fill="none" stroke="#63b8ff" d="M1871.78,-388.34C1869.77,-387.15 1867.83,-385.88 1866,-384.5 1829.23,-356.81 1802.49,-306.91 1792.41,-286.06"/>
<polygon fill="#63b8ff" stroke="#63b8ff" points="1870.48,-391.6 1880.99,-392.97 1873.63,-385.35 1870.48,-391.6"/>
</a>
</g>
</g>
<!-- Node4 -->
<g id="Node000004" class="node">
<title>Node4</title>
<g id="a_Node000004"><a xlink:href="group__context__internal.html#gae6b8ca457dd41f23372f9e9a7159312b" target="_top" xlink:title="Parses and interprets a CoAP datagram with context ctx.">
<polygon fill="white" stroke="#666666" points="1687,-329 1572,-329 1572,-310 1687,-310 1687,-329"/>
<text text-anchor="middle" x="1629.5" y="-317" font-family="Helvetica,sans-Serif" font-size="10.00">coap_handle_dgram</text>
</a>
</g>
</g>
<!-- Node3&#45;&gt;Node4 -->
<g id="edge3_Node000003_Node000004" class="edge">
<title>Node3&#45;&gt;Node4</title>
<g id="a_edge3_Node000003_Node000004"><a xlink:title=" ">
<path fill="none" stroke="#63b8ff" d="M1741.75,-288.74C1717.37,-295.48 1687.54,-303.73 1664.91,-309.98"/>
<polygon fill="#63b8ff" stroke="#63b8ff" points="1742.78,-292.08 1751.49,-286.04 1740.92,-285.34 1742.78,-292.08"/>
</a>
</g>
</g>
<!-- Node6 -->
<g id="Node000006" class="node">
<title>Node6</title>
<g id="a_Node000006"><a xlink:href="group__session__internal.html#ga6a01ddadb413abfcc50c53df7f562d1a" target="_top" xlink:title=" ">
<polygon fill="white" stroke="#666666" points="1323.5,-300 1214.5,-300 1214.5,-281 1323.5,-281 1323.5,-300"/>
<text text-anchor="middle" x="1269" y="-288" font-family="Helvetica,sans-Serif" font-size="10.00">coap_read_session</text>
</a>
</g>
</g>
<!-- Node3&#45;&gt;Node6 -->
<g id="edge27_Node000003_Node000006" class="edge">
<title>Node3&#45;&gt;Node6</title>
<g id="a_edge27_Node000003_Node000006"><a xlink:title=" ">
<path fill="none" stroke="#63b8ff" d="M1733.76,-277.92C1635.37,-280.59 1423.51,-286.33 1323.87,-289.04"/>
<polygon fill="#63b8ff" stroke="#63b8ff" points="1733.87,-281.42 1743.77,-277.65 1733.68,-274.42 1733.87,-281.42"/>
</a>
</g>
</g>
<!-- Node5 -->
<g id="Node000005" class="node">
<title>Node5</title>
<g id="a_Node000005"><a xlink:href="coap__net_8c.html#a8534f7860b14e0743529daff196a27ce" target="_top" xlink:title=" ">
<polygon fill="white" stroke="#666666" points="1513.5,-334.5 1379.5,-334.5 1379.5,-304.5 1513.5,-304.5 1513.5,-334.5"/>
<text text-anchor="start" x="1387.5" y="-322.5" font-family="Helvetica,sans-Serif" font-size="10.00">coap_handle_dgram_for</text>
<text text-anchor="middle" x="1446.5" y="-311.5" font-family="Helvetica,sans-Serif" font-size="10.00">_proto</text>
</a>
</g>
</g>
<!-- Node4&#45;&gt;Node5 -->
<g id="edge4_Node000004_Node000005" class="edge">
<title>Node4&#45;&gt;Node5</title>
<g id="a_edge4_Node000004_Node000005"><a xlink:title=" ">
<path fill="none" stroke="#63b8ff" d="M1561.59,-319.5C1545.91,-319.5 1529.21,-319.5 1513.56,-319.5"/>
<polygon fill="#63b8ff" stroke="#63b8ff" points="1561.73,-323 1571.73,-319.5 1561.73,-316 1561.73,-323"/>
</a>
</g>
</g>
<!-- Node5&#45;&gt;Node6 -->
<g id="edge5_Node000005_Node000006" class="edge">
<title>Node5&#45;&gt;Node6</title>
<g id="a_edge5_Node000005_Node000006"><a xlink:title=" ">
<path fill="none" stroke="#63b8ff" d="M1369.15,-306.88C1353.8,-304.35 1337.98,-301.73 1323.61,-299.36"/>
<polygon fill="#63b8ff" stroke="#63b8ff" points="1368.71,-310.36 1379.15,-308.54 1369.86,-303.45 1368.71,-310.36"/>
</a>
</g>
</g>
<!-- Node7 -->
<g id="Node000007" class="node">
<title>Node7</title>
<g id="a_Node000007"><a xlink:href="group__app__io__internal.html#ga16a04e534316586853e010ddeec64bd7" target="_top" xlink:title="Process all the epoll events.">
<polygon fill="white" stroke="#666666" points="1157.5,-284 1036.5,-284 1036.5,-265 1157.5,-265 1157.5,-284"/>
<text text-anchor="middle" x="1097" y="-272" font-family="Helvetica,sans-Serif" font-size="10.00">coap_io_do_epoll_lkd</text>
</a>
</g>
</g>
<!-- Node6&#45;&gt;Node7 -->
<g id="edge6_Node000006_Node000007" class="edge">
<title>Node6&#45;&gt;Node7</title>
<g id="a_edge6_Node000006_Node000007"><a xlink:title=" ">
<path fill="none" stroke="#63b8ff" d="M1203.89,-284.47C1188.72,-283.04 1172.6,-281.52 1157.64,-280.11"/>
<polygon fill="#63b8ff" stroke="#63b8ff" points="1203.93,-287.98 1214.21,-285.44 1204.58,-281.02 1203.93,-287.98"/>
</a>
</g>
</g>
<!-- Node25 -->
<g id="Node000025" class="node">
<title>Node25</title>
<g id="a_Node000025"><a xlink:href="group__app__io__internal.html#ga60fc8d114c50d9c30701ebbf4417b43c" target="_top" xlink:title="Processes any outstanding read, write, accept or connect I/O as indicated in the coap_socket_t struct...">
<polygon fill="white" stroke="#666666" points="1150,-321 1044,-321 1044,-302 1150,-302 1150,-321"/>
<text text-anchor="middle" x="1097" y="-309" font-family="Helvetica,sans-Serif" font-size="10.00">coap_io_do_io_lkd</text>
</a>
</g>
</g>
<!-- Node6&#45;&gt;Node25 -->
<g id="edge24_Node000006_Node000025" class="edge">
<title>Node6&#45;&gt;Node25</title>
<g id="a_edge24_Node000006_Node000025"><a xlink:title=" ">
<path fill="none" stroke="#63b8ff" d="M1203.96,-298.41C1186.24,-300.6 1167.23,-302.95 1150.28,-305.04"/>
<polygon fill="#63b8ff" stroke="#63b8ff" points="1204.72,-301.84 1214.21,-297.14 1203.86,-294.9 1204.72,-301.84"/>
</a>
</g>
</g>
<!-- Node8 -->
<g id="Node000008" class="node">
<title>Node8</title>
<g id="a_Node000008"><a xlink:href="group__app__io.html#gae75a791665f7ae378bb27fcd2617c402" target="_top" xlink:title="Process all the epoll events.">
<polygon fill="white" stroke="#666666" points="987,-284 886,-284 886,-265 987,-265 987,-284"/>
<text text-anchor="middle" x="936.5" y="-272" font-family="Helvetica,sans-Serif" font-size="10.00">coap_io_do_epoll</text>
</a>
</g>
</g>
<!-- Node7&#45;&gt;Node8 -->
<g id="edge7_Node000007_Node000008" class="edge">
<title>Node7&#45;&gt;Node8</title>
<g id="a_edge7_Node000007_Node000008"><a xlink:title=" ">
<path fill="none" stroke="#63b8ff" d="M1025.75,-274.5C1012.74,-274.5 999.41,-274.5 987.17,-274.5"/>
<polygon fill="#63b8ff" stroke="#63b8ff" points="1026.08,-278 1036.08,-274.5 1026.08,-271 1026.08,-278"/>
</a>
</g>
</g>
<!-- Node9 -->
<g id="Node000009" class="node">
<title>Node9</title>
<g id="a_Node000009"><a xlink:href="group__app__io__internal.html#gac72796b7754e146e86da15fa5f8d5992" target="_top" xlink:title="The main message processing loop with additional fds for internal select.">
<polygon fill="white" stroke="#666666" points="998,-246.5 875,-246.5 875,-216.5 998,-216.5 998,-246.5"/>
<text text-anchor="start" x="883" y="-234.5" font-family="Helvetica,sans-Serif" font-size="10.00">coap_io_process_with</text>
<text text-anchor="middle" x="936.5" y="-223.5" font-family="Helvetica,sans-Serif" font-size="10.00">_fds_lkd</text>
</a>
</g>
</g>
<!-- Node7&#45;&gt;Node9 -->
<g id="edge8_Node000007_Node000009" class="edge">
<title>Node7&#45;&gt;Node9</title>
<g id="a_edge8_Node000007_Node000009"><a xlink:title=" ">
<path fill="none" stroke="#63b8ff" d="M1051.09,-262.32C1032.97,-257.4 1011.87,-251.68 992.81,-246.51"/>
<polygon fill="#63b8ff" stroke="#63b8ff" points="1050.26,-265.72 1060.82,-264.96 1052.09,-258.96 1050.26,-265.72"/>
</a>
</g>
</g>
<!-- Node10 -->
<g id="Node000010" class="node">
<title>Node10</title>
<g id="a_Node000010"><a xlink:href="group__app__io__internal.html#gaacf6492e591390793c32fa2974a620b2" target="_top" xlink:title="The main I/O processing function.">
<polygon fill="white" stroke="#666666" points="826,-197 709,-197 709,-178 826,-178 826,-197"/>
<text text-anchor="middle" x="767.5" y="-185" font-family="Helvetica,sans-Serif" font-size="10.00">coap_io_process_lkd</text>
</a>
</g>
</g>
<!-- Node9&#45;&gt;Node10 -->
<g id="edge9_Node000009_Node000010" class="edge">
<title>Node9&#45;&gt;Node10</title>
<g id="a_edge9_Node000009_Node000010"><a xlink:title=" ">
<path fill="none" stroke="#63b8ff" d="M868.63,-213.88C846.86,-208.15 823.52,-202 804.85,-197.08"/>
<polygon fill="#63b8ff" stroke="#63b8ff" points="867.93,-217.32 878.5,-216.48 869.72,-210.55 867.93,-217.32"/>
</a>
</g>
</g>
<!-- Node24 -->
<g id="Node000024" class="node">
<title>Node24</title>
<g id="a_Node000024"><a xlink:href="group__app__io.html#gaa68c0208f033c5e0c4201a2d2d5e515f" target="_top" xlink:title="The main message processing loop with additional fds for internal select.">
<polygon fill="white" stroke="#666666" points="839,-241 696,-241 696,-222 839,-222 839,-241"/>
<text text-anchor="middle" x="767.5" y="-229" font-family="Helvetica,sans-Serif" font-size="10.00">coap_io_process_with_fds</text>
</a>
</g>
</g>
<!-- Node9&#45;&gt;Node24 -->
<g id="edge23_Node000009_Node000024" class="edge">
<title>Node9&#45;&gt;Node24</title>
<g id="a_edge23_Node000009_Node000024"><a xlink:title=" ">
<path fill="none" stroke="#63b8ff" d="M864.57,-231.5C856.15,-231.5 847.56,-231.5 839.14,-231.5"/>
<polygon fill="#63b8ff" stroke="#63b8ff" points="864.74,-235 874.74,-231.5 864.74,-228 864.74,-235"/>
</a>
</g>
</g>
<!-- Node11 -->
<g id="Node000011" class="node">
<title>Node11</title>
<g id="a_Node000011"><a xlink:href="group__context__internal.html#ga5d013d40174c7c217b24bf624f9d7310" target="_top" xlink:title="Delay the sending of the first client request until some other negotiation has completed.">
<polygon fill="white" stroke="#666666" points="660,-192 532,-192 532,-173 660,-173 660,-192"/>
<text text-anchor="middle" x="596" y="-180" font-family="Helvetica,sans-Serif" font-size="10.00">coap_client_delay_first</text>
</a>
</g>
</g>
<!-- Node10&#45;&gt;Node11 -->
<g id="edge10_Node000010_Node000011" class="edge">
<title>Node10&#45;&gt;Node11</title>
<g id="a_edge10_Node000010_Node000011"><a xlink:title=" ">
<path fill="none" stroke="#63b8ff" d="M698.59,-185.5C685.89,-185.12 672.66,-184.73 660.11,-184.36"/>
<polygon fill="#63b8ff" stroke="#63b8ff" points="698.54,-189 708.64,-185.79 698.75,-182 698.54,-189"/>
</a>
</g>
</g>
<!-- Node21 -->
<g id="Node000021" class="node">
<title>Node21</title>
<g id="a_Node000021"><a xlink:href="group__app__io__internal.html#ga3db928bd0e68b72fb53001495a2e3bac" target="_top" xlink:title="Check to see if there is any i/o pending for the context.">
<polygon fill="white" stroke="#666666" points="655.5,-232 536.5,-232 536.5,-213 655.5,-213 655.5,-232"/>
<text text-anchor="middle" x="596" y="-220" font-family="Helvetica,sans-Serif" font-size="10.00">coap_io_pending_lkd</text>
</a>
</g>
</g>
<!-- Node10&#45;&gt;Node21 -->
<g id="edge20_Node000010_Node000021" class="edge">
<title>Node10&#45;&gt;Node21</title>
<g id="a_edge20_Node000010_Node000021"><a xlink:title=" ">
<path fill="none" stroke="#63b8ff" d="M710.11,-199.14C688.41,-203.63 663.9,-208.69 643.26,-212.95"/>
<polygon fill="#63b8ff" stroke="#63b8ff" points="711.1,-202.51 720.18,-197.06 709.68,-195.66 711.1,-202.51"/>
</a>
</g>
</g>
<!-- Node23 -->
<g id="Node000023" class="node">
<title>Node23</title>
<g id="a_Node000023"><a xlink:href="group__app__io.html#ga0acc0068f8442ab2fb70bc30242fc5ef" target="_top" xlink:title="The main I/O processing function.">
<polygon fill="white" stroke="#666666" points="644.5,-155 547.5,-155 547.5,-136 644.5,-136 644.5,-155"/>
<text text-anchor="middle" x="596" y="-143" font-family="Helvetica,sans-Serif" font-size="10.00">coap_io_process</text>
</a>
</g>
</g>
<!-- Node10&#45;&gt;Node23 -->
<g id="edge22_Node000010_Node000023" class="edge">
<title>Node10&#45;&gt;Node23</title>
<g id="a_edge22_Node000010_Node000023"><a xlink:title=" ">
<path fill="none" stroke="#63b8ff" d="M718.31,-175.56C692.11,-169.07 660.14,-161.15 635.6,-155.07"/>
<polygon fill="#63b8ff" stroke="#63b8ff" points="717.49,-178.96 728.04,-177.97 719.17,-172.17 717.49,-178.96"/>
</a>
</g>
</g>
<!-- Node11&#45;&gt;Node12 -->
<g id="edge11_Node000011_Node000012" class="edge">
<title>Node11&#45;&gt;Node12</title>
<g id="a_edge11_Node000011_Node000012"><a xlink:title=" ">
<path fill="none" stroke="#63b8ff" d="M544.95,-169.68C540.51,-168.1 536.13,-166.37 532,-164.5 497.81,-149.02 461.76,-123.17 443.38,-109.19"/>
<polygon fill="#63b8ff" stroke="#63b8ff" points="544.12,-173.09 554.71,-172.9 546.31,-166.44 544.12,-173.09"/>
</a>
</g>
</g>
<!-- Node14 -->
<g id="Node000014" class="node">
<title>Node14</title>
<g id="a_Node000014"><a xlink:href="group__session__internal.html#gab00aa6136bf734263db0dec5360a9798" target="_top" xlink:title="Get maximum acceptable PDU size.">
<polygon fill="white" stroke="#666666" points="496,-195.5 364,-195.5 364,-165.5 496,-165.5 496,-195.5"/>
<text text-anchor="start" x="372" y="-183.5" font-family="Helvetica,sans-Serif" font-size="10.00">coap_session_max_pdu</text>
<text text-anchor="middle" x="430" y="-172.5" font-family="Helvetica,sans-Serif" font-size="10.00">_size_lkd</text>
</a>
</g>
</g>
<!-- Node11&#45;&gt;Node14 -->
<g id="edge13_Node000011_Node000014" class="edge">
<title>Node11&#45;&gt;Node14</title>
<g id="a_edge13_Node000011_Node000014"><a xlink:title=" ">
<path fill="none" stroke="#63b8ff" d="M521.4,-181.6C512.98,-181.5 504.44,-181.4 496.13,-181.29"/>
<polygon fill="#63b8ff" stroke="#63b8ff" points="521.55,-185.1 531.59,-181.73 521.64,-178.1 521.55,-185.1"/>
</a>
</g>
</g>
<!-- Node13 -->
<g id="Node000013" class="node">
<title>Node13</title>
<g id="a_Node000013"><a xlink:href="group__context.html#ga1c3d60f40aa03a974b4472951abae1f0" target="_top" xlink:title="Sends a CoAP message to given peer.">
<polygon fill="white" stroke="#666666" points="283.5,-109 215.5,-109 215.5,-90 283.5,-90 283.5,-109"/>
<text text-anchor="middle" x="249.5" y="-97" font-family="Helvetica,sans-Serif" font-size="10.00">coap_send</text>
</a>
</g>
</g>
<!-- Node12&#45;&gt;Node13 -->
<g id="edge12_Node000012_Node000013" class="edge">
<title>Node12&#45;&gt;Node13</title>
<g id="a_edge12_Node000012_Node000013"><a xlink:title=" ">
<path fill="none" stroke="#63b8ff" d="M375.09,-99.5C345.32,-99.5 309.28,-99.5 283.64,-99.5"/>
<polygon fill="#63b8ff" stroke="#63b8ff" points="375.33,-103 385.33,-99.5 375.33,-96 375.33,-103"/>
</a>
</g>
</g>
<!-- Node15 -->
<g id="Node000015" class="node">
<title>Node15</title>
<g id="a_Node000015"><a xlink:href="group__pdu__internal.html#ga5b11b2f0af35b0ef48a06a781893dc8d" target="_top" xlink:title="Creates a new CoAP PDU.">
<polygon fill="white" stroke="#666666" points="304,-227 195,-227 195,-208 304,-208 304,-227"/>
<text text-anchor="middle" x="249.5" y="-215" font-family="Helvetica,sans-Serif" font-size="10.00">coap_new_pdu_lkd</text>
</a>
</g>
</g>
<!-- Node14&#45;&gt;Node15 -->
<g id="edge14_Node000014_Node000015" class="edge">
<title>Node14&#45;&gt;Node15</title>
<g id="a_edge14_Node000014_Node000015"><a xlink:title=" ">
<path fill="none" stroke="#63b8ff" d="M353.74,-196.1C334.31,-200.13 313.98,-204.34 296.54,-207.96"/>
<polygon fill="#63b8ff" stroke="#63b8ff" points="354.72,-199.47 363.8,-194.01 353.3,-192.62 354.72,-199.47"/>
</a>
</g>
</g>
<!-- Node17 -->
<g id="Node000017" class="node">
<title>Node17</title>
<g id="a_Node000017"><a xlink:href="group__pdu__internal.html#gabfad643886d38578860d06a9ade5caf8" target="_top" xlink:title="Duplicate an existing PDU.">
<polygon fill="white" stroke="#666666" points="316.5,-190 182.5,-190 182.5,-171 316.5,-171 316.5,-190"/>
<text text-anchor="middle" x="249.5" y="-178" font-family="Helvetica,sans-Serif" font-size="10.00">coap_pdu_duplicate_lkd</text>
</a>
</g>
</g>
<!-- Node14&#45;&gt;Node17 -->
<g id="edge16_Node000014_Node000017" class="edge">
<title>Node14&#45;&gt;Node17</title>
<g id="a_edge16_Node000014_Node000017"><a xlink:title=" ">
<path fill="none" stroke="#63b8ff" d="M353.61,-180.5C341.35,-180.5 328.74,-180.5 316.72,-180.5"/>
<polygon fill="#63b8ff" stroke="#63b8ff" points="353.8,-184 363.8,-180.5 353.8,-177 353.8,-184"/>
</a>
</g>
</g>
<!-- Node20 -->
<g id="Node000020" class="node">
<title>Node20</title>
<g id="a_Node000020"><a xlink:href="group__session.html#gae5a6b848046e0f3ae3b1d0b055bce60f" target="_top" xlink:title="Get maximum acceptable PDU size.">
<polygon fill="white" stroke="#666666" points="328,-153 171,-153 171,-134 328,-134 328,-153"/>
<text text-anchor="middle" x="249.5" y="-141" font-family="Helvetica,sans-Serif" font-size="10.00">coap_session_max_pdu_size</text>
</a>
</g>
</g>
<!-- Node14&#45;&gt;Node20 -->
<g id="edge19_Node000014_Node000020" class="edge">
<title>Node14&#45;&gt;Node20</title>
<g id="a_edge19_Node000014_Node000020"><a xlink:title=" ">
<path fill="none" stroke="#63b8ff" d="M353.74,-164.9C334.31,-160.87 313.98,-156.66 296.54,-153.04"/>
<polygon fill="#63b8ff" stroke="#63b8ff" points="353.3,-168.38 363.8,-166.99 354.72,-161.53 353.3,-168.38"/>
</a>
</g>
</g>
<!-- Node16 -->
<g id="Node000016" class="node">
<title>Node16</title>
<g id="a_Node000016"><a xlink:href="group__pdu.html#gac2580e04276e6b66390a66f559c3452d" target="_top" xlink:title="Creates a new CoAP PDU.">
<polygon fill="white" stroke="#666666" points="112,-227 23,-227 23,-208 112,-208 112,-227"/>
<text text-anchor="middle" x="67.5" y="-215" font-family="Helvetica,sans-Serif" font-size="10.00">coap_new_pdu</text>
</a>
</g>
</g>
<!-- Node15&#45;&gt;Node16 -->
<g id="edge15_Node000015_Node000016" class="edge">
<title>Node15&#45;&gt;Node16</title>
<g id="a_edge15_Node000015_Node000016"><a xlink:title=" ">
<path fill="none" stroke="#63b8ff" d="M184.86,-217.5C160.79,-217.5 133.96,-217.5 112.14,-217.5"/>
<polygon fill="#63b8ff" stroke="#63b8ff" points="184.98,-221 194.98,-217.5 184.98,-214 184.98,-221"/>
</a>
</g>
</g>
<!-- Node18 -->
<g id="Node000018" class="node">
<title>Node18</title>
<g id="a_Node000018"><a xlink:href="group__pdu.html#ga4d2b83e4f9e5264ac3c065b0cff03395" target="_top" xlink:title="Duplicate an existing PDU.">
<polygon fill="white" stroke="#666666" points="124,-190 11,-190 11,-171 124,-171 124,-190"/>
<text text-anchor="middle" x="67.5" y="-178" font-family="Helvetica,sans-Serif" font-size="10.00">coap_pdu_duplicate</text>
</a>
</g>
</g>
<!-- Node17&#45;&gt;Node18 -->
<g id="edge17_Node000017_Node000018" class="edge">
<title>Node17&#45;&gt;Node18</title>
<g id="a_edge17_Node000017_Node000018"><a xlink:title=" ">
<path fill="none" stroke="#63b8ff" d="M172.5,-180.5C156.27,-180.5 139.43,-180.5 124.14,-180.5"/>
<polygon fill="#63b8ff" stroke="#63b8ff" points="172.5,-184 182.5,-180.5 172.5,-177 172.5,-184"/>
</a>
</g>
</g>
<!-- Node19 -->
<g id="Node000019" class="node">
<title>Node19</title>
<g id="a_Node000019"><a xlink:href="group__oscore__internal.html#ga8cf885624714b9a4705974adf2629cb2" target="_top" xlink:title=" ">
<polygon fill="white" stroke="#666666" points="135,-153 0,-153 0,-134 135,-134 135,-153"/>
<text text-anchor="middle" x="67.5" y="-141" font-family="Helvetica,sans-Serif" font-size="10.00">oscore_new_association</text>
</a>
</g>
</g>
<!-- Node17&#45;&gt;Node19 -->
<g id="edge18_Node000017_Node000019" class="edge">
<title>Node17&#45;&gt;Node19</title>
<g id="a_edge18_Node000017_Node000019"><a xlink:title=" ">
<path fill="none" stroke="#63b8ff" d="M192.15,-168.92C167.34,-163.82 138.56,-157.9 115.01,-153.06"/>
<polygon fill="#63b8ff" stroke="#63b8ff" points="191.65,-172.39 202.15,-170.97 193.06,-165.53 191.65,-172.39"/>
</a>
</g>
</g>
<!-- Node22 -->
<g id="Node000022" class="node">
<title>Node22</title>
<g id="a_Node000022"><a xlink:href="group__app__io.html#ga2023144481df2258b5947666a02ede6c" target="_top" xlink:title="Check to see if there is any i/o pending for the context.">
<polygon fill="white" stroke="#666666" points="479,-233 381,-233 381,-214 479,-214 479,-233"/>
<text text-anchor="middle" x="430" y="-221" font-family="Helvetica,sans-Serif" font-size="10.00">coap_io_pending</text>
</a>
</g>
</g>
<!-- Node21&#45;&gt;Node22 -->
<g id="edge21_Node000021_Node000022" class="edge">
<title>Node21&#45;&gt;Node22</title>
<g id="a_edge21_Node000021_Node000022"><a xlink:title=" ">
<path fill="none" stroke="#63b8ff" d="M526,-222.92C510.22,-223.02 493.77,-223.12 479.09,-223.21"/>
<polygon fill="#63b8ff" stroke="#63b8ff" points="526.28,-226.42 536.26,-222.86 526.23,-219.42 526.28,-226.42"/>
</a>
</g>
</g>
<!-- Node25&#45;&gt;Node9 -->
<g id="edge26_Node000025_Node000009" class="edge">
<title>Node25&#45;&gt;Node9</title>
<g id="a_edge26_Node000025_Node000009"><a xlink:title=" ">
<path fill="none" stroke="#63b8ff" d="M1042.94,-298.16C1039.84,-296.75 1036.83,-295.2 1034,-293.5 1014.33,-281.69 1016.99,-269.37 998,-256.5 992.54,-252.8 986.45,-249.5 980.3,-246.6"/>
<polygon fill="#63b8ff" stroke="#63b8ff" points="1041.85,-301.49 1052.43,-301.98 1044.46,-295 1041.85,-301.49"/>
</a>
</g>
</g>
<!-- Node26 -->
<g id="Node000026" class="node">
<title>Node26</title>
<g id="a_Node000026"><a xlink:href="group__app__io.html#gaec2083a94bd1f43582f981f3370e45dd" target="_top" xlink:title="Processes any outstanding read, write, accept or connect I/O as indicated in the coap_socket_t struct...">
<polygon fill="white" stroke="#666666" points="979.5,-321 893.5,-321 893.5,-302 979.5,-302 979.5,-321"/>
<text text-anchor="middle" x="936.5" y="-309" font-family="Helvetica,sans-Serif" font-size="10.00">coap_io_do_io</text>
</a>
</g>
</g>
<!-- Node25&#45;&gt;Node26 -->
<g id="edge25_Node000025_Node000026" class="edge">
<title>Node25&#45;&gt;Node26</title>
<g id="a_edge25_Node000025_Node000026"><a xlink:title=" ">
<path fill="none" stroke="#63b8ff" d="M1033.47,-311.5C1015.36,-311.5 996.04,-311.5 979.51,-311.5"/>
<polygon fill="#63b8ff" stroke="#63b8ff" points="1033.66,-315 1043.66,-311.5 1033.66,-308 1033.66,-315"/>
</a>
</g>
</g>
<!-- Node28 -->
<g id="Node000028" class="node">
<title>Node28</title>
<g id="a_Node000028"><a xlink:href="group__context.html#gaa8bf7fff6570e697ab8fde44b1494188" target="_top" xlink:title="Sends an ACK message with code 0 for the specified request to dst.">
<polygon fill="white" stroke="#666666" points="2122,-56 2031,-56 2031,-37 2122,-37 2122,-56"/>
<text text-anchor="middle" x="2076.5" y="-44" font-family="Helvetica,sans-Serif" font-size="10.00">coap_send_ack</text>
</a>
</g>
</g>
<!-- Node27&#45;&gt;Node28 -->
<g id="edge30_Node000027_Node000028" class="edge">
<title>Node27&#45;&gt;Node28</title>
<g id="a_edge30_Node000027_Node000028"><a xlink:title=" ">
<path fill="none" stroke="#63b8ff" d="M2201.61,-46.5C2175.43,-46.5 2145.88,-46.5 2122.18,-46.5"/>
<polygon fill="#63b8ff" stroke="#63b8ff" points="2201.83,-50 2211.83,-46.5 2201.83,-43 2201.83,-50"/>
</a>
</g>
</g>
<!-- Node30 -->
<g id="Node000030" class="node">
<title>Node30</title>
<g id="a_Node000030"><a xlink:href="group__context.html#ga2f0229683b791653fa5fe76c6ddd2480" target="_top" xlink:title="Sends an error response with code code for request request to dst.">
<polygon fill="white" stroke="#666666" points="2125,-19 2028,-19 2028,0 2125,0 2125,-19"/>
<text text-anchor="middle" x="2076.5" y="-7" font-family="Helvetica,sans-Serif" font-size="10.00">coap_send_error</text>
</a>
</g>
</g>
<!-- Node29&#45;&gt;Node30 -->
<g id="edge32_Node000029_Node000030" class="edge">
<title>Node29&#45;&gt;Node30</title>
<g id="a_edge32_Node000029_Node000030"><a xlink:title=" ">
<path fill="none" stroke="#63b8ff" d="M2198.51,-9.5C2174.17,-9.5 2147.28,-9.5 2125.04,-9.5"/>
<polygon fill="#63b8ff" stroke="#63b8ff" points="2198.77,-13 2208.77,-9.5 2198.77,-6 2198.77,-13"/>
</a>
</g>
</g>
<!-- Node31&#45;&gt;Node3 -->
<g id="edge35_Node000031_Node000003" class="edge">
<title>Node31&#45;&gt;Node3</title>
<g id="a_edge35_Node000031_Node000003"><a xlink:title=" ">
<path fill="none" stroke="#63b8ff" d="M2174.64,-259.53C2070.99,-264.08 1906.89,-271.28 1830.16,-274.65"/>
<polygon fill="#63b8ff" stroke="#63b8ff" points="2174.95,-263.02 2184.79,-259.09 2174.64,-256.03 2174.95,-263.02"/>
</a>
</g>
</g>
<!-- Node32 -->
<g id="Node000032" class="node">
<title>Node32</title>
<g id="a_Node000032"><a xlink:href="group__context.html#gac68d72211553efa6073656a98fb6082f" target="_top" xlink:title="Helper function to create and send a message with type (usually ACK or RST).">
<polygon fill="white" stroke="#666666" points="2149,-246 2004,-246 2004,-227 2149,-227 2149,-246"/>
<text text-anchor="middle" x="2076.5" y="-234" font-family="Helvetica,sans-Serif" font-size="10.00">coap_send_message_type</text>
</a>
</g>
</g>
<!-- Node31&#45;&gt;Node32 -->
<g id="edge36_Node000031_Node000032" class="edge">
<title>Node31&#45;&gt;Node32</title>
<g id="a_edge36_Node000031_Node000032"><a xlink:title=" ">
<path fill="none" stroke="#63b8ff" d="M2174.9,-246.29C2166.28,-245.43 2157.63,-244.56 2149.24,-243.71"/>
<polygon fill="#63b8ff" stroke="#63b8ff" points="2174.68,-249.79 2184.98,-247.3 2175.38,-242.82 2174.68,-249.79"/>
</a>
</g>
</g>
<!-- Node33 -->
<g id="Node000033" class="node">
<title>Node33</title>
<g id="a_Node000033"><a xlink:href="group__app__io__internal.html#ga21da56be4e4ff935d98d612687da3906" target="_top" xlink:title="Sends an RST message with code 0 for the specified request to dst.">
<polygon fill="white" stroke="#666666" points="2130,-337 2023,-337 2023,-318 2130,-318 2130,-337"/>
<text text-anchor="middle" x="2076.5" y="-325" font-family="Helvetica,sans-Serif" font-size="10.00">coap_send_rst_lkd</text>
</a>
</g>
</g>
<!-- Node31&#45;&gt;Node33 -->
<g id="edge37_Node000031_Node000033" class="edge">
<title>Node31&#45;&gt;Node33</title>
<g id="a_edge37_Node000031_Node000033"><a xlink:title=" ">
<path fill="none" stroke="#63b8ff" d="M2231.93,-268.67C2194.57,-282.9 2135.94,-305.24 2102.7,-317.9"/>
<polygon fill="#63b8ff" stroke="#63b8ff" points="2233.3,-271.89 2241.4,-265.06 2230.81,-265.35 2233.3,-271.89"/>
</a>
</g>
</g>
<!-- Node33&#45;&gt;Node2 -->
<g id="edge38_Node000033_Node000002" class="edge">
<title>Node33&#45;&gt;Node2</title>
<g id="a_edge38_Node000033_Node000002"><a xlink:title=" ">
<path fill="none" stroke="#63b8ff" d="M2050.3,-342.17C2028.83,-354.35 1996.94,-371.69 1968,-384.5 1961.25,-387.49 1953.84,-390.36 1946.83,-392.91"/>
<polygon fill="#63b8ff" stroke="#63b8ff" points="2052.16,-345.14 2059.11,-337.14 2048.69,-339.06 2052.16,-345.14"/>
</a>
</g>
</g>
<!-- Node33&#45;&gt;Node3 -->
<g id="edge39_Node000033_Node000003" class="edge">
<title>Node33&#45;&gt;Node3</title>
<g id="a_edge39_Node000033_Node000003"><a xlink:title=" ">
<path fill="none" stroke="#63b8ff" d="M2012.72,-316.36C1957.36,-306.54 1878.21,-292.5 1830.12,-283.97"/>
<polygon fill="#63b8ff" stroke="#63b8ff" points="2012.31,-319.85 2022.77,-318.15 2013.53,-312.95 2012.31,-319.85"/>
</a>
</g>
</g>
<!-- Node33&#45;&gt;Node4 -->
<g id="edge40_Node000033_Node000004" class="edge">
<title>Node33&#45;&gt;Node4</title>
<g id="a_edge40_Node000033_Node000004"><a xlink:title=" ">
<path fill="none" stroke="#63b8ff" d="M2012.46,-326.37C1925.59,-324.81 1770.4,-322.01 1687.08,-320.52"/>
<polygon fill="#63b8ff" stroke="#63b8ff" points="2012.64,-329.87 2022.71,-326.55 2012.77,-322.87 2012.64,-329.87"/>
</a>
</g>
</g>
<!-- Node34 -->
<g id="Node000034" class="node">
<title>Node34</title>
<g id="a_Node000034"><a xlink:href="group__context.html#gac99d938651883bcccc22d74848ed11a3" target="_top" xlink:title="Sends an RST message with code 0 for the specified request to dst.">
<polygon fill="white" stroke="#666666" points="1960,-375 1874,-375 1874,-356 1960,-356 1960,-375"/>
<text text-anchor="middle" x="1917" y="-363" font-family="Helvetica,sans-Serif" font-size="10.00">coap_send_rst</text>
</a>
</g>
</g>
<!-- Node33&#45;&gt;Node34 -->
<g id="edge41_Node000033_Node000034" class="edge">
<title>Node33&#45;&gt;Node34</title>
<g id="a_edge41_Node000033_Node000034"><a xlink:title=" ">
<path fill="none" stroke="#63b8ff" d="M2025.9,-339.47C2003.82,-344.79 1978.2,-350.98 1957.46,-355.98"/>
<polygon fill="#63b8ff" stroke="#63b8ff" points="2026.86,-342.84 2035.76,-337.09 2025.21,-336.03 2026.86,-342.84"/>
</a>
</g>
</g>
<!-- Node36 -->
<g id="Node000036" class="node">
<title>Node36</title>
<g id="a_Node000036"><a xlink:href="group__app__io__internal.html#gacaa3af99c009b68f13f5c05aefdac41d" target="_top" xlink:title="Iterates through all the coap_socket_t structures embedded in endpoints or sessions associated with t...">
<polygon fill="white" stroke="#666666" points="1512,-151 1381,-151 1381,-132 1512,-132 1512,-151"/>
<text text-anchor="middle" x="1446.5" y="-139" font-family="Helvetica,sans-Serif" font-size="10.00">coap_io_prepare_io_lkd</text>
</a>
</g>
</g>
<!-- Node35&#45;&gt;Node36 -->
<g id="edge43_Node000035_Node000036" class="edge">
<title>Node35&#45;&gt;Node36</title>
<g id="a_edge43_Node000035_Node000036"><a xlink:title=" ">
<path fill="none" stroke="#63b8ff" d="M1540.88,-141.5C1531.18,-141.5 1521.44,-141.5 1512.1,-141.5"/>
<polygon fill="#63b8ff" stroke="#63b8ff" points="1540.95,-145 1550.95,-141.5 1540.95,-138 1540.95,-145"/>
</a>
</g>
</g>
<!-- Node40 -->
<g id="Node000040" class="node">
<title>Node40</title>
<g id="a_Node000040"><a xlink:href="coap__session_8c.html#a716505ac437c82bbf210c3d0feb5c8d2" target="_top" xlink:title="Send a ping message for the session.">
<polygon fill="white" stroke="#666666" points="1515,-188 1378,-188 1378,-169 1515,-169 1515,-188"/>
<text text-anchor="middle" x="1446.5" y="-176" font-family="Helvetica,sans-Serif" font-size="10.00">coap_session_send_ping</text>
</a>
</g>
</g>
<!-- Node35&#45;&gt;Node40 -->
<g id="edge50_Node000035_Node000040" class="edge">
<title>Node35&#45;&gt;Node40</title>
<g id="a_edge50_Node000035_Node000040"><a xlink:title=" ">
<path fill="none" stroke="#63b8ff" d="M1571.83,-153.08C1546.89,-158.18 1517.95,-164.1 1494.27,-168.94"/>
<polygon fill="#63b8ff" stroke="#63b8ff" points="1572.79,-156.46 1581.89,-151.03 1571.39,-149.6 1572.79,-156.46"/>
</a>
</g>
</g>
<!-- Node36&#45;&gt;Node9 -->
<g id="edge49_Node000036_Node000009" class="edge">
<title>Node36&#45;&gt;Node9</title>
<g id="a_edge49_Node000036_Node000009"><a xlink:title=" ">
<path fill="none" stroke="#63b8ff" d="M1370.62,-145.1C1269.54,-150.55 1095.07,-162.25 1034,-180.5 1006.95,-188.58 978.7,-204.53 959.8,-216.46"/>
<polygon fill="#63b8ff" stroke="#63b8ff" points="1370.97,-148.58 1380.77,-144.56 1370.59,-141.59 1370.97,-148.58"/>
</a>
</g>
</g>
<!-- Node37 -->
<g id="Node000037" class="node">
<title>Node37</title>
<g id="a_Node000037"><a xlink:href="group__app__io__internal.html#gade3ed4566ae99eaf4fb7bd50f7c23822" target="_top" xlink:title="Any now timed out delayed packet is transmitted, along with any packets associated with requested obs...">
<polygon fill="white" stroke="#666666" points="1342,-227 1196,-227 1196,-208 1342,-208 1342,-227"/>
<text text-anchor="middle" x="1269" y="-215" font-family="Helvetica,sans-Serif" font-size="10.00">coap_io_prepare_epoll_lkd</text>
</a>
</g>
</g>
<!-- Node36&#45;&gt;Node37 -->
<g id="edge44_Node000036_Node000037" class="edge">
<title>Node36&#45;&gt;Node37</title>
<g id="a_edge44_Node000036_Node000037"><a xlink:title=" ">
<path fill="none" stroke="#63b8ff" d="M1396.37,-154.01C1390.12,-155.99 1383.86,-158.16 1378,-160.5 1343.74,-174.18 1306.16,-195.6 1285.6,-207.91"/>
<polygon fill="#63b8ff" stroke="#63b8ff" points="1397.56,-157.31 1406.13,-151.07 1395.54,-150.6 1397.56,-157.31"/>
</a>
</g>
</g>
<!-- Node39 -->
<g id="Node000039" class="node">
<title>Node39</title>
<g id="a_Node000039"><a xlink:href="group__app__io.html#ga6213c0f2f9c7365c439589374ec3c91b" target="_top" xlink:title="Iterates through all the coap_socket_t structures embedded in endpoints or sessions associated with t...">
<polygon fill="white" stroke="#666666" points="1324.5,-132 1213.5,-132 1213.5,-113 1324.5,-113 1324.5,-132"/>
<text text-anchor="middle" x="1269" y="-120" font-family="Helvetica,sans-Serif" font-size="10.00">coap_io_prepare_io</text>
</a>
</g>
</g>
<!-- Node36&#45;&gt;Node39 -->
<g id="edge48_Node000036_Node000039" class="edge">
<title>Node36&#45;&gt;Node39</title>
<g id="a_edge48_Node000036_Node000039"><a xlink:title=" ">
<path fill="none" stroke="#63b8ff" d="M1370.58,-133.39C1355.11,-131.71 1339.09,-129.98 1324.51,-128.4"/>
<polygon fill="#63b8ff" stroke="#63b8ff" points="1370.33,-136.88 1380.65,-134.48 1371.08,-129.92 1370.33,-136.88"/>
</a>
</g>
</g>
<!-- Node37&#45;&gt;Node7 -->
<g id="edge45_Node000037_Node000007" class="edge">
<title>Node37&#45;&gt;Node7</title>
<g id="a_edge45_Node000037_Node000007"><a xlink:title=" ">
<path fill="none" stroke="#63b8ff" d="M1229.85,-230.29C1198.54,-240.79 1154.9,-255.42 1126.55,-264.93"/>
<polygon fill="#63b8ff" stroke="#63b8ff" points="1231.18,-233.54 1239.55,-227.04 1228.95,-226.9 1231.18,-233.54"/>
</a>
</g>
</g>
<!-- Node37&#45;&gt;Node9 -->
<g id="edge47_Node000037_Node000009" class="edge">
<title>Node37&#45;&gt;Node9</title>
<g id="a_edge47_Node000037_Node000009"><a xlink:title=" ">
<path fill="none" stroke="#63b8ff" d="M1185.61,-220.99C1127.42,-223.45 1050.74,-226.7 998.12,-228.93"/>
<polygon fill="#63b8ff" stroke="#63b8ff" points="1186.04,-224.48 1195.88,-220.56 1185.74,-217.48 1186.04,-224.48"/>
</a>
</g>
</g>
<!-- Node38 -->
<g id="Node000038" class="node">
<title>Node38</title>
<g id="a_Node000038"><a xlink:href="group__app__io.html#ga95cf986f7935247aca8bd20c8d7adb12" target="_top" xlink:title="Any now timed out delayed packet is transmitted, along with any packets associated with requested obs...">
<polygon fill="white" stroke="#666666" points="1160,-208 1034,-208 1034,-189 1160,-189 1160,-208"/>
<text text-anchor="middle" x="1097" y="-196" font-family="Helvetica,sans-Serif" font-size="10.00">coap_io_prepare_epoll</text>
</a>
</g>
</g>
<!-- Node37&#45;&gt;Node38 -->
<g id="edge46_Node000037_Node000038" class="edge">
<title>Node37&#45;&gt;Node38</title>
<g id="a_edge46_Node000037_Node000038"><a xlink:title=" ">
<path fill="none" stroke="#63b8ff" d="M1185.84,-208.32C1177.24,-207.36 1168.59,-206.39 1160.26,-205.46"/>
<polygon fill="#63b8ff" stroke="#63b8ff" points="1185.58,-211.81 1195.9,-209.44 1186.36,-204.85 1185.58,-211.81"/>
</a>
</g>
</g>
<!-- Node41&#45;&gt;Node3 -->
<g id="edge52_Node000041_Node000003" class="edge">
<title>Node41&#45;&gt;Node3</title>
<g id="a_edge52_Node000041_Node000003"><a xlink:title=" ">
<path fill="none" stroke="#63b8ff" d="M1881.72,-174.56C1876.23,-177.48 1870.78,-180.81 1866,-184.5 1834.18,-209.07 1806.21,-248.54 1794.22,-266.73"/>
<polygon fill="#63b8ff" stroke="#63b8ff" points="1883.48,-177.6 1890.91,-170.05 1880.39,-171.32 1883.48,-177.6"/>
</a>
</g>
</g>
</g>
</svg>
