<?xml version="1.0" encoding="UTF-8" standalone="no"?>
<!DOCTYPE svg PUBLIC "-//W3C//DTD SVG 1.1//EN"
 "http://www.w3.org/Graphics/SVG/1.1/DTD/svg11.dtd">
<!-- Generated by graphviz version 2.42.4 (0)
 -->
<!-- Title: coap_session_set_max_retransmit Pages: 1 -->
<svg width="578pt" height="82pt"
 viewBox="0.00 0.00 578.00 82.00" xmlns="http://www.w3.org/2000/svg" xmlns:xlink="http://www.w3.org/1999/xlink">
<g id="graph0" class="graph" transform="scale(1 1) rotate(0) translate(4 78)">
<title>coap_session_set_max_retransmit</title>
<!-- Node1 -->
<g id="Node000001" class="node">
<title>Node1</title>
<g id="a_Node000001"><a xlink:title="Set the CoAP maximum retransmit count before failure.">
<polygon fill="#999999" stroke="#666666" points="129,-42.5 0,-42.5 0,-12.5 129,-12.5 129,-42.5"/>
<text text-anchor="start" x="8" y="-30.5" font-family="Helvetica,sans-Serif" font-size="10.00">coap_session_set_max</text>
<text text-anchor="middle" x="64.5" y="-19.5" font-family="Helvetica,sans-Serif" font-size="10.00">_retransmit</text>
</a>
</g>
</g>
<!-- Node2 -->
<g id="Node000002" class="node">
<title>Node2</title>
<g id="a_Node000002"><a xlink:href="group__logging.html#gabf09c67f27059ca278900e7e8fdd475e" target="_top" xlink:title="Get session description.">
<polygon fill="white" stroke="#666666" points="265,-37 165,-37 165,-18 265,-18 265,-37"/>
<text text-anchor="middle" x="215" y="-25" font-family="Helvetica,sans-Serif" font-size="10.00">coap_session_str</text>
</a>
</g>
</g>
<!-- Node1&#45;&gt;Node2 -->
<g id="edge1_Node000001_Node000002" class="edge">
<title>Node1&#45;&gt;Node2</title>
<g id="a_edge1_Node000001_Node000002"><a xlink:title=" ">
<path fill="none" stroke="#63b8ff" d="M129.34,-27.5C137.63,-27.5 146.1,-27.5 154.32,-27.5"/>
<polygon fill="#63b8ff" stroke="#63b8ff" points="154.56,-31 164.56,-27.5 154.56,-24 154.56,-31"/>
</a>
</g>
</g>
<!-- Node3 -->
<g id="Node000003" class="node">
<title>Node3</title>
<g id="a_Node000003"><a xlink:href="group__logging.html#ga9e421197c17712bedbec55e42b4493fc" target="_top" xlink:title="Print the address into the defined buffer.">
<polygon fill="white" stroke="#666666" points="400.5,-56 305.5,-56 305.5,-37 400.5,-37 400.5,-56"/>
<text text-anchor="middle" x="353" y="-44" font-family="Helvetica,sans-Serif" font-size="10.00">coap_print_addr</text>
</a>
</g>
</g>
<!-- Node2&#45;&gt;Node3 -->
<g id="edge2_Node000002_Node000003" class="edge">
<title>Node2&#45;&gt;Node3</title>
<g id="a_edge2_Node000002_Node000003"><a xlink:title=" ">
<path fill="none" stroke="#63b8ff" d="M265.1,-34.36C274.81,-35.72 285.08,-37.15 295.03,-38.54"/>
<polygon fill="#63b8ff" stroke="#63b8ff" points="294.86,-42.05 305.24,-39.97 295.82,-35.12 294.86,-42.05"/>
</a>
</g>
</g>
<!-- Node6 -->
<g id="Node000006" class="node">
<title>Node6</title>
<g id="a_Node000006"><a xlink:href="coap__session_8c.html#a3a2aa859a36db11e0c195174f907f116" target="_top" xlink:title=" ">
<polygon fill="white" stroke="#666666" points="405,-19 301,-19 301,0 405,0 405,-19"/>
<text text-anchor="middle" x="353" y="-7" font-family="Helvetica,sans-Serif" font-size="10.00">coap_proto_name</text>
</a>
</g>
</g>
<!-- Node2&#45;&gt;Node6 -->
<g id="edge5_Node000002_Node000006" class="edge">
<title>Node2&#45;&gt;Node6</title>
<g id="a_edge5_Node000002_Node000006"><a xlink:title=" ">
<path fill="none" stroke="#63b8ff" d="M265.1,-21C273.41,-19.9 282.13,-18.75 290.71,-17.61"/>
<polygon fill="#63b8ff" stroke="#63b8ff" points="291.23,-21.07 300.68,-16.29 290.31,-14.13 291.23,-21.07"/>
</a>
</g>
</g>
<!-- Node4 -->
<g id="Node000004" class="node">
<title>Node4</title>
<g id="a_Node000004"><a xlink:href="coap__address_8c.html#a694f57c7af8d83ebd2fbb8cf9236749d" target="_top" xlink:title="Returns the port from addr in host byte order.">
<polygon fill="white" stroke="#666666" points="570,-74 441,-74 441,-55 570,-55 570,-74"/>
<text text-anchor="middle" x="505.5" y="-62" font-family="Helvetica,sans-Serif" font-size="10.00">coap_address_get_port</text>
</a>
</g>
</g>
<!-- Node3&#45;&gt;Node4 -->
<g id="edge3_Node000003_Node000004" class="edge">
<title>Node3&#45;&gt;Node4</title>
<g id="a_edge3_Node000003_Node000004"><a xlink:title=" ">
<path fill="none" stroke="#63b8ff" d="M400.79,-52.1C410.31,-53.23 420.53,-54.46 430.72,-55.68"/>
<polygon fill="#63b8ff" stroke="#63b8ff" points="430.53,-59.18 440.87,-56.89 431.36,-52.23 430.53,-59.18"/>
</a>
</g>
</g>
<!-- Node5 -->
<g id="Node000005" class="node">
<title>Node5</title>
<g id="a_Node000005"><a xlink:href="group__logging.html#gace4fa18bde300fa06afd396a0a689031" target="_top" xlink:title="Print the IP address into the defined buffer.">
<polygon fill="white" stroke="#666666" points="560,-37 451,-37 451,-18 560,-18 560,-37"/>
<text text-anchor="middle" x="505.5" y="-25" font-family="Helvetica,sans-Serif" font-size="10.00">coap_print_ip_addr</text>
</a>
</g>
</g>
<!-- Node3&#45;&gt;Node5 -->
<g id="edge4_Node000003_Node000005" class="edge">
<title>Node3&#45;&gt;Node5</title>
<g id="a_edge4_Node000003_Node000005"><a xlink:title=" ">
<path fill="none" stroke="#63b8ff" d="M400.79,-40.59C413.45,-39 427.36,-37.24 440.77,-35.55"/>
<polygon fill="#63b8ff" stroke="#63b8ff" points="441.41,-38.99 450.9,-34.27 440.54,-32.05 441.41,-38.99"/>
</a>
</g>
</g>
</g>
</svg>
