<?xml version="1.0" encoding="UTF-8" standalone="no"?>
<!DOCTYPE svg PUBLIC "-//W3C//DTD SVG 1.1//EN"
 "http://www.w3.org/Graphics/SVG/1.1/DTD/svg11.dtd">
<!-- Generated by graphviz version 2.42.4 (0)
 -->
<!-- Title: coap_split_uri Pages: 1 -->
<svg width="402pt" height="175pt"
 viewBox="0.00 0.00 402.00 175.00" xmlns="http://www.w3.org/2000/svg" xmlns:xlink="http://www.w3.org/1999/xlink">
<g id="graph0" class="graph" transform="scale(1 1) rotate(0) translate(4 171)">
<title>coap_split_uri</title>
<!-- Node1 -->
<g id="Node000001" class="node">
<title>Node1</title>
<g id="a_Node000001"><a xlink:title="Parses a given string into URI components.">
<polygon fill="#999999" stroke="#666666" points="84,-93 0,-93 0,-74 84,-74 84,-93"/>
<text text-anchor="middle" x="42" y="-81" font-family="Helvetica,sans-Serif" font-size="10.00">coap_split_uri</text>
</a>
</g>
</g>
<!-- Node2 -->
<g id="Node000002" class="node">
<title>Node2</title>
<g id="a_Node000002"><a xlink:href="coap__uri_8c.html#a8890896e5d2defbaa2558aaea33b4c8a" target="_top" xlink:title=" ">
<polygon fill="white" stroke="#666666" points="227,-93 120,-93 120,-74 227,-74 227,-93"/>
<text text-anchor="middle" x="173.5" y="-81" font-family="Helvetica,sans-Serif" font-size="10.00">coap_split_uri_sub</text>
</a>
</g>
</g>
<!-- Node1&#45;&gt;Node2 -->
<g id="edge1_Node000001_Node000002" class="edge">
<title>Node1&#45;&gt;Node2</title>
<g id="a_edge1_Node000001_Node000002"><a xlink:title=" ">
<path fill="none" stroke="#63b8ff" d="M84.33,-83.5C92.42,-83.5 101.07,-83.5 109.67,-83.5"/>
<polygon fill="#63b8ff" stroke="#63b8ff" points="109.72,-87 119.72,-83.5 109.72,-80 109.72,-87"/>
</a>
</g>
</g>
<!-- Node3 -->
<g id="Node000003" class="node">
<title>Node3</title>
<g id="a_Node000003"><a xlink:href="group__supported.html#ga9def28dc6da3b77c14e89d63769ec085" target="_top" xlink:title="Check whether DTLS is available.">
<polygon fill="white" stroke="#666666" points="394,-167 263,-167 263,-148 394,-148 394,-167"/>
<text text-anchor="middle" x="328.5" y="-155" font-family="Helvetica,sans-Serif" font-size="10.00">coap_dtls_is_supported</text>
</a>
</g>
</g>
<!-- Node2&#45;&gt;Node3 -->
<g id="edge2_Node000002_Node000003" class="edge">
<title>Node2&#45;&gt;Node3</title>
<g id="a_edge2_Node000002_Node000003"><a xlink:title=" ">
<path fill="none" stroke="#63b8ff" d="M187.02,-93.1C203.59,-105.4 234.09,-126.65 263,-139.5 267.35,-141.43 271.96,-143.21 276.64,-144.83"/>
<polygon fill="#63b8ff" stroke="#63b8ff" points="275.67,-148.2 286.27,-147.93 277.82,-141.53 275.67,-148.2"/>
</a>
</g>
</g>
<!-- Node4 -->
<g id="Node000004" class="node">
<title>Node4</title>
<g id="a_Node000004"><a xlink:href="group__supported.html#ga2d25d72f564c765b85708b26ee01e27e" target="_top" xlink:title="Check whether TCP is available.">
<polygon fill="white" stroke="#666666" points="392.5,-130 264.5,-130 264.5,-111 392.5,-111 392.5,-130"/>
<text text-anchor="middle" x="328.5" y="-118" font-family="Helvetica,sans-Serif" font-size="10.00">coap_tcp_is_supported</text>
</a>
</g>
</g>
<!-- Node2&#45;&gt;Node4 -->
<g id="edge3_Node000002_Node000004" class="edge">
<title>Node2&#45;&gt;Node4</title>
<g id="a_edge3_Node000002_Node000004"><a xlink:title=" ">
<path fill="none" stroke="#63b8ff" d="M213.9,-93.03C233.46,-97.76 257.28,-103.52 278.05,-108.54"/>
<polygon fill="#63b8ff" stroke="#63b8ff" points="277.42,-111.99 287.97,-110.94 279.07,-105.19 277.42,-111.99"/>
</a>
</g>
</g>
<!-- Node5 -->
<g id="Node000005" class="node">
<title>Node5</title>
<g id="a_Node000005"><a xlink:href="group__supported.html#ga55b3b545f0784c7a6135021017317e1b" target="_top" xlink:title="Check whether TLS is available.">
<polygon fill="white" stroke="#666666" points="391,-93 266,-93 266,-74 391,-74 391,-93"/>
<text text-anchor="middle" x="328.5" y="-81" font-family="Helvetica,sans-Serif" font-size="10.00">coap_tls_is_supported</text>
</a>
</g>
</g>
<!-- Node2&#45;&gt;Node5 -->
<g id="edge4_Node000002_Node000005" class="edge">
<title>Node2&#45;&gt;Node5</title>
<g id="a_edge4_Node000002_Node000005"><a xlink:title=" ">
<path fill="none" stroke="#63b8ff" d="M227.15,-83.5C236.29,-83.5 245.94,-83.5 255.49,-83.5"/>
<polygon fill="#63b8ff" stroke="#63b8ff" points="255.79,-87 265.79,-83.5 255.79,-80 255.79,-87"/>
</a>
</g>
</g>
<!-- Node6 -->
<g id="Node000006" class="node">
<title>Node6</title>
<g id="a_Node000006"><a xlink:href="group__supported.html#ga85ebb276d1475de14d90e103b255c749" target="_top" xlink:title="Check whether WebSockets is available.">
<polygon fill="white" stroke="#666666" points="391.5,-56 265.5,-56 265.5,-37 391.5,-37 391.5,-56"/>
<text text-anchor="middle" x="328.5" y="-44" font-family="Helvetica,sans-Serif" font-size="10.00">coap_ws_is_supported</text>
</a>
</g>
</g>
<!-- Node2&#45;&gt;Node6 -->
<g id="edge5_Node000002_Node000006" class="edge">
<title>Node2&#45;&gt;Node6</title>
<g id="a_edge5_Node000002_Node000006"><a xlink:title=" ">
<path fill="none" stroke="#63b8ff" d="M213.9,-73.97C233.46,-69.24 257.28,-63.48 278.05,-58.46"/>
<polygon fill="#63b8ff" stroke="#63b8ff" points="279.07,-61.81 287.97,-56.06 277.42,-55.01 279.07,-61.81"/>
</a>
</g>
</g>
<!-- Node7 -->
<g id="Node000007" class="node">
<title>Node7</title>
<g id="a_Node000007"><a xlink:href="group__supported.html#gae3150f4272480b18b3771e6b6465624e" target="_top" xlink:title="Check whether Secure WebSockets is available.">
<polygon fill="white" stroke="#666666" points="394,-19 263,-19 263,0 394,0 394,-19"/>
<text text-anchor="middle" x="328.5" y="-7" font-family="Helvetica,sans-Serif" font-size="10.00">coap_wss_is_supported</text>
</a>
</g>
</g>
<!-- Node2&#45;&gt;Node7 -->
<g id="edge6_Node000002_Node000007" class="edge">
<title>Node2&#45;&gt;Node7</title>
<g id="a_edge6_Node000002_Node000007"><a xlink:title=" ">
<path fill="none" stroke="#63b8ff" d="M187.37,-73.94C204.06,-61.92 234.44,-41.3 263,-28.5 268.06,-26.23 273.46,-24.15 278.91,-22.27"/>
<polygon fill="#63b8ff" stroke="#63b8ff" points="280.26,-25.51 288.69,-19.09 278.09,-18.85 280.26,-25.51"/>
</a>
</g>
</g>
</g>
</svg>
