<?xml version="1.0" encoding="UTF-8" standalone="no"?>
<!DOCTYPE svg PUBLIC "-//W3C//DTD SVG 1.1//EN"
 "http://www.w3.org/Graphics/SVG/1.1/DTD/svg11.dtd">
<!-- Generated by graphviz version 2.42.4 (0)
 -->
<!-- Title: oscore_prepare_aad Pages: 1 -->
<svg width="558pt" height="101pt"
 viewBox="0.00 0.00 558.00 101.00" xmlns="http://www.w3.org/2000/svg" xmlns:xlink="http://www.w3.org/1999/xlink">
<g id="graph0" class="graph" transform="scale(1 1) rotate(0) translate(4 97)">
<title>oscore_prepare_aad</title>
<!-- Node1 -->
<g id="Node000001" class="node">
<title>Node1</title>
<g id="a_Node000001"><a xlink:title=" ">
<polygon fill="#999999" stroke="#666666" points="115,-56 0,-56 0,-37 115,-37 115,-56"/>
<text text-anchor="middle" x="57.5" y="-44" font-family="Helvetica,sans-Serif" font-size="10.00">oscore_prepare_aad</text>
</a>
</g>
</g>
<!-- Node2 -->
<g id="Node000002" class="node">
<title>Node2</title>
<g id="a_Node000002"><a xlink:href="group__oscore__cbor__internal.html#gae8bbc18aeabe6d51af22d14e6173cfcb" target="_top" xlink:title=" ">
<polygon fill="white" stroke="#666666" points="278.5,-93 151.5,-93 151.5,-74 278.5,-74 278.5,-93"/>
<text text-anchor="middle" x="215" y="-81" font-family="Helvetica,sans-Serif" font-size="10.00">oscore_cbor_put_array</text>
</a>
</g>
</g>
<!-- Node1&#45;&gt;Node2 -->
<g id="edge1_Node000001_Node000002" class="edge">
<title>Node1&#45;&gt;Node2</title>
<g id="a_edge1_Node000001_Node000002"><a xlink:title=" ">
<path fill="none" stroke="#63b8ff" d="M98.55,-56.03C118.51,-60.78 142.85,-66.57 164.03,-71.61"/>
<polygon fill="#63b8ff" stroke="#63b8ff" points="163.28,-75.03 173.82,-73.94 164.9,-68.22 163.28,-75.03"/>
</a>
</g>
</g>
<!-- Node5 -->
<g id="Node000005" class="node">
<title>Node5</title>
<g id="a_Node000005"><a xlink:href="group__oscore__cbor__internal.html#gab522fc54802924a45f07ccdc67ebe759" target="_top" xlink:title=" ">
<polygon fill="white" stroke="#666666" points="279,-56 151,-56 151,-37 279,-37 279,-56"/>
<text text-anchor="middle" x="215" y="-44" font-family="Helvetica,sans-Serif" font-size="10.00">oscore_cbor_put_bytes</text>
</a>
</g>
</g>
<!-- Node1&#45;&gt;Node5 -->
<g id="edge4_Node000001_Node000005" class="edge">
<title>Node1&#45;&gt;Node5</title>
<g id="a_edge4_Node000001_Node000005"><a xlink:title=" ">
<path fill="none" stroke="#63b8ff" d="M115.08,-46.5C123.44,-46.5 132.16,-46.5 140.8,-46.5"/>
<polygon fill="#63b8ff" stroke="#63b8ff" points="140.89,-50 150.89,-46.5 140.89,-43 140.89,-50"/>
</a>
</g>
</g>
<!-- Node6 -->
<g id="Node000006" class="node">
<title>Node6</title>
<g id="a_Node000006"><a xlink:href="group__oscore__cbor__internal.html#ga33220964133ed4909c8327b9b0b31868" target="_top" xlink:title=" ">
<polygon fill="white" stroke="#666666" points="275.5,-19 154.5,-19 154.5,0 275.5,0 275.5,-19"/>
<text text-anchor="middle" x="215" y="-7" font-family="Helvetica,sans-Serif" font-size="10.00">oscore_cbor_put_text</text>
</a>
</g>
</g>
<!-- Node1&#45;&gt;Node6 -->
<g id="edge6_Node000001_Node000006" class="edge">
<title>Node1&#45;&gt;Node6</title>
<g id="a_edge6_Node000001_Node000006"><a xlink:title=" ">
<path fill="none" stroke="#63b8ff" d="M98.55,-36.97C118.51,-32.22 142.85,-26.43 164.03,-21.39"/>
<polygon fill="#63b8ff" stroke="#63b8ff" points="164.9,-24.78 173.82,-19.06 163.28,-17.97 164.9,-24.78"/>
</a>
</g>
</g>
<!-- Node3 -->
<g id="Node000003" class="node">
<title>Node3</title>
<g id="a_Node000003"><a xlink:href="group__oscore__cbor__internal.html#gab2b2acacb1b2fbf82de02ce4a4d05306" target="_top" xlink:title=" ">
<polygon fill="white" stroke="#666666" points="461,-56 315,-56 315,-37 461,-37 461,-56"/>
<text text-anchor="middle" x="388" y="-44" font-family="Helvetica,sans-Serif" font-size="10.00">oscore_cbor_put_unsigned</text>
</a>
</g>
</g>
<!-- Node2&#45;&gt;Node3 -->
<g id="edge2_Node000002_Node000003" class="edge">
<title>Node2&#45;&gt;Node3</title>
<g id="a_edge2_Node000002_Node000003"><a xlink:title=" ">
<path fill="none" stroke="#63b8ff" d="M260.04,-73.97C282.29,-69.16 309.49,-63.27 332.99,-58.19"/>
<polygon fill="#63b8ff" stroke="#63b8ff" points="333.78,-61.6 342.82,-56.06 332.3,-54.75 333.78,-61.6"/>
</a>
</g>
</g>
<!-- Node4 -->
<g id="Node000004" class="node">
<title>Node4</title>
<g id="a_Node000004"><a xlink:href="oscore__cbor_8c.html#aba97ba36fc049fca79bd25b249ecc931" target="_top" xlink:title=" ">
<polygon fill="white" stroke="#666666" points="550,-56 497,-56 497,-37 550,-37 550,-56"/>
<text text-anchor="middle" x="523.5" y="-44" font-family="Helvetica,sans-Serif" font-size="10.00">put_b_f</text>
</a>
</g>
</g>
<!-- Node3&#45;&gt;Node4 -->
<g id="edge3_Node000003_Node000004" class="edge">
<title>Node3&#45;&gt;Node4</title>
<g id="a_edge3_Node000003_Node000004"><a xlink:title=" ">
<path fill="none" stroke="#63b8ff" d="M461.22,-46.5C470.11,-46.5 478.86,-46.5 486.85,-46.5"/>
<polygon fill="#63b8ff" stroke="#63b8ff" points="486.86,-50 496.86,-46.5 486.86,-43 486.86,-50"/>
</a>
</g>
</g>
<!-- Node5&#45;&gt;Node3 -->
<g id="edge5_Node000005_Node000003" class="edge">
<title>Node5&#45;&gt;Node3</title>
<g id="a_edge5_Node000005_Node000003"><a xlink:title=" ">
<path fill="none" stroke="#63b8ff" d="M279.19,-46.5C287.53,-46.5 296.18,-46.5 304.78,-46.5"/>
<polygon fill="#63b8ff" stroke="#63b8ff" points="304.84,-50 314.84,-46.5 304.84,-43 304.84,-50"/>
</a>
</g>
</g>
<!-- Node6&#45;&gt;Node3 -->
<g id="edge7_Node000006_Node000003" class="edge">
<title>Node6&#45;&gt;Node3</title>
<g id="a_edge7_Node000006_Node000003"><a xlink:title=" ">
<path fill="none" stroke="#63b8ff" d="M260.04,-19.03C282.29,-23.84 309.49,-29.73 332.99,-34.81"/>
<polygon fill="#63b8ff" stroke="#63b8ff" points="332.3,-38.25 342.82,-36.94 333.78,-31.4 332.3,-38.25"/>
</a>
</g>
</g>
</g>
</svg>
