<?xml version="1.0" encoding="UTF-8" standalone="no"?>
<!DOCTYPE svg PUBLIC "-//W3C//DTD SVG 1.1//EN"
 "http://www.w3.org/Graphics/SVG/1.1/DTD/svg11.dtd">
<!-- Generated by graphviz version 2.42.4 (0)
 -->
<!-- Title: coap_session_free Pages: 1 -->
<!--zoomable 582 -->

<svg id="main" version="1.1" xmlns="http://www.w3.org/2000/svg" xmlns:xlink="http://www.w3.org/1999/xlink" xml:space="preserve" onload="init(evt)">
<style type="text/css"><![CDATA[
.node, .edge {opacity: 0.7;}
.node.selected, .edge.selected {opacity: 1;}
.edge:hover path { stroke: red; }
.edge:hover polygon { stroke: red; fill: red; }
]]></style>

<defs>
  <circle id="rim" cx="0" cy="0" r="7"/>
  <circle id="rim2" cx="0" cy="0" r="3.5"/>
  <g id="zoomPlus">
    <use xlink:href="#rim" fill="#404040"><set attributeName="fill" to="#808080" begin="zoomplus.mouseover" end="zoomplus.mouseout"/></use>
    <path d="M-4,0h8M0,-4v8" fill="none" stroke="white" stroke-width="1.5" pointer-events="none"/>
  </g>
  <g id="zoomMin">
    <use xlink:href="#rim" fill="#404040"><set attributeName="fill" to="#808080" begin="zoomminus.mouseover" end="zoomminus.mouseout"/></use>
    <path d="M-4,0h8" fill="none" stroke="white" stroke-width="1.5" pointer-events="none"/>
  </g>
  <g id="arrowUp" transform="translate(30 24)">
    <use xlink:href="#rim"/>
    <path pointer-events="none" fill="none" stroke="white" stroke-width="1.5" d="M0,-3.0v7 M-2.5,-0.5L0,-3.0L2.5,-0.5"/>
  </g>
  <g id="arrowRight" transform="rotate(90) translate(36 -43)">
    <use xlink:href="#rim"/>
    <path pointer-events="none" fill="none" stroke="white" stroke-width="1.5" d="M0,-3.0v7 M-2.5,-0.5L0,-3.0L2.5,-0.5"/>
  </g>
  <g id="arrowDown" transform="rotate(180) translate(-30 -48)">
    <use xlink:href="#rim"/>
    <path pointer-events="none" fill="none" stroke="white" stroke-width="1.5" d="M0,-3.0v7 M-2.5,-0.5L0,-3.0L2.5,-0.5"/>
  </g>
  <g id="arrowLeft" transform="rotate(270) translate(-36 17)">
    <use xlink:href="#rim"/>
    <path pointer-events="none" fill="none" stroke="white" stroke-width="1.5" d="M0,-3.0v7 M-2.5,-0.5L0,-3.0L2.5,-0.5"/>
  </g>
  <g id="resetDef">
    <use xlink:href="#rim2" fill="#404040"><set attributeName="fill" to="#808080" begin="reset.mouseover" end="reset.mouseout"/></use>
  </g>
</defs>
<script type="application/ecmascript">
var viewWidth = 974;
var viewHeight = 582;
var sectionId = 'dynsection-14';
</script>
<script type="application/ecmascript" xlink:href="svg.min.js"/>
<svg id="graph" class="graph">
<g id="viewport">
<title>coap_session_free</title>
<!-- Node1 -->
<g id="Node000001" class="node">
<title>Node1</title>
<g id="a_Node000001"><a xlink:title=" ">
<polygon fill="#999999" stroke="#666666" points="107,-389 0,-389 0,-370 107,-370 107,-389"/>
<text text-anchor="middle" x="53.5" y="-377" font-family="Helvetica,sans-Serif" font-size="10.00">coap_session_free</text>
</a>
</g>
</g>
<!-- Node2 -->
<g id="Node000002" class="node">
<title>Node2</title>
<g id="a_Node000002"><a xlink:href="group__string.html#ga49db62401f34ee892cf08826c69973a0" target="_top" xlink:title="Deletes the given const binary data and releases any memory allocated.">
<polygon fill="white" stroke="#666666" points="471.5,-519 343.5,-519 343.5,-500 471.5,-500 471.5,-519"/>
<text text-anchor="middle" x="407.5" y="-507" font-family="Helvetica,sans-Serif" font-size="10.00">coap_delete_bin_const</text>
</a>
</g>
</g>
<!-- Node1&#45;&gt;Node2 -->
<g id="edge1_Node000001_Node000002" class="edge">
<title>Node1&#45;&gt;Node2</title>
<g id="a_edge1_Node000001_Node000002"><a xlink:title=" ">
<path fill="none" stroke="#63b8ff" d="M75.43,-389.12C121.32,-409.93 234.52,-459.82 333,-491.5 339.47,-493.58 346.33,-495.56 353.15,-497.38"/>
<polygon fill="#63b8ff" stroke="#63b8ff" points="352.51,-500.83 363.07,-499.95 354.27,-494.06 352.51,-500.83"/>
</a>
</g>
</g>
<!-- Node3 -->
<g id="Node000003" class="node">
<title>Node3</title>
<g id="a_Node000003"><a xlink:href="coap__mem_8h.html#ae7214e0c73a4d4290525873e739ed422" target="_top" xlink:title="Releases the memory that was allocated by coap_malloc_type().">
<polygon fill="white" stroke="#666666" points="795,-252 703,-252 703,-233 795,-233 795,-252"/>
<text text-anchor="middle" x="749" y="-240" font-family="Helvetica,sans-Serif" font-size="10.00">coap_free_type</text>
</a>
</g>
</g>
<!-- Node1&#45;&gt;Node3 -->
<g id="edge3_Node000001_Node000003" class="edge">
<title>Node1&#45;&gt;Node3</title>
<g id="a_edge3_Node000001_Node000003"><a xlink:title=" ">
<path fill="none" stroke="#63b8ff" d="M58.37,-389.21C68.43,-413.11 97.78,-475.02 143,-505.5 268.99,-590.41 334.17,-584.57 482,-549.5 568.64,-528.94 600.75,-525.07 661,-459.5 715.22,-400.49 737.55,-303.43 744.94,-262.11"/>
<polygon fill="#63b8ff" stroke="#63b8ff" points="748.43,-262.45 746.64,-252.01 741.52,-261.29 748.43,-262.45"/>
</a>
</g>
</g>
<!-- Node4 -->
<g id="Node000004" class="node">
<title>Node4</title>
<g id="a_Node000004"><a xlink:href="group__session__internal.html#gab91ca670624ee770714727efff274c49" target="_top" xlink:title=" ">
<polygon fill="white" stroke="#666666" points="278,-333 162,-333 162,-314 278,-314 278,-333"/>
<text text-anchor="middle" x="220" y="-321" font-family="Helvetica,sans-Serif" font-size="10.00">coap_session_mfree</text>
</a>
</g>
</g>
<!-- Node1&#45;&gt;Node4 -->
<g id="edge4_Node000001_Node000004" class="edge">
<title>Node1&#45;&gt;Node4</title>
<g id="a_edge4_Node000001_Node000004"><a xlink:title=" ">
<path fill="none" stroke="#63b8ff" d="M82.78,-369.87C110.01,-360.6 151.39,-346.52 181.39,-336.3"/>
<polygon fill="#63b8ff" stroke="#63b8ff" points="182.75,-339.54 191.09,-333 180.5,-332.91 182.75,-339.54"/>
</a>
</g>
</g>
<!-- Node10 -->
<g id="Node000010" class="node">
<title>Node10</title>
<g id="a_Node000010"><a xlink:href="group__logging.html#gabf09c67f27059ca278900e7e8fdd475e" target="_top" xlink:title="Get session description.">
<polygon fill="white" stroke="#666666" points="639.5,-64 539.5,-64 539.5,-45 639.5,-45 639.5,-64"/>
<text text-anchor="middle" x="589.5" y="-52" font-family="Helvetica,sans-Serif" font-size="10.00">coap_session_str</text>
</a>
</g>
</g>
<!-- Node1&#45;&gt;Node10 -->
<g id="edge35_Node000001_Node000010" class="edge">
<title>Node1&#45;&gt;Node10</title>
<g id="a_edge35_Node000001_Node000010"><a xlink:title=" ">
<path fill="none" stroke="#63b8ff" d="M59.27,-369.94C82.09,-325.36 185.3,-136.99 333,-66.5 394.93,-36.94 475.2,-38.7 529.1,-44.73"/>
<polygon fill="#63b8ff" stroke="#63b8ff" points="528.83,-48.22 539.18,-45.94 529.67,-41.27 528.83,-48.22"/>
</a>
</g>
</g>
<!-- Node24 -->
<g id="Node000024" class="node">
<title>Node24</title>
<g id="a_Node000024"><a xlink:href="group__session__internal.html#gae3280ec7e63cc48d05fd8d3b46a838a6" target="_top" xlink:title="Increment reference counter on a session.">
<polygon fill="white" stroke="#666666" points="297,-19 143,-19 143,0 297,0 297,-19"/>
<text text-anchor="middle" x="220" y="-7" font-family="Helvetica,sans-Serif" font-size="10.00">coap_session_reference_lkd</text>
</a>
</g>
</g>
<!-- Node1&#45;&gt;Node24 -->
<g id="edge34_Node000001_Node000024" class="edge">
<title>Node1&#45;&gt;Node24</title>
<g id="a_edge34_Node000001_Node000024"><a xlink:title=" ">
<path fill="none" stroke="#63b8ff" d="M55.7,-369.83C62.17,-319.18 94.42,-84.85 143,-33.5 146.65,-29.64 150.92,-26.4 155.53,-23.68"/>
<polygon fill="#63b8ff" stroke="#63b8ff" points="157.38,-26.66 164.76,-19.06 154.25,-20.4 157.38,-26.66"/>
</a>
</g>
</g>
<!-- Node2&#45;&gt;Node3 -->
<g id="edge2_Node000002_Node000003" class="edge">
<title>Node2&#45;&gt;Node3</title>
<g id="a_edge2_Node000002_Node000003"><a xlink:title=" ">
<path fill="none" stroke="#63b8ff" d="M463.23,-499.99C519.22,-487.69 605.62,-461.25 661,-408.5 705.64,-365.97 731.86,-295.45 742.47,-261.68"/>
<polygon fill="#63b8ff" stroke="#63b8ff" points="745.83,-262.67 745.37,-252.09 739.13,-260.65 745.83,-262.67"/>
</a>
</g>
</g>
<!-- Node4&#45;&gt;Node2 -->
<g id="edge20_Node000004_Node000002" class="edge">
<title>Node4&#45;&gt;Node2</title>
<g id="a_edge20_Node000004_Node000002"><a xlink:title=" ">
<path fill="none" stroke="#63b8ff" d="M229.4,-333.07C244.13,-350.12 275.13,-387.18 297,-421.5 315.8,-451 305.53,-469.83 333,-491.5 334.62,-492.78 336.33,-493.97 338.09,-495.08"/>
<polygon fill="#63b8ff" stroke="#63b8ff" points="336.89,-498.4 347.37,-499.96 340.15,-492.21 336.89,-498.4"/>
</a>
</g>
</g>
<!-- Node4&#45;&gt;Node3 -->
<g id="edge33_Node000004_Node000003" class="edge">
<title>Node4&#45;&gt;Node3</title>
<g id="a_edge33_Node000004_Node000003"><a xlink:title=" ">
<path fill="none" stroke="#63b8ff" d="M278.26,-329.35C363.88,-336.09 529.3,-341.32 661,-298.5 686.89,-290.08 712.62,-272 729.31,-258.65"/>
<polygon fill="#63b8ff" stroke="#63b8ff" points="731.67,-261.24 737.16,-252.17 727.22,-255.84 731.67,-261.24"/>
</a>
</g>
</g>
<!-- Node5 -->
<g id="Node000005" class="node">
<title>Node5</title>
<g id="a_Node000005"><a xlink:href="group__block__internal.html#ga5fcd0b912223ec083d4f6f68f5e8cc61" target="_top" xlink:title=" ">
<polygon fill="white" stroke="#666666" points="481,-95 334,-95 334,-76 481,-76 481,-95"/>
<text text-anchor="middle" x="407.5" y="-83" font-family="Helvetica,sans-Serif" font-size="10.00">coap_block_delete_lg_crcv</text>
</a>
</g>
</g>
<!-- Node4&#45;&gt;Node5 -->
<g id="edge5_Node000004_Node000005" class="edge">
<title>Node4&#45;&gt;Node5</title>
<g id="a_edge5_Node000004_Node000005"><a xlink:title=" ">
<path fill="none" stroke="#63b8ff" d="M223.28,-313.74C231.66,-280.13 263.85,-168 333,-109.5 337.91,-105.35 343.56,-101.91 349.49,-99.06"/>
<polygon fill="#63b8ff" stroke="#63b8ff" points="351.13,-102.17 358.99,-95.06 348.42,-95.72 351.13,-102.17"/>
</a>
</g>
</g>
<!-- Node6 -->
<g id="Node000006" class="node">
<title>Node6</title>
<g id="a_Node000006"><a xlink:href="group__block__internal.html#ga0f15ee33e2d5d188d0402f14631754e6" target="_top" xlink:title=" ">
<polygon fill="white" stroke="#666666" points="481,-482 334,-482 334,-463 481,-463 481,-482"/>
<text text-anchor="middle" x="407.5" y="-470" font-family="Helvetica,sans-Serif" font-size="10.00">coap_block_delete_lg_srcv</text>
</a>
</g>
</g>
<!-- Node4&#45;&gt;Node6 -->
<g id="edge6_Node000004_Node000006" class="edge">
<title>Node4&#45;&gt;Node6</title>
<g id="a_edge6_Node000004_Node000006"><a xlink:title=" ">
<path fill="none" stroke="#63b8ff" d="M227.96,-333.07C248.02,-360.43 306.24,-438.03 333,-454.5 335.8,-456.22 338.75,-457.78 341.8,-459.19"/>
<polygon fill="#63b8ff" stroke="#63b8ff" points="340.6,-462.48 351.18,-462.98 343.22,-455.99 340.6,-462.48"/>
</a>
</g>
</g>
<!-- Node7 -->
<g id="Node000007" class="node">
<title>Node7</title>
<g id="a_Node000007"><a xlink:href="group__block__internal.html#ga97dae4d1698d414de1d80c5efbdc6dce" target="_top" xlink:title=" ">
<polygon fill="white" stroke="#666666" points="482,-171 333,-171 333,-152 482,-152 482,-171"/>
<text text-anchor="middle" x="407.5" y="-159" font-family="Helvetica,sans-Serif" font-size="10.00">coap_block_delete_lg_xmit</text>
</a>
</g>
</g>
<!-- Node4&#45;&gt;Node7 -->
<g id="edge7_Node000004_Node000007" class="edge">
<title>Node4&#45;&gt;Node7</title>
<g id="a_edge7_Node000004_Node000007"><a xlink:title=" ">
<path fill="none" stroke="#63b8ff" d="M226.15,-313.88C240.02,-288.93 280.62,-221.51 333,-185.5 339.24,-181.21 346.29,-177.65 353.5,-174.7"/>
<polygon fill="#63b8ff" stroke="#63b8ff" points="355.2,-177.8 363.36,-171.05 352.77,-171.24 355.2,-177.8"/>
</a>
</g>
</g>
<!-- Node15 -->
<g id="Node000015" class="node">
<title>Node15</title>
<g id="a_Node000015"><a xlink:href="group__subscribe__internal.html#ga47af018c34d4e3ffa0c6dcc62662550f" target="_top" xlink:title="Cancel an observe that is being tracked by the client large receive logic.">
<polygon fill="white" stroke="#666666" points="478,-445 337,-445 337,-426 478,-426 478,-445"/>
<text text-anchor="middle" x="407.5" y="-433" font-family="Helvetica,sans-Serif" font-size="10.00">coap_cancel_observe_lkd</text>
</a>
</g>
</g>
<!-- Node4&#45;&gt;Node15 -->
<g id="edge18_Node000004_Node000015" class="edge">
<title>Node4&#45;&gt;Node15</title>
<g id="a_edge18_Node000004_Node000015"><a xlink:title=" ">
<path fill="none" stroke="#63b8ff" d="M229.53,-333.16C246.97,-352.29 288.85,-395.12 333,-417.5 336.76,-419.4 340.73,-421.11 344.79,-422.65"/>
<polygon fill="#63b8ff" stroke="#63b8ff" points="343.82,-426.01 354.42,-425.92 346.07,-419.39 343.82,-426.01"/>
</a>
</g>
</g>
<!-- Node16 -->
<g id="Node000016" class="node">
<title>Node16</title>
<g id="a_Node000016"><a xlink:href="group__block__internal.html#ga8be3c172347c4911d683e6fd7855dea3" target="_top" xlink:title="The function checks if the token needs to be updated before PDU is presented to the application (only...">
<polygon fill="white" stroke="#666666" points="480,-408 335,-408 335,-389 480,-389 480,-408"/>
<text text-anchor="middle" x="407.5" y="-396" font-family="Helvetica,sans-Serif" font-size="10.00">coap_check_update_token</text>
</a>
</g>
</g>
<!-- Node4&#45;&gt;Node16 -->
<g id="edge19_Node000004_Node000016" class="edge">
<title>Node4&#45;&gt;Node16</title>
<g id="a_edge19_Node000004_Node000016"><a xlink:title=" ">
<path fill="none" stroke="#63b8ff" d="M236.79,-333.02C258.01,-345.45 297.21,-367.21 333,-380.5 338.6,-382.58 344.53,-384.49 350.5,-386.22"/>
<polygon fill="#63b8ff" stroke="#63b8ff" points="349.96,-389.7 360.52,-388.97 351.81,-382.95 349.96,-389.7"/>
</a>
</g>
</g>
<!-- Node17 -->
<g id="Node000017" class="node">
<title>Node17</title>
<g id="a_Node000017"><a xlink:href="group__cache.html#ga09e46fc4bba8b37115a3fb964b76b21c" target="_top" xlink:title="Remove a cache&#45;entry from the hash list and free off all the appropriate contents apart from app_data...">
<polygon fill="white" stroke="#666666" points="477.5,-371 337.5,-371 337.5,-352 477.5,-352 477.5,-371"/>
<text text-anchor="middle" x="407.5" y="-359" font-family="Helvetica,sans-Serif" font-size="10.00">coap_delete_cache_entry</text>
</a>
</g>
</g>
<!-- Node4&#45;&gt;Node17 -->
<g id="edge21_Node000004_Node000017" class="edge">
<title>Node4&#45;&gt;Node17</title>
<g id="a_edge21_Node000004_Node000017"><a xlink:title=" ">
<path fill="none" stroke="#63b8ff" d="M267.81,-333.09C292.84,-338.22 323.84,-344.57 350.18,-349.96"/>
<polygon fill="#63b8ff" stroke="#63b8ff" points="349.53,-353.4 360.03,-351.98 350.93,-346.54 349.53,-353.4"/>
</a>
</g>
</g>
<!-- Node18 -->
<g id="Node000018" class="node">
<title>Node18</title>
<g id="a_Node000018"><a xlink:href="group__context__internal.html#ga216f04b70bac28bb702e5a799ce06bb9" target="_top" xlink:title="Destroys specified node.">
<polygon fill="white" stroke="#666666" points="470,-247 345,-247 345,-228 470,-228 470,-247"/>
<text text-anchor="middle" x="407.5" y="-235" font-family="Helvetica,sans-Serif" font-size="10.00">coap_delete_node_lkd</text>
</a>
</g>
</g>
<!-- Node4&#45;&gt;Node18 -->
<g id="edge22_Node000004_Node000018" class="edge">
<title>Node4&#45;&gt;Node18</title>
<g id="a_edge22_Node000004_Node000018"><a xlink:title=" ">
<path fill="none" stroke="#63b8ff" d="M234.13,-313.93C254.4,-299.56 294.95,-272.41 333,-256.5 338.83,-254.06 345.04,-251.87 351.31,-249.92"/>
<polygon fill="#63b8ff" stroke="#63b8ff" points="352.51,-253.22 361.13,-247.06 350.55,-246.5 352.51,-253.22"/>
</a>
</g>
</g>
<!-- Node19 -->
<g id="Node000019" class="node">
<title>Node19</title>
<g id="a_Node000019"><a xlink:href="group__pdu.html#ga48581f968a30ef4278702eb1c16b7a90" target="_top" xlink:title="Dispose of an CoAP PDU and frees associated storage.">
<polygon fill="white" stroke="#666666" points="639,-252 540,-252 540,-233 639,-233 639,-252"/>
<text text-anchor="middle" x="589.5" y="-240" font-family="Helvetica,sans-Serif" font-size="10.00">coap_delete_pdu</text>
</a>
</g>
</g>
<!-- Node4&#45;&gt;Node19 -->
<g id="edge30_Node000004_Node000019" class="edge">
<title>Node4&#45;&gt;Node19</title>
<g id="a_edge30_Node000004_Node000019"><a xlink:title=" ">
<path fill="none" stroke="#63b8ff" d="M227.41,-313.86C242.62,-291.99 283.36,-238.99 333,-219.5 394.64,-195.29 416.15,-212.47 482,-219.5 502.41,-221.68 524.65,-226.14 543.5,-230.56"/>
<polygon fill="#63b8ff" stroke="#63b8ff" points="542.76,-233.98 553.31,-232.93 544.41,-227.18 542.76,-233.98"/>
</a>
</g>
</g>
<!-- Node22 -->
<g id="Node000022" class="node">
<title>Node22</title>
<g id="a_Node000022"><a xlink:href="group__oscore__internal.html#gab3de65a4c87638438bc2cb6e5b30e312" target="_top" xlink:title="Cleanup all allocated OSCORE association information.">
<polygon fill="white" stroke="#666666" points="464,-295.5 351,-295.5 351,-265.5 464,-265.5 464,-295.5"/>
<text text-anchor="start" x="359" y="-283.5" font-family="Helvetica,sans-Serif" font-size="10.00">coap_delete_oscore</text>
<text text-anchor="middle" x="407.5" y="-272.5" font-family="Helvetica,sans-Serif" font-size="10.00">_associations</text>
</a>
</g>
</g>
<!-- Node4&#45;&gt;Node22 -->
<g id="edge29_Node000004_Node000022" class="edge">
<title>Node4&#45;&gt;Node22</title>
<g id="a_edge29_Node000004_Node000022"><a xlink:title=" ">
<path fill="none" stroke="#63b8ff" d="M262.17,-313.96C285.26,-308.6 314.61,-301.8 340.81,-295.73"/>
<polygon fill="#63b8ff" stroke="#63b8ff" points="341.72,-299.11 350.67,-293.44 340.14,-292.29 341.72,-299.11"/>
</a>
</g>
</g>
<!-- Node23 -->
<g id="Node000023" class="node">
<title>Node23</title>
<g id="a_Node000023"><a xlink:href="group__string.html#ga4c283744d0fa51b553bf3fc52488e4b0" target="_top" xlink:title="Deletes the given const string and releases any memory allocated.">
<polygon fill="white" stroke="#666666" points="652,-102 527,-102 527,-83 652,-83 652,-102"/>
<text text-anchor="middle" x="589.5" y="-90" font-family="Helvetica,sans-Serif" font-size="10.00">coap_delete_str_const</text>
</a>
</g>
</g>
<!-- Node4&#45;&gt;Node23 -->
<g id="edge31_Node000004_Node000023" class="edge">
<title>Node4&#45;&gt;Node23</title>
<g id="a_edge31_Node000004_Node000023"><a xlink:title=" ">
<path fill="none" stroke="#63b8ff" d="M223.96,-313.75C233.81,-283.1 268.55,-188.13 333,-143.5 362.21,-123.27 451.79,-108.67 516.64,-100.4"/>
<polygon fill="#63b8ff" stroke="#63b8ff" points="517.33,-103.84 526.82,-99.13 516.46,-96.89 517.33,-103.84"/>
</a>
</g>
</g>
<!-- Node7&#45;&gt;Node3 -->
<g id="edge12_Node000007_Node000003" class="edge">
<title>Node7&#45;&gt;Node3</title>
<g id="a_edge12_Node000007_Node000003"><a xlink:title=" ">
<path fill="none" stroke="#63b8ff" d="M439.19,-151.91C488.31,-138.33 586.65,-118.48 661,-150.5 695.8,-165.49 723.18,-202 737.36,-224.26"/>
<polygon fill="#63b8ff" stroke="#63b8ff" points="734.39,-226.13 742.6,-232.82 740.36,-222.47 734.39,-226.13"/>
</a>
</g>
</g>
<!-- Node8 -->
<g id="Node000008" class="node">
<title>Node8</title>
<g id="a_Node000008"><a xlink:href="group__string.html#ga5881b7726f26833abb90e30bd23730af" target="_top" xlink:title="Deletes the given coap_binary_t object and releases any memory allocated.">
<polygon fill="white" stroke="#666666" points="645.5,-215 533.5,-215 533.5,-196 645.5,-196 645.5,-215"/>
<text text-anchor="middle" x="589.5" y="-203" font-family="Helvetica,sans-Serif" font-size="10.00">coap_delete_binary</text>
</a>
</g>
</g>
<!-- Node7&#45;&gt;Node8 -->
<g id="edge8_Node000007_Node000008" class="edge">
<title>Node7&#45;&gt;Node8</title>
<g id="a_edge8_Node000007_Node000008"><a xlink:title=" ">
<path fill="none" stroke="#63b8ff" d="M447.56,-171.05C474.57,-177.65 510.7,-186.48 539.62,-193.55"/>
<polygon fill="#63b8ff" stroke="#63b8ff" points="538.97,-197 549.52,-195.97 540.64,-190.2 538.97,-197"/>
</a>
</g>
</g>
<!-- Node9 -->
<g id="Node000009" class="node">
<title>Node9</title>
<g id="a_Node000009"><a xlink:href="group__string.html#gad991c87cfcf9b2414d2dc430c8701ed3" target="_top" xlink:title="Deletes the given string and releases any memory allocated.">
<polygon fill="white" stroke="#666666" points="644,-178 535,-178 535,-159 644,-159 644,-178"/>
<text text-anchor="middle" x="589.5" y="-166" font-family="Helvetica,sans-Serif" font-size="10.00">coap_delete_string</text>
</a>
</g>
</g>
<!-- Node7&#45;&gt;Node9 -->
<g id="edge10_Node000007_Node000009" class="edge">
<title>Node7&#45;&gt;Node9</title>
<g id="a_edge10_Node000007_Node000009"><a xlink:title=" ">
<path fill="none" stroke="#63b8ff" d="M482.23,-164.37C496.31,-164.91 510.94,-165.48 524.68,-166.02"/>
<polygon fill="#63b8ff" stroke="#63b8ff" points="524.86,-169.53 534.99,-166.42 525.13,-162.53 524.86,-169.53"/>
</a>
</g>
</g>
<!-- Node7&#45;&gt;Node10 -->
<g id="edge13_Node000007_Node000010" class="edge">
<title>Node7&#45;&gt;Node10</title>
<g id="a_edge13_Node000007_Node000010"><a xlink:title=" ">
<path fill="none" stroke="#63b8ff" d="M421.4,-151.81C436.2,-140.62 461.12,-121.57 482,-104.5 498.35,-91.14 499.34,-83.38 518,-73.5 522.32,-71.21 526.95,-69.18 531.68,-67.38"/>
<polygon fill="#63b8ff" stroke="#63b8ff" points="533.17,-70.57 541.49,-64.01 530.89,-63.95 533.17,-70.57"/>
</a>
</g>
</g>
<!-- Node8&#45;&gt;Node3 -->
<g id="edge9_Node000008_Node000003" class="edge">
<title>Node8&#45;&gt;Node3</title>
<g id="a_edge9_Node000008_Node000003"><a xlink:title=" ">
<path fill="none" stroke="#63b8ff" d="M631.06,-215.03C651.28,-219.78 675.94,-225.57 697.38,-230.61"/>
<polygon fill="#63b8ff" stroke="#63b8ff" points="696.77,-234.06 707.3,-232.94 698.37,-227.25 696.77,-234.06"/>
</a>
</g>
</g>
<!-- Node9&#45;&gt;Node3 -->
<g id="edge11_Node000009_Node000003" class="edge">
<title>Node9&#45;&gt;Node3</title>
<g id="a_edge11_Node000009_Node000003"><a xlink:title=" ">
<path fill="none" stroke="#63b8ff" d="M634.08,-178.05C643.15,-180.64 652.53,-183.78 661,-187.5 685.11,-198.08 710.28,-214.7 727.31,-226.9"/>
<polygon fill="#63b8ff" stroke="#63b8ff" points="725.28,-229.75 735.42,-232.82 729.41,-224.1 725.28,-229.75"/>
</a>
</g>
</g>
<!-- Node11 -->
<g id="Node000011" class="node">
<title>Node11</title>
<g id="a_Node000011"><a xlink:href="group__logging.html#ga9e421197c17712bedbec55e42b4493fc" target="_top" xlink:title="Print the address into the defined buffer.">
<polygon fill="white" stroke="#666666" points="796.5,-83 701.5,-83 701.5,-64 796.5,-64 796.5,-83"/>
<text text-anchor="middle" x="749" y="-71" font-family="Helvetica,sans-Serif" font-size="10.00">coap_print_addr</text>
</a>
</g>
</g>
<!-- Node10&#45;&gt;Node11 -->
<g id="edge14_Node000010_Node000011" class="edge">
<title>Node10&#45;&gt;Node11</title>
<g id="a_edge14_Node000010_Node000011"><a xlink:title=" ">
<path fill="none" stroke="#63b8ff" d="M639.9,-60.46C656.19,-62.42 674.43,-64.62 691.22,-66.65"/>
<polygon fill="#63b8ff" stroke="#63b8ff" points="691.11,-70.16 701.46,-67.89 691.95,-63.21 691.11,-70.16"/>
</a>
</g>
</g>
<!-- Node14 -->
<g id="Node000014" class="node">
<title>Node14</title>
<g id="a_Node000014"><a xlink:href="coap__session_8c.html#a3a2aa859a36db11e0c195174f907f116" target="_top" xlink:title=" ">
<polygon fill="white" stroke="#666666" points="801,-46 697,-46 697,-27 801,-27 801,-46"/>
<text text-anchor="middle" x="749" y="-34" font-family="Helvetica,sans-Serif" font-size="10.00">coap_proto_name</text>
</a>
</g>
</g>
<!-- Node10&#45;&gt;Node14 -->
<g id="edge17_Node000010_Node000014" class="edge">
<title>Node10&#45;&gt;Node14</title>
<g id="a_edge17_Node000010_Node000014"><a xlink:title=" ">
<path fill="none" stroke="#63b8ff" d="M639.9,-48.85C654.78,-47.15 671.28,-45.27 686.82,-43.49"/>
<polygon fill="#63b8ff" stroke="#63b8ff" points="687.33,-46.96 696.87,-42.34 686.54,-40 687.33,-46.96"/>
</a>
</g>
</g>
<!-- Node12 -->
<g id="Node000012" class="node">
<title>Node12</title>
<g id="a_Node000012"><a xlink:href="coap__address_8c.html#a694f57c7af8d83ebd2fbb8cf9236749d" target="_top" xlink:title="Returns the port from addr in host byte order.">
<polygon fill="white" stroke="#666666" points="966,-101 837,-101 837,-82 966,-82 966,-101"/>
<text text-anchor="middle" x="901.5" y="-89" font-family="Helvetica,sans-Serif" font-size="10.00">coap_address_get_port</text>
</a>
</g>
</g>
<!-- Node11&#45;&gt;Node12 -->
<g id="edge15_Node000011_Node000012" class="edge">
<title>Node11&#45;&gt;Node12</title>
<g id="a_edge15_Node000011_Node000012"><a xlink:title=" ">
<path fill="none" stroke="#63b8ff" d="M796.79,-79.1C806.31,-80.23 816.53,-81.46 826.72,-82.68"/>
<polygon fill="#63b8ff" stroke="#63b8ff" points="826.53,-86.18 836.87,-83.89 827.36,-79.23 826.53,-86.18"/>
</a>
</g>
</g>
<!-- Node13 -->
<g id="Node000013" class="node">
<title>Node13</title>
<g id="a_Node000013"><a xlink:href="group__logging.html#gace4fa18bde300fa06afd396a0a689031" target="_top" xlink:title="Print the IP address into the defined buffer.">
<polygon fill="white" stroke="#666666" points="956,-64 847,-64 847,-45 956,-45 956,-64"/>
<text text-anchor="middle" x="901.5" y="-52" font-family="Helvetica,sans-Serif" font-size="10.00">coap_print_ip_addr</text>
</a>
</g>
</g>
<!-- Node11&#45;&gt;Node13 -->
<g id="edge16_Node000011_Node000013" class="edge">
<title>Node11&#45;&gt;Node13</title>
<g id="a_edge16_Node000011_Node000013"><a xlink:title=" ">
<path fill="none" stroke="#63b8ff" d="M796.79,-67.59C809.45,-66 823.36,-64.24 836.77,-62.55"/>
<polygon fill="#63b8ff" stroke="#63b8ff" points="837.41,-65.99 846.9,-61.27 836.54,-59.05 837.41,-65.99"/>
</a>
</g>
</g>
<!-- Node18&#45;&gt;Node19 -->
<g id="edge23_Node000018_Node000019" class="edge">
<title>Node18&#45;&gt;Node19</title>
<g id="a_edge23_Node000018_Node000019"><a xlink:title=" ">
<path fill="none" stroke="#63b8ff" d="M470.19,-239.21C489.52,-239.75 510.78,-240.34 529.88,-240.87"/>
<polygon fill="#63b8ff" stroke="#63b8ff" points="529.86,-244.37 539.95,-241.15 530.05,-237.38 529.86,-244.37"/>
</a>
</g>
</g>
<!-- Node20 -->
<g id="Node000020" class="node">
<title>Node20</title>
<g id="a_Node000020"><a xlink:href="coap__net_8c.html#aa2f296838e4a779197c43b254e385ddc" target="_top" xlink:title=" ">
<polygon fill="white" stroke="#666666" points="636.5,-289 542.5,-289 542.5,-270 636.5,-270 636.5,-289"/>
<text text-anchor="middle" x="589.5" y="-277" font-family="Helvetica,sans-Serif" font-size="10.00">coap_free_node</text>
</a>
</g>
</g>
<!-- Node18&#45;&gt;Node20 -->
<g id="edge25_Node000018_Node000020" class="edge">
<title>Node18&#45;&gt;Node20</title>
<g id="a_edge25_Node000018_Node000020"><a xlink:title=" ">
<path fill="none" stroke="#63b8ff" d="M449.34,-247.03C475.49,-253.13 509.61,-261.09 537.53,-267.61"/>
<polygon fill="#63b8ff" stroke="#63b8ff" points="536.97,-271.07 547.51,-269.93 538.56,-264.25 536.97,-271.07"/>
</a>
</g>
</g>
<!-- Node21 -->
<g id="Node000021" class="node">
<title>Node21</title>
<g id="a_Node000021"><a xlink:href="group__session__internal.html#gabcb9c3c1518642bbb211347f1a7f48cc" target="_top" xlink:title="Decrement reference counter on a session.">
<polygon fill="white" stroke="#666666" points="661,-399 518,-399 518,-380 661,-380 661,-399"/>
<text text-anchor="middle" x="589.5" y="-387" font-family="Helvetica,sans-Serif" font-size="10.00">coap_session_release_lkd</text>
</a>
</g>
</g>
<!-- Node18&#45;&gt;Node21 -->
<g id="edge27_Node000018_Node000021" class="edge">
<title>Node18&#45;&gt;Node21</title>
<g id="a_edge27_Node000018_Node000021"><a xlink:title=" ">
<path fill="none" stroke="#63b8ff" d="M462.41,-247.1C469.3,-249.55 476.02,-252.63 482,-256.5 488.1,-260.44 547.5,-336.59 574.84,-371.85"/>
<polygon fill="#63b8ff" stroke="#63b8ff" points="572.16,-374.1 581.05,-379.87 577.7,-369.82 572.16,-374.1"/>
</a>
</g>
</g>
<!-- Node19&#45;&gt;Node3 -->
<g id="edge24_Node000019_Node000003" class="edge">
<title>Node19&#45;&gt;Node3</title>
<g id="a_edge24_Node000019_Node000003"><a xlink:title=" ">
<path fill="none" stroke="#63b8ff" d="M639.04,-242.5C656.04,-242.5 675.25,-242.5 692.76,-242.5"/>
<polygon fill="#63b8ff" stroke="#63b8ff" points="692.84,-246 702.84,-242.5 692.84,-239 692.84,-246"/>
</a>
</g>
</g>
<!-- Node20&#45;&gt;Node3 -->
<g id="edge26_Node000020_Node000003" class="edge">
<title>Node20&#45;&gt;Node3</title>
<g id="a_edge26_Node000020_Node000003"><a xlink:title=" ">
<path fill="none" stroke="#63b8ff" d="M631.06,-269.97C651.28,-265.22 675.94,-259.43 697.38,-254.39"/>
<polygon fill="#63b8ff" stroke="#63b8ff" points="698.37,-257.75 707.3,-252.06 696.77,-250.94 698.37,-257.75"/>
</a>
</g>
</g>
<!-- Node21&#45;&gt;Node1 -->
<g id="edge28_Node000021_Node000001" class="edge">
<title>Node21&#45;&gt;Node1</title>
<g id="a_edge28_Node000021_Node000001"><a xlink:title=" ">
<path fill="none" stroke="#63b8ff" d="M584.65,-399.38C573.57,-426.24 538.7,-500.51 482,-528.5 422.62,-557.81 398.3,-539.52 333,-528.5 244.85,-513.63 219.5,-508.75 143,-462.5 113.3,-444.54 85.17,-415.32 68.89,-396.77"/>
<polygon fill="#63b8ff" stroke="#63b8ff" points="71.46,-394.38 62.28,-389.08 66.15,-398.94 71.46,-394.38"/>
</a>
</g>
</g>
<!-- Node23&#45;&gt;Node3 -->
<g id="edge32_Node000023_Node000003" class="edge">
<title>Node23&#45;&gt;Node3</title>
<g id="a_edge32_Node000023_Node000003"><a xlink:title=" ">
<path fill="none" stroke="#63b8ff" d="M632.95,-102.09C642.77,-105.58 652.75,-110.26 661,-116.5 699.17,-145.36 726.68,-195.93 739.64,-223.41"/>
<polygon fill="#63b8ff" stroke="#63b8ff" points="736.56,-225.08 743.89,-232.72 742.92,-222.17 736.56,-225.08"/>
</a>
</g>
</g>
</g>
</svg>

<g id="navigator" transform="translate(0 0)" fill="#404254">
  <rect fill="#f2f5e9" fill-opacity="0.5" stroke="#606060" stroke-width=".5" x="0" y="0" width="60" height="60"/>
  <use id="zoomplus" xlink:href="#zoomPlus" x="17" y="9" onmousedown="handleZoom(evt,'in')"/>
  <use id="zoomminus" xlink:href="#zoomMin" x="42" y="9" onmousedown="handleZoom(evt,'out')"/>
  <use id="reset" xlink:href="#resetDef" x="30" y="36" onmousedown="handleReset()"/>
   <use id="arrowup" xlink:href="#arrowUp" x="0" y="0" onmousedown="handlePan(0,-1)"/>
  <use id="arrowright" xlink:href="#arrowRight" x="0" y="0" onmousedown="handlePan(1,0)"/>
  <use id="arrowdown" xlink:href="#arrowDown" x="0" y="0" onmousedown="handlePan(0,1)"/>
  <use id="arrowleft" xlink:href="#arrowLeft" x="0" y="0" onmousedown="handlePan(-1,0)"/>
</g>
<svg viewBox="0 0 15 15" width="100%" height="30px" preserveAspectRatio="xMaxYMin meet">
 <g id="arrow_out" transform="scale(0.3 0.3)">
  <a xlink:href="group__session__internal_gab3d24595515d6f66805791a7f821d5e7_cgraph_org.svg" target="_base">
   <rect id="button" ry="5" rx="5" y="6" x="6" height="38" width="38"
        fill="#f2f5e9" fill-opacity="0.5" stroke="#606060" stroke-width="1.0"/>
   <path id="arrow"
     d="M 11.500037,31.436501 C 11.940474,20.09759 22.043105,11.32322 32.158766,21.979434 L 37.068811,17.246167 C 37.068811,17.246167 37.088388,32 37.088388,32 L 22.160133,31.978069 C 22.160133,31.978069 26.997745,27.140456 26.997745,27.140456 C 18.528582,18.264221 13.291696,25.230495 11.500037,31.436501 z"
     style="fill:#404040;"/>
  </a>
 </g>
</svg>

<style type='text/css'>
<![CDATA[
[data-mouse-over-selected='false'] { opacity: 0.7; }
[data-mouse-over-selected='true']  { opacity: 1.0; }
]]>
</style>
<script type="application/ecmascript"><![CDATA[
document.addEventListener('DOMContentLoaded', (event) => {
  highlightEdges();
  highlightAdjacentNodes();
});
]]></script>
</svg>
