<?xml version="1.0" encoding="UTF-8" standalone="no"?>
<!DOCTYPE svg PUBLIC "-//W3C//DTD SVG 1.1//EN"
 "http://www.w3.org/Graphics/SVG/1.1/DTD/svg11.dtd">
<!-- Generated by graphviz version 2.42.4 (0)
 -->
<!-- Title: coap_send_rst_lkd Pages: 1 -->
<!--zoomable 242 -->

<svg id="main" version="1.1" xmlns="http://www.w3.org/2000/svg" xmlns:xlink="http://www.w3.org/1999/xlink" xml:space="preserve" onload="init(evt)">
<style type="text/css"><![CDATA[
.node, .edge {opacity: 0.7;}
.node.selected, .edge.selected {opacity: 1;}
.edge:hover path { stroke: red; }
.edge:hover polygon { stroke: red; fill: red; }
]]></style>

<defs>
  <circle id="rim" cx="0" cy="0" r="7"/>
  <circle id="rim2" cx="0" cy="0" r="3.5"/>
  <g id="zoomPlus">
    <use xlink:href="#rim" fill="#404040"><set attributeName="fill" to="#808080" begin="zoomplus.mouseover" end="zoomplus.mouseout"/></use>
    <path d="M-4,0h8M0,-4v8" fill="none" stroke="white" stroke-width="1.5" pointer-events="none"/>
  </g>
  <g id="zoomMin">
    <use xlink:href="#rim" fill="#404040"><set attributeName="fill" to="#808080" begin="zoomminus.mouseover" end="zoomminus.mouseout"/></use>
    <path d="M-4,0h8" fill="none" stroke="white" stroke-width="1.5" pointer-events="none"/>
  </g>
  <g id="arrowUp" transform="translate(30 24)">
    <use xlink:href="#rim"/>
    <path pointer-events="none" fill="none" stroke="white" stroke-width="1.5" d="M0,-3.0v7 M-2.5,-0.5L0,-3.0L2.5,-0.5"/>
  </g>
  <g id="arrowRight" transform="rotate(90) translate(36 -43)">
    <use xlink:href="#rim"/>
    <path pointer-events="none" fill="none" stroke="white" stroke-width="1.5" d="M0,-3.0v7 M-2.5,-0.5L0,-3.0L2.5,-0.5"/>
  </g>
  <g id="arrowDown" transform="rotate(180) translate(-30 -48)">
    <use xlink:href="#rim"/>
    <path pointer-events="none" fill="none" stroke="white" stroke-width="1.5" d="M0,-3.0v7 M-2.5,-0.5L0,-3.0L2.5,-0.5"/>
  </g>
  <g id="arrowLeft" transform="rotate(270) translate(-36 17)">
    <use xlink:href="#rim"/>
    <path pointer-events="none" fill="none" stroke="white" stroke-width="1.5" d="M0,-3.0v7 M-2.5,-0.5L0,-3.0L2.5,-0.5"/>
  </g>
  <g id="resetDef">
    <use xlink:href="#rim2" fill="#404040"><set attributeName="fill" to="#808080" begin="reset.mouseover" end="reset.mouseout"/></use>
  </g>
</defs>
<script type="application/ecmascript">
var viewWidth = 2032;
var viewHeight = 242;
var sectionId = 'dynsection-24';
</script>
<script type="application/ecmascript" xlink:href="svg.min.js"/>
<svg id="graph" class="graph">
<g id="viewport">
<title>coap_send_rst_lkd</title>
<!-- Node1 -->
<g id="Node000001" class="node">
<title>Node1</title>
<g id="a_Node000001"><a xlink:title="Sends an RST message with code 0 for the specified request to dst.">
<polygon fill="#999999" stroke="#666666" points="2024,-76 1917,-76 1917,-57 2024,-57 2024,-76"/>
<text text-anchor="middle" x="1970.5" y="-64" font-family="Helvetica,sans-Serif" font-size="10.00">coap_send_rst_lkd</text>
</a>
</g>
</g>
<!-- Node2 -->
<g id="Node000002" class="node">
<title>Node2</title>
<g id="a_Node000002"><a xlink:href="coap__net_8c.html#ad02a6d6c0f94ef455980d531575d1d0c" target="_top" xlink:title=" ">
<polygon fill="white" stroke="#666666" points="1881,-133 1779,-133 1779,-114 1881,-114 1881,-133"/>
<text text-anchor="middle" x="1830" y="-121" font-family="Helvetica,sans-Serif" font-size="10.00">check_token_size</text>
</a>
</g>
</g>
<!-- Node1&#45;&gt;Node2 -->
<g id="edge1_Node000001_Node000002" class="edge">
<title>Node1&#45;&gt;Node2</title>
<g id="a_edge1_Node000001_Node000002"><a xlink:title=" ">
<path fill="none" stroke="#63b8ff" d="M1936.75,-79.98C1911.38,-90.42 1876.85,-104.63 1854.26,-113.93"/>
<polygon fill="#63b8ff" stroke="#63b8ff" points="1938.4,-83.08 1946.32,-76.04 1935.74,-76.61 1938.4,-83.08"/>
</a>
</g>
</g>
<!-- Node3 -->
<g id="Node000003" class="node">
<title>Node3</title>
<g id="a_Node000003"><a xlink:href="group__context__internal.html#ga7bb944fc52f772655356d95724317401" target="_top" xlink:title="Dispatches the PDUs from the receive queue in given context.">
<polygon fill="white" stroke="#666666" points="1743,-96 1657,-96 1657,-77 1743,-77 1743,-96"/>
<text text-anchor="middle" x="1700" y="-84" font-family="Helvetica,sans-Serif" font-size="10.00">coap_dispatch</text>
</a>
</g>
</g>
<!-- Node1&#45;&gt;Node3 -->
<g id="edge28_Node000001_Node000003" class="edge">
<title>Node1&#45;&gt;Node3</title>
<g id="a_edge28_Node000001_Node000003"><a xlink:title=" ">
<path fill="none" stroke="#63b8ff" d="M1906.64,-71.18C1856.24,-74.94 1786.92,-80.1 1743.03,-83.37"/>
<polygon fill="#63b8ff" stroke="#63b8ff" points="1907.06,-74.66 1916.77,-70.43 1906.54,-67.68 1907.06,-74.66"/>
</a>
</g>
</g>
<!-- Node4 -->
<g id="Node000004" class="node">
<title>Node4</title>
<g id="a_Node000004"><a xlink:href="group__context__internal.html#gae6b8ca457dd41f23372f9e9a7159312b" target="_top" xlink:title="Parses and interprets a CoAP datagram with context ctx.">
<polygon fill="white" stroke="#666666" points="1621,-57 1506,-57 1506,-38 1621,-38 1621,-57"/>
<text text-anchor="middle" x="1563.5" y="-45" font-family="Helvetica,sans-Serif" font-size="10.00">coap_handle_dgram</text>
</a>
</g>
</g>
<!-- Node1&#45;&gt;Node4 -->
<g id="edge29_Node000001_Node000004" class="edge">
<title>Node1&#45;&gt;Node4</title>
<g id="a_edge29_Node000001_Node000004"><a xlink:title=" ">
<path fill="none" stroke="#63b8ff" d="M1906.78,-63.56C1828.67,-59.89 1696.36,-53.69 1621.17,-50.16"/>
<polygon fill="#63b8ff" stroke="#63b8ff" points="1906.82,-67.06 1916.97,-64.04 1907.14,-60.07 1906.82,-67.06"/>
</a>
</g>
</g>
<!-- Node27 -->
<g id="Node000027" class="node">
<title>Node27</title>
<g id="a_Node000027"><a xlink:href="group__context.html#gac99d938651883bcccc22d74848ed11a3" target="_top" xlink:title="Sends an RST message with code 0 for the specified request to dst.">
<polygon fill="white" stroke="#666666" points="1873,-19 1787,-19 1787,0 1873,0 1873,-19"/>
<text text-anchor="middle" x="1830" y="-7" font-family="Helvetica,sans-Serif" font-size="10.00">coap_send_rst</text>
</a>
</g>
</g>
<!-- Node1&#45;&gt;Node27 -->
<g id="edge30_Node000001_Node000027" class="edge">
<title>Node1&#45;&gt;Node27</title>
<g id="a_edge30_Node000001_Node000027"><a xlink:title=" ">
<path fill="none" stroke="#63b8ff" d="M1936.75,-53.02C1911.38,-42.58 1876.85,-28.37 1854.26,-19.07"/>
<polygon fill="#63b8ff" stroke="#63b8ff" points="1935.74,-56.39 1946.32,-56.96 1938.4,-49.92 1935.74,-56.39"/>
</a>
</g>
</g>
<!-- Node2&#45;&gt;Node3 -->
<g id="edge2_Node000002_Node000003" class="edge">
<title>Node2&#45;&gt;Node3</title>
<g id="a_edge2_Node000002_Node000003"><a xlink:title=" ">
<path fill="none" stroke="#63b8ff" d="M1786.36,-111.17C1769.41,-106.27 1750.19,-100.72 1734.3,-96.12"/>
<polygon fill="#63b8ff" stroke="#63b8ff" points="1785.46,-114.56 1796.04,-113.97 1787.4,-107.83 1785.46,-114.56"/>
</a>
</g>
</g>
<!-- Node3&#45;&gt;Node4 -->
<g id="edge3_Node000003_Node000004" class="edge">
<title>Node3&#45;&gt;Node4</title>
<g id="a_edge3_Node000003_Node000004"><a xlink:title=" ">
<path fill="none" stroke="#63b8ff" d="M1656.46,-74.16C1637.41,-68.64 1615.3,-62.23 1597.53,-57.08"/>
<polygon fill="#63b8ff" stroke="#63b8ff" points="1655.52,-77.54 1666.1,-76.96 1657.47,-70.81 1655.52,-77.54"/>
</a>
</g>
</g>
<!-- Node6 -->
<g id="Node000006" class="node">
<title>Node6</title>
<g id="a_Node000006"><a xlink:href="group__session__internal.html#ga6a01ddadb413abfcc50c53df7f562d1a" target="_top" xlink:title=" ">
<polygon fill="white" stroke="#666666" points="1300,-75 1191,-75 1191,-56 1300,-56 1300,-75"/>
<text text-anchor="middle" x="1245.5" y="-63" font-family="Helvetica,sans-Serif" font-size="10.00">coap_read_session</text>
</a>
</g>
</g>
<!-- Node3&#45;&gt;Node6 -->
<g id="edge27_Node000003_Node000006" class="edge">
<title>Node3&#45;&gt;Node6</title>
<g id="a_edge27_Node000003_Node000006"><a xlink:title=" ">
<path fill="none" stroke="#63b8ff" d="M1646.71,-84.07C1560.07,-80.05 1387.67,-72.05 1300.15,-67.99"/>
<polygon fill="#63b8ff" stroke="#63b8ff" points="1646.68,-87.58 1656.84,-84.54 1647.01,-80.58 1646.68,-87.58"/>
</a>
</g>
</g>
<!-- Node5 -->
<g id="Node000005" class="node">
<title>Node5</title>
<g id="a_Node000005"><a xlink:href="coap__net_8c.html#a8534f7860b14e0743529daff196a27ce" target="_top" xlink:title=" ">
<polygon fill="white" stroke="#666666" points="1470,-59.5 1336,-59.5 1336,-29.5 1470,-29.5 1470,-59.5"/>
<text text-anchor="start" x="1344" y="-47.5" font-family="Helvetica,sans-Serif" font-size="10.00">coap_handle_dgram_for</text>
<text text-anchor="middle" x="1403" y="-36.5" font-family="Helvetica,sans-Serif" font-size="10.00">_proto</text>
</a>
</g>
</g>
<!-- Node4&#45;&gt;Node5 -->
<g id="edge4_Node000004_Node000005" class="edge">
<title>Node4&#45;&gt;Node5</title>
<g id="a_edge4_Node000004_Node000005"><a xlink:title=" ">
<path fill="none" stroke="#63b8ff" d="M1495.56,-46.23C1487.13,-46.07 1478.51,-45.91 1470.1,-45.75"/>
<polygon fill="#63b8ff" stroke="#63b8ff" points="1495.66,-49.74 1505.73,-46.43 1495.79,-42.74 1495.66,-49.74"/>
</a>
</g>
</g>
<!-- Node5&#45;&gt;Node6 -->
<g id="edge5_Node000005_Node000006" class="edge">
<title>Node5&#45;&gt;Node6</title>
<g id="a_edge5_Node000005_Node000006"><a xlink:title=" ">
<path fill="none" stroke="#63b8ff" d="M1325.51,-54.83C1316.89,-55.99 1308.24,-57.16 1300,-58.27"/>
<polygon fill="#63b8ff" stroke="#63b8ff" points="1326.16,-58.27 1335.6,-53.47 1325.22,-51.34 1326.16,-58.27"/>
</a>
</g>
</g>
<!-- Node7 -->
<g id="Node000007" class="node">
<title>Node7</title>
<g id="a_Node000007"><a xlink:href="group__app__io__internal.html#ga16a04e534316586853e010ddeec64bd7" target="_top" xlink:title="Process all the epoll events.">
<polygon fill="white" stroke="#666666" points="1155,-94 1034,-94 1034,-75 1155,-75 1155,-94"/>
<text text-anchor="middle" x="1094.5" y="-82" font-family="Helvetica,sans-Serif" font-size="10.00">coap_io_do_epoll_lkd</text>
</a>
</g>
</g>
<!-- Node6&#45;&gt;Node7 -->
<g id="edge6_Node000006_Node000007" class="edge">
<title>Node6&#45;&gt;Node7</title>
<g id="a_edge6_Node000006_Node000007"><a xlink:title=" ">
<path fill="none" stroke="#63b8ff" d="M1180.79,-73.62C1172.24,-74.71 1163.49,-75.83 1155.02,-76.91"/>
<polygon fill="#63b8ff" stroke="#63b8ff" points="1181.23,-77.1 1190.71,-72.36 1180.35,-70.15 1181.23,-77.1"/>
</a>
</g>
</g>
<!-- Node25 -->
<g id="Node000025" class="node">
<title>Node25</title>
<g id="a_Node000025"><a xlink:href="group__app__io__internal.html#ga60fc8d114c50d9c30701ebbf4417b43c" target="_top" xlink:title="Processes any outstanding read, write, accept or connect I/O as indicated in the coap_socket_t struct...">
<polygon fill="white" stroke="#666666" points="1147.5,-57 1041.5,-57 1041.5,-38 1147.5,-38 1147.5,-57"/>
<text text-anchor="middle" x="1094.5" y="-45" font-family="Helvetica,sans-Serif" font-size="10.00">coap_io_do_io_lkd</text>
</a>
</g>
</g>
<!-- Node6&#45;&gt;Node25 -->
<g id="edge24_Node000006_Node000025" class="edge">
<title>Node6&#45;&gt;Node25</title>
<g id="a_edge24_Node000006_Node000025"><a xlink:title=" ">
<path fill="none" stroke="#63b8ff" d="M1180.71,-57.79C1169.7,-56.46 1158.38,-55.1 1147.72,-53.81"/>
<polygon fill="#63b8ff" stroke="#63b8ff" points="1180.36,-61.28 1190.71,-59 1181.2,-54.33 1180.36,-61.28"/>
</a>
</g>
</g>
<!-- Node8 -->
<g id="Node000008" class="node">
<title>Node8</title>
<g id="a_Node000008"><a xlink:href="group__app__io.html#gae75a791665f7ae378bb27fcd2617c402" target="_top" xlink:title="Process all the epoll events.">
<polygon fill="white" stroke="#666666" points="987,-119 886,-119 886,-100 987,-100 987,-119"/>
<text text-anchor="middle" x="936.5" y="-107" font-family="Helvetica,sans-Serif" font-size="10.00">coap_io_do_epoll</text>
</a>
</g>
</g>
<!-- Node7&#45;&gt;Node8 -->
<g id="edge7_Node000007_Node000008" class="edge">
<title>Node7&#45;&gt;Node8</title>
<g id="a_edge7_Node000007_Node000008"><a xlink:title=" ">
<path fill="none" stroke="#63b8ff" d="M1024.16,-95.61C1011.67,-97.61 998.89,-99.66 987.11,-101.55"/>
<polygon fill="#63b8ff" stroke="#63b8ff" points="1024.76,-99.06 1034.08,-94.02 1023.65,-92.15 1024.76,-99.06"/>
</a>
</g>
</g>
<!-- Node9 -->
<g id="Node000009" class="node">
<title>Node9</title>
<g id="a_Node000009"><a xlink:href="group__app__io__internal.html#gac72796b7754e146e86da15fa5f8d5992" target="_top" xlink:title="The main message processing loop with additional fds for internal select.">
<polygon fill="white" stroke="#666666" points="998,-81.5 875,-81.5 875,-51.5 998,-51.5 998,-81.5"/>
<text text-anchor="start" x="883" y="-69.5" font-family="Helvetica,sans-Serif" font-size="10.00">coap_io_process_with</text>
<text text-anchor="middle" x="936.5" y="-58.5" font-family="Helvetica,sans-Serif" font-size="10.00">_fds_lkd</text>
</a>
</g>
</g>
<!-- Node7&#45;&gt;Node9 -->
<g id="edge8_Node000007_Node000009" class="edge">
<title>Node7&#45;&gt;Node9</title>
<g id="a_edge8_Node000007_Node000009"><a xlink:title=" ">
<path fill="none" stroke="#63b8ff" d="M1023.46,-76.42C1015.04,-75.45 1006.51,-74.46 998.24,-73.51"/>
<polygon fill="#63b8ff" stroke="#63b8ff" points="1023.3,-79.92 1033.63,-77.59 1024.1,-72.97 1023.3,-79.92"/>
</a>
</g>
</g>
<!-- Node10 -->
<g id="Node000010" class="node">
<title>Node10</title>
<g id="a_Node000010"><a xlink:href="group__app__io__internal.html#gaacf6492e591390793c32fa2974a620b2" target="_top" xlink:title="The main I/O processing function.">
<polygon fill="white" stroke="#666666" points="826,-94 709,-94 709,-75 826,-75 826,-94"/>
<text text-anchor="middle" x="767.5" y="-82" font-family="Helvetica,sans-Serif" font-size="10.00">coap_io_process_lkd</text>
</a>
</g>
</g>
<!-- Node9&#45;&gt;Node10 -->
<g id="edge9_Node000009_Node000010" class="edge">
<title>Node9&#45;&gt;Node10</title>
<g id="a_edge9_Node000009_Node000010"><a xlink:title=" ">
<path fill="none" stroke="#63b8ff" d="M864.57,-74.15C851.75,-75.53 838.54,-76.95 826.16,-78.29"/>
<polygon fill="#63b8ff" stroke="#63b8ff" points="865.17,-77.6 874.74,-73.05 864.42,-70.64 865.17,-77.6"/>
</a>
</g>
</g>
<!-- Node24 -->
<g id="Node000024" class="node">
<title>Node24</title>
<g id="a_Node000024"><a xlink:href="group__app__io.html#gaa68c0208f033c5e0c4201a2d2d5e515f" target="_top" xlink:title="The main message processing loop with additional fds for internal select.">
<polygon fill="white" stroke="#666666" points="839,-57 696,-57 696,-38 839,-38 839,-57"/>
<text text-anchor="middle" x="767.5" y="-45" font-family="Helvetica,sans-Serif" font-size="10.00">coap_io_process_with_fds</text>
</a>
</g>
</g>
<!-- Node9&#45;&gt;Node24 -->
<g id="edge23_Node000009_Node000024" class="edge">
<title>Node9&#45;&gt;Node24</title>
<g id="a_edge23_Node000009_Node000024"><a xlink:title=" ">
<path fill="none" stroke="#63b8ff" d="M864.57,-58.43C856.15,-57.47 847.56,-56.49 839.14,-55.54"/>
<polygon fill="#63b8ff" stroke="#63b8ff" points="864.41,-61.93 874.74,-59.59 865.2,-54.98 864.41,-61.93"/>
</a>
</g>
</g>
<!-- Node11 -->
<g id="Node000011" class="node">
<title>Node11</title>
<g id="a_Node000011"><a xlink:href="group__context__internal.html#ga5d013d40174c7c217b24bf624f9d7310" target="_top" xlink:title="Delay the sending of the first client request until some other negotiation has completed.">
<polygon fill="white" stroke="#666666" points="660,-131 532,-131 532,-112 660,-112 660,-131"/>
<text text-anchor="middle" x="596" y="-119" font-family="Helvetica,sans-Serif" font-size="10.00">coap_client_delay_first</text>
</a>
</g>
</g>
<!-- Node10&#45;&gt;Node11 -->
<g id="edge10_Node000010_Node000011" class="edge">
<title>Node10&#45;&gt;Node11</title>
<g id="a_edge10_Node000010_Node000011"><a xlink:title=" ">
<path fill="none" stroke="#63b8ff" d="M712.81,-96.22C689.6,-101.29 662.78,-107.14 640.8,-111.94"/>
<polygon fill="#63b8ff" stroke="#63b8ff" points="713.83,-99.58 722.85,-94.03 712.33,-92.74 713.83,-99.58"/>
</a>
</g>
</g>
<!-- Node21 -->
<g id="Node000021" class="node">
<title>Node21</title>
<g id="a_Node000021"><a xlink:href="group__app__io__internal.html#ga3db928bd0e68b72fb53001495a2e3bac" target="_top" xlink:title="Check to see if there is any i/o pending for the context.">
<polygon fill="white" stroke="#666666" points="655.5,-94 536.5,-94 536.5,-75 655.5,-75 655.5,-94"/>
<text text-anchor="middle" x="596" y="-82" font-family="Helvetica,sans-Serif" font-size="10.00">coap_io_pending_lkd</text>
</a>
</g>
</g>
<!-- Node10&#45;&gt;Node21 -->
<g id="edge20_Node000010_Node000021" class="edge">
<title>Node10&#45;&gt;Node21</title>
<g id="a_edge20_Node000010_Node000021"><a xlink:title=" ">
<path fill="none" stroke="#63b8ff" d="M698.48,-84.5C684.33,-84.5 669.53,-84.5 655.75,-84.5"/>
<polygon fill="#63b8ff" stroke="#63b8ff" points="698.64,-88 708.64,-84.5 698.64,-81 698.64,-88"/>
</a>
</g>
</g>
<!-- Node23 -->
<g id="Node000023" class="node">
<title>Node23</title>
<g id="a_Node000023"><a xlink:href="group__app__io.html#ga0acc0068f8442ab2fb70bc30242fc5ef" target="_top" xlink:title="The main I/O processing function.">
<polygon fill="white" stroke="#666666" points="644.5,-57 547.5,-57 547.5,-38 644.5,-38 644.5,-57"/>
<text text-anchor="middle" x="596" y="-45" font-family="Helvetica,sans-Serif" font-size="10.00">coap_io_process</text>
</a>
</g>
</g>
<!-- Node10&#45;&gt;Node23 -->
<g id="edge22_Node000010_Node000023" class="edge">
<title>Node10&#45;&gt;Node23</title>
<g id="a_edge22_Node000010_Node000023"><a xlink:title=" ">
<path fill="none" stroke="#63b8ff" d="M712.81,-72.78C689.6,-67.71 662.78,-61.86 640.8,-57.06"/>
<polygon fill="#63b8ff" stroke="#63b8ff" points="712.33,-76.26 722.85,-74.97 713.83,-69.42 712.33,-76.26"/>
</a>
</g>
</g>
<!-- Node12 -->
<g id="Node000012" class="node">
<title>Node12</title>
<g id="a_Node000012"><a xlink:href="group__app__io__internal.html#gae138b6aba5c244fb8e582e63615f5112" target="_top" xlink:title="Sends a CoAP message to given peer.">
<polygon fill="white" stroke="#666666" points="474.5,-131 385.5,-131 385.5,-112 474.5,-112 474.5,-131"/>
<text text-anchor="middle" x="430" y="-119" font-family="Helvetica,sans-Serif" font-size="10.00">coap_send_lkd</text>
</a>
</g>
</g>
<!-- Node11&#45;&gt;Node12 -->
<g id="edge11_Node000011_Node000012" class="edge">
<title>Node11&#45;&gt;Node12</title>
<g id="a_edge11_Node000011_Node000012"><a xlink:title=" ">
<path fill="none" stroke="#63b8ff" d="M521.28,-121.5C505.46,-121.5 489.22,-121.5 474.95,-121.5"/>
<polygon fill="#63b8ff" stroke="#63b8ff" points="521.59,-125 531.59,-121.5 521.59,-118 521.59,-125"/>
</a>
</g>
</g>
<!-- Node14 -->
<g id="Node000014" class="node">
<title>Node14</title>
<g id="a_Node000014"><a xlink:href="group__session__internal.html#gab00aa6136bf734263db0dec5360a9798" target="_top" xlink:title="Get maximum acceptable PDU size.">
<polygon fill="white" stroke="#666666" points="496,-194.5 364,-194.5 364,-164.5 496,-164.5 496,-194.5"/>
<text text-anchor="start" x="372" y="-182.5" font-family="Helvetica,sans-Serif" font-size="10.00">coap_session_max_pdu</text>
<text text-anchor="middle" x="430" y="-171.5" font-family="Helvetica,sans-Serif" font-size="10.00">_size_lkd</text>
</a>
</g>
</g>
<!-- Node11&#45;&gt;Node14 -->
<g id="edge13_Node000011_Node000014" class="edge">
<title>Node11&#45;&gt;Node14</title>
<g id="a_edge13_Node000011_Node000014"><a xlink:title=" ">
<path fill="none" stroke="#63b8ff" d="M558.39,-134.45C533.26,-143.33 499.84,-155.15 473.53,-164.46"/>
<polygon fill="#63b8ff" stroke="#63b8ff" points="559.66,-137.71 567.92,-131.08 557.32,-131.11 559.66,-137.71"/>
</a>
</g>
</g>
<!-- Node13 -->
<g id="Node000013" class="node">
<title>Node13</title>
<g id="a_Node000013"><a xlink:href="group__context.html#ga1c3d60f40aa03a974b4472951abae1f0" target="_top" xlink:title="Sends a CoAP message to given peer.">
<polygon fill="white" stroke="#666666" points="283.5,-123 215.5,-123 215.5,-104 283.5,-104 283.5,-123"/>
<text text-anchor="middle" x="249.5" y="-111" font-family="Helvetica,sans-Serif" font-size="10.00">coap_send</text>
</a>
</g>
</g>
<!-- Node12&#45;&gt;Node13 -->
<g id="edge12_Node000012_Node000013" class="edge">
<title>Node12&#45;&gt;Node13</title>
<g id="a_edge12_Node000012_Node000013"><a xlink:title=" ">
<path fill="none" stroke="#63b8ff" d="M375.09,-119.08C345.32,-117.75 309.28,-116.13 283.64,-114.99"/>
<polygon fill="#63b8ff" stroke="#63b8ff" points="375.19,-122.59 385.33,-119.54 375.5,-115.6 375.19,-122.59"/>
</a>
</g>
</g>
<!-- Node15 -->
<g id="Node000015" class="node">
<title>Node15</title>
<g id="a_Node000015"><a xlink:href="group__pdu__internal.html#ga5b11b2f0af35b0ef48a06a781893dc8d" target="_top" xlink:title="Creates a new CoAP PDU.">
<polygon fill="white" stroke="#666666" points="304,-197 195,-197 195,-178 304,-178 304,-197"/>
<text text-anchor="middle" x="249.5" y="-185" font-family="Helvetica,sans-Serif" font-size="10.00">coap_new_pdu_lkd</text>
</a>
</g>
</g>
<!-- Node14&#45;&gt;Node15 -->
<g id="edge14_Node000014_Node000015" class="edge">
<title>Node14&#45;&gt;Node15</title>
<g id="a_edge14_Node000014_Node000015"><a xlink:title=" ">
<path fill="none" stroke="#63b8ff" d="M353.56,-182.88C336.93,-183.63 319.66,-184.4 304.11,-185.1"/>
<polygon fill="#63b8ff" stroke="#63b8ff" points="353.97,-186.37 363.8,-182.42 353.65,-179.37 353.97,-186.37"/>
</a>
</g>
</g>
<!-- Node17 -->
<g id="Node000017" class="node">
<title>Node17</title>
<g id="a_Node000017"><a xlink:href="group__pdu__internal.html#gabfad643886d38578860d06a9ade5caf8" target="_top" xlink:title="Duplicate an existing PDU.">
<polygon fill="white" stroke="#666666" points="316.5,-160 182.5,-160 182.5,-141 316.5,-141 316.5,-160"/>
<text text-anchor="middle" x="249.5" y="-148" font-family="Helvetica,sans-Serif" font-size="10.00">coap_pdu_duplicate_lkd</text>
</a>
</g>
</g>
<!-- Node14&#45;&gt;Node17 -->
<g id="edge16_Node000014_Node000017" class="edge">
<title>Node14&#45;&gt;Node17</title>
<g id="a_edge16_Node000014_Node000017"><a xlink:title=" ">
<path fill="none" stroke="#63b8ff" d="M353.59,-167.25C338.69,-164.83 323.26,-162.32 309.02,-160.01"/>
<polygon fill="#63b8ff" stroke="#63b8ff" points="353.37,-170.76 363.8,-168.91 354.49,-163.85 353.37,-170.76"/>
</a>
</g>
</g>
<!-- Node20 -->
<g id="Node000020" class="node">
<title>Node20</title>
<g id="a_Node000020"><a xlink:href="group__session.html#gae5a6b848046e0f3ae3b1d0b055bce60f" target="_top" xlink:title="Get maximum acceptable PDU size.">
<polygon fill="white" stroke="#666666" points="328,-234 171,-234 171,-215 328,-215 328,-234"/>
<text text-anchor="middle" x="249.5" y="-222" font-family="Helvetica,sans-Serif" font-size="10.00">coap_session_max_pdu_size</text>
</a>
</g>
</g>
<!-- Node14&#45;&gt;Node20 -->
<g id="edge19_Node000014_Node000020" class="edge">
<title>Node14&#45;&gt;Node20</title>
<g id="a_edge19_Node000014_Node000020"><a xlink:title=" ">
<path fill="none" stroke="#63b8ff" d="M364.1,-197.19C352.12,-200.36 339.69,-203.58 328,-206.5 316.61,-209.34 304.24,-212.28 292.79,-214.94"/>
<polygon fill="#63b8ff" stroke="#63b8ff" points="365.28,-200.5 374.05,-194.54 363.48,-193.73 365.28,-200.5"/>
</a>
</g>
</g>
<!-- Node16 -->
<g id="Node000016" class="node">
<title>Node16</title>
<g id="a_Node000016"><a xlink:href="group__pdu.html#gac2580e04276e6b66390a66f559c3452d" target="_top" xlink:title="Creates a new CoAP PDU.">
<polygon fill="white" stroke="#666666" points="112,-197 23,-197 23,-178 112,-178 112,-197"/>
<text text-anchor="middle" x="67.5" y="-185" font-family="Helvetica,sans-Serif" font-size="10.00">coap_new_pdu</text>
</a>
</g>
</g>
<!-- Node15&#45;&gt;Node16 -->
<g id="edge15_Node000015_Node000016" class="edge">
<title>Node15&#45;&gt;Node16</title>
<g id="a_edge15_Node000015_Node000016"><a xlink:title=" ">
<path fill="none" stroke="#63b8ff" d="M184.86,-187.5C160.79,-187.5 133.96,-187.5 112.14,-187.5"/>
<polygon fill="#63b8ff" stroke="#63b8ff" points="184.98,-191 194.98,-187.5 184.98,-184 184.98,-191"/>
</a>
</g>
</g>
<!-- Node18 -->
<g id="Node000018" class="node">
<title>Node18</title>
<g id="a_Node000018"><a xlink:href="group__pdu.html#ga4d2b83e4f9e5264ac3c065b0cff03395" target="_top" xlink:title="Duplicate an existing PDU.">
<polygon fill="white" stroke="#666666" points="124,-123 11,-123 11,-104 124,-104 124,-123"/>
<text text-anchor="middle" x="67.5" y="-111" font-family="Helvetica,sans-Serif" font-size="10.00">coap_pdu_duplicate</text>
</a>
</g>
</g>
<!-- Node17&#45;&gt;Node18 -->
<g id="edge17_Node000017_Node000018" class="edge">
<title>Node17&#45;&gt;Node18</title>
<g id="a_edge17_Node000017_Node000018"><a xlink:title=" ">
<path fill="none" stroke="#63b8ff" d="M192.15,-138.92C167.34,-133.82 138.56,-127.9 115.01,-123.06"/>
<polygon fill="#63b8ff" stroke="#63b8ff" points="191.65,-142.39 202.15,-140.97 193.06,-135.53 191.65,-142.39"/>
</a>
</g>
</g>
<!-- Node19 -->
<g id="Node000019" class="node">
<title>Node19</title>
<g id="a_Node000019"><a xlink:href="group__oscore__internal.html#ga8cf885624714b9a4705974adf2629cb2" target="_top" xlink:title=" ">
<polygon fill="white" stroke="#666666" points="135,-160 0,-160 0,-141 135,-141 135,-160"/>
<text text-anchor="middle" x="67.5" y="-148" font-family="Helvetica,sans-Serif" font-size="10.00">oscore_new_association</text>
</a>
</g>
</g>
<!-- Node17&#45;&gt;Node19 -->
<g id="edge18_Node000017_Node000019" class="edge">
<title>Node17&#45;&gt;Node19</title>
<g id="a_edge18_Node000017_Node000019"><a xlink:title=" ">
<path fill="none" stroke="#63b8ff" d="M172.23,-150.5C159.89,-150.5 147.19,-150.5 135.1,-150.5"/>
<polygon fill="#63b8ff" stroke="#63b8ff" points="172.5,-154 182.5,-150.5 172.5,-147 172.5,-154"/>
</a>
</g>
</g>
<!-- Node22 -->
<g id="Node000022" class="node">
<title>Node22</title>
<g id="a_Node000022"><a xlink:href="group__app__io.html#ga2023144481df2258b5947666a02ede6c" target="_top" xlink:title="Check to see if there is any i/o pending for the context.">
<polygon fill="white" stroke="#666666" points="479,-94 381,-94 381,-75 479,-75 479,-94"/>
<text text-anchor="middle" x="430" y="-82" font-family="Helvetica,sans-Serif" font-size="10.00">coap_io_pending</text>
</a>
</g>
</g>
<!-- Node21&#45;&gt;Node22 -->
<g id="edge21_Node000021_Node000022" class="edge">
<title>Node21&#45;&gt;Node22</title>
<g id="a_edge21_Node000021_Node000022"><a xlink:title=" ">
<path fill="none" stroke="#63b8ff" d="M526,-84.5C510.22,-84.5 493.77,-84.5 479.09,-84.5"/>
<polygon fill="#63b8ff" stroke="#63b8ff" points="526.26,-88 536.26,-84.5 526.26,-81 526.26,-88"/>
</a>
</g>
</g>
<!-- Node25&#45;&gt;Node9 -->
<g id="edge26_Node000025_Node000009" class="edge">
<title>Node25&#45;&gt;Node9</title>
<g id="a_edge26_Node000025_Node000009"><a xlink:title=" ">
<path fill="none" stroke="#63b8ff" d="M1030.9,-55.12C1020.09,-56.44 1008.86,-57.81 998.1,-59.12"/>
<polygon fill="#63b8ff" stroke="#63b8ff" points="1031.62,-58.56 1041.12,-53.88 1030.77,-51.61 1031.62,-58.56"/>
</a>
</g>
</g>
<!-- Node26 -->
<g id="Node000026" class="node">
<title>Node26</title>
<g id="a_Node000026"><a xlink:href="group__app__io.html#gaec2083a94bd1f43582f981f3370e45dd" target="_top" xlink:title="Processes any outstanding read, write, accept or connect I/O as indicated in the coap_socket_t struct...">
<polygon fill="white" stroke="#666666" points="979.5,-33 893.5,-33 893.5,-14 979.5,-14 979.5,-33"/>
<text text-anchor="middle" x="936.5" y="-21" font-family="Helvetica,sans-Serif" font-size="10.00">coap_io_do_io</text>
</a>
</g>
</g>
<!-- Node25&#45;&gt;Node26 -->
<g id="edge25_Node000025_Node000026" class="edge">
<title>Node25&#45;&gt;Node26</title>
<g id="a_edge25_Node000025_Node000026"><a xlink:title=" ">
<path fill="none" stroke="#63b8ff" d="M1031.1,-37.9C1013.82,-35.24 995.48,-32.42 979.65,-29.98"/>
<polygon fill="#63b8ff" stroke="#63b8ff" points="1030.7,-41.38 1041.12,-39.44 1031.77,-34.46 1030.7,-41.38"/>
</a>
</g>
</g>
</g>
</svg>

<g id="navigator" transform="translate(0 0)" fill="#404254">
  <rect fill="#f2f5e9" fill-opacity="0.5" stroke="#606060" stroke-width=".5" x="0" y="0" width="60" height="60"/>
  <use id="zoomplus" xlink:href="#zoomPlus" x="17" y="9" onmousedown="handleZoom(evt,'in')"/>
  <use id="zoomminus" xlink:href="#zoomMin" x="42" y="9" onmousedown="handleZoom(evt,'out')"/>
  <use id="reset" xlink:href="#resetDef" x="30" y="36" onmousedown="handleReset()"/>
   <use id="arrowup" xlink:href="#arrowUp" x="0" y="0" onmousedown="handlePan(0,-1)"/>
  <use id="arrowright" xlink:href="#arrowRight" x="0" y="0" onmousedown="handlePan(1,0)"/>
  <use id="arrowdown" xlink:href="#arrowDown" x="0" y="0" onmousedown="handlePan(0,1)"/>
  <use id="arrowleft" xlink:href="#arrowLeft" x="0" y="0" onmousedown="handlePan(-1,0)"/>
</g>
<svg viewBox="0 0 15 15" width="100%" height="30px" preserveAspectRatio="xMaxYMin meet">
 <g id="arrow_out" transform="scale(0.3 0.3)">
  <a xlink:href="group__app__io__internal_ga21da56be4e4ff935d98d612687da3906_icgraph_org.svg" target="_base">
   <rect id="button" ry="5" rx="5" y="6" x="6" height="38" width="38"
        fill="#f2f5e9" fill-opacity="0.5" stroke="#606060" stroke-width="1.0"/>
   <path id="arrow"
     d="M 11.500037,31.436501 C 11.940474,20.09759 22.043105,11.32322 32.158766,21.979434 L 37.068811,17.246167 C 37.068811,17.246167 37.088388,32 37.088388,32 L 22.160133,31.978069 C 22.160133,31.978069 26.997745,27.140456 26.997745,27.140456 C 18.528582,18.264221 13.291696,25.230495 11.500037,31.436501 z"
     style="fill:#404040;"/>
  </a>
 </g>
</svg>

<style type='text/css'>
<![CDATA[
[data-mouse-over-selected='false'] { opacity: 0.7; }
[data-mouse-over-selected='true']  { opacity: 1.0; }
]]>
</style>
<script type="application/ecmascript"><![CDATA[
document.addEventListener('DOMContentLoaded', (event) => {
  highlightEdges();
  highlightAdjacentNodes();
});
]]></script>
</svg>
