<?xml version="1.0" encoding="UTF-8" standalone="no"?>
<!DOCTYPE svg PUBLIC "-//W3C//DTD SVG 1.1//EN"
 "http://www.w3.org/Graphics/SVG/1.1/DTD/svg11.dtd">
<!-- Generated by graphviz version 2.42.4 (0)
 -->
<!-- Title: oscore_cbor_put_tag Pages: 1 -->
<svg width="396pt" height="27pt"
 viewBox="0.00 0.00 396.00 27.00" xmlns="http://www.w3.org/2000/svg" xmlns:xlink="http://www.w3.org/1999/xlink">
<g id="graph0" class="graph" transform="scale(1 1) rotate(0) translate(4 23)">
<title>oscore_cbor_put_tag</title>
<!-- Node1 -->
<g id="Node000001" class="node">
<title>Node1</title>
<g id="a_Node000001"><a xlink:title=" ">
<polygon fill="#999999" stroke="#666666" points="117,-19 0,-19 0,0 117,0 117,-19"/>
<text text-anchor="middle" x="58.5" y="-7" font-family="Helvetica,sans-Serif" font-size="10.00">oscore_cbor_put_tag</text>
</a>
</g>
</g>
<!-- Node2 -->
<g id="Node000002" class="node">
<title>Node2</title>
<g id="a_Node000002"><a xlink:href="group__oscore__cbor__internal.html#gab2b2acacb1b2fbf82de02ce4a4d05306" target="_top" xlink:title=" ">
<polygon fill="white" stroke="#666666" points="299,-19 153,-19 153,0 299,0 299,-19"/>
<text text-anchor="middle" x="226" y="-7" font-family="Helvetica,sans-Serif" font-size="10.00">oscore_cbor_put_unsigned</text>
</a>
</g>
</g>
<!-- Node1&#45;&gt;Node2 -->
<g id="edge1_Node000001_Node000002" class="edge">
<title>Node1&#45;&gt;Node2</title>
<g id="a_edge1_Node000001_Node000002"><a xlink:title=" ">
<path fill="none" stroke="#63b8ff" d="M117.38,-9.5C125.62,-9.5 134.23,-9.5 142.82,-9.5"/>
<polygon fill="#63b8ff" stroke="#63b8ff" points="142.89,-13 152.89,-9.5 142.89,-6 142.89,-13"/>
</a>
</g>
</g>
<!-- Node3 -->
<g id="Node000003" class="node">
<title>Node3</title>
<g id="a_Node000003"><a xlink:href="oscore__cbor_8c.html#aba97ba36fc049fca79bd25b249ecc931" target="_top" xlink:title=" ">
<polygon fill="white" stroke="#666666" points="388,-19 335,-19 335,0 388,0 388,-19"/>
<text text-anchor="middle" x="361.5" y="-7" font-family="Helvetica,sans-Serif" font-size="10.00">put_b_f</text>
</a>
</g>
</g>
<!-- Node2&#45;&gt;Node3 -->
<g id="edge2_Node000002_Node000003" class="edge">
<title>Node2&#45;&gt;Node3</title>
<g id="a_edge2_Node000002_Node000003"><a xlink:title=" ">
<path fill="none" stroke="#63b8ff" d="M299.22,-9.5C308.11,-9.5 316.86,-9.5 324.85,-9.5"/>
<polygon fill="#63b8ff" stroke="#63b8ff" points="324.86,-13 334.86,-9.5 324.86,-6 324.86,-13"/>
</a>
</g>
</g>
</g>
</svg>
