<?xml version="1.0" encoding="UTF-8" standalone="no"?>
<!DOCTYPE svg PUBLIC "-//W3C//DTD SVG 1.1//EN"
 "http://www.w3.org/Graphics/SVG/1.1/DTD/svg11.dtd">
<!-- Generated by graphviz version 2.42.4 (0)
 -->
<!-- Title: oscore_free_contexts Pages: 1 -->
<svg width="731pt" height="82pt"
 viewBox="0.00 0.00 731.00 81.53" xmlns="http://www.w3.org/2000/svg" xmlns:xlink="http://www.w3.org/1999/xlink">
<g id="graph0" class="graph" transform="scale(1 1) rotate(0) translate(4 77.53)">
<title>oscore_free_contexts</title>
<!-- Node1 -->
<g id="Node000001" class="node">
<title>Node1</title>
<g id="a_Node000001"><a xlink:title=" ">
<polygon fill="#999999" stroke="#666666" points="121,-57 0,-57 0,-38 121,-38 121,-57"/>
<text text-anchor="middle" x="60.5" y="-45" font-family="Helvetica,sans-Serif" font-size="10.00">oscore_free_contexts</text>
</a>
</g>
</g>
<!-- Node2 -->
<g id="Node000002" class="node">
<title>Node2</title>
<g id="a_Node000002"><a xlink:href="group__oscore__internal.html#ga7e7baf8dff1f16a64b26e6a4634f24f9" target="_top" xlink:title=" ">
<polygon fill="white" stroke="#666666" points="273,-57 157,-57 157,-38 273,-38 273,-57"/>
<text text-anchor="middle" x="215" y="-45" font-family="Helvetica,sans-Serif" font-size="10.00">oscore_free_context</text>
</a>
</g>
</g>
<!-- Node1&#45;&gt;Node2 -->
<g id="edge1_Node000001_Node000002" class="edge">
<title>Node1&#45;&gt;Node2</title>
<g id="a_edge1_Node000001_Node000002"><a xlink:title=" ">
<path fill="none" stroke="#63b8ff" d="M121.33,-47.5C129.64,-47.5 138.22,-47.5 146.65,-47.5"/>
<polygon fill="#63b8ff" stroke="#63b8ff" points="146.83,-51 156.83,-47.5 146.83,-44 146.83,-51"/>
</a>
</g>
</g>
<!-- Node3 -->
<g id="Node000003" class="node">
<title>Node3</title>
<g id="a_Node000003"><a xlink:href="group__string.html#ga49db62401f34ee892cf08826c69973a0" target="_top" xlink:title="Deletes the given const binary data and releases any memory allocated.">
<polygon fill="white" stroke="#666666" points="595,-57 467,-57 467,-38 595,-38 595,-57"/>
<text text-anchor="middle" x="531" y="-45" font-family="Helvetica,sans-Serif" font-size="10.00">coap_delete_bin_const</text>
</a>
</g>
</g>
<!-- Node2&#45;&gt;Node3 -->
<g id="edge2_Node000002_Node000003" class="edge">
<title>Node2&#45;&gt;Node3</title>
<g id="a_edge2_Node000002_Node000003"><a xlink:title=" ">
<path fill="none" stroke="#63b8ff" d="M273.23,-47.5C324.77,-47.5 400.8,-47.5 456.76,-47.5"/>
<polygon fill="#63b8ff" stroke="#63b8ff" points="456.97,-51 466.97,-47.5 456.97,-44 456.97,-51"/>
</a>
</g>
</g>
<!-- Node4 -->
<g id="Node000004" class="node">
<title>Node4</title>
<g id="a_Node000004"><a xlink:href="coap__mem_8h.html#ae7214e0c73a4d4290525873e739ed422" target="_top" xlink:title="Releases the memory that was allocated by coap_malloc_type().">
<polygon fill="white" stroke="#666666" points="723,-57 631,-57 631,-38 723,-38 723,-57"/>
<text text-anchor="middle" x="677" y="-45" font-family="Helvetica,sans-Serif" font-size="10.00">coap_free_type</text>
</a>
</g>
</g>
<!-- Node2&#45;&gt;Node4 -->
<g id="edge4_Node000002_Node000004" class="edge">
<title>Node2&#45;&gt;Node4</title>
<g id="a_edge4_Node000002_Node000004"><a xlink:title=" ">
<path fill="none" stroke="#63b8ff" d="M271.93,-57.07C284.11,-58.83 296.96,-60.45 309,-61.5 435.64,-72.59 468.64,-79.37 595,-65.5 606.74,-64.21 619.27,-61.9 630.87,-59.36"/>
<polygon fill="#63b8ff" stroke="#63b8ff" points="631.83,-62.73 640.79,-57.08 630.27,-55.91 631.83,-62.73"/>
</a>
</g>
</g>
<!-- Node5 -->
<g id="Node000005" class="node">
<title>Node5</title>
<g id="a_Node000005"><a xlink:href="oscore__context_8c.html#a57f44a2f5848c4badcbab9c2b232dff6" target="_top" xlink:title=" ">
<polygon fill="white" stroke="#666666" points="431,-19 309,-19 309,0 431,0 431,-19"/>
<text text-anchor="middle" x="370" y="-7" font-family="Helvetica,sans-Serif" font-size="10.00">oscore_free_recipient</text>
</a>
</g>
</g>
<!-- Node2&#45;&gt;Node5 -->
<g id="edge5_Node000002_Node000005" class="edge">
<title>Node2&#45;&gt;Node5</title>
<g id="a_edge5_Node000002_Node000005"><a xlink:title=" ">
<path fill="none" stroke="#63b8ff" d="M254.61,-37.91C274.71,-32.92 299.48,-26.77 320.82,-21.47"/>
<polygon fill="#63b8ff" stroke="#63b8ff" points="321.81,-24.83 330.67,-19.02 320.12,-18.03 321.81,-24.83"/>
</a>
</g>
</g>
<!-- Node3&#45;&gt;Node4 -->
<g id="edge3_Node000003_Node000004" class="edge">
<title>Node3&#45;&gt;Node4</title>
<g id="a_edge3_Node000003_Node000004"><a xlink:title=" ">
<path fill="none" stroke="#63b8ff" d="M595.16,-47.5C603.56,-47.5 612.11,-47.5 620.37,-47.5"/>
<polygon fill="#63b8ff" stroke="#63b8ff" points="620.63,-51 630.63,-47.5 620.63,-44 620.63,-51"/>
</a>
</g>
</g>
<!-- Node5&#45;&gt;Node3 -->
<g id="edge6_Node000005_Node000003" class="edge">
<title>Node5&#45;&gt;Node3</title>
<g id="a_edge6_Node000005_Node000003"><a xlink:title=" ">
<path fill="none" stroke="#63b8ff" d="M411.12,-19.09C432.1,-24.1 457.98,-30.29 480.23,-35.61"/>
<polygon fill="#63b8ff" stroke="#63b8ff" points="479.63,-39.06 490.17,-37.98 481.25,-32.25 479.63,-39.06"/>
</a>
</g>
</g>
<!-- Node5&#45;&gt;Node4 -->
<g id="edge7_Node000005_Node000004" class="edge">
<title>Node5&#45;&gt;Node4</title>
<g id="a_edge7_Node000005_Node000004"><a xlink:title=" ">
<path fill="none" stroke="#63b8ff" d="M431.18,-12.22C476.45,-14.84 539.88,-19.75 595,-28.5 606.59,-30.34 618.97,-32.92 630.48,-35.6"/>
<polygon fill="#63b8ff" stroke="#63b8ff" points="629.8,-39.03 640.34,-37.95 631.42,-32.22 629.8,-39.03"/>
</a>
</g>
</g>
</g>
</svg>
