<?xml version="1.0" encoding="UTF-8" standalone="no"?>
<!DOCTYPE svg PUBLIC "-//W3C//DTD SVG 1.1//EN"
 "http://www.w3.org/Graphics/SVG/1.1/DTD/svg11.dtd">
<!-- Generated by graphviz version 2.42.4 (0)
 -->
<!-- Title: coap_resize_binary Pages: 1 -->
<svg width="541pt" height="101pt"
 viewBox="0.00 0.00 541.00 101.00" xmlns="http://www.w3.org/2000/svg" xmlns:xlink="http://www.w3.org/1999/xlink">
<g id="graph0" class="graph" transform="scale(1 1) rotate(0) translate(4 97)">
<title>coap_resize_binary</title>
<!-- Node1 -->
<g id="Node000001" class="node">
<title>Node1</title>
<g id="a_Node000001"><a xlink:title="Resizes the given coap_binary_t object.">
<polygon fill="#999999" stroke="#666666" points="110,-56 0,-56 0,-37 110,-37 110,-56"/>
<text text-anchor="middle" x="55" y="-44" font-family="Helvetica,sans-Serif" font-size="10.00">coap_resize_binary</text>
</a>
</g>
</g>
<!-- Node2 -->
<g id="Node000002" class="node">
<title>Node2</title>
<g id="a_Node000002"><a xlink:href="group__string.html#ga5881b7726f26833abb90e30bd23730af" target="_top" xlink:title="Deletes the given coap_binary_t object and releases any memory allocated.">
<polygon fill="white" stroke="#666666" points="258,-93 146,-93 146,-74 258,-74 258,-93"/>
<text text-anchor="middle" x="202" y="-81" font-family="Helvetica,sans-Serif" font-size="10.00">coap_delete_binary</text>
</a>
</g>
</g>
<!-- Node1&#45;&gt;Node2 -->
<g id="edge1_Node000001_Node000002" class="edge">
<title>Node1&#45;&gt;Node2</title>
<g id="a_edge1_Node000001_Node000002"><a xlink:title=" ">
<path fill="none" stroke="#63b8ff" d="M93.34,-56.03C111.71,-60.71 134.04,-66.41 153.6,-71.4"/>
<polygon fill="#63b8ff" stroke="#63b8ff" points="152.98,-74.86 163.53,-73.94 154.71,-68.08 152.98,-74.86"/>
</a>
</g>
</g>
<!-- Node4 -->
<g id="Node000004" class="node">
<title>Node4</title>
<g id="a_Node000004"><a xlink:href="group__string.html#ga4ddcb94c1d26bd87a5ed1af801f35793" target="_top" xlink:title="Returns a new binary object with at least size bytes storage allocated.">
<polygon fill="white" stroke="#666666" points="252.5,-56 151.5,-56 151.5,-37 252.5,-37 252.5,-56"/>
<text text-anchor="middle" x="202" y="-44" font-family="Helvetica,sans-Serif" font-size="10.00">coap_new_binary</text>
</a>
</g>
</g>
<!-- Node1&#45;&gt;Node4 -->
<g id="edge3_Node000001_Node000004" class="edge">
<title>Node1&#45;&gt;Node4</title>
<g id="a_edge3_Node000001_Node000004"><a xlink:title=" ">
<path fill="none" stroke="#63b8ff" d="M110.41,-46.5C120.41,-46.5 130.91,-46.5 141.06,-46.5"/>
<polygon fill="#63b8ff" stroke="#63b8ff" points="141.08,-50 151.08,-46.5 141.08,-43 141.08,-50"/>
</a>
</g>
</g>
<!-- Node7 -->
<g id="Node000007" class="node">
<title>Node7</title>
<g id="a_Node000007"><a xlink:href="coap__mem_8h.html#a7f7999876af136d327a5689d26ed8e77" target="_top" xlink:title="Reallocates a chunk p of bytes created by coap_malloc_type() or coap_realloc_type() and returns a poi...">
<polygon fill="white" stroke="#666666" points="254.5,-19 149.5,-19 149.5,0 254.5,0 254.5,-19"/>
<text text-anchor="middle" x="202" y="-7" font-family="Helvetica,sans-Serif" font-size="10.00">coap_realloc_type</text>
</a>
</g>
</g>
<!-- Node1&#45;&gt;Node7 -->
<g id="edge6_Node000001_Node000007" class="edge">
<title>Node1&#45;&gt;Node7</title>
<g id="a_edge6_Node000001_Node000007"><a xlink:title=" ">
<path fill="none" stroke="#63b8ff" d="M93.34,-36.97C111.71,-32.29 134.04,-26.59 153.6,-21.6"/>
<polygon fill="#63b8ff" stroke="#63b8ff" points="154.71,-24.92 163.53,-19.06 152.98,-18.14 154.71,-24.92"/>
</a>
</g>
</g>
<!-- Node3 -->
<g id="Node000003" class="node">
<title>Node3</title>
<g id="a_Node000003"><a xlink:href="coap__mem_8h.html#ae7214e0c73a4d4290525873e739ed422" target="_top" xlink:title="Releases the memory that was allocated by coap_malloc_type().">
<polygon fill="white" stroke="#666666" points="389,-93 297,-93 297,-74 389,-74 389,-93"/>
<text text-anchor="middle" x="343" y="-81" font-family="Helvetica,sans-Serif" font-size="10.00">coap_free_type</text>
</a>
</g>
</g>
<!-- Node2&#45;&gt;Node3 -->
<g id="edge2_Node000002_Node000003" class="edge">
<title>Node2&#45;&gt;Node3</title>
<g id="a_edge2_Node000002_Node000003"><a xlink:title=" ">
<path fill="none" stroke="#63b8ff" d="M258.34,-83.5C267.58,-83.5 277.17,-83.5 286.41,-83.5"/>
<polygon fill="#63b8ff" stroke="#63b8ff" points="286.67,-87 296.67,-83.5 286.67,-80 286.67,-87"/>
</a>
</g>
</g>
<!-- Node5 -->
<g id="Node000005" class="node">
<title>Node5</title>
<g id="a_Node000005"><a xlink:href="group__string.html#ga9862b1ade5e6e2eb01aabd0fa98b63e1" target="_top" xlink:title="Returns a new string object with at least size+1 bytes storage allocated.">
<polygon fill="white" stroke="#666666" points="392,-56 294,-56 294,-37 392,-37 392,-56"/>
<text text-anchor="middle" x="343" y="-44" font-family="Helvetica,sans-Serif" font-size="10.00">coap_new_string</text>
</a>
</g>
</g>
<!-- Node4&#45;&gt;Node5 -->
<g id="edge4_Node000004_Node000005" class="edge">
<title>Node4&#45;&gt;Node5</title>
<g id="a_edge4_Node000004_Node000005"><a xlink:title=" ">
<path fill="none" stroke="#63b8ff" d="M252.79,-46.5C262.84,-46.5 273.49,-46.5 283.79,-46.5"/>
<polygon fill="#63b8ff" stroke="#63b8ff" points="283.95,-50 293.95,-46.5 283.95,-43 283.95,-50"/>
</a>
</g>
</g>
<!-- Node6 -->
<g id="Node000006" class="node">
<title>Node6</title>
<g id="a_Node000006"><a xlink:href="coap__mem_8h.html#a9f9fd8d6cf24f9c45a5501aeba5acaf9" target="_top" xlink:title="Allocates a chunk of size bytes and returns a pointer to the newly allocated memory.">
<polygon fill="white" stroke="#666666" points="533,-56 428,-56 428,-37 533,-37 533,-56"/>
<text text-anchor="middle" x="480.5" y="-44" font-family="Helvetica,sans-Serif" font-size="10.00">coap_malloc_type</text>
</a>
</g>
</g>
<!-- Node5&#45;&gt;Node6 -->
<g id="edge5_Node000005_Node000006" class="edge">
<title>Node5&#45;&gt;Node6</title>
<g id="a_edge5_Node000005_Node000006"><a xlink:title=" ">
<path fill="none" stroke="#63b8ff" d="M392.15,-46.5C400.46,-46.5 409.2,-46.5 417.81,-46.5"/>
<polygon fill="#63b8ff" stroke="#63b8ff" points="417.83,-50 427.83,-46.5 417.83,-43 417.83,-50"/>
</a>
</g>
</g>
</g>
</svg>
