<?xml version="1.0" encoding="UTF-8" standalone="no"?>
<!DOCTYPE svg PUBLIC "-//W3C//DTD SVG 1.1//EN"
 "http://www.w3.org/Graphics/SVG/1.1/DTD/svg11.dtd">
<!-- Generated by graphviz version 2.42.4 (0)
 -->
<!-- Title: coap_path_into_optlist Pages: 1 -->
<!--zoomable 212 -->

<svg id="main" version="1.1" xmlns="http://www.w3.org/2000/svg" xmlns:xlink="http://www.w3.org/1999/xlink" xml:space="preserve" onload="init(evt)">
<style type="text/css"><![CDATA[
.node, .edge {opacity: 0.7;}
.node.selected, .edge.selected {opacity: 1;}
.edge:hover path { stroke: red; }
.edge:hover polygon { stroke: red; fill: red; }
]]></style>

<defs>
  <circle id="rim" cx="0" cy="0" r="7"/>
  <circle id="rim2" cx="0" cy="0" r="3.5"/>
  <g id="zoomPlus">
    <use xlink:href="#rim" fill="#404040"><set attributeName="fill" to="#808080" begin="zoomplus.mouseover" end="zoomplus.mouseout"/></use>
    <path d="M-4,0h8M0,-4v8" fill="none" stroke="white" stroke-width="1.5" pointer-events="none"/>
  </g>
  <g id="zoomMin">
    <use xlink:href="#rim" fill="#404040"><set attributeName="fill" to="#808080" begin="zoomminus.mouseover" end="zoomminus.mouseout"/></use>
    <path d="M-4,0h8" fill="none" stroke="white" stroke-width="1.5" pointer-events="none"/>
  </g>
  <g id="arrowUp" transform="translate(30 24)">
    <use xlink:href="#rim"/>
    <path pointer-events="none" fill="none" stroke="white" stroke-width="1.5" d="M0,-3.0v7 M-2.5,-0.5L0,-3.0L2.5,-0.5"/>
  </g>
  <g id="arrowRight" transform="rotate(90) translate(36 -43)">
    <use xlink:href="#rim"/>
    <path pointer-events="none" fill="none" stroke="white" stroke-width="1.5" d="M0,-3.0v7 M-2.5,-0.5L0,-3.0L2.5,-0.5"/>
  </g>
  <g id="arrowDown" transform="rotate(180) translate(-30 -48)">
    <use xlink:href="#rim"/>
    <path pointer-events="none" fill="none" stroke="white" stroke-width="1.5" d="M0,-3.0v7 M-2.5,-0.5L0,-3.0L2.5,-0.5"/>
  </g>
  <g id="arrowLeft" transform="rotate(270) translate(-36 17)">
    <use xlink:href="#rim"/>
    <path pointer-events="none" fill="none" stroke="white" stroke-width="1.5" d="M0,-3.0v7 M-2.5,-0.5L0,-3.0L2.5,-0.5"/>
  </g>
  <g id="resetDef">
    <use xlink:href="#rim2" fill="#404040"><set attributeName="fill" to="#808080" begin="reset.mouseover" end="reset.mouseout"/></use>
  </g>
</defs>
<script type="application/ecmascript">
var viewWidth = 730;
var viewHeight = 212;
var sectionId = 'dynsection-3';
</script>
<script type="application/ecmascript" xlink:href="svg.min.js"/>
<svg id="graph" class="graph">
<g id="viewport">
<title>coap_path_into_optlist</title>
<!-- Node1 -->
<g id="Node000001" class="node">
<title>Node1</title>
<g id="a_Node000001"><a xlink:title="Splits the given URI path into &#39;/&#39; separate segments, and then adds the Uri&#45;Path / Location&#45;Path opti...">
<polygon fill="#999999" stroke="#666666" points="127,-111 0,-111 0,-92 127,-92 127,-111"/>
<text text-anchor="middle" x="63.5" y="-99" font-family="Helvetica,sans-Serif" font-size="10.00">coap_path_into_optlist</text>
</a>
</g>
</g>
<!-- Node2 -->
<g id="Node000002" class="node">
<title>Node2</title>
<g id="a_Node000002"><a xlink:href="coap__uri_8c.html#a26ae67837ad541c4b7024fee7b385fbf" target="_top" xlink:title=" ">
<polygon fill="white" stroke="#666666" points="270.5,-204 183.5,-204 183.5,-185 270.5,-185 270.5,-204"/>
<text text-anchor="middle" x="227" y="-192" font-family="Helvetica,sans-Serif" font-size="10.00">backup_optlist</text>
</a>
</g>
</g>
<!-- Node1&#45;&gt;Node2 -->
<g id="edge1_Node000001_Node000002" class="edge">
<title>Node1&#45;&gt;Node2</title>
<g id="a_edge1_Node000001_Node000002"><a xlink:title=" ">
<path fill="none" stroke="#63b8ff" d="M74.55,-111.24C91.46,-127.11 127.26,-158.59 163,-176.5 166.72,-178.36 170.66,-180.06 174.68,-181.6"/>
<polygon fill="#63b8ff" stroke="#63b8ff" points="173.57,-184.92 184.16,-184.92 175.88,-178.31 173.57,-184.92"/>
</a>
</g>
</g>
<!-- Node6 -->
<g id="Node000006" class="node">
<title>Node6</title>
<g id="a_Node000006"><a xlink:href="group__opt__filter.html#gad867c028a9dc7b4be543223cc685c57c" target="_top" xlink:title="Adds optlist to the given optlist_chain.">
<polygon fill="white" stroke="#666666" points="281.5,-167 172.5,-167 172.5,-148 281.5,-148 281.5,-167"/>
<text text-anchor="middle" x="227" y="-155" font-family="Helvetica,sans-Serif" font-size="10.00">coap_insert_optlist</text>
</a>
</g>
</g>
<!-- Node1&#45;&gt;Node6 -->
<g id="edge5_Node000001_Node000006" class="edge">
<title>Node1&#45;&gt;Node6</title>
<g id="a_edge5_Node000001_Node000006"><a xlink:title=" ">
<path fill="none" stroke="#63b8ff" d="M88.63,-111.07C108.47,-118.83 137.39,-129.84 163,-138.5 169.47,-140.69 176.36,-142.89 183.11,-144.98"/>
<polygon fill="#63b8ff" stroke="#63b8ff" points="182.26,-148.38 192.85,-147.95 184.3,-141.69 182.26,-148.38"/>
</a>
</g>
</g>
<!-- Node7 -->
<g id="Node000007" class="node">
<title>Node7</title>
<g id="a_Node000007"><a xlink:href="group__opt__filter.html#ga21df6c3988187909d52a3218eb2f12ef" target="_top" xlink:title="Create a new optlist entry.">
<polygon fill="white" stroke="#666666" points="277.5,-130 176.5,-130 176.5,-111 277.5,-111 277.5,-130"/>
<text text-anchor="middle" x="227" y="-118" font-family="Helvetica,sans-Serif" font-size="10.00">coap_new_optlist</text>
</a>
</g>
</g>
<!-- Node1&#45;&gt;Node7 -->
<g id="edge6_Node000001_Node000007" class="edge">
<title>Node1&#45;&gt;Node7</title>
<g id="a_edge6_Node000001_Node000007"><a xlink:title=" ">
<path fill="none" stroke="#63b8ff" d="M127.4,-108.9C140.19,-110.4 153.61,-111.98 166.28,-113.47"/>
<polygon fill="#63b8ff" stroke="#63b8ff" points="165.92,-116.96 176.26,-114.65 166.74,-110 165.92,-116.96"/>
</a>
</g>
</g>
<!-- Node9 -->
<g id="Node000009" class="node">
<title>Node9</title>
<g id="a_Node000009"><a xlink:href="group__uri.html#gac1ac0cbcb671f7d932a87f6767aeb8eb" target="_top" xlink:title="replace any % hex definitions with the actual character.">
<polygon fill="white" stroke="#666666" points="291,-93 163,-93 163,-74 291,-74 291,-93"/>
<text text-anchor="middle" x="227" y="-81" font-family="Helvetica,sans-Serif" font-size="10.00">coap_replace_percents</text>
</a>
</g>
</g>
<!-- Node1&#45;&gt;Node9 -->
<g id="edge8_Node000001_Node000009" class="edge">
<title>Node1&#45;&gt;Node9</title>
<g id="a_edge8_Node000001_Node000009"><a xlink:title=" ">
<path fill="none" stroke="#63b8ff" d="M127.4,-94.49C135.65,-93.57 144.16,-92.62 152.56,-91.68"/>
<polygon fill="#63b8ff" stroke="#63b8ff" points="153.19,-95.14 162.74,-90.55 152.41,-88.18 153.19,-95.14"/>
</a>
</g>
</g>
<!-- Node10 -->
<g id="Node000010" class="node">
<title>Node10</title>
<g id="a_Node000010"><a xlink:href="coap__uri_8c.html#a079c8b836090aea91f0ecf9efa57d9d6" target="_top" xlink:title="Checks if path segment s consists of one or two dots.">
<polygon fill="white" stroke="#666666" points="246,-56 208,-56 208,-37 246,-37 246,-56"/>
<text text-anchor="middle" x="227" y="-44" font-family="Helvetica,sans-Serif" font-size="10.00">dots</text>
</a>
</g>
</g>
<!-- Node1&#45;&gt;Node10 -->
<g id="edge9_Node000001_Node000010" class="edge">
<title>Node1&#45;&gt;Node10</title>
<g id="a_edge9_Node000001_Node000010"><a xlink:title=" ">
<path fill="none" stroke="#63b8ff" d="M88.19,-91.98C108.03,-84.17 137.15,-73.03 163,-64.5 174.38,-60.74 187.06,-57.03 198.04,-53.96"/>
<polygon fill="#63b8ff" stroke="#63b8ff" points="199.24,-57.26 207.96,-51.24 197.39,-50.51 199.24,-57.26"/>
</a>
</g>
</g>
<!-- Node11 -->
<g id="Node000011" class="node">
<title>Node11</title>
<g id="a_Node000011"><a xlink:href="coap__uri_8c.html#a554dbd9464384b72f9c3e72b9dcce8ee" target="_top" xlink:title="A length&#45;safe version of strchr().">
<polygon fill="white" stroke="#666666" points="252,-19 202,-19 202,0 252,0 252,-19"/>
<text text-anchor="middle" x="227" y="-7" font-family="Helvetica,sans-Serif" font-size="10.00">strnchr</text>
</a>
</g>
</g>
<!-- Node1&#45;&gt;Node11 -->
<g id="edge10_Node000001_Node000011" class="edge">
<title>Node1&#45;&gt;Node11</title>
<g id="a_edge10_Node000001_Node000011"><a xlink:title=" ">
<path fill="none" stroke="#63b8ff" d="M74.58,-91.9C91.52,-76.25 127.38,-45.21 163,-27.5 172.07,-22.99 182.46,-19.44 192.14,-16.73"/>
<polygon fill="#63b8ff" stroke="#63b8ff" points="193.1,-20.1 201.9,-14.2 191.34,-13.32 193.1,-20.1"/>
</a>
</g>
</g>
<!-- Node3 -->
<g id="Node000003" class="node">
<title>Node3</title>
<g id="a_Node000003"><a xlink:href="group__opt__filter.html#ga476a30348f07ce45d0e1a3be0d1a1c21" target="_top" xlink:title="Removes all entries from the optlist_chain, freeing off their memory usage.">
<polygon fill="white" stroke="#666666" points="439,-204 327,-204 327,-185 439,-185 439,-204"/>
<text text-anchor="middle" x="383" y="-192" font-family="Helvetica,sans-Serif" font-size="10.00">coap_delete_optlist</text>
</a>
</g>
</g>
<!-- Node2&#45;&gt;Node3 -->
<g id="edge2_Node000002_Node000003" class="edge">
<title>Node2&#45;&gt;Node3</title>
<g id="a_edge2_Node000002_Node000003"><a xlink:title=" ">
<path fill="none" stroke="#63b8ff" d="M270.9,-194.5C285.13,-194.5 301.32,-194.5 316.85,-194.5"/>
<polygon fill="#63b8ff" stroke="#63b8ff" points="316.93,-198 326.93,-194.5 316.93,-191 316.93,-198"/>
</a>
</g>
</g>
<!-- Node4 -->
<g id="Node000004" class="node">
<title>Node4</title>
<g id="a_Node000004"><a xlink:href="coap__option_8c.html#a7f99f0a8dd81b5ee7824871ebfc384d7" target="_top" xlink:title=" ">
<polygon fill="white" stroke="#666666" points="594,-204 475,-204 475,-185 594,-185 594,-204"/>
<text text-anchor="middle" x="534.5" y="-192" font-family="Helvetica,sans-Serif" font-size="10.00">coap_internal_delete</text>
</a>
</g>
</g>
<!-- Node3&#45;&gt;Node4 -->
<g id="edge3_Node000003_Node000004" class="edge">
<title>Node3&#45;&gt;Node4</title>
<g id="a_edge3_Node000003_Node000004"><a xlink:title=" ">
<path fill="none" stroke="#63b8ff" d="M439.24,-194.5C447.61,-194.5 456.33,-194.5 464.94,-194.5"/>
<polygon fill="#63b8ff" stroke="#63b8ff" points="464.97,-198 474.97,-194.5 464.97,-191 464.97,-198"/>
</a>
</g>
</g>
<!-- Node5 -->
<g id="Node000005" class="node">
<title>Node5</title>
<g id="a_Node000005"><a xlink:href="coap__mem_8h.html#ae7214e0c73a4d4290525873e739ed422" target="_top" xlink:title="Releases the memory that was allocated by coap_malloc_type().">
<polygon fill="white" stroke="#666666" points="722,-204 630,-204 630,-185 722,-185 722,-204"/>
<text text-anchor="middle" x="676" y="-192" font-family="Helvetica,sans-Serif" font-size="10.00">coap_free_type</text>
</a>
</g>
</g>
<!-- Node4&#45;&gt;Node5 -->
<g id="edge4_Node000004_Node000005" class="edge">
<title>Node4&#45;&gt;Node5</title>
<g id="a_edge4_Node000004_Node000005"><a xlink:title=" ">
<path fill="none" stroke="#63b8ff" d="M594.26,-194.5C602.73,-194.5 611.42,-194.5 619.82,-194.5"/>
<polygon fill="#63b8ff" stroke="#63b8ff" points="619.88,-198 629.88,-194.5 619.88,-191 619.88,-198"/>
</a>
</g>
</g>
<!-- Node8 -->
<g id="Node000008" class="node">
<title>Node8</title>
<g id="a_Node000008"><a xlink:href="coap__mem_8h.html#a9f9fd8d6cf24f9c45a5501aeba5acaf9" target="_top" xlink:title="Allocates a chunk of size bytes and returns a pointer to the newly allocated memory.">
<polygon fill="white" stroke="#666666" points="435.5,-130 330.5,-130 330.5,-111 435.5,-111 435.5,-130"/>
<text text-anchor="middle" x="383" y="-118" font-family="Helvetica,sans-Serif" font-size="10.00">coap_malloc_type</text>
</a>
</g>
</g>
<!-- Node7&#45;&gt;Node8 -->
<g id="edge7_Node000007_Node000008" class="edge">
<title>Node7&#45;&gt;Node8</title>
<g id="a_edge7_Node000007_Node000008"><a xlink:title=" ">
<path fill="none" stroke="#63b8ff" d="M277.57,-120.5C291.16,-120.5 306.05,-120.5 320.23,-120.5"/>
<polygon fill="#63b8ff" stroke="#63b8ff" points="320.4,-124 330.4,-120.5 320.4,-117 320.4,-124"/>
</a>
</g>
</g>
</g>
</svg>

<g id="navigator" transform="translate(0 0)" fill="#404254">
  <rect fill="#f2f5e9" fill-opacity="0.5" stroke="#606060" stroke-width=".5" x="0" y="0" width="60" height="60"/>
  <use id="zoomplus" xlink:href="#zoomPlus" x="17" y="9" onmousedown="handleZoom(evt,'in')"/>
  <use id="zoomminus" xlink:href="#zoomMin" x="42" y="9" onmousedown="handleZoom(evt,'out')"/>
  <use id="reset" xlink:href="#resetDef" x="30" y="36" onmousedown="handleReset()"/>
   <use id="arrowup" xlink:href="#arrowUp" x="0" y="0" onmousedown="handlePan(0,-1)"/>
  <use id="arrowright" xlink:href="#arrowRight" x="0" y="0" onmousedown="handlePan(1,0)"/>
  <use id="arrowdown" xlink:href="#arrowDown" x="0" y="0" onmousedown="handlePan(0,1)"/>
  <use id="arrowleft" xlink:href="#arrowLeft" x="0" y="0" onmousedown="handlePan(-1,0)"/>
</g>
<svg viewBox="0 0 15 15" width="100%" height="30px" preserveAspectRatio="xMaxYMin meet">
 <g id="arrow_out" transform="scale(0.3 0.3)">
  <a xlink:href="group__uri__parse_gaa1f8397b1e5830cdfb011b455c6cab9e_cgraph_org.svg" target="_base">
   <rect id="button" ry="5" rx="5" y="6" x="6" height="38" width="38"
        fill="#f2f5e9" fill-opacity="0.5" stroke="#606060" stroke-width="1.0"/>
   <path id="arrow"
     d="M 11.500037,31.436501 C 11.940474,20.09759 22.043105,11.32322 32.158766,21.979434 L 37.068811,17.246167 C 37.068811,17.246167 37.088388,32 37.088388,32 L 22.160133,31.978069 C 22.160133,31.978069 26.997745,27.140456 26.997745,27.140456 C 18.528582,18.264221 13.291696,25.230495 11.500037,31.436501 z"
     style="fill:#404040;"/>
  </a>
 </g>
</svg>

<style type='text/css'>
<![CDATA[
[data-mouse-over-selected='false'] { opacity: 0.7; }
[data-mouse-over-selected='true']  { opacity: 1.0; }
]]>
</style>
<script type="application/ecmascript"><![CDATA[
document.addEventListener('DOMContentLoaded', (event) => {
  highlightEdges();
  highlightAdjacentNodes();
});
]]></script>
</svg>
