<?xml version="1.0" encoding="UTF-8" standalone="no"?>
<!DOCTYPE svg PUBLIC "-//W3C//DTD SVG 1.1//EN"
 "http://www.w3.org/Graphics/SVG/1.1/DTD/svg11.dtd">
<!-- Generated by graphviz version 2.42.4 (0)
 -->
<!-- Title: coap_path_into_optlist Pages: 1 -->
<svg width="448pt" height="27pt"
 viewBox="0.00 0.00 448.00 27.00" xmlns="http://www.w3.org/2000/svg" xmlns:xlink="http://www.w3.org/1999/xlink">
<g id="graph0" class="graph" transform="scale(1 1) rotate(0) translate(4 23)">
<title>coap_path_into_optlist</title>
<!-- Node1 -->
<g id="Node000001" class="node">
<title>Node1</title>
<g id="a_Node000001"><a xlink:title="Splits the given URI path into &#39;/&#39; separate segments, and then adds the Uri&#45;Path / Location&#45;Path opti...">
<polygon fill="#999999" stroke="#666666" points="440,-19 313,-19 313,0 440,0 440,-19"/>
<text text-anchor="middle" x="376.5" y="-7" font-family="Helvetica,sans-Serif" font-size="10.00">coap_path_into_optlist</text>
</a>
</g>
</g>
<!-- Node2 -->
<g id="Node000002" class="node">
<title>Node2</title>
<g id="a_Node000002"><a xlink:href="group__uri__parse.html#gabf8a2fac8b3f1ff3ba9a6d145e9ff7f9" target="_top" xlink:title="Takes a coap_uri_t and then adds CoAP options into the optlist_chain.">
<polygon fill="white" stroke="#666666" points="277,-19 159,-19 159,0 277,0 277,-19"/>
<text text-anchor="middle" x="218" y="-7" font-family="Helvetica,sans-Serif" font-size="10.00">coap_uri_into_optlist</text>
</a>
</g>
</g>
<!-- Node1&#45;&gt;Node2 -->
<g id="edge1_Node000001_Node000002" class="edge">
<title>Node1&#45;&gt;Node2</title>
<g id="a_edge1_Node000001_Node000002"><a xlink:title=" ">
<path fill="none" stroke="#63b8ff" d="M302.48,-9.5C294,-9.5 285.44,-9.5 277.2,-9.5"/>
<polygon fill="#63b8ff" stroke="#63b8ff" points="302.75,-13 312.75,-9.5 302.75,-6 302.75,-13"/>
</a>
</g>
</g>
<!-- Node3 -->
<g id="Node000003" class="node">
<title>Node3</title>
<g id="a_Node000003"><a xlink:href="coap__uri_8c.html#a216bce778869f5863264fc3c2498c2ed" target="_top" xlink:title=" ">
<polygon fill="white" stroke="#666666" points="123,-19 0,-19 0,0 123,0 123,-19"/>
<text text-anchor="middle" x="61.5" y="-7" font-family="Helvetica,sans-Serif" font-size="10.00">coap_uri_into_options</text>
</a>
</g>
</g>
<!-- Node2&#45;&gt;Node3 -->
<g id="edge2_Node000002_Node000003" class="edge">
<title>Node2&#45;&gt;Node3</title>
<g id="a_edge2_Node000002_Node000003"><a xlink:title=" ">
<path fill="none" stroke="#63b8ff" d="M148.39,-9.5C139.94,-9.5 131.36,-9.5 123.05,-9.5"/>
<polygon fill="#63b8ff" stroke="#63b8ff" points="148.59,-13 158.59,-9.5 148.59,-6 148.59,-13"/>
</a>
</g>
</g>
</g>
</svg>
