<?xml version="1.0" encoding="UTF-8" standalone="no"?>
<!DOCTYPE svg PUBLIC "-//W3C//DTD SVG 1.1//EN"
 "http://www.w3.org/Graphics/SVG/1.1/DTD/svg11.dtd">
<!-- Generated by graphviz version 2.42.4 (0)
 -->
<!-- Title: cose_key_len Pages: 1 -->
<svg width="255pt" height="64pt"
 viewBox="0.00 0.00 255.00 64.00" xmlns="http://www.w3.org/2000/svg" xmlns:xlink="http://www.w3.org/1999/xlink">
<g id="graph0" class="graph" transform="scale(1 1) rotate(0) translate(4 60)">
<title>cose_key_len</title>
<!-- Node1 -->
<g id="Node000001" class="node">
<title>Node1</title>
<g id="a_Node000001"><a xlink:title=" ">
<polygon fill="#999999" stroke="#666666" points="247,-37 165,-37 165,-18 247,-18 247,-37"/>
<text text-anchor="middle" x="206" y="-25" font-family="Helvetica,sans-Serif" font-size="10.00">cose_key_len</text>
</a>
</g>
</g>
<!-- Node2 -->
<g id="Node000002" class="node">
<title>Node2</title>
<g id="a_Node000002"><a xlink:href="group__oscore__cose__internal.html#ga98bce18599d06855aef264c581359cfc" target="_top" xlink:title=" ">
<polygon fill="white" stroke="#666666" points="129,-56 0,-56 0,-37 129,-37 129,-56"/>
<text text-anchor="middle" x="64.5" y="-44" font-family="Helvetica,sans-Serif" font-size="10.00">cose_encrypt0_decrypt</text>
</a>
</g>
</g>
<!-- Node1&#45;&gt;Node2 -->
<g id="edge1_Node000001_Node000002" class="edge">
<title>Node1&#45;&gt;Node2</title>
<g id="a_edge1_Node000001_Node000002"><a xlink:title=" ">
<path fill="none" stroke="#63b8ff" d="M154.48,-34.38C146.25,-35.5 137.64,-36.67 129.15,-37.83"/>
<polygon fill="#63b8ff" stroke="#63b8ff" points="155.21,-37.81 164.65,-33 154.27,-30.88 155.21,-37.81"/>
</a>
</g>
</g>
<!-- Node3 -->
<g id="Node000003" class="node">
<title>Node3</title>
<g id="a_Node000003"><a xlink:href="group__oscore__cose__internal.html#gabda4c182c04647d9c5a9f3aad718dd2b" target="_top" xlink:title=" ">
<polygon fill="white" stroke="#666666" points="129,-19 0,-19 0,0 129,0 129,-19"/>
<text text-anchor="middle" x="64.5" y="-7" font-family="Helvetica,sans-Serif" font-size="10.00">cose_encrypt0_encrypt</text>
</a>
</g>
</g>
<!-- Node1&#45;&gt;Node3 -->
<g id="edge2_Node000001_Node000003" class="edge">
<title>Node1&#45;&gt;Node3</title>
<g id="a_edge2_Node000001_Node000003"><a xlink:title=" ">
<path fill="none" stroke="#63b8ff" d="M154.48,-20.98C146.25,-19.92 137.64,-18.81 129.15,-17.71"/>
<polygon fill="#63b8ff" stroke="#63b8ff" points="154.29,-24.49 164.65,-22.29 155.18,-17.54 154.29,-24.49"/>
</a>
</g>
</g>
</g>
</svg>
