<?xml version="1.0" encoding="UTF-8" standalone="no"?>
<!DOCTYPE svg PUBLIC "-//W3C//DTD SVG 1.1//EN"
 "http://www.w3.org/Graphics/SVG/1.1/DTD/svg11.dtd">
<!-- Generated by graphviz version 2.42.4 (0)
 -->
<!-- Title: util_write_byte Pages: 1 -->
<svg width="827pt" height="121pt"
 viewBox="0.00 0.00 827.00 121.36" xmlns="http://www.w3.org/2000/svg" xmlns:xlink="http://www.w3.org/1999/xlink">
<g id="graph0" class="graph" transform="scale(1 1) rotate(0) translate(4 117.36)">
<title>util_write_byte</title>
<!-- Node1 -->
<g id="Node000001" class="node">
<title>Node1</title>
<g id="a_Node000001"><a xlink:title=" ">
<polygon fill="#999999" stroke="#666666" points="819,-76 730,-76 730,-57 819,-57 819,-76"/>
<text text-anchor="middle" x="774.5" y="-64" font-family="Helvetica,sans-Serif" font-size="10.00">util_write_byte</text>
</a>
</g>
</g>
<!-- Node2 -->
<g id="Node000002" class="node">
<title>Node2</title>
<g id="a_Node000002"><a xlink:href="group__oscore__cbor__internal.html#ga8eb8cf88174c2c9a51b813b3ba10a8da" target="_top" xlink:title=" ">
<polygon fill="white" stroke="#666666" points="694,-113 569,-113 569,-94 694,-94 694,-113"/>
<text text-anchor="middle" x="631.5" y="-101" font-family="Helvetica,sans-Serif" font-size="10.00">oscore_cbor_put_false</text>
</a>
</g>
</g>
<!-- Node1&#45;&gt;Node2 -->
<g id="edge1_Node000001_Node000002" class="edge">
<title>Node1&#45;&gt;Node2</title>
<g id="a_edge1_Node000001_Node000002"><a xlink:title=" ">
<path fill="none" stroke="#63b8ff" d="M727.31,-78.62C708.45,-83.57 686.94,-89.22 669.18,-93.88"/>
<polygon fill="#63b8ff" stroke="#63b8ff" points="728.4,-81.95 737.19,-76.03 726.63,-75.18 728.4,-81.95"/>
</a>
</g>
</g>
<!-- Node3 -->
<g id="Node000003" class="node">
<title>Node3</title>
<g id="a_Node000003"><a xlink:href="group__oscore__cbor__internal.html#ga811ae8a85ef85408a783aedd97457864" target="_top" xlink:title=" ">
<polygon fill="white" stroke="#666666" points="688,-76 575,-76 575,-57 688,-57 688,-76"/>
<text text-anchor="middle" x="631.5" y="-64" font-family="Helvetica,sans-Serif" font-size="10.00">oscore_cbor_put_nil</text>
</a>
</g>
</g>
<!-- Node1&#45;&gt;Node3 -->
<g id="edge2_Node000001_Node000003" class="edge">
<title>Node1&#45;&gt;Node3</title>
<g id="a_edge2_Node000001_Node000003"><a xlink:title=" ">
<path fill="none" stroke="#63b8ff" d="M719.54,-66.5C709.22,-66.5 698.39,-66.5 688.02,-66.5"/>
<polygon fill="#63b8ff" stroke="#63b8ff" points="719.66,-70 729.66,-66.5 719.66,-63 719.66,-70"/>
</a>
</g>
</g>
<!-- Node10 -->
<g id="Node000010" class="node">
<title>Node10</title>
<g id="a_Node000010"><a xlink:href="group__oscore__cbor__internal.html#gab1dc806dbef68aa5fa5ea7cc84b732d9" target="_top" xlink:title=" ">
<polygon fill="white" stroke="#666666" points="692,-39 571,-39 571,-20 692,-20 692,-39"/>
<text text-anchor="middle" x="631.5" y="-27" font-family="Helvetica,sans-Serif" font-size="10.00">oscore_cbor_put_true</text>
</a>
</g>
</g>
<!-- Node1&#45;&gt;Node10 -->
<g id="edge11_Node000001_Node000010" class="edge">
<title>Node1&#45;&gt;Node10</title>
<g id="a_edge11_Node000001_Node000010"><a xlink:title=" ">
<path fill="none" stroke="#63b8ff" d="M727.31,-54.38C708.45,-49.43 686.94,-43.78 669.18,-39.12"/>
<polygon fill="#63b8ff" stroke="#63b8ff" points="726.63,-57.82 737.19,-56.97 728.4,-51.05 726.63,-57.82"/>
</a>
</g>
</g>
<!-- Node4 -->
<g id="Node000004" class="node">
<title>Node4</title>
<g id="a_Node000004"><a xlink:href="oscore__context_8c.html#aca737c5710662b7acd7699622a8e2846" target="_top" xlink:title=" ">
<polygon fill="white" stroke="#666666" points="533,-76 448,-76 448,-57 533,-57 533,-76"/>
<text text-anchor="middle" x="490.5" y="-64" font-family="Helvetica,sans-Serif" font-size="10.00">compose_info</text>
</a>
</g>
</g>
<!-- Node3&#45;&gt;Node4 -->
<g id="edge3_Node000003_Node000004" class="edge">
<title>Node3&#45;&gt;Node4</title>
<g id="a_edge3_Node000003_Node000004"><a xlink:title=" ">
<path fill="none" stroke="#63b8ff" d="M564.57,-66.5C553.86,-66.5 543.04,-66.5 533.12,-66.5"/>
<polygon fill="#63b8ff" stroke="#63b8ff" points="564.76,-70 574.76,-66.5 564.76,-63 564.76,-70"/>
</a>
</g>
</g>
<!-- Node5 -->
<g id="Node000005" class="node">
<title>Node5</title>
<g id="a_Node000005"><a xlink:href="oscore__context_8c.html#a5dd2a845d237fab6455e841459932301" target="_top" xlink:title=" ">
<polygon fill="white" stroke="#666666" points="412,-76 311,-76 311,-57 412,-57 412,-76"/>
<text text-anchor="middle" x="361.5" y="-64" font-family="Helvetica,sans-Serif" font-size="10.00">oscore_build_key</text>
</a>
</g>
</g>
<!-- Node4&#45;&gt;Node5 -->
<g id="edge4_Node000004_Node000005" class="edge">
<title>Node4&#45;&gt;Node5</title>
<g id="a_edge4_Node000004_Node000005"><a xlink:title=" ">
<path fill="none" stroke="#63b8ff" d="M437.78,-66.5C429.31,-66.5 420.56,-66.5 412.14,-66.5"/>
<polygon fill="#63b8ff" stroke="#63b8ff" points="437.92,-70 447.92,-66.5 437.92,-63 437.92,-70"/>
</a>
</g>
</g>
<!-- Node6 -->
<g id="Node000006" class="node">
<title>Node6</title>
<g id="a_Node000006"><a xlink:href="group__oscore__internal.html#ga28cf1e32f7d4f13cd4f25aca27169580" target="_top" xlink:title="oscore_add_recipient &#45; add in recipient information">
<polygon fill="white" stroke="#666666" points="275,-95 155,-95 155,-76 275,-76 275,-95"/>
<text text-anchor="middle" x="215" y="-83" font-family="Helvetica,sans-Serif" font-size="10.00">oscore_add_recipient</text>
</a>
</g>
</g>
<!-- Node5&#45;&gt;Node6 -->
<g id="edge5_Node000005_Node000006" class="edge">
<title>Node5&#45;&gt;Node6</title>
<g id="a_edge5_Node000005_Node000006"><a xlink:title=" ">
<path fill="none" stroke="#63b8ff" d="M300.61,-74.37C292.16,-75.49 283.47,-76.63 275.04,-77.74"/>
<polygon fill="#63b8ff" stroke="#63b8ff" points="301.31,-77.81 310.77,-73.04 300.4,-70.87 301.31,-77.81"/>
</a>
</g>
</g>
<!-- Node7 -->
<g id="Node000007" class="node">
<title>Node7</title>
<g id="a_Node000007"><a xlink:href="group__oscore__internal.html#ga8636deef153df3f5c67fba15ff3893c0" target="_top" xlink:title="oscore_derive_ctx &#45; derive a osc_ctx from oscore_conf information">
<polygon fill="white" stroke="#666666" points="112,-113 7,-113 7,-94 112,-94 112,-113"/>
<text text-anchor="middle" x="59.5" y="-101" font-family="Helvetica,sans-Serif" font-size="10.00">oscore_derive_ctx</text>
</a>
</g>
</g>
<!-- Node5&#45;&gt;Node7 -->
<g id="edge8_Node000005_Node000007" class="edge">
<title>Node5&#45;&gt;Node7</title>
<g id="a_edge8_Node000005_Node000007"><a xlink:title=" ">
<path fill="none" stroke="#63b8ff" d="M335.48,-80.97C318.92,-89.69 296.39,-99.96 275,-104.5 220.36,-116.1 156.11,-113.76 112.27,-109.84"/>
<polygon fill="#63b8ff" stroke="#63b8ff" points="337.37,-83.93 344.48,-76.07 334.03,-77.78 337.37,-83.93"/>
</a>
</g>
</g>
<!-- Node8 -->
<g id="Node000008" class="node">
<title>Node8</title>
<g id="a_Node000008"><a xlink:href="group__oscore__internal.html#gac1dcb68cfe7c74e017f67ad7c085a492" target="_top" xlink:title="oscore_duplicate_ctx &#45; duplicate a osc_ctx">
<polygon fill="white" stroke="#666666" points="119,-76 0,-76 0,-57 119,-57 119,-76"/>
<text text-anchor="middle" x="59.5" y="-64" font-family="Helvetica,sans-Serif" font-size="10.00">oscore_duplicate_ctx</text>
</a>
</g>
</g>
<!-- Node5&#45;&gt;Node8 -->
<g id="edge9_Node000005_Node000008" class="edge">
<title>Node5&#45;&gt;Node8</title>
<g id="a_edge9_Node000005_Node000008"><a xlink:title=" ">
<path fill="none" stroke="#63b8ff" d="M300.74,-66.5C247.99,-66.5 171.53,-66.5 119.12,-66.5"/>
<polygon fill="#63b8ff" stroke="#63b8ff" points="300.96,-70 310.96,-66.5 300.96,-63 300.96,-70"/>
</a>
</g>
</g>
<!-- Node9 -->
<g id="Node000009" class="node">
<title>Node9</title>
<g id="a_Node000009"><a xlink:href="group__oscore__internal.html#ga77af2b488323aca8684f23dfde52e1d5" target="_top" xlink:title="oscore_update_ctx &#45; update a osc_ctx with a new id_context">
<polygon fill="white" stroke="#666666" points="269,-19 161,-19 161,0 269,0 269,-19"/>
<text text-anchor="middle" x="215" y="-7" font-family="Helvetica,sans-Serif" font-size="10.00">oscore_update_ctx</text>
</a>
</g>
</g>
<!-- Node5&#45;&gt;Node9 -->
<g id="edge10_Node000005_Node000009" class="edge">
<title>Node5&#45;&gt;Node9</title>
<g id="a_edge10_Node000005_Node000009"><a xlink:title=" ">
<path fill="none" stroke="#63b8ff" d="M326.68,-53.16C300.18,-42.7 263.95,-28.41 240.26,-19.07"/>
<polygon fill="#63b8ff" stroke="#63b8ff" points="325.73,-56.55 336.31,-56.96 328.3,-50.03 325.73,-56.55"/>
</a>
</g>
</g>
<!-- Node6&#45;&gt;Node7 -->
<g id="edge6_Node000006_Node000007" class="edge">
<title>Node6&#45;&gt;Node7</title>
<g id="a_edge6_Node000006_Node000007"><a xlink:title=" ">
<path fill="none" stroke="#63b8ff" d="M144.7,-93.63C133.77,-94.91 122.63,-96.21 112.19,-97.44"/>
<polygon fill="#63b8ff" stroke="#63b8ff" points="145.13,-97.1 154.65,-92.46 144.31,-90.15 145.13,-97.1"/>
</a>
</g>
</g>
<!-- Node6&#45;&gt;Node8 -->
<g id="edge7_Node000006_Node000008" class="edge">
<title>Node6&#45;&gt;Node8</title>
<g id="a_edge7_Node000006_Node000008"><a xlink:title=" ">
<path fill="none" stroke="#63b8ff" d="M144.72,-76.92C136.19,-75.87 127.54,-74.8 119.18,-73.76"/>
<polygon fill="#63b8ff" stroke="#63b8ff" points="144.3,-80.4 154.65,-78.15 145.16,-73.45 144.3,-80.4"/>
</a>
</g>
</g>
</g>
</svg>
