<?xml version="1.0" encoding="UTF-8" standalone="no"?>
<!DOCTYPE svg PUBLIC "-//W3C//DTD SVG 1.1//EN"
 "http://www.w3.org/Graphics/SVG/1.1/DTD/svg11.dtd">
<!-- Generated by graphviz version 2.42.4 (0)
 -->
<!-- Title: coap_dtls_key_t Pages: 1 -->
<!--zoomable 175 -->

<svg id="main" version="1.1" xmlns="http://www.w3.org/2000/svg" xmlns:xlink="http://www.w3.org/1999/xlink" xml:space="preserve" onload="init(evt)">
<style type="text/css"><![CDATA[
.node, .edge {opacity: 0.7;}
.node.selected, .edge.selected {opacity: 1;}
.edge:hover path { stroke: red; }
.edge:hover polygon { stroke: red; fill: red; }
]]></style>

<defs>
  <circle id="rim" cx="0" cy="0" r="7"/>
  <circle id="rim2" cx="0" cy="0" r="3.5"/>
  <g id="zoomPlus">
    <use xlink:href="#rim" fill="#404040"><set attributeName="fill" to="#808080" begin="zoomplus.mouseover" end="zoomplus.mouseout"/></use>
    <path d="M-4,0h8M0,-4v8" fill="none" stroke="white" stroke-width="1.5" pointer-events="none"/>
  </g>
  <g id="zoomMin">
    <use xlink:href="#rim" fill="#404040"><set attributeName="fill" to="#808080" begin="zoomminus.mouseover" end="zoomminus.mouseout"/></use>
    <path d="M-4,0h8" fill="none" stroke="white" stroke-width="1.5" pointer-events="none"/>
  </g>
  <g id="arrowUp" transform="translate(30 24)">
    <use xlink:href="#rim"/>
    <path pointer-events="none" fill="none" stroke="white" stroke-width="1.5" d="M0,-3.0v7 M-2.5,-0.5L0,-3.0L2.5,-0.5"/>
  </g>
  <g id="arrowRight" transform="rotate(90) translate(36 -43)">
    <use xlink:href="#rim"/>
    <path pointer-events="none" fill="none" stroke="white" stroke-width="1.5" d="M0,-3.0v7 M-2.5,-0.5L0,-3.0L2.5,-0.5"/>
  </g>
  <g id="arrowDown" transform="rotate(180) translate(-30 -48)">
    <use xlink:href="#rim"/>
    <path pointer-events="none" fill="none" stroke="white" stroke-width="1.5" d="M0,-3.0v7 M-2.5,-0.5L0,-3.0L2.5,-0.5"/>
  </g>
  <g id="arrowLeft" transform="rotate(270) translate(-36 17)">
    <use xlink:href="#rim"/>
    <path pointer-events="none" fill="none" stroke="white" stroke-width="1.5" d="M0,-3.0v7 M-2.5,-0.5L0,-3.0L2.5,-0.5"/>
  </g>
  <g id="resetDef">
    <use xlink:href="#rim2" fill="#404040"><set attributeName="fill" to="#808080" begin="reset.mouseover" end="reset.mouseout"/></use>
  </g>
</defs>
<script type="application/ecmascript">
var viewWidth = 544;
var viewHeight = 175;
var sectionId = 'dynsection-0';
</script>
<script type="application/ecmascript" xlink:href="svg.min.js"/>
<svg id="graph" class="graph">
<g id="viewport">
<title>coap_dtls_key_t</title>
<!-- Node1 -->
<g id="Node000001" class="node">
<title>Node1</title>
<g id="a_Node000001"><a xlink:title="The structure that holds the PKI key information.">
<polygon fill="#999999" stroke="#666666" points="536,-93 441,-93 441,-74 536,-74 536,-93"/>
<text text-anchor="middle" x="488.5" y="-81" font-family="Helvetica,sans-Serif" font-size="10.00">coap_dtls_key_t</text>
</a>
</g>
</g>
<!-- Node2 -->
<g id="Node000002" class="node">
<title>Node2</title>
<g id="a_Node000002"><a xlink:href="structcoap__pki__key__pem__t.html" target="_top" xlink:title="The structure that holds the PKI PEM definitions.">
<polygon fill="white" stroke="#666666" points="348.5,-167 229.5,-167 229.5,-148 348.5,-148 348.5,-167"/>
<text text-anchor="middle" x="289" y="-155" font-family="Helvetica,sans-Serif" font-size="10.00">coap_pki_key_pem_t</text>
</a>
</g>
</g>
<!-- Node2&#45;&gt;Node1 -->
<g id="edge1_Node000001_Node000002" class="edge">
<title>Node2&#45;&gt;Node1</title>
<g id="a_edge1_Node000001_Node000002"><a xlink:title=" ">
<path fill="none" stroke="#9a32cd" stroke-dasharray="5,2" d="M347.8,-145.56C371.6,-139.7 399.13,-131.69 423,-121.5 441.41,-113.65 461.01,-101.49 473.71,-93.05"/>
<polygon fill="#9a32cd" stroke="#9a32cd" points="346.77,-142.21 337.86,-147.94 348.4,-149.02 346.77,-142.21"/>
</a>
</g>
<text text-anchor="middle" x="400" y="-139.5" font-family="Helvetica,sans-Serif" font-size="10.00" fill="grey"> pem</text>
</g>
<!-- Node3 -->
<g id="Node000003" class="node">
<title>Node3</title>
<g id="a_Node000003"><a xlink:href="structcoap__pki__key__pem__buf__t.html" target="_top" xlink:title="The structure that holds the PKI PEM buffer definitions.">
<polygon fill="white" stroke="#666666" points="359,-130 219,-130 219,-111 359,-111 359,-130"/>
<text text-anchor="middle" x="289" y="-118" font-family="Helvetica,sans-Serif" font-size="10.00">coap_pki_key_pem_buf_t</text>
</a>
</g>
</g>
<!-- Node3&#45;&gt;Node1 -->
<g id="edge2_Node000001_Node000003" class="edge">
<title>Node3&#45;&gt;Node1</title>
<g id="a_edge2_Node000001_Node000003"><a xlink:title=" ">
<path fill="none" stroke="#9a32cd" stroke-dasharray="5,2" d="M362.82,-109.33C382.41,-106.08 403.55,-102.37 423,-98.5 431.23,-96.86 440.01,-94.94 448.36,-93.03"/>
<polygon fill="#9a32cd" stroke="#9a32cd" points="362.04,-105.91 352.74,-110.98 363.17,-112.82 362.04,-105.91"/>
</a>
</g>
<text text-anchor="middle" x="400" y="-109.5" font-family="Helvetica,sans-Serif" font-size="10.00" fill="grey"> pem_buf</text>
</g>
<!-- Node4 -->
<g id="Node000004" class="node">
<title>Node4</title>
<g id="a_Node000004"><a xlink:href="structcoap__pki__key__asn1__t.html" target="_top" xlink:title="The structure that holds the PKI ASN.1 (DER) definitions.">
<polygon fill="white" stroke="#666666" points="349,-93 229,-93 229,-74 349,-74 349,-93"/>
<text text-anchor="middle" x="289" y="-81" font-family="Helvetica,sans-Serif" font-size="10.00">coap_pki_key_asn1_t</text>
</a>
</g>
</g>
<!-- Node4&#45;&gt;Node1 -->
<g id="edge3_Node000001_Node000004" class="edge">
<title>Node4&#45;&gt;Node1</title>
<g id="a_edge3_Node000001_Node000004"><a xlink:title=" ">
<path fill="none" stroke="#9a32cd" stroke-dasharray="5,2" d="M359.41,-83.5C386.38,-83.5 416.55,-83.5 440.83,-83.5"/>
<polygon fill="#9a32cd" stroke="#9a32cd" points="359.26,-80 349.26,-83.5 359.26,-87 359.26,-80"/>
</a>
</g>
<text text-anchor="middle" x="400" y="-86.5" font-family="Helvetica,sans-Serif" font-size="10.00" fill="grey"> asn1</text>
</g>
<!-- Node5 -->
<g id="Node000005" class="node">
<title>Node5</title>
<g id="a_Node000005"><a xlink:href="structcoap__pki__key__pkcs11__t.html" target="_top" xlink:title="The structure that holds the PKI PKCS11 definitions.">
<polygon fill="white" stroke="#666666" points="354.5,-56 223.5,-56 223.5,-37 354.5,-37 354.5,-56"/>
<text text-anchor="middle" x="289" y="-44" font-family="Helvetica,sans-Serif" font-size="10.00">coap_pki_key_pkcs11_t</text>
</a>
</g>
</g>
<!-- Node5&#45;&gt;Node1 -->
<g id="edge4_Node000001_Node000005" class="edge">
<title>Node5&#45;&gt;Node1</title>
<g id="a_edge4_Node000001_Node000005"><a xlink:title=" ">
<path fill="none" stroke="#9a32cd" stroke-dasharray="5,2" d="M362.82,-57.67C382.41,-60.92 403.55,-64.63 423,-68.5 431.23,-70.14 440.01,-72.06 448.36,-73.97"/>
<polygon fill="#9a32cd" stroke="#9a32cd" points="363.17,-54.18 352.74,-56.02 362.04,-61.09 363.17,-54.18"/>
</a>
</g>
<text text-anchor="middle" x="400" y="-71.5" font-family="Helvetica,sans-Serif" font-size="10.00" fill="grey"> pkcs11</text>
</g>
<!-- Node6 -->
<g id="Node000006" class="node">
<title>Node6</title>
<g id="a_Node000006"><a xlink:href="structcoap__pki__key__define__t.html" target="_top" xlink:title="The structure that holds the PKI Definable key type definitions.">
<polygon fill="white" stroke="#666666" points="352.5,-19 225.5,-19 225.5,0 352.5,0 352.5,-19"/>
<text text-anchor="middle" x="289" y="-7" font-family="Helvetica,sans-Serif" font-size="10.00">coap_pki_key_define_t</text>
</a>
</g>
</g>
<!-- Node6&#45;&gt;Node1 -->
<g id="edge5_Node000001_Node000006" class="edge">
<title>Node6&#45;&gt;Node1</title>
<g id="a_edge5_Node000001_Node000006"><a xlink:title=" ">
<path fill="none" stroke="#9a32cd" stroke-dasharray="5,2" d="M349.55,-21.32C372.95,-26.95 399.72,-34.64 423,-44.5 441.8,-52.46 461.64,-65.2 474.27,-73.94"/>
<polygon fill="#9a32cd" stroke="#9a32cd" points="350.29,-17.9 339.76,-19.04 348.7,-24.72 350.29,-17.9"/>
</a>
</g>
<text text-anchor="middle" x="400" y="-47.5" font-family="Helvetica,sans-Serif" font-size="10.00" fill="grey"> define</text>
</g>
<!-- Node7 -->
<g id="Node000007" class="node">
<title>Node7</title>
<g id="a_Node000007"><a xlink:href="unioncoap__const__char__ptr__t.html" target="_top" xlink:title="CoAP union for handling signed / unsigned chars.">
<polygon fill="white" stroke="#666666" points="125,-19 0,-19 0,0 125,0 125,-19"/>
<text text-anchor="middle" x="62.5" y="-7" font-family="Helvetica,sans-Serif" font-size="10.00">coap_const_char_ptr_t</text>
</a>
</g>
</g>
<!-- Node7&#45;&gt;Node6 -->
<g id="edge6_Node000006_Node000007" class="edge">
<title>Node7&#45;&gt;Node6</title>
<g id="a_edge6_Node000006_Node000007"><a xlink:title=" ">
<path fill="none" stroke="#9a32cd" stroke-dasharray="5,2" d="M135.2,-9.5C164.18,-9.5 197.33,-9.5 225.32,-9.5"/>
<polygon fill="#9a32cd" stroke="#9a32cd" points="135.14,-6 125.14,-9.5 135.14,-13 135.14,-6"/>
</a>
</g>
<text text-anchor="middle" x="172" y="-34.5" font-family="Helvetica,sans-Serif" font-size="10.00" fill="grey"> ca</text>
<text text-anchor="middle" x="172" y="-23.5" font-family="Helvetica,sans-Serif" font-size="10.00" fill="grey">private_key</text>
<text text-anchor="middle" x="172" y="-12.5" font-family="Helvetica,sans-Serif" font-size="10.00" fill="grey">public_cert</text>
</g>
</g>
</svg>

<g id="navigator" transform="translate(0 0)" fill="#404254">
  <rect fill="#f2f5e9" fill-opacity="0.5" stroke="#606060" stroke-width=".5" x="0" y="0" width="60" height="60"/>
  <use id="zoomplus" xlink:href="#zoomPlus" x="17" y="9" onmousedown="handleZoom(evt,'in')"/>
  <use id="zoomminus" xlink:href="#zoomMin" x="42" y="9" onmousedown="handleZoom(evt,'out')"/>
  <use id="reset" xlink:href="#resetDef" x="30" y="36" onmousedown="handleReset()"/>
   <use id="arrowup" xlink:href="#arrowUp" x="0" y="0" onmousedown="handlePan(0,-1)"/>
  <use id="arrowright" xlink:href="#arrowRight" x="0" y="0" onmousedown="handlePan(1,0)"/>
  <use id="arrowdown" xlink:href="#arrowDown" x="0" y="0" onmousedown="handlePan(0,1)"/>
  <use id="arrowleft" xlink:href="#arrowLeft" x="0" y="0" onmousedown="handlePan(-1,0)"/>
</g>
<svg viewBox="0 0 15 15" width="100%" height="30px" preserveAspectRatio="xMaxYMin meet">
 <g id="arrow_out" transform="scale(0.3 0.3)">
  <a xlink:href="structcoap__dtls__key__t__coll__graph_org.svg" target="_base">
   <rect id="button" ry="5" rx="5" y="6" x="6" height="38" width="38"
        fill="#f2f5e9" fill-opacity="0.5" stroke="#606060" stroke-width="1.0"/>
   <path id="arrow"
     d="M 11.500037,31.436501 C 11.940474,20.09759 22.043105,11.32322 32.158766,21.979434 L 37.068811,17.246167 C 37.068811,17.246167 37.088388,32 37.088388,32 L 22.160133,31.978069 C 22.160133,31.978069 26.997745,27.140456 26.997745,27.140456 C 18.528582,18.264221 13.291696,25.230495 11.500037,31.436501 z"
     style="fill:#404040;"/>
  </a>
 </g>
</svg>

<style type='text/css'>
<![CDATA[
[data-mouse-over-selected='false'] { opacity: 0.7; }
[data-mouse-over-selected='true']  { opacity: 1.0; }
]]>
</style>
<script type="application/ecmascript"><![CDATA[
document.addEventListener('DOMContentLoaded', (event) => {
  highlightEdges();
  highlightAdjacentNodes();
});
]]></script>
</svg>
