<?xml version="1.0" encoding="UTF-8" standalone="no"?>
<!DOCTYPE svg PUBLIC "-//W3C//DTD SVG 1.1//EN"
 "http://www.w3.org/Graphics/SVG/1.1/DTD/svg11.dtd">
<!-- Generated by graphviz version 2.42.4 (0)
 -->
<!-- Title: oscore_recipient_ctx_t Pages: 1 -->
<svg width="465pt" height="195pt"
 viewBox="0.00 0.00 465.00 195.00" xmlns="http://www.w3.org/2000/svg" xmlns:xlink="http://www.w3.org/1999/xlink">

<svg id="main" version="1.1" xmlns="http://www.w3.org/2000/svg" xmlns:xlink="http://www.w3.org/1999/xlink" xml:space="preserve" onload="init(evt)">
<style type="text/css"><![CDATA[
.node, .edge {opacity: 0.7;}
.node.selected, .edge.selected {opacity: 1;}
.edge:hover path { stroke: red; }
.edge:hover polygon { stroke: red; fill: red; }
]]></style>
<script type="application/ecmascript" xlink:href="svg.min.js"/>
<svg id="graph" class="graph">
<g id="graph0" class="graph" transform="scale(1 1) rotate(0) translate(4 191)">
<title>oscore_recipient_ctx_t</title>
<!-- Node1 -->
<g id="Node000001" class="node">
<title>Node1</title>
<g id="a_Node000001"><a xlink:title=" ">
<polygon fill="#999999" stroke="#666666" points="126,-97.5 0,-97.5 0,-78.5 126,-78.5 126,-97.5"/>
<text text-anchor="middle" x="63" y="-85.5" font-family="Helvetica,sans-Serif" font-size="10.00">oscore_recipient_ctx_t</text>
</a>
</g>
</g>
<!-- Node1&#45;&gt;Node1 -->
<g id="edge1_Node000001_Node000001" class="edge">
<title>Node1&#45;&gt;Node1</title>
<g id="a_edge1_Node000001_Node000001"><a xlink:title=" ">
<path fill="none" stroke="#9a32cd" stroke-dasharray="5,2" d="M136.09,-93.94C141.01,-92.57 144,-90.59 144,-88 144,-83.96 136.72,-81.4 126.17,-80.33"/>
<polygon fill="#9a32cd" stroke="#9a32cd" points="135.42,-90.5 126.17,-95.67 136.62,-97.4 135.42,-90.5"/>
</a>
</g>
<text text-anchor="middle" x="180.5" y="-85.5" font-family="Helvetica,sans-Serif" font-size="10.00" fill="grey"> next_recipient</text>
</g>
<!-- Node2 -->
<g id="Node000002" class="node">
<title>Node2</title>
<g id="a_Node000002"><a xlink:href="structoscore__ctx__t.html" target="_top" xlink:title=" ">
<polygon fill="white" stroke="#666666" points="260,-19 182,-19 182,0 260,0 260,-19"/>
<text text-anchor="middle" x="221" y="-7" font-family="Helvetica,sans-Serif" font-size="10.00">oscore_ctx_t</text>
</a>
</g>
</g>
<!-- Node1&#45;&gt;Node2 -->
<g id="edge7_Node000002_Node000001" class="edge">
<title>Node1&#45;&gt;Node2</title>
<g id="a_edge7_Node000002_Node000001"><a xlink:title=" ">
<path fill="none" stroke="#9a32cd" stroke-dasharray="5,2" d="M61.51,-67.93C61.77,-57.43 64.02,-44.96 72,-37 87.11,-21.92 143.07,-15.31 181.94,-12.49"/>
<polygon fill="#9a32cd" stroke="#9a32cd" points="58.02,-68.35 61.83,-78.23 65.02,-68.13 58.02,-68.35"/>
</a>
</g>
<text text-anchor="middle" x="111" y="-40" font-family="Helvetica,sans-Serif" font-size="10.00" fill="grey"> recipient_chain</text>
</g>
<!-- Node2&#45;&gt;Node1 -->
<g id="edge2_Node000001_Node000002" class="edge">
<title>Node2&#45;&gt;Node1</title>
<g id="a_edge2_Node000001_Node000002"><a xlink:title=" ">
<path fill="none" stroke="#9a32cd" stroke-dasharray="5,2" d="M197.61,-24.39C184.89,-31.74 168.77,-40.73 154,-48 130.72,-59.47 103.24,-70.97 84.62,-78.49"/>
<polygon fill="#9a32cd" stroke="#9a32cd" points="199.73,-27.21 206.6,-19.14 196.2,-21.16 199.73,-27.21"/>
</a>
</g>
<text text-anchor="middle" x="195" y="-40" font-family="Helvetica,sans-Serif" font-size="10.00" fill="grey"> osc_ctx</text>
</g>
<!-- Node2&#45;&gt;Node2 -->
<g id="edge3_Node000002_Node000002" class="edge">
<title>Node2&#45;&gt;Node2</title>
<g id="a_edge3_Node000002_Node000002"><a xlink:title=" ">
<path fill="none" stroke="#9a32cd" stroke-dasharray="5,2" d="M270.28,-14.35C275,-13.36 278,-11.75 278,-9.5 278,-5.91 270.33,-3.93 260.16,-3.56"/>
<polygon fill="#9a32cd" stroke="#9a32cd" points="269.73,-10.88 260.16,-15.44 270.48,-17.84 269.73,-10.88"/>
</a>
</g>
<text text-anchor="middle" x="290.5" y="-7" font-family="Helvetica,sans-Serif" font-size="10.00" fill="grey"> next</text>
</g>
<!-- Node3 -->
<g id="Node000003" class="node">
<title>Node3</title>
<g id="a_Node000003"><a xlink:href="structcoap__bin__const__t.html" target="_top" xlink:title="CoAP binary data definition with const data.">
<polygon fill="white" stroke="#666666" points="303.5,-187 202.5,-187 202.5,-168 303.5,-168 303.5,-187"/>
<text text-anchor="middle" x="253" y="-175" font-family="Helvetica,sans-Serif" font-size="10.00">coap_bin_const_t</text>
</a>
</g>
</g>
<!-- Node3&#45;&gt;Node1 -->
<g id="edge8_Node000001_Node000003" class="edge">
<title>Node3&#45;&gt;Node1</title>
<g id="a_edge8_Node000001_Node000003"><a xlink:title=" ">
<path fill="none" stroke="#9a32cd" stroke-dasharray="5,2" d="M213.23,-164.94C200.22,-160.73 185.81,-155.62 173,-150 136.8,-134.13 96.8,-110.21 76.47,-97.55"/>
<polygon fill="#9a32cd" stroke="#9a32cd" points="212.28,-168.31 222.87,-167.98 214.38,-161.64 212.28,-168.31"/>
</a>
</g>
<text text-anchor="middle" x="206" y="-142" font-family="Helvetica,sans-Serif" font-size="10.00" fill="grey"> recipient_id</text>
<text text-anchor="middle" x="206" y="-131" font-family="Helvetica,sans-Serif" font-size="10.00" fill="grey">recipient_key</text>
</g>
<!-- Node3&#45;&gt;Node2 -->
<g id="edge4_Node000002_Node000003" class="edge">
<title>Node3&#45;&gt;Node2</title>
<g id="a_edge4_Node000002_Node000003"><a xlink:title=" ">
<path fill="none" stroke="#9a32cd" stroke-dasharray="5,2" d="M249.32,-157.43C242.38,-121.42 227.6,-44.73 222.65,-19.07"/>
<polygon fill="#9a32cd" stroke="#9a32cd" points="245.95,-158.42 251.28,-167.58 252.82,-157.09 245.95,-158.42"/>
</a>
</g>
<text text-anchor="middle" x="274" y="-102" font-family="Helvetica,sans-Serif" font-size="10.00" fill="grey"> common_iv</text>
<text text-anchor="middle" x="274" y="-91" font-family="Helvetica,sans-Serif" font-size="10.00" fill="grey">id_context</text>
<text text-anchor="middle" x="274" y="-80" font-family="Helvetica,sans-Serif" font-size="10.00" fill="grey">master_salt</text>
<text text-anchor="middle" x="274" y="-69" font-family="Helvetica,sans-Serif" font-size="10.00" fill="grey">master_secret</text>
</g>
<!-- Node4 -->
<g id="Node000004" class="node">
<title>Node4</title>
<g id="a_Node000004"><a xlink:href="structoscore__sender__ctx__t.html" target="_top" xlink:title=" ">
<polygon fill="white" stroke="#666666" points="457,-97.5 341,-97.5 341,-78.5 457,-78.5 457,-97.5"/>
<text text-anchor="middle" x="399" y="-85.5" font-family="Helvetica,sans-Serif" font-size="10.00">oscore_sender_ctx_t</text>
</a>
</g>
</g>
<!-- Node3&#45;&gt;Node4 -->
<g id="edge6_Node000004_Node000003" class="edge">
<title>Node3&#45;&gt;Node4</title>
<g id="a_edge6_Node000004_Node000003"><a xlink:title=" ">
<path fill="none" stroke="#9a32cd" stroke-dasharray="5,2" d="M275.92,-162.76C306.31,-144.55 359.03,-112.95 384.46,-97.71"/>
<polygon fill="#9a32cd" stroke="#9a32cd" points="274.04,-159.81 267.26,-167.95 277.64,-165.81 274.04,-159.81"/>
</a>
</g>
<text text-anchor="middle" x="358" y="-142" font-family="Helvetica,sans-Serif" font-size="10.00" fill="grey"> sender_id</text>
<text text-anchor="middle" x="358" y="-131" font-family="Helvetica,sans-Serif" font-size="10.00" fill="grey">sender_key</text>
</g>
<!-- Node4&#45;&gt;Node2 -->
<g id="edge5_Node000002_Node000004" class="edge">
<title>Node4&#45;&gt;Node2</title>
<g id="a_edge5_Node000002_Node000004"><a xlink:title=" ">
<path fill="none" stroke="#9a32cd" stroke-dasharray="5,2" d="M369.36,-74.26C332.98,-58.63 272.29,-32.54 241,-19.1"/>
<polygon fill="#9a32cd" stroke="#9a32cd" points="368.36,-77.64 378.93,-78.37 371.12,-71.21 368.36,-77.64"/>
</a>
</g>
<text text-anchor="middle" x="343.5" y="-40" font-family="Helvetica,sans-Serif" font-size="10.00" fill="grey"> sender_context</text>
</g>
</g>
</svg>
</svg>

<style type='text/css'>
<![CDATA[
[data-mouse-over-selected='false'] { opacity: 0.7; }
[data-mouse-over-selected='true']  { opacity: 1.0; }
]]>
</style>
<script type="application/ecmascript"><![CDATA[
document.addEventListener('DOMContentLoaded', (event) => {
  highlightEdges();
  highlightAdjacentNodes();
});
]]></script>
</svg>
