<?xml version="1.0" encoding="UTF-8" standalone="no"?>
<!DOCTYPE svg PUBLIC "-//W3C//DTD SVG 1.1//EN"
 "http://www.w3.org/Graphics/SVG/1.1/DTD/svg11.dtd">
<!-- Generated by graphviz version 2.40.1 (20161225.0304)
 -->
<!-- Title: coap_write_block_opt Pages: 1 -->
<svg width="570pt" height="104pt"
 viewBox="0.00 0.00 570.00 104.00" xmlns="http://www.w3.org/2000/svg" xmlns:xlink="http://www.w3.org/1999/xlink">
<g id="graph0" class="graph" transform="scale(1 1) rotate(0) translate(4 100)">
<title>coap_write_block_opt</title>
<polygon fill="#ffffff" stroke="transparent" points="-4,4 -4,-100 566,-100 566,4 -4,4"/>
<!-- Node67 -->
<g id="node1" class="node">
<title>Node67</title>
<polygon fill="#bfbfbf" stroke="#000000" points="0,-38.5 0,-57.5 111,-57.5 111,-38.5 0,-38.5"/>
<text text-anchor="middle" x="55.5" y="-45.5" font-family="Helvetica,sans-Serif" font-size="10.00" fill="#000000">coap_write_block_opt</text>
</g>
<!-- Node68 -->
<g id="node2" class="node">
<title>Node68</title>
<g id="a_node2"><a xlink:href="encode_8c.html#a5732d87decbffe771159ea02a5e25488" target="_top" xlink:title="coap_flsll">
<polygon fill="#ffffff" stroke="#000000" points="176.5,-76.5 176.5,-95.5 234.5,-95.5 234.5,-76.5 176.5,-76.5"/>
<text text-anchor="middle" x="205.5" y="-83.5" font-family="Helvetica,sans-Serif" font-size="10.00" fill="#000000">coap_flsll</text>
</a>
</g>
</g>
<!-- Node67&#45;&gt;Node68 -->
<g id="edge1" class="edge">
<title>Node67&#45;&gt;Node68</title>
<path fill="none" stroke="#191970" d="M93.3513,-57.589C115.6291,-63.2327 143.7573,-70.3585 166.2703,-76.0618"/>
<polygon fill="#191970" stroke="#191970" points="165.6245,-79.5087 176.1778,-78.5717 167.3436,-72.7231 165.6245,-79.5087"/>
</g>
<!-- Node69 -->
<g id="node3" class="node">
<title>Node69</title>
<g id="a_node3"><a xlink:href="pdu_8c.html#aa1314f60fbc25733cfabaa975adc5aae" target="_top" xlink:title="de&#45;duplicate code with coap_add_option_later ">
<polygon fill="#ffffff" stroke="#000000" points="160.5,-38.5 160.5,-57.5 250.5,-57.5 250.5,-38.5 160.5,-38.5"/>
<text text-anchor="middle" x="205.5" y="-45.5" font-family="Helvetica,sans-Serif" font-size="10.00" fill="#000000">coap_add_option</text>
</a>
</g>
</g>
<!-- Node67&#45;&gt;Node69 -->
<g id="edge2" class="edge">
<title>Node67&#45;&gt;Node69</title>
<path fill="none" stroke="#191970" d="M111.3545,-48C123.9789,-48 137.3789,-48 149.9891,-48"/>
<polygon fill="#191970" stroke="#191970" points="150.3616,-51.5001 160.3616,-48 150.3616,-44.5001 150.3616,-51.5001"/>
</g>
<!-- Node75 -->
<g id="node9" class="node">
<title>Node75</title>
<g id="a_node9"><a xlink:href="encode_8c.html#a6987668306bf69553f9b207a624c2d44" target="_top" xlink:title="coap_encode_var_safe">
<polygon fill="#ffffff" stroke="#000000" points="147,-.5 147,-19.5 264,-19.5 264,-.5 147,-.5"/>
<text text-anchor="middle" x="205.5" y="-7.5" font-family="Helvetica,sans-Serif" font-size="10.00" fill="#000000">coap_encode_var_safe</text>
</a>
</g>
</g>
<!-- Node67&#45;&gt;Node75 -->
<g id="edge8" class="edge">
<title>Node67&#45;&gt;Node75</title>
<path fill="none" stroke="#191970" d="M93.3513,-38.411C112.9671,-33.4417 137.1187,-27.3233 157.979,-22.0387"/>
<polygon fill="#191970" stroke="#191970" points="159.0866,-25.3687 167.9209,-19.5201 157.3675,-18.5831 159.0866,-25.3687"/>
</g>
<!-- Node70 -->
<g id="node4" class="node">
<title>Node70</title>
<g id="a_node4"><a xlink:href="pdu_8c.html#af25c1916c60fdcf35cd4e178aebbb867" target="_top" xlink:title="coap_pdu_check_resize">
<polygon fill="#ffffff" stroke="#000000" points="300,-76.5 300,-95.5 422,-95.5 422,-76.5 300,-76.5"/>
<text text-anchor="middle" x="361" y="-83.5" font-family="Helvetica,sans-Serif" font-size="10.00" fill="#000000">coap_pdu_check_resize</text>
</a>
</g>
</g>
<!-- Node69&#45;&gt;Node70 -->
<g id="edge3" class="edge">
<title>Node69&#45;&gt;Node70</title>
<path fill="none" stroke="#191970" d="M244.7392,-57.589C265.2591,-62.6035 290.567,-68.7881 312.3255,-74.1053"/>
<polygon fill="#191970" stroke="#191970" points="311.4979,-77.506 322.043,-76.4799 313.1597,-70.706 311.4979,-77.506"/>
</g>
<!-- Node72 -->
<g id="node6" class="node">
<title>Node72</title>
<g id="a_node6"><a xlink:href="option_8c.html#a55f19454026048e906139d575feddecb" target="_top" xlink:title="coap_opt_encode_size">
<polygon fill="#ffffff" stroke="#000000" points="303,-38.5 303,-57.5 419,-57.5 419,-38.5 303,-38.5"/>
<text text-anchor="middle" x="361" y="-45.5" font-family="Helvetica,sans-Serif" font-size="10.00" fill="#000000">coap_opt_encode_size</text>
</a>
</g>
</g>
<!-- Node69&#45;&gt;Node72 -->
<g id="edge5" class="edge">
<title>Node69&#45;&gt;Node72</title>
<path fill="none" stroke="#191970" d="M250.8951,-48C263.9516,-48 278.4898,-48 292.6101,-48"/>
<polygon fill="#191970" stroke="#191970" points="292.7909,-51.5001 302.7909,-48 292.7908,-44.5001 292.7909,-51.5001"/>
</g>
<!-- Node73 -->
<g id="node7" class="node">
<title>Node73</title>
<g id="a_node7"><a xlink:href="option_8c.html#a7c3cab841029c7c4e8a9e4c3e02a20ca" target="_top" xlink:title="coap_opt_encode">
<polygon fill="#ffffff" stroke="#000000" points="314.5,-.5 314.5,-19.5 407.5,-19.5 407.5,-.5 314.5,-.5"/>
<text text-anchor="middle" x="361" y="-7.5" font-family="Helvetica,sans-Serif" font-size="10.00" fill="#000000">coap_opt_encode</text>
</a>
</g>
</g>
<!-- Node69&#45;&gt;Node73 -->
<g id="edge6" class="edge">
<title>Node69&#45;&gt;Node73</title>
<path fill="none" stroke="#191970" d="M244.7392,-38.411C265.2591,-33.3965 290.567,-27.2119 312.3255,-21.8947"/>
<polygon fill="#191970" stroke="#191970" points="313.1597,-25.294 322.043,-19.5201 311.4979,-18.494 313.1597,-25.294"/>
</g>
<!-- Node71 -->
<g id="node5" class="node">
<title>Node71</title>
<g id="a_node5"><a xlink:href="pdu_8c.html#add46ce956878a4121e8887b84c6d4a6b" target="_top" xlink:title="coap_pdu_resize">
<polygon fill="#ffffff" stroke="#000000" points="465,-76.5 465,-95.5 555,-95.5 555,-76.5 465,-76.5"/>
<text text-anchor="middle" x="510" y="-83.5" font-family="Helvetica,sans-Serif" font-size="10.00" fill="#000000">coap_pdu_resize</text>
</a>
</g>
</g>
<!-- Node70&#45;&gt;Node71 -->
<g id="edge4" class="edge">
<title>Node70&#45;&gt;Node71</title>
<path fill="none" stroke="#191970" d="M422.0339,-86C432.8748,-86 444.1092,-86 454.7773,-86"/>
<polygon fill="#191970" stroke="#191970" points="454.8006,-89.5001 464.8006,-86 454.8005,-82.5001 454.8006,-89.5001"/>
</g>
<!-- Node74 -->
<g id="node8" class="node">
<title>Node74</title>
<g id="a_node8"><a xlink:href="option_8c.html#afebbd04a7895df694a9345dad0275aeb" target="_top" xlink:title="coap_opt_setheader">
<polygon fill="#ffffff" stroke="#000000" points="458,-.5 458,-19.5 562,-19.5 562,-.5 458,-.5"/>
<text text-anchor="middle" x="510" y="-7.5" font-family="Helvetica,sans-Serif" font-size="10.00" fill="#000000">coap_opt_setheader</text>
</a>
</g>
</g>
<!-- Node73&#45;&gt;Node74 -->
<g id="edge7" class="edge">
<title>Node73&#45;&gt;Node74</title>
<path fill="none" stroke="#191970" d="M407.7357,-10C420.4535,-10 434.431,-10 447.8575,-10"/>
<polygon fill="#191970" stroke="#191970" points="447.9876,-13.5001 457.9876,-10 447.9875,-6.5001 447.9876,-13.5001"/>
</g>
</g>
</svg>
