<?xml version="1.0" encoding="UTF-8" standalone="no"?>
<!DOCTYPE svg PUBLIC "-//W3C//DTD SVG 1.1//EN"
 "http://www.w3.org/Graphics/SVG/1.1/DTD/svg11.dtd">
<!-- Generated by graphviz version 2.40.1 (20161225.0304)
 -->
<!-- Title: coap_add_block Pages: 1 -->
<svg width="483pt" height="28pt"
 viewBox="0.00 0.00 483.00 28.00" xmlns="http://www.w3.org/2000/svg" xmlns:xlink="http://www.w3.org/1999/xlink">
<g id="graph0" class="graph" transform="scale(1 1) rotate(0) translate(4 24)">
<title>coap_add_block</title>
<polygon fill="#ffffff" stroke="transparent" points="-4,4 -4,-24 479,-24 479,4 -4,4"/>
<!-- Node0 -->
<g id="node1" class="node">
<title>Node0</title>
<polygon fill="#bfbfbf" stroke="#000000" points="0,-.5 0,-19.5 87,-19.5 87,-.5 0,-.5"/>
<text text-anchor="middle" x="43.5" y="-7.5" font-family="Helvetica,sans-Serif" font-size="10.00" fill="#000000">coap_add_block</text>
</g>
<!-- Node1 -->
<g id="node2" class="node">
<title>Node1</title>
<g id="a_node2"><a xlink:href="pdu_8c.html#af71a3f810ab9f0f657c25c425826af40" target="_top" xlink:title="coap_add_data">
<polygon fill="#ffffff" stroke="#000000" points="123,-.5 123,-19.5 206,-19.5 206,-.5 123,-.5"/>
<text text-anchor="middle" x="164.5" y="-7.5" font-family="Helvetica,sans-Serif" font-size="10.00" fill="#000000">coap_add_data</text>
</a>
</g>
</g>
<!-- Node0&#45;&gt;Node1 -->
<g id="edge1" class="edge">
<title>Node0&#45;&gt;Node1</title>
<path fill="none" stroke="#191970" d="M87.1838,-10C95.4614,-10 104.1953,-10 112.6952,-10"/>
<polygon fill="#191970" stroke="#191970" points="112.901,-13.5001 122.901,-10 112.901,-6.5001 112.901,-13.5001"/>
</g>
<!-- Node2 -->
<g id="node3" class="node">
<title>Node2</title>
<g id="a_node3"><a xlink:href="pdu_8c.html#ab2a710785ec579083f95ee049566fb83" target="_top" xlink:title="coap_add_data_after">
<polygon fill="#ffffff" stroke="#000000" points="242,-.5 242,-19.5 349,-19.5 349,-.5 242,-.5"/>
<text text-anchor="middle" x="295.5" y="-7.5" font-family="Helvetica,sans-Serif" font-size="10.00" fill="#000000">coap_add_data_after</text>
</a>
</g>
</g>
<!-- Node1&#45;&gt;Node2 -->
<g id="edge2" class="edge">
<title>Node1&#45;&gt;Node2</title>
<path fill="none" stroke="#191970" d="M206.3094,-10C214.3823,-10 223.0101,-10 231.6011,-10"/>
<polygon fill="#191970" stroke="#191970" points="231.634,-13.5001 241.6339,-10 231.6339,-6.5001 231.634,-13.5001"/>
</g>
<!-- Node3 -->
<g id="node4" class="node">
<title>Node3</title>
<g id="a_node4"><a xlink:href="pdu_8c.html#add46ce956878a4121e8887b84c6d4a6b" target="_top" xlink:title="coap_pdu_resize">
<polygon fill="#ffffff" stroke="#000000" points="385,-.5 385,-19.5 475,-19.5 475,-.5 385,-.5"/>
<text text-anchor="middle" x="430" y="-7.5" font-family="Helvetica,sans-Serif" font-size="10.00" fill="#000000">coap_pdu_resize</text>
</a>
</g>
</g>
<!-- Node2&#45;&gt;Node3 -->
<g id="edge3" class="edge">
<title>Node2&#45;&gt;Node3</title>
<path fill="none" stroke="#191970" d="M349.0444,-10C357.4816,-10 366.2194,-10 374.6955,-10"/>
<polygon fill="#191970" stroke="#191970" points="374.8671,-13.5001 384.8671,-10 374.867,-6.5001 374.8671,-13.5001"/>
</g>
</g>
</svg>
