<?xml version="1.0" encoding="UTF-8" standalone="no"?>
<!DOCTYPE svg PUBLIC "-//W3C//DTD SVG 1.1//EN"
 "http://www.w3.org/Graphics/SVG/1.1/DTD/svg11.dtd">
<!-- Generated by graphviz version 2.40.1 (20161225.0304)
 -->
<!-- Title: coap_session_send Pages: 1 -->
<svg width="2163pt" height="649pt"
 viewBox="0.00 0.00 2163.00 649.00" xmlns="http://www.w3.org/2000/svg" xmlns:xlink="http://www.w3.org/1999/xlink">
<g id="graph0" class="graph" transform="scale(1 1) rotate(0) translate(4 645)">
<title>coap_session_send</title>
<polygon fill="#ffffff" stroke="transparent" points="-4,4 -4,-645 2159,-645 2159,4 -4,4"/>
<!-- Node1249 -->
<g id="node1" class="node">
<title>Node1249</title>
<polygon fill="#bfbfbf" stroke="#000000" points="0,-431.5 0,-450.5 103,-450.5 103,-431.5 0,-431.5"/>
<text text-anchor="middle" x="51.5" y="-438.5" font-family="Helvetica,sans-Serif" font-size="10.00" fill="#000000">coap_session_send</text>
</g>
<!-- Node1250 -->
<g id="node2" class="node">
<title>Node1250</title>
<g id="a_node2"><a xlink:href="coap__session_8h.html#aaf20c9b0b2ad3168c15e535a67ea3ce5" target="_top" xlink:title="Send a pdu according to the session&#39;s protocol. ">
<polygon fill="#ffffff" stroke="#000000" points="139,-431.5 139,-450.5 263,-450.5 263,-431.5 139,-431.5"/>
<text text-anchor="middle" x="201" y="-438.5" font-family="Helvetica,sans-Serif" font-size="10.00" fill="#000000">coap_session_send_pdu</text>
</a>
</g>
</g>
<!-- Node1249&#45;&gt;Node1250 -->
<g id="edge1" class="edge">
<title>Node1249&#45;&gt;Node1250</title>
<path fill="none" stroke="#191970" d="M113.4841,-441C121.8919,-441 130.5218,-441 138.9311,-441"/>
<polygon fill="#191970" stroke="#191970" points="113.3683,-437.5001 103.3683,-441 113.3682,-444.5001 113.3683,-437.5001"/>
</g>
<!-- Node1251 -->
<g id="node3" class="node">
<title>Node1251</title>
<g id="a_node3"><a xlink:href="coap__session_8h.html#a2f455ec1572982a5ae404beac0cfbd53" target="_top" xlink:title="Notify session transport has just connected and CSM exchange can now start. ">
<polygon fill="#ffffff" stroke="#000000" points="299,-507.5 299,-526.5 426,-526.5 426,-507.5 299,-507.5"/>
<text text-anchor="middle" x="362.5" y="-514.5" font-family="Helvetica,sans-Serif" font-size="10.00" fill="#000000">coap_session_send_csm</text>
</a>
</g>
</g>
<!-- Node1250&#45;&gt;Node1251 -->
<g id="edge2" class="edge">
<title>Node1250&#45;&gt;Node1251</title>
<path fill="none" stroke="#191970" d="M230.8749,-455.0588C263.2865,-470.3113 314.1488,-494.2465 342.212,-507.4527"/>
<polygon fill="#191970" stroke="#191970" points="231.9926,-451.7166 221.4541,-450.6255 229.012,-458.0503 231.9926,-451.7166"/>
</g>
<!-- Node1265 -->
<g id="node17" class="node">
<title>Node1265</title>
<g id="a_node17"><a xlink:href="net_8c.html#a0c600aed61c8a8402d31ef795df3b0b6" target="_top" xlink:title="coap_send_pdu">
<polygon fill="#ffffff" stroke="#000000" points="477.5,-431.5 477.5,-450.5 562.5,-450.5 562.5,-431.5 477.5,-431.5"/>
<text text-anchor="middle" x="520" y="-438.5" font-family="Helvetica,sans-Serif" font-size="10.00" fill="#000000">coap_send_pdu</text>
</a>
</g>
</g>
<!-- Node1250&#45;&gt;Node1265 -->
<g id="edge60" class="edge">
<title>Node1250&#45;&gt;Node1265</title>
<path fill="none" stroke="#191970" d="M273.5092,-441C336.3661,-441 425.1914,-441 477.2731,-441"/>
<polygon fill="#191970" stroke="#191970" points="273.2637,-437.5001 263.2637,-441 273.2637,-444.5001 273.2637,-437.5001"/>
</g>
<!-- Node1283 -->
<g id="node35" class="node">
<title>Node1283</title>
<g id="a_node35"><a xlink:href="coap__session_8h.html#aa8b3a2da8480911b0216dad076038cb6" target="_top" xlink:title="Notify session that it has just connected or reconnected. ">
<polygon fill="#ffffff" stroke="#000000" points="802,-351.5 802,-370.5 929,-370.5 929,-351.5 802,-351.5"/>
<text text-anchor="middle" x="865.5" y="-358.5" font-family="Helvetica,sans-Serif" font-size="10.00" fill="#000000">coap_session_connected</text>
</a>
</g>
</g>
<!-- Node1250&#45;&gt;Node1283 -->
<g id="edge56" class="edge">
<title>Node1250&#45;&gt;Node1283</title>
<path fill="none" stroke="#191970" d="M273.5196,-432.2693C404.2728,-416.5277 677.4537,-383.6391 801.6219,-368.6904"/>
<polygon fill="#191970" stroke="#191970" points="272.7258,-428.8395 263.2159,-433.5097 273.5626,-435.7893 272.7258,-428.8395"/>
</g>
<!-- Node1252 -->
<g id="node4" class="node">
<title>Node1252</title>
<g id="a_node4"><a xlink:href="coap__session_8c.html#acec64026a2b3309e97075951dc52c2a1" target="_top" xlink:title="coap_session_connect">
<polygon fill="#ffffff" stroke="#000000" points="462,-507.5 462,-526.5 578,-526.5 578,-507.5 462,-507.5"/>
<text text-anchor="middle" x="520" y="-514.5" font-family="Helvetica,sans-Serif" font-size="10.00" fill="#000000">coap_session_connect</text>
</a>
</g>
</g>
<!-- Node1251&#45;&gt;Node1252 -->
<g id="edge3" class="edge">
<title>Node1251&#45;&gt;Node1252</title>
<path fill="none" stroke="#191970" d="M436.135,-517C444.7301,-517 453.4067,-517 461.7531,-517"/>
<polygon fill="#191970" stroke="#191970" points="436.1073,-513.5001 426.1073,-517 436.1073,-520.5001 436.1073,-513.5001"/>
</g>
<!-- Node1256 -->
<g id="node8" class="node">
<title>Node1256</title>
<g id="a_node8"><a xlink:href="coap__session_8c.html#ac79f1143af9580a441d31796cf81f108" target="_top" xlink:title="coap_session_accept">
<polygon fill="#ffffff" stroke="#000000" points="464.5,-621.5 464.5,-640.5 575.5,-640.5 575.5,-621.5 464.5,-621.5"/>
<text text-anchor="middle" x="520" y="-628.5" font-family="Helvetica,sans-Serif" font-size="10.00" fill="#000000">coap_session_accept</text>
</a>
</g>
</g>
<!-- Node1251&#45;&gt;Node1256 -->
<g id="edge7" class="edge">
<title>Node1251&#45;&gt;Node1256</title>
<path fill="none" stroke="#191970" d="M377.9641,-534.1795C396.4101,-553.8627 428.9254,-586.0873 462,-607 471.1186,-612.7656 481.8585,-617.6611 491.6021,-621.4972"/>
<polygon fill="#191970" stroke="#191970" points="380.3109,-531.5614 370.9595,-526.5812 375.1641,-536.306 380.3109,-531.5614"/>
</g>
<!-- Node1251&#45;&gt;Node1265 -->
<g id="edge19" class="edge">
<title>Node1251&#45;&gt;Node1265</title>
<path fill="none" stroke="#191970" d="M391.6349,-502.9412C423.2438,-487.6887 472.8463,-463.7535 500.2145,-450.5473"/>
<polygon fill="#191970" stroke="#191970" points="389.9327,-499.8764 382.4475,-507.3745 392.9749,-506.1808 389.9327,-499.8764"/>
</g>
<!-- Node1282 -->
<g id="node34" class="node">
<title>Node1282</title>
<g id="a_node34"><a xlink:href="net_8c.html#a9e7c7fc083799c942c9c44ebc190c833" target="_top" xlink:title="coap_connect_session">
<polygon fill="#ffffff" stroke="#000000" points="1123,-564.5 1123,-583.5 1239,-583.5 1239,-564.5 1123,-564.5"/>
<text text-anchor="middle" x="1181" y="-571.5" font-family="Helvetica,sans-Serif" font-size="10.00" fill="#000000">coap_connect_session</text>
</a>
</g>
</g>
<!-- Node1251&#45;&gt;Node1282 -->
<g id="edge54" class="edge">
<title>Node1251&#45;&gt;Node1282</title>
<path fill="none" stroke="#191970" d="M396.0494,-530.1975C454.4885,-551.9616 579.1759,-593 688.5,-593 688.5,-593 688.5,-593 865.5,-593 955.4926,-593 1059.6635,-585.2024 1122.9138,-579.5979"/>
<polygon fill="#191970" stroke="#191970" points="397.1797,-526.8832 386.588,-526.6255 394.7072,-533.432 397.1797,-526.8832"/>
</g>
<!-- Node1253 -->
<g id="node5" class="node">
<title>Node1253</title>
<g id="a_node5"><a xlink:href="coap__session_8h.html#ad495fcd405fa86859fa36d45f89be910" target="_top" xlink:title="Creates a new client session to the designated server. ">
<polygon fill="#ffffff" stroke="#000000" points="624.5,-545.5 624.5,-564.5 752.5,-564.5 752.5,-545.5 624.5,-545.5"/>
<text text-anchor="middle" x="688.5" y="-552.5" font-family="Helvetica,sans-Serif" font-size="10.00" fill="#000000">coap_new_client_session</text>
</a>
</g>
</g>
<!-- Node1252&#45;&gt;Node1253 -->
<g id="edge4" class="edge">
<title>Node1252&#45;&gt;Node1253</title>
<path fill="none" stroke="#191970" d="M572.4313,-528.8243C596.1868,-534.1816 623.8986,-540.4311 646.2861,-545.4799"/>
<polygon fill="#191970" stroke="#191970" points="573.0447,-525.3748 562.5197,-526.589 571.5047,-532.2033 573.0447,-525.3748"/>
</g>
<!-- Node1254 -->
<g id="node6" class="node">
<title>Node1254</title>
<g id="a_node6"><a xlink:href="coap__session_8h.html#a40790c70df0b38fe89f3fb2ad255d662" target="_top" xlink:title="Creates a new client session to the designated server with PSK credentials. ">
<polygon fill="#ffffff" stroke="#000000" points="614,-507.5 614,-526.5 763,-526.5 763,-507.5 614,-507.5"/>
<text text-anchor="middle" x="688.5" y="-514.5" font-family="Helvetica,sans-Serif" font-size="10.00" fill="#000000">coap_new_client_session_psk</text>
</a>
</g>
</g>
<!-- Node1252&#45;&gt;Node1254 -->
<g id="edge5" class="edge">
<title>Node1252&#45;&gt;Node1254</title>
<path fill="none" stroke="#191970" d="M588.5035,-517C596.8429,-517 605.3957,-517 613.8193,-517"/>
<polygon fill="#191970" stroke="#191970" points="588.4603,-513.5001 578.4602,-517 588.4602,-520.5001 588.4603,-513.5001"/>
</g>
<!-- Node1255 -->
<g id="node7" class="node">
<title>Node1255</title>
<g id="a_node7"><a xlink:href="coap__session_8h.html#a90f2df37ae4204189027c01604ddfe50" target="_top" xlink:title="Creates a new client session to the designated server with PKI credentials. ">
<polygon fill="#ffffff" stroke="#000000" points="615.5,-469.5 615.5,-488.5 761.5,-488.5 761.5,-469.5 615.5,-469.5"/>
<text text-anchor="middle" x="688.5" y="-476.5" font-family="Helvetica,sans-Serif" font-size="10.00" fill="#000000">coap_new_client_session_pki</text>
</a>
</g>
</g>
<!-- Node1252&#45;&gt;Node1255 -->
<g id="edge6" class="edge">
<title>Node1252&#45;&gt;Node1255</title>
<path fill="none" stroke="#191970" d="M572.4313,-505.1757C596.1868,-499.8184 623.8986,-493.5689 646.2861,-488.5201"/>
<polygon fill="#191970" stroke="#191970" points="571.5047,-501.7967 562.5197,-507.411 573.0447,-508.6252 571.5047,-501.7967"/>
</g>
<!-- Node1257 -->
<g id="node9" class="node">
<title>Node1257</title>
<g id="a_node9"><a xlink:href="coap__session_8h.html#aadffd66ead18cd2eba0b19efe92a3d88" target="_top" xlink:title="Creates a new server session for the specified endpoint. ">
<polygon fill="#ffffff" stroke="#000000" points="622.5,-621.5 622.5,-640.5 754.5,-640.5 754.5,-621.5 622.5,-621.5"/>
<text text-anchor="middle" x="688.5" y="-628.5" font-family="Helvetica,sans-Serif" font-size="10.00" fill="#000000">coap_new_server_session</text>
</a>
</g>
</g>
<!-- Node1256&#45;&gt;Node1257 -->
<g id="edge8" class="edge">
<title>Node1256&#45;&gt;Node1257</title>
<path fill="none" stroke="#191970" d="M585.9887,-631C597.9449,-631 610.4166,-631 622.3766,-631"/>
<polygon fill="#191970" stroke="#191970" points="585.6402,-627.5001 575.6402,-631 585.6402,-634.5001 585.6402,-627.5001"/>
</g>
<!-- Node1258 -->
<g id="node10" class="node">
<title>Node1258</title>
<g id="a_node10"><a xlink:href="net_8c.html#a7437c90770ffd13685e6a77799b4753b" target="_top" xlink:title="coap_accept_endpoint">
<polygon fill="#ffffff" stroke="#000000" points="1275,-571.5 1275,-590.5 1389,-590.5 1389,-571.5 1275,-571.5"/>
<text text-anchor="middle" x="1332" y="-578.5" font-family="Helvetica,sans-Serif" font-size="10.00" fill="#000000">coap_accept_endpoint</text>
</a>
</g>
</g>
<!-- Node1257&#45;&gt;Node1258 -->
<g id="edge9" class="edge">
<title>Node1257&#45;&gt;Node1258</title>
<path fill="none" stroke="#191970" d="M764.7595,-627.7233C871.1853,-622.6983 1070.192,-611.6586 1239,-593 1250.6504,-591.7123 1263.1039,-590.1997 1274.9872,-588.6905"/>
<polygon fill="#191970" stroke="#191970" points="764.579,-624.2278 754.7533,-628.1909 764.9058,-631.2202 764.579,-624.2278"/>
</g>
<!-- Node1259 -->
<g id="node11" class="node">
<title>Node1259</title>
<g id="a_node11"><a xlink:href="net_8h.html#a0748d791fd2af516dd93fbadb660d440" target="_top" xlink:title="For applications with their own message loop, reads all data from the network. ">
<polygon fill="#ffffff" stroke="#000000" points="1727,-404.5 1727,-423.5 1789,-423.5 1789,-404.5 1727,-404.5"/>
<text text-anchor="middle" x="1758" y="-411.5" font-family="Helvetica,sans-Serif" font-size="10.00" fill="#000000">coap_read</text>
</a>
</g>
</g>
<!-- Node1258&#45;&gt;Node1259 -->
<g id="edge10" class="edge">
<title>Node1258&#45;&gt;Node1259</title>
<path fill="none" stroke="#191970" d="M1363.8543,-567.6458C1381.5933,-560.6454 1404.229,-552.423 1425,-547 1540.8729,-516.7476 1588.6276,-566.1419 1691,-504 1723.4706,-484.2898 1745.3487,-442.3875 1753.9314,-423.5375"/>
<polygon fill="#191970" stroke="#191970" points="1362.5216,-564.4093 1354.5461,-571.3837 1365.1301,-570.9051 1362.5216,-564.4093"/>
</g>
<!-- Node1260 -->
<g id="node12" class="node">
<title>Node1260</title>
<g id="a_node12"><a xlink:href="coap__io_8c.html#a75a7c93e10ca7858449ba304aad4ea37" target="_top" xlink:title="coap_run_once">
<polygon fill="#ffffff" stroke="#000000" points="2072,-506.5 2072,-525.5 2155,-525.5 2155,-506.5 2072,-506.5"/>
<text text-anchor="middle" x="2113.5" y="-513.5" font-family="Helvetica,sans-Serif" font-size="10.00" fill="#000000">coap_run_once</text>
</a>
</g>
</g>
<!-- Node1259&#45;&gt;Node1260 -->
<g id="edge11" class="edge">
<title>Node1259&#45;&gt;Node1260</title>
<path fill="none" stroke="#191970" d="M1799.1812,-425.8157C1870.3153,-446.2255 2014.8442,-487.6937 2080.145,-506.4298"/>
<polygon fill="#191970" stroke="#191970" points="1799.8142,-422.3562 1789.2367,-422.9624 1797.8836,-429.0847 1799.8142,-422.3562"/>
</g>
<!-- Node1261 -->
<g id="node13" class="node">
<title>Node1261</title>
<g id="a_node13"><a xlink:href="net_8h.html#a9900c032b74bd57f67d489484a2b3207" target="_top" xlink:title="Handles retransmissions of confirmable messages. ">
<polygon fill="#ffffff" stroke="#000000" points="1831,-385.5 1831,-404.5 1917,-404.5 1917,-385.5 1831,-385.5"/>
<text text-anchor="middle" x="1874" y="-392.5" font-family="Helvetica,sans-Serif" font-size="10.00" fill="#000000">coap_retransmit</text>
</a>
</g>
</g>
<!-- Node1259&#45;&gt;Node1261 -->
<g id="edge12" class="edge">
<title>Node1259&#45;&gt;Node1261</title>
<path fill="none" stroke="#191970" d="M1799.0139,-407.2822C1809.2535,-405.605 1820.2678,-403.801 1830.6177,-402.1057"/>
<polygon fill="#191970" stroke="#191970" points="1798.3886,-403.8379 1789.0859,-408.9083 1799.5201,-410.7458 1798.3886,-403.8379"/>
</g>
<!-- Node1263 -->
<g id="node15" class="node">
<title>Node1263</title>
<g id="a_node15"><a xlink:href="net_8h.html#a5854b1394bfddd574e48af116e3aaaf9" target="_top" xlink:title="Sends an RST message with code 0 for the specified request to dst. ">
<polygon fill="#ffffff" stroke="#000000" points="2073.5,-252.5 2073.5,-271.5 2153.5,-271.5 2153.5,-252.5 2073.5,-252.5"/>
<text text-anchor="middle" x="2113.5" y="-259.5" font-family="Helvetica,sans-Serif" font-size="10.00" fill="#000000">coap_send_rst</text>
</a>
</g>
</g>
<!-- Node1259&#45;&gt;Node1263 -->
<g id="edge18" class="edge">
<title>Node1259&#45;&gt;Node1263</title>
<path fill="none" stroke="#191970" d="M1768.3808,-395.5443C1779.831,-376.908 1799.9905,-348.6974 1825,-333 1846.0524,-319.7863 1998.9544,-286.2204 2073.2244,-270.4408"/>
<polygon fill="#191970" stroke="#191970" points="1765.2811,-393.9102 1763.2075,-404.3002 1771.3077,-397.4711 1765.2811,-393.9102"/>
</g>
<!-- Node1262 -->
<g id="node14" class="node">
<title>Node1262</title>
<g id="a_node14"><a xlink:href="net_8h.html#aaac86ac50793f309678e4951ecf8863f" target="_top" xlink:title="For applications with their own message loop, send all pending retransmits and return the list of soc...">
<polygon fill="#ffffff" stroke="#000000" points="1965.5,-418.5 1965.5,-437.5 2029.5,-437.5 2029.5,-418.5 1965.5,-418.5"/>
<text text-anchor="middle" x="1997.5" y="-425.5" font-family="Helvetica,sans-Serif" font-size="10.00" fill="#000000">coap_write</text>
</a>
</g>
</g>
<!-- Node1261&#45;&gt;Node1262 -->
<g id="edge13" class="edge">
<title>Node1261&#45;&gt;Node1262</title>
<path fill="none" stroke="#191970" d="M1919.4573,-407.1465C1934.648,-411.2055 1951.2556,-415.6432 1965.2308,-419.3775"/>
<polygon fill="#191970" stroke="#191970" points="1920.2859,-403.7452 1909.7213,-404.545 1918.4788,-410.5079 1920.2859,-403.7452"/>
</g>
<!-- Node1261&#45;&gt;Node1263 -->
<g id="edge17" class="edge">
<title>Node1261&#45;&gt;Node1263</title>
<path fill="none" stroke="#191970" d="M1927.0839,-397.4112C1960.5746,-396.5634 2003.4875,-390.9291 2036,-371 2075.7905,-346.6098 2100.8739,-293.3246 2109.8153,-271.5544"/>
<polygon fill="#191970" stroke="#191970" points="1926.9723,-393.9122 1917.0147,-397.5312 1927.0557,-400.9117 1926.9723,-393.9122"/>
</g>
<!-- Node1264 -->
<g id="node16" class="node">
<title>Node1264</title>
<g id="a_node16"><a xlink:href="libcoap_8h.html#a5d1fb0b44497970b0f75fa0b38570a82" target="_top" xlink:title="coap_cleanup">
<polygon fill="#ffffff" stroke="#000000" points="1959,-342.5 1959,-361.5 2036,-361.5 2036,-342.5 1959,-342.5"/>
<text text-anchor="middle" x="1997.5" y="-349.5" font-family="Helvetica,sans-Serif" font-size="10.00" fill="#000000">coap_cleanup</text>
</a>
</g>
</g>
<!-- Node1261&#45;&gt;Node1264 -->
<g id="edge16" class="edge">
<title>Node1261&#45;&gt;Node1264</title>
<path fill="none" stroke="#191970" d="M1910.9619,-382.1307C1929.9784,-375.5096 1952.7555,-367.579 1970.168,-361.5164"/>
<polygon fill="#191970" stroke="#191970" points="1909.7017,-378.8633 1901.4087,-385.4569 1912.0035,-385.474 1909.7017,-378.8633"/>
</g>
<!-- Node1262&#45;&gt;Node1260 -->
<g id="edge14" class="edge">
<title>Node1262&#45;&gt;Node1260</title>
<path fill="none" stroke="#191970" d="M2018.4954,-443.9275C2042.542,-462.1698 2081.1596,-491.4659 2100.9378,-506.47"/>
<polygon fill="#191970" stroke="#191970" points="2020.4395,-441.0092 2010.3572,-437.7538 2016.2088,-446.5861 2020.4395,-441.0092"/>
</g>
<!-- Node1262&#45;&gt;Node1263 -->
<g id="edge15" class="edge">
<title>Node1262&#45;&gt;Node1263</title>
<path fill="none" stroke="#191970" d="M2025.9087,-412.6918C2029.5381,-410.0682 2033.0199,-407.1576 2036,-404 2075.5176,-362.128 2101.4422,-296.2591 2110.2032,-271.6762"/>
<polygon fill="#191970" stroke="#191970" points="2023.8083,-409.8828 2017.3394,-418.2735 2027.6289,-415.7483 2023.8083,-409.8828"/>
</g>
<!-- Node1265&#45;&gt;Node1261 -->
<g id="edge53" class="edge">
<title>Node1265&#45;&gt;Node1261</title>
<path fill="none" stroke="#191970" d="M572.8892,-439.965C651.3744,-438.1401 803.268,-433.5001 932,-423 1151.9442,-405.0602 1205.0515,-381.8872 1425,-364 1496.83,-358.1585 1514.9496,-358.5559 1587,-357 1633.2114,-356.0021 1645.0198,-352.2765 1691,-357 1743.1301,-362.3553 1802.3176,-376.0771 1838.9112,-385.4779"/>
<polygon fill="#191970" stroke="#191970" points="572.6886,-436.4685 562.7704,-440.194 572.8471,-443.4667 572.6886,-436.4685"/>
</g>
<!-- Node1266 -->
<g id="node18" class="node">
<title>Node1266</title>
<g id="a_node18"><a xlink:href="net_8h.html#ab0b0b5db03427c4313c01ec2b12cf8ed" target="_top" xlink:title="Sends a CoAP message to given peer. ">
<polygon fill="#ffffff" stroke="#000000" points="656.5,-199.5 656.5,-218.5 720.5,-218.5 720.5,-199.5 656.5,-199.5"/>
<text text-anchor="middle" x="688.5" y="-206.5" font-family="Helvetica,sans-Serif" font-size="10.00" fill="#000000">coap_send</text>
</a>
</g>
</g>
<!-- Node1265&#45;&gt;Node1266 -->
<g id="edge20" class="edge">
<title>Node1265&#45;&gt;Node1266</title>
<path fill="none" stroke="#191970" d="M532.9745,-423.136C566.5939,-376.847 655.7025,-254.1574 681.4443,-218.7147"/>
<polygon fill="#191970" stroke="#191970" points="530.0704,-421.1787 527.0257,-431.3266 535.7342,-425.2923 530.0704,-421.1787"/>
</g>
<!-- Node1266&#45;&gt;Node1263 -->
<g id="edge51" class="edge">
<title>Node1266&#45;&gt;Node1263</title>
<path fill="none" stroke="#191970" d="M697.5654,-190.1075C713.5675,-158.8068 749.8366,-96.3449 799,-63 886.1834,-3.8681 922.1552,0 1027.5,0 1027.5,0 1027.5,0 1874,0 1951.0929,0 1981.3737,-7.6008 2036,-62 2092.4661,-118.2313 2108.6843,-220.2092 2112.486,-252.1571"/>
<polygon fill="#191970" stroke="#191970" points="694.2431,-188.9281 692.9262,-199.4408 700.5114,-192.0439 694.2431,-188.9281"/>
</g>
<!-- Node1267 -->
<g id="node19" class="node">
<title>Node1267</title>
<g id="a_node19"><a xlink:href="coap__session_8h.html#ab3f9f60c0a4857c147fef5721025944c" target="_top" xlink:title="Send a ping message for the session. ">
<polygon fill="#ffffff" stroke="#000000" points="1425,-556.5 1425,-575.5 1551,-575.5 1551,-556.5 1425,-556.5"/>
<text text-anchor="middle" x="1488" y="-563.5" font-family="Helvetica,sans-Serif" font-size="10.00" fill="#000000">coap_session_send_ping</text>
</a>
</g>
</g>
<!-- Node1266&#45;&gt;Node1267 -->
<g id="edge21" class="edge">
<title>Node1266&#45;&gt;Node1267</title>
<path fill="none" stroke="#191970" d="M695.4594,-228.1486C709.3877,-263.7115 744.1427,-339.9704 799,-380 902.5896,-455.5898 1289.14,-530.5479 1433.3212,-556.4735"/>
<polygon fill="#191970" stroke="#191970" points="698.6214,-226.6155 691.8062,-218.5036 692.0752,-229.095 698.6214,-226.6155"/>
</g>
<!-- Node1268 -->
<g id="node20" class="node">
<title>Node1268</title>
<g id="a_node20"><a xlink:href="net_8h.html#aba278b109415057d15196fa46afee970" target="_top" xlink:title="Sends an ACK message with code 0 for the specified request to dst. ">
<polygon fill="#ffffff" stroke="#000000" points="823,-180.5 823,-199.5 908,-199.5 908,-180.5 823,-180.5"/>
<text text-anchor="middle" x="865.5" y="-187.5" font-family="Helvetica,sans-Serif" font-size="10.00" fill="#000000">coap_send_ack</text>
</a>
</g>
</g>
<!-- Node1266&#45;&gt;Node1268 -->
<g id="edge23" class="edge">
<title>Node1266&#45;&gt;Node1268</title>
<path fill="none" stroke="#191970" d="M730.7543,-204.4642C758.5428,-201.4813 794.7911,-197.5902 822.6912,-194.5953"/>
<polygon fill="#191970" stroke="#191970" points="730.1227,-201.0118 720.5534,-205.5592 730.8698,-207.9718 730.1227,-201.0118"/>
</g>
<!-- Node1270 -->
<g id="node22" class="node">
<title>Node1270</title>
<g id="a_node22"><a xlink:href="net_8h.html#a7bb944fc52f772655356d95724317401" target="_top" xlink:title="Dispatches the PDUs from the receive queue in given context. ">
<polygon fill="#ffffff" stroke="#000000" points="1141,-256.5 1141,-275.5 1221,-275.5 1221,-256.5 1141,-256.5"/>
<text text-anchor="middle" x="1181" y="-263.5" font-family="Helvetica,sans-Serif" font-size="10.00" fill="#000000">coap_dispatch</text>
</a>
</g>
</g>
<!-- Node1266&#45;&gt;Node1270 -->
<g id="edge50" class="edge">
<title>Node1266&#45;&gt;Node1270</title>
<path fill="none" stroke="#191970" d="M730.6345,-219.9793C751.1356,-224.9497 776.2176,-230.486 799,-234 922.8194,-253.0982 1071.1006,-261.4124 1140.9133,-264.4754"/>
<polygon fill="#191970" stroke="#191970" points="731.2162,-216.518 720.6689,-217.521 729.5396,-223.3143 731.2162,-216.518"/>
</g>
<!-- Node1276 -->
<g id="node28" class="node">
<title>Node1276</title>
<g id="a_node28"><a xlink:href="resource_8c.html#ae1a91e254baca4f43b7896f54a8d9944" target="_top" xlink:title="coap_notify_observers">
<polygon fill="#ffffff" stroke="#000000" points="1123.5,-142.5 1123.5,-161.5 1238.5,-161.5 1238.5,-142.5 1123.5,-142.5"/>
<text text-anchor="middle" x="1181" y="-149.5" font-family="Helvetica,sans-Serif" font-size="10.00" fill="#000000">coap_notify_observers</text>
</a>
</g>
</g>
<!-- Node1266&#45;&gt;Node1276 -->
<g id="edge52" class="edge">
<title>Node1266&#45;&gt;Node1276</title>
<path fill="none" stroke="#191970" d="M699.3977,-190.6508C716.6069,-163.7039 752.9085,-114.514 799,-95 916.906,-45.0815 963.4987,-68.2197 1087,-102 1117.8451,-110.4368 1149.9291,-130.3048 1167.4912,-142.301"/>
<polygon fill="#191970" stroke="#191970" points="696.4116,-188.825 694.1221,-199.1695 702.3628,-192.5106 696.4116,-188.825"/>
</g>
<!-- Node1278 -->
<g id="node30" class="node">
<title>Node1278</title>
<g id="a_node30"><a xlink:href="net_8h.html#ab31cd76353f751ec4dc5c033152df575" target="_top" xlink:title="Sends an error response with code code for request request to dst. ">
<polygon fill="#ffffff" stroke="#000000" points="821,-142.5 821,-161.5 910,-161.5 910,-142.5 821,-142.5"/>
<text text-anchor="middle" x="865.5" y="-149.5" font-family="Helvetica,sans-Serif" font-size="10.00" fill="#000000">coap_send_error</text>
</a>
</g>
</g>
<!-- Node1266&#45;&gt;Node1278 -->
<g id="edge40" class="edge">
<title>Node1266&#45;&gt;Node1278</title>
<path fill="none" stroke="#191970" d="M724.8567,-195.955C746.3331,-188.3852 774.1079,-178.8301 799,-171 809.3084,-167.7574 820.5879,-164.4464 830.8816,-161.5159"/>
<polygon fill="#191970" stroke="#191970" points="723.4216,-192.7502 715.1635,-199.3874 725.7582,-199.3487 723.4216,-192.7502"/>
</g>
<!-- Node1279 -->
<g id="node31" class="node">
<title>Node1279</title>
<g id="a_node31"><a xlink:href="net_8h.html#a6aa830b46188549b51773f724eb8e752" target="_top" xlink:title="Helper funktion to create and send a message with type (usually ACK or RST). ">
<polygon fill="#ffffff" stroke="#000000" points="799,-104.5 799,-123.5 932,-123.5 932,-104.5 799,-104.5"/>
<text text-anchor="middle" x="865.5" y="-111.5" font-family="Helvetica,sans-Serif" font-size="10.00" fill="#000000">coap_send_message_type</text>
</a>
</g>
</g>
<!-- Node1266&#45;&gt;Node1279 -->
<g id="edge42" class="edge">
<title>Node1266&#45;&gt;Node1279</title>
<path fill="none" stroke="#191970" d="M707.5355,-193.026C728.6696,-176.0056 764.3836,-149.3132 799,-133 806.9289,-129.2635 815.7432,-126.113 824.2933,-123.5181"/>
<polygon fill="#191970" stroke="#191970" points="705.1963,-190.4176 699.6714,-199.4579 709.628,-195.8361 705.1963,-190.4176"/>
</g>
<!-- Node1280 -->
<g id="node32" class="node">
<title>Node1280</title>
<g id="a_node32"><a xlink:href="net_8c.html#a1a280312c4bad55cf10243b9b9c3e966" target="_top" xlink:title="handle_request">
<polygon fill="#ffffff" stroke="#000000" points="986,-218.5 986,-237.5 1069,-237.5 1069,-218.5 986,-218.5"/>
<text text-anchor="middle" x="1027.5" y="-225.5" font-family="Helvetica,sans-Serif" font-size="10.00" fill="#000000">handle_request</text>
</a>
</g>
</g>
<!-- Node1266&#45;&gt;Node1280 -->
<g id="edge46" class="edge">
<title>Node1266&#45;&gt;Node1280</title>
<path fill="none" stroke="#191970" d="M731.054,-211.385C796.4742,-215.0517 920.9736,-222.0295 985.8467,-225.6655"/>
<polygon fill="#191970" stroke="#191970" points="730.8781,-207.8698 720.6979,-210.8046 730.4864,-214.8588 730.8781,-207.8698"/>
</g>
<!-- Node1281 -->
<g id="node33" class="node">
<title>Node1281</title>
<g id="a_node33"><a xlink:href="net_8c.html#ac4cbcfd073489b57805db665ce3d0681" target="_top" xlink:title="handle_signaling">
<polygon fill="#ffffff" stroke="#000000" points="983,-294.5 983,-313.5 1072,-313.5 1072,-294.5 983,-294.5"/>
<text text-anchor="middle" x="1027.5" y="-301.5" font-family="Helvetica,sans-Serif" font-size="10.00" fill="#000000">handle_signaling</text>
</a>
</g>
</g>
<!-- Node1266&#45;&gt;Node1281 -->
<g id="edge48" class="edge">
<title>Node1266&#45;&gt;Node1281</title>
<path fill="none" stroke="#191970" d="M707.2501,-225.006C728.1381,-241.8404 763.6414,-267.5767 799,-280 860.1537,-301.4865 935.7398,-305.3655 982.7954,-305.3327"/>
<polygon fill="#191970" stroke="#191970" points="709.4316,-222.2683 699.4874,-218.6128 704.9815,-227.6718 709.4316,-222.2683"/>
</g>
<!-- Node1267&#45;&gt;Node1262 -->
<g id="edge22" class="edge">
<title>Node1267&#45;&gt;Node1262</title>
<path fill="none" stroke="#191970" d="M1561.4141,-558.1052C1600.2753,-553.0956 1648.6004,-545.5426 1691,-535 1799.8444,-507.9359 1924.6765,-458.2919 1974.8697,-437.5265"/>
<polygon fill="#191970" stroke="#191970" points="1560.7178,-554.6652 1551.2337,-559.3876 1561.5928,-561.6103 1560.7178,-554.6652"/>
</g>
<!-- Node1269 -->
<g id="node21" class="node">
<title>Node1269</title>
<g id="a_node21"><a xlink:href="net_8c.html#af838d89087ad96495f8ed7f1a9297168" target="_top" xlink:title="handle_response">
<polygon fill="#ffffff" stroke="#000000" points="982.5,-180.5 982.5,-199.5 1072.5,-199.5 1072.5,-180.5 982.5,-180.5"/>
<text text-anchor="middle" x="1027.5" y="-187.5" font-family="Helvetica,sans-Serif" font-size="10.00" fill="#000000">handle_response</text>
</a>
</g>
</g>
<!-- Node1268&#45;&gt;Node1269 -->
<g id="edge24" class="edge">
<title>Node1268&#45;&gt;Node1269</title>
<path fill="none" stroke="#191970" d="M918.2842,-190C938.9851,-190 962.4959,-190 982.3874,-190"/>
<polygon fill="#191970" stroke="#191970" points="918.0636,-186.5001 908.0636,-190 918.0636,-193.5001 918.0636,-186.5001"/>
</g>
<!-- Node1275 -->
<g id="node27" class="node">
<title>Node1275</title>
<g id="a_node27"><a xlink:href="net_8h.html#ade36148140b152d713b23d17bbcf0024" target="_top" xlink:title="Returns a new message id and updates session&#45;&gt;tx_mid accordingly. ">
<polygon fill="#ffffff" stroke="#000000" points="968,-142.5 968,-161.5 1087,-161.5 1087,-142.5 968,-142.5"/>
<text text-anchor="middle" x="1027.5" y="-149.5" font-family="Helvetica,sans-Serif" font-size="10.00" fill="#000000">coap_new_message_id</text>
</a>
</g>
</g>
<!-- Node1268&#45;&gt;Node1275 -->
<g id="edge35" class="edge">
<title>Node1268&#45;&gt;Node1275</title>
<path fill="none" stroke="#191970" d="M916.2148,-178.1039C938.9856,-172.7626 965.4867,-166.5463 986.9145,-161.5201"/>
<polygon fill="#191970" stroke="#191970" points="915.3159,-174.7197 906.3794,-180.411 916.9145,-181.5347 915.3159,-174.7197"/>
</g>
<!-- Node1269&#45;&gt;Node1270 -->
<g id="edge25" class="edge">
<title>Node1269&#45;&gt;Node1270</title>
<path fill="none" stroke="#191970" d="M1072.082,-202.9603C1077.1802,-204.8166 1082.2487,-206.8376 1087,-209 1117.2255,-222.756 1149.7889,-244.145 1167.5486,-256.436"/>
<polygon fill="#191970" stroke="#191970" points="1072.9113,-199.5443 1062.3166,-199.5996 1070.6333,-206.1633 1072.9113,-199.5443"/>
</g>
<!-- Node1270&#45;&gt;Node1263 -->
<g id="edge34" class="edge">
<title>Node1270&#45;&gt;Node1263</title>
<path fill="none" stroke="#191970" d="M1231.0961,-255.345C1330.8763,-235.0831 1561.7391,-193 1758,-193 1758,-193 1758,-193 1874,-193 1958.8113,-193 2054.1458,-233.4465 2094.175,-252.4058"/>
<polygon fill="#191970" stroke="#191970" points="1230.0973,-251.9768 1221.0025,-257.4113 1231.5013,-258.8345 1230.0973,-251.9768"/>
</g>
<!-- Node1271 -->
<g id="node23" class="node">
<title>Node1271</title>
<g id="a_node23"><a xlink:href="net_8c.html#acd36f6fba6d30ab9557e0e6521f4a088" target="_top" xlink:title="coap_read_session">
<polygon fill="#ffffff" stroke="#000000" points="1588.5,-366.5 1588.5,-385.5 1689.5,-385.5 1689.5,-366.5 1588.5,-366.5"/>
<text text-anchor="middle" x="1639" y="-373.5" font-family="Helvetica,sans-Serif" font-size="10.00" fill="#000000">coap_read_session</text>
</a>
</g>
</g>
<!-- Node1270&#45;&gt;Node1271 -->
<g id="edge26" class="edge">
<title>Node1270&#45;&gt;Node1271</title>
<path fill="none" stroke="#191970" d="M1230.6966,-277.9359C1322.2329,-299.9206 1515.7372,-346.3954 1599.2494,-366.4529"/>
<polygon fill="#191970" stroke="#191970" points="1231.3842,-274.5015 1220.8433,-275.5694 1229.7494,-281.308 1231.3842,-274.5015"/>
</g>
<!-- Node1272 -->
<g id="node24" class="node">
<title>Node1272</title>
<g id="a_node24"><a xlink:href="net_8h.html#ae6b8ca457dd41f23372f9e9a7159312b" target="_top" xlink:title="Parses and interprets a CoAP datagram with context ctx. ">
<polygon fill="#ffffff" stroke="#000000" points="1280,-259.5 1280,-278.5 1384,-278.5 1384,-259.5 1280,-259.5"/>
<text text-anchor="middle" x="1332" y="-266.5" font-family="Helvetica,sans-Serif" font-size="10.00" fill="#000000">coap_handle_dgram</text>
</a>
</g>
</g>
<!-- Node1270&#45;&gt;Node1272 -->
<g id="edge28" class="edge">
<title>Node1270&#45;&gt;Node1272</title>
<path fill="none" stroke="#191970" d="M1231.0746,-266.9949C1246.7121,-267.3055 1263.9972,-267.649 1279.7783,-267.9625"/>
<polygon fill="#191970" stroke="#191970" points="1231.1364,-263.4955 1221.0688,-266.7961 1230.9973,-270.4941 1231.1364,-263.4955"/>
</g>
<!-- Node1271&#45;&gt;Node1259 -->
<g id="edge27" class="edge">
<title>Node1271&#45;&gt;Node1259</title>
<path fill="none" stroke="#191970" d="M1678.7098,-388.6804C1694.7886,-393.8148 1713.0433,-399.6441 1727.9809,-404.4141"/>
<polygon fill="#191970" stroke="#191970" points="1679.6195,-385.2969 1669.0287,-385.589 1677.4901,-391.9652 1679.6195,-385.2969"/>
</g>
<!-- Node1272&#45;&gt;Node1263 -->
<g id="edge33" class="edge">
<title>Node1272&#45;&gt;Node1263</title>
<path fill="none" stroke="#191970" d="M1394.4439,-268.4407C1548.9232,-267.057 1945.6876,-263.5031 2073.3126,-262.36"/>
<polygon fill="#191970" stroke="#191970" points="1394.1536,-264.943 1384.1854,-268.5326 1394.2164,-271.9428 1394.1536,-264.943"/>
</g>
<!-- Node1273 -->
<g id="node25" class="node">
<title>Node1273</title>
<g id="a_node25"><a xlink:href="net_8c.html#a8534f7860b14e0743529daff196a27ce" target="_top" xlink:title="coap_handle_dgram_for\l_proto">
<polygon fill="#ffffff" stroke="#000000" points="1428,-374 1428,-404 1548,-404 1548,-374 1428,-374"/>
<text text-anchor="start" x="1436" y="-392" font-family="Helvetica,sans-Serif" font-size="10.00" fill="#000000">coap_handle_dgram_for</text>
<text text-anchor="middle" x="1488" y="-381" font-family="Helvetica,sans-Serif" font-size="10.00" fill="#000000">_proto</text>
</a>
</g>
</g>
<!-- Node1272&#45;&gt;Node1273 -->
<g id="edge29" class="edge">
<title>Node1272&#45;&gt;Node1273</title>
<path fill="none" stroke="#191970" d="M1352.6624,-284.8942C1382.9255,-308.1735 1438.911,-351.2392 1468.4995,-373.9996"/>
<polygon fill="#191970" stroke="#191970" points="1354.5627,-281.9402 1344.5024,-278.6173 1350.2947,-287.4886 1354.5627,-281.9402"/>
</g>
<!-- Node1273&#45;&gt;Node1271 -->
<g id="edge30" class="edge">
<title>Node1273&#45;&gt;Node1271</title>
<path fill="none" stroke="#191970" d="M1558.2035,-382.956C1568.3642,-382.0812 1578.6535,-381.1954 1588.3303,-380.3623"/>
<polygon fill="#191970" stroke="#191970" points="1557.776,-379.4798 1548.1131,-383.8247 1558.3765,-386.454 1557.776,-379.4798"/>
</g>
<!-- Node1274 -->
<g id="node26" class="node">
<title>Node1274</title>
<g id="a_node26"><a xlink:href="net_8c.html#a44ffb4b70e537043e9a9cf344be24b92" target="_top" xlink:title="coap_read_endpoint">
<polygon fill="#ffffff" stroke="#000000" points="1587,-404.5 1587,-423.5 1691,-423.5 1691,-404.5 1587,-404.5"/>
<text text-anchor="middle" x="1639" y="-411.5" font-family="Helvetica,sans-Serif" font-size="10.00" fill="#000000">coap_read_endpoint</text>
</a>
</g>
</g>
<!-- Node1273&#45;&gt;Node1274 -->
<g id="edge31" class="edge">
<title>Node1273&#45;&gt;Node1274</title>
<path fill="none" stroke="#191970" d="M1558.1329,-400.6114C1567.8148,-402.2144 1577.615,-403.8369 1586.8923,-405.3729"/>
<polygon fill="#191970" stroke="#191970" points="1558.5505,-397.133 1548.1131,-398.9525 1557.4071,-404.039 1558.5505,-397.133"/>
</g>
<!-- Node1274&#45;&gt;Node1259 -->
<g id="edge32" class="edge">
<title>Node1274&#45;&gt;Node1259</title>
<path fill="none" stroke="#191970" d="M1701.469,-414C1710.226,-414 1718.897,-414 1726.7208,-414"/>
<polygon fill="#191970" stroke="#191970" points="1701.1952,-410.5001 1691.1951,-414 1701.1951,-417.5001 1701.1952,-410.5001"/>
</g>
<!-- Node1275&#45;&gt;Node1276 -->
<g id="edge36" class="edge">
<title>Node1275&#45;&gt;Node1276</title>
<path fill="none" stroke="#191970" d="M1097.4097,-152C1106.1021,-152 1114.9126,-152 1123.3902,-152"/>
<polygon fill="#191970" stroke="#191970" points="1097.2867,-148.5001 1087.2866,-152 1097.2866,-155.5001 1097.2867,-148.5001"/>
</g>
<!-- Node1277 -->
<g id="node29" class="node">
<title>Node1277</title>
<g id="a_node29"><a xlink:href="resource_8h.html#a579bcb559463d3a872831c18d8d9a1c1" target="_top" xlink:title="Checks for all known resources, if they are dirty and notifies subscribed observers. ">
<polygon fill="#ffffff" stroke="#000000" points="1825,-342.5 1825,-361.5 1923,-361.5 1923,-342.5 1825,-342.5"/>
<text text-anchor="middle" x="1874" y="-349.5" font-family="Helvetica,sans-Serif" font-size="10.00" fill="#000000">coap_check_notify</text>
</a>
</g>
</g>
<!-- Node1276&#45;&gt;Node1277 -->
<g id="edge37" class="edge">
<title>Node1276&#45;&gt;Node1277</title>
<path fill="none" stroke="#191970" d="M1226.7123,-164.2178C1328.2463,-191.5116 1580.0874,-260.0723 1789,-324 1808.1655,-329.8647 1829.5991,-336.9287 1846.1484,-342.4941"/>
<polygon fill="#191970" stroke="#191970" points="1227.3565,-160.7669 1216.7909,-161.5536 1225.5411,-167.5274 1227.3565,-160.7669"/>
</g>
<!-- Node1277&#45;&gt;Node1262 -->
<g id="edge38" class="edge">
<title>Node1277&#45;&gt;Node1262</title>
<path fill="none" stroke="#191970" d="M1904.7376,-366.1534C1910.8783,-369.2315 1917.2156,-372.5921 1923,-376 1945.695,-389.3711 1970.4838,-407.4258 1984.9767,-418.3634"/>
<polygon fill="#191970" stroke="#191970" points="1905.8802,-362.8168 1895.3575,-361.5826 1902.8138,-369.1095 1905.8802,-362.8168"/>
</g>
<!-- Node1277&#45;&gt;Node1264 -->
<g id="edge39" class="edge">
<title>Node1277&#45;&gt;Node1264</title>
<path fill="none" stroke="#191970" d="M1933.2663,-352C1941.9313,-352 1950.6616,-352 1958.7733,-352"/>
<polygon fill="#191970" stroke="#191970" points="1933.1654,-348.5001 1923.1653,-352 1933.1653,-355.5001 1933.1654,-348.5001"/>
</g>
<!-- Node1278&#45;&gt;Node1275 -->
<g id="edge41" class="edge">
<title>Node1278&#45;&gt;Node1275</title>
<path fill="none" stroke="#191970" d="M920.4856,-152C935.709,-152 952.304,-152 967.7829,-152"/>
<polygon fill="#191970" stroke="#191970" points="920.1961,-148.5001 910.196,-152 920.196,-155.5001 920.1961,-148.5001"/>
</g>
<!-- Node1279&#45;&gt;Node1263 -->
<g id="edge45" class="edge">
<title>Node1279&#45;&gt;Node1263</title>
<path fill="none" stroke="#191970" d="M898.2809,-100.6674C954.9261,-78.869 1075.2317,-38 1181,-38 1181,-38 1181,-38 1874,-38 2001.5272,-38 2089.249,-209.5 2109.1868,-252.375"/>
<polygon fill="#191970" stroke="#191970" points="896.8261,-97.478 888.7832,-104.3745 899.3713,-103.9989 896.8261,-97.478"/>
</g>
<!-- Node1279&#45;&gt;Node1270 -->
<g id="edge43" class="edge">
<title>Node1279&#45;&gt;Node1270</title>
<path fill="none" stroke="#191970" d="M942.3408,-105.13C987.3002,-103.5567 1043.5745,-108.1041 1087,-133 1112.8791,-147.8365 1159.9557,-228.5677 1175.7065,-256.4914"/>
<polygon fill="#191970" stroke="#191970" points="942.1747,-101.6338 932.3446,-105.5858 942.4937,-108.6266 942.1747,-101.6338"/>
</g>
<!-- Node1279&#45;&gt;Node1275 -->
<g id="edge44" class="edge">
<title>Node1279&#45;&gt;Node1275</title>
<path fill="none" stroke="#191970" d="M916.2148,-125.8961C938.9856,-131.2374 965.4867,-137.4537 986.9145,-142.4799"/>
<polygon fill="#191970" stroke="#191970" points="916.9145,-122.4653 906.3794,-123.589 915.3159,-129.2803 916.9145,-122.4653"/>
</g>
<!-- Node1280&#45;&gt;Node1270 -->
<g id="edge47" class="edge">
<title>Node1280&#45;&gt;Node1270</title>
<path fill="none" stroke="#191970" d="M1076.1352,-240.04C1097.5799,-245.3488 1122.4226,-251.4988 1142.544,-256.4799"/>
<polygon fill="#191970" stroke="#191970" points="1076.7826,-236.5947 1066.2345,-237.589 1075.1004,-243.3896 1076.7826,-236.5947"/>
</g>
<!-- Node1281&#45;&gt;Node1270 -->
<g id="edge49" class="edge">
<title>Node1281&#45;&gt;Node1270</title>
<path fill="none" stroke="#191970" d="M1076.1352,-291.96C1097.5799,-286.6512 1122.4226,-280.5012 1142.544,-275.5201"/>
<polygon fill="#191970" stroke="#191970" points="1075.1004,-288.6104 1066.2345,-294.411 1076.7826,-295.4053 1075.1004,-288.6104"/>
</g>
<!-- Node1282&#45;&gt;Node1259 -->
<g id="edge55" class="edge">
<title>Node1282&#45;&gt;Node1259</title>
<path fill="none" stroke="#191970" d="M1225.6931,-561.7502C1314.4375,-537.4029 1519.1539,-481.1209 1691,-433 1702.7592,-429.7072 1715.6685,-426.0551 1726.9901,-422.8399"/>
<polygon fill="#191970" stroke="#191970" points="1224.6758,-558.3999 1215.9579,-564.4206 1226.5275,-565.1505 1224.6758,-558.3999"/>
</g>
<!-- Node1283&#45;&gt;Node1261 -->
<g id="edge57" class="edge">
<title>Node1283&#45;&gt;Node1261</title>
<path fill="none" stroke="#191970" d="M939.3018,-370.8142C1069.7,-387.606 1349.521,-421.1801 1587,-433 1676.6668,-437.4629 1701.1984,-451.7329 1789,-433 1814.452,-427.5697 1841.5096,-413.9398 1858.0864,-404.5717"/>
<polygon fill="#191970" stroke="#191970" points="939.4065,-367.2987 929.0403,-369.4876 938.509,-374.2409 939.4065,-367.2987"/>
</g>
<!-- Node1283&#45;&gt;Node1270 -->
<g id="edge59" class="edge">
<title>Node1283&#45;&gt;Node1270</title>
<path fill="none" stroke="#191970" d="M939.2424,-355.3308C983.2103,-350.254 1039.5281,-340.7333 1087,-323 1118.6453,-311.1788 1151.4671,-288.4557 1168.7107,-275.557"/>
<polygon fill="#191970" stroke="#191970" points="938.7586,-351.8628 929.2026,-356.438 939.526,-358.8206 938.7586,-351.8628"/>
</g>
<!-- Node1283&#45;&gt;Node1281 -->
<g id="edge58" class="edge">
<title>Node1283&#45;&gt;Node1281</title>
<path fill="none" stroke="#191970" d="M902.244,-348.0715C932.0518,-337.5836 973.3975,-323.0361 1000.2964,-313.5716"/>
<polygon fill="#191970" stroke="#191970" points="900.8866,-344.8388 892.6152,-351.4595 903.21,-351.4419 900.8866,-344.8388"/>
</g>
</g>
</svg>
