<?xml version="1.0" encoding="UTF-8" standalone="no"?>
<!DOCTYPE svg PUBLIC "-//W3C//DTD SVG 1.1//EN"
 "http://www.w3.org/Graphics/SVG/1.1/DTD/svg11.dtd">
<!-- Generated by graphviz version 2.40.1 (20161225.0304)
 -->
<!-- Title: coap_tls_is_supported Pages: 1 -->
<svg width="395pt" height="28pt"
 viewBox="0.00 0.00 395.00 28.00" xmlns="http://www.w3.org/2000/svg" xmlns:xlink="http://www.w3.org/1999/xlink">
<g id="graph0" class="graph" transform="scale(1 1) rotate(0) translate(4 24)">
<title>coap_tls_is_supported</title>
<polygon fill="#ffffff" stroke="transparent" points="-4,4 -4,-24 391,-24 391,4 -4,4"/>
<!-- Node284 -->
<g id="node1" class="node">
<title>Node284</title>
<polygon fill="#bfbfbf" stroke="#000000" points="0,-.5 0,-19.5 114,-19.5 114,-.5 0,-.5"/>
<text text-anchor="middle" x="57" y="-7.5" font-family="Helvetica,sans-Serif" font-size="10.00" fill="#000000">coap_tls_is_supported</text>
</g>
<!-- Node285 -->
<g id="node2" class="node">
<title>Node285</title>
<g id="a_node2"><a xlink:href="coap__session_8c.html#ab5232b5141e191638ee6b7da6239dd1b" target="_top" xlink:title="coap_new_endpoint">
<polygon fill="#ffffff" stroke="#000000" points="150,-.5 150,-19.5 253,-19.5 253,-.5 150,-.5"/>
<text text-anchor="middle" x="201.5" y="-7.5" font-family="Helvetica,sans-Serif" font-size="10.00" fill="#000000">coap_new_endpoint</text>
</a>
</g>
</g>
<!-- Node284&#45;&gt;Node285 -->
<g id="edge1" class="edge">
<title>Node284&#45;&gt;Node285</title>
<path fill="none" stroke="#191970" d="M124.199,-10C132.8567,-10 141.6117,-10 149.9633,-10"/>
<polygon fill="#191970" stroke="#191970" points="124.1103,-6.5001 114.1102,-10 124.1102,-13.5001 124.1103,-6.5001"/>
</g>
<!-- Node286 -->
<g id="node3" class="node">
<title>Node286</title>
<g id="a_node3"><a xlink:href="net_8c.html#a8baf4e3608ff5eb00adac694fe25eb60" target="_top" xlink:title="coap_new_context">
<polygon fill="#ffffff" stroke="#000000" points="289,-.5 289,-19.5 387,-19.5 387,-.5 289,-.5"/>
<text text-anchor="middle" x="338" y="-7.5" font-family="Helvetica,sans-Serif" font-size="10.00" fill="#000000">coap_new_context</text>
</a>
</g>
</g>
<!-- Node285&#45;&gt;Node286 -->
<g id="edge2" class="edge">
<title>Node285&#45;&gt;Node286</title>
<path fill="none" stroke="#191970" d="M263.3238,-10C271.7847,-10 280.3784,-10 288.5787,-10"/>
<polygon fill="#191970" stroke="#191970" points="263.1048,-6.5001 253.1048,-10 263.1048,-13.5001 263.1048,-6.5001"/>
</g>
</g>
</svg>
