<?xml version="1.0" encoding="UTF-8" standalone="no"?>
<!DOCTYPE svg PUBLIC "-//W3C//DTD SVG 1.1//EN"
 "http://www.w3.org/Graphics/SVG/1.1/DTD/svg11.dtd">
<!-- Generated by graphviz version 2.40.1 (20161225.0304)
 -->
<!-- Title: coap_mfree_endpoint Pages: 1 -->
<svg width="1037pt" height="360pt"
 viewBox="0.00 0.00 1037.00 360.00" xmlns="http://www.w3.org/2000/svg" xmlns:xlink="http://www.w3.org/1999/xlink">
<g id="graph0" class="graph" transform="scale(1 1) rotate(0) translate(4 356)">
<title>coap_mfree_endpoint</title>
<polygon fill="#ffffff" stroke="transparent" points="-4,4 -4,-356 1033,-356 1033,4 -4,4"/>
<!-- Node6 -->
<g id="node1" class="node">
<title>Node6</title>
<polygon fill="#bfbfbf" stroke="#000000" points="0,-266.5 0,-285.5 110,-285.5 110,-266.5 0,-266.5"/>
<text text-anchor="middle" x="55" y="-273.5" font-family="Helvetica,sans-Serif" font-size="10.00" fill="#000000">coap_mfree_endpoint</text>
</g>
<!-- Node7 -->
<g id="node2" class="node">
<title>Node7</title>
<g id="a_node2"><a xlink:href="coap__session_8c.html#ab91ca670624ee770714727efff274c49" target="_top" xlink:title="coap_session_mfree">
<polygon fill="#ffffff" stroke="#000000" points="146,-209.5 146,-228.5 253,-228.5 253,-209.5 146,-209.5"/>
<text text-anchor="middle" x="199.5" y="-216.5" font-family="Helvetica,sans-Serif" font-size="10.00" fill="#000000">coap_session_mfree</text>
</a>
</g>
</g>
<!-- Node6&#45;&gt;Node7 -->
<g id="edge1" class="edge">
<title>Node6&#45;&gt;Node7</title>
<path fill="none" stroke="#191970" d="M79.1861,-266.4595C102.8383,-257.1295 139.0676,-242.8384 165.5913,-232.3758"/>
<polygon fill="#191970" stroke="#191970" points="167.217,-235.497 175.235,-228.5716 164.6483,-228.9853 167.217,-235.497"/>
</g>
<!-- Node9 -->
<g id="node4" class="node">
<title>Node9</title>
<g id="a_node4"><a xlink:href="mem_8h.html#ae7214e0c73a4d4290525873e739ed422" target="_top" xlink:title="Releases the memory that was allocated by coap_malloc_type(). ">
<polygon fill="#ffffff" stroke="#000000" points="736,-266.5 736,-285.5 819,-285.5 819,-266.5 736,-266.5"/>
<text text-anchor="middle" x="777.5" y="-273.5" font-family="Helvetica,sans-Serif" font-size="10.00" fill="#000000">coap_free_type</text>
</a>
</g>
</g>
<!-- Node6&#45;&gt;Node9 -->
<g id="edge27" class="edge">
<title>Node6&#45;&gt;Node9</title>
<path fill="none" stroke="#191970" d="M76.5936,-285.6255C124.5047,-306.076 243.7554,-352 348.5,-352 348.5,-352 348.5,-352 500.5,-352 593.5341,-352 698.0813,-311.6371 747.9515,-289.741"/>
<polygon fill="#191970" stroke="#191970" points="749.4704,-292.896 757.1769,-285.6255 746.6185,-286.5032 749.4704,-292.896"/>
</g>
<!-- Node8 -->
<g id="node3" class="node">
<title>Node8</title>
<g id="a_node3"><a xlink:href="pdu_8c.html#a48581f968a30ef4278702eb1c16b7a90" target="_top" xlink:title="Dispose of an CoAP PDU and frees associated storage. ">
<polygon fill="#ffffff" stroke="#000000" points="455.5,-228.5 455.5,-247.5 545.5,-247.5 545.5,-228.5 455.5,-228.5"/>
<text text-anchor="middle" x="500.5" y="-235.5" font-family="Helvetica,sans-Serif" font-size="10.00" fill="#000000">coap_delete_pdu</text>
</a>
</g>
</g>
<!-- Node7&#45;&gt;Node8 -->
<g id="edge2" class="edge">
<title>Node7&#45;&gt;Node8</title>
<path fill="none" stroke="#191970" d="M253.2164,-216.0232C295.4135,-214.4023 355.602,-213.6742 408,-219 422.6996,-220.4941 438.5137,-223.2911 452.8356,-226.2883"/>
<polygon fill="#191970" stroke="#191970" points="452.4478,-229.7857 462.9631,-228.4905 453.9352,-222.9456 452.4478,-229.7857"/>
</g>
<!-- Node10 -->
<g id="node5" class="node">
<title>Node10</title>
<g id="a_node5"><a xlink:href="coap__dtls_8c.html#ae8b4d2b8a9cb8964944c841e92952ebe" target="_top" xlink:title="coap_dtls_free_session">
<polygon fill="#ffffff" stroke="#000000" points="289,-304.5 289,-323.5 408,-323.5 408,-304.5 289,-304.5"/>
<text text-anchor="middle" x="348.5" y="-311.5" font-family="Helvetica,sans-Serif" font-size="10.00" fill="#000000">coap_dtls_free_session</text>
</a>
</g>
</g>
<!-- Node7&#45;&gt;Node10 -->
<g id="edge4" class="edge">
<title>Node7&#45;&gt;Node10</title>
<path fill="none" stroke="#191970" d="M208.2363,-228.5567C223.276,-244.4782 255.6678,-276.506 289,-295 292.8921,-297.1595 297.0657,-299.1149 301.3306,-300.8762"/>
<polygon fill="#191970" stroke="#191970" points="300.1471,-304.1705 310.7389,-304.4258 302.6181,-297.6211 300.1471,-304.1705"/>
</g>
<!-- Node11 -->
<g id="node6" class="node">
<title>Node11</title>
<g id="a_node6"><a xlink:href="coap__notls_8c.html#aa317934415639e23b64a3bd0b4edde6c" target="_top" xlink:title="coap_tls_free_session">
<polygon fill="#ffffff" stroke="#000000" points="291.5,-266.5 291.5,-285.5 405.5,-285.5 405.5,-266.5 291.5,-266.5"/>
<text text-anchor="middle" x="348.5" y="-273.5" font-family="Helvetica,sans-Serif" font-size="10.00" fill="#000000">coap_tls_free_session</text>
</a>
</g>
</g>
<!-- Node7&#45;&gt;Node11 -->
<g id="edge5" class="edge">
<title>Node7&#45;&gt;Node11</title>
<path fill="none" stroke="#191970" d="M220.6162,-228.6192C238.6133,-236.6591 265.2605,-248.1914 289,-257 294.8711,-259.1785 301.1213,-261.341 307.2806,-263.3839"/>
<polygon fill="#191970" stroke="#191970" points="306.2253,-266.721 316.8174,-266.4807 308.3873,-260.0633 306.2253,-266.721"/>
</g>
<!-- Node12 -->
<g id="node7" class="node">
<title>Node12</title>
<g id="a_node7"><a xlink:href="coap__io_8c.html#a2de382e7795c908d1a376da8c338386d" target="_top" xlink:title="coap_socket_close">
<polygon fill="#ffffff" stroke="#000000" points="298,-228.5 298,-247.5 399,-247.5 399,-228.5 298,-228.5"/>
<text text-anchor="middle" x="348.5" y="-235.5" font-family="Helvetica,sans-Serif" font-size="10.00" fill="#000000">coap_socket_close</text>
</a>
</g>
</g>
<!-- Node7&#45;&gt;Node12 -->
<g id="edge6" class="edge">
<title>Node7&#45;&gt;Node12</title>
<path fill="none" stroke="#191970" d="M253.2924,-225.8594C264.3973,-227.2755 276.1689,-228.7766 287.5085,-230.2226"/>
<polygon fill="#191970" stroke="#191970" points="287.407,-233.7379 297.7695,-231.531 288.2925,-226.7941 287.407,-233.7379"/>
</g>
<!-- Node13 -->
<g id="node8" class="node">
<title>Node13</title>
<g id="a_node8"><a xlink:href="mem_8h.html#a1e46a1505bb13f03fdacd5d1b32502a6" target="_top" xlink:title="Wrapper function to coap_free_type() for backwards compatibility. ">
<polygon fill="#ffffff" stroke="#000000" points="471,-190.5 471,-209.5 530,-209.5 530,-190.5 471,-190.5"/>
<text text-anchor="middle" x="500.5" y="-197.5" font-family="Helvetica,sans-Serif" font-size="10.00" fill="#000000">coap_free</text>
</a>
</g>
</g>
<!-- Node7&#45;&gt;Node13 -->
<g id="edge7" class="edge">
<title>Node7&#45;&gt;Node13</title>
<path fill="none" stroke="#191970" d="M253.4132,-213.1121C265.1347,-211.9625 277.4751,-210.8513 289,-210 348.6496,-205.5938 417.9144,-202.7489 460.4749,-201.2607"/>
<polygon fill="#191970" stroke="#191970" points="460.8232,-204.7509 470.6979,-200.9114 460.5842,-197.755 460.8232,-204.7509"/>
</g>
<!-- Node17 -->
<g id="node12" class="node">
<title>Node17</title>
<g id="a_node12"><a xlink:href="net_8c.html#a44c39a2314035989d3e07b9d9328e08c" target="_top" xlink:title="Destroys specified node. ">
<polygon fill="#ffffff" stroke="#000000" points="301,-114.5 301,-133.5 396,-133.5 396,-114.5 301,-114.5"/>
<text text-anchor="middle" x="348.5" y="-121.5" font-family="Helvetica,sans-Serif" font-size="10.00" fill="#000000">coap_delete_node</text>
</a>
</g>
</g>
<!-- Node7&#45;&gt;Node17 -->
<g id="edge12" class="edge">
<title>Node7&#45;&gt;Node17</title>
<path fill="none" stroke="#191970" d="M209.5297,-209.4259C225.3743,-194.6923 257.6293,-166.2553 289,-148 295.6849,-144.1099 303.1208,-140.5645 310.4086,-137.4628"/>
<polygon fill="#191970" stroke="#191970" points="312.2101,-140.5098 320.1701,-133.5177 309.5872,-134.0198 312.2101,-140.5098"/>
</g>
<!-- Node8&#45;&gt;Node9 -->
<g id="edge3" class="edge">
<title>Node8&#45;&gt;Node9</title>
<path fill="none" stroke="#191970" d="M512.7644,-247.6546C529.6752,-260.2892 561.6334,-281.7878 593,-290 639.1587,-302.085 693.8653,-295.4331 731.6613,-287.7187"/>
<polygon fill="#191970" stroke="#191970" points="732.8103,-291.0518 741.8521,-285.5294 731.34,-284.208 732.8103,-291.0518"/>
</g>
<!-- Node13&#45;&gt;Node9 -->
<g id="edge8" class="edge">
<title>Node13&#45;&gt;Node9</title>
<path fill="none" stroke="#191970" d="M530.1832,-206.9984C539.2146,-209.8951 548.889,-213.8193 557,-219 576.6063,-231.5231 572.1283,-246.7235 593,-257 634.1937,-277.2822 686.7394,-280.8647 725.2102,-280.0584"/>
<polygon fill="#191970" stroke="#191970" points="725.7833,-283.542 735.6666,-279.7248 725.56,-276.5455 725.7833,-283.542"/>
</g>
<!-- Node14 -->
<g id="node9" class="node">
<title>Node14</title>
<g id="a_node9"><a xlink:href="mem_8h.html#a65d0fc0fe6cad555b56e92ccb57613ba" target="_top" xlink:title="Initializes libcoap&#39;s memory management. ">
<polygon fill="#ffffff" stroke="#000000" points="595.5,-228.5 595.5,-247.5 691.5,-247.5 691.5,-228.5 595.5,-228.5"/>
<text text-anchor="middle" x="643.5" y="-235.5" font-family="Helvetica,sans-Serif" font-size="10.00" fill="#000000">coap_memory_init</text>
</a>
</g>
</g>
<!-- Node13&#45;&gt;Node14 -->
<g id="edge9" class="edge">
<title>Node13&#45;&gt;Node14</title>
<path fill="none" stroke="#191970" d="M530.1297,-207.8736C549.6389,-213.0579 575.5696,-219.9486 597.7073,-225.8313"/>
<polygon fill="#191970" stroke="#191970" points="597.0117,-229.2679 607.5751,-228.4535 598.8095,-222.5026 597.0117,-229.2679"/>
</g>
<!-- Node15 -->
<g id="node10" class="node">
<title>Node15</title>
<g id="a_node10"><a xlink:href="mem_8h.html#a1539cf5011cdfb11500b476f4dbe9393" target="_top" xlink:title="Wrapper function to coap_malloc_type() for backwards compatibility. ">
<polygon fill="#ffffff" stroke="#000000" points="608,-190.5 608,-209.5 679,-209.5 679,-190.5 608,-190.5"/>
<text text-anchor="middle" x="643.5" y="-197.5" font-family="Helvetica,sans-Serif" font-size="10.00" fill="#000000">coap_malloc</text>
</a>
</g>
</g>
<!-- Node13&#45;&gt;Node15 -->
<g id="edge10" class="edge">
<title>Node13&#45;&gt;Node15</title>
<path fill="none" stroke="#191970" d="M530.1297,-200C549.6217,-200 575.5237,-200 597.6486,-200"/>
<polygon fill="#191970" stroke="#191970" points="597.8358,-203.5001 607.8357,-200 597.8357,-196.5001 597.8358,-203.5001"/>
</g>
<!-- Node16 -->
<g id="node11" class="node">
<title>Node16</title>
<g id="a_node11"><a xlink:href="mem_8h.html#a0204710ce56cbaa4f062b7f2622857f5" target="_top" xlink:title="Allocates a chunk of size bytes and returns a pointer to the newly allocated memory. ">
<polygon fill="#ffffff" stroke="#000000" points="730,-114.5 730,-133.5 825,-133.5 825,-114.5 730,-114.5"/>
<text text-anchor="middle" x="777.5" y="-121.5" font-family="Helvetica,sans-Serif" font-size="10.00" fill="#000000">coap_malloc_type</text>
</a>
</g>
</g>
<!-- Node15&#45;&gt;Node16 -->
<g id="edge11" class="edge">
<title>Node15&#45;&gt;Node16</title>
<path fill="none" stroke="#191970" d="M660.4712,-190.3745C683.5282,-177.2975 724.9502,-153.8043 751.8224,-138.5634"/>
<polygon fill="#191970" stroke="#191970" points="753.6949,-141.5252 760.6666,-133.5473 750.2415,-135.4363 753.6949,-141.5252"/>
</g>
<!-- Node17&#45;&gt;Node8 -->
<g id="edge13" class="edge">
<title>Node17&#45;&gt;Node8</title>
<path fill="none" stroke="#191970" d="M357.7869,-133.7273C379.7693,-156.6804 433.9042,-212.7602 444,-219 447.3218,-221.0531 450.8919,-222.9137 454.5649,-224.594"/>
<polygon fill="#191970" stroke="#191970" points="453.2449,-227.8355 463.8243,-228.4063 455.9099,-221.3626 453.2449,-227.8355"/>
</g>
<!-- Node18 -->
<g id="node13" class="node">
<title>Node18</title>
<g id="a_node13"><a xlink:href="coap__session_8c.html#a9aee135ba884d7c143b11bc42fd23e53" target="_top" xlink:title="Decrement reference counter on a session. ">
<polygon fill="#ffffff" stroke="#000000" points="444,-67.5 444,-86.5 557,-86.5 557,-67.5 444,-67.5"/>
<text text-anchor="middle" x="500.5" y="-74.5" font-family="Helvetica,sans-Serif" font-size="10.00" fill="#000000">coap_session_release</text>
</a>
</g>
</g>
<!-- Node17&#45;&gt;Node18 -->
<g id="edge14" class="edge">
<title>Node17&#45;&gt;Node18</title>
<path fill="none" stroke="#191970" d="M379.2595,-114.4888C402.4638,-107.3138 434.5147,-97.4034 459.8348,-89.5741"/>
<polygon fill="#191970" stroke="#191970" points="461.006,-92.8755 469.5258,-86.5776 458.9381,-86.1879 461.006,-92.8755"/>
</g>
<!-- Node23 -->
<g id="node18" class="node">
<title>Node23</title>
<g id="a_node18"><a xlink:href="net_8c.html#aa2f296838e4a779197c43b254e385ddc" target="_top" xlink:title="coap_free_node">
<polygon fill="#ffffff" stroke="#000000" points="457.5,-114.5 457.5,-133.5 543.5,-133.5 543.5,-114.5 457.5,-114.5"/>
<text text-anchor="middle" x="500.5" y="-121.5" font-family="Helvetica,sans-Serif" font-size="10.00" fill="#000000">coap_free_node</text>
</a>
</g>
</g>
<!-- Node17&#45;&gt;Node23 -->
<g id="edge21" class="edge">
<title>Node17&#45;&gt;Node23</title>
<path fill="none" stroke="#191970" d="M396.1767,-124C412.3991,-124 430.6307,-124 447.2605,-124"/>
<polygon fill="#191970" stroke="#191970" points="447.3757,-127.5001 457.3756,-124 447.3756,-120.5001 447.3757,-127.5001"/>
</g>
<!-- Node19 -->
<g id="node14" class="node">
<title>Node19</title>
<g id="a_node14"><a xlink:href="coap__session_8c.html#ab3d24595515d6f66805791a7f821d5e7" target="_top" xlink:title="coap_session_free">
<polygon fill="#ffffff" stroke="#000000" points="594.5,-.5 594.5,-19.5 692.5,-19.5 692.5,-.5 594.5,-.5"/>
<text text-anchor="middle" x="643.5" y="-7.5" font-family="Helvetica,sans-Serif" font-size="10.00" fill="#000000">coap_session_free</text>
</a>
</g>
</g>
<!-- Node18&#45;&gt;Node19 -->
<g id="edge15" class="edge">
<title>Node18&#45;&gt;Node19</title>
<path fill="none" stroke="#191970" d="M517.5884,-67.3515C535.9285,-57.1823 566.0635,-41.0053 593,-29 597.4197,-27.0302 602.112,-25.0817 606.7868,-23.2262"/>
<polygon fill="#191970" stroke="#191970" points="608.1943,-26.4347 616.2652,-19.5709 605.6756,-19.9035 608.1943,-26.4347"/>
</g>
<!-- Node19&#45;&gt;Node7 -->
<g id="edge16" class="edge">
<title>Node19&#45;&gt;Node7</title>
<path fill="none" stroke="#191970" d="M594.2585,-12.9478C521.6104,-19.4218 384.0644,-39.9889 289,-105 252.1445,-130.2041 223.3811,-175.2394 209.1991,-200.5047"/>
<polygon fill="#191970" stroke="#191970" points="206.0481,-198.9726 204.3373,-209.4284 212.195,-202.3216 206.0481,-198.9726"/>
</g>
<!-- Node19&#45;&gt;Node9 -->
<g id="edge20" class="edge">
<title>Node19&#45;&gt;Node9</title>
<path fill="none" stroke="#191970" d="M680.9471,-19.5672C685.7872,-22.032 690.3277,-25.124 694,-29 730.5432,-67.5708 713.0618,-92.6392 730,-143 743.6785,-183.669 760.8527,-230.8868 770.3513,-256.6953"/>
<polygon fill="#191970" stroke="#191970" points="767.1737,-258.1943 773.9197,-266.3639 773.7407,-255.7705 767.1737,-258.1943"/>
</g>
<!-- Node20 -->
<g id="node15" class="node">
<title>Node20</title>
<g id="a_node15"><a xlink:href="group__logging.html#ga8b690dbed6cc3a5beb81ba5d2d27d290" target="_top" xlink:title="Get session description. ">
<polygon fill="#ffffff" stroke="#000000" points="731,-.5 731,-19.5 824,-19.5 824,-.5 731,-.5"/>
<text text-anchor="middle" x="777.5" y="-7.5" font-family="Helvetica,sans-Serif" font-size="10.00" fill="#000000">coap_session_str</text>
</a>
</g>
</g>
<!-- Node19&#45;&gt;Node20 -->
<g id="edge17" class="edge">
<title>Node19&#45;&gt;Node20</title>
<path fill="none" stroke="#191970" d="M692.6358,-10C701.6446,-10 711.1183,-10 720.338,-10"/>
<polygon fill="#191970" stroke="#191970" points="720.601,-13.5001 730.601,-10 720.6009,-6.5001 720.601,-13.5001"/>
</g>
<!-- Node21 -->
<g id="node16" class="node">
<title>Node21</title>
<g id="a_node16"><a xlink:href="group__logging.html#ga6a4f5ef637bf85aa161adfe73ac81ff0" target="_top" xlink:title="Print the address into the defined buffer. ">
<polygon fill="#ffffff" stroke="#000000" points="861,-.5 861,-19.5 947,-19.5 947,-.5 861,-.5"/>
<text text-anchor="middle" x="904" y="-7.5" font-family="Helvetica,sans-Serif" font-size="10.00" fill="#000000">coap_print_addr</text>
</a>
</g>
</g>
<!-- Node20&#45;&gt;Node21 -->
<g id="edge18" class="edge">
<title>Node20&#45;&gt;Node21</title>
<path fill="none" stroke="#191970" d="M824.2445,-10C832.8442,-10 841.8816,-10 850.658,-10"/>
<polygon fill="#191970" stroke="#191970" points="850.799,-13.5001 860.799,-10 850.7989,-6.5001 850.799,-13.5001"/>
</g>
<!-- Node22 -->
<g id="node17" class="node">
<title>Node22</title>
<g id="a_node17"><a xlink:href="coap__debug_8c.html#aaa5ee5c2942fe13271a46000b2aebde6" target="_top" xlink:title="A length&#45;safe strlen() fake. ">
<polygon fill="#ffffff" stroke="#000000" points="983,-.5 983,-19.5 1029,-19.5 1029,-.5 983,-.5"/>
<text text-anchor="middle" x="1006" y="-7.5" font-family="Helvetica,sans-Serif" font-size="10.00" fill="#000000">strnlen</text>
</a>
</g>
</g>
<!-- Node21&#45;&gt;Node22 -->
<g id="edge19" class="edge">
<title>Node21&#45;&gt;Node22</title>
<path fill="none" stroke="#191970" d="M947.2572,-10C955.7895,-10 964.6178,-10 972.7567,-10"/>
<polygon fill="#191970" stroke="#191970" points="972.9761,-13.5001 982.9761,-10 972.976,-6.5001 972.9761,-13.5001"/>
</g>
<!-- Node23&#45;&gt;Node9 -->
<g id="edge22" class="edge">
<title>Node23&#45;&gt;Node9</title>
<path fill="none" stroke="#191970" d="M543.7459,-129.6414C584.9791,-136.5874 647.506,-151.3231 694,-181 725.4404,-201.0682 751.9201,-236.3304 766.18,-257.7879"/>
<polygon fill="#191970" stroke="#191970" points="763.3197,-259.8104 771.6843,-266.313 769.2004,-256.0134 763.3197,-259.8104"/>
</g>
<!-- Node23&#45;&gt;Node16 -->
<g id="edge26" class="edge">
<title>Node23&#45;&gt;Node16</title>
<path fill="none" stroke="#191970" d="M543.7813,-124C591.1413,-124 667.2919,-124 719.7268,-124"/>
<polygon fill="#191970" stroke="#191970" points="719.882,-127.5001 729.882,-124 719.882,-120.5001 719.882,-127.5001"/>
</g>
<!-- Node24 -->
<g id="node19" class="node">
<title>Node24</title>
<g id="a_node19"><a xlink:href="net_8c.html#a157d58fe7840d7d7e36c40fff0825674" target="_top" xlink:title="coap_free_endpoint">
<polygon fill="#ffffff" stroke="#000000" points="593,-76.5 593,-95.5 694,-95.5 694,-76.5 593,-76.5"/>
<text text-anchor="middle" x="643.5" y="-83.5" font-family="Helvetica,sans-Serif" font-size="10.00" fill="#000000">coap_free_endpoint</text>
</a>
</g>
</g>
<!-- Node23&#45;&gt;Node24 -->
<g id="edge23" class="edge">
<title>Node23&#45;&gt;Node24</title>
<path fill="none" stroke="#191970" d="M536.5849,-114.411C555.1296,-109.4831 577.9265,-103.4251 597.699,-98.1709"/>
<polygon fill="#191970" stroke="#191970" points="598.6609,-101.5368 607.4266,-95.5859 596.8631,-94.7716 598.6609,-101.5368"/>
</g>
<!-- Node25 -->
<g id="node20" class="node">
<title>Node25</title>
<g id="a_node20"><a xlink:href="net_8c.html#aeff229f443c6582fea71504f33364eb4" target="_top" xlink:title="coap_malloc_node">
<polygon fill="#ffffff" stroke="#000000" points="594.5,-38.5 594.5,-57.5 692.5,-57.5 692.5,-38.5 594.5,-38.5"/>
<text text-anchor="middle" x="643.5" y="-45.5" font-family="Helvetica,sans-Serif" font-size="10.00" fill="#000000">coap_malloc_node</text>
</a>
</g>
</g>
<!-- Node23&#45;&gt;Node25 -->
<g id="edge24" class="edge">
<title>Node23&#45;&gt;Node25</title>
<path fill="none" stroke="#191970" d="M522.5673,-114.4313C533.2638,-109.4541 546.1181,-102.9613 557,-96 574.3073,-84.9283 575.1598,-77.1907 593,-67 596.4696,-65.0181 600.1851,-63.1691 603.9681,-61.4639"/>
<polygon fill="#191970" stroke="#191970" points="605.5267,-64.6061 613.4094,-57.527 602.8326,-58.1453 605.5267,-64.6061"/>
</g>
<!-- Node25&#45;&gt;Node16 -->
<g id="edge25" class="edge">
<title>Node25&#45;&gt;Node16</title>
<path fill="none" stroke="#191970" d="M672.5944,-57.5908C679.7402,-60.3129 687.2678,-63.5002 694,-67 716.7323,-78.8178 740.6884,-95.6905 757.082,-108.0114"/>
<polygon fill="#191970" stroke="#191970" points="755.2832,-111.0415 765.3558,-114.327 759.5306,-105.4773 755.2832,-111.0415"/>
</g>
</g>
</svg>
