<?xml version="1.0" encoding="UTF-8" standalone="no"?>
<!DOCTYPE svg PUBLIC "-//W3C//DTD SVG 1.1//EN"
 "http://www.w3.org/Graphics/SVG/1.1/DTD/svg11.dtd">
<!-- Generated by graphviz version 2.40.1 (20161225.0304)
 -->
<!-- Title: coap_session.c Pages: 1 -->
<!--zoomable 532 -->
<svg id="main" version="1.1" xmlns="http://www.w3.org/2000/svg" xmlns:xlink="http://www.w3.org/1999/xlink" xml:space="preserve" onload="init(evt)">
<style type="text/css"><![CDATA[
.edge:hover path { stroke: red; }
.edge:hover polygon { stroke: red; fill: red; }
]]></style>
<script type="text/javascript"><![CDATA[
var edges = document.getElementsByTagName('g');
if (edges && edges.length) {
  for (var i=0;i<edges.length;i++) {
    if (edges[i].id.substr(0,4)=='edge') {
      edges[i].setAttribute('class','edge');
    }
  }
}
]]></script>
        <defs>
                <circle id="rim" cx="0" cy="0" r="7"/>
                <circle id="rim2" cx="0" cy="0" r="3.5"/>
                <g id="zoomPlus">
                        <use xlink:href="#rim" fill="#404040">
                                <set attributeName="fill" to="#808080" begin="zoomplus.mouseover" end="zoomplus.mouseout"/>
                        </use>
                        <path d="M-4,0h8M0,-4v8" fill="none" stroke="white" stroke-width="1.5" pointer-events="none"/>
                </g>
                <g id="zoomMin">
                        <use xlink:href="#rim" fill="#404040">
                                <set attributeName="fill" to="#808080" begin="zoomminus.mouseover" end="zoomminus.mouseout"/>
                        </use>
                        <path d="M-4,0h8" fill="none" stroke="white" stroke-width="1.5" pointer-events="none"/>
                </g>
                <g id="dirArrow">
                        <path fill="none" stroke="white" stroke-width="1.5" d="M0,-3.0v7 M-2.5,-0.5L0,-3.0L2.5,-0.5"/>
                </g>
               <g id="resetDef">
                       <use xlink:href="#rim2" fill="#404040">
                               <set attributeName="fill" to="#808080" begin="reset.mouseover" end="reset.mouseout"/>
                       </use>
               </g>
        </defs>

<script type="text/javascript">
var viewWidth = 1287;
var viewHeight = 532;
var sectionId = 'dynsection-0';
</script>
<script xlink:href="svgpan.js"/>
<svg id="graph" class="graph">
<g id="viewport">
<title>coap_session.c</title>
<polygon fill="#ffffff" stroke="transparent" points="-4,4 -4,-528 1282.5,-528 1282.5,4 -4,4"/>
<!-- Node0 -->
<g id="node1" class="node">
<title>Node0</title>
<polygon fill="#bfbfbf" stroke="#000000" points="735,-504.5 735,-523.5 820,-523.5 820,-504.5 735,-504.5"/>
<text text-anchor="middle" x="777.5" y="-511.5" font-family="Helvetica,sans-Serif" font-size="10.00" fill="#000000">coap_session.c</text>
</g>
<!-- Node1 -->
<g id="node2" class="node">
<title>Node1</title>
<polygon fill="#ffffff" stroke="#bfbfbf" points="0,-448.5 0,-467.5 77,-467.5 77,-448.5 0,-448.5"/>
<text text-anchor="middle" x="38.5" y="-455.5" font-family="Helvetica,sans-Serif" font-size="10.00" fill="#000000">coap_config.h</text>
</g>
<!-- Node0&#45;&gt;Node1 -->
<g id="edge1" class="edge">
<title>Node0&#45;&gt;Node1</title>
<path fill="none" stroke="#191970" d="M734.7813,-512.9096C626.6796,-509.7661 333.6435,-498.85 91.5,-468 90.0486,-467.8151 88.577,-467.6155 87.093,-467.4037"/>
<polygon fill="#191970" stroke="#191970" points="87.6235,-463.9442 77.2025,-465.8552 86.5407,-470.86 87.6235,-463.9442"/>
</g>
<!-- Node2 -->
<g id="node3" class="node">
<title>Node2</title>
<g id="a_node3"><a xlink:href="coap__io_8h.html" target="_top" xlink:title="coap_io.h">
<polygon fill="#ffffff" stroke="#000000" points="679,-168.5 679,-187.5 738,-187.5 738,-168.5 679,-168.5"/>
<text text-anchor="middle" x="708.5" y="-175.5" font-family="Helvetica,sans-Serif" font-size="10.00" fill="#000000">coap_io.h</text>
</a>
</g>
</g>
<!-- Node0&#45;&gt;Node2 -->
<g id="edge2" class="edge">
<title>Node0&#45;&gt;Node2</title>
<path fill="none" stroke="#191970" d="M794.4841,-504.368C821.8095,-487.4638 872.5,-449.6798 872.5,-402 872.5,-402 872.5,-402 872.5,-346 872.5,-270.4972 786.6332,-216.299 739.1638,-192.1055"/>
<polygon fill="#191970" stroke="#191970" points="740.4545,-188.839 729.9401,-187.5353 737.3466,-195.1112 740.4545,-188.839"/>
</g>
<!-- Node11 -->
<g id="node12" class="node">
<title>Node11</title>
<g id="a_node12"><a xlink:href="coap__session_8h.html" target="_top" xlink:title="coap_session.h">
<polygon fill="#ffffff" stroke="#000000" points="666,-224.5 666,-243.5 751,-243.5 751,-224.5 666,-224.5"/>
<text text-anchor="middle" x="708.5" y="-231.5" font-family="Helvetica,sans-Serif" font-size="10.00" fill="#000000">coap_session.h</text>
</a>
</g>
</g>
<!-- Node0&#45;&gt;Node11 -->
<g id="edge13" class="edge">
<title>Node0&#45;&gt;Node11</title>
<path fill="none" stroke="#191970" d="M780.3035,-504.2066C785.5887,-484.8521 796.5,-440.2612 796.5,-402 796.5,-402 796.5,-402 796.5,-346 796.5,-315.4754 795.5216,-304.6369 777.5,-280 767.7622,-266.6876 752.9216,-256.0779 739.4955,-248.4179"/>
<polygon fill="#191970" stroke="#191970" points="740.9723,-245.2382 730.5066,-243.5891 737.6596,-251.4048 740.9723,-245.2382"/>
</g>
<!-- Node16 -->
<g id="node17" class="node">
<title>Node16</title>
<g id="a_node17"><a xlink:href="net_8h.html" target="_top" xlink:title="net.h">
<polygon fill="#ffffff" stroke="#000000" points="593.5,-336.5 593.5,-355.5 631.5,-355.5 631.5,-336.5 593.5,-336.5"/>
<text text-anchor="middle" x="612.5" y="-343.5" font-family="Helvetica,sans-Serif" font-size="10.00" fill="#000000">net.h</text>
</a>
</g>
</g>
<!-- Node0&#45;&gt;Node16 -->
<g id="edge23" class="edge">
<title>Node0&#45;&gt;Node16</title>
<path fill="none" stroke="#191970" d="M773.5873,-504.2366C764.1893,-481.8268 738.3583,-426.0187 701.5,-392 684.057,-375.9008 659.9185,-363.8936 641.1804,-356.1909"/>
<polygon fill="#191970" stroke="#191970" points="642.2583,-352.854 631.6709,-352.4561 639.6993,-359.3695 642.2583,-352.854"/>
</g>
<!-- Node25 -->
<g id="node26" class="node">
<title>Node25</title>
<g id="a_node26"><a xlink:href="coap__debug_8h.html" target="_top" xlink:title="coap_debug.h">
<polygon fill="#ffffff" stroke="#000000" points="1099,-392.5 1099,-411.5 1176,-411.5 1176,-392.5 1099,-392.5"/>
<text text-anchor="middle" x="1137.5" y="-399.5" font-family="Helvetica,sans-Serif" font-size="10.00" fill="#000000">coap_debug.h</text>
</a>
</g>
</g>
<!-- Node0&#45;&gt;Node25 -->
<g id="edge45" class="edge">
<title>Node0&#45;&gt;Node25</title>
<path fill="none" stroke="#191970" d="M808.1934,-504.4509C873.1522,-484.2415 1024.5128,-437.1516 1097.1714,-414.5467"/>
<polygon fill="#191970" stroke="#191970" points="1098.3755,-417.8376 1106.8843,-411.5249 1096.296,-411.1536 1098.3755,-417.8376"/>
</g>
<!-- Node26 -->
<g id="node27" class="node">
<title>Node26</title>
<g id="a_node27"><a xlink:href="mem_8h.html" target="_top" xlink:title="mem.h">
<polygon fill="#ffffff" stroke="#000000" points="134,-392.5 134,-411.5 181,-411.5 181,-392.5 134,-392.5"/>
<text text-anchor="middle" x="157.5" y="-399.5" font-family="Helvetica,sans-Serif" font-size="10.00" fill="#000000">mem.h</text>
</a>
</g>
</g>
<!-- Node0&#45;&gt;Node26 -->
<g id="edge47" class="edge">
<title>Node0&#45;&gt;Node26</title>
<path fill="none" stroke="#191970" d="M734.9069,-507.7881C638.4092,-493.4416 395.9218,-455.8532 195.5,-412 194.0422,-411.681 192.5561,-411.3436 191.0571,-410.9931"/>
<polygon fill="#191970" stroke="#191970" points="191.6895,-407.5443 181.1425,-408.5494 190.0143,-414.3409 191.6895,-407.5443"/>
</g>
<!-- Node27 -->
<g id="node28" class="node">
<title>Node27</title>
<g id="a_node28"><a xlink:href="resource_8h.html" target="_top" xlink:title="Generic resource handling. ">
<polygon fill="#ffffff" stroke="#000000" points="651.5,-448.5 651.5,-467.5 713.5,-467.5 713.5,-448.5 651.5,-448.5"/>
<text text-anchor="middle" x="682.5" y="-455.5" font-family="Helvetica,sans-Serif" font-size="10.00" fill="#000000">resource.h</text>
</a>
</g>
</g>
<!-- Node0&#45;&gt;Node27 -->
<g id="edge49" class="edge">
<title>Node0&#45;&gt;Node27</title>
<path fill="none" stroke="#191970" d="M760.9523,-504.2455C746.2401,-495.5731 724.5112,-482.7645 707.6495,-472.825"/>
<polygon fill="#191970" stroke="#191970" points="709.2502,-469.7057 698.8581,-467.6427 705.6954,-475.736 709.2502,-469.7057"/>
</g>
<!-- Node33 -->
<g id="node34" class="node">
<title>Node33</title>
<g id="a_node34"><a xlink:href="encode_8h.html" target="_top" xlink:title="encode.h">
<polygon fill="#ffffff" stroke="#000000" points="1143.5,-224.5 1143.5,-243.5 1199.5,-243.5 1199.5,-224.5 1143.5,-224.5"/>
<text text-anchor="middle" x="1171.5" y="-231.5" font-family="Helvetica,sans-Serif" font-size="10.00" fill="#000000">encode.h</text>
</a>
</g>
</g>
<!-- Node0&#45;&gt;Node33 -->
<g id="edge71" class="edge">
<title>Node0&#45;&gt;Node33</title>
<path fill="none" stroke="#191970" d="M820.0035,-511.8854C928.0081,-505.3579 1204.5,-480.9388 1204.5,-402 1204.5,-402 1204.5,-402 1204.5,-346 1204.5,-312.051 1190.3765,-274.5869 1180.6089,-252.7366"/>
<polygon fill="#191970" stroke="#191970" points="1183.7552,-251.202 1176.3693,-243.6061 1177.4063,-254.1501 1183.7552,-251.202"/>
</g>
<!-- Node35 -->
<g id="node36" class="node">
<title>Node35</title>
<g id="a_node36"><a xlink:href="utlist_8h.html" target="_top" xlink:title="utlist.h">
<polygon fill="#ffffff" stroke="#000000" points="60.5,-336.5 60.5,-355.5 106.5,-355.5 106.5,-336.5 60.5,-336.5"/>
<text text-anchor="middle" x="83.5" y="-343.5" font-family="Helvetica,sans-Serif" font-size="10.00" fill="#000000">utlist.h</text>
</a>
</g>
</g>
<!-- Node0&#45;&gt;Node35 -->
<g id="edge69" class="edge">
<title>Node0&#45;&gt;Node35</title>
<path fill="none" stroke="#191970" d="M734.6124,-512.1875C605.5845,-505.9936 223.7716,-482.0249 124.5,-412 108.1999,-400.5022 97.0507,-380.2656 90.5404,-365.2224"/>
<polygon fill="#191970" stroke="#191970" points="93.7367,-363.7893 86.7681,-355.8088 87.239,-366.3932 93.7367,-363.7893"/>
</g>
<!-- Node36 -->
<g id="node37" class="node">
<title>Node36</title>
<polygon fill="#ffffff" stroke="#bfbfbf" points="1232.5,-448.5 1232.5,-467.5 1278.5,-467.5 1278.5,-448.5 1232.5,-448.5"/>
<text text-anchor="middle" x="1255.5" y="-455.5" font-family="Helvetica,sans-Serif" font-size="10.00" fill="#000000">stdio.h</text>
</g>
<!-- Node0&#45;&gt;Node36 -->
<g id="edge72" class="edge">
<title>Node0&#45;&gt;Node36</title>
<path fill="none" stroke="#191970" d="M820.0875,-511.8284C899.1554,-507.2952 1073.7635,-494.9284 1218.5,-468 1219.7511,-467.7672 1221.0218,-467.5134 1222.3022,-467.243"/>
<polygon fill="#191970" stroke="#191970" points="1223.2144,-470.624 1232.1421,-464.9191 1221.6054,-463.8114 1223.2144,-470.624"/>
</g>
<!-- Node3 -->
<g id="node4" class="node">
<title>Node3</title>
<polygon fill="#ffffff" stroke="#bfbfbf" points="352.5,-56.5 352.5,-75.5 404.5,-75.5 404.5,-56.5 352.5,-56.5"/>
<text text-anchor="middle" x="378.5" y="-63.5" font-family="Helvetica,sans-Serif" font-size="10.00" fill="#000000">assert.h</text>
</g>
<!-- Node2&#45;&gt;Node3 -->
<g id="edge3" class="edge">
<title>Node2&#45;&gt;Node3</title>
<path fill="none" stroke="#191970" d="M686.3467,-168.4118C654.6134,-154.869 594.2219,-129.8064 541.5,-112 498.3289,-97.4193 447.6943,-83.6349 414.452,-75.0258"/>
<polygon fill="#191970" stroke="#191970" points="415.2778,-71.6243 404.7213,-72.525 413.5354,-78.404 415.2778,-71.6243"/>
</g>
<!-- Node4 -->
<g id="node5" class="node">
<title>Node4</title>
<polygon fill="#ffffff" stroke="#bfbfbf" points="613.5,-56.5 613.5,-75.5 681.5,-75.5 681.5,-56.5 613.5,-56.5"/>
<text text-anchor="middle" x="647.5" y="-63.5" font-family="Helvetica,sans-Serif" font-size="10.00" fill="#000000">sys/types.h</text>
</g>
<!-- Node2&#45;&gt;Node4 -->
<g id="edge4" class="edge">
<title>Node2&#45;&gt;Node4</title>
<path fill="none" stroke="#191970" d="M698.6064,-168.1856C690.1739,-159.3637 678.226,-145.7192 670.5,-132 662.2312,-117.3169 656.1651,-99.1416 652.3454,-85.584"/>
<polygon fill="#191970" stroke="#191970" points="655.7118,-84.624 649.7644,-75.856 648.9459,-86.4191 655.7118,-84.624"/>
</g>
<!-- Node5 -->
<g id="node6" class="node">
<title>Node5</title>
<g id="a_node6"><a xlink:href="address_8h.html" target="_top" xlink:title="Representation of network addresses. ">
<polygon fill="#ffffff" stroke="#000000" points="679,-112.5 679,-131.5 738,-131.5 738,-112.5 679,-112.5"/>
<text text-anchor="middle" x="708.5" y="-119.5" font-family="Helvetica,sans-Serif" font-size="10.00" fill="#000000">address.h</text>
</a>
</g>
</g>
<!-- Node2&#45;&gt;Node5 -->
<g id="edge5" class="edge">
<title>Node2&#45;&gt;Node5</title>
<path fill="none" stroke="#191970" d="M708.5,-168.2455C708.5,-160.9382 708.5,-150.6944 708.5,-141.7046"/>
<polygon fill="#191970" stroke="#191970" points="712.0001,-141.6426 708.5,-131.6427 705.0001,-141.6427 712.0001,-141.6426"/>
</g>
<!-- Node5&#45;&gt;Node3 -->
<g id="edge6" class="edge">
<title>Node5&#45;&gt;Node3</title>
<path fill="none" stroke="#191970" d="M678.9243,-116.9811C618.4069,-106.7115 480.6175,-83.329 414.8037,-72.1606"/>
<polygon fill="#191970" stroke="#191970" points="415.3265,-68.6994 404.8819,-70.4769 414.1553,-75.6007 415.3265,-68.6994"/>
</g>
<!-- Node5&#45;&gt;Node4 -->
<g id="edge9" class="edge">
<title>Node5&#45;&gt;Node4</title>
<path fill="none" stroke="#191970" d="M697.8746,-112.2455C688.9527,-104.0549 676.012,-92.1749 665.4808,-82.5069"/>
<polygon fill="#191970" stroke="#191970" points="667.7371,-79.8271 658.0036,-75.6427 663.0032,-84.9837 667.7371,-79.8271"/>
</g>
<!-- Node6 -->
<g id="node7" class="node">
<title>Node6</title>
<polygon fill="#ffffff" stroke="#bfbfbf" points="947,-56.5 947,-75.5 996,-75.5 996,-56.5 947,-56.5"/>
<text text-anchor="middle" x="971.5" y="-63.5" font-family="Helvetica,sans-Serif" font-size="10.00" fill="#000000">stdint.h</text>
</g>
<!-- Node5&#45;&gt;Node6 -->
<g id="edge7" class="edge">
<title>Node5&#45;&gt;Node6</title>
<path fill="none" stroke="#191970" d="M738.1582,-115.6849C787.1733,-105.2483 884.8283,-84.4548 936.9078,-73.3656"/>
<polygon fill="#191970" stroke="#191970" points="937.9401,-76.7244 946.9919,-71.2184 936.4823,-69.8779 937.9401,-76.7244"/>
</g>
<!-- Node7 -->
<g id="node8" class="node">
<title>Node7</title>
<polygon fill="#ffffff" stroke="#bfbfbf" points="510,-.5 510,-19.5 559,-19.5 559,-.5 510,-.5"/>
<text text-anchor="middle" x="534.5" y="-7.5" font-family="Helvetica,sans-Serif" font-size="10.00" fill="#000000">string.h</text>
</g>
<!-- Node5&#45;&gt;Node7 -->
<g id="edge8" class="edge">
<title>Node5&#45;&gt;Node7</title>
<path fill="none" stroke="#191970" d="M708.6384,-112.0408C708.282,-97.6965 705.461,-71.2708 690.5,-56 690.3626,-55.8597 614.9668,-33.6666 569.056,-20.1618"/>
<polygon fill="#191970" stroke="#191970" points="569.7718,-16.7242 559.1905,-17.2601 567.7965,-23.4397 569.7718,-16.7242"/>
</g>
<!-- Node8 -->
<g id="node9" class="node">
<title>Node8</title>
<g id="a_node9"><a xlink:href="libcoap_8h.html" target="_top" xlink:title="libcoap.h">
<polygon fill="#ffffff" stroke="#000000" points="504.5,-56.5 504.5,-75.5 560.5,-75.5 560.5,-56.5 504.5,-56.5"/>
<text text-anchor="middle" x="532.5" y="-63.5" font-family="Helvetica,sans-Serif" font-size="10.00" fill="#000000">libcoap.h</text>
</a>
</g>
</g>
<!-- Node5&#45;&gt;Node8 -->
<g id="edge10" class="edge">
<title>Node5&#45;&gt;Node8</title>
<path fill="none" stroke="#191970" d="M678.644,-112.5004C648.7806,-102.9984 602.7473,-88.3514 570.34,-78.04"/>
<polygon fill="#191970" stroke="#191970" points="571.3435,-74.6865 560.753,-74.9896 569.2211,-81.3569 571.3435,-74.6865"/>
</g>
<!-- Node9 -->
<g id="node10" class="node">
<title>Node9</title>
<polygon fill="#ffffff" stroke="#bfbfbf" points="577,-.5 577,-19.5 642,-19.5 642,-.5 577,-.5"/>
<text text-anchor="middle" x="609.5" y="-7.5" font-family="Helvetica,sans-Serif" font-size="10.00" fill="#000000">netinet/in.h</text>
</g>
<!-- Node8&#45;&gt;Node9 -->
<g id="edge11" class="edge">
<title>Node8&#45;&gt;Node9</title>
<path fill="none" stroke="#191970" d="M545.9124,-56.2455C557.5057,-47.814 574.4748,-35.4729 587.9678,-25.6598"/>
<polygon fill="#191970" stroke="#191970" points="590.2126,-28.355 596.2413,-19.6427 586.0953,-22.6938 590.2126,-28.355"/>
</g>
<!-- Node10 -->
<g id="node11" class="node">
<title>Node10</title>
<polygon fill="#ffffff" stroke="#bfbfbf" points="419,-.5 419,-19.5 492,-19.5 492,-.5 419,-.5"/>
<text text-anchor="middle" x="455.5" y="-7.5" font-family="Helvetica,sans-Serif" font-size="10.00" fill="#000000">sys/socket.h</text>
</g>
<!-- Node8&#45;&gt;Node10 -->
<g id="edge12" class="edge">
<title>Node8&#45;&gt;Node10</title>
<path fill="none" stroke="#191970" d="M519.0876,-56.2455C507.4943,-47.814 490.5252,-35.4729 477.0322,-25.6598"/>
<polygon fill="#191970" stroke="#191970" points="478.9047,-22.6938 468.7587,-19.6427 474.7874,-28.355 478.9047,-22.6938"/>
</g>
<!-- Node11&#45;&gt;Node2 -->
<g id="edge14" class="edge">
<title>Node11&#45;&gt;Node2</title>
<path fill="none" stroke="#191970" d="M708.5,-224.2455C708.5,-216.9382 708.5,-206.6944 708.5,-197.7046"/>
<polygon fill="#191970" stroke="#191970" points="712.0001,-197.6426 708.5,-187.6427 705.0001,-197.6427 712.0001,-197.6426"/>
</g>
<!-- Node12 -->
<g id="node13" class="node">
<title>Node12</title>
<g id="a_node13"><a xlink:href="coap__time_8h.html" target="_top" xlink:title="Clock Handling. ">
<polygon fill="#ffffff" stroke="#000000" points="590.5,-168.5 590.5,-187.5 660.5,-187.5 660.5,-168.5 590.5,-168.5"/>
<text text-anchor="middle" x="625.5" y="-175.5" font-family="Helvetica,sans-Serif" font-size="10.00" fill="#000000">coap_time.h</text>
</a>
</g>
</g>
<!-- Node11&#45;&gt;Node12 -->
<g id="edge15" class="edge">
<title>Node11&#45;&gt;Node12</title>
<path fill="none" stroke="#191970" d="M694.0425,-224.2455C681.4268,-215.7337 662.9056,-203.2375 648.2955,-193.3801"/>
<polygon fill="#191970" stroke="#191970" points="650.0391,-190.3343 639.7918,-187.6427 646.1239,-196.1371 650.0391,-190.3343"/>
</g>
<!-- Node13 -->
<g id="node14" class="node">
<title>Node13</title>
<g id="a_node14"><a xlink:href="pdu_8h.html" target="_top" xlink:title="Pre&#45;defined constants that reflect defaults for CoAP. ">
<polygon fill="#ffffff" stroke="#000000" points="976,-168.5 976,-187.5 1017,-187.5 1017,-168.5 976,-168.5"/>
<text text-anchor="middle" x="996.5" y="-175.5" font-family="Helvetica,sans-Serif" font-size="10.00" fill="#000000">pdu.h</text>
</a>
</g>
</g>
<!-- Node11&#45;&gt;Node13 -->
<g id="edge17" class="edge">
<title>Node11&#45;&gt;Node13</title>
<path fill="none" stroke="#191970" d="M751.3055,-225.6767C810.0904,-214.2463 914.37,-193.9697 965.9136,-183.9473"/>
<polygon fill="#191970" stroke="#191970" points="966.6356,-187.3726 975.7837,-182.0282 965.2995,-180.5013 966.6356,-187.3726"/>
</g>
<!-- Node12&#45;&gt;Node6 -->
<g id="edge16" class="edge">
<title>Node12&#45;&gt;Node6</title>
<path fill="none" stroke="#191970" d="M654.9998,-168.4509C718.7315,-147.821 868.9967,-99.1803 936.9992,-77.1679"/>
<polygon fill="#191970" stroke="#191970" points="938.3626,-80.4054 946.7987,-73.9958 936.2068,-73.7456 938.3626,-80.4054"/>
</g>
<!-- Node13&#45;&gt;Node6 -->
<g id="edge22" class="edge">
<title>Node13&#45;&gt;Node6</title>
<path fill="none" stroke="#191970" d="M994.3685,-168.4509C990.2726,-150.1013 981.2301,-109.5908 975.8235,-85.3693"/>
<polygon fill="#191970" stroke="#191970" points="979.2206,-84.5222 973.6261,-75.5249 972.3888,-86.0472 979.2206,-84.5222"/>
</g>
<!-- Node14 -->
<g id="node15" class="node">
<title>Node14</title>
<g id="a_node15"><a xlink:href="uri_8h.html" target="_top" xlink:title="uri.h">
<polygon fill="#ffffff" stroke="#000000" points="1145,-112.5 1145,-131.5 1180,-131.5 1180,-112.5 1145,-112.5"/>
<text text-anchor="middle" x="1162.5" y="-119.5" font-family="Helvetica,sans-Serif" font-size="10.00" fill="#000000">uri.h</text>
</a>
</g>
</g>
<!-- Node13&#45;&gt;Node14 -->
<g id="edge18" class="edge">
<title>Node13&#45;&gt;Node14</title>
<path fill="none" stroke="#191970" d="M1017.1884,-171.0208C1046.9614,-160.9769 1101.943,-142.4289 1135.0728,-131.2525"/>
<polygon fill="#191970" stroke="#191970" points="1136.2443,-134.5512 1144.6008,-128.0383 1134.0067,-127.9185 1136.2443,-134.5512"/>
</g>
<!-- Node14&#45;&gt;Node6 -->
<g id="edge19" class="edge">
<title>Node14&#45;&gt;Node6</title>
<path fill="none" stroke="#191970" d="M1144.9154,-116.4311C1140.2366,-114.9695 1135.1819,-113.4086 1130.5,-112 1087.6675,-99.1131 1038.1401,-84.8914 1005.894,-75.7223"/>
<polygon fill="#191970" stroke="#191970" points="1006.6379,-72.2952 996.0622,-72.9309 1004.7261,-79.0291 1006.6379,-72.2952"/>
</g>
<!-- Node15 -->
<g id="node16" class="node">
<title>Node15</title>
<g id="a_node16"><a xlink:href="str_8h.html" target="_top" xlink:title="str.h">
<polygon fill="#ffffff" stroke="#000000" points="1144.5,-56.5 1144.5,-75.5 1180.5,-75.5 1180.5,-56.5 1144.5,-56.5"/>
<text text-anchor="middle" x="1162.5" y="-63.5" font-family="Helvetica,sans-Serif" font-size="10.00" fill="#000000">str.h</text>
</a>
</g>
</g>
<!-- Node14&#45;&gt;Node15 -->
<g id="edge20" class="edge">
<title>Node14&#45;&gt;Node15</title>
<path fill="none" stroke="#191970" d="M1162.5,-112.2455C1162.5,-104.9382 1162.5,-94.6944 1162.5,-85.7046"/>
<polygon fill="#191970" stroke="#191970" points="1166.0001,-85.6426 1162.5,-75.6427 1159.0001,-85.6427 1166.0001,-85.6426"/>
</g>
<!-- Node15&#45;&gt;Node7 -->
<g id="edge21" class="edge">
<title>Node15&#45;&gt;Node7</title>
<path fill="none" stroke="#191970" d="M1144.2045,-64.8118C1054.3309,-58.9453 660.5957,-32.8939 569.2514,-19.563"/>
<polygon fill="#191970" stroke="#191970" points="569.6718,-16.0853 559.2379,-17.9249 568.5416,-22.9935 569.6718,-16.0853"/>
</g>
<!-- Node16&#45;&gt;Node2 -->
<g id="edge29" class="edge">
<title>Node16&#45;&gt;Node2</title>
<path fill="none" stroke="#191970" d="M593.2682,-344.515C548.5854,-340.2751 443.7516,-325.3419 473.5,-280 496.0335,-245.6549 608.398,-207.7685 669.2267,-189.3325"/>
<polygon fill="#191970" stroke="#191970" points="670.3082,-192.6623 678.8821,-186.4383 668.2982,-185.957 670.3082,-192.6623"/>
</g>
<!-- Node16&#45;&gt;Node3 -->
<g id="edge24" class="edge">
<title>Node16&#45;&gt;Node3</title>
<path fill="none" stroke="#191970" d="M593.2977,-343.5729C561.6207,-338.9359 497.1784,-326.7938 449.5,-300 411.9409,-278.8929 378.5,-277.0836 378.5,-234 378.5,-234 378.5,-234 378.5,-178 378.5,-145.7116 378.5,-108.1872 378.5,-85.8048"/>
<polygon fill="#191970" stroke="#191970" points="382.0001,-85.5883 378.5,-75.5884 375.0001,-85.5884 382.0001,-85.5883"/>
</g>
<!-- Node16&#45;&gt;Node7 -->
<g id="edge26" class="edge">
<title>Node16&#45;&gt;Node7</title>
<path fill="none" stroke="#191970" d="M593.1809,-343.8545C547.304,-338.4341 433.4107,-322.9658 403.5,-300 347.6326,-257.1043 345.069,-93.1492 343.5,-76 342.6901,-67.1481 337.9566,-62.9486 343.5,-56 386.4856,-2.1186 428.1445,-35.2998 499.845,-20.0782"/>
<polygon fill="#191970" stroke="#191970" points="500.7762,-23.4542 509.6871,-17.7229 499.1471,-16.6464 500.7762,-23.4542"/>
</g>
<!-- Node16&#45;&gt;Node11 -->
<g id="edge44" class="edge">
<title>Node16&#45;&gt;Node11</title>
<path fill="none" stroke="#191970" d="M620.6849,-336.4509C636.9091,-317.5227 673.3451,-275.014 693.8189,-251.1279"/>
<polygon fill="#191970" stroke="#191970" points="696.4853,-253.3953 700.3358,-243.5249 691.1705,-248.8397 696.4853,-253.3953"/>
</g>
<!-- Node16&#45;&gt;Node12 -->
<g id="edge36" class="edge">
<title>Node16&#45;&gt;Node12</title>
<path fill="none" stroke="#191970" d="M613.2362,-336.4862C615.2912,-309.9293 621.1229,-234.5651 623.9396,-198.1655"/>
<polygon fill="#191970" stroke="#191970" points="627.4575,-198.0681 624.7395,-187.8279 620.4783,-197.528 627.4575,-198.0681"/>
</g>
<!-- Node16&#45;&gt;Node13 -->
<g id="edge41" class="edge">
<title>Node16&#45;&gt;Node13</title>
<path fill="none" stroke="#191970" d="M631.5435,-342.2359C662.7719,-335.7249 726.4934,-321.0105 777.5,-300 841.5232,-273.6277 852.9962,-257.6714 913.5,-224 932.3932,-213.4856 953.7291,-201.662 970.0376,-192.635"/>
<polygon fill="#191970" stroke="#191970" points="971.9472,-195.5784 979.0023,-187.6742 968.558,-189.4536 971.9472,-195.5784"/>
</g>
<!-- Node17 -->
<g id="node18" class="node">
<title>Node17</title>
<polygon fill="#ffffff" stroke="#bfbfbf" points="203.5,-224.5 203.5,-243.5 251.5,-243.5 251.5,-224.5 203.5,-224.5"/>
<text text-anchor="middle" x="227.5" y="-231.5" font-family="Helvetica,sans-Serif" font-size="10.00" fill="#000000">stdlib.h</text>
</g>
<!-- Node16&#45;&gt;Node17 -->
<g id="edge25" class="edge">
<title>Node16&#45;&gt;Node17</title>
<path fill="none" stroke="#191970" d="M593.2777,-343.9886C537.3871,-337.971 375.7773,-319.3251 326.5,-300 295.9815,-288.0316 265.2563,-265.5392 246.3083,-250.1697"/>
<polygon fill="#191970" stroke="#191970" points="248.4059,-247.3623 238.4743,-243.6727 243.9374,-252.7505 248.4059,-247.3623"/>
</g>
<!-- Node18 -->
<g id="node19" class="node">
<title>Node18</title>
<polygon fill="#ffffff" stroke="#bfbfbf" points="482.5,-280.5 482.5,-299.5 544.5,-299.5 544.5,-280.5 482.5,-280.5"/>
<text text-anchor="middle" x="513.5" y="-287.5" font-family="Helvetica,sans-Serif" font-size="10.00" fill="#000000">sys/time.h</text>
</g>
<!-- Node16&#45;&gt;Node18 -->
<g id="edge27" class="edge">
<title>Node16&#45;&gt;Node18</title>
<path fill="none" stroke="#191970" d="M595.2555,-336.2455C579.9239,-327.5731 557.2801,-314.7645 539.7084,-304.825"/>
<polygon fill="#191970" stroke="#191970" points="540.9741,-301.5198 530.5469,-299.6427 537.5276,-307.6126 540.9741,-301.5198"/>
</g>
<!-- Node19 -->
<g id="node20" class="node">
<title>Node19</title>
<polygon fill="#ffffff" stroke="#bfbfbf" points="562.5,-280.5 562.5,-299.5 606.5,-299.5 606.5,-280.5 562.5,-280.5"/>
<text text-anchor="middle" x="584.5" y="-287.5" font-family="Helvetica,sans-Serif" font-size="10.00" fill="#000000">time.h</text>
</g>
<!-- Node16&#45;&gt;Node19 -->
<g id="edge28" class="edge">
<title>Node16&#45;&gt;Node19</title>
<path fill="none" stroke="#191970" d="M607.6228,-336.2455C603.8487,-328.6973 598.5079,-318.0158 593.9099,-308.8197"/>
<polygon fill="#191970" stroke="#191970" points="596.924,-307.0217 589.3213,-299.6427 590.663,-310.1522 596.924,-307.0217"/>
</g>
<!-- Node20 -->
<g id="node21" class="node">
<title>Node20</title>
<g id="a_node21"><a xlink:href="coap__dtls_8h.html" target="_top" xlink:title="coap_dtls.h">
<polygon fill="#ffffff" stroke="#000000" points="701,-280.5 701,-299.5 768,-299.5 768,-280.5 701,-280.5"/>
<text text-anchor="middle" x="734.5" y="-287.5" font-family="Helvetica,sans-Serif" font-size="10.00" fill="#000000">coap_dtls.h</text>
</a>
</g>
</g>
<!-- Node16&#45;&gt;Node20 -->
<g id="edge30" class="edge">
<title>Node16&#45;&gt;Node20</title>
<path fill="none" stroke="#191970" d="M628.4839,-336.2455C646.4202,-327.2118 675.6729,-313.6899 698.992,-303.598"/>
<polygon fill="#191970" stroke="#191970" points="700.4275,-306.7908 708.2476,-299.6427 697.6767,-300.3539 700.4275,-306.7908"/>
</g>
<!-- Node21 -->
<g id="node22" class="node">
<title>Node21</title>
<g id="a_node22"><a xlink:href="coap__event_8h.html" target="_top" xlink:title="coap_event.h">
<polygon fill="#ffffff" stroke="#000000" points="457,-112.5 457,-131.5 532,-131.5 532,-112.5 457,-112.5"/>
<text text-anchor="middle" x="494.5" y="-119.5" font-family="Helvetica,sans-Serif" font-size="10.00" fill="#000000">coap_event.h</text>
</a>
</g>
</g>
<!-- Node16&#45;&gt;Node21 -->
<g id="edge34" class="edge">
<title>Node16&#45;&gt;Node21</title>
<path fill="none" stroke="#191970" d="M593.2581,-342.9309C556.6198,-336.6522 479.0915,-321.1311 463.5,-300 427.5807,-251.3187 463.3791,-174.9577 483.2203,-140.2552"/>
<polygon fill="#191970" stroke="#191970" points="486.2434,-142.0189 488.3205,-131.6296 480.218,-138.456 486.2434,-142.0189"/>
</g>
<!-- Node22 -->
<g id="node23" class="node">
<title>Node22</title>
<g id="a_node23"><a xlink:href="option_8h.html" target="_top" xlink:title="Helpers for handling options in CoAP PDUs. ">
<polygon fill="#ffffff" stroke="#000000" points="922,-224.5 922,-243.5 973,-243.5 973,-224.5 922,-224.5"/>
<text text-anchor="middle" x="947.5" y="-231.5" font-family="Helvetica,sans-Serif" font-size="10.00" fill="#000000">option.h</text>
</a>
</g>
</g>
<!-- Node16&#45;&gt;Node22 -->
<g id="edge37" class="edge">
<title>Node16&#45;&gt;Node22</title>
<path fill="none" stroke="#191970" d="M631.5822,-344.8282C672.6878,-341.7648 772.0626,-331.4425 848.5,-300 878.8167,-287.5293 909.5903,-265.1573 928.6042,-249.952"/>
<polygon fill="#191970" stroke="#191970" points="930.9359,-252.5667 936.4689,-243.5314 926.5091,-247.1442 930.9359,-252.5667"/>
</g>
<!-- Node24 -->
<g id="node25" class="node">
<title>Node24</title>
<g id="a_node25"><a xlink:href="prng_8h.html" target="_top" xlink:title="Pseudo Random Numbers. ">
<polygon fill="#ffffff" stroke="#000000" points="230.5,-280.5 230.5,-299.5 274.5,-299.5 274.5,-280.5 230.5,-280.5"/>
<text text-anchor="middle" x="252.5" y="-287.5" font-family="Helvetica,sans-Serif" font-size="10.00" fill="#000000">prng.h</text>
</a>
</g>
</g>
<!-- Node16&#45;&gt;Node24 -->
<g id="edge42" class="edge">
<title>Node16&#45;&gt;Node24</title>
<path fill="none" stroke="#191970" d="M593.3598,-344.1607C543.0482,-339.1369 403.0627,-323.9383 288.5,-300 287.2499,-299.7388 285.9792,-299.4586 284.6985,-299.1639"/>
<polygon fill="#191970" stroke="#191970" points="285.4093,-295.7339 274.8581,-296.695 283.7057,-302.5234 285.4093,-295.7339"/>
</g>
<!-- Node20&#45;&gt;Node11 -->
<g id="edge32" class="edge">
<title>Node20&#45;&gt;Node11</title>
<path fill="none" stroke="#191970" d="M729.9711,-280.2455C726.4666,-272.6973 721.5073,-262.0158 717.2377,-252.8197"/>
<polygon fill="#191970" stroke="#191970" points="720.3627,-251.2389 712.977,-243.6427 714.0136,-254.1867 720.3627,-251.2389"/>
</g>
<!-- Node20&#45;&gt;Node13 -->
<g id="edge33" class="edge">
<title>Node20&#45;&gt;Node13</title>
<path fill="none" stroke="#191970" d="M754.5253,-280.4813C782.3643,-267.3414 834.4253,-243.1037 879.5,-224 908.689,-211.6291 942.4203,-198.4878 966.1429,-189.4328"/>
<polygon fill="#191970" stroke="#191970" points="967.5512,-192.6419 975.6545,-185.8164 965.0635,-186.0988 967.5512,-192.6419"/>
</g>
<!-- Node20&#45;&gt;Node16 -->
<g id="edge31" class="edge">
<title>Node20&#45;&gt;Node16</title>
<path fill="none" stroke="#191970" d="M718.7576,-299.6327C698.9928,-309.5996 665.2333,-325.1226 640.96,-335.4239"/>
<polygon fill="#191970" stroke="#191970" points="639.4116,-332.2774 631.5286,-339.3562 642.1054,-338.7383 639.4116,-332.2774"/>
</g>
<!-- Node21&#45;&gt;Node8 -->
<g id="edge35" class="edge">
<title>Node21&#45;&gt;Node8</title>
<path fill="none" stroke="#191970" d="M501.1191,-112.2455C506.4046,-104.4564 513.9541,-93.3308 520.3238,-83.9439"/>
<polygon fill="#191970" stroke="#191970" points="523.2379,-85.8827 525.9568,-75.6427 517.4455,-81.9522 523.2379,-85.8827"/>
</g>
<!-- Node22&#45;&gt;Node13 -->
<g id="edge40" class="edge">
<title>Node22&#45;&gt;Node13</title>
<path fill="none" stroke="#191970" d="M956.0351,-224.2455C962.9912,-216.2958 972.9883,-204.8706 981.3051,-195.3656"/>
<polygon fill="#191970" stroke="#191970" points="984.1116,-197.4732 988.0627,-187.6427 978.8436,-192.8637 984.1116,-197.4732"/>
</g>
<!-- Node23 -->
<g id="node24" class="node">
<title>Node23</title>
<g id="a_node24"><a xlink:href="bits_8h.html" target="_top" xlink:title="Bit vector manipulation. ">
<polygon fill="#ffffff" stroke="#000000" points="927,-112.5 927,-131.5 968,-131.5 968,-112.5 927,-112.5"/>
<text text-anchor="middle" x="947.5" y="-119.5" font-family="Helvetica,sans-Serif" font-size="10.00" fill="#000000">bits.h</text>
</a>
</g>
</g>
<!-- Node22&#45;&gt;Node23 -->
<g id="edge38" class="edge">
<title>Node22&#45;&gt;Node23</title>
<path fill="none" stroke="#191970" d="M947.5,-224.4509C947.5,-206.184 947.5,-165.9553 947.5,-141.6976"/>
<polygon fill="#191970" stroke="#191970" points="951.0001,-141.5249 947.5,-131.5249 944.0001,-141.5249 951.0001,-141.5249"/>
</g>
<!-- Node23&#45;&gt;Node6 -->
<g id="edge39" class="edge">
<title>Node23&#45;&gt;Node6</title>
<path fill="none" stroke="#191970" d="M951.6805,-112.2455C954.881,-104.7776 959.396,-94.2427 963.3084,-85.1137"/>
<polygon fill="#191970" stroke="#191970" points="966.6452,-86.2129 967.3674,-75.6427 960.2112,-83.4554 966.6452,-86.2129"/>
</g>
<!-- Node24&#45;&gt;Node17 -->
<g id="edge43" class="edge">
<title>Node24&#45;&gt;Node17</title>
<path fill="none" stroke="#191970" d="M248.1453,-280.2455C244.7756,-272.6973 240.007,-262.0158 235.9017,-252.8197"/>
<polygon fill="#191970" stroke="#191970" points="239.0773,-251.3473 231.8048,-243.6427 232.6853,-254.2009 239.0773,-251.3473"/>
</g>
<!-- Node25&#45;&gt;Node13 -->
<g id="edge46" class="edge">
<title>Node25&#45;&gt;Node13</title>
<path fill="none" stroke="#191970" d="M1136.4421,-392.2432C1133.7872,-370.7706 1125.4887,-318.2887 1104.5,-280 1083.9842,-242.5741 1044.8615,-210.9112 1019.7615,-193.2001"/>
<polygon fill="#191970" stroke="#191970" points="1021.7439,-190.3157 1011.5216,-187.5308 1017.7761,-196.0826 1021.7439,-190.3157"/>
</g>
<!-- Node26&#45;&gt;Node17 -->
<g id="edge48" class="edge">
<title>Node26&#45;&gt;Node17</title>
<path fill="none" stroke="#191970" d="M158.4622,-392.2975C160.8932,-370.9331 168.5711,-318.6537 188.5,-280 193.9697,-269.3912 202.3017,-259.1089 209.8622,-250.9661"/>
<polygon fill="#191970" stroke="#191970" points="212.5624,-253.21 217.0309,-243.6036 207.5471,-248.3267 212.5624,-253.21"/>
</g>
<!-- Node27&#45;&gt;Node3 -->
<g id="edge50" class="edge">
<title>Node27&#45;&gt;Node3</title>
<path fill="none" stroke="#191970" d="M651.2827,-452.1349C556.2347,-433.5823 273.6917,-373.0598 221.5,-300 203.8698,-275.3205 240.8362,-267.0919 260.5,-244 306.2254,-190.3031 349.1494,-118.1261 368.1887,-84.5804"/>
<polygon fill="#191970" stroke="#191970" points="371.2582,-86.2625 373.1085,-75.8305 365.1565,-82.8318 371.2582,-86.2625"/>
</g>
<!-- Node27&#45;&gt;Node13 -->
<g id="edge58" class="edge">
<title>Node27&#45;&gt;Node13</title>
<path fill="none" stroke="#191970" d="M713.7269,-454.7398C774.0088,-447.0709 908.2402,-423.1661 996.5,-356 1026.3958,-333.2492 1040.0036,-317.0008 1033.5,-280 1028.196,-249.8239 1014.6962,-216.8185 1005.5559,-196.7601"/>
<polygon fill="#191970" stroke="#191970" points="1008.6478,-195.1093 1001.24,-187.5345 1002.3073,-198.0755 1008.6478,-195.1093"/>
</g>
<!-- Node27&#45;&gt;Node15 -->
<g id="edge57" class="edge">
<title>Node27&#45;&gt;Node15</title>
<path fill="none" stroke="#191970" d="M713.7487,-455.723C761.4208,-451.4673 854.5664,-440.0517 928.5,-412 1064.1875,-360.5177 1136.9966,-370.2886 1208.5,-244 1238.6865,-190.6849 1197.7419,-117.2468 1175.3652,-83.8379"/>
<polygon fill="#191970" stroke="#191970" points="1178.1857,-81.7629 1169.6208,-75.5264 1172.4272,-85.7428 1178.1857,-81.7629"/>
</g>
<!-- Node27&#45;&gt;Node16 -->
<g id="edge59" class="edge">
<title>Node27&#45;&gt;Node16</title>
<path fill="none" stroke="#191970" d="M668.2679,-448.2408C657.0435,-439.8491 641.7824,-426.7847 632.5,-412 623.5583,-397.758 618.408,-379.2769 615.5804,-365.4952"/>
<polygon fill="#191970" stroke="#191970" points="619.0173,-364.8321 613.7826,-355.6208 612.1305,-366.086 619.0173,-364.8321"/>
</g>
<!-- Node28 -->
<g id="node29" class="node">
<title>Node28</title>
<g id="a_node29"><a xlink:href="uthash_8h.html" target="_top" xlink:title="uthash.h">
<polygon fill="#ffffff" stroke="#000000" points="82.5,-280.5 82.5,-299.5 136.5,-299.5 136.5,-280.5 82.5,-280.5"/>
<text text-anchor="middle" x="109.5" y="-287.5" font-family="Helvetica,sans-Serif" font-size="10.00" fill="#000000">uthash.h</text>
</a>
</g>
</g>
<!-- Node27&#45;&gt;Node28 -->
<g id="edge51" class="edge">
<title>Node27&#45;&gt;Node28</title>
<path fill="none" stroke="#191970" d="M651.4301,-457.4703C562.3939,-455.5398 307.9518,-447.0214 233.5,-412 183.413,-388.4396 141.4857,-336.081 121.7076,-308.2363"/>
<polygon fill="#191970" stroke="#191970" points="124.4417,-306.0368 115.8696,-299.8102 118.6878,-310.0233 124.4417,-306.0368"/>
</g>
<!-- Node30 -->
<g id="node31" class="node">
<title>Node30</title>
<g id="a_node31"><a xlink:href="async_8h.html" target="_top" xlink:title="State management for asynchronous messages. ">
<polygon fill="#ffffff" stroke="#000000" points="641,-392.5 641,-411.5 692,-411.5 692,-392.5 641,-392.5"/>
<text text-anchor="middle" x="666.5" y="-399.5" font-family="Helvetica,sans-Serif" font-size="10.00" fill="#000000">async.h</text>
</a>
</g>
</g>
<!-- Node27&#45;&gt;Node30 -->
<g id="edge55" class="edge">
<title>Node27&#45;&gt;Node30</title>
<path fill="none" stroke="#191970" d="M679.713,-448.2455C677.6023,-440.8579 674.634,-430.4689 672.0453,-421.4087"/>
<polygon fill="#191970" stroke="#191970" points="675.3677,-420.2964 669.255,-411.6427 668.637,-422.2195 675.3677,-420.2964"/>
</g>
<!-- Node31 -->
<g id="node32" class="node">
<title>Node31</title>
<g id="a_node32"><a xlink:href="subscribe_8h.html" target="_top" xlink:title="subscribe.h">
<polygon fill="#ffffff" stroke="#000000" points="920,-336.5 920,-355.5 987,-355.5 987,-336.5 920,-336.5"/>
<text text-anchor="middle" x="953.5" y="-343.5" font-family="Helvetica,sans-Serif" font-size="10.00" fill="#000000">subscribe.h</text>
</a>
</g>
</g>
<!-- Node27&#45;&gt;Node31 -->
<g id="edge60" class="edge">
<title>Node27&#45;&gt;Node31</title>
<path fill="none" stroke="#191970" d="M700.9475,-448.3523C727.1343,-434.8481 776.7694,-409.9525 820.5,-392 851.0633,-379.453 886.4476,-367.3264 913.0321,-358.6769"/>
<polygon fill="#191970" stroke="#191970" points="914.3189,-361.9394 922.7616,-355.5385 912.1699,-355.2774 914.3189,-361.9394"/>
</g>
<!-- Node28&#45;&gt;Node7 -->
<g id="edge52" class="edge">
<title>Node28&#45;&gt;Node7</title>
<path fill="none" stroke="#191970" d="M108.9269,-280.4157C107.8209,-261.0653 105.5,-215.9408 105.5,-178 105.5,-178 105.5,-178 105.5,-122 105.5,-74.5213 145.5942,-74.0694 189.5,-56 315.5572,-4.1213 362.6105,-46.2769 499.7265,-20.0285"/>
<polygon fill="#191970" stroke="#191970" points="500.6396,-23.4152 509.7568,-18.0182 499.2639,-16.5517 500.6396,-23.4152"/>
</g>
<!-- Node28&#45;&gt;Node17 -->
<g id="edge54" class="edge">
<title>Node28&#45;&gt;Node17</title>
<path fill="none" stroke="#191970" d="M129.7849,-280.3733C148.6421,-271.4241 176.946,-257.9917 198.2455,-247.8835"/>
<polygon fill="#191970" stroke="#191970" points="199.9461,-250.9506 207.4798,-243.5011 196.9449,-244.6266 199.9461,-250.9506"/>
</g>
<!-- Node29 -->
<g id="node30" class="node">
<title>Node29</title>
<polygon fill="#ffffff" stroke="#bfbfbf" points="133.5,-224.5 133.5,-243.5 185.5,-243.5 185.5,-224.5 133.5,-224.5"/>
<text text-anchor="middle" x="159.5" y="-231.5" font-family="Helvetica,sans-Serif" font-size="10.00" fill="#000000">stddef.h</text>
</g>
<!-- Node28&#45;&gt;Node29 -->
<g id="edge53" class="edge">
<title>Node28&#45;&gt;Node29</title>
<path fill="none" stroke="#191970" d="M118.2093,-280.2455C125.3073,-272.2958 135.5084,-260.8706 143.995,-251.3656"/>
<polygon fill="#191970" stroke="#191970" points="146.8411,-253.4331 150.8905,-243.6427 141.6195,-248.771 146.8411,-253.4331"/>
</g>
<!-- Node30&#45;&gt;Node16 -->
<g id="edge56" class="edge">
<title>Node30&#45;&gt;Node16</title>
<path fill="none" stroke="#191970" d="M657.0939,-392.2455C649.3507,-384.2155 638.188,-372.6394 628.9682,-363.0781"/>
<polygon fill="#191970" stroke="#191970" points="631.2591,-360.4117 621.7983,-355.6427 626.2202,-365.2706 631.2591,-360.4117"/>
</g>
<!-- Node31&#45;&gt;Node2 -->
<g id="edge62" class="edge">
<title>Node31&#45;&gt;Node2</title>
<path fill="none" stroke="#191970" d="M946.2977,-336.3746C928.9276,-313.7696 882.3871,-256.7348 831.5,-224 805.8005,-207.4679 773.2947,-195.6375 748.1546,-188.1173"/>
<polygon fill="#191970" stroke="#191970" points="748.7981,-184.6603 738.2199,-185.2534 746.8591,-191.3864 748.7981,-184.6603"/>
</g>
<!-- Node31&#45;&gt;Node5 -->
<g id="edge61" class="edge">
<title>Node31&#45;&gt;Node5</title>
<path fill="none" stroke="#191970" d="M985.39,-336.4777C1002.9177,-329.43 1023.1505,-317.8893 1033.5,-300 1051.3645,-269.1208 1116.8484,-266.0033 1026.5,-168 1007.8871,-147.81 829.7683,-131.4643 748.5319,-124.994"/>
<polygon fill="#191970" stroke="#191970" points="748.4423,-121.4763 738.199,-124.1828 747.8944,-128.4548 748.4423,-121.4763"/>
</g>
<!-- Node32 -->
<g id="node33" class="node">
<title>Node32</title>
<g id="a_node33"><a xlink:href="block_8h.html" target="_top" xlink:title="block.h">
<polygon fill="#ffffff" stroke="#000000" points="976.5,-280.5 976.5,-299.5 1024.5,-299.5 1024.5,-280.5 976.5,-280.5"/>
<text text-anchor="middle" x="1000.5" y="-287.5" font-family="Helvetica,sans-Serif" font-size="10.00" fill="#000000">block.h</text>
</a>
</g>
</g>
<!-- Node31&#45;&gt;Node32 -->
<g id="edge63" class="edge">
<title>Node31&#45;&gt;Node32</title>
<path fill="none" stroke="#191970" d="M961.6868,-336.2455C968.3589,-328.2958 977.9479,-316.8706 985.9253,-307.3656"/>
<polygon fill="#191970" stroke="#191970" points="988.6592,-309.5525 992.407,-299.6427 983.2974,-305.0524 988.6592,-309.5525"/>
</g>
<!-- Node32&#45;&gt;Node13 -->
<g id="edge68" class="edge">
<title>Node32&#45;&gt;Node13</title>
<path fill="none" stroke="#191970" d="M1000.159,-280.4509C999.5066,-262.184 998.0698,-221.9553 997.2035,-197.6976"/>
<polygon fill="#191970" stroke="#191970" points="1000.695,-197.3936 996.8402,-187.5249 993.6994,-197.6435 1000.695,-197.3936"/>
</g>
<!-- Node32&#45;&gt;Node22 -->
<g id="edge67" class="edge">
<title>Node32&#45;&gt;Node22</title>
<path fill="none" stroke="#191970" d="M991.2681,-280.2455C983.6683,-272.2155 972.7123,-260.6394 963.6632,-251.0781"/>
<polygon fill="#191970" stroke="#191970" points="966.042,-248.4998 956.6261,-243.6427 960.9579,-253.3115 966.042,-248.4998"/>
</g>
<!-- Node32&#45;&gt;Node33 -->
<g id="edge64" class="edge">
<title>Node32&#45;&gt;Node33</title>
<path fill="none" stroke="#191970" d="M1024.6374,-282.0953C1052.9209,-272.8329 1100.1391,-257.3696 1133.3857,-246.4819"/>
<polygon fill="#191970" stroke="#191970" points="1134.8046,-249.7002 1143.2186,-243.2617 1132.626,-243.0478 1134.8046,-249.7002"/>
</g>
<!-- Node33&#45;&gt;Node6 -->
<g id="edge66" class="edge">
<title>Node33&#45;&gt;Node6</title>
<path fill="none" stroke="#191970" d="M1160.1741,-224.4862C1127.3954,-196.9521 1032.1581,-116.9528 990.9167,-82.31"/>
<polygon fill="#191970" stroke="#191970" points="993.1081,-79.5799 983.1999,-75.8279 988.6057,-84.9398 993.1081,-79.5799"/>
</g>
<!-- Node34 -->
<g id="node35" class="node">
<title>Node34</title>
<polygon fill="#ffffff" stroke="#bfbfbf" points="1144.5,-168.5 1144.5,-187.5 1198.5,-187.5 1198.5,-168.5 1144.5,-168.5"/>
<text text-anchor="middle" x="1171.5" y="-175.5" font-family="Helvetica,sans-Serif" font-size="10.00" fill="#000000">strings.h</text>
</g>
<!-- Node33&#45;&gt;Node34 -->
<g id="edge65" class="edge">
<title>Node33&#45;&gt;Node34</title>
<path fill="none" stroke="#191970" d="M1171.5,-224.2455C1171.5,-216.9382 1171.5,-206.6944 1171.5,-197.7046"/>
<polygon fill="#191970" stroke="#191970" points="1175.0001,-197.6426 1171.5,-187.6427 1168.0001,-197.6427 1175.0001,-197.6426"/>
</g>
<!-- Node35&#45;&gt;Node3 -->
<g id="edge70" class="edge">
<title>Node35&#45;&gt;Node3</title>
<path fill="none" stroke="#191970" d="M79.0234,-336.265C73.6244,-323.0836 66.1365,-299.0213 73.5,-280 85.6529,-248.6067 99.9074,-246.9878 124.5,-224 182.9658,-169.3494 196.4057,-152.3846 265.5,-112 290.0314,-97.6618 319.8822,-85.7192 342.7413,-77.5987"/>
<polygon fill="#191970" stroke="#191970" points="344.091,-80.8351 352.3903,-74.2494 341.7955,-74.2222 344.091,-80.8351"/>
</g>
</g>
</svg>
        <g id="navigator" transform="translate(0 0)" fill="#404254">
                <rect fill="#f2f5e9" fill-opacity="0.5" stroke="#606060" stroke-width=".5" x="0" y="0" width="60" height="60"/>
                <use id="zoomplus" xlink:href="#zoomPlus" x="17" y="9" onmousedown="handleZoom(evt,'in')"/>
                <use id="zoomminus" xlink:href="#zoomMin" x="42" y="9" onmousedown="handleZoom(evt,'out')"/>
                <use id="reset" xlink:href="#resetDef" x="30" y="36" onmousedown="handleReset()"/>
                <g id="arrowUp" xlink:href="#dirArrow" transform="translate(30 24)" onmousedown="handlePan(0,-1)">
                  <use xlink:href="#rim" fill="#404040">
                        <set attributeName="fill" to="#808080" begin="arrowUp.mouseover" end="arrowUp.mouseout"/>
                  </use>
                  <path fill="none" stroke="white" stroke-width="1.5" d="M0,-3.0v7 M-2.5,-0.5L0,-3.0L2.5,-0.5"/>
                </g>
                <g id="arrowRight" xlink:href="#dirArrow" transform="rotate(90) translate(36 -43)" onmousedown="handlePan(1,0)">
                  <use xlink:href="#rim" fill="#404040">
                        <set attributeName="fill" to="#808080" begin="arrowRight.mouseover" end="arrowRight.mouseout"/>
                  </use>
                  <path fill="none" stroke="white" stroke-width="1.5" d="M0,-3.0v7 M-2.5,-0.5L0,-3.0L2.5,-0.5"/>
                </g>
                <g id="arrowDown" xlink:href="#dirArrow" transform="rotate(180) translate(-30 -48)" onmousedown="handlePan(0,1)">
                  <use xlink:href="#rim" fill="#404040">
                        <set attributeName="fill" to="#808080" begin="arrowDown.mouseover" end="arrowDown.mouseout"/>
                  </use>
                  <path fill="none" stroke="white" stroke-width="1.5" d="M0,-3.0v7 M-2.5,-0.5L0,-3.0L2.5,-0.5"/>
                </g>
                <g id="arrowLeft" xlink:href="#dirArrow" transform="rotate(270) translate(-36 17)" onmousedown="handlePan(-1,0)">
                  <use xlink:href="#rim" fill="#404040">
                        <set attributeName="fill" to="#808080" begin="arrowLeft.mouseover" end="arrowLeft.mouseout"/>
                  </use>
                  <path fill="none" stroke="white" stroke-width="1.5" d="M0,-3.0v7 M-2.5,-0.5L0,-3.0L2.5,-0.5"/>
                </g>
        </g>
        <svg viewBox="0 0 15 15" width="100%" height="30px" preserveAspectRatio="xMaxYMin meet">
         <g id="arrow_out" transform="scale(0.3 0.3)">
          <a xlink:href="coap__session_8c__incl_org.svg" target="_base">
           <rect id="button" ry="5" rx="5" y="6" x="6" height="38" width="38"
                fill="#f2f5e9" fill-opacity="0.5" stroke="#606060" stroke-width="1.0"/>
           <path id="arrow"
             d="M 11.500037,31.436501 C 11.940474,20.09759 22.043105,11.32322 32.158766,21.979434 L 37.068811,17.246167 C 37.068811,17.246167 37.088388,32 37.088388,32 L 22.160133,31.978069 C 22.160133,31.978069 26.997745,27.140456 26.997745,27.140456 C 18.528582,18.264221 13.291696,25.230495 11.500037,31.436501 z"
             style="fill:#404040;"/>
          </a>
         </g>
        </svg>
</svg>
