<?xml version="1.0" encoding="UTF-8" standalone="no"?>
<!DOCTYPE svg PUBLIC "-//W3C//DTD SVG 1.1//EN"
 "http://www.w3.org/Graphics/SVG/1.1/DTD/svg11.dtd">
<!-- Generated by graphviz version 2.40.1 (20161225.0304)
 -->
<!-- Title: coap_network_read Pages: 1 -->
<svg width="573pt" height="85pt"
 viewBox="0.00 0.00 573.00 85.00" xmlns="http://www.w3.org/2000/svg" xmlns:xlink="http://www.w3.org/1999/xlink">
<g id="graph0" class="graph" transform="scale(1 1) rotate(0) translate(4 81)">
<title>coap_network_read</title>
<polygon fill="#ffffff" stroke="transparent" points="-4,4 -4,-81 569,-81 569,4 -4,4"/>
<!-- Node36 -->
<g id="node1" class="node">
<title>Node36</title>
<polygon fill="#bfbfbf" stroke="#000000" points="0,-19.5 0,-38.5 101,-38.5 101,-19.5 0,-19.5"/>
<text text-anchor="middle" x="50.5" y="-26.5" font-family="Helvetica,sans-Serif" font-size="10.00" fill="#000000">coap_network_read</text>
</g>
<!-- Node37 -->
<g id="node2" class="node">
<title>Node37</title>
<g id="a_node2"><a xlink:href="coap__dtls__gnutls_8c.html#acae60346c237845732c91e419bb5517e" target="_top" xlink:title="decrypt_callback">
<polygon fill="#ffffff" stroke="#000000" points="141,-38.5 141,-57.5 231,-57.5 231,-38.5 141,-38.5"/>
<text text-anchor="middle" x="186" y="-45.5" font-family="Helvetica,sans-Serif" font-size="10.00" fill="#000000">decrypt_callback</text>
</a>
</g>
</g>
<!-- Node36&#45;&gt;Node37 -->
<g id="edge1" class="edge">
<title>Node36&#45;&gt;Node37</title>
<path fill="none" stroke="#191970" d="M111.4703,-37.5493C121.2909,-38.9264 131.3035,-40.3304 140.6715,-41.644"/>
<polygon fill="#191970" stroke="#191970" points="111.7299,-34.0516 101.3407,-36.129 110.7578,-40.9838 111.7299,-34.0516"/>
</g>
<!-- Node41 -->
<g id="node6" class="node">
<title>Node41</title>
<g id="a_node6"><a xlink:href="net_8h.html#a8baf4e3608ff5eb00adac694fe25eb60" target="_top" xlink:title="Creates a new coap_context_t object that will hold the CoAP stack status. ">
<polygon fill="#ffffff" stroke="#000000" points="137,-.5 137,-19.5 235,-19.5 235,-.5 137,-.5"/>
<text text-anchor="middle" x="186" y="-7.5" font-family="Helvetica,sans-Serif" font-size="10.00" fill="#000000">coap_new_context</text>
</a>
</g>
</g>
<!-- Node36&#45;&gt;Node41 -->
<g id="edge5" class="edge">
<title>Node36&#45;&gt;Node41</title>
<path fill="none" stroke="#191970" d="M111.51,-20.4451C119.9331,-19.264 128.4965,-18.0632 136.6726,-16.9168"/>
<polygon fill="#191970" stroke="#191970" points="110.7578,-17.0162 101.3407,-21.871 111.7299,-23.9484 110.7578,-17.0162"/>
</g>
<!-- Node38 -->
<g id="node3" class="node">
<title>Node38</title>
<g id="a_node3"><a xlink:href="coap__dtls__gnutls_8c.html#a2e333b0d5a6d15a048071f654f7391bc" target="_top" xlink:title="coap_dtls_new_session">
<polygon fill="#ffffff" stroke="#000000" points="271,-38.5 271,-57.5 392,-57.5 392,-38.5 271,-38.5"/>
<text text-anchor="middle" x="331.5" y="-45.5" font-family="Helvetica,sans-Serif" font-size="10.00" fill="#000000">coap_dtls_new_session</text>
</a>
</g>
</g>
<!-- Node37&#45;&gt;Node38 -->
<g id="edge2" class="edge">
<title>Node37&#45;&gt;Node38</title>
<path fill="none" stroke="#191970" d="M241.4465,-48C251.0384,-48 261.0563,-48 270.7794,-48"/>
<polygon fill="#191970" stroke="#191970" points="241.2396,-44.5001 231.2395,-48 241.2395,-51.5001 241.2396,-44.5001"/>
</g>
<!-- Node39 -->
<g id="node4" class="node">
<title>Node39</title>
<g id="a_node4"><a xlink:href="coap__dtls__gnutls_8c.html#a1208fe255ba461cb9d369a83bbc0f98b" target="_top" xlink:title="coap_dtls_get_session">
<polygon fill="#ffffff" stroke="#000000" points="438.5,-57.5 438.5,-76.5 554.5,-76.5 554.5,-57.5 438.5,-57.5"/>
<text text-anchor="middle" x="496.5" y="-64.5" font-family="Helvetica,sans-Serif" font-size="10.00" fill="#000000">coap_dtls_get_session</text>
</a>
</g>
</g>
<!-- Node38&#45;&gt;Node39 -->
<g id="edge3" class="edge">
<title>Node38&#45;&gt;Node39</title>
<path fill="none" stroke="#191970" d="M402.0922,-56.1288C414.2297,-57.5264 426.7184,-58.9645 438.4776,-60.3186"/>
<polygon fill="#191970" stroke="#191970" points="402.3378,-52.634 392.003,-54.967 401.5369,-59.5881 402.3378,-52.634"/>
</g>
<!-- Node40 -->
<g id="node5" class="node">
<title>Node40</title>
<g id="a_node5"><a xlink:href="coap__dtls__gnutls_8c.html#a174ab9010def9c77272219cabba1b48e" target="_top" xlink:title="coap_dtls_handle_message">
<polygon fill="#ffffff" stroke="#000000" points="428,-19.5 428,-38.5 565,-38.5 565,-19.5 428,-19.5"/>
<text text-anchor="middle" x="496.5" y="-26.5" font-family="Helvetica,sans-Serif" font-size="10.00" fill="#000000">coap_dtls_handle_message</text>
</a>
</g>
</g>
<!-- Node38&#45;&gt;Node40 -->
<g id="edge4" class="edge">
<title>Node38&#45;&gt;Node40</title>
<path fill="none" stroke="#191970" d="M401.9862,-39.8834C410.5796,-38.8939 419.3507,-37.8839 427.9157,-36.8976"/>
<polygon fill="#191970" stroke="#191970" points="401.5369,-36.4119 392.003,-41.033 402.3378,-43.366 401.5369,-36.4119"/>
</g>
<!-- Node42 -->
<g id="node7" class="node">
<title>Node42</title>
<g id="a_node7"><a xlink:href="net_8h.html#a696acd1012ad1c2dba081ee5bea54fd8" target="_top" xlink:title="Registers the option type type with the given context object ctx. ">
<polygon fill="#ffffff" stroke="#000000" points="278,-.5 278,-19.5 385,-19.5 385,-.5 278,-.5"/>
<text text-anchor="middle" x="331.5" y="-7.5" font-family="Helvetica,sans-Serif" font-size="10.00" fill="#000000">coap_register_option</text>
</a>
</g>
</g>
<!-- Node41&#45;&gt;Node42 -->
<g id="edge6" class="edge">
<title>Node41&#45;&gt;Node42</title>
<path fill="none" stroke="#191970" d="M245.3898,-10C256.1171,-10 267.2458,-10 277.7991,-10"/>
<polygon fill="#191970" stroke="#191970" points="245.2597,-6.5001 235.2597,-10 245.2596,-13.5001 245.2597,-6.5001"/>
</g>
</g>
</svg>
