<?xml version="1.0" encoding="UTF-8" standalone="no"?>
<!DOCTYPE svg PUBLIC "-//W3C//DTD SVG 1.1//EN"
 "http://www.w3.org/Graphics/SVG/1.1/DTD/svg11.dtd">
<!-- Generated by graphviz version 2.40.1 (20161225.0304)
 -->
<!-- Title: coap_socket_read Pages: 1 -->
<svg width="693pt" height="141pt"
 viewBox="0.00 0.00 693.00 141.11" xmlns="http://www.w3.org/2000/svg" xmlns:xlink="http://www.w3.org/1999/xlink">
<g id="graph0" class="graph" transform="scale(1 1) rotate(0) translate(4 137.1053)">
<title>coap_socket_read</title>
<polygon fill="#ffffff" stroke="transparent" points="-4,4 -4,-137.1053 689,-137.1053 689,4 -4,4"/>
<!-- Node442 -->
<g id="node1" class="node">
<title>Node442</title>
<polygon fill="#bfbfbf" stroke="#000000" points="0,-56.6053 0,-75.6053 96,-75.6053 96,-56.6053 0,-56.6053"/>
<text text-anchor="middle" x="48" y="-63.6053" font-family="Helvetica,sans-Serif" font-size="10.00" fill="#000000">coap_socket_read</text>
</g>
<!-- Node443 -->
<g id="node2" class="node">
<title>Node443</title>
<g id="a_node2"><a xlink:href="net_8c.html#acd36f6fba6d30ab9557e0e6521f4a088" target="_top" xlink:title="coap_read_session">
<polygon fill="#ffffff" stroke="#000000" points="132,-56.6053 132,-75.6053 233,-75.6053 233,-56.6053 132,-56.6053"/>
<text text-anchor="middle" x="182.5" y="-63.6053" font-family="Helvetica,sans-Serif" font-size="10.00" fill="#000000">coap_read_session</text>
</a>
</g>
</g>
<!-- Node442&#45;&gt;Node443 -->
<g id="edge1" class="edge">
<title>Node442&#45;&gt;Node443</title>
<path fill="none" stroke="#191970" d="M106.4139,-66.1053C114.9144,-66.1053 123.6065,-66.1053 131.9343,-66.1053"/>
<polygon fill="#191970" stroke="#191970" points="106.1777,-62.6054 96.1777,-66.1053 106.1777,-69.6054 106.1777,-62.6054"/>
</g>
<!-- Node444 -->
<g id="node3" class="node">
<title>Node444</title>
<g id="a_node3"><a xlink:href="net_8h.html#a0748d791fd2af516dd93fbadb660d440" target="_top" xlink:title="For applications with their own message loop, reads all data from the network. ">
<polygon fill="#ffffff" stroke="#000000" points="269,-56.6053 269,-75.6053 331,-75.6053 331,-56.6053 269,-56.6053"/>
<text text-anchor="middle" x="300" y="-63.6053" font-family="Helvetica,sans-Serif" font-size="10.00" fill="#000000">coap_read</text>
</a>
</g>
</g>
<!-- Node443&#45;&gt;Node444 -->
<g id="edge2" class="edge">
<title>Node443&#45;&gt;Node444</title>
<path fill="none" stroke="#191970" d="M243.0773,-66.1053C252.0097,-66.1053 260.8858,-66.1053 268.8784,-66.1053"/>
<polygon fill="#191970" stroke="#191970" points="243.0125,-62.6054 233.0125,-66.1053 243.0125,-69.6054 243.0125,-62.6054"/>
</g>
<!-- Node445 -->
<g id="node4" class="node">
<title>Node445</title>
<g id="a_node4"><a xlink:href="coap__io_8c.html#a75a7c93e10ca7858449ba304aad4ea37" target="_top" xlink:title="coap_run_once">
<polygon fill="#ffffff" stroke="#000000" points="602,-113.6053 602,-132.6053 685,-132.6053 685,-113.6053 602,-113.6053"/>
<text text-anchor="middle" x="643.5" y="-120.6053" font-family="Helvetica,sans-Serif" font-size="10.00" fill="#000000">coap_run_once</text>
</a>
</g>
</g>
<!-- Node444&#45;&gt;Node445 -->
<g id="edge3" class="edge">
<title>Node444&#45;&gt;Node445</title>
<path fill="none" stroke="#191970" d="M332.9915,-79.2864C370.1889,-93.3802 432.8211,-114.8182 489,-123.1053 526.9461,-128.7028 570.7075,-128.0468 601.9472,-126.3771"/>
<polygon fill="#191970" stroke="#191970" points="334.2415,-76.0173 323.6515,-75.6987 331.7314,-82.5518 334.2415,-76.0173"/>
</g>
<!-- Node446 -->
<g id="node5" class="node">
<title>Node446</title>
<g id="a_node5"><a xlink:href="net_8h.html#a9900c032b74bd57f67d489484a2b3207" target="_top" xlink:title="Handles retransmissions of confirmable messages. ">
<polygon fill="#ffffff" stroke="#000000" points="367,-56.6053 367,-75.6053 453,-75.6053 453,-56.6053 367,-56.6053"/>
<text text-anchor="middle" x="410" y="-63.6053" font-family="Helvetica,sans-Serif" font-size="10.00" fill="#000000">coap_retransmit</text>
</a>
</g>
</g>
<!-- Node444&#45;&gt;Node446 -->
<g id="edge4" class="edge">
<title>Node444&#45;&gt;Node446</title>
<path fill="none" stroke="#191970" d="M341.4282,-66.1053C349.7153,-66.1053 358.4409,-66.1053 366.7866,-66.1053"/>
<polygon fill="#191970" stroke="#191970" points="341.2274,-62.6054 331.2274,-66.1053 341.2273,-69.6054 341.2274,-62.6054"/>
</g>
<!-- Node448 -->
<g id="node7" class="node">
<title>Node448</title>
<g id="a_node7"><a xlink:href="net_8h.html#a5854b1394bfddd574e48af116e3aaaf9" target="_top" xlink:title="Sends an RST message with code 0 for the specified request to dst. ">
<polygon fill="#ffffff" stroke="#000000" points="603.5,-56.6053 603.5,-75.6053 683.5,-75.6053 683.5,-56.6053 603.5,-56.6053"/>
<text text-anchor="middle" x="643.5" y="-63.6053" font-family="Helvetica,sans-Serif" font-size="10.00" fill="#000000">coap_send_rst</text>
</a>
</g>
</g>
<!-- Node444&#45;&gt;Node448 -->
<g id="edge10" class="edge">
<title>Node444&#45;&gt;Node448</title>
<path fill="none" stroke="#191970" d="M325.9191,-51.6326C374.0505,-26.7048 480.1461,19.0672 566,-9.1053 594.5652,-18.4788 621.2754,-42.8507 634.617,-56.4954"/>
<polygon fill="#191970" stroke="#191970" points="324.017,-48.6796 316.8222,-56.4569 327.2966,-54.8638 324.017,-48.6796"/>
</g>
<!-- Node447 -->
<g id="node6" class="node">
<title>Node447</title>
<g id="a_node6"><a xlink:href="net_8h.html#aaac86ac50793f309678e4951ecf8863f" target="_top" xlink:title="For applications with their own message loop, send all pending retransmits and return the list of soc...">
<polygon fill="#ffffff" stroke="#000000" points="495.5,-94.6053 495.5,-113.6053 559.5,-113.6053 559.5,-94.6053 495.5,-94.6053"/>
<text text-anchor="middle" x="527.5" y="-101.6053" font-family="Helvetica,sans-Serif" font-size="10.00" fill="#000000">coap_write</text>
</a>
</g>
</g>
<!-- Node446&#45;&gt;Node447 -->
<g id="edge5" class="edge">
<title>Node446&#45;&gt;Node447</title>
<path fill="none" stroke="#191970" d="M449.2092,-78.7857C465.0854,-83.9201 483.11,-89.7494 497.8593,-94.5193"/>
<polygon fill="#191970" stroke="#191970" points="450.242,-75.4413 439.6502,-75.6943 448.088,-82.1016 450.242,-75.4413"/>
</g>
<!-- Node446&#45;&gt;Node448 -->
<g id="edge9" class="edge">
<title>Node446&#45;&gt;Node448</title>
<path fill="none" stroke="#191970" d="M463.2873,-66.1053C505.8913,-66.1053 564.692,-66.1053 603.3817,-66.1053"/>
<polygon fill="#191970" stroke="#191970" points="463.0996,-62.6054 453.0996,-66.1053 463.0996,-69.6054 463.0996,-62.6054"/>
</g>
<!-- Node449 -->
<g id="node8" class="node">
<title>Node449</title>
<g id="a_node8"><a xlink:href="libcoap_8h.html#a5d1fb0b44497970b0f75fa0b38570a82" target="_top" xlink:title="coap_cleanup">
<polygon fill="#ffffff" stroke="#000000" points="489,-18.6053 489,-37.6053 566,-37.6053 566,-18.6053 489,-18.6053"/>
<text text-anchor="middle" x="527.5" y="-25.6053" font-family="Helvetica,sans-Serif" font-size="10.00" fill="#000000">coap_cleanup</text>
</a>
</g>
</g>
<!-- Node446&#45;&gt;Node449 -->
<g id="edge8" class="edge">
<title>Node446&#45;&gt;Node449</title>
<path fill="none" stroke="#191970" d="M449.2092,-53.4248C465.0854,-48.2904 483.11,-42.4612 497.8593,-37.6912"/>
<polygon fill="#191970" stroke="#191970" points="448.088,-50.1089 439.6502,-56.5163 450.242,-56.7692 448.088,-50.1089"/>
</g>
<!-- Node447&#45;&gt;Node445 -->
<g id="edge6" class="edge">
<title>Node447&#45;&gt;Node445</title>
<path fill="none" stroke="#191970" d="M569.6193,-111.0041C580.036,-112.7103 591.1933,-114.5378 601.5996,-116.2423"/>
<polygon fill="#191970" stroke="#191970" points="569.9388,-107.5099 559.5046,-109.3474 568.8073,-114.4178 569.9388,-107.5099"/>
</g>
<!-- Node447&#45;&gt;Node448 -->
<g id="edge7" class="edge">
<title>Node447&#45;&gt;Node448</title>
<path fill="none" stroke="#191970" d="M566.6528,-91.2793C582.2176,-86.1805 599.8141,-80.4162 614.2377,-75.6912"/>
<polygon fill="#191970" stroke="#191970" points="565.1852,-88.077 556.7717,-94.5163 567.3644,-94.7292 565.1852,-88.077"/>
</g>
</g>
</svg>
