<?xml version="1.0" encoding="UTF-8" standalone="no"?>
<!DOCTYPE svg PUBLIC "-//W3C//DTD SVG 1.1//EN"
 "http://www.w3.org/Graphics/SVG/1.1/DTD/svg11.dtd">
<!-- Generated by graphviz version 2.40.1 (20161225.0304)
 -->
<!-- Title: coap_tls_write Pages: 1 -->
<!--zoomable 665 -->
<svg id="main" version="1.1" xmlns="http://www.w3.org/2000/svg" xmlns:xlink="http://www.w3.org/1999/xlink" xml:space="preserve" onload="init(evt)">
<style type="text/css"><![CDATA[
.edge:hover path { stroke: red; }
.edge:hover polygon { stroke: red; fill: red; }
]]></style>
<script type="text/javascript"><![CDATA[
var edges = document.getElementsByTagName('g');
if (edges && edges.length) {
  for (var i=0;i<edges.length;i++) {
    if (edges[i].id.substr(0,4)=='edge') {
      edges[i].setAttribute('class','edge');
    }
  }
}
]]></script>
        <defs>
                <circle id="rim" cx="0" cy="0" r="7"/>
                <circle id="rim2" cx="0" cy="0" r="3.5"/>
                <g id="zoomPlus">
                        <use xlink:href="#rim" fill="#404040">
                                <set attributeName="fill" to="#808080" begin="zoomplus.mouseover" end="zoomplus.mouseout"/>
                        </use>
                        <path d="M-4,0h8M0,-4v8" fill="none" stroke="white" stroke-width="1.5" pointer-events="none"/>
                </g>
                <g id="zoomMin">
                        <use xlink:href="#rim" fill="#404040">
                                <set attributeName="fill" to="#808080" begin="zoomminus.mouseover" end="zoomminus.mouseout"/>
                        </use>
                        <path d="M-4,0h8" fill="none" stroke="white" stroke-width="1.5" pointer-events="none"/>
                </g>
                <g id="dirArrow">
                        <path fill="none" stroke="white" stroke-width="1.5" d="M0,-3.0v7 M-2.5,-0.5L0,-3.0L2.5,-0.5"/>
                </g>
               <g id="resetDef">
                       <use xlink:href="#rim2" fill="#404040">
                               <set attributeName="fill" to="#808080" begin="reset.mouseover" end="reset.mouseout"/>
                       </use>
               </g>
        </defs>

<script type="text/javascript">
var viewWidth = 2140;
var viewHeight = 665;
var sectionId = 'dynsection-18';
</script>
<script xlink:href="svgpan.js"/>
<svg id="graph" class="graph">
<g id="viewport">
<title>coap_tls_write</title>
<polygon fill="#ffffff" stroke="transparent" points="-4,4 -4,-660.8661 2136,-660.8661 2136,4 -4,4"/>
<!-- Node238 -->
<g id="node1" class="node">
<title>Node238</title>
<polygon fill="#bfbfbf" stroke="#000000" points="0,-456.5 0,-475.5 80,-475.5 80,-456.5 0,-456.5"/>
<text text-anchor="middle" x="40" y="-463.5" font-family="Helvetica,sans-Serif" font-size="10.00" fill="#000000">coap_tls_write</text>
</g>
<!-- Node239 -->
<g id="node2" class="node">
<title>Node239</title>
<g id="a_node2"><a xlink:href="coap__session_8h.html#aaf20c9b0b2ad3168c15e535a67ea3ce5" target="_top" xlink:title="Send a pdu according to the session&#39;s protocol. ">
<polygon fill="#ffffff" stroke="#000000" points="116,-437.5 116,-456.5 240,-456.5 240,-437.5 116,-437.5"/>
<text text-anchor="middle" x="178" y="-444.5" font-family="Helvetica,sans-Serif" font-size="10.00" fill="#000000">coap_session_send_pdu</text>
</a>
</g>
</g>
<!-- Node238&#45;&gt;Node239 -->
<g id="edge1" class="edge">
<title>Node238&#45;&gt;Node239</title>
<path fill="none" stroke="#191970" d="M90.2132,-459.0866C98.5419,-457.9399 107.2659,-456.7388 115.8472,-455.5573"/>
<polygon fill="#191970" stroke="#191970" points="89.7154,-455.622 80.2863,-460.4533 90.6702,-462.5566 89.7154,-455.622"/>
</g>
<!-- Node273 -->
<g id="node36" class="node">
<title>Node273</title>
<g id="a_node36"><a xlink:href="net_8c.html#a8fe30a827bdd0d518fc5c5a3a860dfde" target="_top" xlink:title="coap_write_session">
<polygon fill="#ffffff" stroke="#000000" points="288,-589.5 288,-608.5 391,-608.5 391,-589.5 288,-589.5"/>
<text text-anchor="middle" x="339.5" y="-596.5" font-family="Helvetica,sans-Serif" font-size="10.00" fill="#000000">coap_write_session</text>
</a>
</g>
</g>
<!-- Node238&#45;&gt;Node273 -->
<g id="edge61" class="edge">
<title>Node238&#45;&gt;Node273</title>
<path fill="none" stroke="#191970" d="M70.9898,-479.7617C131.7844,-506.759 265.3202,-566.0587 317.7534,-589.3429"/>
<polygon fill="#191970" stroke="#191970" points="72.0992,-476.4249 61.5393,-475.565 69.2582,-482.8224 72.0992,-476.4249"/>
</g>
<!-- Node240 -->
<g id="node3" class="node">
<title>Node240</title>
<g id="a_node3"><a xlink:href="coap__session_8h.html#a2f455ec1572982a5ae404beac0cfbd53" target="_top" xlink:title="Notify session transport has just connected and CSM exchange can now start. ">
<polygon fill="#ffffff" stroke="#000000" points="276,-494.5 276,-513.5 403,-513.5 403,-494.5 276,-494.5"/>
<text text-anchor="middle" x="339.5" y="-501.5" font-family="Helvetica,sans-Serif" font-size="10.00" fill="#000000">coap_session_send_csm</text>
</a>
</g>
</g>
<!-- Node239&#45;&gt;Node240 -->
<g id="edge2" class="edge">
<title>Node239&#45;&gt;Node240</title>
<path fill="none" stroke="#191970" d="M214.6306,-459.9285C244.3464,-470.4164 285.5645,-484.9639 312.3803,-494.4284"/>
<polygon fill="#191970" stroke="#191970" points="215.6263,-456.5683 205.0315,-456.5405 213.2965,-463.1693 215.6263,-456.5683"/>
</g>
<!-- Node254 -->
<g id="node17" class="node">
<title>Node254</title>
<g id="a_node17"><a xlink:href="net_8c.html#a0c600aed61c8a8402d31ef795df3b0b6" target="_top" xlink:title="coap_send_pdu">
<polygon fill="#ffffff" stroke="#000000" points="454.5,-342.5 454.5,-361.5 539.5,-361.5 539.5,-342.5 454.5,-342.5"/>
<text text-anchor="middle" x="497" y="-349.5" font-family="Helvetica,sans-Serif" font-size="10.00" fill="#000000">coap_send_pdu</text>
</a>
</g>
</g>
<!-- Node239&#45;&gt;Node254 -->
<g id="edge60" class="edge">
<title>Node239&#45;&gt;Node254</title>
<path fill="none" stroke="#191970" d="M195.0328,-430.3102C213.3678,-413.4651 244.2055,-388.2433 276,-376 334.8856,-353.3247 408.7003,-349.8239 454.355,-350.2545"/>
<polygon fill="#191970" stroke="#191970" points="192.4052,-427.9771 187.5298,-437.3836 197.2071,-433.0705 192.4052,-427.9771"/>
</g>
<!-- Node272 -->
<g id="node35" class="node">
<title>Node272</title>
<g id="a_node35"><a xlink:href="coap__session_8h.html#aa8b3a2da8480911b0216dad076038cb6" target="_top" xlink:title="Notify session that it has just connected or reconnected. ">
<polygon fill="#ffffff" stroke="#000000" points="779,-380.5 779,-399.5 906,-399.5 906,-380.5 779,-380.5"/>
<text text-anchor="middle" x="842.5" y="-387.5" font-family="Helvetica,sans-Serif" font-size="10.00" fill="#000000">coap_session_connected</text>
</a>
</g>
</g>
<!-- Node239&#45;&gt;Node272 -->
<g id="edge56" class="edge">
<title>Node239&#45;&gt;Node272</title>
<path fill="none" stroke="#191970" d="M250.5196,-440.7794C381.2728,-429.5635 654.4537,-406.1304 778.6219,-395.4794"/>
<polygon fill="#191970" stroke="#191970" points="249.8801,-437.3213 240.2159,-441.6632 250.4785,-444.2957 249.8801,-437.3213"/>
</g>
<!-- Node241 -->
<g id="node4" class="node">
<title>Node241</title>
<g id="a_node4"><a xlink:href="coap__session_8c.html#acec64026a2b3309e97075951dc52c2a1" target="_top" xlink:title="coap_session_connect">
<polygon fill="#ffffff" stroke="#000000" points="439,-494.5 439,-513.5 555,-513.5 555,-494.5 439,-494.5"/>
<text text-anchor="middle" x="497" y="-501.5" font-family="Helvetica,sans-Serif" font-size="10.00" fill="#000000">coap_session_connect</text>
</a>
</g>
</g>
<!-- Node240&#45;&gt;Node241 -->
<g id="edge3" class="edge">
<title>Node240&#45;&gt;Node241</title>
<path fill="none" stroke="#191970" d="M413.135,-504C421.7301,-504 430.4067,-504 438.7531,-504"/>
<polygon fill="#191970" stroke="#191970" points="413.1073,-500.5001 403.1073,-504 413.1073,-507.5001 413.1073,-500.5001"/>
</g>
<!-- Node245 -->
<g id="node8" class="node">
<title>Node245</title>
<g id="a_node8"><a xlink:href="coap__session_8c.html#ac79f1143af9580a441d31796cf81f108" target="_top" xlink:title="coap_session_accept">
<polygon fill="#ffffff" stroke="#000000" points="441.5,-608.5 441.5,-627.5 552.5,-627.5 552.5,-608.5 441.5,-608.5"/>
<text text-anchor="middle" x="497" y="-615.5" font-family="Helvetica,sans-Serif" font-size="10.00" fill="#000000">coap_session_accept</text>
</a>
</g>
</g>
<!-- Node240&#45;&gt;Node245 -->
<g id="edge7" class="edge">
<title>Node240&#45;&gt;Node245</title>
<path fill="none" stroke="#191970" d="M354.9641,-521.1795C373.4101,-540.8627 405.9254,-573.0873 439,-594 448.1186,-599.7656 458.8585,-604.6611 468.6021,-608.4972"/>
<polygon fill="#191970" stroke="#191970" points="357.3109,-518.5614 347.9595,-513.5812 352.1641,-523.306 357.3109,-518.5614"/>
</g>
<!-- Node240&#45;&gt;Node254 -->
<g id="edge19" class="edge">
<title>Node240&#45;&gt;Node254</title>
<path fill="none" stroke="#191970" d="M356.9006,-487.207C390.0068,-455.2569 461.0806,-386.6651 487.1514,-361.5047"/>
<polygon fill="#191970" stroke="#191970" points="354.1174,-485.0289 349.3523,-494.4917 358.9785,-490.0658 354.1174,-485.0289"/>
</g>
<!-- Node271 -->
<g id="node34" class="node">
<title>Node271</title>
<g id="a_node34"><a xlink:href="net_8c.html#a9e7c7fc083799c942c9c44ebc190c833" target="_top" xlink:title="coap_connect_session">
<polygon fill="#ffffff" stroke="#000000" points="1100,-542.5 1100,-561.5 1216,-561.5 1216,-542.5 1100,-542.5"/>
<text text-anchor="middle" x="1158" y="-549.5" font-family="Helvetica,sans-Serif" font-size="10.00" fill="#000000">coap_connect_session</text>
</a>
</g>
</g>
<!-- Node240&#45;&gt;Node271 -->
<g id="edge54" class="edge">
<title>Node240&#45;&gt;Node271</title>
<path fill="none" stroke="#191970" d="M373.0494,-517.1975C431.4885,-538.9616 556.1759,-580 665.5,-580 665.5,-580 665.5,-580 842.5,-580 932.6829,-580 1036.8003,-568.5088 1099.9875,-560.2495"/>
<polygon fill="#191970" stroke="#191970" points="374.1797,-513.8832 363.588,-513.6255 371.7072,-520.432 374.1797,-513.8832"/>
</g>
<!-- Node242 -->
<g id="node5" class="node">
<title>Node242</title>
<g id="a_node5"><a xlink:href="coap__session_8h.html#ad495fcd405fa86859fa36d45f89be910" target="_top" xlink:title="Creates a new client session to the designated server. ">
<polygon fill="#ffffff" stroke="#000000" points="601.5,-532.5 601.5,-551.5 729.5,-551.5 729.5,-532.5 601.5,-532.5"/>
<text text-anchor="middle" x="665.5" y="-539.5" font-family="Helvetica,sans-Serif" font-size="10.00" fill="#000000">coap_new_client_session</text>
</a>
</g>
</g>
<!-- Node241&#45;&gt;Node242 -->
<g id="edge4" class="edge">
<title>Node241&#45;&gt;Node242</title>
<path fill="none" stroke="#191970" d="M549.4313,-515.8243C573.1868,-521.1816 600.8986,-527.4311 623.2861,-532.4799"/>
<polygon fill="#191970" stroke="#191970" points="550.0447,-512.3748 539.5197,-513.589 548.5047,-519.2033 550.0447,-512.3748"/>
</g>
<!-- Node243 -->
<g id="node6" class="node">
<title>Node243</title>
<g id="a_node6"><a xlink:href="coap__session_8h.html#a40790c70df0b38fe89f3fb2ad255d662" target="_top" xlink:title="Creates a new client session to the designated server with PSK credentials. ">
<polygon fill="#ffffff" stroke="#000000" points="591,-494.5 591,-513.5 740,-513.5 740,-494.5 591,-494.5"/>
<text text-anchor="middle" x="665.5" y="-501.5" font-family="Helvetica,sans-Serif" font-size="10.00" fill="#000000">coap_new_client_session_psk</text>
</a>
</g>
</g>
<!-- Node241&#45;&gt;Node243 -->
<g id="edge5" class="edge">
<title>Node241&#45;&gt;Node243</title>
<path fill="none" stroke="#191970" d="M565.5035,-504C573.8429,-504 582.3957,-504 590.8193,-504"/>
<polygon fill="#191970" stroke="#191970" points="565.4603,-500.5001 555.4602,-504 565.4602,-507.5001 565.4603,-500.5001"/>
</g>
<!-- Node244 -->
<g id="node7" class="node">
<title>Node244</title>
<g id="a_node7"><a xlink:href="coap__session_8h.html#a90f2df37ae4204189027c01604ddfe50" target="_top" xlink:title="Creates a new client session to the designated server with PKI credentials. ">
<polygon fill="#ffffff" stroke="#000000" points="592.5,-456.5 592.5,-475.5 738.5,-475.5 738.5,-456.5 592.5,-456.5"/>
<text text-anchor="middle" x="665.5" y="-463.5" font-family="Helvetica,sans-Serif" font-size="10.00" fill="#000000">coap_new_client_session_pki</text>
</a>
</g>
</g>
<!-- Node241&#45;&gt;Node244 -->
<g id="edge6" class="edge">
<title>Node241&#45;&gt;Node244</title>
<path fill="none" stroke="#191970" d="M549.4313,-492.1757C573.1868,-486.8184 600.8986,-480.5689 623.2861,-475.5201"/>
<polygon fill="#191970" stroke="#191970" points="548.5047,-488.7967 539.5197,-494.411 550.0447,-495.6252 548.5047,-488.7967"/>
</g>
<!-- Node246 -->
<g id="node9" class="node">
<title>Node246</title>
<g id="a_node9"><a xlink:href="coap__session_8h.html#aadffd66ead18cd2eba0b19efe92a3d88" target="_top" xlink:title="Creates a new server session for the specified endpoint. ">
<polygon fill="#ffffff" stroke="#000000" points="599.5,-608.5 599.5,-627.5 731.5,-627.5 731.5,-608.5 599.5,-608.5"/>
<text text-anchor="middle" x="665.5" y="-615.5" font-family="Helvetica,sans-Serif" font-size="10.00" fill="#000000">coap_new_server_session</text>
</a>
</g>
</g>
<!-- Node245&#45;&gt;Node246 -->
<g id="edge8" class="edge">
<title>Node245&#45;&gt;Node246</title>
<path fill="none" stroke="#191970" d="M562.9887,-618C574.9449,-618 587.4166,-618 599.3766,-618"/>
<polygon fill="#191970" stroke="#191970" points="562.6402,-614.5001 552.6402,-618 562.6402,-621.5001 562.6402,-614.5001"/>
</g>
<!-- Node247 -->
<g id="node10" class="node">
<title>Node247</title>
<g id="a_node10"><a xlink:href="net_8c.html#a7437c90770ffd13685e6a77799b4753b" target="_top" xlink:title="coap_accept_endpoint">
<polygon fill="#ffffff" stroke="#000000" points="1252,-589.5 1252,-608.5 1366,-608.5 1366,-589.5 1252,-589.5"/>
<text text-anchor="middle" x="1309" y="-596.5" font-family="Helvetica,sans-Serif" font-size="10.00" fill="#000000">coap_accept_endpoint</text>
</a>
</g>
</g>
<!-- Node246&#45;&gt;Node247 -->
<g id="edge9" class="edge">
<title>Node246&#45;&gt;Node247</title>
<path fill="none" stroke="#191970" d="M741.9526,-615.7427C872.5249,-611.8874 1135.6263,-604.119 1251.725,-600.6911"/>
<polygon fill="#191970" stroke="#191970" points="741.5339,-612.2534 731.6416,-616.0471 741.7406,-619.2504 741.5339,-612.2534"/>
</g>
<!-- Node248 -->
<g id="node11" class="node">
<title>Node248</title>
<g id="a_node11"><a xlink:href="net_8h.html#a0748d791fd2af516dd93fbadb660d440" target="_top" xlink:title="For applications with their own message loop, reads all data from the network. ">
<polygon fill="#ffffff" stroke="#000000" points="1704,-494.5 1704,-513.5 1766,-513.5 1766,-494.5 1704,-494.5"/>
<text text-anchor="middle" x="1735" y="-501.5" font-family="Helvetica,sans-Serif" font-size="10.00" fill="#000000">coap_read</text>
</a>
</g>
</g>
<!-- Node247&#45;&gt;Node248 -->
<g id="edge10" class="edge">
<title>Node247&#45;&gt;Node248</title>
<path fill="none" stroke="#191970" d="M1376.1838,-593.1977C1449.3657,-585.5509 1569.1897,-569.1249 1668,-537 1686.1266,-531.1068 1705.5276,-521.1005 1718.7627,-513.648"/>
<polygon fill="#191970" stroke="#191970" points="1375.7672,-589.7219 1366.1742,-594.2191 1376.4779,-596.6857 1375.7672,-589.7219"/>
</g>
<!-- Node249 -->
<g id="node12" class="node">
<title>Node249</title>
<g id="a_node12"><a xlink:href="coap__io_8c.html#a75a7c93e10ca7858449ba304aad4ea37" target="_top" xlink:title="coap_run_once">
<polygon fill="#ffffff" stroke="#000000" points="2049,-95.5 2049,-114.5 2132,-114.5 2132,-95.5 2049,-95.5"/>
<text text-anchor="middle" x="2090.5" y="-102.5" font-family="Helvetica,sans-Serif" font-size="10.00" fill="#000000">coap_run_once</text>
</a>
</g>
</g>
<!-- Node248&#45;&gt;Node249 -->
<g id="edge11" class="edge">
<title>Node248&#45;&gt;Node249</title>
<path fill="none" stroke="#191970" d="M1756.4315,-488.2768C1759.7238,-485.6161 1763.0168,-482.8045 1766,-480 1783.6683,-463.3903 1783.0974,-454.1902 1802,-439 1840.7645,-407.8487 1863.2256,-418.4773 1900,-385 1948.8037,-340.5718 2058.5137,-158.7334 2084.7737,-114.6568"/>
<polygon fill="#191970" stroke="#191970" points="1754.18,-485.5937 1748.4252,-494.4893 1758.4713,-491.124 1754.18,-485.5937"/>
</g>
<!-- Node250 -->
<g id="node13" class="node">
<title>Node250</title>
<g id="a_node13"><a xlink:href="net_8h.html#a9900c032b74bd57f67d489484a2b3207" target="_top" xlink:title="Handles retransmissions of confirmable messages. ">
<polygon fill="#ffffff" stroke="#000000" points="1808,-356.5 1808,-375.5 1894,-375.5 1894,-356.5 1808,-356.5"/>
<text text-anchor="middle" x="1851" y="-363.5" font-family="Helvetica,sans-Serif" font-size="10.00" fill="#000000">coap_retransmit</text>
</a>
</g>
</g>
<!-- Node248&#45;&gt;Node250 -->
<g id="edge12" class="edge">
<title>Node248&#45;&gt;Node250</title>
<path fill="none" stroke="#191970" d="M1758.5296,-488.0354C1761.2659,-485.5544 1763.8443,-482.8579 1766,-480 1791.9434,-445.6061 1772.6995,-421.583 1802,-390 1807.6694,-383.889 1815.2311,-379.1434 1822.7142,-375.5465"/>
<polygon fill="#191970" stroke="#191970" points="1756.2085,-485.4107 1750.619,-494.4112 1760.6013,-490.8609 1756.2085,-485.4107"/>
</g>
<!-- Node252 -->
<g id="node15" class="node">
<title>Node252</title>
<g id="a_node15"><a xlink:href="net_8h.html#a5854b1394bfddd574e48af116e3aaaf9" target="_top" xlink:title="Sends an RST message with code 0 for the specified request to dst. ">
<polygon fill="#ffffff" stroke="#000000" points="2050.5,-190.5 2050.5,-209.5 2130.5,-209.5 2130.5,-190.5 2050.5,-190.5"/>
<text text-anchor="middle" x="2090.5" y="-197.5" font-family="Helvetica,sans-Serif" font-size="10.00" fill="#000000">coap_send_rst</text>
</a>
</g>
</g>
<!-- Node248&#45;&gt;Node252 -->
<g id="edge18" class="edge">
<title>Node248&#45;&gt;Node252</title>
<path fill="none" stroke="#191970" d="M1775.898,-492.566C1835.0898,-474.1625 1944.9755,-432.786 2013,-363 2058.712,-316.1043 2081.4401,-237.1379 2088.2448,-209.7231"/>
<polygon fill="#191970" stroke="#191970" points="1774.7006,-489.2718 1766.1519,-495.5304 1776.7376,-495.9689 1774.7006,-489.2718"/>
</g>
<!-- Node251 -->
<g id="node14" class="node">
<title>Node251</title>
<g id="a_node14"><a xlink:href="net_8h.html#aaac86ac50793f309678e4951ecf8863f" target="_top" xlink:title="For applications with their own message loop, send all pending retransmits and return the list of soc...">
<polygon fill="#ffffff" stroke="#000000" points="1942.5,-38.5 1942.5,-57.5 2006.5,-57.5 2006.5,-38.5 1942.5,-38.5"/>
<text text-anchor="middle" x="1974.5" y="-45.5" font-family="Helvetica,sans-Serif" font-size="10.00" fill="#000000">coap_write</text>
</a>
</g>
</g>
<!-- Node250&#45;&gt;Node251 -->
<g id="edge13" class="edge">
<title>Node250&#45;&gt;Node251</title>
<path fill="none" stroke="#191970" d="M1858.2109,-346.6755C1872.6992,-307.9397 1906.4839,-218.0729 1936,-143 1948.3069,-111.698 1963.4266,-74.8347 1970.4979,-57.6832"/>
<polygon fill="#191970" stroke="#191970" points="1854.8772,-345.5978 1854.6557,-356.1904 1861.4345,-348.048 1854.8772,-345.5978"/>
</g>
<!-- Node250&#45;&gt;Node252 -->
<g id="edge17" class="edge">
<title>Node250&#45;&gt;Node252</title>
<path fill="none" stroke="#191970" d="M1904.2385,-366.3995C1938.1682,-364.1819 1981.5101,-356.5157 2013,-334 2058.0341,-301.8 2080.7744,-234.6539 2087.9394,-209.6533"/>
<polygon fill="#191970" stroke="#191970" points="1903.8418,-362.9152 1894.0343,-366.9232 1904.2006,-369.906 1903.8418,-362.9152"/>
</g>
<!-- Node253 -->
<g id="node16" class="node">
<title>Node253</title>
<g id="a_node16"><a xlink:href="libcoap_8h.html#a5d1fb0b44497970b0f75fa0b38570a82" target="_top" xlink:title="coap_cleanup">
<polygon fill="#ffffff" stroke="#000000" points="1936,-152.5 1936,-171.5 2013,-171.5 2013,-152.5 1936,-152.5"/>
<text text-anchor="middle" x="1974.5" y="-159.5" font-family="Helvetica,sans-Serif" font-size="10.00" fill="#000000">coap_cleanup</text>
</a>
</g>
</g>
<!-- Node250&#45;&gt;Node253 -->
<g id="edge16" class="edge">
<title>Node250&#45;&gt;Node253</title>
<path fill="none" stroke="#191970" d="M1862.0161,-347.8034C1887.3744,-305.916 1949.1841,-203.8173 1968.5778,-171.7824"/>
<polygon fill="#191970" stroke="#191970" points="1858.9758,-346.0671 1856.791,-356.4343 1864.964,-349.6924 1858.9758,-346.0671"/>
</g>
<!-- Node251&#45;&gt;Node249 -->
<g id="edge14" class="edge">
<title>Node251&#45;&gt;Node249</title>
<path fill="none" stroke="#191970" d="M2003.0669,-62.0372C2024.2014,-72.4222 2052.4299,-86.2931 2071.0209,-95.4284"/>
<polygon fill="#191970" stroke="#191970" points="2004.4344,-58.8094 1993.9158,-57.5405 2001.3472,-65.092 2004.4344,-58.8094"/>
</g>
<!-- Node251&#45;&gt;Node252 -->
<g id="edge15" class="edge">
<title>Node251&#45;&gt;Node252</title>
<path fill="none" stroke="#191970" d="M2002.2448,-63.0541C2006.0836,-65.7583 2009.8012,-68.7593 2013,-72 2031.9795,-91.2278 2071.2794,-163.7104 2085.3496,-190.2154"/>
<polygon fill="#191970" stroke="#191970" points="2004.1069,-60.0903 1993.8017,-57.6301 2000.3234,-65.9798 2004.1069,-60.0903"/>
</g>
<!-- Node254&#45;&gt;Node250 -->
<g id="edge53" class="edge">
<title>Node254&#45;&gt;Node250</title>
<path fill="none" stroke="#191970" d="M538.766,-364.3229C642.5247,-393.8101 920.7701,-466 1158,-466 1158,-466 1158,-466 1616,-466 1686.7058,-466 1705.1071,-448.9356 1766,-413 1784.4363,-402.1199 1783.3363,-391.4852 1802,-381 1805.6455,-378.952 1809.6041,-377.1504 1813.6378,-375.5737"/>
<polygon fill="#191970" stroke="#191970" points="539.5661,-360.9115 528.989,-361.5235 537.6392,-367.641 539.5661,-360.9115"/>
</g>
<!-- Node255 -->
<g id="node18" class="node">
<title>Node255</title>
<g id="a_node18"><a xlink:href="net_8h.html#ab0b0b5db03427c4313c01ec2b12cf8ed" target="_top" xlink:title="Sends a CoAP message to given peer. ">
<polygon fill="#ffffff" stroke="#000000" points="633.5,-171.5 633.5,-190.5 697.5,-190.5 697.5,-171.5 633.5,-171.5"/>
<text text-anchor="middle" x="665.5" y="-178.5" font-family="Helvetica,sans-Serif" font-size="10.00" fill="#000000">coap_send</text>
</a>
</g>
</g>
<!-- Node254&#45;&gt;Node255 -->
<g id="edge20" class="edge">
<title>Node254&#45;&gt;Node255</title>
<path fill="none" stroke="#191970" d="M513.6559,-335.097C548.6044,-299.63 628.6233,-218.4239 656.0626,-190.5774"/>
<polygon fill="#191970" stroke="#191970" points="511.0679,-332.7368 506.5421,-342.3163 516.054,-337.65 511.0679,-332.7368"/>
</g>
<!-- Node255&#45;&gt;Node252 -->
<g id="edge51" class="edge">
<title>Node255&#45;&gt;Node252</title>
<path fill="none" stroke="#191970" d="M683.0043,-164.5652C703.516,-146.4248 739.3796,-118.0662 776,-105 871.9796,-70.7545 902.594,-86 1004.5,-86 1004.5,-86 1004.5,-86 1851,-86 1924.5686,-86 1948.5816,-84.4667 2013,-120 2045.1713,-137.7457 2072.2786,-173.2175 2084.1175,-190.3282"/>
<polygon fill="#191970" stroke="#191970" points="680.5029,-162.1084 675.4386,-171.4145 685.2009,-167.2978 680.5029,-162.1084"/>
</g>
<!-- Node256 -->
<g id="node19" class="node">
<title>Node256</title>
<g id="a_node19"><a xlink:href="coap__session_8h.html#ab3f9f60c0a4857c147fef5721025944c" target="_top" xlink:title="Send a ping message for the session. ">
<polygon fill="#ffffff" stroke="#000000" points="1402,-.5 1402,-19.5 1528,-19.5 1528,-.5 1402,-.5"/>
<text text-anchor="middle" x="1465" y="-7.5" font-family="Helvetica,sans-Serif" font-size="10.00" fill="#000000">coap_session_send_ping</text>
</a>
</g>
</g>
<!-- Node255&#45;&gt;Node256 -->
<g id="edge21" class="edge">
<title>Node255&#45;&gt;Node256</title>
<path fill="none" stroke="#191970" d="M673.6034,-162.1138C688.5699,-129.8101 723.8542,-64.577 776,-35 864.8626,15.4027 902.3384,-10 1004.5,-10 1004.5,-10 1004.5,-10 1158,-10 1242.3451,-10 1339.7249,-10 1401.7937,-10"/>
<polygon fill="#191970" stroke="#191970" points="670.3565,-160.8009 669.4625,-171.358 676.7448,-163.6626 670.3565,-160.8009"/>
</g>
<!-- Node257 -->
<g id="node20" class="node">
<title>Node257</title>
<g id="a_node20"><a xlink:href="net_8h.html#aba278b109415057d15196fa46afee970" target="_top" xlink:title="Sends an ACK message with code 0 for the specified request to dst. ">
<polygon fill="#ffffff" stroke="#000000" points="800,-152.5 800,-171.5 885,-171.5 885,-152.5 800,-152.5"/>
<text text-anchor="middle" x="842.5" y="-159.5" font-family="Helvetica,sans-Serif" font-size="10.00" fill="#000000">coap_send_ack</text>
</a>
</g>
</g>
<!-- Node255&#45;&gt;Node257 -->
<g id="edge23" class="edge">
<title>Node255&#45;&gt;Node257</title>
<path fill="none" stroke="#191970" d="M707.7543,-176.4642C735.5428,-173.4813 771.7911,-169.5902 799.6912,-166.5953"/>
<polygon fill="#191970" stroke="#191970" points="707.1227,-173.0118 697.5534,-177.5592 707.8698,-179.9718 707.1227,-173.0118"/>
</g>
<!-- Node259 -->
<g id="node22" class="node">
<title>Node259</title>
<g id="a_node22"><a xlink:href="net_8h.html#a7bb944fc52f772655356d95724317401" target="_top" xlink:title="Dispatches the PDUs from the receive queue in given context. ">
<polygon fill="#ffffff" stroke="#000000" points="1118,-228.5 1118,-247.5 1198,-247.5 1198,-228.5 1118,-228.5"/>
<text text-anchor="middle" x="1158" y="-235.5" font-family="Helvetica,sans-Serif" font-size="10.00" fill="#000000">coap_dispatch</text>
</a>
</g>
</g>
<!-- Node255&#45;&gt;Node259 -->
<g id="edge50" class="edge">
<title>Node255&#45;&gt;Node259</title>
<path fill="none" stroke="#191970" d="M707.7991,-185.8955C801.6024,-196.752 1026.0087,-222.7238 1117.8142,-233.3491"/>
<polygon fill="#191970" stroke="#191970" points="708.1504,-182.4129 697.8143,-184.7399 707.3456,-189.3665 708.1504,-182.4129"/>
</g>
<!-- Node265 -->
<g id="node28" class="node">
<title>Node265</title>
<g id="a_node28"><a xlink:href="resource_8c.html#ae1a91e254baca4f43b7896f54a8d9944" target="_top" xlink:title="coap_notify_observers">
<polygon fill="#ffffff" stroke="#000000" points="1100.5,-38.5 1100.5,-57.5 1215.5,-57.5 1215.5,-38.5 1100.5,-38.5"/>
<text text-anchor="middle" x="1158" y="-45.5" font-family="Helvetica,sans-Serif" font-size="10.00" fill="#000000">coap_notify_observers</text>
</a>
</g>
</g>
<!-- Node255&#45;&gt;Node265 -->
<g id="edge52" class="edge">
<title>Node255&#45;&gt;Node265</title>
<path fill="none" stroke="#191970" d="M677.2554,-163.0812C695.1199,-137.6007 731.7473,-91.7968 776,-72 882.605,-24.3094 1022.8785,-30.7887 1100.3475,-39.5373"/>
<polygon fill="#191970" stroke="#191970" points="674.2824,-161.2287 671.5433,-171.4634 680.067,-165.1707 674.2824,-161.2287"/>
</g>
<!-- Node267 -->
<g id="node30" class="node">
<title>Node267</title>
<g id="a_node30"><a xlink:href="net_8h.html#ab31cd76353f751ec4dc5c033152df575" target="_top" xlink:title="Sends an error response with code code for request request to dst. ">
<polygon fill="#ffffff" stroke="#000000" points="798,-114.5 798,-133.5 887,-133.5 887,-114.5 798,-114.5"/>
<text text-anchor="middle" x="842.5" y="-121.5" font-family="Helvetica,sans-Serif" font-size="10.00" fill="#000000">coap_send_error</text>
</a>
</g>
</g>
<!-- Node255&#45;&gt;Node267 -->
<g id="edge40" class="edge">
<title>Node255&#45;&gt;Node267</title>
<path fill="none" stroke="#191970" d="M701.8567,-167.955C723.3331,-160.3852 751.1079,-150.8301 776,-143 786.3084,-139.7574 797.5879,-136.4464 807.8816,-133.5159"/>
<polygon fill="#191970" stroke="#191970" points="700.4216,-164.7502 692.1635,-171.3874 702.7582,-171.3487 700.4216,-164.7502"/>
</g>
<!-- Node268 -->
<g id="node31" class="node">
<title>Node268</title>
<g id="a_node31"><a xlink:href="net_8h.html#a6aa830b46188549b51773f724eb8e752" target="_top" xlink:title="Helper funktion to create and send a message with type (usually ACK or RST). ">
<polygon fill="#ffffff" stroke="#000000" points="776,-228.5 776,-247.5 909,-247.5 909,-228.5 776,-228.5"/>
<text text-anchor="middle" x="842.5" y="-235.5" font-family="Helvetica,sans-Serif" font-size="10.00" fill="#000000">coap_send_message_type</text>
</a>
</g>
</g>
<!-- Node255&#45;&gt;Node268 -->
<g id="edge42" class="edge">
<title>Node255&#45;&gt;Node268</title>
<path fill="none" stroke="#191970" d="M704.7995,-193.6558C737.4272,-204.163 783.1325,-218.8816 812.7775,-228.4284"/>
<polygon fill="#191970" stroke="#191970" points="705.7173,-190.2744 695.1258,-190.5405 703.5715,-196.9374 705.7173,-190.2744"/>
</g>
<!-- Node269 -->
<g id="node32" class="node">
<title>Node269</title>
<g id="a_node32"><a xlink:href="net_8c.html#a1a280312c4bad55cf10243b9b9c3e966" target="_top" xlink:title="handle_request">
<polygon fill="#ffffff" stroke="#000000" points="963,-266.5 963,-285.5 1046,-285.5 1046,-266.5 963,-266.5"/>
<text text-anchor="middle" x="1004.5" y="-273.5" font-family="Helvetica,sans-Serif" font-size="10.00" fill="#000000">handle_request</text>
</a>
</g>
</g>
<!-- Node255&#45;&gt;Node269 -->
<g id="edge46" class="edge">
<title>Node255&#45;&gt;Node269</title>
<path fill="none" stroke="#191970" d="M683.0043,-197.4348C703.516,-215.5752 739.3796,-243.9338 776,-257 838.2368,-279.2061 915.8379,-280.6026 962.709,-278.8399"/>
<polygon fill="#191970" stroke="#191970" points="685.2009,-194.7022 675.4386,-190.5855 680.5029,-199.8916 685.2009,-194.7022"/>
</g>
<!-- Node270 -->
<g id="node33" class="node">
<title>Node270</title>
<g id="a_node33"><a xlink:href="net_8c.html#ac4cbcfd073489b57805db665ce3d0681" target="_top" xlink:title="handle_signaling">
<polygon fill="#ffffff" stroke="#000000" points="960,-342.5 960,-361.5 1049,-361.5 1049,-342.5 960,-342.5"/>
<text text-anchor="middle" x="1004.5" y="-349.5" font-family="Helvetica,sans-Serif" font-size="10.00" fill="#000000">handle_signaling</text>
</a>
</g>
</g>
<!-- Node255&#45;&gt;Node270 -->
<g id="edge48" class="edge">
<title>Node255&#45;&gt;Node270</title>
<path fill="none" stroke="#191970" d="M679.931,-198.2827C699.504,-220.6698 736.5754,-259.485 776,-282 834.9067,-315.641 911.7749,-334.864 959.6334,-344.3635"/>
<polygon fill="#191970" stroke="#191970" points="682.4858,-195.8854 673.3177,-190.5753 677.1733,-200.4437 682.4858,-195.8854"/>
</g>
<!-- Node256&#45;&gt;Node251 -->
<g id="edge22" class="edge">
<title>Node256&#45;&gt;Node251</title>
<path fill="none" stroke="#191970" d="M1538.0674,-8.6204C1624.8501,-8.0339 1773.7576,-10.3488 1900,-29 1914.2611,-31.107 1929.7488,-34.8178 1942.8899,-38.4042"/>
<polygon fill="#191970" stroke="#191970" points="1538.0274,-5.1205 1528.0566,-8.7028 1538.0851,-12.1202 1538.0274,-5.1205"/>
</g>
<!-- Node258 -->
<g id="node21" class="node">
<title>Node258</title>
<g id="a_node21"><a xlink:href="net_8c.html#af838d89087ad96495f8ed7f1a9297168" target="_top" xlink:title="handle_response">
<polygon fill="#ffffff" stroke="#000000" points="959.5,-152.5 959.5,-171.5 1049.5,-171.5 1049.5,-152.5 959.5,-152.5"/>
<text text-anchor="middle" x="1004.5" y="-159.5" font-family="Helvetica,sans-Serif" font-size="10.00" fill="#000000">handle_response</text>
</a>
</g>
</g>
<!-- Node257&#45;&gt;Node258 -->
<g id="edge24" class="edge">
<title>Node257&#45;&gt;Node258</title>
<path fill="none" stroke="#191970" d="M895.2842,-162C915.9851,-162 939.4959,-162 959.3874,-162"/>
<polygon fill="#191970" stroke="#191970" points="895.0636,-158.5001 885.0636,-162 895.0636,-165.5001 895.0636,-158.5001"/>
</g>
<!-- Node264 -->
<g id="node27" class="node">
<title>Node264</title>
<g id="a_node27"><a xlink:href="net_8h.html#ade36148140b152d713b23d17bbcf0024" target="_top" xlink:title="Returns a new message id and updates session&#45;&gt;tx_mid accordingly. ">
<polygon fill="#ffffff" stroke="#000000" points="945,-114.5 945,-133.5 1064,-133.5 1064,-114.5 945,-114.5"/>
<text text-anchor="middle" x="1004.5" y="-121.5" font-family="Helvetica,sans-Serif" font-size="10.00" fill="#000000">coap_new_message_id</text>
</a>
</g>
</g>
<!-- Node257&#45;&gt;Node264 -->
<g id="edge35" class="edge">
<title>Node257&#45;&gt;Node264</title>
<path fill="none" stroke="#191970" d="M893.2148,-150.1039C915.9856,-144.7626 942.4867,-138.5463 963.9145,-133.5201"/>
<polygon fill="#191970" stroke="#191970" points="892.3159,-146.7197 883.3794,-152.411 893.9145,-153.5347 892.3159,-146.7197"/>
</g>
<!-- Node258&#45;&gt;Node259 -->
<g id="edge25" class="edge">
<title>Node258&#45;&gt;Node259</title>
<path fill="none" stroke="#191970" d="M1039.8,-175.4128C1047.8359,-178.6936 1056.2782,-182.3236 1064,-186 1092.1211,-199.3885 1123.5549,-217.4379 1142.0123,-228.3697"/>
<polygon fill="#191970" stroke="#191970" points="1040.86,-172.0673 1030.2753,-171.6046 1038.2612,-178.567 1040.86,-172.0673"/>
</g>
<!-- Node259&#45;&gt;Node252 -->
<g id="edge34" class="edge">
<title>Node259&#45;&gt;Node252</title>
<path fill="none" stroke="#191970" d="M1180.984,-222.9816C1230.6439,-192.0267 1352.5671,-124 1465,-124 1465,-124 1465,-124 1851,-124 1923.4935,-124 1945.5561,-116.4174 2013,-143 2040.6589,-153.9016 2067.3227,-177.2004 2081.0033,-190.386"/>
<polygon fill="#191970" stroke="#191970" points="1178.8816,-220.1701 1172.3048,-228.4765 1182.6261,-226.0844 1178.8816,-220.1701"/>
</g>
<!-- Node260 -->
<g id="node23" class="node">
<title>Node260</title>
<g id="a_node23"><a xlink:href="net_8c.html#acd36f6fba6d30ab9557e0e6521f4a088" target="_top" xlink:title="coap_read_session">
<polygon fill="#ffffff" stroke="#000000" points="1565.5,-272.5 1565.5,-291.5 1666.5,-291.5 1666.5,-272.5 1565.5,-272.5"/>
<text text-anchor="middle" x="1616" y="-279.5" font-family="Helvetica,sans-Serif" font-size="10.00" fill="#000000">coap_read_session</text>
</a>
</g>
</g>
<!-- Node259&#45;&gt;Node260 -->
<g id="edge26" class="edge">
<title>Node259&#45;&gt;Node260</title>
<path fill="none" stroke="#191970" d="M1208.0872,-249.3874C1222.2236,-252.2565 1237.6603,-255.0668 1252,-257 1363.2694,-272.0008 1494.9562,-278.2139 1565.4451,-280.6168"/>
<polygon fill="#191970" stroke="#191970" points="1208.5614,-245.9111 1198.0579,-247.2996 1207.1347,-252.7642 1208.5614,-245.9111"/>
</g>
<!-- Node261 -->
<g id="node24" class="node">
<title>Node261</title>
<g id="a_node24"><a xlink:href="net_8h.html#ae6b8ca457dd41f23372f9e9a7159312b" target="_top" xlink:title="Parses and interprets a CoAP datagram with context ctx. ">
<polygon fill="#ffffff" stroke="#000000" points="1257,-228.5 1257,-247.5 1361,-247.5 1361,-228.5 1257,-228.5"/>
<text text-anchor="middle" x="1309" y="-235.5" font-family="Helvetica,sans-Serif" font-size="10.00" fill="#000000">coap_handle_dgram</text>
</a>
</g>
</g>
<!-- Node259&#45;&gt;Node261 -->
<g id="edge28" class="edge">
<title>Node259&#45;&gt;Node261</title>
<path fill="none" stroke="#191970" d="M1208.0746,-238C1223.7121,-238 1240.9972,-238 1256.7783,-238"/>
<polygon fill="#191970" stroke="#191970" points="1208.0688,-234.5001 1198.0688,-238 1208.0688,-241.5001 1208.0688,-234.5001"/>
</g>
<!-- Node260&#45;&gt;Node248 -->
<g id="edge27" class="edge">
<title>Node260&#45;&gt;Node248</title>
<path fill="none" stroke="#191970" d="M1625.943,-300.5491C1650.2053,-345.8116 1711.7796,-460.6812 1729.9058,-494.4965"/>
<polygon fill="#191970" stroke="#191970" points="1628.9225,-298.6991 1621.1133,-291.5391 1622.753,-302.0063 1628.9225,-298.6991"/>
</g>
<!-- Node261&#45;&gt;Node252 -->
<g id="edge33" class="edge">
<title>Node261&#45;&gt;Node252</title>
<path fill="none" stroke="#191970" d="M1347.4125,-225.4166C1364.0091,-220.5712 1383.7676,-215.5832 1402,-213 1646.139,-178.4102 1943.7916,-191.1177 2050.2605,-197.3631"/>
<polygon fill="#191970" stroke="#191970" points="1346.0956,-222.1578 1337.5293,-228.3923 1348.1138,-228.8606 1346.0956,-222.1578"/>
</g>
<!-- Node262 -->
<g id="node25" class="node">
<title>Node262</title>
<g id="a_node25"><a xlink:href="net_8c.html#a8534f7860b14e0743529daff196a27ce" target="_top" xlink:title="coap_handle_dgram_for\l_proto">
<polygon fill="#ffffff" stroke="#000000" points="1405,-223 1405,-253 1525,-253 1525,-223 1405,-223"/>
<text text-anchor="start" x="1413" y="-241" font-family="Helvetica,sans-Serif" font-size="10.00" fill="#000000">coap_handle_dgram_for</text>
<text text-anchor="middle" x="1465" y="-230" font-family="Helvetica,sans-Serif" font-size="10.00" fill="#000000">_proto</text>
</a>
</g>
</g>
<!-- Node261&#45;&gt;Node262 -->
<g id="edge29" class="edge">
<title>Node261&#45;&gt;Node262</title>
<path fill="none" stroke="#191970" d="M1371.3899,-238C1382.453,-238 1393.9529,-238 1404.9496,-238"/>
<polygon fill="#191970" stroke="#191970" points="1371.3797,-234.5001 1361.3797,-238 1371.3797,-241.5001 1371.3797,-234.5001"/>
</g>
<!-- Node262&#45;&gt;Node260 -->
<g id="edge30" class="edge">
<title>Node262&#45;&gt;Node260</title>
<path fill="none" stroke="#191970" d="M1526.2652,-255.8521C1545.7188,-261.5207 1566.4807,-267.5705 1583.1291,-272.4217"/>
<polygon fill="#191970" stroke="#191970" points="1527.1232,-252.4566 1516.5433,-253.0192 1525.1648,-259.1771 1527.1232,-252.4566"/>
</g>
<!-- Node263 -->
<g id="node26" class="node">
<title>Node263</title>
<g id="a_node26"><a xlink:href="net_8c.html#a44ffb4b70e537043e9a9cf344be24b92" target="_top" xlink:title="coap_read_endpoint">
<polygon fill="#ffffff" stroke="#000000" points="1564,-231.5 1564,-250.5 1668,-250.5 1668,-231.5 1564,-231.5"/>
<text text-anchor="middle" x="1616" y="-238.5" font-family="Helvetica,sans-Serif" font-size="10.00" fill="#000000">coap_read_endpoint</text>
</a>
</g>
</g>
<!-- Node262&#45;&gt;Node263 -->
<g id="edge31" class="edge">
<title>Node262&#45;&gt;Node263</title>
<path fill="none" stroke="#191970" d="M1535.1329,-239.3934C1544.8148,-239.5857 1554.615,-239.7804 1563.8923,-239.9647"/>
<polygon fill="#191970" stroke="#191970" points="1535.1807,-235.8937 1525.1131,-239.1943 1535.0415,-242.8923 1535.1807,-235.8937"/>
</g>
<!-- Node263&#45;&gt;Node248 -->
<g id="edge32" class="edge">
<title>Node263&#45;&gt;Node248</title>
<path fill="none" stroke="#191970" d="M1659.4928,-255.5596C1662.6291,-257.7171 1665.5252,-260.1833 1668,-263 1699.8161,-299.2128 1726.8361,-453.8544 1733.4521,-494.2924"/>
<polygon fill="#191970" stroke="#191970" points="1661.1691,-252.4862 1650.7543,-250.541 1657.6829,-258.5563 1661.1691,-252.4862"/>
</g>
<!-- Node264&#45;&gt;Node265 -->
<g id="edge36" class="edge">
<title>Node264&#45;&gt;Node265</title>
<path fill="none" stroke="#191970" d="M1033.2943,-109.7435C1064.1175,-94.4826 1112.1588,-70.6966 1138.717,-57.5473"/>
<polygon fill="#191970" stroke="#191970" points="1031.3496,-106.8008 1023.9409,-114.3745 1034.4556,-113.074 1031.3496,-106.8008"/>
</g>
<!-- Node266 -->
<g id="node29" class="node">
<title>Node266</title>
<g id="a_node29"><a xlink:href="resource_8h.html#a579bcb559463d3a872831c18d8d9a1c1" target="_top" xlink:title="Checks for all known resources, if they are dirty and notifies subscribed observers. ">
<polygon fill="#ffffff" stroke="#000000" points="1802,-38.5 1802,-57.5 1900,-57.5 1900,-38.5 1802,-38.5"/>
<text text-anchor="middle" x="1851" y="-45.5" font-family="Helvetica,sans-Serif" font-size="10.00" fill="#000000">coap_check_notify</text>
</a>
</g>
</g>
<!-- Node265&#45;&gt;Node266 -->
<g id="edge37" class="edge">
<title>Node265&#45;&gt;Node266</title>
<path fill="none" stroke="#191970" d="M1225.7932,-48C1288.0004,-48 1382.7047,-48 1465,-48 1465,-48 1465,-48 1616,-48 1680.2578,-48 1754.399,-48 1801.94,-48"/>
<polygon fill="#191970" stroke="#191970" points="1225.7139,-44.5001 1215.7139,-48 1225.7139,-51.5001 1225.7139,-44.5001"/>
</g>
<!-- Node266&#45;&gt;Node251 -->
<g id="edge38" class="edge">
<title>Node266&#45;&gt;Node251</title>
<path fill="none" stroke="#191970" d="M1910.2085,-48C1921.2213,-48 1932.3421,-48 1942.1665,-48"/>
<polygon fill="#191970" stroke="#191970" points="1910.1654,-44.5001 1900.1653,-48 1910.1653,-51.5001 1910.1654,-44.5001"/>
</g>
<!-- Node266&#45;&gt;Node253 -->
<g id="edge39" class="edge">
<title>Node266&#45;&gt;Node253</title>
<path fill="none" stroke="#191970" d="M1868.8951,-64.5185C1895.0439,-88.6559 1942.8744,-132.8071 1963.9971,-152.305"/>
<polygon fill="#191970" stroke="#191970" points="1871.2516,-61.9306 1861.5295,-57.7196 1866.5036,-67.0742 1871.2516,-61.9306"/>
</g>
<!-- Node267&#45;&gt;Node264 -->
<g id="edge41" class="edge">
<title>Node267&#45;&gt;Node264</title>
<path fill="none" stroke="#191970" d="M897.4856,-124C912.709,-124 929.304,-124 944.7829,-124"/>
<polygon fill="#191970" stroke="#191970" points="897.1961,-120.5001 887.196,-124 897.196,-127.5001 897.1961,-120.5001"/>
</g>
<!-- Node268&#45;&gt;Node252 -->
<g id="edge45" class="edge">
<title>Node268&#45;&gt;Node252</title>
<path fill="none" stroke="#191970" d="M866.1298,-252.8059C891.0423,-268.1096 928.8686,-290.4001 945,-295 1167.5088,-358.448 1233.6219,-320 1465,-320 1465,-320 1465,-320 1851,-320 1949.13,-320 2048.1999,-238.4796 2079.9971,-209.8201"/>
<polygon fill="#191970" stroke="#191970" points="867.9456,-249.8136 857.5998,-247.5295 864.2631,-255.7667 867.9456,-249.8136"/>
</g>
<!-- Node268&#45;&gt;Node259 -->
<g id="edge43" class="edge">
<title>Node268&#45;&gt;Node259</title>
<path fill="none" stroke="#191970" d="M919.2431,-238C981.7913,-238 1067.6581,-238 1117.5487,-238"/>
<polygon fill="#191970" stroke="#191970" points="919.024,-234.5001 909.0239,-238 919.0239,-241.5001 919.024,-234.5001"/>
</g>
<!-- Node268&#45;&gt;Node264 -->
<g id="edge44" class="edge">
<title>Node268&#45;&gt;Node264</title>
<path fill="none" stroke="#191970" d="M862.3275,-221.9234C875.8007,-210.779 893.8561,-195.4086 909,-181 925.8545,-164.9638 925.2984,-155.3726 945,-143 951.0608,-139.1938 957.9513,-136.0873 964.8409,-133.5727"/>
<polygon fill="#191970" stroke="#191970" points="860.1055,-219.2192 854.5977,-228.2699 864.5475,-224.6294 860.1055,-219.2192"/>
</g>
<!-- Node269&#45;&gt;Node259 -->
<g id="edge47" class="edge">
<title>Node269&#45;&gt;Node259</title>
<path fill="none" stroke="#191970" d="M1053.1352,-263.96C1074.5799,-258.6512 1099.4226,-252.5012 1119.544,-247.5201"/>
<polygon fill="#191970" stroke="#191970" points="1052.1004,-260.6104 1043.2345,-266.411 1053.7826,-267.4053 1052.1004,-260.6104"/>
</g>
<!-- Node270&#45;&gt;Node259 -->
<g id="edge49" class="edge">
<title>Node270&#45;&gt;Node259</title>
<path fill="none" stroke="#191970" d="M1025.6069,-336.3245C1057.8168,-312.4031 1118.2953,-267.4875 1144.8878,-247.738"/>
<polygon fill="#191970" stroke="#191970" points="1023.2647,-333.7043 1017.3233,-342.4765 1027.4383,-339.324 1023.2647,-333.7043"/>
</g>
<!-- Node271&#45;&gt;Node248 -->
<g id="edge55" class="edge">
<title>Node271&#45;&gt;Node248</title>
<path fill="none" stroke="#191970" d="M1226.4763,-546.3035C1351.8411,-535.8746 1613.6357,-514.0962 1703.7406,-506.6004"/>
<polygon fill="#191970" stroke="#191970" points="1225.9091,-542.8385 1216.2337,-547.1556 1226.4895,-549.8144 1225.9091,-542.8385"/>
</g>
<!-- Node272&#45;&gt;Node250 -->
<g id="edge57" class="edge">
<title>Node272&#45;&gt;Node250</title>
<path fill="none" stroke="#191970" d="M901.3628,-401.367C964.5439,-412.5629 1067.9808,-428 1158,-428 1158,-428 1158,-428 1616,-428 1636.3062,-428 1758.9506,-392.9431 1818.5444,-375.5516"/>
<polygon fill="#191970" stroke="#191970" points="901.6558,-397.8636 891.1945,-399.54 900.4179,-404.7533 901.6558,-397.8636"/>
</g>
<!-- Node272&#45;&gt;Node259 -->
<g id="edge59" class="edge">
<title>Node272&#45;&gt;Node259</title>
<path fill="none" stroke="#191970" d="M916.4562,-398.7602C961.8738,-400.6295 1019.6406,-396.4313 1064,-371 1114.7769,-341.8896 1144.8975,-272.8976 1154.5677,-247.5531"/>
<polygon fill="#191970" stroke="#191970" points="916.5419,-395.26 906.3744,-398.2385 916.1801,-402.2506 916.5419,-395.26"/>
</g>
<!-- Node272&#45;&gt;Node270 -->
<g id="edge58" class="edge">
<title>Node272&#45;&gt;Node270</title>
<path fill="none" stroke="#191970" d="M893.2148,-378.1039C915.9856,-372.7626 942.4867,-366.5463 963.9145,-361.5201"/>
<polygon fill="#191970" stroke="#191970" points="892.3159,-374.7197 883.3794,-380.411 893.9145,-381.5347 892.3159,-374.7197"/>
</g>
<!-- Node273&#45;&gt;Node248 -->
<g id="edge62" class="edge">
<title>Node273&#45;&gt;Node248</title>
<path fill="none" stroke="#191970" d="M368.7904,-612.6916C388.2588,-621.1599 414.6323,-631.442 439,-637 537.4908,-659.4646 564.4798,-656 665.5,-656 665.5,-656 665.5,-656 1465,-656 1581.7298,-656 1694.5668,-546.7848 1726.2377,-513.5083"/>
<polygon fill="#191970" stroke="#191970" points="370.1167,-609.451 359.5572,-608.5863 367.2727,-615.8472 370.1167,-609.451"/>
</g>
</g>
</svg>
        <g id="navigator" transform="translate(0 0)" fill="#404254">
                <rect fill="#f2f5e9" fill-opacity="0.5" stroke="#606060" stroke-width=".5" x="0" y="0" width="60" height="60"/>
                <use id="zoomplus" xlink:href="#zoomPlus" x="17" y="9" onmousedown="handleZoom(evt,'in')"/>
                <use id="zoomminus" xlink:href="#zoomMin" x="42" y="9" onmousedown="handleZoom(evt,'out')"/>
                <use id="reset" xlink:href="#resetDef" x="30" y="36" onmousedown="handleReset()"/>
                <g id="arrowUp" xlink:href="#dirArrow" transform="translate(30 24)" onmousedown="handlePan(0,-1)">
                  <use xlink:href="#rim" fill="#404040">
                        <set attributeName="fill" to="#808080" begin="arrowUp.mouseover" end="arrowUp.mouseout"/>
                  </use>
                  <path fill="none" stroke="white" stroke-width="1.5" d="M0,-3.0v7 M-2.5,-0.5L0,-3.0L2.5,-0.5"/>
                </g>
                <g id="arrowRight" xlink:href="#dirArrow" transform="rotate(90) translate(36 -43)" onmousedown="handlePan(1,0)">
                  <use xlink:href="#rim" fill="#404040">
                        <set attributeName="fill" to="#808080" begin="arrowRight.mouseover" end="arrowRight.mouseout"/>
                  </use>
                  <path fill="none" stroke="white" stroke-width="1.5" d="M0,-3.0v7 M-2.5,-0.5L0,-3.0L2.5,-0.5"/>
                </g>
                <g id="arrowDown" xlink:href="#dirArrow" transform="rotate(180) translate(-30 -48)" onmousedown="handlePan(0,1)">
                  <use xlink:href="#rim" fill="#404040">
                        <set attributeName="fill" to="#808080" begin="arrowDown.mouseover" end="arrowDown.mouseout"/>
                  </use>
                  <path fill="none" stroke="white" stroke-width="1.5" d="M0,-3.0v7 M-2.5,-0.5L0,-3.0L2.5,-0.5"/>
                </g>
                <g id="arrowLeft" xlink:href="#dirArrow" transform="rotate(270) translate(-36 17)" onmousedown="handlePan(-1,0)">
                  <use xlink:href="#rim" fill="#404040">
                        <set attributeName="fill" to="#808080" begin="arrowLeft.mouseover" end="arrowLeft.mouseout"/>
                  </use>
                  <path fill="none" stroke="white" stroke-width="1.5" d="M0,-3.0v7 M-2.5,-0.5L0,-3.0L2.5,-0.5"/>
                </g>
        </g>
        <svg viewBox="0 0 15 15" width="100%" height="30px" preserveAspectRatio="xMaxYMin meet">
         <g id="arrow_out" transform="scale(0.3 0.3)">
          <a xlink:href="coap__notls_8c_adaea05db98df31bd685353eb7099f356_icgraph_org.svg" target="_base">
           <rect id="button" ry="5" rx="5" y="6" x="6" height="38" width="38"
                fill="#f2f5e9" fill-opacity="0.5" stroke="#606060" stroke-width="1.0"/>
           <path id="arrow"
             d="M 11.500037,31.436501 C 11.940474,20.09759 22.043105,11.32322 32.158766,21.979434 L 37.068811,17.246167 C 37.068811,17.246167 37.088388,32 37.088388,32 L 22.160133,31.978069 C 22.160133,31.978069 26.997745,27.140456 26.997745,27.140456 C 18.528582,18.264221 13.291696,25.230495 11.500037,31.436501 z"
             style="fill:#404040;"/>
          </a>
         </g>
        </svg>
</svg>
