<?xml version="1.0" encoding="UTF-8" standalone="no"?>
<!DOCTYPE svg PUBLIC "-//W3C//DTD SVG 1.1//EN"
 "http://www.w3.org/Graphics/SVG/1.1/DTD/svg11.dtd">
<!-- Generated by graphviz version 2.40.1 (20161225.0304)
 -->
<!-- Title: coap_session_free Pages: 1 -->
<!--zoomable 368 -->
<svg id="main" version="1.1" xmlns="http://www.w3.org/2000/svg" xmlns:xlink="http://www.w3.org/1999/xlink" xml:space="preserve" onload="init(evt)">
<style type="text/css"><![CDATA[
.edge:hover path { stroke: red; }
.edge:hover polygon { stroke: red; fill: red; }
]]></style>
<script type="text/javascript"><![CDATA[
var edges = document.getElementsByTagName('g');
if (edges && edges.length) {
  for (var i=0;i<edges.length;i++) {
    if (edges[i].id.substr(0,4)=='edge') {
      edges[i].setAttribute('class','edge');
    }
  }
}
]]></script>
        <defs>
                <circle id="rim" cx="0" cy="0" r="7"/>
                <circle id="rim2" cx="0" cy="0" r="3.5"/>
                <g id="zoomPlus">
                        <use xlink:href="#rim" fill="#404040">
                                <set attributeName="fill" to="#808080" begin="zoomplus.mouseover" end="zoomplus.mouseout"/>
                        </use>
                        <path d="M-4,0h8M0,-4v8" fill="none" stroke="white" stroke-width="1.5" pointer-events="none"/>
                </g>
                <g id="zoomMin">
                        <use xlink:href="#rim" fill="#404040">
                                <set attributeName="fill" to="#808080" begin="zoomminus.mouseover" end="zoomminus.mouseout"/>
                        </use>
                        <path d="M-4,0h8" fill="none" stroke="white" stroke-width="1.5" pointer-events="none"/>
                </g>
                <g id="dirArrow">
                        <path fill="none" stroke="white" stroke-width="1.5" d="M0,-3.0v7 M-2.5,-0.5L0,-3.0L2.5,-0.5"/>
                </g>
               <g id="resetDef">
                       <use xlink:href="#rim2" fill="#404040">
                               <set attributeName="fill" to="#808080" begin="reset.mouseover" end="reset.mouseout"/>
                       </use>
               </g>
        </defs>

<script type="text/javascript">
var viewWidth = 821;
var viewHeight = 368;
var sectionId = 'dynsection-28';
</script>
<script xlink:href="svgpan.js"/>
<svg id="graph" class="graph">
<g id="viewport">
<title>coap_session_free</title>
<polygon fill="#ffffff" stroke="transparent" points="-4,4 -4,-364 817,-364 817,4 -4,4"/>
<!-- Node922 -->
<g id="node1" class="node">
<title>Node922</title>
<polygon fill="#bfbfbf" stroke="#000000" points="0,-95.5 0,-114.5 98,-114.5 98,-95.5 0,-95.5"/>
<text text-anchor="middle" x="49" y="-102.5" font-family="Helvetica,sans-Serif" font-size="10.00" fill="#000000">coap_session_free</text>
</g>
<!-- Node923 -->
<g id="node2" class="node">
<title>Node923</title>
<g id="a_node2"><a xlink:href="coap__session_8c.html#ab91ca670624ee770714727efff274c49" target="_top" xlink:title="coap_session_mfree">
<polygon fill="#ffffff" stroke="#000000" points="134,-152.5 134,-171.5 241,-171.5 241,-152.5 134,-152.5"/>
<text text-anchor="middle" x="187.5" y="-159.5" font-family="Helvetica,sans-Serif" font-size="10.00" fill="#000000">coap_session_mfree</text>
</a>
</g>
</g>
<!-- Node922&#45;&gt;Node923 -->
<g id="edge1" class="edge">
<title>Node922&#45;&gt;Node923</title>
<path fill="none" stroke="#191970" d="M72.1818,-114.5405C94.752,-123.8294 129.2712,-138.0358 154.6627,-148.4857"/>
<polygon fill="#191970" stroke="#191970" points="153.663,-151.8591 164.2426,-152.4284 156.3272,-145.3859 153.663,-151.8591"/>
</g>
<!-- Node925 -->
<g id="node4" class="node">
<title>Node925</title>
<g id="a_node4"><a xlink:href="mem_8h.html#ae7214e0c73a4d4290525873e739ed422" target="_top" xlink:title="Releases the memory that was allocated by coap_malloc_type(). ">
<polygon fill="#ffffff" stroke="#000000" points="590,-258.5 590,-277.5 673,-277.5 673,-258.5 590,-258.5"/>
<text text-anchor="middle" x="631.5" y="-265.5" font-family="Helvetica,sans-Serif" font-size="10.00" fill="#000000">coap_free_type</text>
</a>
</g>
</g>
<!-- Node922&#45;&gt;Node925 -->
<g id="edge25" class="edge">
<title>Node922&#45;&gt;Node925</title>
<path fill="none" stroke="#191970" d="M56.2654,-114.7748C81.8544,-148.2519 171.9465,-258.2499 277,-295 387.0019,-333.4811 527.5748,-300.5136 593.7891,-280.5567"/>
<polygon fill="#191970" stroke="#191970" points="594.8599,-283.8892 603.3843,-277.5975 592.7969,-277.2001 594.8599,-283.8892"/>
</g>
<!-- Node938 -->
<g id="node17" class="node">
<title>Node938</title>
<g id="a_node17"><a xlink:href="group__logging.html#ga8b690dbed6cc3a5beb81ba5d2d27d290" target="_top" xlink:title="Get session description. ">
<polygon fill="#ffffff" stroke="#000000" points="141,-.5 141,-19.5 234,-19.5 234,-.5 141,-.5"/>
<text text-anchor="middle" x="187.5" y="-7.5" font-family="Helvetica,sans-Serif" font-size="10.00" fill="#000000">coap_session_str</text>
</a>
</g>
</g>
<!-- Node922&#45;&gt;Node938 -->
<g id="edge22" class="edge">
<title>Node922&#45;&gt;Node938</title>
<path fill="none" stroke="#191970" d="M58.7632,-95.2827C73.8843,-80.6115 104.3282,-52.5528 134,-34 139.9733,-30.2651 146.6267,-26.7956 153.156,-23.7211"/>
<polygon fill="#191970" stroke="#191970" points="154.8466,-26.7988 162.5396,-19.5141 151.9828,-20.4114 154.8466,-26.7988"/>
</g>
<!-- Node924 -->
<g id="node3" class="node">
<title>Node924</title>
<g id="a_node3"><a xlink:href="pdu_8c.html#a48581f968a30ef4278702eb1c16b7a90" target="_top" xlink:title="Dispose of an CoAP PDU and frees associated storage. ">
<polygon fill="#ffffff" stroke="#000000" points="443.5,-192.5 443.5,-211.5 533.5,-211.5 533.5,-192.5 443.5,-192.5"/>
<text text-anchor="middle" x="488.5" y="-199.5" font-family="Helvetica,sans-Serif" font-size="10.00" fill="#000000">coap_delete_pdu</text>
</a>
</g>
</g>
<!-- Node923&#45;&gt;Node924 -->
<g id="edge2" class="edge">
<title>Node923&#45;&gt;Node924</title>
<path fill="none" stroke="#191970" d="M227.8692,-171.5572C243.1869,-174.923 260.8328,-178.4891 277,-181 329.7167,-189.1873 390.3479,-194.8249 433.1396,-198.1814"/>
<polygon fill="#191970" stroke="#191970" points="433.1075,-201.6891 443.3461,-198.9653 433.6436,-194.7097 433.1075,-201.6891"/>
</g>
<!-- Node926 -->
<g id="node5" class="node">
<title>Node926</title>
<g id="a_node5"><a xlink:href="coap__dtls_8c.html#ae8b4d2b8a9cb8964944c841e92952ebe" target="_top" xlink:title="coap_dtls_free_session">
<polygon fill="#ffffff" stroke="#000000" points="277,-152.5 277,-171.5 396,-171.5 396,-152.5 277,-152.5"/>
<text text-anchor="middle" x="336.5" y="-159.5" font-family="Helvetica,sans-Serif" font-size="10.00" fill="#000000">coap_dtls_free_session</text>
</a>
</g>
</g>
<!-- Node923&#45;&gt;Node926 -->
<g id="edge4" class="edge">
<title>Node923&#45;&gt;Node926</title>
<path fill="none" stroke="#191970" d="M241.2924,-162C249.6204,-162 258.3234,-162 266.9379,-162"/>
<polygon fill="#191970" stroke="#191970" points="266.9823,-165.5001 276.9823,-162 266.9822,-158.5001 266.9823,-165.5001"/>
</g>
<!-- Node927 -->
<g id="node6" class="node">
<title>Node927</title>
<g id="a_node6"><a xlink:href="coap__notls_8c.html#aa317934415639e23b64a3bd0b4edde6c" target="_top" xlink:title="coap_tls_free_session">
<polygon fill="#ffffff" stroke="#000000" points="279.5,-114.5 279.5,-133.5 393.5,-133.5 393.5,-114.5 279.5,-114.5"/>
<text text-anchor="middle" x="336.5" y="-121.5" font-family="Helvetica,sans-Serif" font-size="10.00" fill="#000000">coap_tls_free_session</text>
</a>
</g>
</g>
<!-- Node923&#45;&gt;Node927 -->
<g id="edge5" class="edge">
<title>Node923&#45;&gt;Node927</title>
<path fill="none" stroke="#191970" d="M225.099,-152.411C244.584,-147.4417 268.5745,-141.3233 289.2958,-136.0387"/>
<polygon fill="#191970" stroke="#191970" points="290.3465,-139.3828 299.1714,-133.5201 288.6166,-132.5999 290.3465,-139.3828"/>
</g>
<!-- Node928 -->
<g id="node7" class="node">
<title>Node928</title>
<g id="a_node7"><a xlink:href="coap__io_8c.html#a2de382e7795c908d1a376da8c338386d" target="_top" xlink:title="coap_socket_close">
<polygon fill="#ffffff" stroke="#000000" points="286,-266.5 286,-285.5 387,-285.5 387,-266.5 286,-266.5"/>
<text text-anchor="middle" x="336.5" y="-273.5" font-family="Helvetica,sans-Serif" font-size="10.00" fill="#000000">coap_socket_close</text>
</a>
</g>
</g>
<!-- Node923&#45;&gt;Node928 -->
<g id="edge6" class="edge">
<title>Node923&#45;&gt;Node928</title>
<path fill="none" stroke="#191970" d="M194.8741,-171.6767C209.0289,-189.6796 241.7452,-228.6092 277,-252 282.9242,-255.9306 289.593,-259.3931 296.2669,-262.3766"/>
<polygon fill="#191970" stroke="#191970" points="295.3848,-265.8001 305.9625,-266.4038 298.07,-259.3356 295.3848,-265.8001"/>
</g>
<!-- Node929 -->
<g id="node8" class="node">
<title>Node929</title>
<g id="a_node8"><a xlink:href="mem_8h.html#a1e46a1505bb13f03fdacd5d1b32502a6" target="_top" xlink:title="Wrapper function to coap_free_type() for backwards compatibility. ">
<polygon fill="#ffffff" stroke="#000000" points="459,-340.5 459,-359.5 518,-359.5 518,-340.5 459,-340.5"/>
<text text-anchor="middle" x="488.5" y="-347.5" font-family="Helvetica,sans-Serif" font-size="10.00" fill="#000000">coap_free</text>
</a>
</g>
</g>
<!-- Node923&#45;&gt;Node929 -->
<g id="edge7" class="edge">
<title>Node923&#45;&gt;Node929</title>
<path fill="none" stroke="#191970" d="M209.5891,-171.5277C259.8218,-193.2712 379.5506,-245.5567 396,-257 427.5692,-278.9616 457.7405,-312.4186 474.6205,-332.6477"/>
<polygon fill="#191970" stroke="#191970" points="471.9591,-334.922 481.0063,-340.4355 477.372,-330.4834 471.9591,-334.922"/>
</g>
<!-- Node933 -->
<g id="node12" class="node">
<title>Node933</title>
<g id="a_node12"><a xlink:href="net_8c.html#a44c39a2314035989d3e07b9d9328e08c" target="_top" xlink:title="Destroys specified node. ">
<polygon fill="#ffffff" stroke="#000000" points="289,-76.5 289,-95.5 384,-95.5 384,-76.5 289,-76.5"/>
<text text-anchor="middle" x="336.5" y="-83.5" font-family="Helvetica,sans-Serif" font-size="10.00" fill="#000000">coap_delete_node</text>
</a>
</g>
</g>
<!-- Node923&#45;&gt;Node933 -->
<g id="edge12" class="edge">
<title>Node923&#45;&gt;Node933</title>
<path fill="none" stroke="#191970" d="M200.231,-152.3873C217.0579,-140.0436 247.9731,-118.5977 277,-105 281.6674,-102.8135 286.6528,-100.784 291.6772,-98.9285"/>
<polygon fill="#191970" stroke="#191970" points="293.0172,-102.1682 301.314,-95.5793 290.7191,-95.5562 293.0172,-102.1682"/>
</g>
<!-- Node924&#45;&gt;Node925 -->
<g id="edge3" class="edge">
<title>Node924&#45;&gt;Node925</title>
<path fill="none" stroke="#191970" d="M509.2934,-211.597C533.5458,-222.7904 573.8341,-241.385 601.4779,-254.1436"/>
<polygon fill="#191970" stroke="#191970" points="600.1351,-257.3787 610.6815,-258.3915 603.0686,-251.023 600.1351,-257.3787"/>
</g>
<!-- Node929&#45;&gt;Node925 -->
<g id="edge8" class="edge">
<title>Node929&#45;&gt;Node925</title>
<path fill="none" stroke="#191970" d="M516.5116,-340.3919C525.9313,-336.5742 536.2596,-331.7172 545,-326 563.4177,-313.9528 562.8391,-304.431 581,-292 586.3619,-288.3298 592.3724,-284.9381 598.3258,-281.9302"/>
<polygon fill="#191970" stroke="#191970" points="600.0164,-285.0015 607.5326,-277.5344 597.0004,-278.6846 600.0164,-285.0015"/>
</g>
<!-- Node930 -->
<g id="node9" class="node">
<title>Node930</title>
<g id="a_node9"><a xlink:href="mem_8h.html#a65d0fc0fe6cad555b56e92ccb57613ba" target="_top" xlink:title="Initializes libcoap&#39;s memory management. ">
<polygon fill="#ffffff" stroke="#000000" points="583.5,-340.5 583.5,-359.5 679.5,-359.5 679.5,-340.5 583.5,-340.5"/>
<text text-anchor="middle" x="631.5" y="-347.5" font-family="Helvetica,sans-Serif" font-size="10.00" fill="#000000">coap_memory_init</text>
</a>
</g>
</g>
<!-- Node929&#45;&gt;Node930 -->
<g id="edge9" class="edge">
<title>Node929&#45;&gt;Node930</title>
<path fill="none" stroke="#191970" d="M518.1297,-350C534.079,-350 554.3201,-350 573.2719,-350"/>
<polygon fill="#191970" stroke="#191970" points="573.3328,-353.5001 583.3328,-350 573.3327,-346.5001 573.3328,-353.5001"/>
</g>
<!-- Node931 -->
<g id="node10" class="node">
<title>Node931</title>
<g id="a_node10"><a xlink:href="mem_8h.html#a1539cf5011cdfb11500b476f4dbe9393" target="_top" xlink:title="Wrapper function to coap_malloc_type() for backwards compatibility. ">
<polygon fill="#ffffff" stroke="#000000" points="596,-301.5 596,-320.5 667,-320.5 667,-301.5 596,-301.5"/>
<text text-anchor="middle" x="631.5" y="-308.5" font-family="Helvetica,sans-Serif" font-size="10.00" fill="#000000">coap_malloc</text>
</a>
</g>
</g>
<!-- Node929&#45;&gt;Node931 -->
<g id="edge10" class="edge">
<title>Node929&#45;&gt;Node931</title>
<path fill="none" stroke="#191970" d="M518.1297,-341.9192C537.9227,-336.5211 564.3253,-329.3204 586.6709,-323.2261"/>
<polygon fill="#191970" stroke="#191970" points="587.8873,-326.5223 596.614,-320.5144 586.0454,-319.7689 587.8873,-326.5223"/>
</g>
<!-- Node932 -->
<g id="node11" class="node">
<title>Node932</title>
<g id="a_node11"><a xlink:href="mem_8h.html#a0204710ce56cbaa4f062b7f2622857f5" target="_top" xlink:title="Allocates a chunk of size bytes and returns a pointer to the newly allocated memory. ">
<polygon fill="#ffffff" stroke="#000000" points="718,-211.5 718,-230.5 813,-230.5 813,-211.5 718,-211.5"/>
<text text-anchor="middle" x="765.5" y="-218.5" font-family="Helvetica,sans-Serif" font-size="10.00" fill="#000000">coap_malloc_type</text>
</a>
</g>
</g>
<!-- Node931&#45;&gt;Node932 -->
<g id="edge11" class="edge">
<title>Node931&#45;&gt;Node932</title>
<path fill="none" stroke="#191970" d="M654.448,-301.4176C663.2934,-297.3863 673.3442,-292.3818 682,-287 705.9197,-272.1278 730.9582,-251.567 747.3027,-237.3645"/>
<polygon fill="#191970" stroke="#191970" points="749.8139,-239.8168 755.0054,-230.581 745.1875,-234.5635 749.8139,-239.8168"/>
</g>
<!-- Node933&#45;&gt;Node924 -->
<g id="edge13" class="edge">
<title>Node933&#45;&gt;Node924</title>
<path fill="none" stroke="#191970" d="M380.9788,-95.5777C386.428,-98.0353 391.6122,-101.1225 396,-105 424.6102,-130.2831 403.5842,-157.4987 432,-183 433.7522,-184.5725 435.6392,-186.0156 437.6232,-187.3398"/>
<polygon fill="#191970" stroke="#191970" points="436.3791,-190.6507 446.8256,-192.4173 439.7608,-184.5218 436.3791,-190.6507"/>
</g>
<!-- Node934 -->
<g id="node13" class="node">
<title>Node934</title>
<g id="a_node13"><a xlink:href="coap__session_8c.html#a9aee135ba884d7c143b11bc42fd23e53" target="_top" xlink:title="Decrement reference counter on a session. ">
<polygon fill="#ffffff" stroke="#000000" points="432,-57.5 432,-76.5 545,-76.5 545,-57.5 432,-57.5"/>
<text text-anchor="middle" x="488.5" y="-64.5" font-family="Helvetica,sans-Serif" font-size="10.00" fill="#000000">coap_session_release</text>
</a>
</g>
</g>
<!-- Node933&#45;&gt;Node934 -->
<g id="edge14" class="edge">
<title>Node933&#45;&gt;Node934</title>
<path fill="none" stroke="#191970" d="M384.1767,-80.0404C396.1303,-78.5462 409.1747,-76.9157 421.8654,-75.3293"/>
<polygon fill="#191970" stroke="#191970" points="422.451,-78.7835 431.9396,-74.07 421.5827,-71.8375 422.451,-78.7835"/>
</g>
<!-- Node935 -->
<g id="node14" class="node">
<title>Node935</title>
<g id="a_node14"><a xlink:href="net_8c.html#aa2f296838e4a779197c43b254e385ddc" target="_top" xlink:title="coap_free_node">
<polygon fill="#ffffff" stroke="#000000" points="445.5,-154.5 445.5,-173.5 531.5,-173.5 531.5,-154.5 445.5,-154.5"/>
<text text-anchor="middle" x="488.5" y="-161.5" font-family="Helvetica,sans-Serif" font-size="10.00" fill="#000000">coap_free_node</text>
</a>
</g>
</g>
<!-- Node933&#45;&gt;Node935 -->
<g id="edge16" class="edge">
<title>Node933&#45;&gt;Node935</title>
<path fill="none" stroke="#191970" d="M371.6878,-95.5755C379.8268,-98.2429 388.3419,-101.4093 396,-105 422.0847,-117.2303 449.6355,-135.6039 467.8146,-148.5923"/>
<polygon fill="#191970" stroke="#191970" points="465.7889,-151.4467 475.9386,-154.4853 469.8991,-145.7805 465.7889,-151.4467"/>
</g>
<!-- Node934&#45;&gt;Node922 -->
<g id="edge15" class="edge">
<title>Node934&#45;&gt;Node922</title>
<path fill="none" stroke="#191970" d="M431.841,-64.4685C389.1903,-63.1767 329.3289,-62.6691 277,-67 216.9533,-71.9696 148.9131,-84.1813 102.911,-93.4305"/>
<polygon fill="#191970" stroke="#191970" points="101.9664,-90.0509 92.8647,-95.4739 103.3617,-96.9105 101.9664,-90.0509"/>
</g>
<!-- Node935&#45;&gt;Node925 -->
<g id="edge17" class="edge">
<title>Node935&#45;&gt;Node925</title>
<path fill="none" stroke="#191970" d="M527.8287,-173.5522C533.914,-176.0405 539.8721,-179.1434 545,-183 567.4649,-199.8953 560.8599,-215.3913 581,-235 587.8698,-241.6885 596.2842,-247.8134 604.26,-252.9224"/>
<polygon fill="#191970" stroke="#191970" points="602.6128,-256.0173 612.9729,-258.235 606.257,-250.0407 602.6128,-256.0173"/>
</g>
<!-- Node935&#45;&gt;Node932 -->
<g id="edge21" class="edge">
<title>Node935&#45;&gt;Node932</title>
<path fill="none" stroke="#191970" d="M519.9226,-173.5668C528.1807,-176.3516 537.0103,-179.5747 545,-183 561.628,-190.1287 563.6852,-196.7553 581,-202 622.2683,-214.5004 670.8456,-219.122 707.7936,-220.687"/>
<polygon fill="#191970" stroke="#191970" points="707.771,-224.1884 717.8907,-221.0514 708.0235,-217.1929 707.771,-224.1884"/>
</g>
<!-- Node936 -->
<g id="node15" class="node">
<title>Node936</title>
<g id="a_node15"><a xlink:href="net_8c.html#a157d58fe7840d7d7e36c40fff0825674" target="_top" xlink:title="coap_free_endpoint">
<polygon fill="#ffffff" stroke="#000000" points="581,-173.5 581,-192.5 682,-192.5 682,-173.5 581,-173.5"/>
<text text-anchor="middle" x="631.5" y="-180.5" font-family="Helvetica,sans-Serif" font-size="10.00" fill="#000000">coap_free_endpoint</text>
</a>
</g>
</g>
<!-- Node935&#45;&gt;Node936 -->
<g id="edge18" class="edge">
<title>Node935&#45;&gt;Node936</title>
<path fill="none" stroke="#191970" d="M531.7928,-169.7522C544.108,-171.3885 557.7529,-173.2014 570.8949,-174.9476"/>
<polygon fill="#191970" stroke="#191970" points="570.4423,-178.4181 580.8162,-176.2658 571.3644,-171.4791 570.4423,-178.4181"/>
</g>
<!-- Node937 -->
<g id="node16" class="node">
<title>Node937</title>
<g id="a_node16"><a xlink:href="net_8c.html#aeff229f443c6582fea71504f33364eb4" target="_top" xlink:title="coap_malloc_node">
<polygon fill="#ffffff" stroke="#000000" points="582.5,-135.5 582.5,-154.5 680.5,-154.5 680.5,-135.5 582.5,-135.5"/>
<text text-anchor="middle" x="631.5" y="-142.5" font-family="Helvetica,sans-Serif" font-size="10.00" fill="#000000">coap_malloc_node</text>
</a>
</g>
</g>
<!-- Node935&#45;&gt;Node937 -->
<g id="edge19" class="edge">
<title>Node935&#45;&gt;Node937</title>
<path fill="none" stroke="#191970" d="M531.7928,-158.2478C544.5011,-156.5593 558.6252,-154.6827 572.1515,-152.8855"/>
<polygon fill="#191970" stroke="#191970" points="572.8935,-156.3177 582.3454,-151.531 571.9715,-149.3787 572.8935,-156.3177"/>
</g>
<!-- Node937&#45;&gt;Node932 -->
<g id="edge20" class="edge">
<title>Node937&#45;&gt;Node932</title>
<path fill="none" stroke="#191970" d="M660.5944,-154.5908C667.7402,-157.3129 675.2678,-160.5002 682,-164 704.7323,-175.8178 728.6884,-192.6905 745.082,-205.0114"/>
<polygon fill="#191970" stroke="#191970" points="743.2832,-208.0415 753.3558,-211.327 747.5306,-202.4773 743.2832,-208.0415"/>
</g>
<!-- Node939 -->
<g id="node18" class="node">
<title>Node939</title>
<g id="a_node18"><a xlink:href="group__logging.html#ga6a4f5ef637bf85aa161adfe73ac81ff0" target="_top" xlink:title="Print the address into the defined buffer. ">
<polygon fill="#ffffff" stroke="#000000" points="293.5,-.5 293.5,-19.5 379.5,-19.5 379.5,-.5 293.5,-.5"/>
<text text-anchor="middle" x="336.5" y="-7.5" font-family="Helvetica,sans-Serif" font-size="10.00" fill="#000000">coap_print_addr</text>
</a>
</g>
</g>
<!-- Node938&#45;&gt;Node939 -->
<g id="edge23" class="edge">
<title>Node938&#45;&gt;Node939</title>
<path fill="none" stroke="#191970" d="M234.2357,-10C249.7779,-10 267.2014,-10 283.2016,-10"/>
<polygon fill="#191970" stroke="#191970" points="283.4765,-13.5001 293.4765,-10 283.4764,-6.5001 283.4765,-13.5001"/>
</g>
<!-- Node940 -->
<g id="node19" class="node">
<title>Node940</title>
<g id="a_node19"><a xlink:href="coap__debug_8c.html#aaa5ee5c2942fe13271a46000b2aebde6" target="_top" xlink:title="A length&#45;safe strlen() fake. ">
<polygon fill="#ffffff" stroke="#000000" points="465.5,-.5 465.5,-19.5 511.5,-19.5 511.5,-.5 465.5,-.5"/>
<text text-anchor="middle" x="488.5" y="-7.5" font-family="Helvetica,sans-Serif" font-size="10.00" fill="#000000">strnlen</text>
</a>
</g>
</g>
<!-- Node939&#45;&gt;Node940 -->
<g id="edge24" class="edge">
<title>Node939&#45;&gt;Node940</title>
<path fill="none" stroke="#191970" d="M379.6505,-10C403.6362,-10 433.0274,-10 455.2203,-10"/>
<polygon fill="#191970" stroke="#191970" points="455.4816,-13.5001 465.4816,-10 455.4815,-6.5001 455.4816,-13.5001"/>
</g>
</g>
</svg>
        <g id="navigator" transform="translate(0 0)" fill="#404254">
                <rect fill="#f2f5e9" fill-opacity="0.5" stroke="#606060" stroke-width=".5" x="0" y="0" width="60" height="60"/>
                <use id="zoomplus" xlink:href="#zoomPlus" x="17" y="9" onmousedown="handleZoom(evt,'in')"/>
                <use id="zoomminus" xlink:href="#zoomMin" x="42" y="9" onmousedown="handleZoom(evt,'out')"/>
                <use id="reset" xlink:href="#resetDef" x="30" y="36" onmousedown="handleReset()"/>
                <g id="arrowUp" xlink:href="#dirArrow" transform="translate(30 24)" onmousedown="handlePan(0,-1)">
                  <use xlink:href="#rim" fill="#404040">
                        <set attributeName="fill" to="#808080" begin="arrowUp.mouseover" end="arrowUp.mouseout"/>
                  </use>
                  <path fill="none" stroke="white" stroke-width="1.5" d="M0,-3.0v7 M-2.5,-0.5L0,-3.0L2.5,-0.5"/>
                </g>
                <g id="arrowRight" xlink:href="#dirArrow" transform="rotate(90) translate(36 -43)" onmousedown="handlePan(1,0)">
                  <use xlink:href="#rim" fill="#404040">
                        <set attributeName="fill" to="#808080" begin="arrowRight.mouseover" end="arrowRight.mouseout"/>
                  </use>
                  <path fill="none" stroke="white" stroke-width="1.5" d="M0,-3.0v7 M-2.5,-0.5L0,-3.0L2.5,-0.5"/>
                </g>
                <g id="arrowDown" xlink:href="#dirArrow" transform="rotate(180) translate(-30 -48)" onmousedown="handlePan(0,1)">
                  <use xlink:href="#rim" fill="#404040">
                        <set attributeName="fill" to="#808080" begin="arrowDown.mouseover" end="arrowDown.mouseout"/>
                  </use>
                  <path fill="none" stroke="white" stroke-width="1.5" d="M0,-3.0v7 M-2.5,-0.5L0,-3.0L2.5,-0.5"/>
                </g>
                <g id="arrowLeft" xlink:href="#dirArrow" transform="rotate(270) translate(-36 17)" onmousedown="handlePan(-1,0)">
                  <use xlink:href="#rim" fill="#404040">
                        <set attributeName="fill" to="#808080" begin="arrowLeft.mouseover" end="arrowLeft.mouseout"/>
                  </use>
                  <path fill="none" stroke="white" stroke-width="1.5" d="M0,-3.0v7 M-2.5,-0.5L0,-3.0L2.5,-0.5"/>
                </g>
        </g>
        <svg viewBox="0 0 15 15" width="100%" height="30px" preserveAspectRatio="xMaxYMin meet">
         <g id="arrow_out" transform="scale(0.3 0.3)">
          <a xlink:href="coap__session_8c_ab3d24595515d6f66805791a7f821d5e7_cgraph_org.svg" target="_base">
           <rect id="button" ry="5" rx="5" y="6" x="6" height="38" width="38"
                fill="#f2f5e9" fill-opacity="0.5" stroke="#606060" stroke-width="1.0"/>
           <path id="arrow"
             d="M 11.500037,31.436501 C 11.940474,20.09759 22.043105,11.32322 32.158766,21.979434 L 37.068811,17.246167 C 37.068811,17.246167 37.088388,32 37.088388,32 L 22.160133,31.978069 C 22.160133,31.978069 26.997745,27.140456 26.997745,27.140456 C 18.528582,18.264221 13.291696,25.230495 11.500037,31.436501 z"
             style="fill:#404040;"/>
          </a>
         </g>
        </svg>
</svg>
