<?xml version="1.0" encoding="UTF-8" standalone="no"?>
<!DOCTYPE svg PUBLIC "-//W3C//DTD SVG 1.1//EN"
 "http://www.w3.org/Graphics/SVG/1.1/DTD/svg11.dtd">
<!-- Generated by graphviz version 2.40.1 (20161225.0304)
 -->
<!-- Title: coap_dtls_hello Pages: 1 -->
<!--zoomable 141 -->
<svg id="main" version="1.1" xmlns="http://www.w3.org/2000/svg" xmlns:xlink="http://www.w3.org/1999/xlink" xml:space="preserve" onload="init(evt)">
<style type="text/css"><![CDATA[
.edge:hover path { stroke: red; }
.edge:hover polygon { stroke: red; fill: red; }
]]></style>
<script type="text/javascript"><![CDATA[
var edges = document.getElementsByTagName('g');
if (edges && edges.length) {
  for (var i=0;i<edges.length;i++) {
    if (edges[i].id.substr(0,4)=='edge') {
      edges[i].setAttribute('class','edge');
    }
  }
}
]]></script>
        <defs>
                <circle id="rim" cx="0" cy="0" r="7"/>
                <circle id="rim2" cx="0" cy="0" r="3.5"/>
                <g id="zoomPlus">
                        <use xlink:href="#rim" fill="#404040">
                                <set attributeName="fill" to="#808080" begin="zoomplus.mouseover" end="zoomplus.mouseout"/>
                        </use>
                        <path d="M-4,0h8M0,-4v8" fill="none" stroke="white" stroke-width="1.5" pointer-events="none"/>
                </g>
                <g id="zoomMin">
                        <use xlink:href="#rim" fill="#404040">
                                <set attributeName="fill" to="#808080" begin="zoomminus.mouseover" end="zoomminus.mouseout"/>
                        </use>
                        <path d="M-4,0h8" fill="none" stroke="white" stroke-width="1.5" pointer-events="none"/>
                </g>
                <g id="dirArrow">
                        <path fill="none" stroke="white" stroke-width="1.5" d="M0,-3.0v7 M-2.5,-0.5L0,-3.0L2.5,-0.5"/>
                </g>
               <g id="resetDef">
                       <use xlink:href="#rim2" fill="#404040">
                               <set attributeName="fill" to="#808080" begin="reset.mouseover" end="reset.mouseout"/>
                       </use>
               </g>
        </defs>

<script type="text/javascript">
var viewWidth = 840;
var viewHeight = 141;
var sectionId = 'dynsection-9';
</script>
<script xlink:href="svgpan.js"/>
<svg id="graph" class="graph">
<g id="viewport">
<title>coap_dtls_hello</title>
<polygon fill="#ffffff" stroke="transparent" points="-4,4 -4,-137.1053 836,-137.1053 836,4 -4,4"/>
<!-- Node54 -->
<g id="node1" class="node">
<title>Node54</title>
<polygon fill="#bfbfbf" stroke="#000000" points="0,-56.6053 0,-75.6053 84,-75.6053 84,-56.6053 0,-56.6053"/>
<text text-anchor="middle" x="42" y="-63.6053" font-family="Helvetica,sans-Serif" font-size="10.00" fill="#000000">coap_dtls_hello</text>
</g>
<!-- Node55 -->
<g id="node2" class="node">
<title>Node55</title>
<g id="a_node2"><a xlink:href="net_8c.html#a8534f7860b14e0743529daff196a27ce" target="_top" xlink:title="coap_handle_dgram_for\l_proto">
<polygon fill="#ffffff" stroke="#000000" points="120,-51.1053 120,-81.1053 240,-81.1053 240,-51.1053 120,-51.1053"/>
<text text-anchor="start" x="128" y="-69.1053" font-family="Helvetica,sans-Serif" font-size="10.00" fill="#000000">coap_handle_dgram_for</text>
<text text-anchor="middle" x="180" y="-58.1053" font-family="Helvetica,sans-Serif" font-size="10.00" fill="#000000">_proto</text>
</a>
</g>
</g>
<!-- Node54&#45;&gt;Node55 -->
<g id="edge1" class="edge">
<title>Node54&#45;&gt;Node55</title>
<path fill="none" stroke="#191970" d="M94.162,-66.1053C102.5394,-66.1053 111.2695,-66.1053 119.8162,-66.1053"/>
<polygon fill="#191970" stroke="#191970" points="94.1544,-62.6054 84.1544,-66.1053 94.1544,-69.6054 94.1544,-62.6054"/>
</g>
<!-- Node56 -->
<g id="node3" class="node">
<title>Node56</title>
<g id="a_node3"><a xlink:href="net_8c.html#acd36f6fba6d30ab9557e0e6521f4a088" target="_top" xlink:title="coap_read_session">
<polygon fill="#ffffff" stroke="#000000" points="277.5,-75.6053 277.5,-94.6053 378.5,-94.6053 378.5,-75.6053 277.5,-75.6053"/>
<text text-anchor="middle" x="328" y="-82.6053" font-family="Helvetica,sans-Serif" font-size="10.00" fill="#000000">coap_read_session</text>
</a>
</g>
</g>
<!-- Node55&#45;&gt;Node56 -->
<g id="edge2" class="edge">
<title>Node55&#45;&gt;Node56</title>
<path fill="none" stroke="#191970" d="M250.3966,-75.1427C259.4836,-76.3092 268.6432,-77.4851 277.3256,-78.5998"/>
<polygon fill="#191970" stroke="#191970" points="250.5616,-71.6352 240.1973,-73.8333 249.6702,-78.5782 250.5616,-71.6352"/>
</g>
<!-- Node63 -->
<g id="node10" class="node">
<title>Node63</title>
<g id="a_node10"><a xlink:href="net_8c.html#a44ffb4b70e537043e9a9cf344be24b92" target="_top" xlink:title="coap_read_endpoint">
<polygon fill="#ffffff" stroke="#000000" points="276,-37.6053 276,-56.6053 380,-56.6053 380,-37.6053 276,-37.6053"/>
<text text-anchor="middle" x="328" y="-44.6053" font-family="Helvetica,sans-Serif" font-size="10.00" fill="#000000">coap_read_endpoint</text>
</a>
</g>
</g>
<!-- Node55&#45;&gt;Node63 -->
<g id="edge12" class="edge">
<title>Node55&#45;&gt;Node63</title>
<path fill="none" stroke="#191970" d="M250.2786,-57.083C258.917,-55.974 267.6233,-54.8563 275.9248,-53.7906"/>
<polygon fill="#191970" stroke="#191970" points="249.6702,-53.6323 240.1973,-58.3772 250.5616,-60.5753 249.6702,-53.6323"/>
</g>
<!-- Node57 -->
<g id="node4" class="node">
<title>Node57</title>
<g id="a_node4"><a xlink:href="net_8h.html#a0748d791fd2af516dd93fbadb660d440" target="_top" xlink:title="For applications with their own message loop, reads all data from the network. ">
<polygon fill="#ffffff" stroke="#000000" points="416,-56.6053 416,-75.6053 478,-75.6053 478,-56.6053 416,-56.6053"/>
<text text-anchor="middle" x="447" y="-63.6053" font-family="Helvetica,sans-Serif" font-size="10.00" fill="#000000">coap_read</text>
</a>
</g>
</g>
<!-- Node56&#45;&gt;Node57 -->
<g id="edge3" class="edge">
<title>Node56&#45;&gt;Node57</title>
<path fill="none" stroke="#191970" d="M388.949,-75.3739C398.3142,-73.8786 407.6315,-72.391 415.9721,-71.0593"/>
<polygon fill="#191970" stroke="#191970" points="388.1349,-71.9595 378.8119,-76.9924 389.2387,-78.8719 388.1349,-71.9595"/>
</g>
<!-- Node58 -->
<g id="node5" class="node">
<title>Node58</title>
<g id="a_node5"><a xlink:href="coap__io_8c.html#a75a7c93e10ca7858449ba304aad4ea37" target="_top" xlink:title="coap_run_once">
<polygon fill="#ffffff" stroke="#000000" points="749,-113.6053 749,-132.6053 832,-132.6053 832,-113.6053 749,-113.6053"/>
<text text-anchor="middle" x="790.5" y="-120.6053" font-family="Helvetica,sans-Serif" font-size="10.00" fill="#000000">coap_run_once</text>
</a>
</g>
</g>
<!-- Node57&#45;&gt;Node58 -->
<g id="edge4" class="edge">
<title>Node57&#45;&gt;Node58</title>
<path fill="none" stroke="#191970" d="M479.9915,-79.2864C517.1889,-93.3802 579.8211,-114.8182 636,-123.1053 673.9461,-128.7028 717.7075,-128.0468 748.9472,-126.3771"/>
<polygon fill="#191970" stroke="#191970" points="481.2415,-76.0173 470.6515,-75.6987 478.7314,-82.5518 481.2415,-76.0173"/>
</g>
<!-- Node59 -->
<g id="node6" class="node">
<title>Node59</title>
<g id="a_node6"><a xlink:href="net_8h.html#a9900c032b74bd57f67d489484a2b3207" target="_top" xlink:title="Handles retransmissions of confirmable messages. ">
<polygon fill="#ffffff" stroke="#000000" points="514,-56.6053 514,-75.6053 600,-75.6053 600,-56.6053 514,-56.6053"/>
<text text-anchor="middle" x="557" y="-63.6053" font-family="Helvetica,sans-Serif" font-size="10.00" fill="#000000">coap_retransmit</text>
</a>
</g>
</g>
<!-- Node57&#45;&gt;Node59 -->
<g id="edge5" class="edge">
<title>Node57&#45;&gt;Node59</title>
<path fill="none" stroke="#191970" d="M488.4282,-66.1053C496.7153,-66.1053 505.4409,-66.1053 513.7866,-66.1053"/>
<polygon fill="#191970" stroke="#191970" points="488.2274,-62.6054 478.2274,-66.1053 488.2273,-69.6054 488.2274,-62.6054"/>
</g>
<!-- Node61 -->
<g id="node8" class="node">
<title>Node61</title>
<g id="a_node8"><a xlink:href="net_8h.html#a5854b1394bfddd574e48af116e3aaaf9" target="_top" xlink:title="Sends an RST message with code 0 for the specified request to dst. ">
<polygon fill="#ffffff" stroke="#000000" points="750.5,-56.6053 750.5,-75.6053 830.5,-75.6053 830.5,-56.6053 750.5,-56.6053"/>
<text text-anchor="middle" x="790.5" y="-63.6053" font-family="Helvetica,sans-Serif" font-size="10.00" fill="#000000">coap_send_rst</text>
</a>
</g>
</g>
<!-- Node57&#45;&gt;Node61 -->
<g id="edge11" class="edge">
<title>Node57&#45;&gt;Node61</title>
<path fill="none" stroke="#191970" d="M472.9191,-51.6326C521.0505,-26.7048 627.1461,19.0672 713,-9.1053 741.5652,-18.4788 768.2754,-42.8507 781.617,-56.4954"/>
<polygon fill="#191970" stroke="#191970" points="471.017,-48.6796 463.8222,-56.4569 474.2966,-54.8638 471.017,-48.6796"/>
</g>
<!-- Node60 -->
<g id="node7" class="node">
<title>Node60</title>
<g id="a_node7"><a xlink:href="net_8h.html#aaac86ac50793f309678e4951ecf8863f" target="_top" xlink:title="For applications with their own message loop, send all pending retransmits and return the list of soc...">
<polygon fill="#ffffff" stroke="#000000" points="642.5,-94.6053 642.5,-113.6053 706.5,-113.6053 706.5,-94.6053 642.5,-94.6053"/>
<text text-anchor="middle" x="674.5" y="-101.6053" font-family="Helvetica,sans-Serif" font-size="10.00" fill="#000000">coap_write</text>
</a>
</g>
</g>
<!-- Node59&#45;&gt;Node60 -->
<g id="edge6" class="edge">
<title>Node59&#45;&gt;Node60</title>
<path fill="none" stroke="#191970" d="M596.2092,-78.7857C612.0854,-83.9201 630.11,-89.7494 644.8593,-94.5193"/>
<polygon fill="#191970" stroke="#191970" points="597.242,-75.4413 586.6502,-75.6943 595.088,-82.1016 597.242,-75.4413"/>
</g>
<!-- Node59&#45;&gt;Node61 -->
<g id="edge10" class="edge">
<title>Node59&#45;&gt;Node61</title>
<path fill="none" stroke="#191970" d="M610.2873,-66.1053C652.8913,-66.1053 711.692,-66.1053 750.3817,-66.1053"/>
<polygon fill="#191970" stroke="#191970" points="610.0996,-62.6054 600.0996,-66.1053 610.0996,-69.6054 610.0996,-62.6054"/>
</g>
<!-- Node62 -->
<g id="node9" class="node">
<title>Node62</title>
<g id="a_node9"><a xlink:href="libcoap_8h.html#a5d1fb0b44497970b0f75fa0b38570a82" target="_top" xlink:title="coap_cleanup">
<polygon fill="#ffffff" stroke="#000000" points="636,-18.6053 636,-37.6053 713,-37.6053 713,-18.6053 636,-18.6053"/>
<text text-anchor="middle" x="674.5" y="-25.6053" font-family="Helvetica,sans-Serif" font-size="10.00" fill="#000000">coap_cleanup</text>
</a>
</g>
</g>
<!-- Node59&#45;&gt;Node62 -->
<g id="edge9" class="edge">
<title>Node59&#45;&gt;Node62</title>
<path fill="none" stroke="#191970" d="M596.2092,-53.4248C612.0854,-48.2904 630.11,-42.4612 644.8593,-37.6912"/>
<polygon fill="#191970" stroke="#191970" points="595.088,-50.1089 586.6502,-56.5163 597.242,-56.7692 595.088,-50.1089"/>
</g>
<!-- Node60&#45;&gt;Node58 -->
<g id="edge7" class="edge">
<title>Node60&#45;&gt;Node58</title>
<path fill="none" stroke="#191970" d="M716.6193,-111.0041C727.036,-112.7103 738.1933,-114.5378 748.5996,-116.2423"/>
<polygon fill="#191970" stroke="#191970" points="716.9388,-107.5099 706.5046,-109.3474 715.8073,-114.4178 716.9388,-107.5099"/>
</g>
<!-- Node60&#45;&gt;Node61 -->
<g id="edge8" class="edge">
<title>Node60&#45;&gt;Node61</title>
<path fill="none" stroke="#191970" d="M713.6528,-91.2793C729.2176,-86.1805 746.8141,-80.4162 761.2377,-75.6912"/>
<polygon fill="#191970" stroke="#191970" points="712.1852,-88.077 703.7717,-94.5163 714.3644,-94.7292 712.1852,-88.077"/>
</g>
<!-- Node63&#45;&gt;Node57 -->
<g id="edge13" class="edge">
<title>Node63&#45;&gt;Node57</title>
<path fill="none" stroke="#191970" d="M390.1834,-57.0337C399.0374,-58.4474 407.8119,-59.8483 415.7208,-61.1111"/>
<polygon fill="#191970" stroke="#191970" points="390.6219,-53.5595 380.1951,-55.4389 389.5182,-60.4719 390.6219,-53.5595"/>
</g>
</g>
</svg>
        <g id="navigator" transform="translate(0 0)" fill="#404254">
                <rect fill="#f2f5e9" fill-opacity="0.5" stroke="#606060" stroke-width=".5" x="0" y="0" width="60" height="60"/>
                <use id="zoomplus" xlink:href="#zoomPlus" x="17" y="9" onmousedown="handleZoom(evt,'in')"/>
                <use id="zoomminus" xlink:href="#zoomMin" x="42" y="9" onmousedown="handleZoom(evt,'out')"/>
                <use id="reset" xlink:href="#resetDef" x="30" y="36" onmousedown="handleReset()"/>
                <g id="arrowUp" xlink:href="#dirArrow" transform="translate(30 24)" onmousedown="handlePan(0,-1)">
                  <use xlink:href="#rim" fill="#404040">
                        <set attributeName="fill" to="#808080" begin="arrowUp.mouseover" end="arrowUp.mouseout"/>
                  </use>
                  <path fill="none" stroke="white" stroke-width="1.5" d="M0,-3.0v7 M-2.5,-0.5L0,-3.0L2.5,-0.5"/>
                </g>
                <g id="arrowRight" xlink:href="#dirArrow" transform="rotate(90) translate(36 -43)" onmousedown="handlePan(1,0)">
                  <use xlink:href="#rim" fill="#404040">
                        <set attributeName="fill" to="#808080" begin="arrowRight.mouseover" end="arrowRight.mouseout"/>
                  </use>
                  <path fill="none" stroke="white" stroke-width="1.5" d="M0,-3.0v7 M-2.5,-0.5L0,-3.0L2.5,-0.5"/>
                </g>
                <g id="arrowDown" xlink:href="#dirArrow" transform="rotate(180) translate(-30 -48)" onmousedown="handlePan(0,1)">
                  <use xlink:href="#rim" fill="#404040">
                        <set attributeName="fill" to="#808080" begin="arrowDown.mouseover" end="arrowDown.mouseout"/>
                  </use>
                  <path fill="none" stroke="white" stroke-width="1.5" d="M0,-3.0v7 M-2.5,-0.5L0,-3.0L2.5,-0.5"/>
                </g>
                <g id="arrowLeft" xlink:href="#dirArrow" transform="rotate(270) translate(-36 17)" onmousedown="handlePan(-1,0)">
                  <use xlink:href="#rim" fill="#404040">
                        <set attributeName="fill" to="#808080" begin="arrowLeft.mouseover" end="arrowLeft.mouseout"/>
                  </use>
                  <path fill="none" stroke="white" stroke-width="1.5" d="M0,-3.0v7 M-2.5,-0.5L0,-3.0L2.5,-0.5"/>
                </g>
        </g>
        <svg viewBox="0 0 15 15" width="100%" height="30px" preserveAspectRatio="xMaxYMin meet">
         <g id="arrow_out" transform="scale(0.3 0.3)">
          <a xlink:href="coap__notls_8c_a6108ea63abb51311934ad4e2a4a8b28d_icgraph_org.svg" target="_base">
           <rect id="button" ry="5" rx="5" y="6" x="6" height="38" width="38"
                fill="#f2f5e9" fill-opacity="0.5" stroke="#606060" stroke-width="1.0"/>
           <path id="arrow"
             d="M 11.500037,31.436501 C 11.940474,20.09759 22.043105,11.32322 32.158766,21.979434 L 37.068811,17.246167 C 37.068811,17.246167 37.088388,32 37.088388,32 L 22.160133,31.978069 C 22.160133,31.978069 26.997745,27.140456 26.997745,27.140456 C 18.528582,18.264221 13.291696,25.230495 11.500037,31.436501 z"
             style="fill:#404040;"/>
          </a>
         </g>
        </svg>
</svg>
