<?xml version="1.0" encoding="UTF-8" standalone="no"?>
<!DOCTYPE svg PUBLIC "-//W3C//DTD SVG 1.1//EN"
 "http://www.w3.org/Graphics/SVG/1.1/DTD/svg11.dtd">
<!-- Generated by graphviz version 2.40.1 (20161225.0304)
 -->
<!-- Title: coap_tls_new_client_session Pages: 1 -->
<!--zoomable 550 -->
<svg id="main" version="1.1" xmlns="http://www.w3.org/2000/svg" xmlns:xlink="http://www.w3.org/1999/xlink" xml:space="preserve" onload="init(evt)">
<style type="text/css"><![CDATA[
.edge:hover path { stroke: red; }
.edge:hover polygon { stroke: red; fill: red; }
]]></style>
<script type="text/javascript"><![CDATA[
var edges = document.getElementsByTagName('g');
if (edges && edges.length) {
  for (var i=0;i<edges.length;i++) {
    if (edges[i].id.substr(0,4)=='edge') {
      edges[i].setAttribute('class','edge');
    }
  }
}
]]></script>
        <defs>
                <circle id="rim" cx="0" cy="0" r="7"/>
                <circle id="rim2" cx="0" cy="0" r="3.5"/>
                <g id="zoomPlus">
                        <use xlink:href="#rim" fill="#404040">
                                <set attributeName="fill" to="#808080" begin="zoomplus.mouseover" end="zoomplus.mouseout"/>
                        </use>
                        <path d="M-4,0h8M0,-4v8" fill="none" stroke="white" stroke-width="1.5" pointer-events="none"/>
                </g>
                <g id="zoomMin">
                        <use xlink:href="#rim" fill="#404040">
                                <set attributeName="fill" to="#808080" begin="zoomminus.mouseover" end="zoomminus.mouseout"/>
                        </use>
                        <path d="M-4,0h8" fill="none" stroke="white" stroke-width="1.5" pointer-events="none"/>
                </g>
                <g id="dirArrow">
                        <path fill="none" stroke="white" stroke-width="1.5" d="M0,-3.0v7 M-2.5,-0.5L0,-3.0L2.5,-0.5"/>
                </g>
               <g id="resetDef">
                       <use xlink:href="#rim2" fill="#404040">
                               <set attributeName="fill" to="#808080" begin="reset.mouseover" end="reset.mouseout"/>
                       </use>
               </g>
        </defs>

<script type="text/javascript">
var viewWidth = 1847;
var viewHeight = 550;
var sectionId = 'dynsection-14';
</script>
<script xlink:href="svgpan.js"/>
<svg id="graph" class="graph">
<g id="viewport">
<title>coap_tls_new_client_session</title>
<polygon fill="#ffffff" stroke="transparent" points="-4,4 -4,-546 1843,-546 1843,4 -4,4"/>
<!-- Node187 -->
<g id="node1" class="node">
<title>Node187</title>
<polygon fill="#bfbfbf" stroke="#000000" points="0,-403 0,-433 105,-433 105,-403 0,-403"/>
<text text-anchor="start" x="8" y="-421" font-family="Helvetica,sans-Serif" font-size="10.00" fill="#000000">coap_tls_new_client</text>
<text text-anchor="middle" x="52.5" y="-410" font-family="Helvetica,sans-Serif" font-size="10.00" fill="#000000">_session</text>
</g>
<!-- Node188 -->
<g id="node2" class="node">
<title>Node188</title>
<g id="a_node2"><a xlink:href="coap__session_8c.html#acec64026a2b3309e97075951dc52c2a1" target="_top" xlink:title="coap_session_connect">
<polygon fill="#ffffff" stroke="#000000" points="141,-465.5 141,-484.5 257,-484.5 257,-465.5 141,-465.5"/>
<text text-anchor="middle" x="199" y="-472.5" font-family="Helvetica,sans-Serif" font-size="10.00" fill="#000000">coap_session_connect</text>
</a>
</g>
</g>
<!-- Node187&#45;&gt;Node188 -->
<g id="edge1" class="edge">
<title>Node187&#45;&gt;Node188</title>
<path fill="none" stroke="#191970" d="M100.8972,-436.8303C125.4465,-446.3819 154.2208,-457.5774 174.2324,-465.3635"/>
<polygon fill="#191970" stroke="#191970" points="101.9633,-433.4896 91.3747,-433.1253 99.425,-440.0132 101.9633,-433.4896"/>
</g>
<!-- Node192 -->
<g id="node6" class="node">
<title>Node192</title>
<g id="a_node6"><a xlink:href="net_8c.html#a0c600aed61c8a8402d31ef795df3b0b6" target="_top" xlink:title="coap_send_pdu">
<polygon fill="#ffffff" stroke="#000000" points="156.5,-370.5 156.5,-389.5 241.5,-389.5 241.5,-370.5 156.5,-370.5"/>
<text text-anchor="middle" x="199" y="-377.5" font-family="Helvetica,sans-Serif" font-size="10.00" fill="#000000">coap_send_pdu</text>
</a>
</g>
</g>
<!-- Node187&#45;&gt;Node192 -->
<g id="edge5" class="edge">
<title>Node187&#45;&gt;Node192</title>
<path fill="none" stroke="#191970" d="M115.2547,-401.7223C131.2856,-397.5641 148.0014,-393.2283 162.2446,-389.5338"/>
<polygon fill="#191970" stroke="#191970" points="114.1907,-398.3824 105.3899,-404.2811 115.9483,-405.1582 114.1907,-398.3824"/>
</g>
<!-- Node215 -->
<g id="node29" class="node">
<title>Node215</title>
<g id="a_node29"><a xlink:href="net_8c.html#a9e7c7fc083799c942c9c44ebc190c833" target="_top" xlink:title="coap_connect_session">
<polygon fill="#ffffff" stroke="#000000" points="1117,-332.5 1117,-351.5 1233,-351.5 1233,-332.5 1117,-332.5"/>
<text text-anchor="middle" x="1175" y="-339.5" font-family="Helvetica,sans-Serif" font-size="10.00" fill="#000000">coap_connect_session</text>
</a>
</g>
</g>
<!-- Node187&#45;&gt;Node215 -->
<g id="edge48" class="edge">
<title>Node187&#45;&gt;Node215</title>
<path fill="none" stroke="#191970" d="M115.4315,-418C179.0165,-418 280.0814,-418 367.5,-418 367.5,-418 367.5,-418 859.5,-418 971.6188,-418 1100.073,-372.076 1151.7168,-351.6255"/>
<polygon fill="#191970" stroke="#191970" points="115.1695,-414.5001 105.1695,-418 115.1694,-421.5001 115.1695,-414.5001"/>
</g>
<!-- Node189 -->
<g id="node3" class="node">
<title>Node189</title>
<g id="a_node3"><a xlink:href="coap__session_8h.html#ad495fcd405fa86859fa36d45f89be910" target="_top" xlink:title="Creates a new client session to the designated server. ">
<polygon fill="#ffffff" stroke="#000000" points="303.5,-522.5 303.5,-541.5 431.5,-541.5 431.5,-522.5 303.5,-522.5"/>
<text text-anchor="middle" x="367.5" y="-529.5" font-family="Helvetica,sans-Serif" font-size="10.00" fill="#000000">coap_new_client_session</text>
</a>
</g>
</g>
<!-- Node188&#45;&gt;Node189 -->
<g id="edge2" class="edge">
<title>Node188&#45;&gt;Node189</title>
<path fill="none" stroke="#191970" d="M229.5851,-488.5805C247.7811,-496.3526 271.4499,-505.9316 293,-513 303.5271,-516.4528 315.0593,-519.664 325.8382,-522.4272"/>
<polygon fill="#191970" stroke="#191970" points="230.9168,-485.3432 220.3487,-484.5902 228.1406,-491.7692 230.9168,-485.3432"/>
</g>
<!-- Node190 -->
<g id="node4" class="node">
<title>Node190</title>
<g id="a_node4"><a xlink:href="coap__session_8h.html#a40790c70df0b38fe89f3fb2ad255d662" target="_top" xlink:title="Creates a new client session to the designated server with PSK credentials. ">
<polygon fill="#ffffff" stroke="#000000" points="293,-484.5 293,-503.5 442,-503.5 442,-484.5 293,-484.5"/>
<text text-anchor="middle" x="367.5" y="-491.5" font-family="Helvetica,sans-Serif" font-size="10.00" fill="#000000">coap_new_client_session_psk</text>
</a>
</g>
</g>
<!-- Node188&#45;&gt;Node190 -->
<g id="edge3" class="edge">
<title>Node188&#45;&gt;Node190</title>
<path fill="none" stroke="#191970" d="M267.5035,-482.7244C275.8429,-483.6648 284.3957,-484.6292 292.8193,-485.579"/>
<polygon fill="#191970" stroke="#191970" points="267.7895,-479.2346 257.4602,-481.592 267.0051,-486.1905 267.7895,-479.2346"/>
</g>
<!-- Node191 -->
<g id="node5" class="node">
<title>Node191</title>
<g id="a_node5"><a xlink:href="coap__session_8h.html#a90f2df37ae4204189027c01604ddfe50" target="_top" xlink:title="Creates a new client session to the designated server with PKI credentials. ">
<polygon fill="#ffffff" stroke="#000000" points="294.5,-446.5 294.5,-465.5 440.5,-465.5 440.5,-446.5 294.5,-446.5"/>
<text text-anchor="middle" x="367.5" y="-453.5" font-family="Helvetica,sans-Serif" font-size="10.00" fill="#000000">coap_new_client_session_pki</text>
</a>
</g>
</g>
<!-- Node188&#45;&gt;Node191 -->
<g id="edge4" class="edge">
<title>Node188&#45;&gt;Node191</title>
<path fill="none" stroke="#191970" d="M267.641,-467.2601C276.4258,-466.2695 285.4452,-465.2525 294.2989,-464.2541"/>
<polygon fill="#191970" stroke="#191970" points="267.0051,-463.8095 257.4602,-468.408 267.7895,-470.7654 267.0051,-463.8095"/>
</g>
<!-- Node193 -->
<g id="node7" class="node">
<title>Node193</title>
<g id="a_node7"><a xlink:href="net_8h.html#ab0b0b5db03427c4313c01ec2b12cf8ed" target="_top" xlink:title="Sends a CoAP message to given peer. ">
<polygon fill="#ffffff" stroke="#000000" points="335.5,-199.5 335.5,-218.5 399.5,-218.5 399.5,-199.5 335.5,-199.5"/>
<text text-anchor="middle" x="367.5" y="-206.5" font-family="Helvetica,sans-Serif" font-size="10.00" fill="#000000">coap_send</text>
</a>
</g>
</g>
<!-- Node192&#45;&gt;Node193 -->
<g id="edge6" class="edge">
<title>Node192&#45;&gt;Node193</title>
<path fill="none" stroke="#191970" d="M215.6559,-363.097C250.6044,-327.63 330.6233,-246.4239 358.0626,-218.5774"/>
<polygon fill="#191970" stroke="#191970" points="213.0679,-360.7368 208.5421,-370.3163 218.054,-365.65 213.0679,-360.7368"/>
</g>
<!-- Node203 -->
<g id="node17" class="node">
<title>Node203</title>
<g id="a_node17"><a xlink:href="net_8h.html#a9900c032b74bd57f67d489484a2b3207" target="_top" xlink:title="Handles retransmissions of confirmable messages. ">
<polygon fill="#ffffff" stroke="#000000" points="1515,-256.5 1515,-275.5 1601,-275.5 1601,-256.5 1515,-256.5"/>
<text text-anchor="middle" x="1558" y="-263.5" font-family="Helvetica,sans-Serif" font-size="10.00" fill="#000000">coap_retransmit</text>
</a>
</g>
</g>
<!-- Node192&#45;&gt;Node203 -->
<g id="edge47" class="edge">
<title>Node192&#45;&gt;Node203</title>
<path fill="none" stroke="#191970" d="M251.9651,-380C319.7682,-380 440.8753,-380 544.5,-380 544.5,-380 544.5,-380 1016,-380 1113.699,-380 1138.9915,-379.0959 1235,-361 1347.8699,-339.7261 1477.7708,-295.1392 1532.0572,-275.5625"/>
<polygon fill="#191970" stroke="#191970" points="251.5517,-376.5001 241.5517,-380 251.5517,-383.5001 251.5517,-376.5001"/>
</g>
<!-- Node194 -->
<g id="node8" class="node">
<title>Node194</title>
<g id="a_node8"><a xlink:href="coap__session_8h.html#ab3f9f60c0a4857c147fef5721025944c" target="_top" xlink:title="Send a ping message for the session. ">
<polygon fill="#ffffff" stroke="#000000" points="953,-313.5 953,-332.5 1079,-332.5 1079,-313.5 953,-313.5"/>
<text text-anchor="middle" x="1016" y="-320.5" font-family="Helvetica,sans-Serif" font-size="10.00" fill="#000000">coap_session_send_ping</text>
</a>
</g>
</g>
<!-- Node193&#45;&gt;Node194 -->
<g id="edge7" class="edge">
<title>Node193&#45;&gt;Node194</title>
<path fill="none" stroke="#191970" d="M382.1541,-226.6035C401.5124,-248.3967 437.879,-284.5256 478,-300 641.3291,-362.9951 853.5622,-346.1405 955.775,-332.5445"/>
<polygon fill="#191970" stroke="#191970" points="384.5637,-224.0391 375.3752,-218.7645 379.2689,-228.6179 384.5637,-224.0391"/>
</g>
<!-- Node197 -->
<g id="node11" class="node">
<title>Node197</title>
<g id="a_node11"><a xlink:href="net_8h.html#a5854b1394bfddd574e48af116e3aaaf9" target="_top" xlink:title="Sends an RST message with code 0 for the specified request to dst. ">
<polygon fill="#ffffff" stroke="#000000" points="1757.5,-104.5 1757.5,-123.5 1837.5,-123.5 1837.5,-104.5 1757.5,-104.5"/>
<text text-anchor="middle" x="1797.5" y="-111.5" font-family="Helvetica,sans-Serif" font-size="10.00" fill="#000000">coap_send_rst</text>
</a>
</g>
</g>
<!-- Node193&#45;&gt;Node197 -->
<g id="edge45" class="edge">
<title>Node193&#45;&gt;Node197</title>
<path fill="none" stroke="#191970" d="M377.3378,-190.1466C394.0008,-160.0495 430.6351,-101.2612 478,-69 565.6786,-9.2803 600.4152,0 706.5,0 706.5,0 706.5,0 1558,0 1632.969,0 1654.1231,-11.2149 1720,-47 1748.4444,-62.4513 1775.6154,-89.7968 1788.9469,-104.3148"/>
<polygon fill="#191970" stroke="#191970" points="374.1353,-188.7113 372.4659,-199.1738 380.2954,-192.0359 374.1353,-188.7113"/>
</g>
<!-- Node198 -->
<g id="node12" class="node">
<title>Node198</title>
<g id="a_node12"><a xlink:href="net_8h.html#aba278b109415057d15196fa46afee970" target="_top" xlink:title="Sends an ACK message with code 0 for the specified request to dst. ">
<polygon fill="#ffffff" stroke="#000000" points="502,-180.5 502,-199.5 587,-199.5 587,-180.5 502,-180.5"/>
<text text-anchor="middle" x="544.5" y="-187.5" font-family="Helvetica,sans-Serif" font-size="10.00" fill="#000000">coap_send_ack</text>
</a>
</g>
</g>
<!-- Node193&#45;&gt;Node198 -->
<g id="edge11" class="edge">
<title>Node193&#45;&gt;Node198</title>
<path fill="none" stroke="#191970" d="M409.7543,-204.4642C437.5428,-201.4813 473.7911,-197.5902 501.6912,-194.5953"/>
<polygon fill="#191970" stroke="#191970" points="409.1227,-201.0118 399.5534,-205.5592 409.8698,-207.9718 409.1227,-201.0118"/>
</g>
<!-- Node200 -->
<g id="node14" class="node">
<title>Node200</title>
<g id="a_node14"><a xlink:href="net_8h.html#a7bb944fc52f772655356d95724317401" target="_top" xlink:title="Dispatches the PDUs from the receive queue in given context. ">
<polygon fill="#ffffff" stroke="#000000" points="819.5,-142.5 819.5,-161.5 899.5,-161.5 899.5,-142.5 819.5,-142.5"/>
<text text-anchor="middle" x="859.5" y="-149.5" font-family="Helvetica,sans-Serif" font-size="10.00" fill="#000000">coap_dispatch</text>
</a>
</g>
</g>
<!-- Node193&#45;&gt;Node200 -->
<g id="edge44" class="edge">
<title>Node193&#45;&gt;Node200</title>
<path fill="none" stroke="#191970" d="M384.4993,-192.304C404.7853,-173.6649 440.6738,-144.5971 478,-133 600.8574,-94.8288 756.5968,-125.4222 824.8269,-142.4797"/>
<polygon fill="#191970" stroke="#191970" points="381.9121,-189.933 377.04,-199.3412 386.7157,-195.0247 381.9121,-189.933"/>
</g>
<!-- Node209 -->
<g id="node23" class="node">
<title>Node209</title>
<g id="a_node23"><a xlink:href="resource_8c.html#ae1a91e254baca4f43b7896f54a8d9944" target="_top" xlink:title="coap_notify_observers">
<polygon fill="#ffffff" stroke="#000000" points="802,-230.5 802,-249.5 917,-249.5 917,-230.5 802,-230.5"/>
<text text-anchor="middle" x="859.5" y="-237.5" font-family="Helvetica,sans-Serif" font-size="10.00" fill="#000000">coap_notify_observers</text>
</a>
</g>
</g>
<!-- Node193&#45;&gt;Node209 -->
<g id="edge46" class="edge">
<title>Node193&#45;&gt;Node209</title>
<path fill="none" stroke="#191970" d="M388.9721,-224.4238C410.3938,-238.9207 444.8092,-259.8613 478,-270 600.5819,-307.4448 641.0367,-313.5065 766,-285 795.8582,-278.1888 827.2925,-260.5797 845.0428,-249.5172"/>
<polygon fill="#191970" stroke="#191970" points="390.8445,-221.4633 380.6284,-218.6557 386.8638,-227.2213 390.8445,-221.4633"/>
</g>
<!-- Node211 -->
<g id="node25" class="node">
<title>Node211</title>
<g id="a_node25"><a xlink:href="net_8h.html#ab31cd76353f751ec4dc5c033152df575" target="_top" xlink:title="Sends an error response with code code for request request to dst. ">
<polygon fill="#ffffff" stroke="#000000" points="500,-218.5 500,-237.5 589,-237.5 589,-218.5 500,-218.5"/>
<text text-anchor="middle" x="544.5" y="-225.5" font-family="Helvetica,sans-Serif" font-size="10.00" fill="#000000">coap_send_error</text>
</a>
</g>
</g>
<!-- Node193&#45;&gt;Node211 -->
<g id="edge34" class="edge">
<title>Node193&#45;&gt;Node211</title>
<path fill="none" stroke="#191970" d="M409.5319,-213.5119C436.6951,-216.4277 472.011,-220.2187 499.7041,-223.1914"/>
<polygon fill="#191970" stroke="#191970" points="409.8698,-210.0282 399.5534,-212.4408 409.1227,-216.9882 409.8698,-210.0282"/>
</g>
<!-- Node212 -->
<g id="node26" class="node">
<title>Node212</title>
<g id="a_node26"><a xlink:href="net_8h.html#a6aa830b46188549b51773f724eb8e752" target="_top" xlink:title="Helper funktion to create and send a message with type (usually ACK or RST). ">
<polygon fill="#ffffff" stroke="#000000" points="478,-142.5 478,-161.5 611,-161.5 611,-142.5 478,-142.5"/>
<text text-anchor="middle" x="544.5" y="-149.5" font-family="Helvetica,sans-Serif" font-size="10.00" fill="#000000">coap_send_message_type</text>
</a>
</g>
</g>
<!-- Node193&#45;&gt;Node212 -->
<g id="edge36" class="edge">
<title>Node193&#45;&gt;Node212</title>
<path fill="none" stroke="#191970" d="M403.8567,-195.955C425.3331,-188.3852 453.1079,-178.8301 478,-171 488.3084,-167.7574 499.5879,-164.4464 509.8816,-161.5159"/>
<polygon fill="#191970" stroke="#191970" points="402.4216,-192.7502 394.1635,-199.3874 404.7582,-199.3487 402.4216,-192.7502"/>
</g>
<!-- Node213 -->
<g id="node27" class="node">
<title>Node213</title>
<g id="a_node27"><a xlink:href="net_8c.html#a1a280312c4bad55cf10243b9b9c3e966" target="_top" xlink:title="handle_request">
<polygon fill="#ffffff" stroke="#000000" points="665,-66.5 665,-85.5 748,-85.5 748,-66.5 665,-66.5"/>
<text text-anchor="middle" x="706.5" y="-73.5" font-family="Helvetica,sans-Serif" font-size="10.00" fill="#000000">handle_request</text>
</a>
</g>
</g>
<!-- Node193&#45;&gt;Node213 -->
<g id="edge40" class="edge">
<title>Node193&#45;&gt;Node213</title>
<path fill="none" stroke="#191970" d="M379.6367,-190.9504C397.7368,-165.7 434.3888,-120.617 478,-100 538.2231,-71.5299 617.1126,-69.9911 664.6866,-72.3622"/>
<polygon fill="#191970" stroke="#191970" points="376.681,-189.0699 373.8291,-199.2737 382.4217,-193.0755 376.681,-189.0699"/>
</g>
<!-- Node214 -->
<g id="node28" class="node">
<title>Node214</title>
<g id="a_node28"><a xlink:href="net_8c.html#ac4cbcfd073489b57805db665ce3d0681" target="_top" xlink:title="handle_signaling">
<polygon fill="#ffffff" stroke="#000000" points="662,-256.5 662,-275.5 751,-275.5 751,-256.5 662,-256.5"/>
<text text-anchor="middle" x="706.5" y="-263.5" font-family="Helvetica,sans-Serif" font-size="10.00" fill="#000000">handle_signaling</text>
</a>
</g>
</g>
<!-- Node193&#45;&gt;Node214 -->
<g id="edge42" class="edge">
<title>Node193&#45;&gt;Node214</title>
<path fill="none" stroke="#191970" d="M399.2936,-222.2921C421.0604,-230.8019 450.798,-241.2848 478,-247 540.9147,-260.2186 615.388,-264.3207 661.7972,-265.548"/>
<polygon fill="#191970" stroke="#191970" points="400.4765,-218.9958 389.8913,-218.5452 397.8851,-225.4985 400.4765,-218.9958"/>
</g>
<!-- Node195 -->
<g id="node9" class="node">
<title>Node195</title>
<g id="a_node9"><a xlink:href="net_8h.html#aaac86ac50793f309678e4951ecf8863f" target="_top" xlink:title="For applications with their own message loop, send all pending retransmits and return the list of soc...">
<polygon fill="#ffffff" stroke="#000000" points="1649.5,-294.5 1649.5,-313.5 1713.5,-313.5 1713.5,-294.5 1649.5,-294.5"/>
<text text-anchor="middle" x="1681.5" y="-301.5" font-family="Helvetica,sans-Serif" font-size="10.00" fill="#000000">coap_write</text>
</a>
</g>
</g>
<!-- Node194&#45;&gt;Node195 -->
<g id="edge8" class="edge">
<title>Node194&#45;&gt;Node195</title>
<path fill="none" stroke="#191970" d="M1089.3189,-323.0072C1247.4869,-323.0219 1606.6031,-323.0498 1607,-323 1621.8334,-321.1383 1637.9474,-317.2689 1651.3822,-313.5048"/>
<polygon fill="#191970" stroke="#191970" points="1089.1975,-319.5073 1079.1971,-323.0063 1089.1968,-326.5073 1089.1975,-319.5073"/>
</g>
<!-- Node196 -->
<g id="node10" class="node">
<title>Node196</title>
<g id="a_node10"><a xlink:href="coap__io_8c.html#a75a7c93e10ca7858449ba304aad4ea37" target="_top" xlink:title="coap_run_once">
<polygon fill="#ffffff" stroke="#000000" points="1756,-256.5 1756,-275.5 1839,-275.5 1839,-256.5 1756,-256.5"/>
<text text-anchor="middle" x="1797.5" y="-263.5" font-family="Helvetica,sans-Serif" font-size="10.00" fill="#000000">coap_run_once</text>
</a>
</g>
</g>
<!-- Node195&#45;&gt;Node196 -->
<g id="edge9" class="edge">
<title>Node195&#45;&gt;Node196</title>
<path fill="none" stroke="#191970" d="M1720.6528,-291.1741C1736.2176,-286.0753 1753.8141,-280.3109 1768.2377,-275.5859"/>
<polygon fill="#191970" stroke="#191970" points="1719.1852,-287.9718 1710.7717,-294.411 1721.3644,-294.6239 1719.1852,-287.9718"/>
</g>
<!-- Node195&#45;&gt;Node197 -->
<g id="edge10" class="edge">
<title>Node195&#45;&gt;Node197</title>
<path fill="none" stroke="#191970" d="M1715.5811,-288.9559C1717.1531,-287.7236 1718.6394,-286.4061 1720,-285 1767.5969,-235.8102 1789.2558,-152.2544 1795.5028,-123.8147"/>
<polygon fill="#191970" stroke="#191970" points="1713.6593,-286.0306 1707.1927,-294.423 1717.4815,-291.895 1713.6593,-286.0306"/>
</g>
<!-- Node199 -->
<g id="node13" class="node">
<title>Node199</title>
<g id="a_node13"><a xlink:href="net_8c.html#af838d89087ad96495f8ed7f1a9297168" target="_top" xlink:title="handle_response">
<polygon fill="#ffffff" stroke="#000000" points="661.5,-180.5 661.5,-199.5 751.5,-199.5 751.5,-180.5 661.5,-180.5"/>
<text text-anchor="middle" x="706.5" y="-187.5" font-family="Helvetica,sans-Serif" font-size="10.00" fill="#000000">handle_response</text>
</a>
</g>
</g>
<!-- Node198&#45;&gt;Node199 -->
<g id="edge12" class="edge">
<title>Node198&#45;&gt;Node199</title>
<path fill="none" stroke="#191970" d="M597.2842,-190C617.9851,-190 641.4959,-190 661.3874,-190"/>
<polygon fill="#191970" stroke="#191970" points="597.0636,-186.5001 587.0636,-190 597.0636,-193.5001 597.0636,-186.5001"/>
</g>
<!-- Node208 -->
<g id="node22" class="node">
<title>Node208</title>
<g id="a_node22"><a xlink:href="net_8h.html#ade36148140b152d713b23d17bbcf0024" target="_top" xlink:title="Returns a new message id and updates session&#45;&gt;tx_mid accordingly. ">
<polygon fill="#ffffff" stroke="#000000" points="647,-218.5 647,-237.5 766,-237.5 766,-218.5 647,-218.5"/>
<text text-anchor="middle" x="706.5" y="-225.5" font-family="Helvetica,sans-Serif" font-size="10.00" fill="#000000">coap_new_message_id</text>
</a>
</g>
</g>
<!-- Node198&#45;&gt;Node208 -->
<g id="edge29" class="edge">
<title>Node198&#45;&gt;Node208</title>
<path fill="none" stroke="#191970" d="M595.2148,-201.8961C617.9856,-207.2374 644.4867,-213.4537 665.9145,-218.4799"/>
<polygon fill="#191970" stroke="#191970" points="595.9145,-198.4653 585.3794,-199.589 594.3159,-205.2803 595.9145,-198.4653"/>
</g>
<!-- Node199&#45;&gt;Node200 -->
<g id="edge13" class="edge">
<title>Node199&#45;&gt;Node200</title>
<path fill="none" stroke="#191970" d="M754.9768,-177.96C776.3517,-172.6512 801.1134,-166.5012 821.1693,-161.5201"/>
<polygon fill="#191970" stroke="#191970" points="753.9698,-174.6037 745.1084,-180.411 755.6572,-181.3973 753.9698,-174.6037"/>
</g>
<!-- Node200&#45;&gt;Node197 -->
<g id="edge28" class="edge">
<title>Node200&#45;&gt;Node197</title>
<path fill="none" stroke="#191970" d="M892.2809,-138.6674C948.9261,-116.869 1069.2317,-76 1175,-76 1175,-76 1175,-76 1558,-76 1630.412,-76 1713.6345,-93.1538 1760.453,-104.411"/>
<polygon fill="#191970" stroke="#191970" points="890.8261,-135.478 882.7832,-142.3745 893.3713,-141.9989 890.8261,-135.478"/>
</g>
<!-- Node201 -->
<g id="node15" class="node">
<title>Node201</title>
<g id="a_node15"><a xlink:href="net_8c.html#acd36f6fba6d30ab9557e0e6521f4a088" target="_top" xlink:title="coap_read_session">
<polygon fill="#ffffff" stroke="#000000" points="1272.5,-192.5 1272.5,-211.5 1373.5,-211.5 1373.5,-192.5 1272.5,-192.5"/>
<text text-anchor="middle" x="1323" y="-199.5" font-family="Helvetica,sans-Serif" font-size="10.00" fill="#000000">coap_read_session</text>
</a>
</g>
</g>
<!-- Node200&#45;&gt;Node201 -->
<g id="edge14" class="edge">
<title>Node200&#45;&gt;Node201</title>
<path fill="none" stroke="#191970" d="M909.7286,-163.3302C923.6832,-166.1709 938.8814,-168.9811 953,-171 1066.4259,-187.2195 1200.7184,-195.8606 1272.2176,-199.6278"/>
<polygon fill="#191970" stroke="#191970" points="910.3241,-159.8792 899.8206,-161.2671 908.8971,-166.7322 910.3241,-159.8792"/>
</g>
<!-- Node205 -->
<g id="node19" class="node">
<title>Node205</title>
<g id="a_node19"><a xlink:href="net_8h.html#ae6b8ca457dd41f23372f9e9a7159312b" target="_top" xlink:title="Parses and interprets a CoAP datagram with context ctx. ">
<polygon fill="#ffffff" stroke="#000000" points="964,-142.5 964,-161.5 1068,-161.5 1068,-142.5 964,-142.5"/>
<text text-anchor="middle" x="1016" y="-149.5" font-family="Helvetica,sans-Serif" font-size="10.00" fill="#000000">coap_handle_dgram</text>
</a>
</g>
</g>
<!-- Node200&#45;&gt;Node205 -->
<g id="edge22" class="edge">
<title>Node200&#45;&gt;Node205</title>
<path fill="none" stroke="#191970" d="M910.1742,-152C927.3078,-152 946.4638,-152 963.7195,-152"/>
<polygon fill="#191970" stroke="#191970" points="909.8027,-148.5001 899.8026,-152 909.8026,-155.5001 909.8027,-148.5001"/>
</g>
<!-- Node202 -->
<g id="node16" class="node">
<title>Node202</title>
<g id="a_node16"><a xlink:href="net_8h.html#a0748d791fd2af516dd93fbadb660d440" target="_top" xlink:title="For applications with their own message loop, reads all data from the network. ">
<polygon fill="#ffffff" stroke="#000000" points="1411,-205.5 1411,-224.5 1473,-224.5 1473,-205.5 1411,-205.5"/>
<text text-anchor="middle" x="1442" y="-212.5" font-family="Helvetica,sans-Serif" font-size="10.00" fill="#000000">coap_read</text>
</a>
</g>
</g>
<!-- Node201&#45;&gt;Node202 -->
<g id="edge15" class="edge">
<title>Node201&#45;&gt;Node202</title>
<path fill="none" stroke="#191970" d="M1383.949,-208.6583C1393.3142,-209.6814 1402.6315,-210.6992 1410.9721,-211.6104"/>
<polygon fill="#191970" stroke="#191970" points="1384.1329,-205.1576 1373.8119,-207.5509 1383.3726,-212.1162 1384.1329,-205.1576"/>
</g>
<!-- Node202&#45;&gt;Node196 -->
<g id="edge16" class="edge">
<title>Node202&#45;&gt;Node196</title>
<path fill="none" stroke="#191970" d="M1483.3331,-218.1227C1537.8427,-222.6136 1636.6153,-232.0408 1720,-247 1734.0447,-249.5196 1749.3335,-253.0875 1762.5918,-256.4522"/>
<polygon fill="#191970" stroke="#191970" points="1483.2887,-214.6078 1473.0391,-217.2902 1482.7243,-221.585 1483.2887,-214.6078"/>
</g>
<!-- Node202&#45;&gt;Node197 -->
<g id="edge21" class="edge">
<title>Node202&#45;&gt;Node197</title>
<path fill="none" stroke="#191970" d="M1483.1678,-203.3039C1554.2024,-183.1225 1698.4549,-142.1394 1763.8834,-123.5507"/>
<polygon fill="#191970" stroke="#191970" points="1481.8995,-200.0257 1473.2367,-206.1254 1483.8125,-206.7592 1481.8995,-200.0257"/>
</g>
<!-- Node202&#45;&gt;Node203 -->
<g id="edge17" class="edge">
<title>Node202&#45;&gt;Node203</title>
<path fill="none" stroke="#191970" d="M1473.1204,-228.6822C1493.0768,-237.4562 1518.4844,-248.6268 1536.2791,-256.4503"/>
<polygon fill="#191970" stroke="#191970" points="1474.3817,-225.4135 1463.8187,-224.5927 1471.5644,-231.8215 1474.3817,-225.4135"/>
</g>
<!-- Node203&#45;&gt;Node195 -->
<g id="edge18" class="edge">
<title>Node203&#45;&gt;Node195</title>
<path fill="none" stroke="#191970" d="M1598.7397,-278.5353C1615.5405,-283.7048 1634.697,-289.5991 1650.3457,-294.4141"/>
<polygon fill="#191970" stroke="#191970" points="1599.7514,-275.1847 1589.1643,-275.589 1597.6927,-281.8752 1599.7514,-275.1847"/>
</g>
<!-- Node203&#45;&gt;Node197 -->
<g id="edge20" class="edge">
<title>Node203&#45;&gt;Node197</title>
<path fill="none" stroke="#191970" d="M1582.9225,-251.0183C1614.8888,-231.7104 1671.9418,-196.9398 1720,-166 1742.4791,-151.528 1768.1763,-134.1094 1783.605,-123.5546"/>
<polygon fill="#191970" stroke="#191970" points="1580.9778,-248.1038 1574.2222,-256.2655 1584.5929,-254.098 1580.9778,-248.1038"/>
</g>
<!-- Node204 -->
<g id="node18" class="node">
<title>Node204</title>
<g id="a_node18"><a xlink:href="libcoap_8h.html#a5d1fb0b44497970b0f75fa0b38570a82" target="_top" xlink:title="coap_cleanup">
<polygon fill="#ffffff" stroke="#000000" points="1643,-256.5 1643,-275.5 1720,-275.5 1720,-256.5 1643,-256.5"/>
<text text-anchor="middle" x="1681.5" y="-263.5" font-family="Helvetica,sans-Serif" font-size="10.00" fill="#000000">coap_cleanup</text>
</a>
</g>
</g>
<!-- Node203&#45;&gt;Node204 -->
<g id="edge19" class="edge">
<title>Node203&#45;&gt;Node204</title>
<path fill="none" stroke="#191970" d="M1611.5137,-266C1621.9861,-266 1632.7802,-266 1642.6622,-266"/>
<polygon fill="#191970" stroke="#191970" points="1611.1943,-262.5001 1601.1943,-266 1611.1943,-269.5001 1611.1943,-262.5001"/>
</g>
<!-- Node205&#45;&gt;Node197 -->
<g id="edge27" class="edge">
<title>Node205&#45;&gt;Node197</title>
<path fill="none" stroke="#191970" d="M1070.8833,-140.4691C1085.1973,-137.7361 1100.6372,-135.0292 1115,-133 1206.9165,-120.0138 1230.1707,-114 1323,-114 1323,-114 1323,-114 1558,-114 1628.0621,-114 1709.6529,-114 1757.2429,-114"/>
<polygon fill="#191970" stroke="#191970" points="1069.8373,-137.107 1060.691,-142.4544 1071.1757,-143.9778 1069.8373,-137.107"/>
</g>
<!-- Node206 -->
<g id="node20" class="node">
<title>Node206</title>
<g id="a_node20"><a xlink:href="net_8c.html#a8534f7860b14e0743529daff196a27ce" target="_top" xlink:title="coap_handle_dgram_for\l_proto">
<polygon fill="#ffffff" stroke="#000000" points="1115,-143 1115,-173 1235,-173 1235,-143 1115,-143"/>
<text text-anchor="start" x="1123" y="-161" font-family="Helvetica,sans-Serif" font-size="10.00" fill="#000000">coap_handle_dgram_for</text>
<text text-anchor="middle" x="1175" y="-150" font-family="Helvetica,sans-Serif" font-size="10.00" fill="#000000">_proto</text>
</a>
</g>
</g>
<!-- Node205&#45;&gt;Node206 -->
<g id="edge23" class="edge">
<title>Node205&#45;&gt;Node206</title>
<path fill="none" stroke="#191970" d="M1078.4176,-154.3554C1090.393,-154.8073 1102.9112,-155.2797 1114.8145,-155.7289"/>
<polygon fill="#191970" stroke="#191970" points="1078.1874,-150.8443 1068.0625,-153.9646 1077.9234,-157.8393 1078.1874,-150.8443"/>
</g>
<!-- Node206&#45;&gt;Node201 -->
<g id="edge24" class="edge">
<title>Node206&#45;&gt;Node201</title>
<path fill="none" stroke="#191970" d="M1235.3093,-175.9298C1254.3009,-181.5759 1274.539,-187.5927 1290.7821,-192.4217"/>
<polygon fill="#191970" stroke="#191970" points="1236.1021,-172.5141 1225.5193,-173.0192 1234.1072,-179.2239 1236.1021,-172.5141"/>
</g>
<!-- Node207 -->
<g id="node21" class="node">
<title>Node207</title>
<g id="a_node21"><a xlink:href="net_8c.html#a44ffb4b70e537043e9a9cf344be24b92" target="_top" xlink:title="coap_read_endpoint">
<polygon fill="#ffffff" stroke="#000000" points="1271,-151.5 1271,-170.5 1375,-170.5 1375,-151.5 1271,-151.5"/>
<text text-anchor="middle" x="1323" y="-158.5" font-family="Helvetica,sans-Serif" font-size="10.00" fill="#000000">coap_read_endpoint</text>
</a>
</g>
</g>
<!-- Node206&#45;&gt;Node207 -->
<g id="edge25" class="edge">
<title>Node206&#45;&gt;Node207</title>
<path fill="none" stroke="#191970" d="M1245.2786,-159.4246C1253.917,-159.5997 1262.6233,-159.7761 1270.9248,-159.9444"/>
<polygon fill="#191970" stroke="#191970" points="1245.2662,-155.9237 1235.1973,-159.2202 1245.1242,-162.9223 1245.2662,-155.9237"/>
</g>
<!-- Node207&#45;&gt;Node202 -->
<g id="edge26" class="edge">
<title>Node207&#45;&gt;Node202</title>
<path fill="none" stroke="#191970" d="M1355.4015,-174.4404C1361.9145,-177.2172 1368.6939,-180.1618 1375,-183 1391.1042,-190.2479 1409.1601,-198.9029 1422.4667,-205.3831"/>
<polygon fill="#191970" stroke="#191970" points="1356.7096,-171.1935 1346.136,-170.5239 1353.9842,-177.6412 1356.7096,-171.1935"/>
</g>
<!-- Node208&#45;&gt;Node209 -->
<g id="edge30" class="edge">
<title>Node208&#45;&gt;Node209</title>
<path fill="none" stroke="#191970" d="M776.1098,-233.4596C784.7119,-234.1343 793.4311,-234.8181 801.8276,-235.4767"/>
<polygon fill="#191970" stroke="#191970" points="776.335,-229.9666 766.0919,-232.6739 775.7876,-236.9452 776.335,-229.9666"/>
</g>
<!-- Node210 -->
<g id="node24" class="node">
<title>Node210</title>
<g id="a_node24"><a xlink:href="resource_8h.html#a579bcb559463d3a872831c18d8d9a1c1" target="_top" xlink:title="Checks for all known resources, if they are dirty and notifies subscribed observers. ">
<polygon fill="#ffffff" stroke="#000000" points="1509,-294.5 1509,-313.5 1607,-313.5 1607,-294.5 1509,-294.5"/>
<text text-anchor="middle" x="1558" y="-301.5" font-family="Helvetica,sans-Serif" font-size="10.00" fill="#000000">coap_check_notify</text>
</a>
</g>
</g>
<!-- Node209&#45;&gt;Node210 -->
<g id="edge31" class="edge">
<title>Node209&#45;&gt;Node210</title>
<path fill="none" stroke="#191970" d="M927.4415,-246.2251C1067.6605,-259.0727 1386.2068,-288.2595 1508.7188,-299.4846"/>
<polygon fill="#191970" stroke="#191970" points="927.5331,-242.719 917.2555,-245.2918 926.8944,-249.6898 927.5331,-242.719"/>
</g>
<!-- Node210&#45;&gt;Node195 -->
<g id="edge32" class="edge">
<title>Node210&#45;&gt;Node195</title>
<path fill="none" stroke="#191970" d="M1617.2085,-304C1628.2213,-304 1639.3421,-304 1649.1665,-304"/>
<polygon fill="#191970" stroke="#191970" points="1617.1654,-300.5001 1607.1653,-304 1617.1653,-307.5001 1617.1654,-300.5001"/>
</g>
<!-- Node210&#45;&gt;Node204 -->
<g id="edge33" class="edge">
<title>Node210&#45;&gt;Node204</title>
<path fill="none" stroke="#191970" d="M1598.7397,-291.4647C1615.5405,-286.2952 1634.697,-280.4009 1650.3457,-275.5859"/>
<polygon fill="#191970" stroke="#191970" points="1597.6927,-288.1248 1589.1643,-294.411 1599.7514,-294.8153 1597.6927,-288.1248"/>
</g>
<!-- Node211&#45;&gt;Node208 -->
<g id="edge35" class="edge">
<title>Node211&#45;&gt;Node208</title>
<path fill="none" stroke="#191970" d="M599.4856,-228C614.709,-228 631.304,-228 646.7829,-228"/>
<polygon fill="#191970" stroke="#191970" points="599.1961,-224.5001 589.196,-228 599.196,-231.5001 599.1961,-224.5001"/>
</g>
<!-- Node212&#45;&gt;Node197 -->
<g id="edge39" class="edge">
<title>Node212&#45;&gt;Node197</title>
<path fill="none" stroke="#191970" d="M557.4642,-134.2485C574.967,-111.8367 608.4417,-74.1409 647,-57 733.6455,-18.4822 764.6788,-38 859.5,-38 859.5,-38 859.5,-38 1558,-38 1644.81,-38 1741.3787,-83.924 1780.0782,-104.3745"/>
<polygon fill="#191970" stroke="#191970" points="554.6242,-132.2011 551.3638,-142.2818 560.199,-136.4345 554.6242,-132.2011"/>
</g>
<!-- Node212&#45;&gt;Node200 -->
<g id="edge37" class="edge">
<title>Node212&#45;&gt;Node200</title>
<path fill="none" stroke="#191970" d="M621.5097,-152C683.9682,-152 769.5216,-152 819.215,-152"/>
<polygon fill="#191970" stroke="#191970" points="621.3034,-148.5001 611.3034,-152 621.3034,-155.5001 621.3034,-148.5001"/>
</g>
<!-- Node212&#45;&gt;Node208 -->
<g id="edge38" class="edge">
<title>Node212&#45;&gt;Node208</title>
<path fill="none" stroke="#191970" d="M599.6206,-165.1763C603.5812,-166.8949 607.4199,-168.8278 611,-171 630.8897,-183.0679 627.2984,-196.6274 647,-209 653.0608,-212.8062 659.9513,-215.9127 666.8409,-218.4273"/>
<polygon fill="#191970" stroke="#191970" points="600.812,-161.8845 590.2226,-161.5436 598.2881,-168.4137 600.812,-161.8845"/>
</g>
<!-- Node213&#45;&gt;Node200 -->
<g id="edge41" class="edge">
<title>Node213&#45;&gt;Node200</title>
<path fill="none" stroke="#191970" d="M741.8062,-89.4C749.8418,-92.6814 758.2823,-96.3149 766,-100 793.9916,-113.3656 825.252,-131.422 843.6046,-142.3614"/>
<polygon fill="#191970" stroke="#191970" points="742.8659,-86.0544 732.2812,-85.5923 740.2675,-92.5543 742.8659,-86.0544"/>
</g>
<!-- Node214&#45;&gt;Node200 -->
<g id="edge43" class="edge">
<title>Node214&#45;&gt;Node200</title>
<path fill="none" stroke="#191970" d="M755.2368,-252.6398C758.9806,-250.9553 762.6153,-249.0809 766,-247 804.4417,-223.3664 838.57,-180.6166 852.6517,-161.5856"/>
<polygon fill="#191970" stroke="#191970" points="753.7552,-249.4632 745.7862,-256.445 756.3698,-255.9566 753.7552,-249.4632"/>
</g>
<!-- Node215&#45;&gt;Node202 -->
<g id="edge49" class="edge">
<title>Node215&#45;&gt;Node202</title>
<path fill="none" stroke="#191970" d="M1204.1982,-328.1117C1258.735,-302.171 1374.7905,-246.9686 1421.6987,-224.6564"/>
<polygon fill="#191970" stroke="#191970" points="1202.5955,-324.9982 1195.0684,-332.4544 1205.6023,-331.3196 1202.5955,-324.9982"/>
</g>
</g>
</svg>
        <g id="navigator" transform="translate(0 0)" fill="#404254">
                <rect fill="#f2f5e9" fill-opacity="0.5" stroke="#606060" stroke-width=".5" x="0" y="0" width="60" height="60"/>
                <use id="zoomplus" xlink:href="#zoomPlus" x="17" y="9" onmousedown="handleZoom(evt,'in')"/>
                <use id="zoomminus" xlink:href="#zoomMin" x="42" y="9" onmousedown="handleZoom(evt,'out')"/>
                <use id="reset" xlink:href="#resetDef" x="30" y="36" onmousedown="handleReset()"/>
                <g id="arrowUp" xlink:href="#dirArrow" transform="translate(30 24)" onmousedown="handlePan(0,-1)">
                  <use xlink:href="#rim" fill="#404040">
                        <set attributeName="fill" to="#808080" begin="arrowUp.mouseover" end="arrowUp.mouseout"/>
                  </use>
                  <path fill="none" stroke="white" stroke-width="1.5" d="M0,-3.0v7 M-2.5,-0.5L0,-3.0L2.5,-0.5"/>
                </g>
                <g id="arrowRight" xlink:href="#dirArrow" transform="rotate(90) translate(36 -43)" onmousedown="handlePan(1,0)">
                  <use xlink:href="#rim" fill="#404040">
                        <set attributeName="fill" to="#808080" begin="arrowRight.mouseover" end="arrowRight.mouseout"/>
                  </use>
                  <path fill="none" stroke="white" stroke-width="1.5" d="M0,-3.0v7 M-2.5,-0.5L0,-3.0L2.5,-0.5"/>
                </g>
                <g id="arrowDown" xlink:href="#dirArrow" transform="rotate(180) translate(-30 -48)" onmousedown="handlePan(0,1)">
                  <use xlink:href="#rim" fill="#404040">
                        <set attributeName="fill" to="#808080" begin="arrowDown.mouseover" end="arrowDown.mouseout"/>
                  </use>
                  <path fill="none" stroke="white" stroke-width="1.5" d="M0,-3.0v7 M-2.5,-0.5L0,-3.0L2.5,-0.5"/>
                </g>
                <g id="arrowLeft" xlink:href="#dirArrow" transform="rotate(270) translate(-36 17)" onmousedown="handlePan(-1,0)">
                  <use xlink:href="#rim" fill="#404040">
                        <set attributeName="fill" to="#808080" begin="arrowLeft.mouseover" end="arrowLeft.mouseout"/>
                  </use>
                  <path fill="none" stroke="white" stroke-width="1.5" d="M0,-3.0v7 M-2.5,-0.5L0,-3.0L2.5,-0.5"/>
                </g>
        </g>
        <svg viewBox="0 0 15 15" width="100%" height="30px" preserveAspectRatio="xMaxYMin meet">
         <g id="arrow_out" transform="scale(0.3 0.3)">
          <a xlink:href="coap__notls_8c_a52cb9af7ca5069034596f063f6f6ad22_icgraph_org.svg" target="_base">
           <rect id="button" ry="5" rx="5" y="6" x="6" height="38" width="38"
                fill="#f2f5e9" fill-opacity="0.5" stroke="#606060" stroke-width="1.0"/>
           <path id="arrow"
             d="M 11.500037,31.436501 C 11.940474,20.09759 22.043105,11.32322 32.158766,21.979434 L 37.068811,17.246167 C 37.068811,17.246167 37.088388,32 37.088388,32 L 22.160133,31.978069 C 22.160133,31.978069 26.997745,27.140456 26.997745,27.140456 C 18.528582,18.264221 13.291696,25.230495 11.500037,31.436501 z"
             style="fill:#404040;"/>
          </a>
         </g>
        </svg>
</svg>
