<?xml version="1.0" encoding="UTF-8" standalone="no"?>
<!DOCTYPE svg PUBLIC "-//W3C//DTD SVG 1.1//EN"
 "http://www.w3.org/Graphics/SVG/1.1/DTD/svg11.dtd">
<!-- Generated by graphviz version 2.40.1 (20161225.0304)
 -->
<!-- Title: coap_endpoint_new_dtls_session Pages: 1 -->
<svg width="724pt" height="141pt"
 viewBox="0.00 0.00 724.00 141.11" xmlns="http://www.w3.org/2000/svg" xmlns:xlink="http://www.w3.org/1999/xlink">
<g id="graph0" class="graph" transform="scale(1 1) rotate(0) translate(4 137.1053)">
<title>coap_endpoint_new_dtls_session</title>
<polygon fill="#ffffff" stroke="transparent" points="-4,4 -4,-137.1053 720,-137.1053 720,4 -4,4"/>
<!-- Node58 -->
<g id="node1" class="node">
<title>Node58</title>
<polygon fill="#bfbfbf" stroke="#000000" points="0,-51.1053 0,-81.1053 124,-81.1053 124,-51.1053 0,-51.1053"/>
<text text-anchor="start" x="8" y="-69.1053" font-family="Helvetica,sans-Serif" font-size="10.00" fill="#000000">coap_endpoint_new_dtls</text>
<text text-anchor="middle" x="62" y="-58.1053" font-family="Helvetica,sans-Serif" font-size="10.00" fill="#000000">_session</text>
</g>
<!-- Node59 -->
<g id="node2" class="node">
<title>Node59</title>
<g id="a_node2"><a xlink:href="net_8c.html#a44ffb4b70e537043e9a9cf344be24b92" target="_top" xlink:title="coap_read_endpoint">
<polygon fill="#ffffff" stroke="#000000" points="160,-56.6053 160,-75.6053 264,-75.6053 264,-56.6053 160,-56.6053"/>
<text text-anchor="middle" x="212" y="-63.6053" font-family="Helvetica,sans-Serif" font-size="10.00" fill="#000000">coap_read_endpoint</text>
</a>
</g>
</g>
<!-- Node58&#45;&gt;Node59 -->
<g id="edge1" class="edge">
<title>Node58&#45;&gt;Node59</title>
<path fill="none" stroke="#191970" d="M134.5799,-66.1053C143.0394,-66.1053 151.5401,-66.1053 159.6508,-66.1053"/>
<polygon fill="#191970" stroke="#191970" points="134.3104,-62.6054 124.3104,-66.1053 134.3103,-69.6054 134.3104,-62.6054"/>
</g>
<!-- Node60 -->
<g id="node3" class="node">
<title>Node60</title>
<g id="a_node3"><a xlink:href="net_8h.html#a0748d791fd2af516dd93fbadb660d440" target="_top" xlink:title="For applications with their own message loop, reads all data from the network. ">
<polygon fill="#ffffff" stroke="#000000" points="300,-56.6053 300,-75.6053 362,-75.6053 362,-56.6053 300,-56.6053"/>
<text text-anchor="middle" x="331" y="-63.6053" font-family="Helvetica,sans-Serif" font-size="10.00" fill="#000000">coap_read</text>
</a>
</g>
</g>
<!-- Node59&#45;&gt;Node60 -->
<g id="edge2" class="edge">
<title>Node59&#45;&gt;Node60</title>
<path fill="none" stroke="#191970" d="M274.469,-66.1053C283.226,-66.1053 291.897,-66.1053 299.7208,-66.1053"/>
<polygon fill="#191970" stroke="#191970" points="274.1952,-62.6054 264.1951,-66.1053 274.1951,-69.6054 274.1952,-62.6054"/>
</g>
<!-- Node61 -->
<g id="node4" class="node">
<title>Node61</title>
<g id="a_node4"><a xlink:href="coap__io_8c.html#a75a7c93e10ca7858449ba304aad4ea37" target="_top" xlink:title="coap_run_once">
<polygon fill="#ffffff" stroke="#000000" points="633,-113.6053 633,-132.6053 716,-132.6053 716,-113.6053 633,-113.6053"/>
<text text-anchor="middle" x="674.5" y="-120.6053" font-family="Helvetica,sans-Serif" font-size="10.00" fill="#000000">coap_run_once</text>
</a>
</g>
</g>
<!-- Node60&#45;&gt;Node61 -->
<g id="edge3" class="edge">
<title>Node60&#45;&gt;Node61</title>
<path fill="none" stroke="#191970" d="M363.9915,-79.2864C401.1889,-93.3802 463.8211,-114.8182 520,-123.1053 557.9461,-128.7028 601.7075,-128.0468 632.9472,-126.3771"/>
<polygon fill="#191970" stroke="#191970" points="365.2415,-76.0173 354.6515,-75.6987 362.7314,-82.5518 365.2415,-76.0173"/>
</g>
<!-- Node62 -->
<g id="node5" class="node">
<title>Node62</title>
<g id="a_node5"><a xlink:href="net_8h.html#a9900c032b74bd57f67d489484a2b3207" target="_top" xlink:title="Handles retransmissions of confirmable messages. ">
<polygon fill="#ffffff" stroke="#000000" points="398,-56.6053 398,-75.6053 484,-75.6053 484,-56.6053 398,-56.6053"/>
<text text-anchor="middle" x="441" y="-63.6053" font-family="Helvetica,sans-Serif" font-size="10.00" fill="#000000">coap_retransmit</text>
</a>
</g>
</g>
<!-- Node60&#45;&gt;Node62 -->
<g id="edge4" class="edge">
<title>Node60&#45;&gt;Node62</title>
<path fill="none" stroke="#191970" d="M372.4282,-66.1053C380.7153,-66.1053 389.4409,-66.1053 397.7866,-66.1053"/>
<polygon fill="#191970" stroke="#191970" points="372.2274,-62.6054 362.2274,-66.1053 372.2273,-69.6054 372.2274,-62.6054"/>
</g>
<!-- Node64 -->
<g id="node7" class="node">
<title>Node64</title>
<g id="a_node7"><a xlink:href="net_8h.html#a5854b1394bfddd574e48af116e3aaaf9" target="_top" xlink:title="Sends an RST message with code 0 for the specified request to dst. ">
<polygon fill="#ffffff" stroke="#000000" points="634.5,-56.6053 634.5,-75.6053 714.5,-75.6053 714.5,-56.6053 634.5,-56.6053"/>
<text text-anchor="middle" x="674.5" y="-63.6053" font-family="Helvetica,sans-Serif" font-size="10.00" fill="#000000">coap_send_rst</text>
</a>
</g>
</g>
<!-- Node60&#45;&gt;Node64 -->
<g id="edge10" class="edge">
<title>Node60&#45;&gt;Node64</title>
<path fill="none" stroke="#191970" d="M356.9191,-51.6326C405.0505,-26.7048 511.1461,19.0672 597,-9.1053 625.5652,-18.4788 652.2754,-42.8507 665.617,-56.4954"/>
<polygon fill="#191970" stroke="#191970" points="355.017,-48.6796 347.8222,-56.4569 358.2966,-54.8638 355.017,-48.6796"/>
</g>
<!-- Node63 -->
<g id="node6" class="node">
<title>Node63</title>
<g id="a_node6"><a xlink:href="net_8h.html#aaac86ac50793f309678e4951ecf8863f" target="_top" xlink:title="For applications with their own message loop, send all pending retransmits and return the list of soc...">
<polygon fill="#ffffff" stroke="#000000" points="526.5,-94.6053 526.5,-113.6053 590.5,-113.6053 590.5,-94.6053 526.5,-94.6053"/>
<text text-anchor="middle" x="558.5" y="-101.6053" font-family="Helvetica,sans-Serif" font-size="10.00" fill="#000000">coap_write</text>
</a>
</g>
</g>
<!-- Node62&#45;&gt;Node63 -->
<g id="edge5" class="edge">
<title>Node62&#45;&gt;Node63</title>
<path fill="none" stroke="#191970" d="M480.2092,-78.7857C496.0854,-83.9201 514.11,-89.7494 528.8593,-94.5193"/>
<polygon fill="#191970" stroke="#191970" points="481.242,-75.4413 470.6502,-75.6943 479.088,-82.1016 481.242,-75.4413"/>
</g>
<!-- Node62&#45;&gt;Node64 -->
<g id="edge9" class="edge">
<title>Node62&#45;&gt;Node64</title>
<path fill="none" stroke="#191970" d="M494.2873,-66.1053C536.8913,-66.1053 595.692,-66.1053 634.3817,-66.1053"/>
<polygon fill="#191970" stroke="#191970" points="494.0996,-62.6054 484.0996,-66.1053 494.0996,-69.6054 494.0996,-62.6054"/>
</g>
<!-- Node65 -->
<g id="node8" class="node">
<title>Node65</title>
<g id="a_node8"><a xlink:href="libcoap_8h.html#a5d1fb0b44497970b0f75fa0b38570a82" target="_top" xlink:title="coap_cleanup">
<polygon fill="#ffffff" stroke="#000000" points="520,-18.6053 520,-37.6053 597,-37.6053 597,-18.6053 520,-18.6053"/>
<text text-anchor="middle" x="558.5" y="-25.6053" font-family="Helvetica,sans-Serif" font-size="10.00" fill="#000000">coap_cleanup</text>
</a>
</g>
</g>
<!-- Node62&#45;&gt;Node65 -->
<g id="edge8" class="edge">
<title>Node62&#45;&gt;Node65</title>
<path fill="none" stroke="#191970" d="M480.2092,-53.4248C496.0854,-48.2904 514.11,-42.4612 528.8593,-37.6912"/>
<polygon fill="#191970" stroke="#191970" points="479.088,-50.1089 470.6502,-56.5163 481.242,-56.7692 479.088,-50.1089"/>
</g>
<!-- Node63&#45;&gt;Node61 -->
<g id="edge6" class="edge">
<title>Node63&#45;&gt;Node61</title>
<path fill="none" stroke="#191970" d="M600.6193,-111.0041C611.036,-112.7103 622.1933,-114.5378 632.5996,-116.2423"/>
<polygon fill="#191970" stroke="#191970" points="600.9388,-107.5099 590.5046,-109.3474 599.8073,-114.4178 600.9388,-107.5099"/>
</g>
<!-- Node63&#45;&gt;Node64 -->
<g id="edge7" class="edge">
<title>Node63&#45;&gt;Node64</title>
<path fill="none" stroke="#191970" d="M597.6528,-91.2793C613.2176,-86.1805 630.8141,-80.4162 645.2377,-75.6912"/>
<polygon fill="#191970" stroke="#191970" points="596.1852,-88.077 587.7717,-94.5163 598.3644,-94.7292 596.1852,-88.077"/>
</g>
</g>
</svg>
