<?xml version="1.0" encoding="UTF-8" standalone="no"?>
<!DOCTYPE svg PUBLIC "-//W3C//DTD SVG 1.1//EN"
 "http://www.w3.org/Graphics/SVG/1.1/DTD/svg11.dtd">
<!-- Generated by graphviz version 2.40.1 (20161225.0304)
 -->
<!-- Title: coap_session_connected Pages: 1 -->
<svg width="1264pt" height="221pt"
 viewBox="0.00 0.00 1264.00 220.60" xmlns="http://www.w3.org/2000/svg" xmlns:xlink="http://www.w3.org/1999/xlink">
<g id="graph0" class="graph" transform="scale(1 1) rotate(0) translate(4 216.5995)">
<title>coap_session_connected</title>
<polygon fill="#ffffff" stroke="transparent" points="-4,4 -4,-216.5995 1260,-216.5995 1260,4 -4,4"/>
<!-- Node462 -->
<g id="node1" class="node">
<title>Node462</title>
<polygon fill="#bfbfbf" stroke="#000000" points="0,-80.0995 0,-99.0995 127,-99.0995 127,-80.0995 0,-80.0995"/>
<text text-anchor="middle" x="63.5" y="-87.0995" font-family="Helvetica,sans-Serif" font-size="10.00" fill="#000000">coap_session_connected</text>
</g>
<!-- Node463 -->
<g id="node2" class="node">
<title>Node463</title>
<g id="a_node2"><a xlink:href="net_8h.html#a9900c032b74bd57f67d489484a2b3207" target="_top" xlink:title="Handles retransmissions of confirmable messages. ">
<polygon fill="#ffffff" stroke="#000000" points="938,-51.0995 938,-70.0995 1024,-70.0995 1024,-51.0995 938,-51.0995"/>
<text text-anchor="middle" x="981" y="-58.0995" font-family="Helvetica,sans-Serif" font-size="10.00" fill="#000000">coap_retransmit</text>
</a>
</g>
</g>
<!-- Node462&#45;&gt;Node463 -->
<g id="edge1" class="edge">
<title>Node462&#45;&gt;Node463</title>
<path fill="none" stroke="#191970" d="M110.9396,-77.7406C163.6115,-65.6318 251.3269,-48.5995 328,-48.5995 328,-48.5995 328,-48.5995 752,-48.5995 816.8927,-48.5995 891.9877,-53.4645 937.9848,-56.9991"/>
<polygon fill="#191970" stroke="#191970" points="109.8271,-74.4062 100.8861,-80.0903 111.4202,-81.2226 109.8271,-74.4062"/>
</g>
<!-- Node468 -->
<g id="node7" class="node">
<title>Node468</title>
<g id="a_node7"><a xlink:href="net_8c.html#ac4cbcfd073489b57805db665ce3d0681" target="_top" xlink:title="handle_signaling">
<polygon fill="#ffffff" stroke="#000000" points="163,-118.0995 163,-137.0995 252,-137.0995 252,-118.0995 163,-118.0995"/>
<text text-anchor="middle" x="207.5" y="-125.0995" font-family="Helvetica,sans-Serif" font-size="10.00" fill="#000000">handle_signaling</text>
</a>
</g>
</g>
<!-- Node462&#45;&gt;Node468 -->
<g id="edge7" class="edge">
<title>Node462&#45;&gt;Node468</title>
<path fill="none" stroke="#191970" d="M109.6722,-101.7839C129.6642,-107.0595 152.7187,-113.1434 171.424,-118.0795"/>
<polygon fill="#191970" stroke="#191970" points="110.3994,-98.356 99.8373,-99.1885 108.6132,-105.1243 110.3994,-98.356"/>
</g>
<!-- Node469 -->
<g id="node8" class="node">
<title>Node469</title>
<g id="a_node8"><a xlink:href="net_8h.html#a7bb944fc52f772655356d95724317401" target="_top" xlink:title="Dispatches the PDUs from the receive queue in given context. ">
<polygon fill="#ffffff" stroke="#000000" points="288,-118.0995 288,-137.0995 368,-137.0995 368,-118.0995 288,-118.0995"/>
<text text-anchor="middle" x="328" y="-125.0995" font-family="Helvetica,sans-Serif" font-size="10.00" fill="#000000">coap_dispatch</text>
</a>
</g>
</g>
<!-- Node462&#45;&gt;Node469 -->
<g id="edge21" class="edge">
<title>Node462&#45;&gt;Node469</title>
<path fill="none" stroke="#191970" d="M137.2013,-94.5449C172.1538,-97.523 214.399,-102.0398 252,-108.5995 265.9341,-111.0304 281.0897,-114.622 294.1747,-118.0299"/>
<polygon fill="#191970" stroke="#191970" points="137.3296,-91.0437 127.0752,-93.7075 136.7526,-98.0198 137.3296,-91.0437"/>
</g>
<!-- Node464 -->
<g id="node3" class="node">
<title>Node464</title>
<g id="a_node3"><a xlink:href="net_8h.html#aaac86ac50793f309678e4951ecf8863f" target="_top" xlink:title="For applications with their own message loop, send all pending retransmits and return the list of soc...">
<polygon fill="#ffffff" stroke="#000000" points="1066.5,-51.0995 1066.5,-70.0995 1130.5,-70.0995 1130.5,-51.0995 1066.5,-51.0995"/>
<text text-anchor="middle" x="1098.5" y="-58.0995" font-family="Helvetica,sans-Serif" font-size="10.00" fill="#000000">coap_write</text>
</a>
</g>
</g>
<!-- Node463&#45;&gt;Node464 -->
<g id="edge2" class="edge">
<title>Node463&#45;&gt;Node464</title>
<path fill="none" stroke="#191970" d="M1034.1069,-60.5995C1045.1506,-60.5995 1056.4627,-60.5995 1066.463,-60.5995"/>
<polygon fill="#191970" stroke="#191970" points="1034.0855,-57.0996 1024.0855,-60.5995 1034.0854,-64.0996 1034.0855,-57.0996"/>
</g>
<!-- Node466 -->
<g id="node5" class="node">
<title>Node466</title>
<g id="a_node5"><a xlink:href="net_8h.html#a5854b1394bfddd574e48af116e3aaaf9" target="_top" xlink:title="Sends an RST message with code 0 for the specified request to dst. ">
<polygon fill="#ffffff" stroke="#000000" points="1174.5,-127.0995 1174.5,-146.0995 1254.5,-146.0995 1254.5,-127.0995 1174.5,-127.0995"/>
<text text-anchor="middle" x="1214.5" y="-134.0995" font-family="Helvetica,sans-Serif" font-size="10.00" fill="#000000">coap_send_rst</text>
</a>
</g>
</g>
<!-- Node463&#45;&gt;Node466 -->
<g id="edge6" class="edge">
<title>Node463&#45;&gt;Node466</title>
<path fill="none" stroke="#191970" d="M1020.319,-73.3972C1066.9086,-88.5612 1143.456,-113.476 1185.1672,-127.0522"/>
<polygon fill="#191970" stroke="#191970" points="1021.1652,-69.9919 1010.5729,-70.225 1018.9987,-76.6482 1021.1652,-69.9919"/>
</g>
<!-- Node467 -->
<g id="node6" class="node">
<title>Node467</title>
<g id="a_node6"><a xlink:href="libcoap_8h.html#a5d1fb0b44497970b0f75fa0b38570a82" target="_top" xlink:title="coap_cleanup">
<polygon fill="#ffffff" stroke="#000000" points="1060,-13.0995 1060,-32.0995 1137,-32.0995 1137,-13.0995 1060,-13.0995"/>
<text text-anchor="middle" x="1098.5" y="-20.0995" font-family="Helvetica,sans-Serif" font-size="10.00" fill="#000000">coap_cleanup</text>
</a>
</g>
</g>
<!-- Node463&#45;&gt;Node467 -->
<g id="edge5" class="edge">
<title>Node463&#45;&gt;Node467</title>
<path fill="none" stroke="#191970" d="M1020.2092,-47.9191C1036.0854,-42.7847 1054.11,-36.9555 1068.8593,-32.1855"/>
<polygon fill="#191970" stroke="#191970" points="1019.088,-44.6032 1010.6502,-51.0105 1021.242,-51.2635 1019.088,-44.6032"/>
</g>
<!-- Node465 -->
<g id="node4" class="node">
<title>Node465</title>
<g id="a_node4"><a xlink:href="coap__io_8c.html#a75a7c93e10ca7858449ba304aad4ea37" target="_top" xlink:title="coap_run_once">
<polygon fill="#ffffff" stroke="#000000" points="1173,-13.0995 1173,-32.0995 1256,-32.0995 1256,-13.0995 1173,-13.0995"/>
<text text-anchor="middle" x="1214.5" y="-20.0995" font-family="Helvetica,sans-Serif" font-size="10.00" fill="#000000">coap_run_once</text>
</a>
</g>
</g>
<!-- Node464&#45;&gt;Node465 -->
<g id="edge3" class="edge">
<title>Node464&#45;&gt;Node465</title>
<path fill="none" stroke="#191970" d="M1137.6528,-47.7736C1153.2176,-42.6748 1170.8141,-36.9105 1185.2377,-32.1855"/>
<polygon fill="#191970" stroke="#191970" points="1136.1852,-44.5713 1127.7717,-51.0105 1138.3644,-51.2235 1136.1852,-44.5713"/>
</g>
<!-- Node464&#45;&gt;Node466 -->
<g id="edge4" class="edge">
<title>Node464&#45;&gt;Node466</title>
<path fill="none" stroke="#191970" d="M1122.9667,-75.6801C1127.6431,-78.6109 1132.4865,-81.6797 1137,-84.5995 1159.4472,-99.121 1185.1537,-116.5252 1200.5929,-127.0637"/>
<polygon fill="#191970" stroke="#191970" points="1124.6488,-72.6044 1114.3099,-70.2896 1120.9486,-78.5466 1124.6488,-72.6044"/>
</g>
<!-- Node468&#45;&gt;Node469 -->
<g id="edge8" class="edge">
<title>Node468&#45;&gt;Node469</title>
<path fill="none" stroke="#191970" d="M262.028,-127.5995C270.6451,-127.5995 279.4198,-127.5995 287.6383,-127.5995"/>
<polygon fill="#191970" stroke="#191970" points="262.0274,-124.0996 252.0274,-127.5995 262.0274,-131.0996 262.0274,-124.0996"/>
</g>
<!-- Node469&#45;&gt;Node466 -->
<g id="edge20" class="edge">
<title>Node469&#45;&gt;Node466</title>
<path fill="none" stroke="#191970" d="M355.0025,-141.8465C403.4633,-166.0495 509.0153,-212.5995 604,-212.5995 604,-212.5995 604,-212.5995 981,-212.5995 1052.2568,-212.5995 1070.0523,-200.0033 1137,-175.5995 1159.0765,-167.5522 1183.0259,-154.8304 1198.3678,-146.1194"/>
<polygon fill="#191970" stroke="#191970" points="356.3226,-138.5915 345.8216,-137.1849 353.1535,-144.833 356.3226,-138.5915"/>
</g>
<!-- Node470 -->
<g id="node9" class="node">
<title>Node470</title>
<g id="a_node9"><a xlink:href="net_8c.html#acd36f6fba6d30ab9557e0e6521f4a088" target="_top" xlink:title="coap_read_session">
<polygon fill="#ffffff" stroke="#000000" points="701.5,-78.0995 701.5,-97.0995 802.5,-97.0995 802.5,-78.0995 701.5,-78.0995"/>
<text text-anchor="middle" x="752" y="-85.0995" font-family="Helvetica,sans-Serif" font-size="10.00" fill="#000000">coap_read_session</text>
</a>
</g>
</g>
<!-- Node469&#45;&gt;Node470 -->
<g id="edge9" class="edge">
<title>Node469&#45;&gt;Node470</title>
<path fill="none" stroke="#191970" d="M378.0084,-116.0448C386.6405,-114.3451 395.5529,-112.7742 404,-111.5995 509.1201,-96.9813 633.4015,-91.1302 701.3466,-88.8934"/>
<polygon fill="#191970" stroke="#191970" points="377.1436,-112.6492 368.0485,-118.0832 378.5472,-119.507 377.1436,-112.6492"/>
</g>
<!-- Node472 -->
<g id="node11" class="node">
<title>Node472</title>
<g id="a_node11"><a xlink:href="net_8h.html#ae6b8ca457dd41f23372f9e9a7159312b" target="_top" xlink:title="Parses and interprets a CoAP datagram with context ctx. ">
<polygon fill="#ffffff" stroke="#000000" points="404,-121.0995 404,-140.0995 508,-140.0995 508,-121.0995 404,-121.0995"/>
<text text-anchor="middle" x="456" y="-128.0995" font-family="Helvetica,sans-Serif" font-size="10.00" fill="#000000">coap_handle_dgram</text>
</a>
</g>
</g>
<!-- Node469&#45;&gt;Node472 -->
<g id="edge14" class="edge">
<title>Node469&#45;&gt;Node472</title>
<path fill="none" stroke="#191970" d="M378.1883,-128.7758C386.5884,-128.9727 395.3218,-129.1774 403.7716,-129.3754"/>
<polygon fill="#191970" stroke="#191970" points="378.2281,-125.2759 368.1488,-128.5405 378.064,-132.274 378.2281,-125.2759"/>
</g>
<!-- Node471 -->
<g id="node10" class="node">
<title>Node471</title>
<g id="a_node10"><a xlink:href="net_8h.html#a0748d791fd2af516dd93fbadb660d440" target="_top" xlink:title="For applications with their own message loop, reads all data from the network. ">
<polygon fill="#ffffff" stroke="#000000" points="840,-78.0995 840,-97.0995 902,-97.0995 902,-78.0995 840,-78.0995"/>
<text text-anchor="middle" x="871" y="-85.0995" font-family="Helvetica,sans-Serif" font-size="10.00" fill="#000000">coap_read</text>
</a>
</g>
</g>
<!-- Node470&#45;&gt;Node471 -->
<g id="edge10" class="edge">
<title>Node470&#45;&gt;Node471</title>
<path fill="none" stroke="#191970" d="M812.949,-87.5995C822.3142,-87.5995 831.6315,-87.5995 839.9721,-87.5995"/>
<polygon fill="#191970" stroke="#191970" points="812.8119,-84.0996 802.8119,-87.5995 812.8119,-91.0996 812.8119,-84.0996"/>
</g>
<!-- Node471&#45;&gt;Node463 -->
<g id="edge12" class="edge">
<title>Node471&#45;&gt;Node463</title>
<path fill="none" stroke="#191970" d="M912.1997,-77.4869C922.0436,-75.0707 932.5179,-72.4997 942.2471,-70.1116"/>
<polygon fill="#191970" stroke="#191970" points="911.1047,-74.1517 902.2274,-79.9346 912.7734,-80.9499 911.1047,-74.1517"/>
</g>
<!-- Node471&#45;&gt;Node465 -->
<g id="edge11" class="edge">
<title>Node471&#45;&gt;Node465</title>
<path fill="none" stroke="#191970" d="M890.7735,-71.6754C903.627,-61.9339 921.0855,-49.8078 938,-41.5995 989.0932,-16.805 1003.8544,-12.1411 1060,-3.5995 1093.8329,1.5476 1103.0247,.5044 1137,-3.5995 1152.4037,-5.4602 1169.1632,-9.3295 1183.1437,-13.0937"/>
<polygon fill="#191970" stroke="#191970" points="888.4282,-69.0651 882.6739,-77.9611 892.7199,-74.5952 888.4282,-69.0651"/>
</g>
<!-- Node471&#45;&gt;Node466 -->
<g id="edge13" class="edge">
<title>Node471&#45;&gt;Node466</title>
<path fill="none" stroke="#191970" d="M912.184,-93.4744C978.6041,-102.9492 1108.5659,-121.4881 1174.3317,-130.8696"/>
<polygon fill="#191970" stroke="#191970" points="912.4833,-89.9817 902.0892,-92.0344 911.4947,-96.9116 912.4833,-89.9817"/>
</g>
<!-- Node472&#45;&gt;Node466 -->
<g id="edge19" class="edge">
<title>Node472&#45;&gt;Node466</title>
<path fill="none" stroke="#191970" d="M494.2628,-143.1422C509.5774,-147.7211 527.4768,-152.5254 544,-155.5995 635.2633,-172.579 659.1707,-174.5995 752,-174.5995 752,-174.5995 752,-174.5995 981,-174.5995 1051.643,-174.5995 1132.7651,-157.4457 1178.3956,-146.1885"/>
<polygon fill="#191970" stroke="#191970" points="495.1992,-139.7685 484.6126,-140.1862 493.149,-146.4616 495.1992,-139.7685"/>
</g>
<!-- Node473 -->
<g id="node12" class="node">
<title>Node473</title>
<g id="a_node12"><a xlink:href="net_8c.html#a8534f7860b14e0743529daff196a27ce" target="_top" xlink:title="coap_handle_dgram_for\l_proto">
<polygon fill="#ffffff" stroke="#000000" points="544,-115.5995 544,-145.5995 664,-145.5995 664,-115.5995 544,-115.5995"/>
<text text-anchor="start" x="552" y="-133.5995" font-family="Helvetica,sans-Serif" font-size="10.00" fill="#000000">coap_handle_dgram_for</text>
<text text-anchor="middle" x="604" y="-122.5995" font-family="Helvetica,sans-Serif" font-size="10.00" fill="#000000">_proto</text>
</a>
</g>
</g>
<!-- Node472&#45;&gt;Node473 -->
<g id="edge15" class="edge">
<title>Node472&#45;&gt;Node473</title>
<path fill="none" stroke="#191970" d="M518.3759,-130.5995C526.8453,-130.5995 535.523,-130.5995 543.9503,-130.5995"/>
<polygon fill="#191970" stroke="#191970" points="518.1793,-127.0996 508.1793,-130.5995 518.1792,-134.0996 518.1793,-127.0996"/>
</g>
<!-- Node473&#45;&gt;Node470 -->
<g id="edge16" class="edge">
<title>Node473&#45;&gt;Node470</title>
<path fill="none" stroke="#191970" d="M665.52,-112.7255C683.8554,-107.3983 703.2434,-101.7653 719.0046,-97.186"/>
<polygon fill="#191970" stroke="#191970" points="664.3896,-109.4091 655.7632,-115.5602 666.3427,-116.1311 664.3896,-109.4091"/>
</g>
<!-- Node474 -->
<g id="node13" class="node">
<title>Node474</title>
<g id="a_node13"><a xlink:href="net_8c.html#a44ffb4b70e537043e9a9cf344be24b92" target="_top" xlink:title="coap_read_endpoint">
<polygon fill="#ffffff" stroke="#000000" points="700,-118.0995 700,-137.0995 804,-137.0995 804,-118.0995 700,-118.0995"/>
<text text-anchor="middle" x="752" y="-125.0995" font-family="Helvetica,sans-Serif" font-size="10.00" fill="#000000">coap_read_endpoint</text>
</a>
</g>
</g>
<!-- Node473&#45;&gt;Node474 -->
<g id="edge17" class="edge">
<title>Node473&#45;&gt;Node474</title>
<path fill="none" stroke="#191970" d="M674.2786,-129.175C682.917,-128.9999 691.6233,-128.8234 699.9248,-128.6551"/>
<polygon fill="#191970" stroke="#191970" points="674.1242,-125.6773 664.1973,-129.3793 674.2662,-132.6759 674.1242,-125.6773"/>
</g>
<!-- Node474&#45;&gt;Node471 -->
<g id="edge18" class="edge">
<title>Node474&#45;&gt;Node471</title>
<path fill="none" stroke="#191970" d="M790.1899,-114.7626C807.2571,-109.0257 827.0197,-102.3829 842.7291,-97.1024"/>
<polygon fill="#191970" stroke="#191970" points="788.8671,-111.5147 780.5035,-118.0185 791.0975,-118.1499 788.8671,-111.5147"/>
</g>
</g>
</svg>
