<?xml version="1.0" encoding="UTF-8" standalone="no"?>
<!DOCTYPE svg PUBLIC "-//W3C//DTD SVG 1.1//EN"
 "http://www.w3.org/Graphics/SVG/1.1/DTD/svg11.dtd">
<!-- Generated by graphviz version 2.40.1 (20161225.0304)
 -->
<!-- Title: coap_packet_set_addr Pages: 1 -->
<!--zoomable 141 -->
<svg id="main" version="1.1" xmlns="http://www.w3.org/2000/svg" xmlns:xlink="http://www.w3.org/1999/xlink" xml:space="preserve" onload="init(evt)">
<style type="text/css"><![CDATA[
.edge:hover path { stroke: red; }
.edge:hover polygon { stroke: red; fill: red; }
]]></style>
<script type="text/javascript"><![CDATA[
var edges = document.getElementsByTagName('g');
if (edges && edges.length) {
  for (var i=0;i<edges.length;i++) {
    if (edges[i].id.substr(0,4)=='edge') {
      edges[i].setAttribute('class','edge');
    }
  }
}
]]></script>
        <defs>
                <circle id="rim" cx="0" cy="0" r="7"/>
                <circle id="rim2" cx="0" cy="0" r="3.5"/>
                <g id="zoomPlus">
                        <use xlink:href="#rim" fill="#404040">
                                <set attributeName="fill" to="#808080" begin="zoomplus.mouseover" end="zoomplus.mouseout"/>
                        </use>
                        <path d="M-4,0h8M0,-4v8" fill="none" stroke="white" stroke-width="1.5" pointer-events="none"/>
                </g>
                <g id="zoomMin">
                        <use xlink:href="#rim" fill="#404040">
                                <set attributeName="fill" to="#808080" begin="zoomminus.mouseover" end="zoomminus.mouseout"/>
                        </use>
                        <path d="M-4,0h8" fill="none" stroke="white" stroke-width="1.5" pointer-events="none"/>
                </g>
                <g id="dirArrow">
                        <path fill="none" stroke="white" stroke-width="1.5" d="M0,-3.0v7 M-2.5,-0.5L0,-3.0L2.5,-0.5"/>
                </g>
               <g id="resetDef">
                       <use xlink:href="#rim2" fill="#404040">
                               <set attributeName="fill" to="#808080" begin="reset.mouseover" end="reset.mouseout"/>
                       </use>
               </g>
        </defs>

<script type="text/javascript">
var viewWidth = 712;
var viewHeight = 141;
var sectionId = 'dynsection-10';
</script>
<script xlink:href="svgpan.js"/>
<svg id="graph" class="graph">
<g id="viewport">
<title>coap_packet_set_addr</title>
<polygon fill="#ffffff" stroke="transparent" points="-4,4 -4,-137.1053 708,-137.1053 708,4 -4,4"/>
<!-- Node63 -->
<g id="node1" class="node">
<title>Node63</title>
<polygon fill="#bfbfbf" stroke="#000000" points="0,-56.6053 0,-75.6053 115,-75.6053 115,-56.6053 0,-56.6053"/>
<text text-anchor="middle" x="57.5" y="-63.6053" font-family="Helvetica,sans-Serif" font-size="10.00" fill="#000000">coap_packet_set_addr</text>
</g>
<!-- Node64 -->
<g id="node2" class="node">
<title>Node64</title>
<g id="a_node2"><a xlink:href="net_8c.html#acd36f6fba6d30ab9557e0e6521f4a088" target="_top" xlink:title="coap_read_session">
<polygon fill="#ffffff" stroke="#000000" points="151,-56.6053 151,-75.6053 252,-75.6053 252,-56.6053 151,-56.6053"/>
<text text-anchor="middle" x="201.5" y="-63.6053" font-family="Helvetica,sans-Serif" font-size="10.00" fill="#000000">coap_read_session</text>
</a>
</g>
</g>
<!-- Node63&#45;&gt;Node64 -->
<g id="edge1" class="edge">
<title>Node63&#45;&gt;Node64</title>
<path fill="none" stroke="#191970" d="M125.5189,-66.1053C134.0014,-66.1053 142.5577,-66.1053 150.7152,-66.1053"/>
<polygon fill="#191970" stroke="#191970" points="125.2406,-62.6054 115.2406,-66.1053 125.2406,-69.6054 125.2406,-62.6054"/>
</g>
<!-- Node65 -->
<g id="node3" class="node">
<title>Node65</title>
<g id="a_node3"><a xlink:href="net_8h.html#a0748d791fd2af516dd93fbadb660d440" target="_top" xlink:title="For applications with their own message loop, reads all data from the network. ">
<polygon fill="#ffffff" stroke="#000000" points="288,-56.6053 288,-75.6053 350,-75.6053 350,-56.6053 288,-56.6053"/>
<text text-anchor="middle" x="319" y="-63.6053" font-family="Helvetica,sans-Serif" font-size="10.00" fill="#000000">coap_read</text>
</a>
</g>
</g>
<!-- Node64&#45;&gt;Node65 -->
<g id="edge2" class="edge">
<title>Node64&#45;&gt;Node65</title>
<path fill="none" stroke="#191970" d="M262.0773,-66.1053C271.0097,-66.1053 279.8858,-66.1053 287.8784,-66.1053"/>
<polygon fill="#191970" stroke="#191970" points="262.0125,-62.6054 252.0125,-66.1053 262.0125,-69.6054 262.0125,-62.6054"/>
</g>
<!-- Node66 -->
<g id="node4" class="node">
<title>Node66</title>
<g id="a_node4"><a xlink:href="coap__io_8c.html#a75a7c93e10ca7858449ba304aad4ea37" target="_top" xlink:title="coap_run_once">
<polygon fill="#ffffff" stroke="#000000" points="621,-113.6053 621,-132.6053 704,-132.6053 704,-113.6053 621,-113.6053"/>
<text text-anchor="middle" x="662.5" y="-120.6053" font-family="Helvetica,sans-Serif" font-size="10.00" fill="#000000">coap_run_once</text>
</a>
</g>
</g>
<!-- Node65&#45;&gt;Node66 -->
<g id="edge3" class="edge">
<title>Node65&#45;&gt;Node66</title>
<path fill="none" stroke="#191970" d="M351.9915,-79.2864C389.1889,-93.3802 451.8211,-114.8182 508,-123.1053 545.9461,-128.7028 589.7075,-128.0468 620.9472,-126.3771"/>
<polygon fill="#191970" stroke="#191970" points="353.2415,-76.0173 342.6515,-75.6987 350.7314,-82.5518 353.2415,-76.0173"/>
</g>
<!-- Node67 -->
<g id="node5" class="node">
<title>Node67</title>
<g id="a_node5"><a xlink:href="net_8h.html#a9900c032b74bd57f67d489484a2b3207" target="_top" xlink:title="Handles retransmissions of confirmable messages. ">
<polygon fill="#ffffff" stroke="#000000" points="386,-56.6053 386,-75.6053 472,-75.6053 472,-56.6053 386,-56.6053"/>
<text text-anchor="middle" x="429" y="-63.6053" font-family="Helvetica,sans-Serif" font-size="10.00" fill="#000000">coap_retransmit</text>
</a>
</g>
</g>
<!-- Node65&#45;&gt;Node67 -->
<g id="edge4" class="edge">
<title>Node65&#45;&gt;Node67</title>
<path fill="none" stroke="#191970" d="M360.4282,-66.1053C368.7153,-66.1053 377.4409,-66.1053 385.7866,-66.1053"/>
<polygon fill="#191970" stroke="#191970" points="360.2274,-62.6054 350.2274,-66.1053 360.2273,-69.6054 360.2274,-62.6054"/>
</g>
<!-- Node69 -->
<g id="node7" class="node">
<title>Node69</title>
<g id="a_node7"><a xlink:href="net_8h.html#a5854b1394bfddd574e48af116e3aaaf9" target="_top" xlink:title="Sends an RST message with code 0 for the specified request to dst. ">
<polygon fill="#ffffff" stroke="#000000" points="622.5,-56.6053 622.5,-75.6053 702.5,-75.6053 702.5,-56.6053 622.5,-56.6053"/>
<text text-anchor="middle" x="662.5" y="-63.6053" font-family="Helvetica,sans-Serif" font-size="10.00" fill="#000000">coap_send_rst</text>
</a>
</g>
</g>
<!-- Node65&#45;&gt;Node69 -->
<g id="edge10" class="edge">
<title>Node65&#45;&gt;Node69</title>
<path fill="none" stroke="#191970" d="M344.9191,-51.6326C393.0505,-26.7048 499.1461,19.0672 585,-9.1053 613.5652,-18.4788 640.2754,-42.8507 653.617,-56.4954"/>
<polygon fill="#191970" stroke="#191970" points="343.017,-48.6796 335.8222,-56.4569 346.2966,-54.8638 343.017,-48.6796"/>
</g>
<!-- Node68 -->
<g id="node6" class="node">
<title>Node68</title>
<g id="a_node6"><a xlink:href="net_8h.html#aaac86ac50793f309678e4951ecf8863f" target="_top" xlink:title="For applications with their own message loop, send all pending retransmits and return the list of soc...">
<polygon fill="#ffffff" stroke="#000000" points="514.5,-94.6053 514.5,-113.6053 578.5,-113.6053 578.5,-94.6053 514.5,-94.6053"/>
<text text-anchor="middle" x="546.5" y="-101.6053" font-family="Helvetica,sans-Serif" font-size="10.00" fill="#000000">coap_write</text>
</a>
</g>
</g>
<!-- Node67&#45;&gt;Node68 -->
<g id="edge5" class="edge">
<title>Node67&#45;&gt;Node68</title>
<path fill="none" stroke="#191970" d="M468.2092,-78.7857C484.0854,-83.9201 502.11,-89.7494 516.8593,-94.5193"/>
<polygon fill="#191970" stroke="#191970" points="469.242,-75.4413 458.6502,-75.6943 467.088,-82.1016 469.242,-75.4413"/>
</g>
<!-- Node67&#45;&gt;Node69 -->
<g id="edge9" class="edge">
<title>Node67&#45;&gt;Node69</title>
<path fill="none" stroke="#191970" d="M482.2873,-66.1053C524.8913,-66.1053 583.692,-66.1053 622.3817,-66.1053"/>
<polygon fill="#191970" stroke="#191970" points="482.0996,-62.6054 472.0996,-66.1053 482.0996,-69.6054 482.0996,-62.6054"/>
</g>
<!-- Node70 -->
<g id="node8" class="node">
<title>Node70</title>
<g id="a_node8"><a xlink:href="libcoap_8h.html#a5d1fb0b44497970b0f75fa0b38570a82" target="_top" xlink:title="coap_cleanup">
<polygon fill="#ffffff" stroke="#000000" points="508,-18.6053 508,-37.6053 585,-37.6053 585,-18.6053 508,-18.6053"/>
<text text-anchor="middle" x="546.5" y="-25.6053" font-family="Helvetica,sans-Serif" font-size="10.00" fill="#000000">coap_cleanup</text>
</a>
</g>
</g>
<!-- Node67&#45;&gt;Node70 -->
<g id="edge8" class="edge">
<title>Node67&#45;&gt;Node70</title>
<path fill="none" stroke="#191970" d="M468.2092,-53.4248C484.0854,-48.2904 502.11,-42.4612 516.8593,-37.6912"/>
<polygon fill="#191970" stroke="#191970" points="467.088,-50.1089 458.6502,-56.5163 469.242,-56.7692 467.088,-50.1089"/>
</g>
<!-- Node68&#45;&gt;Node66 -->
<g id="edge6" class="edge">
<title>Node68&#45;&gt;Node66</title>
<path fill="none" stroke="#191970" d="M588.6193,-111.0041C599.036,-112.7103 610.1933,-114.5378 620.5996,-116.2423"/>
<polygon fill="#191970" stroke="#191970" points="588.9388,-107.5099 578.5046,-109.3474 587.8073,-114.4178 588.9388,-107.5099"/>
</g>
<!-- Node68&#45;&gt;Node69 -->
<g id="edge7" class="edge">
<title>Node68&#45;&gt;Node69</title>
<path fill="none" stroke="#191970" d="M585.6528,-91.2793C601.2176,-86.1805 618.8141,-80.4162 633.2377,-75.6912"/>
<polygon fill="#191970" stroke="#191970" points="584.1852,-88.077 575.7717,-94.5163 586.3644,-94.7292 584.1852,-88.077"/>
</g>
</g>
</svg>
        <g id="navigator" transform="translate(0 0)" fill="#404254">
                <rect fill="#f2f5e9" fill-opacity="0.5" stroke="#606060" stroke-width=".5" x="0" y="0" width="60" height="60"/>
                <use id="zoomplus" xlink:href="#zoomPlus" x="17" y="9" onmousedown="handleZoom(evt,'in')"/>
                <use id="zoomminus" xlink:href="#zoomMin" x="42" y="9" onmousedown="handleZoom(evt,'out')"/>
                <use id="reset" xlink:href="#resetDef" x="30" y="36" onmousedown="handleReset()"/>
                <g id="arrowUp" xlink:href="#dirArrow" transform="translate(30 24)" onmousedown="handlePan(0,-1)">
                  <use xlink:href="#rim" fill="#404040">
                        <set attributeName="fill" to="#808080" begin="arrowUp.mouseover" end="arrowUp.mouseout"/>
                  </use>
                  <path fill="none" stroke="white" stroke-width="1.5" d="M0,-3.0v7 M-2.5,-0.5L0,-3.0L2.5,-0.5"/>
                </g>
                <g id="arrowRight" xlink:href="#dirArrow" transform="rotate(90) translate(36 -43)" onmousedown="handlePan(1,0)">
                  <use xlink:href="#rim" fill="#404040">
                        <set attributeName="fill" to="#808080" begin="arrowRight.mouseover" end="arrowRight.mouseout"/>
                  </use>
                  <path fill="none" stroke="white" stroke-width="1.5" d="M0,-3.0v7 M-2.5,-0.5L0,-3.0L2.5,-0.5"/>
                </g>
                <g id="arrowDown" xlink:href="#dirArrow" transform="rotate(180) translate(-30 -48)" onmousedown="handlePan(0,1)">
                  <use xlink:href="#rim" fill="#404040">
                        <set attributeName="fill" to="#808080" begin="arrowDown.mouseover" end="arrowDown.mouseout"/>
                  </use>
                  <path fill="none" stroke="white" stroke-width="1.5" d="M0,-3.0v7 M-2.5,-0.5L0,-3.0L2.5,-0.5"/>
                </g>
                <g id="arrowLeft" xlink:href="#dirArrow" transform="rotate(270) translate(-36 17)" onmousedown="handlePan(-1,0)">
                  <use xlink:href="#rim" fill="#404040">
                        <set attributeName="fill" to="#808080" begin="arrowLeft.mouseover" end="arrowLeft.mouseout"/>
                  </use>
                  <path fill="none" stroke="white" stroke-width="1.5" d="M0,-3.0v7 M-2.5,-0.5L0,-3.0L2.5,-0.5"/>
                </g>
        </g>
        <svg viewBox="0 0 15 15" width="100%" height="30px" preserveAspectRatio="xMaxYMin meet">
         <g id="arrow_out" transform="scale(0.3 0.3)">
          <a xlink:href="coap__io_8h_a3e89fd7b48d3f34faced5f524811b3c4_icgraph_org.svg" target="_base">
           <rect id="button" ry="5" rx="5" y="6" x="6" height="38" width="38"
                fill="#f2f5e9" fill-opacity="0.5" stroke="#606060" stroke-width="1.0"/>
           <path id="arrow"
             d="M 11.500037,31.436501 C 11.940474,20.09759 22.043105,11.32322 32.158766,21.979434 L 37.068811,17.246167 C 37.068811,17.246167 37.088388,32 37.088388,32 L 22.160133,31.978069 C 22.160133,31.978069 26.997745,27.140456 26.997745,27.140456 C 18.528582,18.264221 13.291696,25.230495 11.500037,31.436501 z"
             style="fill:#404040;"/>
          </a>
         </g>
        </svg>
</svg>
