<?xml version="1.0" encoding="UTF-8" standalone="no"?>
<!DOCTYPE svg PUBLIC "-//W3C//DTD SVG 1.1//EN"
 "http://www.w3.org/Graphics/SVG/1.1/DTD/svg11.dtd">
<!-- Generated by graphviz version 2.40.1 (20161225.0304)
 -->
<!-- Title: coap_dtls_context_set_pki Pages: 1 -->
<svg width="466pt" height="66pt"
 viewBox="0.00 0.00 466.00 66.00" xmlns="http://www.w3.org/2000/svg" xmlns:xlink="http://www.w3.org/1999/xlink">
<g id="graph0" class="graph" transform="scale(1 1) rotate(0) translate(4 62)">
<title>coap_dtls_context_set_pki</title>
<polygon fill="#ffffff" stroke="transparent" points="-4,4 -4,-62 462,-62 462,4 -4,4"/>
<!-- Node6 -->
<g id="node1" class="node">
<title>Node6</title>
<polygon fill="#bfbfbf" stroke="#000000" points="0,-19.5 0,-38.5 133,-38.5 133,-19.5 0,-19.5"/>
<text text-anchor="middle" x="66.5" y="-26.5" font-family="Helvetica,sans-Serif" font-size="10.00" fill="#000000">coap_dtls_context_set_pki</text>
</g>
<!-- Node7 -->
<g id="node2" class="node">
<title>Node7</title>
<g id="a_node2"><a xlink:href="coap__session_8h.html#a90f2df37ae4204189027c01604ddfe50" target="_top" xlink:title="Creates a new client session to the designated server with PKI credentials. ">
<polygon fill="#ffffff" stroke="#000000" points="169,-38.5 169,-57.5 315,-57.5 315,-38.5 169,-38.5"/>
<text text-anchor="middle" x="242" y="-45.5" font-family="Helvetica,sans-Serif" font-size="10.00" fill="#000000">coap_new_client_session_pki</text>
</a>
</g>
</g>
<!-- Node6&#45;&gt;Node7 -->
<g id="edge1" class="edge">
<title>Node6&#45;&gt;Node7</title>
<path fill="none" stroke="#191970" d="M143.1062,-37.2935C151.7046,-38.2244 160.4481,-39.171 168.9992,-40.0968"/>
<polygon fill="#191970" stroke="#191970" points="143.4179,-33.8069 133.0993,-36.2102 142.6644,-40.7663 143.4179,-33.8069"/>
</g>
<!-- Node8 -->
<g id="node3" class="node">
<title>Node8</title>
<g id="a_node3"><a xlink:href="net_8h.html#a35b413b8771487a5384cfe670553276a" target="_top" xlink:title="Set the context&#39;s default PKI information. ">
<polygon fill="#ffffff" stroke="#000000" points="186,-.5 186,-19.5 298,-19.5 298,-.5 186,-.5"/>
<text text-anchor="middle" x="242" y="-7.5" font-family="Helvetica,sans-Serif" font-size="10.00" fill="#000000">coap_context_set_pki</text>
</a>
</g>
</g>
<!-- Node6&#45;&gt;Node8 -->
<g id="edge2" class="edge">
<title>Node6&#45;&gt;Node8</title>
<path fill="none" stroke="#191970" d="M143.382,-20.6766C157.6279,-19.1343 172.2619,-17.55 185.7508,-16.0897"/>
<polygon fill="#191970" stroke="#191970" points="142.6644,-17.2337 133.0993,-21.7898 143.4179,-24.1931 142.6644,-17.2337"/>
</g>
<!-- Node9 -->
<g id="node4" class="node">
<title>Node9</title>
<g id="a_node4"><a xlink:href="net_8h.html#a696acd1012ad1c2dba081ee5bea54fd8" target="_top" xlink:title="Registers the option type type with the given context object ctx. ">
<polygon fill="#ffffff" stroke="#000000" points="351,-.5 351,-19.5 458,-19.5 458,-.5 351,-.5"/>
<text text-anchor="middle" x="404.5" y="-7.5" font-family="Helvetica,sans-Serif" font-size="10.00" fill="#000000">coap_register_option</text>
</a>
</g>
</g>
<!-- Node8&#45;&gt;Node9 -->
<g id="edge3" class="edge">
<title>Node8&#45;&gt;Node9</title>
<path fill="none" stroke="#191970" d="M308.5285,-10C322.6517,-10 337.389,-10 350.9555,-10"/>
<polygon fill="#191970" stroke="#191970" points="308.3786,-6.5001 298.3786,-10 308.3785,-13.5001 308.3786,-6.5001"/>
</g>
</g>
</svg>
