<?xml version="1.0" encoding="UTF-8" standalone="no"?>
<!DOCTYPE svg PUBLIC "-//W3C//DTD SVG 1.1//EN"
 "http://www.w3.org/Graphics/SVG/1.1/DTD/svg11.dtd">
<!-- Generated by graphviz version 2.40.1 (20161225.0304)
 -->
<!-- Title: coap_dtls.h Pages: 1 -->
<!--zoomable 364 -->
<svg id="main" version="1.1" xmlns="http://www.w3.org/2000/svg" xmlns:xlink="http://www.w3.org/1999/xlink" xml:space="preserve" onload="init(evt)">
<style type="text/css"><![CDATA[
.edge:hover path { stroke: red; }
.edge:hover polygon { stroke: red; fill: red; }
]]></style>
<script type="text/javascript"><![CDATA[
var edges = document.getElementsByTagName('g');
if (edges && edges.length) {
  for (var i=0;i<edges.length;i++) {
    if (edges[i].id.substr(0,4)=='edge') {
      edges[i].setAttribute('class','edge');
    }
  }
}
]]></script>
        <defs>
                <circle id="rim" cx="0" cy="0" r="7"/>
                <circle id="rim2" cx="0" cy="0" r="3.5"/>
                <g id="zoomPlus">
                        <use xlink:href="#rim" fill="#404040">
                                <set attributeName="fill" to="#808080" begin="zoomplus.mouseover" end="zoomplus.mouseout"/>
                        </use>
                        <path d="M-4,0h8M0,-4v8" fill="none" stroke="white" stroke-width="1.5" pointer-events="none"/>
                </g>
                <g id="zoomMin">
                        <use xlink:href="#rim" fill="#404040">
                                <set attributeName="fill" to="#808080" begin="zoomminus.mouseover" end="zoomminus.mouseout"/>
                        </use>
                        <path d="M-4,0h8" fill="none" stroke="white" stroke-width="1.5" pointer-events="none"/>
                </g>
                <g id="dirArrow">
                        <path fill="none" stroke="white" stroke-width="1.5" d="M0,-3.0v7 M-2.5,-0.5L0,-3.0L2.5,-0.5"/>
                </g>
               <g id="resetDef">
                       <use xlink:href="#rim2" fill="#404040">
                               <set attributeName="fill" to="#808080" begin="reset.mouseover" end="reset.mouseout"/>
                       </use>
               </g>
        </defs>

<script type="text/javascript">
var viewWidth = 635;
var viewHeight = 364;
var sectionId = 'dynsection-0';
</script>
<script xlink:href="svgpan.js"/>
<svg id="graph" class="graph">
<g id="viewport">
<title>coap_dtls.h</title>
<polygon fill="#ffffff" stroke="transparent" points="-4,4 -4,-360 631,-360 631,4 -4,4"/>
<!-- Node0 -->
<g id="node1" class="node">
<title>Node0</title>
<polygon fill="#bfbfbf" stroke="#000000" points="382.5,-336.5 382.5,-355.5 449.5,-355.5 449.5,-336.5 382.5,-336.5"/>
<text text-anchor="middle" x="416" y="-343.5" font-family="Helvetica,sans-Serif" font-size="10.00" fill="#000000">coap_dtls.h</text>
</g>
<!-- Node1 -->
<g id="node2" class="node">
<title>Node1</title>
<g id="a_node2"><a xlink:href="net_8h.html" target="_top" xlink:title="net.h">
<polygon fill="#ffffff" stroke="#000000" points="297,-280.5 297,-299.5 335,-299.5 335,-280.5 297,-280.5"/>
<text text-anchor="middle" x="316" y="-287.5" font-family="Helvetica,sans-Serif" font-size="10.00" fill="#000000">net.h</text>
</a>
</g>
</g>
<!-- Node0&#45;&gt;Node1 -->
<g id="edge1" class="edge">
<title>Node0&#45;&gt;Node1</title>
<path fill="none" stroke="#191970" d="M393.5674,-336.3733C376.475,-327.7466 353.36,-314.954 336.7105,-304.9889"/>
<polygon fill="#191970" stroke="#191970" points="338.1049,-301.7387 327.749,-299.5011 334.4492,-307.7083 338.1049,-301.7387"/>
</g>
<!-- Node18 -->
<g id="node19" class="node">
<title>Node18</title>
<g id="a_node19"><a xlink:href="pdu_8h.html" target="_top" xlink:title="Pre&#45;defined constants that reflect defaults for CoAP. ">
<polygon fill="#ffffff" stroke="#000000" points="488.5,-168.5 488.5,-187.5 529.5,-187.5 529.5,-168.5 488.5,-168.5"/>
<text text-anchor="middle" x="509" y="-175.5" font-family="Helvetica,sans-Serif" font-size="10.00" fill="#000000">pdu.h</text>
</a>
</g>
</g>
<!-- Node0&#45;&gt;Node18 -->
<g id="edge40" class="edge">
<title>Node0&#45;&gt;Node18</title>
<path fill="none" stroke="#191970" d="M449.6988,-338.0923C492.6826,-325.9948 565.2455,-298.3444 597,-244 613.0835,-216.4748 570.7726,-196.783 539.3845,-186.4126"/>
<polygon fill="#191970" stroke="#191970" points="540.254,-183.0175 529.6652,-183.375 538.1658,-189.6988 540.254,-183.0175"/>
</g>
<!-- Node22 -->
<g id="node23" class="node">
<title>Node22</title>
<g id="a_node23"><a xlink:href="coap__session_8h.html" target="_top" xlink:title="coap_session.h">
<polygon fill="#ffffff" stroke="#000000" points="502.5,-224.5 502.5,-243.5 587.5,-243.5 587.5,-224.5 502.5,-224.5"/>
<text text-anchor="middle" x="545" y="-231.5" font-family="Helvetica,sans-Serif" font-size="10.00" fill="#000000">coap_session.h</text>
</a>
</g>
</g>
<!-- Node0&#45;&gt;Node22 -->
<g id="edge39" class="edge">
<title>Node0&#45;&gt;Node22</title>
<path fill="none" stroke="#191970" d="M426.9985,-336.4509C449.0853,-317.2747 499.0481,-273.8962 526.3424,-250.1988"/>
<polygon fill="#191970" stroke="#191970" points="528.7729,-252.7238 534.0294,-243.5249 524.1836,-247.438 528.7729,-252.7238"/>
</g>
<!-- Node1&#45;&gt;Node0 -->
<g id="edge18" class="edge">
<title>Node1&#45;&gt;Node0</title>
<path fill="none" stroke="#191970" d="M335.2056,-298.0123C352.3719,-306.5199 377.1444,-320.1708 394.8392,-330.7418"/>
<polygon fill="#191970" stroke="#191970" points="393.4899,-334.019 403.8482,-336.2455 397.1392,-328.0455 393.4899,-334.019"/>
</g>
<!-- Node2 -->
<g id="node3" class="node">
<title>Node2</title>
<polygon fill="#ffffff" stroke="#bfbfbf" points="260,-56.5 260,-75.5 312,-75.5 312,-56.5 260,-56.5"/>
<text text-anchor="middle" x="286" y="-63.5" font-family="Helvetica,sans-Serif" font-size="10.00" fill="#000000">assert.h</text>
</g>
<!-- Node1&#45;&gt;Node2 -->
<g id="edge2" class="edge">
<title>Node1&#45;&gt;Node2</title>
<path fill="none" stroke="#191970" d="M311.2434,-280.4027C306.9665,-271.281 300.9215,-257.0553 298,-244 285.4152,-187.7619 284.7848,-119.2441 285.3797,-86.0042"/>
<polygon fill="#191970" stroke="#191970" points="288.8836,-85.8769 285.6236,-75.7961 281.8856,-85.7096 288.8836,-85.8769"/>
</g>
<!-- Node3 -->
<g id="node4" class="node">
<title>Node3</title>
<polygon fill="#ffffff" stroke="#bfbfbf" points="72,-168.5 72,-187.5 120,-187.5 120,-168.5 72,-168.5"/>
<text text-anchor="middle" x="96" y="-175.5" font-family="Helvetica,sans-Serif" font-size="10.00" fill="#000000">stdlib.h</text>
</g>
<!-- Node1&#45;&gt;Node3 -->
<g id="edge3" class="edge">
<title>Node1&#45;&gt;Node3</title>
<path fill="none" stroke="#191970" d="M296.9361,-289.0826C247.4672,-286.2637 117.0309,-275.8913 91,-244 80.4752,-231.1058 83.4608,-211.6743 88.0378,-197.2309"/>
<polygon fill="#191970" stroke="#191970" points="91.3535,-198.3542 91.4814,-187.7601 84.7749,-195.9621 91.3535,-198.3542"/>
</g>
<!-- Node4 -->
<g id="node5" class="node">
<title>Node4</title>
<polygon fill="#ffffff" stroke="#bfbfbf" points="315.5,-.5 315.5,-19.5 364.5,-19.5 364.5,-.5 315.5,-.5"/>
<text text-anchor="middle" x="340" y="-7.5" font-family="Helvetica,sans-Serif" font-size="10.00" fill="#000000">string.h</text>
</g>
<!-- Node1&#45;&gt;Node4 -->
<g id="edge4" class="edge">
<title>Node1&#45;&gt;Node4</title>
<path fill="none" stroke="#191970" d="M296.558,-280.627C265.9567,-264.3563 210,-227.7962 210,-178 210,-178 210,-178 210,-122 210,-71.3308 267.3852,-38.551 305.9024,-22.256"/>
<polygon fill="#191970" stroke="#191970" points="307.291,-25.4698 315.242,-18.4675 304.6597,-18.9831 307.291,-25.4698"/>
</g>
<!-- Node5 -->
<g id="node6" class="node">
<title>Node5</title>
<polygon fill="#ffffff" stroke="#bfbfbf" points="314,-224.5 314,-243.5 376,-243.5 376,-224.5 314,-224.5"/>
<text text-anchor="middle" x="345" y="-231.5" font-family="Helvetica,sans-Serif" font-size="10.00" fill="#000000">sys/time.h</text>
</g>
<!-- Node1&#45;&gt;Node5 -->
<g id="edge5" class="edge">
<title>Node1&#45;&gt;Node5</title>
<path fill="none" stroke="#191970" d="M321.0514,-280.2455C325.0019,-272.617 330.6097,-261.7881 335.4058,-252.5267"/>
<polygon fill="#191970" stroke="#191970" points="338.5159,-254.1321 340.0065,-243.6427 332.2999,-250.9131 338.5159,-254.1321"/>
</g>
<!-- Node6 -->
<g id="node7" class="node">
<title>Node6</title>
<polygon fill="#ffffff" stroke="#bfbfbf" points="0,-224.5 0,-243.5 44,-243.5 44,-224.5 0,-224.5"/>
<text text-anchor="middle" x="22" y="-231.5" font-family="Helvetica,sans-Serif" font-size="10.00" fill="#000000">time.h</text>
</g>
<!-- Node1&#45;&gt;Node6 -->
<g id="edge6" class="edge">
<title>Node1&#45;&gt;Node6</title>
<path fill="none" stroke="#191970" d="M296.7793,-287.2095C253.7519,-280.8239 146.5071,-264.1354 58,-244 56.7192,-243.7086 55.4157,-243.4008 54.1013,-243.0809"/>
<polygon fill="#191970" stroke="#191970" points="54.559,-239.584 44.001,-240.4662 52.8047,-246.3607 54.559,-239.584"/>
</g>
<!-- Node7 -->
<g id="node8" class="node">
<title>Node7</title>
<g id="a_node8"><a xlink:href="coap__io_8h.html" target="_top" xlink:title="coap_io.h">
<polygon fill="#ffffff" stroke="#000000" points="314.5,-168.5 314.5,-187.5 373.5,-187.5 373.5,-168.5 314.5,-168.5"/>
<text text-anchor="middle" x="344" y="-175.5" font-family="Helvetica,sans-Serif" font-size="10.00" fill="#000000">coap_io.h</text>
</a>
</g>
</g>
<!-- Node1&#45;&gt;Node7 -->
<g id="edge7" class="edge">
<title>Node1&#45;&gt;Node7</title>
<path fill="none" stroke="#191970" d="M311.3858,-280.3156C305.7983,-267.1915 297.9585,-243.194 305,-224 309.0568,-212.9418 317.0797,-202.7193 324.7994,-194.7335"/>
<polygon fill="#191970" stroke="#191970" points="327.4872,-197.0041 332.26,-187.5451 322.6302,-191.9632 327.4872,-197.0041"/>
</g>
<!-- Node14 -->
<g id="node15" class="node">
<title>Node14</title>
<g id="a_node15"><a xlink:href="coap__event_8h.html" target="_top" xlink:title="coap_event.h">
<polygon fill="#ffffff" stroke="#000000" points="106.5,-112.5 106.5,-131.5 181.5,-131.5 181.5,-112.5 106.5,-112.5"/>
<text text-anchor="middle" x="144" y="-119.5" font-family="Helvetica,sans-Serif" font-size="10.00" fill="#000000">coap_event.h</text>
</a>
</g>
</g>
<!-- Node1&#45;&gt;Node14 -->
<g id="edge19" class="edge">
<title>Node1&#45;&gt;Node14</title>
<path fill="none" stroke="#191970" d="M296.8936,-287.3913C270.9145,-282.9042 224.4345,-271.4054 196,-244 166.6987,-215.7591 153.0703,-168.3584 147.4405,-141.7171"/>
<polygon fill="#191970" stroke="#191970" points="150.8352,-140.8373 145.4951,-131.6867 143.9632,-142.1702 150.8352,-140.8373"/>
</g>
<!-- Node15 -->
<g id="node16" class="node">
<title>Node15</title>
<g id="a_node16"><a xlink:href="coap__time_8h.html" target="_top" xlink:title="Clock Handling. ">
<polygon fill="#ffffff" stroke="#000000" points="557,-168.5 557,-187.5 627,-187.5 627,-168.5 557,-168.5"/>
<text text-anchor="middle" x="592" y="-175.5" font-family="Helvetica,sans-Serif" font-size="10.00" fill="#000000">coap_time.h</text>
</a>
</g>
</g>
<!-- Node1&#45;&gt;Node15 -->
<g id="edge21" class="edge">
<title>Node1&#45;&gt;Node15</title>
<path fill="none" stroke="#191970" d="M335.25,-288.2801C395.8837,-282.6709 579.9161,-264.108 597,-244 607.7767,-231.3157 604.758,-211.8566 600.1047,-197.3495"/>
<polygon fill="#191970" stroke="#191970" points="603.3395,-196.0052 596.6014,-187.8291 596.7702,-198.4226 603.3395,-196.0052"/>
</g>
<!-- Node16 -->
<g id="node17" class="node">
<title>Node16</title>
<g id="a_node17"><a xlink:href="option_8h.html" target="_top" xlink:title="Helpers for handling options in CoAP PDUs. ">
<polygon fill="#ffffff" stroke="#000000" points="394.5,-224.5 394.5,-243.5 445.5,-243.5 445.5,-224.5 394.5,-224.5"/>
<text text-anchor="middle" x="420" y="-231.5" font-family="Helvetica,sans-Serif" font-size="10.00" fill="#000000">option.h</text>
</a>
</g>
</g>
<!-- Node1&#45;&gt;Node16 -->
<g id="edge23" class="edge">
<title>Node1&#45;&gt;Node16</title>
<path fill="none" stroke="#191970" d="M334.1154,-280.2455C350.445,-271.4527 374.671,-258.4079 393.2339,-248.4125"/>
<polygon fill="#191970" stroke="#191970" points="394.9468,-251.4654 402.0922,-243.6427 391.6281,-245.3021 394.9468,-251.4654"/>
</g>
<!-- Node1&#45;&gt;Node18 -->
<g id="edge32" class="edge">
<title>Node1&#45;&gt;Node18</title>
<path fill="none" stroke="#191970" d="M335.0389,-287.1807C363.3009,-282.2686 417.0881,-270.0667 455,-244 473.2134,-231.4771 488.5491,-211.1134 498.1689,-196.3133"/>
<polygon fill="#191970" stroke="#191970" points="501.3237,-197.8683 503.638,-187.5293 495.3813,-194.1685 501.3237,-197.8683"/>
</g>
<!-- Node21 -->
<g id="node22" class="node">
<title>Node21</title>
<g id="a_node22"><a xlink:href="prng_8h.html" target="_top" xlink:title="Pseudo Random Numbers. ">
<polygon fill="#ffffff" stroke="#000000" points="100,-224.5 100,-243.5 144,-243.5 144,-224.5 100,-224.5"/>
<text text-anchor="middle" x="122" y="-231.5" font-family="Helvetica,sans-Serif" font-size="10.00" fill="#000000">prng.h</text>
</a>
</g>
</g>
<!-- Node1&#45;&gt;Node21 -->
<g id="edge33" class="edge">
<title>Node1&#45;&gt;Node21</title>
<path fill="none" stroke="#191970" d="M296.6893,-284.4258C263.2921,-274.7853 194.4357,-254.9093 153.8577,-243.196"/>
<polygon fill="#191970" stroke="#191970" points="154.7677,-239.8159 144.1893,-240.4051 152.8263,-246.5413 154.7677,-239.8159"/>
</g>
<!-- Node1&#45;&gt;Node22 -->
<g id="edge35" class="edge">
<title>Node1&#45;&gt;Node22</title>
<path fill="none" stroke="#191970" d="M335.1305,-285.3218C370.2285,-276.7389 445.9097,-258.2317 496.1403,-245.9482"/>
<polygon fill="#191970" stroke="#191970" points="497.2557,-249.2787 506.1381,-243.5034 495.5929,-242.479 497.2557,-249.2787"/>
</g>
<!-- Node7&#45;&gt;Node2 -->
<g id="edge8" class="edge">
<title>Node7&#45;&gt;Node2</title>
<path fill="none" stroke="#191970" d="M333.9661,-168.2627C325.4436,-159.4903 313.4426,-145.8751 306,-132 298.2182,-117.4926 293.0261,-99.5292 289.8866,-86.0075"/>
<polygon fill="#191970" stroke="#191970" points="293.2324,-84.9155 287.7205,-75.8673 286.3869,-86.3779 293.2324,-84.9155"/>
</g>
<!-- Node8 -->
<g id="node9" class="node">
<title>Node8</title>
<polygon fill="#ffffff" stroke="#bfbfbf" points="368,-56.5 368,-75.5 436,-75.5 436,-56.5 368,-56.5"/>
<text text-anchor="middle" x="402" y="-63.5" font-family="Helvetica,sans-Serif" font-size="10.00" fill="#000000">sys/types.h</text>
</g>
<!-- Node7&#45;&gt;Node8 -->
<g id="edge9" class="edge">
<title>Node7&#45;&gt;Node8</title>
<path fill="none" stroke="#191970" d="M354.3593,-168.3388C363.1454,-159.6151 375.4855,-146.0286 383,-132 390.7415,-117.5477 395.6481,-99.5803 398.5319,-86.043"/>
<polygon fill="#191970" stroke="#191970" points="402.0333,-86.3708 400.4963,-75.888 395.1607,-85.0413 402.0333,-86.3708"/>
</g>
<!-- Node9 -->
<g id="node10" class="node">
<title>Node9</title>
<g id="a_node10"><a xlink:href="address_8h.html" target="_top" xlink:title="Representation of network addresses. ">
<polygon fill="#ffffff" stroke="#000000" points="314.5,-112.5 314.5,-131.5 373.5,-131.5 373.5,-112.5 314.5,-112.5"/>
<text text-anchor="middle" x="344" y="-119.5" font-family="Helvetica,sans-Serif" font-size="10.00" fill="#000000">address.h</text>
</a>
</g>
</g>
<!-- Node7&#45;&gt;Node9 -->
<g id="edge10" class="edge">
<title>Node7&#45;&gt;Node9</title>
<path fill="none" stroke="#191970" d="M344,-168.2455C344,-160.9382 344,-150.6944 344,-141.7046"/>
<polygon fill="#191970" stroke="#191970" points="347.5001,-141.6426 344,-131.6427 340.5001,-141.6427 347.5001,-141.6426"/>
</g>
<!-- Node9&#45;&gt;Node2 -->
<g id="edge11" class="edge">
<title>Node9&#45;&gt;Node2</title>
<path fill="none" stroke="#191970" d="M333.8972,-112.2455C325.4972,-104.1352 313.3506,-92.4075 303.3916,-82.7919"/>
<polygon fill="#191970" stroke="#191970" points="305.6122,-80.0707 295.9871,-75.6427 300.75,-85.1066 305.6122,-80.0707"/>
</g>
<!-- Node9&#45;&gt;Node4 -->
<g id="edge13" class="edge">
<title>Node9&#45;&gt;Node4</title>
<path fill="none" stroke="#191970" d="M343.659,-112.4509C343.0066,-94.184 341.5698,-53.9553 340.7035,-29.6976"/>
<polygon fill="#191970" stroke="#191970" points="344.195,-29.3936 340.3402,-19.5249 337.1994,-29.6435 344.195,-29.3936"/>
</g>
<!-- Node9&#45;&gt;Node8 -->
<g id="edge14" class="edge">
<title>Node9&#45;&gt;Node8</title>
<path fill="none" stroke="#191970" d="M354.1028,-112.2455C362.5028,-104.1352 374.6494,-92.4075 384.6084,-82.7919"/>
<polygon fill="#191970" stroke="#191970" points="387.25,-85.1066 392.0129,-75.6427 382.3878,-80.0707 387.25,-85.1066"/>
</g>
<!-- Node10 -->
<g id="node11" class="node">
<title>Node10</title>
<polygon fill="#ffffff" stroke="#bfbfbf" points="460.5,-56.5 460.5,-75.5 509.5,-75.5 509.5,-56.5 460.5,-56.5"/>
<text text-anchor="middle" x="485" y="-63.5" font-family="Helvetica,sans-Serif" font-size="10.00" fill="#000000">stdint.h</text>
</g>
<!-- Node9&#45;&gt;Node10 -->
<g id="edge12" class="edge">
<title>Node9&#45;&gt;Node10</title>
<path fill="none" stroke="#191970" d="M368.2388,-112.3733C391.2789,-103.2226 426.1214,-89.3844 451.7501,-79.2057"/>
<polygon fill="#191970" stroke="#191970" points="453.0756,-82.4452 461.0775,-75.5011 450.4918,-75.9395 453.0756,-82.4452"/>
</g>
<!-- Node11 -->
<g id="node12" class="node">
<title>Node11</title>
<g id="a_node12"><a xlink:href="libcoap_8h.html" target="_top" xlink:title="libcoap.h">
<polygon fill="#ffffff" stroke="#000000" points="121,-56.5 121,-75.5 177,-75.5 177,-56.5 121,-56.5"/>
<text text-anchor="middle" x="149" y="-63.5" font-family="Helvetica,sans-Serif" font-size="10.00" fill="#000000">libcoap.h</text>
</a>
</g>
</g>
<!-- Node9&#45;&gt;Node11 -->
<g id="edge15" class="edge">
<title>Node9&#45;&gt;Node11</title>
<path fill="none" stroke="#191970" d="M314.3837,-113.4948C280.3953,-103.734 224.5576,-87.6986 187.2921,-76.9967"/>
<polygon fill="#191970" stroke="#191970" points="187.8851,-73.5256 177.3074,-74.1293 185.9529,-80.2536 187.8851,-73.5256"/>
</g>
<!-- Node12 -->
<g id="node13" class="node">
<title>Node12</title>
<polygon fill="#ffffff" stroke="#bfbfbf" points="160.5,-.5 160.5,-19.5 225.5,-19.5 225.5,-.5 160.5,-.5"/>
<text text-anchor="middle" x="193" y="-7.5" font-family="Helvetica,sans-Serif" font-size="10.00" fill="#000000">netinet/in.h</text>
</g>
<!-- Node11&#45;&gt;Node12 -->
<g id="edge16" class="edge">
<title>Node11&#45;&gt;Node12</title>
<path fill="none" stroke="#191970" d="M156.6642,-56.2455C162.8473,-48.3761 171.7063,-37.101 179.1289,-27.6542"/>
<polygon fill="#191970" stroke="#191970" points="181.9975,-29.6683 185.4236,-19.6427 176.4932,-25.3435 181.9975,-29.6683"/>
</g>
<!-- Node13 -->
<g id="node14" class="node">
<title>Node13</title>
<polygon fill="#ffffff" stroke="#bfbfbf" points="69.5,-.5 69.5,-19.5 142.5,-19.5 142.5,-.5 69.5,-.5"/>
<text text-anchor="middle" x="106" y="-7.5" font-family="Helvetica,sans-Serif" font-size="10.00" fill="#000000">sys/socket.h</text>
</g>
<!-- Node11&#45;&gt;Node13 -->
<g id="edge17" class="edge">
<title>Node11&#45;&gt;Node13</title>
<path fill="none" stroke="#191970" d="M141.51,-56.2455C135.4674,-48.3761 126.8097,-37.101 119.5559,-27.6542"/>
<polygon fill="#191970" stroke="#191970" points="122.2705,-25.4426 113.4042,-19.6427 116.7185,-29.7058 122.2705,-25.4426"/>
</g>
<!-- Node14&#45;&gt;Node11 -->
<g id="edge20" class="edge">
<title>Node14&#45;&gt;Node11</title>
<path fill="none" stroke="#191970" d="M144.8709,-112.2455C145.5234,-104.9382 146.438,-94.6944 147.2407,-85.7046"/>
<polygon fill="#191970" stroke="#191970" points="150.7358,-85.9143 148.139,-75.6427 143.7635,-85.2918 150.7358,-85.9143"/>
</g>
<!-- Node15&#45;&gt;Node10 -->
<g id="edge22" class="edge">
<title>Node15&#45;&gt;Node10</title>
<path fill="none" stroke="#191970" d="M591.5596,-168.3988C590.4529,-154.5004 586.5741,-128.6249 573,-112 559.2295,-95.1345 537.6269,-83.7139 519.2722,-76.4708"/>
<polygon fill="#191970" stroke="#191970" points="520.3483,-73.1373 509.7549,-72.9629 517.9274,-79.7054 520.3483,-73.1373"/>
</g>
<!-- Node17 -->
<g id="node18" class="node">
<title>Node17</title>
<g id="a_node18"><a xlink:href="bits_8h.html" target="_top" xlink:title="Bit vector manipulation. ">
<polygon fill="#ffffff" stroke="#000000" points="430.5,-112.5 430.5,-131.5 471.5,-131.5 471.5,-112.5 430.5,-112.5"/>
<text text-anchor="middle" x="451" y="-119.5" font-family="Helvetica,sans-Serif" font-size="10.00" fill="#000000">bits.h</text>
</a>
</g>
</g>
<!-- Node16&#45;&gt;Node17 -->
<g id="edge24" class="edge">
<title>Node16&#45;&gt;Node17</title>
<path fill="none" stroke="#191970" d="M422.643,-224.4509C427.722,-206.1013 438.9347,-165.5908 445.6388,-141.3693"/>
<polygon fill="#191970" stroke="#191970" points="449.0692,-142.0962 448.3636,-131.5249 442.3228,-140.2289 449.0692,-142.0962"/>
</g>
<!-- Node16&#45;&gt;Node18 -->
<g id="edge26" class="edge">
<title>Node16&#45;&gt;Node18</title>
<path fill="none" stroke="#191970" d="M435.5026,-224.2455C449.158,-215.6534 469.2657,-203.0014 484.9989,-193.1018"/>
<polygon fill="#191970" stroke="#191970" points="487.0751,-195.9307 493.675,-187.6427 483.3471,-190.006 487.0751,-195.9307"/>
</g>
<!-- Node17&#45;&gt;Node10 -->
<g id="edge25" class="edge">
<title>Node17&#45;&gt;Node10</title>
<path fill="none" stroke="#191970" d="M456.9223,-112.2455C461.6027,-104.5367 468.2673,-93.5598 473.9289,-84.2348"/>
<polygon fill="#191970" stroke="#191970" points="476.9475,-86.007 479.1455,-75.6427 470.9639,-82.3741 476.9475,-86.007"/>
</g>
<!-- Node18&#45;&gt;Node10 -->
<g id="edge31" class="edge">
<title>Node18&#45;&gt;Node10</title>
<path fill="none" stroke="#191970" d="M506.9538,-168.4509C503.0217,-150.1013 494.3409,-109.5908 489.1506,-85.3693"/>
<polygon fill="#191970" stroke="#191970" points="492.5587,-84.5695 487.041,-75.5249 485.7141,-86.0363 492.5587,-84.5695"/>
</g>
<!-- Node19 -->
<g id="node20" class="node">
<title>Node19</title>
<g id="a_node20"><a xlink:href="uri_8h.html" target="_top" xlink:title="uri.h">
<polygon fill="#ffffff" stroke="#000000" points="528.5,-112.5 528.5,-131.5 563.5,-131.5 563.5,-112.5 528.5,-112.5"/>
<text text-anchor="middle" x="546" y="-119.5" font-family="Helvetica,sans-Serif" font-size="10.00" fill="#000000">uri.h</text>
</a>
</g>
</g>
<!-- Node18&#45;&gt;Node19 -->
<g id="edge27" class="edge">
<title>Node18&#45;&gt;Node19</title>
<path fill="none" stroke="#191970" d="M515.4449,-168.2455C520.5382,-160.5367 527.7908,-149.5598 533.952,-140.2348"/>
<polygon fill="#191970" stroke="#191970" points="537.0365,-141.9155 539.6289,-131.6427 531.1962,-138.0566 537.0365,-141.9155"/>
</g>
<!-- Node19&#45;&gt;Node10 -->
<g id="edge28" class="edge">
<title>Node19&#45;&gt;Node10</title>
<path fill="none" stroke="#191970" d="M535.3746,-112.2455C526.4527,-104.0549 513.512,-92.1749 502.9808,-82.5069"/>
<polygon fill="#191970" stroke="#191970" points="505.2371,-79.8271 495.5036,-75.6427 500.5032,-84.9837 505.2371,-79.8271"/>
</g>
<!-- Node20 -->
<g id="node21" class="node">
<title>Node20</title>
<g id="a_node21"><a xlink:href="str_8h.html" target="_top" xlink:title="str.h">
<polygon fill="#ffffff" stroke="#000000" points="528,-56.5 528,-75.5 564,-75.5 564,-56.5 528,-56.5"/>
<text text-anchor="middle" x="546" y="-63.5" font-family="Helvetica,sans-Serif" font-size="10.00" fill="#000000">str.h</text>
</a>
</g>
</g>
<!-- Node19&#45;&gt;Node20 -->
<g id="edge29" class="edge">
<title>Node19&#45;&gt;Node20</title>
<path fill="none" stroke="#191970" d="M546,-112.2455C546,-104.9382 546,-94.6944 546,-85.7046"/>
<polygon fill="#191970" stroke="#191970" points="549.5001,-85.6426 546,-75.6427 542.5001,-85.6427 549.5001,-85.6426"/>
</g>
<!-- Node20&#45;&gt;Node4 -->
<g id="edge30" class="edge">
<title>Node20&#45;&gt;Node4</title>
<path fill="none" stroke="#191970" d="M527.788,-58.9648C524.8663,-57.9202 521.8625,-56.8953 519,-56 469.3879,-40.4832 410.8814,-26.1833 374.6071,-17.7743"/>
<polygon fill="#191970" stroke="#191970" points="375.0748,-14.2906 364.5448,-15.4608 373.5063,-21.1126 375.0748,-14.2906"/>
</g>
<!-- Node21&#45;&gt;Node3 -->
<g id="edge34" class="edge">
<title>Node21&#45;&gt;Node3</title>
<path fill="none" stroke="#191970" d="M117.4711,-224.2455C113.9666,-216.6973 109.0073,-206.0158 104.7377,-196.8197"/>
<polygon fill="#191970" stroke="#191970" points="107.8627,-195.2389 100.477,-187.6427 101.5136,-198.1867 107.8627,-195.2389"/>
</g>
<!-- Node22&#45;&gt;Node7 -->
<g id="edge36" class="edge">
<title>Node22&#45;&gt;Node7</title>
<path fill="none" stroke="#191970" d="M510.4469,-224.3733C475.1532,-214.5402 420.4322,-199.2945 383.4573,-188.9931"/>
<polygon fill="#191970" stroke="#191970" points="384.1025,-185.5396 373.53,-186.2273 382.2238,-192.2828 384.1025,-185.5396"/>
</g>
<!-- Node22&#45;&gt;Node15 -->
<g id="edge37" class="edge">
<title>Node22&#45;&gt;Node15</title>
<path fill="none" stroke="#191970" d="M553.1868,-224.2455C559.8589,-216.2958 569.4479,-204.8706 577.4253,-195.3656"/>
<polygon fill="#191970" stroke="#191970" points="580.1592,-197.5525 583.907,-187.6427 574.7974,-193.0524 580.1592,-197.5525"/>
</g>
<!-- Node22&#45;&gt;Node18 -->
<g id="edge38" class="edge">
<title>Node22&#45;&gt;Node18</title>
<path fill="none" stroke="#191970" d="M538.7293,-224.2455C533.7736,-216.5367 526.717,-205.5598 520.7224,-196.2348"/>
<polygon fill="#191970" stroke="#191970" points="523.5506,-194.1618 515.1989,-187.6427 517.6624,-197.9471 523.5506,-194.1618"/>
</g>
</g>
</svg>
        <g id="navigator" transform="translate(0 0)" fill="#404254">
                <rect fill="#f2f5e9" fill-opacity="0.5" stroke="#606060" stroke-width=".5" x="0" y="0" width="60" height="60"/>
                <use id="zoomplus" xlink:href="#zoomPlus" x="17" y="9" onmousedown="handleZoom(evt,'in')"/>
                <use id="zoomminus" xlink:href="#zoomMin" x="42" y="9" onmousedown="handleZoom(evt,'out')"/>
                <use id="reset" xlink:href="#resetDef" x="30" y="36" onmousedown="handleReset()"/>
                <g id="arrowUp" xlink:href="#dirArrow" transform="translate(30 24)" onmousedown="handlePan(0,-1)">
                  <use xlink:href="#rim" fill="#404040">
                        <set attributeName="fill" to="#808080" begin="arrowUp.mouseover" end="arrowUp.mouseout"/>
                  </use>
                  <path fill="none" stroke="white" stroke-width="1.5" d="M0,-3.0v7 M-2.5,-0.5L0,-3.0L2.5,-0.5"/>
                </g>
                <g id="arrowRight" xlink:href="#dirArrow" transform="rotate(90) translate(36 -43)" onmousedown="handlePan(1,0)">
                  <use xlink:href="#rim" fill="#404040">
                        <set attributeName="fill" to="#808080" begin="arrowRight.mouseover" end="arrowRight.mouseout"/>
                  </use>
                  <path fill="none" stroke="white" stroke-width="1.5" d="M0,-3.0v7 M-2.5,-0.5L0,-3.0L2.5,-0.5"/>
                </g>
                <g id="arrowDown" xlink:href="#dirArrow" transform="rotate(180) translate(-30 -48)" onmousedown="handlePan(0,1)">
                  <use xlink:href="#rim" fill="#404040">
                        <set attributeName="fill" to="#808080" begin="arrowDown.mouseover" end="arrowDown.mouseout"/>
                  </use>
                  <path fill="none" stroke="white" stroke-width="1.5" d="M0,-3.0v7 M-2.5,-0.5L0,-3.0L2.5,-0.5"/>
                </g>
                <g id="arrowLeft" xlink:href="#dirArrow" transform="rotate(270) translate(-36 17)" onmousedown="handlePan(-1,0)">
                  <use xlink:href="#rim" fill="#404040">
                        <set attributeName="fill" to="#808080" begin="arrowLeft.mouseover" end="arrowLeft.mouseout"/>
                  </use>
                  <path fill="none" stroke="white" stroke-width="1.5" d="M0,-3.0v7 M-2.5,-0.5L0,-3.0L2.5,-0.5"/>
                </g>
        </g>
        <svg viewBox="0 0 15 15" width="100%" height="30px" preserveAspectRatio="xMaxYMin meet">
         <g id="arrow_out" transform="scale(0.3 0.3)">
          <a xlink:href="coap__dtls_8h__incl_org.svg" target="_base">
           <rect id="button" ry="5" rx="5" y="6" x="6" height="38" width="38"
                fill="#f2f5e9" fill-opacity="0.5" stroke="#606060" stroke-width="1.0"/>
           <path id="arrow"
             d="M 11.500037,31.436501 C 11.940474,20.09759 22.043105,11.32322 32.158766,21.979434 L 37.068811,17.246167 C 37.068811,17.246167 37.088388,32 37.088388,32 L 22.160133,31.978069 C 22.160133,31.978069 26.997745,27.140456 26.997745,27.140456 C 18.528582,18.264221 13.291696,25.230495 11.500037,31.436501 z"
             style="fill:#404040;"/>
          </a>
         </g>
        </svg>
</svg>
