<?xml version="1.0" encoding="UTF-8" standalone="no"?>
<!DOCTYPE svg PUBLIC "-//W3C//DTD SVG 1.1//EN"
 "http://www.w3.org/Graphics/SVG/1.1/DTD/svg11.dtd">
<!-- Generated by graphviz version 2.40.1 (20161225.0304)
 -->
<!-- Title: coap_get_log_level Pages: 1 -->
<svg width="2264pt" height="663pt"
 viewBox="0.00 0.00 2264.00 663.16" xmlns="http://www.w3.org/2000/svg" xmlns:xlink="http://www.w3.org/1999/xlink">
<g id="graph0" class="graph" transform="scale(1 1) rotate(0) translate(4 659.1636)">
<title>coap_get_log_level</title>
<polygon fill="#ffffff" stroke="transparent" points="-4,4 -4,-659.1636 2260,-659.1636 2260,4 -4,4"/>
<!-- Node7 -->
<g id="node1" class="node">
<title>Node7</title>
<polygon fill="#bfbfbf" stroke="#000000" points="0,-540.6636 0,-559.6636 100,-559.6636 100,-540.6636 0,-540.6636"/>
<text text-anchor="middle" x="50" y="-547.6636" font-family="Helvetica,sans-Serif" font-size="10.00" fill="#000000">coap_get_log_level</text>
</g>
<!-- Node8 -->
<g id="node2" class="node">
<title>Node8</title>
<g id="a_node2"><a xlink:href="coap__io_8c.html#a9b8fa856db7113a97f74c726219c4be4" target="_top" xlink:title="coap_network_read">
<polygon fill="#ffffff" stroke="#000000" points="137,-635.6636 137,-654.6636 238,-654.6636 238,-635.6636 137,-635.6636"/>
<text text-anchor="middle" x="187.5" y="-642.6636" font-family="Helvetica,sans-Serif" font-size="10.00" fill="#000000">coap_network_read</text>
</a>
</g>
</g>
<!-- Node7&#45;&gt;Node8 -->
<g id="edge1" class="edge">
<title>Node7&#45;&gt;Node8</title>
<path fill="none" stroke="#191970" d="M65.713,-567.3614C81.9332,-584.2618 108.6596,-609.8272 136,-626.1636 142.1357,-629.8298 149.0965,-632.9786 155.8724,-635.5985"/>
<polygon fill="#191970" stroke="#191970" points="68.0386,-564.7253 58.6377,-559.8392 62.9397,-569.5214 68.0386,-564.7253"/>
</g>
<!-- Node10 -->
<g id="node4" class="node">
<title>Node10</title>
<g id="a_node4"><a xlink:href="coap__session_8c.html#ab5232b5141e191638ee6b7da6239dd1b" target="_top" xlink:title="coap_new_endpoint">
<polygon fill="#ffffff" stroke="#000000" points="136,-597.6636 136,-616.6636 239,-616.6636 239,-597.6636 136,-597.6636"/>
<text text-anchor="middle" x="187.5" y="-604.6636" font-family="Helvetica,sans-Serif" font-size="10.00" fill="#000000">coap_new_endpoint</text>
</a>
</g>
</g>
<!-- Node7&#45;&gt;Node10 -->
<g id="edge3" class="edge">
<title>Node7&#45;&gt;Node10</title>
<path fill="none" stroke="#191970" d="M82.5158,-563.6429C107.7038,-574.0844 141.9768,-588.2922 164.4105,-597.592"/>
<polygon fill="#191970" stroke="#191970" points="83.5925,-560.3004 73.0144,-559.7041 80.9118,-566.7668 83.5925,-560.3004"/>
</g>
<!-- Node11 -->
<g id="node5" class="node">
<title>Node11</title>
<g id="a_node5"><a xlink:href="debug_8c.html#a3123fcde8310c0f7cb48897a683baef6" target="_top" xlink:title="coap_show_pdu">
<polygon fill="#ffffff" stroke="#000000" points="144,-280.6636 144,-299.6636 231,-299.6636 231,-280.6636 144,-280.6636"/>
<text text-anchor="middle" x="187.5" y="-287.6636" font-family="Helvetica,sans-Serif" font-size="10.00" fill="#000000">coap_show_pdu</text>
</a>
</g>
</g>
<!-- Node7&#45;&gt;Node11 -->
<g id="edge5" class="edge">
<title>Node7&#45;&gt;Node11</title>
<path fill="none" stroke="#191970" d="M59.8021,-531.6287C86.8896,-480.4087 162.101,-338.1908 182.3973,-299.8124"/>
<polygon fill="#191970" stroke="#191970" points="56.6378,-530.1255 55.0568,-540.6017 62.8258,-533.398 56.6378,-530.1255"/>
</g>
<!-- Node26 -->
<g id="node20" class="node">
<title>Node26</title>
<g id="a_node20"><a xlink:href="net_8c.html#a0c600aed61c8a8402d31ef795df3b0b6" target="_top" xlink:title="coap_send_pdu">
<polygon fill="#ffffff" stroke="#000000" points="613.5,-329.6636 613.5,-348.6636 698.5,-348.6636 698.5,-329.6636 613.5,-329.6636"/>
<text text-anchor="middle" x="656" y="-336.6636" font-family="Helvetica,sans-Serif" font-size="10.00" fill="#000000">coap_send_pdu</text>
</a>
</g>
</g>
<!-- Node7&#45;&gt;Node26 -->
<g id="edge54" class="edge">
<title>Node7&#45;&gt;Node26</title>
<path fill="none" stroke="#191970" d="M83.7499,-536.8853C99.5655,-530.7473 118.6958,-523.4429 136,-517.1636 321.8978,-449.7056 547.611,-374.8097 626.8348,-348.7311"/>
<polygon fill="#191970" stroke="#191970" points="82.4242,-533.6455 74.3768,-540.5368 84.9652,-540.168 82.4242,-533.6455"/>
</g>
<!-- Node30 -->
<g id="node24" class="node">
<title>Node30</title>
<g id="a_node24"><a xlink:href="net_8c.html#a7bb944fc52f772655356d95724317401" target="_top" xlink:title="coap_dispatch">
<polygon fill="#ffffff" stroke="#000000" points="1246.5,-274.6636 1246.5,-293.6636 1326.5,-293.6636 1326.5,-274.6636 1246.5,-274.6636"/>
<text text-anchor="middle" x="1286.5" y="-281.6636" font-family="Helvetica,sans-Serif" font-size="10.00" fill="#000000">coap_dispatch</text>
</a>
</g>
</g>
<!-- Node7&#45;&gt;Node30 -->
<g id="edge55" class="edge">
<title>Node7&#45;&gt;Node30</title>
<path fill="none" stroke="#191970" d="M110.3161,-543.8442C168.3392,-538.3161 258.5667,-531.1636 337,-531.1636 337,-531.1636 337,-531.1636 979.5,-531.1636 1083.3586,-531.1636 1114.8495,-504.5676 1193,-436.1636 1241.4908,-393.7203 1272.9087,-319.9036 1282.9856,-293.7145"/>
<polygon fill="#191970" stroke="#191970" points="109.8391,-540.3739 100.2225,-544.8205 110.5131,-547.3414 109.8391,-540.3739"/>
</g>
<!-- Node43 -->
<g id="node37" class="node">
<title>Node43</title>
<g id="a_node37"><a xlink:href="resource_8c.html#a912a935612cb6910a4c466c49d58ee98" target="_top" xlink:title="Checks the failure counter for (peer, token) and removes peer from the list of observers for the give...">
<polygon fill="#ffffff" stroke="#000000" points="285,-560.1636 285,-590.1636 389,-590.1636 389,-560.1636 285,-560.1636"/>
<text text-anchor="start" x="293" y="-578.1636" font-family="Helvetica,sans-Serif" font-size="10.00" fill="#000000">coap_remove_failed</text>
<text text-anchor="middle" x="337" y="-567.1636" font-family="Helvetica,sans-Serif" font-size="10.00" fill="#000000">_observers</text>
</a>
</g>
</g>
<!-- Node7&#45;&gt;Node43 -->
<g id="edge56" class="edge">
<title>Node7&#45;&gt;Node43</title>
<path fill="none" stroke="#191970" d="M110.3463,-555.4203C162.0102,-559.9206 235.6299,-566.3335 284.7963,-570.6162"/>
<polygon fill="#191970" stroke="#191970" points="110.586,-551.928 100.32,-554.5469 109.9785,-558.9016 110.586,-551.928"/>
</g>
<!-- Node9 -->
<g id="node3" class="node">
<title>Node9</title>
<g id="a_node3"><a xlink:href="net_8c.html#a8baf4e3608ff5eb00adac694fe25eb60" target="_top" xlink:title="coap_new_context">
<polygon fill="#ffffff" stroke="#000000" points="288,-622.6636 288,-641.6636 386,-641.6636 386,-622.6636 288,-622.6636"/>
<text text-anchor="middle" x="337" y="-629.6636" font-family="Helvetica,sans-Serif" font-size="10.00" fill="#000000">coap_new_context</text>
</a>
</g>
</g>
<!-- Node8&#45;&gt;Node9 -->
<g id="edge2" class="edge">
<title>Node8&#45;&gt;Node9</title>
<path fill="none" stroke="#191970" d="M248.0996,-639.8941C261.3528,-638.7416 275.222,-637.5356 287.9575,-636.4282"/>
<polygon fill="#191970" stroke="#191970" points="247.7731,-636.4092 238.1139,-640.7624 248.3795,-643.3829 247.7731,-636.4092"/>
</g>
<!-- Node10&#45;&gt;Node9 -->
<g id="edge4" class="edge">
<title>Node10&#45;&gt;Node9</title>
<path fill="none" stroke="#191970" d="M249.4637,-617.5254C262.2257,-619.6595 275.5002,-621.8794 287.7391,-623.926"/>
<polygon fill="#191970" stroke="#191970" points="249.8086,-614.0346 239.3683,-615.8372 248.654,-620.9387 249.8086,-614.0346"/>
</g>
<!-- Node12 -->
<g id="node6" class="node">
<title>Node12</title>
<g id="a_node6"><a xlink:href="net_8c.html#aaf20c9b0b2ad3168c15e535a67ea3ce5" target="_top" xlink:title="coap_session_send_pdu">
<polygon fill="#ffffff" stroke="#000000" points="275,-249.6636 275,-268.6636 399,-268.6636 399,-249.6636 275,-249.6636"/>
<text text-anchor="middle" x="337" y="-256.6636" font-family="Helvetica,sans-Serif" font-size="10.00" fill="#000000">coap_session_send_pdu</text>
</a>
</g>
</g>
<!-- Node11&#45;&gt;Node12 -->
<g id="edge6" class="edge">
<title>Node11&#45;&gt;Node12</title>
<path fill="none" stroke="#191970" d="M241.083,-279.0528C257.4008,-275.6691 275.1852,-271.9814 290.9587,-268.7106"/>
<polygon fill="#191970" stroke="#191970" points="240.2245,-275.6562 231.1435,-281.1138 241.6458,-282.5104 240.2245,-275.6562"/>
</g>
<!-- Node11&#45;&gt;Node26 -->
<g id="edge52" class="edge">
<title>Node11&#45;&gt;Node26</title>
<path fill="none" stroke="#191970" d="M241.3049,-295.791C335.3421,-305.6263 527.7176,-325.7467 613.3033,-334.698"/>
<polygon fill="#191970" stroke="#191970" points="241.4645,-292.2887 231.1546,-294.7294 240.7363,-299.2507 241.4645,-292.2887"/>
</g>
<!-- Node11&#45;&gt;Node30 -->
<g id="edge53" class="edge">
<title>Node11&#45;&gt;Node30</title>
<path fill="none" stroke="#191970" d="M210.1043,-274.7267C227.2413,-263.6617 251.7364,-249.1765 275,-240.1636 369.9144,-203.3915 396.7113,-190.1636 498.5,-190.1636 498.5,-190.1636 498.5,-190.1636 656,-190.1636 775.3435,-190.1636 1082.224,-152.7616 1193,-197.1636 1233.1331,-213.25 1266.3761,-255.3085 1279.9398,-274.4387"/>
<polygon fill="#191970" stroke="#191970" points="207.8196,-272.0407 201.3953,-280.4656 211.6713,-277.8857 207.8196,-272.0407"/>
</g>
<!-- Node13 -->
<g id="node7" class="node">
<title>Node13</title>
<g id="a_node7"><a xlink:href="coap__session_8c.html#a2f455ec1572982a5ae404beac0cfbd53" target="_top" xlink:title="coap_session_send_csm">
<polygon fill="#ffffff" stroke="#000000" points="435,-104.6636 435,-123.6636 562,-123.6636 562,-104.6636 435,-104.6636"/>
<text text-anchor="middle" x="498.5" y="-111.6636" font-family="Helvetica,sans-Serif" font-size="10.00" fill="#000000">coap_session_send_csm</text>
</a>
</g>
</g>
<!-- Node12&#45;&gt;Node13 -->
<g id="edge7" class="edge">
<title>Node12&#45;&gt;Node13</title>
<path fill="none" stroke="#191970" d="M355.3443,-242.6934C389.1872,-212.3082 460.4675,-148.3105 487.6528,-123.9026"/>
<polygon fill="#191970" stroke="#191970" points="352.6992,-240.3646 347.5965,-249.6498 357.3757,-245.5733 352.6992,-240.3646"/>
</g>
<!-- Node12&#45;&gt;Node26 -->
<g id="edge51" class="edge">
<title>Node12&#45;&gt;Node26</title>
<path fill="none" stroke="#191970" d="M402.9301,-270.5669C448.074,-278.9515 509.1077,-291.4241 562,-306.1636 585.9919,-312.8494 612.7351,-322.4551 631.5432,-329.5804"/>
<polygon fill="#191970" stroke="#191970" points="403.4385,-267.1018 392.9704,-268.7355 402.1725,-273.9864 403.4385,-267.1018"/>
</g>
<!-- Node42 -->
<g id="node36" class="node">
<title>Node42</title>
<g id="a_node36"><a xlink:href="coap__session_8c.html#aa8b3a2da8480911b0216dad076038cb6" target="_top" xlink:title="coap_session_connected">
<polygon fill="#ffffff" stroke="#000000" points="761,-218.6636 761,-237.6636 888,-237.6636 888,-218.6636 761,-218.6636"/>
<text text-anchor="middle" x="824.5" y="-225.6636" font-family="Helvetica,sans-Serif" font-size="10.00" fill="#000000">coap_session_connected</text>
</a>
</g>
</g>
<!-- Node12&#45;&gt;Node42 -->
<g id="edge48" class="edge">
<title>Node12&#45;&gt;Node42</title>
<path fill="none" stroke="#191970" d="M409.346,-254.5631C504.454,-248.5152 670.0531,-237.9848 760.7009,-232.2206"/>
<polygon fill="#191970" stroke="#191970" points="408.9951,-251.0783 399.2374,-255.2059 409.4394,-258.0642 408.9951,-251.0783"/>
</g>
<!-- Node14 -->
<g id="node8" class="node">
<title>Node14</title>
<g id="a_node8"><a xlink:href="coap__session_8c.html#acec64026a2b3309e97075951dc52c2a1" target="_top" xlink:title="coap_session_connect">
<polygon fill="#ffffff" stroke="#000000" points="598,-104.6636 598,-123.6636 714,-123.6636 714,-104.6636 598,-104.6636"/>
<text text-anchor="middle" x="656" y="-111.6636" font-family="Helvetica,sans-Serif" font-size="10.00" fill="#000000">coap_session_connect</text>
</a>
</g>
</g>
<!-- Node13&#45;&gt;Node14 -->
<g id="edge8" class="edge">
<title>Node13&#45;&gt;Node14</title>
<path fill="none" stroke="#191970" d="M572.135,-114.1636C580.7301,-114.1636 589.4067,-114.1636 597.7531,-114.1636"/>
<polygon fill="#191970" stroke="#191970" points="572.1073,-110.6637 562.1073,-114.1636 572.1073,-117.6637 572.1073,-110.6637"/>
</g>
<!-- Node18 -->
<g id="node12" class="node">
<title>Node18</title>
<g id="a_node12"><a xlink:href="coap__session_8c.html#ac79f1143af9580a441d31796cf81f108" target="_top" xlink:title="coap_session_accept">
<polygon fill="#ffffff" stroke="#000000" points="600.5,-47.6636 600.5,-66.6636 711.5,-66.6636 711.5,-47.6636 600.5,-47.6636"/>
<text text-anchor="middle" x="656" y="-54.6636" font-family="Helvetica,sans-Serif" font-size="10.00" fill="#000000">coap_session_accept</text>
</a>
</g>
</g>
<!-- Node13&#45;&gt;Node18 -->
<g id="edge12" class="edge">
<title>Node13&#45;&gt;Node18</title>
<path fill="none" stroke="#191970" d="M534.602,-101.0981C563.5524,-90.6208 603.5141,-76.1585 629.552,-66.7352"/>
<polygon fill="#191970" stroke="#191970" points="533.074,-97.9289 524.862,-104.6231 535.4562,-104.5111 533.074,-97.9289"/>
</g>
<!-- Node13&#45;&gt;Node26 -->
<g id="edge21" class="edge">
<title>Node13&#45;&gt;Node26</title>
<path fill="none" stroke="#191970" d="M511.0586,-132.1044C542.7422,-177.3668 625.1159,-295.0434 649.2576,-329.5317"/>
<polygon fill="#191970" stroke="#191970" points="513.8696,-130.0168 505.2676,-123.8316 508.1349,-134.031 513.8696,-130.0168"/>
</g>
<!-- Node41 -->
<g id="node35" class="node">
<title>Node41</title>
<g id="a_node35"><a xlink:href="net_8c.html#a9e7c7fc083799c942c9c44ebc190c833" target="_top" xlink:title="coap_connect_session">
<polygon fill="#ffffff" stroke="#000000" points="1380,-57.6636 1380,-76.6636 1496,-76.6636 1496,-57.6636 1380,-57.6636"/>
<text text-anchor="middle" x="1438" y="-64.6636" font-family="Helvetica,sans-Serif" font-size="10.00" fill="#000000">coap_connect_session</text>
</a>
</g>
</g>
<!-- Node13&#45;&gt;Node41 -->
<g id="edge46" class="edge">
<title>Node13&#45;&gt;Node41</title>
<path fill="none" stroke="#191970" d="M514.9286,-97.4743C533.4131,-79.7613 565.1684,-52.4042 598,-38.1636 691.6441,2.4541 722.4264,-.1636 824.5,-.1636 824.5,-.1636 824.5,-.1636 1126.5,-.1636 1234.3675,-.1636 1358.6427,-39.038 1411.7431,-57.5641"/>
<polygon fill="#191970" stroke="#191970" points="512.3213,-95.1291 507.6339,-104.6306 517.2234,-100.126 512.3213,-95.1291"/>
</g>
<!-- Node15 -->
<g id="node9" class="node">
<title>Node15</title>
<g id="a_node9"><a xlink:href="coap__session_8c.html#ad495fcd405fa86859fa36d45f89be910" target="_top" xlink:title="coap_new_client_session">
<polygon fill="#ffffff" stroke="#000000" points="760.5,-142.6636 760.5,-161.6636 888.5,-161.6636 888.5,-142.6636 760.5,-142.6636"/>
<text text-anchor="middle" x="824.5" y="-149.6636" font-family="Helvetica,sans-Serif" font-size="10.00" fill="#000000">coap_new_client_session</text>
</a>
</g>
</g>
<!-- Node14&#45;&gt;Node15 -->
<g id="edge9" class="edge">
<title>Node14&#45;&gt;Node15</title>
<path fill="none" stroke="#191970" d="M708.4313,-125.9879C732.1868,-131.3452 759.8986,-137.5947 782.2861,-142.6436"/>
<polygon fill="#191970" stroke="#191970" points="709.0447,-122.5384 698.5197,-123.7526 707.5047,-129.3669 709.0447,-122.5384"/>
</g>
<!-- Node16 -->
<g id="node10" class="node">
<title>Node16</title>
<g id="a_node10"><a xlink:href="coap__session_8c.html#a40790c70df0b38fe89f3fb2ad255d662" target="_top" xlink:title="coap_new_client_session_psk">
<polygon fill="#ffffff" stroke="#000000" points="750,-104.6636 750,-123.6636 899,-123.6636 899,-104.6636 750,-104.6636"/>
<text text-anchor="middle" x="824.5" y="-111.6636" font-family="Helvetica,sans-Serif" font-size="10.00" fill="#000000">coap_new_client_session_psk</text>
</a>
</g>
</g>
<!-- Node14&#45;&gt;Node16 -->
<g id="edge10" class="edge">
<title>Node14&#45;&gt;Node16</title>
<path fill="none" stroke="#191970" d="M724.5035,-114.1636C732.8429,-114.1636 741.3957,-114.1636 749.8193,-114.1636"/>
<polygon fill="#191970" stroke="#191970" points="724.4603,-110.6637 714.4602,-114.1636 724.4602,-117.6637 724.4603,-110.6637"/>
</g>
<!-- Node17 -->
<g id="node11" class="node">
<title>Node17</title>
<g id="a_node11"><a xlink:href="coap__session_8c.html#ac63f29af82e4d3160c59b8451aa5868c" target="_top" xlink:title="coap_new_client_session_pki">
<polygon fill="#ffffff" stroke="#000000" points="751.5,-66.6636 751.5,-85.6636 897.5,-85.6636 897.5,-66.6636 751.5,-66.6636"/>
<text text-anchor="middle" x="824.5" y="-73.6636" font-family="Helvetica,sans-Serif" font-size="10.00" fill="#000000">coap_new_client_session_pki</text>
</a>
</g>
</g>
<!-- Node14&#45;&gt;Node17 -->
<g id="edge11" class="edge">
<title>Node14&#45;&gt;Node17</title>
<path fill="none" stroke="#191970" d="M708.4313,-102.3393C732.1868,-96.982 759.8986,-90.7325 782.2861,-85.6837"/>
<polygon fill="#191970" stroke="#191970" points="707.5047,-98.9603 698.5197,-104.5746 709.0447,-105.7888 707.5047,-98.9603"/>
</g>
<!-- Node19 -->
<g id="node13" class="node">
<title>Node19</title>
<g id="a_node13"><a xlink:href="coap__session_8c.html#ad1f593f76f250a587ac733afb4f09878" target="_top" xlink:title="coap_new_server_session">
<polygon fill="#ffffff" stroke="#000000" points="758.5,-28.6636 758.5,-47.6636 890.5,-47.6636 890.5,-28.6636 758.5,-28.6636"/>
<text text-anchor="middle" x="824.5" y="-35.6636" font-family="Helvetica,sans-Serif" font-size="10.00" fill="#000000">coap_new_server_session</text>
</a>
</g>
</g>
<!-- Node18&#45;&gt;Node19 -->
<g id="edge13" class="edge">
<title>Node18&#45;&gt;Node19</title>
<path fill="none" stroke="#191970" d="M721.6265,-49.7636C733.6929,-48.403 746.2957,-46.9819 758.3766,-45.6197"/>
<polygon fill="#191970" stroke="#191970" points="721.185,-46.2911 711.6402,-50.8896 721.9694,-53.247 721.185,-46.2911"/>
</g>
<!-- Node20 -->
<g id="node14" class="node">
<title>Node20</title>
<g id="a_node14"><a xlink:href="net_8c.html#a7437c90770ffd13685e6a77799b4753b" target="_top" xlink:title="coap_accept_endpoint">
<polygon fill="#ffffff" stroke="#000000" points="1069.5,-67.6636 1069.5,-86.6636 1183.5,-86.6636 1183.5,-67.6636 1069.5,-67.6636"/>
<text text-anchor="middle" x="1126.5" y="-74.6636" font-family="Helvetica,sans-Serif" font-size="10.00" fill="#000000">coap_accept_endpoint</text>
</a>
</g>
</g>
<!-- Node19&#45;&gt;Node20 -->
<g id="edge14" class="edge">
<title>Node19&#45;&gt;Node20</title>
<path fill="none" stroke="#191970" d="M901.0031,-48.0431C953.255,-54.7909 1021.387,-63.5894 1069.0284,-69.7418"/>
<polygon fill="#191970" stroke="#191970" points="901.1411,-44.532 890.7752,-46.7223 900.2445,-51.4743 901.1411,-44.532"/>
</g>
<!-- Node21 -->
<g id="node15" class="node">
<title>Node21</title>
<g id="a_node15"><a xlink:href="net_8c.html#a0748d791fd2af516dd93fbadb660d440" target="_top" xlink:title="coap_read">
<polygon fill="#ffffff" stroke="#000000" points="1828,-271.6636 1828,-290.6636 1890,-290.6636 1890,-271.6636 1828,-271.6636"/>
<text text-anchor="middle" x="1859" y="-278.6636" font-family="Helvetica,sans-Serif" font-size="10.00" fill="#000000">coap_read</text>
</a>
</g>
</g>
<!-- Node20&#45;&gt;Node21 -->
<g id="edge15" class="edge">
<title>Node20&#45;&gt;Node21</title>
<path fill="none" stroke="#191970" d="M1154.8674,-91.2076C1208.6819,-116.5139 1329.8933,-167.1636 1438,-167.1636 1438,-167.1636 1438,-167.1636 1592,-167.1636 1698.0974,-167.1636 1810.2386,-244.2414 1846.7497,-271.6401"/>
<polygon fill="#191970" stroke="#191970" points="1156.1541,-87.9435 1145.6217,-86.7952 1153.1392,-94.261 1156.1541,-87.9435"/>
</g>
<!-- Node22 -->
<g id="node16" class="node">
<title>Node22</title>
<g id="a_node16"><a xlink:href="coap__io_8c.html#a75a7c93e10ca7858449ba304aad4ea37" target="_top" xlink:title="coap_run_once">
<polygon fill="#ffffff" stroke="#000000" points="2173,-385.6636 2173,-404.6636 2256,-404.6636 2256,-385.6636 2173,-385.6636"/>
<text text-anchor="middle" x="2214.5" y="-392.6636" font-family="Helvetica,sans-Serif" font-size="10.00" fill="#000000">coap_run_once</text>
</a>
</g>
</g>
<!-- Node21&#45;&gt;Node22 -->
<g id="edge16" class="edge">
<title>Node21&#45;&gt;Node22</title>
<path fill="none" stroke="#191970" d="M1898.2745,-293.758C1969.9742,-316.7503 2120.5755,-365.0443 2184.6362,-385.587"/>
<polygon fill="#191970" stroke="#191970" points="1899.2894,-290.4079 1888.6983,-290.6871 1897.1519,-297.0736 1899.2894,-290.4079"/>
</g>
<!-- Node23 -->
<g id="node17" class="node">
<title>Node23</title>
<g id="a_node17"><a xlink:href="net_8c.html#a9900c032b74bd57f67d489484a2b3207" target="_top" xlink:title="coap_retransmit">
<polygon fill="#ffffff" stroke="#000000" points="1932,-483.6636 1932,-502.6636 2018,-502.6636 2018,-483.6636 1932,-483.6636"/>
<text text-anchor="middle" x="1975" y="-490.6636" font-family="Helvetica,sans-Serif" font-size="10.00" fill="#000000">coap_retransmit</text>
</a>
</g>
</g>
<!-- Node21&#45;&gt;Node23 -->
<g id="edge17" class="edge">
<title>Node21&#45;&gt;Node23</title>
<path fill="none" stroke="#191970" d="M1860.5382,-301.507C1864.5202,-340.1935 1878.4613,-424.8932 1926,-474.1636 1929.6745,-477.9719 1934.1991,-481.0299 1939.0001,-483.482"/>
<polygon fill="#191970" stroke="#191970" points="1863.9808,-300.7131 1859.5959,-291.0683 1857.0092,-301.3425 1863.9808,-300.7131"/>
</g>
<!-- Node24 -->
<g id="node18" class="node">
<title>Node24</title>
<g id="a_node18"><a xlink:href="coap__io_8c.html#aaac86ac50793f309678e4951ecf8863f" target="_top" xlink:title="coap_write">
<polygon fill="#ffffff" stroke="#000000" points="2066.5,-483.6636 2066.5,-502.6636 2130.5,-502.6636 2130.5,-483.6636 2066.5,-483.6636"/>
<text text-anchor="middle" x="2098.5" y="-490.6636" font-family="Helvetica,sans-Serif" font-size="10.00" fill="#000000">coap_write</text>
</a>
</g>
</g>
<!-- Node23&#45;&gt;Node24 -->
<g id="edge18" class="edge">
<title>Node23&#45;&gt;Node24</title>
<path fill="none" stroke="#191970" d="M2028.426,-493.1636C2041.3725,-493.1636 2054.8163,-493.1636 2066.4245,-493.1636"/>
<polygon fill="#191970" stroke="#191970" points="2028.1943,-489.6637 2018.1943,-493.1636 2028.1943,-496.6637 2028.1943,-489.6637"/>
</g>
<!-- Node25 -->
<g id="node19" class="node">
<title>Node25</title>
<g id="a_node19"><a xlink:href="net_8c.html#a5d1fb0b44497970b0f75fa0b38570a82" target="_top" xlink:title="coap_cleanup">
<polygon fill="#ffffff" stroke="#000000" points="2060,-445.6636 2060,-464.6636 2137,-464.6636 2137,-445.6636 2060,-445.6636"/>
<text text-anchor="middle" x="2098.5" y="-452.6636" font-family="Helvetica,sans-Serif" font-size="10.00" fill="#000000">coap_cleanup</text>
</a>
</g>
</g>
<!-- Node23&#45;&gt;Node25 -->
<g id="edge20" class="edge">
<title>Node23&#45;&gt;Node25</title>
<path fill="none" stroke="#191970" d="M2015.7397,-480.6283C2032.5405,-475.4588 2051.697,-469.5645 2067.3457,-464.7495"/>
<polygon fill="#191970" stroke="#191970" points="2014.6927,-477.2884 2006.1643,-483.5746 2016.7514,-483.9789 2014.6927,-477.2884"/>
</g>
<!-- Node24&#45;&gt;Node22 -->
<g id="edge19" class="edge">
<title>Node24&#45;&gt;Node22</title>
<path fill="none" stroke="#191970" d="M2130.3137,-478.5527C2132.6321,-477.1604 2134.887,-475.6936 2137,-474.1636 2166.1006,-453.0922 2194.0399,-420.6516 2206.9868,-404.6949"/>
<polygon fill="#191970" stroke="#191970" points="2128.3134,-475.6575 2121.2221,-483.5292 2131.6745,-481.7978 2128.3134,-475.6575"/>
</g>
<!-- Node26&#45;&gt;Node23 -->
<g id="edge45" class="edge">
<title>Node26&#45;&gt;Node23</title>
<path fill="none" stroke="#191970" d="M674.7143,-355.478C722.1605,-395.0985 852.43,-493.1636 979.5,-493.1636 979.5,-493.1636 979.5,-493.1636 1740,-493.1636 1806.9097,-493.1636 1884.5355,-493.1636 1931.6875,-493.1636"/>
<polygon fill="#191970" stroke="#191970" points="676.7283,-352.5969 666.8383,-348.797 672.2001,-357.935 676.7283,-352.5969"/>
</g>
<!-- Node27 -->
<g id="node21" class="node">
<title>Node27</title>
<g id="a_node21"><a xlink:href="net_8c.html#ab0b0b5db03427c4313c01ec2b12cf8ed" target="_top" xlink:title="coap_send">
<polygon fill="#ffffff" stroke="#000000" points="792.5,-330.6636 792.5,-349.6636 856.5,-349.6636 856.5,-330.6636 792.5,-330.6636"/>
<text text-anchor="middle" x="824.5" y="-337.6636" font-family="Helvetica,sans-Serif" font-size="10.00" fill="#000000">coap_send</text>
</a>
</g>
</g>
<!-- Node26&#45;&gt;Node27 -->
<g id="edge22" class="edge">
<title>Node26&#45;&gt;Node27</title>
<path fill="none" stroke="#191970" d="M708.74,-339.4766C736.1482,-339.6393 768.7544,-339.8328 792.3663,-339.9729"/>
<polygon fill="#191970" stroke="#191970" points="708.5403,-335.9755 698.5197,-339.4159 708.4987,-342.9753 708.5403,-335.9755"/>
</g>
<!-- Node28 -->
<g id="node22" class="node">
<title>Node28</title>
<g id="a_node22"><a xlink:href="net_8c.html#aba278b109415057d15196fa46afee970" target="_top" xlink:title="coap_send_ack">
<polygon fill="#ffffff" stroke="#000000" points="937,-369.6636 937,-388.6636 1022,-388.6636 1022,-369.6636 937,-369.6636"/>
<text text-anchor="middle" x="979.5" y="-376.6636" font-family="Helvetica,sans-Serif" font-size="10.00" fill="#000000">coap_send_ack</text>
</a>
</g>
</g>
<!-- Node27&#45;&gt;Node28 -->
<g id="edge23" class="edge">
<title>Node27&#45;&gt;Node28</title>
<path fill="none" stroke="#191970" d="M866.6203,-350.7616C890.0538,-356.6578 918.9821,-363.9365 941.6865,-369.6492"/>
<polygon fill="#191970" stroke="#191970" points="867.1679,-347.2904 856.6161,-348.2444 865.4598,-354.0788 867.1679,-347.2904"/>
</g>
<!-- Node27&#45;&gt;Node30 -->
<g id="edge40" class="edge">
<title>Node27&#45;&gt;Node30</title>
<path fill="none" stroke="#191970" d="M866.8183,-332.7228C887.3617,-329.2507 912.4261,-325.2202 935,-322.1636 1047.5259,-306.9273 1180.9813,-293.8674 1246.3519,-287.7952"/>
<polygon fill="#191970" stroke="#191970" points="866.0958,-329.2954 856.8269,-334.4274 867.2731,-336.1957 866.0958,-329.2954"/>
</g>
<!-- Node35 -->
<g id="node29" class="node">
<title>Node35</title>
<g id="a_node29"><a xlink:href="net_8c.html#ab31cd76353f751ec4dc5c033152df575" target="_top" xlink:title="coap_send_error">
<polygon fill="#ffffff" stroke="#000000" points="935,-331.6636 935,-350.6636 1024,-350.6636 1024,-331.6636 935,-331.6636"/>
<text text-anchor="middle" x="979.5" y="-338.6636" font-family="Helvetica,sans-Serif" font-size="10.00" fill="#000000">coap_send_error</text>
</a>
</g>
</g>
<!-- Node27&#45;&gt;Node35 -->
<g id="edge33" class="edge">
<title>Node27&#45;&gt;Node35</title>
<path fill="none" stroke="#191970" d="M866.8782,-340.437C887.9477,-340.5729 913.4095,-340.7372 934.7895,-340.8752"/>
<polygon fill="#191970" stroke="#191970" points="866.6385,-336.9355 856.6161,-340.3708 866.5933,-343.9353 866.6385,-336.9355"/>
</g>
<!-- Node36 -->
<g id="node30" class="node">
<title>Node36</title>
<g id="a_node30"><a xlink:href="net_8c.html#a6aa830b46188549b51773f724eb8e752" target="_top" xlink:title="coap_send_message_type">
<polygon fill="#ffffff" stroke="#000000" points="1060,-255.6636 1060,-274.6636 1193,-274.6636 1193,-255.6636 1060,-255.6636"/>
<text text-anchor="middle" x="1126.5" y="-262.6636" font-family="Helvetica,sans-Serif" font-size="10.00" fill="#000000">coap_send_message_type</text>
</a>
</g>
</g>
<!-- Node27&#45;&gt;Node36 -->
<g id="edge34" class="edge">
<title>Node27&#45;&gt;Node36</title>
<path fill="none" stroke="#191970" d="M850.0485,-325.6147C871.9035,-313.8528 904.5634,-297.8678 935,-289.1636 975.5911,-277.5555 1022.6159,-271.5602 1059.9082,-268.4646"/>
<polygon fill="#191970" stroke="#191970" points="848.1842,-322.6452 841.098,-330.5216 851.5493,-328.7833 848.1842,-322.6452"/>
</g>
<!-- Node37 -->
<g id="node31" class="node">
<title>Node37</title>
<g id="a_node31"><a xlink:href="net_8c.html#a1a280312c4bad55cf10243b9b9c3e966" target="_top" xlink:title="handle_request">
<polygon fill="#ffffff" stroke="#000000" points="1085,-407.6636 1085,-426.6636 1168,-426.6636 1168,-407.6636 1085,-407.6636"/>
<text text-anchor="middle" x="1126.5" y="-414.6636" font-family="Helvetica,sans-Serif" font-size="10.00" fill="#000000">handle_request</text>
</a>
</g>
</g>
<!-- Node27&#45;&gt;Node37 -->
<g id="edge36" class="edge">
<title>Node27&#45;&gt;Node37</title>
<path fill="none" stroke="#191970" d="M846.8305,-355.1946C868.4006,-368.8911 902.4934,-388.4233 935,-398.1636 985.0861,-413.1714 1045.5019,-416.9305 1084.8995,-417.5855"/>
<polygon fill="#191970" stroke="#191970" points="848.6893,-352.2286 838.3939,-349.7275 844.8826,-358.103 848.6893,-352.2286"/>
</g>
<!-- Node38 -->
<g id="node32" class="node">
<title>Node38</title>
<g id="a_node32"><a xlink:href="net_8c.html#ac4cbcfd073489b57805db665ce3d0681" target="_top" xlink:title="handle_signaling">
<polygon fill="#ffffff" stroke="#000000" points="935,-217.6636 935,-236.6636 1024,-236.6636 1024,-217.6636 935,-217.6636"/>
<text text-anchor="middle" x="979.5" y="-224.6636" font-family="Helvetica,sans-Serif" font-size="10.00" fill="#000000">handle_signaling</text>
</a>
</g>
</g>
<!-- Node27&#45;&gt;Node38 -->
<g id="edge38" class="edge">
<title>Node27&#45;&gt;Node38</title>
<path fill="none" stroke="#191970" d="M842.5757,-323.872C863.8291,-305.1361 900.5833,-274.0248 935,-251.1636 942.8965,-245.9183 952.0504,-240.8273 959.9953,-236.6939"/>
<polygon fill="#191970" stroke="#191970" points="840.1213,-321.3708 834.9731,-330.6308 844.7722,-326.6024 840.1213,-321.3708"/>
</g>
<!-- Node39 -->
<g id="node33" class="node">
<title>Node39</title>
<g id="a_node33"><a xlink:href="resource_8c.html#ae1a91e254baca4f43b7896f54a8d9944" target="_top" xlink:title="coap_notify_observers">
<polygon fill="#ffffff" stroke="#000000" points="1229,-445.6636 1229,-464.6636 1344,-464.6636 1344,-445.6636 1229,-445.6636"/>
<text text-anchor="middle" x="1286.5" y="-452.6636" font-family="Helvetica,sans-Serif" font-size="10.00" fill="#000000">coap_notify_observers</text>
</a>
</g>
</g>
<!-- Node27&#45;&gt;Node39 -->
<g id="edge41" class="edge">
<title>Node27&#45;&gt;Node39</title>
<path fill="none" stroke="#191970" d="M841.6271,-356.8751C862.0328,-375.6867 898.0333,-405.5282 935,-420.1636 1032.7892,-458.8792 1157.3077,-461.4298 1228.8551,-458.8954"/>
<polygon fill="#191970" stroke="#191970" points="843.7962,-354.1099 834.1191,-349.7964 838.9942,-359.2031 843.7962,-354.1099"/>
</g>
<!-- Node29 -->
<g id="node23" class="node">
<title>Node29</title>
<g id="a_node23"><a xlink:href="net_8c.html#af838d89087ad96495f8ed7f1a9297168" target="_top" xlink:title="handle_response">
<polygon fill="#ffffff" stroke="#000000" points="1081.5,-350.6636 1081.5,-369.6636 1171.5,-369.6636 1171.5,-350.6636 1081.5,-350.6636"/>
<text text-anchor="middle" x="1126.5" y="-357.6636" font-family="Helvetica,sans-Serif" font-size="10.00" fill="#000000">handle_response</text>
</a>
</g>
</g>
<!-- Node28&#45;&gt;Node29 -->
<g id="edge24" class="edge">
<title>Node28&#45;&gt;Node29</title>
<path fill="none" stroke="#191970" d="M1032.3059,-372.3383C1048.328,-370.2675 1065.7785,-368.012 1081.2568,-366.0114"/>
<polygon fill="#191970" stroke="#191970" points="1031.4873,-368.915 1022.0185,-373.668 1032.3847,-375.8572 1031.4873,-368.915"/>
</g>
<!-- Node29&#45;&gt;Node30 -->
<g id="edge25" class="edge">
<title>Node29&#45;&gt;Node30</title>
<path fill="none" stroke="#191970" d="M1156.0974,-346.1048C1188.208,-330.8523 1238.5978,-306.9171 1266.4004,-293.7109"/>
<polygon fill="#191970" stroke="#191970" points="1154.2952,-343.0861 1146.7641,-350.5382 1157.2986,-349.409 1154.2952,-343.0861"/>
</g>
<!-- Node31 -->
<g id="node25" class="node">
<title>Node31</title>
<g id="a_node25"><a xlink:href="net_8c.html#acd36f6fba6d30ab9557e0e6521f4a088" target="_top" xlink:title="coap_read_session">
<polygon fill="#ffffff" stroke="#000000" points="1689.5,-290.6636 1689.5,-309.6636 1790.5,-309.6636 1790.5,-290.6636 1689.5,-290.6636"/>
<text text-anchor="middle" x="1740" y="-297.6636" font-family="Helvetica,sans-Serif" font-size="10.00" fill="#000000">coap_read_session</text>
</a>
</g>
</g>
<!-- Node30&#45;&gt;Node31 -->
<g id="edge26" class="edge">
<title>Node30&#45;&gt;Node31</title>
<path fill="none" stroke="#191970" d="M1336.9104,-285.9421C1424.0526,-289.0166 1601.893,-295.291 1689.2619,-298.3735"/>
<polygon fill="#191970" stroke="#191970" points="1336.8623,-282.4384 1326.7451,-285.5835 1336.6154,-289.434 1336.8623,-282.4384"/>
</g>
<!-- Node32 -->
<g id="node26" class="node">
<title>Node32</title>
<g id="a_node26"><a xlink:href="net_8c.html#a32887948ee273d1ad464ec47df194910" target="_top" xlink:title="coap_handle_dgram">
<polygon fill="#ffffff" stroke="#000000" points="1386,-255.6636 1386,-274.6636 1490,-274.6636 1490,-255.6636 1386,-255.6636"/>
<text text-anchor="middle" x="1438" y="-262.6636" font-family="Helvetica,sans-Serif" font-size="10.00" fill="#000000">coap_handle_dgram</text>
</a>
</g>
</g>
<!-- Node30&#45;&gt;Node32 -->
<g id="edge28" class="edge">
<title>Node30&#45;&gt;Node32</title>
<path fill="none" stroke="#191970" d="M1336.7905,-277.8566C1352.5595,-275.8789 1369.9942,-273.6924 1385.8863,-271.6993"/>
<polygon fill="#191970" stroke="#191970" points="1336.1882,-274.4046 1326.7015,-279.1218 1337.0593,-281.3502 1336.1882,-274.4046"/>
</g>
<!-- Node31&#45;&gt;Node21 -->
<g id="edge27" class="edge">
<title>Node31&#45;&gt;Node21</title>
<path fill="none" stroke="#191970" d="M1800.949,-290.4323C1810.3142,-288.937 1819.6315,-287.4493 1827.9721,-286.1176"/>
<polygon fill="#191970" stroke="#191970" points="1800.1349,-287.0178 1790.8119,-292.0508 1801.2387,-293.9303 1800.1349,-287.0178"/>
</g>
<!-- Node33 -->
<g id="node27" class="node">
<title>Node33</title>
<g id="a_node27"><a xlink:href="net_8c.html#a8534f7860b14e0743529daff196a27ce" target="_top" xlink:title="coap_handle_dgram_for\l_proto">
<polygon fill="#ffffff" stroke="#000000" points="1532,-247.1636 1532,-277.1636 1652,-277.1636 1652,-247.1636 1532,-247.1636"/>
<text text-anchor="start" x="1540" y="-265.1636" font-family="Helvetica,sans-Serif" font-size="10.00" fill="#000000">coap_handle_dgram_for</text>
<text text-anchor="middle" x="1592" y="-254.1636" font-family="Helvetica,sans-Serif" font-size="10.00" fill="#000000">_proto</text>
</a>
</g>
</g>
<!-- Node32&#45;&gt;Node33 -->
<g id="edge29" class="edge">
<title>Node32&#45;&gt;Node33</title>
<path fill="none" stroke="#191970" d="M1500.3984,-263.9481C1510.8123,-263.7452 1521.5961,-263.5351 1531.9497,-263.3334"/>
<polygon fill="#191970" stroke="#191970" points="1500.0673,-260.4537 1490.1374,-264.1479 1500.2037,-267.4524 1500.0673,-260.4537"/>
</g>
<!-- Node33&#45;&gt;Node31 -->
<g id="edge30" class="edge">
<title>Node33&#45;&gt;Node31</title>
<path fill="none" stroke="#191970" d="M1660.5029,-279.7522C1675.067,-283.4916 1689.9168,-287.3044 1702.7787,-290.6068"/>
<polygon fill="#191970" stroke="#191970" points="1661.0498,-276.2791 1650.4935,-277.1822 1659.3089,-283.0592 1661.0498,-276.2791"/>
</g>
<!-- Node34 -->
<g id="node28" class="node">
<title>Node34</title>
<g id="a_node28"><a xlink:href="net_8c.html#a44ffb4b70e537043e9a9cf344be24b92" target="_top" xlink:title="coap_read_endpoint">
<polygon fill="#ffffff" stroke="#000000" points="1688,-252.6636 1688,-271.6636 1792,-271.6636 1792,-252.6636 1688,-252.6636"/>
<text text-anchor="middle" x="1740" y="-259.6636" font-family="Helvetica,sans-Serif" font-size="10.00" fill="#000000">coap_read_endpoint</text>
</a>
</g>
</g>
<!-- Node33&#45;&gt;Node34 -->
<g id="edge31" class="edge">
<title>Node33&#45;&gt;Node34</title>
<path fill="none" stroke="#191970" d="M1662.2786,-262.1636C1670.917,-262.1636 1679.6233,-262.1636 1687.9248,-262.1636"/>
<polygon fill="#191970" stroke="#191970" points="1662.1973,-258.6637 1652.1973,-262.1636 1662.1972,-265.6637 1662.1973,-258.6637"/>
</g>
<!-- Node34&#45;&gt;Node21 -->
<g id="edge32" class="edge">
<title>Node34&#45;&gt;Node21</title>
<path fill="none" stroke="#191970" d="M1802.1834,-272.092C1811.0374,-273.5057 1819.8119,-274.9067 1827.7208,-276.1694"/>
<polygon fill="#191970" stroke="#191970" points="1802.6219,-268.6178 1792.1951,-270.4973 1801.5182,-275.5303 1802.6219,-268.6178"/>
</g>
<!-- Node36&#45;&gt;Node30 -->
<g id="edge35" class="edge">
<title>Node36&#45;&gt;Node30</title>
<path fill="none" stroke="#191970" d="M1203.6134,-274.3208C1218.3929,-276.0759 1233.304,-277.8466 1246.3253,-279.3929"/>
<polygon fill="#191970" stroke="#191970" points="1203.7703,-270.8149 1193.4273,-273.1112 1202.9448,-277.7661 1203.7703,-270.8149"/>
</g>
<!-- Node37&#45;&gt;Node30 -->
<g id="edge37" class="edge">
<title>Node37&#45;&gt;Node30</title>
<path fill="none" stroke="#191970" d="M1155.7761,-402.6924C1167.784,-396.1923 1181.5282,-387.9982 1193,-379.1636 1228.2023,-352.0538 1263.1949,-312.1712 1278.491,-293.9243"/>
<polygon fill="#191970" stroke="#191970" points="1153.8156,-399.7689 1146.5948,-407.522 1157.0744,-405.9641 1153.8156,-399.7689"/>
</g>
<!-- Node38&#45;&gt;Node30 -->
<g id="edge39" class="edge">
<title>Node38&#45;&gt;Node30</title>
<path fill="none" stroke="#191970" d="M1034.3872,-227.588C1077.9449,-228.9873 1140.0946,-233.3629 1193,-246.1636 1219.9084,-252.6742 1249.2178,-265.6233 1267.7145,-274.5833"/>
<polygon fill="#191970" stroke="#191970" points="1034.3779,-224.0865 1024.2841,-227.3061 1034.1826,-231.0838 1034.3779,-224.0865"/>
</g>
<!-- Node40 -->
<g id="node34" class="node">
<title>Node40</title>
<g id="a_node34"><a xlink:href="resource_8c.html#a579bcb559463d3a872831c18d8d9a1c1" target="_top" xlink:title="coap_check_notify">
<polygon fill="#ffffff" stroke="#000000" points="1926,-445.6636 1926,-464.6636 2024,-464.6636 2024,-445.6636 1926,-445.6636"/>
<text text-anchor="middle" x="1975" y="-452.6636" font-family="Helvetica,sans-Serif" font-size="10.00" fill="#000000">coap_check_notify</text>
</a>
</g>
</g>
<!-- Node39&#45;&gt;Node40 -->
<g id="edge42" class="edge">
<title>Node39&#45;&gt;Node40</title>
<path fill="none" stroke="#191970" d="M1354.2471,-455.1636C1416.1542,-455.1636 1510.2324,-455.1636 1592,-455.1636 1592,-455.1636 1592,-455.1636 1740,-455.1636 1804.2578,-455.1636 1878.399,-455.1636 1925.94,-455.1636"/>
<polygon fill="#191970" stroke="#191970" points="1354.2147,-451.6637 1344.2147,-455.1636 1354.2147,-458.6637 1354.2147,-451.6637"/>
</g>
<!-- Node40&#45;&gt;Node24 -->
<g id="edge43" class="edge">
<title>Node40&#45;&gt;Node24</title>
<path fill="none" stroke="#191970" d="M2015.7397,-467.6989C2032.5405,-472.8684 2051.697,-478.7627 2067.3457,-483.5777"/>
<polygon fill="#191970" stroke="#191970" points="2016.7514,-464.3483 2006.1643,-464.7526 2014.6927,-471.0388 2016.7514,-464.3483"/>
</g>
<!-- Node40&#45;&gt;Node25 -->
<g id="edge44" class="edge">
<title>Node40&#45;&gt;Node25</title>
<path fill="none" stroke="#191970" d="M2034.2663,-455.1636C2042.9313,-455.1636 2051.6616,-455.1636 2059.7733,-455.1636"/>
<polygon fill="#191970" stroke="#191970" points="2034.1654,-451.6637 2024.1653,-455.1636 2034.1653,-458.6637 2034.1654,-451.6637"/>
</g>
<!-- Node41&#45;&gt;Node21 -->
<g id="edge47" class="edge">
<title>Node41&#45;&gt;Node21</title>
<path fill="none" stroke="#191970" d="M1506.1015,-67.518C1583.1315,-71.291 1708.664,-88.0245 1792,-153.1636 1832.3141,-184.6749 1850.9232,-247.2463 1856.8199,-271.3658"/>
<polygon fill="#191970" stroke="#191970" points="1506.1687,-64.0177 1496.0276,-67.0849 1505.868,-71.0113 1506.1687,-64.0177"/>
</g>
<!-- Node42&#45;&gt;Node30 -->
<g id="edge50" class="edge">
<title>Node42&#45;&gt;Node30</title>
<path fill="none" stroke="#191970" d="M877.0346,-216.7894C950.1559,-203.3389 1085.7119,-187.1197 1193,-224.1636 1225.8164,-235.4943 1258.7097,-260.5543 1275.3478,-274.435"/>
<polygon fill="#191970" stroke="#191970" points="876.3147,-213.3634 867.1407,-218.6631 877.6173,-220.2412 876.3147,-213.3634"/>
</g>
<!-- Node42&#45;&gt;Node38 -->
<g id="edge49" class="edge">
<title>Node42&#45;&gt;Node38</title>
<path fill="none" stroke="#191970" d="M898.6986,-227.6849C910.9752,-227.6057 923.3625,-227.5258 934.6253,-227.4531"/>
<polygon fill="#191970" stroke="#191970" points="898.4165,-224.1866 888.4393,-227.7511 898.4617,-231.1864 898.4165,-224.1866"/>
</g>
<!-- Node44 -->
<g id="node38" class="node">
<title>Node44</title>
<g id="a_node38"><a xlink:href="resource_8c.html#a6fe7101754779c34807bf00b87ee5f0b" target="_top" xlink:title="coap_handle_failed\l_notify">
<polygon fill="#ffffff" stroke="#000000" points="448.5,-560.1636 448.5,-590.1636 548.5,-590.1636 548.5,-560.1636 448.5,-560.1636"/>
<text text-anchor="start" x="456.5" y="-578.1636" font-family="Helvetica,sans-Serif" font-size="10.00" fill="#000000">coap_handle_failed</text>
<text text-anchor="middle" x="498.5" y="-567.1636" font-family="Helvetica,sans-Serif" font-size="10.00" fill="#000000">_notify</text>
</a>
</g>
</g>
<!-- Node43&#45;&gt;Node44 -->
<g id="edge57" class="edge">
<title>Node43&#45;&gt;Node44</title>
<path fill="none" stroke="#191970" d="M399.8131,-575.1636C415.8684,-575.1636 432.9201,-575.1636 448.252,-575.1636"/>
<polygon fill="#191970" stroke="#191970" points="399.4345,-571.6637 389.4344,-575.1636 399.4344,-578.6637 399.4345,-571.6637"/>
</g>
<!-- Node44&#45;&gt;Node23 -->
<g id="edge58" class="edge">
<title>Node44&#45;&gt;Node23</title>
<path fill="none" stroke="#191970" d="M558.8941,-574.2755C624.3338,-573.3909 731.8237,-572.1636 824.5,-572.1636 824.5,-572.1636 824.5,-572.1636 1740,-572.1636 1826.2997,-572.1636 1921.5697,-523.7044 1958.822,-502.6929"/>
<polygon fill="#191970" stroke="#191970" points="558.7123,-570.7776 548.7612,-574.4143 558.8083,-577.7769 558.7123,-570.7776"/>
</g>
</g>
</svg>
