<?xml version="1.0" encoding="UTF-8" standalone="no"?>
<!DOCTYPE svg PUBLIC "-//W3C//DTD SVG 1.1//EN"
 "http://www.w3.org/Graphics/SVG/1.1/DTD/svg11.dtd">
<!-- Generated by graphviz version 2.40.1 (20161225.0304)
 -->
<!-- Title: coap_show_pdu Pages: 1 -->
<!--zoomable 484 -->
<svg id="main" version="1.1" xmlns="http://www.w3.org/2000/svg" xmlns:xlink="http://www.w3.org/1999/xlink" xml:space="preserve" onload="init(evt)">
<style type="text/css"><![CDATA[
.edge:hover path { stroke: red; }
.edge:hover polygon { stroke: red; fill: red; }
]]></style>
<script type="text/javascript"><![CDATA[
var edges = document.getElementsByTagName('g');
if (edges && edges.length) {
  for (var i=0;i<edges.length;i++) {
    if (edges[i].id.substr(0,4)=='edge') {
      edges[i].setAttribute('class','edge');
    }
  }
}
]]></script>
        <defs>
                <circle id="rim" cx="0" cy="0" r="7"/>
                <circle id="rim2" cx="0" cy="0" r="3.5"/>
                <g id="zoomPlus">
                        <use xlink:href="#rim" fill="#404040">
                                <set attributeName="fill" to="#808080" begin="zoomplus.mouseover" end="zoomplus.mouseout"/>
                        </use>
                        <path d="M-4,0h8M0,-4v8" fill="none" stroke="white" stroke-width="1.5" pointer-events="none"/>
                </g>
                <g id="zoomMin">
                        <use xlink:href="#rim" fill="#404040">
                                <set attributeName="fill" to="#808080" begin="zoomminus.mouseover" end="zoomminus.mouseout"/>
                        </use>
                        <path d="M-4,0h8" fill="none" stroke="white" stroke-width="1.5" pointer-events="none"/>
                </g>
                <g id="dirArrow">
                        <path fill="none" stroke="white" stroke-width="1.5" d="M0,-3.0v7 M-2.5,-0.5L0,-3.0L2.5,-0.5"/>
                </g>
               <g id="resetDef">
                       <use xlink:href="#rim2" fill="#404040">
                               <set attributeName="fill" to="#808080" begin="reset.mouseover" end="reset.mouseout"/>
                       </use>
               </g>
        </defs>

<script type="text/javascript">
var viewWidth = 913;
var viewHeight = 484;
var sectionId = 'dynsection-7';
</script>
<script xlink:href="svgpan.js"/>
<svg id="graph" class="graph">
<g id="viewport">
<title>coap_show_pdu</title>
<polygon fill="#ffffff" stroke="transparent" points="-4,4 -4,-480 909,-480 909,4 -4,4"/>
<!-- Node114 -->
<g id="node1" class="node">
<title>Node114</title>
<polygon fill="#bfbfbf" stroke="#000000" points="0,-228.5 0,-247.5 87,-247.5 87,-228.5 0,-228.5"/>
<text text-anchor="middle" x="43.5" y="-235.5" font-family="Helvetica,sans-Serif" font-size="10.00" fill="#000000">coap_show_pdu</text>
</g>
<!-- Node115 -->
<g id="node2" class="node">
<title>Node115</title>
<g id="a_node2"><a xlink:href="debug_8c.html#ac2f5151c2de3e051e6ee918a06b28895" target="_top" xlink:title="Returns a textual description of the message type t. ">
<polygon fill="#ffffff" stroke="#000000" points="139.5,-456.5 139.5,-475.5 228.5,-475.5 228.5,-456.5 139.5,-456.5"/>
<text text-anchor="middle" x="184" y="-463.5" font-family="Helvetica,sans-Serif" font-size="10.00" fill="#000000">msg_type_string</text>
</a>
</g>
</g>
<!-- Node114&#45;&gt;Node115 -->
<g id="edge1" class="edge">
<title>Node114&#45;&gt;Node115</title>
<path fill="none" stroke="#191970" d="M44.2419,-247.5059C47.3124,-280.2595 61.9107,-389.5585 123,-447 125.2702,-449.1347 127.7768,-451.0296 130.4405,-452.7118"/>
<polygon fill="#191970" stroke="#191970" points="128.9029,-455.8574 139.3859,-457.3928 132.1485,-449.6552 128.9029,-455.8574"/>
</g>
<!-- Node116 -->
<g id="node3" class="node">
<title>Node116</title>
<g id="a_node3"><a xlink:href="debug_8c.html#aea942ffdf8b15a3e5a806792d71f4bba" target="_top" xlink:title="Returns a textual description of the method or response code. ">
<polygon fill="#ffffff" stroke="#000000" points="138.5,-418.5 138.5,-437.5 229.5,-437.5 229.5,-418.5 138.5,-418.5"/>
<text text-anchor="middle" x="184" y="-425.5" font-family="Helvetica,sans-Serif" font-size="10.00" fill="#000000">msg_code_string</text>
</a>
</g>
</g>
<!-- Node114&#45;&gt;Node116 -->
<g id="edge2" class="edge">
<title>Node114&#45;&gt;Node116</title>
<path fill="none" stroke="#191970" d="M45.1865,-247.7772C50.7151,-276.8421 71.0102,-363.5135 123,-409 124.9722,-410.7255 127.0999,-412.2944 129.3377,-413.7208"/>
<polygon fill="#191970" stroke="#191970" points="127.9447,-416.944 138.4177,-418.5465 131.2298,-410.7628 127.9447,-416.944"/>
</g>
<!-- Node117 -->
<g id="node4" class="node">
<title>Node117</title>
<g id="a_node4"><a xlink:href="group__opt__filter.html#gab38b82d0d166363523bbefc4b887f941" target="_top" xlink:title="Initializes the given option iterator oi to point to the beginning of the pdu&#39;s option list...">
<polygon fill="#ffffff" stroke="#000000" points="123,-380.5 123,-399.5 245,-399.5 245,-380.5 123,-380.5"/>
<text text-anchor="middle" x="184" y="-387.5" font-family="Helvetica,sans-Serif" font-size="10.00" fill="#000000">coap_option_iterator_init</text>
</a>
</g>
</g>
<!-- Node114&#45;&gt;Node117 -->
<g id="edge3" class="edge">
<title>Node114&#45;&gt;Node117</title>
<path fill="none" stroke="#191970" d="M46.5496,-247.6705C54.7571,-272.1208 79.672,-336.8847 123,-371 125.4061,-372.8945 128.0028,-374.6014 130.7209,-376.1391"/>
<polygon fill="#191970" stroke="#191970" points="129.2044,-379.2935 139.7307,-380.4967 132.2522,-372.9918 129.2044,-379.2935"/>
</g>
<!-- Node118 -->
<g id="node5" class="node">
<title>Node118</title>
<g id="a_node5"><a xlink:href="group__opt__filter.html#ga182fdeffe0b37e1ab0dc6ba8494abe4a" target="_top" xlink:title="Updates the iterator oi to point to the next option. ">
<polygon fill="#ffffff" stroke="#000000" points="137.5,-342.5 137.5,-361.5 230.5,-361.5 230.5,-342.5 137.5,-342.5"/>
<text text-anchor="middle" x="184" y="-349.5" font-family="Helvetica,sans-Serif" font-size="10.00" fill="#000000">coap_option_next</text>
</a>
</g>
</g>
<!-- Node114&#45;&gt;Node118 -->
<g id="edge4" class="edge">
<title>Node114&#45;&gt;Node118</title>
<path fill="none" stroke="#191970" d="M49.7747,-247.7565C61.8889,-265.8923 90.2152,-305.0346 123,-328 128.7616,-332.0359 135.2972,-335.5221 141.8971,-338.4887"/>
<polygon fill="#191970" stroke="#191970" points="140.9513,-341.8847 151.5301,-342.4668 143.6232,-335.4147 140.9513,-341.8847"/>
</g>
<!-- Node127 -->
<g id="node14" class="node">
<title>Node127</title>
<g id="a_node14"><a xlink:href="encode_8c.html#a7d12488893c3062c98bad1f4ab58455c" target="_top" xlink:title="Decodes multiple&#45;length byte sequences. ">
<polygon fill="#ffffff" stroke="#000000" points="281,-266.5 281,-285.5 403,-285.5 403,-266.5 281,-266.5"/>
<text text-anchor="middle" x="342" y="-273.5" font-family="Helvetica,sans-Serif" font-size="10.00" fill="#000000">coap_decode_var_bytes</text>
</a>
</g>
</g>
<!-- Node114&#45;&gt;Node127 -->
<g id="edge13" class="edge">
<title>Node114&#45;&gt;Node127</title>
<path fill="none" stroke="#191970" d="M59.254,-247.5201C74.8191,-256.3378 99.6233,-268.842 123,-274 171.4668,-284.6941 227.4471,-285.0023 270.6772,-282.7357"/>
<polygon fill="#191970" stroke="#191970" points="271.0385,-286.2207 280.818,-282.145 270.6313,-279.2326 271.0385,-286.2207"/>
</g>
<!-- Node128 -->
<g id="node15" class="node">
<title>Node128</title>
<g id="a_node15"><a xlink:href="group__opt__filter.html#gab713167d74579e79140b1112713b7637" target="_top" xlink:title="Returns a pointer to the value of the given option. ">
<polygon fill="#ffffff" stroke="#000000" points="299.5,-228.5 299.5,-247.5 384.5,-247.5 384.5,-228.5 299.5,-228.5"/>
<text text-anchor="middle" x="342" y="-235.5" font-family="Helvetica,sans-Serif" font-size="10.00" fill="#000000">coap_opt_value</text>
</a>
</g>
</g>
<!-- Node114&#45;&gt;Node128 -->
<g id="edge14" class="edge">
<title>Node114&#45;&gt;Node128</title>
<path fill="none" stroke="#191970" d="M75.6814,-247.5064C90.0257,-251.2708 107.2155,-255.14 123,-257 176.8496,-263.3455 191.0312,-262.2359 245,-257 260.5429,-255.4921 277.2925,-252.6554 292.4269,-249.6252"/>
<polygon fill="#191970" stroke="#191970" points="293.5323,-252.9704 302.6119,-247.5103 292.1091,-246.1166 293.5323,-252.9704"/>
</g>
<!-- Node129 -->
<g id="node16" class="node">
<title>Node129</title>
<g id="a_node16"><a xlink:href="group__opt__filter.html#gaac65919c93f7047b687d33af9672b3ea" target="_top" xlink:title="Returns the length of the given option. ">
<polygon fill="#ffffff" stroke="#000000" points="298,-190.5 298,-209.5 386,-209.5 386,-190.5 298,-190.5"/>
<text text-anchor="middle" x="342" y="-197.5" font-family="Helvetica,sans-Serif" font-size="10.00" fill="#000000">coap_opt_length</text>
</a>
</g>
</g>
<!-- Node114&#45;&gt;Node129 -->
<g id="edge15" class="edge">
<title>Node114&#45;&gt;Node129</title>
<path fill="none" stroke="#191970" d="M78.4964,-228.4535C92.2742,-225.0066 108.2913,-221.3822 123,-219 178.7457,-209.9713 243.2169,-205.0321 287.7014,-202.4713"/>
<polygon fill="#191970" stroke="#191970" points="287.9286,-205.9642 297.7193,-201.9154 287.5407,-198.975 287.9286,-205.9642"/>
</g>
<!-- Node130 -->
<g id="node17" class="node">
<title>Node130</title>
<g id="a_node17"><a xlink:href="debug_8c.html#a9e3ba28934c772ce97c390e4ff4c776f" target="_top" xlink:title="print_readable">
<polygon fill="#ffffff" stroke="#000000" points="145.5,-152.5 145.5,-171.5 222.5,-171.5 222.5,-152.5 145.5,-152.5"/>
<text text-anchor="middle" x="184" y="-159.5" font-family="Helvetica,sans-Serif" font-size="10.00" fill="#000000">print_readable</text>
</a>
</g>
</g>
<!-- Node114&#45;&gt;Node130 -->
<g id="edge16" class="edge">
<title>Node114&#45;&gt;Node130</title>
<path fill="none" stroke="#191970" d="M56.2255,-228.4991C71.5241,-217.3603 98.2396,-198.7976 123,-186 130.475,-182.1365 138.7206,-178.5027 146.668,-175.2882"/>
<polygon fill="#191970" stroke="#191970" points="148.101,-178.4861 156.1425,-171.5879 145.5544,-171.9657 148.101,-178.4861"/>
</g>
<!-- Node131 -->
<g id="node18" class="node">
<title>Node131</title>
<g id="a_node18"><a xlink:href="debug_8c.html#af117a9e7fbf2a7d61922631cc747c3e9" target="_top" xlink:title="print_content_format">
<polygon fill="#ffffff" stroke="#000000" points="131,-114.5 131,-133.5 237,-133.5 237,-114.5 131,-114.5"/>
<text text-anchor="middle" x="184" y="-121.5" font-family="Helvetica,sans-Serif" font-size="10.00" fill="#000000">print_content_format</text>
</a>
</g>
</g>
<!-- Node114&#45;&gt;Node131 -->
<g id="edge17" class="edge">
<title>Node114&#45;&gt;Node131</title>
<path fill="none" stroke="#191970" d="M48.9467,-228.351C60.2434,-209.206 88.1054,-166.2615 123,-143 126.089,-140.9408 129.4129,-139.0953 132.8575,-137.4428"/>
<polygon fill="#191970" stroke="#191970" points="134.3292,-140.6207 142.1791,-133.5051 131.6052,-134.1724 134.3292,-140.6207"/>
</g>
<!-- Node132 -->
<g id="node19" class="node">
<title>Node132</title>
<g id="a_node19"><a xlink:href="group__block.html#gaac6c90297abc6e2da80a6212b0d10e99" target="_top" xlink:title="Returns the value of field num in the given block option block_opt. ">
<polygon fill="#ffffff" stroke="#000000" points="129.5,-228.5 129.5,-247.5 238.5,-247.5 238.5,-228.5 129.5,-228.5"/>
<text text-anchor="middle" x="184" y="-235.5" font-family="Helvetica,sans-Serif" font-size="10.00" fill="#000000">coap_opt_block_num</text>
</a>
</g>
</g>
<!-- Node114&#45;&gt;Node132 -->
<g id="edge18" class="edge">
<title>Node114&#45;&gt;Node132</title>
<path fill="none" stroke="#191970" d="M87.1849,-238C97.3185,-238 108.3169,-238 119.1435,-238"/>
<polygon fill="#191970" stroke="#191970" points="119.4371,-241.5001 129.4371,-238 119.437,-234.5001 119.4371,-241.5001"/>
</g>
<!-- Node133 -->
<g id="node20" class="node">
<title>Node133</title>
<g id="a_node20"><a xlink:href="debug_8c.html#ac5607cb67fdcb4ace32e1455acb720c6" target="_top" xlink:title="Returns a textual description of the option name. ">
<polygon fill="#ffffff" stroke="#000000" points="136,-76.5 136,-95.5 232,-95.5 232,-76.5 136,-76.5"/>
<text text-anchor="middle" x="184" y="-83.5" font-family="Helvetica,sans-Serif" font-size="10.00" fill="#000000">msg_option_string</text>
</a>
</g>
</g>
<!-- Node114&#45;&gt;Node133 -->
<g id="edge22" class="edge">
<title>Node114&#45;&gt;Node133</title>
<path fill="none" stroke="#191970" d="M46.5496,-228.3295C54.7571,-203.8792 79.672,-139.1153 123,-105 125.4061,-103.1055 128.0028,-101.3986 130.7209,-99.8609"/>
<polygon fill="#191970" stroke="#191970" points="132.2522,-103.0082 139.7307,-95.5033 129.2044,-96.7065 132.2522,-103.0082"/>
</g>
<!-- Node134 -->
<g id="node21" class="node">
<title>Node134</title>
<g id="a_node21"><a xlink:href="pdu_8c.html#a6701e5ec876a5ce59c7892f66d46c67b" target="_top" xlink:title="Retrieves the length and data pointer of specified PDU. ">
<polygon fill="#ffffff" stroke="#000000" points="144,-38.5 144,-57.5 224,-57.5 224,-38.5 144,-38.5"/>
<text text-anchor="middle" x="184" y="-45.5" font-family="Helvetica,sans-Serif" font-size="10.00" fill="#000000">coap_get_data</text>
</a>
</g>
</g>
<!-- Node114&#45;&gt;Node134 -->
<g id="edge23" class="edge">
<title>Node114&#45;&gt;Node134</title>
<path fill="none" stroke="#191970" d="M45.1865,-228.2228C50.7151,-199.1579 71.0102,-112.4865 123,-67 126.4266,-64.002 130.3226,-61.477 134.4494,-59.3502"/>
<polygon fill="#191970" stroke="#191970" points="135.9848,-62.4992 143.7596,-55.3018 133.1934,-56.0799 135.9848,-62.4992"/>
</g>
<!-- Node135 -->
<g id="node22" class="node">
<title>Node135</title>
<g id="a_node22"><a xlink:href="debug_8c.html#a70db69adf2511b8264abad9fd8218d58" target="_top" xlink:title="Returns 1 if the given content_format is either unknown or known to carry binary data. ">
<polygon fill="#ffffff" stroke="#000000" points="156,-.5 156,-19.5 212,-19.5 212,-.5 156,-.5"/>
<text text-anchor="middle" x="184" y="-7.5" font-family="Helvetica,sans-Serif" font-size="10.00" fill="#000000">is_binary</text>
</a>
</g>
</g>
<!-- Node114&#45;&gt;Node135 -->
<g id="edge24" class="edge">
<title>Node114&#45;&gt;Node135</title>
<path fill="none" stroke="#191970" d="M44.2419,-228.4941C47.3124,-195.7405 61.9107,-86.4415 123,-29 129.3889,-22.9926 137.6498,-18.8835 146.017,-16.0733"/>
<polygon fill="#191970" stroke="#191970" points="147.0987,-19.4051 155.7824,-13.3351 145.2087,-12.665 147.0987,-19.4051"/>
</g>
<!-- Node119 -->
<g id="node6" class="node">
<title>Node119</title>
<g id="a_node6"><a xlink:href="option_8c.html#a70fa9db0450134640b80cbf7c3720688" target="_top" xlink:title="opt_finished">
<polygon fill="#ffffff" stroke="#000000" points="307.5,-380.5 307.5,-399.5 376.5,-399.5 376.5,-380.5 307.5,-380.5"/>
<text text-anchor="middle" x="342" y="-387.5" font-family="Helvetica,sans-Serif" font-size="10.00" fill="#000000">opt_finished</text>
</a>
</g>
</g>
<!-- Node118&#45;&gt;Node119 -->
<g id="edge5" class="edge">
<title>Node118&#45;&gt;Node119</title>
<path fill="none" stroke="#191970" d="M223.8701,-361.589C246.2472,-366.9708 274.2281,-373.7004 297.3401,-379.259"/>
<polygon fill="#191970" stroke="#191970" points="296.7056,-382.7061 307.2468,-381.6416 298.3425,-375.9002 296.7056,-382.7061"/>
</g>
<!-- Node120 -->
<g id="node7" class="node">
<title>Node120</title>
<g id="a_node7"><a xlink:href="option_8c.html#a11de99f50cc9f5a34fd9e4d121ecfd13" target="_top" xlink:title="Parses the option pointed to by opt into result. ">
<polygon fill="#ffffff" stroke="#000000" points="299,-342.5 299,-361.5 385,-361.5 385,-342.5 299,-342.5"/>
<text text-anchor="middle" x="342" y="-349.5" font-family="Helvetica,sans-Serif" font-size="10.00" fill="#000000">coap_opt_parse</text>
</a>
</g>
</g>
<!-- Node118&#45;&gt;Node120 -->
<g id="edge6" class="edge">
<title>Node118&#45;&gt;Node120</title>
<path fill="none" stroke="#191970" d="M230.5506,-352C248.7533,-352 269.7379,-352 288.5547,-352"/>
<polygon fill="#191970" stroke="#191970" points="288.754,-355.5001 298.754,-352 288.754,-348.5001 288.754,-355.5001"/>
</g>
<!-- Node121 -->
<g id="node8" class="node">
<title>Node121</title>
<g id="a_node8"><a xlink:href="group__opt__filter.html#ga6c7511c51433cf52068a92a18e62e2d3" target="_top" xlink:title="Gets the corresponding bit for type in filter. ">
<polygon fill="#ffffff" stroke="#000000" points="295.5,-304.5 295.5,-323.5 388.5,-323.5 388.5,-304.5 295.5,-304.5"/>
<text text-anchor="middle" x="342" y="-311.5" font-family="Helvetica,sans-Serif" font-size="10.00" fill="#000000">coap_option_getb</text>
</a>
</g>
</g>
<!-- Node118&#45;&gt;Node121 -->
<g id="edge7" class="edge">
<title>Node118&#45;&gt;Node121</title>
<path fill="none" stroke="#191970" d="M223.8701,-342.411C244.7199,-337.3965 270.4346,-331.2119 292.5429,-325.8947"/>
<polygon fill="#191970" stroke="#191970" points="293.5123,-329.2615 302.4166,-323.5201 291.8754,-322.4555 293.5123,-329.2615"/>
</g>
<!-- Node122 -->
<g id="node9" class="node">
<title>Node122</title>
<g id="a_node9"><a xlink:href="group__opt__filter.html#ga3d3a4336ff55e111eae4eb2a1883a98b" target="_top" xlink:title="Checks if type is contained in filter. ">
<polygon fill="#ffffff" stroke="#000000" points="439,-304.5 439,-323.5 551,-323.5 551,-304.5 439,-304.5"/>
<text text-anchor="middle" x="495" y="-311.5" font-family="Helvetica,sans-Serif" font-size="10.00" fill="#000000">coap_option_filter_get</text>
</a>
</g>
</g>
<!-- Node121&#45;&gt;Node122 -->
<g id="edge8" class="edge">
<title>Node121&#45;&gt;Node122</title>
<path fill="none" stroke="#191970" d="M388.7364,-314C401.3417,-314 415.2242,-314 428.6791,-314"/>
<polygon fill="#191970" stroke="#191970" points="428.8566,-317.5001 438.8566,-314 428.8565,-310.5001 428.8566,-317.5001"/>
</g>
<!-- Node123 -->
<g id="node10" class="node">
<title>Node123</title>
<g id="a_node10"><a xlink:href="option_8c.html#a4225eb8945afcd42e9d4c50bd7c85ff1" target="_top" xlink:title="Applies op on filter with respect to type. ">
<polygon fill="#ffffff" stroke="#000000" points="587,-304.5 587,-323.5 696,-323.5 696,-304.5 587,-304.5"/>
<text text-anchor="middle" x="641.5" y="-311.5" font-family="Helvetica,sans-Serif" font-size="10.00" fill="#000000">coap_option_filter_op</text>
</a>
</g>
</g>
<!-- Node122&#45;&gt;Node123 -->
<g id="edge9" class="edge">
<title>Node122&#45;&gt;Node123</title>
<path fill="none" stroke="#191970" d="M551.2217,-314C559.4825,-314 568.0491,-314 576.469,-314"/>
<polygon fill="#191970" stroke="#191970" points="576.6363,-317.5001 586.6363,-314 576.6362,-310.5001 576.6363,-317.5001"/>
</g>
<!-- Node124 -->
<g id="node11" class="node">
<title>Node124</title>
<g id="a_node11"><a xlink:href="option_8c.html#a2be7abc95dd3dfc1f1f3f4268ce41101" target="_top" xlink:title="Returns true iff type denotes an option type larger than 255. ">
<polygon fill="#ffffff" stroke="#000000" points="732,-323.5 732,-342.5 811,-342.5 811,-323.5 732,-323.5"/>
<text text-anchor="middle" x="771.5" y="-330.5" font-family="Helvetica,sans-Serif" font-size="10.00" fill="#000000">is_long_option</text>
</a>
</g>
</g>
<!-- Node123&#45;&gt;Node124 -->
<g id="edge10" class="edge">
<title>Node123&#45;&gt;Node124</title>
<path fill="none" stroke="#191970" d="M696.2549,-322.0026C704.7401,-323.2428 713.4642,-324.5179 721.8292,-325.7404"/>
<polygon fill="#191970" stroke="#191970" points="721.4132,-329.2167 731.8142,-327.1998 722.4255,-322.2903 721.4132,-329.2167"/>
</g>
<!-- Node125 -->
<g id="node12" class="node">
<title>Node125</title>
<g id="a_node12"><a xlink:href="encode_8c.html#a671b4261b2d24de8696258a8efb0f359" target="_top" xlink:title="coap_fls">
<polygon fill="#ffffff" stroke="#000000" points="745,-285.5 745,-304.5 798,-304.5 798,-285.5 745,-285.5"/>
<text text-anchor="middle" x="771.5" y="-292.5" font-family="Helvetica,sans-Serif" font-size="10.00" fill="#000000">coap_fls</text>
</a>
</g>
</g>
<!-- Node123&#45;&gt;Node125 -->
<g id="edge11" class="edge">
<title>Node123&#45;&gt;Node125</title>
<path fill="none" stroke="#191970" d="M696.2549,-305.9974C709.2429,-304.0991 722.7907,-302.119 734.7533,-300.3707"/>
<polygon fill="#191970" stroke="#191970" points="735.4152,-303.8112 744.8039,-298.9017 734.4029,-296.8848 735.4152,-303.8112"/>
</g>
<!-- Node126 -->
<g id="node13" class="node">
<title>Node126</title>
<g id="a_node13"><a xlink:href="encode_8c.html#a5732d87decbffe771159ea02a5e25488" target="_top" xlink:title="coap_flsll">
<polygon fill="#ffffff" stroke="#000000" points="847,-285.5 847,-304.5 905,-304.5 905,-285.5 847,-285.5"/>
<text text-anchor="middle" x="876" y="-292.5" font-family="Helvetica,sans-Serif" font-size="10.00" fill="#000000">coap_flsll</text>
</a>
</g>
</g>
<!-- Node125&#45;&gt;Node126 -->
<g id="edge12" class="edge">
<title>Node125&#45;&gt;Node126</title>
<path fill="none" stroke="#191970" d="M798.1401,-295C809.878,-295 823.9067,-295 836.8021,-295"/>
<polygon fill="#191970" stroke="#191970" points="836.8356,-298.5001 846.8356,-295 836.8355,-291.5001 836.8356,-298.5001"/>
</g>
<!-- Node132&#45;&gt;Node127 -->
<g id="edge20" class="edge">
<title>Node132&#45;&gt;Node127</title>
<path fill="none" stroke="#191970" d="M223.8701,-247.589C244.7199,-252.6035 270.4346,-258.7881 292.5429,-264.1053"/>
<polygon fill="#191970" stroke="#191970" points="291.8754,-267.5445 302.4166,-266.4799 293.5123,-260.7385 291.8754,-267.5445"/>
</g>
<!-- Node132&#45;&gt;Node128 -->
<g id="edge21" class="edge">
<title>Node132&#45;&gt;Node128</title>
<path fill="none" stroke="#191970" d="M238.8173,-238C255.1217,-238 272.947,-238 289.1251,-238"/>
<polygon fill="#191970" stroke="#191970" points="289.486,-241.5001 299.486,-238 289.486,-234.5001 289.486,-241.5001"/>
</g>
<!-- Node132&#45;&gt;Node129 -->
<g id="edge19" class="edge">
<title>Node132&#45;&gt;Node129</title>
<path fill="none" stroke="#191970" d="M223.8701,-228.411C244.7199,-223.3965 270.4346,-217.2119 292.5429,-211.8947"/>
<polygon fill="#191970" stroke="#191970" points="293.5123,-215.2615 302.4166,-209.5201 291.8754,-208.4555 293.5123,-215.2615"/>
</g>
</g>
</svg>
        <g id="navigator" transform="translate(0 0)" fill="#404254">
                <rect fill="#f2f5e9" fill-opacity="0.5" stroke="#606060" stroke-width=".5" x="0" y="0" width="60" height="60"/>
                <use id="zoomplus" xlink:href="#zoomPlus" x="17" y="9" onmousedown="handleZoom(evt,'in')"/>
                <use id="zoomminus" xlink:href="#zoomMin" x="42" y="9" onmousedown="handleZoom(evt,'out')"/>
                <use id="reset" xlink:href="#resetDef" x="30" y="36" onmousedown="handleReset()"/>
                <g id="arrowUp" xlink:href="#dirArrow" transform="translate(30 24)" onmousedown="handlePan(0,-1)">
                  <use xlink:href="#rim" fill="#404040">
                        <set attributeName="fill" to="#808080" begin="arrowUp.mouseover" end="arrowUp.mouseout"/>
                  </use>
                  <path fill="none" stroke="white" stroke-width="1.5" d="M0,-3.0v7 M-2.5,-0.5L0,-3.0L2.5,-0.5"/>
                </g>
                <g id="arrowRight" xlink:href="#dirArrow" transform="rotate(90) translate(36 -43)" onmousedown="handlePan(1,0)">
                  <use xlink:href="#rim" fill="#404040">
                        <set attributeName="fill" to="#808080" begin="arrowRight.mouseover" end="arrowRight.mouseout"/>
                  </use>
                  <path fill="none" stroke="white" stroke-width="1.5" d="M0,-3.0v7 M-2.5,-0.5L0,-3.0L2.5,-0.5"/>
                </g>
                <g id="arrowDown" xlink:href="#dirArrow" transform="rotate(180) translate(-30 -48)" onmousedown="handlePan(0,1)">
                  <use xlink:href="#rim" fill="#404040">
                        <set attributeName="fill" to="#808080" begin="arrowDown.mouseover" end="arrowDown.mouseout"/>
                  </use>
                  <path fill="none" stroke="white" stroke-width="1.5" d="M0,-3.0v7 M-2.5,-0.5L0,-3.0L2.5,-0.5"/>
                </g>
                <g id="arrowLeft" xlink:href="#dirArrow" transform="rotate(270) translate(-36 17)" onmousedown="handlePan(-1,0)">
                  <use xlink:href="#rim" fill="#404040">
                        <set attributeName="fill" to="#808080" begin="arrowLeft.mouseover" end="arrowLeft.mouseout"/>
                  </use>
                  <path fill="none" stroke="white" stroke-width="1.5" d="M0,-3.0v7 M-2.5,-0.5L0,-3.0L2.5,-0.5"/>
                </g>
        </g>
        <svg viewBox="0 0 15 15" width="100%" height="30px" preserveAspectRatio="xMaxYMin meet">
         <g id="arrow_out" transform="scale(0.3 0.3)">
          <a xlink:href="debug_8h_a88cca636643023b4867f9c3fd8f0c09c_cgraph_org.svg" target="_base">
           <rect id="button" ry="5" rx="5" y="6" x="6" height="38" width="38"
                fill="#f2f5e9" fill-opacity="0.5" stroke="#606060" stroke-width="1.0"/>
           <path id="arrow"
             d="M 11.500037,31.436501 C 11.940474,20.09759 22.043105,11.32322 32.158766,21.979434 L 37.068811,17.246167 C 37.068811,17.246167 37.088388,32 37.088388,32 L 22.160133,31.978069 C 22.160133,31.978069 26.997745,27.140456 26.997745,27.140456 C 18.528582,18.264221 13.291696,25.230495 11.500037,31.436501 z"
             style="fill:#404040;"/>
          </a>
         </g>
        </svg>
</svg>
