<?xml version="1.0" encoding="UTF-8" standalone="no"?>
<!DOCTYPE svg PUBLIC "-//W3C//DTD SVG 1.1//EN"
 "http://www.w3.org/Graphics/SVG/1.1/DTD/svg11.dtd">
<!-- Generated by graphviz version 2.40.1 (20161225.0304)
 -->
<!-- Title: msg_type_string Pages: 1 -->
<!--zoomable 641 -->
<svg id="main" version="1.1" xmlns="http://www.w3.org/2000/svg" xmlns:xlink="http://www.w3.org/1999/xlink" xml:space="preserve" onload="init(evt)">
<style type="text/css"><![CDATA[
.edge:hover path { stroke: red; }
.edge:hover polygon { stroke: red; fill: red; }
]]></style>
<script type="text/javascript"><![CDATA[
var edges = document.getElementsByTagName('g');
if (edges && edges.length) {
  for (var i=0;i<edges.length;i++) {
    if (edges[i].id.substr(0,4)=='edge') {
      edges[i].setAttribute('class','edge');
    }
  }
}
]]></script>
        <defs>
                <circle id="rim" cx="0" cy="0" r="7"/>
                <circle id="rim2" cx="0" cy="0" r="3.5"/>
                <g id="zoomPlus">
                        <use xlink:href="#rim" fill="#404040">
                                <set attributeName="fill" to="#808080" begin="zoomplus.mouseover" end="zoomplus.mouseout"/>
                        </use>
                        <path d="M-4,0h8M0,-4v8" fill="none" stroke="white" stroke-width="1.5" pointer-events="none"/>
                </g>
                <g id="zoomMin">
                        <use xlink:href="#rim" fill="#404040">
                                <set attributeName="fill" to="#808080" begin="zoomminus.mouseover" end="zoomminus.mouseout"/>
                        </use>
                        <path d="M-4,0h8" fill="none" stroke="white" stroke-width="1.5" pointer-events="none"/>
                </g>
                <g id="dirArrow">
                        <path fill="none" stroke="white" stroke-width="1.5" d="M0,-3.0v7 M-2.5,-0.5L0,-3.0L2.5,-0.5"/>
                </g>
               <g id="resetDef">
                       <use xlink:href="#rim2" fill="#404040">
                               <set attributeName="fill" to="#808080" begin="reset.mouseover" end="reset.mouseout"/>
                       </use>
               </g>
        </defs>

<script type="text/javascript">
var viewWidth = 2272;
var viewHeight = 641;
var sectionId = 'dynsection-5';
</script>
<script xlink:href="svgpan.js"/>
<svg id="graph" class="graph">
<g id="viewport">
<title>msg_type_string</title>
<polygon fill="#ffffff" stroke="transparent" points="-4,4 -4,-637.0389 2268,-637.0389 2268,4 -4,4"/>
<!-- Node119 -->
<g id="node1" class="node">
<title>Node119</title>
<polygon fill="#bfbfbf" stroke="#000000" points="0,-395.5389 0,-414.5389 89,-414.5389 89,-395.5389 0,-395.5389"/>
<text text-anchor="middle" x="44.5" y="-402.5389" font-family="Helvetica,sans-Serif" font-size="10.00" fill="#000000">msg_type_string</text>
</g>
<!-- Node120 -->
<g id="node2" class="node">
<title>Node120</title>
<g id="a_node2"><a xlink:href="group__logging.html#ga3123fcde8310c0f7cb48897a683baef6" target="_top" xlink:title="Display the contents of the specified pdu. ">
<polygon fill="#ffffff" stroke="#000000" points="125,-395.5389 125,-414.5389 212,-414.5389 212,-395.5389 125,-395.5389"/>
<text text-anchor="middle" x="168.5" y="-402.5389" font-family="Helvetica,sans-Serif" font-size="10.00" fill="#000000">coap_show_pdu</text>
</a>
</g>
</g>
<!-- Node119&#45;&gt;Node120 -->
<g id="edge1" class="edge">
<title>Node119&#45;&gt;Node120</title>
<path fill="none" stroke="#191970" d="M99.4264,-405.0389C107.8623,-405.0389 116.4753,-405.0389 124.6296,-405.0389"/>
<polygon fill="#191970" stroke="#191970" points="99.2669,-401.539 89.2668,-405.0389 99.2668,-408.539 99.2669,-401.539"/>
</g>
<!-- Node121 -->
<g id="node3" class="node">
<title>Node121</title>
<g id="a_node3"><a xlink:href="coap__session_8h.html#aaf20c9b0b2ad3168c15e535a67ea3ce5" target="_top" xlink:title="Send a pdu according to the session&#39;s protocol. ">
<polygon fill="#ffffff" stroke="#000000" points="248,-395.5389 248,-414.5389 372,-414.5389 372,-395.5389 248,-395.5389"/>
<text text-anchor="middle" x="310" y="-402.5389" font-family="Helvetica,sans-Serif" font-size="10.00" fill="#000000">coap_session_send_pdu</text>
</a>
</g>
</g>
<!-- Node120&#45;&gt;Node121 -->
<g id="edge2" class="edge">
<title>Node120&#45;&gt;Node121</title>
<path fill="none" stroke="#191970" d="M222.1354,-405.0389C230.5219,-405.0389 239.2498,-405.0389 247.8082,-405.0389"/>
<polygon fill="#191970" stroke="#191970" points="222.1093,-401.539 212.1093,-405.0389 222.1092,-408.539 222.1093,-401.539"/>
</g>
<!-- Node136 -->
<g id="node18" class="node">
<title>Node136</title>
<g id="a_node18"><a xlink:href="net_8c.html#a0c600aed61c8a8402d31ef795df3b0b6" target="_top" xlink:title="coap_send_pdu">
<polygon fill="#ffffff" stroke="#000000" points="586.5,-319.5389 586.5,-338.5389 671.5,-338.5389 671.5,-319.5389 586.5,-319.5389"/>
<text text-anchor="middle" x="629" y="-326.5389" font-family="Helvetica,sans-Serif" font-size="10.00" fill="#000000">coap_send_pdu</text>
</a>
</g>
</g>
<!-- Node120&#45;&gt;Node136 -->
<g id="edge62" class="edge">
<title>Node120&#45;&gt;Node136</title>
<path fill="none" stroke="#191970" d="M218.5298,-393.0707C228.3022,-390.7362 238.4717,-388.309 248,-386.0389 319.0992,-369.0998 335.8382,-359.6451 408,-348.0389 469.594,-338.1323 541.7329,-333.1552 586.4054,-330.8358"/>
<polygon fill="#191970" stroke="#191970" points="217.4459,-389.7311 208.5333,-395.4595 219.0729,-396.5394 217.4459,-389.7311"/>
</g>
<!-- Node141 -->
<g id="node23" class="node">
<title>Node141</title>
<g id="a_node23"><a xlink:href="net_8h.html#a7bb944fc52f772655356d95724317401" target="_top" xlink:title="Dispatches the PDUs from the receive queue in given context. ">
<polygon fill="#ffffff" stroke="#000000" points="1250,-341.5389 1250,-360.5389 1330,-360.5389 1330,-341.5389 1250,-341.5389"/>
<text text-anchor="middle" x="1290" y="-348.5389" font-family="Helvetica,sans-Serif" font-size="10.00" fill="#000000">coap_dispatch</text>
</a>
</g>
</g>
<!-- Node120&#45;&gt;Node141 -->
<g id="edge63" class="edge">
<title>Node120&#45;&gt;Node141</title>
<path fill="none" stroke="#191970" d="M180.0167,-423.0941C215.9658,-476.9967 332.0752,-633.0389 471.5,-633.0389 471.5,-633.0389 471.5,-633.0389 797.5,-633.0389 934.277,-633.0389 1096.6779,-523.9788 1196,-450.0389 1232.882,-422.5823 1267.847,-379.8859 1282.6199,-360.8153"/>
<polygon fill="#191970" stroke="#191970" points="182.8261,-420.9953 174.4206,-414.5455 176.9693,-424.8292 182.8261,-420.9953"/>
</g>
<!-- Node122 -->
<g id="node4" class="node">
<title>Node122</title>
<g id="a_node4"><a xlink:href="coap__session_8h.html#a2f455ec1572982a5ae404beac0cfbd53" target="_top" xlink:title="Notify session transport has just connected and CSM exchange can now start. ">
<polygon fill="#ffffff" stroke="#000000" points="408,-433.5389 408,-452.5389 535,-452.5389 535,-433.5389 408,-433.5389"/>
<text text-anchor="middle" x="471.5" y="-440.5389" font-family="Helvetica,sans-Serif" font-size="10.00" fill="#000000">coap_session_send_csm</text>
</a>
</g>
</g>
<!-- Node121&#45;&gt;Node122 -->
<g id="edge3" class="edge">
<title>Node121&#45;&gt;Node122</title>
<path fill="none" stroke="#191970" d="M360.5583,-416.935C383.2588,-422.2763 409.6781,-428.4926 431.0398,-433.5188"/>
<polygon fill="#191970" stroke="#191970" points="361.2891,-413.5114 350.7533,-414.6279 359.6858,-420.3253 361.2891,-413.5114"/>
</g>
<!-- Node121&#45;&gt;Node136 -->
<g id="edge61" class="edge">
<title>Node121&#45;&gt;Node136</title>
<path fill="none" stroke="#191970" d="M359.8336,-393.1663C423.092,-378.0953 530.964,-352.3954 589.0854,-338.5483"/>
<polygon fill="#191970" stroke="#191970" points="358.9951,-389.768 350.0786,-395.4904 360.6175,-396.5774 358.9951,-389.768"/>
</g>
<!-- Node154 -->
<g id="node36" class="node">
<title>Node154</title>
<g id="a_node36"><a xlink:href="coap__session_8h.html#aa8b3a2da8480911b0216dad076038cb6" target="_top" xlink:title="Notify session that it has just connected or reconnected. ">
<polygon fill="#ffffff" stroke="#000000" points="911,-433.5389 911,-452.5389 1038,-452.5389 1038,-433.5389 911,-433.5389"/>
<text text-anchor="middle" x="974.5" y="-440.5389" font-family="Helvetica,sans-Serif" font-size="10.00" fill="#000000">coap_session_connected</text>
</a>
</g>
</g>
<!-- Node121&#45;&gt;Node154 -->
<g id="edge57" class="edge">
<title>Node121&#45;&gt;Node154</title>
<path fill="none" stroke="#191970" d="M382.1255,-405.9743C489.2113,-407.8485 696.496,-413.3402 872,-429.0389 884.88,-430.191 898.623,-431.8025 911.7246,-433.5238"/>
<polygon fill="#191970" stroke="#191970" points="382.1375,-402.4741 372.0796,-405.804 382.0188,-409.4731 382.1375,-402.4741"/>
</g>
<!-- Node123 -->
<g id="node5" class="node">
<title>Node123</title>
<g id="a_node5"><a xlink:href="coap__session_8c.html#acec64026a2b3309e97075951dc52c2a1" target="_top" xlink:title="coap_session_connect">
<polygon fill="#ffffff" stroke="#000000" points="571,-490.5389 571,-509.5389 687,-509.5389 687,-490.5389 571,-490.5389"/>
<text text-anchor="middle" x="629" y="-497.5389" font-family="Helvetica,sans-Serif" font-size="10.00" fill="#000000">coap_session_connect</text>
</a>
</g>
</g>
<!-- Node122&#45;&gt;Node123 -->
<g id="edge4" class="edge">
<title>Node122&#45;&gt;Node123</title>
<path fill="none" stroke="#191970" d="M507.602,-456.1044C536.5524,-466.5817 576.5141,-481.044 602.552,-490.4672"/>
<polygon fill="#191970" stroke="#191970" points="508.4562,-452.6914 497.862,-452.5794 506.074,-459.2736 508.4562,-452.6914"/>
</g>
<!-- Node127 -->
<g id="node9" class="node">
<title>Node127</title>
<g id="a_node9"><a xlink:href="coap__session_8c.html#ac79f1143af9580a441d31796cf81f108" target="_top" xlink:title="coap_session_accept">
<polygon fill="#ffffff" stroke="#000000" points="573.5,-547.5389 573.5,-566.5389 684.5,-566.5389 684.5,-547.5389 573.5,-547.5389"/>
<text text-anchor="middle" x="629" y="-554.5389" font-family="Helvetica,sans-Serif" font-size="10.00" fill="#000000">coap_session_accept</text>
</a>
</g>
</g>
<!-- Node122&#45;&gt;Node127 -->
<g id="edge8" class="edge">
<title>Node122&#45;&gt;Node127</title>
<path fill="none" stroke="#191970" d="M491.5544,-459.0382C511.425,-474.7274 542.8755,-499.1238 571,-519.0389 585.1473,-529.0566 601.7304,-539.8279 613.5328,-547.3352"/>
<polygon fill="#191970" stroke="#191970" points="493.553,-456.1562 483.542,-452.6877 489.205,-461.6421 493.553,-456.1562"/>
</g>
<!-- Node122&#45;&gt;Node136 -->
<g id="edge20" class="edge">
<title>Node122&#45;&gt;Node136</title>
<path fill="none" stroke="#191970" d="M493.1569,-427.3634C526.2062,-403.442 588.2607,-358.5264 615.5461,-338.7769"/>
<polygon fill="#191970" stroke="#191970" points="490.706,-424.8168 484.6575,-433.5154 494.8104,-430.4873 490.706,-424.8168"/>
</g>
<!-- Node153 -->
<g id="node35" class="node">
<title>Node153</title>
<g id="a_node35"><a xlink:href="net_8c.html#a9e7c7fc083799c942c9c44ebc190c833" target="_top" xlink:title="coap_connect_session">
<polygon fill="#ffffff" stroke="#000000" points="1232,-535.5389 1232,-554.5389 1348,-554.5389 1348,-535.5389 1232,-535.5389"/>
<text text-anchor="middle" x="1290" y="-542.5389" font-family="Helvetica,sans-Serif" font-size="10.00" fill="#000000">coap_connect_session</text>
</a>
</g>
</g>
<!-- Node122&#45;&gt;Node153 -->
<g id="edge55" class="edge">
<title>Node122&#45;&gt;Node153</title>
<path fill="none" stroke="#191970" d="M545.26,-443.2625C625.8242,-444.2686 758.5288,-448.1597 872,-462.0389 1013.5535,-479.353 1178.9129,-517.6474 1251.9827,-535.5134"/>
<polygon fill="#191970" stroke="#191970" points="545.2536,-439.7623 535.2146,-443.1487 545.1742,-446.7618 545.2536,-439.7623"/>
</g>
<!-- Node124 -->
<g id="node6" class="node">
<title>Node124</title>
<g id="a_node6"><a xlink:href="coap__session_8h.html#ad495fcd405fa86859fa36d45f89be910" target="_top" xlink:title="Creates a new client session to the designated server. ">
<polygon fill="#ffffff" stroke="#000000" points="733.5,-509.5389 733.5,-528.5389 861.5,-528.5389 861.5,-509.5389 733.5,-509.5389"/>
<text text-anchor="middle" x="797.5" y="-516.5389" font-family="Helvetica,sans-Serif" font-size="10.00" fill="#000000">coap_new_client_session</text>
</a>
</g>
</g>
<!-- Node123&#45;&gt;Node124 -->
<g id="edge5" class="edge">
<title>Node123&#45;&gt;Node124</title>
<path fill="none" stroke="#191970" d="M697.696,-507.785C709.4949,-509.1155 721.7154,-510.4934 733.3881,-511.8097"/>
<polygon fill="#191970" stroke="#191970" points="697.7895,-504.2735 687.4602,-506.6308 697.0051,-511.2294 697.7895,-504.2735"/>
</g>
<!-- Node125 -->
<g id="node7" class="node">
<title>Node125</title>
<g id="a_node7"><a xlink:href="coap__session_8h.html#a40790c70df0b38fe89f3fb2ad255d662" target="_top" xlink:title="Creates a new client session to the designated server with PSK credentials. ">
<polygon fill="#ffffff" stroke="#000000" points="723,-471.5389 723,-490.5389 872,-490.5389 872,-471.5389 723,-471.5389"/>
<text text-anchor="middle" x="797.5" y="-478.5389" font-family="Helvetica,sans-Serif" font-size="10.00" fill="#000000">coap_new_client_session_psk</text>
</a>
</g>
</g>
<!-- Node123&#45;&gt;Node125 -->
<g id="edge6" class="edge">
<title>Node123&#45;&gt;Node125</title>
<path fill="none" stroke="#191970" d="M697.5035,-492.3145C705.8429,-491.3741 714.3957,-490.4097 722.8193,-489.4599"/>
<polygon fill="#191970" stroke="#191970" points="697.0051,-488.8484 687.4602,-493.4469 697.7895,-495.8043 697.0051,-488.8484"/>
</g>
<!-- Node126 -->
<g id="node8" class="node">
<title>Node126</title>
<g id="a_node8"><a xlink:href="coap__session_8h.html#a90f2df37ae4204189027c01604ddfe50" target="_top" xlink:title="Creates a new client session to the designated server with PKI credentials. ">
<polygon fill="#ffffff" stroke="#000000" points="724.5,-547.5389 724.5,-566.5389 870.5,-566.5389 870.5,-547.5389 724.5,-547.5389"/>
<text text-anchor="middle" x="797.5" y="-554.5389" font-family="Helvetica,sans-Serif" font-size="10.00" fill="#000000">coap_new_client_session_pki</text>
</a>
</g>
</g>
<!-- Node123&#45;&gt;Node126 -->
<g id="edge7" class="edge">
<title>Node123&#45;&gt;Node126</title>
<path fill="none" stroke="#191970" d="M659.5851,-513.6194C677.7811,-521.3915 701.4499,-530.9705 723,-538.0389 733.5271,-541.4917 745.0593,-544.7029 755.8382,-547.4661"/>
<polygon fill="#191970" stroke="#191970" points="660.9168,-510.3821 650.3487,-509.6291 658.1406,-516.8081 660.9168,-510.3821"/>
</g>
<!-- Node128 -->
<g id="node10" class="node">
<title>Node128</title>
<g id="a_node10"><a xlink:href="coap__session_8h.html#aadffd66ead18cd2eba0b19efe92a3d88" target="_top" xlink:title="Creates a new server session for the specified endpoint. ">
<polygon fill="#ffffff" stroke="#000000" points="731.5,-585.5389 731.5,-604.5389 863.5,-604.5389 863.5,-585.5389 731.5,-585.5389"/>
<text text-anchor="middle" x="797.5" y="-592.5389" font-family="Helvetica,sans-Serif" font-size="10.00" fill="#000000">coap_new_server_session</text>
</a>
</g>
</g>
<!-- Node127&#45;&gt;Node128 -->
<g id="edge9" class="edge">
<title>Node127&#45;&gt;Node128</title>
<path fill="none" stroke="#191970" d="M681.4313,-568.8632C705.1868,-574.2205 732.8986,-580.47 755.2861,-585.5188"/>
<polygon fill="#191970" stroke="#191970" points="682.0447,-565.4137 671.5197,-566.6279 680.5047,-572.2422 682.0447,-565.4137"/>
</g>
<!-- Node129 -->
<g id="node11" class="node">
<title>Node129</title>
<g id="a_node11"><a xlink:href="net_8c.html#a7437c90770ffd13685e6a77799b4753b" target="_top" xlink:title="coap_accept_endpoint">
<polygon fill="#ffffff" stroke="#000000" points="1384,-581.5389 1384,-600.5389 1498,-600.5389 1498,-581.5389 1384,-581.5389"/>
<text text-anchor="middle" x="1441" y="-588.5389" font-family="Helvetica,sans-Serif" font-size="10.00" fill="#000000">coap_accept_endpoint</text>
</a>
</g>
</g>
<!-- Node128&#45;&gt;Node129 -->
<g id="edge10" class="edge">
<title>Node128&#45;&gt;Node129</title>
<path fill="none" stroke="#191970" d="M873.9526,-594.5637C1004.5249,-593.752 1267.6263,-592.1166 1383.725,-591.3949"/>
<polygon fill="#191970" stroke="#191970" points="873.6196,-591.0656 863.6416,-594.6278 873.6632,-598.0654 873.6196,-591.0656"/>
</g>
<!-- Node130 -->
<g id="node12" class="node">
<title>Node130</title>
<g id="a_node12"><a xlink:href="net_8h.html#a0748d791fd2af516dd93fbadb660d440" target="_top" xlink:title="For applications with their own message loop, reads all data from the network. ">
<polygon fill="#ffffff" stroke="#000000" points="1836,-322.5389 1836,-341.5389 1898,-341.5389 1898,-322.5389 1836,-322.5389"/>
<text text-anchor="middle" x="1867" y="-329.5389" font-family="Helvetica,sans-Serif" font-size="10.00" fill="#000000">coap_read</text>
</a>
</g>
</g>
<!-- Node129&#45;&gt;Node130 -->
<g id="edge11" class="edge">
<title>Node129&#45;&gt;Node130</title>
<path fill="none" stroke="#191970" d="M1501.1882,-602.029C1579.3649,-612.6507 1715.7665,-618.216 1800,-548.0389 1833.2574,-520.3313 1858.9301,-380.107 1865.4107,-341.7494"/>
<polygon fill="#191970" stroke="#191970" points="1501.4153,-598.526 1491.0204,-600.5742 1500.4238,-605.4554 1501.4153,-598.526"/>
</g>
<!-- Node131 -->
<g id="node13" class="node">
<title>Node131</title>
<g id="a_node13"><a xlink:href="coap__io_8c.html#a75a7c93e10ca7858449ba304aad4ea37" target="_top" xlink:title="coap_run_once">
<polygon fill="#ffffff" stroke="#000000" points="2181,-72.5389 2181,-91.5389 2264,-91.5389 2264,-72.5389 2181,-72.5389"/>
<text text-anchor="middle" x="2222.5" y="-79.5389" font-family="Helvetica,sans-Serif" font-size="10.00" fill="#000000">coap_run_once</text>
</a>
</g>
</g>
<!-- Node130&#45;&gt;Node131 -->
<g id="edge12" class="edge">
<title>Node130&#45;&gt;Node131</title>
<path fill="none" stroke="#191970" d="M1889.5237,-316.1994C1956.7287,-268.9386 2154.5159,-129.8477 2208.6603,-91.7714"/>
<polygon fill="#191970" stroke="#191970" points="1887.1026,-313.6232 1880.936,-322.2386 1891.1293,-319.3491 1887.1026,-313.6232"/>
</g>
<!-- Node132 -->
<g id="node14" class="node">
<title>Node132</title>
<g id="a_node14"><a xlink:href="net_8h.html#a9900c032b74bd57f67d489484a2b3207" target="_top" xlink:title="Handles retransmissions of confirmable messages. ">
<polygon fill="#ffffff" stroke="#000000" points="1940,-91.5389 1940,-110.5389 2026,-110.5389 2026,-91.5389 1940,-91.5389"/>
<text text-anchor="middle" x="1983" y="-98.5389" font-family="Helvetica,sans-Serif" font-size="10.00" fill="#000000">coap_retransmit</text>
</a>
</g>
</g>
<!-- Node130&#45;&gt;Node132 -->
<g id="edge13" class="edge">
<title>Node130&#45;&gt;Node132</title>
<path fill="none" stroke="#191970" d="M1871.2305,-312.6722C1881.5316,-266.951 1908.9145,-153.978 1934,-125.0389 1939.3359,-118.8833 1946.6166,-114.155 1953.9333,-110.5897"/>
<polygon fill="#191970" stroke="#191970" points="1867.7936,-312.0041 1869.0417,-322.5252 1874.627,-313.5222 1867.7936,-312.0041"/>
</g>
<!-- Node134 -->
<g id="node16" class="node">
<title>Node134</title>
<g id="a_node16"><a xlink:href="net_8h.html#a5854b1394bfddd574e48af116e3aaaf9" target="_top" xlink:title="Sends an RST message with code 0 for the specified request to dst. ">
<polygon fill="#ffffff" stroke="#000000" points="2182.5,-205.5389 2182.5,-224.5389 2262.5,-224.5389 2262.5,-205.5389 2182.5,-205.5389"/>
<text text-anchor="middle" x="2222.5" y="-212.5389" font-family="Helvetica,sans-Serif" font-size="10.00" fill="#000000">coap_send_rst</text>
</a>
</g>
</g>
<!-- Node130&#45;&gt;Node134 -->
<g id="edge19" class="edge">
<title>Node130&#45;&gt;Node134</title>
<path fill="none" stroke="#191970" d="M1908.3293,-337.2008C1965.0958,-342.3307 2068.8116,-344.544 2145,-305.0389 2180.6953,-286.5302 2206.9777,-243.999 2217.4763,-224.781"/>
<polygon fill="#191970" stroke="#191970" points="1908.5868,-333.7093 1898.2934,-336.2184 1907.9048,-340.676 1908.5868,-333.7093"/>
</g>
<!-- Node133 -->
<g id="node15" class="node">
<title>Node133</title>
<g id="a_node15"><a xlink:href="net_8h.html#aaac86ac50793f309678e4951ecf8863f" target="_top" xlink:title="For applications with their own message loop, send all pending retransmits and return the list of soc...">
<polygon fill="#ffffff" stroke="#000000" points="2074.5,-15.5389 2074.5,-34.5389 2138.5,-34.5389 2138.5,-15.5389 2074.5,-15.5389"/>
<text text-anchor="middle" x="2106.5" y="-22.5389" font-family="Helvetica,sans-Serif" font-size="10.00" fill="#000000">coap_write</text>
</a>
</g>
</g>
<!-- Node132&#45;&gt;Node133 -->
<g id="edge14" class="edge">
<title>Node132&#45;&gt;Node133</title>
<path fill="none" stroke="#191970" d="M2023.1972,-87.181C2026.2622,-85.608 2029.2349,-83.895 2032,-82.0389 2051.3163,-69.073 2049.2764,-57.8469 2068,-44.0389 2072.7991,-40.4998 2078.3585,-37.3171 2083.7344,-34.6138"/>
<polygon fill="#191970" stroke="#191970" points="2021.4644,-84.1255 2013.8413,-91.4834 2024.389,-90.4853 2021.4644,-84.1255"/>
</g>
<!-- Node132&#45;&gt;Node134 -->
<g id="edge18" class="edge">
<title>Node132&#45;&gt;Node134</title>
<path fill="none" stroke="#191970" d="M2023.9265,-113.8417C2057.3574,-124.9692 2105.3853,-142.5033 2145,-163.0389 2169.3106,-175.6411 2195.2986,-194.2664 2210.1546,-205.4703"/>
<polygon fill="#191970" stroke="#191970" points="2024.6384,-110.3916 2014.0456,-110.5977 2022.4549,-117.0424 2024.6384,-110.3916"/>
</g>
<!-- Node135 -->
<g id="node17" class="node">
<title>Node135</title>
<g id="a_node17"><a xlink:href="libcoap_8h.html#a5d1fb0b44497970b0f75fa0b38570a82" target="_top" xlink:title="coap_cleanup">
<polygon fill="#ffffff" stroke="#000000" points="2068,-53.5389 2068,-72.5389 2145,-72.5389 2145,-53.5389 2068,-53.5389"/>
<text text-anchor="middle" x="2106.5" y="-60.5389" font-family="Helvetica,sans-Serif" font-size="10.00" fill="#000000">coap_cleanup</text>
</a>
</g>
</g>
<!-- Node132&#45;&gt;Node135 -->
<g id="edge17" class="edge">
<title>Node132&#45;&gt;Node135</title>
<path fill="none" stroke="#191970" d="M2023.7397,-88.5036C2040.5405,-83.3341 2059.697,-77.4398 2075.3457,-72.6248"/>
<polygon fill="#191970" stroke="#191970" points="2022.6927,-85.1637 2014.1643,-91.4499 2024.7514,-91.8542 2022.6927,-85.1637"/>
</g>
<!-- Node133&#45;&gt;Node131 -->
<g id="edge15" class="edge">
<title>Node133&#45;&gt;Node131</title>
<path fill="none" stroke="#191970" d="M2135.0669,-39.0761C2156.2014,-49.4611 2184.4299,-63.332 2203.0209,-72.4672"/>
<polygon fill="#191970" stroke="#191970" points="2136.4344,-35.8483 2125.9158,-34.5794 2133.3472,-42.1309 2136.4344,-35.8483"/>
</g>
<!-- Node133&#45;&gt;Node134 -->
<g id="edge16" class="edge">
<title>Node133&#45;&gt;Node134</title>
<path fill="none" stroke="#191970" d="M2140.5811,-40.083C2142.1531,-41.3153 2143.6394,-42.6328 2145,-44.0389 2169.3651,-69.2194 2207.4681,-172.7172 2219.048,-205.223"/>
<polygon fill="#191970" stroke="#191970" points="2142.4815,-37.1439 2132.1927,-34.6159 2138.6593,-43.0083 2142.4815,-37.1439"/>
</g>
<!-- Node136&#45;&gt;Node132 -->
<g id="edge54" class="edge">
<title>Node136&#45;&gt;Node132</title>
<path fill="none" stroke="#191970" d="M641.6311,-311.0057C676.8786,-262.5565 782.035,-130.3752 908,-88.0389 1132.7926,-12.4871 1203.8507,-63.0389 1441,-63.0389 1441,-63.0389 1441,-63.0389 1597,-63.0389 1721.9117,-63.0389 1868.4717,-82.9911 1939.7209,-93.9804"/>
<polygon fill="#191970" stroke="#191970" points="638.6794,-309.116 635.7004,-319.2834 644.3697,-313.1929 638.6794,-309.116"/>
</g>
<!-- Node137 -->
<g id="node19" class="node">
<title>Node137</title>
<g id="a_node19"><a xlink:href="net_8h.html#ab0b0b5db03427c4313c01ec2b12cf8ed" target="_top" xlink:title="Sends a CoAP message to given peer. ">
<polygon fill="#ffffff" stroke="#000000" points="765.5,-224.5389 765.5,-243.5389 829.5,-243.5389 829.5,-224.5389 765.5,-224.5389"/>
<text text-anchor="middle" x="797.5" y="-231.5389" font-family="Helvetica,sans-Serif" font-size="10.00" fill="#000000">coap_send</text>
</a>
</g>
</g>
<!-- Node136&#45;&gt;Node137 -->
<g id="edge21" class="edge">
<title>Node136&#45;&gt;Node137</title>
<path fill="none" stroke="#191970" d="M655.1906,-314.2727C690.0768,-294.6039 750.8188,-260.3576 780.3708,-243.6963"/>
<polygon fill="#191970" stroke="#191970" points="653.076,-311.4469 646.084,-319.407 656.5138,-317.5446 653.076,-311.4469"/>
</g>
<!-- Node137&#45;&gt;Node134 -->
<g id="edge52" class="edge">
<title>Node137&#45;&gt;Node134</title>
<path fill="none" stroke="#191970" d="M815.0043,-217.604C835.516,-199.4637 871.3796,-171.105 908,-158.0389 1003.9796,-123.7934 1034.594,-139.0389 1136.5,-139.0389 1136.5,-139.0389 1136.5,-139.0389 1748,-139.0389 1914.2312,-139.0389 2109.144,-185.0784 2187.3914,-205.4904"/>
<polygon fill="#191970" stroke="#191970" points="812.5029,-215.1473 807.4386,-224.4534 817.2009,-220.3367 812.5029,-215.1473"/>
</g>
<!-- Node138 -->
<g id="node20" class="node">
<title>Node138</title>
<g id="a_node20"><a xlink:href="coap__session_8h.html#ab3f9f60c0a4857c147fef5721025944c" target="_top" xlink:title="Send a ping message for the session. ">
<polygon fill="#ffffff" stroke="#000000" points="1534,-15.5389 1534,-34.5389 1660,-34.5389 1660,-15.5389 1534,-15.5389"/>
<text text-anchor="middle" x="1597" y="-22.5389" font-family="Helvetica,sans-Serif" font-size="10.00" fill="#000000">coap_session_send_ping</text>
</a>
</g>
</g>
<!-- Node137&#45;&gt;Node138 -->
<g id="edge22" class="edge">
<title>Node137&#45;&gt;Node138</title>
<path fill="none" stroke="#191970" d="M805.5491,-215.0559C820.4324,-182.6041 855.5931,-117.1508 908,-88.0389 1115.9074,27.4533 1414.3717,1.9805 1538.9413,-15.4902"/>
<polygon fill="#191970" stroke="#191970" points="802.2845,-213.7842 801.4332,-224.3448 808.6844,-216.62 802.2845,-213.7842"/>
</g>
<!-- Node139 -->
<g id="node21" class="node">
<title>Node139</title>
<g id="a_node21"><a xlink:href="net_8h.html#aba278b109415057d15196fa46afee970" target="_top" xlink:title="Sends an ACK message with code 0 for the specified request to dst. ">
<polygon fill="#ffffff" stroke="#000000" points="932,-205.5389 932,-224.5389 1017,-224.5389 1017,-205.5389 932,-205.5389"/>
<text text-anchor="middle" x="974.5" y="-212.5389" font-family="Helvetica,sans-Serif" font-size="10.00" fill="#000000">coap_send_ack</text>
</a>
</g>
</g>
<!-- Node137&#45;&gt;Node139 -->
<g id="edge24" class="edge">
<title>Node137&#45;&gt;Node139</title>
<path fill="none" stroke="#191970" d="M839.7543,-229.5031C867.5428,-226.5202 903.7911,-222.6291 931.6912,-219.6342"/>
<polygon fill="#191970" stroke="#191970" points="839.1227,-226.0507 829.5534,-230.5981 839.8698,-233.0107 839.1227,-226.0507"/>
</g>
<!-- Node137&#45;&gt;Node141 -->
<g id="edge51" class="edge">
<title>Node137&#45;&gt;Node141</title>
<path fill="none" stroke="#191970" d="M818.0022,-249.7869C839.4044,-265.5434 874.4636,-289.4753 908,-304.0389 979.192,-334.9548 1000.0848,-337.6394 1077,-348.0389 1136.7385,-356.116 1206.7562,-355.1236 1249.7446,-353.3367"/>
<polygon fill="#191970" stroke="#191970" points="819.8147,-246.7719 809.7103,-243.5859 815.6224,-252.3778 819.8147,-246.7719"/>
</g>
<!-- Node147 -->
<g id="node29" class="node">
<title>Node147</title>
<g id="a_node29"><a xlink:href="resource_8c.html#ae1a91e254baca4f43b7896f54a8d9944" target="_top" xlink:title="coap_notify_observers">
<polygon fill="#ffffff" stroke="#000000" points="1232.5,-91.5389 1232.5,-110.5389 1347.5,-110.5389 1347.5,-91.5389 1232.5,-91.5389"/>
<text text-anchor="middle" x="1290" y="-98.5389" font-family="Helvetica,sans-Serif" font-size="10.00" fill="#000000">coap_notify_observers</text>
</a>
</g>
</g>
<!-- Node137&#45;&gt;Node147 -->
<g id="edge53" class="edge">
<title>Node137&#45;&gt;Node147</title>
<path fill="none" stroke="#191970" d="M809.2554,-216.1201C827.1199,-190.6396 863.7473,-144.8357 908,-125.0389 1014.605,-77.3483 1154.8785,-83.8276 1232.3475,-92.5762"/>
<polygon fill="#191970" stroke="#191970" points="806.2824,-214.2676 803.5433,-224.5023 812.067,-218.2096 806.2824,-214.2676"/>
</g>
<!-- Node149 -->
<g id="node31" class="node">
<title>Node149</title>
<g id="a_node31"><a xlink:href="net_8h.html#ab31cd76353f751ec4dc5c033152df575" target="_top" xlink:title="Sends an error response with code code for request request to dst. ">
<polygon fill="#ffffff" stroke="#000000" points="930,-167.5389 930,-186.5389 1019,-186.5389 1019,-167.5389 930,-167.5389"/>
<text text-anchor="middle" x="974.5" y="-174.5389" font-family="Helvetica,sans-Serif" font-size="10.00" fill="#000000">coap_send_error</text>
</a>
</g>
</g>
<!-- Node137&#45;&gt;Node149 -->
<g id="edge41" class="edge">
<title>Node137&#45;&gt;Node149</title>
<path fill="none" stroke="#191970" d="M833.8567,-220.9939C855.3331,-213.4241 883.1079,-203.869 908,-196.0389 918.3084,-192.7963 929.5879,-189.4853 939.8816,-186.5548"/>
<polygon fill="#191970" stroke="#191970" points="832.4216,-217.7891 824.1635,-224.4263 834.7582,-224.3876 832.4216,-217.7891"/>
</g>
<!-- Node150 -->
<g id="node32" class="node">
<title>Node150</title>
<g id="a_node32"><a xlink:href="net_8h.html#a6aa830b46188549b51773f724eb8e752" target="_top" xlink:title="Helper funktion to create and send a message with type (usually ACK or RST). ">
<polygon fill="#ffffff" stroke="#000000" points="908,-243.5389 908,-262.5389 1041,-262.5389 1041,-243.5389 908,-243.5389"/>
<text text-anchor="middle" x="974.5" y="-250.5389" font-family="Helvetica,sans-Serif" font-size="10.00" fill="#000000">coap_send_message_type</text>
</a>
</g>
</g>
<!-- Node137&#45;&gt;Node150 -->
<g id="edge43" class="edge">
<title>Node137&#45;&gt;Node150</title>
<path fill="none" stroke="#191970" d="M839.753,-238.5745C860.1166,-240.7605 885.0233,-243.4341 907.8588,-245.8853"/>
<polygon fill="#191970" stroke="#191970" points="839.8698,-235.067 829.5534,-237.4796 839.1227,-242.0271 839.8698,-235.067"/>
</g>
<!-- Node151 -->
<g id="node33" class="node">
<title>Node151</title>
<g id="a_node33"><a xlink:href="net_8c.html#a1a280312c4bad55cf10243b9b9c3e966" target="_top" xlink:title="handle_request">
<polygon fill="#ffffff" stroke="#000000" points="1095,-319.5389 1095,-338.5389 1178,-338.5389 1178,-319.5389 1095,-319.5389"/>
<text text-anchor="middle" x="1136.5" y="-326.5389" font-family="Helvetica,sans-Serif" font-size="10.00" fill="#000000">handle_request</text>
</a>
</g>
</g>
<!-- Node137&#45;&gt;Node151 -->
<g id="edge47" class="edge">
<title>Node137&#45;&gt;Node151</title>
<path fill="none" stroke="#191970" d="M832.6087,-246.9846C854.2036,-254.7289 882.5284,-264.4976 908,-272.0389 972.6861,-291.1902 1048.9113,-309.3332 1094.9291,-319.8119"/>
<polygon fill="#191970" stroke="#191970" points="833.7891,-243.6896 823.1948,-243.5841 831.4109,-250.2733 833.7891,-243.6896"/>
</g>
<!-- Node152 -->
<g id="node34" class="node">
<title>Node152</title>
<g id="a_node34"><a xlink:href="net_8c.html#ac4cbcfd073489b57805db665ce3d0681" target="_top" xlink:title="handle_signaling">
<polygon fill="#ffffff" stroke="#000000" points="1092,-395.5389 1092,-414.5389 1181,-414.5389 1181,-395.5389 1092,-395.5389"/>
<text text-anchor="middle" x="1136.5" y="-402.5389" font-family="Helvetica,sans-Serif" font-size="10.00" fill="#000000">handle_signaling</text>
</a>
</g>
</g>
<!-- Node137&#45;&gt;Node152 -->
<g id="edge49" class="edge">
<title>Node137&#45;&gt;Node152</title>
<path fill="none" stroke="#191970" d="M805.5529,-253.0755C820.442,-285.6326 855.6113,-351.3603 908,-381.0389 965.0916,-413.3817 1043.1607,-414.0687 1091.6745,-410.428"/>
<polygon fill="#191970" stroke="#191970" points="808.6789,-251.4901 801.4353,-243.7583 802.2762,-254.3197 808.6789,-251.4901"/>
</g>
<!-- Node138&#45;&gt;Node133 -->
<g id="edge23" class="edge">
<title>Node138&#45;&gt;Node133</title>
<path fill="none" stroke="#191970" d="M1670.5026,-25.0389C1783.2003,-25.0389 1994.0615,-25.0389 2074.3439,-25.0389"/>
<polygon fill="#191970" stroke="#191970" points="1670.2419,-21.539 1660.2418,-25.0389 1670.2418,-28.539 1670.2419,-21.539"/>
</g>
<!-- Node140 -->
<g id="node22" class="node">
<title>Node140</title>
<g id="a_node22"><a xlink:href="net_8c.html#af838d89087ad96495f8ed7f1a9297168" target="_top" xlink:title="handle_response">
<polygon fill="#ffffff" stroke="#000000" points="1091.5,-243.5389 1091.5,-262.5389 1181.5,-262.5389 1181.5,-243.5389 1091.5,-243.5389"/>
<text text-anchor="middle" x="1136.5" y="-250.5389" font-family="Helvetica,sans-Serif" font-size="10.00" fill="#000000">handle_response</text>
</a>
</g>
</g>
<!-- Node139&#45;&gt;Node140 -->
<g id="edge25" class="edge">
<title>Node139&#45;&gt;Node140</title>
<path fill="none" stroke="#191970" d="M1025.2148,-226.935C1047.9856,-232.2763 1074.4867,-238.4926 1095.9145,-243.5188"/>
<polygon fill="#191970" stroke="#191970" points="1025.9145,-223.5042 1015.3794,-224.6279 1024.3159,-230.3192 1025.9145,-223.5042"/>
</g>
<!-- Node146 -->
<g id="node28" class="node">
<title>Node146</title>
<g id="a_node28"><a xlink:href="net_8h.html#ade36148140b152d713b23d17bbcf0024" target="_top" xlink:title="Returns a new message id and updates session&#45;&gt;tx_mid accordingly. ">
<polygon fill="#ffffff" stroke="#000000" points="1077,-167.5389 1077,-186.5389 1196,-186.5389 1196,-167.5389 1077,-167.5389"/>
<text text-anchor="middle" x="1136.5" y="-174.5389" font-family="Helvetica,sans-Serif" font-size="10.00" fill="#000000">coap_new_message_id</text>
</a>
</g>
</g>
<!-- Node139&#45;&gt;Node146 -->
<g id="edge36" class="edge">
<title>Node139&#45;&gt;Node146</title>
<path fill="none" stroke="#191970" d="M1025.2148,-203.1428C1047.9856,-197.8015 1074.4867,-191.5852 1095.9145,-186.5589"/>
<polygon fill="#191970" stroke="#191970" points="1024.3159,-199.7586 1015.3794,-205.4499 1025.9145,-206.5736 1024.3159,-199.7586"/>
</g>
<!-- Node140&#45;&gt;Node141 -->
<g id="edge26" class="edge">
<title>Node140&#45;&gt;Node141</title>
<path fill="none" stroke="#191970" d="M1174.5799,-266.5216C1181.8686,-269.6215 1189.3079,-273.1613 1196,-277.0389 1229.0663,-296.1984 1263.1603,-326.0446 1279.7226,-341.3176"/>
<polygon fill="#191970" stroke="#191970" points="1175.4012,-263.0785 1164.8183,-262.5766 1172.7783,-269.5686 1175.4012,-263.0785"/>
</g>
<!-- Node141&#45;&gt;Node134 -->
<g id="edge35" class="edge">
<title>Node141&#45;&gt;Node134</title>
<path fill="none" stroke="#191970" d="M1315.8792,-336.7471C1367.6254,-309.5509 1488.2362,-253.0389 1597,-253.0389 1597,-253.0389 1597,-253.0389 1983,-253.0389 2055.412,-253.0389 2138.6345,-235.8851 2185.453,-224.6279"/>
<polygon fill="#191970" stroke="#191970" points="1314.2127,-333.6691 1307.0368,-341.4638 1317.5073,-339.8454 1314.2127,-333.6691"/>
</g>
<!-- Node142 -->
<g id="node24" class="node">
<title>Node142</title>
<g id="a_node24"><a xlink:href="net_8c.html#acd36f6fba6d30ab9557e0e6521f4a088" target="_top" xlink:title="coap_read_session">
<polygon fill="#ffffff" stroke="#000000" points="1697.5,-360.5389 1697.5,-379.5389 1798.5,-379.5389 1798.5,-360.5389 1697.5,-360.5389"/>
<text text-anchor="middle" x="1748" y="-367.5389" font-family="Helvetica,sans-Serif" font-size="10.00" fill="#000000">coap_read_session</text>
</a>
</g>
</g>
<!-- Node141&#45;&gt;Node142 -->
<g id="edge27" class="edge">
<title>Node141&#45;&gt;Node142</title>
<path fill="none" stroke="#191970" d="M1340.243,-353.1232C1428.2079,-356.7724 1609.1285,-364.2778 1697.3672,-367.9384"/>
<polygon fill="#191970" stroke="#191970" points="1340.3796,-349.626 1330.243,-352.7084 1340.0893,-356.6199 1340.3796,-349.626"/>
</g>
<!-- Node143 -->
<g id="node25" class="node">
<title>Node143</title>
<g id="a_node25"><a xlink:href="net_8h.html#ae6b8ca457dd41f23372f9e9a7159312b" target="_top" xlink:title="Parses and interprets a CoAP datagram with context ctx. ">
<polygon fill="#ffffff" stroke="#000000" points="1389,-325.5389 1389,-344.5389 1493,-344.5389 1493,-325.5389 1389,-325.5389"/>
<text text-anchor="middle" x="1441" y="-332.5389" font-family="Helvetica,sans-Serif" font-size="10.00" fill="#000000">coap_handle_dgram</text>
</a>
</g>
</g>
<!-- Node141&#45;&gt;Node143 -->
<g id="edge29" class="edge">
<title>Node141&#45;&gt;Node143</title>
<path fill="none" stroke="#191970" d="M1340.0746,-345.733C1355.7121,-344.076 1372.9972,-342.2445 1388.7783,-340.5723"/>
<polygon fill="#191970" stroke="#191970" points="1339.6443,-342.2589 1330.0688,-346.7932 1340.3819,-349.2199 1339.6443,-342.2589"/>
</g>
<!-- Node142&#45;&gt;Node130 -->
<g id="edge28" class="edge">
<title>Node142&#45;&gt;Node130</title>
<path fill="none" stroke="#191970" d="M1787.7098,-357.3585C1803.7886,-352.2241 1822.0433,-346.3948 1836.9809,-341.6248"/>
<polygon fill="#191970" stroke="#191970" points="1786.4901,-354.0737 1778.0287,-360.4499 1788.6195,-360.742 1786.4901,-354.0737"/>
</g>
<!-- Node143&#45;&gt;Node134 -->
<g id="edge34" class="edge">
<title>Node143&#45;&gt;Node134</title>
<path fill="none" stroke="#191970" d="M1481.0182,-322.6438C1497.3104,-318.0283 1516.414,-313.1588 1534,-310.0389 1628.0172,-293.3595 1652.5148,-291.0389 1748,-291.0389 1748,-291.0389 1748,-291.0389 1983,-291.0389 2055.7858,-291.0389 2077.1142,-293.2933 2145,-267.0389 2170.9928,-256.9863 2197.0425,-236.9683 2211.3391,-224.9137"/>
<polygon fill="#191970" stroke="#191970" points="1479.9067,-319.3219 1471.276,-325.467 1481.8551,-326.0453 1479.9067,-319.3219"/>
</g>
<!-- Node144 -->
<g id="node26" class="node">
<title>Node144</title>
<g id="a_node26"><a xlink:href="net_8c.html#a8534f7860b14e0743529daff196a27ce" target="_top" xlink:title="coap_handle_dgram_for\l_proto">
<polygon fill="#ffffff" stroke="#000000" points="1537,-320.0389 1537,-350.0389 1657,-350.0389 1657,-320.0389 1537,-320.0389"/>
<text text-anchor="start" x="1545" y="-338.0389" font-family="Helvetica,sans-Serif" font-size="10.00" fill="#000000">coap_handle_dgram_for</text>
<text text-anchor="middle" x="1597" y="-327.0389" font-family="Helvetica,sans-Serif" font-size="10.00" fill="#000000">_proto</text>
</a>
</g>
</g>
<!-- Node143&#45;&gt;Node144 -->
<g id="edge30" class="edge">
<title>Node143&#45;&gt;Node144</title>
<path fill="none" stroke="#191970" d="M1503.3899,-335.0389C1514.453,-335.0389 1525.9529,-335.0389 1536.9496,-335.0389"/>
<polygon fill="#191970" stroke="#191970" points="1503.3797,-331.539 1493.3797,-335.0389 1503.3797,-338.539 1503.3797,-331.539"/>
</g>
<!-- Node144&#45;&gt;Node142 -->
<g id="edge31" class="edge">
<title>Node144&#45;&gt;Node142</title>
<path fill="none" stroke="#191970" d="M1666.9409,-351.2504C1680.5312,-354.4004 1694.363,-357.6065 1706.6622,-360.4573"/>
<polygon fill="#191970" stroke="#191970" points="1667.6451,-347.8209 1657.1131,-348.9724 1666.0645,-354.6401 1667.6451,-347.8209"/>
</g>
<!-- Node145 -->
<g id="node27" class="node">
<title>Node145</title>
<g id="a_node27"><a xlink:href="net_8c.html#a44ffb4b70e537043e9a9cf344be24b92" target="_top" xlink:title="coap_read_endpoint">
<polygon fill="#ffffff" stroke="#000000" points="1696,-322.5389 1696,-341.5389 1800,-341.5389 1800,-322.5389 1696,-322.5389"/>
<text text-anchor="middle" x="1748" y="-329.5389" font-family="Helvetica,sans-Serif" font-size="10.00" fill="#000000">coap_read_endpoint</text>
</a>
</g>
</g>
<!-- Node144&#45;&gt;Node145 -->
<g id="edge32" class="edge">
<title>Node144&#45;&gt;Node145</title>
<path fill="none" stroke="#191970" d="M1667.1329,-333.6455C1676.8148,-333.4532 1686.615,-333.2585 1695.8923,-333.0741"/>
<polygon fill="#191970" stroke="#191970" points="1667.0415,-330.1465 1657.1131,-333.8446 1667.1807,-337.1452 1667.0415,-330.1465"/>
</g>
<!-- Node145&#45;&gt;Node130 -->
<g id="edge33" class="edge">
<title>Node145&#45;&gt;Node130</title>
<path fill="none" stroke="#191970" d="M1810.469,-332.0389C1819.226,-332.0389 1827.897,-332.0389 1835.7208,-332.0389"/>
<polygon fill="#191970" stroke="#191970" points="1810.1952,-328.539 1800.1951,-332.0389 1810.1951,-335.539 1810.1952,-328.539"/>
</g>
<!-- Node146&#45;&gt;Node147 -->
<g id="edge37" class="edge">
<title>Node146&#45;&gt;Node147</title>
<path fill="none" stroke="#191970" d="M1165.2943,-162.7824C1196.1175,-147.5214 1244.1588,-123.7355 1270.717,-110.5862"/>
<polygon fill="#191970" stroke="#191970" points="1163.3496,-159.8397 1155.9409,-167.4134 1166.4556,-166.1129 1163.3496,-159.8397"/>
</g>
<!-- Node148 -->
<g id="node30" class="node">
<title>Node148</title>
<g id="a_node30"><a xlink:href="resource_8h.html#a579bcb559463d3a872831c18d8d9a1c1" target="_top" xlink:title="Checks for all known resources, if they are dirty and notifies subscribed observers. ">
<polygon fill="#ffffff" stroke="#000000" points="1934,-53.5389 1934,-72.5389 2032,-72.5389 2032,-53.5389 1934,-53.5389"/>
<text text-anchor="middle" x="1983" y="-60.5389" font-family="Helvetica,sans-Serif" font-size="10.00" fill="#000000">coap_check_notify</text>
</a>
</g>
</g>
<!-- Node147&#45;&gt;Node148 -->
<g id="edge38" class="edge">
<title>Node147&#45;&gt;Node148</title>
<path fill="none" stroke="#191970" d="M1357.704,-97.3264C1496.8186,-89.6982 1811.9533,-72.4181 1933.7061,-65.7419"/>
<polygon fill="#191970" stroke="#191970" points="1357.3898,-93.8383 1347.5964,-97.8806 1357.7731,-100.8278 1357.3898,-93.8383"/>
</g>
<!-- Node148&#45;&gt;Node133 -->
<g id="edge39" class="edge">
<title>Node148&#45;&gt;Node133</title>
<path fill="none" stroke="#191970" d="M2023.7397,-50.5036C2040.5405,-45.3341 2059.697,-39.4398 2075.3457,-34.6248"/>
<polygon fill="#191970" stroke="#191970" points="2022.6927,-47.1637 2014.1643,-53.4499 2024.7514,-53.8542 2022.6927,-47.1637"/>
</g>
<!-- Node148&#45;&gt;Node135 -->
<g id="edge40" class="edge">
<title>Node148&#45;&gt;Node135</title>
<path fill="none" stroke="#191970" d="M2042.2663,-63.0389C2050.9313,-63.0389 2059.6616,-63.0389 2067.7733,-63.0389"/>
<polygon fill="#191970" stroke="#191970" points="2042.1654,-59.539 2032.1653,-63.0389 2042.1653,-66.539 2042.1654,-59.539"/>
</g>
<!-- Node149&#45;&gt;Node146 -->
<g id="edge42" class="edge">
<title>Node149&#45;&gt;Node146</title>
<path fill="none" stroke="#191970" d="M1029.4856,-177.0389C1044.709,-177.0389 1061.304,-177.0389 1076.7829,-177.0389"/>
<polygon fill="#191970" stroke="#191970" points="1029.1961,-173.539 1019.196,-177.0389 1029.196,-180.539 1029.1961,-173.539"/>
</g>
<!-- Node150&#45;&gt;Node134 -->
<g id="edge46" class="edge">
<title>Node150&#45;&gt;Node134</title>
<path fill="none" stroke="#191970" d="M1030.9047,-241.5964C1045.8454,-238.8363 1061.9941,-236.0943 1077,-234.0389 1171.1633,-221.1411 1194.9574,-215.0389 1290,-215.0389 1290,-215.0389 1290,-215.0389 1983,-215.0389 2053.0621,-215.0389 2134.6529,-215.0389 2182.2429,-215.0389"/>
<polygon fill="#191970" stroke="#191970" points="1029.9628,-238.2121 1020.783,-243.5019 1031.2579,-245.0913 1029.9628,-238.2121"/>
</g>
<!-- Node150&#45;&gt;Node141 -->
<g id="edge44" class="edge">
<title>Node150&#45;&gt;Node141</title>
<path fill="none" stroke="#191970" d="M1028.2627,-264.9589C1032.5775,-265.9786 1036.8647,-267.0127 1041,-268.0389 1110.2722,-285.2285 1128.6641,-286.3746 1196,-310.0389 1222.2035,-319.2478 1251.3773,-332.4582 1270.1709,-341.3737"/>
<polygon fill="#191970" stroke="#191970" points="1028.7368,-261.4758 1018.2036,-262.6167 1027.1493,-268.2934 1028.7368,-261.4758"/>
</g>
<!-- Node150&#45;&gt;Node146 -->
<g id="edge45" class="edge">
<title>Node150&#45;&gt;Node146</title>
<path fill="none" stroke="#191970" d="M1028.5227,-239.9584C1032.8479,-238.2078 1037.0624,-236.2421 1041,-234.0389 1059.9417,-223.4406 1058.6411,-212.6175 1077,-201.0389 1086.1387,-195.2753 1096.8944,-190.4337 1106.7296,-186.643"/>
<polygon fill="#191970" stroke="#191970" points="1027.1352,-236.7389 1018.9415,-243.4556 1029.5354,-243.3146 1027.1352,-236.7389"/>
</g>
<!-- Node151&#45;&gt;Node141 -->
<g id="edge48" class="edge">
<title>Node151&#45;&gt;Node141</title>
<path fill="none" stroke="#191970" d="M1187.9881,-336.4183C1208.1192,-339.3035 1230.86,-342.5628 1249.7535,-345.2707"/>
<polygon fill="#191970" stroke="#191970" points="1188.4347,-332.9466 1178.0393,-334.9924 1187.4416,-339.8758 1188.4347,-332.9466"/>
</g>
<!-- Node152&#45;&gt;Node141 -->
<g id="edge50" class="edge">
<title>Node152&#45;&gt;Node141</title>
<path fill="none" stroke="#191970" d="M1173.2809,-392.0997C1200.8696,-382.3942 1238.0153,-369.3267 1262.9237,-360.5641"/>
<polygon fill="#191970" stroke="#191970" points="1171.8612,-388.8888 1163.5894,-395.5091 1174.1842,-395.4921 1171.8612,-388.8888"/>
</g>
<!-- Node153&#45;&gt;Node130 -->
<g id="edge56" class="edge">
<title>Node153&#45;&gt;Node130</title>
<path fill="none" stroke="#191970" d="M1358.1966,-547.1621C1462.6631,-547.0808 1664.4242,-533.4208 1800,-439.0389 1835.9762,-413.9939 1856.6331,-362.7741 1863.949,-341.5639"/>
<polygon fill="#191970" stroke="#191970" points="1358.1022,-543.6618 1348.0902,-547.1275 1358.0781,-550.6618 1358.1022,-543.6618"/>
</g>
<!-- Node154&#45;&gt;Node132 -->
<g id="edge58" class="edge">
<title>Node154&#45;&gt;Node132</title>
<path fill="none" stroke="#191970" d="M1048.1917,-448.677C1057.876,-449.2403 1067.6726,-449.7208 1077,-450.0389 1129.8582,-451.8417 1143.1781,-452.6995 1196,-450.0389 1330.7342,-443.2525 1689.7772,-466.8225 1800,-389.0389 1830.5374,-367.4888 1817.2886,-345.3935 1836,-313.0389 1883.3109,-231.2317 1952.4952,-140.2592 1975.356,-110.8044"/>
<polygon fill="#191970" stroke="#191970" points="1048.3599,-445.1809 1038.1647,-448.0635 1047.9323,-452.1678 1048.3599,-445.1809"/>
</g>
<!-- Node154&#45;&gt;Node141 -->
<g id="edge60" class="edge">
<title>Node154&#45;&gt;Node141</title>
<path fill="none" stroke="#191970" d="M1048.3434,-447.0482C1092.5844,-446.9587 1149.1495,-442.369 1196,-424.0389 1232.1755,-409.8853 1265.9131,-377.1504 1281.2837,-360.7586"/>
<polygon fill="#191970" stroke="#191970" points="1048.2592,-443.5478 1038.2397,-446.9916 1048.2199,-450.5477 1048.2592,-443.5478"/>
</g>
<!-- Node154&#45;&gt;Node152 -->
<g id="edge59" class="edge">
<title>Node154&#45;&gt;Node152</title>
<path fill="none" stroke="#191970" d="M1025.2148,-431.1428C1047.9856,-425.8015 1074.4867,-419.5852 1095.9145,-414.5589"/>
<polygon fill="#191970" stroke="#191970" points="1024.3159,-427.7586 1015.3794,-433.4499 1025.9145,-434.5736 1024.3159,-427.7586"/>
</g>
</g>
</svg>
        <g id="navigator" transform="translate(0 0)" fill="#404254">
                <rect fill="#f2f5e9" fill-opacity="0.5" stroke="#606060" stroke-width=".5" x="0" y="0" width="60" height="60"/>
                <use id="zoomplus" xlink:href="#zoomPlus" x="17" y="9" onmousedown="handleZoom(evt,'in')"/>
                <use id="zoomminus" xlink:href="#zoomMin" x="42" y="9" onmousedown="handleZoom(evt,'out')"/>
                <use id="reset" xlink:href="#resetDef" x="30" y="36" onmousedown="handleReset()"/>
                <g id="arrowUp" xlink:href="#dirArrow" transform="translate(30 24)" onmousedown="handlePan(0,-1)">
                  <use xlink:href="#rim" fill="#404040">
                        <set attributeName="fill" to="#808080" begin="arrowUp.mouseover" end="arrowUp.mouseout"/>
                  </use>
                  <path fill="none" stroke="white" stroke-width="1.5" d="M0,-3.0v7 M-2.5,-0.5L0,-3.0L2.5,-0.5"/>
                </g>
                <g id="arrowRight" xlink:href="#dirArrow" transform="rotate(90) translate(36 -43)" onmousedown="handlePan(1,0)">
                  <use xlink:href="#rim" fill="#404040">
                        <set attributeName="fill" to="#808080" begin="arrowRight.mouseover" end="arrowRight.mouseout"/>
                  </use>
                  <path fill="none" stroke="white" stroke-width="1.5" d="M0,-3.0v7 M-2.5,-0.5L0,-3.0L2.5,-0.5"/>
                </g>
                <g id="arrowDown" xlink:href="#dirArrow" transform="rotate(180) translate(-30 -48)" onmousedown="handlePan(0,1)">
                  <use xlink:href="#rim" fill="#404040">
                        <set attributeName="fill" to="#808080" begin="arrowDown.mouseover" end="arrowDown.mouseout"/>
                  </use>
                  <path fill="none" stroke="white" stroke-width="1.5" d="M0,-3.0v7 M-2.5,-0.5L0,-3.0L2.5,-0.5"/>
                </g>
                <g id="arrowLeft" xlink:href="#dirArrow" transform="rotate(270) translate(-36 17)" onmousedown="handlePan(-1,0)">
                  <use xlink:href="#rim" fill="#404040">
                        <set attributeName="fill" to="#808080" begin="arrowLeft.mouseover" end="arrowLeft.mouseout"/>
                  </use>
                  <path fill="none" stroke="white" stroke-width="1.5" d="M0,-3.0v7 M-2.5,-0.5L0,-3.0L2.5,-0.5"/>
                </g>
        </g>
        <svg viewBox="0 0 15 15" width="100%" height="30px" preserveAspectRatio="xMaxYMin meet">
         <g id="arrow_out" transform="scale(0.3 0.3)">
          <a xlink:href="debug_8c_ac2f5151c2de3e051e6ee918a06b28895_icgraph_org.svg" target="_base">
           <rect id="button" ry="5" rx="5" y="6" x="6" height="38" width="38"
                fill="#f2f5e9" fill-opacity="0.5" stroke="#606060" stroke-width="1.0"/>
           <path id="arrow"
             d="M 11.500037,31.436501 C 11.940474,20.09759 22.043105,11.32322 32.158766,21.979434 L 37.068811,17.246167 C 37.068811,17.246167 37.088388,32 37.088388,32 L 22.160133,31.978069 C 22.160133,31.978069 26.997745,27.140456 26.997745,27.140456 C 18.528582,18.264221 13.291696,25.230495 11.500037,31.436501 z"
             style="fill:#404040;"/>
          </a>
         </g>
        </svg>
</svg>
