<?xml version="1.0" encoding="UTF-8" standalone="no"?>
<!DOCTYPE svg PUBLIC "-//W3C//DTD SVG 1.1//EN"
 "http://www.w3.org/Graphics/SVG/1.1/DTD/svg11.dtd">
<!-- Generated by graphviz version 2.40.1 (20161225.0304)
 -->
<!-- Title: coap_option_filter_set Pages: 1 -->
<svg width="474pt" height="66pt"
 viewBox="0.00 0.00 474.00 66.00" xmlns="http://www.w3.org/2000/svg" xmlns:xlink="http://www.w3.org/1999/xlink">
<g id="graph0" class="graph" transform="scale(1 1) rotate(0) translate(4 62)">
<title>coap_option_filter_set</title>
<polygon fill="#ffffff" stroke="transparent" points="-4,4 -4,-62 470,-62 470,4 -4,4"/>
<!-- Node373 -->
<g id="node1" class="node">
<title>Node373</title>
<polygon fill="#bfbfbf" stroke="#000000" points="0,-19.5 0,-38.5 112,-38.5 112,-19.5 0,-19.5"/>
<text text-anchor="middle" x="56" y="-26.5" font-family="Helvetica,sans-Serif" font-size="10.00" fill="#000000">coap_option_filter_set</text>
</g>
<!-- Node374 -->
<g id="node2" class="node">
<title>Node374</title>
<g id="a_node2"><a xlink:href="option_8c.html#a4225eb8945afcd42e9d4c50bd7c85ff1" target="_top" xlink:title="Applies op on filter with respect to type. ">
<polygon fill="#ffffff" stroke="#000000" points="148,-19.5 148,-38.5 257,-38.5 257,-19.5 148,-19.5"/>
<text text-anchor="middle" x="202.5" y="-26.5" font-family="Helvetica,sans-Serif" font-size="10.00" fill="#000000">coap_option_filter_op</text>
</a>
</g>
</g>
<!-- Node373&#45;&gt;Node374 -->
<g id="edge1" class="edge">
<title>Node373&#45;&gt;Node374</title>
<path fill="none" stroke="#191970" d="M112.2217,-29C120.4825,-29 129.0491,-29 137.469,-29"/>
<polygon fill="#191970" stroke="#191970" points="137.6363,-32.5001 147.6363,-29 137.6362,-25.5001 137.6363,-32.5001"/>
</g>
<!-- Node375 -->
<g id="node3" class="node">
<title>Node375</title>
<g id="a_node3"><a xlink:href="option_8c.html#a2be7abc95dd3dfc1f1f3f4268ce41101" target="_top" xlink:title="Returns true iff type denotes an option type larger than 255. ">
<polygon fill="#ffffff" stroke="#000000" points="293,-38.5 293,-57.5 372,-57.5 372,-38.5 293,-38.5"/>
<text text-anchor="middle" x="332.5" y="-45.5" font-family="Helvetica,sans-Serif" font-size="10.00" fill="#000000">is_long_option</text>
</a>
</g>
</g>
<!-- Node374&#45;&gt;Node375 -->
<g id="edge2" class="edge">
<title>Node374&#45;&gt;Node375</title>
<path fill="none" stroke="#191970" d="M257.2549,-37.0026C265.7401,-38.2428 274.4642,-39.5179 282.8292,-40.7404"/>
<polygon fill="#191970" stroke="#191970" points="282.4132,-44.2167 292.8142,-42.1998 283.4255,-37.2903 282.4132,-44.2167"/>
</g>
<!-- Node376 -->
<g id="node4" class="node">
<title>Node376</title>
<g id="a_node4"><a xlink:href="encode_8c.html#a671b4261b2d24de8696258a8efb0f359" target="_top" xlink:title="coap_fls">
<polygon fill="#ffffff" stroke="#000000" points="306,-.5 306,-19.5 359,-19.5 359,-.5 306,-.5"/>
<text text-anchor="middle" x="332.5" y="-7.5" font-family="Helvetica,sans-Serif" font-size="10.00" fill="#000000">coap_fls</text>
</a>
</g>
</g>
<!-- Node374&#45;&gt;Node376 -->
<g id="edge3" class="edge">
<title>Node374&#45;&gt;Node376</title>
<path fill="none" stroke="#191970" d="M257.2549,-20.9974C270.2429,-19.0991 283.7907,-17.119 295.7533,-15.3707"/>
<polygon fill="#191970" stroke="#191970" points="296.4152,-18.8112 305.8039,-13.9017 295.4029,-11.8848 296.4152,-18.8112"/>
</g>
<!-- Node377 -->
<g id="node5" class="node">
<title>Node377</title>
<g id="a_node5"><a xlink:href="encode_8c.html#a5732d87decbffe771159ea02a5e25488" target="_top" xlink:title="coap_flsll">
<polygon fill="#ffffff" stroke="#000000" points="408,-.5 408,-19.5 466,-19.5 466,-.5 408,-.5"/>
<text text-anchor="middle" x="437" y="-7.5" font-family="Helvetica,sans-Serif" font-size="10.00" fill="#000000">coap_flsll</text>
</a>
</g>
</g>
<!-- Node376&#45;&gt;Node377 -->
<g id="edge4" class="edge">
<title>Node376&#45;&gt;Node377</title>
<path fill="none" stroke="#191970" d="M359.1401,-10C370.878,-10 384.9067,-10 397.8021,-10"/>
<polygon fill="#191970" stroke="#191970" points="397.8356,-13.5001 407.8356,-10 397.8355,-6.5001 397.8356,-13.5001"/>
</g>
</g>
</svg>
