<?xml version="1.0" encoding="UTF-8" standalone="no"?>
<!DOCTYPE svg PUBLIC "-//W3C//DTD SVG 1.1//EN"
 "http://www.w3.org/Graphics/SVG/1.1/DTD/svg11.dtd">
<!-- Generated by graphviz version 2.40.1 (20161225.0304)
 -->
<!-- Title: coap_split_uri Pages: 1 -->
<svg width="340pt" height="53pt"
 viewBox="0.00 0.00 340.00 52.50" xmlns="http://www.w3.org/2000/svg" xmlns:xlink="http://www.w3.org/1999/xlink">
<g id="graph0" class="graph" transform="scale(1 1) rotate(0) translate(4 48.5)">
<title>coap_split_uri</title>
<polygon fill="#ffffff" stroke="transparent" points="-4,4 -4,-48.5 336,-48.5 336,4 -4,4"/>
<!-- Node87 -->
<g id="node1" class="node">
<title>Node87</title>
<polygon fill="#bfbfbf" stroke="#000000" points="0,-6 0,-25 77,-25 77,-6 0,-6"/>
<text text-anchor="middle" x="38.5" y="-13" font-family="Helvetica,sans-Serif" font-size="10.00" fill="#000000">coap_split_uri</text>
</g>
<!-- Node88 -->
<g id="node2" class="node">
<title>Node88</title>
<g id="a_node2"><a xlink:href="uri_8h.html#a1e40ce0d97cef97ec366f4b339c15245" target="_top" xlink:title="Creates a new coap_uri_t object from the specified URI. ">
<polygon fill="#ffffff" stroke="#000000" points="113,-25 113,-44 190,-44 190,-25 113,-25"/>
<text text-anchor="middle" x="151.5" y="-32" font-family="Helvetica,sans-Serif" font-size="10.00" fill="#000000">coap_new_uri</text>
</a>
</g>
</g>
<!-- Node87&#45;&gt;Node88 -->
<g id="edge1" class="edge">
<title>Node87&#45;&gt;Node88</title>
<path fill="none" stroke="#191970" d="M86.9962,-23.6542C95.5904,-25.0993 104.4367,-26.5867 112.718,-27.9791"/>
<polygon fill="#191970" stroke="#191970" points="87.5141,-20.1923 77.0721,-21.9856 86.3533,-27.0954 87.5141,-20.1923"/>
</g>
<!-- Node89 -->
<g id="node3" class="node">
<title>Node89</title>
<g id="a_node3"><a xlink:href="uri_8h.html#a04d042f5a81b4a13bf1cc7d94920ed87" target="_top" xlink:title="coap_uri_scheme_is\l_secure">
<polygon fill="#ffffff" stroke="#000000" points="226,-.5 226,-30.5 332,-30.5 332,-.5 226,-.5"/>
<text text-anchor="start" x="234" y="-18.5" font-family="Helvetica,sans-Serif" font-size="10.00" fill="#000000">coap_uri_scheme_is</text>
<text text-anchor="middle" x="279" y="-7.5" font-family="Helvetica,sans-Serif" font-size="10.00" fill="#000000">_secure</text>
</a>
</g>
</g>
<!-- Node87&#45;&gt;Node89 -->
<g id="edge3" class="edge">
<title>Node87&#45;&gt;Node89</title>
<path fill="none" stroke="#191970" d="M87.2284,-15.5C127.395,-15.5 184.2847,-15.5 225.6649,-15.5"/>
<polygon fill="#191970" stroke="#191970" points="87.1405,-12.0001 77.1405,-15.5 87.1405,-19.0001 87.1405,-12.0001"/>
</g>
<!-- Node88&#45;&gt;Node89 -->
<g id="edge2" class="edge">
<title>Node88&#45;&gt;Node89</title>
<path fill="none" stroke="#191970" d="M200.1595,-27.2488C208.5935,-25.9919 217.4014,-24.6794 225.9454,-23.4062"/>
<polygon fill="#191970" stroke="#191970" points="199.4751,-23.812 190.1002,-28.7478 200.5069,-30.7356 199.4751,-23.812"/>
</g>
</g>
</svg>
