<?xml version="1.0" encoding="UTF-8" standalone="no"?>
<!DOCTYPE svg PUBLIC "-//W3C//DTD SVG 1.1//EN"
 "http://www.w3.org/Graphics/SVG/1.1/DTD/svg11.dtd">
<!-- Generated by graphviz version 2.40.1 (20161225.0304)
 -->
<!-- Title: coap_option_filter_clear Pages: 1 -->
<!--zoomable 116 -->
<svg id="main" version="1.1" xmlns="http://www.w3.org/2000/svg" xmlns:xlink="http://www.w3.org/1999/xlink" xml:space="preserve" onload="init(evt)">
<style type="text/css"><![CDATA[
.edge:hover path { stroke: red; }
.edge:hover polygon { stroke: red; fill: red; }
]]></style>
<script type="text/javascript"><![CDATA[
var edges = document.getElementsByTagName('g');
if (edges && edges.length) {
  for (var i=0;i<edges.length;i++) {
    if (edges[i].id.substr(0,4)=='edge') {
      edges[i].setAttribute('class','edge');
    }
  }
}
]]></script>
        <defs>
                <circle id="rim" cx="0" cy="0" r="7"/>
                <circle id="rim2" cx="0" cy="0" r="3.5"/>
                <g id="zoomPlus">
                        <use xlink:href="#rim" fill="#404040">
                                <set attributeName="fill" to="#808080" begin="zoomplus.mouseover" end="zoomplus.mouseout"/>
                        </use>
                        <path d="M-4,0h8M0,-4v8" fill="none" stroke="white" stroke-width="1.5" pointer-events="none"/>
                </g>
                <g id="zoomMin">
                        <use xlink:href="#rim" fill="#404040">
                                <set attributeName="fill" to="#808080" begin="zoomminus.mouseover" end="zoomminus.mouseout"/>
                        </use>
                        <path d="M-4,0h8" fill="none" stroke="white" stroke-width="1.5" pointer-events="none"/>
                </g>
                <g id="dirArrow">
                        <path fill="none" stroke="white" stroke-width="1.5" d="M0,-3.0v7 M-2.5,-0.5L0,-3.0L2.5,-0.5"/>
                </g>
               <g id="resetDef">
                       <use xlink:href="#rim2" fill="#404040">
                               <set attributeName="fill" to="#808080" begin="reset.mouseover" end="reset.mouseout"/>
                       </use>
               </g>
        </defs>

<script type="text/javascript">
var viewWidth = 603;
var viewHeight = 116;
var sectionId = 'dynsection-10';
</script>
<script xlink:href="svgpan.js"/>
<svg id="graph" class="graph">
<g id="viewport">
<title>coap_option_filter_clear</title>
<polygon fill="#ffffff" stroke="transparent" points="-4,4 -4,-112 599,-112 599,4 -4,4"/>
<!-- Node290 -->
<g id="node1" class="node">
<title>Node290</title>
<polygon fill="#bfbfbf" stroke="#000000" points="0,-39 0,-69 93,-69 93,-39 0,-39"/>
<text text-anchor="start" x="8" y="-57" font-family="Helvetica,sans-Serif" font-size="10.00" fill="#000000">coap_option_filter</text>
<text text-anchor="middle" x="46.5" y="-46" font-family="Helvetica,sans-Serif" font-size="10.00" fill="#000000">_clear</text>
</g>
<!-- Node291 -->
<g id="node2" class="node">
<title>Node291</title>
<g id="a_node2"><a xlink:href="group__opt__filter.html#ga0170aecd699295f02affd5b280244088" target="_top" xlink:title="Sets the corresponding entry for type in filter. ">
<polygon fill="#ffffff" stroke="#000000" points="129,-88.5 129,-107.5 241,-107.5 241,-88.5 129,-88.5"/>
<text text-anchor="middle" x="185" y="-95.5" font-family="Helvetica,sans-Serif" font-size="10.00" fill="#000000">coap_option_filter_set</text>
</a>
</g>
</g>
<!-- Node290&#45;&gt;Node291 -->
<g id="edge1" class="edge">
<title>Node290&#45;&gt;Node291</title>
<path fill="none" stroke="#191970" d="M93.0038,-68.7738C109.9242,-74.1492 128.8827,-80.1721 145.1729,-85.3473"/>
<polygon fill="#191970" stroke="#191970" points="144.3385,-88.7546 154.9289,-88.4467 146.458,-82.0832 144.3385,-88.7546"/>
</g>
<!-- Node296 -->
<g id="node7" class="node">
<title>Node296</title>
<g id="a_node7"><a xlink:href="group__opt__filter.html#ga61706c7da445795c096cb21194b57bb3" target="_top" xlink:title="Clears the corresponding entry for type in filter. ">
<polygon fill="#ffffff" stroke="#000000" points="138.5,-39 138.5,-69 231.5,-69 231.5,-39 138.5,-39"/>
<text text-anchor="start" x="146.5" y="-57" font-family="Helvetica,sans-Serif" font-size="10.00" fill="#000000">coap_option_filter</text>
<text text-anchor="middle" x="185" y="-46" font-family="Helvetica,sans-Serif" font-size="10.00" fill="#000000">_unset</text>
</a>
</g>
</g>
<!-- Node290&#45;&gt;Node296 -->
<g id="edge6" class="edge">
<title>Node290&#45;&gt;Node296</title>
<path fill="none" stroke="#191970" d="M93.0038,-54C104.309,-54 116.5241,-54 128.2453,-54"/>
<polygon fill="#191970" stroke="#191970" points="128.3832,-57.5001 138.3832,-54 128.3832,-50.5001 128.3832,-57.5001"/>
</g>
<!-- Node297 -->
<g id="node8" class="node">
<title>Node297</title>
<g id="a_node8"><a xlink:href="group__opt__filter.html#ga3d3a4336ff55e111eae4eb2a1883a98b" target="_top" xlink:title="Checks if type is contained in filter. ">
<polygon fill="#ffffff" stroke="#000000" points="129,-.5 129,-19.5 241,-19.5 241,-.5 129,-.5"/>
<text text-anchor="middle" x="185" y="-7.5" font-family="Helvetica,sans-Serif" font-size="10.00" fill="#000000">coap_option_filter_get</text>
</a>
</g>
</g>
<!-- Node290&#45;&gt;Node297 -->
<g id="edge8" class="edge">
<title>Node290&#45;&gt;Node297</title>
<path fill="none" stroke="#191970" d="M93.0038,-39.2262C109.9242,-33.8508 128.8827,-27.8279 145.1729,-22.6527"/>
<polygon fill="#191970" stroke="#191970" points="146.458,-25.9168 154.9289,-19.5533 144.3385,-19.2454 146.458,-25.9168"/>
</g>
<!-- Node292 -->
<g id="node3" class="node">
<title>Node292</title>
<g id="a_node3"><a xlink:href="option_8c.html#a4225eb8945afcd42e9d4c50bd7c85ff1" target="_top" xlink:title="Applies op on filter with respect to type. ">
<polygon fill="#ffffff" stroke="#000000" points="277,-44.5 277,-63.5 386,-63.5 386,-44.5 277,-44.5"/>
<text text-anchor="middle" x="331.5" y="-51.5" font-family="Helvetica,sans-Serif" font-size="10.00" fill="#000000">coap_option_filter_op</text>
</a>
</g>
</g>
<!-- Node291&#45;&gt;Node292 -->
<g id="edge2" class="edge">
<title>Node291&#45;&gt;Node292</title>
<path fill="none" stroke="#191970" d="M216.7883,-88.4527C238.2897,-81.9949 266.8977,-73.4028 290.1652,-66.4146"/>
<polygon fill="#191970" stroke="#191970" points="291.2031,-69.7573 299.7737,-63.5287 289.1896,-63.0532 291.2031,-69.7573"/>
</g>
<!-- Node293 -->
<g id="node4" class="node">
<title>Node293</title>
<g id="a_node4"><a xlink:href="option_8c.html#a2be7abc95dd3dfc1f1f3f4268ce41101" target="_top" xlink:title="Returns true iff type denotes an option type larger than 255. ">
<polygon fill="#ffffff" stroke="#000000" points="422,-63.5 422,-82.5 501,-82.5 501,-63.5 422,-63.5"/>
<text text-anchor="middle" x="461.5" y="-70.5" font-family="Helvetica,sans-Serif" font-size="10.00" fill="#000000">is_long_option</text>
</a>
</g>
</g>
<!-- Node292&#45;&gt;Node293 -->
<g id="edge3" class="edge">
<title>Node292&#45;&gt;Node293</title>
<path fill="none" stroke="#191970" d="M386.2549,-62.0026C394.7401,-63.2428 403.4642,-64.5179 411.8292,-65.7404"/>
<polygon fill="#191970" stroke="#191970" points="411.4132,-69.2167 421.8142,-67.1998 412.4255,-62.2903 411.4132,-69.2167"/>
</g>
<!-- Node294 -->
<g id="node5" class="node">
<title>Node294</title>
<g id="a_node5"><a xlink:href="encode_8c.html#a671b4261b2d24de8696258a8efb0f359" target="_top" xlink:title="coap_fls">
<polygon fill="#ffffff" stroke="#000000" points="435,-25.5 435,-44.5 488,-44.5 488,-25.5 435,-25.5"/>
<text text-anchor="middle" x="461.5" y="-32.5" font-family="Helvetica,sans-Serif" font-size="10.00" fill="#000000">coap_fls</text>
</a>
</g>
</g>
<!-- Node292&#45;&gt;Node294 -->
<g id="edge4" class="edge">
<title>Node292&#45;&gt;Node294</title>
<path fill="none" stroke="#191970" d="M386.2549,-45.9974C399.2429,-44.0991 412.7907,-42.119 424.7533,-40.3707"/>
<polygon fill="#191970" stroke="#191970" points="425.4152,-43.8112 434.8039,-38.9017 424.4029,-36.8848 425.4152,-43.8112"/>
</g>
<!-- Node295 -->
<g id="node6" class="node">
<title>Node295</title>
<g id="a_node6"><a xlink:href="encode_8c.html#a5732d87decbffe771159ea02a5e25488" target="_top" xlink:title="coap_flsll">
<polygon fill="#ffffff" stroke="#000000" points="537,-25.5 537,-44.5 595,-44.5 595,-25.5 537,-25.5"/>
<text text-anchor="middle" x="566" y="-32.5" font-family="Helvetica,sans-Serif" font-size="10.00" fill="#000000">coap_flsll</text>
</a>
</g>
</g>
<!-- Node294&#45;&gt;Node295 -->
<g id="edge5" class="edge">
<title>Node294&#45;&gt;Node295</title>
<path fill="none" stroke="#191970" d="M488.1401,-35C499.878,-35 513.9067,-35 526.8021,-35"/>
<polygon fill="#191970" stroke="#191970" points="526.8356,-38.5001 536.8356,-35 526.8355,-31.5001 526.8356,-38.5001"/>
</g>
<!-- Node296&#45;&gt;Node292 -->
<g id="edge7" class="edge">
<title>Node296&#45;&gt;Node292</title>
<path fill="none" stroke="#191970" d="M231.7563,-54C242.8314,-54 254.8404,-54 266.5617,-54"/>
<polygon fill="#191970" stroke="#191970" points="266.7576,-57.5001 276.7576,-54 266.7575,-50.5001 266.7576,-57.5001"/>
</g>
<!-- Node297&#45;&gt;Node292 -->
<g id="edge9" class="edge">
<title>Node297&#45;&gt;Node292</title>
<path fill="none" stroke="#191970" d="M216.7883,-19.5473C238.2897,-26.0051 266.8977,-34.5972 290.1652,-41.5854"/>
<polygon fill="#191970" stroke="#191970" points="289.1896,-44.9468 299.7737,-44.4713 291.2031,-38.2427 289.1896,-44.9468"/>
</g>
</g>
</svg>
        <g id="navigator" transform="translate(0 0)" fill="#404254">
                <rect fill="#f2f5e9" fill-opacity="0.5" stroke="#606060" stroke-width=".5" x="0" y="0" width="60" height="60"/>
                <use id="zoomplus" xlink:href="#zoomPlus" x="17" y="9" onmousedown="handleZoom(evt,'in')"/>
                <use id="zoomminus" xlink:href="#zoomMin" x="42" y="9" onmousedown="handleZoom(evt,'out')"/>
                <use id="reset" xlink:href="#resetDef" x="30" y="36" onmousedown="handleReset()"/>
                <g id="arrowUp" xlink:href="#dirArrow" transform="translate(30 24)" onmousedown="handlePan(0,-1)">
                  <use xlink:href="#rim" fill="#404040">
                        <set attributeName="fill" to="#808080" begin="arrowUp.mouseover" end="arrowUp.mouseout"/>
                  </use>
                  <path fill="none" stroke="white" stroke-width="1.5" d="M0,-3.0v7 M-2.5,-0.5L0,-3.0L2.5,-0.5"/>
                </g>
                <g id="arrowRight" xlink:href="#dirArrow" transform="rotate(90) translate(36 -43)" onmousedown="handlePan(1,0)">
                  <use xlink:href="#rim" fill="#404040">
                        <set attributeName="fill" to="#808080" begin="arrowRight.mouseover" end="arrowRight.mouseout"/>
                  </use>
                  <path fill="none" stroke="white" stroke-width="1.5" d="M0,-3.0v7 M-2.5,-0.5L0,-3.0L2.5,-0.5"/>
                </g>
                <g id="arrowDown" xlink:href="#dirArrow" transform="rotate(180) translate(-30 -48)" onmousedown="handlePan(0,1)">
                  <use xlink:href="#rim" fill="#404040">
                        <set attributeName="fill" to="#808080" begin="arrowDown.mouseover" end="arrowDown.mouseout"/>
                  </use>
                  <path fill="none" stroke="white" stroke-width="1.5" d="M0,-3.0v7 M-2.5,-0.5L0,-3.0L2.5,-0.5"/>
                </g>
                <g id="arrowLeft" xlink:href="#dirArrow" transform="rotate(270) translate(-36 17)" onmousedown="handlePan(-1,0)">
                  <use xlink:href="#rim" fill="#404040">
                        <set attributeName="fill" to="#808080" begin="arrowLeft.mouseover" end="arrowLeft.mouseout"/>
                  </use>
                  <path fill="none" stroke="white" stroke-width="1.5" d="M0,-3.0v7 M-2.5,-0.5L0,-3.0L2.5,-0.5"/>
                </g>
        </g>
        <svg viewBox="0 0 15 15" width="100%" height="30px" preserveAspectRatio="xMaxYMin meet">
         <g id="arrow_out" transform="scale(0.3 0.3)">
          <a xlink:href="group__opt__filter_ga883885e793388359ef93d195bdbb4c2c_cgraph_org.svg" target="_base">
           <rect id="button" ry="5" rx="5" y="6" x="6" height="38" width="38"
                fill="#f2f5e9" fill-opacity="0.5" stroke="#606060" stroke-width="1.0"/>
           <path id="arrow"
             d="M 11.500037,31.436501 C 11.940474,20.09759 22.043105,11.32322 32.158766,21.979434 L 37.068811,17.246167 C 37.068811,17.246167 37.088388,32 37.088388,32 L 22.160133,31.978069 C 22.160133,31.978069 26.997745,27.140456 26.997745,27.140456 C 18.528582,18.264221 13.291696,25.230495 11.500037,31.436501 z"
             style="fill:#404040;"/>
          </a>
         </g>
        </svg>
</svg>
