<?xml version="1.0" encoding="UTF-8" standalone="no"?>
<!DOCTYPE svg PUBLIC "-//W3C//DTD SVG 1.1//EN"
 "http://www.w3.org/Graphics/SVG/1.1/DTD/svg11.dtd">
<!-- Generated by graphviz version 2.40.1 (20161225.0304)
 -->
<!-- Title: coap_ticks_to_rt Pages: 1 -->
<svg width="334pt" height="28pt"
 viewBox="0.00 0.00 334.00 28.00" xmlns="http://www.w3.org/2000/svg" xmlns:xlink="http://www.w3.org/1999/xlink">
<g id="graph0" class="graph" transform="scale(1 1) rotate(0) translate(4 24)">
<title>coap_ticks_to_rt</title>
<polygon fill="#ffffff" stroke="transparent" points="-4,4 -4,-24 330,-24 330,4 -4,4"/>
<!-- Node52 -->
<g id="node1" class="node">
<title>Node52</title>
<polygon fill="#bfbfbf" stroke="#000000" points="0,-.5 0,-19.5 89,-19.5 89,-.5 0,-.5"/>
<text text-anchor="middle" x="44.5" y="-7.5" font-family="Helvetica,sans-Serif" font-size="10.00" fill="#000000">coap_ticks_to_rt</text>
</g>
<!-- Node53 -->
<g id="node2" class="node">
<title>Node53</title>
<g id="a_node2"><a xlink:href="coap__debug_8c.html#ac22594f737f12f0c3947d2934070cd93" target="_top" xlink:title="print_timestamp">
<polygon fill="#ffffff" stroke="#000000" points="125,-.5 125,-19.5 211,-19.5 211,-.5 125,-.5"/>
<text text-anchor="middle" x="168" y="-7.5" font-family="Helvetica,sans-Serif" font-size="10.00" fill="#000000">print_timestamp</text>
</a>
</g>
</g>
<!-- Node52&#45;&gt;Node53 -->
<g id="edge1" class="edge">
<title>Node52&#45;&gt;Node53</title>
<path fill="none" stroke="#191970" d="M99.3284,-10C107.8333,-10 116.5156,-10 124.719,-10"/>
<polygon fill="#191970" stroke="#191970" points="99.0864,-6.5001 89.0863,-10 99.0863,-13.5001 99.0864,-6.5001"/>
</g>
<!-- Node54 -->
<g id="node3" class="node">
<title>Node54</title>
<g id="a_node3"><a xlink:href="group__logging.html#ga9cdced532dd20942747e340f359ad278" target="_top" xlink:title="Writes the given text to COAP_ERR_FD (for level &lt;= LOG_CRIT) or COAP_DEBUG_FD (for level &gt;= LOG_ERR)...">
<polygon fill="#ffffff" stroke="#000000" points="247,-.5 247,-19.5 326,-19.5 326,-.5 247,-.5"/>
<text text-anchor="middle" x="286.5" y="-7.5" font-family="Helvetica,sans-Serif" font-size="10.00" fill="#000000">coap_log_impl</text>
</a>
</g>
</g>
<!-- Node53&#45;&gt;Node54 -->
<g id="edge2" class="edge">
<title>Node53&#45;&gt;Node54</title>
<path fill="none" stroke="#191970" d="M221.394,-10C229.9258,-10 238.6212,-10 246.7631,-10"/>
<polygon fill="#191970" stroke="#191970" points="221.1165,-6.5001 211.1164,-10 221.1164,-13.5001 221.1165,-6.5001"/>
</g>
</g>
</svg>
