<?xml version="1.0" encoding="UTF-8" standalone="no"?>
<!DOCTYPE svg PUBLIC "-//W3C//DTD SVG 1.1//EN"
 "http://www.w3.org/Graphics/SVG/1.1/DTD/svg11.dtd">
<!-- Generated by graphviz version 2.40.1 (20161225.0304)
 -->
<!-- Title: coap_get_uri_path Pages: 1 -->
<!--zoomable 227 -->
<svg id="main" version="1.1" xmlns="http://www.w3.org/2000/svg" xmlns:xlink="http://www.w3.org/1999/xlink" xml:space="preserve" onload="init(evt)">
<style type="text/css"><![CDATA[
.edge:hover path { stroke: red; }
.edge:hover polygon { stroke: red; fill: red; }
]]></style>
<script type="text/javascript"><![CDATA[
var edges = document.getElementsByTagName('g');
if (edges && edges.length) {
  for (var i=0;i<edges.length;i++) {
    if (edges[i].id.substr(0,4)=='edge') {
      edges[i].setAttribute('class','edge');
    }
  }
}
]]></script>
        <defs>
                <circle id="rim" cx="0" cy="0" r="7"/>
                <circle id="rim2" cx="0" cy="0" r="3.5"/>
                <g id="zoomPlus">
                        <use xlink:href="#rim" fill="#404040">
                                <set attributeName="fill" to="#808080" begin="zoomplus.mouseover" end="zoomplus.mouseout"/>
                        </use>
                        <path d="M-4,0h8M0,-4v8" fill="none" stroke="white" stroke-width="1.5" pointer-events="none"/>
                </g>
                <g id="zoomMin">
                        <use xlink:href="#rim" fill="#404040">
                                <set attributeName="fill" to="#808080" begin="zoomminus.mouseover" end="zoomminus.mouseout"/>
                        </use>
                        <path d="M-4,0h8" fill="none" stroke="white" stroke-width="1.5" pointer-events="none"/>
                </g>
                <g id="dirArrow">
                        <path fill="none" stroke="white" stroke-width="1.5" d="M0,-3.0v7 M-2.5,-0.5L0,-3.0L2.5,-0.5"/>
                </g>
               <g id="resetDef">
                       <use xlink:href="#rim2" fill="#404040">
                               <set attributeName="fill" to="#808080" begin="reset.mouseover" end="reset.mouseout"/>
                       </use>
               </g>
        </defs>

<script type="text/javascript">
var viewWidth = 1250;
var viewHeight = 227;
var sectionId = 'dynsection-3';
</script>
<script xlink:href="svgpan.js"/>
<svg id="graph" class="graph">
<g id="viewport">
<title>coap_get_uri_path</title>
<polygon fill="#ffffff" stroke="transparent" points="-4,4 -4,-223 1246,-223 1246,4 -4,4"/>
<!-- Node53 -->
<g id="node1" class="node">
<title>Node53</title>
<polygon fill="#bfbfbf" stroke="#000000" points="0,-127.5 0,-146.5 96,-146.5 96,-127.5 0,-127.5"/>
<text text-anchor="middle" x="48" y="-134.5" font-family="Helvetica,sans-Serif" font-size="10.00" fill="#000000">coap_get_uri_path</text>
</g>
<!-- Node54 -->
<g id="node2" class="node">
<title>Node54</title>
<g id="a_node2"><a xlink:href="net_8c.html#a1a280312c4bad55cf10243b9b9c3e966" target="_top" xlink:title="handle_request">
<polygon fill="#ffffff" stroke="#000000" points="143.5,-149.5 143.5,-168.5 226.5,-168.5 226.5,-149.5 143.5,-149.5"/>
<text text-anchor="middle" x="185" y="-156.5" font-family="Helvetica,sans-Serif" font-size="10.00" fill="#000000">handle_request</text>
</a>
</g>
</g>
<!-- Node53&#45;&gt;Node54 -->
<g id="edge1" class="edge">
<title>Node53&#45;&gt;Node54</title>
<path fill="none" stroke="#191970" d="M106.2179,-146.3489C118.7502,-148.3613 131.7523,-150.4493 143.4946,-152.3349"/>
<polygon fill="#191970" stroke="#191970" points="106.7295,-142.8863 96.3011,-144.7564 105.6196,-149.7977 106.7295,-142.8863"/>
</g>
<!-- Node66 -->
<g id="node14" class="node">
<title>Node66</title>
<g id="a_node14"><a xlink:href="uri_8h.html#a04d042f5a81b4a13bf1cc7d94920ed87" target="_top" xlink:title="coap_uri_scheme_is\l_secure">
<polygon fill="#ffffff" stroke="#000000" points="132,-100 132,-130 238,-130 238,-100 132,-100"/>
<text text-anchor="start" x="140" y="-118" font-family="Helvetica,sans-Serif" font-size="10.00" fill="#000000">coap_uri_scheme_is</text>
<text text-anchor="middle" x="185" y="-107" font-family="Helvetica,sans-Serif" font-size="10.00" fill="#000000">_secure</text>
</a>
</g>
</g>
<!-- Node53&#45;&gt;Node66 -->
<g id="edge20" class="edge">
<title>Node53&#45;&gt;Node66</title>
<path fill="none" stroke="#191970" d="M106.3594,-127.6284C114.7174,-126.2863 123.2814,-124.911 131.5387,-123.585"/>
<polygon fill="#191970" stroke="#191970" points="105.6196,-124.2023 96.3011,-129.2436 106.7295,-131.1137 105.6196,-124.2023"/>
</g>
<!-- Node55 -->
<g id="node3" class="node">
<title>Node55</title>
<g id="a_node3"><a xlink:href="net_8h.html#a7bb944fc52f772655356d95724317401" target="_top" xlink:title="Dispatches the PDUs from the receive queue in given context. ">
<polygon fill="#ffffff" stroke="#000000" points="274,-149.5 274,-168.5 354,-168.5 354,-149.5 274,-149.5"/>
<text text-anchor="middle" x="314" y="-156.5" font-family="Helvetica,sans-Serif" font-size="10.00" fill="#000000">coap_dispatch</text>
</a>
</g>
</g>
<!-- Node54&#45;&gt;Node55 -->
<g id="edge2" class="edge">
<title>Node54&#45;&gt;Node55</title>
<path fill="none" stroke="#191970" d="M236.7215,-159C249.0915,-159 262.1147,-159 273.8714,-159"/>
<polygon fill="#191970" stroke="#191970" points="236.5265,-155.5001 226.5265,-159 236.5265,-162.5001 236.5265,-155.5001"/>
</g>
<!-- Node56 -->
<g id="node4" class="node">
<title>Node56</title>
<g id="a_node4"><a xlink:href="net_8c.html#acd36f6fba6d30ab9557e0e6521f4a088" target="_top" xlink:title="coap_read_session">
<polygon fill="#ffffff" stroke="#000000" points="687.5,-86.5 687.5,-105.5 788.5,-105.5 788.5,-86.5 687.5,-86.5"/>
<text text-anchor="middle" x="738" y="-93.5" font-family="Helvetica,sans-Serif" font-size="10.00" fill="#000000">coap_read_session</text>
</a>
</g>
</g>
<!-- Node55&#45;&gt;Node56 -->
<g id="edge3" class="edge">
<title>Node55&#45;&gt;Node56</title>
<path fill="none" stroke="#191970" d="M360.5431,-146.9921C370.2569,-144.5906 380.4472,-142.1481 390,-140 451.9086,-126.0789 467.1408,-120.6714 530,-112 583.4583,-104.6255 645.1499,-100.4152 687.3812,-98.184"/>
<polygon fill="#191970" stroke="#191970" points="359.4932,-143.6467 350.6394,-149.4658 361.1895,-150.4381 359.4932,-143.6467"/>
</g>
<!-- Node61 -->
<g id="node9" class="node">
<title>Node61</title>
<g id="a_node9"><a xlink:href="net_8h.html#a5854b1394bfddd574e48af116e3aaaf9" target="_top" xlink:title="Sends an RST message with code 0 for the specified request to dst. ">
<polygon fill="#ffffff" stroke="#000000" points="1160.5,-133.5 1160.5,-152.5 1240.5,-152.5 1240.5,-133.5 1160.5,-133.5"/>
<text text-anchor="middle" x="1200.5" y="-140.5" font-family="Helvetica,sans-Serif" font-size="10.00" fill="#000000">coap_send_rst</text>
</a>
</g>
</g>
<!-- Node55&#45;&gt;Node61 -->
<g id="edge19" class="edge">
<title>Node55&#45;&gt;Node61</title>
<path fill="none" stroke="#191970" d="M349.6018,-171.8623C401.6666,-189.4912 501.9653,-219 590,-219 590,-219 590,-219 967,-219 1038.2568,-219 1056.0523,-206.4037 1123,-182 1145.0765,-173.9527 1169.0259,-161.2309 1184.3678,-152.5199"/>
<polygon fill="#191970" stroke="#191970" points="350.4446,-168.451 339.8499,-168.5072 348.1672,-175.0702 350.4446,-168.451"/>
</g>
<!-- Node63 -->
<g id="node11" class="node">
<title>Node63</title>
<g id="a_node11"><a xlink:href="net_8h.html#ae6b8ca457dd41f23372f9e9a7159312b" target="_top" xlink:title="Parses and interprets a CoAP message with context ctx. ">
<polygon fill="#ffffff" stroke="#000000" points="390,-149.5 390,-168.5 494,-168.5 494,-149.5 390,-149.5"/>
<text text-anchor="middle" x="442" y="-156.5" font-family="Helvetica,sans-Serif" font-size="10.00" fill="#000000">coap_handle_dgram</text>
</a>
</g>
</g>
<!-- Node55&#45;&gt;Node63 -->
<g id="edge13" class="edge">
<title>Node55&#45;&gt;Node63</title>
<path fill="none" stroke="#191970" d="M364.1883,-159C372.5884,-159 381.3218,-159 389.7716,-159"/>
<polygon fill="#191970" stroke="#191970" points="364.1488,-155.5001 354.1488,-159 364.1488,-162.5001 364.1488,-155.5001"/>
</g>
<!-- Node57 -->
<g id="node5" class="node">
<title>Node57</title>
<g id="a_node5"><a xlink:href="net_8h.html#a0748d791fd2af516dd93fbadb660d440" target="_top" xlink:title="For applications with their own message loop, reads all data from the network. ">
<polygon fill="#ffffff" stroke="#000000" points="826,-86.5 826,-105.5 888,-105.5 888,-86.5 826,-86.5"/>
<text text-anchor="middle" x="857" y="-93.5" font-family="Helvetica,sans-Serif" font-size="10.00" fill="#000000">coap_read</text>
</a>
</g>
</g>
<!-- Node56&#45;&gt;Node57 -->
<g id="edge4" class="edge">
<title>Node56&#45;&gt;Node57</title>
<path fill="none" stroke="#191970" d="M798.949,-96C808.3142,-96 817.6315,-96 825.9721,-96"/>
<polygon fill="#191970" stroke="#191970" points="798.8119,-92.5001 788.8119,-96 798.8119,-99.5001 798.8119,-92.5001"/>
</g>
<!-- Node58 -->
<g id="node6" class="node">
<title>Node58</title>
<g id="a_node6"><a xlink:href="coap__io_8c.html#a75a7c93e10ca7858449ba304aad4ea37" target="_top" xlink:title="coap_run_once">
<polygon fill="#ffffff" stroke="#000000" points="1159,-.5 1159,-19.5 1242,-19.5 1242,-.5 1159,-.5"/>
<text text-anchor="middle" x="1200.5" y="-7.5" font-family="Helvetica,sans-Serif" font-size="10.00" fill="#000000">coap_run_once</text>
</a>
</g>
</g>
<!-- Node57&#45;&gt;Node58 -->
<g id="edge5" class="edge">
<title>Node57&#45;&gt;Node58</title>
<path fill="none" stroke="#191970" d="M880.7599,-80.8987C915.4461,-59.8778 982.7208,-22.9233 1046,-10 1083.5811,-2.325 1127.3852,-3.2244 1158.7338,-5.5138"/>
<polygon fill="#191970" stroke="#191970" points="878.5512,-78.1484 871.8711,-86.372 882.2215,-84.109 878.5512,-78.1484"/>
</g>
<!-- Node59 -->
<g id="node7" class="node">
<title>Node59</title>
<g id="a_node7"><a xlink:href="net_8h.html#a9900c032b74bd57f67d489484a2b3207" target="_top" xlink:title="Handles retransmissions of confirmable messages. ">
<polygon fill="#ffffff" stroke="#000000" points="924,-71.5 924,-90.5 1010,-90.5 1010,-71.5 924,-71.5"/>
<text text-anchor="middle" x="967" y="-78.5" font-family="Helvetica,sans-Serif" font-size="10.00" fill="#000000">coap_retransmit</text>
</a>
</g>
</g>
<!-- Node57&#45;&gt;Node59 -->
<g id="edge6" class="edge">
<title>Node57&#45;&gt;Node59</title>
<path fill="none" stroke="#191970" d="M898.1522,-90.3883C906.5214,-89.2471 915.3482,-88.0434 923.7866,-86.8927"/>
<polygon fill="#191970" stroke="#191970" points="897.6627,-86.9226 888.2274,-91.7417 898.6086,-93.8584 897.6627,-86.9226"/>
</g>
<!-- Node57&#45;&gt;Node61 -->
<g id="edge12" class="edge">
<title>Node57&#45;&gt;Node61</title>
<path fill="none" stroke="#191970" d="M898.2593,-103.1318C936.4921,-109.6018 994.984,-119.1484 1046,-126 1084.7798,-131.2082 1129.1954,-135.9704 1160.4214,-139.1209"/>
<polygon fill="#191970" stroke="#191970" points="898.4813,-99.6194 888.036,-101.3933 897.3077,-106.5203 898.4813,-99.6194"/>
</g>
<!-- Node60 -->
<g id="node8" class="node">
<title>Node60</title>
<g id="a_node8"><a xlink:href="net_8h.html#aaac86ac50793f309678e4951ecf8863f" target="_top" xlink:title="For applications with their own message loop, send all pending retransmits and return the list of soc...">
<polygon fill="#ffffff" stroke="#000000" points="1052.5,-19.5 1052.5,-38.5 1116.5,-38.5 1116.5,-19.5 1052.5,-19.5"/>
<text text-anchor="middle" x="1084.5" y="-26.5" font-family="Helvetica,sans-Serif" font-size="10.00" fill="#000000">coap_write</text>
</a>
</g>
</g>
<!-- Node59&#45;&gt;Node60 -->
<g id="edge7" class="edge">
<title>Node59&#45;&gt;Node60</title>
<path fill="none" stroke="#191970" d="M997.7454,-67.3935C1018.1441,-58.366 1044.4226,-46.7364 1062.6874,-38.6532"/>
<polygon fill="#191970" stroke="#191970" points="996.2794,-64.2148 988.5513,-71.4624 999.1123,-70.616 996.2794,-64.2148"/>
</g>
<!-- Node59&#45;&gt;Node61 -->
<g id="edge11" class="edge">
<title>Node59&#45;&gt;Node61</title>
<path fill="none" stroke="#191970" d="M1012.6505,-93.1213C1057.0734,-104.9167 1123.6755,-122.6012 1164.4865,-133.4375"/>
<polygon fill="#191970" stroke="#191970" points="1013.536,-89.7352 1002.9727,-90.5516 1011.7395,-96.5008 1013.536,-89.7352"/>
</g>
<!-- Node62 -->
<g id="node10" class="node">
<title>Node62</title>
<g id="a_node10"><a xlink:href="libcoap_8h.html#a5d1fb0b44497970b0f75fa0b38570a82" target="_top" xlink:title="coap_cleanup">
<polygon fill="#ffffff" stroke="#000000" points="1046,-57.5 1046,-76.5 1123,-76.5 1123,-57.5 1046,-57.5"/>
<text text-anchor="middle" x="1084.5" y="-64.5" font-family="Helvetica,sans-Serif" font-size="10.00" fill="#000000">coap_cleanup</text>
</a>
</g>
</g>
<!-- Node59&#45;&gt;Node62 -->
<g id="edge10" class="edge">
<title>Node59&#45;&gt;Node62</title>
<path fill="none" stroke="#191970" d="M1020.0879,-74.6746C1028.7111,-73.6472 1037.4986,-72.6002 1045.6979,-71.6232"/>
<polygon fill="#191970" stroke="#191970" points="1019.6011,-71.2078 1010.0855,-75.8664 1020.4294,-78.1586 1019.6011,-71.2078"/>
</g>
<!-- Node60&#45;&gt;Node58 -->
<g id="edge8" class="edge">
<title>Node60&#45;&gt;Node58</title>
<path fill="none" stroke="#191970" d="M1126.6193,-22.1012C1137.036,-20.395 1148.1933,-18.5675 1158.5996,-16.863"/>
<polygon fill="#191970" stroke="#191970" points="1125.8073,-18.6874 1116.5046,-23.7579 1126.9388,-25.5954 1125.8073,-18.6874"/>
</g>
<!-- Node60&#45;&gt;Node61 -->
<g id="edge9" class="edge">
<title>Node60&#45;&gt;Node61</title>
<path fill="none" stroke="#191970" d="M1116.6461,-43.5066C1118.8668,-44.9159 1121.0102,-46.4156 1123,-48 1155.1364,-73.5897 1182.8662,-114.5905 1194.5682,-133.2208"/>
<polygon fill="#191970" stroke="#191970" points="1118.2855,-40.4128 1107.8591,-38.5306 1114.8361,-46.5039 1118.2855,-40.4128"/>
</g>
<!-- Node63&#45;&gt;Node61 -->
<g id="edge18" class="edge">
<title>Node63&#45;&gt;Node61</title>
<path fill="none" stroke="#191970" d="M504.0854,-166.3063C563.9094,-172.7088 657.0154,-181 738,-181 738,-181 738,-181 967,-181 1037.643,-181 1118.7651,-163.8462 1164.3956,-152.589"/>
<polygon fill="#191970" stroke="#191970" points="504.3652,-162.8162 494.0457,-165.2161 503.6094,-169.7753 504.3652,-162.8162"/>
</g>
<!-- Node64 -->
<g id="node12" class="node">
<title>Node64</title>
<g id="a_node12"><a xlink:href="net_8c.html#a8534f7860b14e0743529daff196a27ce" target="_top" xlink:title="coap_handle_dgram_for\l_proto">
<polygon fill="#ffffff" stroke="#000000" points="530,-122 530,-152 650,-152 650,-122 530,-122"/>
<text text-anchor="start" x="538" y="-140" font-family="Helvetica,sans-Serif" font-size="10.00" fill="#000000">coap_handle_dgram_for</text>
<text text-anchor="middle" x="590" y="-129" font-family="Helvetica,sans-Serif" font-size="10.00" fill="#000000">_proto</text>
</a>
</g>
</g>
<!-- Node63&#45;&gt;Node64 -->
<g id="edge14" class="edge">
<title>Node63&#45;&gt;Node64</title>
<path fill="none" stroke="#191970" d="M504.0967,-149.7694C512.6545,-148.4973 521.4304,-147.1928 529.9503,-145.9263"/>
<polygon fill="#191970" stroke="#191970" points="503.5559,-146.3112 494.1793,-151.2436 504.5852,-153.2352 503.5559,-146.3112"/>
</g>
<!-- Node64&#45;&gt;Node56 -->
<g id="edge15" class="edge">
<title>Node64&#45;&gt;Node56</title>
<path fill="none" stroke="#191970" d="M654.151,-119.2284C671.1191,-114.5278 688.7905,-109.6324 703.5107,-105.5545"/>
<polygon fill="#191970" stroke="#191970" points="652.972,-115.9232 644.2693,-121.9659 654.8408,-122.6691 652.972,-115.9232"/>
</g>
<!-- Node65 -->
<g id="node13" class="node">
<title>Node65</title>
<g id="a_node13"><a xlink:href="net_8c.html#a44ffb4b70e537043e9a9cf344be24b92" target="_top" xlink:title="coap_read_endpoint">
<polygon fill="#ffffff" stroke="#000000" points="686,-126.5 686,-145.5 790,-145.5 790,-126.5 686,-126.5"/>
<text text-anchor="middle" x="738" y="-133.5" font-family="Helvetica,sans-Serif" font-size="10.00" fill="#000000">coap_read_endpoint</text>
</a>
</g>
</g>
<!-- Node64&#45;&gt;Node65 -->
<g id="edge16" class="edge">
<title>Node64&#45;&gt;Node65</title>
<path fill="none" stroke="#191970" d="M660.2786,-136.5251C668.917,-136.4668 677.6233,-136.408 685.9248,-136.3519"/>
<polygon fill="#191970" stroke="#191970" points="660.1734,-133.0257 650.1973,-136.5933 660.2207,-140.0255 660.1734,-133.0257"/>
</g>
<!-- Node65&#45;&gt;Node57 -->
<g id="edge17" class="edge">
<title>Node65&#45;&gt;Node57</title>
<path fill="none" stroke="#191970" d="M776.1899,-123.1631C793.2571,-117.4262 813.0197,-110.7833 828.7291,-105.5028"/>
<polygon fill="#191970" stroke="#191970" points="774.8671,-119.9152 766.5035,-126.419 777.0975,-126.5504 774.8671,-119.9152"/>
</g>
</g>
</svg>
        <g id="navigator" transform="translate(0 0)" fill="#404254">
                <rect fill="#f2f5e9" fill-opacity="0.5" stroke="#606060" stroke-width=".5" x="0" y="0" width="60" height="60"/>
                <use id="zoomplus" xlink:href="#zoomPlus" x="17" y="9" onmousedown="handleZoom(evt,'in')"/>
                <use id="zoomminus" xlink:href="#zoomMin" x="42" y="9" onmousedown="handleZoom(evt,'out')"/>
                <use id="reset" xlink:href="#resetDef" x="30" y="36" onmousedown="handleReset()"/>
                <g id="arrowUp" xlink:href="#dirArrow" transform="translate(30 24)" onmousedown="handlePan(0,-1)">
                  <use xlink:href="#rim" fill="#404040">
                        <set attributeName="fill" to="#808080" begin="arrowUp.mouseover" end="arrowUp.mouseout"/>
                  </use>
                  <path fill="none" stroke="white" stroke-width="1.5" d="M0,-3.0v7 M-2.5,-0.5L0,-3.0L2.5,-0.5"/>
                </g>
                <g id="arrowRight" xlink:href="#dirArrow" transform="rotate(90) translate(36 -43)" onmousedown="handlePan(1,0)">
                  <use xlink:href="#rim" fill="#404040">
                        <set attributeName="fill" to="#808080" begin="arrowRight.mouseover" end="arrowRight.mouseout"/>
                  </use>
                  <path fill="none" stroke="white" stroke-width="1.5" d="M0,-3.0v7 M-2.5,-0.5L0,-3.0L2.5,-0.5"/>
                </g>
                <g id="arrowDown" xlink:href="#dirArrow" transform="rotate(180) translate(-30 -48)" onmousedown="handlePan(0,1)">
                  <use xlink:href="#rim" fill="#404040">
                        <set attributeName="fill" to="#808080" begin="arrowDown.mouseover" end="arrowDown.mouseout"/>
                  </use>
                  <path fill="none" stroke="white" stroke-width="1.5" d="M0,-3.0v7 M-2.5,-0.5L0,-3.0L2.5,-0.5"/>
                </g>
                <g id="arrowLeft" xlink:href="#dirArrow" transform="rotate(270) translate(-36 17)" onmousedown="handlePan(-1,0)">
                  <use xlink:href="#rim" fill="#404040">
                        <set attributeName="fill" to="#808080" begin="arrowLeft.mouseover" end="arrowLeft.mouseout"/>
                  </use>
                  <path fill="none" stroke="white" stroke-width="1.5" d="M0,-3.0v7 M-2.5,-0.5L0,-3.0L2.5,-0.5"/>
                </g>
        </g>
        <svg viewBox="0 0 15 15" width="100%" height="30px" preserveAspectRatio="xMaxYMin meet">
         <g id="arrow_out" transform="scale(0.3 0.3)">
          <a xlink:href="group__uri__parse_ga914ee76e66cdf45fff7505d51e2a337e_icgraph_org.svg" target="_base">
           <rect id="button" ry="5" rx="5" y="6" x="6" height="38" width="38"
                fill="#f2f5e9" fill-opacity="0.5" stroke="#606060" stroke-width="1.0"/>
           <path id="arrow"
             d="M 11.500037,31.436501 C 11.940474,20.09759 22.043105,11.32322 32.158766,21.979434 L 37.068811,17.246167 C 37.068811,17.246167 37.088388,32 37.088388,32 L 22.160133,31.978069 C 22.160133,31.978069 26.997745,27.140456 26.997745,27.140456 C 18.528582,18.264221 13.291696,25.230495 11.500037,31.436501 z"
             style="fill:#404040;"/>
          </a>
         </g>
        </svg>
</svg>
