<?xml version="1.0" encoding="UTF-8" standalone="no"?>
<!DOCTYPE svg PUBLIC "-//W3C//DTD SVG 1.1//EN"
 "http://www.w3.org/Graphics/SVG/1.1/DTD/svg11.dtd">
<!-- Generated by graphviz version 2.40.1 (20161225.0304)
 -->
<!-- Title: coap_option_filter_get Pages: 1 -->
<!--zoomable 537 -->
<svg id="main" version="1.1" xmlns="http://www.w3.org/2000/svg" xmlns:xlink="http://www.w3.org/1999/xlink" xml:space="preserve" onload="init(evt)">
<style type="text/css"><![CDATA[
.edge:hover path { stroke: red; }
.edge:hover polygon { stroke: red; fill: red; }
]]></style>
<script type="text/javascript"><![CDATA[
var edges = document.getElementsByTagName('g');
if (edges && edges.length) {
  for (var i=0;i<edges.length;i++) {
    if (edges[i].id.substr(0,4)=='edge') {
      edges[i].setAttribute('class','edge');
    }
  }
}
]]></script>
        <defs>
                <circle id="rim" cx="0" cy="0" r="7"/>
                <circle id="rim2" cx="0" cy="0" r="3.5"/>
                <g id="zoomPlus">
                        <use xlink:href="#rim" fill="#404040">
                                <set attributeName="fill" to="#808080" begin="zoomplus.mouseover" end="zoomplus.mouseout"/>
                        </use>
                        <path d="M-4,0h8M0,-4v8" fill="none" stroke="white" stroke-width="1.5" pointer-events="none"/>
                </g>
                <g id="zoomMin">
                        <use xlink:href="#rim" fill="#404040">
                                <set attributeName="fill" to="#808080" begin="zoomminus.mouseover" end="zoomminus.mouseout"/>
                        </use>
                        <path d="M-4,0h8" fill="none" stroke="white" stroke-width="1.5" pointer-events="none"/>
                </g>
                <g id="dirArrow">
                        <path fill="none" stroke="white" stroke-width="1.5" d="M0,-3.0v7 M-2.5,-0.5L0,-3.0L2.5,-0.5"/>
                </g>
               <g id="resetDef">
                       <use xlink:href="#rim2" fill="#404040">
                               <set attributeName="fill" to="#808080" begin="reset.mouseover" end="reset.mouseout"/>
                       </use>
               </g>
        </defs>

<script type="text/javascript">
var viewWidth = 2063;
var viewHeight = 537;
var sectionId = 'dynsection-15';
</script>
<script xlink:href="svgpan.js"/>
<svg id="graph" class="graph">
<g id="viewport">
<title>coap_option_filter_get</title>
<polygon fill="#ffffff" stroke="transparent" points="-4,4 -4,-533 2059,-533 2059,4 -4,4"/>
<!-- Node304 -->
<g id="node1" class="node">
<title>Node304</title>
<polygon fill="#bfbfbf" stroke="#000000" points="0,-289.5 0,-308.5 112,-308.5 112,-289.5 0,-289.5"/>
<text text-anchor="middle" x="56" y="-296.5" font-family="Helvetica,sans-Serif" font-size="10.00" fill="#000000">coap_option_filter_get</text>
</g>
<!-- Node305 -->
<g id="node2" class="node">
<title>Node305</title>
<g id="a_node2"><a xlink:href="net_8h.html#a9c6736c0418c3adf5e7f6fb76f000cfe" target="_top" xlink:title="Verifies that pdu contains no unknown critical options. ">
<polygon fill="#ffffff" stroke="#000000" points="855,-462.5 855,-481.5 989,-481.5 989,-462.5 855,-462.5"/>
<text text-anchor="middle" x="922" y="-469.5" font-family="Helvetica,sans-Serif" font-size="10.00" fill="#000000">coap_option_check_critical</text>
</a>
</g>
</g>
<!-- Node304&#45;&gt;Node305 -->
<g id="edge1" class="edge">
<title>Node304&#45;&gt;Node305</title>
<path fill="none" stroke="#191970" d="M65.7622,-317.5527C96.0237,-372.2402 194.0568,-529 323.5,-529 323.5,-529 323.5,-529 596,-529 704.8788,-529 831.1966,-497.767 889.4758,-481.5405"/>
<polygon fill="#191970" stroke="#191970" points="68.7481,-315.7164 60.9081,-308.59 62.5928,-319.05 68.7481,-315.7164"/>
</g>
<!-- Node317 -->
<g id="node14" class="node">
<title>Node317</title>
<g id="a_node14"><a xlink:href="group__opt__filter.html#ga883885e793388359ef93d195bdbb4c2c" target="_top" xlink:title="Clears filter f. ">
<polygon fill="#ffffff" stroke="#000000" points="277,-284 277,-314 370,-314 370,-284 277,-284"/>
<text text-anchor="start" x="285" y="-302" font-family="Helvetica,sans-Serif" font-size="10.00" fill="#000000">coap_option_filter</text>
<text text-anchor="middle" x="323.5" y="-291" font-family="Helvetica,sans-Serif" font-size="10.00" fill="#000000">_clear</text>
</a>
</g>
</g>
<!-- Node304&#45;&gt;Node317 -->
<g id="edge21" class="edge">
<title>Node304&#45;&gt;Node317</title>
<path fill="none" stroke="#191970" d="M122.0797,-299C170.1445,-299 234.0387,-299 276.8561,-299"/>
<polygon fill="#191970" stroke="#191970" points="122.0768,-295.5001 112.0768,-299 122.0767,-302.5001 122.0768,-295.5001"/>
</g>
<!-- Node327 -->
<g id="node24" class="node">
<title>Node327</title>
<g id="a_node24"><a xlink:href="group__opt__filter.html#ga7370330734322281bfe69417866d11bd" target="_top" xlink:title="Gets the corresponding bit for type in filter. ">
<polygon fill="#ffffff" stroke="#000000" points="148,-248.5 148,-267.5 241,-267.5 241,-248.5 148,-248.5"/>
<text text-anchor="middle" x="194.5" y="-255.5" font-family="Helvetica,sans-Serif" font-size="10.00" fill="#000000">coap_option_getb</text>
</a>
</g>
</g>
<!-- Node304&#45;&gt;Node327 -->
<g id="edge40" class="edge">
<title>Node304&#45;&gt;Node327</title>
<path fill="none" stroke="#191970" d="M97.8841,-286.6011C118.4797,-280.5042 142.9238,-273.2681 162.0716,-267.5997"/>
<polygon fill="#191970" stroke="#191970" points="96.718,-283.2961 88.1228,-289.4907 98.705,-290.0082 96.718,-283.2961"/>
</g>
<!-- Node306 -->
<g id="node3" class="node">
<title>Node306</title>
<g id="a_node3"><a xlink:href="net_8h.html#a7bb944fc52f772655356d95724317401" target="_top" xlink:title="Dispatches the PDUs from the receive queue in given context. ">
<polygon fill="#ffffff" stroke="#000000" points="1044.5,-170.5 1044.5,-189.5 1124.5,-189.5 1124.5,-170.5 1044.5,-170.5"/>
<text text-anchor="middle" x="1084.5" y="-177.5" font-family="Helvetica,sans-Serif" font-size="10.00" fill="#000000">coap_dispatch</text>
</a>
</g>
</g>
<!-- Node305&#45;&gt;Node306 -->
<g id="edge2" class="edge">
<title>Node305&#45;&gt;Node306</title>
<path fill="none" stroke="#191970" d="M932.3255,-453.4459C963.4591,-397.5011 1055.7068,-231.7391 1079.073,-189.7519"/>
<polygon fill="#191970" stroke="#191970" points="929.2112,-451.8446 927.4067,-462.2846 935.3278,-455.2486 929.2112,-451.8446"/>
</g>
<!-- Node312 -->
<g id="node9" class="node">
<title>Node312</title>
<g id="a_node9"><a xlink:href="net_8h.html#a5854b1394bfddd574e48af116e3aaaf9" target="_top" xlink:title="Sends an RST message with code 0 for the specified request to dst. ">
<polygon fill="#ffffff" stroke="#000000" points="1973.5,-245.5 1973.5,-264.5 2053.5,-264.5 2053.5,-245.5 1973.5,-245.5"/>
<text text-anchor="middle" x="2013.5" y="-252.5" font-family="Helvetica,sans-Serif" font-size="10.00" fill="#000000">coap_send_rst</text>
</a>
</g>
</g>
<!-- Node305&#45;&gt;Node312 -->
<g id="edge20" class="edge">
<title>Node305&#45;&gt;Node312</title>
<path fill="none" stroke="#191970" d="M999.2401,-462.0689C1063.0243,-454.727 1155.9859,-446 1237.5,-446 1237.5,-446 1237.5,-446 1774,-446 1891.5349,-446 1984.6269,-303.6564 2007.8848,-264.7343"/>
<polygon fill="#191970" stroke="#191970" points="998.7867,-458.598 989.2599,-463.2338 999.5983,-465.5508 998.7867,-458.598"/>
</g>
<!-- Node307 -->
<g id="node4" class="node">
<title>Node307</title>
<g id="a_node4"><a xlink:href="net_8c.html#acd36f6fba6d30ab9557e0e6521f4a088" target="_top" xlink:title="coap_read_session">
<polygon fill="#ffffff" stroke="#000000" points="1488.5,-140.5 1488.5,-159.5 1589.5,-159.5 1589.5,-140.5 1488.5,-140.5"/>
<text text-anchor="middle" x="1539" y="-147.5" font-family="Helvetica,sans-Serif" font-size="10.00" fill="#000000">coap_read_session</text>
</a>
</g>
</g>
<!-- Node306&#45;&gt;Node307 -->
<g id="edge3" class="edge">
<title>Node306&#45;&gt;Node307</title>
<path fill="none" stroke="#191970" d="M1135.1906,-176.1974C1149.6634,-175.1353 1165.4529,-173.9991 1180,-173 1289.9725,-165.447 1418.9523,-157.3759 1488.4552,-153.0914"/>
<polygon fill="#191970" stroke="#191970" points="1134.6369,-172.7286 1124.9214,-176.9546 1135.1517,-179.7097 1134.6369,-172.7286"/>
</g>
<!-- Node306&#45;&gt;Node312 -->
<g id="edge19" class="edge">
<title>Node306&#45;&gt;Node312</title>
<path fill="none" stroke="#191970" d="M1107.8164,-195.106C1157.6482,-225.89 1279.1137,-293 1391,-293 1391,-293 1391,-293 1774,-293 1846.412,-293 1929.6345,-275.8462 1976.453,-264.589"/>
<polygon fill="#191970" stroke="#191970" points="1109.4268,-191.9845 1099.0959,-189.6343 1105.7063,-197.914 1109.4268,-191.9845"/>
</g>
<!-- Node314 -->
<g id="node11" class="node">
<title>Node314</title>
<g id="a_node11"><a xlink:href="net_8h.html#ae6b8ca457dd41f23372f9e9a7159312b" target="_top" xlink:title="Parses and interprets a CoAP message with context ctx. ">
<polygon fill="#ffffff" stroke="#000000" points="1185.5,-182.5 1185.5,-201.5 1289.5,-201.5 1289.5,-182.5 1185.5,-182.5"/>
<text text-anchor="middle" x="1237.5" y="-189.5" font-family="Helvetica,sans-Serif" font-size="10.00" fill="#000000">coap_handle_dgram</text>
</a>
</g>
</g>
<!-- Node306&#45;&gt;Node314 -->
<g id="edge13" class="edge">
<title>Node306&#45;&gt;Node314</title>
<path fill="none" stroke="#191970" d="M1135.0466,-183.9644C1151.2327,-185.2339 1169.1774,-186.6414 1185.4677,-187.919"/>
<polygon fill="#191970" stroke="#191970" points="1134.942,-180.4456 1124.6989,-183.1529 1134.3946,-187.4241 1134.942,-180.4456"/>
</g>
<!-- Node308 -->
<g id="node5" class="node">
<title>Node308</title>
<g id="a_node5"><a xlink:href="net_8h.html#a0748d791fd2af516dd93fbadb660d440" target="_top" xlink:title="For applications with their own message loop, reads all data from the network. ">
<polygon fill="#ffffff" stroke="#000000" points="1627,-140.5 1627,-159.5 1689,-159.5 1689,-140.5 1627,-140.5"/>
<text text-anchor="middle" x="1658" y="-147.5" font-family="Helvetica,sans-Serif" font-size="10.00" fill="#000000">coap_read</text>
</a>
</g>
</g>
<!-- Node307&#45;&gt;Node308 -->
<g id="edge4" class="edge">
<title>Node307&#45;&gt;Node308</title>
<path fill="none" stroke="#191970" d="M1599.949,-150C1609.3142,-150 1618.6315,-150 1626.9721,-150"/>
<polygon fill="#191970" stroke="#191970" points="1599.8119,-146.5001 1589.8119,-150 1599.8119,-153.5001 1599.8119,-146.5001"/>
</g>
<!-- Node309 -->
<g id="node6" class="node">
<title>Node309</title>
<g id="a_node6"><a xlink:href="coap__io_8c.html#a75a7c93e10ca7858449ba304aad4ea37" target="_top" xlink:title="coap_run_once">
<polygon fill="#ffffff" stroke="#000000" points="1972,-93.5 1972,-112.5 2055,-112.5 2055,-93.5 1972,-93.5"/>
<text text-anchor="middle" x="2013.5" y="-100.5" font-family="Helvetica,sans-Serif" font-size="10.00" fill="#000000">coap_run_once</text>
</a>
</g>
</g>
<!-- Node308&#45;&gt;Node309 -->
<g id="edge5" class="edge">
<title>Node308&#45;&gt;Node309</title>
<path fill="none" stroke="#191970" d="M1670.0116,-131.9178C1681.8376,-115.9064 1701.509,-93.627 1725,-84 1814.6414,-47.2635 1933.0964,-76.7179 1985.9697,-93.4398"/>
<polygon fill="#191970" stroke="#191970" points="1666.8801,-130.286 1663.9856,-140.4778 1672.604,-134.3155 1666.8801,-130.286"/>
</g>
<!-- Node310 -->
<g id="node7" class="node">
<title>Node310</title>
<g id="a_node7"><a xlink:href="net_8h.html#a9900c032b74bd57f67d489484a2b3207" target="_top" xlink:title="Handles retransmissions of confirmable messages. ">
<polygon fill="#ffffff" stroke="#000000" points="1731,-134.5 1731,-153.5 1817,-153.5 1817,-134.5 1731,-134.5"/>
<text text-anchor="middle" x="1774" y="-141.5" font-family="Helvetica,sans-Serif" font-size="10.00" fill="#000000">coap_retransmit</text>
</a>
</g>
</g>
<!-- Node308&#45;&gt;Node310 -->
<g id="edge6" class="edge">
<title>Node308&#45;&gt;Node310</title>
<path fill="none" stroke="#191970" d="M1699.3342,-147.862C1709.4829,-147.3371 1720.3756,-146.7737 1730.6177,-146.2439"/>
<polygon fill="#191970" stroke="#191970" points="1698.8917,-144.3801 1689.0859,-148.3921 1699.2533,-151.3708 1698.8917,-144.3801"/>
</g>
<!-- Node308&#45;&gt;Node312 -->
<g id="edge12" class="edge">
<title>Node308&#45;&gt;Node312</title>
<path fill="none" stroke="#191970" d="M1699.2345,-162.179C1770.7671,-183.3067 1916.4039,-226.3218 1981.1829,-245.4549"/>
<polygon fill="#191970" stroke="#191970" points="1699.8186,-158.7021 1689.2367,-159.226 1697.8357,-165.4154 1699.8186,-158.7021"/>
</g>
<!-- Node311 -->
<g id="node8" class="node">
<title>Node311</title>
<g id="a_node8"><a xlink:href="net_8h.html#aaac86ac50793f309678e4951ecf8863f" target="_top" xlink:title="For applications with their own message loop, send all pending retransmits and return the list of soc...">
<polygon fill="#ffffff" stroke="#000000" points="1865.5,-131.5 1865.5,-150.5 1929.5,-150.5 1929.5,-131.5 1865.5,-131.5"/>
<text text-anchor="middle" x="1897.5" y="-138.5" font-family="Helvetica,sans-Serif" font-size="10.00" fill="#000000">coap_write</text>
</a>
</g>
</g>
<!-- Node310&#45;&gt;Node311 -->
<g id="edge7" class="edge">
<title>Node310&#45;&gt;Node311</title>
<path fill="none" stroke="#191970" d="M1827.426,-142.7022C1840.3725,-142.3877 1853.8163,-142.0611 1865.4245,-141.7792"/>
<polygon fill="#191970" stroke="#191970" points="1827.1063,-139.2088 1817.1943,-142.9507 1827.2764,-146.2068 1827.1063,-139.2088"/>
</g>
<!-- Node310&#45;&gt;Node312 -->
<g id="edge11" class="edge">
<title>Node310&#45;&gt;Node312</title>
<path fill="none" stroke="#191970" d="M1817.1348,-156.5688C1850.4736,-167.0224 1897.3068,-183.3393 1936,-203 1960.4122,-215.4043 1986.3677,-234.093 2001.1898,-245.3628"/>
<polygon fill="#191970" stroke="#191970" points="1817.833,-153.1214 1807.2455,-153.5156 1815.7679,-159.8099 1817.833,-153.1214"/>
</g>
<!-- Node313 -->
<g id="node10" class="node">
<title>Node313</title>
<g id="a_node10"><a xlink:href="libcoap_8h.html#a5d1fb0b44497970b0f75fa0b38570a82" target="_top" xlink:title="coap_cleanup">
<polygon fill="#ffffff" stroke="#000000" points="1859,-93.5 1859,-112.5 1936,-112.5 1936,-93.5 1859,-93.5"/>
<text text-anchor="middle" x="1897.5" y="-100.5" font-family="Helvetica,sans-Serif" font-size="10.00" fill="#000000">coap_cleanup</text>
</a>
</g>
</g>
<!-- Node310&#45;&gt;Node313 -->
<g id="edge10" class="edge">
<title>Node310&#45;&gt;Node313</title>
<path fill="none" stroke="#191970" d="M1812.353,-131.2674C1830.504,-125.2416 1851.8201,-118.165 1868.5837,-112.5997"/>
<polygon fill="#191970" stroke="#191970" points="1811.0317,-128.0182 1802.6438,-134.4907 1813.2373,-134.6616 1811.0317,-128.0182"/>
</g>
<!-- Node311&#45;&gt;Node309 -->
<g id="edge8" class="edge">
<title>Node311&#45;&gt;Node309</title>
<path fill="none" stroke="#191970" d="M1936.6528,-128.1741C1952.2176,-123.0753 1969.8141,-117.3109 1984.2377,-112.5859"/>
<polygon fill="#191970" stroke="#191970" points="1935.1852,-124.9718 1926.7717,-131.411 1937.3644,-131.6239 1935.1852,-124.9718"/>
</g>
<!-- Node311&#45;&gt;Node312 -->
<g id="edge9" class="edge">
<title>Node311&#45;&gt;Node312</title>
<path fill="none" stroke="#191970" d="M1924.3117,-156.2373C1928.3742,-158.9598 1932.4045,-161.9179 1936,-165 1965.9015,-190.6316 1994.3252,-228.1151 2006.8314,-245.4972"/>
<polygon fill="#191970" stroke="#191970" points="1925.849,-153.069 1915.5231,-150.6972 1922.1162,-158.9907 1925.849,-153.069"/>
</g>
<!-- Node314&#45;&gt;Node312 -->
<g id="edge18" class="edge">
<title>Node314&#45;&gt;Node312</title>
<path fill="none" stroke="#191970" d="M1274.0536,-204.7283C1330.2636,-223.1339 1441.6403,-255 1539,-255 1539,-255 1539,-255 1774,-255 1844.0621,-255 1925.6529,-255 1973.2429,-255"/>
<polygon fill="#191970" stroke="#191970" points="1275.1338,-201.3991 1264.5404,-201.5683 1272.9272,-208.0422 1275.1338,-201.3991"/>
</g>
<!-- Node315 -->
<g id="node12" class="node">
<title>Node315</title>
<g id="a_node12"><a xlink:href="net_8c.html#a8534f7860b14e0743529daff196a27ce" target="_top" xlink:title="coap_handle_dgram_for\l_proto">
<polygon fill="#ffffff" stroke="#000000" points="1331,-177 1331,-207 1451,-207 1451,-177 1331,-177"/>
<text text-anchor="start" x="1339" y="-195" font-family="Helvetica,sans-Serif" font-size="10.00" fill="#000000">coap_handle_dgram_for</text>
<text text-anchor="middle" x="1391" y="-184" font-family="Helvetica,sans-Serif" font-size="10.00" fill="#000000">_proto</text>
</a>
</g>
</g>
<!-- Node314&#45;&gt;Node315 -->
<g id="edge14" class="edge">
<title>Node314&#45;&gt;Node315</title>
<path fill="none" stroke="#191970" d="M1299.9706,-192C1310.1894,-192 1320.7583,-192 1330.9178,-192"/>
<polygon fill="#191970" stroke="#191970" points="1299.8967,-188.5001 1289.8967,-192 1299.8966,-195.5001 1299.8967,-188.5001"/>
</g>
<!-- Node315&#45;&gt;Node307 -->
<g id="edge15" class="edge">
<title>Node315&#45;&gt;Node307</title>
<path fill="none" stroke="#191970" d="M1453.7213,-174.2007C1471.4061,-169.182 1489.9711,-163.9136 1505.2472,-159.5785"/>
<polygon fill="#191970" stroke="#191970" points="1452.678,-170.8585 1444.0134,-176.9557 1454.589,-177.5926 1452.678,-170.8585"/>
</g>
<!-- Node316 -->
<g id="node13" class="node">
<title>Node316</title>
<g id="a_node13"><a xlink:href="net_8c.html#a44ffb4b70e537043e9a9cf344be24b92" target="_top" xlink:title="coap_read_endpoint">
<polygon fill="#ffffff" stroke="#000000" points="1487,-181.5 1487,-200.5 1591,-200.5 1591,-181.5 1487,-181.5"/>
<text text-anchor="middle" x="1539" y="-188.5" font-family="Helvetica,sans-Serif" font-size="10.00" fill="#000000">coap_read_endpoint</text>
</a>
</g>
</g>
<!-- Node315&#45;&gt;Node316 -->
<g id="edge16" class="edge">
<title>Node315&#45;&gt;Node316</title>
<path fill="none" stroke="#191970" d="M1461.2786,-191.5251C1469.917,-191.4668 1478.6233,-191.408 1486.9248,-191.3519"/>
<polygon fill="#191970" stroke="#191970" points="1461.1734,-188.0257 1451.1973,-191.5933 1461.2207,-195.0255 1461.1734,-188.0257"/>
</g>
<!-- Node316&#45;&gt;Node308 -->
<g id="edge17" class="edge">
<title>Node316&#45;&gt;Node308</title>
<path fill="none" stroke="#191970" d="M1576.4421,-178.0998C1593.8251,-172.1107 1614.1341,-165.1135 1630.1374,-159.5997"/>
<polygon fill="#191970" stroke="#191970" points="1574.9145,-174.9241 1566.6001,-181.4907 1577.1948,-181.5423 1574.9145,-174.9241"/>
</g>
<!-- Node318 -->
<g id="node15" class="node">
<title>Node318</title>
<g id="a_node15"><a xlink:href="net_8c.html#a1a280312c4bad55cf10243b9b9c3e966" target="_top" xlink:title="handle_request">
<polygon fill="#ffffff" stroke="#000000" points="880.5,-285.5 880.5,-304.5 963.5,-304.5 963.5,-285.5 880.5,-285.5"/>
<text text-anchor="middle" x="922" y="-292.5" font-family="Helvetica,sans-Serif" font-size="10.00" fill="#000000">handle_request</text>
</a>
</g>
</g>
<!-- Node317&#45;&gt;Node318 -->
<g id="edge22" class="edge">
<title>Node317&#45;&gt;Node318</title>
<path fill="none" stroke="#191970" d="M351.7757,-320.2689C429.8136,-376.1811 653.3789,-517.4098 819,-434 874.7968,-405.8997 907.9199,-331.7007 918.3794,-304.8639"/>
<polygon fill="#191970" stroke="#191970" points="353.5628,-317.2413 343.4132,-314.2023 349.4523,-322.9074 353.5628,-317.2413"/>
</g>
<!-- Node319 -->
<g id="node16" class="node">
<title>Node319</title>
<g id="a_node16"><a xlink:href="group__opt__filter.html#gad4162a3db83918ae0e4f47b4b3aa523d" target="_top" xlink:title="Retrieves the first option of type type from pdu. ">
<polygon fill="#ffffff" stroke="#000000" points="406,-305.5 406,-324.5 507,-324.5 507,-305.5 406,-305.5"/>
<text text-anchor="middle" x="456.5" y="-312.5" font-family="Helvetica,sans-Serif" font-size="10.00" fill="#000000">coap_check_option</text>
</a>
</g>
</g>
<!-- Node317&#45;&gt;Node319 -->
<g id="edge24" class="edge">
<title>Node317&#45;&gt;Node319</title>
<path fill="none" stroke="#191970" d="M380.2044,-305.8216C388.6757,-306.8407 397.3638,-307.8859 405.7025,-308.889"/>
<polygon fill="#191970" stroke="#191970" points="380.3634,-302.3156 370.0169,-304.596 379.5273,-309.2655 380.3634,-302.3156"/>
</g>
<!-- Node324 -->
<g id="node21" class="node">
<title>Node324</title>
<g id="a_node21"><a xlink:href="group__uri__parse.html#gaab1eb2549c4e55fa206befcab3d3da73" target="_top" xlink:title="Extract query string from request PDU according to escape rules in 6.5.8. ">
<polygon fill="#ffffff" stroke="#000000" points="413.5,-211.5 413.5,-230.5 499.5,-230.5 499.5,-211.5 413.5,-211.5"/>
<text text-anchor="middle" x="456.5" y="-218.5" font-family="Helvetica,sans-Serif" font-size="10.00" fill="#000000">coap_get_query</text>
</a>
</g>
</g>
<!-- Node317&#45;&gt;Node324 -->
<g id="edge34" class="edge">
<title>Node317&#45;&gt;Node324</title>
<path fill="none" stroke="#191970" d="M353.3064,-277.9146C372.4215,-264.56 395.5473,-248.7593 406,-243 414.2922,-238.4311 423.7232,-234.1059 432.1722,-230.5191"/>
<polygon fill="#191970" stroke="#191970" points="351.044,-275.2263 344.866,-283.8335 355.0631,-280.9575 351.044,-275.2263"/>
</g>
<!-- Node326 -->
<g id="node23" class="node">
<title>Node326</title>
<g id="a_node23"><a xlink:href="group__uri__parse.html#ga914ee76e66cdf45fff7505d51e2a337e" target="_top" xlink:title="Extract uri_path string from request PDU. ">
<polygon fill="#ffffff" stroke="#000000" points="408.5,-252.5 408.5,-271.5 504.5,-271.5 504.5,-252.5 408.5,-252.5"/>
<text text-anchor="middle" x="456.5" y="-259.5" font-family="Helvetica,sans-Serif" font-size="10.00" fill="#000000">coap_get_uri_path</text>
</a>
</g>
</g>
<!-- Node317&#45;&gt;Node326 -->
<g id="edge37" class="edge">
<title>Node317&#45;&gt;Node326</title>
<path fill="none" stroke="#191970" d="M379.7948,-283.339C394.1163,-279.3549 409.0847,-275.1907 421.9572,-271.6097"/>
<polygon fill="#191970" stroke="#191970" points="378.713,-280.007 370.0169,-286.0592 380.5892,-286.7509 378.713,-280.007"/>
</g>
<!-- Node318&#45;&gt;Node306 -->
<g id="edge23" class="edge">
<title>Node318&#45;&gt;Node306</title>
<path fill="none" stroke="#191970" d="M943.9089,-279.4952C977.895,-255.4435 1042.3471,-209.8313 1070.619,-189.8235"/>
<polygon fill="#191970" stroke="#191970" points="941.716,-276.7593 935.5752,-285.393 945.7597,-282.4732 941.716,-276.7593"/>
</g>
<!-- Node319&#45;&gt;Node318 -->
<g id="edge33" class="edge">
<title>Node319&#45;&gt;Node318</title>
<path fill="none" stroke="#191970" d="M517.3397,-312.386C613.373,-308.26 797.647,-300.3428 880.2017,-296.7958"/>
<polygon fill="#191970" stroke="#191970" points="517.0433,-308.8955 507.2028,-312.8216 517.3439,-315.889 517.0433,-308.8955"/>
</g>
<!-- Node320 -->
<g id="node17" class="node">
<title>Node320</title>
<g id="a_node17"><a xlink:href="group__block.html#ga714d943bd85123de1b8b6f86ec204a69" target="_top" xlink:title="Initializes block from pdu. ">
<polygon fill="#ffffff" stroke="#000000" points="553.5,-367.5 553.5,-386.5 638.5,-386.5 638.5,-367.5 553.5,-367.5"/>
<text text-anchor="middle" x="596" y="-374.5" font-family="Helvetica,sans-Serif" font-size="10.00" fill="#000000">coap_get_block</text>
</a>
</g>
</g>
<!-- Node319&#45;&gt;Node320 -->
<g id="edge25" class="edge">
<title>Node319&#45;&gt;Node320</title>
<path fill="none" stroke="#191970" d="M483.3588,-329.3694C500.2466,-338.1484 522.6223,-349.3177 543,-358 550.8235,-361.3334 559.4507,-364.5955 567.4317,-367.4498"/>
<polygon fill="#191970" stroke="#191970" points="484.5875,-326.0616 474.1063,-324.5136 481.3345,-332.2598 484.5875,-326.0616"/>
</g>
<!-- Node322 -->
<g id="node19" class="node">
<title>Node322</title>
<g id="a_node19"><a xlink:href="net_8h.html#a69ff8481c32707b77813c051fc42dedd" target="_top" xlink:title="Creates a new response for given request with the contents of .well&#45;known/core. ">
<polygon fill="#ffffff" stroke="#000000" points="685,-405.5 685,-424.5 819,-424.5 819,-405.5 685,-405.5"/>
<text text-anchor="middle" x="752" y="-412.5" font-family="Helvetica,sans-Serif" font-size="10.00" fill="#000000">coap_wellknown_response</text>
</a>
</g>
</g>
<!-- Node319&#45;&gt;Node322 -->
<g id="edge30" class="edge">
<title>Node319&#45;&gt;Node322</title>
<path fill="none" stroke="#191970" d="M469.3645,-332.6383C484.5555,-351.9344 511.7447,-381.9816 543,-396 587.3804,-415.9052 642.3101,-420.2169 684.7175,-419.7854"/>
<polygon fill="#191970" stroke="#191970" points="472.103,-330.4573 463.2577,-324.6252 466.5355,-334.7003 472.103,-330.4573"/>
</g>
<!-- Node323 -->
<g id="node20" class="node">
<title>Node323</title>
<g id="a_node20"><a xlink:href="net_8c.html#aa708f479d33a6ca76bf214a0e0e42de4" target="_top" xlink:title="Checks for No&#45;Response option in given request and returns 1 if response should be suppressed accordi...">
<polygon fill="#ffffff" stroke="#000000" points="560,-329.5 560,-348.5 632,-348.5 632,-329.5 560,-329.5"/>
<text text-anchor="middle" x="596" y="-336.5" font-family="Helvetica,sans-Serif" font-size="10.00" fill="#000000">no_response</text>
</a>
</g>
</g>
<!-- Node319&#45;&gt;Node323 -->
<g id="edge31" class="edge">
<title>Node319&#45;&gt;Node323</title>
<path fill="none" stroke="#191970" d="M517.2223,-325.4468C531.7855,-327.9523 546.8827,-330.5497 559.9166,-332.7921"/>
<polygon fill="#191970" stroke="#191970" points="517.706,-321.9787 507.2573,-323.7324 516.5191,-328.8774 517.706,-321.9787"/>
</g>
<!-- Node321 -->
<g id="node18" class="node">
<title>Node321</title>
<g id="a_node18"><a xlink:href="group__block.html#ga01d9c90a44d671c5ab38a664468fa6eb" target="_top" xlink:title="Sets the More&#45;bit in block_opt. ">
<polygon fill="#ffffff" stroke="#000000" points="693.5,-367.5 693.5,-386.5 810.5,-386.5 810.5,-367.5 693.5,-367.5"/>
<text text-anchor="middle" x="752" y="-374.5" font-family="Helvetica,sans-Serif" font-size="10.00" fill="#000000">coap_opt_block_set_m</text>
</a>
</g>
</g>
<!-- Node320&#45;&gt;Node321 -->
<g id="edge26" class="edge">
<title>Node320&#45;&gt;Node321</title>
<path fill="none" stroke="#191970" d="M648.8008,-377C663.1241,-377 678.7175,-377 693.3426,-377"/>
<polygon fill="#191970" stroke="#191970" points="648.6277,-373.5001 638.6277,-377 648.6277,-380.5001 648.6277,-373.5001"/>
</g>
<!-- Node320&#45;&gt;Node322 -->
<g id="edge27" class="edge">
<title>Node320&#45;&gt;Node322</title>
<path fill="none" stroke="#191970" d="M645.1317,-388.968C666.9927,-394.2931 692.3761,-400.4762 712.9177,-405.4799"/>
<polygon fill="#191970" stroke="#191970" points="645.9097,-385.5552 635.3654,-386.589 644.2529,-392.3563 645.9097,-385.5552"/>
</g>
<!-- Node322&#45;&gt;Node312 -->
<g id="edge29" class="edge">
<title>Node322&#45;&gt;Node312</title>
<path fill="none" stroke="#191970" d="M797.8141,-402.9015C875.239,-382.8704 1028.9611,-345 1084.5,-345 1084.5,-345 1084.5,-345 1774,-345 1864.6143,-345 1962.8969,-287.8491 1999.0855,-264.6316"/>
<polygon fill="#191970" stroke="#191970" points="796.6613,-399.5847 787.8626,-405.4866 798.4214,-406.3598 796.6613,-399.5847"/>
</g>
<!-- Node322&#45;&gt;Node318 -->
<g id="edge28" class="edge">
<title>Node322&#45;&gt;Node318</title>
<path fill="none" stroke="#191970" d="M811.6233,-400.9823C814.2147,-399.4867 816.6912,-397.8316 819,-396 844.8711,-375.4755 831.5004,-354.2021 855,-331 866.7455,-319.4032 882.9949,-310.5483 896.5494,-304.5226"/>
<polygon fill="#191970" stroke="#191970" points="809.8877,-397.935 802.4468,-405.4772 812.967,-404.2214 809.8877,-397.935"/>
</g>
<!-- Node323&#45;&gt;Node318 -->
<g id="edge32" class="edge">
<title>Node323&#45;&gt;Node318</title>
<path fill="none" stroke="#191970" d="M642.119,-335.1837C687.3164,-331.1737 758.0941,-324.1738 819,-315 839.1743,-311.9613 861.4109,-307.7533 880.0438,-303.9808"/>
<polygon fill="#191970" stroke="#191970" points="641.6962,-331.7072 632.0395,-336.066 642.3067,-338.6806 641.6962,-331.7072"/>
</g>
<!-- Node324&#45;&gt;Node318 -->
<g id="edge35" class="edge">
<title>Node324&#45;&gt;Node318</title>
<path fill="none" stroke="#191970" d="M491.164,-208.0532C506.7673,-202.8871 525.5646,-197.5637 543,-195 589.6099,-188.1465 602.613,-186.7716 649,-195 748.6477,-212.6762 859.6668,-264.005 903.1204,-285.4301"/>
<polygon fill="#191970" stroke="#191970" points="489.7422,-204.8406 481.418,-211.3948 492.0126,-211.4622 489.7422,-204.8406"/>
</g>
<!-- Node325 -->
<g id="node22" class="node">
<title>Node325</title>
<g id="a_node22"><a xlink:href="uri_8h.html#a04d042f5a81b4a13bf1cc7d94920ed87" target="_top" xlink:title="coap_uri_scheme_is\l_secure">
<polygon fill="#ffffff" stroke="#000000" points="543,-204 543,-234 649,-234 649,-204 543,-204"/>
<text text-anchor="start" x="551" y="-222" font-family="Helvetica,sans-Serif" font-size="10.00" fill="#000000">coap_uri_scheme_is</text>
<text text-anchor="middle" x="596" y="-211" font-family="Helvetica,sans-Serif" font-size="10.00" fill="#000000">_secure</text>
</a>
</g>
</g>
<!-- Node324&#45;&gt;Node325 -->
<g id="edge36" class="edge">
<title>Node324&#45;&gt;Node325</title>
<path fill="none" stroke="#191970" d="M509.9928,-220.2331C520.7594,-220.0787 532.0733,-219.9165 542.8289,-219.7623"/>
<polygon fill="#191970" stroke="#191970" points="509.8228,-216.7351 499.874,-220.3782 509.9232,-223.7343 509.8228,-216.7351"/>
</g>
<!-- Node326&#45;&gt;Node318 -->
<g id="edge38" class="edge">
<title>Node326&#45;&gt;Node318</title>
<path fill="none" stroke="#191970" d="M514.6011,-266.1189C609.8614,-272.872 796.9824,-286.1373 880.2867,-292.0429"/>
<polygon fill="#191970" stroke="#191970" points="514.7859,-262.6233 504.5634,-265.4073 514.2908,-269.6058 514.7859,-262.6233"/>
</g>
<!-- Node326&#45;&gt;Node325 -->
<g id="edge39" class="edge">
<title>Node326&#45;&gt;Node325</title>
<path fill="none" stroke="#191970" d="M497.36,-249.4052C513.0068,-244.5821 531.0095,-239.0329 547.3168,-234.0063"/>
<polygon fill="#191970" stroke="#191970" points="495.9849,-246.1665 487.4596,-252.4569 498.0469,-252.8559 495.9849,-246.1665"/>
</g>
<!-- Node328 -->
<g id="node25" class="node">
<title>Node328</title>
<g id="a_node25"><a xlink:href="group__opt__filter.html#ga182fdeffe0b37e1ab0dc6ba8494abe4a" target="_top" xlink:title="Updates the iterator oi to point to the next option. ">
<polygon fill="#ffffff" stroke="#000000" points="277,-237.5 277,-256.5 370,-256.5 370,-237.5 277,-237.5"/>
<text text-anchor="middle" x="323.5" y="-244.5" font-family="Helvetica,sans-Serif" font-size="10.00" fill="#000000">coap_option_next</text>
</a>
</g>
</g>
<!-- Node327&#45;&gt;Node328 -->
<g id="edge41" class="edge">
<title>Node327&#45;&gt;Node328</title>
<path fill="none" stroke="#191970" d="M251.1011,-253.1736C259.7521,-252.4359 268.5956,-251.6818 276.9964,-250.9654"/>
<polygon fill="#191970" stroke="#191970" points="250.7384,-249.6917 241.072,-254.0287 251.3332,-256.6664 250.7384,-249.6917"/>
</g>
<!-- Node328&#45;&gt;Node305 -->
<g id="edge44" class="edge">
<title>Node328&#45;&gt;Node305</title>
<path fill="none" stroke="#191970" d="M352.7877,-261.6874C358.8809,-265.5208 364.9711,-270.0005 370,-275 391.7846,-296.6572 384.4745,-312.0852 406,-334 456.5437,-385.4577 475.2385,-396.2826 543,-421 647.4726,-459.1086 777.4846,-469.1818 854.8901,-471.5922"/>
<polygon fill="#191970" stroke="#191970" points="354.3828,-258.5659 343.9819,-256.5481 350.8544,-264.6116 354.3828,-258.5659"/>
</g>
<!-- Node328&#45;&gt;Node319 -->
<g id="edge57" class="edge">
<title>Node328&#45;&gt;Node319</title>
<path fill="none" stroke="#191970" d="M351.2414,-261.1836C377.2093,-274.4604 415.2902,-293.9303 437.8219,-305.4503"/>
<polygon fill="#191970" stroke="#191970" points="352.7706,-258.0345 342.2736,-256.5985 349.584,-264.2672 352.7706,-258.0345"/>
</g>
<!-- Node328&#45;&gt;Node324 -->
<g id="edge58" class="edge">
<title>Node328&#45;&gt;Node324</title>
<path fill="none" stroke="#191970" d="M380.0993,-235.9355C391.234,-233.7588 402.7474,-231.508 413.3532,-229.4347"/>
<polygon fill="#191970" stroke="#191970" points="379.1596,-232.5528 370.0169,-237.9065 380.5027,-239.4228 379.1596,-232.5528"/>
</g>
<!-- Node328&#45;&gt;Node326 -->
<g id="edge59" class="edge">
<title>Node328&#45;&gt;Node326</title>
<path fill="none" stroke="#191970" d="M380.1065,-253.3842C389.5371,-254.4478 399.2391,-255.542 408.4311,-256.5787"/>
<polygon fill="#191970" stroke="#191970" points="380.3462,-249.8891 370.0169,-252.2463 379.5617,-256.845 380.3462,-249.8891"/>
</g>
<!-- Node329 -->
<g id="node26" class="node">
<title>Node329</title>
<g id="a_node26"><a xlink:href="debug_8h.html#a88cca636643023b4867f9c3fd8f0c09c" target="_top" xlink:title="coap_show_pdu">
<polygon fill="#ffffff" stroke="#000000" points="552.5,-89.5 552.5,-108.5 639.5,-108.5 639.5,-89.5 552.5,-89.5"/>
<text text-anchor="middle" x="596" y="-96.5" font-family="Helvetica,sans-Serif" font-size="10.00" fill="#000000">coap_show_pdu</text>
</a>
</g>
</g>
<!-- Node328&#45;&gt;Node329 -->
<g id="edge42" class="edge">
<title>Node328&#45;&gt;Node329</title>
<path fill="none" stroke="#191970" d="M330.3701,-227.6029C341.4777,-199.3671 366.2398,-147.6344 406,-123 450.2318,-95.5951 511.3905,-92.7277 552.25,-94.6386"/>
<polygon fill="#191970" stroke="#191970" points="327.0169,-226.5764 326.7787,-237.1686 333.5703,-229.0369 327.0169,-226.5764"/>
</g>
<!-- Node330 -->
<g id="node27" class="node">
<title>Node330</title>
<g id="a_node27"><a xlink:href="net_8h.html#ab7953637ad760f76ffb8060ddf47fe6a" target="_top" xlink:title="Creates a new ACK PDU with specified error code. ">
<polygon fill="#ffffff" stroke="#000000" points="686.5,-51.5 686.5,-70.5 817.5,-70.5 817.5,-51.5 686.5,-51.5"/>
<text text-anchor="middle" x="752" y="-58.5" font-family="Helvetica,sans-Serif" font-size="10.00" fill="#000000">coap_new_error_response</text>
</a>
</g>
</g>
<!-- Node328&#45;&gt;Node330 -->
<g id="edge45" class="edge">
<title>Node328&#45;&gt;Node330</title>
<path fill="none" stroke="#191970" d="M327.671,-227.0712C335.9751,-192.9097 358.0656,-123.7845 406,-92 495.8469,-32.4241 628.9136,-40.9312 701.0402,-51.4902"/>
<polygon fill="#191970" stroke="#191970" points="324.1697,-226.6845 325.366,-237.2115 330.9956,-228.2361 324.1697,-226.6845"/>
</g>
<!-- Node335 -->
<g id="node32" class="node">
<title>Node335</title>
<g id="a_node32"><a xlink:href="net_8c.html#ac4cbcfd073489b57805db665ce3d0681" target="_top" xlink:title="handle_signaling">
<polygon fill="#ffffff" stroke="#000000" points="707.5,-139.5 707.5,-158.5 796.5,-158.5 796.5,-139.5 707.5,-139.5"/>
<text text-anchor="middle" x="752" y="-146.5" font-family="Helvetica,sans-Serif" font-size="10.00" fill="#000000">handle_signaling</text>
</a>
</g>
</g>
<!-- Node328&#45;&gt;Node335 -->
<g id="edge55" class="edge">
<title>Node328&#45;&gt;Node335</title>
<path fill="none" stroke="#191970" d="M346.0632,-231.8891C362.1141,-221.8562 384.5503,-209.2435 406,-202 510.3561,-166.7593 640.3835,-154.8524 707.4201,-150.9036"/>
<polygon fill="#191970" stroke="#191970" points="343.9365,-229.095 337.4063,-237.4381 347.714,-234.9882 343.9365,-229.095"/>
</g>
<!-- Node329&#45;&gt;Node306 -->
<g id="edge43" class="edge">
<title>Node329&#45;&gt;Node306</title>
<path fill="none" stroke="#191970" d="M649.8658,-104.9113C725.8819,-113.6839 868.7818,-131.7572 989,-156 1009.2773,-160.089 1031.7212,-165.6744 1049.7537,-170.428"/>
<polygon fill="#191970" stroke="#191970" points="649.926,-101.3954 639.5928,-103.7355 649.1299,-108.35 649.926,-101.3954"/>
</g>
<!-- Node330&#45;&gt;Node306 -->
<g id="edge53" class="edge">
<title>Node330&#45;&gt;Node306</title>
<path fill="none" stroke="#191970" d="M827.6524,-68.2732C875.4901,-74.8731 937.741,-87.2197 989,-110 1023.7527,-125.4446 1058.15,-155.1232 1074.5567,-170.3975"/>
<polygon fill="#191970" stroke="#191970" points="828.0455,-64.7948 817.6722,-66.9504 827.1256,-71.7341 828.0455,-64.7948"/>
</g>
<!-- Node330&#45;&gt;Node318 -->
<g id="edge52" class="edge">
<title>Node330&#45;&gt;Node318</title>
<path fill="none" stroke="#191970" d="M770.3138,-77.7908C784.4381,-91.2112 804.0255,-110.8789 819,-130 862.0992,-185.034 902.8428,-258.9486 916.8609,-285.2278"/>
<polygon fill="#191970" stroke="#191970" points="772.3957,-74.9452 762.7051,-70.6624 767.6098,-80.0536 772.3957,-74.9452"/>
</g>
<!-- Node331 -->
<g id="node28" class="node">
<title>Node331</title>
<g id="a_node28"><a xlink:href="net_8h.html#ab31cd76353f751ec4dc5c033152df575" target="_top" xlink:title="Sends an error response with code code for request request to dst. ">
<polygon fill="#ffffff" stroke="#000000" points="877.5,-.5 877.5,-19.5 966.5,-19.5 966.5,-.5 877.5,-.5"/>
<text text-anchor="middle" x="922" y="-7.5" font-family="Helvetica,sans-Serif" font-size="10.00" fill="#000000">coap_send_error</text>
</a>
</g>
</g>
<!-- Node330&#45;&gt;Node331 -->
<g id="edge46" class="edge">
<title>Node330&#45;&gt;Node331</title>
<path fill="none" stroke="#191970" d="M793.6706,-48.4988C823.4458,-39.5663 862.9038,-27.7288 890.1677,-19.5497"/>
<polygon fill="#191970" stroke="#191970" points="792.5482,-45.1813 783.9757,-51.4073 794.5597,-51.8861 792.5482,-45.1813"/>
</g>
<!-- Node332 -->
<g id="node29" class="node">
<title>Node332</title>
<g id="a_node29"><a xlink:href="net_8h.html#ade36148140b152d713b23d17bbcf0024" target="_top" xlink:title="Returns a new message id and updates context&#45;&gt;message_id accordingly. ">
<polygon fill="#ffffff" stroke="#000000" points="1025,-38.5 1025,-57.5 1144,-57.5 1144,-38.5 1025,-38.5"/>
<text text-anchor="middle" x="1084.5" y="-45.5" font-family="Helvetica,sans-Serif" font-size="10.00" fill="#000000">coap_new_message_id</text>
</a>
</g>
</g>
<!-- Node330&#45;&gt;Node332 -->
<g id="edge54" class="edge">
<title>Node330&#45;&gt;Node332</title>
<path fill="none" stroke="#191970" d="M827.8247,-58.0354C887.563,-55.6998 969.6898,-52.4888 1024.8083,-50.3338"/>
<polygon fill="#191970" stroke="#191970" points="827.5469,-54.5435 817.6913,-58.4316 827.8204,-61.5382 827.5469,-54.5435"/>
</g>
<!-- Node331&#45;&gt;Node332 -->
<g id="edge47" class="edge">
<title>Node331&#45;&gt;Node332</title>
<path fill="none" stroke="#191970" d="M972.8714,-21.8961C995.7124,-27.2374 1022.2953,-33.4537 1043.7893,-38.4799"/>
<polygon fill="#191970" stroke="#191970" points="973.5399,-18.4581 963.0056,-19.589 971.9459,-25.2742 973.5399,-18.4581"/>
</g>
<!-- Node333 -->
<g id="node30" class="node">
<title>Node333</title>
<g id="a_node30"><a xlink:href="resource_8c.html#ae1a91e254baca4f43b7896f54a8d9944" target="_top" xlink:title="coap_notify_observers">
<polygon fill="#ffffff" stroke="#000000" points="1180,-67.5 1180,-86.5 1295,-86.5 1295,-67.5 1180,-67.5"/>
<text text-anchor="middle" x="1237.5" y="-74.5" font-family="Helvetica,sans-Serif" font-size="10.00" fill="#000000">coap_notify_observers</text>
</a>
</g>
</g>
<!-- Node332&#45;&gt;Node333 -->
<g id="edge48" class="edge">
<title>Node332&#45;&gt;Node333</title>
<path fill="none" stroke="#191970" d="M1145.0538,-59.4775C1159.0508,-62.1305 1173.7931,-64.9248 1187.292,-67.4835"/>
<polygon fill="#191970" stroke="#191970" points="1145.4988,-55.9996 1135.0219,-57.5761 1144.1952,-62.8772 1145.4988,-55.9996"/>
</g>
<!-- Node334 -->
<g id="node31" class="node">
<title>Node334</title>
<g id="a_node31"><a xlink:href="resource_8h.html#a579bcb559463d3a872831c18d8d9a1c1" target="_top" xlink:title="Checks for all known resources, if they are dirty and notifies subscribed observers. ">
<polygon fill="#ffffff" stroke="#000000" points="1725,-93.5 1725,-112.5 1823,-112.5 1823,-93.5 1725,-93.5"/>
<text text-anchor="middle" x="1774" y="-100.5" font-family="Helvetica,sans-Serif" font-size="10.00" fill="#000000">coap_check_notify</text>
</a>
</g>
</g>
<!-- Node333&#45;&gt;Node334 -->
<g id="edge49" class="edge">
<title>Node333&#45;&gt;Node334</title>
<path fill="none" stroke="#191970" d="M1305.4543,-80.2932C1415.1565,-85.6096 1628.6842,-95.9577 1724.9036,-100.6207"/>
<polygon fill="#191970" stroke="#191970" points="1305.3273,-76.783 1295.1695,-79.7948 1304.9884,-83.7748 1305.3273,-76.783"/>
</g>
<!-- Node334&#45;&gt;Node311 -->
<g id="edge50" class="edge">
<title>Node334&#45;&gt;Node311</title>
<path fill="none" stroke="#191970" d="M1814.7397,-115.5353C1831.5405,-120.7048 1850.697,-126.5991 1866.3457,-131.4141"/>
<polygon fill="#191970" stroke="#191970" points="1815.7514,-112.1847 1805.1643,-112.589 1813.6927,-118.8752 1815.7514,-112.1847"/>
</g>
<!-- Node334&#45;&gt;Node313 -->
<g id="edge51" class="edge">
<title>Node334&#45;&gt;Node313</title>
<path fill="none" stroke="#191970" d="M1833.2663,-103C1841.9313,-103 1850.6616,-103 1858.7733,-103"/>
<polygon fill="#191970" stroke="#191970" points="1833.1654,-99.5001 1823.1653,-103 1833.1653,-106.5001 1833.1654,-99.5001"/>
</g>
<!-- Node335&#45;&gt;Node306 -->
<g id="edge56" class="edge">
<title>Node335&#45;&gt;Node306</title>
<path fill="none" stroke="#191970" d="M807.1751,-154.1441C874.0083,-160.3752 984.9851,-170.7219 1044.2621,-176.2485"/>
<polygon fill="#191970" stroke="#191970" points="807.1242,-150.6243 796.8424,-153.1808 806.4743,-157.5941 807.1242,-150.6243"/>
</g>
</g>
</svg>
        <g id="navigator" transform="translate(0 0)" fill="#404254">
                <rect fill="#f2f5e9" fill-opacity="0.5" stroke="#606060" stroke-width=".5" x="0" y="0" width="60" height="60"/>
                <use id="zoomplus" xlink:href="#zoomPlus" x="17" y="9" onmousedown="handleZoom(evt,'in')"/>
                <use id="zoomminus" xlink:href="#zoomMin" x="42" y="9" onmousedown="handleZoom(evt,'out')"/>
                <use id="reset" xlink:href="#resetDef" x="30" y="36" onmousedown="handleReset()"/>
                <g id="arrowUp" xlink:href="#dirArrow" transform="translate(30 24)" onmousedown="handlePan(0,-1)">
                  <use xlink:href="#rim" fill="#404040">
                        <set attributeName="fill" to="#808080" begin="arrowUp.mouseover" end="arrowUp.mouseout"/>
                  </use>
                  <path fill="none" stroke="white" stroke-width="1.5" d="M0,-3.0v7 M-2.5,-0.5L0,-3.0L2.5,-0.5"/>
                </g>
                <g id="arrowRight" xlink:href="#dirArrow" transform="rotate(90) translate(36 -43)" onmousedown="handlePan(1,0)">
                  <use xlink:href="#rim" fill="#404040">
                        <set attributeName="fill" to="#808080" begin="arrowRight.mouseover" end="arrowRight.mouseout"/>
                  </use>
                  <path fill="none" stroke="white" stroke-width="1.5" d="M0,-3.0v7 M-2.5,-0.5L0,-3.0L2.5,-0.5"/>
                </g>
                <g id="arrowDown" xlink:href="#dirArrow" transform="rotate(180) translate(-30 -48)" onmousedown="handlePan(0,1)">
                  <use xlink:href="#rim" fill="#404040">
                        <set attributeName="fill" to="#808080" begin="arrowDown.mouseover" end="arrowDown.mouseout"/>
                  </use>
                  <path fill="none" stroke="white" stroke-width="1.5" d="M0,-3.0v7 M-2.5,-0.5L0,-3.0L2.5,-0.5"/>
                </g>
                <g id="arrowLeft" xlink:href="#dirArrow" transform="rotate(270) translate(-36 17)" onmousedown="handlePan(-1,0)">
                  <use xlink:href="#rim" fill="#404040">
                        <set attributeName="fill" to="#808080" begin="arrowLeft.mouseover" end="arrowLeft.mouseout"/>
                  </use>
                  <path fill="none" stroke="white" stroke-width="1.5" d="M0,-3.0v7 M-2.5,-0.5L0,-3.0L2.5,-0.5"/>
                </g>
        </g>
        <svg viewBox="0 0 15 15" width="100%" height="30px" preserveAspectRatio="xMaxYMin meet">
         <g id="arrow_out" transform="scale(0.3 0.3)">
          <a xlink:href="group__opt__filter_gab52ba8be547297a36ac6535b24b36330_icgraph_org.svg" target="_base">
           <rect id="button" ry="5" rx="5" y="6" x="6" height="38" width="38"
                fill="#f2f5e9" fill-opacity="0.5" stroke="#606060" stroke-width="1.0"/>
           <path id="arrow"
             d="M 11.500037,31.436501 C 11.940474,20.09759 22.043105,11.32322 32.158766,21.979434 L 37.068811,17.246167 C 37.068811,17.246167 37.088388,32 37.088388,32 L 22.160133,31.978069 C 22.160133,31.978069 26.997745,27.140456 26.997745,27.140456 C 18.528582,18.264221 13.291696,25.230495 11.500037,31.436501 z"
             style="fill:#404040;"/>
          </a>
         </g>
        </svg>
</svg>
