<?xml version="1.0" encoding="UTF-8" standalone="no"?>
<!DOCTYPE svg PUBLIC "-//W3C//DTD SVG 1.1//EN"
 "http://www.w3.org/Graphics/SVG/1.1/DTD/svg11.dtd">
<!-- Generated by graphviz version 2.40.1 (20161225.0304)
 -->
<!-- Title: coap_option_filter_clear Pages: 1 -->
<!--zoomable 401 -->
<svg id="main" version="1.1" xmlns="http://www.w3.org/2000/svg" xmlns:xlink="http://www.w3.org/1999/xlink" xml:space="preserve" onload="init(evt)">
<style type="text/css"><![CDATA[
.edge:hover path { stroke: red; }
.edge:hover polygon { stroke: red; fill: red; }
]]></style>
<script type="text/javascript"><![CDATA[
var edges = document.getElementsByTagName('g');
if (edges && edges.length) {
  for (var i=0;i<edges.length;i++) {
    if (edges[i].id.substr(0,4)=='edge') {
      edges[i].setAttribute('class','edge');
    }
  }
}
]]></script>
        <defs>
                <circle id="rim" cx="0" cy="0" r="7"/>
                <circle id="rim2" cx="0" cy="0" r="3.5"/>
                <g id="zoomPlus">
                        <use xlink:href="#rim" fill="#404040">
                                <set attributeName="fill" to="#808080" begin="zoomplus.mouseover" end="zoomplus.mouseout"/>
                        </use>
                        <path d="M-4,0h8M0,-4v8" fill="none" stroke="white" stroke-width="1.5" pointer-events="none"/>
                </g>
                <g id="zoomMin">
                        <use xlink:href="#rim" fill="#404040">
                                <set attributeName="fill" to="#808080" begin="zoomminus.mouseover" end="zoomminus.mouseout"/>
                        </use>
                        <path d="M-4,0h8" fill="none" stroke="white" stroke-width="1.5" pointer-events="none"/>
                </g>
                <g id="dirArrow">
                        <path fill="none" stroke="white" stroke-width="1.5" d="M0,-3.0v7 M-2.5,-0.5L0,-3.0L2.5,-0.5"/>
                </g>
               <g id="resetDef">
                       <use xlink:href="#rim2" fill="#404040">
                               <set attributeName="fill" to="#808080" begin="reset.mouseover" end="reset.mouseout"/>
                       </use>
               </g>
        </defs>

<script type="text/javascript">
var viewWidth = 1668;
var viewHeight = 401;
var sectionId = 'dynsection-11';
</script>
<script xlink:href="svgpan.js"/>
<svg id="graph" class="graph">
<g id="viewport">
<title>coap_option_filter_clear</title>
<polygon fill="#ffffff" stroke="transparent" points="-4,4 -4,-396.5 1664,-396.5 1664,4 -4,4"/>
<!-- Node298 -->
<g id="node1" class="node">
<title>Node298</title>
<polygon fill="#bfbfbf" stroke="#000000" points="0,-109 0,-139 93,-139 93,-109 0,-109"/>
<text text-anchor="start" x="8" y="-127" font-family="Helvetica,sans-Serif" font-size="10.00" fill="#000000">coap_option_filter</text>
<text text-anchor="middle" x="46.5" y="-116" font-family="Helvetica,sans-Serif" font-size="10.00" fill="#000000">_clear</text>
</g>
<!-- Node299 -->
<g id="node2" class="node">
<title>Node299</title>
<g id="a_node2"><a xlink:href="net_8c.html#a1a280312c4bad55cf10243b9b9c3e966" target="_top" xlink:title="handle_request">
<polygon fill="#ffffff" stroke="#000000" points="565.5,-171.5 565.5,-190.5 648.5,-190.5 648.5,-171.5 565.5,-171.5"/>
<text text-anchor="middle" x="607" y="-178.5" font-family="Helvetica,sans-Serif" font-size="10.00" fill="#000000">handle_request</text>
</a>
</g>
</g>
<!-- Node298&#45;&gt;Node299 -->
<g id="edge1" class="edge">
<title>Node298&#45;&gt;Node299</title>
<path fill="none" stroke="#191970" d="M103.4909,-129.7957C216.415,-141.2795 466.2168,-166.6831 565.315,-176.7609"/>
<polygon fill="#191970" stroke="#191970" points="103.6267,-126.2915 93.3239,-128.7617 102.9184,-133.2556 103.6267,-126.2915"/>
</g>
<!-- Node311 -->
<g id="node14" class="node">
<title>Node311</title>
<g id="a_node14"><a xlink:href="group__opt__filter.html#gad4162a3db83918ae0e4f47b4b3aa523d" target="_top" xlink:title="Retrieves the first option of type type from pdu. ">
<polygon fill="#ffffff" stroke="#000000" points="129,-209.5 129,-228.5 230,-228.5 230,-209.5 129,-209.5"/>
<text text-anchor="middle" x="179.5" y="-216.5" font-family="Helvetica,sans-Serif" font-size="10.00" fill="#000000">coap_check_option</text>
</a>
</g>
</g>
<!-- Node298&#45;&gt;Node311 -->
<g id="edge20" class="edge">
<title>Node298&#45;&gt;Node311</title>
<path fill="none" stroke="#191970" d="M75.8088,-144.9348C103.7998,-164.9285 144.7488,-194.1777 165.8336,-209.2383"/>
<polygon fill="#191970" stroke="#191970" points="77.7459,-142.0174 67.5742,-139.053 73.6773,-147.7135 77.7459,-142.0174"/>
</g>
<!-- Node317 -->
<g id="node20" class="node">
<title>Node317</title>
<g id="a_node20"><a xlink:href="uri_8c.html#a15cc296560619b6f9b80d9005a000167" target="_top" xlink:title="coap_get_query">
<polygon fill="#ffffff" stroke="#000000" points="266,-95.5 266,-114.5 352,-114.5 352,-95.5 266,-95.5"/>
<text text-anchor="middle" x="309" y="-102.5" font-family="Helvetica,sans-Serif" font-size="10.00" fill="#000000">coap_get_query</text>
</a>
</g>
</g>
<!-- Node298&#45;&gt;Node317 -->
<g id="edge33" class="edge">
<title>Node298&#45;&gt;Node317</title>
<path fill="none" stroke="#191970" d="M103.2169,-119.8948C152.0403,-116.3609 221.4461,-111.3372 265.8533,-108.123"/>
<polygon fill="#191970" stroke="#191970" points="102.8485,-116.4122 93.1273,-120.6251 103.3539,-123.3939 102.8485,-116.4122"/>
</g>
<!-- Node318 -->
<g id="node21" class="node">
<title>Node318</title>
<g id="a_node21"><a xlink:href="uri_8c.html#a062095681104f3175b8265e240989ade" target="_top" xlink:title="coap_get_uri_path">
<polygon fill="#ffffff" stroke="#000000" points="131.5,-57.5 131.5,-76.5 227.5,-76.5 227.5,-57.5 131.5,-57.5"/>
<text text-anchor="middle" x="179.5" y="-64.5" font-family="Helvetica,sans-Serif" font-size="10.00" fill="#000000">coap_get_uri_path</text>
</a>
</g>
</g>
<!-- Node298&#45;&gt;Node318 -->
<g id="edge35" class="edge">
<title>Node298&#45;&gt;Node318</title>
<path fill="none" stroke="#191970" d="M91.03,-104.9157C113.1862,-95.4202 139.008,-84.3537 157.0148,-76.6365"/>
<polygon fill="#191970" stroke="#191970" points="89.6051,-101.7184 81.7924,-108.8747 92.3626,-108.1525 89.6051,-101.7184"/>
</g>
<!-- Node300 -->
<g id="node3" class="node">
<title>Node300</title>
<g id="a_node3"><a xlink:href="net_8h.html#a7bb944fc52f772655356d95724317401" target="_top" xlink:title="Dispatches the PDUs from the receive queue in given context. ">
<polygon fill="#ffffff" stroke="#000000" points="692,-171.5 692,-190.5 772,-190.5 772,-171.5 692,-171.5"/>
<text text-anchor="middle" x="732" y="-178.5" font-family="Helvetica,sans-Serif" font-size="10.00" fill="#000000">coap_dispatch</text>
</a>
</g>
</g>
<!-- Node299&#45;&gt;Node300 -->
<g id="edge2" class="edge">
<title>Node299&#45;&gt;Node300</title>
<path fill="none" stroke="#191970" d="M658.6263,-181C669.708,-181 681.2602,-181 691.8312,-181"/>
<polygon fill="#191970" stroke="#191970" points="658.6232,-177.5001 648.6232,-181 658.6232,-184.5001 658.6232,-177.5001"/>
</g>
<!-- Node301 -->
<g id="node4" class="node">
<title>Node301</title>
<g id="a_node4"><a xlink:href="net_8c.html#acd36f6fba6d30ab9557e0e6521f4a088" target="_top" xlink:title="coap_read_session">
<polygon fill="#ffffff" stroke="#000000" points="1105.5,-86.5 1105.5,-105.5 1206.5,-105.5 1206.5,-86.5 1105.5,-86.5"/>
<text text-anchor="middle" x="1156" y="-93.5" font-family="Helvetica,sans-Serif" font-size="10.00" fill="#000000">coap_read_session</text>
</a>
</g>
</g>
<!-- Node300&#45;&gt;Node301 -->
<g id="edge3" class="edge">
<title>Node300&#45;&gt;Node301</title>
<path fill="none" stroke="#191970" d="M765.6065,-167.8337C807.5785,-151.997 881.9201,-125.9328 948,-113 1000.9798,-102.6311 1062.75,-98.5733 1105.1305,-96.9927"/>
<polygon fill="#191970" stroke="#191970" points="764.256,-164.6028 756.157,-171.4333 766.7479,-171.1442 764.256,-164.6028"/>
</g>
<!-- Node306 -->
<g id="node9" class="node">
<title>Node306</title>
<g id="a_node9"><a xlink:href="net_8h.html#a5854b1394bfddd574e48af116e3aaaf9" target="_top" xlink:title="Sends an RST message with code 0 for the specified request to dst. ">
<polygon fill="#ffffff" stroke="#000000" points="1578.5,-152.5 1578.5,-171.5 1658.5,-171.5 1658.5,-152.5 1578.5,-152.5"/>
<text text-anchor="middle" x="1618.5" y="-159.5" font-family="Helvetica,sans-Serif" font-size="10.00" fill="#000000">coap_send_rst</text>
</a>
</g>
</g>
<!-- Node300&#45;&gt;Node306 -->
<g id="edge19" class="edge">
<title>Node300&#45;&gt;Node306</title>
<path fill="none" stroke="#191970" d="M775.3389,-193.0278C785.9557,-195.643 797.3337,-198.1707 808,-200 896.0043,-215.0927 918.7109,-219 1008,-219 1008,-219 1008,-219 1385,-219 1464.0756,-219 1554.0279,-187.767 1595.425,-171.5405"/>
<polygon fill="#191970" stroke="#191970" points="775.9951,-189.5834 765.4412,-190.5135 774.2716,-196.3679 775.9951,-189.5834"/>
</g>
<!-- Node308 -->
<g id="node11" class="node">
<title>Node308</title>
<g id="a_node11"><a xlink:href="net_8h.html#ae6b8ca457dd41f23372f9e9a7159312b" target="_top" xlink:title="Parses and interprets a CoAP datagram with context ctx. ">
<polygon fill="#ffffff" stroke="#000000" points="808,-171.5 808,-190.5 912,-190.5 912,-171.5 808,-171.5"/>
<text text-anchor="middle" x="860" y="-178.5" font-family="Helvetica,sans-Serif" font-size="10.00" fill="#000000">coap_handle_dgram</text>
</a>
</g>
</g>
<!-- Node300&#45;&gt;Node308 -->
<g id="edge13" class="edge">
<title>Node300&#45;&gt;Node308</title>
<path fill="none" stroke="#191970" d="M782.1883,-181C790.5884,-181 799.3218,-181 807.7716,-181"/>
<polygon fill="#191970" stroke="#191970" points="782.1488,-177.5001 772.1488,-181 782.1488,-184.5001 782.1488,-177.5001"/>
</g>
<!-- Node302 -->
<g id="node5" class="node">
<title>Node302</title>
<g id="a_node5"><a xlink:href="net_8h.html#a0748d791fd2af516dd93fbadb660d440" target="_top" xlink:title="For applications with their own message loop, reads all data from the network. ">
<polygon fill="#ffffff" stroke="#000000" points="1244,-86.5 1244,-105.5 1306,-105.5 1306,-86.5 1244,-86.5"/>
<text text-anchor="middle" x="1275" y="-93.5" font-family="Helvetica,sans-Serif" font-size="10.00" fill="#000000">coap_read</text>
</a>
</g>
</g>
<!-- Node301&#45;&gt;Node302 -->
<g id="edge4" class="edge">
<title>Node301&#45;&gt;Node302</title>
<path fill="none" stroke="#191970" d="M1216.949,-96C1226.3142,-96 1235.6315,-96 1243.9721,-96"/>
<polygon fill="#191970" stroke="#191970" points="1216.8119,-92.5001 1206.8119,-96 1216.8119,-99.5001 1216.8119,-92.5001"/>
</g>
<!-- Node303 -->
<g id="node6" class="node">
<title>Node303</title>
<g id="a_node6"><a xlink:href="coap__io_8c.html#a75a7c93e10ca7858449ba304aad4ea37" target="_top" xlink:title="coap_run_once">
<polygon fill="#ffffff" stroke="#000000" points="1577,-.5 1577,-19.5 1660,-19.5 1660,-.5 1577,-.5"/>
<text text-anchor="middle" x="1618.5" y="-7.5" font-family="Helvetica,sans-Serif" font-size="10.00" fill="#000000">coap_run_once</text>
</a>
</g>
</g>
<!-- Node302&#45;&gt;Node303 -->
<g id="edge5" class="edge">
<title>Node302&#45;&gt;Node303</title>
<path fill="none" stroke="#191970" d="M1298.7599,-80.8987C1333.4461,-59.8778 1400.7208,-22.9233 1464,-10 1501.5811,-2.325 1545.3852,-3.2244 1576.7338,-5.5138"/>
<polygon fill="#191970" stroke="#191970" points="1296.5512,-78.1484 1289.8711,-86.372 1300.2215,-84.109 1296.5512,-78.1484"/>
</g>
<!-- Node304 -->
<g id="node7" class="node">
<title>Node304</title>
<g id="a_node7"><a xlink:href="net_8h.html#a9900c032b74bd57f67d489484a2b3207" target="_top" xlink:title="Handles retransmissions of confirmable messages. ">
<polygon fill="#ffffff" stroke="#000000" points="1342,-71.5 1342,-90.5 1428,-90.5 1428,-71.5 1342,-71.5"/>
<text text-anchor="middle" x="1385" y="-78.5" font-family="Helvetica,sans-Serif" font-size="10.00" fill="#000000">coap_retransmit</text>
</a>
</g>
</g>
<!-- Node302&#45;&gt;Node304 -->
<g id="edge6" class="edge">
<title>Node302&#45;&gt;Node304</title>
<path fill="none" stroke="#191970" d="M1316.1522,-90.3883C1324.5214,-89.2471 1333.3482,-88.0434 1341.7866,-86.8927"/>
<polygon fill="#191970" stroke="#191970" points="1315.6627,-86.9226 1306.2274,-91.7417 1316.6086,-93.8584 1315.6627,-86.9226"/>
</g>
<!-- Node302&#45;&gt;Node306 -->
<g id="edge12" class="edge">
<title>Node302&#45;&gt;Node306</title>
<path fill="none" stroke="#191970" d="M1316.184,-103.9131C1382.6041,-116.675 1512.5659,-141.6459 1578.3317,-154.2821"/>
<polygon fill="#191970" stroke="#191970" points="1316.57,-100.4233 1306.0892,-101.9735 1315.2491,-107.2976 1316.57,-100.4233"/>
</g>
<!-- Node305 -->
<g id="node8" class="node">
<title>Node305</title>
<g id="a_node8"><a xlink:href="net_8h.html#aaac86ac50793f309678e4951ecf8863f" target="_top" xlink:title="For applications with their own message loop, send all pending retransmits and return the list of soc...">
<polygon fill="#ffffff" stroke="#000000" points="1470.5,-19.5 1470.5,-38.5 1534.5,-38.5 1534.5,-19.5 1470.5,-19.5"/>
<text text-anchor="middle" x="1502.5" y="-26.5" font-family="Helvetica,sans-Serif" font-size="10.00" fill="#000000">coap_write</text>
</a>
</g>
</g>
<!-- Node304&#45;&gt;Node305 -->
<g id="edge7" class="edge">
<title>Node304&#45;&gt;Node305</title>
<path fill="none" stroke="#191970" d="M1415.7454,-67.3935C1436.1441,-58.366 1462.4226,-46.7364 1480.6874,-38.6532"/>
<polygon fill="#191970" stroke="#191970" points="1414.2794,-64.2148 1406.5513,-71.4624 1417.1123,-70.616 1414.2794,-64.2148"/>
</g>
<!-- Node304&#45;&gt;Node306 -->
<g id="edge11" class="edge">
<title>Node304&#45;&gt;Node306</title>
<path fill="none" stroke="#191970" d="M1429.5103,-93.358C1460.9415,-102.4088 1503.8978,-115.4345 1541,-129 1560.5031,-136.1308 1582.215,-145.5043 1597.6847,-152.4384"/>
<polygon fill="#191970" stroke="#191970" points="1430.3092,-89.9463 1419.7324,-90.5635 1428.3856,-96.6768 1430.3092,-89.9463"/>
</g>
<!-- Node307 -->
<g id="node10" class="node">
<title>Node307</title>
<g id="a_node10"><a xlink:href="libcoap_8h.html#a5d1fb0b44497970b0f75fa0b38570a82" target="_top" xlink:title="coap_cleanup">
<polygon fill="#ffffff" stroke="#000000" points="1464,-57.5 1464,-76.5 1541,-76.5 1541,-57.5 1464,-57.5"/>
<text text-anchor="middle" x="1502.5" y="-64.5" font-family="Helvetica,sans-Serif" font-size="10.00" fill="#000000">coap_cleanup</text>
</a>
</g>
</g>
<!-- Node304&#45;&gt;Node307 -->
<g id="edge10" class="edge">
<title>Node304&#45;&gt;Node307</title>
<path fill="none" stroke="#191970" d="M1438.0879,-74.6746C1446.7111,-73.6472 1455.4986,-72.6002 1463.6979,-71.6232"/>
<polygon fill="#191970" stroke="#191970" points="1437.6011,-71.2078 1428.0855,-75.8664 1438.4294,-78.1586 1437.6011,-71.2078"/>
</g>
<!-- Node305&#45;&gt;Node303 -->
<g id="edge8" class="edge">
<title>Node305&#45;&gt;Node303</title>
<path fill="none" stroke="#191970" d="M1544.6193,-22.1012C1555.036,-20.395 1566.1933,-18.5675 1576.5996,-16.863"/>
<polygon fill="#191970" stroke="#191970" points="1543.8073,-18.6874 1534.5046,-23.7579 1544.9388,-25.5954 1543.8073,-18.6874"/>
</g>
<!-- Node305&#45;&gt;Node306 -->
<g id="edge9" class="edge">
<title>Node305&#45;&gt;Node306</title>
<path fill="none" stroke="#191970" d="M1535.5819,-43.8383C1537.4853,-45.1416 1539.3096,-46.5291 1541,-48 1576.9271,-79.2628 1603.8292,-130.8077 1614.0279,-152.2115"/>
<polygon fill="#191970" stroke="#191970" points="1537.2819,-40.7771 1526.8997,-38.665 1533.6988,-46.7905 1537.2819,-40.7771"/>
</g>
<!-- Node308&#45;&gt;Node306 -->
<g id="edge18" class="edge">
<title>Node308&#45;&gt;Node306</title>
<path fill="none" stroke="#191970" d="M922.1851,-181C982.0814,-181 1075.2381,-181 1156,-181 1156,-181 1156,-181 1385,-181 1452.9225,-181 1531.5939,-172.9145 1578.0856,-167.2926"/>
<polygon fill="#191970" stroke="#191970" points="922.1327,-177.5001 912.1326,-181 922.1326,-184.5001 922.1327,-177.5001"/>
</g>
<!-- Node309 -->
<g id="node12" class="node">
<title>Node309</title>
<g id="a_node12"><a xlink:href="net_8c.html#a8534f7860b14e0743529daff196a27ce" target="_top" xlink:title="coap_handle_dgram_for\l_proto">
<polygon fill="#ffffff" stroke="#000000" points="948,-122 948,-152 1068,-152 1068,-122 948,-122"/>
<text text-anchor="start" x="956" y="-140" font-family="Helvetica,sans-Serif" font-size="10.00" fill="#000000">coap_handle_dgram_for</text>
<text text-anchor="middle" x="1008" y="-129" font-family="Helvetica,sans-Serif" font-size="10.00" fill="#000000">_proto</text>
</a>
</g>
</g>
<!-- Node308&#45;&gt;Node309 -->
<g id="edge14" class="edge">
<title>Node308&#45;&gt;Node309</title>
<path fill="none" stroke="#191970" d="M901.8949,-168.5447C919.1371,-163.4187 939.2639,-157.4351 957.3256,-152.0654"/>
<polygon fill="#191970" stroke="#191970" points="900.7017,-165.248 892.1138,-171.4527 902.6966,-171.9578 900.7017,-165.248"/>
</g>
<!-- Node309&#45;&gt;Node301 -->
<g id="edge15" class="edge">
<title>Node309&#45;&gt;Node301</title>
<path fill="none" stroke="#191970" d="M1072.151,-119.2284C1089.1191,-114.5278 1106.7905,-109.6324 1121.5107,-105.5545"/>
<polygon fill="#191970" stroke="#191970" points="1070.972,-115.9232 1062.2693,-121.9659 1072.8408,-122.6691 1070.972,-115.9232"/>
</g>
<!-- Node310 -->
<g id="node13" class="node">
<title>Node310</title>
<g id="a_node13"><a xlink:href="net_8c.html#a44ffb4b70e537043e9a9cf344be24b92" target="_top" xlink:title="coap_read_endpoint">
<polygon fill="#ffffff" stroke="#000000" points="1104,-126.5 1104,-145.5 1208,-145.5 1208,-126.5 1104,-126.5"/>
<text text-anchor="middle" x="1156" y="-133.5" font-family="Helvetica,sans-Serif" font-size="10.00" fill="#000000">coap_read_endpoint</text>
</a>
</g>
</g>
<!-- Node309&#45;&gt;Node310 -->
<g id="edge16" class="edge">
<title>Node309&#45;&gt;Node310</title>
<path fill="none" stroke="#191970" d="M1078.2786,-136.5251C1086.917,-136.4668 1095.6233,-136.408 1103.9248,-136.3519"/>
<polygon fill="#191970" stroke="#191970" points="1078.1734,-133.0257 1068.1973,-136.5933 1078.2207,-140.0255 1078.1734,-133.0257"/>
</g>
<!-- Node310&#45;&gt;Node302 -->
<g id="edge17" class="edge">
<title>Node310&#45;&gt;Node302</title>
<path fill="none" stroke="#191970" d="M1194.1899,-123.1631C1211.2571,-117.4262 1231.0197,-110.7833 1246.7291,-105.5028"/>
<polygon fill="#191970" stroke="#191970" points="1192.8671,-119.9152 1184.5035,-126.419 1195.0975,-126.5504 1192.8671,-119.9152"/>
</g>
<!-- Node311&#45;&gt;Node299 -->
<g id="edge32" class="edge">
<title>Node311&#45;&gt;Node299</title>
<path fill="none" stroke="#191970" d="M240.3161,-216.4538C308.9161,-213.1835 423.7354,-206.5098 522,-195 536.1115,-193.3471 551.455,-190.993 565.1729,-188.6858"/>
<polygon fill="#191970" stroke="#191970" points="239.9508,-212.967 230.1253,-216.9307 240.2781,-219.9593 239.9508,-212.967"/>
</g>
<!-- Node312 -->
<g id="node15" class="node">
<title>Node312</title>
<g id="a_node15"><a xlink:href="group__block.html#ga714d943bd85123de1b8b6f86ec204a69" target="_top" xlink:title="Initializes block from pdu. ">
<polygon fill="#ffffff" stroke="#000000" points="266.5,-285.5 266.5,-304.5 351.5,-304.5 351.5,-285.5 266.5,-285.5"/>
<text text-anchor="middle" x="309" y="-292.5" font-family="Helvetica,sans-Serif" font-size="10.00" fill="#000000">coap_get_block</text>
</a>
</g>
</g>
<!-- Node311&#45;&gt;Node312 -->
<g id="edge21" class="edge">
<title>Node311&#45;&gt;Node312</title>
<path fill="none" stroke="#191970" d="M203.9018,-233.9554C221.1615,-244.4631 244.8934,-258.7698 266,-271 274.2849,-275.8007 283.551,-280.9945 291.3539,-285.3186"/>
<polygon fill="#191970" stroke="#191970" points="205.3962,-230.7671 195.0368,-228.5459 201.7499,-236.7425 205.3962,-230.7671"/>
</g>
<!-- Node315 -->
<g id="node18" class="node">
<title>Node315</title>
<g id="a_node18"><a xlink:href="net_8h.html#a69ff8481c32707b77813c051fc42dedd" target="_top" xlink:title="Creates a new response for given request with the contents of .well&#45;known/core. ">
<polygon fill="#ffffff" stroke="#000000" points="388,-247.5 388,-266.5 522,-266.5 522,-247.5 388,-247.5"/>
<text text-anchor="middle" x="455" y="-254.5" font-family="Helvetica,sans-Serif" font-size="10.00" fill="#000000">coap_wellknown_response</text>
</a>
</g>
</g>
<!-- Node311&#45;&gt;Node315 -->
<g id="edge29" class="edge">
<title>Node311&#45;&gt;Node315</title>
<path fill="none" stroke="#191970" d="M240.2615,-229.1026C248.8944,-230.4597 257.6671,-231.7969 266,-233 306.266,-238.8134 351.4696,-244.5808 387.5706,-249.0045"/>
<polygon fill="#191970" stroke="#191970" points="240.6517,-225.6208 230.2262,-227.5072 239.5526,-232.534 240.6517,-225.6208"/>
</g>
<!-- Node316 -->
<g id="node19" class="node">
<title>Node316</title>
<g id="a_node19"><a xlink:href="net_8c.html#aa708f479d33a6ca76bf214a0e0e42de4" target="_top" xlink:title="Checks for No&#45;Response option in given request and returns 1 if response should be suppressed accordi...">
<polygon fill="#ffffff" stroke="#000000" points="273,-171.5 273,-190.5 345,-190.5 345,-171.5 273,-171.5"/>
<text text-anchor="middle" x="309" y="-178.5" font-family="Helvetica,sans-Serif" font-size="10.00" fill="#000000">no_response</text>
</a>
</g>
</g>
<!-- Node311&#45;&gt;Node316 -->
<g id="edge30" class="edge">
<title>Node311&#45;&gt;Node316</title>
<path fill="none" stroke="#191970" d="M222.219,-206.4647C239.836,-201.2952 259.9232,-195.4009 276.3321,-190.5859"/>
<polygon fill="#191970" stroke="#191970" points="220.7882,-203.2369 212.1783,-209.411 222.7592,-209.9537 220.7882,-203.2369"/>
</g>
<!-- Node312&#45;&gt;Node299 -->
<g id="edge28" class="edge">
<title>Node312&#45;&gt;Node299</title>
<path fill="none" stroke="#191970" d="M362.0318,-300.7305C406.9981,-303.2224 471.9711,-301.0948 522,-276 560.9705,-256.4522 590.2981,-210.7327 601.7464,-190.6972"/>
<polygon fill="#191970" stroke="#191970" points="362.1104,-297.2283 351.9045,-300.0727 361.6566,-304.2136 362.1104,-297.2283"/>
</g>
<!-- Node313 -->
<g id="node16" class="node">
<title>Node313</title>
<g id="a_node16"><a xlink:href="group__block.html#ga38c1e9829062e3e2ce621641f1ae59c5" target="_top" xlink:title="Adds the appropriate part of data to the response pdu. ">
<polygon fill="#ffffff" stroke="#000000" points="394,-362 394,-392 516,-392 516,-362 394,-362"/>
<text text-anchor="start" x="402" y="-380" font-family="Helvetica,sans-Serif" font-size="10.00" fill="#000000">coap_add_data_blocked</text>
<text text-anchor="middle" x="455" y="-369" font-family="Helvetica,sans-Serif" font-size="10.00" fill="#000000">_response</text>
</a>
</g>
</g>
<!-- Node312&#45;&gt;Node313 -->
<g id="edge22" class="edge">
<title>Node312&#45;&gt;Node313</title>
<path fill="none" stroke="#191970" d="M330.4002,-310.4446C345.9707,-321.3412 367.7807,-335.913 388,-347 397.6105,-352.2698 408.3252,-357.3845 418.3176,-361.8537"/>
<polygon fill="#191970" stroke="#191970" points="332.1971,-307.4284 322.0128,-304.5076 328.1528,-313.1419 332.1971,-307.4284"/>
</g>
<!-- Node314 -->
<g id="node17" class="node">
<title>Node314</title>
<g id="a_node17"><a xlink:href="group__block.html#gaa67d14fa889f79afee9762dab7fc83e4" target="_top" xlink:title="Checks if more than num blocks are required to deliver data_len bytes of data for a block size of 1 &lt;...">
<polygon fill="#ffffff" stroke="#000000" points="558,-345.5 558,-364.5 656,-364.5 656,-345.5 558,-345.5"/>
<text text-anchor="middle" x="607" y="-352.5" font-family="Helvetica,sans-Serif" font-size="10.00" fill="#000000">coap_more_blocks</text>
</a>
</g>
</g>
<!-- Node312&#45;&gt;Node314 -->
<g id="edge24" class="edge">
<title>Node312&#45;&gt;Node314</title>
<path fill="none" stroke="#191970" d="M361.7866,-305.6282C417.8909,-316.9243 505.7932,-334.6228 559.7077,-345.4781"/>
<polygon fill="#191970" stroke="#191970" points="362.1903,-302.1393 351.6961,-303.5965 360.8085,-309.0016 362.1903,-302.1393"/>
</g>
<!-- Node312&#45;&gt;Node315 -->
<g id="edge25" class="edge">
<title>Node312&#45;&gt;Node315</title>
<path fill="none" stroke="#191970" d="M355.536,-282.8879C375.8696,-277.5956 399.3713,-271.4787 418.423,-266.5201"/>
<polygon fill="#191970" stroke="#191970" points="354.6379,-279.5049 345.842,-285.411 356.4012,-286.2793 354.6379,-279.5049"/>
</g>
<!-- Node313&#45;&gt;Node314 -->
<g id="edge23" class="edge">
<title>Node313&#45;&gt;Node314</title>
<path fill="none" stroke="#191970" d="M526.5341,-366.6464C537.1847,-365.1048 547.9527,-363.5463 557.9975,-362.0925"/>
<polygon fill="#191970" stroke="#191970" points="525.7816,-363.2187 516.3861,-368.1152 526.7843,-370.1466 525.7816,-363.2187"/>
</g>
<!-- Node315&#45;&gt;Node299 -->
<g id="edge26" class="edge">
<title>Node315&#45;&gt;Node299</title>
<path fill="none" stroke="#191970" d="M495.3561,-244.0571C504.2728,-240.7817 513.5703,-237.0357 522,-233 548.3698,-220.3757 576.9668,-201.7575 593.3582,-190.561"/>
<polygon fill="#191970" stroke="#191970" points="494.1422,-240.774 485.8893,-247.4178 496.484,-247.3706 494.1422,-240.774"/>
</g>
<!-- Node315&#45;&gt;Node306 -->
<g id="edge27" class="edge">
<title>Node315&#45;&gt;Node306</title>
<path fill="none" stroke="#191970" d="M532.2892,-257C587.8477,-257 664.544,-257 732,-257 732,-257 732,-257 1385,-257 1456.919,-257 1475.6271,-243.9789 1541,-214 1566.185,-202.4506 1592.3036,-183.129 1606.8714,-171.5715"/>
<polygon fill="#191970" stroke="#191970" points="532.1682,-253.5001 522.1681,-257 532.1681,-260.5001 532.1682,-253.5001"/>
</g>
<!-- Node316&#45;&gt;Node299 -->
<g id="edge31" class="edge">
<title>Node316&#45;&gt;Node299</title>
<path fill="none" stroke="#191970" d="M355.5026,-181C413.0151,-181 510.0592,-181 565.2739,-181"/>
<polygon fill="#191970" stroke="#191970" points="355.2428,-177.5001 345.2427,-181 355.2427,-184.5001 355.2428,-177.5001"/>
</g>
<!-- Node317&#45;&gt;Node299 -->
<g id="edge34" class="edge">
<title>Node317&#45;&gt;Node299</title>
<path fill="none" stroke="#191970" d="M362.4054,-104.6498C406.355,-105.8519 469.7003,-111.0502 522,-129 550.4707,-138.7715 579.5069,-159.2826 595.1872,-171.4199"/>
<polygon fill="#191970" stroke="#191970" points="362.2972,-101.1468 352.225,-104.4332 362.1482,-108.1452 362.2972,-101.1468"/>
</g>
<!-- Node318&#45;&gt;Node299 -->
<g id="edge36" class="edge">
<title>Node318&#45;&gt;Node299</title>
<path fill="none" stroke="#191970" d="M237.7224,-61.7152C308.316,-57.7348 429.3381,-58.8365 522,-101 557.2303,-117.0307 587.2062,-153.6731 600.157,-171.247"/>
<polygon fill="#191970" stroke="#191970" points="237.4475,-58.2254 227.6822,-62.335 237.8789,-65.2121 237.4475,-58.2254"/>
</g>
</g>
</svg>
        <g id="navigator" transform="translate(0 0)" fill="#404254">
                <rect fill="#f2f5e9" fill-opacity="0.5" stroke="#606060" stroke-width=".5" x="0" y="0" width="60" height="60"/>
                <use id="zoomplus" xlink:href="#zoomPlus" x="17" y="9" onmousedown="handleZoom(evt,'in')"/>
                <use id="zoomminus" xlink:href="#zoomMin" x="42" y="9" onmousedown="handleZoom(evt,'out')"/>
                <use id="reset" xlink:href="#resetDef" x="30" y="36" onmousedown="handleReset()"/>
                <g id="arrowUp" xlink:href="#dirArrow" transform="translate(30 24)" onmousedown="handlePan(0,-1)">
                  <use xlink:href="#rim" fill="#404040">
                        <set attributeName="fill" to="#808080" begin="arrowUp.mouseover" end="arrowUp.mouseout"/>
                  </use>
                  <path fill="none" stroke="white" stroke-width="1.5" d="M0,-3.0v7 M-2.5,-0.5L0,-3.0L2.5,-0.5"/>
                </g>
                <g id="arrowRight" xlink:href="#dirArrow" transform="rotate(90) translate(36 -43)" onmousedown="handlePan(1,0)">
                  <use xlink:href="#rim" fill="#404040">
                        <set attributeName="fill" to="#808080" begin="arrowRight.mouseover" end="arrowRight.mouseout"/>
                  </use>
                  <path fill="none" stroke="white" stroke-width="1.5" d="M0,-3.0v7 M-2.5,-0.5L0,-3.0L2.5,-0.5"/>
                </g>
                <g id="arrowDown" xlink:href="#dirArrow" transform="rotate(180) translate(-30 -48)" onmousedown="handlePan(0,1)">
                  <use xlink:href="#rim" fill="#404040">
                        <set attributeName="fill" to="#808080" begin="arrowDown.mouseover" end="arrowDown.mouseout"/>
                  </use>
                  <path fill="none" stroke="white" stroke-width="1.5" d="M0,-3.0v7 M-2.5,-0.5L0,-3.0L2.5,-0.5"/>
                </g>
                <g id="arrowLeft" xlink:href="#dirArrow" transform="rotate(270) translate(-36 17)" onmousedown="handlePan(-1,0)">
                  <use xlink:href="#rim" fill="#404040">
                        <set attributeName="fill" to="#808080" begin="arrowLeft.mouseover" end="arrowLeft.mouseout"/>
                  </use>
                  <path fill="none" stroke="white" stroke-width="1.5" d="M0,-3.0v7 M-2.5,-0.5L0,-3.0L2.5,-0.5"/>
                </g>
        </g>
        <svg viewBox="0 0 15 15" width="100%" height="30px" preserveAspectRatio="xMaxYMin meet">
         <g id="arrow_out" transform="scale(0.3 0.3)">
          <a xlink:href="group__opt__filter_ga883885e793388359ef93d195bdbb4c2c_icgraph_org.svg" target="_base">
           <rect id="button" ry="5" rx="5" y="6" x="6" height="38" width="38"
                fill="#f2f5e9" fill-opacity="0.5" stroke="#606060" stroke-width="1.0"/>
           <path id="arrow"
             d="M 11.500037,31.436501 C 11.940474,20.09759 22.043105,11.32322 32.158766,21.979434 L 37.068811,17.246167 C 37.068811,17.246167 37.088388,32 37.088388,32 L 22.160133,31.978069 C 22.160133,31.978069 26.997745,27.140456 26.997745,27.140456 C 18.528582,18.264221 13.291696,25.230495 11.500037,31.436501 z"
             style="fill:#404040;"/>
          </a>
         </g>
        </svg>
</svg>
