<?xml version="1.0" encoding="UTF-8" standalone="no"?>
<!DOCTYPE svg PUBLIC "-//W3C//DTD SVG 1.1//EN"
 "http://www.w3.org/Graphics/SVG/1.1/DTD/svg11.dtd">
<!-- Generated by graphviz version 2.40.1 (20161225.0304)
 -->
<!-- Title: coap_option_filter_set Pages: 1 -->
<svg width="1857pt" height="467pt"
 viewBox="0.00 0.00 1857.00 467.33" xmlns="http://www.w3.org/2000/svg" xmlns:xlink="http://www.w3.org/1999/xlink">
<g id="graph0" class="graph" transform="scale(1 1) rotate(0) translate(4 463.3326)">
<title>coap_option_filter_set</title>
<polygon fill="#ffffff" stroke="transparent" points="-4,4 -4,-463.3326 1853,-463.3326 1853,4 -4,4"/>
<!-- Node378 -->
<g id="node1" class="node">
<title>Node378</title>
<polygon fill="#bfbfbf" stroke="#000000" points="0,-339.5 0,-358.5 112,-358.5 112,-339.5 0,-339.5"/>
<text text-anchor="middle" x="56" y="-346.5" font-family="Helvetica,sans-Serif" font-size="10.00" fill="#000000">coap_option_filter_set</text>
</g>
<!-- Node379 -->
<g id="node2" class="node">
<title>Node379</title>
<g id="a_node2"><a xlink:href="net_8h.html#a9c6736c0418c3adf5e7f6fb76f000cfe" target="_top" xlink:title="Verifies that pdu contains no unknown critical options. ">
<polygon fill="#ffffff" stroke="#000000" points="711,-82.5 711,-101.5 845,-101.5 845,-82.5 711,-82.5"/>
<text text-anchor="middle" x="778" y="-89.5" font-family="Helvetica,sans-Serif" font-size="10.00" fill="#000000">coap_option_check_critical</text>
</a>
</g>
</g>
<!-- Node378&#45;&gt;Node379 -->
<g id="edge1" class="edge">
<title>Node378&#45;&gt;Node379</title>
<path fill="none" stroke="#191970" d="M64.7817,-329.8506C93.5744,-270.2479 191.3168,-92 330.5,-92 330.5,-92 330.5,-92 462.5,-92 548.2218,-92 647.0446,-92 710.9143,-92"/>
<polygon fill="#191970" stroke="#191970" points="61.4534,-328.7022 60.3471,-339.2391 67.7828,-331.6919 61.4534,-328.7022"/>
</g>
<!-- Node391 -->
<g id="node14" class="node">
<title>Node391</title>
<g id="a_node14"><a xlink:href="group__opt__filter.html#ga883885e793388359ef93d195bdbb4c2c" target="_top" xlink:title="Clears filter f. ">
<polygon fill="#ffffff" stroke="#000000" points="148,-378 148,-408 241,-408 241,-378 148,-378"/>
<text text-anchor="start" x="156" y="-396" font-family="Helvetica,sans-Serif" font-size="10.00" fill="#000000">coap_option_filter</text>
<text text-anchor="middle" x="194.5" y="-385" font-family="Helvetica,sans-Serif" font-size="10.00" fill="#000000">_clear</text>
</a>
</g>
</g>
<!-- Node378&#45;&gt;Node391 -->
<g id="edge21" class="edge">
<title>Node378&#45;&gt;Node391</title>
<path fill="none" stroke="#191970" d="M95.7926,-361.6417C112.0562,-366.8085 130.984,-372.8216 147.8892,-378.1922"/>
<polygon fill="#191970" stroke="#191970" points="96.6428,-358.2395 86.0524,-358.5473 94.5233,-364.9109 96.6428,-358.2395"/>
</g>
<!-- Node399 -->
<g id="node22" class="node">
<title>Node399</title>
<g id="a_node22"><a xlink:href="uri_8c.html#a15cc296560619b6f9b80d9005a000167" target="_top" xlink:title="coap_get_query">
<polygon fill="#ffffff" stroke="#000000" points="287.5,-360.5 287.5,-379.5 373.5,-379.5 373.5,-360.5 287.5,-360.5"/>
<text text-anchor="middle" x="330.5" y="-367.5" font-family="Helvetica,sans-Serif" font-size="10.00" fill="#000000">coap_get_query</text>
</a>
</g>
</g>
<!-- Node378&#45;&gt;Node399 -->
<g id="edge44" class="edge">
<title>Node378&#45;&gt;Node399</title>
<path fill="none" stroke="#191970" d="M122.2158,-354.0657C173.5201,-357.9906 243.1051,-363.3141 287.4125,-366.7037"/>
<polygon fill="#191970" stroke="#191970" points="122.4494,-350.5734 112.2116,-353.3003 121.9154,-357.553 122.4494,-350.5734"/>
</g>
<!-- Node400 -->
<g id="node23" class="node">
<title>Node400</title>
<g id="a_node23"><a xlink:href="uri_8c.html#a062095681104f3175b8265e240989ade" target="_top" xlink:title="coap_get_uri_path">
<polygon fill="#ffffff" stroke="#000000" points="282.5,-436.5 282.5,-455.5 378.5,-455.5 378.5,-436.5 282.5,-436.5"/>
<text text-anchor="middle" x="330.5" y="-443.5" font-family="Helvetica,sans-Serif" font-size="10.00" fill="#000000">coap_get_uri_path</text>
</a>
</g>
</g>
<!-- Node378&#45;&gt;Node400 -->
<g id="edge45" class="edge">
<title>Node378&#45;&gt;Node400</title>
<path fill="none" stroke="#191970" d="M73.298,-366.1815C90.6454,-382.3217 118.8959,-405.768 148,-418 191.1443,-436.1329 244.4365,-442.6901 282.2686,-444.9774"/>
<polygon fill="#191970" stroke="#191970" points="75.3507,-363.3022 65.7018,-358.9262 70.5158,-368.3642 75.3507,-363.3022"/>
</g>
<!-- Node401 -->
<g id="node24" class="node">
<title>Node401</title>
<g id="a_node24"><a xlink:href="group__opt__filter.html#ga6b9ade4855f4440b3311296c03bc12aa" target="_top" xlink:title="Sets the corresponding bit for type in filter. ">
<polygon fill="#ffffff" stroke="#000000" points="148,-288.5 148,-307.5 241,-307.5 241,-288.5 148,-288.5"/>
<text text-anchor="middle" x="194.5" y="-295.5" font-family="Helvetica,sans-Serif" font-size="10.00" fill="#000000">coap_option_setb</text>
</a>
</g>
</g>
<!-- Node378&#45;&gt;Node401 -->
<g id="edge41" class="edge">
<title>Node378&#45;&gt;Node401</title>
<path fill="none" stroke="#191970" d="M91.5423,-335.9122C115.6003,-327.0533 146.8369,-315.551 168.566,-307.5497"/>
<polygon fill="#191970" stroke="#191970" points="90.2254,-332.6673 82.0508,-339.4073 92.6442,-339.2361 90.2254,-332.6673"/>
</g>
<!-- Node380 -->
<g id="node3" class="node">
<title>Node380</title>
<g id="a_node3"><a xlink:href="net_8h.html#a7bb944fc52f772655356d95724317401" target="_top" xlink:title="Dispatches the PDUs from the receive queue in given context. ">
<polygon fill="#ffffff" stroke="#000000" points="881,-106.5 881,-125.5 961,-125.5 961,-106.5 881,-106.5"/>
<text text-anchor="middle" x="921" y="-113.5" font-family="Helvetica,sans-Serif" font-size="10.00" fill="#000000">coap_dispatch</text>
</a>
</g>
</g>
<!-- Node379&#45;&gt;Node380 -->
<g id="edge2" class="edge">
<title>Node379&#45;&gt;Node380</title>
<path fill="none" stroke="#191970" d="M845.1525,-103.2704C857.4099,-105.3275 869.8384,-107.4134 880.9898,-109.285"/>
<polygon fill="#191970" stroke="#191970" points="845.3697,-99.7579 834.9283,-101.5544 844.211,-106.6614 845.3697,-99.7579"/>
</g>
<!-- Node386 -->
<g id="node9" class="node">
<title>Node386</title>
<g id="a_node9"><a xlink:href="net_8h.html#a5854b1394bfddd574e48af116e3aaaf9" target="_top" xlink:title="Sends an RST message with code 0 for the specified request to dst. ">
<polygon fill="#ffffff" stroke="#000000" points="1767.5,-104.5 1767.5,-123.5 1847.5,-123.5 1847.5,-104.5 1767.5,-104.5"/>
<text text-anchor="middle" x="1807.5" y="-111.5" font-family="Helvetica,sans-Serif" font-size="10.00" fill="#000000">coap_send_rst</text>
</a>
</g>
</g>
<!-- Node379&#45;&gt;Node386 -->
<g id="edge20" class="edge">
<title>Node379&#45;&gt;Node386</title>
<path fill="none" stroke="#191970" d="M802.9526,-77.3488C849.6066,-51.3837 953.9414,0 1049,0 1049,0 1049,0 1574,0 1646.2848,0 1666.6849,-11.1248 1730,-46 1758.5352,-61.7178 1785.6679,-89.4562 1798.9697,-104.1792"/>
<polygon fill="#191970" stroke="#191970" points="801.1327,-74.3571 794.1533,-82.3283 804.5802,-80.4493 801.1327,-74.3571"/>
</g>
<!-- Node381 -->
<g id="node4" class="node">
<title>Node381</title>
<g id="a_node4"><a xlink:href="net_8c.html#acd36f6fba6d30ab9557e0e6521f4a088" target="_top" xlink:title="coap_read_session">
<polygon fill="#ffffff" stroke="#000000" points="1294.5,-151.5 1294.5,-170.5 1395.5,-170.5 1395.5,-151.5 1294.5,-151.5"/>
<text text-anchor="middle" x="1345" y="-158.5" font-family="Helvetica,sans-Serif" font-size="10.00" fill="#000000">coap_read_session</text>
</a>
</g>
</g>
<!-- Node380&#45;&gt;Node381 -->
<g id="edge3" class="edge">
<title>Node380&#45;&gt;Node381</title>
<path fill="none" stroke="#191970" d="M964.0103,-128.1064C974.7142,-130.7438 986.2141,-133.2619 997,-135 1101.8229,-151.8922 1226.214,-157.8412 1294.2579,-159.9134"/>
<polygon fill="#191970" stroke="#191970" points="964.5958,-124.6437 954.0409,-125.5627 962.8652,-131.4264 964.5958,-124.6437"/>
</g>
<!-- Node380&#45;&gt;Node386 -->
<g id="edge19" class="edge">
<title>Node380&#45;&gt;Node386</title>
<path fill="none" stroke="#191970" d="M949.6542,-102.2347C998.9785,-79.8425 1103.6374,-38 1197,-38 1197,-38 1197,-38 1574,-38 1658.8365,-38 1752.8743,-83.924 1790.5446,-104.3745"/>
<polygon fill="#191970" stroke="#191970" points="948.1614,-99.0688 940.5469,-106.4357 951.0934,-105.4252 948.1614,-99.0688"/>
</g>
<!-- Node388 -->
<g id="node11" class="node">
<title>Node388</title>
<g id="a_node11"><a xlink:href="net_8h.html#ae6b8ca457dd41f23372f9e9a7159312b" target="_top" xlink:title="Parses and interprets a CoAP datagram with context ctx. ">
<polygon fill="#ffffff" stroke="#000000" points="997,-106.5 997,-125.5 1101,-125.5 1101,-106.5 997,-106.5"/>
<text text-anchor="middle" x="1049" y="-113.5" font-family="Helvetica,sans-Serif" font-size="10.00" fill="#000000">coap_handle_dgram</text>
</a>
</g>
</g>
<!-- Node380&#45;&gt;Node388 -->
<g id="edge13" class="edge">
<title>Node380&#45;&gt;Node388</title>
<path fill="none" stroke="#191970" d="M971.1883,-116C979.5884,-116 988.3218,-116 996.7716,-116"/>
<polygon fill="#191970" stroke="#191970" points="971.1488,-112.5001 961.1488,-116 971.1488,-119.5001 971.1488,-112.5001"/>
</g>
<!-- Node382 -->
<g id="node5" class="node">
<title>Node382</title>
<g id="a_node5"><a xlink:href="net_8h.html#a0748d791fd2af516dd93fbadb660d440" target="_top" xlink:title="For applications with their own message loop, reads all data from the network. ">
<polygon fill="#ffffff" stroke="#000000" points="1433,-151.5 1433,-170.5 1495,-170.5 1495,-151.5 1433,-151.5"/>
<text text-anchor="middle" x="1464" y="-158.5" font-family="Helvetica,sans-Serif" font-size="10.00" fill="#000000">coap_read</text>
</a>
</g>
</g>
<!-- Node381&#45;&gt;Node382 -->
<g id="edge4" class="edge">
<title>Node381&#45;&gt;Node382</title>
<path fill="none" stroke="#191970" d="M1405.949,-161C1415.3142,-161 1424.6315,-161 1432.9721,-161"/>
<polygon fill="#191970" stroke="#191970" points="1405.8119,-157.5001 1395.8119,-161 1405.8119,-164.5001 1405.8119,-157.5001"/>
</g>
<!-- Node383 -->
<g id="node6" class="node">
<title>Node383</title>
<g id="a_node6"><a xlink:href="coap__io_8c.html#a75a7c93e10ca7858449ba304aad4ea37" target="_top" xlink:title="coap_run_once">
<polygon fill="#ffffff" stroke="#000000" points="1766,-256.5 1766,-275.5 1849,-275.5 1849,-256.5 1766,-256.5"/>
<text text-anchor="middle" x="1807.5" y="-263.5" font-family="Helvetica,sans-Serif" font-size="10.00" fill="#000000">coap_run_once</text>
</a>
</g>
</g>
<!-- Node382&#45;&gt;Node383 -->
<g id="edge5" class="edge">
<title>Node382&#45;&gt;Node383</title>
<path fill="none" stroke="#191970" d="M1492.9251,-175.0392C1504.7007,-180.696 1518.4656,-187.2342 1531,-193 1584.8701,-217.7803 1595.8446,-231.2105 1653,-247 1690.3807,-257.3266 1734.4,-262.0462 1765.8699,-264.1999"/>
<polygon fill="#191970" stroke="#191970" points="1494.1002,-171.7203 1483.5723,-170.5311 1491.0608,-178.026 1494.1002,-171.7203"/>
</g>
<!-- Node384 -->
<g id="node7" class="node">
<title>Node384</title>
<g id="a_node7"><a xlink:href="net_8h.html#a9900c032b74bd57f67d489484a2b3207" target="_top" xlink:title="Handles retransmissions of confirmable messages. ">
<polygon fill="#ffffff" stroke="#000000" points="1531,-164.5 1531,-183.5 1617,-183.5 1617,-164.5 1531,-164.5"/>
<text text-anchor="middle" x="1574" y="-171.5" font-family="Helvetica,sans-Serif" font-size="10.00" fill="#000000">coap_retransmit</text>
</a>
</g>
</g>
<!-- Node382&#45;&gt;Node384 -->
<g id="edge6" class="edge">
<title>Node382&#45;&gt;Node384</title>
<path fill="none" stroke="#191970" d="M1505.4282,-165.8961C1513.7153,-166.8754 1522.4409,-167.9067 1530.7866,-168.893"/>
<polygon fill="#191970" stroke="#191970" points="1505.569,-162.3884 1495.2274,-164.6905 1504.7474,-169.3401 1505.569,-162.3884"/>
</g>
<!-- Node382&#45;&gt;Node386 -->
<g id="edge12" class="edge">
<title>Node382&#45;&gt;Node386</title>
<path fill="none" stroke="#191970" d="M1505.3011,-154.5811C1543.5626,-148.706 1602.0732,-139.9027 1653,-133 1691.8312,-127.7368 1736.24,-122.3403 1767.4503,-118.65"/>
<polygon fill="#191970" stroke="#191970" points="1504.4203,-151.1754 1495.0695,-156.1566 1505.4856,-158.0939 1504.4203,-151.1754"/>
</g>
<!-- Node385 -->
<g id="node8" class="node">
<title>Node385</title>
<g id="a_node8"><a xlink:href="net_8h.html#aaac86ac50793f309678e4951ecf8863f" target="_top" xlink:title="For applications with their own message loop, send all pending retransmits and return the list of soc...">
<polygon fill="#ffffff" stroke="#000000" points="1659.5,-218.5 1659.5,-237.5 1723.5,-237.5 1723.5,-218.5 1659.5,-218.5"/>
<text text-anchor="middle" x="1691.5" y="-225.5" font-family="Helvetica,sans-Serif" font-size="10.00" fill="#000000">coap_write</text>
</a>
</g>
</g>
<!-- Node384&#45;&gt;Node385 -->
<g id="edge7" class="edge">
<title>Node384&#45;&gt;Node385</title>
<path fill="none" stroke="#191970" d="M1604.0895,-187.8284C1624.9092,-197.3966 1652.0891,-209.8878 1670.5759,-218.3838"/>
<polygon fill="#191970" stroke="#191970" points="1605.2841,-184.5255 1594.7362,-183.5298 1602.361,-190.886 1605.2841,-184.5255"/>
</g>
<!-- Node384&#45;&gt;Node386 -->
<g id="edge11" class="edge">
<title>Node384&#45;&gt;Node386</title>
<path fill="none" stroke="#191970" d="M1627.3508,-180.8438C1658.1441,-182.8772 1697.1537,-182.1292 1730,-171 1758.4738,-161.3523 1785.2211,-137.0918 1798.5928,-123.5373"/>
<polygon fill="#191970" stroke="#191970" points="1627.4848,-177.3438 1617.2437,-180.0586 1626.9425,-184.3227 1627.4848,-177.3438"/>
</g>
<!-- Node387 -->
<g id="node10" class="node">
<title>Node387</title>
<g id="a_node10"><a xlink:href="libcoap_8h.html#a5d1fb0b44497970b0f75fa0b38570a82" target="_top" xlink:title="coap_cleanup">
<polygon fill="#ffffff" stroke="#000000" points="1653,-142.5 1653,-161.5 1730,-161.5 1730,-142.5 1653,-142.5"/>
<text text-anchor="middle" x="1691.5" y="-149.5" font-family="Helvetica,sans-Serif" font-size="10.00" fill="#000000">coap_cleanup</text>
</a>
</g>
</g>
<!-- Node384&#45;&gt;Node387 -->
<g id="edge10" class="edge">
<title>Node384&#45;&gt;Node387</title>
<path fill="none" stroke="#191970" d="M1627.0879,-164.0601C1635.7111,-162.4456 1644.4986,-160.8003 1652.6979,-159.2651"/>
<polygon fill="#191970" stroke="#191970" points="1626.2705,-160.6523 1617.0855,-165.9329 1627.5588,-167.5327 1626.2705,-160.6523"/>
</g>
<!-- Node385&#45;&gt;Node383 -->
<g id="edge8" class="edge">
<title>Node385&#45;&gt;Node383</title>
<path fill="none" stroke="#191970" d="M1730.6528,-240.8259C1746.2176,-245.9247 1763.8141,-251.6891 1778.2377,-256.4141"/>
<polygon fill="#191970" stroke="#191970" points="1731.3644,-237.3761 1720.7717,-237.589 1729.1852,-244.0282 1731.3644,-237.3761"/>
</g>
<!-- Node385&#45;&gt;Node386 -->
<g id="edge9" class="edge">
<title>Node385&#45;&gt;Node386</title>
<path fill="none" stroke="#191970" d="M1718.3117,-212.7627C1722.3742,-210.0402 1726.4045,-207.0821 1730,-204 1759.9015,-178.3684 1788.3252,-140.8849 1800.8314,-123.5028"/>
<polygon fill="#191970" stroke="#191970" points="1716.1162,-210.0093 1709.5231,-218.3028 1719.849,-215.931 1716.1162,-210.0093"/>
</g>
<!-- Node388&#45;&gt;Node386 -->
<g id="edge18" class="edge">
<title>Node388&#45;&gt;Node386</title>
<path fill="none" stroke="#191970" d="M1093.6368,-104.0394C1107.4536,-100.6912 1122.7817,-97.3336 1137,-95 1228.6038,-79.9656 1252.1707,-76 1345,-76 1345,-76 1345,-76 1574,-76 1644.643,-76 1725.7651,-93.1538 1771.3956,-104.411"/>
<polygon fill="#191970" stroke="#191970" points="1092.7429,-100.655 1083.8806,-106.461 1094.4292,-107.4489 1092.7429,-100.655"/>
</g>
<!-- Node389 -->
<g id="node12" class="node">
<title>Node389</title>
<g id="a_node12"><a xlink:href="net_8c.html#a8534f7860b14e0743529daff196a27ce" target="_top" xlink:title="coap_handle_dgram_for\l_proto">
<polygon fill="#ffffff" stroke="#000000" points="1137,-105 1137,-135 1257,-135 1257,-105 1137,-105"/>
<text text-anchor="start" x="1145" y="-123" font-family="Helvetica,sans-Serif" font-size="10.00" fill="#000000">coap_handle_dgram_for</text>
<text text-anchor="middle" x="1197" y="-112" font-family="Helvetica,sans-Serif" font-size="10.00" fill="#000000">_proto</text>
</a>
</g>
</g>
<!-- Node388&#45;&gt;Node389 -->
<g id="edge14" class="edge">
<title>Node388&#45;&gt;Node389</title>
<path fill="none" stroke="#191970" d="M1111.3759,-117.6858C1119.8453,-117.9147 1128.523,-118.1493 1136.9503,-118.377"/>
<polygon fill="#191970" stroke="#191970" points="1111.2702,-114.1818 1101.1793,-117.4103 1111.081,-121.1792 1111.2702,-114.1818"/>
</g>
<!-- Node389&#45;&gt;Node381 -->
<g id="edge15" class="edge">
<title>Node389&#45;&gt;Node381</title>
<path fill="none" stroke="#191970" d="M1261.151,-137.7716C1278.1191,-142.4722 1295.7905,-147.3676 1310.5107,-151.4455"/>
<polygon fill="#191970" stroke="#191970" points="1261.8408,-134.3309 1251.2693,-135.0341 1259.972,-141.0768 1261.8408,-134.3309"/>
</g>
<!-- Node390 -->
<g id="node13" class="node">
<title>Node390</title>
<g id="a_node13"><a xlink:href="net_8c.html#a44ffb4b70e537043e9a9cf344be24b92" target="_top" xlink:title="coap_read_endpoint">
<polygon fill="#ffffff" stroke="#000000" points="1293,-111.5 1293,-130.5 1397,-130.5 1397,-111.5 1293,-111.5"/>
<text text-anchor="middle" x="1345" y="-118.5" font-family="Helvetica,sans-Serif" font-size="10.00" fill="#000000">coap_read_endpoint</text>
</a>
</g>
</g>
<!-- Node389&#45;&gt;Node390 -->
<g id="edge16" class="edge">
<title>Node389&#45;&gt;Node390</title>
<path fill="none" stroke="#191970" d="M1267.2786,-120.4749C1275.917,-120.5332 1284.6233,-120.592 1292.9248,-120.6481"/>
<polygon fill="#191970" stroke="#191970" points="1267.2207,-116.9745 1257.1973,-120.4067 1267.1734,-123.9743 1267.2207,-116.9745"/>
</g>
<!-- Node390&#45;&gt;Node382 -->
<g id="edge17" class="edge">
<title>Node390&#45;&gt;Node382</title>
<path fill="none" stroke="#191970" d="M1383.1899,-133.8369C1400.2571,-139.5738 1420.0197,-146.2167 1435.7291,-151.4972"/>
<polygon fill="#191970" stroke="#191970" points="1384.0975,-130.4496 1373.5035,-130.581 1381.8671,-137.0848 1384.0975,-130.4496"/>
</g>
<!-- Node392 -->
<g id="node15" class="node">
<title>Node392</title>
<g id="a_node15"><a xlink:href="net_8c.html#a1a280312c4bad55cf10243b9b9c3e966" target="_top" xlink:title="handle_request">
<polygon fill="#ffffff" stroke="#000000" points="736.5,-303.5 736.5,-322.5 819.5,-322.5 819.5,-303.5 736.5,-303.5"/>
<text text-anchor="middle" x="778" y="-310.5" font-family="Helvetica,sans-Serif" font-size="10.00" fill="#000000">handle_request</text>
</a>
</g>
</g>
<!-- Node391&#45;&gt;Node392 -->
<g id="edge22" class="edge">
<title>Node391&#45;&gt;Node392</title>
<path fill="none" stroke="#191970" d="M251.3389,-396.402C342.5011,-400.2737 526.2602,-401.5267 675,-361 707.3586,-352.1833 742.1618,-333.9093 761.8934,-322.6264"/>
<polygon fill="#191970" stroke="#191970" points="251.3666,-392.8998 241.2188,-395.9449 251.0507,-399.8926 251.3666,-392.8998"/>
</g>
<!-- Node393 -->
<g id="node16" class="node">
<title>Node393</title>
<g id="a_node16"><a xlink:href="group__opt__filter.html#gad4162a3db83918ae0e4f47b4b3aa523d" target="_top" xlink:title="Retrieves the first option of type type from pdu. ">
<polygon fill="#ffffff" stroke="#000000" points="280,-288.5 280,-307.5 381,-307.5 381,-288.5 280,-288.5"/>
<text text-anchor="middle" x="330.5" y="-295.5" font-family="Helvetica,sans-Serif" font-size="10.00" fill="#000000">coap_check_option</text>
</a>
</g>
</g>
<!-- Node391&#45;&gt;Node393 -->
<g id="edge24" class="edge">
<title>Node391&#45;&gt;Node393</title>
<path fill="none" stroke="#191970" d="M224.4699,-372.0652C253.0923,-352.0715 294.9649,-322.8223 316.5253,-307.7617"/>
<polygon fill="#191970" stroke="#191970" points="222.2433,-369.3511 216.0496,-377.947 226.2519,-375.0897 222.2433,-369.3511"/>
</g>
<!-- Node391&#45;&gt;Node399 -->
<g id="edge37" class="edge">
<title>Node391&#45;&gt;Node399</title>
<path fill="none" stroke="#191970" d="M251.268,-383.3995C263.3067,-381.3636 275.8285,-379.2459 287.2673,-377.3114"/>
<polygon fill="#191970" stroke="#191970" points="250.5798,-379.9661 241.3035,-385.0847 251.7471,-386.8681 250.5798,-379.9661"/>
</g>
<!-- Node391&#45;&gt;Node400 -->
<g id="edge39" class="edge">
<title>Node391&#45;&gt;Node400</title>
<path fill="none" stroke="#191970" d="M242.7027,-411.7849C264.0977,-420.1226 288.3571,-429.5767 305.9453,-436.4309"/>
<polygon fill="#191970" stroke="#191970" points="243.6967,-408.4159 233.1084,-408.0459 241.1549,-414.9382 243.6967,-408.4159"/>
</g>
<!-- Node392&#45;&gt;Node380 -->
<g id="edge23" class="edge">
<title>Node392&#45;&gt;Node380</title>
<path fill="none" stroke="#191970" d="M790.776,-295.3995C820.0183,-255.1146 891.046,-157.2653 913.8352,-125.8704"/>
<polygon fill="#191970" stroke="#191970" points="787.9392,-293.3495 784.8972,-303.4983 793.6041,-297.4616 787.9392,-293.3495"/>
</g>
<!-- Node393&#45;&gt;Node392 -->
<g id="edge36" class="edge">
<title>Node393&#45;&gt;Node392</title>
<path fill="none" stroke="#191970" d="M391.4417,-300.0427C483.8577,-303.1405 657.0634,-308.9463 736.3945,-311.6054"/>
<polygon fill="#191970" stroke="#191970" points="391.5099,-296.5432 381.3983,-299.7061 391.2754,-303.5392 391.5099,-296.5432"/>
</g>
<!-- Node394 -->
<g id="node17" class="node">
<title>Node394</title>
<g id="a_node17"><a xlink:href="group__block.html#ga714d943bd85123de1b8b6f86ec204a69" target="_top" xlink:title="Initializes block from pdu. ">
<polygon fill="#ffffff" stroke="#000000" points="420,-208.5 420,-227.5 505,-227.5 505,-208.5 420,-208.5"/>
<text text-anchor="middle" x="462.5" y="-215.5" font-family="Helvetica,sans-Serif" font-size="10.00" fill="#000000">coap_get_block</text>
</a>
</g>
</g>
<!-- Node393&#45;&gt;Node394 -->
<g id="edge25" class="edge">
<title>Node393&#45;&gt;Node394</title>
<path fill="none" stroke="#191970" d="M374.0319,-284.4928C377.5015,-282.8346 380.8704,-281.0068 384,-279 403.3143,-266.6155 401.8265,-256.0052 420,-242 426.9803,-236.6207 435.3033,-231.6511 442.726,-227.6462"/>
<polygon fill="#191970" stroke="#191970" points="372.5184,-281.3336 364.7075,-288.4918 375.2775,-287.7669 372.5184,-281.3336"/>
</g>
<!-- Node397 -->
<g id="node20" class="node">
<title>Node397</title>
<g id="a_node20"><a xlink:href="net_8h.html#a69ff8481c32707b77813c051fc42dedd" target="_top" xlink:title="Creates a new response for given request with the contents of .well&#45;known/core. ">
<polygon fill="#ffffff" stroke="#000000" points="541,-208.5 541,-227.5 675,-227.5 675,-208.5 541,-208.5"/>
<text text-anchor="middle" x="608" y="-215.5" font-family="Helvetica,sans-Serif" font-size="10.00" fill="#000000">coap_wellknown_response</text>
</a>
</g>
</g>
<!-- Node393&#45;&gt;Node397 -->
<g id="edge33" class="edge">
<title>Node393&#45;&gt;Node397</title>
<path fill="none" stroke="#191970" d="M373.5833,-285.5796C429.1178,-269.5697 524.4961,-242.0732 574.7645,-227.5814"/>
<polygon fill="#191970" stroke="#191970" points="372.3365,-282.2964 363.6973,-288.4296 374.2756,-289.0225 372.3365,-282.2964"/>
</g>
<!-- Node398 -->
<g id="node21" class="node">
<title>Node398</title>
<g id="a_node21"><a xlink:href="net_8c.html#aa708f479d33a6ca76bf214a0e0e42de4" target="_top" xlink:title="Checks for No&#45;Response option in given request and returns 1 if response should be suppressed accordi...">
<polygon fill="#ffffff" stroke="#000000" points="426.5,-322.5 426.5,-341.5 498.5,-341.5 498.5,-322.5 426.5,-322.5"/>
<text text-anchor="middle" x="462.5" y="-329.5" font-family="Helvetica,sans-Serif" font-size="10.00" fill="#000000">no_response</text>
</a>
</g>
</g>
<!-- Node393&#45;&gt;Node398 -->
<g id="edge34" class="edge">
<title>Node393&#45;&gt;Node398</title>
<path fill="none" stroke="#191970" d="M377.3462,-310.0664C393.3693,-314.1936 411.0413,-318.7455 426.1138,-322.6278"/>
<polygon fill="#191970" stroke="#191970" points="378.1776,-306.6664 367.6206,-307.5614 376.4315,-313.4452 378.1776,-306.6664"/>
</g>
<!-- Node394&#45;&gt;Node392 -->
<g id="edge32" class="edge">
<title>Node394&#45;&gt;Node392</title>
<path fill="none" stroke="#191970" d="M505.9253,-230.3101C548.9426,-242.5891 616.6541,-262.145 675,-280 699.958,-287.6376 728.1791,-296.7102 748.7618,-303.4077"/>
<polygon fill="#191970" stroke="#191970" points="506.6494,-226.8771 496.073,-227.5018 504.7306,-233.609 506.6494,-226.8771"/>
</g>
<!-- Node395 -->
<g id="node18" class="node">
<title>Node395</title>
<g id="a_node18"><a xlink:href="group__block.html#ga38c1e9829062e3e2ce621641f1ae59c5" target="_top" xlink:title="Adds the appropriate part of data to the response pdu. ">
<polygon fill="#ffffff" stroke="#000000" points="547,-159 547,-189 669,-189 669,-159 547,-159"/>
<text text-anchor="start" x="555" y="-177" font-family="Helvetica,sans-Serif" font-size="10.00" fill="#000000">coap_add_data_blocked</text>
<text text-anchor="middle" x="608" y="-166" font-family="Helvetica,sans-Serif" font-size="10.00" fill="#000000">_response</text>
</a>
</g>
</g>
<!-- Node394&#45;&gt;Node395 -->
<g id="edge26" class="edge">
<title>Node394&#45;&gt;Node395</title>
<path fill="none" stroke="#191970" d="M503.6873,-205.5447C520.6381,-200.4187 540.425,-194.4351 558.1816,-189.0654"/>
<polygon fill="#191970" stroke="#191970" points="502.6301,-202.2078 494.0713,-208.4527 504.6564,-208.9082 502.6301,-202.2078"/>
</g>
<!-- Node396 -->
<g id="node19" class="node">
<title>Node396</title>
<g id="a_node19"><a xlink:href="group__block.html#gaa67d14fa889f79afee9762dab7fc83e4" target="_top" xlink:title="Checks if more than num blocks are required to deliver data_len bytes of data for a block size of 1 &lt;...">
<polygon fill="#ffffff" stroke="#000000" points="729,-142.5 729,-161.5 827,-161.5 827,-142.5 729,-142.5"/>
<text text-anchor="middle" x="778" y="-149.5" font-family="Helvetica,sans-Serif" font-size="10.00" fill="#000000">coap_more_blocks</text>
</a>
</g>
</g>
<!-- Node394&#45;&gt;Node396 -->
<g id="edge28" class="edge">
<title>Node394&#45;&gt;Node396</title>
<path fill="none" stroke="#191970" d="M476.0784,-200.2487C490.1882,-183.4037 513.9635,-159.1933 541,-149 605.4934,-124.6847 687.0519,-133.4726 735.7343,-142.4545"/>
<polygon fill="#191970" stroke="#191970" points="473.1622,-198.2896 469.6147,-208.273 478.6136,-202.6808 473.1622,-198.2896"/>
</g>
<!-- Node394&#45;&gt;Node397 -->
<g id="edge29" class="edge">
<title>Node394&#45;&gt;Node397</title>
<path fill="none" stroke="#191970" d="M515.5618,-218C523.7909,-218 532.3834,-218 540.8731,-218"/>
<polygon fill="#191970" stroke="#191970" points="515.3679,-214.5001 505.3678,-218 515.3678,-221.5001 515.3679,-214.5001"/>
</g>
<!-- Node395&#45;&gt;Node396 -->
<g id="edge27" class="edge">
<title>Node395&#45;&gt;Node396</title>
<path fill="none" stroke="#191970" d="M679.6137,-164.7324C696.2426,-162.5804 713.5728,-160.3376 728.9715,-158.3449"/>
<polygon fill="#191970" stroke="#191970" points="678.842,-161.3029 669.3739,-166.0575 679.7404,-168.2451 678.842,-161.3029"/>
</g>
<!-- Node397&#45;&gt;Node386 -->
<g id="edge31" class="edge">
<title>Node397&#45;&gt;Node386</title>
<path fill="none" stroke="#191970" d="M655.5096,-229.8958C716.5447,-244.1108 825.9605,-266 921,-266 921,-266 921,-266 1574,-266 1643.8457,-266 1671.6608,-285.4052 1730,-247 1775.9829,-216.7291 1798.145,-149.055 1805.048,-123.7746"/>
<polygon fill="#191970" stroke="#191970" points="656.3134,-226.4894 645.7767,-227.5982 654.7051,-233.3021 656.3134,-226.4894"/>
</g>
<!-- Node397&#45;&gt;Node392 -->
<g id="edge30" class="edge">
<title>Node397&#45;&gt;Node392</title>
<path fill="none" stroke="#191970" d="M653.6096,-231.0606C661.0474,-234.0999 668.4521,-237.7269 675,-242 694.4828,-254.7143 692.271,-266.1993 711,-280 724.0481,-289.6147 740.328,-297.7078 753.5727,-303.473"/>
<polygon fill="#191970" stroke="#191970" points="654.8244,-227.7781 644.2327,-227.5208 652.3522,-234.3271 654.8244,-227.7781"/>
</g>
<!-- Node398&#45;&gt;Node392 -->
<g id="edge35" class="edge">
<title>Node398&#45;&gt;Node392</title>
<path fill="none" stroke="#191970" d="M508.8546,-329.2084C570.169,-325.516 677.3326,-319.0624 736.2465,-315.5145"/>
<polygon fill="#191970" stroke="#191970" points="508.4633,-325.7256 498.6919,-329.8205 508.8842,-332.7129 508.4633,-325.7256"/>
</g>
<!-- Node399&#45;&gt;Node392 -->
<g id="edge38" class="edge">
<title>Node399&#45;&gt;Node392</title>
<path fill="none" stroke="#191970" d="M383.7616,-367.4605C451.7184,-363.6699 572.7172,-355.0702 675,-338 698.2321,-334.1227 723.9821,-327.8727 743.9241,-322.5921"/>
<polygon fill="#191970" stroke="#191970" points="383.52,-363.9684 373.725,-368.0068 383.9004,-370.9581 383.52,-363.9684"/>
</g>
<!-- Node400&#45;&gt;Node392 -->
<g id="edge40" class="edge">
<title>Node400&#45;&gt;Node392</title>
<path fill="none" stroke="#191970" d="M388.7535,-454.3317C459.9597,-461.8136 582.3972,-465.7793 675,-422 722.5467,-399.5216 759.1886,-344.6514 772.5313,-322.5032"/>
<polygon fill="#191970" stroke="#191970" points="388.9542,-450.8325 378.629,-453.2075 388.1816,-457.7898 388.9542,-450.8325"/>
</g>
<!-- Node401&#45;&gt;Node393 -->
<g id="edge43" class="edge">
<title>Node401&#45;&gt;Node393</title>
<path fill="none" stroke="#191970" d="M251.4095,-298C260.8623,-298 270.6088,-298 279.8918,-298"/>
<polygon fill="#191970" stroke="#191970" points="251.3035,-294.5001 241.3035,-298 251.3035,-301.5001 251.3035,-294.5001"/>
</g>
<!-- Node402 -->
<g id="node25" class="node">
<title>Node402</title>
<g id="a_node25"><a xlink:href="net_8h.html#a696acd1012ad1c2dba081ee5bea54fd8" target="_top" xlink:title="Registers the option type type with the given context object ctx. ">
<polygon fill="#ffffff" stroke="#000000" points="277,-250.5 277,-269.5 384,-269.5 384,-250.5 277,-250.5"/>
<text text-anchor="middle" x="330.5" y="-257.5" font-family="Helvetica,sans-Serif" font-size="10.00" fill="#000000">coap_register_option</text>
</a>
</g>
</g>
<!-- Node401&#45;&gt;Node402 -->
<g id="edge42" class="edge">
<title>Node401&#45;&gt;Node402</title>
<path fill="none" stroke="#191970" d="M238.5866,-285.6817C257.2722,-280.4607 278.7183,-274.4684 296.1924,-269.5859"/>
<polygon fill="#191970" stroke="#191970" points="237.5078,-282.349 228.8185,-288.411 239.3915,-289.0908 237.5078,-282.349"/>
</g>
</g>
</svg>
