<?xml version="1.0" encoding="UTF-8" standalone="no"?>
<!DOCTYPE svg PUBLIC "-//W3C//DTD SVG 1.1//EN"
 "http://www.w3.org/Graphics/SVG/1.1/DTD/svg11.dtd">
<!-- Generated by graphviz version 2.40.1 (20161225.0304)
 -->
<!-- Title: coap_split_query Pages: 1 -->
<svg width="493pt" height="104pt"
 viewBox="0.00 0.00 493.00 104.00" xmlns="http://www.w3.org/2000/svg" xmlns:xlink="http://www.w3.org/1999/xlink">
<g id="graph0" class="graph" transform="scale(1 1) rotate(0) translate(4 100)">
<title>coap_split_query</title>
<polygon fill="#ffffff" stroke="transparent" points="-4,4 -4,-100 489,-100 489,4 -4,4"/>
<!-- Node78 -->
<g id="node1" class="node">
<title>Node78</title>
<polygon fill="#bfbfbf" stroke="#000000" points="0,-38.5 0,-57.5 90,-57.5 90,-38.5 0,-38.5"/>
<text text-anchor="middle" x="45" y="-45.5" font-family="Helvetica,sans-Serif" font-size="10.00" fill="#000000">coap_split_query</text>
</g>
<!-- Node79 -->
<g id="node2" class="node">
<title>Node79</title>
<g id="a_node2"><a xlink:href="uri_8c.html#af32b0a60088eff0b14fb9cf8ab67ea35" target="_top" xlink:title="write_option">
<polygon fill="#ffffff" stroke="#000000" points="126,-38.5 126,-57.5 195,-57.5 195,-38.5 126,-38.5"/>
<text text-anchor="middle" x="160.5" y="-45.5" font-family="Helvetica,sans-Serif" font-size="10.00" fill="#000000">write_option</text>
</a>
</g>
</g>
<!-- Node78&#45;&gt;Node79 -->
<g id="edge1" class="edge">
<title>Node78&#45;&gt;Node79</title>
<path fill="none" stroke="#191970" d="M90.3172,-48C98.5824,-48 107.2044,-48 115.4615,-48"/>
<polygon fill="#191970" stroke="#191970" points="115.6712,-51.5001 125.6712,-48 115.6712,-44.5001 115.6712,-51.5001"/>
</g>
<!-- Node80 -->
<g id="node3" class="node">
<title>Node80</title>
<g id="a_node3"><a xlink:href="uri_8c.html#a8493f9c1e3e408a0a7ae17a411730066" target="_top" xlink:title="Writes a coap option from given string s to buf. ">
<polygon fill="#ffffff" stroke="#000000" points="231,-38.5 231,-57.5 345,-57.5 345,-38.5 231,-38.5"/>
<text text-anchor="middle" x="288" y="-45.5" font-family="Helvetica,sans-Serif" font-size="10.00" fill="#000000">make_decoded_option</text>
</a>
</g>
</g>
<!-- Node79&#45;&gt;Node80 -->
<g id="edge2" class="edge">
<title>Node79&#45;&gt;Node80</title>
<path fill="none" stroke="#191970" d="M195.0033,-48C203.0409,-48 211.8703,-48 220.7903,-48"/>
<polygon fill="#191970" stroke="#191970" points="220.8624,-51.5001 230.8624,-48 220.8623,-44.5001 220.8624,-51.5001"/>
</g>
<!-- Node81 -->
<g id="node4" class="node">
<title>Node81</title>
<g id="a_node4"><a xlink:href="uri_8c.html#a6a5e2cd39d32f83971685caee52930a5" target="_top" xlink:title="Runs through the given path (or query) segment and checks if percent&#45;encodings are correct...">
<polygon fill="#ffffff" stroke="#000000" points="390,-76.5 390,-95.5 476,-95.5 476,-76.5 390,-76.5"/>
<text text-anchor="middle" x="433" y="-83.5" font-family="Helvetica,sans-Serif" font-size="10.00" fill="#000000">check_segment</text>
</a>
</g>
</g>
<!-- Node80&#45;&gt;Node81 -->
<g id="edge3" class="edge">
<title>Node80&#45;&gt;Node81</title>
<path fill="none" stroke="#191970" d="M324.5896,-57.589C343.4654,-62.5358 366.6859,-68.6211 386.7879,-73.8892"/>
<polygon fill="#191970" stroke="#191970" points="386.1129,-77.3305 396.6735,-76.4799 387.8875,-70.5591 386.1129,-77.3305"/>
</g>
<!-- Node82 -->
<g id="node5" class="node">
<title>Node82</title>
<g id="a_node5"><a xlink:href="group__opt__filter.html#gafebbd04a7895df694a9345dad0275aeb" target="_top" xlink:title="Encodes the given delta and length values into opt. ">
<polygon fill="#ffffff" stroke="#000000" points="381,-38.5 381,-57.5 485,-57.5 485,-38.5 381,-38.5"/>
<text text-anchor="middle" x="433" y="-45.5" font-family="Helvetica,sans-Serif" font-size="10.00" fill="#000000">coap_opt_setheader</text>
</a>
</g>
</g>
<!-- Node80&#45;&gt;Node82 -->
<g id="edge4" class="edge">
<title>Node80&#45;&gt;Node82</title>
<path fill="none" stroke="#191970" d="M345.3078,-48C353.637,-48 362.2462,-48 370.6686,-48"/>
<polygon fill="#191970" stroke="#191970" points="370.8182,-51.5001 380.8181,-48 370.8181,-44.5001 370.8182,-51.5001"/>
</g>
<!-- Node83 -->
<g id="node6" class="node">
<title>Node83</title>
<g id="a_node6"><a xlink:href="uri_8c.html#aee060dbba1420400994ba32037ae5aa1" target="_top" xlink:title="Decodes percent&#45;encoded characters while copying the string seg of size length to buf...">
<polygon fill="#ffffff" stroke="#000000" points="387.5,-.5 387.5,-19.5 478.5,-19.5 478.5,-.5 387.5,-.5"/>
<text text-anchor="middle" x="433" y="-7.5" font-family="Helvetica,sans-Serif" font-size="10.00" fill="#000000">decode_segment</text>
</a>
</g>
</g>
<!-- Node80&#45;&gt;Node83 -->
<g id="edge5" class="edge">
<title>Node80&#45;&gt;Node83</title>
<path fill="none" stroke="#191970" d="M324.5896,-38.411C343.4654,-33.4642 366.6859,-27.3789 386.7879,-22.1108"/>
<polygon fill="#191970" stroke="#191970" points="387.8875,-25.4409 396.6735,-19.5201 386.1129,-18.6695 387.8875,-25.4409"/>
</g>
</g>
</svg>
