<?xml version="1.0" encoding="UTF-8" standalone="no"?>
<!DOCTYPE svg PUBLIC "-//W3C//DTD SVG 1.1//EN"
 "http://www.w3.org/Graphics/SVG/1.1/DTD/svg11.dtd">
<!-- Generated by graphviz version 2.40.1 (20161225.0304)
 -->
<!-- Title: coap_get_block Pages: 1 -->
<!--zoomable 275 -->
<svg id="main" version="1.1" xmlns="http://www.w3.org/2000/svg" xmlns:xlink="http://www.w3.org/1999/xlink" xml:space="preserve" onload="init(evt)">
<style type="text/css"><![CDATA[
.edge:hover path { stroke: red; }
.edge:hover polygon { stroke: red; fill: red; }
]]></style>
<script type="text/javascript"><![CDATA[
var edges = document.getElementsByTagName('g');
if (edges && edges.length) {
  for (var i=0;i<edges.length;i++) {
    if (edges[i].id.substr(0,4)=='edge') {
      edges[i].setAttribute('class','edge');
    }
  }
}
]]></script>
        <defs>
                <circle id="rim" cx="0" cy="0" r="7"/>
                <circle id="rim2" cx="0" cy="0" r="3.5"/>
                <g id="zoomPlus">
                        <use xlink:href="#rim" fill="#404040">
                                <set attributeName="fill" to="#808080" begin="zoomplus.mouseover" end="zoomplus.mouseout"/>
                        </use>
                        <path d="M-4,0h8M0,-4v8" fill="none" stroke="white" stroke-width="1.5" pointer-events="none"/>
                </g>
                <g id="zoomMin">
                        <use xlink:href="#rim" fill="#404040">
                                <set attributeName="fill" to="#808080" begin="zoomminus.mouseover" end="zoomminus.mouseout"/>
                        </use>
                        <path d="M-4,0h8" fill="none" stroke="white" stroke-width="1.5" pointer-events="none"/>
                </g>
                <g id="dirArrow">
                        <path fill="none" stroke="white" stroke-width="1.5" d="M0,-3.0v7 M-2.5,-0.5L0,-3.0L2.5,-0.5"/>
                </g>
               <g id="resetDef">
                       <use xlink:href="#rim2" fill="#404040">
                               <set attributeName="fill" to="#808080" begin="reset.mouseover" end="reset.mouseout"/>
                       </use>
               </g>
        </defs>

<script type="text/javascript">
var viewWidth = 1401;
var viewHeight = 275;
var sectionId = 'dynsection-5';
</script>
<script xlink:href="svgpan.js"/>
<svg id="graph" class="graph">
<g id="viewport">
<title>coap_get_block</title>
<polygon fill="#ffffff" stroke="transparent" points="-4,4 -4,-271 1397,-271 1397,4 -4,4"/>
<!-- Node63 -->
<g id="node1" class="node">
<title>Node63</title>
<polygon fill="#bfbfbf" stroke="#000000" points="0,-57.5 0,-76.5 85,-76.5 85,-57.5 0,-57.5"/>
<text text-anchor="middle" x="42.5" y="-64.5" font-family="Helvetica,sans-Serif" font-size="10.00" fill="#000000">coap_get_block</text>
</g>
<!-- Node64 -->
<g id="node2" class="node">
<title>Node64</title>
<g id="a_node2"><a xlink:href="group__block.html#ga38c1e9829062e3e2ce621641f1ae59c5" target="_top" xlink:title="Adds the appropriate part of data to the response pdu. ">
<polygon fill="#ffffff" stroke="#000000" points="127,-115 127,-145 249,-145 249,-115 127,-115"/>
<text text-anchor="start" x="135" y="-133" font-family="Helvetica,sans-Serif" font-size="10.00" fill="#000000">coap_add_data_blocked</text>
<text text-anchor="middle" x="188" y="-122" font-family="Helvetica,sans-Serif" font-size="10.00" fill="#000000">_response</text>
</a>
</g>
</g>
<!-- Node63&#45;&gt;Node64 -->
<g id="edge1" class="edge">
<title>Node63&#45;&gt;Node64</title>
<path fill="none" stroke="#191970" d="M74.0335,-80.6537C97.3646,-90.7558 129.1361,-104.5125 153.2069,-114.935"/>
<polygon fill="#191970" stroke="#191970" points="75.1657,-77.33 64.5983,-76.5683 72.3843,-83.7537 75.1657,-77.33"/>
</g>
<!-- Node65 -->
<g id="node3" class="node">
<title>Node65</title>
<g id="a_node3"><a xlink:href="group__block.html#gaa67d14fa889f79afee9762dab7fc83e4" target="_top" xlink:title="Checks if more than num blocks are required to deliver data_len bytes of data for a block size of 1 &lt;...">
<polygon fill="#ffffff" stroke="#000000" points="291,-98.5 291,-117.5 389,-117.5 389,-98.5 291,-98.5"/>
<text text-anchor="middle" x="340" y="-105.5" font-family="Helvetica,sans-Serif" font-size="10.00" fill="#000000">coap_more_blocks</text>
</a>
</g>
</g>
<!-- Node63&#45;&gt;Node65 -->
<g id="edge3" class="edge">
<title>Node63&#45;&gt;Node65</title>
<path fill="none" stroke="#191970" d="M95.076,-74.2458C150.3863,-81.8684 236.7509,-93.7707 290.7683,-101.2151"/>
<polygon fill="#191970" stroke="#191970" points="95.5087,-70.7724 85.1245,-72.8743 94.553,-77.7069 95.5087,-70.7724"/>
</g>
<!-- Node66 -->
<g id="node4" class="node">
<title>Node66</title>
<g id="a_node4"><a xlink:href="net_8h.html#a69ff8481c32707b77813c051fc42dedd" target="_top" xlink:title="Creates a new response for given request with the contents of .well&#45;known/core. ">
<polygon fill="#ffffff" stroke="#000000" points="121,-.5 121,-19.5 255,-19.5 255,-.5 121,-.5"/>
<text text-anchor="middle" x="188" y="-7.5" font-family="Helvetica,sans-Serif" font-size="10.00" fill="#000000">coap_wellknown_response</text>
</a>
</g>
</g>
<!-- Node63&#45;&gt;Node66 -->
<g id="edge4" class="edge">
<title>Node63&#45;&gt;Node66</title>
<path fill="none" stroke="#191970" d="M73.76,-53.4028C88.084,-47.2902 105.3274,-40.0962 121,-34 133.7819,-29.0282 148.0758,-23.8558 160.1674,-19.5915"/>
<polygon fill="#191970" stroke="#191970" points="72.174,-50.2747 64.365,-57.4351 74.9348,-56.7073 72.174,-50.2747"/>
</g>
<!-- Node67 -->
<g id="node5" class="node">
<title>Node67</title>
<g id="a_node5"><a xlink:href="net_8c.html#a1a280312c4bad55cf10243b9b9c3e966" target="_top" xlink:title="handle_request">
<polygon fill="#ffffff" stroke="#000000" points="298.5,-38.5 298.5,-57.5 381.5,-57.5 381.5,-38.5 298.5,-38.5"/>
<text text-anchor="middle" x="340" y="-45.5" font-family="Helvetica,sans-Serif" font-size="10.00" fill="#000000">handle_request</text>
</a>
</g>
</g>
<!-- Node63&#45;&gt;Node67 -->
<g id="edge25" class="edge">
<title>Node63&#45;&gt;Node67</title>
<path fill="none" stroke="#191970" d="M95.1889,-63.635C153.1962,-59.9303 245.2604,-54.0506 298.4137,-50.6559"/>
<polygon fill="#191970" stroke="#191970" points="94.8811,-60.1474 85.1245,-64.2778 95.3273,-67.1332 94.8811,-60.1474"/>
</g>
<!-- Node64&#45;&gt;Node65 -->
<g id="edge2" class="edge">
<title>Node64&#45;&gt;Node65</title>
<path fill="none" stroke="#191970" d="M259.5341,-119.6464C270.1847,-118.1048 280.9527,-116.5463 290.9975,-115.0925"/>
<polygon fill="#191970" stroke="#191970" points="258.7816,-116.2187 249.3861,-121.1152 259.7843,-123.1466 258.7816,-116.2187"/>
</g>
<!-- Node66&#45;&gt;Node67 -->
<g id="edge5" class="edge">
<title>Node66&#45;&gt;Node67</title>
<path fill="none" stroke="#191970" d="M236.16,-22.04C257.3951,-27.3488 281.995,-33.4988 301.9198,-38.4799"/>
<polygon fill="#191970" stroke="#191970" points="236.9063,-18.6189 226.356,-19.589 235.2085,-25.4099 236.9063,-18.6189"/>
</g>
<!-- Node74 -->
<g id="node12" class="node">
<title>Node74</title>
<g id="a_node12"><a xlink:href="net_8h.html#a5854b1394bfddd574e48af116e3aaaf9" target="_top" xlink:title="Sends an RST message with code 0 for the specified request to dst. ">
<polygon fill="#ffffff" stroke="#000000" points="1311.5,-95.5 1311.5,-114.5 1391.5,-114.5 1391.5,-95.5 1311.5,-95.5"/>
<text text-anchor="middle" x="1351.5" y="-102.5" font-family="Helvetica,sans-Serif" font-size="10.00" fill="#000000">coap_send_rst</text>
</a>
</g>
</g>
<!-- Node66&#45;&gt;Node74 -->
<g id="edge24" class="edge">
<title>Node66&#45;&gt;Node74</title>
<path fill="none" stroke="#191970" d="M265.2892,-10C320.8477,-10 397.544,-10 465,-10 465,-10 465,-10 1118,-10 1190.0384,-10 1208.4736,-24.0697 1274,-54 1298.9064,-65.3764 1324.9099,-84.1335 1339.5701,-95.452"/>
<polygon fill="#191970" stroke="#191970" points="265.1682,-6.5001 255.1681,-10 265.1681,-13.5001 265.1682,-6.5001"/>
</g>
<!-- Node68 -->
<g id="node6" class="node">
<title>Node68</title>
<g id="a_node6"><a xlink:href="net_8h.html#a7bb944fc52f772655356d95724317401" target="_top" xlink:title="Dispatches the PDUs from the receive queue in given context. ">
<polygon fill="#ffffff" stroke="#000000" points="425,-57.5 425,-76.5 505,-76.5 505,-57.5 425,-57.5"/>
<text text-anchor="middle" x="465" y="-64.5" font-family="Helvetica,sans-Serif" font-size="10.00" fill="#000000">coap_dispatch</text>
</a>
</g>
</g>
<!-- Node67&#45;&gt;Node68 -->
<g id="edge6" class="edge">
<title>Node67&#45;&gt;Node68</title>
<path fill="none" stroke="#191970" d="M391.6263,-55.8472C402.708,-57.5316 414.2602,-59.2876 424.8312,-60.8943"/>
<polygon fill="#191970" stroke="#191970" points="392.0356,-52.3693 381.6232,-54.3267 390.9836,-59.2898 392.0356,-52.3693"/>
</g>
<!-- Node69 -->
<g id="node7" class="node">
<title>Node69</title>
<g id="a_node7"><a xlink:href="net_8c.html#acd36f6fba6d30ab9557e0e6521f4a088" target="_top" xlink:title="coap_read_session">
<polygon fill="#ffffff" stroke="#000000" points="838.5,-162.5 838.5,-181.5 939.5,-181.5 939.5,-162.5 838.5,-162.5"/>
<text text-anchor="middle" x="889" y="-169.5" font-family="Helvetica,sans-Serif" font-size="10.00" fill="#000000">coap_read_session</text>
</a>
</g>
</g>
<!-- Node68&#45;&gt;Node69 -->
<g id="edge7" class="edge">
<title>Node68&#45;&gt;Node69</title>
<path fill="none" stroke="#191970" d="M491.4078,-81.1881C505.8581,-88.7002 524.1936,-97.8282 541,-105 601.7696,-130.9323 616.4118,-141.079 681,-155 733.9502,-166.4126 795.9921,-170.2933 838.4488,-171.547"/>
<polygon fill="#191970" stroke="#191970" points="493.0085,-78.0754 482.5282,-76.5217 489.7521,-84.2719 493.0085,-78.0754"/>
</g>
<!-- Node68&#45;&gt;Node74 -->
<g id="edge23" class="edge">
<title>Node68&#45;&gt;Node74</title>
<path fill="none" stroke="#191970" d="M515.3886,-61.4435C570.6647,-55.8361 662.0365,-48 741,-48 741,-48 741,-48 1118,-48 1197.0756,-48 1287.0279,-79.233 1328.425,-95.4595"/>
<polygon fill="#191970" stroke="#191970" points="514.7524,-57.9905 505.1639,-62.4973 515.47,-64.9536 514.7524,-57.9905"/>
</g>
<!-- Node76 -->
<g id="node14" class="node">
<title>Node76</title>
<g id="a_node14"><a xlink:href="net_8h.html#ae6b8ca457dd41f23372f9e9a7159312b" target="_top" xlink:title="Parses and interprets a CoAP datagram with context ctx. ">
<polygon fill="#ffffff" stroke="#000000" points="541,-76.5 541,-95.5 645,-95.5 645,-76.5 541,-76.5"/>
<text text-anchor="middle" x="593" y="-83.5" font-family="Helvetica,sans-Serif" font-size="10.00" fill="#000000">coap_handle_dgram</text>
</a>
</g>
</g>
<!-- Node68&#45;&gt;Node76 -->
<g id="edge17" class="edge">
<title>Node68&#45;&gt;Node76</title>
<path fill="none" stroke="#191970" d="M515.1883,-74.4498C523.5884,-75.6967 532.3218,-76.9931 540.7716,-78.2474"/>
<polygon fill="#191970" stroke="#191970" points="515.5544,-70.9659 505.1488,-72.9596 514.5265,-77.89 515.5544,-70.9659"/>
</g>
<!-- Node70 -->
<g id="node8" class="node">
<title>Node70</title>
<g id="a_node8"><a xlink:href="net_8h.html#a0748d791fd2af516dd93fbadb660d440" target="_top" xlink:title="For applications with their own message loop, reads all data from the network. ">
<polygon fill="#ffffff" stroke="#000000" points="977,-162.5 977,-181.5 1039,-181.5 1039,-162.5 977,-162.5"/>
<text text-anchor="middle" x="1008" y="-169.5" font-family="Helvetica,sans-Serif" font-size="10.00" fill="#000000">coap_read</text>
</a>
</g>
</g>
<!-- Node69&#45;&gt;Node70 -->
<g id="edge8" class="edge">
<title>Node69&#45;&gt;Node70</title>
<path fill="none" stroke="#191970" d="M949.949,-172C959.3142,-172 968.6315,-172 976.9721,-172"/>
<polygon fill="#191970" stroke="#191970" points="949.8119,-168.5001 939.8119,-172 949.8119,-175.5001 949.8119,-168.5001"/>
</g>
<!-- Node71 -->
<g id="node9" class="node">
<title>Node71</title>
<g id="a_node9"><a xlink:href="coap__io_8c.html#a75a7c93e10ca7858449ba304aad4ea37" target="_top" xlink:title="coap_run_once">
<polygon fill="#ffffff" stroke="#000000" points="1310,-247.5 1310,-266.5 1393,-266.5 1393,-247.5 1310,-247.5"/>
<text text-anchor="middle" x="1351.5" y="-254.5" font-family="Helvetica,sans-Serif" font-size="10.00" fill="#000000">coap_run_once</text>
</a>
</g>
</g>
<!-- Node70&#45;&gt;Node71 -->
<g id="edge9" class="edge">
<title>Node70&#45;&gt;Node71</title>
<path fill="none" stroke="#191970" d="M1032.3279,-187.2106C1067.2084,-207.9989 1134.1687,-244.1682 1197,-257 1234.5811,-264.675 1278.3852,-263.7756 1309.7338,-261.4862"/>
<polygon fill="#191970" stroke="#191970" points="1033.7376,-183.9726 1023.3706,-181.7872 1030.1121,-189.9606 1033.7376,-183.9726"/>
</g>
<!-- Node72 -->
<g id="node10" class="node">
<title>Node72</title>
<g id="a_node10"><a xlink:href="net_8h.html#a9900c032b74bd57f67d489484a2b3207" target="_top" xlink:title="Handles retransmissions of confirmable messages. ">
<polygon fill="#ffffff" stroke="#000000" points="1075,-176.5 1075,-195.5 1161,-195.5 1161,-176.5 1075,-176.5"/>
<text text-anchor="middle" x="1118" y="-183.5" font-family="Helvetica,sans-Serif" font-size="10.00" fill="#000000">coap_retransmit</text>
</a>
</g>
</g>
<!-- Node70&#45;&gt;Node72 -->
<g id="edge10" class="edge">
<title>Node70&#45;&gt;Node72</title>
<path fill="none" stroke="#191970" d="M1049.1522,-177.2375C1057.5214,-178.3027 1066.3482,-179.4261 1074.7866,-180.5001"/>
<polygon fill="#191970" stroke="#191970" points="1049.5893,-173.765 1039.2274,-175.9744 1048.7054,-180.709 1049.5893,-173.765"/>
</g>
<!-- Node70&#45;&gt;Node74 -->
<g id="edge16" class="edge">
<title>Node70&#45;&gt;Node74</title>
<path fill="none" stroke="#191970" d="M1049.184,-163.967C1115.6041,-151.0117 1245.5659,-125.6625 1311.3317,-112.8349"/>
<polygon fill="#191970" stroke="#191970" points="1048.2341,-160.5863 1039.0892,-165.936 1049.5743,-167.4568 1048.2341,-160.5863"/>
</g>
<!-- Node73 -->
<g id="node11" class="node">
<title>Node73</title>
<g id="a_node11"><a xlink:href="net_8h.html#aaac86ac50793f309678e4951ecf8863f" target="_top" xlink:title="For applications with their own message loop, send all pending retransmits and return the list of soc...">
<polygon fill="#ffffff" stroke="#000000" points="1203.5,-228.5 1203.5,-247.5 1267.5,-247.5 1267.5,-228.5 1203.5,-228.5"/>
<text text-anchor="middle" x="1235.5" y="-235.5" font-family="Helvetica,sans-Serif" font-size="10.00" fill="#000000">coap_write</text>
</a>
</g>
</g>
<!-- Node72&#45;&gt;Node73 -->
<g id="edge11" class="edge">
<title>Node72&#45;&gt;Node73</title>
<path fill="none" stroke="#191970" d="M1148.7454,-199.6065C1169.1441,-208.634 1195.4226,-220.2636 1213.6874,-228.3468"/>
<polygon fill="#191970" stroke="#191970" points="1150.1123,-196.384 1139.5513,-195.5376 1147.2794,-202.7852 1150.1123,-196.384"/>
</g>
<!-- Node72&#45;&gt;Node74 -->
<g id="edge15" class="edge">
<title>Node72&#45;&gt;Node74</title>
<path fill="none" stroke="#191970" d="M1162.5103,-173.642C1193.9415,-164.5912 1236.8978,-151.5655 1274,-138 1293.5031,-130.8692 1315.215,-121.4957 1330.6847,-114.5616"/>
<polygon fill="#191970" stroke="#191970" points="1161.3856,-170.3232 1152.7324,-176.4365 1163.3092,-177.0537 1161.3856,-170.3232"/>
</g>
<!-- Node75 -->
<g id="node13" class="node">
<title>Node75</title>
<g id="a_node13"><a xlink:href="libcoap_8h.html#a5d1fb0b44497970b0f75fa0b38570a82" target="_top" xlink:title="coap_cleanup">
<polygon fill="#ffffff" stroke="#000000" points="1197,-190.5 1197,-209.5 1274,-209.5 1274,-190.5 1197,-190.5"/>
<text text-anchor="middle" x="1235.5" y="-197.5" font-family="Helvetica,sans-Serif" font-size="10.00" fill="#000000">coap_cleanup</text>
</a>
</g>
</g>
<!-- Node72&#45;&gt;Node75 -->
<g id="edge14" class="edge">
<title>Node72&#45;&gt;Node75</title>
<path fill="none" stroke="#191970" d="M1171.0879,-192.3254C1179.7111,-193.3528 1188.4986,-194.3998 1196.6979,-195.3768"/>
<polygon fill="#191970" stroke="#191970" points="1171.4294,-188.8414 1161.0855,-191.1336 1170.6011,-195.7922 1171.4294,-188.8414"/>
</g>
<!-- Node73&#45;&gt;Node71 -->
<g id="edge12" class="edge">
<title>Node73&#45;&gt;Node71</title>
<path fill="none" stroke="#191970" d="M1277.6193,-244.8988C1288.036,-246.605 1299.1933,-248.4325 1309.5996,-250.137"/>
<polygon fill="#191970" stroke="#191970" points="1277.9388,-241.4046 1267.5046,-243.2421 1276.8073,-248.3126 1277.9388,-241.4046"/>
</g>
<!-- Node73&#45;&gt;Node74 -->
<g id="edge13" class="edge">
<title>Node73&#45;&gt;Node74</title>
<path fill="none" stroke="#191970" d="M1268.5819,-223.1617C1270.4853,-221.8584 1272.3096,-220.4709 1274,-219 1309.9271,-187.7372 1336.8292,-136.1923 1347.0279,-114.7885"/>
<polygon fill="#191970" stroke="#191970" points="1266.6988,-220.2095 1259.8997,-228.335 1270.2819,-226.2229 1266.6988,-220.2095"/>
</g>
<!-- Node76&#45;&gt;Node74 -->
<g id="edge22" class="edge">
<title>Node76&#45;&gt;Node74</title>
<path fill="none" stroke="#191970" d="M655.1851,-86C715.0814,-86 808.2381,-86 889,-86 889,-86 889,-86 1118,-86 1185.9225,-86 1264.5939,-94.0855 1311.0856,-99.7074"/>
<polygon fill="#191970" stroke="#191970" points="655.1327,-82.5001 645.1326,-86 655.1326,-89.5001 655.1327,-82.5001"/>
</g>
<!-- Node77 -->
<g id="node15" class="node">
<title>Node77</title>
<g id="a_node15"><a xlink:href="net_8c.html#a8534f7860b14e0743529daff196a27ce" target="_top" xlink:title="coap_handle_dgram_for\l_proto">
<polygon fill="#ffffff" stroke="#000000" points="681,-115 681,-145 801,-145 801,-115 681,-115"/>
<text text-anchor="start" x="689" y="-133" font-family="Helvetica,sans-Serif" font-size="10.00" fill="#000000">coap_handle_dgram_for</text>
<text text-anchor="middle" x="741" y="-122" font-family="Helvetica,sans-Serif" font-size="10.00" fill="#000000">_proto</text>
</a>
</g>
</g>
<!-- Node76&#45;&gt;Node77 -->
<g id="edge18" class="edge">
<title>Node76&#45;&gt;Node77</title>
<path fill="none" stroke="#191970" d="M634.8949,-98.4553C652.1371,-103.5813 672.2639,-109.5649 690.3256,-114.9346"/>
<polygon fill="#191970" stroke="#191970" points="635.6966,-95.0422 625.1138,-95.5473 633.7017,-101.752 635.6966,-95.0422"/>
</g>
<!-- Node77&#45;&gt;Node69 -->
<g id="edge19" class="edge">
<title>Node77&#45;&gt;Node69</title>
<path fill="none" stroke="#191970" d="M803.7213,-147.7993C821.4061,-152.818 839.9711,-158.0864 855.2472,-162.4215"/>
<polygon fill="#191970" stroke="#191970" points="804.589,-144.4074 794.0134,-145.0443 802.678,-151.1415 804.589,-144.4074"/>
</g>
<!-- Node78 -->
<g id="node16" class="node">
<title>Node78</title>
<g id="a_node16"><a xlink:href="net_8c.html#a44ffb4b70e537043e9a9cf344be24b92" target="_top" xlink:title="coap_read_endpoint">
<polygon fill="#ffffff" stroke="#000000" points="837,-121.5 837,-140.5 941,-140.5 941,-121.5 837,-121.5"/>
<text text-anchor="middle" x="889" y="-128.5" font-family="Helvetica,sans-Serif" font-size="10.00" fill="#000000">coap_read_endpoint</text>
</a>
</g>
</g>
<!-- Node77&#45;&gt;Node78 -->
<g id="edge20" class="edge">
<title>Node77&#45;&gt;Node78</title>
<path fill="none" stroke="#191970" d="M811.2786,-130.4749C819.917,-130.5332 828.6233,-130.592 836.9248,-130.6481"/>
<polygon fill="#191970" stroke="#191970" points="811.2207,-126.9745 801.1973,-130.4067 811.1734,-133.9743 811.2207,-126.9745"/>
</g>
<!-- Node78&#45;&gt;Node70 -->
<g id="edge21" class="edge">
<title>Node78&#45;&gt;Node70</title>
<path fill="none" stroke="#191970" d="M926.4421,-143.9002C943.8251,-149.8893 964.1341,-156.8865 980.1374,-162.4003"/>
<polygon fill="#191970" stroke="#191970" points="927.1948,-140.4577 916.6001,-140.5093 924.9145,-147.0759 927.1948,-140.4577"/>
</g>
</g>
</svg>
        <g id="navigator" transform="translate(0 0)" fill="#404254">
                <rect fill="#f2f5e9" fill-opacity="0.5" stroke="#606060" stroke-width=".5" x="0" y="0" width="60" height="60"/>
                <use id="zoomplus" xlink:href="#zoomPlus" x="17" y="9" onmousedown="handleZoom(evt,'in')"/>
                <use id="zoomminus" xlink:href="#zoomMin" x="42" y="9" onmousedown="handleZoom(evt,'out')"/>
                <use id="reset" xlink:href="#resetDef" x="30" y="36" onmousedown="handleReset()"/>
                <g id="arrowUp" xlink:href="#dirArrow" transform="translate(30 24)" onmousedown="handlePan(0,-1)">
                  <use xlink:href="#rim" fill="#404040">
                        <set attributeName="fill" to="#808080" begin="arrowUp.mouseover" end="arrowUp.mouseout"/>
                  </use>
                  <path fill="none" stroke="white" stroke-width="1.5" d="M0,-3.0v7 M-2.5,-0.5L0,-3.0L2.5,-0.5"/>
                </g>
                <g id="arrowRight" xlink:href="#dirArrow" transform="rotate(90) translate(36 -43)" onmousedown="handlePan(1,0)">
                  <use xlink:href="#rim" fill="#404040">
                        <set attributeName="fill" to="#808080" begin="arrowRight.mouseover" end="arrowRight.mouseout"/>
                  </use>
                  <path fill="none" stroke="white" stroke-width="1.5" d="M0,-3.0v7 M-2.5,-0.5L0,-3.0L2.5,-0.5"/>
                </g>
                <g id="arrowDown" xlink:href="#dirArrow" transform="rotate(180) translate(-30 -48)" onmousedown="handlePan(0,1)">
                  <use xlink:href="#rim" fill="#404040">
                        <set attributeName="fill" to="#808080" begin="arrowDown.mouseover" end="arrowDown.mouseout"/>
                  </use>
                  <path fill="none" stroke="white" stroke-width="1.5" d="M0,-3.0v7 M-2.5,-0.5L0,-3.0L2.5,-0.5"/>
                </g>
                <g id="arrowLeft" xlink:href="#dirArrow" transform="rotate(270) translate(-36 17)" onmousedown="handlePan(-1,0)">
                  <use xlink:href="#rim" fill="#404040">
                        <set attributeName="fill" to="#808080" begin="arrowLeft.mouseover" end="arrowLeft.mouseout"/>
                  </use>
                  <path fill="none" stroke="white" stroke-width="1.5" d="M0,-3.0v7 M-2.5,-0.5L0,-3.0L2.5,-0.5"/>
                </g>
        </g>
        <svg viewBox="0 0 15 15" width="100%" height="30px" preserveAspectRatio="xMaxYMin meet">
         <g id="arrow_out" transform="scale(0.3 0.3)">
          <a xlink:href="group__block_ga714d943bd85123de1b8b6f86ec204a69_icgraph_org.svg" target="_base">
           <rect id="button" ry="5" rx="5" y="6" x="6" height="38" width="38"
                fill="#f2f5e9" fill-opacity="0.5" stroke="#606060" stroke-width="1.0"/>
           <path id="arrow"
             d="M 11.500037,31.436501 C 11.940474,20.09759 22.043105,11.32322 32.158766,21.979434 L 37.068811,17.246167 C 37.068811,17.246167 37.088388,32 37.088388,32 L 22.160133,31.978069 C 22.160133,31.978069 26.997745,27.140456 26.997745,27.140456 C 18.528582,18.264221 13.291696,25.230495 11.500037,31.436501 z"
             style="fill:#404040;"/>
          </a>
         </g>
        </svg>
</svg>
