<?xml version="1.0" encoding="UTF-8" standalone="no"?>
<!DOCTYPE svg PUBLIC "-//W3C//DTD SVG 1.1//EN"
 "http://www.w3.org/Graphics/SVG/1.1/DTD/svg11.dtd">
<!-- Generated by graphviz version 2.40.1 (20161225.0304)
 -->
<!-- Title: coap_option_clrb Pages: 1 -->
<svg width="581pt" height="66pt"
 viewBox="0.00 0.00 581.00 66.00" xmlns="http://www.w3.org/2000/svg" xmlns:xlink="http://www.w3.org/1999/xlink">
<g id="graph0" class="graph" transform="scale(1 1) rotate(0) translate(4 62)">
<title>coap_option_clrb</title>
<polygon fill="#ffffff" stroke="transparent" points="-4,4 -4,-62 577,-62 577,4 -4,4"/>
<!-- Node266 -->
<g id="node1" class="node">
<title>Node266</title>
<polygon fill="#bfbfbf" stroke="#000000" points="0,-19.5 0,-38.5 90,-38.5 90,-19.5 0,-19.5"/>
<text text-anchor="middle" x="45" y="-26.5" font-family="Helvetica,sans-Serif" font-size="10.00" fill="#000000">coap_option_clrb</text>
</g>
<!-- Node267 -->
<g id="node2" class="node">
<title>Node267</title>
<g id="a_node2"><a xlink:href="group__opt__filter.html#ga61706c7da445795c096cb21194b57bb3" target="_top" xlink:title="Clears the corresponding entry for type in filter. ">
<polygon fill="#ffffff" stroke="#000000" points="126,-14 126,-44 219,-44 219,-14 126,-14"/>
<text text-anchor="start" x="134" y="-32" font-family="Helvetica,sans-Serif" font-size="10.00" fill="#000000">coap_option_filter</text>
<text text-anchor="middle" x="172.5" y="-21" font-family="Helvetica,sans-Serif" font-size="10.00" fill="#000000">_unset</text>
</a>
</g>
</g>
<!-- Node266&#45;&gt;Node267 -->
<g id="edge1" class="edge">
<title>Node266&#45;&gt;Node267</title>
<path fill="none" stroke="#191970" d="M90.3107,-29C98.4526,-29 107.0334,-29 115.4564,-29"/>
<polygon fill="#191970" stroke="#191970" points="115.6121,-32.5001 125.6121,-29 115.6121,-25.5001 115.6121,-32.5001"/>
</g>
<!-- Node268 -->
<g id="node3" class="node">
<title>Node268</title>
<g id="a_node3"><a xlink:href="option_8c.html#a4225eb8945afcd42e9d4c50bd7c85ff1" target="_top" xlink:title="Applies op on filter with respect to type. ">
<polygon fill="#ffffff" stroke="#000000" points="255,-19.5 255,-38.5 364,-38.5 364,-19.5 255,-19.5"/>
<text text-anchor="middle" x="309.5" y="-26.5" font-family="Helvetica,sans-Serif" font-size="10.00" fill="#000000">coap_option_filter_op</text>
</a>
</g>
</g>
<!-- Node267&#45;&gt;Node268 -->
<g id="edge2" class="edge">
<title>Node267&#45;&gt;Node268</title>
<path fill="none" stroke="#191970" d="M219.2645,-29C227.5101,-29 236.2246,-29 244.8571,-29"/>
<polygon fill="#191970" stroke="#191970" points="244.9204,-32.5001 254.9203,-29 244.9203,-25.5001 244.9204,-32.5001"/>
</g>
<!-- Node269 -->
<g id="node4" class="node">
<title>Node269</title>
<g id="a_node4"><a xlink:href="option_8c.html#a2be7abc95dd3dfc1f1f3f4268ce41101" target="_top" xlink:title="Returns true iff type denotes an option type larger than 255. ">
<polygon fill="#ffffff" stroke="#000000" points="400,-38.5 400,-57.5 479,-57.5 479,-38.5 400,-38.5"/>
<text text-anchor="middle" x="439.5" y="-45.5" font-family="Helvetica,sans-Serif" font-size="10.00" fill="#000000">is_long_option</text>
</a>
</g>
</g>
<!-- Node268&#45;&gt;Node269 -->
<g id="edge3" class="edge">
<title>Node268&#45;&gt;Node269</title>
<path fill="none" stroke="#191970" d="M364.2549,-37.0026C372.7401,-38.2428 381.4642,-39.5179 389.8292,-40.7404"/>
<polygon fill="#191970" stroke="#191970" points="389.4132,-44.2167 399.8142,-42.1998 390.4255,-37.2903 389.4132,-44.2167"/>
</g>
<!-- Node270 -->
<g id="node5" class="node">
<title>Node270</title>
<g id="a_node5"><a xlink:href="encode_8c.html#a671b4261b2d24de8696258a8efb0f359" target="_top" xlink:title="coap_fls">
<polygon fill="#ffffff" stroke="#000000" points="413,-.5 413,-19.5 466,-19.5 466,-.5 413,-.5"/>
<text text-anchor="middle" x="439.5" y="-7.5" font-family="Helvetica,sans-Serif" font-size="10.00" fill="#000000">coap_fls</text>
</a>
</g>
</g>
<!-- Node268&#45;&gt;Node270 -->
<g id="edge4" class="edge">
<title>Node268&#45;&gt;Node270</title>
<path fill="none" stroke="#191970" d="M364.2549,-20.9974C377.2429,-19.0991 390.7907,-17.119 402.7533,-15.3707"/>
<polygon fill="#191970" stroke="#191970" points="403.4152,-18.8112 412.8039,-13.9017 402.4029,-11.8848 403.4152,-18.8112"/>
</g>
<!-- Node271 -->
<g id="node6" class="node">
<title>Node271</title>
<g id="a_node6"><a xlink:href="encode_8c.html#a5732d87decbffe771159ea02a5e25488" target="_top" xlink:title="coap_flsll">
<polygon fill="#ffffff" stroke="#000000" points="515,-.5 515,-19.5 573,-19.5 573,-.5 515,-.5"/>
<text text-anchor="middle" x="544" y="-7.5" font-family="Helvetica,sans-Serif" font-size="10.00" fill="#000000">coap_flsll</text>
</a>
</g>
</g>
<!-- Node270&#45;&gt;Node271 -->
<g id="edge5" class="edge">
<title>Node270&#45;&gt;Node271</title>
<path fill="none" stroke="#191970" d="M466.1401,-10C477.878,-10 491.9067,-10 504.8021,-10"/>
<polygon fill="#191970" stroke="#191970" points="504.8356,-13.5001 514.8356,-10 504.8355,-6.5001 504.8356,-13.5001"/>
</g>
</g>
</svg>
