<?xml version="1.0" encoding="UTF-8" standalone="no"?>
<!DOCTYPE svg PUBLIC "-//W3C//DTD SVG 1.1//EN"
 "http://www.w3.org/Graphics/SVG/1.1/DTD/svg11.dtd">
<!-- Generated by graphviz version 2.40.1 (20161225.0304)
 -->
<!-- Title: coap_split_path Pages: 1 -->
<svg width="527pt" height="142pt"
 viewBox="0.00 0.00 527.00 142.00" xmlns="http://www.w3.org/2000/svg" xmlns:xlink="http://www.w3.org/1999/xlink">
<g id="graph0" class="graph" transform="scale(1 1) rotate(0) translate(4 138)">
<title>coap_split_path</title>
<polygon fill="#ffffff" stroke="transparent" points="-4,4 -4,-138 523,-138 523,4 -4,4"/>
<!-- Node6 -->
<g id="node1" class="node">
<title>Node6</title>
<polygon fill="#bfbfbf" stroke="#000000" points="0,-57.5 0,-76.5 85,-76.5 85,-57.5 0,-57.5"/>
<text text-anchor="middle" x="42.5" y="-64.5" font-family="Helvetica,sans-Serif" font-size="10.00" fill="#000000">coap_split_path</text>
</g>
<!-- Node7 -->
<g id="node2" class="node">
<title>Node7</title>
<g id="a_node2"><a xlink:href="uri_8c.html#a517b4456d0a079f5886599dccce09a2a" target="_top" xlink:title="Splits the given string into segments. ">
<polygon fill="#ffffff" stroke="#000000" points="121,-76.5 121,-95.5 229,-95.5 229,-76.5 121,-76.5"/>
<text text-anchor="middle" x="175" y="-83.5" font-family="Helvetica,sans-Serif" font-size="10.00" fill="#000000">coap_split_path_impl</text>
</a>
</g>
</g>
<!-- Node6&#45;&gt;Node7 -->
<g id="edge1" class="edge">
<title>Node6&#45;&gt;Node7</title>
<path fill="none" stroke="#191970" d="M85.1532,-73.1163C93.3094,-74.2859 102.0146,-75.5342 110.6758,-76.7762"/>
<polygon fill="#191970" stroke="#191970" points="110.392,-80.2712 120.7876,-78.2261 111.3857,-73.3421 110.392,-80.2712"/>
</g>
<!-- Node10 -->
<g id="node5" class="node">
<title>Node10</title>
<g id="a_node5"><a xlink:href="uri_8c.html#a7765779604c7c1166e99179722d4bdd8" target="_top" xlink:title="write_option">
<polygon fill="#ffffff" stroke="#000000" points="140.5,-38.5 140.5,-57.5 209.5,-57.5 209.5,-38.5 140.5,-38.5"/>
<text text-anchor="middle" x="175" y="-45.5" font-family="Helvetica,sans-Serif" font-size="10.00" fill="#000000">write_option</text>
</a>
</g>
</g>
<!-- Node6&#45;&gt;Node10 -->
<g id="edge4" class="edge">
<title>Node6&#45;&gt;Node10</title>
<path fill="none" stroke="#191970" d="M85.1532,-60.8837C99.52,-58.8235 115.5899,-56.5192 130.1229,-54.4352"/>
<polygon fill="#191970" stroke="#191970" points="130.9854,-57.8474 140.3873,-52.9633 129.9917,-50.9183 130.9854,-57.8474"/>
</g>
<!-- Node8 -->
<g id="node3" class="node">
<title>Node8</title>
<g id="a_node3"><a xlink:href="uri_8c.html#a480038916e84b8f454c62772258d57e6" target="_top" xlink:title="A length&#45;safe version of strchr(). ">
<polygon fill="#ffffff" stroke="#000000" points="298.5,-114.5 298.5,-133.5 345.5,-133.5 345.5,-114.5 298.5,-114.5"/>
<text text-anchor="middle" x="322" y="-121.5" font-family="Helvetica,sans-Serif" font-size="10.00" fill="#000000">strnchr</text>
</a>
</g>
</g>
<!-- Node7&#45;&gt;Node8 -->
<g id="edge2" class="edge">
<title>Node7&#45;&gt;Node8</title>
<path fill="none" stroke="#191970" d="M212.0943,-95.589C235.5492,-101.6522 265.6214,-109.4259 288.3785,-115.3087"/>
<polygon fill="#191970" stroke="#191970" points="287.7119,-118.7514 298.2696,-117.8656 289.4639,-111.9742 287.7119,-118.7514"/>
</g>
<!-- Node9 -->
<g id="node4" class="node">
<title>Node9</title>
<g id="a_node4"><a xlink:href="uri_8c.html#a4163dae83e43872640dc52914271306f" target="_top" xlink:title="Checks if path segment s consists of one or two dots. ">
<polygon fill="#ffffff" stroke="#000000" points="304.5,-76.5 304.5,-95.5 339.5,-95.5 339.5,-76.5 304.5,-76.5"/>
<text text-anchor="middle" x="322" y="-83.5" font-family="Helvetica,sans-Serif" font-size="10.00" fill="#000000">dots</text>
</a>
</g>
</g>
<!-- Node7&#45;&gt;Node9 -->
<g id="edge3" class="edge">
<title>Node7&#45;&gt;Node9</title>
<path fill="none" stroke="#191970" d="M229.3197,-86C251.3676,-86 275.8913,-86 294.1715,-86"/>
<polygon fill="#191970" stroke="#191970" points="294.4076,-89.5001 304.4075,-86 294.4075,-82.5001 294.4076,-89.5001"/>
</g>
<!-- Node11 -->
<g id="node6" class="node">
<title>Node11</title>
<g id="a_node6"><a xlink:href="uri_8c.html#a9a39cbf2ed89a758ced3f9fecd125b50" target="_top" xlink:title="Writes a coap option from given string s to buf. ">
<polygon fill="#ffffff" stroke="#000000" points="265,-38.5 265,-57.5 379,-57.5 379,-38.5 265,-38.5"/>
<text text-anchor="middle" x="322" y="-45.5" font-family="Helvetica,sans-Serif" font-size="10.00" fill="#000000">make_decoded_option</text>
</a>
</g>
</g>
<!-- Node10&#45;&gt;Node11 -->
<g id="edge5" class="edge">
<title>Node10&#45;&gt;Node11</title>
<path fill="none" stroke="#191970" d="M209.8369,-48C223.2787,-48 239.1322,-48 254.6207,-48"/>
<polygon fill="#191970" stroke="#191970" points="254.7171,-51.5001 264.7171,-48 254.717,-44.5001 254.7171,-51.5001"/>
</g>
<!-- Node12 -->
<g id="node7" class="node">
<title>Node12</title>
<g id="a_node7"><a xlink:href="uri_8c.html#a5cd1953aed32e942af08e39d396fb8fd" target="_top" xlink:title="Runs through the given path (or query) segment and checks if percent&#45;encodings are correct...">
<polygon fill="#ffffff" stroke="#000000" points="424,-76.5 424,-95.5 510,-95.5 510,-76.5 424,-76.5"/>
<text text-anchor="middle" x="467" y="-83.5" font-family="Helvetica,sans-Serif" font-size="10.00" fill="#000000">check_segment</text>
</a>
</g>
</g>
<!-- Node11&#45;&gt;Node12 -->
<g id="edge6" class="edge">
<title>Node11&#45;&gt;Node12</title>
<path fill="none" stroke="#191970" d="M358.5896,-57.589C377.4654,-62.5358 400.6859,-68.6211 420.7879,-73.8892"/>
<polygon fill="#191970" stroke="#191970" points="420.1129,-77.3305 430.6735,-76.4799 421.8875,-70.5591 420.1129,-77.3305"/>
</g>
<!-- Node13 -->
<g id="node8" class="node">
<title>Node13</title>
<g id="a_node8"><a xlink:href="group__opt__filter.html#gafebbd04a7895df694a9345dad0275aeb" target="_top" xlink:title="Encodes the given delta and length values into opt. ">
<polygon fill="#ffffff" stroke="#000000" points="415,-38.5 415,-57.5 519,-57.5 519,-38.5 415,-38.5"/>
<text text-anchor="middle" x="467" y="-45.5" font-family="Helvetica,sans-Serif" font-size="10.00" fill="#000000">coap_opt_setheader</text>
</a>
</g>
</g>
<!-- Node11&#45;&gt;Node13 -->
<g id="edge7" class="edge">
<title>Node11&#45;&gt;Node13</title>
<path fill="none" stroke="#191970" d="M379.3078,-48C387.637,-48 396.2462,-48 404.6686,-48"/>
<polygon fill="#191970" stroke="#191970" points="404.8182,-51.5001 414.8181,-48 404.8181,-44.5001 404.8182,-51.5001"/>
</g>
<!-- Node14 -->
<g id="node9" class="node">
<title>Node14</title>
<g id="a_node9"><a xlink:href="uri_8c.html#a2c99e399450162db911d50c8411722ab" target="_top" xlink:title="Decodes percent&#45;encoded characters while copying the string seg of size length to buf...">
<polygon fill="#ffffff" stroke="#000000" points="421.5,-.5 421.5,-19.5 512.5,-19.5 512.5,-.5 421.5,-.5"/>
<text text-anchor="middle" x="467" y="-7.5" font-family="Helvetica,sans-Serif" font-size="10.00" fill="#000000">decode_segment</text>
</a>
</g>
</g>
<!-- Node11&#45;&gt;Node14 -->
<g id="edge8" class="edge">
<title>Node11&#45;&gt;Node14</title>
<path fill="none" stroke="#191970" d="M358.5896,-38.411C377.4654,-33.4642 400.6859,-27.3789 420.7879,-22.1108"/>
<polygon fill="#191970" stroke="#191970" points="421.8875,-25.4409 430.6735,-19.5201 420.1129,-18.6695 421.8875,-25.4409"/>
</g>
</g>
</svg>
