<?xml version="1.0" encoding="UTF-8" standalone="no"?>
<!DOCTYPE svg PUBLIC "-//W3C//DTD SVG 1.1//EN"
 "http://www.w3.org/Graphics/SVG/1.1/DTD/svg11.dtd">
<!-- Generated by graphviz version 2.40.1 (20161225.0304)
 -->
<!-- Title: coap_option_iterator_init Pages: 1 -->
<svg width="1815pt" height="461pt"
 viewBox="0.00 0.00 1815.00 461.44" xmlns="http://www.w3.org/2000/svg" xmlns:xlink="http://www.w3.org/1999/xlink">
<g id="graph0" class="graph" transform="scale(1 1) rotate(0) translate(4 457.4426)">
<title>coap_option_iterator_init</title>
<polygon fill="#ffffff" stroke="transparent" points="-4,4 -4,-457.4426 1811,-457.4426 1811,4 -4,4"/>
<!-- Node436 -->
<g id="node1" class="node">
<title>Node436</title>
<polygon fill="#bfbfbf" stroke="#000000" points="0,-164.6046 0,-183.6046 122,-183.6046 122,-164.6046 0,-164.6046"/>
<text text-anchor="middle" x="61" y="-171.6046" font-family="Helvetica,sans-Serif" font-size="10.00" fill="#000000">coap_option_iterator_init</text>
</g>
<!-- Node437 -->
<g id="node2" class="node">
<title>Node437</title>
<g id="a_node2"><a xlink:href="debug_8h.html#a88cca636643023b4867f9c3fd8f0c09c" target="_top" xlink:title="coap_show_pdu">
<polygon fill="#ffffff" stroke="#000000" points="304.5,-122.6046 304.5,-141.6046 391.5,-141.6046 391.5,-122.6046 304.5,-122.6046"/>
<text text-anchor="middle" x="348" y="-129.6046" font-family="Helvetica,sans-Serif" font-size="10.00" fill="#000000">coap_show_pdu</text>
</a>
</g>
</g>
<!-- Node436&#45;&gt;Node437 -->
<g id="edge1" class="edge">
<title>Node436&#45;&gt;Node437</title>
<path fill="none" stroke="#191970" d="M116.435,-162.523C129.9967,-159.8897 144.4935,-157.242 158,-155.1046 208.0483,-147.1845 265.8925,-140.5386 304.4844,-136.4594"/>
<polygon fill="#191970" stroke="#191970" points="115.4126,-159.1571 106.2784,-164.5251 116.7665,-166.0249 115.4126,-159.1571"/>
</g>
<!-- Node449 -->
<g id="node14" class="node">
<title>Node449</title>
<g id="a_node14"><a xlink:href="net_8h.html#a9c6736c0418c3adf5e7f6fb76f000cfe" target="_top" xlink:title="Verifies that pdu contains no unknown critical options. ">
<polygon fill="#ffffff" stroke="#000000" points="607,-316.6046 607,-335.6046 741,-335.6046 741,-316.6046 607,-316.6046"/>
<text text-anchor="middle" x="674" y="-323.6046" font-family="Helvetica,sans-Serif" font-size="10.00" fill="#000000">coap_option_check_critical</text>
</a>
</g>
</g>
<!-- Node436&#45;&gt;Node449 -->
<g id="edge20" class="edge">
<title>Node436&#45;&gt;Node449</title>
<path fill="none" stroke="#191970" d="M66.7931,-193.3618C78.4914,-229.2724 108.1526,-306.9874 158,-353.1046 206.925,-398.3684 230.624,-396.8362 295,-414.1046 413.6531,-445.9323 457.5035,-476.1164 571,-429.1046 617.9614,-409.6525 654.6752,-357.2498 668.283,-335.6309"/>
<polygon fill="#191970" stroke="#191970" points="70.0749,-192.1305 63.7368,-183.6406 63.3972,-194.23 70.0749,-192.1305"/>
</g>
<!-- Node450 -->
<g id="node15" class="node">
<title>Node450</title>
<g id="a_node15"><a xlink:href="net_8h.html#ab7953637ad760f76ffb8060ddf47fe6a" target="_top" xlink:title="Creates a new ACK PDU with specified error code. ">
<polygon fill="#ffffff" stroke="#000000" points="438.5,-46.6046 438.5,-65.6046 569.5,-65.6046 569.5,-46.6046 438.5,-46.6046"/>
<text text-anchor="middle" x="504" y="-53.6046" font-family="Helvetica,sans-Serif" font-size="10.00" fill="#000000">coap_new_error_response</text>
</a>
</g>
</g>
<!-- Node436&#45;&gt;Node450 -->
<g id="edge23" class="edge">
<title>Node436&#45;&gt;Node450</title>
<path fill="none" stroke="#191970" d="M79.8857,-158.1741C98.5868,-143.175 128.606,-121.1225 158,-108.1046 249.5035,-67.5796 366.5323,-57.6783 438.3352,-55.7685"/>
<polygon fill="#191970" stroke="#191970" points="77.6602,-155.4728 72.1327,-164.5115 82.0903,-160.8926 77.6602,-155.4728"/>
</g>
<!-- Node456 -->
<g id="node21" class="node">
<title>Node456</title>
<g id="a_node21"><a xlink:href="net_8c.html#ac4cbcfd073489b57805db665ce3d0681" target="_top" xlink:title="handle_signaling">
<polygon fill="#ffffff" stroke="#000000" points="303.5,-84.6046 303.5,-103.6046 392.5,-103.6046 392.5,-84.6046 303.5,-84.6046"/>
<text text-anchor="middle" x="348" y="-91.6046" font-family="Helvetica,sans-Serif" font-size="10.00" fill="#000000">handle_signaling</text>
</a>
</g>
</g>
<!-- Node436&#45;&gt;Node456 -->
<g id="edge34" class="edge">
<title>Node436&#45;&gt;Node456</title>
<path fill="none" stroke="#191970" d="M92.6801,-160.7142C111.4439,-153.1134 135.8149,-143.8092 158,-137.1046 207.0469,-122.2819 264.5847,-109.9436 303.3862,-102.3405"/>
<polygon fill="#191970" stroke="#191970" points="91.345,-157.4788 83.4203,-164.5108 94.0006,-163.9555 91.345,-157.4788"/>
</g>
<!-- Node457 -->
<g id="node22" class="node">
<title>Node457</title>
<g id="a_node22"><a xlink:href="group__opt__filter.html#gad4162a3db83918ae0e4f47b4b3aa523d" target="_top" xlink:title="Retrieves the first option of type type from pdu. ">
<polygon fill="#ffffff" stroke="#000000" points="158,-324.6046 158,-343.6046 259,-343.6046 259,-324.6046 158,-324.6046"/>
<text text-anchor="middle" x="208.5" y="-331.6046" font-family="Helvetica,sans-Serif" font-size="10.00" fill="#000000">coap_check_option</text>
</a>
</g>
</g>
<!-- Node436&#45;&gt;Node457 -->
<g id="edge36" class="edge">
<title>Node436&#45;&gt;Node457</title>
<path fill="none" stroke="#191970" d="M76.8061,-191.2501C107.719,-224.7828 175.2793,-298.0686 199.5745,-324.4226"/>
<polygon fill="#191970" stroke="#191970" points="79.1365,-188.6143 69.7851,-183.6342 73.9898,-193.3589 79.1365,-188.6143"/>
</g>
<!-- Node462 -->
<g id="node27" class="node">
<title>Node462</title>
<g id="a_node27"><a xlink:href="group__uri__parse.html#gaab1eb2549c4e55fa206befcab3d3da73" target="_top" xlink:title="Extract query string from request PDU according to escape rules in 6.5.8. ">
<polygon fill="#ffffff" stroke="#000000" points="165.5,-164.6046 165.5,-183.6046 251.5,-183.6046 251.5,-164.6046 165.5,-164.6046"/>
<text text-anchor="middle" x="208.5" y="-171.6046" font-family="Helvetica,sans-Serif" font-size="10.00" fill="#000000">coap_get_query</text>
</a>
</g>
</g>
<!-- Node436&#45;&gt;Node462 -->
<g id="edge46" class="edge">
<title>Node436&#45;&gt;Node462</title>
<path fill="none" stroke="#191970" d="M132.4791,-174.1046C143.647,-174.1046 154.8844,-174.1046 165.1657,-174.1046"/>
<polygon fill="#191970" stroke="#191970" points="132.2719,-170.6047 122.2719,-174.1046 132.2718,-177.6047 132.2719,-170.6047"/>
</g>
<!-- Node464 -->
<g id="node29" class="node">
<title>Node464</title>
<g id="a_node29"><a xlink:href="group__uri__parse.html#ga914ee76e66cdf45fff7505d51e2a337e" target="_top" xlink:title="Extract uri_path string from request PDU. ">
<polygon fill="#ffffff" stroke="#000000" points="160.5,-204.6046 160.5,-223.6046 256.5,-223.6046 256.5,-204.6046 160.5,-204.6046"/>
<text text-anchor="middle" x="208.5" y="-211.6046" font-family="Helvetica,sans-Serif" font-size="10.00" fill="#000000">coap_get_uri_path</text>
</a>
</g>
</g>
<!-- Node436&#45;&gt;Node464 -->
<g id="edge49" class="edge">
<title>Node436&#45;&gt;Node464</title>
<path fill="none" stroke="#191970" d="M106.2713,-186.3815C127.883,-192.2424 153.3496,-199.1485 173.4584,-204.6018"/>
<polygon fill="#191970" stroke="#191970" points="106.8974,-182.925 96.3299,-183.6856 105.0652,-189.681 106.8974,-182.925"/>
</g>
<!-- Node438 -->
<g id="node3" class="node">
<title>Node438</title>
<g id="a_node3"><a xlink:href="net_8h.html#a7bb944fc52f772655356d95724317401" target="_top" xlink:title="Dispatches the PDUs from the receive queue in given context. ">
<polygon fill="#ffffff" stroke="#000000" points="796.5,-132.6046 796.5,-151.6046 876.5,-151.6046 876.5,-132.6046 796.5,-132.6046"/>
<text text-anchor="middle" x="836.5" y="-139.6046" font-family="Helvetica,sans-Serif" font-size="10.00" fill="#000000">coap_dispatch</text>
</a>
</g>
</g>
<!-- Node437&#45;&gt;Node438 -->
<g id="edge2" class="edge">
<title>Node437&#45;&gt;Node438</title>
<path fill="none" stroke="#191970" d="M401.8537,-133.207C500.6966,-135.2304 708.9372,-139.4933 796.4369,-141.2845"/>
<polygon fill="#191970" stroke="#191970" points="401.8506,-129.7063 391.781,-133.0008 401.7073,-136.7048 401.8506,-129.7063"/>
</g>
<!-- Node439 -->
<g id="node4" class="node">
<title>Node439</title>
<g id="a_node4"><a xlink:href="net_8c.html#acd36f6fba6d30ab9557e0e6521f4a088" target="_top" xlink:title="coap_read_session">
<polygon fill="#ffffff" stroke="#000000" points="1240.5,-96.6046 1240.5,-115.6046 1341.5,-115.6046 1341.5,-96.6046 1240.5,-96.6046"/>
<text text-anchor="middle" x="1291" y="-103.6046" font-family="Helvetica,sans-Serif" font-size="10.00" fill="#000000">coap_read_session</text>
</a>
</g>
</g>
<!-- Node438&#45;&gt;Node439 -->
<g id="edge3" class="edge">
<title>Node438&#45;&gt;Node439</title>
<path fill="none" stroke="#191970" d="M887.1357,-135.1843C901.6078,-133.358 917.4106,-131.5077 932,-130.1046 1041.7453,-119.5503 1170.8112,-112.1411 1240.3894,-108.5571"/>
<polygon fill="#191970" stroke="#191970" points="886.3419,-131.7575 876.8694,-136.5032 887.2339,-138.7004 886.3419,-131.7575"/>
</g>
<!-- Node444 -->
<g id="node9" class="node">
<title>Node444</title>
<g id="a_node9"><a xlink:href="net_8h.html#a5854b1394bfddd574e48af116e3aaaf9" target="_top" xlink:title="Sends an RST message with code 0 for the specified request to dst. ">
<polygon fill="#ffffff" stroke="#000000" points="1725.5,-198.6046 1725.5,-217.6046 1805.5,-217.6046 1805.5,-198.6046 1725.5,-198.6046"/>
<text text-anchor="middle" x="1765.5" y="-205.6046" font-family="Helvetica,sans-Serif" font-size="10.00" fill="#000000">coap_send_rst</text>
</a>
</g>
</g>
<!-- Node438&#45;&gt;Node444 -->
<g id="edge19" class="edge">
<title>Node438&#45;&gt;Node444</title>
<path fill="none" stroke="#191970" d="M861.4308,-156.8259C912.4432,-185.5105 1033.198,-246.1046 1143,-246.1046 1143,-246.1046 1143,-246.1046 1526,-246.1046 1598.412,-246.1046 1681.6345,-228.9508 1728.453,-217.6936"/>
<polygon fill="#191970" stroke="#191970" points="862.8779,-153.6218 852.4584,-151.7022 859.4066,-159.7005 862.8779,-153.6218"/>
</g>
<!-- Node446 -->
<g id="node11" class="node">
<title>Node446</title>
<g id="a_node11"><a xlink:href="net_8h.html#ae6b8ca457dd41f23372f9e9a7159312b" target="_top" xlink:title="Parses and interprets a CoAP message with context ctx. ">
<polygon fill="#ffffff" stroke="#000000" points="937.5,-139.6046 937.5,-158.6046 1041.5,-158.6046 1041.5,-139.6046 937.5,-139.6046"/>
<text text-anchor="middle" x="989.5" y="-146.6046" font-family="Helvetica,sans-Serif" font-size="10.00" fill="#000000">coap_handle_dgram</text>
</a>
</g>
</g>
<!-- Node438&#45;&gt;Node446 -->
<g id="edge13" class="edge">
<title>Node438&#45;&gt;Node446</title>
<path fill="none" stroke="#191970" d="M887.0466,-144.4172C903.2327,-145.1577 921.1774,-145.9787 937.4677,-146.724"/>
<polygon fill="#191970" stroke="#191970" points="886.8485,-140.9045 876.6989,-143.9437 886.5285,-147.8972 886.8485,-140.9045"/>
</g>
<!-- Node440 -->
<g id="node5" class="node">
<title>Node440</title>
<g id="a_node5"><a xlink:href="net_8h.html#a0748d791fd2af516dd93fbadb660d440" target="_top" xlink:title="For applications with their own message loop, reads all data from the network. ">
<polygon fill="#ffffff" stroke="#000000" points="1379,-96.6046 1379,-115.6046 1441,-115.6046 1441,-96.6046 1379,-96.6046"/>
<text text-anchor="middle" x="1410" y="-103.6046" font-family="Helvetica,sans-Serif" font-size="10.00" fill="#000000">coap_read</text>
</a>
</g>
</g>
<!-- Node439&#45;&gt;Node440 -->
<g id="edge4" class="edge">
<title>Node439&#45;&gt;Node440</title>
<path fill="none" stroke="#191970" d="M1351.949,-106.1046C1361.3142,-106.1046 1370.6315,-106.1046 1378.9721,-106.1046"/>
<polygon fill="#191970" stroke="#191970" points="1351.8119,-102.6047 1341.8119,-106.1046 1351.8119,-109.6047 1351.8119,-102.6047"/>
</g>
<!-- Node441 -->
<g id="node6" class="node">
<title>Node441</title>
<g id="a_node6"><a xlink:href="coap__io_8c.html#a75a7c93e10ca7858449ba304aad4ea37" target="_top" xlink:title="coap_run_once">
<polygon fill="#ffffff" stroke="#000000" points="1724,-46.6046 1724,-65.6046 1807,-65.6046 1807,-46.6046 1724,-46.6046"/>
<text text-anchor="middle" x="1765.5" y="-53.6046" font-family="Helvetica,sans-Serif" font-size="10.00" fill="#000000">coap_run_once</text>
</a>
</g>
</g>
<!-- Node440&#45;&gt;Node441 -->
<g id="edge5" class="edge">
<title>Node440&#45;&gt;Node441</title>
<path fill="none" stroke="#191970" d="M1421.304,-87.9589C1432.9295,-71.1887 1452.7349,-47.3652 1477,-37.1046 1566.4588,.7234 1685.5078,-29.489 1738.3051,-46.4959"/>
<polygon fill="#191970" stroke="#191970" points="1418.3061,-86.1471 1415.7106,-96.4191 1424.1453,-90.0077 1418.3061,-86.1471"/>
</g>
<!-- Node442 -->
<g id="node7" class="node">
<title>Node442</title>
<g id="a_node7"><a xlink:href="net_8h.html#a9900c032b74bd57f67d489484a2b3207" target="_top" xlink:title="Handles retransmissions of confirmable messages. ">
<polygon fill="#ffffff" stroke="#000000" points="1483,-88.6046 1483,-107.6046 1569,-107.6046 1569,-88.6046 1483,-88.6046"/>
<text text-anchor="middle" x="1526" y="-95.6046" font-family="Helvetica,sans-Serif" font-size="10.00" fill="#000000">coap_retransmit</text>
</a>
</g>
</g>
<!-- Node440&#45;&gt;Node442 -->
<g id="edge6" class="edge">
<title>Node440&#45;&gt;Node442</title>
<path fill="none" stroke="#191970" d="M1451.3342,-103.2539C1461.4829,-102.554 1472.3756,-101.8028 1482.6177,-101.0965"/>
<polygon fill="#191970" stroke="#191970" points="1450.8213,-99.7809 1441.0859,-103.9607 1451.303,-106.7643 1450.8213,-99.7809"/>
</g>
<!-- Node440&#45;&gt;Node444 -->
<g id="edge12" class="edge">
<title>Node440&#45;&gt;Node444</title>
<path fill="none" stroke="#191970" d="M1451.1812,-117.9203C1522.3153,-138.3301 1666.8442,-179.7983 1732.145,-198.5344"/>
<polygon fill="#191970" stroke="#191970" points="1451.8142,-114.4607 1441.2367,-115.067 1449.8836,-121.1893 1451.8142,-114.4607"/>
</g>
<!-- Node443 -->
<g id="node8" class="node">
<title>Node443</title>
<g id="a_node8"><a xlink:href="net_8h.html#aaac86ac50793f309678e4951ecf8863f" target="_top" xlink:title="For applications with their own message loop, send all pending retransmits and return the list of soc...">
<polygon fill="#ffffff" stroke="#000000" points="1617.5,-84.6046 1617.5,-103.6046 1681.5,-103.6046 1681.5,-84.6046 1617.5,-84.6046"/>
<text text-anchor="middle" x="1649.5" y="-91.6046" font-family="Helvetica,sans-Serif" font-size="10.00" fill="#000000">coap_write</text>
</a>
</g>
</g>
<!-- Node442&#45;&gt;Node443 -->
<g id="edge7" class="edge">
<title>Node442&#45;&gt;Node443</title>
<path fill="none" stroke="#191970" d="M1579.426,-96.3742C1592.3725,-95.9549 1605.8163,-95.5194 1617.4245,-95.1435"/>
<polygon fill="#191970" stroke="#191970" points="1579.0757,-92.8836 1569.1943,-96.7056 1579.3024,-99.8799 1579.0757,-92.8836"/>
</g>
<!-- Node442&#45;&gt;Node444 -->
<g id="edge11" class="edge">
<title>Node442&#45;&gt;Node444</title>
<path fill="none" stroke="#191970" d="M1570.089,-110.6427C1603.3708,-120.8734 1649.6921,-136.7711 1688,-156.1046 1712.446,-168.4422 1738.3906,-187.1522 1753.2015,-198.4443"/>
<polygon fill="#191970" stroke="#191970" points="1570.7872,-107.1973 1560.2022,-107.652 1568.7605,-113.8975 1570.7872,-107.1973"/>
</g>
<!-- Node445 -->
<g id="node10" class="node">
<title>Node445</title>
<g id="a_node10"><a xlink:href="libcoap_8h.html#a5d1fb0b44497970b0f75fa0b38570a82" target="_top" xlink:title="coap_cleanup">
<polygon fill="#ffffff" stroke="#000000" points="1611,-46.6046 1611,-65.6046 1688,-65.6046 1688,-46.6046 1611,-46.6046"/>
<text text-anchor="middle" x="1649.5" y="-53.6046" font-family="Helvetica,sans-Serif" font-size="10.00" fill="#000000">coap_cleanup</text>
</a>
</g>
</g>
<!-- Node442&#45;&gt;Node445 -->
<g id="edge10" class="edge">
<title>Node442&#45;&gt;Node445</title>
<path fill="none" stroke="#191970" d="M1563.6254,-85.3089C1582.1396,-79.0126 1604.0869,-71.5487 1621.1593,-65.7427"/>
<polygon fill="#191970" stroke="#191970" points="1562.3646,-82.0407 1554.0241,-88.5741 1564.6185,-88.668 1562.3646,-82.0407"/>
</g>
<!-- Node443&#45;&gt;Node441 -->
<g id="edge8" class="edge">
<title>Node443&#45;&gt;Node441</title>
<path fill="none" stroke="#191970" d="M1688.6528,-81.2787C1704.2176,-76.1799 1721.8141,-70.4155 1736.2377,-65.6905"/>
<polygon fill="#191970" stroke="#191970" points="1687.1852,-78.0763 1678.7717,-84.5156 1689.3644,-84.7285 1687.1852,-78.0763"/>
</g>
<!-- Node443&#45;&gt;Node444 -->
<g id="edge9" class="edge">
<title>Node443&#45;&gt;Node444</title>
<path fill="none" stroke="#191970" d="M1676.3117,-109.3418C1680.3742,-112.0643 1684.4045,-115.0225 1688,-118.1046 1717.9015,-143.7361 1746.3252,-181.2196 1758.8314,-198.6018"/>
<polygon fill="#191970" stroke="#191970" points="1677.849,-106.1736 1667.5231,-103.8017 1674.1162,-112.0952 1677.849,-106.1736"/>
</g>
<!-- Node446&#45;&gt;Node444 -->
<g id="edge18" class="edge">
<title>Node446&#45;&gt;Node444</title>
<path fill="none" stroke="#191970" d="M1028.3314,-161.7008C1085.2942,-179.0298 1195.1489,-208.1046 1291,-208.1046 1291,-208.1046 1291,-208.1046 1526,-208.1046 1596.0621,-208.1046 1677.6529,-208.1046 1725.2429,-208.1046"/>
<polygon fill="#191970" stroke="#191970" points="1029.245,-158.3199 1018.6576,-158.7153 1027.1807,-165.0086 1029.245,-158.3199"/>
</g>
<!-- Node447 -->
<g id="node12" class="node">
<title>Node447</title>
<g id="a_node12"><a xlink:href="net_8c.html#a8534f7860b14e0743529daff196a27ce" target="_top" xlink:title="coap_handle_dgram_for\l_proto">
<polygon fill="#ffffff" stroke="#000000" points="1083,-134.1046 1083,-164.1046 1203,-164.1046 1203,-134.1046 1083,-134.1046"/>
<text text-anchor="start" x="1091" y="-152.1046" font-family="Helvetica,sans-Serif" font-size="10.00" fill="#000000">coap_handle_dgram_for</text>
<text text-anchor="middle" x="1143" y="-141.1046" font-family="Helvetica,sans-Serif" font-size="10.00" fill="#000000">_proto</text>
</a>
</g>
</g>
<!-- Node446&#45;&gt;Node447 -->
<g id="edge14" class="edge">
<title>Node446&#45;&gt;Node447</title>
<path fill="none" stroke="#191970" d="M1051.9706,-149.1046C1062.1894,-149.1046 1072.7583,-149.1046 1082.9178,-149.1046"/>
<polygon fill="#191970" stroke="#191970" points="1051.8967,-145.6047 1041.8967,-149.1046 1051.8966,-152.6047 1051.8967,-145.6047"/>
</g>
<!-- Node447&#45;&gt;Node439 -->
<g id="edge15" class="edge">
<title>Node447&#45;&gt;Node439</title>
<path fill="none" stroke="#191970" d="M1204.52,-131.2305C1222.8554,-125.9034 1242.2434,-120.2704 1258.0046,-115.6911"/>
<polygon fill="#191970" stroke="#191970" points="1203.3896,-127.9141 1194.7632,-134.0653 1205.3427,-134.6362 1203.3896,-127.9141"/>
</g>
<!-- Node448 -->
<g id="node13" class="node">
<title>Node448</title>
<g id="a_node13"><a xlink:href="net_8c.html#a44ffb4b70e537043e9a9cf344be24b92" target="_top" xlink:title="coap_read_endpoint">
<polygon fill="#ffffff" stroke="#000000" points="1239,-136.6046 1239,-155.6046 1343,-155.6046 1343,-136.6046 1239,-136.6046"/>
<text text-anchor="middle" x="1291" y="-143.6046" font-family="Helvetica,sans-Serif" font-size="10.00" fill="#000000">coap_read_endpoint</text>
</a>
</g>
</g>
<!-- Node447&#45;&gt;Node448 -->
<g id="edge16" class="edge">
<title>Node447&#45;&gt;Node448</title>
<path fill="none" stroke="#191970" d="M1213.2786,-147.68C1221.917,-147.5049 1230.6233,-147.3284 1238.9248,-147.1602"/>
<polygon fill="#191970" stroke="#191970" points="1213.1242,-144.1823 1203.1973,-147.8844 1213.2662,-151.1809 1213.1242,-144.1823"/>
</g>
<!-- Node448&#45;&gt;Node440 -->
<g id="edge17" class="edge">
<title>Node448&#45;&gt;Node440</title>
<path fill="none" stroke="#191970" d="M1329.1899,-133.2676C1346.2571,-127.5308 1366.0197,-120.8879 1381.7291,-115.6074"/>
<polygon fill="#191970" stroke="#191970" points="1327.8671,-130.0198 1319.5035,-136.5236 1330.0975,-136.6549 1327.8671,-130.0198"/>
</g>
<!-- Node449&#45;&gt;Node438 -->
<g id="edge21" class="edge">
<title>Node449&#45;&gt;Node438</title>
<path fill="none" stroke="#191970" d="M694.7838,-310.3941C708.5728,-299.5106 726.6949,-284.2973 741,-269.1046 778.8225,-228.9351 815.8359,-174.0158 830.2194,-151.9108"/>
<polygon fill="#191970" stroke="#191970" points="692.5809,-307.6734 686.831,-316.5723 696.8753,-313.2014 692.5809,-307.6734"/>
</g>
<!-- Node449&#45;&gt;Node444 -->
<g id="edge22" class="edge">
<title>Node449&#45;&gt;Node444</title>
<path fill="none" stroke="#191970" d="M751.4747,-326.1046C815.3417,-326.1046 908.2987,-326.1046 989.5,-326.1046 989.5,-326.1046 989.5,-326.1046 1526,-326.1046 1598.7858,-326.1046 1624.6262,-337.9032 1688,-302.1046 1724.0949,-281.7153 1750.3486,-237.446 1760.6722,-217.8148"/>
<polygon fill="#191970" stroke="#191970" points="751.0858,-322.6047 741.0857,-326.1046 751.0857,-329.6047 751.0858,-322.6047"/>
</g>
<!-- Node450&#45;&gt;Node438 -->
<g id="edge32" class="edge">
<title>Node450&#45;&gt;Node438</title>
<path fill="none" stroke="#191970" d="M579.8197,-59.0158C627.1765,-62.6099 688.8465,-70.5655 741,-88.1046 772.5933,-98.7293 805.6198,-120.0623 823.3565,-132.4984"/>
<polygon fill="#191970" stroke="#191970" points="579.8586,-55.5098 569.6359,-58.293 579.363,-62.4923 579.8586,-55.5098"/>
</g>
<!-- Node451 -->
<g id="node16" class="node">
<title>Node451</title>
<g id="a_node16"><a xlink:href="net_8h.html#ab31cd76353f751ec4dc5c033152df575" target="_top" xlink:title="Sends an error response with code code for request request to dst. ">
<polygon fill="#ffffff" stroke="#000000" points="629.5,-16.6046 629.5,-35.6046 718.5,-35.6046 718.5,-16.6046 629.5,-16.6046"/>
<text text-anchor="middle" x="674" y="-23.6046" font-family="Helvetica,sans-Serif" font-size="10.00" fill="#000000">coap_send_error</text>
</a>
</g>
</g>
<!-- Node450&#45;&gt;Node451 -->
<g id="edge24" class="edge">
<title>Node450&#45;&gt;Node451</title>
<path fill="none" stroke="#191970" d="M568.1134,-44.7905C588.518,-41.1896 610.6346,-37.2867 629.3519,-33.9837"/>
<polygon fill="#191970" stroke="#191970" points="567.496,-41.3452 558.2565,-46.5299 568.7126,-48.2387 567.496,-41.3452"/>
</g>
<!-- Node452 -->
<g id="node17" class="node">
<title>Node452</title>
<g id="a_node17"><a xlink:href="net_8h.html#ade36148140b152d713b23d17bbcf0024" target="_top" xlink:title="Returns a new message id and updates context&#45;&gt;message_id accordingly. ">
<polygon fill="#ffffff" stroke="#000000" points="777,-16.6046 777,-35.6046 896,-35.6046 896,-16.6046 777,-16.6046"/>
<text text-anchor="middle" x="836.5" y="-23.6046" font-family="Helvetica,sans-Serif" font-size="10.00" fill="#000000">coap_new_message_id</text>
</a>
</g>
</g>
<!-- Node450&#45;&gt;Node452 -->
<g id="edge33" class="edge">
<title>Node450&#45;&gt;Node452</title>
<path fill="none" stroke="#191970" d="M527.3655,-41.2731C547.5579,-29.3881 577.9849,-13.6545 607,-7.1046 674.2728,8.0818 755.0882,-5.8247 800.6505,-16.5122"/>
<polygon fill="#191970" stroke="#191970" points="525.3358,-38.4102 518.5882,-46.5784 528.9568,-44.4009 525.3358,-38.4102"/>
</g>
<!-- Node455 -->
<g id="node20" class="node">
<title>Node455</title>
<g id="a_node20"><a xlink:href="net_8c.html#a1a280312c4bad55cf10243b9b9c3e966" target="_top" xlink:title="handle_request">
<polygon fill="#ffffff" stroke="#000000" points="632.5,-240.6046 632.5,-259.6046 715.5,-259.6046 715.5,-240.6046 632.5,-240.6046"/>
<text text-anchor="middle" x="674" y="-247.6046" font-family="Helvetica,sans-Serif" font-size="10.00" fill="#000000">handle_request</text>
</a>
</g>
</g>
<!-- Node450&#45;&gt;Node455 -->
<g id="edge30" class="edge">
<title>Node450&#45;&gt;Node455</title>
<path fill="none" stroke="#191970" d="M519.0331,-73.26C553.7154,-112.8386 638.4258,-209.5081 665.5188,-240.426"/>
<polygon fill="#191970" stroke="#191970" points="521.6532,-70.9394 512.4303,-65.7251 516.3885,-75.5528 521.6532,-70.9394"/>
</g>
<!-- Node451&#45;&gt;Node452 -->
<g id="edge25" class="edge">
<title>Node451&#45;&gt;Node452</title>
<path fill="none" stroke="#191970" d="M729.211,-26.1046C744.5651,-26.1046 761.3065,-26.1046 776.9002,-26.1046"/>
<polygon fill="#191970" stroke="#191970" points="728.834,-22.6047 718.834,-26.1046 728.834,-29.6047 728.834,-22.6047"/>
</g>
<!-- Node453 -->
<g id="node18" class="node">
<title>Node453</title>
<g id="a_node18"><a xlink:href="resource_8c.html#ae1a91e254baca4f43b7896f54a8d9944" target="_top" xlink:title="coap_notify_observers">
<polygon fill="#ffffff" stroke="#000000" points="932,-33.6046 932,-52.6046 1047,-52.6046 1047,-33.6046 932,-33.6046"/>
<text text-anchor="middle" x="989.5" y="-40.6046" font-family="Helvetica,sans-Serif" font-size="10.00" fill="#000000">coap_notify_observers</text>
</a>
</g>
</g>
<!-- Node452&#45;&gt;Node453 -->
<g id="edge26" class="edge">
<title>Node452&#45;&gt;Node453</title>
<path fill="none" stroke="#191970" d="M906.1098,-33.839C914.7119,-34.7948 923.4311,-35.7636 931.8276,-36.6965"/>
<polygon fill="#191970" stroke="#191970" points="906.4173,-30.3517 896.0919,-32.7259 905.6442,-37.3089 906.4173,-30.3517"/>
</g>
<!-- Node454 -->
<g id="node19" class="node">
<title>Node454</title>
<g id="a_node19"><a xlink:href="resource_8h.html#a579bcb559463d3a872831c18d8d9a1c1" target="_top" xlink:title="Checks for all known resources, if they are dirty and notifies subscribed observers. ">
<polygon fill="#ffffff" stroke="#000000" points="1477,-46.6046 1477,-65.6046 1575,-65.6046 1575,-46.6046 1477,-46.6046"/>
<text text-anchor="middle" x="1526" y="-53.6046" font-family="Helvetica,sans-Serif" font-size="10.00" fill="#000000">coap_check_notify</text>
</a>
</g>
</g>
<!-- Node453&#45;&gt;Node454 -->
<g id="edge27" class="edge">
<title>Node453&#45;&gt;Node454</title>
<path fill="none" stroke="#191970" d="M1057.4543,-44.7512C1167.1565,-47.4094 1380.6842,-52.5834 1476.9036,-54.9149"/>
<polygon fill="#191970" stroke="#191970" points="1057.2514,-41.2453 1047.1695,-44.502 1057.0818,-48.2433 1057.2514,-41.2453"/>
</g>
<!-- Node454&#45;&gt;Node443 -->
<g id="edge28" class="edge">
<title>Node454&#45;&gt;Node443</title>
<path fill="none" stroke="#191970" d="M1566.7397,-68.6399C1583.5405,-73.8093 1602.697,-79.7037 1618.3457,-84.5186"/>
<polygon fill="#191970" stroke="#191970" points="1567.7514,-65.2893 1557.1643,-65.6936 1565.6927,-71.9797 1567.7514,-65.2893"/>
</g>
<!-- Node454&#45;&gt;Node445 -->
<g id="edge29" class="edge">
<title>Node454&#45;&gt;Node445</title>
<path fill="none" stroke="#191970" d="M1585.2663,-56.1046C1593.9313,-56.1046 1602.6616,-56.1046 1610.7733,-56.1046"/>
<polygon fill="#191970" stroke="#191970" points="1585.1654,-52.6047 1575.1653,-56.1046 1585.1653,-59.6047 1585.1654,-52.6047"/>
</g>
<!-- Node455&#45;&gt;Node438 -->
<g id="edge31" class="edge">
<title>Node455&#45;&gt;Node438</title>
<path fill="none" stroke="#191970" d="M696.773,-234.9693C730.6787,-212.435 793.4783,-170.6974 821.8779,-151.8226"/>
<polygon fill="#191970" stroke="#191970" points="694.8119,-232.0701 688.4208,-240.5203 698.6865,-237.9 694.8119,-232.0701"/>
</g>
<!-- Node456&#45;&gt;Node438 -->
<g id="edge35" class="edge">
<title>Node456&#45;&gt;Node438</title>
<path fill="none" stroke="#191970" d="M402.7563,-99.4849C501.8989,-109.2267 708.9517,-129.5717 796.2783,-138.1524"/>
<polygon fill="#191970" stroke="#191970" points="402.9405,-95.9863 392.6461,-98.4915 402.2559,-102.9527 402.9405,-95.9863"/>
</g>
<!-- Node457&#45;&gt;Node455 -->
<g id="edge45" class="edge">
<title>Node457&#45;&gt;Node455</title>
<path fill="none" stroke="#191970" d="M269.5194,-344.7215C344.5624,-354.7763 473.9125,-362.1595 571,-315.1046 592.8218,-304.5283 586.9463,-287.739 607,-274.1046 615.9916,-267.9912 626.7185,-263.2448 636.9251,-259.6481"/>
<polygon fill="#191970" stroke="#191970" points="269.6887,-341.2111 259.2999,-343.2903 268.7179,-348.1435 269.6887,-341.2111"/>
</g>
<!-- Node458 -->
<g id="node23" class="node">
<title>Node458</title>
<g id="a_node23"><a xlink:href="group__block.html#ga714d943bd85123de1b8b6f86ec204a69" target="_top" xlink:title="Initializes block from pdu. ">
<polygon fill="#ffffff" stroke="#000000" points="305.5,-362.6046 305.5,-381.6046 390.5,-381.6046 390.5,-362.6046 305.5,-362.6046"/>
<text text-anchor="middle" x="348" y="-369.6046" font-family="Helvetica,sans-Serif" font-size="10.00" fill="#000000">coap_get_block</text>
</a>
</g>
</g>
<!-- Node457&#45;&gt;Node458 -->
<g id="edge37" class="edge">
<title>Node457&#45;&gt;Node458</title>
<path fill="none" stroke="#191970" d="M253.4564,-346.3508C272.6848,-351.5886 294.8031,-357.6137 312.8095,-362.5186"/>
<polygon fill="#191970" stroke="#191970" points="254.2701,-342.945 243.7017,-343.6936 252.4303,-349.6989 254.2701,-342.945"/>
</g>
<!-- Node460 -->
<g id="node25" class="node">
<title>Node460</title>
<g id="a_node25"><a xlink:href="net_8h.html#a69ff8481c32707b77813c051fc42dedd" target="_top" xlink:title="Creates a new response for given request with the contents of .well&#45;known/core. ">
<polygon fill="#ffffff" stroke="#000000" points="437,-400.6046 437,-419.6046 571,-419.6046 571,-400.6046 437,-400.6046"/>
<text text-anchor="middle" x="504" y="-407.6046" font-family="Helvetica,sans-Serif" font-size="10.00" fill="#000000">coap_wellknown_response</text>
</a>
</g>
</g>
<!-- Node457&#45;&gt;Node460 -->
<g id="edge42" class="edge">
<title>Node457&#45;&gt;Node460</title>
<path fill="none" stroke="#191970" d="M227.0917,-350.3241C243.6835,-363.7749 269.2694,-382.0995 295,-391.1046 340.5656,-407.0515 394.9521,-411.5807 436.822,-412.2393"/>
<polygon fill="#191970" stroke="#191970" points="229.2031,-347.5275 219.282,-343.8096 224.7192,-352.9029 229.2031,-347.5275"/>
</g>
<!-- Node461 -->
<g id="node26" class="node">
<title>Node461</title>
<g id="a_node26"><a xlink:href="net_8c.html#aa708f479d33a6ca76bf214a0e0e42de4" target="_top" xlink:title="Checks for No&#45;Response option in given request and returns 1 if response should be suppressed accordi...">
<polygon fill="#ffffff" stroke="#000000" points="468,-286.6046 468,-305.6046 540,-305.6046 540,-286.6046 468,-286.6046"/>
<text text-anchor="middle" x="504" y="-293.6046" font-family="Helvetica,sans-Serif" font-size="10.00" fill="#000000">no_response</text>
</a>
</g>
</g>
<!-- Node457&#45;&gt;Node461 -->
<g id="edge43" class="edge">
<title>Node457&#45;&gt;Node461</title>
<path fill="none" stroke="#191970" d="M269.2485,-323.9099C277.8833,-322.5666 286.66,-321.2577 295,-320.1046 355.4189,-311.7507 425.9505,-304.0828 467.6894,-299.7608"/>
<polygon fill="#191970" stroke="#191970" points="268.5431,-320.4779 259.2118,-325.4955 269.6354,-327.3921 268.5431,-320.4779"/>
</g>
<!-- Node459 -->
<g id="node24" class="node">
<title>Node459</title>
<g id="a_node24"><a xlink:href="group__block.html#ga01d9c90a44d671c5ab38a664468fa6eb" target="_top" xlink:title="Sets the More&#45;bit in block_opt. ">
<polygon fill="#ffffff" stroke="#000000" points="445.5,-362.6046 445.5,-381.6046 562.5,-381.6046 562.5,-362.6046 445.5,-362.6046"/>
<text text-anchor="middle" x="504" y="-369.6046" font-family="Helvetica,sans-Serif" font-size="10.00" fill="#000000">coap_opt_block_set_m</text>
</a>
</g>
</g>
<!-- Node458&#45;&gt;Node459 -->
<g id="edge38" class="edge">
<title>Node458&#45;&gt;Node459</title>
<path fill="none" stroke="#191970" d="M400.8008,-372.1046C415.1241,-372.1046 430.7175,-372.1046 445.3426,-372.1046"/>
<polygon fill="#191970" stroke="#191970" points="400.6277,-368.6047 390.6277,-372.1046 400.6277,-375.6047 400.6277,-368.6047"/>
</g>
<!-- Node458&#45;&gt;Node460 -->
<g id="edge39" class="edge">
<title>Node458&#45;&gt;Node460</title>
<path fill="none" stroke="#191970" d="M397.1317,-384.0726C418.9927,-389.3977 444.3761,-395.5808 464.9177,-400.5845"/>
<polygon fill="#191970" stroke="#191970" points="397.9097,-380.6598 387.3654,-381.6936 396.2529,-387.4609 397.9097,-380.6598"/>
</g>
<!-- Node460&#45;&gt;Node444 -->
<g id="edge41" class="edge">
<title>Node460&#45;&gt;Node444</title>
<path fill="none" stroke="#191970" d="M564.7662,-395.7919C566.9628,-394.3737 569.0533,-392.8158 571,-391.1046 601.5065,-364.288 574.043,-330.8451 607,-307.1046 690.046,-247.2826 734.151,-288.1046 836.5,-288.1046 836.5,-288.1046 836.5,-288.1046 1526,-288.1046 1613.8956,-288.1046 1711.022,-239.032 1749.0042,-217.7544"/>
<polygon fill="#191970" stroke="#191970" points="562.9902,-392.7731 555.8479,-400.5985 566.3114,-398.9351 562.9902,-392.7731"/>
</g>
<!-- Node460&#45;&gt;Node455 -->
<g id="edge40" class="edge">
<title>Node460&#45;&gt;Node455</title>
<path fill="none" stroke="#191970" d="M566.2378,-395.157C567.9147,-393.911 569.509,-392.5629 571,-391.1046 609.8949,-353.0626 569.4137,-313.44 607,-274.1046 613.8287,-266.9581 622.9325,-261.9344 632.2225,-258.4046"/>
<polygon fill="#191970" stroke="#191970" points="564.0138,-392.4112 557.261,-400.5751 567.631,-398.4042 564.0138,-392.4112"/>
</g>
<!-- Node461&#45;&gt;Node455 -->
<g id="edge44" class="edge">
<title>Node461&#45;&gt;Node455</title>
<path fill="none" stroke="#191970" d="M549.1995,-283.8741C577.2806,-276.2757 612.8471,-266.6518 638.821,-259.6236"/>
<polygon fill="#191970" stroke="#191970" points="547.9628,-280.5828 539.2241,-286.5734 549.7912,-287.3398 547.9628,-280.5828"/>
</g>
<!-- Node462&#45;&gt;Node455 -->
<g id="edge47" class="edge">
<title>Node462&#45;&gt;Node455</title>
<path fill="none" stroke="#191970" d="M261.5287,-176.6047C300.3159,-178.8962 354.1217,-183.0372 401,-190.1046 486.8927,-203.0538 586.1414,-227.2288 638.0751,-240.6"/>
<polygon fill="#191970" stroke="#191970" points="261.6888,-173.1082 251.5059,-176.0339 261.2907,-180.0969 261.6888,-173.1082"/>
</g>
<!-- Node463 -->
<g id="node28" class="node">
<title>Node463</title>
<g id="a_node28"><a xlink:href="uri_8h.html#a04d042f5a81b4a13bf1cc7d94920ed87" target="_top" xlink:title="coap_uri_scheme_is\l_secure">
<polygon fill="#ffffff" stroke="#000000" points="295,-199.1046 295,-229.1046 401,-229.1046 401,-199.1046 295,-199.1046"/>
<text text-anchor="start" x="303" y="-217.1046" font-family="Helvetica,sans-Serif" font-size="10.00" fill="#000000">coap_uri_scheme_is</text>
<text text-anchor="middle" x="348" y="-206.1046" font-family="Helvetica,sans-Serif" font-size="10.00" fill="#000000">_secure</text>
</a>
</g>
</g>
<!-- Node462&#45;&gt;Node463 -->
<g id="edge48" class="edge">
<title>Node462&#45;&gt;Node463</title>
<path fill="none" stroke="#191970" d="M251.6808,-186.4862C265.5472,-190.4622 281.0607,-194.9105 295.518,-199.056"/>
<polygon fill="#191970" stroke="#191970" points="252.4911,-183.0775 241.9137,-183.6856 250.5616,-189.8064 252.4911,-183.0775"/>
</g>
<!-- Node464&#45;&gt;Node455 -->
<g id="edge50" class="edge">
<title>Node464&#45;&gt;Node455</title>
<path fill="none" stroke="#191970" d="M244.6143,-226.7489C259.9516,-231.5387 278.1502,-236.4686 295,-239.1046 416.4534,-258.1049 562.3964,-255.2378 632.4665,-252.2963"/>
<polygon fill="#191970" stroke="#191970" points="245.5832,-223.3839 234.9916,-223.6471 243.4355,-230.0464 245.5832,-223.3839"/>
</g>
<!-- Node464&#45;&gt;Node463 -->
<g id="edge51" class="edge">
<title>Node464&#45;&gt;Node463</title>
<path fill="none" stroke="#191970" d="M266.7824,-214.1046C276.0182,-214.1046 285.5297,-214.1046 294.6452,-214.1046"/>
<polygon fill="#191970" stroke="#191970" points="266.508,-210.6047 256.508,-214.1046 266.508,-217.6047 266.508,-210.6047"/>
</g>
</g>
</svg>
