<?xml version="1.0" encoding="UTF-8" standalone="no"?>
<!DOCTYPE svg PUBLIC "-//W3C//DTD SVG 1.1//EN"
 "http://www.w3.org/Graphics/SVG/1.1/DTD/svg11.dtd">
<!-- Generated by graphviz version 2.40.1 (20161225.0304)
 -->
<!-- Title: libcoap.h Pages: 1 -->
<svg width="1226pt" height="476pt"
 viewBox="0.00 0.00 1226.00 476.00" xmlns="http://www.w3.org/2000/svg" xmlns:xlink="http://www.w3.org/1999/xlink">
<g id="graph0" class="graph" transform="scale(1 1) rotate(0) translate(4 472)">
<title>libcoap.h</title>
<polygon fill="#ffffff" stroke="transparent" points="-4,4 -4,-472 1222,-472 1222,4 -4,4"/>
<!-- Node3 -->
<g id="node1" class="node">
<title>Node3</title>
<polygon fill="#bfbfbf" stroke="#000000" points="298,-448.5 298,-467.5 354,-467.5 354,-448.5 298,-448.5"/>
<text text-anchor="middle" x="326" y="-455.5" font-family="Helvetica,sans-Serif" font-size="10.00" fill="#000000">libcoap.h</text>
</g>
<!-- Node4 -->
<g id="node2" class="node">
<title>Node4</title>
<g id="a_node2"><a xlink:href="block_8c.html" target="_top" xlink:title="block.c">
<polygon fill="#ffffff" stroke="#000000" points="128,-56.5 128,-75.5 176,-75.5 176,-56.5 128,-56.5"/>
<text text-anchor="middle" x="152" y="-63.5" font-family="Helvetica,sans-Serif" font-size="10.00" fill="#000000">block.c</text>
</a>
</g>
</g>
<!-- Node3&#45;&gt;Node4 -->
<g id="edge1" class="edge">
<title>Node3&#45;&gt;Node4</title>
<path fill="none" stroke="#191970" d="M324.3336,-437.9805C322.1834,-423.6608 317.2616,-404.7418 306,-392 231.9458,-308.2118 76,-401.8235 76,-290 76,-290 76,-290 76,-234 76,-168.3748 124.735,-100.1223 144.1529,-75.5326"/>
<polygon fill="#191970" stroke="#191970" points="320.8989,-438.7447 325.5321,-448.2727 327.8519,-437.935 320.8989,-438.7447"/>
</g>
<!-- Node5 -->
<g id="node3" class="node">
<title>Node5</title>
<g id="a_node3"><a xlink:href="coap__debug_8c.html" target="_top" xlink:title="coap_debug.c">
<polygon fill="#ffffff" stroke="#000000" points="218.5,-168.5 218.5,-187.5 295.5,-187.5 295.5,-168.5 218.5,-168.5"/>
<text text-anchor="middle" x="257" y="-175.5" font-family="Helvetica,sans-Serif" font-size="10.00" fill="#000000">coap_debug.c</text>
</a>
</g>
</g>
<!-- Node3&#45;&gt;Node5 -->
<g id="edge2" class="edge">
<title>Node3&#45;&gt;Node5</title>
<path fill="none" stroke="#191970" d="M287.5305,-454.3888C236.8416,-448.7436 151.8833,-435.913 133,-412 71.4543,-334.0613 202.0443,-221.0563 244.3563,-187.645"/>
<polygon fill="#191970" stroke="#191970" points="287.4752,-457.9028 297.7907,-455.4858 288.2195,-450.9424 287.4752,-457.9028"/>
</g>
<!-- Node6 -->
<g id="node4" class="node">
<title>Node6</title>
<g id="a_node4"><a xlink:href="coap__io_8c.html" target="_top" xlink:title="coap_io.c">
<polygon fill="#ffffff" stroke="#000000" points="27.5,-56.5 27.5,-75.5 86.5,-75.5 86.5,-56.5 27.5,-56.5"/>
<text text-anchor="middle" x="57" y="-63.5" font-family="Helvetica,sans-Serif" font-size="10.00" fill="#000000">coap_io.c</text>
</a>
</g>
</g>
<!-- Node3&#45;&gt;Node6 -->
<g id="edge3" class="edge">
<title>Node3&#45;&gt;Node6</title>
<path fill="none" stroke="#191970" d="M287.7757,-453.1042C201.6735,-441.0091 0,-406.2487 0,-346 0,-346 0,-346 0,-178 0,-136.1099 32.0625,-94.055 48.0938,-75.6456"/>
<polygon fill="#191970" stroke="#191970" points="287.5397,-456.6046 297.9233,-454.4995 288.4933,-449.6698 287.5397,-456.6046"/>
</g>
<!-- Node7 -->
<g id="node5" class="node">
<title>Node7</title>
<g id="a_node5"><a xlink:href="mem_8c.html" target="_top" xlink:title="mem.c">
<polygon fill="#ffffff" stroke="#000000" points="142.5,-392.5 142.5,-411.5 189.5,-411.5 189.5,-392.5 142.5,-392.5"/>
<text text-anchor="middle" x="166" y="-399.5" font-family="Helvetica,sans-Serif" font-size="10.00" fill="#000000">mem.c</text>
</a>
</g>
</g>
<!-- Node3&#45;&gt;Node7 -->
<g id="edge4" class="edge">
<title>Node3&#45;&gt;Node7</title>
<path fill="none" stroke="#191970" d="M288.9969,-445.0489C258.334,-434.3169 215.6815,-419.3885 189.5065,-410.2273"/>
<polygon fill="#191970" stroke="#191970" points="287.9002,-448.3732 298.495,-448.3733 290.2127,-441.7662 287.9002,-448.3732"/>
</g>
<!-- Node8 -->
<g id="node6" class="node">
<title>Node8</title>
<g id="a_node6"><a xlink:href="net_8c.html" target="_top" xlink:title="net.c">
<polygon fill="#ffffff" stroke="#000000" points="464,-56.5 464,-75.5 502,-75.5 502,-56.5 464,-56.5"/>
<text text-anchor="middle" x="483" y="-63.5" font-family="Helvetica,sans-Serif" font-size="10.00" fill="#000000">net.c</text>
</a>
</g>
</g>
<!-- Node3&#45;&gt;Node8 -->
<g id="edge5" class="edge">
<title>Node3&#45;&gt;Node8</title>
<path fill="none" stroke="#191970" d="M287.4617,-454.7857C233.8319,-449.4582 140.8049,-436.8317 119,-412 96.6643,-386.5639 107.7012,-369.2596 114,-336 129.9612,-251.7203 142.0202,-221.5868 209,-168 250.6167,-134.7048 408.3341,-87.3975 463.67,-71.4714"/>
<polygon fill="#191970" stroke="#191970" points="287.3425,-458.2902 297.6296,-455.7554 288.0071,-451.3218 287.3425,-458.2902"/>
</g>
<!-- Node9 -->
<g id="node7" class="node">
<title>Node9</title>
<g id="a_node7"><a xlink:href="option_8c.html" target="_top" xlink:title="option.c">
<polygon fill="#ffffff" stroke="#000000" points="246.5,-392.5 246.5,-411.5 297.5,-411.5 297.5,-392.5 246.5,-392.5"/>
<text text-anchor="middle" x="272" y="-399.5" font-family="Helvetica,sans-Serif" font-size="10.00" fill="#000000">option.c</text>
</a>
</g>
</g>
<!-- Node3&#45;&gt;Node9 -->
<g id="edge6" class="edge">
<title>Node3&#45;&gt;Node9</title>
<path fill="none" stroke="#191970" d="M309.4031,-440.7884C300.1653,-431.2085 289.0096,-419.6396 281.2983,-411.6427"/>
<polygon fill="#191970" stroke="#191970" points="307.1331,-443.4766 316.5939,-448.2455 312.172,-438.6176 307.1331,-443.4766"/>
</g>
<!-- Node10 -->
<g id="node8" class="node">
<title>Node10</title>
<g id="a_node8"><a xlink:href="pdu_8c.html" target="_top" xlink:title="pdu.c">
<polygon fill="#ffffff" stroke="#000000" points="274.5,-224.5 274.5,-243.5 315.5,-243.5 315.5,-224.5 274.5,-224.5"/>
<text text-anchor="middle" x="295" y="-231.5" font-family="Helvetica,sans-Serif" font-size="10.00" fill="#000000">pdu.c</text>
</a>
</g>
</g>
<!-- Node3&#45;&gt;Node10 -->
<g id="edge7" class="edge">
<title>Node3&#45;&gt;Node10</title>
<path fill="none" stroke="#191970" d="M288.1208,-448.5291C269.2682,-441.694 248.1683,-430.3442 237,-412 201.5063,-353.7007 263.2734,-271.2702 286.6169,-243.5291"/>
<polygon fill="#191970" stroke="#191970" points="287.1168,-451.8834 297.7101,-451.7049 289.3176,-445.2384 287.1168,-451.8834"/>
</g>
<!-- Node11 -->
<g id="node9" class="node">
<title>Node11</title>
<g id="a_node9"><a xlink:href="str_8c.html" target="_top" xlink:title="str.c">
<polygon fill="#ffffff" stroke="#000000" points="354,-392.5 354,-411.5 390,-411.5 390,-392.5 354,-392.5"/>
<text text-anchor="middle" x="372" y="-399.5" font-family="Helvetica,sans-Serif" font-size="10.00" fill="#000000">str.c</text>
</a>
</g>
</g>
<!-- Node3&#45;&gt;Node11 -->
<g id="edge8" class="edge">
<title>Node3&#45;&gt;Node11</title>
<path fill="none" stroke="#191970" d="M340.3747,-440.5004C348.1971,-430.9775 357.576,-419.5596 364.0792,-411.6427"/>
<polygon fill="#191970" stroke="#191970" points="337.6555,-438.2967 334.0126,-448.2455 343.0646,-442.7399 337.6555,-438.2967"/>
</g>
<!-- Node12 -->
<g id="node10" class="node">
<title>Node12</title>
<g id="a_node10"><a xlink:href="uri_8c.html" target="_top" xlink:title="uri.c">
<polygon fill="#ffffff" stroke="#000000" points="408.5,-392.5 408.5,-411.5 443.5,-411.5 443.5,-392.5 408.5,-392.5"/>
<text text-anchor="middle" x="426" y="-399.5" font-family="Helvetica,sans-Serif" font-size="10.00" fill="#000000">uri.c</text>
</a>
</g>
</g>
<!-- Node3&#45;&gt;Node12 -->
<g id="edge9" class="edge">
<title>Node3&#45;&gt;Node12</title>
<path fill="none" stroke="#191970" d="M352.2098,-443.3225C370.0717,-433.3198 393.2155,-420.3593 408.7809,-411.6427"/>
<polygon fill="#191970" stroke="#191970" points="350.4336,-440.3057 343.4187,-448.2455 353.8539,-446.4132 350.4336,-440.3057"/>
</g>
<!-- Node13 -->
<g id="node11" class="node">
<title>Node13</title>
<g id="a_node11"><a xlink:href="address_8h.html" target="_top" xlink:title="Representation of network addresses. ">
<polygon fill="#ffffff" stroke="#000000" points="998.5,-392.5 998.5,-411.5 1057.5,-411.5 1057.5,-392.5 998.5,-392.5"/>
<text text-anchor="middle" x="1028" y="-399.5" font-family="Helvetica,sans-Serif" font-size="10.00" fill="#000000">address.h</text>
</a>
</g>
</g>
<!-- Node3&#45;&gt;Node13 -->
<g id="edge10" class="edge">
<title>Node3&#45;&gt;Node13</title>
<path fill="none" stroke="#191970" d="M364.6942,-454.9133C490.594,-444.87 886.864,-413.2587 998.4795,-404.3549"/>
<polygon fill="#191970" stroke="#191970" points="364.0787,-451.4512 354.3887,-455.7354 364.6354,-458.429 364.0787,-451.4512"/>
</g>
<!-- Node25 -->
<g id="node23" class="node">
<title>Node25</title>
<g id="a_node23"><a xlink:href="coap_8h.html" target="_top" xlink:title="coap.h">
<polygon fill="#ffffff" stroke="#000000" points="785,-56.5 785,-75.5 831,-75.5 831,-56.5 785,-56.5"/>
<text text-anchor="middle" x="808" y="-63.5" font-family="Helvetica,sans-Serif" font-size="10.00" fill="#000000">coap.h</text>
</a>
</g>
</g>
<!-- Node3&#45;&gt;Node25 -->
<g id="edge64" class="edge">
<title>Node3&#45;&gt;Node25</title>
<path fill="none" stroke="#191970" d="M364.4394,-457.3808C496.597,-454.9769 931.5955,-444.7099 1067,-412 1138.1938,-394.8016 1218,-419.2417 1218,-346 1218,-346 1218,-346 1218,-178 1218,-140.0995 1197.1367,-130.3957 1164,-112 1106.3806,-80.0129 900.9769,-69.4817 831.3081,-66.787"/>
<polygon fill="#191970" stroke="#191970" points="364.317,-453.8824 354.3807,-457.5591 364.4412,-460.8813 364.317,-453.8824"/>
</g>
<!-- Node32 -->
<g id="node30" class="node">
<title>Node32</title>
<g id="a_node30"><a xlink:href="coap__event_8h.html" target="_top" xlink:title="coap_event.h">
<polygon fill="#ffffff" stroke="#000000" points="845.5,-280.5 845.5,-299.5 920.5,-299.5 920.5,-280.5 845.5,-280.5"/>
<text text-anchor="middle" x="883" y="-287.5" font-family="Helvetica,sans-Serif" font-size="10.00" fill="#000000">coap_event.h</text>
</a>
</g>
</g>
<!-- Node3&#45;&gt;Node32 -->
<g id="edge60" class="edge">
<title>Node3&#45;&gt;Node32</title>
<path fill="none" stroke="#191970" d="M364.2855,-452.4327C410.833,-445.2096 491.5346,-431.219 559,-412 675.7677,-378.7362 809.9901,-322.0072 861.4197,-299.5548"/>
<polygon fill="#191970" stroke="#191970" points="363.687,-448.9835 354.3309,-453.9548 364.7451,-455.903 363.687,-448.9835"/>
</g>
<!-- Node33 -->
<g id="node31" class="node">
<title>Node33</title>
<g id="a_node31"><a xlink:href="coap__hashkey_8h.html" target="_top" xlink:title="definition of hash key type and helper functions ">
<polygon fill="#ffffff" stroke="#000000" points="462,-392.5 462,-411.5 550,-411.5 550,-392.5 462,-392.5"/>
<text text-anchor="middle" x="506" y="-399.5" font-family="Helvetica,sans-Serif" font-size="10.00" fill="#000000">coap_hashkey.h</text>
</a>
</g>
</g>
<!-- Node3&#45;&gt;Node33 -->
<g id="edge65" class="edge">
<title>Node3&#45;&gt;Node33</title>
<path fill="none" stroke="#191970" d="M363.9157,-446.204C397.0609,-435.8922 444.5767,-421.1095 475.3635,-411.5314"/>
<polygon fill="#191970" stroke="#191970" points="362.6338,-442.9373 354.125,-449.25 364.7133,-449.6213 362.6338,-442.9373"/>
</g>
<!-- Node14 -->
<g id="node12" class="node">
<title>Node14</title>
<g id="a_node12"><a xlink:href="address_8c.html" target="_top" xlink:title="address.c">
<polygon fill="#ffffff" stroke="#000000" points="940.5,-336.5 940.5,-355.5 999.5,-355.5 999.5,-336.5 940.5,-336.5"/>
<text text-anchor="middle" x="970" y="-343.5" font-family="Helvetica,sans-Serif" font-size="10.00" fill="#000000">address.c</text>
</a>
</g>
</g>
<!-- Node13&#45;&gt;Node14 -->
<g id="edge11" class="edge">
<title>Node13&#45;&gt;Node14</title>
<path fill="none" stroke="#191970" d="M1010.4707,-385.0751C1000.4917,-375.4402 988.3524,-363.7196 979.9871,-355.6427"/>
<polygon fill="#191970" stroke="#191970" points="1008.272,-387.8175 1017.8972,-392.2455 1013.1342,-382.7817 1008.272,-387.8175"/>
</g>
<!-- Node15 -->
<g id="node13" class="node">
<title>Node15</title>
<g id="a_node13"><a xlink:href="coap__dtls_8c.html" target="_top" xlink:title="coap_dtls.c">
<polygon fill="#ffffff" stroke="#000000" points="816.5,-112.5 816.5,-131.5 883.5,-131.5 883.5,-112.5 816.5,-112.5"/>
<text text-anchor="middle" x="850" y="-119.5" font-family="Helvetica,sans-Serif" font-size="10.00" fill="#000000">coap_dtls.c</text>
</a>
</g>
</g>
<!-- Node13&#45;&gt;Node15 -->
<g id="edge12" class="edge">
<title>Node13&#45;&gt;Node15</title>
<path fill="none" stroke="#191970" d="M1048.2792,-385.823C1070.7929,-365.8958 1104,-329.7639 1104,-290 1104,-290 1104,-290 1104,-234 1104,-186.4085 952.8222,-145.5881 883.7292,-129.4171"/>
<polygon fill="#191970" stroke="#191970" points="1045.8921,-383.2588 1040.5499,-392.4082 1050.4317,-388.5872 1045.8921,-383.2588"/>
</g>
<!-- Node16 -->
<g id="node14" class="node">
<title>Node16</title>
<g id="a_node14"><a xlink:href="coap__dtls__gnutls_8c.html" target="_top" xlink:title="coap_dtls_gnutls.c">
<polygon fill="#ffffff" stroke="#000000" points="1016,-112.5 1016,-131.5 1114,-131.5 1114,-112.5 1016,-112.5"/>
<text text-anchor="middle" x="1065" y="-119.5" font-family="Helvetica,sans-Serif" font-size="10.00" fill="#000000">coap_dtls_gnutls.c</text>
</a>
</g>
</g>
<!-- Node13&#45;&gt;Node16 -->
<g id="edge13" class="edge">
<title>Node13&#45;&gt;Node16</title>
<path fill="none" stroke="#191970" d="M1067.0201,-389.5455C1084.6327,-382.2126 1104.4732,-371.3132 1118,-356 1138.6639,-332.6071 1142,-321.2125 1142,-290 1142,-290 1142,-290 1142,-234 1142,-202.7875 1135.6852,-193.7188 1118,-168 1107.783,-153.1419 1091.6653,-140.0889 1079.8844,-131.72"/>
<polygon fill="#191970" stroke="#191970" points="1065.5594,-386.3585 1057.5188,-393.2578 1068.1069,-392.8785 1065.5594,-386.3585"/>
</g>
<!-- Node17 -->
<g id="node15" class="node">
<title>Node17</title>
<g id="a_node15"><a xlink:href="coap__io_8h.html" target="_top" xlink:title="coap_io.h">
<polygon fill="#ffffff" stroke="#000000" points="625.5,-336.5 625.5,-355.5 684.5,-355.5 684.5,-336.5 625.5,-336.5"/>
<text text-anchor="middle" x="655" y="-343.5" font-family="Helvetica,sans-Serif" font-size="10.00" fill="#000000">coap_io.h</text>
</a>
</g>
</g>
<!-- Node13&#45;&gt;Node17 -->
<g id="edge14" class="edge">
<title>Node13&#45;&gt;Node17</title>
<path fill="none" stroke="#191970" d="M988.4013,-396.0549C913.1887,-384.7629 751.2369,-360.4484 684.5835,-350.4415"/>
<polygon fill="#191970" stroke="#191970" points="988.0107,-399.5354 998.4195,-397.559 989.05,-392.613 988.0107,-399.5354"/>
</g>
<!-- Node13&#45;&gt;Node25 -->
<g id="edge58" class="edge">
<title>Node13&#45;&gt;Node25</title>
<path fill="none" stroke="#191970" d="M1067.4621,-391.5929C1112.4991,-377.0478 1180,-345.9201 1180,-290 1180,-290 1180,-290 1180,-178 1180,-143.2309 1167.248,-130.8001 1138,-112 1086.9069,-79.1582 897.5772,-69.2435 831.1866,-66.7408"/>
<polygon fill="#191970" stroke="#191970" points="1066.1932,-388.3215 1057.668,-394.6121 1068.2553,-395.0108 1066.1932,-388.3215"/>
</g>
<!-- Node31 -->
<g id="node29" class="node">
<title>Node31</title>
<g id="a_node29"><a xlink:href="subscribe_8h.html" target="_top" xlink:title="subscribe.h">
<polygon fill="#ffffff" stroke="#000000" points="918.5,-168.5 918.5,-187.5 985.5,-187.5 985.5,-168.5 918.5,-168.5"/>
<text text-anchor="middle" x="952" y="-175.5" font-family="Helvetica,sans-Serif" font-size="10.00" fill="#000000">subscribe.h</text>
</a>
</g>
</g>
<!-- Node13&#45;&gt;Node31 -->
<g id="edge59" class="edge">
<title>Node13&#45;&gt;Node31</title>
<path fill="none" stroke="#191970" d="M1022.6786,-382.2407C1019.0426,-369.0735 1013.995,-351.4199 1009,-336 990.5779,-279.1293 965.1087,-212.023 955.6919,-187.5424"/>
<polygon fill="#191970" stroke="#191970" points="1019.3594,-383.3726 1025.3686,-392.0985 1026.1124,-381.5298 1019.3594,-383.3726"/>
</g>
<!-- Node17&#45;&gt;Node6 -->
<g id="edge15" class="edge">
<title>Node17&#45;&gt;Node6</title>
<path fill="none" stroke="#191970" d="M615.1176,-341.7008C541.9631,-333.5689 389.1418,-315.3714 338,-300 226.0427,-266.3498 178.387,-274.7308 100,-188 69.5822,-154.3445 60.3949,-97.842 57.8724,-75.5025"/>
<polygon fill="#191970" stroke="#191970" points="614.9876,-345.2076 625.3113,-342.826 615.7557,-338.2498 614.9876,-345.2076"/>
</g>
<!-- Node18 -->
<g id="node16" class="node">
<title>Node18</title>
<g id="a_node16"><a xlink:href="coap__session_8c.html" target="_top" xlink:title="coap_session.c">
<polygon fill="#ffffff" stroke="#000000" points="333.5,-56.5 333.5,-75.5 418.5,-75.5 418.5,-56.5 333.5,-56.5"/>
<text text-anchor="middle" x="376" y="-63.5" font-family="Helvetica,sans-Serif" font-size="10.00" fill="#000000">coap_session.c</text>
</a>
</g>
</g>
<!-- Node17&#45;&gt;Node18 -->
<g id="edge16" class="edge">
<title>Node17&#45;&gt;Node18</title>
<path fill="none" stroke="#191970" d="M615.1608,-342.5135C541.5532,-334.6285 381.17,-310.6076 265,-244 234.4649,-226.4923 222.4698,-220.5189 209,-188 183.9923,-127.6261 278.9496,-91.4336 335.9363,-75.5545"/>
<polygon fill="#191970" stroke="#191970" points="615.0703,-346.0225 625.3757,-343.5629 615.7857,-339.0592 615.0703,-346.0225"/>
</g>
<!-- Node19 -->
<g id="node17" class="node">
<title>Node19</title>
<g id="a_node17"><a xlink:href="net_8h.html" target="_top" xlink:title="net.h">
<polygon fill="#ffffff" stroke="#000000" points="601,-224.5 601,-243.5 639,-243.5 639,-224.5 601,-224.5"/>
<text text-anchor="middle" x="620" y="-231.5" font-family="Helvetica,sans-Serif" font-size="10.00" fill="#000000">net.h</text>
</a>
</g>
</g>
<!-- Node17&#45;&gt;Node19 -->
<g id="edge17" class="edge">
<title>Node17&#45;&gt;Node19</title>
<path fill="none" stroke="#191970" d="M649.62,-326.2595C645.9594,-313.1002 640.9063,-295.4484 636,-280 632.0073,-267.4283 626.9393,-253.0969 623.5892,-243.8187"/>
<polygon fill="#191970" stroke="#191970" points="646.3033,-327.3984 652.3336,-336.1097 653.0519,-325.5392 646.3033,-327.3984"/>
</g>
<!-- Node17&#45;&gt;Node25 -->
<g id="edge52" class="edge">
<title>Node17&#45;&gt;Node25</title>
<path fill="none" stroke="#191970" d="M694.7473,-342.0394C760.5562,-335.0377 888.9672,-319.3675 930,-300 1032.8428,-251.4583 1075.8746,-235.4994 1123,-132 1126.6834,-123.9102 1128.8136,-118.7242 1123,-112 1103.8424,-89.8416 900.3904,-72.8367 831.0197,-67.6458"/>
<polygon fill="#191970" stroke="#191970" points="694.3264,-338.5643 684.7459,-343.0879 695.0563,-345.5261 694.3264,-338.5643"/>
</g>
<!-- Node30 -->
<g id="node28" class="node">
<title>Node30</title>
<g id="a_node28"><a xlink:href="coap__session_8h.html" target="_top" xlink:title="coap_session.h">
<polygon fill="#ffffff" stroke="#000000" points="541.5,-280.5 541.5,-299.5 626.5,-299.5 626.5,-280.5 541.5,-280.5"/>
<text text-anchor="middle" x="584" y="-287.5" font-family="Helvetica,sans-Serif" font-size="10.00" fill="#000000">coap_session.h</text>
</a>
</g>
</g>
<!-- Node17&#45;&gt;Node30 -->
<g id="edge47" class="edge">
<title>Node17&#45;&gt;Node30</title>
<path fill="none" stroke="#191970" d="M634.623,-329.928C622.2129,-320.1397 606.77,-307.9595 596.2255,-299.6427"/>
<polygon fill="#191970" stroke="#191970" points="632.6136,-332.8007 642.6327,-336.2455 636.9486,-327.3046 632.6136,-332.8007"/>
</g>
<!-- Node17&#45;&gt;Node31 -->
<g id="edge53" class="edge">
<title>Node17&#45;&gt;Node31</title>
<path fill="none" stroke="#191970" d="M680.5599,-331.5419C739.8079,-298.0279 885.2568,-215.7538 934.9974,-187.6177"/>
<polygon fill="#191970" stroke="#191970" points="678.7997,-328.5163 671.819,-336.4862 682.2462,-334.6091 678.7997,-328.5163"/>
</g>
<!-- Node19&#45;&gt;Node5 -->
<g id="edge18" class="edge">
<title>Node19&#45;&gt;Node5</title>
<path fill="none" stroke="#191970" d="M590.6354,-230.0333C535.5217,-222.5018 412.8623,-205.3289 310,-188 305.3832,-187.2222 300.548,-186.3668 295.7559,-185.4937"/>
<polygon fill="#191970" stroke="#191970" points="590.3507,-233.5268 600.7316,-231.4083 591.2954,-226.5908 590.3507,-233.5268"/>
</g>
<!-- Node19&#45;&gt;Node6 -->
<g id="edge20" class="edge">
<title>Node19&#45;&gt;Node6</title>
<path fill="none" stroke="#191970" d="M591.0102,-227.4402C554.45,-219.0189 489.7466,-203.6213 435,-188 302.3766,-150.1575 146.2644,-96.981 84.3115,-75.5271"/>
<polygon fill="#191970" stroke="#191970" points="590.4486,-230.9021 600.9777,-229.7236 592.0117,-224.0789 590.4486,-230.9021"/>
</g>
<!-- Node19&#45;&gt;Node8 -->
<g id="edge23" class="edge">
<title>Node19&#45;&gt;Node8</title>
<path fill="none" stroke="#191970" d="M590.7459,-230.7732C560.7332,-226.0723 514.2718,-214.7571 484,-188 457.1418,-164.2602 447.8808,-146.6667 457,-112 460.5939,-98.3376 469.2727,-84.4664 475.6181,-75.5817"/>
<polygon fill="#191970" stroke="#191970" points="590.6071,-234.2883 600.9985,-232.2222 591.5868,-227.3571 590.6071,-234.2883"/>
</g>
<!-- Node19&#45;&gt;Node18 -->
<g id="edge22" class="edge">
<title>Node19&#45;&gt;Node18</title>
<path fill="none" stroke="#191970" d="M590.6359,-231.4228C556.643,-227.1854 500.3038,-216.175 461,-188 418.4095,-157.4689 389.9169,-98.6447 379.9447,-75.5964"/>
<polygon fill="#191970" stroke="#191970" points="590.508,-234.9305 600.8373,-232.5738 591.2928,-227.9747 590.508,-234.9305"/>
</g>
<!-- Node20 -->
<g id="node18" class="node">
<title>Node20</title>
<g id="a_node18"><a xlink:href="coap__event_8c.html" target="_top" xlink:title="coap_event.c">
<polygon fill="#ffffff" stroke="#000000" points="825.5,-168.5 825.5,-187.5 900.5,-187.5 900.5,-168.5 825.5,-168.5"/>
<text text-anchor="middle" x="863" y="-175.5" font-family="Helvetica,sans-Serif" font-size="10.00" fill="#000000">coap_event.c</text>
</a>
</g>
</g>
<!-- Node19&#45;&gt;Node20 -->
<g id="edge19" class="edge">
<title>Node19&#45;&gt;Node20</title>
<path fill="none" stroke="#191970" d="M648.8312,-227.3558C692.7796,-217.2277 776.5518,-197.9222 825.2812,-186.6924"/>
<polygon fill="#191970" stroke="#191970" points="648.0264,-223.9494 639.0678,-229.6058 649.5984,-230.7706 648.0264,-223.9494"/>
</g>
<!-- Node21 -->
<g id="node19" class="node">
<title>Node21</title>
<g id="a_node19"><a xlink:href="coap__notls_8c.html" target="_top" xlink:title="coap_notls.c">
<polygon fill="#ffffff" stroke="#000000" points="504,-168.5 504,-187.5 576,-187.5 576,-168.5 504,-168.5"/>
<text text-anchor="middle" x="540" y="-175.5" font-family="Helvetica,sans-Serif" font-size="10.00" fill="#000000">coap_notls.c</text>
</a>
</g>
</g>
<!-- Node19&#45;&gt;Node21 -->
<g id="edge21" class="edge">
<title>Node19&#45;&gt;Node21</title>
<path fill="none" stroke="#191970" d="M597.8429,-218.49C583.728,-208.6096 565.8849,-196.1194 553.7752,-187.6427"/>
<polygon fill="#191970" stroke="#191970" points="595.8656,-221.3782 606.0651,-224.2455 599.8799,-215.6436 595.8656,-221.3782"/>
</g>
<!-- Node22 -->
<g id="node20" class="node">
<title>Node22</title>
<g id="a_node20"><a xlink:href="resource_8c.html" target="_top" xlink:title="resource.c">
<polygon fill="#ffffff" stroke="#000000" points="627,-.5 627,-19.5 689,-19.5 689,-.5 627,-.5"/>
<text text-anchor="middle" x="658" y="-7.5" font-family="Helvetica,sans-Serif" font-size="10.00" fill="#000000">resource.c</text>
</a>
</g>
</g>
<!-- Node19&#45;&gt;Node22 -->
<g id="edge24" class="edge">
<title>Node19&#45;&gt;Node22</title>
<path fill="none" stroke="#191970" d="M637.3945,-216.6452C644.2459,-208.6299 651.3415,-198.5557 655,-188 676.154,-126.966 664.767,-46.9487 659.8729,-19.6246"/>
<polygon fill="#191970" stroke="#191970" points="634.6635,-214.4452 630.4973,-224.1865 639.829,-219.1694 634.6635,-214.4452"/>
</g>
<!-- Node23 -->
<g id="node21" class="node">
<title>Node23</title>
<g id="a_node21"><a xlink:href="async_8h.html" target="_top" xlink:title="State management for asynchronous messages. ">
<polygon fill="#ffffff" stroke="#000000" points="594.5,-168.5 594.5,-187.5 645.5,-187.5 645.5,-168.5 594.5,-168.5"/>
<text text-anchor="middle" x="620" y="-175.5" font-family="Helvetica,sans-Serif" font-size="10.00" fill="#000000">async.h</text>
</a>
</g>
</g>
<!-- Node19&#45;&gt;Node23 -->
<g id="edge25" class="edge">
<title>Node19&#45;&gt;Node23</title>
<path fill="none" stroke="#191970" d="M620,-214.1575C620,-205.155 620,-194.9199 620,-187.6427"/>
<polygon fill="#191970" stroke="#191970" points="616.5001,-214.2455 620,-224.2455 623.5001,-214.2456 616.5001,-214.2455"/>
</g>
<!-- Node19&#45;&gt;Node25 -->
<g id="edge45" class="edge">
<title>Node19&#45;&gt;Node25</title>
<path fill="none" stroke="#191970" d="M644.6587,-219.0051C657.9555,-210.5093 674.3824,-199.3358 688,-188 733.6667,-149.9852 781.2214,-96.9056 799.8413,-75.5024"/>
<polygon fill="#191970" stroke="#191970" points="642.6322,-216.1448 636.0263,-224.4282 646.3559,-222.0723 642.6322,-216.1448"/>
</g>
<!-- Node28 -->
<g id="node26" class="node">
<title>Node28</title>
<g id="a_node26"><a xlink:href="resource_8h.html" target="_top" xlink:title="Generic resource handling. ">
<polygon fill="#ffffff" stroke="#000000" points="466,-112.5 466,-131.5 528,-131.5 528,-112.5 466,-112.5"/>
<text text-anchor="middle" x="497" y="-119.5" font-family="Helvetica,sans-Serif" font-size="10.00" fill="#000000">resource.h</text>
</a>
</g>
</g>
<!-- Node19&#45;&gt;Node28 -->
<g id="edge46" class="edge">
<title>Node19&#45;&gt;Node28</title>
<path fill="none" stroke="#191970" d="M590.7536,-227.3195C557.4606,-219.0529 506.2216,-204.0868 495,-188 483.1946,-171.0762 488.9793,-145.3221 493.4545,-131.5222"/>
<polygon fill="#191970" stroke="#191970" points="590.3167,-230.8146 600.859,-229.761 591.9607,-224.0104 590.3167,-230.8146"/>
</g>
<!-- Node29 -->
<g id="node27" class="node">
<title>Node29</title>
<g id="a_node27"><a xlink:href="coap__dtls_8h.html" target="_top" xlink:title="coap_dtls.h">
<polygon fill="#ffffff" stroke="#000000" points="740.5,-168.5 740.5,-187.5 807.5,-187.5 807.5,-168.5 740.5,-168.5"/>
<text text-anchor="middle" x="774" y="-175.5" font-family="Helvetica,sans-Serif" font-size="10.00" fill="#000000">coap_dtls.h</text>
</a>
</g>
</g>
<!-- Node19&#45;&gt;Node29 -->
<g id="edge40" class="edge">
<title>Node19&#45;&gt;Node29</title>
<path fill="none" stroke="#191970" d="M648.8686,-221.4139C675.5528,-211.1669 714.9045,-196.919 742.4163,-187.582"/>
<polygon fill="#191970" stroke="#191970" points="647.3665,-218.2425 639.313,-225.1266 649.9017,-224.7673 647.3665,-218.2425"/>
</g>
<!-- Node23&#45;&gt;Node8 -->
<g id="edge27" class="edge">
<title>Node23&#45;&gt;Node8</title>
<path fill="none" stroke="#191970" d="M600.5226,-162.0768C571.5995,-138.4317 518.1837,-94.7633 494.651,-75.5249"/>
<polygon fill="#191970" stroke="#191970" points="598.3621,-164.8313 608.3195,-168.4509 602.7926,-159.4119 598.3621,-164.8313"/>
</g>
<!-- Node24 -->
<g id="node22" class="node">
<title>Node24</title>
<g id="a_node22"><a xlink:href="async_8c.html" target="_top" xlink:title="state management for asynchronous messages ">
<polygon fill="#ffffff" stroke="#000000" points="709.5,-.5 709.5,-19.5 760.5,-19.5 760.5,-.5 709.5,-.5"/>
<text text-anchor="middle" x="735" y="-7.5" font-family="Helvetica,sans-Serif" font-size="10.00" fill="#000000">async.c</text>
</a>
</g>
</g>
<!-- Node23&#45;&gt;Node24 -->
<g id="edge26" class="edge">
<title>Node23&#45;&gt;Node24</title>
<path fill="none" stroke="#191970" d="M632.2535,-160.0993C656.4216,-124.7928 709.5138,-47.232 728.2726,-19.8279"/>
<polygon fill="#191970" stroke="#191970" points="629.2729,-158.2573 626.5124,-168.4862 635.0492,-162.2114 629.2729,-158.2573"/>
</g>
<!-- Node23&#45;&gt;Node25 -->
<g id="edge28" class="edge">
<title>Node23&#45;&gt;Node25</title>
<path fill="none" stroke="#191970" d="M644.7142,-163.2767C683.8894,-139.9383 759.1644,-95.0936 792.0118,-75.5249"/>
<polygon fill="#191970" stroke="#191970" points="642.8285,-160.326 636.0288,-168.4509 646.4111,-166.3397 642.8285,-160.326"/>
</g>
<!-- Node23&#45;&gt;Node28 -->
<g id="edge33" class="edge">
<title>Node23&#45;&gt;Node28</title>
<path fill="none" stroke="#191970" d="M589.4935,-164.1109C567.1888,-153.9559 537.5201,-140.4482 517.8685,-131.5011"/>
<polygon fill="#191970" stroke="#191970" points="588.3041,-167.415 598.8555,-168.3733 591.2047,-161.0442 588.3041,-167.415"/>
</g>
<!-- Node25&#45;&gt;Node22 -->
<g id="edge31" class="edge">
<title>Node25&#45;&gt;Node22</title>
<path fill="none" stroke="#191970" d="M775.3089,-53.7953C747.7877,-43.5208 708.9708,-29.0291 683.6494,-19.5758"/>
<polygon fill="#191970" stroke="#191970" points="774.2986,-57.1541 784.8912,-57.3727 776.747,-50.5962 774.2986,-57.1541"/>
</g>
<!-- Node25&#45;&gt;Node24 -->
<g id="edge29" class="edge">
<title>Node25&#45;&gt;Node24</title>
<path fill="none" stroke="#191970" d="M787.049,-49.928C774.2893,-40.1397 758.4115,-27.9595 747.5699,-19.6427"/>
<polygon fill="#191970" stroke="#191970" points="785.2197,-52.9359 795.2844,-56.2455 789.4804,-47.3819 785.2197,-52.9359"/>
</g>
<!-- Node26 -->
<g id="node24" class="node">
<title>Node26</title>
<g id="a_node24"><a xlink:href="encode_8c.html" target="_top" xlink:title="encode.c">
<polygon fill="#ffffff" stroke="#000000" points="780,-.5 780,-19.5 836,-19.5 836,-.5 780,-.5"/>
<text text-anchor="middle" x="808" y="-7.5" font-family="Helvetica,sans-Serif" font-size="10.00" fill="#000000">encode.c</text>
</a>
</g>
</g>
<!-- Node25&#45;&gt;Node26 -->
<g id="edge30" class="edge">
<title>Node25&#45;&gt;Node26</title>
<path fill="none" stroke="#191970" d="M808,-46.1575C808,-37.155 808,-26.9199 808,-19.6427"/>
<polygon fill="#191970" stroke="#191970" points="804.5001,-46.2455 808,-56.2455 811.5001,-46.2456 804.5001,-46.2455"/>
</g>
<!-- Node27 -->
<g id="node25" class="node">
<title>Node27</title>
<g id="a_node25"><a xlink:href="subscribe_8c.html" target="_top" xlink:title="subscribe.c">
<polygon fill="#ffffff" stroke="#000000" points="895.5,-.5 895.5,-19.5 962.5,-19.5 962.5,-.5 895.5,-.5"/>
<text text-anchor="middle" x="929" y="-7.5" font-family="Helvetica,sans-Serif" font-size="10.00" fill="#000000">subscribe.c</text>
</a>
</g>
</g>
<!-- Node25&#45;&gt;Node27 -->
<g id="edge32" class="edge">
<title>Node25&#45;&gt;Node27</title>
<path fill="none" stroke="#191970" d="M838.0104,-52.1109C859.9525,-41.9559 889.1388,-28.4482 908.4708,-19.5011"/>
<polygon fill="#191970" stroke="#191970" points="836.4058,-48.9968 828.8006,-56.3733 839.3459,-55.3494 836.4058,-48.9968"/>
</g>
<!-- Node28&#45;&gt;Node4 -->
<g id="edge34" class="edge">
<title>Node28&#45;&gt;Node4</title>
<path fill="none" stroke="#191970" d="M455.623,-115.2837C382.9587,-103.4889 234.603,-79.408 176.3005,-69.9444"/>
<polygon fill="#191970" stroke="#191970" points="455.3435,-118.7841 465.7751,-116.9316 456.4651,-111.8745 455.3435,-118.7841"/>
</g>
<!-- Node28&#45;&gt;Node6 -->
<g id="edge35" class="edge">
<title>Node28&#45;&gt;Node6</title>
<path fill="none" stroke="#191970" d="M455.4612,-117.4788C385.7935,-109.7765 241.0325,-93.26 119,-76 108.4204,-74.5036 96.8549,-72.6875 86.6089,-71.0156"/>
<polygon fill="#191970" stroke="#191970" points="455.2602,-120.9778 465.5834,-118.5943 456.027,-114.0199 455.2602,-120.9778"/>
</g>
<!-- Node28&#45;&gt;Node8 -->
<g id="edge37" class="edge">
<title>Node28&#45;&gt;Node8</title>
<path fill="none" stroke="#191970" d="M492.1135,-102.4538C489.8451,-93.3803 487.25,-82.9998 485.4107,-75.6427"/>
<polygon fill="#191970" stroke="#191970" points="488.7405,-103.393 494.5614,-112.2455 495.5315,-101.6952 488.7405,-103.393"/>
</g>
<!-- Node28&#45;&gt;Node18 -->
<g id="edge36" class="edge">
<title>Node28&#45;&gt;Node18</title>
<path fill="none" stroke="#191970" d="M466.9896,-108.1109C445.0475,-97.9559 415.8612,-84.4482 396.5292,-75.5011"/>
<polygon fill="#191970" stroke="#191970" points="465.6541,-111.3494 476.1994,-112.3733 468.5942,-104.9968 465.6541,-111.3494"/>
</g>
<!-- Node28&#45;&gt;Node22 -->
<g id="edge38" class="edge">
<title>Node28&#45;&gt;Node22</title>
<path fill="none" stroke="#191970" d="M519.0207,-106.6813C552.7992,-83.1832 616.4154,-38.9284 644.308,-19.5249"/>
<polygon fill="#191970" stroke="#191970" points="516.9371,-103.8671 510.7268,-112.4509 520.9346,-109.6134 516.9371,-103.8671"/>
</g>
<!-- Node28&#45;&gt;Node25 -->
<g id="edge39" class="edge">
<title>Node28&#45;&gt;Node25</title>
<path fill="none" stroke="#191970" d="M538.3173,-114.5602C604.5026,-102.6426 732.1696,-79.6543 784.6259,-70.2088"/>
<polygon fill="#191970" stroke="#191970" points="537.4652,-111.1573 528.2438,-116.3741 538.7058,-118.0465 537.4652,-111.1573"/>
</g>
<!-- Node29&#45;&gt;Node15 -->
<g id="edge41" class="edge">
<title>Node29&#45;&gt;Node15</title>
<path fill="none" stroke="#191970" d="M795.4297,-162.2097C808.7777,-152.3743 825.5179,-140.0394 836.9135,-131.6427"/>
<polygon fill="#191970" stroke="#191970" points="793.2126,-159.4958 787.2382,-168.2455 797.365,-165.1312 793.2126,-159.4958"/>
</g>
<!-- Node29&#45;&gt;Node16 -->
<g id="edge42" class="edge">
<title>Node29&#45;&gt;Node16</title>
<path fill="none" stroke="#191970" d="M817.8361,-167.8962C892.6186,-152.3977 967.9646,-138.8188 1015.9341,-130.4281"/>
<polygon fill="#191970" stroke="#191970" points="816.8444,-164.5277 807.7693,-169.9951 818.2732,-171.3803 816.8444,-164.5277"/>
</g>
<!-- Node29&#45;&gt;Node19 -->
<g id="edge43" class="edge">
<title>Node29&#45;&gt;Node19</title>
<path fill="none" stroke="#191970" d="M743.3864,-191.255C712.3481,-203.1318 665.5261,-219.9608 639.2578,-228.5285"/>
<polygon fill="#191970" stroke="#191970" points="744.799,-194.4614 752.8631,-187.5897 742.2738,-187.9327 744.799,-194.4614"/>
</g>
<!-- Node29&#45;&gt;Node25 -->
<g id="edge44" class="edge">
<title>Node29&#45;&gt;Node25</title>
<path fill="none" stroke="#191970" d="M779.8897,-158.5987C787.247,-134.363 799.544,-93.8551 805.1085,-75.5249"/>
<polygon fill="#191970" stroke="#191970" points="776.4546,-157.8654 776.8988,-168.4509 783.1528,-159.8988 776.4546,-157.8654"/>
</g>
<!-- Node30&#45;&gt;Node10 -->
<g id="edge49" class="edge">
<title>Node30&#45;&gt;Node10</title>
<path fill="none" stroke="#191970" d="M531.3749,-279.8028C466.8456,-267.2988 360.5481,-246.7014 315.8386,-238.0379"/>
<polygon fill="#191970" stroke="#191970" points="530.8738,-283.2707 541.3571,-281.737 532.2055,-276.3985 530.8738,-283.2707"/>
</g>
<!-- Node30&#45;&gt;Node18 -->
<g id="edge48" class="edge">
<title>Node30&#45;&gt;Node18</title>
<path fill="none" stroke="#191970" d="M557.0099,-275.299C525.5248,-257.3391 472.9523,-224.7685 435,-188 412.8455,-166.5365 407.3925,-159.7875 394,-132 384.9245,-113.1697 379.82,-89.0358 377.516,-75.7909"/>
<polygon fill="#191970" stroke="#191970" points="555.6329,-278.5401 566.0646,-280.3921 559.0647,-272.439 555.6329,-278.5401"/>
</g>
<!-- Node30&#45;&gt;Node19 -->
<g id="edge51" class="edge">
<title>Node30&#45;&gt;Node19</title>
<path fill="none" stroke="#191970" d="M595.8096,-271.6296C601.8144,-262.2887 608.8659,-251.3197 613.8011,-243.6427"/>
<polygon fill="#191970" stroke="#191970" points="592.7342,-269.9411 590.2707,-280.2455 598.6225,-273.7264 592.7342,-269.9411"/>
</g>
<!-- Node30&#45;&gt;Node29 -->
<g id="edge50" class="edge">
<title>Node30&#45;&gt;Node29</title>
<path fill="none" stroke="#191970" d="M608.9771,-275.2767C648.569,-251.9383 724.6448,-207.0936 757.8417,-187.5249"/>
<polygon fill="#191970" stroke="#191970" points="607.0366,-272.3576 600.1993,-280.4509 610.5913,-278.3879 607.0366,-272.3576"/>
</g>
<!-- Node31&#45;&gt;Node22 -->
<g id="edge54" class="edge">
<title>Node31&#45;&gt;Node22</title>
<path fill="none" stroke="#191970" d="M908.511,-166.0396C872.8528,-155.8791 825.5115,-141.476 808,-132 748.3649,-99.7296 689.4485,-42.4263 667.2466,-19.6874"/>
<polygon fill="#191970" stroke="#191970" points="907.6491,-169.433 918.2241,-168.7852 909.5532,-162.697 907.6491,-169.433"/>
</g>
<!-- Node31&#45;&gt;Node25 -->
<g id="edge57" class="edge">
<title>Node31&#45;&gt;Node25</title>
<path fill="none" stroke="#191970" d="M938.7533,-160.0292C927.6426,-145.7983 910.776,-126.0453 893,-112 873.6466,-96.7083 848.4925,-83.8107 830.5809,-75.5998"/>
<polygon fill="#191970" stroke="#191970" points="936.0397,-162.2428 944.8842,-168.076 941.6077,-158.0005 936.0397,-162.2428"/>
</g>
<!-- Node31&#45;&gt;Node27 -->
<g id="edge55" class="edge">
<title>Node31&#45;&gt;Node27</title>
<path fill="none" stroke="#191970" d="M949.2975,-158.2601C944.3562,-122.1669 934.0334,-46.7656 930.3455,-19.8279"/>
<polygon fill="#191970" stroke="#191970" points="945.8734,-159.0534 950.6975,-168.4862 952.8087,-158.1039 945.8734,-159.0534"/>
</g>
<!-- Node31&#45;&gt;Node28 -->
<g id="edge56" class="edge">
<title>Node31&#45;&gt;Node28</title>
<path fill="none" stroke="#191970" d="M908.025,-167.8148C760.7348,-142.719 595.4735,-129.0915 528.0103,-124.1453"/>
<polygon fill="#191970" stroke="#191970" points="907.6982,-171.3101 918.148,-169.5628 908.8895,-164.4122 907.6982,-171.3101"/>
</g>
<!-- Node32&#45;&gt;Node19 -->
<g id="edge62" class="edge">
<title>Node32&#45;&gt;Node19</title>
<path fill="none" stroke="#191970" d="M835.1892,-279.8197C776.5613,-267.3362 679.9603,-246.7672 639.1477,-238.0771"/>
<polygon fill="#191970" stroke="#191970" points="834.8088,-283.3172 845.3185,-281.9766 836.2667,-276.4706 834.8088,-283.3172"/>
</g>
<!-- Node32&#45;&gt;Node20 -->
<g id="edge61" class="edge">
<title>Node32&#45;&gt;Node20</title>
<path fill="none" stroke="#191970" d="M879.5355,-270.5987C875.2077,-246.363 867.9741,-205.8551 864.7009,-187.5249"/>
<polygon fill="#191970" stroke="#191970" points="876.0913,-271.222 881.2948,-280.4509 882.9823,-269.9914 876.0913,-271.222"/>
</g>
<!-- Node32&#45;&gt;Node25 -->
<g id="edge63" class="edge">
<title>Node32&#45;&gt;Node25</title>
<path fill="none" stroke="#191970" d="M913.6431,-275.9742C954.3383,-255.2173 1018.5018,-213.8046 995,-168 962.5867,-104.827 873.6059,-79.0385 831.1413,-70.0926"/>
<polygon fill="#191970" stroke="#191970" points="912.0244,-272.8701 904.613,-280.4412 915.1281,-279.1444 912.0244,-272.8701"/>
</g>
<!-- Node33&#45;&gt;Node4 -->
<g id="edge66" class="edge">
<title>Node33&#45;&gt;Node4</title>
<path fill="none" stroke="#191970" d="M469.341,-388.8888C411.9642,-366.7986 300.2559,-317.2774 230,-244 180.7313,-192.6124 159.6907,-105.0122 153.816,-75.803"/>
<polygon fill="#191970" stroke="#191970" points="468.1434,-392.1778 478.7349,-392.4465 470.6227,-385.6315 468.1434,-392.1778"/>
</g>
<!-- Node34 -->
<g id="node32" class="node">
<title>Node34</title>
<g id="a_node32"><a xlink:href="coap__hashkey_8c.html" target="_top" xlink:title="coap_hashkey.c">
<polygon fill="#ffffff" stroke="#000000" points="462,-336.5 462,-355.5 550,-355.5 550,-336.5 462,-336.5"/>
<text text-anchor="middle" x="506" y="-343.5" font-family="Helvetica,sans-Serif" font-size="10.00" fill="#000000">coap_hashkey.c</text>
</a>
</g>
</g>
<!-- Node33&#45;&gt;Node34 -->
<g id="edge67" class="edge">
<title>Node33&#45;&gt;Node34</title>
<path fill="none" stroke="#191970" d="M506,-382.1575C506,-373.155 506,-362.9199 506,-355.6427"/>
<polygon fill="#191970" stroke="#191970" points="502.5001,-382.2455 506,-392.2455 509.5001,-382.2456 502.5001,-382.2455"/>
</g>
</g>
</svg>
