<?xml version="1.0" encoding="UTF-8" standalone="no"?>
<!DOCTYPE svg PUBLIC "-//W3C//DTD SVG 1.1//EN"
 "http://www.w3.org/Graphics/SVG/1.1/DTD/svg11.dtd">
<!-- Generated by graphviz version 2.40.1 (20161225.0304)
 -->
<!-- Title: mem.h Pages: 1 -->
<svg width="958pt" height="140pt"
 viewBox="0.00 0.00 958.00 140.00" xmlns="http://www.w3.org/2000/svg" xmlns:xlink="http://www.w3.org/1999/xlink">
<g id="graph0" class="graph" transform="scale(1 1) rotate(0) translate(4 136)">
<title>mem.h</title>
<polygon fill="#ffffff" stroke="transparent" points="-4,4 -4,-136 954,-136 954,4 -4,4"/>
<!-- Node2 -->
<g id="node1" class="node">
<title>Node2</title>
<polygon fill="#bfbfbf" stroke="#000000" points="481,-112.5 481,-131.5 528,-131.5 528,-112.5 481,-112.5"/>
<text text-anchor="middle" x="504.5" y="-119.5" font-family="Helvetica,sans-Serif" font-size="10.00" fill="#000000">mem.h</text>
</g>
<!-- Node3 -->
<g id="node2" class="node">
<title>Node3</title>
<g id="a_node2"><a xlink:href="async_8c.html" target="_top" xlink:title="state management for asynchronous messages ">
<polygon fill="#ffffff" stroke="#000000" points="0,-.5 0,-19.5 51,-19.5 51,-.5 0,-.5"/>
<text text-anchor="middle" x="25.5" y="-7.5" font-family="Helvetica,sans-Serif" font-size="10.00" fill="#000000">async.c</text>
</a>
</g>
</g>
<!-- Node2&#45;&gt;Node3 -->
<g id="edge1" class="edge">
<title>Node2&#45;&gt;Node3</title>
<path fill="none" stroke="#191970" d="M470.7481,-120.8228C385.7327,-117.44 164.8455,-105.943 98.5,-76 69.8458,-63.0678 44.6701,-34.6299 32.7754,-19.6566"/>
<polygon fill="#191970" stroke="#191970" points="470.7607,-124.3257 480.888,-121.2131 471.03,-117.3309 470.7607,-124.3257"/>
</g>
<!-- Node4 -->
<g id="node3" class="node">
<title>Node4</title>
<g id="a_node3"><a xlink:href="coap__dtls_8c.html" target="_top" xlink:title="coap_dtls.c">
<polygon fill="#ffffff" stroke="#000000" points="228,-56.5 228,-75.5 295,-75.5 295,-56.5 228,-56.5"/>
<text text-anchor="middle" x="261.5" y="-63.5" font-family="Helvetica,sans-Serif" font-size="10.00" fill="#000000">coap_dtls.c</text>
</a>
</g>
</g>
<!-- Node2&#45;&gt;Node4 -->
<g id="edge2" class="edge">
<title>Node2&#45;&gt;Node4</title>
<path fill="none" stroke="#191970" d="M470.8393,-114.2843C431.0874,-105.1662 362.9723,-89.5234 304.5,-76 301.513,-75.3092 298.4097,-74.5901 295.2993,-73.8685"/>
<polygon fill="#191970" stroke="#191970" points="470.2602,-117.7423 480.7896,-116.5662 471.825,-110.9194 470.2602,-117.7423"/>
</g>
<!-- Node5 -->
<g id="node4" class="node">
<title>Node5</title>
<g id="a_node4"><a xlink:href="coap__dtls__gnutls_8c.html" target="_top" xlink:title="coap_dtls_gnutls.c">
<polygon fill="#ffffff" stroke="#000000" points="313.5,-56.5 313.5,-75.5 411.5,-75.5 411.5,-56.5 313.5,-56.5"/>
<text text-anchor="middle" x="362.5" y="-63.5" font-family="Helvetica,sans-Serif" font-size="10.00" fill="#000000">coap_dtls_gnutls.c</text>
</a>
</g>
</g>
<!-- Node2&#45;&gt;Node5 -->
<g id="edge3" class="edge">
<title>Node2&#45;&gt;Node5</title>
<path fill="none" stroke="#191970" d="M471.3249,-108.9169C445.4529,-98.7138 410.117,-84.7785 386.8211,-75.5914"/>
<polygon fill="#191970" stroke="#191970" points="470.1456,-112.2141 480.7324,-112.6269 472.7137,-105.7022 470.1456,-112.2141"/>
</g>
<!-- Node6 -->
<g id="node5" class="node">
<title>Node6</title>
<g id="a_node5"><a xlink:href="coap__io_8c.html" target="_top" xlink:title="coap_io.c">
<polygon fill="#ffffff" stroke="#000000" points="430,-56.5 430,-75.5 489,-75.5 489,-56.5 430,-56.5"/>
<text text-anchor="middle" x="459.5" y="-63.5" font-family="Helvetica,sans-Serif" font-size="10.00" fill="#000000">coap_io.c</text>
</a>
</g>
</g>
<!-- Node2&#45;&gt;Node6 -->
<g id="edge4" class="edge">
<title>Node2&#45;&gt;Node6</title>
<path fill="none" stroke="#191970" d="M490.2054,-104.2112C482.6004,-94.7472 473.5462,-83.4797 467.2486,-75.6427"/>
<polygon fill="#191970" stroke="#191970" points="487.6694,-106.6428 496.6616,-112.2455 493.1259,-102.2581 487.6694,-106.6428"/>
</g>
<!-- Node7 -->
<g id="node6" class="node">
<title>Node7</title>
<g id="a_node6"><a xlink:href="coap__session_8c.html" target="_top" xlink:title="coap_session.c">
<polygon fill="#ffffff" stroke="#000000" points="507,-56.5 507,-75.5 592,-75.5 592,-56.5 507,-56.5"/>
<text text-anchor="middle" x="549.5" y="-63.5" font-family="Helvetica,sans-Serif" font-size="10.00" fill="#000000">coap_session.c</text>
</a>
</g>
</g>
<!-- Node2&#45;&gt;Node7 -->
<g id="edge5" class="edge">
<title>Node2&#45;&gt;Node7</title>
<path fill="none" stroke="#191970" d="M518.7946,-104.2112C526.3996,-94.7472 535.4538,-83.4797 541.7514,-75.6427"/>
<polygon fill="#191970" stroke="#191970" points="515.8741,-102.2581 512.3384,-112.2455 521.3306,-106.6428 515.8741,-102.2581"/>
</g>
<!-- Node8 -->
<g id="node7" class="node">
<title>Node8</title>
<g id="a_node7"><a xlink:href="encode_8c.html" target="_top" xlink:title="encode.c">
<polygon fill="#ffffff" stroke="#000000" points="69.5,-.5 69.5,-19.5 125.5,-19.5 125.5,-.5 69.5,-.5"/>
<text text-anchor="middle" x="97.5" y="-7.5" font-family="Helvetica,sans-Serif" font-size="10.00" fill="#000000">encode.c</text>
</a>
</g>
</g>
<!-- Node2&#45;&gt;Node8 -->
<g id="edge6" class="edge">
<title>Node2&#45;&gt;Node8</title>
<path fill="none" stroke="#191970" d="M470.6556,-120.1121C381.1637,-114.8265 143.2939,-98.7636 116.5,-76 99.9617,-61.9493 97.3356,-34.5184 97.1992,-19.834"/>
<polygon fill="#191970" stroke="#191970" points="470.6231,-123.616 480.8096,-120.703 471.0298,-116.6279 470.6231,-123.616"/>
</g>
<!-- Node9 -->
<g id="node8" class="node">
<title>Node9</title>
<g id="a_node8"><a xlink:href="mem_8c.html" target="_top" xlink:title="mem.c">
<polygon fill="#ffffff" stroke="#000000" points="610,-56.5 610,-75.5 657,-75.5 657,-56.5 610,-56.5"/>
<text text-anchor="middle" x="633.5" y="-63.5" font-family="Helvetica,sans-Serif" font-size="10.00" fill="#000000">mem.c</text>
</a>
</g>
</g>
<!-- Node2&#45;&gt;Node9 -->
<g id="edge7" class="edge">
<title>Node2&#45;&gt;Node9</title>
<path fill="none" stroke="#191970" d="M535.8671,-108.3833C559.3284,-98.1985 590.8185,-84.5284 611.6135,-75.5011"/>
<polygon fill="#191970" stroke="#191970" points="534.4551,-105.1806 526.6759,-112.3733 537.2426,-111.6017 534.4551,-105.1806"/>
</g>
<!-- Node10 -->
<g id="node9" class="node">
<title>Node10</title>
<g id="a_node9"><a xlink:href="net_8c.html" target="_top" xlink:title="net.c">
<polygon fill="#ffffff" stroke="#000000" points="675.5,-56.5 675.5,-75.5 713.5,-75.5 713.5,-56.5 675.5,-56.5"/>
<text text-anchor="middle" x="694.5" y="-63.5" font-family="Helvetica,sans-Serif" font-size="10.00" fill="#000000">net.c</text>
</a>
</g>
</g>
<!-- Node2&#45;&gt;Node10 -->
<g id="edge8" class="edge">
<title>Node2&#45;&gt;Node10</title>
<path fill="none" stroke="#191970" d="M538.2594,-113.1152C571.1661,-104.2901 622.5305,-90.0772 666.5,-76 669.3513,-75.0871 672.3479,-74.0746 675.2775,-73.0544"/>
<polygon fill="#191970" stroke="#191970" points="537.0164,-109.8243 528.2568,-115.7841 538.8211,-116.5877 537.0164,-109.8243"/>
</g>
<!-- Node11 -->
<g id="node10" class="node">
<title>Node11</title>
<g id="a_node10"><a xlink:href="option_8c.html" target="_top" xlink:title="option.c">
<polygon fill="#ffffff" stroke="#000000" points="732,-56.5 732,-75.5 783,-75.5 783,-56.5 732,-56.5"/>
<text text-anchor="middle" x="757.5" y="-63.5" font-family="Helvetica,sans-Serif" font-size="10.00" fill="#000000">option.c</text>
</a>
</g>
</g>
<!-- Node2&#45;&gt;Node11 -->
<g id="edge9" class="edge">
<title>Node2&#45;&gt;Node11</title>
<path fill="none" stroke="#191970" d="M538.0876,-115.6745C581.0446,-107.4102 657.6423,-92.087 722.5,-76 725.5668,-75.2393 728.7708,-74.3943 731.9414,-73.5269"/>
<polygon fill="#191970" stroke="#191970" points="537.3375,-112.2544 528.1734,-117.5712 538.6529,-119.1297 537.3375,-112.2544"/>
</g>
<!-- Node12 -->
<g id="node11" class="node">
<title>Node12</title>
<g id="a_node11"><a xlink:href="pdu_8c.html" target="_top" xlink:title="pdu.c">
<polygon fill="#ffffff" stroke="#000000" points="801,-56.5 801,-75.5 842,-75.5 842,-56.5 801,-56.5"/>
<text text-anchor="middle" x="821.5" y="-63.5" font-family="Helvetica,sans-Serif" font-size="10.00" fill="#000000">pdu.c</text>
</a>
</g>
</g>
<!-- Node2&#45;&gt;Node12 -->
<g id="edge10" class="edge">
<title>Node2&#45;&gt;Node12</title>
<path fill="none" stroke="#191970" d="M538.3885,-118.5195C592.6208,-112.5193 702.0136,-98.645 792.5,-76 795.1865,-75.3277 797.9781,-74.5159 800.7213,-73.649"/>
<polygon fill="#191970" stroke="#191970" points="537.8633,-115.0559 528.2995,-119.6148 538.6189,-122.015 537.8633,-115.0559"/>
</g>
<!-- Node13 -->
<g id="node12" class="node">
<title>Node13</title>
<g id="a_node12"><a xlink:href="resource_8c.html" target="_top" xlink:title="resource.c">
<polygon fill="#ffffff" stroke="#000000" points="229.5,-.5 229.5,-19.5 291.5,-19.5 291.5,-.5 229.5,-.5"/>
<text text-anchor="middle" x="260.5" y="-7.5" font-family="Helvetica,sans-Serif" font-size="10.00" fill="#000000">resource.c</text>
</a>
</g>
</g>
<!-- Node2&#45;&gt;Node13 -->
<g id="edge11" class="edge">
<title>Node2&#45;&gt;Node13</title>
<path fill="none" stroke="#191970" d="M470.5863,-118.9766C398.5775,-112.2144 235.6491,-94.9646 219.5,-76 203.9331,-57.719 229.8357,-32.9517 247.0653,-19.5562"/>
<polygon fill="#191970" stroke="#191970" points="470.6448,-122.4969 480.925,-119.9339 471.2903,-115.5268 470.6448,-122.4969"/>
</g>
<!-- Node14 -->
<g id="node13" class="node">
<title>Node14</title>
<g id="a_node13"><a xlink:href="str_8c.html" target="_top" xlink:title="str.c">
<polygon fill="#ffffff" stroke="#000000" points="860.5,-56.5 860.5,-75.5 896.5,-75.5 896.5,-56.5 860.5,-56.5"/>
<text text-anchor="middle" x="878.5" y="-63.5" font-family="Helvetica,sans-Serif" font-size="10.00" fill="#000000">str.c</text>
</a>
</g>
</g>
<!-- Node2&#45;&gt;Node14 -->
<g id="edge12" class="edge">
<title>Node2&#45;&gt;Node14</title>
<path fill="none" stroke="#191970" d="M538.5099,-120.0132C601.201,-115.7971 738.8739,-103.9499 851.5,-76 854.4109,-75.2776 857.4405,-74.3445 860.3732,-73.3392"/>
<polygon fill="#191970" stroke="#191970" points="538.1538,-116.5288 528.4018,-120.6699 538.6077,-123.5141 538.1538,-116.5288"/>
</g>
<!-- Node15 -->
<g id="node14" class="node">
<title>Node15</title>
<g id="a_node14"><a xlink:href="uri_8c.html" target="_top" xlink:title="uri.c">
<polygon fill="#ffffff" stroke="#000000" points="915,-56.5 915,-75.5 950,-75.5 950,-56.5 915,-56.5"/>
<text text-anchor="middle" x="932.5" y="-63.5" font-family="Helvetica,sans-Serif" font-size="10.00" fill="#000000">uri.c</text>
</a>
</g>
</g>
<!-- Node2&#45;&gt;Node15 -->
<g id="edge13" class="edge">
<title>Node2&#45;&gt;Node15</title>
<path fill="none" stroke="#191970" d="M538.7351,-120.8413C608.5932,-117.874 772.2257,-107.8329 905.5,-76 908.6116,-75.2568 911.8549,-74.2602 914.9696,-73.1833"/>
<polygon fill="#191970" stroke="#191970" points="538.1987,-117.3599 528.3475,-121.2591 538.4801,-124.3543 538.1987,-117.3599"/>
</g>
<!-- Node16 -->
<g id="node15" class="node">
<title>Node16</title>
<g id="a_node15"><a xlink:href="coap_8h.html" target="_top" xlink:title="coap.h">
<polygon fill="#ffffff" stroke="#000000" points="125.5,-56.5 125.5,-75.5 171.5,-75.5 171.5,-56.5 125.5,-56.5"/>
<text text-anchor="middle" x="148.5" y="-63.5" font-family="Helvetica,sans-Serif" font-size="10.00" fill="#000000">coap.h</text>
</a>
</g>
</g>
<!-- Node2&#45;&gt;Node16 -->
<g id="edge14" class="edge">
<title>Node2&#45;&gt;Node16</title>
<path fill="none" stroke="#191970" d="M470.5642,-118.4701C412.0201,-112.0773 288.4186,-97.2474 185.5,-76 181.0687,-75.0852 176.3809,-73.9508 171.8856,-72.778"/>
<polygon fill="#191970" stroke="#191970" points="470.4013,-121.9727 480.7189,-119.5652 471.1519,-115.0131 470.4013,-121.9727"/>
</g>
<!-- Node16&#45;&gt;Node3 -->
<g id="edge15" class="edge">
<title>Node16&#45;&gt;Node3</title>
<path fill="none" stroke="#191970" d="M117.9935,-52.1109C95.6888,-41.9559 66.0201,-28.4482 46.3685,-19.5011"/>
<polygon fill="#191970" stroke="#191970" points="116.8041,-55.415 127.3555,-56.3733 119.7047,-49.0442 116.8041,-55.415"/>
</g>
<!-- Node16&#45;&gt;Node8 -->
<g id="edge16" class="edge">
<title>Node16&#45;&gt;Node8</title>
<path fill="none" stroke="#191970" d="M132.8251,-48.7884C124.1006,-39.2085 113.5646,-27.6396 106.2817,-19.6427"/>
<polygon fill="#191970" stroke="#191970" points="130.2954,-51.2088 139.6165,-56.2455 135.4709,-46.4954 130.2954,-51.2088"/>
</g>
<!-- Node16&#45;&gt;Node13 -->
<g id="edge17" class="edge">
<title>Node16&#45;&gt;Node13</title>
<path fill="none" stroke="#191970" d="M176.8263,-51.8368C197.0721,-41.7139 223.7642,-28.3679 241.4978,-19.5011"/>
<polygon fill="#191970" stroke="#191970" points="175.1325,-48.7706 167.7535,-56.3733 178.263,-55.0316 175.1325,-48.7706"/>
</g>
<!-- Node17 -->
<g id="node16" class="node">
<title>Node17</title>
<g id="a_node16"><a xlink:href="subscribe_8c.html" target="_top" xlink:title="subscribe.c">
<polygon fill="#ffffff" stroke="#000000" points="144,-.5 144,-19.5 211,-19.5 211,-.5 144,-.5"/>
<text text-anchor="middle" x="177.5" y="-7.5" font-family="Helvetica,sans-Serif" font-size="10.00" fill="#000000">subscribe.c</text>
</a>
</g>
</g>
<!-- Node16&#45;&gt;Node17 -->
<g id="edge18" class="edge">
<title>Node16&#45;&gt;Node17</title>
<path fill="none" stroke="#191970" d="M158.1647,-47.3372C162.9687,-38.0605 168.5723,-27.2398 172.5065,-19.6427"/>
<polygon fill="#191970" stroke="#191970" points="155.042,-45.7561 153.5514,-56.2455 161.258,-48.9751 155.042,-45.7561"/>
</g>
</g>
</svg>
