<?xml version="1.0" encoding="UTF-8" standalone="no"?>
<!DOCTYPE svg PUBLIC "-//W3C//DTD SVG 1.1//EN"
 "http://www.w3.org/Graphics/SVG/1.1/DTD/svg11.dtd">
<!-- Generated by graphviz version 2.40.1 (20161225.0304)
 -->
<!-- Title: get_wkc_len Pages: 1 -->
<!--zoomable 265 -->
<svg id="main" version="1.1" xmlns="http://www.w3.org/2000/svg" xmlns:xlink="http://www.w3.org/1999/xlink" xml:space="preserve" onload="init(evt)">
<style type="text/css"><![CDATA[
.edge:hover path { stroke: red; }
.edge:hover polygon { stroke: red; fill: red; }
]]></style>
<script type="text/javascript"><![CDATA[
var edges = document.getElementsByTagName('g');
if (edges && edges.length) {
  for (var i=0;i<edges.length;i++) {
    if (edges[i].id.substr(0,4)=='edge') {
      edges[i].setAttribute('class','edge');
    }
  }
}
]]></script>
        <defs>
                <circle id="rim" cx="0" cy="0" r="7"/>
                <circle id="rim2" cx="0" cy="0" r="3.5"/>
                <g id="zoomPlus">
                        <use xlink:href="#rim" fill="#404040">
                                <set attributeName="fill" to="#808080" begin="zoomplus.mouseover" end="zoomplus.mouseout"/>
                        </use>
                        <path d="M-4,0h8M0,-4v8" fill="none" stroke="white" stroke-width="1.5" pointer-events="none"/>
                </g>
                <g id="zoomMin">
                        <use xlink:href="#rim" fill="#404040">
                                <set attributeName="fill" to="#808080" begin="zoomminus.mouseover" end="zoomminus.mouseout"/>
                        </use>
                        <path d="M-4,0h8" fill="none" stroke="white" stroke-width="1.5" pointer-events="none"/>
                </g>
                <g id="dirArrow">
                        <path fill="none" stroke="white" stroke-width="1.5" d="M0,-3.0v7 M-2.5,-0.5L0,-3.0L2.5,-0.5"/>
                </g>
               <g id="resetDef">
                       <use xlink:href="#rim2" fill="#404040">
                               <set attributeName="fill" to="#808080" begin="reset.mouseover" end="reset.mouseout"/>
                       </use>
               </g>
        </defs>

<script type="text/javascript">
var viewWidth = 1372;
var viewHeight = 265;
var sectionId = 'dynsection-89';
</script>
<script xlink:href="svgpan.js"/>
<svg id="graph" class="graph">
<g id="viewport">
<title>get_wkc_len</title>
<polygon fill="#ffffff" stroke="transparent" points="-4,4 -4,-261 1368,-261 1368,4 -4,4"/>
<!-- Node3003 -->
<g id="node1" class="node">
<title>Node3003</title>
<polygon fill="#bfbfbf" stroke="#000000" points="0,-9.5 0,-28.5 71,-28.5 71,-9.5 0,-9.5"/>
<text text-anchor="middle" x="35.5" y="-16.5" font-family="Helvetica,sans-Serif" font-size="10.00" fill="#000000">get_wkc_len</text>
</g>
<!-- Node3004 -->
<g id="node2" class="node">
<title>Node3004</title>
<g id="a_node2"><a xlink:href="net_8h.html#a69ff8481c32707b77813c051fc42dedd" target="_top" xlink:title="Creates a new response for given request with the contents of .well&#45;known/core. ">
<polygon fill="#ffffff" stroke="#000000" points="107,-9.5 107,-28.5 241,-28.5 241,-9.5 107,-9.5"/>
<text text-anchor="middle" x="174" y="-16.5" font-family="Helvetica,sans-Serif" font-size="10.00" fill="#000000">coap_wellknown_response</text>
</a>
</g>
</g>
<!-- Node3003&#45;&gt;Node3004 -->
<g id="edge1" class="edge">
<title>Node3003&#45;&gt;Node3004</title>
<path fill="none" stroke="#191970" d="M81.2983,-19C89.5415,-19 98.2873,-19 106.9861,-19"/>
<polygon fill="#191970" stroke="#191970" points="81.1672,-15.5001 71.1672,-19 81.1672,-22.5001 81.1672,-15.5001"/>
</g>
<!-- Node3005 -->
<g id="node3" class="node">
<title>Node3005</title>
<g id="a_node3"><a xlink:href="net_8c.html#a1a280312c4bad55cf10243b9b9c3e966" target="_top" xlink:title="handle_request">
<polygon fill="#ffffff" stroke="#000000" points="277,-28.5 277,-47.5 360,-47.5 360,-28.5 277,-28.5"/>
<text text-anchor="middle" x="318.5" y="-35.5" font-family="Helvetica,sans-Serif" font-size="10.00" fill="#000000">handle_request</text>
</a>
</g>
</g>
<!-- Node3004&#45;&gt;Node3005 -->
<g id="edge2" class="edge">
<title>Node3004&#45;&gt;Node3005</title>
<path fill="none" stroke="#191970" d="M251.1037,-29.1382C259.8874,-30.2931 268.5749,-31.4355 276.644,-32.4964"/>
<polygon fill="#191970" stroke="#191970" points="251.5446,-25.6661 241.1736,-27.8325 250.632,-32.6064 251.5446,-25.6661"/>
</g>
<!-- Node3012 -->
<g id="node10" class="node">
<title>Node3012</title>
<g id="a_node10"><a xlink:href="net_8h.html#a5854b1394bfddd574e48af116e3aaaf9" target="_top" xlink:title="Sends an RST message with code 0 for the specified request to dst. ">
<polygon fill="#ffffff" stroke="#000000" points="1282.5,-85.5 1282.5,-104.5 1362.5,-104.5 1362.5,-85.5 1282.5,-85.5"/>
<text text-anchor="middle" x="1322.5" y="-92.5" font-family="Helvetica,sans-Serif" font-size="10.00" fill="#000000">coap_send_rst</text>
</a>
</g>
</g>
<!-- Node3004&#45;&gt;Node3012 -->
<g id="edge21" class="edge">
<title>Node3004&#45;&gt;Node3012</title>
<path fill="none" stroke="#191970" d="M251.384,-10.4345C303.4909,-5.3944 373.7912,0 436,0 436,0 436,0 1089,0 1161.0384,0 1179.4736,-14.0697 1245,-44 1269.9064,-55.3764 1295.9099,-74.1335 1310.5701,-85.452"/>
<polygon fill="#191970" stroke="#191970" points="250.8218,-6.9728 241.213,-11.4361 251.5079,-13.9392 250.8218,-6.9728"/>
</g>
<!-- Node3006 -->
<g id="node4" class="node">
<title>Node3006</title>
<g id="a_node4"><a xlink:href="net_8h.html#a7bb944fc52f772655356d95724317401" target="_top" xlink:title="Dispatches the PDUs from the receive queue in given context. ">
<polygon fill="#ffffff" stroke="#000000" points="396,-47.5 396,-66.5 476,-66.5 476,-47.5 396,-47.5"/>
<text text-anchor="middle" x="436" y="-54.5" font-family="Helvetica,sans-Serif" font-size="10.00" fill="#000000">coap_dispatch</text>
</a>
</g>
</g>
<!-- Node3005&#45;&gt;Node3006 -->
<g id="edge3" class="edge">
<title>Node3005&#45;&gt;Node3006</title>
<path fill="none" stroke="#191970" d="M370.2369,-46.366C378.857,-47.7598 387.6813,-49.1868 395.9534,-50.5244"/>
<polygon fill="#191970" stroke="#191970" points="370.6874,-42.8934 360.2569,-44.7522 369.57,-49.8037 370.6874,-42.8934"/>
</g>
<!-- Node3007 -->
<g id="node5" class="node">
<title>Node3007</title>
<g id="a_node5"><a xlink:href="net_8c.html#acd36f6fba6d30ab9557e0e6521f4a088" target="_top" xlink:title="coap_read_session">
<polygon fill="#ffffff" stroke="#000000" points="809.5,-152.5 809.5,-171.5 910.5,-171.5 910.5,-152.5 809.5,-152.5"/>
<text text-anchor="middle" x="860" y="-159.5" font-family="Helvetica,sans-Serif" font-size="10.00" fill="#000000">coap_read_session</text>
</a>
</g>
</g>
<!-- Node3006&#45;&gt;Node3007 -->
<g id="edge4" class="edge">
<title>Node3006&#45;&gt;Node3007</title>
<path fill="none" stroke="#191970" d="M462.4078,-71.1881C476.8581,-78.7002 495.1936,-87.8282 512,-95 572.7696,-120.9323 587.4118,-131.079 652,-145 704.9502,-156.4126 766.9921,-160.2933 809.4488,-161.547"/>
<polygon fill="#191970" stroke="#191970" points="464.0085,-68.0754 453.5282,-66.5217 460.7521,-74.2719 464.0085,-68.0754"/>
</g>
<!-- Node3006&#45;&gt;Node3012 -->
<g id="edge20" class="edge">
<title>Node3006&#45;&gt;Node3012</title>
<path fill="none" stroke="#191970" d="M486.3886,-51.4435C541.6647,-45.8361 633.0365,-38 712,-38 712,-38 712,-38 1089,-38 1168.0756,-38 1258.0279,-69.233 1299.425,-85.4595"/>
<polygon fill="#191970" stroke="#191970" points="485.7524,-47.9905 476.1639,-52.4973 486.47,-54.9536 485.7524,-47.9905"/>
</g>
<!-- Node3014 -->
<g id="node12" class="node">
<title>Node3014</title>
<g id="a_node12"><a xlink:href="net_8h.html#ae6b8ca457dd41f23372f9e9a7159312b" target="_top" xlink:title="Parses and interprets a CoAP datagram with context ctx. ">
<polygon fill="#ffffff" stroke="#000000" points="512,-66.5 512,-85.5 616,-85.5 616,-66.5 512,-66.5"/>
<text text-anchor="middle" x="564" y="-73.5" font-family="Helvetica,sans-Serif" font-size="10.00" fill="#000000">coap_handle_dgram</text>
</a>
</g>
</g>
<!-- Node3006&#45;&gt;Node3014 -->
<g id="edge14" class="edge">
<title>Node3006&#45;&gt;Node3014</title>
<path fill="none" stroke="#191970" d="M486.1883,-64.4498C494.5884,-65.6967 503.3218,-66.9931 511.7716,-68.2474"/>
<polygon fill="#191970" stroke="#191970" points="486.5544,-60.9659 476.1488,-62.9596 485.5265,-67.89 486.5544,-60.9659"/>
</g>
<!-- Node3008 -->
<g id="node6" class="node">
<title>Node3008</title>
<g id="a_node6"><a xlink:href="net_8h.html#a0748d791fd2af516dd93fbadb660d440" target="_top" xlink:title="For applications with their own message loop, reads all data from the network. ">
<polygon fill="#ffffff" stroke="#000000" points="948,-152.5 948,-171.5 1010,-171.5 1010,-152.5 948,-152.5"/>
<text text-anchor="middle" x="979" y="-159.5" font-family="Helvetica,sans-Serif" font-size="10.00" fill="#000000">coap_read</text>
</a>
</g>
</g>
<!-- Node3007&#45;&gt;Node3008 -->
<g id="edge5" class="edge">
<title>Node3007&#45;&gt;Node3008</title>
<path fill="none" stroke="#191970" d="M920.949,-162C930.3142,-162 939.6315,-162 947.9721,-162"/>
<polygon fill="#191970" stroke="#191970" points="920.8119,-158.5001 910.8119,-162 920.8119,-165.5001 920.8119,-158.5001"/>
</g>
<!-- Node3009 -->
<g id="node7" class="node">
<title>Node3009</title>
<g id="a_node7"><a xlink:href="coap__io_8c.html#a75a7c93e10ca7858449ba304aad4ea37" target="_top" xlink:title="coap_run_once">
<polygon fill="#ffffff" stroke="#000000" points="1281,-237.5 1281,-256.5 1364,-256.5 1364,-237.5 1281,-237.5"/>
<text text-anchor="middle" x="1322.5" y="-244.5" font-family="Helvetica,sans-Serif" font-size="10.00" fill="#000000">coap_run_once</text>
</a>
</g>
</g>
<!-- Node3008&#45;&gt;Node3009 -->
<g id="edge6" class="edge">
<title>Node3008&#45;&gt;Node3009</title>
<path fill="none" stroke="#191970" d="M1003.3279,-177.2106C1038.2084,-197.9989 1105.1687,-234.1682 1168,-247 1205.5811,-254.675 1249.3852,-253.7756 1280.7338,-251.4862"/>
<polygon fill="#191970" stroke="#191970" points="1004.7376,-173.9726 994.3706,-171.7872 1001.1121,-179.9606 1004.7376,-173.9726"/>
</g>
<!-- Node3010 -->
<g id="node8" class="node">
<title>Node3010</title>
<g id="a_node8"><a xlink:href="net_8h.html#a9900c032b74bd57f67d489484a2b3207" target="_top" xlink:title="Handles retransmissions of confirmable messages. ">
<polygon fill="#ffffff" stroke="#000000" points="1046,-166.5 1046,-185.5 1132,-185.5 1132,-166.5 1046,-166.5"/>
<text text-anchor="middle" x="1089" y="-173.5" font-family="Helvetica,sans-Serif" font-size="10.00" fill="#000000">coap_retransmit</text>
</a>
</g>
</g>
<!-- Node3008&#45;&gt;Node3010 -->
<g id="edge7" class="edge">
<title>Node3008&#45;&gt;Node3010</title>
<path fill="none" stroke="#191970" d="M1020.1522,-167.2375C1028.5214,-168.3027 1037.3482,-169.4261 1045.7866,-170.5001"/>
<polygon fill="#191970" stroke="#191970" points="1020.5893,-163.765 1010.2274,-165.9744 1019.7054,-170.709 1020.5893,-163.765"/>
</g>
<!-- Node3008&#45;&gt;Node3012 -->
<g id="edge13" class="edge">
<title>Node3008&#45;&gt;Node3012</title>
<path fill="none" stroke="#191970" d="M1020.184,-153.967C1086.6041,-141.0117 1216.5659,-115.6625 1282.3317,-102.8349"/>
<polygon fill="#191970" stroke="#191970" points="1019.2341,-150.5863 1010.0892,-155.936 1020.5743,-157.4568 1019.2341,-150.5863"/>
</g>
<!-- Node3011 -->
<g id="node9" class="node">
<title>Node3011</title>
<g id="a_node9"><a xlink:href="net_8h.html#aaac86ac50793f309678e4951ecf8863f" target="_top" xlink:title="For applications with their own message loop, send all pending retransmits and return the list of soc...">
<polygon fill="#ffffff" stroke="#000000" points="1174.5,-218.5 1174.5,-237.5 1238.5,-237.5 1238.5,-218.5 1174.5,-218.5"/>
<text text-anchor="middle" x="1206.5" y="-225.5" font-family="Helvetica,sans-Serif" font-size="10.00" fill="#000000">coap_write</text>
</a>
</g>
</g>
<!-- Node3010&#45;&gt;Node3011 -->
<g id="edge8" class="edge">
<title>Node3010&#45;&gt;Node3011</title>
<path fill="none" stroke="#191970" d="M1119.7454,-189.6065C1140.1441,-198.634 1166.4226,-210.2636 1184.6874,-218.3468"/>
<polygon fill="#191970" stroke="#191970" points="1121.1123,-186.384 1110.5513,-185.5376 1118.2794,-192.7852 1121.1123,-186.384"/>
</g>
<!-- Node3010&#45;&gt;Node3012 -->
<g id="edge12" class="edge">
<title>Node3010&#45;&gt;Node3012</title>
<path fill="none" stroke="#191970" d="M1133.5103,-163.642C1164.9415,-154.5912 1207.8978,-141.5655 1245,-128 1264.5031,-120.8692 1286.215,-111.4957 1301.6847,-104.5616"/>
<polygon fill="#191970" stroke="#191970" points="1132.3856,-160.3232 1123.7324,-166.4365 1134.3092,-167.0537 1132.3856,-160.3232"/>
</g>
<!-- Node3013 -->
<g id="node11" class="node">
<title>Node3013</title>
<g id="a_node11"><a xlink:href="libcoap_8h.html#a5d1fb0b44497970b0f75fa0b38570a82" target="_top" xlink:title="coap_cleanup">
<polygon fill="#ffffff" stroke="#000000" points="1168,-180.5 1168,-199.5 1245,-199.5 1245,-180.5 1168,-180.5"/>
<text text-anchor="middle" x="1206.5" y="-187.5" font-family="Helvetica,sans-Serif" font-size="10.00" fill="#000000">coap_cleanup</text>
</a>
</g>
</g>
<!-- Node3010&#45;&gt;Node3013 -->
<g id="edge11" class="edge">
<title>Node3010&#45;&gt;Node3013</title>
<path fill="none" stroke="#191970" d="M1142.0879,-182.3254C1150.7111,-183.3528 1159.4986,-184.3998 1167.6979,-185.3768"/>
<polygon fill="#191970" stroke="#191970" points="1142.4294,-178.8414 1132.0855,-181.1336 1141.6011,-185.7922 1142.4294,-178.8414"/>
</g>
<!-- Node3011&#45;&gt;Node3009 -->
<g id="edge9" class="edge">
<title>Node3011&#45;&gt;Node3009</title>
<path fill="none" stroke="#191970" d="M1248.6193,-234.8988C1259.036,-236.605 1270.1933,-238.4325 1280.5996,-240.137"/>
<polygon fill="#191970" stroke="#191970" points="1248.9388,-231.4046 1238.5046,-233.2421 1247.8073,-238.3126 1248.9388,-231.4046"/>
</g>
<!-- Node3011&#45;&gt;Node3012 -->
<g id="edge10" class="edge">
<title>Node3011&#45;&gt;Node3012</title>
<path fill="none" stroke="#191970" d="M1239.5819,-213.1617C1241.4853,-211.8584 1243.3096,-210.4709 1245,-209 1280.9271,-177.7372 1307.8292,-126.1923 1318.0279,-104.7885"/>
<polygon fill="#191970" stroke="#191970" points="1237.6988,-210.2095 1230.8997,-218.335 1241.2819,-216.2229 1237.6988,-210.2095"/>
</g>
<!-- Node3014&#45;&gt;Node3012 -->
<g id="edge19" class="edge">
<title>Node3014&#45;&gt;Node3012</title>
<path fill="none" stroke="#191970" d="M626.1851,-76C686.0814,-76 779.2381,-76 860,-76 860,-76 860,-76 1089,-76 1156.9225,-76 1235.5939,-84.0855 1282.0856,-89.7074"/>
<polygon fill="#191970" stroke="#191970" points="626.1327,-72.5001 616.1326,-76 626.1326,-79.5001 626.1327,-72.5001"/>
</g>
<!-- Node3015 -->
<g id="node13" class="node">
<title>Node3015</title>
<g id="a_node13"><a xlink:href="net_8c.html#a8534f7860b14e0743529daff196a27ce" target="_top" xlink:title="coap_handle_dgram_for\l_proto">
<polygon fill="#ffffff" stroke="#000000" points="652,-105 652,-135 772,-135 772,-105 652,-105"/>
<text text-anchor="start" x="660" y="-123" font-family="Helvetica,sans-Serif" font-size="10.00" fill="#000000">coap_handle_dgram_for</text>
<text text-anchor="middle" x="712" y="-112" font-family="Helvetica,sans-Serif" font-size="10.00" fill="#000000">_proto</text>
</a>
</g>
</g>
<!-- Node3014&#45;&gt;Node3015 -->
<g id="edge15" class="edge">
<title>Node3014&#45;&gt;Node3015</title>
<path fill="none" stroke="#191970" d="M605.8949,-88.4553C623.1371,-93.5813 643.2639,-99.5649 661.3256,-104.9346"/>
<polygon fill="#191970" stroke="#191970" points="606.6966,-85.0422 596.1138,-85.5473 604.7017,-91.752 606.6966,-85.0422"/>
</g>
<!-- Node3015&#45;&gt;Node3007 -->
<g id="edge16" class="edge">
<title>Node3015&#45;&gt;Node3007</title>
<path fill="none" stroke="#191970" d="M774.7213,-137.7993C792.4061,-142.818 810.9711,-148.0864 826.2472,-152.4215"/>
<polygon fill="#191970" stroke="#191970" points="775.589,-134.4074 765.0134,-135.0443 773.678,-141.1415 775.589,-134.4074"/>
</g>
<!-- Node3016 -->
<g id="node14" class="node">
<title>Node3016</title>
<g id="a_node14"><a xlink:href="net_8c.html#a44ffb4b70e537043e9a9cf344be24b92" target="_top" xlink:title="coap_read_endpoint">
<polygon fill="#ffffff" stroke="#000000" points="808,-111.5 808,-130.5 912,-130.5 912,-111.5 808,-111.5"/>
<text text-anchor="middle" x="860" y="-118.5" font-family="Helvetica,sans-Serif" font-size="10.00" fill="#000000">coap_read_endpoint</text>
</a>
</g>
</g>
<!-- Node3015&#45;&gt;Node3016 -->
<g id="edge17" class="edge">
<title>Node3015&#45;&gt;Node3016</title>
<path fill="none" stroke="#191970" d="M782.2786,-120.4749C790.917,-120.5332 799.6233,-120.592 807.9248,-120.6481"/>
<polygon fill="#191970" stroke="#191970" points="782.2207,-116.9745 772.1973,-120.4067 782.1734,-123.9743 782.2207,-116.9745"/>
</g>
<!-- Node3016&#45;&gt;Node3008 -->
<g id="edge18" class="edge">
<title>Node3016&#45;&gt;Node3008</title>
<path fill="none" stroke="#191970" d="M897.4421,-133.9002C914.8251,-139.8893 935.1341,-146.8865 951.1374,-152.4003"/>
<polygon fill="#191970" stroke="#191970" points="898.1948,-130.4577 887.6001,-130.5093 895.9145,-137.0759 898.1948,-130.4577"/>
</g>
</g>
</svg>
        <g id="navigator" transform="translate(0 0)" fill="#404254">
                <rect fill="#f2f5e9" fill-opacity="0.5" stroke="#606060" stroke-width=".5" x="0" y="0" width="60" height="60"/>
                <use id="zoomplus" xlink:href="#zoomPlus" x="17" y="9" onmousedown="handleZoom(evt,'in')"/>
                <use id="zoomminus" xlink:href="#zoomMin" x="42" y="9" onmousedown="handleZoom(evt,'out')"/>
                <use id="reset" xlink:href="#resetDef" x="30" y="36" onmousedown="handleReset()"/>
                <g id="arrowUp" xlink:href="#dirArrow" transform="translate(30 24)" onmousedown="handlePan(0,-1)">
                  <use xlink:href="#rim" fill="#404040">
                        <set attributeName="fill" to="#808080" begin="arrowUp.mouseover" end="arrowUp.mouseout"/>
                  </use>
                  <path fill="none" stroke="white" stroke-width="1.5" d="M0,-3.0v7 M-2.5,-0.5L0,-3.0L2.5,-0.5"/>
                </g>
                <g id="arrowRight" xlink:href="#dirArrow" transform="rotate(90) translate(36 -43)" onmousedown="handlePan(1,0)">
                  <use xlink:href="#rim" fill="#404040">
                        <set attributeName="fill" to="#808080" begin="arrowRight.mouseover" end="arrowRight.mouseout"/>
                  </use>
                  <path fill="none" stroke="white" stroke-width="1.5" d="M0,-3.0v7 M-2.5,-0.5L0,-3.0L2.5,-0.5"/>
                </g>
                <g id="arrowDown" xlink:href="#dirArrow" transform="rotate(180) translate(-30 -48)" onmousedown="handlePan(0,1)">
                  <use xlink:href="#rim" fill="#404040">
                        <set attributeName="fill" to="#808080" begin="arrowDown.mouseover" end="arrowDown.mouseout"/>
                  </use>
                  <path fill="none" stroke="white" stroke-width="1.5" d="M0,-3.0v7 M-2.5,-0.5L0,-3.0L2.5,-0.5"/>
                </g>
                <g id="arrowLeft" xlink:href="#dirArrow" transform="rotate(270) translate(-36 17)" onmousedown="handlePan(-1,0)">
                  <use xlink:href="#rim" fill="#404040">
                        <set attributeName="fill" to="#808080" begin="arrowLeft.mouseover" end="arrowLeft.mouseout"/>
                  </use>
                  <path fill="none" stroke="white" stroke-width="1.5" d="M0,-3.0v7 M-2.5,-0.5L0,-3.0L2.5,-0.5"/>
                </g>
        </g>
        <svg viewBox="0 0 15 15" width="100%" height="30px" preserveAspectRatio="xMaxYMin meet">
         <g id="arrow_out" transform="scale(0.3 0.3)">
          <a xlink:href="net_8c_a4dc6e755dca2ca804e8700f398f4c329_icgraph_org.svg" target="_base">
           <rect id="button" ry="5" rx="5" y="6" x="6" height="38" width="38"
                fill="#f2f5e9" fill-opacity="0.5" stroke="#606060" stroke-width="1.0"/>
           <path id="arrow"
             d="M 11.500037,31.436501 C 11.940474,20.09759 22.043105,11.32322 32.158766,21.979434 L 37.068811,17.246167 C 37.068811,17.246167 37.088388,32 37.088388,32 L 22.160133,31.978069 C 22.160133,31.978069 26.997745,27.140456 26.997745,27.140456 C 18.528582,18.264221 13.291696,25.230495 11.500037,31.436501 z"
             style="fill:#404040;"/>
          </a>
         </g>
        </svg>
</svg>
