<?xml version="1.0" encoding="UTF-8" standalone="no"?>
<!DOCTYPE svg PUBLIC "-//W3C//DTD SVG 1.1//EN"
 "http://www.w3.org/Graphics/SVG/1.1/DTD/svg11.dtd">
<!-- Generated by graphviz version 2.40.1 (20161225.0304)
 -->
<!-- Title: coap_cancel_session_messages Pages: 1 -->
<svg width="862pt" height="189pt"
 viewBox="0.00 0.00 862.00 189.00" xmlns="http://www.w3.org/2000/svg" xmlns:xlink="http://www.w3.org/1999/xlink">
<g id="graph0" class="graph" transform="scale(1 1) rotate(0) translate(4 185)">
<title>coap_cancel_session_messages</title>
<polygon fill="#ffffff" stroke="transparent" points="-4,4 -4,-185 858,-185 858,4 -4,4"/>
<!-- Node86 -->
<g id="node1" class="node">
<title>Node86</title>
<polygon fill="#bfbfbf" stroke="#000000" points="0,-13 0,-43 110,-43 110,-13 0,-13"/>
<text text-anchor="start" x="8" y="-31" font-family="Helvetica,sans-Serif" font-size="10.00" fill="#000000">coap_cancel_session</text>
<text text-anchor="middle" x="55" y="-20" font-family="Helvetica,sans-Serif" font-size="10.00" fill="#000000">_messages</text>
</g>
<!-- Node87 -->
<g id="node2" class="node">
<title>Node87</title>
<g id="a_node2"><a xlink:href="coap__session_8h.html#a18097f8fbfbc5ce268dc2a9bc20f86d6" target="_top" xlink:title="Notify session that the remote peer is no longer listening. ">
<polygon fill="#ffffff" stroke="#000000" points="146,-47.5 146,-66.5 250,-66.5 250,-47.5 146,-47.5"/>
<text text-anchor="middle" x="198" y="-54.5" font-family="Helvetica,sans-Serif" font-size="10.00" fill="#000000">coap_session_reset</text>
</a>
</g>
</g>
<!-- Node86&#45;&gt;Node87 -->
<g id="edge1" class="edge">
<title>Node86&#45;&gt;Node87</title>
<path fill="none" stroke="#191970" d="M120.107,-41.2035C130.4358,-43.2982 140.9439,-45.4292 150.76,-47.4199"/>
<polygon fill="#191970" stroke="#191970" points="120.7837,-37.7696 110.2875,-39.2122 119.3924,-44.6299 120.7837,-37.7696"/>
</g>
<!-- Node93 -->
<g id="node8" class="node">
<title>Node93</title>
<g id="a_node8"><a xlink:href="net_8h.html#a5854b1394bfddd574e48af116e3aaaf9" target="_top" xlink:title="Sends an RST message with code 0 for the specified request to dst. ">
<polygon fill="#ffffff" stroke="#000000" points="772.5,-85.5 772.5,-104.5 852.5,-104.5 852.5,-85.5 772.5,-85.5"/>
<text text-anchor="middle" x="812.5" y="-92.5" font-family="Helvetica,sans-Serif" font-size="10.00" fill="#000000">coap_send_rst</text>
</a>
</g>
</g>
<!-- Node86&#45;&gt;Node93 -->
<g id="edge14" class="edge">
<title>Node86&#45;&gt;Node93</title>
<path fill="none" stroke="#191970" d="M120.4508,-18.0217C178.9122,-9.9784 266.9635,0 344,0 344,0 344,0 579,0 651.2848,0 669.1539,-16.1775 735,-46 759.2161,-56.9678 784.8181,-74.4781 799.6926,-85.3276"/>
<polygon fill="#191970" stroke="#191970" points="119.6688,-14.5968 110.2493,-19.4469 120.6374,-21.5295 119.6688,-14.5968"/>
</g>
<!-- Node88 -->
<g id="node3" class="node">
<title>Node88</title>
<g id="a_node3"><a xlink:href="net_8c.html#a9e7c7fc083799c942c9c44ebc190c833" target="_top" xlink:title="coap_connect_session">
<polygon fill="#ffffff" stroke="#000000" points="286,-85.5 286,-104.5 402,-104.5 402,-85.5 286,-85.5"/>
<text text-anchor="middle" x="344" y="-92.5" font-family="Helvetica,sans-Serif" font-size="10.00" fill="#000000">coap_connect_session</text>
</a>
</g>
</g>
<!-- Node87&#45;&gt;Node88 -->
<g id="edge2" class="edge">
<title>Node87&#45;&gt;Node88</title>
<path fill="none" stroke="#191970" d="M244.536,-69.1121C264.8696,-74.4044 288.3713,-80.5213 307.423,-85.4799"/>
<polygon fill="#191970" stroke="#191970" points="245.4012,-65.7207 234.842,-66.589 243.6379,-72.4951 245.4012,-65.7207"/>
</g>
<!-- Node95 -->
<g id="node10" class="node">
<title>Node95</title>
<g id="a_node10"><a xlink:href="net_8c.html#acd36f6fba6d30ab9557e0e6521f4a088" target="_top" xlink:title="coap_read_session">
<polygon fill="#ffffff" stroke="#000000" points="293.5,-47.5 293.5,-66.5 394.5,-66.5 394.5,-47.5 293.5,-47.5"/>
<text text-anchor="middle" x="344" y="-54.5" font-family="Helvetica,sans-Serif" font-size="10.00" fill="#000000">coap_read_session</text>
</a>
</g>
</g>
<!-- Node87&#45;&gt;Node95 -->
<g id="edge12" class="edge">
<title>Node87&#45;&gt;Node95</title>
<path fill="none" stroke="#191970" d="M260.5636,-57C271.4055,-57 282.561,-57 293.0468,-57"/>
<polygon fill="#191970" stroke="#191970" points="260.297,-53.5001 250.297,-57 260.2969,-60.5001 260.297,-53.5001"/>
</g>
<!-- Node89 -->
<g id="node4" class="node">
<title>Node89</title>
<g id="a_node4"><a xlink:href="net_8h.html#a0748d791fd2af516dd93fbadb660d440" target="_top" xlink:title="For applications with their own message loop, reads all data from the network. ">
<polygon fill="#ffffff" stroke="#000000" points="438,-85.5 438,-104.5 500,-104.5 500,-85.5 438,-85.5"/>
<text text-anchor="middle" x="469" y="-92.5" font-family="Helvetica,sans-Serif" font-size="10.00" fill="#000000">coap_read</text>
</a>
</g>
</g>
<!-- Node88&#45;&gt;Node89 -->
<g id="edge3" class="edge">
<title>Node88&#45;&gt;Node89</title>
<path fill="none" stroke="#191970" d="M412.2666,-95C421.2388,-95 430.0512,-95 437.9556,-95"/>
<polygon fill="#191970" stroke="#191970" points="412.1087,-91.5001 402.1087,-95 412.1087,-98.5001 412.1087,-91.5001"/>
</g>
<!-- Node90 -->
<g id="node5" class="node">
<title>Node90</title>
<g id="a_node5"><a xlink:href="coap__io_8c.html#a75a7c93e10ca7858449ba304aad4ea37" target="_top" xlink:title="coap_run_once">
<polygon fill="#ffffff" stroke="#000000" points="771,-161.5 771,-180.5 854,-180.5 854,-161.5 771,-161.5"/>
<text text-anchor="middle" x="812.5" y="-168.5" font-family="Helvetica,sans-Serif" font-size="10.00" fill="#000000">coap_run_once</text>
</a>
</g>
</g>
<!-- Node89&#45;&gt;Node90 -->
<g id="edge4" class="edge">
<title>Node89&#45;&gt;Node90</title>
<path fill="none" stroke="#191970" d="M500.063,-108.7583C511.3381,-113.6692 524.2037,-119.1772 536,-124 589.7852,-145.9897 600.8726,-160.3765 658,-171 695.7103,-178.0127 739.4993,-177.1909 770.8093,-175.099"/>
<polygon fill="#191970" stroke="#191970" points="501.195,-105.4332 490.6307,-104.6285 498.3874,-111.8455 501.195,-105.4332"/>
</g>
<!-- Node91 -->
<g id="node6" class="node">
<title>Node91</title>
<g id="a_node6"><a xlink:href="net_8h.html#a9900c032b74bd57f67d489484a2b3207" target="_top" xlink:title="Handles retransmissions of confirmable messages. ">
<polygon fill="#ffffff" stroke="#000000" points="536,-95.5 536,-114.5 622,-114.5 622,-95.5 536,-95.5"/>
<text text-anchor="middle" x="579" y="-102.5" font-family="Helvetica,sans-Serif" font-size="10.00" fill="#000000">coap_retransmit</text>
</a>
</g>
</g>
<!-- Node89&#45;&gt;Node91 -->
<g id="edge5" class="edge">
<title>Node89&#45;&gt;Node91</title>
<path fill="none" stroke="#191970" d="M510.4282,-98.7662C518.7153,-99.5196 527.4409,-100.3128 535.7866,-101.0715"/>
<polygon fill="#191970" stroke="#191970" points="510.5032,-95.2587 500.2274,-97.8389 509.8694,-102.2299 510.5032,-95.2587"/>
</g>
<!-- Node89&#45;&gt;Node93 -->
<g id="edge11" class="edge">
<title>Node89&#45;&gt;Node93</title>
<path fill="none" stroke="#191970" d="M503.3857,-82.06C554.4147,-64.6589 652.99,-37.9762 735,-57 758.5022,-62.4518 783.096,-76.0761 798.1128,-85.4372"/>
<polygon fill="#191970" stroke="#191970" points="502.1172,-78.7957 493.8328,-85.4002 504.4277,-85.4034 502.1172,-78.7957"/>
</g>
<!-- Node92 -->
<g id="node7" class="node">
<title>Node92</title>
<g id="a_node7"><a xlink:href="net_8h.html#aaac86ac50793f309678e4951ecf8863f" target="_top" xlink:title="For applications with their own message loop, send all pending retransmits and return the list of soc...">
<polygon fill="#ffffff" stroke="#000000" points="664.5,-142.5 664.5,-161.5 728.5,-161.5 728.5,-142.5 664.5,-142.5"/>
<text text-anchor="middle" x="696.5" y="-149.5" font-family="Helvetica,sans-Serif" font-size="10.00" fill="#000000">coap_write</text>
</a>
</g>
</g>
<!-- Node91&#45;&gt;Node92 -->
<g id="edge6" class="edge">
<title>Node91&#45;&gt;Node92</title>
<path fill="none" stroke="#191970" d="M612.3157,-118.3263C631.4397,-125.9759 655.0196,-135.4078 672.3542,-142.3417"/>
<polygon fill="#191970" stroke="#191970" points="613.3625,-114.9754 602.7779,-114.5112 610.7628,-121.4748 613.3625,-114.9754"/>
</g>
<!-- Node91&#45;&gt;Node93 -->
<g id="edge10" class="edge">
<title>Node91&#45;&gt;Node93</title>
<path fill="none" stroke="#191970" d="M632.2873,-102.7179C674.8913,-100.8933 733.692,-98.3751 772.3817,-96.7181"/>
<polygon fill="#191970" stroke="#191970" points="631.9407,-99.2294 622.0996,-103.1542 632.2402,-106.223 631.9407,-99.2294"/>
</g>
<!-- Node94 -->
<g id="node9" class="node">
<title>Node94</title>
<g id="a_node9"><a xlink:href="libcoap_8h.html#a5d1fb0b44497970b0f75fa0b38570a82" target="_top" xlink:title="coap_cleanup">
<polygon fill="#ffffff" stroke="#000000" points="658,-66.5 658,-85.5 735,-85.5 735,-66.5 658,-66.5"/>
<text text-anchor="middle" x="696.5" y="-73.5" font-family="Helvetica,sans-Serif" font-size="10.00" fill="#000000">coap_cleanup</text>
</a>
</g>
</g>
<!-- Node91&#45;&gt;Node94 -->
<g id="edge9" class="edge">
<title>Node91&#45;&gt;Node94</title>
<path fill="none" stroke="#191970" d="M627.6505,-92.9926C637.6816,-90.5169 648.1177,-87.9412 657.7412,-85.566"/>
<polygon fill="#191970" stroke="#191970" points="626.6695,-89.6297 617.7995,-95.4239 628.3469,-96.4257 626.6695,-89.6297"/>
</g>
<!-- Node92&#45;&gt;Node90 -->
<g id="edge7" class="edge">
<title>Node92&#45;&gt;Node90</title>
<path fill="none" stroke="#191970" d="M738.6193,-158.8988C749.036,-160.605 760.1933,-162.4325 770.5996,-164.137"/>
<polygon fill="#191970" stroke="#191970" points="738.9388,-155.4046 728.5046,-157.2421 737.8073,-162.3126 738.9388,-155.4046"/>
</g>
<!-- Node92&#45;&gt;Node93 -->
<g id="edge8" class="edge">
<title>Node92&#45;&gt;Node93</title>
<path fill="none" stroke="#191970" d="M725.0669,-137.9628C746.2014,-127.5778 774.4299,-113.7069 793.0209,-104.5716"/>
<polygon fill="#191970" stroke="#191970" points="723.3472,-134.908 715.9158,-142.4595 726.4344,-141.1906 723.3472,-134.908"/>
</g>
<!-- Node95&#45;&gt;Node89 -->
<g id="edge13" class="edge">
<title>Node95&#45;&gt;Node89</title>
<path fill="none" stroke="#191970" d="M385.311,-69.5585C402.4528,-74.7696 422.0065,-80.714 437.9003,-85.5457"/>
<polygon fill="#191970" stroke="#191970" points="386.1285,-66.149 375.5428,-66.589 384.0924,-72.8463 386.1285,-66.149"/>
</g>
</g>
</svg>
