<?xml version="1.0" encoding="UTF-8" standalone="no"?>
<!DOCTYPE svg PUBLIC "-//W3C//DTD SVG 1.1//EN"
 "http://www.w3.org/Graphics/SVG/1.1/DTD/svg11.dtd">
<!-- Generated by graphviz version 2.40.1 (20161225.0304)
 -->
<!-- Title: coap_wait_ack Pages: 1 -->
<svg width="452pt" height="180pt"
 viewBox="0.00 0.00 452.00 180.00" xmlns="http://www.w3.org/2000/svg" xmlns:xlink="http://www.w3.org/1999/xlink">
<g id="graph0" class="graph" transform="scale(1 1) rotate(0) translate(4 176)">
<title>coap_wait_ack</title>
<polygon fill="#ffffff" stroke="transparent" points="-4,4 -4,-176 448,-176 448,4 -4,4"/>
<!-- Node2859 -->
<g id="node1" class="node">
<title>Node2859</title>
<polygon fill="#bfbfbf" stroke="#000000" points="0,-76.5 0,-95.5 82,-95.5 82,-76.5 0,-76.5"/>
<text text-anchor="middle" x="41" y="-83.5" font-family="Helvetica,sans-Serif" font-size="10.00" fill="#000000">coap_wait_ack</text>
</g>
<!-- Node2860 -->
<g id="node2" class="node">
<title>Node2860</title>
<g id="a_node2"><a xlink:href="coap__session_8c.html#a678a93d1dd7e1a9a52f4686778eef95b" target="_top" xlink:title="Increment reference counter on a session. ">
<polygon fill="#ffffff" stroke="#000000" points="118,-152.5 118,-171.5 240,-171.5 240,-152.5 118,-152.5"/>
<text text-anchor="middle" x="179" y="-159.5" font-family="Helvetica,sans-Serif" font-size="10.00" fill="#000000">coap_session_reference</text>
</a>
</g>
</g>
<!-- Node2859&#45;&gt;Node2860 -->
<g id="edge1" class="edge">
<title>Node2859&#45;&gt;Node2860</title>
<path fill="none" stroke="#191970" d="M51.696,-95.7671C65.895,-108.2777 92.1926,-129.9039 118,-143 122.346,-145.2054 126.9971,-147.2135 131.7205,-149.027"/>
<polygon fill="#191970" stroke="#191970" points="130.8483,-152.4312 141.443,-152.4771 133.1893,-145.8343 130.8483,-152.4312"/>
</g>
<!-- Node2861 -->
<g id="node3" class="node">
<title>Node2861</title>
<g id="a_node3"><a xlink:href="group__clock.html#ga350826988e63ff446a2a84034ecdf43d" target="_top" xlink:title="Sets t to the internal time with COAP_TICKS_PER_SECOND resolution. ">
<polygon fill="#ffffff" stroke="#000000" points="147,-114.5 147,-133.5 211,-133.5 211,-114.5 147,-114.5"/>
<text text-anchor="middle" x="179" y="-121.5" font-family="Helvetica,sans-Serif" font-size="10.00" fill="#000000">coap_ticks</text>
</a>
</g>
</g>
<!-- Node2859&#45;&gt;Node2861 -->
<g id="edge2" class="edge">
<title>Node2859&#45;&gt;Node2861</title>
<path fill="none" stroke="#191970" d="M75.8232,-95.589C94.3177,-100.6817 117.1947,-106.9811 136.7039,-112.3532"/>
<polygon fill="#191970" stroke="#191970" points="135.9876,-115.7862 146.5579,-115.0667 137.846,-109.0374 135.9876,-115.7862"/>
</g>
<!-- Node2862 -->
<g id="node4" class="node">
<title>Node2862</title>
<g id="a_node4"><a xlink:href="net_8c.html#a80d2c3b0141e98bf3f7914e7e59b9530" target="_top" xlink:title="Adds node to given queue, ordered by variable t in node. ">
<polygon fill="#ffffff" stroke="#000000" points="132.5,-76.5 132.5,-95.5 225.5,-95.5 225.5,-76.5 132.5,-76.5"/>
<text text-anchor="middle" x="179" y="-83.5" font-family="Helvetica,sans-Serif" font-size="10.00" fill="#000000">coap_insert_node</text>
</a>
</g>
</g>
<!-- Node2859&#45;&gt;Node2862 -->
<g id="edge3" class="edge">
<title>Node2859&#45;&gt;Node2862</title>
<path fill="none" stroke="#191970" d="M82.0309,-86C94.5667,-86 108.5851,-86 121.9818,-86"/>
<polygon fill="#191970" stroke="#191970" points="122.0704,-89.5001 132.0704,-86 122.0703,-82.5001 122.0704,-89.5001"/>
</g>
<!-- Node2863 -->
<g id="node5" class="node">
<title>Node2863</title>
<g id="a_node5"><a xlink:href="net_8c.html#a037d8de79abc81464f8c75b0aa89931b" target="_top" xlink:title="Returns the next pdu to send without removing from sendqeue. ">
<polygon fill="#ffffff" stroke="#000000" points="135,-38.5 135,-57.5 223,-57.5 223,-38.5 135,-38.5"/>
<text text-anchor="middle" x="179" y="-45.5" font-family="Helvetica,sans-Serif" font-size="10.00" fill="#000000">coap_peek_next</text>
</a>
</g>
</g>
<!-- Node2859&#45;&gt;Node2863 -->
<g id="edge4" class="edge">
<title>Node2859&#45;&gt;Node2863</title>
<path fill="none" stroke="#191970" d="M75.8232,-76.411C93.6377,-71.5056 115.5184,-65.4804 134.5389,-60.2429"/>
<polygon fill="#191970" stroke="#191970" points="135.476,-63.6152 144.1879,-57.5859 133.6175,-56.8664 135.476,-63.6152"/>
</g>
<!-- Node2864 -->
<g id="node6" class="node">
<title>Node2864</title>
<g id="a_node6"><a xlink:href="group__logging.html#ga8b690dbed6cc3a5beb81ba5d2d27d290" target="_top" xlink:title="Get session description. ">
<polygon fill="#ffffff" stroke="#000000" points="132.5,-.5 132.5,-19.5 225.5,-19.5 225.5,-.5 132.5,-.5"/>
<text text-anchor="middle" x="179" y="-7.5" font-family="Helvetica,sans-Serif" font-size="10.00" fill="#000000">coap_session_str</text>
</a>
</g>
</g>
<!-- Node2859&#45;&gt;Node2864 -->
<g id="edge5" class="edge">
<title>Node2859&#45;&gt;Node2864</title>
<path fill="none" stroke="#191970" d="M51.696,-76.2329C65.895,-63.7223 92.1926,-42.0961 118,-29 122.346,-26.7946 126.9971,-24.7865 131.7205,-22.973"/>
<polygon fill="#191970" stroke="#191970" points="133.1893,-26.1657 141.443,-19.5229 130.8483,-19.5688 133.1893,-26.1657"/>
</g>
<!-- Node2865 -->
<g id="node7" class="node">
<title>Node2865</title>
<g id="a_node7"><a xlink:href="group__logging.html#ga6a4f5ef637bf85aa161adfe73ac81ff0" target="_top" xlink:title="Print the address into the defined buffer. ">
<polygon fill="#ffffff" stroke="#000000" points="276,-.5 276,-19.5 362,-19.5 362,-.5 276,-.5"/>
<text text-anchor="middle" x="319" y="-7.5" font-family="Helvetica,sans-Serif" font-size="10.00" fill="#000000">coap_print_addr</text>
</a>
</g>
</g>
<!-- Node2864&#45;&gt;Node2865 -->
<g id="edge6" class="edge">
<title>Node2864&#45;&gt;Node2865</title>
<path fill="none" stroke="#191970" d="M225.618,-10C238.4219,-10 252.4051,-10 265.5604,-10"/>
<polygon fill="#191970" stroke="#191970" points="265.8948,-13.5001 275.8948,-10 265.8948,-6.5001 265.8948,-13.5001"/>
</g>
<!-- Node2866 -->
<g id="node8" class="node">
<title>Node2866</title>
<g id="a_node8"><a xlink:href="coap__debug_8c.html#aaa5ee5c2942fe13271a46000b2aebde6" target="_top" xlink:title="A length&#45;safe strlen() fake. ">
<polygon fill="#ffffff" stroke="#000000" points="398,-.5 398,-19.5 444,-19.5 444,-.5 398,-.5"/>
<text text-anchor="middle" x="421" y="-7.5" font-family="Helvetica,sans-Serif" font-size="10.00" fill="#000000">strnlen</text>
</a>
</g>
</g>
<!-- Node2865&#45;&gt;Node2866 -->
<g id="edge7" class="edge">
<title>Node2865&#45;&gt;Node2866</title>
<path fill="none" stroke="#191970" d="M362.2572,-10C370.7895,-10 379.6178,-10 387.7567,-10"/>
<polygon fill="#191970" stroke="#191970" points="387.9761,-13.5001 397.9761,-10 387.976,-6.5001 387.9761,-13.5001"/>
</g>
</g>
</svg>
