<?xml version="1.0" encoding="UTF-8" standalone="no"?>
<!DOCTYPE svg PUBLIC "-//W3C//DTD SVG 1.1//EN"
 "http://www.w3.org/Graphics/SVG/1.1/DTD/svg11.dtd">
<!-- Generated by graphviz version 2.40.1 (20161225.0304)
 -->
<!-- Title: coap_delete_node Pages: 1 -->
<!--zoomable 360 -->
<svg id="main" version="1.1" xmlns="http://www.w3.org/2000/svg" xmlns:xlink="http://www.w3.org/1999/xlink" xml:space="preserve" onload="init(evt)">
<style type="text/css"><![CDATA[
.edge:hover path { stroke: red; }
.edge:hover polygon { stroke: red; fill: red; }
]]></style>
<script type="text/javascript"><![CDATA[
var edges = document.getElementsByTagName('g');
if (edges && edges.length) {
  for (var i=0;i<edges.length;i++) {
    if (edges[i].id.substr(0,4)=='edge') {
      edges[i].setAttribute('class','edge');
    }
  }
}
]]></script>
        <defs>
                <circle id="rim" cx="0" cy="0" r="7"/>
                <circle id="rim2" cx="0" cy="0" r="3.5"/>
                <g id="zoomPlus">
                        <use xlink:href="#rim" fill="#404040">
                                <set attributeName="fill" to="#808080" begin="zoomplus.mouseover" end="zoomplus.mouseout"/>
                        </use>
                        <path d="M-4,0h8M0,-4v8" fill="none" stroke="white" stroke-width="1.5" pointer-events="none"/>
                </g>
                <g id="zoomMin">
                        <use xlink:href="#rim" fill="#404040">
                                <set attributeName="fill" to="#808080" begin="zoomminus.mouseover" end="zoomminus.mouseout"/>
                        </use>
                        <path d="M-4,0h8" fill="none" stroke="white" stroke-width="1.5" pointer-events="none"/>
                </g>
                <g id="dirArrow">
                        <path fill="none" stroke="white" stroke-width="1.5" d="M0,-3.0v7 M-2.5,-0.5L0,-3.0L2.5,-0.5"/>
                </g>
               <g id="resetDef">
                       <use xlink:href="#rim2" fill="#404040">
                               <set attributeName="fill" to="#808080" begin="reset.mouseover" end="reset.mouseout"/>
                       </use>
               </g>
        </defs>

<script type="text/javascript">
var viewWidth = 1078;
var viewHeight = 360;
var sectionId = 'dynsection-18';
</script>
<script xlink:href="svgpan.js"/>
<svg id="graph" class="graph">
<g id="viewport">
<title>coap_delete_node</title>
<polygon fill="#ffffff" stroke="transparent" points="-4,4 -4,-356 1074,-356 1074,4 -4,4"/>
<!-- Node146 -->
<g id="node1" class="node">
<title>Node146</title>
<polygon fill="#bfbfbf" stroke="#000000" points="0,-114.5 0,-133.5 95,-133.5 95,-114.5 0,-114.5"/>
<text text-anchor="middle" x="47.5" y="-121.5" font-family="Helvetica,sans-Serif" font-size="10.00" fill="#000000">coap_delete_node</text>
</g>
<!-- Node147 -->
<g id="node2" class="node">
<title>Node147</title>
<g id="a_node2"><a xlink:href="pdu_8c.html#a48581f968a30ef4278702eb1c16b7a90" target="_top" xlink:title="Dispose of an CoAP PDU and frees associated storage. ">
<polygon fill="#ffffff" stroke="#000000" points="712,-247.5 712,-266.5 802,-266.5 802,-247.5 712,-247.5"/>
<text text-anchor="middle" x="757" y="-254.5" font-family="Helvetica,sans-Serif" font-size="10.00" fill="#000000">coap_delete_pdu</text>
</a>
</g>
</g>
<!-- Node146&#45;&gt;Node147 -->
<g id="edge1" class="edge">
<title>Node146&#45;&gt;Node147</title>
<path fill="none" stroke="#191970" d="M52.8242,-133.5066C77.7673,-176.6573 187.8099,-352 329,-352 329,-352 329,-352 467.5,-352 569.4101,-352 681.8914,-298.1966 731.3159,-271.5707"/>
<polygon fill="#191970" stroke="#191970" points="733.2471,-274.5037 740.3383,-266.6319 729.8859,-268.3635 733.2471,-274.5037"/>
</g>
<!-- Node149 -->
<g id="node4" class="node">
<title>Node149</title>
<g id="a_node4"><a xlink:href="coap__session_8c.html#a9aee135ba884d7c143b11bc42fd23e53" target="_top" xlink:title="Decrement reference counter on a session. ">
<polygon fill="#ffffff" stroke="#000000" points="131,-114.5 131,-133.5 244,-133.5 244,-114.5 131,-114.5"/>
<text text-anchor="middle" x="187.5" y="-121.5" font-family="Helvetica,sans-Serif" font-size="10.00" fill="#000000">coap_session_release</text>
</a>
</g>
</g>
<!-- Node146&#45;&gt;Node149 -->
<g id="edge3" class="edge">
<title>Node146&#45;&gt;Node149</title>
<path fill="none" stroke="#191970" d="M95.2885,-124C103.487,-124 112.139,-124 120.7262,-124"/>
<polygon fill="#191970" stroke="#191970" points="120.7459,-127.5001 130.7459,-124 120.7458,-120.5001 120.7459,-127.5001"/>
</g>
<!-- Node160 -->
<g id="node15" class="node">
<title>Node160</title>
<g id="a_node15"><a xlink:href="net_8c.html#aa2f296838e4a779197c43b254e385ddc" target="_top" xlink:title="coap_free_node">
<polygon fill="#ffffff" stroke="#000000" points="714,-38.5 714,-57.5 800,-57.5 800,-38.5 714,-38.5"/>
<text text-anchor="middle" x="757" y="-45.5" font-family="Helvetica,sans-Serif" font-size="10.00" fill="#000000">coap_free_node</text>
</a>
</g>
</g>
<!-- Node146&#45;&gt;Node160 -->
<g id="edge28" class="edge">
<title>Node146&#45;&gt;Node160</title>
<path fill="none" stroke="#191970" d="M60.498,-114.4765C99.2184,-87.0778 218.0097,-10 329,-10 329,-10 329,-10 467.5,-10 560.5506,-10 584.1474,-14.1166 676,-29 687.5792,-30.8762 699.9633,-33.4742 711.4764,-36.147"/>
<polygon fill="#191970" stroke="#191970" points="710.7881,-39.581 721.3275,-38.499 712.4137,-32.7724 710.7881,-39.581"/>
</g>
<!-- Node148 -->
<g id="node3" class="node">
<title>Node148</title>
<g id="a_node3"><a xlink:href="mem_8h.html#ae7214e0c73a4d4290525873e739ed422" target="_top" xlink:title="Releases the memory that was allocated by coap_malloc_type(). ">
<polygon fill="#ffffff" stroke="#000000" points="847,-209.5 847,-228.5 930,-228.5 930,-209.5 847,-209.5"/>
<text text-anchor="middle" x="888.5" y="-216.5" font-family="Helvetica,sans-Serif" font-size="10.00" fill="#000000">coap_free_type</text>
</a>
</g>
</g>
<!-- Node147&#45;&gt;Node148 -->
<g id="edge2" class="edge">
<title>Node147&#45;&gt;Node148</title>
<path fill="none" stroke="#191970" d="M790.183,-247.411C807.0027,-242.5506 827.6263,-236.5909 845.6335,-231.3873"/>
<polygon fill="#191970" stroke="#191970" points="846.6924,-234.7246 855.3276,-228.5859 844.749,-227.9997 846.6924,-234.7246"/>
</g>
<!-- Node150 -->
<g id="node5" class="node">
<title>Node150</title>
<g id="a_node5"><a xlink:href="coap__session_8c.html#ab3d24595515d6f66805791a7f821d5e7" target="_top" xlink:title="coap_session_free">
<polygon fill="#ffffff" stroke="#000000" points="280,-133.5 280,-152.5 378,-152.5 378,-133.5 280,-133.5"/>
<text text-anchor="middle" x="329" y="-140.5" font-family="Helvetica,sans-Serif" font-size="10.00" fill="#000000">coap_session_free</text>
</a>
</g>
</g>
<!-- Node149&#45;&gt;Node150 -->
<g id="edge4" class="edge">
<title>Node149&#45;&gt;Node150</title>
<path fill="none" stroke="#191970" d="M244.2381,-131.6185C252.6561,-132.7489 261.3498,-133.9162 269.8163,-135.0531"/>
<polygon fill="#191970" stroke="#191970" points="269.6203,-138.5581 279.9972,-136.4201 270.5519,-131.6203 269.6203,-138.5581"/>
</g>
<!-- Node150&#45;&gt;Node148 -->
<g id="edge27" class="edge">
<title>Node150&#45;&gt;Node148</title>
<path fill="none" stroke="#191970" d="M340.3078,-152.793C371.8773,-179.4017 464.7143,-252.7275 557,-278 662.0256,-306.7613 697.9472,-308.1029 802,-276 828.3419,-267.8728 854.15,-249.0431 870.6198,-235.2409"/>
<polygon fill="#191970" stroke="#191970" points="873.0631,-237.7551 878.3346,-228.5648 868.4825,-232.4619 873.0631,-237.7551"/>
</g>
<!-- Node151 -->
<g id="node6" class="node">
<title>Node151</title>
<g id="a_node6"><a xlink:href="coap__session_8c.html#ab91ca670624ee770714727efff274c49" target="_top" xlink:title="coap_session_mfree">
<polygon fill="#ffffff" stroke="#000000" points="414,-152.5 414,-171.5 521,-171.5 521,-152.5 414,-152.5"/>
<text text-anchor="middle" x="467.5" y="-159.5" font-family="Helvetica,sans-Serif" font-size="10.00" fill="#000000">coap_session_mfree</text>
</a>
</g>
</g>
<!-- Node150&#45;&gt;Node151 -->
<g id="edge5" class="edge">
<title>Node150&#45;&gt;Node151</title>
<path fill="none" stroke="#191970" d="M378.2199,-149.7522C386.4907,-150.8868 395.1787,-152.0787 403.7533,-153.255"/>
<polygon fill="#191970" stroke="#191970" points="403.3525,-156.7327 413.7355,-154.6244 404.304,-149.7976 403.3525,-156.7327"/>
</g>
<!-- Node163 -->
<g id="node18" class="node">
<title>Node163</title>
<g id="a_node18"><a xlink:href="group__logging.html#ga8b690dbed6cc3a5beb81ba5d2d27d290" target="_top" xlink:title="Get session description. ">
<polygon fill="#ffffff" stroke="#000000" points="421,-114.5 421,-133.5 514,-133.5 514,-114.5 421,-114.5"/>
<text text-anchor="middle" x="467.5" y="-121.5" font-family="Helvetica,sans-Serif" font-size="10.00" fill="#000000">coap_session_str</text>
</a>
</g>
</g>
<!-- Node150&#45;&gt;Node163 -->
<g id="edge24" class="edge">
<title>Node150&#45;&gt;Node163</title>
<path fill="none" stroke="#191970" d="M378.2199,-136.2478C388.7079,-134.809 399.8665,-133.2782 410.6145,-131.8038"/>
<polygon fill="#191970" stroke="#191970" points="411.3266,-135.239 420.7581,-130.4123 410.3751,-128.3039 411.3266,-135.239"/>
</g>
<!-- Node151&#45;&gt;Node147 -->
<g id="edge6" class="edge">
<title>Node151&#45;&gt;Node147</title>
<path fill="none" stroke="#191970" d="M472.8576,-171.6808C484.7962,-192.1116 515.8097,-239.2148 557,-257 603.5301,-277.0908 662.0195,-274.271 703.7035,-268.1353"/>
<polygon fill="#191970" stroke="#191970" points="704.3253,-271.5805 713.6555,-266.5609 703.2314,-264.6665 704.3253,-271.5805"/>
</g>
<!-- Node152 -->
<g id="node7" class="node">
<title>Node152</title>
<g id="a_node7"><a xlink:href="coap__dtls_8c.html#ae8b4d2b8a9cb8964944c841e92952ebe" target="_top" xlink:title="coap_dtls_free_session">
<polygon fill="#ffffff" stroke="#000000" points="557,-228.5 557,-247.5 676,-247.5 676,-228.5 557,-228.5"/>
<text text-anchor="middle" x="616.5" y="-235.5" font-family="Helvetica,sans-Serif" font-size="10.00" fill="#000000">coap_dtls_free_session</text>
</a>
</g>
</g>
<!-- Node151&#45;&gt;Node152 -->
<g id="edge7" class="edge">
<title>Node151&#45;&gt;Node152</title>
<path fill="none" stroke="#191970" d="M480.231,-171.6127C497.0579,-183.9564 527.9731,-205.4023 557,-219 561.6674,-221.1865 566.6528,-223.216 571.6772,-225.0715"/>
<polygon fill="#191970" stroke="#191970" points="570.7191,-228.4438 581.314,-228.4207 573.0172,-221.8318 570.7191,-228.4438"/>
</g>
<!-- Node153 -->
<g id="node8" class="node">
<title>Node153</title>
<g id="a_node8"><a xlink:href="coap__notls_8c.html#aa317934415639e23b64a3bd0b4edde6c" target="_top" xlink:title="coap_tls_free_session">
<polygon fill="#ffffff" stroke="#000000" points="559.5,-190.5 559.5,-209.5 673.5,-209.5 673.5,-190.5 559.5,-190.5"/>
<text text-anchor="middle" x="616.5" y="-197.5" font-family="Helvetica,sans-Serif" font-size="10.00" fill="#000000">coap_tls_free_session</text>
</a>
</g>
</g>
<!-- Node151&#45;&gt;Node153 -->
<g id="edge8" class="edge">
<title>Node151&#45;&gt;Node153</title>
<path fill="none" stroke="#191970" d="M505.099,-171.589C524.584,-176.5583 548.5745,-182.6767 569.2958,-187.9613"/>
<polygon fill="#191970" stroke="#191970" points="568.6166,-191.4001 579.1714,-190.4799 570.3465,-184.6172 568.6166,-191.4001"/>
</g>
<!-- Node154 -->
<g id="node9" class="node">
<title>Node154</title>
<g id="a_node9"><a xlink:href="coap__io_8c.html#a2de382e7795c908d1a376da8c338386d" target="_top" xlink:title="coap_socket_close">
<polygon fill="#ffffff" stroke="#000000" points="566,-152.5 566,-171.5 667,-171.5 667,-152.5 566,-152.5"/>
<text text-anchor="middle" x="616.5" y="-159.5" font-family="Helvetica,sans-Serif" font-size="10.00" fill="#000000">coap_socket_close</text>
</a>
</g>
</g>
<!-- Node151&#45;&gt;Node154 -->
<g id="edge9" class="edge">
<title>Node151&#45;&gt;Node154</title>
<path fill="none" stroke="#191970" d="M521.2924,-162C532.3973,-162 544.1689,-162 555.5085,-162"/>
<polygon fill="#191970" stroke="#191970" points="555.7695,-165.5001 565.7695,-162 555.7694,-158.5001 555.7695,-165.5001"/>
</g>
<!-- Node155 -->
<g id="node10" class="node">
<title>Node155</title>
<g id="a_node10"><a xlink:href="mem_8h.html#a1e46a1505bb13f03fdacd5d1b32502a6" target="_top" xlink:title="Wrapper function to coap_free_type() for backwards compatibility. ">
<polygon fill="#ffffff" stroke="#000000" points="727.5,-133.5 727.5,-152.5 786.5,-152.5 786.5,-133.5 727.5,-133.5"/>
<text text-anchor="middle" x="757" y="-140.5" font-family="Helvetica,sans-Serif" font-size="10.00" fill="#000000">coap_free</text>
</a>
</g>
</g>
<!-- Node151&#45;&gt;Node155 -->
<g id="edge10" class="edge">
<title>Node151&#45;&gt;Node155</title>
<path fill="none" stroke="#191970" d="M503.802,-152.4911C519.9641,-148.7263 539.3066,-144.8574 557,-143 612.4337,-137.1808 676.9872,-138.6595 717.4267,-140.5719"/>
<polygon fill="#191970" stroke="#191970" points="717.2534,-144.0675 727.4173,-141.0766 717.6067,-137.0764 717.2534,-144.0675"/>
</g>
<!-- Node159 -->
<g id="node14" class="node">
<title>Node159</title>
<g id="a_node14"><a xlink:href="net_8c.html#a44c39a2314035989d3e07b9d9328e08c" target="_top" xlink:title="Destroys specified node. ">
<polygon fill="#ffffff" stroke="#000000" points="569,-76.5 569,-95.5 664,-95.5 664,-76.5 569,-76.5"/>
<text text-anchor="middle" x="616.5" y="-83.5" font-family="Helvetica,sans-Serif" font-size="10.00" fill="#000000">coap_delete_node</text>
</a>
</g>
</g>
<!-- Node151&#45;&gt;Node159 -->
<g id="edge15" class="edge">
<title>Node151&#45;&gt;Node159</title>
<path fill="none" stroke="#191970" d="M500.9783,-152.44C507.8349,-149.848 514.8345,-146.7092 521,-143 539.5988,-131.8109 538.6411,-121.5786 557,-110 563.2829,-106.0375 570.33,-102.5109 577.3169,-99.4618"/>
<polygon fill="#191970" stroke="#191970" points="578.8039,-102.635 586.7296,-95.6041 576.1493,-96.1579 578.8039,-102.635"/>
</g>
<!-- Node155&#45;&gt;Node148 -->
<g id="edge11" class="edge">
<title>Node155&#45;&gt;Node148</title>
<path fill="none" stroke="#191970" d="M773.6546,-152.6255C796.2814,-165.7025 836.9306,-189.1957 863.3014,-204.4366"/>
<polygon fill="#191970" stroke="#191970" points="861.5713,-207.4791 871.9807,-209.4527 865.074,-201.4185 861.5713,-207.4791"/>
</g>
<!-- Node156 -->
<g id="node11" class="node">
<title>Node156</title>
<g id="a_node11"><a xlink:href="mem_8h.html#a65d0fc0fe6cad555b56e92ccb57613ba" target="_top" xlink:title="Initializes libcoap&#39;s memory management. ">
<polygon fill="#ffffff" stroke="#000000" points="840.5,-152.5 840.5,-171.5 936.5,-171.5 936.5,-152.5 840.5,-152.5"/>
<text text-anchor="middle" x="888.5" y="-159.5" font-family="Helvetica,sans-Serif" font-size="10.00" fill="#000000">coap_memory_init</text>
</a>
</g>
</g>
<!-- Node155&#45;&gt;Node156 -->
<g id="edge12" class="edge">
<title>Node155&#45;&gt;Node156</title>
<path fill="none" stroke="#191970" d="M786.5112,-147.264C799.37,-149.1219 814.9181,-151.3684 829.9572,-153.5413"/>
<polygon fill="#191970" stroke="#191970" points="829.8504,-157.0622 840.2482,-155.0283 830.8515,-150.1341 829.8504,-157.0622"/>
</g>
<!-- Node157 -->
<g id="node12" class="node">
<title>Node157</title>
<g id="a_node12"><a xlink:href="mem_8h.html#a1539cf5011cdfb11500b476f4dbe9393" target="_top" xlink:title="Wrapper function to coap_malloc_type() for backwards compatibility. ">
<polygon fill="#ffffff" stroke="#000000" points="853,-114.5 853,-133.5 924,-133.5 924,-114.5 853,-114.5"/>
<text text-anchor="middle" x="888.5" y="-121.5" font-family="Helvetica,sans-Serif" font-size="10.00" fill="#000000">coap_malloc</text>
</a>
</g>
</g>
<!-- Node155&#45;&gt;Node157 -->
<g id="edge13" class="edge">
<title>Node155&#45;&gt;Node157</title>
<path fill="none" stroke="#191970" d="M786.5112,-138.736C802.9953,-136.3543 823.8988,-133.334 842.4839,-130.6487"/>
<polygon fill="#191970" stroke="#191970" points="843.131,-134.0917 852.5277,-129.1975 842.1299,-127.1636 843.131,-134.0917"/>
</g>
<!-- Node158 -->
<g id="node13" class="node">
<title>Node158</title>
<g id="a_node13"><a xlink:href="mem_8h.html#a0204710ce56cbaa4f062b7f2622857f5" target="_top" xlink:title="Allocates a chunk of size bytes and returns a pointer to the newly allocated memory. ">
<polygon fill="#ffffff" stroke="#000000" points="975,-76.5 975,-95.5 1070,-95.5 1070,-76.5 975,-76.5"/>
<text text-anchor="middle" x="1022.5" y="-83.5" font-family="Helvetica,sans-Serif" font-size="10.00" fill="#000000">coap_malloc_type</text>
</a>
</g>
</g>
<!-- Node157&#45;&gt;Node158 -->
<g id="edge14" class="edge">
<title>Node157&#45;&gt;Node158</title>
<path fill="none" stroke="#191970" d="M922.3139,-114.411C939.5326,-109.5281 960.6637,-103.5357 979.0733,-98.315"/>
<polygon fill="#191970" stroke="#191970" points="980.0312,-101.6815 988.697,-95.5859 978.1214,-94.947 980.0312,-101.6815"/>
</g>
<!-- Node159&#45;&gt;Node147 -->
<g id="edge16" class="edge">
<title>Node159&#45;&gt;Node147</title>
<path fill="none" stroke="#191970" d="M627.6365,-95.5174C640.0694,-106.3962 660.4799,-125.0274 676,-143 703.4749,-174.8164 730.8377,-215.7436 745.6718,-238.9033"/>
<polygon fill="#191970" stroke="#191970" points="742.7453,-240.824 751.0572,-247.3938 748.6565,-237.0746 742.7453,-240.824"/>
</g>
<!-- Node159&#45;&gt;Node149 -->
<g id="edge17" class="edge">
<title>Node159&#45;&gt;Node149</title>
<path fill="none" stroke="#191970" d="M568.7741,-90.2275C492.1053,-97.0186 341.2918,-110.3774 254.0772,-118.1027"/>
<polygon fill="#191970" stroke="#191970" points="253.6776,-114.6243 244.0254,-118.9931 254.2952,-121.597 253.6776,-114.6243"/>
</g>
<!-- Node159&#45;&gt;Node160 -->
<g id="edge18" class="edge">
<title>Node159&#45;&gt;Node160</title>
<path fill="none" stroke="#191970" d="M651.9541,-76.411C670.0913,-71.5056 692.3684,-65.4804 711.7334,-60.2429"/>
<polygon fill="#191970" stroke="#191970" points="712.8179,-63.5754 721.5573,-57.5859 710.9903,-56.8182 712.8179,-63.5754"/>
</g>
<!-- Node160&#45;&gt;Node148 -->
<g id="edge19" class="edge">
<title>Node160&#45;&gt;Node148</title>
<path fill="none" stroke="#191970" d="M789.7189,-57.7419C794.2827,-60.1952 798.5744,-63.2377 802,-67 837.7712,-106.2879 807.31,-137.6268 838,-181 844.2743,-189.8672 853.2481,-197.5592 861.8953,-203.6587"/>
<polygon fill="#191970" stroke="#191970" points="860.0457,-206.6315 870.3215,-209.212 863.8978,-200.7866 860.0457,-206.6315"/>
</g>
<!-- Node160&#45;&gt;Node158 -->
<g id="edge23" class="edge">
<title>Node160&#45;&gt;Node158</title>
<path fill="none" stroke="#191970" d="M793.0894,-57.5073C807.04,-60.9076 823.1858,-64.5102 838,-67 880.2333,-74.098 928.3808,-78.949 964.8989,-81.972"/>
<polygon fill="#191970" stroke="#191970" points="964.6269,-85.4613 974.8759,-82.7765 965.1896,-78.484 964.6269,-85.4613"/>
</g>
<!-- Node161 -->
<g id="node16" class="node">
<title>Node161</title>
<g id="a_node16"><a xlink:href="net_8c.html#a157d58fe7840d7d7e36c40fff0825674" target="_top" xlink:title="coap_free_endpoint">
<polygon fill="#ffffff" stroke="#000000" points="838,-38.5 838,-57.5 939,-57.5 939,-38.5 838,-38.5"/>
<text text-anchor="middle" x="888.5" y="-45.5" font-family="Helvetica,sans-Serif" font-size="10.00" fill="#000000">coap_free_endpoint</text>
</a>
</g>
</g>
<!-- Node160&#45;&gt;Node161 -->
<g id="edge20" class="edge">
<title>Node160&#45;&gt;Node161</title>
<path fill="none" stroke="#191970" d="M800.058,-48C808.7656,-48 818.0785,-48 827.2728,-48"/>
<polygon fill="#191970" stroke="#191970" points="827.5646,-51.5001 837.5646,-48 827.5645,-44.5001 827.5646,-51.5001"/>
</g>
<!-- Node162 -->
<g id="node17" class="node">
<title>Node162</title>
<g id="a_node17"><a xlink:href="net_8c.html#aeff229f443c6582fea71504f33364eb4" target="_top" xlink:title="coap_malloc_node">
<polygon fill="#ffffff" stroke="#000000" points="839.5,-.5 839.5,-19.5 937.5,-19.5 937.5,-.5 839.5,-.5"/>
<text text-anchor="middle" x="888.5" y="-7.5" font-family="Helvetica,sans-Serif" font-size="10.00" fill="#000000">coap_malloc_node</text>
</a>
</g>
</g>
<!-- Node160&#45;&gt;Node162 -->
<g id="edge21" class="edge">
<title>Node160&#45;&gt;Node162</title>
<path fill="none" stroke="#191970" d="M790.183,-38.411C807.0027,-33.5506 827.6263,-27.5909 845.6335,-22.3873"/>
<polygon fill="#191970" stroke="#191970" points="846.6924,-25.7246 855.3276,-19.5859 844.749,-18.9997 846.6924,-25.7246"/>
</g>
<!-- Node162&#45;&gt;Node158 -->
<g id="edge22" class="edge">
<title>Node162&#45;&gt;Node158</title>
<path fill="none" stroke="#191970" d="M917.5944,-19.5908C924.7402,-22.3129 932.2678,-25.5002 939,-29 961.7323,-40.8178 985.6884,-57.6905 1002.082,-70.0114"/>
<polygon fill="#191970" stroke="#191970" points="1000.2832,-73.0415 1010.3558,-76.327 1004.5306,-67.4773 1000.2832,-73.0415"/>
</g>
<!-- Node164 -->
<g id="node19" class="node">
<title>Node164</title>
<g id="a_node19"><a xlink:href="group__logging.html#ga6a4f5ef637bf85aa161adfe73ac81ff0" target="_top" xlink:title="Print the address into the defined buffer. ">
<polygon fill="#ffffff" stroke="#000000" points="573.5,-38.5 573.5,-57.5 659.5,-57.5 659.5,-38.5 573.5,-38.5"/>
<text text-anchor="middle" x="616.5" y="-45.5" font-family="Helvetica,sans-Serif" font-size="10.00" fill="#000000">coap_print_addr</text>
</a>
</g>
</g>
<!-- Node163&#45;&gt;Node164 -->
<g id="edge25" class="edge">
<title>Node163&#45;&gt;Node164</title>
<path fill="none" stroke="#191970" d="M480.231,-114.3873C497.0579,-102.0436 527.9731,-80.5977 557,-67 561.6674,-64.8135 566.6528,-62.784 571.6772,-60.9285"/>
<polygon fill="#191970" stroke="#191970" points="573.0172,-64.1682 581.314,-57.5793 570.7191,-57.5562 573.0172,-64.1682"/>
</g>
<!-- Node165 -->
<g id="node20" class="node">
<title>Node165</title>
<g id="a_node20"><a xlink:href="coap__debug_8c.html#aaa5ee5c2942fe13271a46000b2aebde6" target="_top" xlink:title="A length&#45;safe strlen() fake. ">
<polygon fill="#ffffff" stroke="#000000" points="734,-76.5 734,-95.5 780,-95.5 780,-76.5 734,-76.5"/>
<text text-anchor="middle" x="757" y="-83.5" font-family="Helvetica,sans-Serif" font-size="10.00" fill="#000000">strnlen</text>
</a>
</g>
</g>
<!-- Node164&#45;&gt;Node165 -->
<g id="edge26" class="edge">
<title>Node164&#45;&gt;Node165</title>
<path fill="none" stroke="#191970" d="M651.9541,-57.589C674.1305,-63.5869 702.4962,-71.2588 724.1602,-77.1181"/>
<polygon fill="#191970" stroke="#191970" points="723.3307,-80.5194 733.8977,-79.7517 725.1583,-73.7622 723.3307,-80.5194"/>
</g>
</g>
</svg>
        <g id="navigator" transform="translate(0 0)" fill="#404254">
                <rect fill="#f2f5e9" fill-opacity="0.5" stroke="#606060" stroke-width=".5" x="0" y="0" width="60" height="60"/>
                <use id="zoomplus" xlink:href="#zoomPlus" x="17" y="9" onmousedown="handleZoom(evt,'in')"/>
                <use id="zoomminus" xlink:href="#zoomMin" x="42" y="9" onmousedown="handleZoom(evt,'out')"/>
                <use id="reset" xlink:href="#resetDef" x="30" y="36" onmousedown="handleReset()"/>
                <g id="arrowUp" xlink:href="#dirArrow" transform="translate(30 24)" onmousedown="handlePan(0,-1)">
                  <use xlink:href="#rim" fill="#404040">
                        <set attributeName="fill" to="#808080" begin="arrowUp.mouseover" end="arrowUp.mouseout"/>
                  </use>
                  <path fill="none" stroke="white" stroke-width="1.5" d="M0,-3.0v7 M-2.5,-0.5L0,-3.0L2.5,-0.5"/>
                </g>
                <g id="arrowRight" xlink:href="#dirArrow" transform="rotate(90) translate(36 -43)" onmousedown="handlePan(1,0)">
                  <use xlink:href="#rim" fill="#404040">
                        <set attributeName="fill" to="#808080" begin="arrowRight.mouseover" end="arrowRight.mouseout"/>
                  </use>
                  <path fill="none" stroke="white" stroke-width="1.5" d="M0,-3.0v7 M-2.5,-0.5L0,-3.0L2.5,-0.5"/>
                </g>
                <g id="arrowDown" xlink:href="#dirArrow" transform="rotate(180) translate(-30 -48)" onmousedown="handlePan(0,1)">
                  <use xlink:href="#rim" fill="#404040">
                        <set attributeName="fill" to="#808080" begin="arrowDown.mouseover" end="arrowDown.mouseout"/>
                  </use>
                  <path fill="none" stroke="white" stroke-width="1.5" d="M0,-3.0v7 M-2.5,-0.5L0,-3.0L2.5,-0.5"/>
                </g>
                <g id="arrowLeft" xlink:href="#dirArrow" transform="rotate(270) translate(-36 17)" onmousedown="handlePan(-1,0)">
                  <use xlink:href="#rim" fill="#404040">
                        <set attributeName="fill" to="#808080" begin="arrowLeft.mouseover" end="arrowLeft.mouseout"/>
                  </use>
                  <path fill="none" stroke="white" stroke-width="1.5" d="M0,-3.0v7 M-2.5,-0.5L0,-3.0L2.5,-0.5"/>
                </g>
        </g>
        <svg viewBox="0 0 15 15" width="100%" height="30px" preserveAspectRatio="xMaxYMin meet">
         <g id="arrow_out" transform="scale(0.3 0.3)">
          <a xlink:href="net_8h_a44c39a2314035989d3e07b9d9328e08c_cgraph_org.svg" target="_base">
           <rect id="button" ry="5" rx="5" y="6" x="6" height="38" width="38"
                fill="#f2f5e9" fill-opacity="0.5" stroke="#606060" stroke-width="1.0"/>
           <path id="arrow"
             d="M 11.500037,31.436501 C 11.940474,20.09759 22.043105,11.32322 32.158766,21.979434 L 37.068811,17.246167 C 37.068811,17.246167 37.088388,32 37.088388,32 L 22.160133,31.978069 C 22.160133,31.978069 26.997745,27.140456 26.997745,27.140456 C 18.528582,18.264221 13.291696,25.230495 11.500037,31.436501 z"
             style="fill:#404040;"/>
          </a>
         </g>
        </svg>
</svg>
