<?xml version="1.0" encoding="UTF-8" standalone="no"?>
<!DOCTYPE svg PUBLIC "-//W3C//DTD SVG 1.1//EN"
 "http://www.w3.org/Graphics/SVG/1.1/DTD/svg11.dtd">
<!-- Generated by graphviz version 2.40.1 (20161225.0304)
 -->
<!-- Title: coap_cancel_session_messages Pages: 1 -->
<!--zoomable 332 -->
<svg id="main" version="1.1" xmlns="http://www.w3.org/2000/svg" xmlns:xlink="http://www.w3.org/1999/xlink" xml:space="preserve" onload="init(evt)">
<style type="text/css"><![CDATA[
.edge:hover path { stroke: red; }
.edge:hover polygon { stroke: red; fill: red; }
]]></style>
<script type="text/javascript"><![CDATA[
var edges = document.getElementsByTagName('g');
if (edges && edges.length) {
  for (var i=0;i<edges.length;i++) {
    if (edges[i].id.substr(0,4)=='edge') {
      edges[i].setAttribute('class','edge');
    }
  }
}
]]></script>
        <defs>
                <circle id="rim" cx="0" cy="0" r="7"/>
                <circle id="rim2" cx="0" cy="0" r="3.5"/>
                <g id="zoomPlus">
                        <use xlink:href="#rim" fill="#404040">
                                <set attributeName="fill" to="#808080" begin="zoomplus.mouseover" end="zoomplus.mouseout"/>
                        </use>
                        <path d="M-4,0h8M0,-4v8" fill="none" stroke="white" stroke-width="1.5" pointer-events="none"/>
                </g>
                <g id="zoomMin">
                        <use xlink:href="#rim" fill="#404040">
                                <set attributeName="fill" to="#808080" begin="zoomminus.mouseover" end="zoomminus.mouseout"/>
                        </use>
                        <path d="M-4,0h8" fill="none" stroke="white" stroke-width="1.5" pointer-events="none"/>
                </g>
                <g id="dirArrow">
                        <path fill="none" stroke="white" stroke-width="1.5" d="M0,-3.0v7 M-2.5,-0.5L0,-3.0L2.5,-0.5"/>
                </g>
               <g id="resetDef">
                       <use xlink:href="#rim2" fill="#404040">
                               <set attributeName="fill" to="#808080" begin="reset.mouseover" end="reset.mouseout"/>
                       </use>
               </g>
        </defs>

<script type="text/javascript">
var viewWidth = 1098;
var viewHeight = 332;
var sectionId = 'dynsection-7';
</script>
<script xlink:href="svgpan.js"/>
<svg id="graph" class="graph">
<g id="viewport">
<title>coap_cancel_session_messages</title>
<polygon fill="#ffffff" stroke="transparent" points="-4,4 -4,-328 1094,-328 1094,4 -4,4"/>
<!-- Node69 -->
<g id="node1" class="node">
<title>Node69</title>
<polygon fill="#bfbfbf" stroke="#000000" points="0,-147 0,-177 110,-177 110,-147 0,-147"/>
<text text-anchor="start" x="8" y="-165" font-family="Helvetica,sans-Serif" font-size="10.00" fill="#000000">coap_cancel_session</text>
<text text-anchor="middle" x="55" y="-154" font-family="Helvetica,sans-Serif" font-size="10.00" fill="#000000">_messages</text>
</g>
<!-- Node70 -->
<g id="node2" class="node">
<title>Node70</title>
<g id="a_node2"><a xlink:href="group__logging.html#ga8b690dbed6cc3a5beb81ba5d2d27d290" target="_top" xlink:title="Get session description. ">
<polygon fill="#ffffff" stroke="#000000" points="567,-190.5 567,-209.5 660,-209.5 660,-190.5 567,-190.5"/>
<text text-anchor="middle" x="613.5" y="-197.5" font-family="Helvetica,sans-Serif" font-size="10.00" fill="#000000">coap_session_str</text>
</a>
</g>
</g>
<!-- Node69&#45;&gt;Node70 -->
<g id="edge1" class="edge">
<title>Node69&#45;&gt;Node70</title>
<path fill="none" stroke="#191970" d="M110.1608,-167.168C155.0587,-171.2668 220.0865,-176.9586 277,-181 375.2006,-187.9732 489.6703,-193.9874 556.6072,-197.2911"/>
<polygon fill="#191970" stroke="#191970" points="556.7728,-200.8034 566.9323,-197.7978 557.1159,-193.8118 556.7728,-200.8034"/>
</g>
<!-- Node73 -->
<g id="node5" class="node">
<title>Node73</title>
<g id="a_node5"><a xlink:href="net_8c.html#a44c39a2314035989d3e07b9d9328e08c" target="_top" xlink:title="Destroys specified node. ">
<polygon fill="#ffffff" stroke="#000000" points="146,-114.5 146,-133.5 241,-133.5 241,-114.5 146,-114.5"/>
<text text-anchor="middle" x="193.5" y="-121.5" font-family="Helvetica,sans-Serif" font-size="10.00" fill="#000000">coap_delete_node</text>
</a>
</g>
</g>
<!-- Node69&#45;&gt;Node73 -->
<g id="edge4" class="edge">
<title>Node69&#45;&gt;Node73</title>
<path fill="none" stroke="#191970" d="M109.7389,-146.9814C122.7452,-143.4129 136.4667,-139.6481 148.9546,-136.2219"/>
<polygon fill="#191970" stroke="#191970" points="149.9504,-139.578 158.668,-133.5568 148.0982,-132.8275 149.9504,-139.578"/>
</g>
<!-- Node71 -->
<g id="node3" class="node">
<title>Node71</title>
<g id="a_node3"><a xlink:href="group__logging.html#ga6a4f5ef637bf85aa161adfe73ac81ff0" target="_top" xlink:title="Print the address into the defined buffer. ">
<polygon fill="#ffffff" stroke="#000000" points="719.5,-304.5 719.5,-323.5 805.5,-323.5 805.5,-304.5 719.5,-304.5"/>
<text text-anchor="middle" x="762.5" y="-311.5" font-family="Helvetica,sans-Serif" font-size="10.00" fill="#000000">coap_print_addr</text>
</a>
</g>
</g>
<!-- Node70&#45;&gt;Node71 -->
<g id="edge2" class="edge">
<title>Node70&#45;&gt;Node71</title>
<path fill="none" stroke="#191970" d="M619.955,-209.5996C633.2537,-228.6558 665.6135,-271.4486 703,-295 706.3116,-297.0861 709.8722,-298.9617 713.5457,-300.6446"/>
<polygon fill="#191970" stroke="#191970" points="712.2513,-303.8966 722.8321,-304.4413 714.9004,-297.4172 712.2513,-303.8966"/>
</g>
<!-- Node72 -->
<g id="node4" class="node">
<title>Node72</title>
<g id="a_node4"><a xlink:href="coap__debug_8c.html#aaa5ee5c2942fe13271a46000b2aebde6" target="_top" xlink:title="A length&#45;safe strlen() fake. ">
<polygon fill="#ffffff" stroke="#000000" points="885.5,-304.5 885.5,-323.5 931.5,-323.5 931.5,-304.5 885.5,-304.5"/>
<text text-anchor="middle" x="908.5" y="-311.5" font-family="Helvetica,sans-Serif" font-size="10.00" fill="#000000">strnlen</text>
</a>
</g>
</g>
<!-- Node71&#45;&gt;Node72 -->
<g id="edge3" class="edge">
<title>Node71&#45;&gt;Node72</title>
<path fill="none" stroke="#191970" d="M805.5152,-314C827.7199,-314 854.4047,-314 875.0468,-314"/>
<polygon fill="#191970" stroke="#191970" points="875.2348,-317.5001 885.2347,-314 875.2347,-310.5001 875.2348,-317.5001"/>
</g>
<!-- Node74 -->
<g id="node6" class="node">
<title>Node74</title>
<g id="a_node6"><a xlink:href="pdu_8c.html#a48581f968a30ef4278702eb1c16b7a90" target="_top" xlink:title="Dispose of an CoAP PDU and frees associated storage. ">
<polygon fill="#ffffff" stroke="#000000" points="717.5,-114.5 717.5,-133.5 807.5,-133.5 807.5,-114.5 717.5,-114.5"/>
<text text-anchor="middle" x="762.5" y="-121.5" font-family="Helvetica,sans-Serif" font-size="10.00" fill="#000000">coap_delete_pdu</text>
</a>
</g>
</g>
<!-- Node73&#45;&gt;Node74 -->
<g id="edge5" class="edge">
<title>Node73&#45;&gt;Node74</title>
<path fill="none" stroke="#191970" d="M241.1811,-121.9913C252.8918,-121.5795 265.3972,-121.2084 277,-121 432.8503,-118.2012 616.8822,-121.0114 707.0537,-122.7875"/>
<polygon fill="#191970" stroke="#191970" points="707.2472,-126.292 717.3154,-122.9932 707.3876,-119.2934 707.2472,-126.292"/>
</g>
<!-- Node76 -->
<g id="node8" class="node">
<title>Node76</title>
<g id="a_node8"><a xlink:href="coap__session_8c.html#a9aee135ba884d7c143b11bc42fd23e53" target="_top" xlink:title="Decrement reference counter on a session. ">
<polygon fill="#ffffff" stroke="#000000" points="277,-152.5 277,-171.5 390,-171.5 390,-152.5 277,-152.5"/>
<text text-anchor="middle" x="333.5" y="-159.5" font-family="Helvetica,sans-Serif" font-size="10.00" fill="#000000">coap_session_release</text>
</a>
</g>
</g>
<!-- Node73&#45;&gt;Node76 -->
<g id="edge7" class="edge">
<title>Node73&#45;&gt;Node76</title>
<path fill="none" stroke="#191970" d="M228.8279,-133.589C246.9006,-138.4944 269.0984,-144.5196 288.3945,-149.7571"/>
<polygon fill="#191970" stroke="#191970" points="287.6157,-153.1723 298.1834,-152.4141 289.4494,-146.4167 287.6157,-153.1723"/>
</g>
<!-- Node86 -->
<g id="node18" class="node">
<title>Node86</title>
<g id="a_node18"><a xlink:href="net_8c.html#aa2f296838e4a779197c43b254e385ddc" target="_top" xlink:title="coap_free_node">
<polygon fill="#ffffff" stroke="#000000" points="719.5,-38.5 719.5,-57.5 805.5,-57.5 805.5,-38.5 719.5,-38.5"/>
<text text-anchor="middle" x="762.5" y="-45.5" font-family="Helvetica,sans-Serif" font-size="10.00" fill="#000000">coap_free_node</text>
</a>
</g>
</g>
<!-- Node73&#45;&gt;Node86 -->
<g id="edge22" class="edge">
<title>Node73&#45;&gt;Node86</title>
<path fill="none" stroke="#191970" d="M241.0339,-117.651C346.345,-103.5848 598.702,-69.8781 709.1785,-55.122"/>
<polygon fill="#191970" stroke="#191970" points="709.9686,-58.5477 719.4172,-53.7545 709.0418,-51.6093 709.9686,-58.5477"/>
</g>
<!-- Node75 -->
<g id="node7" class="node">
<title>Node75</title>
<g id="a_node7"><a xlink:href="mem_8h.html#ae7214e0c73a4d4290525873e739ed422" target="_top" xlink:title="Releases the memory that was allocated by coap_malloc_type(). ">
<polygon fill="#ffffff" stroke="#000000" points="867,-114.5 867,-133.5 950,-133.5 950,-114.5 867,-114.5"/>
<text text-anchor="middle" x="908.5" y="-121.5" font-family="Helvetica,sans-Serif" font-size="10.00" fill="#000000">coap_free_type</text>
</a>
</g>
</g>
<!-- Node74&#45;&gt;Node75 -->
<g id="edge6" class="edge">
<title>Node74&#45;&gt;Node75</title>
<path fill="none" stroke="#191970" d="M807.895,-124C823.2764,-124 840.5753,-124 856.4343,-124"/>
<polygon fill="#191970" stroke="#191970" points="856.6134,-127.5001 866.6134,-124 856.6133,-120.5001 856.6134,-127.5001"/>
</g>
<!-- Node77 -->
<g id="node9" class="node">
<title>Node77</title>
<g id="a_node9"><a xlink:href="coap__session_8c.html#ab3d24595515d6f66805791a7f821d5e7" target="_top" xlink:title="coap_session_free">
<polygon fill="#ffffff" stroke="#000000" points="426,-152.5 426,-171.5 524,-171.5 524,-152.5 426,-152.5"/>
<text text-anchor="middle" x="475" y="-159.5" font-family="Helvetica,sans-Serif" font-size="10.00" fill="#000000">coap_session_free</text>
</a>
</g>
</g>
<!-- Node76&#45;&gt;Node77 -->
<g id="edge8" class="edge">
<title>Node76&#45;&gt;Node77</title>
<path fill="none" stroke="#191970" d="M390.2381,-162C398.6561,-162 407.3498,-162 415.8163,-162"/>
<polygon fill="#191970" stroke="#191970" points="415.9972,-165.5001 425.9972,-162 415.9971,-158.5001 415.9972,-165.5001"/>
</g>
<!-- Node77&#45;&gt;Node70 -->
<g id="edge20" class="edge">
<title>Node77&#45;&gt;Node70</title>
<path fill="none" stroke="#191970" d="M509.9494,-171.589C527.8284,-176.4944 549.7884,-182.5196 568.8778,-187.7571"/>
<polygon fill="#191970" stroke="#191970" points="567.9921,-191.1434 578.5618,-190.4141 569.8443,-184.3928 567.9921,-191.1434"/>
</g>
<!-- Node77&#45;&gt;Node75 -->
<g id="edge21" class="edge">
<title>Node77&#45;&gt;Node75</title>
<path fill="none" stroke="#191970" d="M503.7231,-152.3989C546.5385,-138.6444 629.905,-113.9984 703,-105 755.4926,-98.5379 769.4199,-99.2933 822,-105 835.6424,-106.4806 850.2861,-109.2382 863.5747,-112.2025"/>
<polygon fill="#191970" stroke="#191970" points="862.9008,-115.639 873.4334,-114.4917 864.4842,-108.8205 862.9008,-115.639"/>
</g>
<!-- Node78 -->
<g id="node10" class="node">
<title>Node78</title>
<g id="a_node10"><a xlink:href="coap__session_8c.html#ab91ca670624ee770714727efff274c49" target="_top" xlink:title="coap_session_mfree">
<polygon fill="#ffffff" stroke="#000000" points="560,-152.5 560,-171.5 667,-171.5 667,-152.5 560,-152.5"/>
<text text-anchor="middle" x="613.5" y="-159.5" font-family="Helvetica,sans-Serif" font-size="10.00" fill="#000000">coap_session_mfree</text>
</a>
</g>
</g>
<!-- Node77&#45;&gt;Node78 -->
<g id="edge9" class="edge">
<title>Node77&#45;&gt;Node78</title>
<path fill="none" stroke="#191970" d="M524.2199,-162C532.4008,-162 540.9898,-162 549.4737,-162"/>
<polygon fill="#191970" stroke="#191970" points="549.7355,-165.5001 559.7355,-162 549.7354,-158.5001 549.7355,-165.5001"/>
</g>
<!-- Node78&#45;&gt;Node73 -->
<g id="edge19" class="edge">
<title>Node78&#45;&gt;Node73</title>
<path fill="none" stroke="#191970" d="M574.956,-152.4789C559.2448,-148.9489 540.8456,-145.259 524,-143 428.9708,-130.2565 317.4445,-126.0533 251.2774,-124.6713"/>
<polygon fill="#191970" stroke="#191970" points="251.123,-121.1678 241.0569,-124.4729 250.987,-128.1665 251.123,-121.1678"/>
</g>
<!-- Node78&#45;&gt;Node74 -->
<g id="edge10" class="edge">
<title>Node78&#45;&gt;Node74</title>
<path fill="none" stroke="#191970" d="M651.099,-152.411C670.584,-147.4417 694.5745,-141.3233 715.2958,-136.0387"/>
<polygon fill="#191970" stroke="#191970" points="716.3465,-139.3828 725.1714,-133.5201 714.6166,-132.5999 716.3465,-139.3828"/>
</g>
<!-- Node79 -->
<g id="node11" class="node">
<title>Node79</title>
<g id="a_node11"><a xlink:href="coap__dtls_8c.html#ae8b4d2b8a9cb8964944c841e92952ebe" target="_top" xlink:title="coap_dtls_free_session">
<polygon fill="#ffffff" stroke="#000000" points="703,-228.5 703,-247.5 822,-247.5 822,-228.5 703,-228.5"/>
<text text-anchor="middle" x="762.5" y="-235.5" font-family="Helvetica,sans-Serif" font-size="10.00" fill="#000000">coap_dtls_free_session</text>
</a>
</g>
</g>
<!-- Node78&#45;&gt;Node79 -->
<g id="edge11" class="edge">
<title>Node78&#45;&gt;Node79</title>
<path fill="none" stroke="#191970" d="M648.0286,-171.556C654.5962,-174.1115 661.2168,-177.2372 667,-181 686.5001,-193.6878 683.2984,-206.6274 703,-219 706.3145,-221.0815 709.8772,-222.9538 713.5521,-224.6344"/>
<polygon fill="#191970" stroke="#191970" points="712.2598,-227.8872 722.8409,-228.4273 714.9061,-221.4067 712.2598,-227.8872"/>
</g>
<!-- Node80 -->
<g id="node12" class="node">
<title>Node80</title>
<g id="a_node12"><a xlink:href="coap__notls_8c.html#aa317934415639e23b64a3bd0b4edde6c" target="_top" xlink:title="coap_tls_free_session">
<polygon fill="#ffffff" stroke="#000000" points="705.5,-190.5 705.5,-209.5 819.5,-209.5 819.5,-190.5 705.5,-190.5"/>
<text text-anchor="middle" x="762.5" y="-197.5" font-family="Helvetica,sans-Serif" font-size="10.00" fill="#000000">coap_tls_free_session</text>
</a>
</g>
</g>
<!-- Node78&#45;&gt;Node80 -->
<g id="edge12" class="edge">
<title>Node78&#45;&gt;Node80</title>
<path fill="none" stroke="#191970" d="M651.099,-171.589C670.584,-176.5583 694.5745,-182.6767 715.2958,-187.9613"/>
<polygon fill="#191970" stroke="#191970" points="714.6166,-191.4001 725.1714,-190.4799 716.3465,-184.6172 714.6166,-191.4001"/>
</g>
<!-- Node81 -->
<g id="node13" class="node">
<title>Node81</title>
<g id="a_node13"><a xlink:href="coap__io_8c.html#a2de382e7795c908d1a376da8c338386d" target="_top" xlink:title="coap_socket_close">
<polygon fill="#ffffff" stroke="#000000" points="712,-152.5 712,-171.5 813,-171.5 813,-152.5 712,-152.5"/>
<text text-anchor="middle" x="762.5" y="-159.5" font-family="Helvetica,sans-Serif" font-size="10.00" fill="#000000">coap_socket_close</text>
</a>
</g>
</g>
<!-- Node78&#45;&gt;Node81 -->
<g id="edge13" class="edge">
<title>Node78&#45;&gt;Node81</title>
<path fill="none" stroke="#191970" d="M667.2924,-162C678.3973,-162 690.1689,-162 701.5085,-162"/>
<polygon fill="#191970" stroke="#191970" points="701.7695,-165.5001 711.7695,-162 701.7694,-158.5001 701.7695,-165.5001"/>
</g>
<!-- Node82 -->
<g id="node14" class="node">
<title>Node82</title>
<g id="a_node14"><a xlink:href="mem_8h.html#a1e46a1505bb13f03fdacd5d1b32502a6" target="_top" xlink:title="Wrapper function to coap_free_type() for backwards compatibility. ">
<polygon fill="#ffffff" stroke="#000000" points="733,-266.5 733,-285.5 792,-285.5 792,-266.5 733,-266.5"/>
<text text-anchor="middle" x="762.5" y="-273.5" font-family="Helvetica,sans-Serif" font-size="10.00" fill="#000000">coap_free</text>
</a>
</g>
</g>
<!-- Node78&#45;&gt;Node82 -->
<g id="edge14" class="edge">
<title>Node78&#45;&gt;Node82</title>
<path fill="none" stroke="#191970" d="M652.1196,-171.5109C657.5178,-173.99 662.6853,-177.101 667,-181 694.7305,-206.059 674.8702,-232.39 703,-257 708.7231,-262.007 715.7754,-265.6965 722.9992,-268.4147"/>
<polygon fill="#191970" stroke="#191970" points="722.257,-271.8515 732.8476,-271.5518 724.3816,-265.1817 722.257,-271.8515"/>
</g>
<!-- Node82&#45;&gt;Node75 -->
<g id="edge15" class="edge">
<title>Node82&#45;&gt;Node75</title>
<path fill="none" stroke="#191970" d="M792.1524,-271.5518C802.5388,-268.7785 813.6755,-264.2829 822,-257 850.1298,-232.39 837.402,-212.1875 858,-181 867.6155,-166.4412 880.7374,-151.7452 891.1953,-140.9224"/>
<polygon fill="#191970" stroke="#191970" points="893.7108,-143.3563 898.2513,-133.7836 888.7323,-138.4355 893.7108,-143.3563"/>
</g>
<!-- Node83 -->
<g id="node15" class="node">
<title>Node83</title>
<g id="a_node15"><a xlink:href="mem_8h.html#a65d0fc0fe6cad555b56e92ccb57613ba" target="_top" xlink:title="Initializes libcoap&#39;s memory management. ">
<polygon fill="#ffffff" stroke="#000000" points="860.5,-266.5 860.5,-285.5 956.5,-285.5 956.5,-266.5 860.5,-266.5"/>
<text text-anchor="middle" x="908.5" y="-273.5" font-family="Helvetica,sans-Serif" font-size="10.00" fill="#000000">coap_memory_init</text>
</a>
</g>
</g>
<!-- Node82&#45;&gt;Node83 -->
<g id="edge16" class="edge">
<title>Node82&#45;&gt;Node83</title>
<path fill="none" stroke="#191970" d="M792.0453,-276C808.7197,-276 830.1501,-276 850.0712,-276"/>
<polygon fill="#191970" stroke="#191970" points="850.318,-279.5001 860.318,-276 850.318,-272.5001 850.318,-279.5001"/>
</g>
<!-- Node84 -->
<g id="node16" class="node">
<title>Node84</title>
<g id="a_node16"><a xlink:href="mem_8h.html#a1539cf5011cdfb11500b476f4dbe9393" target="_top" xlink:title="Wrapper function to coap_malloc_type() for backwards compatibility. ">
<polygon fill="#ffffff" stroke="#000000" points="873,-190.5 873,-209.5 944,-209.5 944,-190.5 873,-190.5"/>
<text text-anchor="middle" x="908.5" y="-197.5" font-family="Helvetica,sans-Serif" font-size="10.00" fill="#000000">coap_malloc</text>
</a>
</g>
</g>
<!-- Node82&#45;&gt;Node84 -->
<g id="edge17" class="edge">
<title>Node82&#45;&gt;Node84</title>
<path fill="none" stroke="#191970" d="M792.1673,-268.2726C801.8925,-265.2834 812.6077,-261.4892 822,-257 846.043,-245.5081 871.2319,-228.2239 888.1858,-215.7023"/>
<polygon fill="#191970" stroke="#191970" points="890.3574,-218.4485 896.2512,-209.6443 886.1534,-212.8515 890.3574,-218.4485"/>
</g>
<!-- Node85 -->
<g id="node17" class="node">
<title>Node85</title>
<g id="a_node17"><a xlink:href="mem_8h.html#a0204710ce56cbaa4f062b7f2622857f5" target="_top" xlink:title="Allocates a chunk of size bytes and returns a pointer to the newly allocated memory. ">
<polygon fill="#ffffff" stroke="#000000" points="995,-76.5 995,-95.5 1090,-95.5 1090,-76.5 995,-76.5"/>
<text text-anchor="middle" x="1042.5" y="-83.5" font-family="Helvetica,sans-Serif" font-size="10.00" fill="#000000">coap_malloc_type</text>
</a>
</g>
</g>
<!-- Node84&#45;&gt;Node85 -->
<g id="edge18" class="edge">
<title>Node84&#45;&gt;Node85</title>
<path fill="none" stroke="#191970" d="M919.9248,-190.2804C942.9666,-170.6777 995.2149,-126.2276 1023.4846,-102.1773"/>
<polygon fill="#191970" stroke="#191970" points="1025.7555,-104.8406 1031.1042,-95.695 1021.2196,-99.509 1025.7555,-104.8406"/>
</g>
<!-- Node86&#45;&gt;Node75 -->
<g id="edge23" class="edge">
<title>Node86&#45;&gt;Node75</title>
<path fill="none" stroke="#191970" d="M790.8001,-57.5691C800.9313,-61.4691 812.2495,-66.3885 822,-72 839.5681,-82.1107 840.7444,-89.3647 858,-100 863.8852,-103.6273 870.4044,-107.0938 876.7492,-110.2083"/>
<polygon fill="#191970" stroke="#191970" points="875.2895,-113.3896 885.8263,-114.4973 878.28,-107.0606 875.2895,-113.3896"/>
</g>
<!-- Node86&#45;&gt;Node85 -->
<g id="edge27" class="edge">
<title>Node86&#45;&gt;Node85</title>
<path fill="none" stroke="#191970" d="M805.6112,-57.4687C821.9598,-60.8243 840.7823,-64.4065 858,-67 900.3479,-73.3788 948.4909,-78.2578 984.9782,-81.4738"/>
<polygon fill="#191970" stroke="#191970" points="984.6813,-84.9611 994.9459,-82.3367 985.2851,-77.9872 984.6813,-84.9611"/>
</g>
<!-- Node87 -->
<g id="node19" class="node">
<title>Node87</title>
<g id="a_node19"><a xlink:href="net_8c.html#a157d58fe7840d7d7e36c40fff0825674" target="_top" xlink:title="coap_free_endpoint">
<polygon fill="#ffffff" stroke="#000000" points="858,-.5 858,-19.5 959,-19.5 959,-.5 858,-.5"/>
<text text-anchor="middle" x="908.5" y="-7.5" font-family="Helvetica,sans-Serif" font-size="10.00" fill="#000000">coap_free_endpoint</text>
</a>
</g>
</g>
<!-- Node86&#45;&gt;Node87 -->
<g id="edge24" class="edge">
<title>Node86&#45;&gt;Node87</title>
<path fill="none" stroke="#191970" d="M799.342,-38.411C818.3479,-33.4642 841.7286,-27.3789 861.9692,-22.1108"/>
<polygon fill="#191970" stroke="#191970" points="863.127,-25.4261 871.923,-19.5201 861.3638,-18.6518 863.127,-25.4261"/>
</g>
<!-- Node88 -->
<g id="node20" class="node">
<title>Node88</title>
<g id="a_node20"><a xlink:href="net_8c.html#aeff229f443c6582fea71504f33364eb4" target="_top" xlink:title="coap_malloc_node">
<polygon fill="#ffffff" stroke="#000000" points="859.5,-38.5 859.5,-57.5 957.5,-57.5 957.5,-38.5 859.5,-38.5"/>
<text text-anchor="middle" x="908.5" y="-45.5" font-family="Helvetica,sans-Serif" font-size="10.00" fill="#000000">coap_malloc_node</text>
</a>
</g>
</g>
<!-- Node86&#45;&gt;Node88 -->
<g id="edge25" class="edge">
<title>Node86&#45;&gt;Node88</title>
<path fill="none" stroke="#191970" d="M805.5152,-48C819.252,-48 834.7035,-48 849.3781,-48"/>
<polygon fill="#191970" stroke="#191970" points="849.3827,-51.5001 859.3827,-48 849.3826,-44.5001 849.3827,-51.5001"/>
</g>
<!-- Node88&#45;&gt;Node85 -->
<g id="edge26" class="edge">
<title>Node88&#45;&gt;Node85</title>
<path fill="none" stroke="#191970" d="M942.3139,-57.589C959.5326,-62.4719 980.6637,-68.4643 999.0733,-73.685"/>
<polygon fill="#191970" stroke="#191970" points="998.1214,-77.053 1008.697,-76.4141 1000.0312,-70.3185 998.1214,-77.053"/>
</g>
</g>
</svg>
        <g id="navigator" transform="translate(0 0)" fill="#404254">
                <rect fill="#f2f5e9" fill-opacity="0.5" stroke="#606060" stroke-width=".5" x="0" y="0" width="60" height="60"/>
                <use id="zoomplus" xlink:href="#zoomPlus" x="17" y="9" onmousedown="handleZoom(evt,'in')"/>
                <use id="zoomminus" xlink:href="#zoomMin" x="42" y="9" onmousedown="handleZoom(evt,'out')"/>
                <use id="reset" xlink:href="#resetDef" x="30" y="36" onmousedown="handleReset()"/>
                <g id="arrowUp" xlink:href="#dirArrow" transform="translate(30 24)" onmousedown="handlePan(0,-1)">
                  <use xlink:href="#rim" fill="#404040">
                        <set attributeName="fill" to="#808080" begin="arrowUp.mouseover" end="arrowUp.mouseout"/>
                  </use>
                  <path fill="none" stroke="white" stroke-width="1.5" d="M0,-3.0v7 M-2.5,-0.5L0,-3.0L2.5,-0.5"/>
                </g>
                <g id="arrowRight" xlink:href="#dirArrow" transform="rotate(90) translate(36 -43)" onmousedown="handlePan(1,0)">
                  <use xlink:href="#rim" fill="#404040">
                        <set attributeName="fill" to="#808080" begin="arrowRight.mouseover" end="arrowRight.mouseout"/>
                  </use>
                  <path fill="none" stroke="white" stroke-width="1.5" d="M0,-3.0v7 M-2.5,-0.5L0,-3.0L2.5,-0.5"/>
                </g>
                <g id="arrowDown" xlink:href="#dirArrow" transform="rotate(180) translate(-30 -48)" onmousedown="handlePan(0,1)">
                  <use xlink:href="#rim" fill="#404040">
                        <set attributeName="fill" to="#808080" begin="arrowDown.mouseover" end="arrowDown.mouseout"/>
                  </use>
                  <path fill="none" stroke="white" stroke-width="1.5" d="M0,-3.0v7 M-2.5,-0.5L0,-3.0L2.5,-0.5"/>
                </g>
                <g id="arrowLeft" xlink:href="#dirArrow" transform="rotate(270) translate(-36 17)" onmousedown="handlePan(-1,0)">
                  <use xlink:href="#rim" fill="#404040">
                        <set attributeName="fill" to="#808080" begin="arrowLeft.mouseover" end="arrowLeft.mouseout"/>
                  </use>
                  <path fill="none" stroke="white" stroke-width="1.5" d="M0,-3.0v7 M-2.5,-0.5L0,-3.0L2.5,-0.5"/>
                </g>
        </g>
        <svg viewBox="0 0 15 15" width="100%" height="30px" preserveAspectRatio="xMaxYMin meet">
         <g id="arrow_out" transform="scale(0.3 0.3)">
          <a xlink:href="net_8h_add0197ad2daf24535c85e0ba1d28f099_cgraph_org.svg" target="_base">
           <rect id="button" ry="5" rx="5" y="6" x="6" height="38" width="38"
                fill="#f2f5e9" fill-opacity="0.5" stroke="#606060" stroke-width="1.0"/>
           <path id="arrow"
             d="M 11.500037,31.436501 C 11.940474,20.09759 22.043105,11.32322 32.158766,21.979434 L 37.068811,17.246167 C 37.068811,17.246167 37.088388,32 37.088388,32 L 22.160133,31.978069 C 22.160133,31.978069 26.997745,27.140456 26.997745,27.140456 C 18.528582,18.264221 13.291696,25.230495 11.500037,31.436501 z"
             style="fill:#404040;"/>
          </a>
         </g>
        </svg>
</svg>
