<?xml version="1.0" encoding="UTF-8" standalone="no"?>
<!DOCTYPE svg PUBLIC "-//W3C//DTD SVG 1.1//EN"
 "http://www.w3.org/Graphics/SVG/1.1/DTD/svg11.dtd">
<!-- Generated by graphviz version 2.40.1 (20161225.0304)
 -->
<!-- Title: coap_write_endpoint Pages: 1 -->
<svg width="566pt" height="141pt"
 viewBox="0.00 0.00 566.00 141.11" xmlns="http://www.w3.org/2000/svg" xmlns:xlink="http://www.w3.org/1999/xlink">
<g id="graph0" class="graph" transform="scale(1 1) rotate(0) translate(4 137.1053)">
<title>coap_write_endpoint</title>
<polygon fill="#ffffff" stroke="transparent" points="-4,4 -4,-137.1053 562,-137.1053 562,4 -4,4"/>
<!-- Node2957 -->
<g id="node1" class="node">
<title>Node2957</title>
<polygon fill="#bfbfbf" stroke="#000000" points="0,-56.6053 0,-75.6053 106,-75.6053 106,-56.6053 0,-56.6053"/>
<text text-anchor="middle" x="53" y="-63.6053" font-family="Helvetica,sans-Serif" font-size="10.00" fill="#000000">coap_write_endpoint</text>
</g>
<!-- Node2958 -->
<g id="node2" class="node">
<title>Node2958</title>
<g id="a_node2"><a xlink:href="net_8h.html#a0748d791fd2af516dd93fbadb660d440" target="_top" xlink:title="For applications with their own message loop, reads all data from the network. ">
<polygon fill="#ffffff" stroke="#000000" points="142,-56.6053 142,-75.6053 204,-75.6053 204,-56.6053 142,-56.6053"/>
<text text-anchor="middle" x="173" y="-63.6053" font-family="Helvetica,sans-Serif" font-size="10.00" fill="#000000">coap_read</text>
</a>
</g>
</g>
<!-- Node2957&#45;&gt;Node2958 -->
<g id="edge1" class="edge">
<title>Node2957&#45;&gt;Node2958</title>
<path fill="none" stroke="#191970" d="M116.3355,-66.1053C125.1952,-66.1053 133.9577,-66.1053 141.847,-66.1053"/>
<polygon fill="#191970" stroke="#191970" points="116.3326,-62.6054 106.3326,-66.1053 116.3325,-69.6054 116.3326,-62.6054"/>
</g>
<!-- Node2959 -->
<g id="node3" class="node">
<title>Node2959</title>
<g id="a_node3"><a xlink:href="coap__io_8c.html#a75a7c93e10ca7858449ba304aad4ea37" target="_top" xlink:title="coap_run_once">
<polygon fill="#ffffff" stroke="#000000" points="475,-113.6053 475,-132.6053 558,-132.6053 558,-113.6053 475,-113.6053"/>
<text text-anchor="middle" x="516.5" y="-120.6053" font-family="Helvetica,sans-Serif" font-size="10.00" fill="#000000">coap_run_once</text>
</a>
</g>
</g>
<!-- Node2958&#45;&gt;Node2959 -->
<g id="edge2" class="edge">
<title>Node2958&#45;&gt;Node2959</title>
<path fill="none" stroke="#191970" d="M205.9915,-79.2864C243.1889,-93.3802 305.8211,-114.8182 362,-123.1053 399.9461,-128.7028 443.7075,-128.0468 474.9472,-126.3771"/>
<polygon fill="#191970" stroke="#191970" points="207.2415,-76.0173 196.6515,-75.6987 204.7314,-82.5518 207.2415,-76.0173"/>
</g>
<!-- Node2960 -->
<g id="node4" class="node">
<title>Node2960</title>
<g id="a_node4"><a xlink:href="net_8h.html#a9900c032b74bd57f67d489484a2b3207" target="_top" xlink:title="Handles retransmissions of confirmable messages. ">
<polygon fill="#ffffff" stroke="#000000" points="240,-56.6053 240,-75.6053 326,-75.6053 326,-56.6053 240,-56.6053"/>
<text text-anchor="middle" x="283" y="-63.6053" font-family="Helvetica,sans-Serif" font-size="10.00" fill="#000000">coap_retransmit</text>
</a>
</g>
</g>
<!-- Node2958&#45;&gt;Node2960 -->
<g id="edge3" class="edge">
<title>Node2958&#45;&gt;Node2960</title>
<path fill="none" stroke="#191970" d="M214.4282,-66.1053C222.7153,-66.1053 231.4409,-66.1053 239.7866,-66.1053"/>
<polygon fill="#191970" stroke="#191970" points="214.2274,-62.6054 204.2274,-66.1053 214.2273,-69.6054 214.2274,-62.6054"/>
</g>
<!-- Node2962 -->
<g id="node6" class="node">
<title>Node2962</title>
<g id="a_node6"><a xlink:href="net_8h.html#a5854b1394bfddd574e48af116e3aaaf9" target="_top" xlink:title="Sends an RST message with code 0 for the specified request to dst. ">
<polygon fill="#ffffff" stroke="#000000" points="476.5,-56.6053 476.5,-75.6053 556.5,-75.6053 556.5,-56.6053 476.5,-56.6053"/>
<text text-anchor="middle" x="516.5" y="-63.6053" font-family="Helvetica,sans-Serif" font-size="10.00" fill="#000000">coap_send_rst</text>
</a>
</g>
</g>
<!-- Node2958&#45;&gt;Node2962 -->
<g id="edge9" class="edge">
<title>Node2958&#45;&gt;Node2962</title>
<path fill="none" stroke="#191970" d="M198.9191,-51.6326C247.0505,-26.7048 353.1461,19.0672 439,-9.1053 467.5652,-18.4788 494.2754,-42.8507 507.617,-56.4954"/>
<polygon fill="#191970" stroke="#191970" points="197.017,-48.6796 189.8222,-56.4569 200.2966,-54.8638 197.017,-48.6796"/>
</g>
<!-- Node2961 -->
<g id="node5" class="node">
<title>Node2961</title>
<g id="a_node5"><a xlink:href="net_8h.html#aaac86ac50793f309678e4951ecf8863f" target="_top" xlink:title="For applications with their own message loop, send all pending retransmits and return the list of soc...">
<polygon fill="#ffffff" stroke="#000000" points="368.5,-94.6053 368.5,-113.6053 432.5,-113.6053 432.5,-94.6053 368.5,-94.6053"/>
<text text-anchor="middle" x="400.5" y="-101.6053" font-family="Helvetica,sans-Serif" font-size="10.00" fill="#000000">coap_write</text>
</a>
</g>
</g>
<!-- Node2960&#45;&gt;Node2961 -->
<g id="edge4" class="edge">
<title>Node2960&#45;&gt;Node2961</title>
<path fill="none" stroke="#191970" d="M322.2092,-78.7857C338.0854,-83.9201 356.11,-89.7494 370.8593,-94.5193"/>
<polygon fill="#191970" stroke="#191970" points="323.242,-75.4413 312.6502,-75.6943 321.088,-82.1016 323.242,-75.4413"/>
</g>
<!-- Node2960&#45;&gt;Node2962 -->
<g id="edge8" class="edge">
<title>Node2960&#45;&gt;Node2962</title>
<path fill="none" stroke="#191970" d="M336.2873,-66.1053C378.8913,-66.1053 437.692,-66.1053 476.3817,-66.1053"/>
<polygon fill="#191970" stroke="#191970" points="336.0996,-62.6054 326.0996,-66.1053 336.0996,-69.6054 336.0996,-62.6054"/>
</g>
<!-- Node2963 -->
<g id="node7" class="node">
<title>Node2963</title>
<g id="a_node7"><a xlink:href="libcoap_8h.html#a5d1fb0b44497970b0f75fa0b38570a82" target="_top" xlink:title="coap_cleanup">
<polygon fill="#ffffff" stroke="#000000" points="362,-18.6053 362,-37.6053 439,-37.6053 439,-18.6053 362,-18.6053"/>
<text text-anchor="middle" x="400.5" y="-25.6053" font-family="Helvetica,sans-Serif" font-size="10.00" fill="#000000">coap_cleanup</text>
</a>
</g>
</g>
<!-- Node2960&#45;&gt;Node2963 -->
<g id="edge7" class="edge">
<title>Node2960&#45;&gt;Node2963</title>
<path fill="none" stroke="#191970" d="M322.2092,-53.4248C338.0854,-48.2904 356.11,-42.4612 370.8593,-37.6912"/>
<polygon fill="#191970" stroke="#191970" points="321.088,-50.1089 312.6502,-56.5163 323.242,-56.7692 321.088,-50.1089"/>
</g>
<!-- Node2961&#45;&gt;Node2959 -->
<g id="edge5" class="edge">
<title>Node2961&#45;&gt;Node2959</title>
<path fill="none" stroke="#191970" d="M442.6193,-111.0041C453.036,-112.7103 464.1933,-114.5378 474.5996,-116.2423"/>
<polygon fill="#191970" stroke="#191970" points="442.9388,-107.5099 432.5046,-109.3474 441.8073,-114.4178 442.9388,-107.5099"/>
</g>
<!-- Node2961&#45;&gt;Node2962 -->
<g id="edge6" class="edge">
<title>Node2961&#45;&gt;Node2962</title>
<path fill="none" stroke="#191970" d="M439.6528,-91.2793C455.2176,-86.1805 472.8141,-80.4162 487.2377,-75.6912"/>
<polygon fill="#191970" stroke="#191970" points="438.1852,-88.077 429.7717,-94.5163 440.3644,-94.7292 438.1852,-88.077"/>
</g>
</g>
</svg>
