<?xml version="1.0" encoding="UTF-8" standalone="no"?>
<!DOCTYPE svg PUBLIC "-//W3C//DTD SVG 1.1//EN"
 "http://www.w3.org/Graphics/SVG/1.1/DTD/svg11.dtd">
<!-- Generated by graphviz version 2.40.1 (20161225.0304)
 -->
<!-- Title: coap_cancel Pages: 1 -->
<!--zoomable 227 -->
<svg id="main" version="1.1" xmlns="http://www.w3.org/2000/svg" xmlns:xlink="http://www.w3.org/1999/xlink" xml:space="preserve" onload="init(evt)">
<style type="text/css"><![CDATA[
.edge:hover path { stroke: red; }
.edge:hover polygon { stroke: red; fill: red; }
]]></style>
<script type="text/javascript"><![CDATA[
var edges = document.getElementsByTagName('g');
if (edges && edges.length) {
  for (var i=0;i<edges.length;i++) {
    if (edges[i].id.substr(0,4)=='edge') {
      edges[i].setAttribute('class','edge');
    }
  }
}
]]></script>
        <defs>
                <circle id="rim" cx="0" cy="0" r="7"/>
                <circle id="rim2" cx="0" cy="0" r="3.5"/>
                <g id="zoomPlus">
                        <use xlink:href="#rim" fill="#404040">
                                <set attributeName="fill" to="#808080" begin="zoomplus.mouseover" end="zoomplus.mouseout"/>
                        </use>
                        <path d="M-4,0h8M0,-4v8" fill="none" stroke="white" stroke-width="1.5" pointer-events="none"/>
                </g>
                <g id="zoomMin">
                        <use xlink:href="#rim" fill="#404040">
                                <set attributeName="fill" to="#808080" begin="zoomminus.mouseover" end="zoomminus.mouseout"/>
                        </use>
                        <path d="M-4,0h8" fill="none" stroke="white" stroke-width="1.5" pointer-events="none"/>
                </g>
                <g id="dirArrow">
                        <path fill="none" stroke="white" stroke-width="1.5" d="M0,-3.0v7 M-2.5,-0.5L0,-3.0L2.5,-0.5"/>
                </g>
               <g id="resetDef">
                       <use xlink:href="#rim2" fill="#404040">
                               <set attributeName="fill" to="#808080" begin="reset.mouseover" end="reset.mouseout"/>
                       </use>
               </g>
        </defs>

<script type="text/javascript">
var viewWidth = 1083;
var viewHeight = 227;
var sectionId = 'dynsection-7';
</script>
<script xlink:href="svgpan.js"/>
<svg id="graph" class="graph">
<g id="viewport">
<title>coap_cancel</title>
<polygon fill="#ffffff" stroke="transparent" points="-4,4 -4,-223 1079,-223 1079,4 -4,4"/>
<!-- Node144 -->
<g id="node1" class="node">
<title>Node144</title>
<polygon fill="#bfbfbf" stroke="#000000" points="0,-149.5 0,-168.5 71,-168.5 71,-149.5 0,-149.5"/>
<text text-anchor="middle" x="35.5" y="-156.5" font-family="Helvetica,sans-Serif" font-size="10.00" fill="#000000">coap_cancel</text>
</g>
<!-- Node145 -->
<g id="node2" class="node">
<title>Node145</title>
<g id="a_node2"><a xlink:href="net_8h.html#a7bb944fc52f772655356d95724317401" target="_top" xlink:title="Dispatches the PDUs from the receive queue in given context. ">
<polygon fill="#ffffff" stroke="#000000" points="107,-149.5 107,-168.5 187,-168.5 187,-149.5 107,-149.5"/>
<text text-anchor="middle" x="147" y="-156.5" font-family="Helvetica,sans-Serif" font-size="10.00" fill="#000000">coap_dispatch</text>
</a>
</g>
</g>
<!-- Node144&#45;&gt;Node145 -->
<g id="edge1" class="edge">
<title>Node144&#45;&gt;Node145</title>
<path fill="none" stroke="#191970" d="M81.1916,-159C89.6513,-159 98.4306,-159 106.7152,-159"/>
<polygon fill="#191970" stroke="#191970" points="81.0859,-155.5001 71.0859,-159 81.0858,-162.5001 81.0859,-155.5001"/>
</g>
<!-- Node146 -->
<g id="node3" class="node">
<title>Node146</title>
<g id="a_node3"><a xlink:href="net_8c.html#acd36f6fba6d30ab9557e0e6521f4a088" target="_top" xlink:title="coap_read_session">
<polygon fill="#ffffff" stroke="#000000" points="520.5,-86.5 520.5,-105.5 621.5,-105.5 621.5,-86.5 520.5,-86.5"/>
<text text-anchor="middle" x="571" y="-93.5" font-family="Helvetica,sans-Serif" font-size="10.00" fill="#000000">coap_read_session</text>
</a>
</g>
</g>
<!-- Node145&#45;&gt;Node146 -->
<g id="edge2" class="edge">
<title>Node145&#45;&gt;Node146</title>
<path fill="none" stroke="#191970" d="M193.5431,-146.9921C203.2569,-144.5906 213.4472,-142.1481 223,-140 284.9086,-126.0789 300.1408,-120.6714 363,-112 416.4583,-104.6255 478.1499,-100.4152 520.3812,-98.184"/>
<polygon fill="#191970" stroke="#191970" points="192.4932,-143.6467 183.6394,-149.4658 194.1895,-150.4381 192.4932,-143.6467"/>
</g>
<!-- Node151 -->
<g id="node8" class="node">
<title>Node151</title>
<g id="a_node8"><a xlink:href="net_8h.html#a5854b1394bfddd574e48af116e3aaaf9" target="_top" xlink:title="Sends an RST message with code 0 for the specified request to dst. ">
<polygon fill="#ffffff" stroke="#000000" points="993.5,-133.5 993.5,-152.5 1073.5,-152.5 1073.5,-133.5 993.5,-133.5"/>
<text text-anchor="middle" x="1033.5" y="-140.5" font-family="Helvetica,sans-Serif" font-size="10.00" fill="#000000">coap_send_rst</text>
</a>
</g>
</g>
<!-- Node145&#45;&gt;Node151 -->
<g id="edge18" class="edge">
<title>Node145&#45;&gt;Node151</title>
<path fill="none" stroke="#191970" d="M182.6018,-171.8623C234.6666,-189.4912 334.9653,-219 423,-219 423,-219 423,-219 800,-219 871.2568,-219 889.0523,-206.4037 956,-182 978.0765,-173.9527 1002.0259,-161.2309 1017.3678,-152.5199"/>
<polygon fill="#191970" stroke="#191970" points="183.4446,-168.451 172.8499,-168.5072 181.1672,-175.0702 183.4446,-168.451"/>
</g>
<!-- Node153 -->
<g id="node10" class="node">
<title>Node153</title>
<g id="a_node10"><a xlink:href="net_8h.html#ae6b8ca457dd41f23372f9e9a7159312b" target="_top" xlink:title="Parses and interprets a CoAP datagram with context ctx. ">
<polygon fill="#ffffff" stroke="#000000" points="223,-149.5 223,-168.5 327,-168.5 327,-149.5 223,-149.5"/>
<text text-anchor="middle" x="275" y="-156.5" font-family="Helvetica,sans-Serif" font-size="10.00" fill="#000000">coap_handle_dgram</text>
</a>
</g>
</g>
<!-- Node145&#45;&gt;Node153 -->
<g id="edge12" class="edge">
<title>Node145&#45;&gt;Node153</title>
<path fill="none" stroke="#191970" d="M197.1883,-159C205.5884,-159 214.3218,-159 222.7716,-159"/>
<polygon fill="#191970" stroke="#191970" points="197.1488,-155.5001 187.1488,-159 197.1488,-162.5001 197.1488,-155.5001"/>
</g>
<!-- Node147 -->
<g id="node4" class="node">
<title>Node147</title>
<g id="a_node4"><a xlink:href="net_8h.html#a0748d791fd2af516dd93fbadb660d440" target="_top" xlink:title="For applications with their own message loop, reads all data from the network. ">
<polygon fill="#ffffff" stroke="#000000" points="659,-86.5 659,-105.5 721,-105.5 721,-86.5 659,-86.5"/>
<text text-anchor="middle" x="690" y="-93.5" font-family="Helvetica,sans-Serif" font-size="10.00" fill="#000000">coap_read</text>
</a>
</g>
</g>
<!-- Node146&#45;&gt;Node147 -->
<g id="edge3" class="edge">
<title>Node146&#45;&gt;Node147</title>
<path fill="none" stroke="#191970" d="M631.949,-96C641.3142,-96 650.6315,-96 658.9721,-96"/>
<polygon fill="#191970" stroke="#191970" points="631.8119,-92.5001 621.8119,-96 631.8119,-99.5001 631.8119,-92.5001"/>
</g>
<!-- Node148 -->
<g id="node5" class="node">
<title>Node148</title>
<g id="a_node5"><a xlink:href="coap__io_8c.html#a75a7c93e10ca7858449ba304aad4ea37" target="_top" xlink:title="coap_run_once">
<polygon fill="#ffffff" stroke="#000000" points="992,-.5 992,-19.5 1075,-19.5 1075,-.5 992,-.5"/>
<text text-anchor="middle" x="1033.5" y="-7.5" font-family="Helvetica,sans-Serif" font-size="10.00" fill="#000000">coap_run_once</text>
</a>
</g>
</g>
<!-- Node147&#45;&gt;Node148 -->
<g id="edge4" class="edge">
<title>Node147&#45;&gt;Node148</title>
<path fill="none" stroke="#191970" d="M713.7599,-80.8987C748.4461,-59.8778 815.7208,-22.9233 879,-10 916.5811,-2.325 960.3852,-3.2244 991.7338,-5.5138"/>
<polygon fill="#191970" stroke="#191970" points="711.5512,-78.1484 704.8711,-86.372 715.2215,-84.109 711.5512,-78.1484"/>
</g>
<!-- Node149 -->
<g id="node6" class="node">
<title>Node149</title>
<g id="a_node6"><a xlink:href="net_8h.html#a9900c032b74bd57f67d489484a2b3207" target="_top" xlink:title="Handles retransmissions of confirmable messages. ">
<polygon fill="#ffffff" stroke="#000000" points="757,-71.5 757,-90.5 843,-90.5 843,-71.5 757,-71.5"/>
<text text-anchor="middle" x="800" y="-78.5" font-family="Helvetica,sans-Serif" font-size="10.00" fill="#000000">coap_retransmit</text>
</a>
</g>
</g>
<!-- Node147&#45;&gt;Node149 -->
<g id="edge5" class="edge">
<title>Node147&#45;&gt;Node149</title>
<path fill="none" stroke="#191970" d="M731.1522,-90.3883C739.5214,-89.2471 748.3482,-88.0434 756.7866,-86.8927"/>
<polygon fill="#191970" stroke="#191970" points="730.6627,-86.9226 721.2274,-91.7417 731.6086,-93.8584 730.6627,-86.9226"/>
</g>
<!-- Node147&#45;&gt;Node151 -->
<g id="edge11" class="edge">
<title>Node147&#45;&gt;Node151</title>
<path fill="none" stroke="#191970" d="M731.2593,-103.1318C769.4921,-109.6018 827.984,-119.1484 879,-126 917.7798,-131.2082 962.1954,-135.9704 993.4214,-139.1209"/>
<polygon fill="#191970" stroke="#191970" points="731.4813,-99.6194 721.036,-101.3933 730.3077,-106.5203 731.4813,-99.6194"/>
</g>
<!-- Node150 -->
<g id="node7" class="node">
<title>Node150</title>
<g id="a_node7"><a xlink:href="net_8h.html#aaac86ac50793f309678e4951ecf8863f" target="_top" xlink:title="For applications with their own message loop, send all pending retransmits and return the list of soc...">
<polygon fill="#ffffff" stroke="#000000" points="885.5,-19.5 885.5,-38.5 949.5,-38.5 949.5,-19.5 885.5,-19.5"/>
<text text-anchor="middle" x="917.5" y="-26.5" font-family="Helvetica,sans-Serif" font-size="10.00" fill="#000000">coap_write</text>
</a>
</g>
</g>
<!-- Node149&#45;&gt;Node150 -->
<g id="edge6" class="edge">
<title>Node149&#45;&gt;Node150</title>
<path fill="none" stroke="#191970" d="M830.7454,-67.3935C851.1441,-58.366 877.4226,-46.7364 895.6874,-38.6532"/>
<polygon fill="#191970" stroke="#191970" points="829.2794,-64.2148 821.5513,-71.4624 832.1123,-70.616 829.2794,-64.2148"/>
</g>
<!-- Node149&#45;&gt;Node151 -->
<g id="edge10" class="edge">
<title>Node149&#45;&gt;Node151</title>
<path fill="none" stroke="#191970" d="M845.6505,-93.1213C890.0734,-104.9167 956.6755,-122.6012 997.4865,-133.4375"/>
<polygon fill="#191970" stroke="#191970" points="846.536,-89.7352 835.9727,-90.5516 844.7395,-96.5008 846.536,-89.7352"/>
</g>
<!-- Node152 -->
<g id="node9" class="node">
<title>Node152</title>
<g id="a_node9"><a xlink:href="libcoap_8h.html#a5d1fb0b44497970b0f75fa0b38570a82" target="_top" xlink:title="coap_cleanup">
<polygon fill="#ffffff" stroke="#000000" points="879,-57.5 879,-76.5 956,-76.5 956,-57.5 879,-57.5"/>
<text text-anchor="middle" x="917.5" y="-64.5" font-family="Helvetica,sans-Serif" font-size="10.00" fill="#000000">coap_cleanup</text>
</a>
</g>
</g>
<!-- Node149&#45;&gt;Node152 -->
<g id="edge9" class="edge">
<title>Node149&#45;&gt;Node152</title>
<path fill="none" stroke="#191970" d="M853.0879,-74.6746C861.7111,-73.6472 870.4986,-72.6002 878.6979,-71.6232"/>
<polygon fill="#191970" stroke="#191970" points="852.6011,-71.2078 843.0855,-75.8664 853.4294,-78.1586 852.6011,-71.2078"/>
</g>
<!-- Node150&#45;&gt;Node148 -->
<g id="edge7" class="edge">
<title>Node150&#45;&gt;Node148</title>
<path fill="none" stroke="#191970" d="M959.6193,-22.1012C970.036,-20.395 981.1933,-18.5675 991.5996,-16.863"/>
<polygon fill="#191970" stroke="#191970" points="958.8073,-18.6874 949.5046,-23.7579 959.9388,-25.5954 958.8073,-18.6874"/>
</g>
<!-- Node150&#45;&gt;Node151 -->
<g id="edge8" class="edge">
<title>Node150&#45;&gt;Node151</title>
<path fill="none" stroke="#191970" d="M949.6461,-43.5066C951.8668,-44.9159 954.0102,-46.4156 956,-48 988.1364,-73.5897 1015.8662,-114.5905 1027.5682,-133.2208"/>
<polygon fill="#191970" stroke="#191970" points="951.2855,-40.4128 940.8591,-38.5306 947.8361,-46.5039 951.2855,-40.4128"/>
</g>
<!-- Node153&#45;&gt;Node151 -->
<g id="edge17" class="edge">
<title>Node153&#45;&gt;Node151</title>
<path fill="none" stroke="#191970" d="M337.0854,-166.3063C396.9094,-172.7088 490.0154,-181 571,-181 571,-181 571,-181 800,-181 870.643,-181 951.7651,-163.8462 997.3956,-152.589"/>
<polygon fill="#191970" stroke="#191970" points="337.3652,-162.8162 327.0457,-165.2161 336.6094,-169.7753 337.3652,-162.8162"/>
</g>
<!-- Node154 -->
<g id="node11" class="node">
<title>Node154</title>
<g id="a_node11"><a xlink:href="net_8c.html#a8534f7860b14e0743529daff196a27ce" target="_top" xlink:title="coap_handle_dgram_for\l_proto">
<polygon fill="#ffffff" stroke="#000000" points="363,-122 363,-152 483,-152 483,-122 363,-122"/>
<text text-anchor="start" x="371" y="-140" font-family="Helvetica,sans-Serif" font-size="10.00" fill="#000000">coap_handle_dgram_for</text>
<text text-anchor="middle" x="423" y="-129" font-family="Helvetica,sans-Serif" font-size="10.00" fill="#000000">_proto</text>
</a>
</g>
</g>
<!-- Node153&#45;&gt;Node154 -->
<g id="edge13" class="edge">
<title>Node153&#45;&gt;Node154</title>
<path fill="none" stroke="#191970" d="M337.0967,-149.7694C345.6545,-148.4973 354.4304,-147.1928 362.9503,-145.9263"/>
<polygon fill="#191970" stroke="#191970" points="336.5559,-146.3112 327.1793,-151.2436 337.5852,-153.2352 336.5559,-146.3112"/>
</g>
<!-- Node154&#45;&gt;Node146 -->
<g id="edge14" class="edge">
<title>Node154&#45;&gt;Node146</title>
<path fill="none" stroke="#191970" d="M487.151,-119.2284C504.1191,-114.5278 521.7905,-109.6324 536.5107,-105.5545"/>
<polygon fill="#191970" stroke="#191970" points="485.972,-115.9232 477.2693,-121.9659 487.8408,-122.6691 485.972,-115.9232"/>
</g>
<!-- Node155 -->
<g id="node12" class="node">
<title>Node155</title>
<g id="a_node12"><a xlink:href="net_8c.html#a44ffb4b70e537043e9a9cf344be24b92" target="_top" xlink:title="coap_read_endpoint">
<polygon fill="#ffffff" stroke="#000000" points="519,-126.5 519,-145.5 623,-145.5 623,-126.5 519,-126.5"/>
<text text-anchor="middle" x="571" y="-133.5" font-family="Helvetica,sans-Serif" font-size="10.00" fill="#000000">coap_read_endpoint</text>
</a>
</g>
</g>
<!-- Node154&#45;&gt;Node155 -->
<g id="edge15" class="edge">
<title>Node154&#45;&gt;Node155</title>
<path fill="none" stroke="#191970" d="M493.2786,-136.5251C501.917,-136.4668 510.6233,-136.408 518.9248,-136.3519"/>
<polygon fill="#191970" stroke="#191970" points="493.1734,-133.0257 483.1973,-136.5933 493.2207,-140.0255 493.1734,-133.0257"/>
</g>
<!-- Node155&#45;&gt;Node147 -->
<g id="edge16" class="edge">
<title>Node155&#45;&gt;Node147</title>
<path fill="none" stroke="#191970" d="M609.1899,-123.1631C626.2571,-117.4262 646.0197,-110.7833 661.7291,-105.5028"/>
<polygon fill="#191970" stroke="#191970" points="607.8671,-119.9152 599.5035,-126.419 610.0975,-126.5504 607.8671,-119.9152"/>
</g>
</g>
</svg>
        <g id="navigator" transform="translate(0 0)" fill="#404254">
                <rect fill="#f2f5e9" fill-opacity="0.5" stroke="#606060" stroke-width=".5" x="0" y="0" width="60" height="60"/>
                <use id="zoomplus" xlink:href="#zoomPlus" x="17" y="9" onmousedown="handleZoom(evt,'in')"/>
                <use id="zoomminus" xlink:href="#zoomMin" x="42" y="9" onmousedown="handleZoom(evt,'out')"/>
                <use id="reset" xlink:href="#resetDef" x="30" y="36" onmousedown="handleReset()"/>
                <g id="arrowUp" xlink:href="#dirArrow" transform="translate(30 24)" onmousedown="handlePan(0,-1)">
                  <use xlink:href="#rim" fill="#404040">
                        <set attributeName="fill" to="#808080" begin="arrowUp.mouseover" end="arrowUp.mouseout"/>
                  </use>
                  <path fill="none" stroke="white" stroke-width="1.5" d="M0,-3.0v7 M-2.5,-0.5L0,-3.0L2.5,-0.5"/>
                </g>
                <g id="arrowRight" xlink:href="#dirArrow" transform="rotate(90) translate(36 -43)" onmousedown="handlePan(1,0)">
                  <use xlink:href="#rim" fill="#404040">
                        <set attributeName="fill" to="#808080" begin="arrowRight.mouseover" end="arrowRight.mouseout"/>
                  </use>
                  <path fill="none" stroke="white" stroke-width="1.5" d="M0,-3.0v7 M-2.5,-0.5L0,-3.0L2.5,-0.5"/>
                </g>
                <g id="arrowDown" xlink:href="#dirArrow" transform="rotate(180) translate(-30 -48)" onmousedown="handlePan(0,1)">
                  <use xlink:href="#rim" fill="#404040">
                        <set attributeName="fill" to="#808080" begin="arrowDown.mouseover" end="arrowDown.mouseout"/>
                  </use>
                  <path fill="none" stroke="white" stroke-width="1.5" d="M0,-3.0v7 M-2.5,-0.5L0,-3.0L2.5,-0.5"/>
                </g>
                <g id="arrowLeft" xlink:href="#dirArrow" transform="rotate(270) translate(-36 17)" onmousedown="handlePan(-1,0)">
                  <use xlink:href="#rim" fill="#404040">
                        <set attributeName="fill" to="#808080" begin="arrowLeft.mouseover" end="arrowLeft.mouseout"/>
                  </use>
                  <path fill="none" stroke="white" stroke-width="1.5" d="M0,-3.0v7 M-2.5,-0.5L0,-3.0L2.5,-0.5"/>
                </g>
        </g>
        <svg viewBox="0 0 15 15" width="100%" height="30px" preserveAspectRatio="xMaxYMin meet">
         <g id="arrow_out" transform="scale(0.3 0.3)">
          <a xlink:href="net_8c_a6b355153e3bba3af3df1e72f33ced85c_icgraph_org.svg" target="_base">
           <rect id="button" ry="5" rx="5" y="6" x="6" height="38" width="38"
                fill="#f2f5e9" fill-opacity="0.5" stroke="#606060" stroke-width="1.0"/>
           <path id="arrow"
             d="M 11.500037,31.436501 C 11.940474,20.09759 22.043105,11.32322 32.158766,21.979434 L 37.068811,17.246167 C 37.068811,17.246167 37.088388,32 37.088388,32 L 22.160133,31.978069 C 22.160133,31.978069 26.997745,27.140456 26.997745,27.140456 C 18.528582,18.264221 13.291696,25.230495 11.500037,31.436501 z"
             style="fill:#404040;"/>
          </a>
         </g>
        </svg>
</svg>
