<?xml version="1.0" encoding="UTF-8" standalone="no"?>
<!DOCTYPE svg PUBLIC "-//W3C//DTD SVG 1.1//EN"
 "http://www.w3.org/Graphics/SVG/1.1/DTD/svg11.dtd">
<!-- Generated by graphviz version 2.40.1 (20161225.0304)
 -->
<!-- Title: coap_option_check_critical Pages: 1 -->
<!--zoomable 265 -->
<svg id="main" version="1.1" xmlns="http://www.w3.org/2000/svg" xmlns:xlink="http://www.w3.org/1999/xlink" xml:space="preserve" onload="init(evt)">
<style type="text/css"><![CDATA[
.edge:hover path { stroke: red; }
.edge:hover polygon { stroke: red; fill: red; }
]]></style>
<script type="text/javascript"><![CDATA[
var edges = document.getElementsByTagName('g');
if (edges && edges.length) {
  for (var i=0;i<edges.length;i++) {
    if (edges[i].id.substr(0,4)=='edge') {
      edges[i].setAttribute('class','edge');
    }
  }
}
]]></script>
        <defs>
                <circle id="rim" cx="0" cy="0" r="7"/>
                <circle id="rim2" cx="0" cy="0" r="3.5"/>
                <g id="zoomPlus">
                        <use xlink:href="#rim" fill="#404040">
                                <set attributeName="fill" to="#808080" begin="zoomplus.mouseover" end="zoomplus.mouseout"/>
                        </use>
                        <path d="M-4,0h8M0,-4v8" fill="none" stroke="white" stroke-width="1.5" pointer-events="none"/>
                </g>
                <g id="zoomMin">
                        <use xlink:href="#rim" fill="#404040">
                                <set attributeName="fill" to="#808080" begin="zoomminus.mouseover" end="zoomminus.mouseout"/>
                        </use>
                        <path d="M-4,0h8" fill="none" stroke="white" stroke-width="1.5" pointer-events="none"/>
                </g>
                <g id="dirArrow">
                        <path fill="none" stroke="white" stroke-width="1.5" d="M0,-3.0v7 M-2.5,-0.5L0,-3.0L2.5,-0.5"/>
                </g>
               <g id="resetDef">
                       <use xlink:href="#rim2" fill="#404040">
                               <set attributeName="fill" to="#808080" begin="reset.mouseover" end="reset.mouseout"/>
                       </use>
               </g>
        </defs>

<script type="text/javascript">
var viewWidth = 1146;
var viewHeight = 265;
var sectionId = 'dynsection-53';
</script>
<script xlink:href="svgpan.js"/>
<svg id="graph" class="graph">
<g id="viewport">
<title>coap_option_check_critical</title>
<polygon fill="#ffffff" stroke="transparent" points="-4,4 -4,-261 1142,-261 1142,4 -4,4"/>
<!-- Node1536 -->
<g id="node1" class="node">
<title>Node1536</title>
<polygon fill="#bfbfbf" stroke="#000000" points="0,-9.5 0,-28.5 134,-28.5 134,-9.5 0,-9.5"/>
<text text-anchor="middle" x="67" y="-16.5" font-family="Helvetica,sans-Serif" font-size="10.00" fill="#000000">coap_option_check_critical</text>
</g>
<!-- Node1537 -->
<g id="node2" class="node">
<title>Node1537</title>
<g id="a_node2"><a xlink:href="net_8h.html#a7bb944fc52f772655356d95724317401" target="_top" xlink:title="Dispatches the PDUs from the receive queue in given context. ">
<polygon fill="#ffffff" stroke="#000000" points="170,-47.5 170,-66.5 250,-66.5 250,-47.5 170,-47.5"/>
<text text-anchor="middle" x="210" y="-54.5" font-family="Helvetica,sans-Serif" font-size="10.00" fill="#000000">coap_dispatch</text>
</a>
</g>
</g>
<!-- Node1536&#45;&gt;Node1537 -->
<g id="edge1" class="edge">
<title>Node1536&#45;&gt;Node1537</title>
<path fill="none" stroke="#191970" d="M112.8133,-31.1742C132.5871,-36.4287 155.3838,-42.4866 173.9266,-47.4141"/>
<polygon fill="#191970" stroke="#191970" points="113.6484,-27.7747 103.0849,-28.589 111.8506,-34.5399 113.6484,-27.7747"/>
</g>
<!-- Node1543 -->
<g id="node8" class="node">
<title>Node1543</title>
<g id="a_node8"><a xlink:href="net_8h.html#a5854b1394bfddd574e48af116e3aaaf9" target="_top" xlink:title="Sends an RST message with code 0 for the specified request to dst. ">
<polygon fill="#ffffff" stroke="#000000" points="1056.5,-85.5 1056.5,-104.5 1136.5,-104.5 1136.5,-85.5 1056.5,-85.5"/>
<text text-anchor="middle" x="1096.5" y="-92.5" font-family="Helvetica,sans-Serif" font-size="10.00" fill="#000000">coap_send_rst</text>
</a>
</g>
</g>
<!-- Node1536&#45;&gt;Node1543 -->
<g id="edge19" class="edge">
<title>Node1536&#45;&gt;Node1543</title>
<path fill="none" stroke="#191970" d="M144.2245,-10.7C198.3901,-5.5857 272.5342,0 338,0 338,0 338,0 863,0 935.0384,0 953.4736,-14.0697 1019,-44 1043.9064,-55.3764 1069.9099,-74.1335 1084.5701,-85.452"/>
<polygon fill="#191970" stroke="#191970" points="143.6278,-7.2411 134.0083,-11.6813 144.2972,-14.209 143.6278,-7.2411"/>
</g>
<!-- Node1538 -->
<g id="node3" class="node">
<title>Node1538</title>
<g id="a_node3"><a xlink:href="net_8c.html#acd36f6fba6d30ab9557e0e6521f4a088" target="_top" xlink:title="coap_read_session">
<polygon fill="#ffffff" stroke="#000000" points="583.5,-152.5 583.5,-171.5 684.5,-171.5 684.5,-152.5 583.5,-152.5"/>
<text text-anchor="middle" x="634" y="-159.5" font-family="Helvetica,sans-Serif" font-size="10.00" fill="#000000">coap_read_session</text>
</a>
</g>
</g>
<!-- Node1537&#45;&gt;Node1538 -->
<g id="edge2" class="edge">
<title>Node1537&#45;&gt;Node1538</title>
<path fill="none" stroke="#191970" d="M236.4078,-71.1881C250.8581,-78.7002 269.1936,-87.8282 286,-95 346.7696,-120.9323 361.4118,-131.079 426,-145 478.9502,-156.4126 540.9921,-160.2933 583.4488,-161.547"/>
<polygon fill="#191970" stroke="#191970" points="238.0085,-68.0754 227.5282,-66.5217 234.7521,-74.2719 238.0085,-68.0754"/>
</g>
<!-- Node1537&#45;&gt;Node1543 -->
<g id="edge18" class="edge">
<title>Node1537&#45;&gt;Node1543</title>
<path fill="none" stroke="#191970" d="M260.3886,-51.4435C315.6647,-45.8361 407.0365,-38 486,-38 486,-38 486,-38 863,-38 942.0756,-38 1032.0279,-69.233 1073.425,-85.4595"/>
<polygon fill="#191970" stroke="#191970" points="259.7524,-47.9905 250.1639,-52.4973 260.47,-54.9536 259.7524,-47.9905"/>
</g>
<!-- Node1545 -->
<g id="node10" class="node">
<title>Node1545</title>
<g id="a_node10"><a xlink:href="net_8h.html#ae6b8ca457dd41f23372f9e9a7159312b" target="_top" xlink:title="Parses and interprets a CoAP datagram with context ctx. ">
<polygon fill="#ffffff" stroke="#000000" points="286,-66.5 286,-85.5 390,-85.5 390,-66.5 286,-66.5"/>
<text text-anchor="middle" x="338" y="-73.5" font-family="Helvetica,sans-Serif" font-size="10.00" fill="#000000">coap_handle_dgram</text>
</a>
</g>
</g>
<!-- Node1537&#45;&gt;Node1545 -->
<g id="edge12" class="edge">
<title>Node1537&#45;&gt;Node1545</title>
<path fill="none" stroke="#191970" d="M260.1883,-64.4498C268.5884,-65.6967 277.3218,-66.9931 285.7716,-68.2474"/>
<polygon fill="#191970" stroke="#191970" points="260.5544,-60.9659 250.1488,-62.9596 259.5265,-67.89 260.5544,-60.9659"/>
</g>
<!-- Node1539 -->
<g id="node4" class="node">
<title>Node1539</title>
<g id="a_node4"><a xlink:href="net_8h.html#a0748d791fd2af516dd93fbadb660d440" target="_top" xlink:title="For applications with their own message loop, reads all data from the network. ">
<polygon fill="#ffffff" stroke="#000000" points="722,-152.5 722,-171.5 784,-171.5 784,-152.5 722,-152.5"/>
<text text-anchor="middle" x="753" y="-159.5" font-family="Helvetica,sans-Serif" font-size="10.00" fill="#000000">coap_read</text>
</a>
</g>
</g>
<!-- Node1538&#45;&gt;Node1539 -->
<g id="edge3" class="edge">
<title>Node1538&#45;&gt;Node1539</title>
<path fill="none" stroke="#191970" d="M694.949,-162C704.3142,-162 713.6315,-162 721.9721,-162"/>
<polygon fill="#191970" stroke="#191970" points="694.8119,-158.5001 684.8119,-162 694.8119,-165.5001 694.8119,-158.5001"/>
</g>
<!-- Node1540 -->
<g id="node5" class="node">
<title>Node1540</title>
<g id="a_node5"><a xlink:href="coap__io_8c.html#a75a7c93e10ca7858449ba304aad4ea37" target="_top" xlink:title="coap_run_once">
<polygon fill="#ffffff" stroke="#000000" points="1055,-237.5 1055,-256.5 1138,-256.5 1138,-237.5 1055,-237.5"/>
<text text-anchor="middle" x="1096.5" y="-244.5" font-family="Helvetica,sans-Serif" font-size="10.00" fill="#000000">coap_run_once</text>
</a>
</g>
</g>
<!-- Node1539&#45;&gt;Node1540 -->
<g id="edge4" class="edge">
<title>Node1539&#45;&gt;Node1540</title>
<path fill="none" stroke="#191970" d="M777.3279,-177.2106C812.2084,-197.9989 879.1687,-234.1682 942,-247 979.5811,-254.675 1023.3852,-253.7756 1054.7338,-251.4862"/>
<polygon fill="#191970" stroke="#191970" points="778.7376,-173.9726 768.3706,-171.7872 775.1121,-179.9606 778.7376,-173.9726"/>
</g>
<!-- Node1541 -->
<g id="node6" class="node">
<title>Node1541</title>
<g id="a_node6"><a xlink:href="net_8h.html#a9900c032b74bd57f67d489484a2b3207" target="_top" xlink:title="Handles retransmissions of confirmable messages. ">
<polygon fill="#ffffff" stroke="#000000" points="820,-166.5 820,-185.5 906,-185.5 906,-166.5 820,-166.5"/>
<text text-anchor="middle" x="863" y="-173.5" font-family="Helvetica,sans-Serif" font-size="10.00" fill="#000000">coap_retransmit</text>
</a>
</g>
</g>
<!-- Node1539&#45;&gt;Node1541 -->
<g id="edge5" class="edge">
<title>Node1539&#45;&gt;Node1541</title>
<path fill="none" stroke="#191970" d="M794.1522,-167.2375C802.5214,-168.3027 811.3482,-169.4261 819.7866,-170.5001"/>
<polygon fill="#191970" stroke="#191970" points="794.5893,-163.765 784.2274,-165.9744 793.7054,-170.709 794.5893,-163.765"/>
</g>
<!-- Node1539&#45;&gt;Node1543 -->
<g id="edge11" class="edge">
<title>Node1539&#45;&gt;Node1543</title>
<path fill="none" stroke="#191970" d="M794.184,-153.967C860.6041,-141.0117 990.5659,-115.6625 1056.3317,-102.8349"/>
<polygon fill="#191970" stroke="#191970" points="793.2341,-150.5863 784.0892,-155.936 794.5743,-157.4568 793.2341,-150.5863"/>
</g>
<!-- Node1542 -->
<g id="node7" class="node">
<title>Node1542</title>
<g id="a_node7"><a xlink:href="net_8h.html#aaac86ac50793f309678e4951ecf8863f" target="_top" xlink:title="For applications with their own message loop, send all pending retransmits and return the list of soc...">
<polygon fill="#ffffff" stroke="#000000" points="948.5,-218.5 948.5,-237.5 1012.5,-237.5 1012.5,-218.5 948.5,-218.5"/>
<text text-anchor="middle" x="980.5" y="-225.5" font-family="Helvetica,sans-Serif" font-size="10.00" fill="#000000">coap_write</text>
</a>
</g>
</g>
<!-- Node1541&#45;&gt;Node1542 -->
<g id="edge6" class="edge">
<title>Node1541&#45;&gt;Node1542</title>
<path fill="none" stroke="#191970" d="M893.7454,-189.6065C914.1441,-198.634 940.4226,-210.2636 958.6874,-218.3468"/>
<polygon fill="#191970" stroke="#191970" points="895.1123,-186.384 884.5513,-185.5376 892.2794,-192.7852 895.1123,-186.384"/>
</g>
<!-- Node1541&#45;&gt;Node1543 -->
<g id="edge10" class="edge">
<title>Node1541&#45;&gt;Node1543</title>
<path fill="none" stroke="#191970" d="M907.5103,-163.642C938.9415,-154.5912 981.8978,-141.5655 1019,-128 1038.5031,-120.8692 1060.215,-111.4957 1075.6847,-104.5616"/>
<polygon fill="#191970" stroke="#191970" points="906.3856,-160.3232 897.7324,-166.4365 908.3092,-167.0537 906.3856,-160.3232"/>
</g>
<!-- Node1544 -->
<g id="node9" class="node">
<title>Node1544</title>
<g id="a_node9"><a xlink:href="libcoap_8h.html#a5d1fb0b44497970b0f75fa0b38570a82" target="_top" xlink:title="coap_cleanup">
<polygon fill="#ffffff" stroke="#000000" points="942,-180.5 942,-199.5 1019,-199.5 1019,-180.5 942,-180.5"/>
<text text-anchor="middle" x="980.5" y="-187.5" font-family="Helvetica,sans-Serif" font-size="10.00" fill="#000000">coap_cleanup</text>
</a>
</g>
</g>
<!-- Node1541&#45;&gt;Node1544 -->
<g id="edge9" class="edge">
<title>Node1541&#45;&gt;Node1544</title>
<path fill="none" stroke="#191970" d="M916.0879,-182.3254C924.7111,-183.3528 933.4986,-184.3998 941.6979,-185.3768"/>
<polygon fill="#191970" stroke="#191970" points="916.4294,-178.8414 906.0855,-181.1336 915.6011,-185.7922 916.4294,-178.8414"/>
</g>
<!-- Node1542&#45;&gt;Node1540 -->
<g id="edge7" class="edge">
<title>Node1542&#45;&gt;Node1540</title>
<path fill="none" stroke="#191970" d="M1022.6193,-234.8988C1033.036,-236.605 1044.1933,-238.4325 1054.5996,-240.137"/>
<polygon fill="#191970" stroke="#191970" points="1022.9388,-231.4046 1012.5046,-233.2421 1021.8073,-238.3126 1022.9388,-231.4046"/>
</g>
<!-- Node1542&#45;&gt;Node1543 -->
<g id="edge8" class="edge">
<title>Node1542&#45;&gt;Node1543</title>
<path fill="none" stroke="#191970" d="M1013.5819,-213.1617C1015.4853,-211.8584 1017.3096,-210.4709 1019,-209 1054.9271,-177.7372 1081.8292,-126.1923 1092.0279,-104.7885"/>
<polygon fill="#191970" stroke="#191970" points="1011.6988,-210.2095 1004.8997,-218.335 1015.2819,-216.2229 1011.6988,-210.2095"/>
</g>
<!-- Node1545&#45;&gt;Node1543 -->
<g id="edge17" class="edge">
<title>Node1545&#45;&gt;Node1543</title>
<path fill="none" stroke="#191970" d="M400.1851,-76C460.0814,-76 553.2381,-76 634,-76 634,-76 634,-76 863,-76 930.9225,-76 1009.5939,-84.0855 1056.0856,-89.7074"/>
<polygon fill="#191970" stroke="#191970" points="400.1327,-72.5001 390.1326,-76 400.1326,-79.5001 400.1327,-72.5001"/>
</g>
<!-- Node1546 -->
<g id="node11" class="node">
<title>Node1546</title>
<g id="a_node11"><a xlink:href="net_8c.html#a8534f7860b14e0743529daff196a27ce" target="_top" xlink:title="coap_handle_dgram_for\l_proto">
<polygon fill="#ffffff" stroke="#000000" points="426,-105 426,-135 546,-135 546,-105 426,-105"/>
<text text-anchor="start" x="434" y="-123" font-family="Helvetica,sans-Serif" font-size="10.00" fill="#000000">coap_handle_dgram_for</text>
<text text-anchor="middle" x="486" y="-112" font-family="Helvetica,sans-Serif" font-size="10.00" fill="#000000">_proto</text>
</a>
</g>
</g>
<!-- Node1545&#45;&gt;Node1546 -->
<g id="edge13" class="edge">
<title>Node1545&#45;&gt;Node1546</title>
<path fill="none" stroke="#191970" d="M379.8949,-88.4553C397.1371,-93.5813 417.2639,-99.5649 435.3256,-104.9346"/>
<polygon fill="#191970" stroke="#191970" points="380.6966,-85.0422 370.1138,-85.5473 378.7017,-91.752 380.6966,-85.0422"/>
</g>
<!-- Node1546&#45;&gt;Node1538 -->
<g id="edge14" class="edge">
<title>Node1546&#45;&gt;Node1538</title>
<path fill="none" stroke="#191970" d="M548.7213,-137.7993C566.4061,-142.818 584.9711,-148.0864 600.2472,-152.4215"/>
<polygon fill="#191970" stroke="#191970" points="549.589,-134.4074 539.0134,-135.0443 547.678,-141.1415 549.589,-134.4074"/>
</g>
<!-- Node1547 -->
<g id="node12" class="node">
<title>Node1547</title>
<g id="a_node12"><a xlink:href="net_8c.html#a44ffb4b70e537043e9a9cf344be24b92" target="_top" xlink:title="coap_read_endpoint">
<polygon fill="#ffffff" stroke="#000000" points="582,-111.5 582,-130.5 686,-130.5 686,-111.5 582,-111.5"/>
<text text-anchor="middle" x="634" y="-118.5" font-family="Helvetica,sans-Serif" font-size="10.00" fill="#000000">coap_read_endpoint</text>
</a>
</g>
</g>
<!-- Node1546&#45;&gt;Node1547 -->
<g id="edge15" class="edge">
<title>Node1546&#45;&gt;Node1547</title>
<path fill="none" stroke="#191970" d="M556.2786,-120.4749C564.917,-120.5332 573.6233,-120.592 581.9248,-120.6481"/>
<polygon fill="#191970" stroke="#191970" points="556.2207,-116.9745 546.1973,-120.4067 556.1734,-123.9743 556.2207,-116.9745"/>
</g>
<!-- Node1547&#45;&gt;Node1539 -->
<g id="edge16" class="edge">
<title>Node1547&#45;&gt;Node1539</title>
<path fill="none" stroke="#191970" d="M671.4421,-133.9002C688.8251,-139.8893 709.1341,-146.8865 725.1374,-152.4003"/>
<polygon fill="#191970" stroke="#191970" points="672.1948,-130.4577 661.6001,-130.5093 669.9145,-137.0759 672.1948,-130.4577"/>
</g>
</g>
</svg>
        <g id="navigator" transform="translate(0 0)" fill="#404254">
                <rect fill="#f2f5e9" fill-opacity="0.5" stroke="#606060" stroke-width=".5" x="0" y="0" width="60" height="60"/>
                <use id="zoomplus" xlink:href="#zoomPlus" x="17" y="9" onmousedown="handleZoom(evt,'in')"/>
                <use id="zoomminus" xlink:href="#zoomMin" x="42" y="9" onmousedown="handleZoom(evt,'out')"/>
                <use id="reset" xlink:href="#resetDef" x="30" y="36" onmousedown="handleReset()"/>
                <g id="arrowUp" xlink:href="#dirArrow" transform="translate(30 24)" onmousedown="handlePan(0,-1)">
                  <use xlink:href="#rim" fill="#404040">
                        <set attributeName="fill" to="#808080" begin="arrowUp.mouseover" end="arrowUp.mouseout"/>
                  </use>
                  <path fill="none" stroke="white" stroke-width="1.5" d="M0,-3.0v7 M-2.5,-0.5L0,-3.0L2.5,-0.5"/>
                </g>
                <g id="arrowRight" xlink:href="#dirArrow" transform="rotate(90) translate(36 -43)" onmousedown="handlePan(1,0)">
                  <use xlink:href="#rim" fill="#404040">
                        <set attributeName="fill" to="#808080" begin="arrowRight.mouseover" end="arrowRight.mouseout"/>
                  </use>
                  <path fill="none" stroke="white" stroke-width="1.5" d="M0,-3.0v7 M-2.5,-0.5L0,-3.0L2.5,-0.5"/>
                </g>
                <g id="arrowDown" xlink:href="#dirArrow" transform="rotate(180) translate(-30 -48)" onmousedown="handlePan(0,1)">
                  <use xlink:href="#rim" fill="#404040">
                        <set attributeName="fill" to="#808080" begin="arrowDown.mouseover" end="arrowDown.mouseout"/>
                  </use>
                  <path fill="none" stroke="white" stroke-width="1.5" d="M0,-3.0v7 M-2.5,-0.5L0,-3.0L2.5,-0.5"/>
                </g>
                <g id="arrowLeft" xlink:href="#dirArrow" transform="rotate(270) translate(-36 17)" onmousedown="handlePan(-1,0)">
                  <use xlink:href="#rim" fill="#404040">
                        <set attributeName="fill" to="#808080" begin="arrowLeft.mouseover" end="arrowLeft.mouseout"/>
                  </use>
                  <path fill="none" stroke="white" stroke-width="1.5" d="M0,-3.0v7 M-2.5,-0.5L0,-3.0L2.5,-0.5"/>
                </g>
        </g>
        <svg viewBox="0 0 15 15" width="100%" height="30px" preserveAspectRatio="xMaxYMin meet">
         <g id="arrow_out" transform="scale(0.3 0.3)">
          <a xlink:href="net_8c_a9c6736c0418c3adf5e7f6fb76f000cfe_icgraph_org.svg" target="_base">
           <rect id="button" ry="5" rx="5" y="6" x="6" height="38" width="38"
                fill="#f2f5e9" fill-opacity="0.5" stroke="#606060" stroke-width="1.0"/>
           <path id="arrow"
             d="M 11.500037,31.436501 C 11.940474,20.09759 22.043105,11.32322 32.158766,21.979434 L 37.068811,17.246167 C 37.068811,17.246167 37.088388,32 37.088388,32 L 22.160133,31.978069 C 22.160133,31.978069 26.997745,27.140456 26.997745,27.140456 C 18.528582,18.264221 13.291696,25.230495 11.500037,31.436501 z"
             style="fill:#404040;"/>
          </a>
         </g>
        </svg>
</svg>
