<?xml version="1.0" encoding="UTF-8" standalone="no"?>
<!DOCTYPE svg PUBLIC "-//W3C//DTD SVG 1.1//EN"
 "http://www.w3.org/Graphics/SVG/1.1/DTD/svg11.dtd">
<!-- Generated by graphviz version 2.40.1 (20161225.0304)
 -->
<!-- Title: coap_peek_next Pages: 1 -->
<svg width="2306pt" height="825pt"
 viewBox="0.00 0.00 2306.00 825.00" xmlns="http://www.w3.org/2000/svg" xmlns:xlink="http://www.w3.org/1999/xlink">
<g id="graph0" class="graph" transform="scale(1 1) rotate(0) translate(4 821)">
<title>coap_peek_next</title>
<polygon fill="#ffffff" stroke="transparent" points="-4,4 -4,-821 2302,-821 2302,4 -4,4"/>
<!-- Node904 -->
<g id="node1" class="node">
<title>Node904</title>
<polygon fill="#bfbfbf" stroke="#000000" points="0,-171.5 0,-190.5 88,-190.5 88,-171.5 0,-171.5"/>
<text text-anchor="middle" x="44" y="-178.5" font-family="Helvetica,sans-Serif" font-size="10.00" fill="#000000">coap_peek_next</text>
</g>
<!-- Node905 -->
<g id="node2" class="node">
<title>Node905</title>
<g id="a_node2"><a xlink:href="net_8h.html#aaac86ac50793f309678e4951ecf8863f" target="_top" xlink:title="For applications with their own message loop, send all pending retransmits and return the list of soc...">
<polygon fill="#ffffff" stroke="#000000" points="2108.5,-693.5 2108.5,-712.5 2172.5,-712.5 2172.5,-693.5 2108.5,-693.5"/>
<text text-anchor="middle" x="2140.5" y="-700.5" font-family="Helvetica,sans-Serif" font-size="10.00" fill="#000000">coap_write</text>
</a>
</g>
</g>
<!-- Node904&#45;&gt;Node905 -->
<g id="edge1" class="edge">
<title>Node904&#45;&gt;Node905</title>
<path fill="none" stroke="#191970" d="M48.3995,-200.534C73.03,-307.4553 197.7161,-817 337,-817 337,-817 337,-817 1901,-817 1977.2504,-817 1999.2665,-806.8886 2066,-770 2093.7077,-754.6838 2119.6732,-727.2814 2132.3693,-712.7191"/>
<polygon fill="#191970" stroke="#191970" points="51.8007,-199.7066 46.1642,-190.7355 44.9761,-201.2635 51.8007,-199.7066"/>
</g>
<!-- Node908 -->
<g id="node5" class="node">
<title>Node908</title>
<g id="a_node5"><a xlink:href="net_8h.html#a7bee391c13b539a24d9f74b2fc23e08a" target="_top" xlink:title="coap_wait_ack">
<polygon fill="#ffffff" stroke="#000000" points="136.5,-323.5 136.5,-342.5 218.5,-342.5 218.5,-323.5 136.5,-323.5"/>
<text text-anchor="middle" x="177.5" y="-330.5" font-family="Helvetica,sans-Serif" font-size="10.00" fill="#000000">coap_wait_ack</text>
</a>
</g>
</g>
<!-- Node904&#45;&gt;Node908 -->
<g id="edge4" class="edge">
<title>Node904&#45;&gt;Node908</title>
<path fill="none" stroke="#191970" d="M59.1075,-198.2011C87.3204,-230.3236 147.1476,-298.4415 169.1521,-323.4953"/>
<polygon fill="#191970" stroke="#191970" points="61.5798,-195.7121 52.351,-190.5083 56.3204,-200.3315 61.5798,-195.7121"/>
</g>
<!-- Node911 -->
<g id="node8" class="node">
<title>Node911</title>
<g id="a_node8"><a xlink:href="libcoap_8h.html#a5d1fb0b44497970b0f75fa0b38570a82" target="_top" xlink:title="coap_cleanup">
<polygon fill="#ffffff" stroke="#000000" points="2102,-363.5 2102,-382.5 2179,-382.5 2179,-363.5 2102,-363.5"/>
<text text-anchor="middle" x="2140.5" y="-370.5" font-family="Helvetica,sans-Serif" font-size="10.00" fill="#000000">coap_cleanup</text>
</a>
</g>
</g>
<!-- Node904&#45;&gt;Node911 -->
<g id="edge69" class="edge">
<title>Node904&#45;&gt;Node911</title>
<path fill="none" stroke="#191970" d="M63.4651,-165.0232C108.5616,-129.6849 224.924,-48 337,-48 337,-48 337,-48 1782,-48 1974.799,-48 2110.0362,-309.1974 2135.9686,-363.2734"/>
<polygon fill="#191970" stroke="#191970" points="61.0581,-162.4659 55.4184,-171.435 65.4204,-167.9404 61.0581,-162.4659"/>
</g>
<!-- Node940 -->
<g id="node37" class="node">
<title>Node940</title>
<g id="a_node37"><a xlink:href="net_8h.html#a696acd1012ad1c2dba081ee5bea54fd8" target="_top" xlink:title="Registers the option type type with the given context object ctx. ">
<polygon fill="#ffffff" stroke="#000000" points="124,-.5 124,-19.5 231,-19.5 231,-.5 124,-.5"/>
<text text-anchor="middle" x="177.5" y="-7.5" font-family="Helvetica,sans-Serif" font-size="10.00" fill="#000000">coap_register_option</text>
</a>
</g>
</g>
<!-- Node904&#45;&gt;Node940 -->
<g id="edge70" class="edge">
<title>Node904&#45;&gt;Node940</title>
<path fill="none" stroke="#191970" d="M49.9184,-161.8622C60.3016,-131.1371 84.5261,-70.5565 124,-34 130.5728,-27.913 138.9485,-23.1749 147.1111,-19.5776"/>
<polygon fill="#191970" stroke="#191970" points="46.582,-160.8045 46.8207,-171.3966 53.2395,-162.9675 46.582,-160.8045"/>
</g>
<!-- Node906 -->
<g id="node3" class="node">
<title>Node906</title>
<g id="a_node3"><a xlink:href="coap__io_8c.html#a75a7c93e10ca7858449ba304aad4ea37" target="_top" xlink:title="coap_run_once">
<polygon fill="#ffffff" stroke="#000000" points="2215,-712.5 2215,-731.5 2298,-731.5 2298,-712.5 2215,-712.5"/>
<text text-anchor="middle" x="2256.5" y="-719.5" font-family="Helvetica,sans-Serif" font-size="10.00" fill="#000000">coap_run_once</text>
</a>
</g>
</g>
<!-- Node905&#45;&gt;Node906 -->
<g id="edge2" class="edge">
<title>Node905&#45;&gt;Node906</title>
<path fill="none" stroke="#191970" d="M2182.6193,-709.8988C2193.036,-711.605 2204.1933,-713.4325 2214.5996,-715.137"/>
<polygon fill="#191970" stroke="#191970" points="2182.9388,-706.4046 2172.5046,-708.2421 2181.8073,-713.3126 2182.9388,-706.4046"/>
</g>
<!-- Node907 -->
<g id="node4" class="node">
<title>Node907</title>
<g id="a_node4"><a xlink:href="net_8h.html#a5854b1394bfddd574e48af116e3aaaf9" target="_top" xlink:title="Sends an RST message with code 0 for the specified request to dst. ">
<polygon fill="#ffffff" stroke="#000000" points="2216.5,-496.5 2216.5,-515.5 2296.5,-515.5 2296.5,-496.5 2216.5,-496.5"/>
<text text-anchor="middle" x="2256.5" y="-503.5" font-family="Helvetica,sans-Serif" font-size="10.00" fill="#000000">coap_send_rst</text>
</a>
</g>
</g>
<!-- Node905&#45;&gt;Node907 -->
<g id="edge3" class="edge">
<title>Node905&#45;&gt;Node907</title>
<path fill="none" stroke="#191970" d="M2169.3614,-687.7401C2172.8749,-685.1262 2176.2042,-682.2053 2179,-679 2224.4296,-626.9164 2247.477,-543.8686 2254.2928,-515.7049"/>
<polygon fill="#191970" stroke="#191970" points="2167.4059,-684.8372 2160.9938,-693.2714 2171.266,-690.6766 2167.4059,-684.8372"/>
</g>
<!-- Node908&#45;&gt;Node907 -->
<g id="edge68" class="edge">
<title>Node908&#45;&gt;Node907</title>
<path fill="none" stroke="#191970" d="M189.026,-314.9243C226.9105,-257.9704 353.9332,-86 506.5,-86 506.5,-86 506.5,-86 2017,-86 2212.5774,-86 2250.5409,-433.9214 2255.7838,-496.4386"/>
<polygon fill="#191970" stroke="#191970" points="186.0815,-313.0321 183.5387,-323.3173 191.9404,-316.8627 186.0815,-313.0321"/>
</g>
<!-- Node909 -->
<g id="node6" class="node">
<title>Node909</title>
<g id="a_node6"><a xlink:href="coap__session_8h.html#aa8b3a2da8480911b0216dad076038cb6" target="_top" xlink:title="Notify session that it has just connected or reconnected. ">
<polygon fill="#ffffff" stroke="#000000" points="769,-380.5 769,-399.5 896,-399.5 896,-380.5 769,-380.5"/>
<text text-anchor="middle" x="832.5" y="-387.5" font-family="Helvetica,sans-Serif" font-size="10.00" fill="#000000">coap_session_connected</text>
</a>
</g>
</g>
<!-- Node908&#45;&gt;Node909 -->
<g id="edge5" class="edge">
<title>Node908&#45;&gt;Node909</title>
<path fill="none" stroke="#191970" d="M227.0708,-344.7209C240.008,-347.4502 253.9762,-350.1078 267,-352 447.8761,-378.2797 663.9915,-386.4291 768.9811,-388.9228"/>
<polygon fill="#191970" stroke="#191970" points="227.4685,-341.226 216.9543,-342.53 225.9868,-348.0674 227.4685,-341.226"/>
</g>
<!-- Node919 -->
<g id="node16" class="node">
<title>Node919</title>
<g id="a_node16"><a xlink:href="coap__session_8h.html#ad3377d3198c10fa086502035ded9c268" target="_top" xlink:title="Notify session that it has failed. ">
<polygon fill="#ffffff" stroke="#000000" points="267,-323.5 267,-342.5 407,-342.5 407,-323.5 267,-323.5"/>
<text text-anchor="middle" x="337" y="-330.5" font-family="Helvetica,sans-Serif" font-size="10.00" fill="#000000">coap_session_disconnected</text>
</a>
</g>
</g>
<!-- Node908&#45;&gt;Node919 -->
<g id="edge25" class="edge">
<title>Node908&#45;&gt;Node919</title>
<path fill="none" stroke="#191970" d="M228.9389,-333C241.0643,-333 254.1931,-333 266.983,-333"/>
<polygon fill="#191970" stroke="#191970" points="228.5752,-329.5001 218.5752,-333 228.5752,-336.5001 228.5752,-329.5001"/>
</g>
<!-- Node929 -->
<g id="node26" class="node">
<title>Node929</title>
<g id="a_node26"><a xlink:href="net_8h.html#ab0b0b5db03427c4313c01ec2b12cf8ed" target="_top" xlink:title="Sends a CoAP message to given peer. ">
<polygon fill="#ffffff" stroke="#000000" points="800.5,-522.5 800.5,-541.5 864.5,-541.5 864.5,-522.5 800.5,-522.5"/>
<text text-anchor="middle" x="832.5" y="-529.5" font-family="Helvetica,sans-Serif" font-size="10.00" fill="#000000">coap_send</text>
</a>
</g>
</g>
<!-- Node908&#45;&gt;Node929 -->
<g id="edge67" class="edge">
<title>Node908&#45;&gt;Node929</title>
<path fill="none" stroke="#191970" d="M204.6812,-347.2163C222.163,-355.9913 245.5433,-367.0511 267,-375 465.0166,-448.358 713.0475,-505.8375 800.3316,-525.0689"/>
<polygon fill="#191970" stroke="#191970" points="206.1257,-344.0243 195.6256,-342.6106 202.9523,-350.2637 206.1257,-344.0243"/>
</g>
<!-- Node910 -->
<g id="node7" class="node">
<title>Node910</title>
<g id="a_node7"><a xlink:href="net_8h.html#a9900c032b74bd57f67d489484a2b3207" target="_top" xlink:title="Handles retransmissions of confirmable messages. ">
<polygon fill="#ffffff" stroke="#000000" points="1974,-376.5 1974,-395.5 2060,-395.5 2060,-376.5 1974,-376.5"/>
<text text-anchor="middle" x="2017" y="-383.5" font-family="Helvetica,sans-Serif" font-size="10.00" fill="#000000">coap_retransmit</text>
</a>
</g>
</g>
<!-- Node909&#45;&gt;Node910 -->
<g id="edge6" class="edge">
<title>Node909&#45;&gt;Node910</title>
<path fill="none" stroke="#191970" d="M870.9386,-377.3086C933.2913,-357.8825 1060.6835,-323 1171.5,-323 1171.5,-323 1171.5,-323 1782,-323 1863.5218,-323 1955.692,-358.8076 1996.12,-376.4317"/>
<polygon fill="#191970" stroke="#191970" points="869.6263,-374.0525 861.1438,-380.4005 871.7336,-380.7278 869.6263,-374.0525"/>
</g>
<!-- Node912 -->
<g id="node9" class="node">
<title>Node912</title>
<g id="a_node9"><a xlink:href="net_8c.html#ac4cbcfd073489b57805db665ce3d0681" target="_top" xlink:title="handle_signaling">
<polygon fill="#ffffff" stroke="#000000" points="965,-389.5 965,-408.5 1054,-408.5 1054,-389.5 965,-389.5"/>
<text text-anchor="middle" x="1009.5" y="-396.5" font-family="Helvetica,sans-Serif" font-size="10.00" fill="#000000">handle_signaling</text>
</a>
</g>
</g>
<!-- Node909&#45;&gt;Node912 -->
<g id="edge10" class="edge">
<title>Node909&#45;&gt;Node912</title>
<path fill="none" stroke="#191970" d="M906.6321,-393.7694C926.4095,-394.7751 947.1706,-395.8307 964.8211,-396.7282"/>
<polygon fill="#191970" stroke="#191970" points="906.5659,-390.2616 896.4011,-393.2492 906.2104,-397.2526 906.5659,-390.2616"/>
</g>
<!-- Node913 -->
<g id="node10" class="node">
<title>Node913</title>
<g id="a_node10"><a xlink:href="net_8h.html#a7bb944fc52f772655356d95724317401" target="_top" xlink:title="Dispatches the PDUs from the receive queue in given context. ">
<polygon fill="#ffffff" stroke="#000000" points="1284.5,-449.5 1284.5,-468.5 1364.5,-468.5 1364.5,-449.5 1284.5,-449.5"/>
<text text-anchor="middle" x="1324.5" y="-456.5" font-family="Helvetica,sans-Serif" font-size="10.00" fill="#000000">coap_dispatch</text>
</a>
</g>
</g>
<!-- Node909&#45;&gt;Node913 -->
<g id="edge24" class="edge">
<title>Node909&#45;&gt;Node913</title>
<path fill="none" stroke="#191970" d="M903.5486,-379.2565C985.2012,-369.7984 1121.968,-362.9116 1231,-402 1262.6758,-413.3559 1295.2469,-436.2571 1312.3329,-449.3101"/>
<polygon fill="#191970" stroke="#191970" points="902.8906,-375.8104 893.3807,-380.4808 903.7274,-382.7602 902.8906,-375.8104"/>
</g>
<!-- Node910&#45;&gt;Node905 -->
<g id="edge7" class="edge">
<title>Node910&#45;&gt;Node905</title>
<path fill="none" stroke="#191970" d="M2024.5213,-405.3058C2048.0079,-465.5912 2119.446,-648.9585 2136.7131,-693.2799"/>
<polygon fill="#191970" stroke="#191970" points="2027.723,-403.8821 2020.8315,-395.8348 2021.2005,-406.4232 2027.723,-403.8821"/>
</g>
<!-- Node910&#45;&gt;Node907 -->
<g id="edge9" class="edge">
<title>Node910&#45;&gt;Node907</title>
<path fill="none" stroke="#191970" d="M2069.912,-395.7114C2102.791,-403.2341 2145.1007,-415.6945 2179,-435 2208.176,-451.6156 2235.4481,-481.025 2248.4808,-496.2534"/>
<polygon fill="#191970" stroke="#191970" points="2070.5497,-392.268 2060.0306,-393.5331 2069.0427,-399.1038 2070.5497,-392.268"/>
</g>
<!-- Node910&#45;&gt;Node911 -->
<g id="edge8" class="edge">
<title>Node910&#45;&gt;Node911</title>
<path fill="none" stroke="#191970" d="M2070.1865,-380.4014C2080.7611,-379.2883 2091.6773,-378.1392 2101.6622,-377.0882"/>
<polygon fill="#191970" stroke="#191970" points="2069.7729,-376.9255 2060.1943,-381.4532 2070.5058,-383.8871 2069.7729,-376.9255"/>
</g>
<!-- Node912&#45;&gt;Node913 -->
<g id="edge11" class="edge">
<title>Node912&#45;&gt;Node913</title>
<path fill="none" stroke="#191970" d="M1064.3975,-400.9893C1109.6389,-403.5687 1175.1993,-409.4787 1231,-423 1257.0338,-429.3083 1285.5812,-441.0546 1304.197,-449.4133"/>
<polygon fill="#191970" stroke="#191970" points="1064.3818,-397.4835 1054.2094,-400.4451 1064.0084,-404.4736 1064.3818,-397.4835"/>
</g>
<!-- Node913&#45;&gt;Node907 -->
<g id="edge23" class="edge">
<title>Node913&#45;&gt;Node907</title>
<path fill="none" stroke="#191970" d="M1360.3065,-471.8874C1416.968,-491.0955 1531.1272,-525 1631,-525 1631,-525 1631,-525 2017,-525 2087.2822,-525 2168.8034,-516.7686 2216.32,-511.1417"/>
<polygon fill="#191970" stroke="#191970" points="1361.3324,-468.5391 1350.7378,-468.597 1359.0561,-475.1586 1361.3324,-468.5391"/>
</g>
<!-- Node914 -->
<g id="node11" class="node">
<title>Node914</title>
<g id="a_node11"><a xlink:href="net_8c.html#acd36f6fba6d30ab9557e0e6521f4a088" target="_top" xlink:title="coap_read_session">
<polygon fill="#ffffff" stroke="#000000" points="1731.5,-389.5 1731.5,-408.5 1832.5,-408.5 1832.5,-389.5 1731.5,-389.5"/>
<text text-anchor="middle" x="1782" y="-396.5" font-family="Helvetica,sans-Serif" font-size="10.00" fill="#000000">coap_read_session</text>
</a>
</g>
</g>
<!-- Node913&#45;&gt;Node914 -->
<g id="edge12" class="edge">
<title>Node913&#45;&gt;Node914</title>
<path fill="none" stroke="#191970" d="M1374.8203,-448.2471C1388.7753,-445.409 1403.9508,-442.4558 1418,-440 1484.3735,-428.3978 1501.0815,-425.8715 1568,-418 1623.7505,-411.4421 1687.9123,-406.0282 1731.3273,-402.6797"/>
<polygon fill="#191970" stroke="#191970" points="1373.9987,-444.8428 1364.9082,-450.2847 1375.4082,-451.6994 1373.9987,-444.8428"/>
</g>
<!-- Node916 -->
<g id="node13" class="node">
<title>Node916</title>
<g id="a_node13"><a xlink:href="net_8h.html#ae6b8ca457dd41f23372f9e9a7159312b" target="_top" xlink:title="Parses and interprets a CoAP datagram with context ctx. ">
<polygon fill="#ffffff" stroke="#000000" points="1423,-449.5 1423,-468.5 1527,-468.5 1527,-449.5 1423,-449.5"/>
<text text-anchor="middle" x="1475" y="-456.5" font-family="Helvetica,sans-Serif" font-size="10.00" fill="#000000">coap_handle_dgram</text>
</a>
</g>
</g>
<!-- Node913&#45;&gt;Node916 -->
<g id="edge17" class="edge">
<title>Node913&#45;&gt;Node916</title>
<path fill="none" stroke="#191970" d="M1375.1901,-459C1390.5601,-459 1407.4655,-459 1422.9249,-459"/>
<polygon fill="#191970" stroke="#191970" points="1374.8313,-455.5001 1364.8312,-459 1374.8312,-462.5001 1374.8313,-455.5001"/>
</g>
<!-- Node915 -->
<g id="node12" class="node">
<title>Node915</title>
<g id="a_node12"><a xlink:href="net_8h.html#a0748d791fd2af516dd93fbadb660d440" target="_top" xlink:title="For applications with their own message loop, reads all data from the network. ">
<polygon fill="#ffffff" stroke="#000000" points="1870,-389.5 1870,-408.5 1932,-408.5 1932,-389.5 1870,-389.5"/>
<text text-anchor="middle" x="1901" y="-396.5" font-family="Helvetica,sans-Serif" font-size="10.00" fill="#000000">coap_read</text>
</a>
</g>
</g>
<!-- Node914&#45;&gt;Node915 -->
<g id="edge13" class="edge">
<title>Node914&#45;&gt;Node915</title>
<path fill="none" stroke="#191970" d="M1842.949,-399C1852.3142,-399 1861.6315,-399 1869.9721,-399"/>
<polygon fill="#191970" stroke="#191970" points="1842.8119,-395.5001 1832.8119,-399 1842.8119,-402.5001 1842.8119,-395.5001"/>
</g>
<!-- Node915&#45;&gt;Node906 -->
<g id="edge14" class="edge">
<title>Node915&#45;&gt;Node906</title>
<path fill="none" stroke="#191970" d="M1904.46,-418.6592C1911.6351,-455.5946 1930.6704,-536.8628 1968,-595 2012.334,-664.0459 2025.7779,-691.6185 2102,-722 2138.129,-736.4007 2182.8967,-734.4881 2214.9263,-730.1222"/>
<polygon fill="#191970" stroke="#191970" points="1907.8763,-417.886 1902.6069,-408.6945 1900.9943,-419.1659 1907.8763,-417.886"/>
</g>
<!-- Node915&#45;&gt;Node907 -->
<g id="edge16" class="edge">
<title>Node915&#45;&gt;Node907</title>
<path fill="none" stroke="#191970" d="M1942.3055,-408.0529C1997.0873,-420.4984 2096.4752,-444.6083 2179,-473 2198.7745,-479.8032 2220.6393,-489.3028 2236.0889,-496.3637"/>
<polygon fill="#191970" stroke="#191970" points="1942.8108,-404.5791 1932.2858,-405.7939 1941.2712,-411.4077 1942.8108,-404.5791"/>
</g>
<!-- Node915&#45;&gt;Node910 -->
<g id="edge15" class="edge">
<title>Node915&#45;&gt;Node910</title>
<path fill="none" stroke="#191970" d="M1942.3342,-394.3677C1952.4829,-393.2304 1963.3756,-392.0096 1973.6177,-390.8618"/>
<polygon fill="#191970" stroke="#191970" points="1941.6338,-390.9242 1932.0859,-395.5162 1942.4135,-397.8807 1941.6338,-390.9242"/>
</g>
<!-- Node916&#45;&gt;Node907 -->
<g id="edge22" class="edge">
<title>Node916&#45;&gt;Node907</title>
<path fill="none" stroke="#191970" d="M1537.0105,-467.9918C1598.9122,-476.1797 1696.8282,-487 1782,-487 1782,-487 1782,-487 2017,-487 2087.2822,-487 2168.8034,-495.2314 2216.32,-500.8583"/>
<polygon fill="#191970" stroke="#191970" points="1537.3921,-464.5117 1527.0155,-466.6511 1536.4614,-471.4496 1537.3921,-464.5117"/>
</g>
<!-- Node917 -->
<g id="node14" class="node">
<title>Node917</title>
<g id="a_node14"><a xlink:href="net_8c.html#a8534f7860b14e0743529daff196a27ce" target="_top" xlink:title="coap_handle_dgram_for\l_proto">
<polygon fill="#ffffff" stroke="#000000" points="1571,-428 1571,-458 1691,-458 1691,-428 1571,-428"/>
<text text-anchor="start" x="1579" y="-446" font-family="Helvetica,sans-Serif" font-size="10.00" fill="#000000">coap_handle_dgram_for</text>
<text text-anchor="middle" x="1631" y="-435" font-family="Helvetica,sans-Serif" font-size="10.00" fill="#000000">_proto</text>
</a>
</g>
</g>
<!-- Node916&#45;&gt;Node917 -->
<g id="edge18" class="edge">
<title>Node916&#45;&gt;Node917</title>
<path fill="none" stroke="#191970" d="M1537.3899,-452.601C1548.453,-451.4664 1559.9529,-450.2869 1570.9496,-449.159"/>
<polygon fill="#191970" stroke="#191970" points="1536.9704,-449.1256 1527.3797,-453.6277 1537.6847,-456.0891 1536.9704,-449.1256"/>
</g>
<!-- Node917&#45;&gt;Node914 -->
<g id="edge19" class="edge">
<title>Node917&#45;&gt;Node914</title>
<path fill="none" stroke="#191970" d="M1692.2652,-425.1479C1711.7188,-419.4793 1732.4807,-413.4295 1749.1291,-408.5783"/>
<polygon fill="#191970" stroke="#191970" points="1691.1648,-421.8229 1682.5433,-427.9808 1693.1232,-428.5434 1691.1648,-421.8229"/>
</g>
<!-- Node918 -->
<g id="node15" class="node">
<title>Node918</title>
<g id="a_node15"><a xlink:href="net_8c.html#a44ffb4b70e537043e9a9cf344be24b92" target="_top" xlink:title="coap_read_endpoint">
<polygon fill="#ffffff" stroke="#000000" points="1730,-430.5 1730,-449.5 1834,-449.5 1834,-430.5 1730,-430.5"/>
<text text-anchor="middle" x="1782" y="-437.5" font-family="Helvetica,sans-Serif" font-size="10.00" fill="#000000">coap_read_endpoint</text>
</a>
</g>
</g>
<!-- Node917&#45;&gt;Node918 -->
<g id="edge20" class="edge">
<title>Node917&#45;&gt;Node918</title>
<path fill="none" stroke="#191970" d="M1701.1329,-441.6066C1710.8148,-441.4143 1720.615,-441.2196 1729.8923,-441.0353"/>
<polygon fill="#191970" stroke="#191970" points="1701.0415,-438.1077 1691.1131,-441.8057 1701.1807,-445.1063 1701.0415,-438.1077"/>
</g>
<!-- Node918&#45;&gt;Node915 -->
<g id="edge21" class="edge">
<title>Node918&#45;&gt;Node915</title>
<path fill="none" stroke="#191970" d="M1819.4421,-427.0998C1836.8251,-421.1107 1857.1341,-414.1135 1873.1374,-408.5997"/>
<polygon fill="#191970" stroke="#191970" points="1817.9145,-423.9241 1809.6001,-430.4907 1820.1948,-430.5423 1817.9145,-423.9241"/>
</g>
<!-- Node919&#45;&gt;Node905 -->
<g id="edge26" class="edge">
<title>Node919&#45;&gt;Node905</title>
<path fill="none" stroke="#191970" d="M354.4681,-349.6274C422.9336,-413.6987 682.0836,-646.0284 943,-747 1038.6352,-784.0097 1068.9534,-779 1171.5,-779 1171.5,-779 1171.5,-779 1901,-779 1987.81,-779 2084.3787,-733.076 2123.0782,-712.6255"/>
<polygon fill="#191970" stroke="#191970" points="356.7567,-346.9749 347.0767,-342.6681 351.9581,-352.0714 356.7567,-346.9749"/>
</g>
<!-- Node919&#45;&gt;Node912 -->
<g id="edge66" class="edge">
<title>Node919&#45;&gt;Node912</title>
<path fill="none" stroke="#191970" d="M372.7434,-345.7564C393.109,-352.6115 419.2317,-360.7164 443,-366 645.1709,-410.9419 700.1389,-419.0669 907,-409 926.0193,-408.0744 946.9535,-406.1883 964.9177,-404.301"/>
<polygon fill="#191970" stroke="#191970" points="373.8383,-342.4319 363.2438,-342.5093 371.5743,-349.0556 373.8383,-342.4319"/>
</g>
<!-- Node919&#45;&gt;Node914 -->
<g id="edge65" class="edge">
<title>Node919&#45;&gt;Node914</title>
<path fill="none" stroke="#191970" d="M417.2775,-336.3492C425.9582,-336.616 434.6625,-336.8427 443,-337 499.4344,-338.0644 513.5604,-337.7425 570,-337 637.5731,-336.111 654.4451,-334.8018 722,-333 804.223,-330.807 825.1116,-335.7278 907,-328 1025.5721,-316.8104 1052.4011,-285 1171.5,-285 1171.5,-285 1171.5,-285 1324.5,-285 1496.8065,-285 1695.0748,-362.0778 1760.1099,-389.4765"/>
<polygon fill="#191970" stroke="#191970" points="417.2299,-332.8459 407.1215,-336.0194 417.0027,-339.8422 417.2299,-332.8459"/>
</g>
<!-- Node920 -->
<g id="node17" class="node">
<title>Node920</title>
<g id="a_node17"><a xlink:href="coap__session_8h.html#a2f455ec1572982a5ae404beac0cfbd53" target="_top" xlink:title="Notify session transport has just connected and CSM exchange can now start. ">
<polygon fill="#ffffff" stroke="#000000" points="443,-247.5 443,-266.5 570,-266.5 570,-247.5 443,-247.5"/>
<text text-anchor="middle" x="506.5" y="-254.5" font-family="Helvetica,sans-Serif" font-size="10.00" fill="#000000">coap_session_send_csm</text>
</a>
</g>
</g>
<!-- Node919&#45;&gt;Node920 -->
<g id="edge27" class="edge">
<title>Node919&#45;&gt;Node920</title>
<path fill="none" stroke="#191970" d="M367.9159,-319.138C401.9113,-303.8952 455.6267,-279.8104 485.207,-266.5473"/>
<polygon fill="#191970" stroke="#191970" points="366.1601,-316.0895 358.4673,-323.3745 369.024,-322.4768 366.1601,-316.0895"/>
</g>
<!-- Node928 -->
<g id="node25" class="node">
<title>Node928</title>
<g id="a_node25"><a xlink:href="net_8c.html#a0c600aed61c8a8402d31ef795df3b0b6" target="_top" xlink:title="coap_send_pdu">
<polygon fill="#ffffff" stroke="#000000" points="621.5,-304.5 621.5,-323.5 706.5,-323.5 706.5,-304.5 621.5,-304.5"/>
<text text-anchor="middle" x="664" y="-311.5" font-family="Helvetica,sans-Serif" font-size="10.00" fill="#000000">coap_send_pdu</text>
</a>
</g>
</g>
<!-- Node919&#45;&gt;Node928 -->
<g id="edge63" class="edge">
<title>Node919&#45;&gt;Node928</title>
<path fill="none" stroke="#191970" d="M417.2908,-328.3348C481.7955,-324.5868 569.8588,-319.47 621.4562,-316.472"/>
<polygon fill="#191970" stroke="#191970" points="416.9298,-324.8498 407.1497,-328.924 417.3359,-331.838 416.9298,-324.8498"/>
</g>
<!-- Node939 -->
<g id="node36" class="node">
<title>Node939</title>
<g id="a_node36"><a xlink:href="net_8c.html#a9e7c7fc083799c942c9c44ebc190c833" target="_top" xlink:title="coap_connect_session">
<polygon fill="#ffffff" stroke="#000000" points="606,-171.5 606,-190.5 722,-190.5 722,-171.5 606,-171.5"/>
<text text-anchor="middle" x="664" y="-178.5" font-family="Helvetica,sans-Serif" font-size="10.00" fill="#000000">coap_connect_session</text>
</a>
</g>
</g>
<!-- Node919&#45;&gt;Node939 -->
<g id="edge64" class="edge">
<title>Node919&#45;&gt;Node939</title>
<path fill="none" stroke="#191970" d="M351.596,-315.5632C370.4987,-294.1128 405.4959,-258.08 443,-238 494.3499,-210.5068 559.5974,-195.7934 605.8504,-188.2482"/>
<polygon fill="#191970" stroke="#191970" points="348.8348,-313.4058 344.951,-323.2631 354.1342,-317.9792 348.8348,-313.4058"/>
</g>
<!-- Node921 -->
<g id="node18" class="node">
<title>Node921</title>
<g id="a_node18"><a xlink:href="coap__session_8c.html#acec64026a2b3309e97075951dc52c2a1" target="_top" xlink:title="coap_session_connect">
<polygon fill="#ffffff" stroke="#000000" points="606,-247.5 606,-266.5 722,-266.5 722,-247.5 606,-247.5"/>
<text text-anchor="middle" x="664" y="-254.5" font-family="Helvetica,sans-Serif" font-size="10.00" fill="#000000">coap_session_connect</text>
</a>
</g>
</g>
<!-- Node920&#45;&gt;Node921 -->
<g id="edge28" class="edge">
<title>Node920&#45;&gt;Node921</title>
<path fill="none" stroke="#191970" d="M580.135,-257C588.7301,-257 597.4067,-257 605.7531,-257"/>
<polygon fill="#191970" stroke="#191970" points="580.1073,-253.5001 570.1073,-257 580.1073,-260.5001 580.1073,-253.5001"/>
</g>
<!-- Node925 -->
<g id="node22" class="node">
<title>Node925</title>
<g id="a_node22"><a xlink:href="coap__session_8c.html#ac79f1143af9580a441d31796cf81f108" target="_top" xlink:title="coap_session_accept">
<polygon fill="#ffffff" stroke="#000000" points="608.5,-209.5 608.5,-228.5 719.5,-228.5 719.5,-209.5 608.5,-209.5"/>
<text text-anchor="middle" x="664" y="-216.5" font-family="Helvetica,sans-Serif" font-size="10.00" fill="#000000">coap_session_accept</text>
</a>
</g>
</g>
<!-- Node920&#45;&gt;Node925 -->
<g id="edge32" class="edge">
<title>Node920&#45;&gt;Node925</title>
<path fill="none" stroke="#191970" d="M556.1041,-245.032C578.1753,-239.7069 603.8027,-233.5238 624.5419,-228.5201"/>
<polygon fill="#191970" stroke="#191970" points="555.1441,-241.6631 546.2439,-247.411 556.7859,-248.4679 555.1441,-241.6631"/>
</g>
<!-- Node920&#45;&gt;Node928 -->
<g id="edge36" class="edge">
<title>Node920&#45;&gt;Node928</title>
<path fill="none" stroke="#191970" d="M542.602,-270.0655C571.5524,-280.5428 611.5141,-295.0051 637.552,-304.4284"/>
<polygon fill="#191970" stroke="#191970" points="543.4562,-266.6525 532.862,-266.5405 541.074,-273.2347 543.4562,-266.6525"/>
</g>
<!-- Node920&#45;&gt;Node939 -->
<g id="edge61" class="edge">
<title>Node920&#45;&gt;Node939</title>
<path fill="none" stroke="#191970" d="M529.7736,-241.8537C549.4993,-229.465 578.8325,-212.0801 606,-200 613.9392,-196.4698 622.7432,-193.2517 631.0433,-190.508"/>
<polygon fill="#191970" stroke="#191970" points="527.7323,-239.004 521.1713,-247.3229 531.488,-244.9112 527.7323,-239.004"/>
</g>
<!-- Node922 -->
<g id="node19" class="node">
<title>Node922</title>
<g id="a_node19"><a xlink:href="coap__session_8h.html#ad495fcd405fa86859fa36d45f89be910" target="_top" xlink:title="Creates a new client session to the designated server. ">
<polygon fill="#ffffff" stroke="#000000" points="768.5,-190.5 768.5,-209.5 896.5,-209.5 896.5,-190.5 768.5,-190.5"/>
<text text-anchor="middle" x="832.5" y="-197.5" font-family="Helvetica,sans-Serif" font-size="10.00" fill="#000000">coap_new_client_session</text>
</a>
</g>
</g>
<!-- Node921&#45;&gt;Node922 -->
<g id="edge29" class="edge">
<title>Node921&#45;&gt;Node922</title>
<path fill="none" stroke="#191970" d="M706.1684,-244.1176C711.5485,-242.2025 716.9396,-240.146 722,-238 738.6558,-230.9365 741.1174,-225.5028 758,-219 767.4665,-215.3537 777.8784,-212.1978 787.8399,-209.5625"/>
<polygon fill="#191970" stroke="#191970" points="704.8991,-240.8526 696.5702,-247.4009 707.1647,-247.4759 704.8991,-240.8526"/>
</g>
<!-- Node923 -->
<g id="node20" class="node">
<title>Node923</title>
<g id="a_node20"><a xlink:href="coap__session_8h.html#a40790c70df0b38fe89f3fb2ad255d662" target="_top" xlink:title="Creates a new client session to the designated server with PSK credentials. ">
<polygon fill="#ffffff" stroke="#000000" points="758,-266.5 758,-285.5 907,-285.5 907,-266.5 758,-266.5"/>
<text text-anchor="middle" x="832.5" y="-273.5" font-family="Helvetica,sans-Serif" font-size="10.00" fill="#000000">coap_new_client_session_psk</text>
</a>
</g>
</g>
<!-- Node921&#45;&gt;Node923 -->
<g id="edge30" class="edge">
<title>Node921&#45;&gt;Node923</title>
<path fill="none" stroke="#191970" d="M732.5035,-264.7244C740.8429,-265.6648 749.3957,-266.6292 757.8193,-267.579"/>
<polygon fill="#191970" stroke="#191970" points="732.7895,-261.2346 722.4602,-263.592 732.0051,-268.1905 732.7895,-261.2346"/>
</g>
<!-- Node924 -->
<g id="node21" class="node">
<title>Node924</title>
<g id="a_node21"><a xlink:href="coap__session_8h.html#a90f2df37ae4204189027c01604ddfe50" target="_top" xlink:title="Creates a new client session to the designated server with PKI credentials. ">
<polygon fill="#ffffff" stroke="#000000" points="759.5,-228.5 759.5,-247.5 905.5,-247.5 905.5,-228.5 759.5,-228.5"/>
<text text-anchor="middle" x="832.5" y="-235.5" font-family="Helvetica,sans-Serif" font-size="10.00" fill="#000000">coap_new_client_session_pki</text>
</a>
</g>
</g>
<!-- Node921&#45;&gt;Node924 -->
<g id="edge31" class="edge">
<title>Node921&#45;&gt;Node924</title>
<path fill="none" stroke="#191970" d="M732.641,-249.2601C741.4258,-248.2695 750.4452,-247.2525 759.2989,-246.2541"/>
<polygon fill="#191970" stroke="#191970" points="732.0051,-245.8095 722.4602,-250.408 732.7895,-252.7654 732.0051,-245.8095"/>
</g>
<!-- Node926 -->
<g id="node23" class="node">
<title>Node926</title>
<g id="a_node23"><a xlink:href="coap__session_8h.html#aadffd66ead18cd2eba0b19efe92a3d88" target="_top" xlink:title="Creates a new server session for the specified endpoint. ">
<polygon fill="#ffffff" stroke="#000000" points="766.5,-152.5 766.5,-171.5 898.5,-171.5 898.5,-152.5 766.5,-152.5"/>
<text text-anchor="middle" x="832.5" y="-159.5" font-family="Helvetica,sans-Serif" font-size="10.00" fill="#000000">coap_new_server_session</text>
</a>
</g>
</g>
<!-- Node925&#45;&gt;Node926 -->
<g id="edge33" class="edge">
<title>Node925&#45;&gt;Node926</title>
<path fill="none" stroke="#191970" d="M706.1684,-206.1176C711.5485,-204.2025 716.9396,-202.146 722,-200 738.6558,-192.9365 741.1174,-187.5028 758,-181 767.4665,-177.3537 777.8784,-174.1978 787.8399,-171.5625"/>
<polygon fill="#191970" stroke="#191970" points="704.8991,-202.8526 696.5702,-209.4009 707.1647,-209.4759 704.8991,-202.8526"/>
</g>
<!-- Node927 -->
<g id="node24" class="node">
<title>Node927</title>
<g id="a_node24"><a xlink:href="net_8c.html#a7437c90770ffd13685e6a77799b4753b" target="_top" xlink:title="coap_accept_endpoint">
<polygon fill="#ffffff" stroke="#000000" points="1418,-175.5 1418,-194.5 1532,-194.5 1532,-175.5 1418,-175.5"/>
<text text-anchor="middle" x="1475" y="-182.5" font-family="Helvetica,sans-Serif" font-size="10.00" fill="#000000">coap_accept_endpoint</text>
</a>
</g>
</g>
<!-- Node926&#45;&gt;Node927 -->
<g id="edge34" class="edge">
<title>Node926&#45;&gt;Node927</title>
<path fill="none" stroke="#191970" d="M908.8338,-164.7326C1039.2032,-169.3995 1301.8957,-178.8033 1417.814,-182.9529"/>
<polygon fill="#191970" stroke="#191970" points="908.6577,-161.2241 898.5388,-164.364 908.4072,-168.2196 908.6577,-161.2241"/>
</g>
<!-- Node927&#45;&gt;Node915 -->
<g id="edge35" class="edge">
<title>Node927&#45;&gt;Node915</title>
<path fill="none" stroke="#191970" d="M1503.2059,-199.1692C1583.8618,-239.6864 1814.0186,-355.3051 1881.9208,-389.4156"/>
<polygon fill="#191970" stroke="#191970" points="1504.6389,-195.9723 1494.1319,-194.6109 1501.4967,-202.2274 1504.6389,-195.9723"/>
</g>
<!-- Node928&#45;&gt;Node910 -->
<g id="edge60" class="edge">
<title>Node928&#45;&gt;Node910</title>
<path fill="none" stroke="#191970" d="M716.8294,-311.4184C766.1606,-308.6413 841.7668,-303.4472 907,-295 1025.4863,-279.6569 1052.0244,-247 1171.5,-247 1171.5,-247 1171.5,-247 1782,-247 1883.9127,-247 1980.3982,-345.0419 2008.6897,-376.446"/>
<polygon fill="#191970" stroke="#191970" points="716.5073,-307.9307 706.7146,-311.9746 716.8917,-314.9202 716.5073,-307.9307"/>
</g>
<!-- Node928&#45;&gt;Node929 -->
<g id="edge37" class="edge">
<title>Node928&#45;&gt;Node929</title>
<path fill="none" stroke="#191970" d="M677.6881,-331.7092C711.6981,-375.7103 799.1653,-488.8727 825.1285,-522.4629"/>
<polygon fill="#191970" stroke="#191970" points="680.3424,-329.4201 671.4577,-323.6485 674.804,-333.701 680.3424,-329.4201"/>
</g>
<!-- Node929&#45;&gt;Node907 -->
<g id="edge58" class="edge">
<title>Node929&#45;&gt;Node907</title>
<path fill="none" stroke="#191970" d="M845.6647,-549.8143C864.3021,-573.4082 900.8428,-614.0142 943,-631 1338.175,-790.2225 1474.9542,-665 1901,-665 1901,-665 1901,-665 2017,-665 2094.0929,-665 2116.7569,-648.4874 2179,-603 2212.9363,-578.1993 2240.1395,-534.9 2251.1766,-515.6733"/>
<polygon fill="#191970" stroke="#191970" points="848.2912,-547.488 839.424,-541.6894 842.7398,-551.752 848.2912,-547.488"/>
</g>
<!-- Node929&#45;&gt;Node912 -->
<g id="edge56" class="edge">
<title>Node929&#45;&gt;Node912</title>
<path fill="none" stroke="#191970" d="M846.2246,-514.3138C865.5033,-490.5448 902.7757,-448.3567 943,-423 952.5525,-416.9783 963.8276,-412.1851 974.3536,-408.5151"/>
<polygon fill="#191970" stroke="#191970" points="843.2388,-512.4448 839.7482,-522.4481 848.7151,-516.8049 843.2388,-512.4448"/>
</g>
<!-- Node929&#45;&gt;Node913 -->
<g id="edge57" class="edge">
<title>Node929&#45;&gt;Node913</title>
<path fill="none" stroke="#191970" d="M854.8464,-517.022C876.4281,-503.3635 910.5287,-483.8575 943,-474 1062.8744,-437.6091 1213.6869,-446.7757 1284.4167,-454.0666"/>
<polygon fill="#191970" stroke="#191970" points="852.9074,-514.1078 846.4049,-522.4725 856.7044,-519.9885 852.9074,-514.1078"/>
</g>
<!-- Node930 -->
<g id="node27" class="node">
<title>Node930</title>
<g id="a_node27"><a xlink:href="coap__session_8h.html#ab3f9f60c0a4857c147fef5721025944c" target="_top" xlink:title="Send a ping message for the session. ">
<polygon fill="#ffffff" stroke="#000000" points="1568,-722.5 1568,-741.5 1694,-741.5 1694,-722.5 1568,-722.5"/>
<text text-anchor="middle" x="1631" y="-729.5" font-family="Helvetica,sans-Serif" font-size="10.00" fill="#000000">coap_session_send_ping</text>
</a>
</g>
</g>
<!-- Node929&#45;&gt;Node930 -->
<g id="edge38" class="edge">
<title>Node929&#45;&gt;Node930</title>
<path fill="none" stroke="#191970" d="M844.392,-550.2334C859.395,-573.4068 885.7968,-614.758 907,-651 923.8728,-679.8401 915.1994,-698.4644 943,-717 1027.9615,-773.6467 1069.3858,-741 1171.5,-741 1171.5,-741 1171.5,-741 1324.5,-741 1408.744,-741 1505.9566,-737.5609 1567.9125,-734.9345"/>
<polygon fill="#191970" stroke="#191970" points="847.2652,-548.2314 838.8833,-541.7511 841.3946,-552.044 847.2652,-548.2314"/>
</g>
<!-- Node931 -->
<g id="node28" class="node">
<title>Node931</title>
<g id="a_node28"><a xlink:href="net_8h.html#aba278b109415057d15196fa46afee970" target="_top" xlink:title="Sends an ACK message with code 0 for the specified request to dst. ">
<polygon fill="#ffffff" stroke="#000000" points="967,-503.5 967,-522.5 1052,-522.5 1052,-503.5 967,-503.5"/>
<text text-anchor="middle" x="1009.5" y="-510.5" font-family="Helvetica,sans-Serif" font-size="10.00" fill="#000000">coap_send_ack</text>
</a>
</g>
</g>
<!-- Node929&#45;&gt;Node931 -->
<g id="edge40" class="edge">
<title>Node929&#45;&gt;Node931</title>
<path fill="none" stroke="#191970" d="M874.7543,-527.4642C902.5428,-524.4813 938.7911,-520.5902 966.6912,-517.5953"/>
<polygon fill="#191970" stroke="#191970" points="874.1227,-524.0118 864.5534,-528.5592 874.8698,-530.9718 874.1227,-524.0118"/>
</g>
<!-- Node934 -->
<g id="node31" class="node">
<title>Node934</title>
<g id="a_node31"><a xlink:href="resource_8c.html#ae1a91e254baca4f43b7896f54a8d9944" target="_top" xlink:title="coap_notify_observers">
<polygon fill="#ffffff" stroke="#000000" points="1267,-566.5 1267,-585.5 1382,-585.5 1382,-566.5 1267,-566.5"/>
<text text-anchor="middle" x="1324.5" y="-573.5" font-family="Helvetica,sans-Serif" font-size="10.00" fill="#000000">coap_notify_observers</text>
</a>
</g>
</g>
<!-- Node929&#45;&gt;Node934 -->
<g id="edge59" class="edge">
<title>Node929&#45;&gt;Node934</title>
<path fill="none" stroke="#191970" d="M849.4993,-548.696C869.7853,-567.3351 905.6738,-596.4029 943,-608 1069.9445,-647.441 1231.3873,-605.7242 1295.9441,-585.5858"/>
<polygon fill="#191970" stroke="#191970" points="851.7157,-545.9753 842.04,-541.6588 846.9121,-551.067 851.7157,-545.9753"/>
</g>
<!-- Node936 -->
<g id="node33" class="node">
<title>Node936</title>
<g id="a_node33"><a xlink:href="net_8h.html#ab31cd76353f751ec4dc5c033152df575" target="_top" xlink:title="Sends an error response with code code for request request to dst. ">
<polygon fill="#ffffff" stroke="#000000" points="965,-541.5 965,-560.5 1054,-560.5 1054,-541.5 965,-541.5"/>
<text text-anchor="middle" x="1009.5" y="-548.5" font-family="Helvetica,sans-Serif" font-size="10.00" fill="#000000">coap_send_error</text>
</a>
</g>
</g>
<!-- Node929&#45;&gt;Node936 -->
<g id="edge48" class="edge">
<title>Node929&#45;&gt;Node936</title>
<path fill="none" stroke="#191970" d="M874.5319,-536.5119C901.6951,-539.4277 937.011,-543.2187 964.7041,-546.1914"/>
<polygon fill="#191970" stroke="#191970" points="874.8698,-533.0282 864.5534,-535.4408 874.1227,-539.9882 874.8698,-533.0282"/>
</g>
<!-- Node937 -->
<g id="node34" class="node">
<title>Node937</title>
<g id="a_node34"><a xlink:href="net_8h.html#a6aa830b46188549b51773f724eb8e752" target="_top" xlink:title="Helper funktion to create and send a message with type (usually ACK or RST). ">
<polygon fill="#ffffff" stroke="#000000" points="943,-579.5 943,-598.5 1076,-598.5 1076,-579.5 943,-579.5"/>
<text text-anchor="middle" x="1009.5" y="-586.5" font-family="Helvetica,sans-Serif" font-size="10.00" fill="#000000">coap_send_message_type</text>
</a>
</g>
</g>
<!-- Node929&#45;&gt;Node937 -->
<g id="edge50" class="edge">
<title>Node929&#45;&gt;Node937</title>
<path fill="none" stroke="#191970" d="M868.8567,-545.045C890.3331,-552.6148 918.1079,-562.1699 943,-570 953.3084,-573.2426 964.5879,-576.5536 974.8816,-579.4841"/>
<polygon fill="#191970" stroke="#191970" points="869.7582,-541.6513 859.1635,-541.6126 867.4216,-548.2498 869.7582,-541.6513"/>
</g>
<!-- Node938 -->
<g id="node35" class="node">
<title>Node938</title>
<g id="a_node35"><a xlink:href="net_8c.html#a1a280312c4bad55cf10243b9b9c3e966" target="_top" xlink:title="handle_request">
<polygon fill="#ffffff" stroke="#000000" points="1130,-465.5 1130,-484.5 1213,-484.5 1213,-465.5 1130,-465.5"/>
<text text-anchor="middle" x="1171.5" y="-472.5" font-family="Helvetica,sans-Serif" font-size="10.00" fill="#000000">handle_request</text>
</a>
</g>
</g>
<!-- Node929&#45;&gt;Node938 -->
<g id="edge54" class="edge">
<title>Node929&#45;&gt;Node938</title>
<path fill="none" stroke="#191970" d="M864.2936,-518.7079C886.0604,-510.1981 915.798,-499.7152 943,-494 1007.2782,-480.4949 1083.6214,-476.5057 1129.7745,-475.3762"/>
<polygon fill="#191970" stroke="#191970" points="862.8851,-515.5015 854.8913,-522.4548 865.4765,-522.0042 862.8851,-515.5015"/>
</g>
<!-- Node930&#45;&gt;Node905 -->
<g id="edge39" class="edge">
<title>Node930&#45;&gt;Node905</title>
<path fill="none" stroke="#191970" d="M1704.5026,-727.8163C1817.2003,-721.4018 2028.0615,-709.3998 2108.3439,-704.8303"/>
<polygon fill="#191970" stroke="#191970" points="1704.0267,-724.3377 1694.2418,-728.4004 1704.4246,-731.3264 1704.0267,-724.3377"/>
</g>
<!-- Node932 -->
<g id="node29" class="node">
<title>Node932</title>
<g id="a_node29"><a xlink:href="net_8c.html#af838d89087ad96495f8ed7f1a9297168" target="_top" xlink:title="handle_response">
<polygon fill="#ffffff" stroke="#000000" points="1126.5,-503.5 1126.5,-522.5 1216.5,-522.5 1216.5,-503.5 1126.5,-503.5"/>
<text text-anchor="middle" x="1171.5" y="-510.5" font-family="Helvetica,sans-Serif" font-size="10.00" fill="#000000">handle_response</text>
</a>
</g>
</g>
<!-- Node931&#45;&gt;Node932 -->
<g id="edge41" class="edge">
<title>Node931&#45;&gt;Node932</title>
<path fill="none" stroke="#191970" d="M1062.2842,-513C1082.9851,-513 1106.4959,-513 1126.3874,-513"/>
<polygon fill="#191970" stroke="#191970" points="1062.0636,-509.5001 1052.0636,-513 1062.0636,-516.5001 1062.0636,-509.5001"/>
</g>
<!-- Node933 -->
<g id="node30" class="node">
<title>Node933</title>
<g id="a_node30"><a xlink:href="net_8h.html#ade36148140b152d713b23d17bbcf0024" target="_top" xlink:title="Returns a new message id and updates session&#45;&gt;tx_mid accordingly. ">
<polygon fill="#ffffff" stroke="#000000" points="1112,-541.5 1112,-560.5 1231,-560.5 1231,-541.5 1112,-541.5"/>
<text text-anchor="middle" x="1171.5" y="-548.5" font-family="Helvetica,sans-Serif" font-size="10.00" fill="#000000">coap_new_message_id</text>
</a>
</g>
</g>
<!-- Node931&#45;&gt;Node933 -->
<g id="edge43" class="edge">
<title>Node931&#45;&gt;Node933</title>
<path fill="none" stroke="#191970" d="M1060.2148,-524.8961C1082.9856,-530.2374 1109.4867,-536.4537 1130.9145,-541.4799"/>
<polygon fill="#191970" stroke="#191970" points="1060.9145,-521.4653 1050.3794,-522.589 1059.3159,-528.2803 1060.9145,-521.4653"/>
</g>
<!-- Node932&#45;&gt;Node913 -->
<g id="edge42" class="edge">
<title>Node932&#45;&gt;Node913</title>
<path fill="none" stroke="#191970" d="M1212.2164,-500.2911C1218.5223,-498.2383 1224.9486,-496.0974 1231,-494 1254.5827,-485.8263 1281.2189,-475.7738 1300.0116,-468.5424"/>
<polygon fill="#191970" stroke="#191970" points="1210.9241,-497.0301 1202.4771,-503.4253 1213.0685,-503.6936 1210.9241,-497.0301"/>
</g>
<!-- Node933&#45;&gt;Node934 -->
<g id="edge44" class="edge">
<title>Node933&#45;&gt;Node934</title>
<path fill="none" stroke="#191970" d="M1239.8738,-562.1722C1248.8962,-563.6464 1258.0712,-565.1456 1266.8889,-566.5864"/>
<polygon fill="#191970" stroke="#191970" points="1240.2128,-558.6812 1229.7792,-560.5227 1239.0839,-565.5896 1240.2128,-558.6812"/>
</g>
<!-- Node935 -->
<g id="node32" class="node">
<title>Node935</title>
<g id="a_node32"><a xlink:href="resource_8h.html#a579bcb559463d3a872831c18d8d9a1c1" target="_top" xlink:title="Checks for all known resources, if they are dirty and notifies subscribed observers. ">
<polygon fill="#ffffff" stroke="#000000" points="1968,-566.5 1968,-585.5 2066,-585.5 2066,-566.5 1968,-566.5"/>
<text text-anchor="middle" x="2017" y="-573.5" font-family="Helvetica,sans-Serif" font-size="10.00" fill="#000000">coap_check_notify</text>
</a>
</g>
</g>
<!-- Node934&#45;&gt;Node935 -->
<g id="edge45" class="edge">
<title>Node934&#45;&gt;Node935</title>
<path fill="none" stroke="#191970" d="M1392.1828,-576C1454.2886,-576 1548.8387,-576 1631,-576 1631,-576 1631,-576 1782,-576 1846.2578,-576 1920.399,-576 1967.94,-576"/>
<polygon fill="#191970" stroke="#191970" points="1392.1199,-572.5001 1382.1199,-576 1392.1199,-579.5001 1392.1199,-572.5001"/>
</g>
<!-- Node935&#45;&gt;Node905 -->
<g id="edge46" class="edge">
<title>Node935&#45;&gt;Node905</title>
<path fill="none" stroke="#191970" d="M2033.2722,-592.7334C2059.4705,-619.6742 2110.1761,-671.8168 2131.1097,-693.3436"/>
<polygon fill="#191970" stroke="#191970" points="2035.7634,-590.2748 2026.2826,-585.5456 2030.745,-595.1549 2035.7634,-590.2748"/>
</g>
<!-- Node935&#45;&gt;Node911 -->
<g id="edge47" class="edge">
<title>Node935&#45;&gt;Node911</title>
<path fill="none" stroke="#191970" d="M2028.0161,-557.8926C2053.3744,-516.2105 2115.1841,-414.6124 2134.5778,-382.7345"/>
<polygon fill="#191970" stroke="#191970" points="2024.9984,-556.1188 2022.791,-566.4812 2030.9787,-559.7571 2024.9984,-556.1188"/>
</g>
<!-- Node936&#45;&gt;Node933 -->
<g id="edge49" class="edge">
<title>Node936&#45;&gt;Node933</title>
<path fill="none" stroke="#191970" d="M1064.4856,-551C1079.709,-551 1096.304,-551 1111.7829,-551"/>
<polygon fill="#191970" stroke="#191970" points="1064.1961,-547.5001 1054.196,-551 1064.196,-554.5001 1064.1961,-547.5001"/>
</g>
<!-- Node937&#45;&gt;Node907 -->
<g id="edge53" class="edge">
<title>Node937&#45;&gt;Node907</title>
<path fill="none" stroke="#191970" d="M1086.3081,-596.1163C1094.9703,-596.8082 1103.6722,-597.4544 1112,-598 1409.419,-617.4845 1483.9434,-627 1782,-627 1782,-627 1782,-627 2017,-627 2115.2947,-627 2214.2578,-544.8003 2246.0123,-515.9019"/>
<polygon fill="#191970" stroke="#191970" points="1086.435,-592.6151 1076.1825,-595.2864 1085.8631,-599.5917 1086.435,-592.6151"/>
</g>
<!-- Node937&#45;&gt;Node913 -->
<g id="edge51" class="edge">
<title>Node937&#45;&gt;Node913</title>
<path fill="none" stroke="#191970" d="M1086.3613,-596.5278C1130.9361,-597.5528 1186.8108,-592.9025 1231,-570 1276.1883,-546.5796 1308.2788,-491.0088 1319.8063,-468.6069"/>
<polygon fill="#191970" stroke="#191970" points="1086.2716,-593.0231 1076.1614,-596.191 1086.0404,-600.0193 1086.2716,-593.0231"/>
</g>
<!-- Node937&#45;&gt;Node933 -->
<g id="edge52" class="edge">
<title>Node937&#45;&gt;Node933</title>
<path fill="none" stroke="#191970" d="M1060.2148,-577.1039C1082.9856,-571.7626 1109.4867,-565.5463 1130.9145,-560.5201"/>
<polygon fill="#191970" stroke="#191970" points="1059.3159,-573.7197 1050.3794,-579.411 1060.9145,-580.5347 1059.3159,-573.7197"/>
</g>
<!-- Node938&#45;&gt;Node913 -->
<g id="edge55" class="edge">
<title>Node938&#45;&gt;Node913</title>
<path fill="none" stroke="#191970" d="M1223.4495,-469.5674C1243.3378,-467.4876 1265.7023,-465.1488 1284.326,-463.2012"/>
<polygon fill="#191970" stroke="#191970" points="1222.8896,-466.1067 1213.3079,-470.6279 1223.6177,-473.0688 1222.8896,-466.1067"/>
</g>
<!-- Node939&#45;&gt;Node915 -->
<g id="edge62" class="edge">
<title>Node939&#45;&gt;Node915</title>
<path fill="none" stroke="#191970" d="M692.0781,-166.9821C710.3804,-158.5215 735.0447,-148.3697 758,-143 867.1499,-117.4679 897.4037,-124 1009.5,-124 1009.5,-124 1009.5,-124 1631,-124 1782.8809,-124 1877.7035,-340.2243 1897.2377,-389.2126"/>
<polygon fill="#191970" stroke="#191970" points="690.4124,-163.8983 682.8734,-171.3423 693.4091,-170.2244 690.4124,-163.8983"/>
</g>
</g>
</svg>
