<?xml version="1.0" encoding="UTF-8" standalone="no"?>
<!DOCTYPE svg PUBLIC "-//W3C//DTD SVG 1.1//EN"
 "http://www.w3.org/Graphics/SVG/1.1/DTD/svg11.dtd">
<!-- Generated by graphviz version 2.40.1 (20161225.0304)
 -->
<!-- Title: coap_get_app_data Pages: 1 -->
<svg width="781pt" height="85pt"
 viewBox="0.00 0.00 781.00 85.00" xmlns="http://www.w3.org/2000/svg" xmlns:xlink="http://www.w3.org/1999/xlink">
<g id="graph0" class="graph" transform="scale(1 1) rotate(0) translate(4 81)">
<title>coap_get_app_data</title>
<polygon fill="#ffffff" stroke="transparent" points="-4,4 -4,-81 777,-81 777,4 -4,4"/>
<!-- Node938 -->
<g id="node1" class="node">
<title>Node938</title>
<polygon fill="#bfbfbf" stroke="#000000" points="0,-19.5 0,-38.5 101,-38.5 101,-19.5 0,-19.5"/>
<text text-anchor="middle" x="50.5" y="-26.5" font-family="Helvetica,sans-Serif" font-size="10.00" fill="#000000">coap_get_app_data</text>
</g>
<!-- Node939 -->
<g id="node2" class="node">
<title>Node939</title>
<g id="a_node2"><a xlink:href="net_8h.html#ade36148140b152d713b23d17bbcf0024" target="_top" xlink:title="Returns a new message id and updates session&#45;&gt;tx_mid accordingly. ">
<polygon fill="#ffffff" stroke="#000000" points="137,-19.5 137,-38.5 256,-38.5 256,-19.5 137,-19.5"/>
<text text-anchor="middle" x="196.5" y="-26.5" font-family="Helvetica,sans-Serif" font-size="10.00" fill="#000000">coap_new_message_id</text>
</a>
</g>
</g>
<!-- Node938&#45;&gt;Node939 -->
<g id="edge1" class="edge">
<title>Node938&#45;&gt;Node939</title>
<path fill="none" stroke="#191970" d="M111.3276,-29C119.7854,-29 128.4675,-29 136.9023,-29"/>
<polygon fill="#191970" stroke="#191970" points="111.154,-25.5001 101.154,-29 111.1539,-32.5001 111.154,-25.5001"/>
</g>
<!-- Node940 -->
<g id="node3" class="node">
<title>Node940</title>
<g id="a_node3"><a xlink:href="resource_8c.html#ae1a91e254baca4f43b7896f54a8d9944" target="_top" xlink:title="coap_notify_observers">
<polygon fill="#ffffff" stroke="#000000" points="292,-19.5 292,-38.5 407,-38.5 407,-19.5 292,-19.5"/>
<text text-anchor="middle" x="349.5" y="-26.5" font-family="Helvetica,sans-Serif" font-size="10.00" fill="#000000">coap_notify_observers</text>
</a>
</g>
</g>
<!-- Node939&#45;&gt;Node940 -->
<g id="edge2" class="edge">
<title>Node939&#45;&gt;Node940</title>
<path fill="none" stroke="#191970" d="M266.1098,-29C274.7119,-29 283.4311,-29 291.8276,-29"/>
<polygon fill="#191970" stroke="#191970" points="266.0919,-25.5001 256.0919,-29 266.0919,-32.5001 266.0919,-25.5001"/>
</g>
<!-- Node941 -->
<g id="node4" class="node">
<title>Node941</title>
<g id="a_node4"><a xlink:href="resource_8h.html#a579bcb559463d3a872831c18d8d9a1c1" target="_top" xlink:title="Checks for all known resources, if they are dirty and notifies subscribed observers. ">
<polygon fill="#ffffff" stroke="#000000" points="443,-19.5 443,-38.5 541,-38.5 541,-19.5 443,-19.5"/>
<text text-anchor="middle" x="492" y="-26.5" font-family="Helvetica,sans-Serif" font-size="10.00" fill="#000000">coap_check_notify</text>
</a>
</g>
</g>
<!-- Node940&#45;&gt;Node941 -->
<g id="edge3" class="edge">
<title>Node940&#45;&gt;Node941</title>
<path fill="none" stroke="#191970" d="M417.181,-29C425.8657,-29 434.6213,-29 442.93,-29"/>
<polygon fill="#191970" stroke="#191970" points="417.0495,-25.5001 407.0495,-29 417.0494,-32.5001 417.0495,-25.5001"/>
</g>
<!-- Node942 -->
<g id="node5" class="node">
<title>Node942</title>
<g id="a_node5"><a xlink:href="net_8h.html#aaac86ac50793f309678e4951ecf8863f" target="_top" xlink:title="For applications with their own message loop, send all pending retransmits and return the list of soc...">
<polygon fill="#ffffff" stroke="#000000" points="583.5,-38.5 583.5,-57.5 647.5,-57.5 647.5,-38.5 583.5,-38.5"/>
<text text-anchor="middle" x="615.5" y="-45.5" font-family="Helvetica,sans-Serif" font-size="10.00" fill="#000000">coap_write</text>
</a>
</g>
</g>
<!-- Node941&#45;&gt;Node942 -->
<g id="edge4" class="edge">
<title>Node941&#45;&gt;Node942</title>
<path fill="none" stroke="#191970" d="M551.2085,-38.109C562.2213,-39.8033 573.3421,-41.5142 583.1665,-43.0256"/>
<polygon fill="#191970" stroke="#191970" points="551.5813,-34.6253 541.1653,-36.5639 550.5168,-41.5439 551.5813,-34.6253"/>
</g>
<!-- Node945 -->
<g id="node8" class="node">
<title>Node945</title>
<g id="a_node8"><a xlink:href="libcoap_8h.html#a5d1fb0b44497970b0f75fa0b38570a82" target="_top" xlink:title="coap_cleanup">
<polygon fill="#ffffff" stroke="#000000" points="577,-.5 577,-19.5 654,-19.5 654,-.5 577,-.5"/>
<text text-anchor="middle" x="615.5" y="-7.5" font-family="Helvetica,sans-Serif" font-size="10.00" fill="#000000">coap_cleanup</text>
</a>
</g>
</g>
<!-- Node941&#45;&gt;Node945 -->
<g id="edge7" class="edge">
<title>Node941&#45;&gt;Node945</title>
<path fill="none" stroke="#191970" d="M551.2663,-19.8821C559.9313,-18.549 568.6616,-17.2059 576.7733,-15.958"/>
<polygon fill="#191970" stroke="#191970" points="550.5168,-16.4561 541.1653,-21.4361 551.5813,-23.3747 550.5168,-16.4561"/>
</g>
<!-- Node943 -->
<g id="node6" class="node">
<title>Node943</title>
<g id="a_node6"><a xlink:href="coap__io_8c.html#a75a7c93e10ca7858449ba304aad4ea37" target="_top" xlink:title="coap_run_once">
<polygon fill="#ffffff" stroke="#000000" points="690,-57.5 690,-76.5 773,-76.5 773,-57.5 690,-57.5"/>
<text text-anchor="middle" x="731.5" y="-64.5" font-family="Helvetica,sans-Serif" font-size="10.00" fill="#000000">coap_run_once</text>
</a>
</g>
</g>
<!-- Node942&#45;&gt;Node943 -->
<g id="edge5" class="edge">
<title>Node942&#45;&gt;Node943</title>
<path fill="none" stroke="#191970" d="M657.6193,-54.8988C668.036,-56.605 679.1933,-58.4325 689.5996,-60.137"/>
<polygon fill="#191970" stroke="#191970" points="657.9388,-51.4046 647.5046,-53.2421 656.8073,-58.3126 657.9388,-51.4046"/>
</g>
<!-- Node944 -->
<g id="node7" class="node">
<title>Node944</title>
<g id="a_node7"><a xlink:href="net_8h.html#a5854b1394bfddd574e48af116e3aaaf9" target="_top" xlink:title="Sends an RST message with code 0 for the specified request to dst. ">
<polygon fill="#ffffff" stroke="#000000" points="691.5,-19.5 691.5,-38.5 771.5,-38.5 771.5,-19.5 691.5,-19.5"/>
<text text-anchor="middle" x="731.5" y="-26.5" font-family="Helvetica,sans-Serif" font-size="10.00" fill="#000000">coap_send_rst</text>
</a>
</g>
</g>
<!-- Node942&#45;&gt;Node944 -->
<g id="edge6" class="edge">
<title>Node942&#45;&gt;Node944</title>
<path fill="none" stroke="#191970" d="M657.7099,-41.0863C668.6737,-39.2905 680.4523,-37.3613 691.309,-35.583"/>
<polygon fill="#191970" stroke="#191970" points="656.8073,-37.6874 647.5046,-42.7579 657.9388,-44.5954 656.8073,-37.6874"/>
</g>
</g>
</svg>
