<?xml version="1.0" encoding="UTF-8" standalone="no"?>
<!DOCTYPE svg PUBLIC "-//W3C//DTD SVG 1.1//EN"
 "http://www.w3.org/Graphics/SVG/1.1/DTD/svg11.dtd">
<!-- Generated by graphviz version 2.40.1 (20161225.0304)
 -->
<!-- Title: coap_read Pages: 1 -->
<svg width="424pt" height="141pt"
 viewBox="0.00 0.00 424.00 141.11" xmlns="http://www.w3.org/2000/svg" xmlns:xlink="http://www.w3.org/1999/xlink">
<g id="graph0" class="graph" transform="scale(1 1) rotate(0) translate(4 137.1053)">
<title>coap_read</title>
<polygon fill="#ffffff" stroke="transparent" points="-4,4 -4,-137.1053 420,-137.1053 420,4 -4,4"/>
<!-- Node1111 -->
<g id="node1" class="node">
<title>Node1111</title>
<polygon fill="#bfbfbf" stroke="#000000" points="0,-56.6053 0,-75.6053 62,-75.6053 62,-56.6053 0,-56.6053"/>
<text text-anchor="middle" x="31" y="-63.6053" font-family="Helvetica,sans-Serif" font-size="10.00" fill="#000000">coap_read</text>
</g>
<!-- Node1112 -->
<g id="node2" class="node">
<title>Node1112</title>
<g id="a_node2"><a xlink:href="coap__io_8c.html#a75a7c93e10ca7858449ba304aad4ea37" target="_top" xlink:title="coap_run_once">
<polygon fill="#ffffff" stroke="#000000" points="333,-113.6053 333,-132.6053 416,-132.6053 416,-113.6053 333,-113.6053"/>
<text text-anchor="middle" x="374.5" y="-120.6053" font-family="Helvetica,sans-Serif" font-size="10.00" fill="#000000">coap_run_once</text>
</a>
</g>
</g>
<!-- Node1111&#45;&gt;Node1112 -->
<g id="edge1" class="edge">
<title>Node1111&#45;&gt;Node1112</title>
<path fill="none" stroke="#191970" d="M63.9915,-79.2864C101.1889,-93.3802 163.8211,-114.8182 220,-123.1053 257.9461,-128.7028 301.7075,-128.0468 332.9472,-126.3771"/>
<polygon fill="#191970" stroke="#191970" points="65.2415,-76.0173 54.6515,-75.6987 62.7314,-82.5518 65.2415,-76.0173"/>
</g>
<!-- Node1113 -->
<g id="node3" class="node">
<title>Node1113</title>
<g id="a_node3"><a xlink:href="net_8h.html#a9900c032b74bd57f67d489484a2b3207" target="_top" xlink:title="Handles retransmissions of confirmable messages. ">
<polygon fill="#ffffff" stroke="#000000" points="98,-56.6053 98,-75.6053 184,-75.6053 184,-56.6053 98,-56.6053"/>
<text text-anchor="middle" x="141" y="-63.6053" font-family="Helvetica,sans-Serif" font-size="10.00" fill="#000000">coap_retransmit</text>
</a>
</g>
</g>
<!-- Node1111&#45;&gt;Node1113 -->
<g id="edge2" class="edge">
<title>Node1111&#45;&gt;Node1113</title>
<path fill="none" stroke="#191970" d="M72.4282,-66.1053C80.7153,-66.1053 89.4409,-66.1053 97.7866,-66.1053"/>
<polygon fill="#191970" stroke="#191970" points="72.2274,-62.6054 62.2274,-66.1053 72.2273,-69.6054 72.2274,-62.6054"/>
</g>
<!-- Node1115 -->
<g id="node5" class="node">
<title>Node1115</title>
<g id="a_node5"><a xlink:href="net_8h.html#a5854b1394bfddd574e48af116e3aaaf9" target="_top" xlink:title="Sends an RST message with code 0 for the specified request to dst. ">
<polygon fill="#ffffff" stroke="#000000" points="334.5,-56.6053 334.5,-75.6053 414.5,-75.6053 414.5,-56.6053 334.5,-56.6053"/>
<text text-anchor="middle" x="374.5" y="-63.6053" font-family="Helvetica,sans-Serif" font-size="10.00" fill="#000000">coap_send_rst</text>
</a>
</g>
</g>
<!-- Node1111&#45;&gt;Node1115 -->
<g id="edge8" class="edge">
<title>Node1111&#45;&gt;Node1115</title>
<path fill="none" stroke="#191970" d="M56.9191,-51.6326C105.0505,-26.7048 211.1461,19.0672 297,-9.1053 325.5652,-18.4788 352.2754,-42.8507 365.617,-56.4954"/>
<polygon fill="#191970" stroke="#191970" points="55.017,-48.6796 47.8222,-56.4569 58.2966,-54.8638 55.017,-48.6796"/>
</g>
<!-- Node1114 -->
<g id="node4" class="node">
<title>Node1114</title>
<g id="a_node4"><a xlink:href="net_8h.html#aaac86ac50793f309678e4951ecf8863f" target="_top" xlink:title="For applications with their own message loop, send all pending retransmits and return the list of soc...">
<polygon fill="#ffffff" stroke="#000000" points="226.5,-94.6053 226.5,-113.6053 290.5,-113.6053 290.5,-94.6053 226.5,-94.6053"/>
<text text-anchor="middle" x="258.5" y="-101.6053" font-family="Helvetica,sans-Serif" font-size="10.00" fill="#000000">coap_write</text>
</a>
</g>
</g>
<!-- Node1113&#45;&gt;Node1114 -->
<g id="edge3" class="edge">
<title>Node1113&#45;&gt;Node1114</title>
<path fill="none" stroke="#191970" d="M180.2092,-78.7857C196.0854,-83.9201 214.11,-89.7494 228.8593,-94.5193"/>
<polygon fill="#191970" stroke="#191970" points="181.242,-75.4413 170.6502,-75.6943 179.088,-82.1016 181.242,-75.4413"/>
</g>
<!-- Node1113&#45;&gt;Node1115 -->
<g id="edge7" class="edge">
<title>Node1113&#45;&gt;Node1115</title>
<path fill="none" stroke="#191970" d="M194.2873,-66.1053C236.8913,-66.1053 295.692,-66.1053 334.3817,-66.1053"/>
<polygon fill="#191970" stroke="#191970" points="194.0996,-62.6054 184.0996,-66.1053 194.0996,-69.6054 194.0996,-62.6054"/>
</g>
<!-- Node1116 -->
<g id="node6" class="node">
<title>Node1116</title>
<g id="a_node6"><a xlink:href="libcoap_8h.html#a5d1fb0b44497970b0f75fa0b38570a82" target="_top" xlink:title="coap_cleanup">
<polygon fill="#ffffff" stroke="#000000" points="220,-18.6053 220,-37.6053 297,-37.6053 297,-18.6053 220,-18.6053"/>
<text text-anchor="middle" x="258.5" y="-25.6053" font-family="Helvetica,sans-Serif" font-size="10.00" fill="#000000">coap_cleanup</text>
</a>
</g>
</g>
<!-- Node1113&#45;&gt;Node1116 -->
<g id="edge6" class="edge">
<title>Node1113&#45;&gt;Node1116</title>
<path fill="none" stroke="#191970" d="M180.2092,-53.4248C196.0854,-48.2904 214.11,-42.4612 228.8593,-37.6912"/>
<polygon fill="#191970" stroke="#191970" points="179.088,-50.1089 170.6502,-56.5163 181.242,-56.7692 179.088,-50.1089"/>
</g>
<!-- Node1114&#45;&gt;Node1112 -->
<g id="edge4" class="edge">
<title>Node1114&#45;&gt;Node1112</title>
<path fill="none" stroke="#191970" d="M300.6193,-111.0041C311.036,-112.7103 322.1933,-114.5378 332.5996,-116.2423"/>
<polygon fill="#191970" stroke="#191970" points="300.9388,-107.5099 290.5046,-109.3474 299.8073,-114.4178 300.9388,-107.5099"/>
</g>
<!-- Node1114&#45;&gt;Node1115 -->
<g id="edge5" class="edge">
<title>Node1114&#45;&gt;Node1115</title>
<path fill="none" stroke="#191970" d="M297.6528,-91.2793C313.2176,-86.1805 330.8141,-80.4162 345.2377,-75.6912"/>
<polygon fill="#191970" stroke="#191970" points="296.1852,-88.077 287.7717,-94.5163 298.3644,-94.7292 296.1852,-88.077"/>
</g>
</g>
</svg>
