<?xml version="1.0" encoding="UTF-8" standalone="no"?>
<!DOCTYPE svg PUBLIC "-//W3C//DTD SVG 1.1//EN"
 "http://www.w3.org/Graphics/SVG/1.1/DTD/svg11.dtd">
<!-- Generated by graphviz version 2.40.1 (20161225.0304)
 -->
<!-- Title: coap_cancel_all_messages Pages: 1 -->
<!--zoomable 332 -->
<svg id="main" version="1.1" xmlns="http://www.w3.org/2000/svg" xmlns:xlink="http://www.w3.org/1999/xlink" xml:space="preserve" onload="init(evt)">
<style type="text/css"><![CDATA[
.edge:hover path { stroke: red; }
.edge:hover polygon { stroke: red; fill: red; }
]]></style>
<script type="text/javascript"><![CDATA[
var edges = document.getElementsByTagName('g');
if (edges && edges.length) {
  for (var i=0;i<edges.length;i++) {
    if (edges[i].id.substr(0,4)=='edge') {
      edges[i].setAttribute('class','edge');
    }
  }
}
]]></script>
        <defs>
                <circle id="rim" cx="0" cy="0" r="7"/>
                <circle id="rim2" cx="0" cy="0" r="3.5"/>
                <g id="zoomPlus">
                        <use xlink:href="#rim" fill="#404040">
                                <set attributeName="fill" to="#808080" begin="zoomplus.mouseover" end="zoomplus.mouseout"/>
                        </use>
                        <path d="M-4,0h8M0,-4v8" fill="none" stroke="white" stroke-width="1.5" pointer-events="none"/>
                </g>
                <g id="zoomMin">
                        <use xlink:href="#rim" fill="#404040">
                                <set attributeName="fill" to="#808080" begin="zoomminus.mouseover" end="zoomminus.mouseout"/>
                        </use>
                        <path d="M-4,0h8" fill="none" stroke="white" stroke-width="1.5" pointer-events="none"/>
                </g>
                <g id="dirArrow">
                        <path fill="none" stroke="white" stroke-width="1.5" d="M0,-3.0v7 M-2.5,-0.5L0,-3.0L2.5,-0.5"/>
                </g>
               <g id="resetDef">
                       <use xlink:href="#rim2" fill="#404040">
                               <set attributeName="fill" to="#808080" begin="reset.mouseover" end="reset.mouseout"/>
                       </use>
               </g>
        </defs>

<script type="text/javascript">
var viewWidth = 982;
var viewHeight = 332;
var sectionId = 'dynsection-8';
</script>
<script xlink:href="svgpan.js"/>
<svg id="graph" class="graph">
<g id="viewport">
<title>coap_cancel_all_messages</title>
<polygon fill="#ffffff" stroke="transparent" points="-4,4 -4,-328 978,-328 978,4 -4,4"/>
<!-- Node129 -->
<g id="node1" class="node">
<title>Node129</title>
<polygon fill="#bfbfbf" stroke="#000000" points="0,-161.5 0,-180.5 137,-180.5 137,-161.5 0,-161.5"/>
<text text-anchor="middle" x="68.5" y="-168.5" font-family="Helvetica,sans-Serif" font-size="10.00" fill="#000000">coap_cancel_all_messages</text>
</g>
<!-- Node130 -->
<g id="node2" class="node">
<title>Node130</title>
<g id="a_node2"><a xlink:href="net_8c.html#a6ba1e8078ceeb012d3ab609c59241927" target="_top" xlink:title="token_match">
<polygon fill="#ffffff" stroke="#000000" points="184,-199.5 184,-218.5 257,-218.5 257,-199.5 184,-199.5"/>
<text text-anchor="middle" x="220.5" y="-206.5" font-family="Helvetica,sans-Serif" font-size="10.00" fill="#000000">token_match</text>
</a>
</g>
</g>
<!-- Node129&#45;&gt;Node130 -->
<g id="edge1" class="edge">
<title>Node129&#45;&gt;Node130</title>
<path fill="none" stroke="#191970" d="M106.856,-180.589C127.2793,-185.6948 152.5546,-192.0137 174.0792,-197.3948"/>
<polygon fill="#191970" stroke="#191970" points="173.4392,-200.8424 183.9895,-199.8724 175.137,-194.0514 173.4392,-200.8424"/>
</g>
<!-- Node131 -->
<g id="node3" class="node">
<title>Node131</title>
<g id="a_node3"><a xlink:href="coap__session_8c.html#a8b690dbed6cc3a5beb81ba5d2d27d290" target="_top" xlink:title="Get session description. ">
<polygon fill="#ffffff" stroke="#000000" points="600,-.5 600,-19.5 693,-19.5 693,-.5 600,-.5"/>
<text text-anchor="middle" x="646.5" y="-7.5" font-family="Helvetica,sans-Serif" font-size="10.00" fill="#000000">coap_session_str</text>
</a>
</g>
</g>
<!-- Node129&#45;&gt;Node131 -->
<g id="edge2" class="edge">
<title>Node129&#45;&gt;Node131</title>
<path fill="none" stroke="#191970" d="M102.9256,-161.4109C202.6162,-133.6424 491.4683,-53.1836 602.3971,-22.2847"/>
<polygon fill="#191970" stroke="#191970" points="603.5607,-25.5939 612.2548,-19.5389 601.6824,-18.8506 603.5607,-25.5939"/>
</g>
<!-- Node134 -->
<g id="node6" class="node">
<title>Node134</title>
<g id="a_node6"><a xlink:href="net_8c.html#a44c39a2314035989d3e07b9d9328e08c" target="_top" xlink:title="Destroys specified node. ">
<polygon fill="#ffffff" stroke="#000000" points="173,-161.5 173,-180.5 268,-180.5 268,-161.5 173,-161.5"/>
<text text-anchor="middle" x="220.5" y="-168.5" font-family="Helvetica,sans-Serif" font-size="10.00" fill="#000000">coap_delete_node</text>
</a>
</g>
</g>
<!-- Node129&#45;&gt;Node134 -->
<g id="edge5" class="edge">
<title>Node129&#45;&gt;Node134</title>
<path fill="none" stroke="#191970" d="M137.3843,-171C145.7792,-171 154.291,-171 162.5051,-171"/>
<polygon fill="#191970" stroke="#191970" points="162.7191,-174.5001 172.7191,-171 162.7191,-167.5001 162.7191,-174.5001"/>
</g>
<!-- Node132 -->
<g id="node4" class="node">
<title>Node132</title>
<g id="a_node4"><a xlink:href="debug_8c.html#ab9d398c4bed7c13cea20c716d09474f4" target="_top" xlink:title="coap_print_addr">
<polygon fill="#ffffff" stroke="#000000" points="749.5,-.5 749.5,-19.5 835.5,-19.5 835.5,-.5 749.5,-.5"/>
<text text-anchor="middle" x="792.5" y="-7.5" font-family="Helvetica,sans-Serif" font-size="10.00" fill="#000000">coap_print_addr</text>
</a>
</g>
</g>
<!-- Node131&#45;&gt;Node132 -->
<g id="edge3" class="edge">
<title>Node131&#45;&gt;Node132</title>
<path fill="none" stroke="#191970" d="M693.0967,-10C707.7427,-10 724.0275,-10 739.1067,-10"/>
<polygon fill="#191970" stroke="#191970" points="739.3186,-13.5001 749.3186,-10 739.3186,-6.5001 739.3186,-13.5001"/>
</g>
<!-- Node133 -->
<g id="node5" class="node">
<title>Node133</title>
<g id="a_node5"><a xlink:href="debug_8c.html#aaa5ee5c2942fe13271a46000b2aebde6" target="_top" xlink:title="A length&#45;safe strlen() fake. ">
<polygon fill="#ffffff" stroke="#000000" points="903.5,-.5 903.5,-19.5 949.5,-19.5 949.5,-.5 903.5,-.5"/>
<text text-anchor="middle" x="926.5" y="-7.5" font-family="Helvetica,sans-Serif" font-size="10.00" fill="#000000">strnlen</text>
</a>
</g>
</g>
<!-- Node132&#45;&gt;Node133 -->
<g id="edge4" class="edge">
<title>Node132&#45;&gt;Node133</title>
<path fill="none" stroke="#191970" d="M835.636,-10C854.2635,-10 875.7219,-10 893.1066,-10"/>
<polygon fill="#191970" stroke="#191970" points="893.343,-13.5001 903.343,-10 893.343,-6.5001 893.343,-13.5001"/>
</g>
<!-- Node135 -->
<g id="node7" class="node">
<title>Node135</title>
<g id="a_node7"><a xlink:href="pdu_8c.html#a48581f968a30ef4278702eb1c16b7a90" target="_top" xlink:title="Dispose of an CoAP PDU and frees associated storage. ">
<polygon fill="#ffffff" stroke="#000000" points="601.5,-228.5 601.5,-247.5 691.5,-247.5 691.5,-228.5 601.5,-228.5"/>
<text text-anchor="middle" x="646.5" y="-235.5" font-family="Helvetica,sans-Serif" font-size="10.00" fill="#000000">coap_delete_pdu</text>
</a>
</g>
</g>
<!-- Node134&#45;&gt;Node135 -->
<g id="edge6" class="edge">
<title>Node134&#45;&gt;Node135</title>
<path fill="none" stroke="#191970" d="M268.1276,-178.4907C347.7217,-191.009 507.3161,-216.1096 591.543,-229.3565"/>
<polygon fill="#191970" stroke="#191970" points="591.0082,-232.8154 601.4305,-230.9116 592.0958,-225.9004 591.0082,-232.8154"/>
</g>
<!-- Node137 -->
<g id="node9" class="node">
<title>Node137</title>
<g id="a_node9"><a xlink:href="coap__session_8c.html#a9aee135ba884d7c143b11bc42fd23e53" target="_top" xlink:title="Decrement reference counter on a session. ">
<polygon fill="#ffffff" stroke="#000000" points="304,-123.5 304,-142.5 417,-142.5 417,-123.5 304,-123.5"/>
<text text-anchor="middle" x="360.5" y="-130.5" font-family="Helvetica,sans-Serif" font-size="10.00" fill="#000000">coap_session_release</text>
</a>
</g>
</g>
<!-- Node134&#45;&gt;Node137 -->
<g id="edge8" class="edge">
<title>Node134&#45;&gt;Node137</title>
<path fill="none" stroke="#191970" d="M255.8279,-161.411C273.9006,-156.5056 296.0984,-150.4804 315.3945,-145.2429"/>
<polygon fill="#191970" stroke="#191970" points="316.4494,-148.5833 325.1834,-142.5859 314.6157,-141.8277 316.4494,-148.5833"/>
</g>
<!-- Node146 -->
<g id="node18" class="node">
<title>Node146</title>
<g id="a_node18"><a xlink:href="net_8c.html#aa2f296838e4a779197c43b254e385ddc" target="_top" xlink:title="coap_free_node">
<polygon fill="#ffffff" stroke="#000000" points="603.5,-266.5 603.5,-285.5 689.5,-285.5 689.5,-266.5 603.5,-266.5"/>
<text text-anchor="middle" x="646.5" y="-273.5" font-family="Helvetica,sans-Serif" font-size="10.00" fill="#000000">coap_free_node</text>
</a>
</g>
</g>
<!-- Node134&#45;&gt;Node146 -->
<g id="edge22" class="edge">
<title>Node134&#45;&gt;Node146</title>
<path fill="none" stroke="#191970" d="M245.2257,-180.6855C252.5783,-183.6207 260.6354,-186.8918 268,-190 284.1313,-196.8081 287.3251,-200.6601 304,-206 403.9215,-237.9981 525.078,-258.7015 593.2232,-268.7729"/>
<polygon fill="#191970" stroke="#191970" points="592.8884,-272.261 603.2887,-270.2399 593.898,-265.3341 592.8884,-272.261"/>
</g>
<!-- Node136 -->
<g id="node8" class="node">
<title>Node136</title>
<g id="a_node8"><a xlink:href="mem_8h.html#ae7214e0c73a4d4290525873e739ed422" target="_top" xlink:title="Releases the memory that was allocated by coap_malloc_type(). ">
<polygon fill="#ffffff" stroke="#000000" points="751,-190.5 751,-209.5 834,-209.5 834,-190.5 751,-190.5"/>
<text text-anchor="middle" x="792.5" y="-197.5" font-family="Helvetica,sans-Serif" font-size="10.00" fill="#000000">coap_free_type</text>
</a>
</g>
</g>
<!-- Node135&#45;&gt;Node136 -->
<g id="edge7" class="edge">
<title>Node135&#45;&gt;Node136</title>
<path fill="none" stroke="#191970" d="M683.342,-228.411C702.3479,-223.4642 725.7286,-217.3789 745.9692,-212.1108"/>
<polygon fill="#191970" stroke="#191970" points="747.127,-215.4261 755.923,-209.5201 745.3638,-208.6518 747.127,-215.4261"/>
</g>
<!-- Node138 -->
<g id="node10" class="node">
<title>Node138</title>
<g id="a_node10"><a xlink:href="coap__session_8c.html#ab3d24595515d6f66805791a7f821d5e7" target="_top" xlink:title="coap_session_free">
<polygon fill="#ffffff" stroke="#000000" points="453,-123.5 453,-142.5 551,-142.5 551,-123.5 453,-123.5"/>
<text text-anchor="middle" x="502" y="-130.5" font-family="Helvetica,sans-Serif" font-size="10.00" fill="#000000">coap_session_free</text>
</a>
</g>
</g>
<!-- Node137&#45;&gt;Node138 -->
<g id="edge9" class="edge">
<title>Node137&#45;&gt;Node138</title>
<path fill="none" stroke="#191970" d="M417.2381,-133C425.6561,-133 434.3498,-133 442.8163,-133"/>
<polygon fill="#191970" stroke="#191970" points="442.9972,-136.5001 452.9972,-133 442.9971,-129.5001 442.9972,-136.5001"/>
</g>
<!-- Node138&#45;&gt;Node131 -->
<g id="edge20" class="edge">
<title>Node138&#45;&gt;Node131</title>
<path fill="none" stroke="#191970" d="M509.6018,-123.401C529.5152,-98.2968 582.0111,-32.3937 587,-29 589.9125,-27.0188 593.044,-25.2344 596.2918,-23.6289"/>
<polygon fill="#191970" stroke="#191970" points="597.8864,-26.7524 605.6683,-19.5626 595.1013,-20.3303 597.8864,-26.7524"/>
</g>
<!-- Node138&#45;&gt;Node134 -->
<g id="edge19" class="edge">
<title>Node138&#45;&gt;Node134</title>
<path fill="none" stroke="#191970" d="M464.1114,-142.5211C449.4698,-145.9231 432.5297,-149.5232 417,-152 370.7064,-159.3831 317.7876,-164.3006 278.5382,-167.2796"/>
<polygon fill="#191970" stroke="#191970" points="278.0727,-163.8044 268.3579,-168.0322 278.5888,-170.7853 278.0727,-163.8044"/>
</g>
<!-- Node138&#45;&gt;Node135 -->
<g id="edge10" class="edge">
<title>Node138&#45;&gt;Node135</title>
<path fill="none" stroke="#191970" d="M509.9869,-142.7157C524.0447,-159.2896 554.785,-193.244 587,-214 593.2442,-218.0231 600.2728,-221.5788 607.2535,-224.6376"/>
<polygon fill="#191970" stroke="#191970" points="606.0844,-227.941 616.6646,-228.498 608.741,-221.4647 606.0844,-227.941"/>
</g>
<!-- Node138&#45;&gt;Node136 -->
<g id="edge21" class="edge">
<title>Node138&#45;&gt;Node136</title>
<path fill="none" stroke="#191970" d="M514.742,-142.5001C530.7074,-153.8386 559.3414,-172.3492 587,-181 637.7035,-196.8584 698.6112,-200.7205 740.8933,-201.1626"/>
<polygon fill="#191970" stroke="#191970" points="740.9406,-204.6628 750.956,-201.2071 740.9716,-197.6629 740.9406,-204.6628"/>
</g>
<!-- Node139 -->
<g id="node11" class="node">
<title>Node139</title>
<g id="a_node11"><a xlink:href="coap__notls_8c.html#aaf93788bf08a0459d28eaca3cafe930f" target="_top" xlink:title="coap_dtls_free_session">
<polygon fill="#ffffff" stroke="#000000" points="587,-76.5 587,-95.5 706,-95.5 706,-76.5 587,-76.5"/>
<text text-anchor="middle" x="646.5" y="-83.5" font-family="Helvetica,sans-Serif" font-size="10.00" fill="#000000">coap_dtls_free_session</text>
</a>
</g>
</g>
<!-- Node138&#45;&gt;Node139 -->
<g id="edge11" class="edge">
<title>Node138&#45;&gt;Node139</title>
<path fill="none" stroke="#191970" d="M530.7003,-123.4736C547.1648,-118.0267 568.2307,-111.088 587,-105 593.4451,-102.9095 600.2886,-100.7075 606.9522,-98.5731"/>
<polygon fill="#191970" stroke="#191970" points="608.0594,-101.8937 616.5189,-95.5151 605.928,-95.2261 608.0594,-101.8937"/>
</g>
<!-- Node140 -->
<g id="node12" class="node">
<title>Node140</title>
<g id="a_node12"><a xlink:href="coap__notls_8c.html#aa317934415639e23b64a3bd0b4edde6c" target="_top" xlink:title="coap_tls_free_session">
<polygon fill="#ffffff" stroke="#000000" points="589.5,-38.5 589.5,-57.5 703.5,-57.5 703.5,-38.5 589.5,-38.5"/>
<text text-anchor="middle" x="646.5" y="-45.5" font-family="Helvetica,sans-Serif" font-size="10.00" fill="#000000">coap_tls_free_session</text>
</a>
</g>
</g>
<!-- Node138&#45;&gt;Node140 -->
<g id="edge12" class="edge">
<title>Node138&#45;&gt;Node140</title>
<path fill="none" stroke="#191970" d="M512.1585,-123.1459C527.3093,-108.9325 557.2433,-82.6684 587,-67 591.0494,-64.8678 595.3806,-62.9223 599.7909,-61.1598"/>
<polygon fill="#191970" stroke="#191970" points="601.3152,-64.3285 609.4929,-57.5923 598.8993,-57.7585 601.3152,-64.3285"/>
</g>
<!-- Node141 -->
<g id="node13" class="node">
<title>Node141</title>
<g id="a_node13"><a xlink:href="coap__io_8c.html#a2de382e7795c908d1a376da8c338386d" target="_top" xlink:title="coap_socket_close">
<polygon fill="#ffffff" stroke="#000000" points="596,-114.5 596,-133.5 697,-133.5 697,-114.5 596,-114.5"/>
<text text-anchor="middle" x="646.5" y="-121.5" font-family="Helvetica,sans-Serif" font-size="10.00" fill="#000000">coap_socket_close</text>
</a>
</g>
</g>
<!-- Node138&#45;&gt;Node141 -->
<g id="edge13" class="edge">
<title>Node138&#45;&gt;Node141</title>
<path fill="none" stroke="#191970" d="M551.3246,-129.9279C562.454,-129.2347 574.3931,-128.4911 585.9246,-127.7729"/>
<polygon fill="#191970" stroke="#191970" points="586.1598,-131.2651 595.9229,-127.1501 585.7246,-124.2786 586.1598,-131.2651"/>
</g>
<!-- Node142 -->
<g id="node14" class="node">
<title>Node142</title>
<g id="a_node14"><a xlink:href="mem_8h.html#a1e46a1505bb13f03fdacd5d1b32502a6" target="_top" xlink:title="Wrapper function to coap_free_type() for backwards compatibility. ">
<polygon fill="#ffffff" stroke="#000000" points="617,-152.5 617,-171.5 676,-171.5 676,-152.5 617,-152.5"/>
<text text-anchor="middle" x="646.5" y="-159.5" font-family="Helvetica,sans-Serif" font-size="10.00" fill="#000000">coap_free</text>
</a>
</g>
</g>
<!-- Node138&#45;&gt;Node142 -->
<g id="edge14" class="edge">
<title>Node138&#45;&gt;Node142</title>
<path fill="none" stroke="#191970" d="M549.7152,-142.5761C568.2694,-146.2997 589.2732,-150.515 606.9614,-154.0649"/>
<polygon fill="#191970" stroke="#191970" points="606.4559,-157.5332 616.9491,-156.0694 607.8334,-150.67 606.4559,-157.5332"/>
</g>
<!-- Node142&#45;&gt;Node136 -->
<g id="edge15" class="edge">
<title>Node142&#45;&gt;Node136</title>
<path fill="none" stroke="#191970" d="M676.0453,-169.6899C696.0781,-174.9039 722.9753,-181.9045 745.8731,-187.8642"/>
<polygon fill="#191970" stroke="#191970" points="745.1813,-191.3007 755.7405,-190.4325 746.9445,-184.5264 745.1813,-191.3007"/>
</g>
<!-- Node143 -->
<g id="node15" class="node">
<title>Node143</title>
<g id="a_node15"><a xlink:href="mem_8h.html#a65d0fc0fe6cad555b56e92ccb57613ba" target="_top" xlink:title="Initializes libcoap&#39;s memory management. ">
<polygon fill="#ffffff" stroke="#000000" points="744.5,-114.5 744.5,-133.5 840.5,-133.5 840.5,-114.5 744.5,-114.5"/>
<text text-anchor="middle" x="792.5" y="-121.5" font-family="Helvetica,sans-Serif" font-size="10.00" fill="#000000">coap_memory_init</text>
</a>
</g>
</g>
<!-- Node142&#45;&gt;Node143 -->
<g id="edge16" class="edge">
<title>Node142&#45;&gt;Node143</title>
<path fill="none" stroke="#191970" d="M676.0453,-154.3101C696.0781,-149.0961 722.9753,-142.0955 745.8731,-136.1358"/>
<polygon fill="#191970" stroke="#191970" points="746.9445,-139.4736 755.7405,-133.5675 745.1813,-132.6993 746.9445,-139.4736"/>
</g>
<!-- Node144 -->
<g id="node16" class="node">
<title>Node144</title>
<g id="a_node16"><a xlink:href="mem_8h.html#a1539cf5011cdfb11500b476f4dbe9393" target="_top" xlink:title="Wrapper function to coap_malloc_type() for backwards compatibility. ">
<polygon fill="#ffffff" stroke="#000000" points="757,-152.5 757,-171.5 828,-171.5 828,-152.5 757,-152.5"/>
<text text-anchor="middle" x="792.5" y="-159.5" font-family="Helvetica,sans-Serif" font-size="10.00" fill="#000000">coap_malloc</text>
</a>
</g>
</g>
<!-- Node142&#45;&gt;Node144 -->
<g id="edge17" class="edge">
<title>Node142&#45;&gt;Node144</title>
<path fill="none" stroke="#191970" d="M676.0453,-162C696.2773,-162 723.5109,-162 746.555,-162"/>
<polygon fill="#191970" stroke="#191970" points="746.8078,-165.5001 756.8077,-162 746.8077,-158.5001 746.8078,-165.5001"/>
</g>
<!-- Node145 -->
<g id="node17" class="node">
<title>Node145</title>
<g id="a_node17"><a xlink:href="mem_8h.html#a0204710ce56cbaa4f062b7f2622857f5" target="_top" xlink:title="Allocates a chunk of size bytes and returns a pointer to the newly allocated memory. ">
<polygon fill="#ffffff" stroke="#000000" points="879,-228.5 879,-247.5 974,-247.5 974,-228.5 879,-228.5"/>
<text text-anchor="middle" x="926.5" y="-235.5" font-family="Helvetica,sans-Serif" font-size="10.00" fill="#000000">coap_malloc_type</text>
</a>
</g>
</g>
<!-- Node144&#45;&gt;Node145 -->
<g id="edge18" class="edge">
<title>Node144&#45;&gt;Node145</title>
<path fill="none" stroke="#191970" d="M821.5944,-171.5908C828.7402,-174.3129 836.2678,-177.5002 843,-181 865.7323,-192.8178 889.6884,-209.6905 906.082,-222.0114"/>
<polygon fill="#191970" stroke="#191970" points="904.2832,-225.0415 914.3558,-228.327 908.5306,-219.4773 904.2832,-225.0415"/>
</g>
<!-- Node146&#45;&gt;Node136 -->
<g id="edge23" class="edge">
<title>Node146&#45;&gt;Node136</title>
<path fill="none" stroke="#191970" d="M685.0016,-266.4053C692.2215,-263.864 699.5274,-260.7535 706,-257 724.7763,-246.1114 723.9982,-236.1263 742,-224 747.3891,-220.3698 753.4125,-216.9972 759.3702,-213.9956"/>
<polygon fill="#191970" stroke="#191970" points="761.0607,-217.0671 768.5775,-209.6006 758.0452,-210.7499 761.0607,-217.0671"/>
</g>
<!-- Node146&#45;&gt;Node145 -->
<g id="edge27" class="edge">
<title>Node146&#45;&gt;Node145</title>
<path fill="none" stroke="#191970" d="M689.6112,-266.5313C705.9598,-263.1757 724.7823,-259.5935 742,-257 784.3479,-250.6212 832.4909,-245.7422 868.9782,-242.5262"/>
<polygon fill="#191970" stroke="#191970" points="869.2851,-246.0128 878.9459,-241.6633 868.6813,-239.0389 869.2851,-246.0128"/>
</g>
<!-- Node147 -->
<g id="node19" class="node">
<title>Node147</title>
<g id="a_node19"><a xlink:href="net_8c.html#a157d58fe7840d7d7e36c40fff0825674" target="_top" xlink:title="coap_free_endpoint">
<polygon fill="#ffffff" stroke="#000000" points="742,-266.5 742,-285.5 843,-285.5 843,-266.5 742,-266.5"/>
<text text-anchor="middle" x="792.5" y="-273.5" font-family="Helvetica,sans-Serif" font-size="10.00" fill="#000000">coap_free_endpoint</text>
</a>
</g>
</g>
<!-- Node146&#45;&gt;Node147 -->
<g id="edge24" class="edge">
<title>Node146&#45;&gt;Node147</title>
<path fill="none" stroke="#191970" d="M689.5152,-276C702.7138,-276 717.4953,-276 731.6498,-276"/>
<polygon fill="#191970" stroke="#191970" points="731.8141,-279.5001 741.814,-276 731.814,-272.5001 731.8141,-279.5001"/>
</g>
<!-- Node148 -->
<g id="node20" class="node">
<title>Node148</title>
<g id="a_node20"><a xlink:href="net_8c.html#aeff229f443c6582fea71504f33364eb4" target="_top" xlink:title="coap_malloc_node">
<polygon fill="#ffffff" stroke="#000000" points="743.5,-304.5 743.5,-323.5 841.5,-323.5 841.5,-304.5 743.5,-304.5"/>
<text text-anchor="middle" x="792.5" y="-311.5" font-family="Helvetica,sans-Serif" font-size="10.00" fill="#000000">coap_malloc_node</text>
</a>
</g>
</g>
<!-- Node146&#45;&gt;Node148 -->
<g id="edge25" class="edge">
<title>Node146&#45;&gt;Node148</title>
<path fill="none" stroke="#191970" d="M683.342,-285.589C702.3479,-290.5358 725.7286,-296.6211 745.9692,-301.8892"/>
<polygon fill="#191970" stroke="#191970" points="745.3638,-305.3482 755.923,-304.4799 747.127,-298.5739 745.3638,-305.3482"/>
</g>
<!-- Node148&#45;&gt;Node145 -->
<g id="edge26" class="edge">
<title>Node148&#45;&gt;Node145</title>
<path fill="none" stroke="#191970" d="M821.5944,-304.4092C828.7402,-301.6871 836.2678,-298.4998 843,-295 865.7323,-283.1822 889.6884,-266.3095 906.082,-253.9886"/>
<polygon fill="#191970" stroke="#191970" points="908.5306,-256.5227 914.3558,-247.673 904.2832,-250.9585 908.5306,-256.5227"/>
</g>
</g>
</svg>
        <g id="navigator" transform="translate(0 0)" fill="#404254">
                <rect fill="#f2f5e9" fill-opacity="0.5" stroke="#606060" stroke-width=".5" x="0" y="0" width="60" height="60"/>
                <use id="zoomplus" xlink:href="#zoomPlus" x="17" y="9" onmousedown="handleZoom(evt,'in')"/>
                <use id="zoomminus" xlink:href="#zoomMin" x="42" y="9" onmousedown="handleZoom(evt,'out')"/>
                <use id="reset" xlink:href="#resetDef" x="30" y="36" onmousedown="handleReset()"/>
                <g id="arrowUp" xlink:href="#dirArrow" transform="translate(30 24)" onmousedown="handlePan(0,-1)">
                  <use xlink:href="#rim" fill="#404040">
                        <set attributeName="fill" to="#808080" begin="arrowUp.mouseover" end="arrowUp.mouseout"/>
                  </use>
                  <path fill="none" stroke="white" stroke-width="1.5" d="M0,-3.0v7 M-2.5,-0.5L0,-3.0L2.5,-0.5"/>
                </g>
                <g id="arrowRight" xlink:href="#dirArrow" transform="rotate(90) translate(36 -43)" onmousedown="handlePan(1,0)">
                  <use xlink:href="#rim" fill="#404040">
                        <set attributeName="fill" to="#808080" begin="arrowRight.mouseover" end="arrowRight.mouseout"/>
                  </use>
                  <path fill="none" stroke="white" stroke-width="1.5" d="M0,-3.0v7 M-2.5,-0.5L0,-3.0L2.5,-0.5"/>
                </g>
                <g id="arrowDown" xlink:href="#dirArrow" transform="rotate(180) translate(-30 -48)" onmousedown="handlePan(0,1)">
                  <use xlink:href="#rim" fill="#404040">
                        <set attributeName="fill" to="#808080" begin="arrowDown.mouseover" end="arrowDown.mouseout"/>
                  </use>
                  <path fill="none" stroke="white" stroke-width="1.5" d="M0,-3.0v7 M-2.5,-0.5L0,-3.0L2.5,-0.5"/>
                </g>
                <g id="arrowLeft" xlink:href="#dirArrow" transform="rotate(270) translate(-36 17)" onmousedown="handlePan(-1,0)">
                  <use xlink:href="#rim" fill="#404040">
                        <set attributeName="fill" to="#808080" begin="arrowLeft.mouseover" end="arrowLeft.mouseout"/>
                  </use>
                  <path fill="none" stroke="white" stroke-width="1.5" d="M0,-3.0v7 M-2.5,-0.5L0,-3.0L2.5,-0.5"/>
                </g>
        </g>
        <svg viewBox="0 0 15 15" width="100%" height="30px" preserveAspectRatio="xMaxYMin meet">
         <g id="arrow_out" transform="scale(0.3 0.3)">
          <a xlink:href="net_8c_a04c706b515165c97a59ff8ee38cee7c3_cgraph_org.svg" target="_base">
           <rect id="button" ry="5" rx="5" y="6" x="6" height="38" width="38"
                fill="#f2f5e9" fill-opacity="0.5" stroke="#606060" stroke-width="1.0"/>
           <path id="arrow"
             d="M 11.500037,31.436501 C 11.940474,20.09759 22.043105,11.32322 32.158766,21.979434 L 37.068811,17.246167 C 37.068811,17.246167 37.088388,32 37.088388,32 L 22.160133,31.978069 C 22.160133,31.978069 26.997745,27.140456 26.997745,27.140456 C 18.528582,18.264221 13.291696,25.230495 11.500037,31.436501 z"
             style="fill:#404040;"/>
          </a>
         </g>
        </svg>
</svg>
