<?xml version="1.0" encoding="UTF-8" standalone="no"?>
<!DOCTYPE svg PUBLIC "-//W3C//DTD SVG 1.1//EN"
 "http://www.w3.org/Graphics/SVG/1.1/DTD/svg11.dtd">
<!-- Generated by graphviz version 2.40.1 (20161225.0304)
 -->
<!-- Title: coap_pdu_parse_size Pages: 1 -->
<svg width="708pt" height="141pt"
 viewBox="0.00 0.00 708.00 141.11" xmlns="http://www.w3.org/2000/svg" xmlns:xlink="http://www.w3.org/1999/xlink">
<g id="graph0" class="graph" transform="scale(1 1) rotate(0) translate(4 137.1053)">
<title>coap_pdu_parse_size</title>
<polygon fill="#ffffff" stroke="transparent" points="-4,4 -4,-137.1053 704,-137.1053 704,4 -4,4"/>
<!-- Node455 -->
<g id="node1" class="node">
<title>Node455</title>
<polygon fill="#bfbfbf" stroke="#000000" points="0,-56.6053 0,-75.6053 111,-75.6053 111,-56.6053 0,-56.6053"/>
<text text-anchor="middle" x="55.5" y="-63.6053" font-family="Helvetica,sans-Serif" font-size="10.00" fill="#000000">coap_pdu_parse_size</text>
</g>
<!-- Node456 -->
<g id="node2" class="node">
<title>Node456</title>
<g id="a_node2"><a xlink:href="net_8c.html#acd36f6fba6d30ab9557e0e6521f4a088" target="_top" xlink:title="coap_read_session">
<polygon fill="#ffffff" stroke="#000000" points="147,-56.6053 147,-75.6053 248,-75.6053 248,-56.6053 147,-56.6053"/>
<text text-anchor="middle" x="197.5" y="-63.6053" font-family="Helvetica,sans-Serif" font-size="10.00" fill="#000000">coap_read_session</text>
</a>
</g>
</g>
<!-- Node455&#45;&gt;Node456 -->
<g id="edge1" class="edge">
<title>Node455&#45;&gt;Node456</title>
<path fill="none" stroke="#191970" d="M121.4339,-66.1053C129.8774,-66.1053 138.417,-66.1053 146.5716,-66.1053"/>
<polygon fill="#191970" stroke="#191970" points="121.2146,-62.6054 111.2146,-66.1053 121.2146,-69.6054 121.2146,-62.6054"/>
</g>
<!-- Node457 -->
<g id="node3" class="node">
<title>Node457</title>
<g id="a_node3"><a xlink:href="net_8h.html#a0748d791fd2af516dd93fbadb660d440" target="_top" xlink:title="For applications with their own message loop, reads all data from the network. ">
<polygon fill="#ffffff" stroke="#000000" points="284,-56.6053 284,-75.6053 346,-75.6053 346,-56.6053 284,-56.6053"/>
<text text-anchor="middle" x="315" y="-63.6053" font-family="Helvetica,sans-Serif" font-size="10.00" fill="#000000">coap_read</text>
</a>
</g>
</g>
<!-- Node456&#45;&gt;Node457 -->
<g id="edge2" class="edge">
<title>Node456&#45;&gt;Node457</title>
<path fill="none" stroke="#191970" d="M258.0773,-66.1053C267.0097,-66.1053 275.8858,-66.1053 283.8784,-66.1053"/>
<polygon fill="#191970" stroke="#191970" points="258.0125,-62.6054 248.0125,-66.1053 258.0125,-69.6054 258.0125,-62.6054"/>
</g>
<!-- Node458 -->
<g id="node4" class="node">
<title>Node458</title>
<g id="a_node4"><a xlink:href="coap__io_8c.html#a75a7c93e10ca7858449ba304aad4ea37" target="_top" xlink:title="coap_run_once">
<polygon fill="#ffffff" stroke="#000000" points="617,-113.6053 617,-132.6053 700,-132.6053 700,-113.6053 617,-113.6053"/>
<text text-anchor="middle" x="658.5" y="-120.6053" font-family="Helvetica,sans-Serif" font-size="10.00" fill="#000000">coap_run_once</text>
</a>
</g>
</g>
<!-- Node457&#45;&gt;Node458 -->
<g id="edge3" class="edge">
<title>Node457&#45;&gt;Node458</title>
<path fill="none" stroke="#191970" d="M347.9915,-79.2864C385.1889,-93.3802 447.8211,-114.8182 504,-123.1053 541.9461,-128.7028 585.7075,-128.0468 616.9472,-126.3771"/>
<polygon fill="#191970" stroke="#191970" points="349.2415,-76.0173 338.6515,-75.6987 346.7314,-82.5518 349.2415,-76.0173"/>
</g>
<!-- Node459 -->
<g id="node5" class="node">
<title>Node459</title>
<g id="a_node5"><a xlink:href="net_8h.html#a9900c032b74bd57f67d489484a2b3207" target="_top" xlink:title="Handles retransmissions of confirmable messages. ">
<polygon fill="#ffffff" stroke="#000000" points="382,-56.6053 382,-75.6053 468,-75.6053 468,-56.6053 382,-56.6053"/>
<text text-anchor="middle" x="425" y="-63.6053" font-family="Helvetica,sans-Serif" font-size="10.00" fill="#000000">coap_retransmit</text>
</a>
</g>
</g>
<!-- Node457&#45;&gt;Node459 -->
<g id="edge4" class="edge">
<title>Node457&#45;&gt;Node459</title>
<path fill="none" stroke="#191970" d="M356.4282,-66.1053C364.7153,-66.1053 373.4409,-66.1053 381.7866,-66.1053"/>
<polygon fill="#191970" stroke="#191970" points="356.2274,-62.6054 346.2274,-66.1053 356.2273,-69.6054 356.2274,-62.6054"/>
</g>
<!-- Node461 -->
<g id="node7" class="node">
<title>Node461</title>
<g id="a_node7"><a xlink:href="net_8h.html#a5854b1394bfddd574e48af116e3aaaf9" target="_top" xlink:title="Sends an RST message with code 0 for the specified request to dst. ">
<polygon fill="#ffffff" stroke="#000000" points="618.5,-56.6053 618.5,-75.6053 698.5,-75.6053 698.5,-56.6053 618.5,-56.6053"/>
<text text-anchor="middle" x="658.5" y="-63.6053" font-family="Helvetica,sans-Serif" font-size="10.00" fill="#000000">coap_send_rst</text>
</a>
</g>
</g>
<!-- Node457&#45;&gt;Node461 -->
<g id="edge10" class="edge">
<title>Node457&#45;&gt;Node461</title>
<path fill="none" stroke="#191970" d="M340.9191,-51.6326C389.0505,-26.7048 495.1461,19.0672 581,-9.1053 609.5652,-18.4788 636.2754,-42.8507 649.617,-56.4954"/>
<polygon fill="#191970" stroke="#191970" points="339.017,-48.6796 331.8222,-56.4569 342.2966,-54.8638 339.017,-48.6796"/>
</g>
<!-- Node460 -->
<g id="node6" class="node">
<title>Node460</title>
<g id="a_node6"><a xlink:href="net_8h.html#aaac86ac50793f309678e4951ecf8863f" target="_top" xlink:title="For applications with their own message loop, send all pending retransmits and return the list of soc...">
<polygon fill="#ffffff" stroke="#000000" points="510.5,-94.6053 510.5,-113.6053 574.5,-113.6053 574.5,-94.6053 510.5,-94.6053"/>
<text text-anchor="middle" x="542.5" y="-101.6053" font-family="Helvetica,sans-Serif" font-size="10.00" fill="#000000">coap_write</text>
</a>
</g>
</g>
<!-- Node459&#45;&gt;Node460 -->
<g id="edge5" class="edge">
<title>Node459&#45;&gt;Node460</title>
<path fill="none" stroke="#191970" d="M464.2092,-78.7857C480.0854,-83.9201 498.11,-89.7494 512.8593,-94.5193"/>
<polygon fill="#191970" stroke="#191970" points="465.242,-75.4413 454.6502,-75.6943 463.088,-82.1016 465.242,-75.4413"/>
</g>
<!-- Node459&#45;&gt;Node461 -->
<g id="edge9" class="edge">
<title>Node459&#45;&gt;Node461</title>
<path fill="none" stroke="#191970" d="M478.2873,-66.1053C520.8913,-66.1053 579.692,-66.1053 618.3817,-66.1053"/>
<polygon fill="#191970" stroke="#191970" points="478.0996,-62.6054 468.0996,-66.1053 478.0996,-69.6054 478.0996,-62.6054"/>
</g>
<!-- Node462 -->
<g id="node8" class="node">
<title>Node462</title>
<g id="a_node8"><a xlink:href="libcoap_8h.html#a5d1fb0b44497970b0f75fa0b38570a82" target="_top" xlink:title="coap_cleanup">
<polygon fill="#ffffff" stroke="#000000" points="504,-18.6053 504,-37.6053 581,-37.6053 581,-18.6053 504,-18.6053"/>
<text text-anchor="middle" x="542.5" y="-25.6053" font-family="Helvetica,sans-Serif" font-size="10.00" fill="#000000">coap_cleanup</text>
</a>
</g>
</g>
<!-- Node459&#45;&gt;Node462 -->
<g id="edge8" class="edge">
<title>Node459&#45;&gt;Node462</title>
<path fill="none" stroke="#191970" d="M464.2092,-53.4248C480.0854,-48.2904 498.11,-42.4612 512.8593,-37.6912"/>
<polygon fill="#191970" stroke="#191970" points="463.088,-50.1089 454.6502,-56.5163 465.242,-56.7692 463.088,-50.1089"/>
</g>
<!-- Node460&#45;&gt;Node458 -->
<g id="edge6" class="edge">
<title>Node460&#45;&gt;Node458</title>
<path fill="none" stroke="#191970" d="M584.6193,-111.0041C595.036,-112.7103 606.1933,-114.5378 616.5996,-116.2423"/>
<polygon fill="#191970" stroke="#191970" points="584.9388,-107.5099 574.5046,-109.3474 583.8073,-114.4178 584.9388,-107.5099"/>
</g>
<!-- Node460&#45;&gt;Node461 -->
<g id="edge7" class="edge">
<title>Node460&#45;&gt;Node461</title>
<path fill="none" stroke="#191970" d="M581.6528,-91.2793C597.2176,-86.1805 614.8141,-80.4162 629.2377,-75.6912"/>
<polygon fill="#191970" stroke="#191970" points="580.1852,-88.077 571.7717,-94.5163 582.3644,-94.7292 580.1852,-88.077"/>
</g>
</g>
</svg>
