<?xml version="1.0" encoding="UTF-8" standalone="no"?>
<!DOCTYPE svg PUBLIC "-//W3C//DTD SVG 1.1//EN"
 "http://www.w3.org/Graphics/SVG/1.1/DTD/svg11.dtd">
<!-- Generated by graphviz version 2.40.1 (20161225.0304)
 -->
<!-- Title: coap_add_data_after Pages: 1 -->
<!--zoomable 294 -->
<svg id="main" version="1.1" xmlns="http://www.w3.org/2000/svg" xmlns:xlink="http://www.w3.org/1999/xlink" xml:space="preserve" onload="init(evt)">
<style type="text/css"><![CDATA[
.edge:hover path { stroke: red; }
.edge:hover polygon { stroke: red; fill: red; }
]]></style>
<script type="text/javascript"><![CDATA[
var edges = document.getElementsByTagName('g');
if (edges && edges.length) {
  for (var i=0;i<edges.length;i++) {
    if (edges[i].id.substr(0,4)=='edge') {
      edges[i].setAttribute('class','edge');
    }
  }
}
]]></script>
        <defs>
                <circle id="rim" cx="0" cy="0" r="7"/>
                <circle id="rim2" cx="0" cy="0" r="3.5"/>
                <g id="zoomPlus">
                        <use xlink:href="#rim" fill="#404040">
                                <set attributeName="fill" to="#808080" begin="zoomplus.mouseover" end="zoomplus.mouseout"/>
                        </use>
                        <path d="M-4,0h8M0,-4v8" fill="none" stroke="white" stroke-width="1.5" pointer-events="none"/>
                </g>
                <g id="zoomMin">
                        <use xlink:href="#rim" fill="#404040">
                                <set attributeName="fill" to="#808080" begin="zoomminus.mouseover" end="zoomminus.mouseout"/>
                        </use>
                        <path d="M-4,0h8" fill="none" stroke="white" stroke-width="1.5" pointer-events="none"/>
                </g>
                <g id="dirArrow">
                        <path fill="none" stroke="white" stroke-width="1.5" d="M0,-3.0v7 M-2.5,-0.5L0,-3.0L2.5,-0.5"/>
                </g>
               <g id="resetDef">
                       <use xlink:href="#rim2" fill="#404040">
                               <set attributeName="fill" to="#808080" begin="reset.mouseover" end="reset.mouseout"/>
                       </use>
               </g>
        </defs>

<script type="text/javascript">
var viewWidth = 1628;
var viewHeight = 294;
var sectionId = 'dynsection-5';
</script>
<script xlink:href="svgpan.js"/>
<svg id="graph" class="graph">
<g id="viewport">
<title>coap_add_data_after</title>
<polygon fill="#ffffff" stroke="transparent" points="-4,4 -4,-289.5 1624,-289.5 1624,4 -4,4"/>
<!-- Node26 -->
<g id="node1" class="node">
<title>Node26</title>
<polygon fill="#bfbfbf" stroke="#000000" points="0,-107 0,-126 107,-126 107,-107 0,-107"/>
<text text-anchor="middle" x="53.5" y="-114" font-family="Helvetica,sans-Serif" font-size="10.00" fill="#000000">coap_add_data_after</text>
</g>
<!-- Node27 -->
<g id="node2" class="node">
<title>Node27</title>
<g id="a_node2"><a xlink:href="net_8h.html#a69ff8481c32707b77813c051fc42dedd" target="_top" xlink:title="Creates a new response for given request with the contents of .well&#45;known/core. ">
<polygon fill="#ffffff" stroke="#000000" points="262,-202 262,-221 396,-221 396,-202 262,-202"/>
<text text-anchor="middle" x="329" y="-209" font-family="Helvetica,sans-Serif" font-size="10.00" fill="#000000">coap_wellknown_response</text>
</a>
</g>
</g>
<!-- Node26&#45;&gt;Node27 -->
<g id="edge1" class="edge">
<title>Node26&#45;&gt;Node27</title>
<path fill="none" stroke="#191970" d="M90.7223,-129.3353C146.7639,-148.66 251.5389,-184.7893 301.341,-201.9624"/>
<polygon fill="#191970" stroke="#191970" points="91.7721,-125.9951 81.1774,-126.0439 89.4901,-132.6127 91.7721,-125.9951"/>
</g>
<!-- Node40 -->
<g id="node15" class="node">
<title>Node40</title>
<g id="a_node15"><a xlink:href="pdu_8h.html#af71a3f810ab9f0f657c25c425826af40" target="_top" xlink:title="Adds given data to the pdu that is passed as first parameter. ">
<polygon fill="#ffffff" stroke="#000000" points="143,-88 143,-107 226,-107 226,-88 143,-88"/>
<text text-anchor="middle" x="184.5" y="-95" font-family="Helvetica,sans-Serif" font-size="10.00" fill="#000000">coap_add_data</text>
</a>
</g>
</g>
<!-- Node26&#45;&gt;Node40 -->
<g id="edge22" class="edge">
<title>Node26&#45;&gt;Node40</title>
<path fill="none" stroke="#191970" d="M117.2677,-107.2513C125.9241,-105.9957 134.6208,-104.7344 142.7526,-103.555"/>
<polygon fill="#191970" stroke="#191970" points="116.5547,-103.8179 107.1607,-108.7172 117.5596,-110.7455 116.5547,-103.8179"/>
</g>
<!-- Node28 -->
<g id="node3" class="node">
<title>Node28</title>
<g id="a_node3"><a xlink:href="net_8c.html#a1a280312c4bad55cf10243b9b9c3e966" target="_top" xlink:title="handle_request">
<polygon fill="#ffffff" stroke="#000000" points="451.5,-202 451.5,-221 534.5,-221 534.5,-202 451.5,-202"/>
<text text-anchor="middle" x="493" y="-209" font-family="Helvetica,sans-Serif" font-size="10.00" fill="#000000">handle_request</text>
</a>
</g>
</g>
<!-- Node27&#45;&gt;Node28 -->
<g id="edge2" class="edge">
<title>Node27&#45;&gt;Node28</title>
<path fill="none" stroke="#191970" d="M406.2706,-211.5C421.7129,-211.5 437.3796,-211.5 451.0703,-211.5"/>
<polygon fill="#191970" stroke="#191970" points="406.1783,-208.0001 396.1783,-211.5 406.1782,-215.0001 406.1783,-208.0001"/>
</g>
<!-- Node35 -->
<g id="node10" class="node">
<title>Node35</title>
<g id="a_node10"><a xlink:href="net_8h.html#a5854b1394bfddd574e48af116e3aaaf9" target="_top" xlink:title="Sends an RST message with code 0 for the specified request to dst. ">
<polygon fill="#ffffff" stroke="#000000" points="1538.5,-181 1538.5,-200 1618.5,-200 1618.5,-181 1538.5,-181"/>
<text text-anchor="middle" x="1578.5" y="-188" font-family="Helvetica,sans-Serif" font-size="10.00" fill="#000000">coap_send_rst</text>
</a>
</g>
</g>
<!-- Node27&#45;&gt;Node35 -->
<g id="edge21" class="edge">
<title>Node27&#45;&gt;Node35</title>
<path fill="none" stroke="#191970" d="M362.7871,-224.6421C420.5858,-245.9062 542.5646,-285.5 649.5,-285.5 649.5,-285.5 649.5,-285.5 1339,-285.5 1413.6084,-285.5 1432.9863,-272.1685 1501,-241.5 1525.9613,-230.2446 1551.9467,-211.4478 1566.5887,-200.089"/>
<polygon fill="#191970" stroke="#191970" points="363.6801,-221.2396 353.0874,-221.0227 361.2328,-227.7979 363.6801,-221.2396"/>
</g>
<!-- Node29 -->
<g id="node4" class="node">
<title>Node29</title>
<g id="a_node4"><a xlink:href="net_8h.html#a7bb944fc52f772655356d95724317401" target="_top" xlink:title="Dispatches the PDUs from the receive queue in given context. ">
<polygon fill="#ffffff" stroke="#000000" points="609.5,-178 609.5,-197 689.5,-197 689.5,-178 609.5,-178"/>
<text text-anchor="middle" x="649.5" y="-185" font-family="Helvetica,sans-Serif" font-size="10.00" fill="#000000">coap_dispatch</text>
</a>
</g>
</g>
<!-- Node28&#45;&gt;Node29 -->
<g id="edge3" class="edge">
<title>Node28&#45;&gt;Node29</title>
<path fill="none" stroke="#191970" d="M544.6065,-203.5859C565.6795,-200.3543 589.6801,-196.6737 609.4006,-193.6494"/>
<polygon fill="#191970" stroke="#191970" points="543.8821,-200.156 534.5282,-205.1315 544.9433,-207.0751 543.8821,-200.156"/>
</g>
<!-- Node30 -->
<g id="node5" class="node">
<title>Node30</title>
<g id="a_node5"><a xlink:href="net_8c.html#acd36f6fba6d30ab9557e0e6521f4a088" target="_top" xlink:title="coap_read_session">
<polygon fill="#ffffff" stroke="#000000" points="1053.5,-115 1053.5,-134 1154.5,-134 1154.5,-115 1053.5,-115"/>
<text text-anchor="middle" x="1104" y="-122" font-family="Helvetica,sans-Serif" font-size="10.00" fill="#000000">coap_read_session</text>
</a>
</g>
</g>
<!-- Node29&#45;&gt;Node30 -->
<g id="edge4" class="edge">
<title>Node29&#45;&gt;Node30</title>
<path fill="none" stroke="#191970" d="M699.7515,-177.3746C714.3385,-174.47 730.2977,-171.3255 745,-168.5 812.0285,-155.6182 828.3213,-149.3523 896,-140.5 949.5087,-133.5012 1011.1921,-129.2292 1053.4077,-126.8809"/>
<polygon fill="#191970" stroke="#191970" points="699.0258,-173.9503 689.9044,-179.3403 700.3961,-180.8149 699.0258,-173.9503"/>
</g>
<!-- Node29&#45;&gt;Node35 -->
<g id="edge20" class="edge">
<title>Node29&#45;&gt;Node35</title>
<path fill="none" stroke="#191970" d="M688.0676,-200.0332C745.7092,-217.6212 858.0465,-247.5 956,-247.5 956,-247.5 956,-247.5 1339,-247.5 1419.9946,-247.5 1512.3125,-216.267 1554.8092,-200.0405"/>
<polygon fill="#191970" stroke="#191970" points="688.8792,-196.6206 678.2914,-197.0072 686.8094,-203.3076 688.8792,-196.6206"/>
</g>
<!-- Node37 -->
<g id="node12" class="node">
<title>Node37</title>
<g id="a_node12"><a xlink:href="net_8h.html#ae6b8ca457dd41f23372f9e9a7159312b" target="_top" xlink:title="Parses and interprets a CoAP datagram with context ctx. ">
<polygon fill="#ffffff" stroke="#000000" points="750.5,-178 750.5,-197 854.5,-197 854.5,-178 750.5,-178"/>
<text text-anchor="middle" x="802.5" y="-185" font-family="Helvetica,sans-Serif" font-size="10.00" fill="#000000">coap_handle_dgram</text>
</a>
</g>
</g>
<!-- Node29&#45;&gt;Node37 -->
<g id="edge14" class="edge">
<title>Node29&#45;&gt;Node37</title>
<path fill="none" stroke="#191970" d="M700.0466,-187.5C716.2327,-187.5 734.1774,-187.5 750.4677,-187.5"/>
<polygon fill="#191970" stroke="#191970" points="699.699,-184.0001 689.6989,-187.5 699.6989,-191.0001 699.699,-184.0001"/>
</g>
<!-- Node31 -->
<g id="node6" class="node">
<title>Node31</title>
<g id="a_node6"><a xlink:href="net_8h.html#a0748d791fd2af516dd93fbadb660d440" target="_top" xlink:title="For applications with their own message loop, reads all data from the network. ">
<polygon fill="#ffffff" stroke="#000000" points="1192,-115 1192,-134 1254,-134 1254,-115 1192,-115"/>
<text text-anchor="middle" x="1223" y="-122" font-family="Helvetica,sans-Serif" font-size="10.00" fill="#000000">coap_read</text>
</a>
</g>
</g>
<!-- Node30&#45;&gt;Node31 -->
<g id="edge5" class="edge">
<title>Node30&#45;&gt;Node31</title>
<path fill="none" stroke="#191970" d="M1164.949,-124.5C1174.3142,-124.5 1183.6315,-124.5 1191.9721,-124.5"/>
<polygon fill="#191970" stroke="#191970" points="1164.8119,-121.0001 1154.8119,-124.5 1164.8119,-128.0001 1164.8119,-121.0001"/>
</g>
<!-- Node32 -->
<g id="node7" class="node">
<title>Node32</title>
<g id="a_node7"><a xlink:href="coap__io_8c.html#a75a7c93e10ca7858449ba304aad4ea37" target="_top" xlink:title="coap_run_once">
<polygon fill="#ffffff" stroke="#000000" points="1537,-29 1537,-48 1620,-48 1620,-29 1537,-29"/>
<text text-anchor="middle" x="1578.5" y="-36" font-family="Helvetica,sans-Serif" font-size="10.00" fill="#000000">coap_run_once</text>
</a>
</g>
</g>
<!-- Node31&#45;&gt;Node32 -->
<g id="edge6" class="edge">
<title>Node31&#45;&gt;Node32</title>
<path fill="none" stroke="#191970" d="M1237.812,-106.7973C1250.2974,-93.0795 1269.3861,-74.7386 1290,-64.5 1370.1714,-24.6801 1478.3325,-27.6648 1536.8005,-33.1803"/>
<polygon fill="#191970" stroke="#191970" points="1234.9049,-104.8036 1230.9369,-114.6274 1240.165,-109.4222 1234.9049,-104.8036"/>
</g>
<!-- Node33 -->
<g id="node8" class="node">
<title>Node33</title>
<g id="a_node8"><a xlink:href="net_8h.html#a9900c032b74bd57f67d489484a2b3207" target="_top" xlink:title="Handles retransmissions of confirmable messages. ">
<polygon fill="#ffffff" stroke="#000000" points="1296,-113 1296,-132 1382,-132 1382,-113 1296,-113"/>
<text text-anchor="middle" x="1339" y="-120" font-family="Helvetica,sans-Serif" font-size="10.00" fill="#000000">coap_retransmit</text>
</a>
</g>
</g>
<!-- Node31&#45;&gt;Node33 -->
<g id="edge7" class="edge">
<title>Node31&#45;&gt;Node33</title>
<path fill="none" stroke="#191970" d="M1264.3342,-123.7873C1274.4829,-123.6124 1285.3756,-123.4246 1295.6177,-123.248"/>
<polygon fill="#191970" stroke="#191970" points="1264.024,-120.2921 1254.0859,-123.964 1264.1448,-127.291 1264.024,-120.2921"/>
</g>
<!-- Node31&#45;&gt;Node35 -->
<g id="edge13" class="edge">
<title>Node31&#45;&gt;Node35</title>
<path fill="none" stroke="#191970" d="M1264.0251,-135.4633C1272.5795,-137.5934 1281.5612,-139.7158 1290,-141.5 1377.9783,-160.1014 1482.2144,-176.4046 1538.1694,-184.6954"/>
<polygon fill="#191970" stroke="#191970" points="1264.791,-132.0468 1254.2373,-132.9791 1263.0689,-138.8317 1264.791,-132.0468"/>
</g>
<!-- Node34 -->
<g id="node9" class="node">
<title>Node34</title>
<g id="a_node9"><a xlink:href="net_8h.html#aaac86ac50793f309678e4951ecf8863f" target="_top" xlink:title="For applications with their own message loop, send all pending retransmits and return the list of soc...">
<polygon fill="#ffffff" stroke="#000000" points="1430.5,-48 1430.5,-67 1494.5,-67 1494.5,-48 1430.5,-48"/>
<text text-anchor="middle" x="1462.5" y="-55" font-family="Helvetica,sans-Serif" font-size="10.00" fill="#000000">coap_write</text>
</a>
</g>
</g>
<!-- Node33&#45;&gt;Node34 -->
<g id="edge8" class="edge">
<title>Node33&#45;&gt;Node34</title>
<path fill="none" stroke="#191970" d="M1375.2412,-108.8553C1379.6141,-106.875 1383.9588,-104.742 1388,-102.5 1405.2585,-92.9253 1407.0917,-86.6805 1424,-76.5 1429.4916,-73.1935 1435.6384,-69.9644 1441.3804,-67.1337"/>
<polygon fill="#191970" stroke="#191970" points="1373.5437,-105.7748 1365.7299,-112.9298 1376.3002,-112.2093 1373.5437,-105.7748"/>
</g>
<!-- Node33&#45;&gt;Node35 -->
<g id="edge12" class="edge">
<title>Node33&#45;&gt;Node35</title>
<path fill="none" stroke="#191970" d="M1392.2396,-131.366C1424.1715,-137.332 1465.3675,-146.1776 1501,-157.5 1521.2089,-163.9215 1543.3881,-173.6556 1558.8223,-180.8896"/>
<polygon fill="#191970" stroke="#191970" points="1392.6833,-127.8891 1382.2164,-129.5307 1391.4224,-134.7746 1392.6833,-127.8891"/>
</g>
<!-- Node36 -->
<g id="node11" class="node">
<title>Node36</title>
<g id="a_node11"><a xlink:href="libcoap_8h.html#a5d1fb0b44497970b0f75fa0b38570a82" target="_top" xlink:title="coap_cleanup">
<polygon fill="#ffffff" stroke="#000000" points="1424,-86 1424,-105 1501,-105 1501,-86 1424,-86"/>
<text text-anchor="middle" x="1462.5" y="-93" font-family="Helvetica,sans-Serif" font-size="10.00" fill="#000000">coap_cleanup</text>
</a>
</g>
</g>
<!-- Node33&#45;&gt;Node36 -->
<g id="edge11" class="edge">
<title>Node33&#45;&gt;Node36</title>
<path fill="none" stroke="#191970" d="M1392.1865,-110.8722C1402.7611,-108.5603 1413.6773,-106.1738 1423.6622,-103.9909"/>
<polygon fill="#191970" stroke="#191970" points="1391.216,-107.5016 1382.1943,-113.0567 1392.7111,-114.3401 1391.216,-107.5016"/>
</g>
<!-- Node34&#45;&gt;Node32 -->
<g id="edge9" class="edge">
<title>Node34&#45;&gt;Node32</title>
<path fill="none" stroke="#191970" d="M1504.6193,-50.6012C1515.036,-48.895 1526.1933,-47.0675 1536.5996,-45.363"/>
<polygon fill="#191970" stroke="#191970" points="1503.8073,-47.1874 1494.5046,-52.2579 1504.9388,-54.0954 1503.8073,-47.1874"/>
</g>
<!-- Node34&#45;&gt;Node35 -->
<g id="edge10" class="edge">
<title>Node34&#45;&gt;Node35</title>
<path fill="none" stroke="#191970" d="M1495.5819,-72.3383C1497.4853,-73.6416 1499.3096,-75.0291 1501,-76.5 1536.9271,-107.7628 1563.8292,-159.3077 1574.0279,-180.7115"/>
<polygon fill="#191970" stroke="#191970" points="1497.2819,-69.2771 1486.8997,-67.165 1493.6988,-75.2905 1497.2819,-69.2771"/>
</g>
<!-- Node37&#45;&gt;Node35 -->
<g id="edge19" class="edge">
<title>Node37&#45;&gt;Node35</title>
<path fill="none" stroke="#191970" d="M864.9201,-194.7198C925.825,-201.1338 1021.1467,-209.5 1104,-209.5 1104,-209.5 1104,-209.5 1339,-209.5 1409.2822,-209.5 1490.8034,-201.2686 1538.32,-195.6417"/>
<polygon fill="#191970" stroke="#191970" points="865.0197,-191.2106 854.7044,-193.6282 864.2759,-198.171 865.0197,-191.2106"/>
</g>
<!-- Node38 -->
<g id="node13" class="node">
<title>Node38</title>
<g id="a_node13"><a xlink:href="net_8c.html#a8534f7860b14e0743529daff196a27ce" target="_top" xlink:title="coap_handle_dgram_for\l_proto">
<polygon fill="#ffffff" stroke="#000000" points="896,-150.5 896,-180.5 1016,-180.5 1016,-150.5 896,-150.5"/>
<text text-anchor="start" x="904" y="-168.5" font-family="Helvetica,sans-Serif" font-size="10.00" fill="#000000">coap_handle_dgram_for</text>
<text text-anchor="middle" x="956" y="-157.5" font-family="Helvetica,sans-Serif" font-size="10.00" fill="#000000">_proto</text>
</a>
</g>
</g>
<!-- Node37&#45;&gt;Node38 -->
<g id="edge15" class="edge">
<title>Node37&#45;&gt;Node38</title>
<path fill="none" stroke="#191970" d="M864.9706,-178.5466C875.1894,-177.082 885.7583,-175.5672 895.9178,-174.1111"/>
<polygon fill="#191970" stroke="#191970" points="864.2989,-175.107 854.8967,-179.9904 865.2921,-182.0362 864.2989,-175.107"/>
</g>
<!-- Node38&#45;&gt;Node30 -->
<g id="edge16" class="edge">
<title>Node38&#45;&gt;Node30</title>
<path fill="none" stroke="#191970" d="M1020.151,-147.7284C1037.1191,-143.0278 1054.7905,-138.1324 1069.5107,-134.0545"/>
<polygon fill="#191970" stroke="#191970" points="1018.972,-144.4232 1010.2693,-150.4659 1020.8408,-151.1691 1018.972,-144.4232"/>
</g>
<!-- Node39 -->
<g id="node14" class="node">
<title>Node39</title>
<g id="a_node14"><a xlink:href="net_8c.html#a44ffb4b70e537043e9a9cf344be24b92" target="_top" xlink:title="coap_read_endpoint">
<polygon fill="#ffffff" stroke="#000000" points="1052,-155 1052,-174 1156,-174 1156,-155 1052,-155"/>
<text text-anchor="middle" x="1104" y="-162" font-family="Helvetica,sans-Serif" font-size="10.00" fill="#000000">coap_read_endpoint</text>
</a>
</g>
</g>
<!-- Node38&#45;&gt;Node39 -->
<g id="edge17" class="edge">
<title>Node38&#45;&gt;Node39</title>
<path fill="none" stroke="#191970" d="M1026.2786,-165.0251C1034.917,-164.9668 1043.6233,-164.908 1051.9248,-164.8519"/>
<polygon fill="#191970" stroke="#191970" points="1026.1734,-161.5257 1016.1973,-165.0933 1026.2207,-168.5255 1026.1734,-161.5257"/>
</g>
<!-- Node39&#45;&gt;Node31 -->
<g id="edge18" class="edge">
<title>Node39&#45;&gt;Node31</title>
<path fill="none" stroke="#191970" d="M1142.1899,-151.6631C1159.2571,-145.9262 1179.0197,-139.2833 1194.7291,-134.0028"/>
<polygon fill="#191970" stroke="#191970" points="1140.8671,-148.4152 1132.5035,-154.919 1143.0975,-155.0504 1140.8671,-148.4152"/>
</g>
<!-- Node41 -->
<g id="node16" class="node">
<title>Node41</title>
<g id="a_node16"><a xlink:href="group__block.html#ga0a90438f60d08abd88da955ec895cedb" target="_top" xlink:title="Adds the block_num block of size 1 &lt;&lt; (block_szx + 4) from source data to pdu. ">
<polygon fill="#ffffff" stroke="#000000" points="285.5,-50 285.5,-69 372.5,-69 372.5,-50 285.5,-50"/>
<text text-anchor="middle" x="329" y="-57" font-family="Helvetica,sans-Serif" font-size="10.00" fill="#000000">coap_add_block</text>
</a>
</g>
</g>
<!-- Node40&#45;&gt;Node41 -->
<g id="edge23" class="edge">
<title>Node40&#45;&gt;Node41</title>
<path fill="none" stroke="#191970" d="M230.8325,-85.3157C250.8939,-80.04 274.0285,-73.9562 292.7988,-69.0201"/>
<polygon fill="#191970" stroke="#191970" points="229.7445,-81.9827 220.9635,-87.911 231.5248,-88.7526 229.7445,-81.9827"/>
</g>
<!-- Node42 -->
<g id="node17" class="node">
<title>Node42</title>
<g id="a_node17"><a xlink:href="group__block.html#ga38c1e9829062e3e2ce621641f1ae59c5" target="_top" xlink:title="Adds the appropriate part of data to the response pdu. ">
<polygon fill="#ffffff" stroke="#000000" points="432,-.5 432,-30.5 554,-30.5 554,-.5 432,-.5"/>
<text text-anchor="start" x="440" y="-18.5" font-family="Helvetica,sans-Serif" font-size="10.00" fill="#000000">coap_add_data_blocked</text>
<text text-anchor="middle" x="493" y="-7.5" font-family="Helvetica,sans-Serif" font-size="10.00" fill="#000000">_response</text>
</a>
</g>
</g>
<!-- Node40&#45;&gt;Node42 -->
<g id="edge27" class="edge">
<title>Node40&#45;&gt;Node42</title>
<path fill="none" stroke="#191970" d="M201.2937,-80.9968C216.0002,-67.6358 238.6219,-49.5938 262,-40.5 316.6997,-19.2226 383.8417,-14.0558 431.6128,-13.5597"/>
<polygon fill="#191970" stroke="#191970" points="198.884,-78.4583 193.9832,-87.8515 203.672,-83.5647 198.884,-78.4583"/>
</g>
<!-- Node44 -->
<g id="node19" class="node">
<title>Node44</title>
<g id="a_node19"><a xlink:href="net_8h.html#ab7953637ad760f76ffb8060ddf47fe6a" target="_top" xlink:title="Creates a new ACK PDU with specified error code. ">
<polygon fill="#ffffff" stroke="#000000" points="263.5,-126 263.5,-145 394.5,-145 394.5,-126 263.5,-126"/>
<text text-anchor="middle" x="329" y="-133" font-family="Helvetica,sans-Serif" font-size="10.00" fill="#000000">coap_new_error_response</text>
</a>
</g>
</g>
<!-- Node40&#45;&gt;Node44 -->
<g id="edge28" class="edge">
<title>Node40&#45;&gt;Node44</title>
<path fill="none" stroke="#191970" d="M230.8325,-109.6843C250.8939,-114.96 274.0285,-121.0438 292.7988,-125.9799"/>
<polygon fill="#191970" stroke="#191970" points="231.5248,-106.2474 220.9635,-107.089 229.7445,-113.0173 231.5248,-106.2474"/>
</g>
<!-- Node41&#45;&gt;Node42 -->
<g id="edge24" class="edge">
<title>Node41&#45;&gt;Node42</title>
<path fill="none" stroke="#191970" d="M374.3561,-47.3313C393.6957,-42.1426 416.4589,-36.0354 436.8473,-30.5654"/>
<polygon fill="#191970" stroke="#191970" points="373.337,-43.9808 364.5856,-49.9527 375.151,-50.7417 373.337,-43.9808"/>
</g>
<!-- Node43 -->
<g id="node18" class="node">
<title>Node43</title>
<g id="a_node18"><a xlink:href="group__block.html#gaa67d14fa889f79afee9762dab7fc83e4" target="_top" xlink:title="Checks if more than num blocks are required to deliver data_len bytes of data for a block size of 1 &lt;...">
<polygon fill="#ffffff" stroke="#000000" points="600.5,-28 600.5,-47 698.5,-47 698.5,-28 600.5,-28"/>
<text text-anchor="middle" x="649.5" y="-35" font-family="Helvetica,sans-Serif" font-size="10.00" fill="#000000">coap_more_blocks</text>
</a>
</g>
</g>
<!-- Node41&#45;&gt;Node43 -->
<g id="edge26" class="edge">
<title>Node41&#45;&gt;Node43</title>
<path fill="none" stroke="#191970" d="M382.7056,-55.8135C443.4208,-51.6458 541.4451,-44.9172 600.2562,-40.8802"/>
<polygon fill="#191970" stroke="#191970" points="382.2944,-52.3334 372.5576,-56.5101 382.7738,-59.317 382.2944,-52.3334"/>
</g>
<!-- Node42&#45;&gt;Node43 -->
<g id="edge25" class="edge">
<title>Node42&#45;&gt;Node43</title>
<path fill="none" stroke="#191970" d="M564.5096,-25.5525C576.6318,-27.2566 588.9715,-28.9912 600.3532,-30.5912"/>
<polygon fill="#191970" stroke="#191970" points="564.7937,-22.0581 554.4038,-24.1318 563.8192,-28.9899 564.7937,-22.0581"/>
</g>
<!-- Node44&#45;&gt;Node28 -->
<g id="edge35" class="edge">
<title>Node44&#45;&gt;Node28</title>
<path fill="none" stroke="#191970" d="M355.7059,-149.8406C376.3078,-160.6929 405.6447,-175.6931 432,-187.5 443.4245,-192.6181 456.2936,-197.7689 467.2565,-201.9795"/>
<polygon fill="#191970" stroke="#191970" points="357.0963,-146.6163 346.6215,-145.0258 353.8182,-152.8013 357.0963,-146.6163"/>
</g>
<!-- Node44&#45;&gt;Node29 -->
<g id="edge36" class="edge">
<title>Node44&#45;&gt;Node29</title>
<path fill="none" stroke="#191970" d="M397.8615,-146.6725C462.2996,-157.1274 556.3515,-172.387 609.3342,-180.9832"/>
<polygon fill="#191970" stroke="#191970" points="398.2161,-143.1844 387.7846,-145.0376 397.095,-150.094 398.2161,-143.1844"/>
</g>
<!-- Node45 -->
<g id="node20" class="node">
<title>Node45</title>
<g id="a_node20"><a xlink:href="net_8h.html#ab31cd76353f751ec4dc5c033152df575" target="_top" xlink:title="Sends an error response with code code for request request to dst. ">
<polygon fill="#ffffff" stroke="#000000" points="448.5,-88 448.5,-107 537.5,-107 537.5,-88 448.5,-88"/>
<text text-anchor="middle" x="493" y="-95" font-family="Helvetica,sans-Serif" font-size="10.00" fill="#000000">coap_send_error</text>
</a>
</g>
</g>
<!-- Node44&#45;&gt;Node45 -->
<g id="edge29" class="edge">
<title>Node44&#45;&gt;Node45</title>
<path fill="none" stroke="#191970" d="M380.341,-123.6039C403.3929,-118.2626 430.2211,-112.0463 451.9135,-107.0201"/>
<polygon fill="#191970" stroke="#191970" points="379.336,-120.244 370.3841,-125.911 380.9161,-127.0633 379.336,-120.244"/>
</g>
<!-- Node46 -->
<g id="node21" class="node">
<title>Node46</title>
<g id="a_node21"><a xlink:href="net_8h.html#ade36148140b152d713b23d17bbcf0024" target="_top" xlink:title="Returns a new message id and updates session&#45;&gt;tx_mid accordingly. ">
<polygon fill="#ffffff" stroke="#000000" points="590,-88 590,-107 709,-107 709,-88 590,-88"/>
<text text-anchor="middle" x="649.5" y="-95" font-family="Helvetica,sans-Serif" font-size="10.00" fill="#000000">coap_new_message_id</text>
</a>
</g>
</g>
<!-- Node44&#45;&gt;Node46 -->
<g id="edge37" class="edge">
<title>Node44&#45;&gt;Node46</title>
<path fill="none" stroke="#191970" d="M404.6852,-131.2326C448.4488,-128.2353 504.4846,-123.4938 554,-116.5 571.4082,-114.0412 590.4335,-110.4444 606.8889,-107.0401"/>
<polygon fill="#191970" stroke="#191970" points="404.4346,-127.7414 394.6907,-131.9015 404.9021,-134.7258 404.4346,-127.7414"/>
</g>
<!-- Node45&#45;&gt;Node46 -->
<g id="edge30" class="edge">
<title>Node45&#45;&gt;Node46</title>
<path fill="none" stroke="#191970" d="M547.9585,-97.5C561.4817,-97.5 576.026,-97.5 589.7628,-97.5"/>
<polygon fill="#191970" stroke="#191970" points="547.8467,-94.0001 537.8466,-97.5 547.8466,-101.0001 547.8467,-94.0001"/>
</g>
<!-- Node47 -->
<g id="node22" class="node">
<title>Node47</title>
<g id="a_node22"><a xlink:href="resource_8c.html#ae1a91e254baca4f43b7896f54a8d9944" target="_top" xlink:title="coap_notify_observers">
<polygon fill="#ffffff" stroke="#000000" points="745,-74 745,-93 860,-93 860,-74 745,-74"/>
<text text-anchor="middle" x="802.5" y="-81" font-family="Helvetica,sans-Serif" font-size="10.00" fill="#000000">coap_notify_observers</text>
</a>
</g>
</g>
<!-- Node46&#45;&gt;Node47 -->
<g id="edge31" class="edge">
<title>Node46&#45;&gt;Node47</title>
<path fill="none" stroke="#191970" d="M719.1098,-91.1305C727.7119,-90.3434 736.4311,-89.5455 744.8276,-88.7772"/>
<polygon fill="#191970" stroke="#191970" points="718.7313,-87.6504 709.0919,-92.0471 719.3693,-94.6213 718.7313,-87.6504"/>
</g>
<!-- Node48 -->
<g id="node23" class="node">
<title>Node48</title>
<g id="a_node23"><a xlink:href="resource_8h.html#a579bcb559463d3a872831c18d8d9a1c1" target="_top" xlink:title="Checks for all known resources, if they are dirty and notifies subscribed observers. ">
<polygon fill="#ffffff" stroke="#000000" points="1290,-74 1290,-93 1388,-93 1388,-74 1290,-74"/>
<text text-anchor="middle" x="1339" y="-81" font-family="Helvetica,sans-Serif" font-size="10.00" fill="#000000">coap_check_notify</text>
</a>
</g>
</g>
<!-- Node47&#45;&gt;Node48 -->
<g id="edge32" class="edge">
<title>Node47&#45;&gt;Node48</title>
<path fill="none" stroke="#191970" d="M870.4543,-83.5C980.1565,-83.5 1193.6842,-83.5 1289.9036,-83.5"/>
<polygon fill="#191970" stroke="#191970" points="870.1696,-80.0001 860.1695,-83.5 870.1695,-87.0001 870.1696,-80.0001"/>
</g>
<!-- Node48&#45;&gt;Node34 -->
<g id="edge33" class="edge">
<title>Node48&#45;&gt;Node34</title>
<path fill="none" stroke="#191970" d="M1394.1117,-71.8975C1406.5089,-69.2876 1419.2672,-66.6016 1430.3566,-64.267"/>
<polygon fill="#191970" stroke="#191970" points="1393.35,-68.4811 1384.2856,-73.9662 1394.7921,-75.3309 1393.35,-68.4811"/>
</g>
<!-- Node48&#45;&gt;Node36 -->
<g id="edge34" class="edge">
<title>Node48&#45;&gt;Node36</title>
<path fill="none" stroke="#191970" d="M1398.2663,-89.2587C1406.9313,-90.1006 1415.6616,-90.9489 1423.7733,-91.7371"/>
<polygon fill="#191970" stroke="#191970" points="1398.457,-85.7608 1388.1653,-88.2772 1397.7799,-92.728 1398.457,-85.7608"/>
</g>
</g>
</svg>
        <g id="navigator" transform="translate(0 0)" fill="#404254">
                <rect fill="#f2f5e9" fill-opacity="0.5" stroke="#606060" stroke-width=".5" x="0" y="0" width="60" height="60"/>
                <use id="zoomplus" xlink:href="#zoomPlus" x="17" y="9" onmousedown="handleZoom(evt,'in')"/>
                <use id="zoomminus" xlink:href="#zoomMin" x="42" y="9" onmousedown="handleZoom(evt,'out')"/>
                <use id="reset" xlink:href="#resetDef" x="30" y="36" onmousedown="handleReset()"/>
                <g id="arrowUp" xlink:href="#dirArrow" transform="translate(30 24)" onmousedown="handlePan(0,-1)">
                  <use xlink:href="#rim" fill="#404040">
                        <set attributeName="fill" to="#808080" begin="arrowUp.mouseover" end="arrowUp.mouseout"/>
                  </use>
                  <path fill="none" stroke="white" stroke-width="1.5" d="M0,-3.0v7 M-2.5,-0.5L0,-3.0L2.5,-0.5"/>
                </g>
                <g id="arrowRight" xlink:href="#dirArrow" transform="rotate(90) translate(36 -43)" onmousedown="handlePan(1,0)">
                  <use xlink:href="#rim" fill="#404040">
                        <set attributeName="fill" to="#808080" begin="arrowRight.mouseover" end="arrowRight.mouseout"/>
                  </use>
                  <path fill="none" stroke="white" stroke-width="1.5" d="M0,-3.0v7 M-2.5,-0.5L0,-3.0L2.5,-0.5"/>
                </g>
                <g id="arrowDown" xlink:href="#dirArrow" transform="rotate(180) translate(-30 -48)" onmousedown="handlePan(0,1)">
                  <use xlink:href="#rim" fill="#404040">
                        <set attributeName="fill" to="#808080" begin="arrowDown.mouseover" end="arrowDown.mouseout"/>
                  </use>
                  <path fill="none" stroke="white" stroke-width="1.5" d="M0,-3.0v7 M-2.5,-0.5L0,-3.0L2.5,-0.5"/>
                </g>
                <g id="arrowLeft" xlink:href="#dirArrow" transform="rotate(270) translate(-36 17)" onmousedown="handlePan(-1,0)">
                  <use xlink:href="#rim" fill="#404040">
                        <set attributeName="fill" to="#808080" begin="arrowLeft.mouseover" end="arrowLeft.mouseout"/>
                  </use>
                  <path fill="none" stroke="white" stroke-width="1.5" d="M0,-3.0v7 M-2.5,-0.5L0,-3.0L2.5,-0.5"/>
                </g>
        </g>
        <svg viewBox="0 0 15 15" width="100%" height="30px" preserveAspectRatio="xMaxYMin meet">
         <g id="arrow_out" transform="scale(0.3 0.3)">
          <a xlink:href="pdu_8h_ab2a710785ec579083f95ee049566fb83_icgraph_org.svg" target="_base">
           <rect id="button" ry="5" rx="5" y="6" x="6" height="38" width="38"
                fill="#f2f5e9" fill-opacity="0.5" stroke="#606060" stroke-width="1.0"/>
           <path id="arrow"
             d="M 11.500037,31.436501 C 11.940474,20.09759 22.043105,11.32322 32.158766,21.979434 L 37.068811,17.246167 C 37.068811,17.246167 37.088388,32 37.088388,32 L 22.160133,31.978069 C 22.160133,31.978069 26.997745,27.140456 26.997745,27.140456 C 18.528582,18.264221 13.291696,25.230495 11.500037,31.436501 z"
             style="fill:#404040;"/>
          </a>
         </g>
        </svg>
</svg>
