<?xml version="1.0" encoding="UTF-8" standalone="no"?>
<!DOCTYPE svg PUBLIC "-//W3C//DTD SVG 1.1//EN"
 "http://www.w3.org/Graphics/SVG/1.1/DTD/svg11.dtd">
<!-- Generated by graphviz version 2.40.1 (20161225.0304)
 -->
<!-- Title: coap_delete_all_resources Pages: 1 -->
<!--zoomable 513 -->
<svg id="main" version="1.1" xmlns="http://www.w3.org/2000/svg" xmlns:xlink="http://www.w3.org/1999/xlink" xml:space="preserve" onload="init(evt)">
<style type="text/css"><![CDATA[
.edge:hover path { stroke: red; }
.edge:hover polygon { stroke: red; fill: red; }
]]></style>
<script type="text/javascript"><![CDATA[
var edges = document.getElementsByTagName('g');
if (edges && edges.length) {
  for (var i=0;i<edges.length;i++) {
    if (edges[i].id.substr(0,4)=='edge') {
      edges[i].setAttribute('class','edge');
    }
  }
}
]]></script>
        <defs>
                <circle id="rim" cx="0" cy="0" r="7"/>
                <circle id="rim2" cx="0" cy="0" r="3.5"/>
                <g id="zoomPlus">
                        <use xlink:href="#rim" fill="#404040">
                                <set attributeName="fill" to="#808080" begin="zoomplus.mouseover" end="zoomplus.mouseout"/>
                        </use>
                        <path d="M-4,0h8M0,-4v8" fill="none" stroke="white" stroke-width="1.5" pointer-events="none"/>
                </g>
                <g id="zoomMin">
                        <use xlink:href="#rim" fill="#404040">
                                <set attributeName="fill" to="#808080" begin="zoomminus.mouseover" end="zoomminus.mouseout"/>
                        </use>
                        <path d="M-4,0h8" fill="none" stroke="white" stroke-width="1.5" pointer-events="none"/>
                </g>
                <g id="dirArrow">
                        <path fill="none" stroke="white" stroke-width="1.5" d="M0,-3.0v7 M-2.5,-0.5L0,-3.0L2.5,-0.5"/>
                </g>
               <g id="resetDef">
                       <use xlink:href="#rim2" fill="#404040">
                               <set attributeName="fill" to="#808080" begin="reset.mouseover" end="reset.mouseout"/>
                       </use>
               </g>
        </defs>

<script type="text/javascript">
var viewWidth = 1270;
var viewHeight = 513;
var sectionId = 'dynsection-9';
</script>
<script xlink:href="svgpan.js"/>
<svg id="graph" class="graph">
<g id="viewport">
<title>coap_delete_all_resources</title>
<polygon fill="#ffffff" stroke="transparent" points="-4,4 -4,-509.0884 1266,-509.0884 1266,4 -4,4"/>
<!-- Node186 -->
<g id="node1" class="node">
<title>Node186</title>
<polygon fill="#bfbfbf" stroke="#000000" points="0,-371.5884 0,-390.5884 132,-390.5884 132,-371.5884 0,-371.5884"/>
<text text-anchor="middle" x="66" y="-378.5884" font-family="Helvetica,sans-Serif" font-size="10.00" fill="#000000">coap_delete_all_resources</text>
</g>
<!-- Node187 -->
<g id="node2" class="node">
<title>Node187</title>
<g id="a_node2"><a xlink:href="resource_8c.html#a1307a6b8dadd6d005352ce02f6cf392f" target="_top" xlink:title="coap_free_resource">
<polygon fill="#ffffff" stroke="#000000" points="168,-371.5884 168,-390.5884 270,-390.5884 270,-371.5884 168,-371.5884"/>
<text text-anchor="middle" x="219" y="-378.5884" font-family="Helvetica,sans-Serif" font-size="10.00" fill="#000000">coap_free_resource</text>
</a>
</g>
</g>
<!-- Node186&#45;&gt;Node187 -->
<g id="edge1" class="edge">
<title>Node186&#45;&gt;Node187</title>
<path fill="none" stroke="#191970" d="M132.2182,-381.0884C140.7158,-381.0884 149.3859,-381.0884 157.7986,-381.0884"/>
<polygon fill="#191970" stroke="#191970" points="157.9037,-384.5885 167.9037,-381.0884 157.9036,-377.5885 157.9037,-384.5885"/>
</g>
<!-- Node188 -->
<g id="node3" class="node">
<title>Node188</title>
<g id="a_node3"><a xlink:href="resource_8c.html#a37883d9c8bafdd59fd1bd57dcb82e908" target="_top" xlink:title="Deletes an attribute. ">
<polygon fill="#ffffff" stroke="#000000" points="318,-409.5884 318,-428.5884 407,-428.5884 407,-409.5884 318,-409.5884"/>
<text text-anchor="middle" x="362.5" y="-416.5884" font-family="Helvetica,sans-Serif" font-size="10.00" fill="#000000">coap_delete_attr</text>
</a>
</g>
</g>
<!-- Node187&#45;&gt;Node188 -->
<g id="edge2" class="edge">
<title>Node187&#45;&gt;Node188</title>
<path fill="none" stroke="#191970" d="M255.2111,-390.6774C273.8206,-395.6054 296.6972,-401.6633 316.5389,-406.9175"/>
<polygon fill="#191970" stroke="#191970" points="315.7377,-410.3259 326.3005,-409.5025 317.5296,-403.5592 315.7377,-410.3259"/>
</g>
<!-- Node189 -->
<g id="node4" class="node">
<title>Node189</title>
<g id="a_node4"><a xlink:href="group__string.html#ga4c283744d0fa51b553bf3fc52488e4b0" target="_top" xlink:title="Deletes the given const string and releases any memory allocated. ">
<polygon fill="#ffffff" stroke="#000000" points="455,-371.5884 455,-390.5884 570,-390.5884 570,-371.5884 455,-371.5884"/>
<text text-anchor="middle" x="512.5" y="-378.5884" font-family="Helvetica,sans-Serif" font-size="10.00" fill="#000000">coap_delete_str_const</text>
</a>
</g>
</g>
<!-- Node187&#45;&gt;Node189 -->
<g id="edge6" class="edge">
<title>Node187&#45;&gt;Node189</title>
<path fill="none" stroke="#191970" d="M270.1238,-381.0884C318.572,-381.0884 391.6496,-381.0884 444.894,-381.0884"/>
<polygon fill="#191970" stroke="#191970" points="444.9297,-384.5885 454.9296,-381.0884 444.9296,-377.5885 444.9297,-384.5885"/>
</g>
<!-- Node190 -->
<g id="node5" class="node">
<title>Node190</title>
<g id="a_node5"><a xlink:href="mem_8h.html#ae7214e0c73a4d4290525873e739ed422" target="_top" xlink:title="Releases the memory that was allocated by coap_malloc_type(). ">
<polygon fill="#ffffff" stroke="#000000" points="1039,-352.5884 1039,-371.5884 1122,-371.5884 1122,-352.5884 1039,-352.5884"/>
<text text-anchor="middle" x="1080.5" y="-359.5884" font-family="Helvetica,sans-Serif" font-size="10.00" fill="#000000">coap_free_type</text>
</a>
</g>
</g>
<!-- Node187&#45;&gt;Node190 -->
<g id="edge35" class="edge">
<title>Node187&#45;&gt;Node190</title>
<path fill="none" stroke="#191970" d="M229.8567,-390.7881C245.447,-404.0756 275.6542,-427.4945 306,-438.0884 393.0154,-468.4659 420.3346,-457.0884 512.5,-457.0884 512.5,-457.0884 512.5,-457.0884 808.5,-457.0884 893.232,-457.0884 915.4011,-444.7385 994,-413.0884 1017.1958,-403.748 1041.554,-388.8636 1058.4899,-377.5802"/>
<polygon fill="#191970" stroke="#191970" points="1060.7783,-380.2567 1067.0807,-371.7401 1056.8429,-374.4677 1060.7783,-380.2567"/>
</g>
<!-- Node191 -->
<g id="node6" class="node">
<title>Node191</title>
<g id="a_node6"><a xlink:href="coap__session_8c.html#a9aee135ba884d7c143b11bc42fd23e53" target="_top" xlink:title="Decrement reference counter on a session. ">
<polygon fill="#ffffff" stroke="#000000" points="306,-333.5884 306,-352.5884 419,-352.5884 419,-333.5884 306,-333.5884"/>
<text text-anchor="middle" x="362.5" y="-340.5884" font-family="Helvetica,sans-Serif" font-size="10.00" fill="#000000">coap_session_release</text>
</a>
</g>
</g>
<!-- Node187&#45;&gt;Node191 -->
<g id="edge7" class="edge">
<title>Node187&#45;&gt;Node191</title>
<path fill="none" stroke="#191970" d="M255.2111,-371.4994C273.8206,-366.5715 296.6972,-360.5135 316.5389,-355.2593"/>
<polygon fill="#191970" stroke="#191970" points="317.5296,-358.6177 326.3005,-352.6744 315.7377,-351.8509 317.5296,-358.6177"/>
</g>
<!-- Node209 -->
<g id="node24" class="node">
<title>Node209</title>
<g id="a_node24"><a xlink:href="group__string.html#gad991c87cfcf9b2414d2dc430c8701ed3" target="_top" xlink:title="Deletes the given string and releases any memory allocated. ">
<polygon fill="#ffffff" stroke="#000000" points="463.5,-95.5884 463.5,-114.5884 561.5,-114.5884 561.5,-95.5884 463.5,-95.5884"/>
<text text-anchor="middle" x="512.5" y="-102.5884" font-family="Helvetica,sans-Serif" font-size="10.00" fill="#000000">coap_delete_string</text>
</a>
</g>
</g>
<!-- Node187&#45;&gt;Node209 -->
<g id="edge33" class="edge">
<title>Node187&#45;&gt;Node209</title>
<path fill="none" stroke="#191970" d="M229.1029,-371.5879C271.96,-331.2862 439.0673,-174.1427 494.5117,-122.0042"/>
<polygon fill="#191970" stroke="#191970" points="497.2484,-124.2351 502.1357,-114.8348 492.453,-119.1356 497.2484,-124.2351"/>
</g>
<!-- Node188&#45;&gt;Node189 -->
<g id="edge3" class="edge">
<title>Node188&#45;&gt;Node189</title>
<path fill="none" stroke="#191970" d="M400.3513,-409.4994C419.9671,-404.5301 444.1187,-398.4117 464.979,-393.1271"/>
<polygon fill="#191970" stroke="#191970" points="466.0866,-396.4571 474.9209,-390.6085 464.3675,-389.6715 466.0866,-396.4571"/>
</g>
<!-- Node188&#45;&gt;Node190 -->
<g id="edge5" class="edge">
<title>Node188&#45;&gt;Node190</title>
<path fill="none" stroke="#191970" d="M407.0304,-419.0884C465.1189,-419.0884 569.9102,-419.0884 659.5,-419.0884 659.5,-419.0884 659.5,-419.0884 808.5,-419.0884 894.2155,-419.0884 991.9567,-391.6376 1043.7525,-374.836"/>
<polygon fill="#191970" stroke="#191970" points="1045.0802,-378.0836 1053.4819,-371.6289 1042.8888,-371.4355 1045.0802,-378.0836"/>
</g>
<!-- Node189&#45;&gt;Node190 -->
<g id="edge4" class="edge">
<title>Node189&#45;&gt;Node190</title>
<path fill="none" stroke="#191970" d="M570.0887,-379.162C680.9049,-375.4552 922.2309,-367.3826 1028.4943,-363.828"/>
<polygon fill="#191970" stroke="#191970" points="1028.7734,-367.3208 1038.6508,-363.4883 1028.5393,-360.3247 1028.7734,-367.3208"/>
</g>
<!-- Node192 -->
<g id="node7" class="node">
<title>Node192</title>
<g id="a_node7"><a xlink:href="coap__session_8c.html#ab3d24595515d6f66805791a7f821d5e7" target="_top" xlink:title="coap_session_free">
<polygon fill="#ffffff" stroke="#000000" points="463.5,-176.5884 463.5,-195.5884 561.5,-195.5884 561.5,-176.5884 463.5,-176.5884"/>
<text text-anchor="middle" x="512.5" y="-183.5884" font-family="Helvetica,sans-Serif" font-size="10.00" fill="#000000">coap_session_free</text>
</a>
</g>
</g>
<!-- Node191&#45;&gt;Node192 -->
<g id="edge8" class="edge">
<title>Node191&#45;&gt;Node192</title>
<path fill="none" stroke="#191970" d="M371.8832,-333.2674C396.7166,-307.275 464.4062,-236.4266 495.9325,-203.4291"/>
<polygon fill="#191970" stroke="#191970" points="498.743,-205.554 503.1204,-195.9058 493.6816,-200.7184 498.743,-205.554"/>
</g>
<!-- Node192&#45;&gt;Node190 -->
<g id="edge32" class="edge">
<title>Node192&#45;&gt;Node190</title>
<path fill="none" stroke="#191970" d="M531.5655,-176.4056C586.3848,-149.9781 748.1685,-81.9653 868,-134.0884 869.6485,-134.8055 1015.1497,-291.615 1064.408,-344.7321"/>
<polygon fill="#191970" stroke="#191970" points="1062.0847,-347.3741 1071.4505,-352.327 1067.2176,-342.6145 1062.0847,-347.3741"/>
</g>
<!-- Node193 -->
<g id="node8" class="node">
<title>Node193</title>
<g id="a_node8"><a xlink:href="coap__session_8c.html#ab91ca670624ee770714727efff274c49" target="_top" xlink:title="coap_session_mfree">
<polygon fill="#ffffff" stroke="#000000" points="606,-219.5884 606,-238.5884 713,-238.5884 713,-219.5884 606,-219.5884"/>
<text text-anchor="middle" x="659.5" y="-226.5884" font-family="Helvetica,sans-Serif" font-size="10.00" fill="#000000">coap_session_mfree</text>
</a>
</g>
</g>
<!-- Node192&#45;&gt;Node193 -->
<g id="edge9" class="edge">
<title>Node192&#45;&gt;Node193</title>
<path fill="none" stroke="#191970" d="M545.1241,-195.6315C566.3443,-201.8388 594.2297,-209.9957 617.1537,-216.7014"/>
<polygon fill="#191970" stroke="#191970" points="616.3867,-220.1236 626.9671,-219.572 618.352,-213.4052 616.3867,-220.1236"/>
</g>
<!-- Node206 -->
<g id="node21" class="node">
<title>Node206</title>
<g id="a_node21"><a xlink:href="group__logging.html#ga8b690dbed6cc3a5beb81ba5d2d27d290" target="_top" xlink:title="Get session description. ">
<polygon fill="#ffffff" stroke="#000000" points="613,-67.5884 613,-86.5884 706,-86.5884 706,-67.5884 613,-67.5884"/>
<text text-anchor="middle" x="659.5" y="-74.5884" font-family="Helvetica,sans-Serif" font-size="10.00" fill="#000000">coap_session_str</text>
</a>
</g>
</g>
<!-- Node192&#45;&gt;Node206 -->
<g id="edge29" class="edge">
<title>Node192&#45;&gt;Node206</title>
<path fill="none" stroke="#191970" d="M521.2331,-176.3368C536.8803,-159.3077 571.3126,-123.8022 606,-101.0884 611.7793,-97.3041 618.2538,-93.8396 624.649,-90.7914"/>
<polygon fill="#191970" stroke="#191970" points="626.1932,-93.9346 633.8716,-86.6345 623.3167,-87.5529 626.1932,-93.9346"/>
</g>
<!-- Node194 -->
<g id="node9" class="node">
<title>Node194</title>
<g id="a_node9"><a xlink:href="pdu_8c.html#a48581f968a30ef4278702eb1c16b7a90" target="_top" xlink:title="Dispose of an CoAP PDU and frees associated storage. ">
<polygon fill="#ffffff" stroke="#000000" points="904,-333.5884 904,-352.5884 994,-352.5884 994,-333.5884 904,-333.5884"/>
<text text-anchor="middle" x="949" y="-340.5884" font-family="Helvetica,sans-Serif" font-size="10.00" fill="#000000">coap_delete_pdu</text>
</a>
</g>
</g>
<!-- Node193&#45;&gt;Node194 -->
<g id="edge10" class="edge">
<title>Node193&#45;&gt;Node194</title>
<path fill="none" stroke="#191970" d="M700.8803,-238.606C752.7556,-250.8467 838.4623,-272.1814 868,-286.0884 890.9713,-296.9038 914.3907,-314.2056 930.0991,-326.9132"/>
<polygon fill="#191970" stroke="#191970" points="928.0438,-329.7553 937.9809,-333.43 932.5043,-324.3604 928.0438,-329.7553"/>
</g>
<!-- Node195 -->
<g id="node10" class="node">
<title>Node195</title>
<g id="a_node10"><a xlink:href="coap__dtls_8c.html#ae8b4d2b8a9cb8964944c841e92952ebe" target="_top" xlink:title="coap_dtls_free_session">
<polygon fill="#ffffff" stroke="#000000" points="749,-143.5884 749,-162.5884 868,-162.5884 868,-143.5884 749,-143.5884"/>
<text text-anchor="middle" x="808.5" y="-150.5884" font-family="Helvetica,sans-Serif" font-size="10.00" fill="#000000">coap_dtls_free_session</text>
</a>
</g>
</g>
<!-- Node193&#45;&gt;Node195 -->
<g id="edge12" class="edge">
<title>Node193&#45;&gt;Node195</title>
<path fill="none" stroke="#191970" d="M674.3423,-219.5812C691.8102,-208.6019 721.8795,-190.3524 749,-177.0884 756.6116,-173.3658 764.9533,-169.7364 772.9192,-166.4735"/>
<polygon fill="#191970" stroke="#191970" points="774.3886,-169.6554 782.3751,-162.6936 771.7903,-163.1555 774.3886,-169.6554"/>
</g>
<!-- Node196 -->
<g id="node11" class="node">
<title>Node196</title>
<g id="a_node11"><a xlink:href="coap__notls_8c.html#aa317934415639e23b64a3bd0b4edde6c" target="_top" xlink:title="coap_tls_free_session">
<polygon fill="#ffffff" stroke="#000000" points="751.5,-295.5884 751.5,-314.5884 865.5,-314.5884 865.5,-295.5884 751.5,-295.5884"/>
<text text-anchor="middle" x="808.5" y="-302.5884" font-family="Helvetica,sans-Serif" font-size="10.00" fill="#000000">coap_tls_free_session</text>
</a>
</g>
</g>
<!-- Node193&#45;&gt;Node196 -->
<g id="edge13" class="edge">
<title>Node193&#45;&gt;Node196</title>
<path fill="none" stroke="#191970" d="M674.3423,-238.5957C691.8102,-249.5749 721.8795,-267.8245 749,-281.0884 756.6116,-284.811 764.9533,-288.4405 772.9192,-291.7034"/>
<polygon fill="#191970" stroke="#191970" points="771.7903,-295.0213 782.3751,-295.4832 774.3886,-288.5214 771.7903,-295.0213"/>
</g>
<!-- Node197 -->
<g id="node12" class="node">
<title>Node197</title>
<g id="a_node12"><a xlink:href="coap__io_8c.html#a2de382e7795c908d1a376da8c338386d" target="_top" xlink:title="coap_socket_close">
<polygon fill="#ffffff" stroke="#000000" points="758,-219.5884 758,-238.5884 859,-238.5884 859,-219.5884 758,-219.5884"/>
<text text-anchor="middle" x="808.5" y="-226.5884" font-family="Helvetica,sans-Serif" font-size="10.00" fill="#000000">coap_socket_close</text>
</a>
</g>
</g>
<!-- Node193&#45;&gt;Node197 -->
<g id="edge14" class="edge">
<title>Node193&#45;&gt;Node197</title>
<path fill="none" stroke="#191970" d="M713.2924,-229.0884C724.3973,-229.0884 736.1689,-229.0884 747.5085,-229.0884"/>
<polygon fill="#191970" stroke="#191970" points="747.7695,-232.5885 757.7695,-229.0884 747.7694,-225.5885 747.7695,-232.5885"/>
</g>
<!-- Node198 -->
<g id="node13" class="node">
<title>Node198</title>
<g id="a_node13"><a xlink:href="mem_8h.html#a1e46a1505bb13f03fdacd5d1b32502a6" target="_top" xlink:title="Wrapper function to coap_free_type() for backwards compatibility. ">
<polygon fill="#ffffff" stroke="#000000" points="919.5,-143.5884 919.5,-162.5884 978.5,-162.5884 978.5,-143.5884 919.5,-143.5884"/>
<text text-anchor="middle" x="949" y="-150.5884" font-family="Helvetica,sans-Serif" font-size="10.00" fill="#000000">coap_free</text>
</a>
</g>
</g>
<!-- Node193&#45;&gt;Node198 -->
<g id="edge15" class="edge">
<title>Node193&#45;&gt;Node198</title>
<path fill="none" stroke="#191970" d="M695.8722,-219.5399C750.3417,-205.2405 852.7188,-178.3643 909.1501,-163.5499"/>
<polygon fill="#191970" stroke="#191970" points="910.3469,-166.8544 919.1305,-160.9298 908.5695,-160.0838 910.3469,-166.8544"/>
</g>
<!-- Node202 -->
<g id="node17" class="node">
<title>Node202</title>
<g id="a_node17"><a xlink:href="net_8c.html#a44c39a2314035989d3e07b9d9328e08c" target="_top" xlink:title="Destroys specified node. ">
<polygon fill="#ffffff" stroke="#000000" points="761,-333.5884 761,-352.5884 856,-352.5884 856,-333.5884 761,-333.5884"/>
<text text-anchor="middle" x="808.5" y="-340.5884" font-family="Helvetica,sans-Serif" font-size="10.00" fill="#000000">coap_delete_node</text>
</a>
</g>
</g>
<!-- Node193&#45;&gt;Node202 -->
<g id="edge20" class="edge">
<title>Node193&#45;&gt;Node202</title>
<path fill="none" stroke="#191970" d="M665.955,-238.688C679.2537,-257.7442 711.6135,-300.537 749,-324.0884 752.3116,-326.1745 755.8722,-328.0501 759.5457,-329.733"/>
<polygon fill="#191970" stroke="#191970" points="758.2513,-332.985 768.8321,-333.5297 760.9004,-326.5056 758.2513,-332.985"/>
</g>
<!-- Node194&#45;&gt;Node190 -->
<g id="edge11" class="edge">
<title>Node194&#45;&gt;Node190</title>
<path fill="none" stroke="#191970" d="M994.2548,-349.6271C1005.2897,-351.2215 1017.1804,-352.9396 1028.5017,-354.5754"/>
<polygon fill="#191970" stroke="#191970" points="1028.3,-358.0825 1038.6978,-356.0486 1029.3011,-351.1544 1028.3,-358.0825"/>
</g>
<!-- Node198&#45;&gt;Node190 -->
<g id="edge16" class="edge">
<title>Node198&#45;&gt;Node190</title>
<path fill="none" stroke="#191970" d="M973.8391,-162.7417C981.0049,-166.4174 988.3935,-171.179 994,-177.0884 1040.8842,-226.5055 1066.1159,-305.9467 1075.7883,-342.5133"/>
<polygon fill="#191970" stroke="#191970" points="1072.4459,-343.5719 1078.2973,-352.4043 1079.2311,-341.8507 1072.4459,-343.5719"/>
</g>
<!-- Node199 -->
<g id="node14" class="node">
<title>Node199</title>
<g id="a_node14"><a xlink:href="mem_8h.html#a65d0fc0fe6cad555b56e92ccb57613ba" target="_top" xlink:title="Initializes libcoap&#39;s memory management. ">
<polygon fill="#ffffff" stroke="#000000" points="1032.5,-181.5884 1032.5,-200.5884 1128.5,-200.5884 1128.5,-181.5884 1032.5,-181.5884"/>
<text text-anchor="middle" x="1080.5" y="-188.5884" font-family="Helvetica,sans-Serif" font-size="10.00" fill="#000000">coap_memory_init</text>
</a>
</g>
</g>
<!-- Node198&#45;&gt;Node199 -->
<g id="edge17" class="edge">
<title>Node198&#45;&gt;Node199</title>
<path fill="none" stroke="#191970" d="M978.5112,-161.6164C995.9217,-166.6475 1018.2624,-173.1034 1037.5943,-178.6898"/>
<polygon fill="#191970" stroke="#191970" points="1036.8087,-182.1059 1047.3873,-181.5197 1038.7521,-175.3811 1036.8087,-182.1059"/>
</g>
<!-- Node200 -->
<g id="node15" class="node">
<title>Node200</title>
<g id="a_node15"><a xlink:href="mem_8h.html#a1539cf5011cdfb11500b476f4dbe9393" target="_top" xlink:title="Wrapper function to coap_malloc_type() for backwards compatibility. ">
<polygon fill="#ffffff" stroke="#000000" points="1045,-143.5884 1045,-162.5884 1116,-162.5884 1116,-143.5884 1045,-143.5884"/>
<text text-anchor="middle" x="1080.5" y="-150.5884" font-family="Helvetica,sans-Serif" font-size="10.00" fill="#000000">coap_malloc</text>
</a>
</g>
</g>
<!-- Node198&#45;&gt;Node200 -->
<g id="edge18" class="edge">
<title>Node198&#45;&gt;Node200</title>
<path fill="none" stroke="#191970" d="M978.5112,-153.0884C994.9953,-153.0884 1015.8988,-153.0884 1034.4839,-153.0884"/>
<polygon fill="#191970" stroke="#191970" points="1034.5277,-156.5885 1044.5277,-153.0884 1034.5276,-149.5885 1034.5277,-156.5885"/>
</g>
<!-- Node201 -->
<g id="node16" class="node">
<title>Node201</title>
<g id="a_node16"><a xlink:href="mem_8h.html#a0204710ce56cbaa4f062b7f2622857f5" target="_top" xlink:title="Allocates a chunk of size bytes and returns a pointer to the newly allocated memory. ">
<polygon fill="#ffffff" stroke="#000000" points="1167,-466.5884 1167,-485.5884 1262,-485.5884 1262,-466.5884 1167,-466.5884"/>
<text text-anchor="middle" x="1214.5" y="-473.5884" font-family="Helvetica,sans-Serif" font-size="10.00" fill="#000000">coap_malloc_type</text>
</a>
</g>
</g>
<!-- Node200&#45;&gt;Node201 -->
<g id="edge19" class="edge">
<title>Node200&#45;&gt;Node201</title>
<path fill="none" stroke="#191970" d="M1116.0338,-161.5235C1121.6214,-164.151 1126.8967,-167.59 1131,-172.0884 1170.1567,-215.0152 1201.7979,-395.8416 1211.4562,-456.3038"/>
<polygon fill="#191970" stroke="#191970" points="1208.0366,-457.0892 1213.0458,-466.425 1214.9518,-456.003 1208.0366,-457.0892"/>
</g>
<!-- Node202&#45;&gt;Node191 -->
<g id="edge22" class="edge">
<title>Node202&#45;&gt;Node191</title>
<path fill="none" stroke="#191970" d="M760.7421,-343.0884C681.0367,-343.0884 520.6867,-343.0884 429.6476,-343.0884"/>
<polygon fill="#191970" stroke="#191970" points="429.4393,-339.5885 419.4392,-343.0884 429.4392,-346.5885 429.4393,-339.5885"/>
</g>
<!-- Node202&#45;&gt;Node194 -->
<g id="edge21" class="edge">
<title>Node202&#45;&gt;Node194</title>
<path fill="none" stroke="#191970" d="M856.0669,-343.0884C868.1327,-343.0884 881.1986,-343.0884 893.6153,-343.0884"/>
<polygon fill="#191970" stroke="#191970" points="893.8563,-346.5885 903.8563,-343.0884 893.8562,-339.5885 893.8563,-346.5885"/>
</g>
<!-- Node203 -->
<g id="node18" class="node">
<title>Node203</title>
<g id="a_node18"><a xlink:href="net_8c.html#aa2f296838e4a779197c43b254e385ddc" target="_top" xlink:title="coap_free_node">
<polygon fill="#ffffff" stroke="#000000" points="906,-485.5884 906,-504.5884 992,-504.5884 992,-485.5884 906,-485.5884"/>
<text text-anchor="middle" x="949" y="-492.5884" font-family="Helvetica,sans-Serif" font-size="10.00" fill="#000000">coap_free_node</text>
</a>
</g>
</g>
<!-- Node202&#45;&gt;Node203 -->
<g id="edge23" class="edge">
<title>Node202&#45;&gt;Node203</title>
<path fill="none" stroke="#191970" d="M817.2889,-352.5967C840.451,-377.6546 903.4156,-445.7729 933.1046,-477.8919"/>
<polygon fill="#191970" stroke="#191970" points="930.8564,-480.6161 940.2144,-485.5837 935.9968,-475.8646 930.8564,-480.6161"/>
</g>
<!-- Node203&#45;&gt;Node190 -->
<g id="edge24" class="edge">
<title>Node203&#45;&gt;Node190</title>
<path fill="none" stroke="#191970" d="M971.8605,-485.5418C979.407,-481.7291 987.5202,-476.8594 994,-471.0884 1014.9911,-452.3935 1012.6489,-441.2032 1030,-419.0884 1040.9013,-405.1942 1054.1756,-390.2806 1064.3784,-379.1944"/>
<polygon fill="#191970" stroke="#191970" points="1066.9436,-381.5756 1071.187,-371.8676 1061.8158,-376.8105 1066.9436,-381.5756"/>
</g>
<!-- Node203&#45;&gt;Node201 -->
<g id="edge28" class="edge">
<title>Node203&#45;&gt;Node201</title>
<path fill="none" stroke="#191970" d="M992.1757,-497.7932C1029.1482,-499.4639 1083.7434,-500.3971 1131,-495.0884 1144.0567,-493.6217 1158.0496,-490.9033 1170.7763,-487.9723"/>
<polygon fill="#191970" stroke="#191970" points="1171.7635,-491.3348 1180.6694,-485.5959 1170.1285,-484.5284 1171.7635,-491.3348"/>
</g>
<!-- Node204 -->
<g id="node19" class="node">
<title>Node204</title>
<g id="a_node19"><a xlink:href="net_8c.html#a157d58fe7840d7d7e36c40fff0825674" target="_top" xlink:title="coap_free_endpoint">
<polygon fill="#ffffff" stroke="#000000" points="1030,-428.5884 1030,-447.5884 1131,-447.5884 1131,-428.5884 1030,-428.5884"/>
<text text-anchor="middle" x="1080.5" y="-435.5884" font-family="Helvetica,sans-Serif" font-size="10.00" fill="#000000">coap_free_endpoint</text>
</a>
</g>
</g>
<!-- Node203&#45;&gt;Node204 -->
<g id="edge25" class="edge">
<title>Node203&#45;&gt;Node204</title>
<path fill="none" stroke="#191970" d="M968.4468,-485.4375C984.7348,-477.4822 1008.676,-466.0853 1030,-457.0884 1034.5607,-455.1642 1039.3904,-453.2248 1044.1836,-451.3584"/>
<polygon fill="#191970" stroke="#191970" points="1045.7799,-454.4955 1053.8734,-447.6584 1043.2827,-447.956 1045.7799,-454.4955"/>
</g>
<!-- Node205 -->
<g id="node20" class="node">
<title>Node205</title>
<g id="a_node20"><a xlink:href="net_8c.html#aeff229f443c6582fea71504f33364eb4" target="_top" xlink:title="coap_malloc_node">
<polygon fill="#ffffff" stroke="#000000" points="1031.5,-466.5884 1031.5,-485.5884 1129.5,-485.5884 1129.5,-466.5884 1031.5,-466.5884"/>
<text text-anchor="middle" x="1080.5" y="-473.5884" font-family="Helvetica,sans-Serif" font-size="10.00" fill="#000000">coap_malloc_node</text>
</a>
</g>
</g>
<!-- Node203&#45;&gt;Node205 -->
<g id="edge26" class="edge">
<title>Node203&#45;&gt;Node205</title>
<path fill="none" stroke="#191970" d="M992.058,-488.8671C1001.3976,-487.5177 1011.4335,-486.0676 1021.2726,-484.646"/>
<polygon fill="#191970" stroke="#191970" points="1022.0207,-488.0743 1031.4174,-483.1802 1021.0196,-481.1463 1022.0207,-488.0743"/>
</g>
<!-- Node205&#45;&gt;Node201 -->
<g id="edge27" class="edge">
<title>Node205&#45;&gt;Node201</title>
<path fill="none" stroke="#191970" d="M1129.6358,-476.0884C1138.4275,-476.0884 1147.662,-476.0884 1156.671,-476.0884"/>
<polygon fill="#191970" stroke="#191970" points="1156.7111,-479.5885 1166.7111,-476.0884 1156.7111,-472.5885 1156.7111,-479.5885"/>
</g>
<!-- Node207 -->
<g id="node22" class="node">
<title>Node207</title>
<g id="a_node22"><a xlink:href="group__logging.html#ga6a4f5ef637bf85aa161adfe73ac81ff0" target="_top" xlink:title="Print the address into the defined buffer. ">
<polygon fill="#ffffff" stroke="#000000" points="765.5,-67.5884 765.5,-86.5884 851.5,-86.5884 851.5,-67.5884 765.5,-67.5884"/>
<text text-anchor="middle" x="808.5" y="-74.5884" font-family="Helvetica,sans-Serif" font-size="10.00" fill="#000000">coap_print_addr</text>
</a>
</g>
</g>
<!-- Node206&#45;&gt;Node207 -->
<g id="edge30" class="edge">
<title>Node206&#45;&gt;Node207</title>
<path fill="none" stroke="#191970" d="M706.2357,-77.0884C721.7779,-77.0884 739.2014,-77.0884 755.2016,-77.0884"/>
<polygon fill="#191970" stroke="#191970" points="755.4765,-80.5885 765.4765,-77.0884 755.4764,-73.5885 755.4765,-80.5885"/>
</g>
<!-- Node208 -->
<g id="node23" class="node">
<title>Node208</title>
<g id="a_node23"><a xlink:href="coap__debug_8c.html#aaa5ee5c2942fe13271a46000b2aebde6" target="_top" xlink:title="A length&#45;safe strlen() fake. ">
<polygon fill="#ffffff" stroke="#000000" points="926,-67.5884 926,-86.5884 972,-86.5884 972,-67.5884 926,-67.5884"/>
<text text-anchor="middle" x="949" y="-74.5884" font-family="Helvetica,sans-Serif" font-size="10.00" fill="#000000">strnlen</text>
</a>
</g>
</g>
<!-- Node207&#45;&gt;Node208 -->
<g id="edge31" class="edge">
<title>Node207&#45;&gt;Node208</title>
<path fill="none" stroke="#191970" d="M851.8011,-77.0884C872.3464,-77.0884 896.5166,-77.0884 915.6147,-77.0884"/>
<polygon fill="#191970" stroke="#191970" points="915.6478,-80.5885 925.6477,-77.0884 915.6477,-73.5885 915.6478,-80.5885"/>
</g>
<!-- Node209&#45;&gt;Node190 -->
<g id="edge34" class="edge">
<title>Node209&#45;&gt;Node190</title>
<path fill="none" stroke="#191970" d="M526.2731,-95.5578C543.839,-84.0379 575.5945,-65.3005 606,-58.0884 773.789,-18.2895 858.7401,48.8781 994,-58.0884 1048.4543,-101.1521 1011.0371,-143.304 1030,-210.0884 1043.7393,-258.4762 1063.2762,-314.374 1073.5576,-343.009"/>
<polygon fill="#191970" stroke="#191970" points="1070.3243,-344.3602 1077.0135,-352.5763 1076.9079,-341.982 1070.3243,-344.3602"/>
</g>
</g>
</svg>
        <g id="navigator" transform="translate(0 0)" fill="#404254">
                <rect fill="#f2f5e9" fill-opacity="0.5" stroke="#606060" stroke-width=".5" x="0" y="0" width="60" height="60"/>
                <use id="zoomplus" xlink:href="#zoomPlus" x="17" y="9" onmousedown="handleZoom(evt,'in')"/>
                <use id="zoomminus" xlink:href="#zoomMin" x="42" y="9" onmousedown="handleZoom(evt,'out')"/>
                <use id="reset" xlink:href="#resetDef" x="30" y="36" onmousedown="handleReset()"/>
                <g id="arrowUp" xlink:href="#dirArrow" transform="translate(30 24)" onmousedown="handlePan(0,-1)">
                  <use xlink:href="#rim" fill="#404040">
                        <set attributeName="fill" to="#808080" begin="arrowUp.mouseover" end="arrowUp.mouseout"/>
                  </use>
                  <path fill="none" stroke="white" stroke-width="1.5" d="M0,-3.0v7 M-2.5,-0.5L0,-3.0L2.5,-0.5"/>
                </g>
                <g id="arrowRight" xlink:href="#dirArrow" transform="rotate(90) translate(36 -43)" onmousedown="handlePan(1,0)">
                  <use xlink:href="#rim" fill="#404040">
                        <set attributeName="fill" to="#808080" begin="arrowRight.mouseover" end="arrowRight.mouseout"/>
                  </use>
                  <path fill="none" stroke="white" stroke-width="1.5" d="M0,-3.0v7 M-2.5,-0.5L0,-3.0L2.5,-0.5"/>
                </g>
                <g id="arrowDown" xlink:href="#dirArrow" transform="rotate(180) translate(-30 -48)" onmousedown="handlePan(0,1)">
                  <use xlink:href="#rim" fill="#404040">
                        <set attributeName="fill" to="#808080" begin="arrowDown.mouseover" end="arrowDown.mouseout"/>
                  </use>
                  <path fill="none" stroke="white" stroke-width="1.5" d="M0,-3.0v7 M-2.5,-0.5L0,-3.0L2.5,-0.5"/>
                </g>
                <g id="arrowLeft" xlink:href="#dirArrow" transform="rotate(270) translate(-36 17)" onmousedown="handlePan(-1,0)">
                  <use xlink:href="#rim" fill="#404040">
                        <set attributeName="fill" to="#808080" begin="arrowLeft.mouseover" end="arrowLeft.mouseout"/>
                  </use>
                  <path fill="none" stroke="white" stroke-width="1.5" d="M0,-3.0v7 M-2.5,-0.5L0,-3.0L2.5,-0.5"/>
                </g>
        </g>
        <svg viewBox="0 0 15 15" width="100%" height="30px" preserveAspectRatio="xMaxYMin meet">
         <g id="arrow_out" transform="scale(0.3 0.3)">
          <a xlink:href="resource_8c_a1fae3046ad94fce85a7ea23455328958_cgraph_org.svg" target="_base">
           <rect id="button" ry="5" rx="5" y="6" x="6" height="38" width="38"
                fill="#f2f5e9" fill-opacity="0.5" stroke="#606060" stroke-width="1.0"/>
           <path id="arrow"
             d="M 11.500037,31.436501 C 11.940474,20.09759 22.043105,11.32322 32.158766,21.979434 L 37.068811,17.246167 C 37.068811,17.246167 37.088388,32 37.088388,32 L 22.160133,31.978069 C 22.160133,31.978069 26.997745,27.140456 26.997745,27.140456 C 18.528582,18.264221 13.291696,25.230495 11.500037,31.436501 z"
             style="fill:#404040;"/>
          </a>
         </g>
        </svg>
</svg>
