<?xml version="1.0" encoding="UTF-8" standalone="no"?>
<!DOCTYPE svg PUBLIC "-//W3C//DTD SVG 1.1//EN"
 "http://www.w3.org/Graphics/SVG/1.1/DTD/svg11.dtd">
<!-- Generated by graphviz version 2.40.1 (20161225.0304)
 -->
<!-- Title: coap_handle_failed_notify Pages: 1 -->
<!--zoomable 403 -->
<svg id="main" version="1.1" xmlns="http://www.w3.org/2000/svg" xmlns:xlink="http://www.w3.org/1999/xlink" xml:space="preserve" onload="init(evt)">
<style type="text/css"><![CDATA[
.edge:hover path { stroke: red; }
.edge:hover polygon { stroke: red; fill: red; }
]]></style>
<script type="text/javascript"><![CDATA[
var edges = document.getElementsByTagName('g');
if (edges && edges.length) {
  for (var i=0;i<edges.length;i++) {
    if (edges[i].id.substr(0,4)=='edge') {
      edges[i].setAttribute('class','edge');
    }
  }
}
]]></script>
        <defs>
                <circle id="rim" cx="0" cy="0" r="7"/>
                <circle id="rim2" cx="0" cy="0" r="3.5"/>
                <g id="zoomPlus">
                        <use xlink:href="#rim" fill="#404040">
                                <set attributeName="fill" to="#808080" begin="zoomplus.mouseover" end="zoomplus.mouseout"/>
                        </use>
                        <path d="M-4,0h8M0,-4v8" fill="none" stroke="white" stroke-width="1.5" pointer-events="none"/>
                </g>
                <g id="zoomMin">
                        <use xlink:href="#rim" fill="#404040">
                                <set attributeName="fill" to="#808080" begin="zoomminus.mouseover" end="zoomminus.mouseout"/>
                        </use>
                        <path d="M-4,0h8" fill="none" stroke="white" stroke-width="1.5" pointer-events="none"/>
                </g>
                <g id="dirArrow">
                        <path fill="none" stroke="white" stroke-width="1.5" d="M0,-3.0v7 M-2.5,-0.5L0,-3.0L2.5,-0.5"/>
                </g>
               <g id="resetDef">
                       <use xlink:href="#rim2" fill="#404040">
                               <set attributeName="fill" to="#808080" begin="reset.mouseover" end="reset.mouseout"/>
                       </use>
               </g>
        </defs>

<script type="text/javascript">
var viewWidth = 1401;
var viewHeight = 403;
var sectionId = 'dynsection-25';
</script>
<script xlink:href="svgpan.js"/>
<svg id="graph" class="graph">
<g id="viewport">
<title>coap_handle_failed_notify</title>
<polygon fill="#ffffff" stroke="transparent" points="-4,4 -4,-399 1397,-399 1397,4 -4,4"/>
<!-- Node469 -->
<g id="node1" class="node">
<title>Node469</title>
<polygon fill="#bfbfbf" stroke="#000000" points="0,-256 0,-286 100,-286 100,-256 0,-256"/>
<text text-anchor="start" x="8" y="-274" font-family="Helvetica,sans-Serif" font-size="10.00" fill="#000000">coap_handle_failed</text>
<text text-anchor="middle" x="50" y="-263" font-family="Helvetica,sans-Serif" font-size="10.00" fill="#000000">_notify</text>
</g>
<!-- Node470 -->
<g id="node2" class="node">
<title>Node470</title>
<g id="a_node2"><a xlink:href="resource_8c.html#a912a935612cb6910a4c466c49d58ee98" target="_top" xlink:title="Checks the failure counter for (peer, token) and removes peer from the list of observers for the give...">
<polygon fill="#ffffff" stroke="#000000" points="136,-256 136,-286 240,-286 240,-256 136,-256"/>
<text text-anchor="start" x="144" y="-274" font-family="Helvetica,sans-Serif" font-size="10.00" fill="#000000">coap_remove_failed</text>
<text text-anchor="middle" x="188" y="-263" font-family="Helvetica,sans-Serif" font-size="10.00" fill="#000000">_observers</text>
</a>
</g>
</g>
<!-- Node469&#45;&gt;Node470 -->
<g id="edge1" class="edge">
<title>Node469&#45;&gt;Node470</title>
<path fill="none" stroke="#191970" d="M100.2115,-271C108.4299,-271 117.0331,-271 125.5045,-271"/>
<polygon fill="#191970" stroke="#191970" points="125.7375,-274.5001 135.7374,-271 125.7374,-267.5001 125.7375,-274.5001"/>
</g>
<!-- Node471 -->
<g id="node3" class="node">
<title>Node471</title>
<g id="a_node3"><a xlink:href="group__logging.html#ga10c3fbd56b0eb3a8722b27a65fc9b0ce" target="_top" xlink:title="Get the current logging level. ">
<polygon fill="#ffffff" stroke="#000000" points="294.5,-375.5 294.5,-394.5 394.5,-394.5 394.5,-375.5 294.5,-375.5"/>
<text text-anchor="middle" x="344.5" y="-382.5" font-family="Helvetica,sans-Serif" font-size="10.00" fill="#000000">coap_get_log_level</text>
</a>
</g>
</g>
<!-- Node470&#45;&gt;Node471 -->
<g id="edge2" class="edge">
<title>Node470&#45;&gt;Node471</title>
<path fill="none" stroke="#191970" d="M199.1652,-286.1615C214.4617,-305.9486 243.7379,-340.4656 276,-361 282.7271,-365.2817 290.3141,-368.9131 297.9248,-371.9541"/>
<polygon fill="#191970" stroke="#191970" points="296.9214,-375.3145 307.5147,-375.4947 299.3459,-368.7478 296.9214,-375.3145"/>
</g>
<!-- Node472 -->
<g id="node4" class="node">
<title>Node472</title>
<g id="a_node4"><a xlink:href="group__logging.html#ga6a4f5ef637bf85aa161adfe73ac81ff0" target="_top" xlink:title="Print the address into the defined buffer. ">
<polygon fill="#ffffff" stroke="#000000" points="1022.5,-318.5 1022.5,-337.5 1108.5,-337.5 1108.5,-318.5 1022.5,-318.5"/>
<text text-anchor="middle" x="1065.5" y="-325.5" font-family="Helvetica,sans-Serif" font-size="10.00" fill="#000000">coap_print_addr</text>
</a>
</g>
</g>
<!-- Node470&#45;&gt;Node472 -->
<g id="edge3" class="edge">
<title>Node470&#45;&gt;Node472</title>
<path fill="none" stroke="#191970" d="M224.3253,-286.0152C281.2867,-308.1639 395.5566,-347 496.5,-347 496.5,-347 496.5,-347 778,-347 859.8726,-347 954.575,-339.2335 1012.2352,-333.6314"/>
<polygon fill="#191970" stroke="#191970" points="1012.6015,-337.1124 1022.2098,-332.6479 1011.9146,-330.1462 1012.6015,-337.1124"/>
</g>
<!-- Node474 -->
<g id="node6" class="node">
<title>Node474</title>
<g id="a_node6"><a xlink:href="net_8c.html#ab0ffe6312ad95fb07b0212f912cf196c" target="_top" xlink:title="Cancels all outstanding messages for session session that have the specified token. ">
<polygon fill="#ffffff" stroke="#000000" points="276,-261.5 276,-280.5 413,-280.5 413,-261.5 276,-261.5"/>
<text text-anchor="middle" x="344.5" y="-268.5" font-family="Helvetica,sans-Serif" font-size="10.00" fill="#000000">coap_cancel_all_messages</text>
</a>
</g>
</g>
<!-- Node470&#45;&gt;Node474 -->
<g id="edge5" class="edge">
<title>Node470&#45;&gt;Node474</title>
<path fill="none" stroke="#191970" d="M240.1122,-271C248.3566,-271 257.0383,-271 265.7285,-271"/>
<polygon fill="#191970" stroke="#191970" points="265.9084,-274.5001 275.9084,-271 265.9084,-267.5001 265.9084,-274.5001"/>
</g>
<!-- Node480 -->
<g id="node12" class="node">
<title>Node480</title>
<g id="a_node12"><a xlink:href="coap__session_8c.html#a9aee135ba884d7c143b11bc42fd23e53" target="_top" xlink:title="Decrement reference counter on a session. ">
<polygon fill="#ffffff" stroke="#000000" points="580,-147.5 580,-166.5 693,-166.5 693,-147.5 580,-147.5"/>
<text text-anchor="middle" x="636.5" y="-154.5" font-family="Helvetica,sans-Serif" font-size="10.00" fill="#000000">coap_session_release</text>
</a>
</g>
</g>
<!-- Node470&#45;&gt;Node480 -->
<g id="edge33" class="edge">
<title>Node470&#45;&gt;Node480</title>
<path fill="none" stroke="#191970" d="M240.3264,-257.6996C328.3679,-235.3212 504.7676,-190.4838 589.2641,-169.0065"/>
<polygon fill="#191970" stroke="#191970" points="590.2712,-172.3618 599.1008,-166.5062 588.5467,-165.5776 590.2712,-172.3618"/>
</g>
<!-- Node493 -->
<g id="node25" class="node">
<title>Node493</title>
<g id="a_node25"><a xlink:href="group__string.html#gad991c87cfcf9b2414d2dc430c8701ed3" target="_top" xlink:title="Deletes the given string and releases any memory allocated. ">
<polygon fill="#ffffff" stroke="#000000" points="587.5,-47.5 587.5,-66.5 685.5,-66.5 685.5,-47.5 587.5,-47.5"/>
<text text-anchor="middle" x="636.5" y="-54.5" font-family="Helvetica,sans-Serif" font-size="10.00" fill="#000000">coap_delete_string</text>
</a>
</g>
</g>
<!-- Node470&#45;&gt;Node493 -->
<g id="edge34" class="edge">
<title>Node470&#45;&gt;Node493</title>
<path fill="none" stroke="#191970" d="M207.1766,-255.9894C224.5234,-242.8365 251.0914,-223.7293 276,-210 388.9905,-147.7212 532.5484,-93.7051 599.2758,-69.9211"/>
<polygon fill="#191970" stroke="#191970" points="600.6734,-73.1392 608.9302,-66.5002 598.3354,-66.5411 600.6734,-73.1392"/>
</g>
<!-- Node473 -->
<g id="node5" class="node">
<title>Node473</title>
<g id="a_node5"><a xlink:href="coap__debug_8c.html#aaa5ee5c2942fe13271a46000b2aebde6" target="_top" xlink:title="A length&#45;safe strlen() fake. ">
<polygon fill="#ffffff" stroke="#000000" points="1188.5,-318.5 1188.5,-337.5 1234.5,-337.5 1234.5,-318.5 1188.5,-318.5"/>
<text text-anchor="middle" x="1211.5" y="-325.5" font-family="Helvetica,sans-Serif" font-size="10.00" fill="#000000">strnlen</text>
</a>
</g>
</g>
<!-- Node472&#45;&gt;Node473 -->
<g id="edge4" class="edge">
<title>Node472&#45;&gt;Node473</title>
<path fill="none" stroke="#191970" d="M1108.5152,-328C1130.7199,-328 1157.4047,-328 1178.0468,-328"/>
<polygon fill="#191970" stroke="#191970" points="1178.2348,-331.5001 1188.2347,-328 1178.2347,-324.5001 1178.2348,-331.5001"/>
</g>
<!-- Node475 -->
<g id="node7" class="node">
<title>Node475</title>
<g id="a_node7"><a xlink:href="net_8c.html#a172ec052726c632427ea990a0ba04c60" target="_top" xlink:title="token_match">
<polygon fill="#ffffff" stroke="#000000" points="460,-261.5 460,-280.5 533,-280.5 533,-261.5 460,-261.5"/>
<text text-anchor="middle" x="496.5" y="-268.5" font-family="Helvetica,sans-Serif" font-size="10.00" fill="#000000">token_match</text>
</a>
</g>
</g>
<!-- Node474&#45;&gt;Node475 -->
<g id="edge6" class="edge">
<title>Node474&#45;&gt;Node475</title>
<path fill="none" stroke="#191970" d="M413.3843,-271C425.6527,-271 438.1706,-271 449.6442,-271"/>
<polygon fill="#191970" stroke="#191970" points="449.8504,-274.5001 459.8504,-271 449.8503,-267.5001 449.8504,-274.5001"/>
</g>
<!-- Node476 -->
<g id="node8" class="node">
<title>Node476</title>
<g id="a_node8"><a xlink:href="group__logging.html#ga8b690dbed6cc3a5beb81ba5d2d27d290" target="_top" xlink:title="Get session description. ">
<polygon fill="#ffffff" stroke="#000000" points="870,-299.5 870,-318.5 963,-318.5 963,-299.5 870,-299.5"/>
<text text-anchor="middle" x="916.5" y="-306.5" font-family="Helvetica,sans-Serif" font-size="10.00" fill="#000000">coap_session_str</text>
</a>
</g>
</g>
<!-- Node474&#45;&gt;Node476 -->
<g id="edge7" class="edge">
<title>Node474&#45;&gt;Node476</title>
<path fill="none" stroke="#191970" d="M389.0492,-280.5116C407.5143,-284.0852 429.2059,-287.8091 449,-290 596.5582,-306.3325 771.7033,-309.0288 859.8378,-309.2348"/>
<polygon fill="#191970" stroke="#191970" points="859.8855,-312.7347 869.8902,-309.2482 859.895,-305.7347 859.8855,-312.7347"/>
</g>
<!-- Node477 -->
<g id="node9" class="node">
<title>Node477</title>
<g id="a_node9"><a xlink:href="net_8c.html#a44c39a2314035989d3e07b9d9328e08c" target="_top" xlink:title="Destroys specified node. ">
<polygon fill="#ffffff" stroke="#000000" points="449,-223.5 449,-242.5 544,-242.5 544,-223.5 449,-223.5"/>
<text text-anchor="middle" x="496.5" y="-230.5" font-family="Helvetica,sans-Serif" font-size="10.00" fill="#000000">coap_delete_node</text>
</a>
</g>
</g>
<!-- Node474&#45;&gt;Node477 -->
<g id="edge9" class="edge">
<title>Node474&#45;&gt;Node477</title>
<path fill="none" stroke="#191970" d="M382.856,-261.411C402.8237,-256.4191 427.4295,-250.2676 448.6334,-244.9666"/>
<polygon fill="#191970" stroke="#191970" points="449.5673,-248.341 458.4198,-242.5201 447.8695,-241.55 449.5673,-248.341"/>
</g>
<!-- Node476&#45;&gt;Node472 -->
<g id="edge8" class="edge">
<title>Node476&#45;&gt;Node472</title>
<path fill="none" stroke="#191970" d="M963.2357,-314.9596C978.7779,-316.9415 996.2014,-319.1633 1012.2016,-321.2036"/>
<polygon fill="#191970" stroke="#191970" points="1012.114,-324.7207 1022.4765,-322.5138 1012.9995,-317.7769 1012.114,-324.7207"/>
</g>
<!-- Node478 -->
<g id="node10" class="node">
<title>Node478</title>
<g id="a_node10"><a xlink:href="pdu_8c.html#a48581f968a30ef4278702eb1c16b7a90" target="_top" xlink:title="Dispose of an CoAP PDU and frees associated storage. ">
<polygon fill="#ffffff" stroke="#000000" points="1020.5,-228.5 1020.5,-247.5 1110.5,-247.5 1110.5,-228.5 1020.5,-228.5"/>
<text text-anchor="middle" x="1065.5" y="-235.5" font-family="Helvetica,sans-Serif" font-size="10.00" fill="#000000">coap_delete_pdu</text>
</a>
</g>
</g>
<!-- Node477&#45;&gt;Node478 -->
<g id="edge10" class="edge">
<title>Node477&#45;&gt;Node478</title>
<path fill="none" stroke="#191970" d="M544.0339,-233.4177C648.8037,-234.3383 899.1113,-236.5379 1010.4635,-237.5164"/>
<polygon fill="#191970" stroke="#191970" points="1010.4469,-241.0163 1020.4773,-237.6044 1010.5085,-234.0165 1010.4469,-241.0163"/>
</g>
<!-- Node477&#45;&gt;Node480 -->
<g id="edge12" class="edge">
<title>Node477&#45;&gt;Node480</title>
<path fill="none" stroke="#191970" d="M510.2923,-223.4813C526.5377,-212.4914 554.5427,-194.2318 580,-181 587.1144,-177.3022 594.9269,-173.705 602.4128,-170.4687"/>
<polygon fill="#191970" stroke="#191970" points="603.7852,-173.6885 611.6432,-166.5819 601.0686,-167.2372 603.7852,-173.6885"/>
</g>
<!-- Node490 -->
<g id="node22" class="node">
<title>Node490</title>
<g id="a_node22"><a xlink:href="net_8c.html#aa2f296838e4a779197c43b254e385ddc" target="_top" xlink:title="coap_free_node">
<polygon fill="#ffffff" stroke="#000000" points="1022.5,-266.5 1022.5,-285.5 1108.5,-285.5 1108.5,-266.5 1022.5,-266.5"/>
<text text-anchor="middle" x="1065.5" y="-273.5" font-family="Helvetica,sans-Serif" font-size="10.00" fill="#000000">coap_free_node</text>
</a>
</g>
</g>
<!-- Node477&#45;&gt;Node490 -->
<g id="edge27" class="edge">
<title>Node477&#45;&gt;Node490</title>
<path fill="none" stroke="#191970" d="M544.0414,-242.5594C555.7563,-244.633 568.2986,-246.6166 580,-248 736.4631,-266.4975 922.798,-272.9058 1012.315,-275.0208"/>
<polygon fill="#191970" stroke="#191970" points="1012.4077,-278.5237 1022.4848,-275.2523 1012.5671,-271.5255 1012.4077,-278.5237"/>
</g>
<!-- Node479 -->
<g id="node11" class="node">
<title>Node479</title>
<g id="a_node11"><a xlink:href="mem_8h.html#ae7214e0c73a4d4290525873e739ed422" target="_top" xlink:title="Releases the memory that was allocated by coap_malloc_type(). ">
<polygon fill="#ffffff" stroke="#000000" points="1170,-76.5 1170,-95.5 1253,-95.5 1253,-76.5 1170,-76.5"/>
<text text-anchor="middle" x="1211.5" y="-83.5" font-family="Helvetica,sans-Serif" font-size="10.00" fill="#000000">coap_free_type</text>
</a>
</g>
</g>
<!-- Node478&#45;&gt;Node479 -->
<g id="edge11" class="edge">
<title>Node478&#45;&gt;Node479</title>
<path fill="none" stroke="#191970" d="M1107.9385,-228.4556C1114.0106,-225.981 1119.9131,-222.8801 1125,-219 1164.9853,-188.5004 1191.934,-133.8549 1204.1029,-105.0187"/>
<polygon fill="#191970" stroke="#191970" points="1207.3859,-106.2367 1207.9143,-95.655 1200.9024,-103.5976 1207.3859,-106.2367"/>
</g>
<!-- Node481 -->
<g id="node13" class="node">
<title>Node481</title>
<g id="a_node13"><a xlink:href="coap__session_8c.html#ab3d24595515d6f66805791a7f821d5e7" target="_top" xlink:title="coap_session_free">
<polygon fill="#ffffff" stroke="#000000" points="729,-147.5 729,-166.5 827,-166.5 827,-147.5 729,-147.5"/>
<text text-anchor="middle" x="778" y="-154.5" font-family="Helvetica,sans-Serif" font-size="10.00" fill="#000000">coap_session_free</text>
</a>
</g>
</g>
<!-- Node480&#45;&gt;Node481 -->
<g id="edge13" class="edge">
<title>Node480&#45;&gt;Node481</title>
<path fill="none" stroke="#191970" d="M693.2381,-157C701.6561,-157 710.3498,-157 718.8163,-157"/>
<polygon fill="#191970" stroke="#191970" points="718.9972,-160.5001 728.9972,-157 718.9971,-153.5001 718.9972,-160.5001"/>
</g>
<!-- Node481&#45;&gt;Node476 -->
<g id="edge25" class="edge">
<title>Node481&#45;&gt;Node476</title>
<path fill="none" stroke="#191970" d="M786.6638,-166.5083C809.4962,-191.5662 871.5645,-259.6845 900.8308,-291.8035"/>
<polygon fill="#191970" stroke="#191970" points="898.5172,-294.4609 907.8395,-299.4953 903.6914,-289.7463 898.5172,-294.4609"/>
</g>
<!-- Node481&#45;&gt;Node479 -->
<g id="edge26" class="edge">
<title>Node481&#45;&gt;Node479</title>
<path fill="none" stroke="#191970" d="M813.2603,-147.4319C857.8225,-135.6939 937.0406,-116.0024 1006,-105 1058.025,-96.6995 1118.0816,-91.666 1159.7804,-88.8849"/>
<polygon fill="#191970" stroke="#191970" points="1160.217,-92.3641 1169.9702,-88.2257 1159.7651,-85.3787 1160.217,-92.3641"/>
</g>
<!-- Node482 -->
<g id="node14" class="node">
<title>Node482</title>
<g id="a_node14"><a xlink:href="coap__session_8c.html#ab91ca670624ee770714727efff274c49" target="_top" xlink:title="coap_session_mfree">
<polygon fill="#ffffff" stroke="#000000" points="863,-152.5 863,-171.5 970,-171.5 970,-152.5 863,-152.5"/>
<text text-anchor="middle" x="916.5" y="-159.5" font-family="Helvetica,sans-Serif" font-size="10.00" fill="#000000">coap_session_mfree</text>
</a>
</g>
</g>
<!-- Node481&#45;&gt;Node482 -->
<g id="edge14" class="edge">
<title>Node481&#45;&gt;Node482</title>
<path fill="none" stroke="#191970" d="M827.2199,-158.7769C835.4008,-159.0722 843.9898,-159.3823 852.4737,-159.6886"/>
<polygon fill="#191970" stroke="#191970" points="852.6157,-163.1959 862.7355,-160.059 852.8683,-156.2005 852.6157,-163.1959"/>
</g>
<!-- Node482&#45;&gt;Node477 -->
<g id="edge24" class="edge">
<title>Node482&#45;&gt;Node477</title>
<path fill="none" stroke="#191970" d="M862.8325,-171.0724C783.6027,-184.466 635.9334,-209.4291 554.3634,-223.2183"/>
<polygon fill="#191970" stroke="#191970" points="553.5471,-219.8066 544.2704,-224.9245 554.714,-226.7087 553.5471,-219.8066"/>
</g>
<!-- Node482&#45;&gt;Node478 -->
<g id="edge15" class="edge">
<title>Node482&#45;&gt;Node478</title>
<path fill="none" stroke="#191970" d="M929.231,-171.6127C946.0579,-183.9564 976.9731,-205.4023 1006,-219 1010.6674,-221.1865 1015.6528,-223.216 1020.6772,-225.0715"/>
<polygon fill="#191970" stroke="#191970" points="1019.7191,-228.4438 1030.314,-228.4207 1022.0172,-221.8318 1019.7191,-228.4438"/>
</g>
<!-- Node483 -->
<g id="node15" class="node">
<title>Node483</title>
<g id="a_node15"><a xlink:href="coap__dtls_8c.html#ae8b4d2b8a9cb8964944c841e92952ebe" target="_top" xlink:title="coap_dtls_free_session">
<polygon fill="#ffffff" stroke="#000000" points="1006,-190.5 1006,-209.5 1125,-209.5 1125,-190.5 1006,-190.5"/>
<text text-anchor="middle" x="1065.5" y="-197.5" font-family="Helvetica,sans-Serif" font-size="10.00" fill="#000000">coap_dtls_free_session</text>
</a>
</g>
</g>
<!-- Node482&#45;&gt;Node483 -->
<g id="edge16" class="edge">
<title>Node482&#45;&gt;Node483</title>
<path fill="none" stroke="#191970" d="M954.099,-171.589C973.584,-176.5583 997.5745,-182.6767 1018.2958,-187.9613"/>
<polygon fill="#191970" stroke="#191970" points="1017.6166,-191.4001 1028.1714,-190.4799 1019.3465,-184.6172 1017.6166,-191.4001"/>
</g>
<!-- Node484 -->
<g id="node16" class="node">
<title>Node484</title>
<g id="a_node16"><a xlink:href="coap__notls_8c.html#aa317934415639e23b64a3bd0b4edde6c" target="_top" xlink:title="coap_tls_free_session">
<polygon fill="#ffffff" stroke="#000000" points="1008.5,-152.5 1008.5,-171.5 1122.5,-171.5 1122.5,-152.5 1008.5,-152.5"/>
<text text-anchor="middle" x="1065.5" y="-159.5" font-family="Helvetica,sans-Serif" font-size="10.00" fill="#000000">coap_tls_free_session</text>
</a>
</g>
</g>
<!-- Node482&#45;&gt;Node484 -->
<g id="edge17" class="edge">
<title>Node482&#45;&gt;Node484</title>
<path fill="none" stroke="#191970" d="M970.2924,-162C979.3524,-162 988.8562,-162 998.2071,-162"/>
<polygon fill="#191970" stroke="#191970" points="998.2656,-165.5001 1008.2656,-162 998.2656,-158.5001 998.2656,-165.5001"/>
</g>
<!-- Node485 -->
<g id="node17" class="node">
<title>Node485</title>
<g id="a_node17"><a xlink:href="coap__io_8c.html#a2de382e7795c908d1a376da8c338386d" target="_top" xlink:title="coap_socket_close">
<polygon fill="#ffffff" stroke="#000000" points="1015,-114.5 1015,-133.5 1116,-133.5 1116,-114.5 1015,-114.5"/>
<text text-anchor="middle" x="1065.5" y="-121.5" font-family="Helvetica,sans-Serif" font-size="10.00" fill="#000000">coap_socket_close</text>
</a>
</g>
</g>
<!-- Node482&#45;&gt;Node485 -->
<g id="edge18" class="edge">
<title>Node482&#45;&gt;Node485</title>
<path fill="none" stroke="#191970" d="M954.099,-152.411C973.584,-147.4417 997.5745,-141.3233 1018.2958,-136.0387"/>
<polygon fill="#191970" stroke="#191970" points="1019.3465,-139.3828 1028.1714,-133.5201 1017.6166,-132.5999 1019.3465,-139.3828"/>
</g>
<!-- Node486 -->
<g id="node18" class="node">
<title>Node486</title>
<g id="a_node18"><a xlink:href="mem_8h.html#a1e46a1505bb13f03fdacd5d1b32502a6" target="_top" xlink:title="Wrapper function to coap_free_type() for backwards compatibility. ">
<polygon fill="#ffffff" stroke="#000000" points="1036,-.5 1036,-19.5 1095,-19.5 1095,-.5 1036,-.5"/>
<text text-anchor="middle" x="1065.5" y="-7.5" font-family="Helvetica,sans-Serif" font-size="10.00" fill="#000000">coap_free</text>
</a>
</g>
</g>
<!-- Node482&#45;&gt;Node486 -->
<g id="edge19" class="edge">
<title>Node482&#45;&gt;Node486</title>
<path fill="none" stroke="#191970" d="M925.8206,-152.4917C950.4885,-127.3272 1017.7269,-58.735 1049.0429,-26.7884"/>
<polygon fill="#191970" stroke="#191970" points="1051.6821,-29.096 1056.1829,-19.5047 1046.6832,-24.1958 1051.6821,-29.096"/>
</g>
<!-- Node486&#45;&gt;Node479 -->
<g id="edge20" class="edge">
<title>Node486&#45;&gt;Node479</title>
<path fill="none" stroke="#191970" d="M1095.2704,-19.6041C1105.1056,-23.3949 1115.8613,-28.2364 1125,-34 1143.3589,-45.5786 1142.5061,-55.6384 1161,-67 1164.1801,-68.9537 1167.5936,-70.7595 1171.0909,-72.4161"/>
<polygon fill="#191970" stroke="#191970" points="1169.8726,-75.7024 1180.4409,-76.452 1172.6467,-69.2755 1169.8726,-75.7024"/>
</g>
<!-- Node487 -->
<g id="node19" class="node">
<title>Node487</title>
<g id="a_node19"><a xlink:href="mem_8h.html#a65d0fc0fe6cad555b56e92ccb57613ba" target="_top" xlink:title="Initializes libcoap&#39;s memory management. ">
<polygon fill="#ffffff" stroke="#000000" points="1163.5,-.5 1163.5,-19.5 1259.5,-19.5 1259.5,-.5 1163.5,-.5"/>
<text text-anchor="middle" x="1211.5" y="-7.5" font-family="Helvetica,sans-Serif" font-size="10.00" fill="#000000">coap_memory_init</text>
</a>
</g>
</g>
<!-- Node486&#45;&gt;Node487 -->
<g id="edge21" class="edge">
<title>Node486&#45;&gt;Node487</title>
<path fill="none" stroke="#191970" d="M1095.0453,-10C1111.7197,-10 1133.1501,-10 1153.0712,-10"/>
<polygon fill="#191970" stroke="#191970" points="1153.318,-13.5001 1163.318,-10 1153.318,-6.5001 1153.318,-13.5001"/>
</g>
<!-- Node488 -->
<g id="node20" class="node">
<title>Node488</title>
<g id="a_node20"><a xlink:href="mem_8h.html#a1539cf5011cdfb11500b476f4dbe9393" target="_top" xlink:title="Wrapper function to coap_malloc_type() for backwards compatibility. ">
<polygon fill="#ffffff" stroke="#000000" points="1176,-38.5 1176,-57.5 1247,-57.5 1247,-38.5 1176,-38.5"/>
<text text-anchor="middle" x="1211.5" y="-45.5" font-family="Helvetica,sans-Serif" font-size="10.00" fill="#000000">coap_malloc</text>
</a>
</g>
</g>
<!-- Node486&#45;&gt;Node488 -->
<g id="edge22" class="edge">
<title>Node486&#45;&gt;Node488</title>
<path fill="none" stroke="#191970" d="M1095.0453,-17.6899C1115.3684,-22.9794 1142.7564,-30.1078 1165.8661,-36.1227"/>
<polygon fill="#191970" stroke="#191970" points="1165.2485,-39.5785 1175.8077,-38.7102 1167.0118,-32.8042 1165.2485,-39.5785"/>
</g>
<!-- Node489 -->
<g id="node21" class="node">
<title>Node489</title>
<g id="a_node21"><a xlink:href="mem_8h.html#a0204710ce56cbaa4f062b7f2622857f5" target="_top" xlink:title="Allocates a chunk of size bytes and returns a pointer to the newly allocated memory. ">
<polygon fill="#ffffff" stroke="#000000" points="1298,-199.5 1298,-218.5 1393,-218.5 1393,-199.5 1298,-199.5"/>
<text text-anchor="middle" x="1345.5" y="-206.5" font-family="Helvetica,sans-Serif" font-size="10.00" fill="#000000">coap_malloc_type</text>
</a>
</g>
</g>
<!-- Node488&#45;&gt;Node489 -->
<g id="edge23" class="edge">
<title>Node488&#45;&gt;Node489</title>
<path fill="none" stroke="#191970" d="M1246.3687,-57.5174C1251.9631,-60.0224 1257.4129,-63.1399 1262,-67 1302.1471,-100.7839 1327.6369,-159.0781 1338.8579,-189.3986"/>
<polygon fill="#191970" stroke="#191970" points="1335.6977,-190.958 1342.3471,-199.2064 1342.2928,-188.6117 1335.6977,-190.958"/>
</g>
<!-- Node490&#45;&gt;Node479 -->
<g id="edge28" class="edge">
<title>Node490&#45;&gt;Node479</title>
<path fill="none" stroke="#191970" d="M1108.6309,-266.8051C1114.5412,-264.2858 1120.2132,-261.0795 1125,-257 1131.388,-251.556 1181.4647,-148.417 1202.375,-105.0043"/>
<polygon fill="#191970" stroke="#191970" points="1205.6236,-106.3249 1206.8042,-95.796 1199.3154,-103.2906 1205.6236,-106.3249"/>
</g>
<!-- Node490&#45;&gt;Node489 -->
<g id="edge32" class="edge">
<title>Node490&#45;&gt;Node489</title>
<path fill="none" stroke="#191970" d="M1105.3198,-266.4717C1155.3516,-254.4998 1241.2296,-233.9504 1295.5954,-220.9415"/>
<polygon fill="#191970" stroke="#191970" points="1296.4533,-224.3351 1305.3642,-218.6039 1294.8242,-217.5272 1296.4533,-224.3351"/>
</g>
<!-- Node491 -->
<g id="node23" class="node">
<title>Node491</title>
<g id="a_node23"><a xlink:href="net_8c.html#a157d58fe7840d7d7e36c40fff0825674" target="_top" xlink:title="coap_free_endpoint">
<polygon fill="#ffffff" stroke="#000000" points="1161,-275.5 1161,-294.5 1262,-294.5 1262,-275.5 1161,-275.5"/>
<text text-anchor="middle" x="1211.5" y="-282.5" font-family="Helvetica,sans-Serif" font-size="10.00" fill="#000000">coap_free_endpoint</text>
</a>
</g>
</g>
<!-- Node490&#45;&gt;Node491 -->
<g id="edge29" class="edge">
<title>Node490&#45;&gt;Node491</title>
<path fill="none" stroke="#191970" d="M1108.5152,-278.6516C1121.7138,-279.4652 1136.4953,-280.3764 1150.6498,-281.249"/>
<polygon fill="#191970" stroke="#191970" points="1150.6176,-284.7535 1160.814,-281.8755 1151.0484,-277.7668 1150.6176,-284.7535"/>
</g>
<!-- Node492 -->
<g id="node24" class="node">
<title>Node492</title>
<g id="a_node24"><a xlink:href="net_8c.html#aeff229f443c6582fea71504f33364eb4" target="_top" xlink:title="coap_malloc_node">
<polygon fill="#ffffff" stroke="#000000" points="1162.5,-199.5 1162.5,-218.5 1260.5,-218.5 1260.5,-199.5 1162.5,-199.5"/>
<text text-anchor="middle" x="1211.5" y="-206.5" font-family="Helvetica,sans-Serif" font-size="10.00" fill="#000000">coap_malloc_node</text>
</a>
</g>
</g>
<!-- Node490&#45;&gt;Node492 -->
<g id="edge30" class="edge">
<title>Node490&#45;&gt;Node492</title>
<path fill="none" stroke="#191970" d="M1101.0542,-266.4336C1109.0956,-263.7825 1117.4763,-260.6209 1125,-257 1142.3274,-248.6609 1144.2724,-242.4851 1161,-233 1167.1272,-229.5257 1173.8382,-226.0927 1180.3098,-222.9568"/>
<polygon fill="#191970" stroke="#191970" points="1181.9769,-226.0402 1189.5243,-218.6046 1178.9873,-219.7107 1181.9769,-226.0402"/>
</g>
<!-- Node492&#45;&gt;Node489 -->
<g id="edge31" class="edge">
<title>Node492&#45;&gt;Node489</title>
<path fill="none" stroke="#191970" d="M1260.6358,-209C1269.4275,-209 1278.662,-209 1287.671,-209"/>
<polygon fill="#191970" stroke="#191970" points="1287.7111,-212.5001 1297.7111,-209 1287.7111,-205.5001 1287.7111,-212.5001"/>
</g>
<!-- Node493&#45;&gt;Node479 -->
<g id="edge35" class="edge">
<title>Node493&#45;&gt;Node479</title>
<path fill="none" stroke="#191970" d="M685.5242,-59.4725C793.1309,-64.8996 1049.1809,-77.8135 1159.4821,-83.3765"/>
<polygon fill="#191970" stroke="#191970" points="1159.5279,-86.8832 1169.6915,-83.8914 1159.8805,-79.892 1159.5279,-86.8832"/>
</g>
</g>
</svg>
        <g id="navigator" transform="translate(0 0)" fill="#404254">
                <rect fill="#f2f5e9" fill-opacity="0.5" stroke="#606060" stroke-width=".5" x="0" y="0" width="60" height="60"/>
                <use id="zoomplus" xlink:href="#zoomPlus" x="17" y="9" onmousedown="handleZoom(evt,'in')"/>
                <use id="zoomminus" xlink:href="#zoomMin" x="42" y="9" onmousedown="handleZoom(evt,'out')"/>
                <use id="reset" xlink:href="#resetDef" x="30" y="36" onmousedown="handleReset()"/>
                <g id="arrowUp" xlink:href="#dirArrow" transform="translate(30 24)" onmousedown="handlePan(0,-1)">
                  <use xlink:href="#rim" fill="#404040">
                        <set attributeName="fill" to="#808080" begin="arrowUp.mouseover" end="arrowUp.mouseout"/>
                  </use>
                  <path fill="none" stroke="white" stroke-width="1.5" d="M0,-3.0v7 M-2.5,-0.5L0,-3.0L2.5,-0.5"/>
                </g>
                <g id="arrowRight" xlink:href="#dirArrow" transform="rotate(90) translate(36 -43)" onmousedown="handlePan(1,0)">
                  <use xlink:href="#rim" fill="#404040">
                        <set attributeName="fill" to="#808080" begin="arrowRight.mouseover" end="arrowRight.mouseout"/>
                  </use>
                  <path fill="none" stroke="white" stroke-width="1.5" d="M0,-3.0v7 M-2.5,-0.5L0,-3.0L2.5,-0.5"/>
                </g>
                <g id="arrowDown" xlink:href="#dirArrow" transform="rotate(180) translate(-30 -48)" onmousedown="handlePan(0,1)">
                  <use xlink:href="#rim" fill="#404040">
                        <set attributeName="fill" to="#808080" begin="arrowDown.mouseover" end="arrowDown.mouseout"/>
                  </use>
                  <path fill="none" stroke="white" stroke-width="1.5" d="M0,-3.0v7 M-2.5,-0.5L0,-3.0L2.5,-0.5"/>
                </g>
                <g id="arrowLeft" xlink:href="#dirArrow" transform="rotate(270) translate(-36 17)" onmousedown="handlePan(-1,0)">
                  <use xlink:href="#rim" fill="#404040">
                        <set attributeName="fill" to="#808080" begin="arrowLeft.mouseover" end="arrowLeft.mouseout"/>
                  </use>
                  <path fill="none" stroke="white" stroke-width="1.5" d="M0,-3.0v7 M-2.5,-0.5L0,-3.0L2.5,-0.5"/>
                </g>
        </g>
        <svg viewBox="0 0 15 15" width="100%" height="30px" preserveAspectRatio="xMaxYMin meet">
         <g id="arrow_out" transform="scale(0.3 0.3)">
          <a xlink:href="resource_8c_a6fe7101754779c34807bf00b87ee5f0b_cgraph_org.svg" target="_base">
           <rect id="button" ry="5" rx="5" y="6" x="6" height="38" width="38"
                fill="#f2f5e9" fill-opacity="0.5" stroke="#606060" stroke-width="1.0"/>
           <path id="arrow"
             d="M 11.500037,31.436501 C 11.940474,20.09759 22.043105,11.32322 32.158766,21.979434 L 37.068811,17.246167 C 37.068811,17.246167 37.088388,32 37.088388,32 L 22.160133,31.978069 C 22.160133,31.978069 26.997745,27.140456 26.997745,27.140456 C 18.528582,18.264221 13.291696,25.230495 11.500037,31.436501 z"
             style="fill:#404040;"/>
          </a>
         </g>
        </svg>
</svg>
