<?xml version="1.0" encoding="UTF-8" standalone="no"?>
<!DOCTYPE svg PUBLIC "-//W3C//DTD SVG 1.1//EN"
 "http://www.w3.org/Graphics/SVG/1.1/DTD/svg11.dtd">
<!-- Generated by graphviz version 2.40.1 (20161225.0304)
 -->
<!-- Title: coap_resource_init Pages: 1 -->
<!--zoomable 47 -->
<svg id="main" version="1.1" xmlns="http://www.w3.org/2000/svg" xmlns:xlink="http://www.w3.org/1999/xlink" xml:space="preserve" onload="init(evt)">
<style type="text/css"><![CDATA[
.edge:hover path { stroke: red; }
.edge:hover polygon { stroke: red; fill: red; }
]]></style>
<script type="text/javascript"><![CDATA[
var edges = document.getElementsByTagName('g');
if (edges && edges.length) {
  for (var i=0;i<edges.length;i++) {
    if (edges[i].id.substr(0,4)=='edge') {
      edges[i].setAttribute('class','edge');
    }
  }
}
]]></script>
        <defs>
                <circle id="rim" cx="0" cy="0" r="7"/>
                <circle id="rim2" cx="0" cy="0" r="3.5"/>
                <g id="zoomPlus">
                        <use xlink:href="#rim" fill="#404040">
                                <set attributeName="fill" to="#808080" begin="zoomplus.mouseover" end="zoomplus.mouseout"/>
                        </use>
                        <path d="M-4,0h8M0,-4v8" fill="none" stroke="white" stroke-width="1.5" pointer-events="none"/>
                </g>
                <g id="zoomMin">
                        <use xlink:href="#rim" fill="#404040">
                                <set attributeName="fill" to="#808080" begin="zoomminus.mouseover" end="zoomminus.mouseout"/>
                        </use>
                        <path d="M-4,0h8" fill="none" stroke="white" stroke-width="1.5" pointer-events="none"/>
                </g>
                <g id="dirArrow">
                        <path fill="none" stroke="white" stroke-width="1.5" d="M0,-3.0v7 M-2.5,-0.5L0,-3.0L2.5,-0.5"/>
                </g>
               <g id="resetDef">
                       <use xlink:href="#rim2" fill="#404040">
                               <set attributeName="fill" to="#808080" begin="reset.mouseover" end="reset.mouseout"/>
                       </use>
               </g>
        </defs>

<script type="text/javascript">
var viewWidth = 506;
var viewHeight = 47;
var sectionId = 'dynsection-35';
</script>
<script xlink:href="svgpan.js"/>
<svg id="graph" class="graph">
<g id="viewport">
<title>coap_resource_init</title>
<polygon fill="#ffffff" stroke="transparent" points="-4,4 -4,-43 502,-43 502,4 -4,4"/>
<!-- Node687 -->
<g id="node1" class="node">
<title>Node687</title>
<polygon fill="#bfbfbf" stroke="#000000" points="0,-19.5 0,-38.5 98,-38.5 98,-19.5 0,-19.5"/>
<text text-anchor="middle" x="49" y="-26.5" font-family="Helvetica,sans-Serif" font-size="10.00" fill="#000000">coap_resource_init</text>
</g>
<!-- Node688 -->
<g id="node2" class="node">
<title>Node688</title>
<g id="a_node2"><a xlink:href="mem_8h.html#a0204710ce56cbaa4f062b7f2622857f5" target="_top" xlink:title="Allocates a chunk of size bytes and returns a pointer to the newly allocated memory. ">
<polygon fill="#ffffff" stroke="#000000" points="403,-19.5 403,-38.5 498,-38.5 498,-19.5 403,-19.5"/>
<text text-anchor="middle" x="450.5" y="-26.5" font-family="Helvetica,sans-Serif" font-size="10.00" fill="#000000">coap_malloc_type</text>
</a>
</g>
</g>
<!-- Node687&#45;&gt;Node688 -->
<g id="edge1" class="edge">
<title>Node687&#45;&gt;Node688</title>
<path fill="none" stroke="#191970" d="M98.2318,-29C172.5805,-29 313.2193,-29 392.4526,-29"/>
<polygon fill="#191970" stroke="#191970" points="392.742,-32.5001 402.7419,-29 392.7419,-25.5001 392.742,-32.5001"/>
</g>
<!-- Node689 -->
<g id="node3" class="node">
<title>Node689</title>
<g id="a_node3"><a xlink:href="group__string.html#ga983bc4d64851286070261bcc98baaa57" target="_top" xlink:title="Returns a new const string object with at least size+1 bytes storage allocated, and the provided data...">
<polygon fill="#ffffff" stroke="#000000" points="134,-.5 134,-19.5 241,-19.5 241,-.5 134,-.5"/>
<text text-anchor="middle" x="187.5" y="-7.5" font-family="Helvetica,sans-Serif" font-size="10.00" fill="#000000">coap_new_str_const</text>
</a>
</g>
</g>
<!-- Node687&#45;&gt;Node689 -->
<g id="edge2" class="edge">
<title>Node687&#45;&gt;Node689</title>
<path fill="none" stroke="#191970" d="M98.2199,-22.2478C106.4907,-21.1132 115.1787,-19.9213 123.7533,-18.745"/>
<polygon fill="#191970" stroke="#191970" points="124.304,-22.2024 133.7355,-17.3756 123.3525,-15.2673 124.304,-22.2024"/>
</g>
<!-- Node690 -->
<g id="node4" class="node">
<title>Node690</title>
<g id="a_node4"><a xlink:href="group__string.html#ga48a2c3c1cc1cf95fc8443179c081ccb1" target="_top" xlink:title="Returns a new string object with at least size+1 bytes storage allocated. ">
<polygon fill="#ffffff" stroke="#000000" points="277,-.5 277,-19.5 367,-19.5 367,-.5 277,-.5"/>
<text text-anchor="middle" x="322" y="-7.5" font-family="Helvetica,sans-Serif" font-size="10.00" fill="#000000">coap_new_string</text>
</a>
</g>
</g>
<!-- Node689&#45;&gt;Node690 -->
<g id="edge3" class="edge">
<title>Node689&#45;&gt;Node690</title>
<path fill="none" stroke="#191970" d="M241.0444,-10C249.4816,-10 258.2194,-10 266.6955,-10"/>
<polygon fill="#191970" stroke="#191970" points="266.8671,-13.5001 276.8671,-10 266.867,-6.5001 266.8671,-13.5001"/>
</g>
<!-- Node690&#45;&gt;Node688 -->
<g id="edge4" class="edge">
<title>Node690&#45;&gt;Node688</title>
<path fill="none" stroke="#191970" d="M367.3043,-16.6987C375.6139,-17.9274 384.3879,-19.2247 392.9984,-20.4978"/>
<polygon fill="#191970" stroke="#191970" points="392.5892,-23.9753 402.9936,-21.9757 393.6132,-17.0506 392.5892,-23.9753"/>
</g>
</g>
</svg>
        <g id="navigator" transform="translate(0 0)" fill="#404254">
                <rect fill="#f2f5e9" fill-opacity="0.5" stroke="#606060" stroke-width=".5" x="0" y="0" width="60" height="60"/>
                <use id="zoomplus" xlink:href="#zoomPlus" x="17" y="9" onmousedown="handleZoom(evt,'in')"/>
                <use id="zoomminus" xlink:href="#zoomMin" x="42" y="9" onmousedown="handleZoom(evt,'out')"/>
                <use id="reset" xlink:href="#resetDef" x="30" y="36" onmousedown="handleReset()"/>
                <g id="arrowUp" xlink:href="#dirArrow" transform="translate(30 24)" onmousedown="handlePan(0,-1)">
                  <use xlink:href="#rim" fill="#404040">
                        <set attributeName="fill" to="#808080" begin="arrowUp.mouseover" end="arrowUp.mouseout"/>
                  </use>
                  <path fill="none" stroke="white" stroke-width="1.5" d="M0,-3.0v7 M-2.5,-0.5L0,-3.0L2.5,-0.5"/>
                </g>
                <g id="arrowRight" xlink:href="#dirArrow" transform="rotate(90) translate(36 -43)" onmousedown="handlePan(1,0)">
                  <use xlink:href="#rim" fill="#404040">
                        <set attributeName="fill" to="#808080" begin="arrowRight.mouseover" end="arrowRight.mouseout"/>
                  </use>
                  <path fill="none" stroke="white" stroke-width="1.5" d="M0,-3.0v7 M-2.5,-0.5L0,-3.0L2.5,-0.5"/>
                </g>
                <g id="arrowDown" xlink:href="#dirArrow" transform="rotate(180) translate(-30 -48)" onmousedown="handlePan(0,1)">
                  <use xlink:href="#rim" fill="#404040">
                        <set attributeName="fill" to="#808080" begin="arrowDown.mouseover" end="arrowDown.mouseout"/>
                  </use>
                  <path fill="none" stroke="white" stroke-width="1.5" d="M0,-3.0v7 M-2.5,-0.5L0,-3.0L2.5,-0.5"/>
                </g>
                <g id="arrowLeft" xlink:href="#dirArrow" transform="rotate(270) translate(-36 17)" onmousedown="handlePan(-1,0)">
                  <use xlink:href="#rim" fill="#404040">
                        <set attributeName="fill" to="#808080" begin="arrowLeft.mouseover" end="arrowLeft.mouseout"/>
                  </use>
                  <path fill="none" stroke="white" stroke-width="1.5" d="M0,-3.0v7 M-2.5,-0.5L0,-3.0L2.5,-0.5"/>
                </g>
        </g>
        <svg viewBox="0 0 15 15" width="100%" height="30px" preserveAspectRatio="xMaxYMin meet">
         <g id="arrow_out" transform="scale(0.3 0.3)">
          <a xlink:href="resource_8c_a96916a1d29ffa358a45e8ee9f50dbb9e_cgraph_org.svg" target="_base">
           <rect id="button" ry="5" rx="5" y="6" x="6" height="38" width="38"
                fill="#f2f5e9" fill-opacity="0.5" stroke="#606060" stroke-width="1.0"/>
           <path id="arrow"
             d="M 11.500037,31.436501 C 11.940474,20.09759 22.043105,11.32322 32.158766,21.979434 L 37.068811,17.246167 C 37.068811,17.246167 37.088388,32 37.088388,32 L 22.160133,31.978069 C 22.160133,31.978069 26.997745,27.140456 26.997745,27.140456 C 18.528582,18.264221 13.291696,25.230495 11.500037,31.436501 z"
             style="fill:#404040;"/>
          </a>
         </g>
        </svg>
</svg>
