<?xml version="1.0" encoding="UTF-8" standalone="no"?>
<!DOCTYPE svg PUBLIC "-//W3C//DTD SVG 1.1//EN"
 "http://www.w3.org/Graphics/SVG/1.1/DTD/svg11.dtd">
<!-- Generated by graphviz version 2.40.1 (20161225.0304)
 -->
<!-- Title: coap_resource_init Pages: 1 -->
<svg width="506pt" height="47pt"
 viewBox="0.00 0.00 506.00 47.00" xmlns="http://www.w3.org/2000/svg" xmlns:xlink="http://www.w3.org/1999/xlink">
<g id="graph0" class="graph" transform="scale(1 1) rotate(0) translate(4 43)">
<title>coap_resource_init</title>
<polygon fill="#ffffff" stroke="transparent" points="-4,4 -4,-43 502,-43 502,4 -4,4"/>
<!-- Node687 -->
<g id="node1" class="node">
<title>Node687</title>
<polygon fill="#bfbfbf" stroke="#000000" points="0,-19.5 0,-38.5 98,-38.5 98,-19.5 0,-19.5"/>
<text text-anchor="middle" x="49" y="-26.5" font-family="Helvetica,sans-Serif" font-size="10.00" fill="#000000">coap_resource_init</text>
</g>
<!-- Node688 -->
<g id="node2" class="node">
<title>Node688</title>
<g id="a_node2"><a xlink:href="mem_8h.html#a0204710ce56cbaa4f062b7f2622857f5" target="_top" xlink:title="Allocates a chunk of size bytes and returns a pointer to the newly allocated memory. ">
<polygon fill="#ffffff" stroke="#000000" points="403,-19.5 403,-38.5 498,-38.5 498,-19.5 403,-19.5"/>
<text text-anchor="middle" x="450.5" y="-26.5" font-family="Helvetica,sans-Serif" font-size="10.00" fill="#000000">coap_malloc_type</text>
</a>
</g>
</g>
<!-- Node687&#45;&gt;Node688 -->
<g id="edge1" class="edge">
<title>Node687&#45;&gt;Node688</title>
<path fill="none" stroke="#191970" d="M98.2318,-29C172.5805,-29 313.2193,-29 392.4526,-29"/>
<polygon fill="#191970" stroke="#191970" points="392.742,-32.5001 402.7419,-29 392.7419,-25.5001 392.742,-32.5001"/>
</g>
<!-- Node689 -->
<g id="node3" class="node">
<title>Node689</title>
<g id="a_node3"><a xlink:href="group__string.html#ga983bc4d64851286070261bcc98baaa57" target="_top" xlink:title="Returns a new const string object with at least size+1 bytes storage allocated, and the provided data...">
<polygon fill="#ffffff" stroke="#000000" points="134,-.5 134,-19.5 241,-19.5 241,-.5 134,-.5"/>
<text text-anchor="middle" x="187.5" y="-7.5" font-family="Helvetica,sans-Serif" font-size="10.00" fill="#000000">coap_new_str_const</text>
</a>
</g>
</g>
<!-- Node687&#45;&gt;Node689 -->
<g id="edge2" class="edge">
<title>Node687&#45;&gt;Node689</title>
<path fill="none" stroke="#191970" d="M98.2199,-22.2478C106.4907,-21.1132 115.1787,-19.9213 123.7533,-18.745"/>
<polygon fill="#191970" stroke="#191970" points="124.304,-22.2024 133.7355,-17.3756 123.3525,-15.2673 124.304,-22.2024"/>
</g>
<!-- Node690 -->
<g id="node4" class="node">
<title>Node690</title>
<g id="a_node4"><a xlink:href="group__string.html#ga48a2c3c1cc1cf95fc8443179c081ccb1" target="_top" xlink:title="Returns a new string object with at least size+1 bytes storage allocated. ">
<polygon fill="#ffffff" stroke="#000000" points="277,-.5 277,-19.5 367,-19.5 367,-.5 277,-.5"/>
<text text-anchor="middle" x="322" y="-7.5" font-family="Helvetica,sans-Serif" font-size="10.00" fill="#000000">coap_new_string</text>
</a>
</g>
</g>
<!-- Node689&#45;&gt;Node690 -->
<g id="edge3" class="edge">
<title>Node689&#45;&gt;Node690</title>
<path fill="none" stroke="#191970" d="M241.0444,-10C249.4816,-10 258.2194,-10 266.6955,-10"/>
<polygon fill="#191970" stroke="#191970" points="266.8671,-13.5001 276.8671,-10 266.867,-6.5001 266.8671,-13.5001"/>
</g>
<!-- Node690&#45;&gt;Node688 -->
<g id="edge4" class="edge">
<title>Node690&#45;&gt;Node688</title>
<path fill="none" stroke="#191970" d="M367.3043,-16.6987C375.6139,-17.9274 384.3879,-19.2247 392.9984,-20.4978"/>
<polygon fill="#191970" stroke="#191970" points="392.5892,-23.9753 402.9936,-21.9757 393.6132,-17.0506 392.5892,-23.9753"/>
</g>
</g>
</svg>
