<?xml version="1.0" encoding="UTF-8" standalone="no"?>
<!DOCTYPE svg PUBLIC "-//W3C//DTD SVG 1.1//EN"
 "http://www.w3.org/Graphics/SVG/1.1/DTD/svg11.dtd">
<!-- Generated by graphviz version 2.40.1 (20161225.0304)
 -->
<!-- Title: coap_handle_failed_notify Pages: 1 -->
<svg width="1258pt" height="398pt"
 viewBox="0.00 0.00 1258.00 398.00" xmlns="http://www.w3.org/2000/svg" xmlns:xlink="http://www.w3.org/1999/xlink">
<g id="graph0" class="graph" transform="scale(1 1) rotate(0) translate(4 394)">
<title>coap_handle_failed_notify</title>
<polygon fill="#ffffff" stroke="transparent" points="-4,4 -4,-394 1254,-394 1254,4 -4,4"/>
<!-- Node405 -->
<g id="node1" class="node">
<title>Node405</title>
<polygon fill="#bfbfbf" stroke="#000000" points="0,-99 0,-129 100,-129 100,-99 0,-99"/>
<text text-anchor="start" x="8" y="-117" font-family="Helvetica,sans-Serif" font-size="10.00" fill="#000000">coap_handle_failed</text>
<text text-anchor="middle" x="50" y="-106" font-family="Helvetica,sans-Serif" font-size="10.00" fill="#000000">_notify</text>
</g>
<!-- Node406 -->
<g id="node2" class="node">
<title>Node406</title>
<g id="a_node2"><a xlink:href="resource_8c.html#aa9f976d4814f27972d46e296db3977f4" target="_top" xlink:title="Checks the failure counter for (peer, token) and removes peer from the list of observers for the give...">
<polygon fill="#ffffff" stroke="#000000" points="136,-99 136,-129 240,-129 240,-99 136,-99"/>
<text text-anchor="start" x="144" y="-117" font-family="Helvetica,sans-Serif" font-size="10.00" fill="#000000">coap_remove_failed</text>
<text text-anchor="middle" x="188" y="-106" font-family="Helvetica,sans-Serif" font-size="10.00" fill="#000000">_observers</text>
</a>
</g>
</g>
<!-- Node405&#45;&gt;Node406 -->
<g id="edge1" class="edge">
<title>Node405&#45;&gt;Node406</title>
<path fill="none" stroke="#191970" d="M100.2115,-114C108.4299,-114 117.0331,-114 125.5045,-114"/>
<polygon fill="#191970" stroke="#191970" points="125.7375,-117.5001 135.7374,-114 125.7374,-110.5001 125.7375,-117.5001"/>
</g>
<!-- Node407 -->
<g id="node3" class="node">
<title>Node407</title>
<g id="a_node3"><a xlink:href="group__logging.html#ga10c3fbd56b0eb3a8722b27a65fc9b0ce" target="_top" xlink:title="Get the current logging level. ">
<polygon fill="#ffffff" stroke="#000000" points="294.5,-180.5 294.5,-199.5 394.5,-199.5 394.5,-180.5 294.5,-180.5"/>
<text text-anchor="middle" x="344.5" y="-187.5" font-family="Helvetica,sans-Serif" font-size="10.00" fill="#000000">coap_get_log_level</text>
</a>
</g>
</g>
<!-- Node406&#45;&gt;Node407 -->
<g id="edge2" class="edge">
<title>Node406&#45;&gt;Node407</title>
<path fill="none" stroke="#191970" d="M207.6172,-129.2108C224.8205,-141.92 250.9328,-159.7252 276,-171 281.2636,-173.3675 286.89,-175.504 292.5711,-177.415"/>
<polygon fill="#191970" stroke="#191970" points="291.5397,-180.7596 302.1291,-180.4191 293.6387,-174.0817 291.5397,-180.7596"/>
</g>
<!-- Node408 -->
<g id="node4" class="node">
<title>Node408</title>
<g id="a_node4"><a xlink:href="group__logging.html#ga6a4f5ef637bf85aa161adfe73ac81ff0" target="_top" xlink:title="Print the address into the defined buffer. ">
<polygon fill="#ffffff" stroke="#000000" points="1025.5,-28.5 1025.5,-47.5 1111.5,-47.5 1111.5,-28.5 1025.5,-28.5"/>
<text text-anchor="middle" x="1068.5" y="-35.5" font-family="Helvetica,sans-Serif" font-size="10.00" fill="#000000">coap_print_addr</text>
</a>
</g>
</g>
<!-- Node406&#45;&gt;Node408 -->
<g id="edge3" class="edge">
<title>Node406&#45;&gt;Node408</title>
<path fill="none" stroke="#191970" d="M211.3,-98.8617C261.3449,-67.8514 383.7298,0 496.5,0 496.5,0 496.5,0 778,0 861.49,0 957.3457,-15.6227 1015.3848,-26.8339"/>
<polygon fill="#191970" stroke="#191970" points="1014.9327,-30.3118 1025.4192,-28.8013 1016.2795,-23.4426 1014.9327,-30.3118"/>
</g>
<!-- Node410 -->
<g id="node6" class="node">
<title>Node410</title>
<g id="a_node6"><a xlink:href="net_8c.html#ab0ffe6312ad95fb07b0212f912cf196c" target="_top" xlink:title="Cancels all outstanding messages for session session that have the specified token. ">
<polygon fill="#ffffff" stroke="#000000" points="276,-142.5 276,-161.5 413,-161.5 413,-142.5 276,-142.5"/>
<text text-anchor="middle" x="344.5" y="-149.5" font-family="Helvetica,sans-Serif" font-size="10.00" fill="#000000">coap_cancel_all_messages</text>
</a>
</g>
</g>
<!-- Node406&#45;&gt;Node410 -->
<g id="edge5" class="edge">
<title>Node406&#45;&gt;Node410</title>
<path fill="none" stroke="#191970" d="M240.1122,-126.6534C257.8027,-130.9489 277.5069,-135.7333 294.9885,-139.978"/>
<polygon fill="#191970" stroke="#191970" points="294.4491,-143.4487 304.9926,-142.4072 296.1009,-136.6464 294.4491,-143.4487"/>
</g>
<!-- Node416 -->
<g id="node12" class="node">
<title>Node416</title>
<g id="a_node12"><a xlink:href="coap__session_8c.html#a9aee135ba884d7c143b11bc42fd23e53" target="_top" xlink:title="Decrement reference counter on a session. ">
<polygon fill="#ffffff" stroke="#000000" points="580,-161.5 580,-180.5 693,-180.5 693,-161.5 580,-161.5"/>
<text text-anchor="middle" x="636.5" y="-168.5" font-family="Helvetica,sans-Serif" font-size="10.00" fill="#000000">coap_session_release</text>
</a>
</g>
</g>
<!-- Node406&#45;&gt;Node416 -->
<g id="edge32" class="edge">
<title>Node406&#45;&gt;Node416</title>
<path fill="none" stroke="#191970" d="M240.0316,-111.3739C310.0451,-109.0587 438.032,-109.1303 544,-133 566.722,-138.1182 591.0321,-148.3078 609.0257,-156.848"/>
<polygon fill="#191970" stroke="#191970" points="607.7997,-160.144 618.3222,-161.3801 610.8672,-153.8519 607.7997,-160.144"/>
</g>
<!-- Node428 -->
<g id="node24" class="node">
<title>Node428</title>
<g id="a_node24"><a xlink:href="str_8c.html#ac6d3ed3fa5e060f7e6be6b3963880f25" target="_top" xlink:title="Deletes the given string and releases any memory allocated. ">
<polygon fill="#ffffff" stroke="#000000" points="587.5,-28.5 587.5,-47.5 685.5,-47.5 685.5,-28.5 587.5,-28.5"/>
<text text-anchor="middle" x="636.5" y="-35.5" font-family="Helvetica,sans-Serif" font-size="10.00" fill="#000000">coap_delete_string</text>
</a>
</g>
</g>
<!-- Node406&#45;&gt;Node428 -->
<g id="edge33" class="edge">
<title>Node406&#45;&gt;Node428</title>
<path fill="none" stroke="#191970" d="M240.2966,-102.4703C292.8521,-91.1459 376.2708,-73.885 449,-62 491.7788,-55.0093 540.327,-48.8434 577.3035,-44.5122"/>
<polygon fill="#191970" stroke="#191970" points="577.8813,-47.9688 587.4115,-43.3401 577.0749,-41.0154 577.8813,-47.9688"/>
</g>
<!-- Node409 -->
<g id="node5" class="node">
<title>Node409</title>
<g id="a_node5"><a xlink:href="debug_8c.html#aaa5ee5c2942fe13271a46000b2aebde6" target="_top" xlink:title="A length&#45;safe strlen() fake. ">
<polygon fill="#ffffff" stroke="#000000" points="1179.5,-28.5 1179.5,-47.5 1225.5,-47.5 1225.5,-28.5 1179.5,-28.5"/>
<text text-anchor="middle" x="1202.5" y="-35.5" font-family="Helvetica,sans-Serif" font-size="10.00" fill="#000000">strnlen</text>
</a>
</g>
</g>
<!-- Node408&#45;&gt;Node409 -->
<g id="edge4" class="edge">
<title>Node408&#45;&gt;Node409</title>
<path fill="none" stroke="#191970" d="M1111.636,-38C1130.2635,-38 1151.7219,-38 1169.1066,-38"/>
<polygon fill="#191970" stroke="#191970" points="1169.343,-41.5001 1179.343,-38 1169.343,-34.5001 1169.343,-41.5001"/>
</g>
<!-- Node411 -->
<g id="node7" class="node">
<title>Node411</title>
<g id="a_node7"><a xlink:href="net_8c.html#a172ec052726c632427ea990a0ba04c60" target="_top" xlink:title="token_match">
<polygon fill="#ffffff" stroke="#000000" points="460,-142.5 460,-161.5 533,-161.5 533,-142.5 460,-142.5"/>
<text text-anchor="middle" x="496.5" y="-149.5" font-family="Helvetica,sans-Serif" font-size="10.00" fill="#000000">token_match</text>
</a>
</g>
</g>
<!-- Node410&#45;&gt;Node411 -->
<g id="edge6" class="edge">
<title>Node410&#45;&gt;Node411</title>
<path fill="none" stroke="#191970" d="M413.3843,-152C425.6527,-152 438.1706,-152 449.6442,-152"/>
<polygon fill="#191970" stroke="#191970" points="449.8504,-155.5001 459.8504,-152 449.8503,-148.5001 449.8504,-155.5001"/>
</g>
<!-- Node412 -->
<g id="node8" class="node">
<title>Node412</title>
<g id="a_node8"><a xlink:href="group__logging.html#ga8b690dbed6cc3a5beb81ba5d2d27d290" target="_top" xlink:title="Get session description. ">
<polygon fill="#ffffff" stroke="#000000" points="876,-66.5 876,-85.5 969,-85.5 969,-66.5 876,-66.5"/>
<text text-anchor="middle" x="922.5" y="-73.5" font-family="Helvetica,sans-Serif" font-size="10.00" fill="#000000">coap_session_str</text>
</a>
</g>
</g>
<!-- Node410&#45;&gt;Node412 -->
<g id="edge7" class="edge">
<title>Node410&#45;&gt;Node412</title>
<path fill="none" stroke="#191970" d="M393.309,-142.4988C410.8328,-139.2538 430.7668,-135.7525 449,-133 598.8268,-110.3822 776.4135,-90.9731 865.506,-81.7434"/>
<polygon fill="#191970" stroke="#191970" points="866.0771,-85.2032 875.6651,-80.6954 865.3587,-78.2401 866.0771,-85.2032"/>
</g>
<!-- Node413 -->
<g id="node9" class="node">
<title>Node413</title>
<g id="a_node9"><a xlink:href="net_8c.html#a44c39a2314035989d3e07b9d9328e08c" target="_top" xlink:title="Destroys specified node. ">
<polygon fill="#ffffff" stroke="#000000" points="449,-199.5 449,-218.5 544,-218.5 544,-199.5 449,-199.5"/>
<text text-anchor="middle" x="496.5" y="-206.5" font-family="Helvetica,sans-Serif" font-size="10.00" fill="#000000">coap_delete_node</text>
</a>
</g>
</g>
<!-- Node410&#45;&gt;Node413 -->
<g id="edge9" class="edge">
<title>Node410&#45;&gt;Node413</title>
<path fill="none" stroke="#191970" d="M382.8788,-161.5067C392.7887,-164.2708 403.3736,-167.4989 413,-171 431.8408,-177.8524 452.3413,-187.1533 468.3141,-194.8382"/>
<polygon fill="#191970" stroke="#191970" points="467.097,-198.1387 477.6191,-199.378 470.1664,-191.8475 467.097,-198.1387"/>
</g>
<!-- Node412&#45;&gt;Node408 -->
<g id="edge8" class="edge">
<title>Node412&#45;&gt;Node408</title>
<path fill="none" stroke="#191970" d="M959.342,-66.411C978.3479,-61.4642 1001.7286,-55.3789 1021.9692,-50.1108"/>
<polygon fill="#191970" stroke="#191970" points="1023.127,-53.4261 1031.923,-47.5201 1021.3638,-46.6518 1023.127,-53.4261"/>
</g>
<!-- Node414 -->
<g id="node10" class="node">
<title>Node414</title>
<g id="a_node10"><a xlink:href="pdu_8c.html#a48581f968a30ef4278702eb1c16b7a90" target="_top" xlink:title="Dispose of an CoAP PDU and frees associated storage. ">
<polygon fill="#ffffff" stroke="#000000" points="877.5,-294.5 877.5,-313.5 967.5,-313.5 967.5,-294.5 877.5,-294.5"/>
<text text-anchor="middle" x="922.5" y="-301.5" font-family="Helvetica,sans-Serif" font-size="10.00" fill="#000000">coap_delete_pdu</text>
</a>
</g>
</g>
<!-- Node413&#45;&gt;Node414 -->
<g id="edge10" class="edge">
<title>Node413&#45;&gt;Node414</title>
<path fill="none" stroke="#191970" d="M539.297,-218.5439C617.7612,-236.0418 784.4058,-273.2043 869.7394,-292.2341"/>
<polygon fill="#191970" stroke="#191970" points="869.2094,-295.7018 879.7315,-294.4624 870.7331,-288.8697 869.2094,-295.7018"/>
</g>
<!-- Node413&#45;&gt;Node416 -->
<g id="edge12" class="edge">
<title>Node413&#45;&gt;Node416</title>
<path fill="none" stroke="#191970" d="M531.8279,-199.411C549.9006,-194.5056 572.0984,-188.4804 591.3945,-183.2429"/>
<polygon fill="#191970" stroke="#191970" points="592.4494,-186.5833 601.1834,-180.5859 590.6157,-179.8277 592.4494,-186.5833"/>
</g>
<!-- Node425 -->
<g id="node21" class="node">
<title>Node425</title>
<g id="a_node21"><a xlink:href="net_8c.html#aa2f296838e4a779197c43b254e385ddc" target="_top" xlink:title="coap_free_node">
<polygon fill="#ffffff" stroke="#000000" points="879.5,-332.5 879.5,-351.5 965.5,-351.5 965.5,-332.5 879.5,-332.5"/>
<text text-anchor="middle" x="922.5" y="-339.5" font-family="Helvetica,sans-Serif" font-size="10.00" fill="#000000">coap_free_node</text>
</a>
</g>
</g>
<!-- Node413&#45;&gt;Node425 -->
<g id="edge26" class="edge">
<title>Node413&#45;&gt;Node425</title>
<path fill="none" stroke="#191970" d="M511.6557,-218.6298C527.9859,-228.6514 555.0024,-244.221 580,-254 678.9757,-292.7192 800.7099,-319.3132 869.1634,-332.4753"/>
<polygon fill="#191970" stroke="#191970" points="868.7965,-335.9681 879.274,-334.3959 870.1029,-329.0911 868.7965,-335.9681"/>
</g>
<!-- Node415 -->
<g id="node11" class="node">
<title>Node415</title>
<g id="a_node11"><a xlink:href="mem_8h.html#ae7214e0c73a4d4290525873e739ed422" target="_top" xlink:title="Releases the memory that was allocated by coap_malloc_type(). ">
<polygon fill="#ffffff" stroke="#000000" points="1027,-256.5 1027,-275.5 1110,-275.5 1110,-256.5 1027,-256.5"/>
<text text-anchor="middle" x="1068.5" y="-263.5" font-family="Helvetica,sans-Serif" font-size="10.00" fill="#000000">coap_free_type</text>
</a>
</g>
</g>
<!-- Node414&#45;&gt;Node415 -->
<g id="edge11" class="edge">
<title>Node414&#45;&gt;Node415</title>
<path fill="none" stroke="#191970" d="M959.342,-294.411C978.3479,-289.4642 1001.7286,-283.3789 1021.9692,-278.1108"/>
<polygon fill="#191970" stroke="#191970" points="1023.127,-281.4261 1031.923,-275.5201 1021.3638,-274.6518 1023.127,-281.4261"/>
</g>
<!-- Node417 -->
<g id="node13" class="node">
<title>Node417</title>
<g id="a_node13"><a xlink:href="coap__session_8c.html#ab3d24595515d6f66805791a7f821d5e7" target="_top" xlink:title="coap_session_free">
<polygon fill="#ffffff" stroke="#000000" points="729,-180.5 729,-199.5 827,-199.5 827,-180.5 729,-180.5"/>
<text text-anchor="middle" x="778" y="-187.5" font-family="Helvetica,sans-Serif" font-size="10.00" fill="#000000">coap_session_free</text>
</a>
</g>
</g>
<!-- Node416&#45;&gt;Node417 -->
<g id="edge13" class="edge">
<title>Node416&#45;&gt;Node417</title>
<path fill="none" stroke="#191970" d="M693.2381,-178.6185C701.6561,-179.7489 710.3498,-180.9162 718.8163,-182.0531"/>
<polygon fill="#191970" stroke="#191970" points="718.6203,-185.5581 728.9972,-183.4201 719.5519,-178.6203 718.6203,-185.5581"/>
</g>
<!-- Node417&#45;&gt;Node412 -->
<g id="edge24" class="edge">
<title>Node417&#45;&gt;Node412</title>
<path fill="none" stroke="#191970" d="M784.0096,-180.3865C796.4224,-161.3051 826.7839,-118.4694 863,-95 866.1424,-92.9636 869.5196,-91.1309 873.0111,-89.484"/>
<polygon fill="#191970" stroke="#191970" points="874.5595,-92.6303 882.4376,-85.5461 871.8612,-86.1713 874.5595,-92.6303"/>
</g>
<!-- Node417&#45;&gt;Node413 -->
<g id="edge23" class="edge">
<title>Node417&#45;&gt;Node413</title>
<path fill="none" stroke="#191970" d="M728.5914,-193.3349C680.0131,-196.6137 605.882,-201.6172 554.5267,-205.0835"/>
<polygon fill="#191970" stroke="#191970" points="553.9942,-201.6113 544.2526,-205.7769 554.4657,-208.5954 553.9942,-201.6113"/>
</g>
<!-- Node417&#45;&gt;Node414 -->
<g id="edge14" class="edge">
<title>Node417&#45;&gt;Node414</title>
<path fill="none" stroke="#191970" d="M784.8898,-199.7022C798.1435,-217.7476 828.9121,-256.7451 863,-280 868.8112,-283.9644 875.3765,-287.4335 881.97,-290.4103"/>
<polygon fill="#191970" stroke="#191970" points="880.9897,-293.7939 891.5661,-294.4198 883.6885,-287.335 880.9897,-293.7939"/>
</g>
<!-- Node417&#45;&gt;Node415 -->
<g id="edge25" class="edge">
<title>Node417&#45;&gt;Node415</title>
<path fill="none" stroke="#191970" d="M788.5646,-199.7007C803.7461,-212.9893 833.1992,-236.4096 863,-247 913.0586,-264.7895 974.0685,-268.3457 1016.5507,-268.1885"/>
<polygon fill="#191970" stroke="#191970" points="1016.7028,-271.6871 1026.6646,-268.0798 1016.6275,-264.6875 1016.7028,-271.6871"/>
</g>
<!-- Node418 -->
<g id="node14" class="node">
<title>Node418</title>
<g id="a_node14"><a xlink:href="coap__dtls_8c.html#ae8b4d2b8a9cb8964944c841e92952ebe" target="_top" xlink:title="coap_dtls_free_session">
<polygon fill="#ffffff" stroke="#000000" points="863,-180.5 863,-199.5 982,-199.5 982,-180.5 863,-180.5"/>
<text text-anchor="middle" x="922.5" y="-187.5" font-family="Helvetica,sans-Serif" font-size="10.00" fill="#000000">coap_dtls_free_session</text>
</a>
</g>
</g>
<!-- Node417&#45;&gt;Node418 -->
<g id="edge15" class="edge">
<title>Node417&#45;&gt;Node418</title>
<path fill="none" stroke="#191970" d="M827.3246,-190C835.5515,-190 844.2209,-190 852.8411,-190"/>
<polygon fill="#191970" stroke="#191970" points="852.9084,-193.5001 862.9084,-190 852.9083,-186.5001 852.9084,-193.5001"/>
</g>
<!-- Node419 -->
<g id="node15" class="node">
<title>Node419</title>
<g id="a_node15"><a xlink:href="coap__notls_8c.html#aa317934415639e23b64a3bd0b4edde6c" target="_top" xlink:title="coap_tls_free_session">
<polygon fill="#ffffff" stroke="#000000" points="865.5,-142.5 865.5,-161.5 979.5,-161.5 979.5,-142.5 865.5,-142.5"/>
<text text-anchor="middle" x="922.5" y="-149.5" font-family="Helvetica,sans-Serif" font-size="10.00" fill="#000000">coap_tls_free_session</text>
</a>
</g>
</g>
<!-- Node417&#45;&gt;Node419 -->
<g id="edge16" class="edge">
<title>Node417&#45;&gt;Node419</title>
<path fill="none" stroke="#191970" d="M814.4635,-180.411C833.2741,-175.4642 856.4146,-169.3789 876.4472,-164.1108"/>
<polygon fill="#191970" stroke="#191970" points="877.5177,-167.4483 886.2988,-161.5201 875.7374,-160.6785 877.5177,-167.4483"/>
</g>
<!-- Node420 -->
<g id="node16" class="node">
<title>Node420</title>
<g id="a_node16"><a xlink:href="coap__io_8c.html#a2de382e7795c908d1a376da8c338386d" target="_top" xlink:title="coap_socket_close">
<polygon fill="#ffffff" stroke="#000000" points="872,-104.5 872,-123.5 973,-123.5 973,-104.5 872,-104.5"/>
<text text-anchor="middle" x="922.5" y="-111.5" font-family="Helvetica,sans-Serif" font-size="10.00" fill="#000000">coap_socket_close</text>
</a>
</g>
</g>
<!-- Node417&#45;&gt;Node420 -->
<g id="edge17" class="edge">
<title>Node417&#45;&gt;Node420</title>
<path fill="none" stroke="#191970" d="M790.0071,-180.3402C805.8974,-167.9456 835.1605,-146.4447 863,-133 867.5818,-130.7873 872.4829,-128.7474 877.4323,-126.8914"/>
<polygon fill="#191970" stroke="#191970" points="878.6641,-130.1684 886.9386,-123.5515 876.3438,-123.5641 878.6641,-130.1684"/>
</g>
<!-- Node421 -->
<g id="node17" class="node">
<title>Node421</title>
<g id="a_node17"><a xlink:href="mem_8h.html#a1e46a1505bb13f03fdacd5d1b32502a6" target="_top" xlink:title="Wrapper function to coap_free_type() for backwards compatibility. ">
<polygon fill="#ffffff" stroke="#000000" points="893,-218.5 893,-237.5 952,-237.5 952,-218.5 893,-218.5"/>
<text text-anchor="middle" x="922.5" y="-225.5" font-family="Helvetica,sans-Serif" font-size="10.00" fill="#000000">coap_free</text>
</a>
</g>
</g>
<!-- Node417&#45;&gt;Node421 -->
<g id="edge18" class="edge">
<title>Node417&#45;&gt;Node421</title>
<path fill="none" stroke="#191970" d="M814.4635,-199.589C835.3947,-205.0934 861.6869,-212.0076 883.093,-217.6369"/>
<polygon fill="#191970" stroke="#191970" points="882.2936,-221.0456 892.855,-220.2041 884.074,-214.2758 882.2936,-221.0456"/>
</g>
<!-- Node421&#45;&gt;Node415 -->
<g id="edge19" class="edge">
<title>Node421&#45;&gt;Node415</title>
<path fill="none" stroke="#191970" d="M952.0453,-235.6899C972.0781,-240.9039 998.9753,-247.9045 1021.8731,-253.8642"/>
<polygon fill="#191970" stroke="#191970" points="1021.1813,-257.3007 1031.7405,-256.4325 1022.9445,-250.5264 1021.1813,-257.3007"/>
</g>
<!-- Node422 -->
<g id="node18" class="node">
<title>Node422</title>
<g id="a_node18"><a xlink:href="mem_8h.html#a65d0fc0fe6cad555b56e92ccb57613ba" target="_top" xlink:title="Initializes libcoap&#39;s memory management. ">
<polygon fill="#ffffff" stroke="#000000" points="1020.5,-180.5 1020.5,-199.5 1116.5,-199.5 1116.5,-180.5 1020.5,-180.5"/>
<text text-anchor="middle" x="1068.5" y="-187.5" font-family="Helvetica,sans-Serif" font-size="10.00" fill="#000000">coap_memory_init</text>
</a>
</g>
</g>
<!-- Node421&#45;&gt;Node422 -->
<g id="edge20" class="edge">
<title>Node421&#45;&gt;Node422</title>
<path fill="none" stroke="#191970" d="M952.0453,-220.3101C972.0781,-215.0961 998.9753,-208.0955 1021.8731,-202.1358"/>
<polygon fill="#191970" stroke="#191970" points="1022.9445,-205.4736 1031.7405,-199.5675 1021.1813,-198.6993 1022.9445,-205.4736"/>
</g>
<!-- Node423 -->
<g id="node19" class="node">
<title>Node423</title>
<g id="a_node19"><a xlink:href="mem_8h.html#a1539cf5011cdfb11500b476f4dbe9393" target="_top" xlink:title="Wrapper function to coap_malloc_type() for backwards compatibility. ">
<polygon fill="#ffffff" stroke="#000000" points="1033,-218.5 1033,-237.5 1104,-237.5 1104,-218.5 1033,-218.5"/>
<text text-anchor="middle" x="1068.5" y="-225.5" font-family="Helvetica,sans-Serif" font-size="10.00" fill="#000000">coap_malloc</text>
</a>
</g>
</g>
<!-- Node421&#45;&gt;Node423 -->
<g id="edge21" class="edge">
<title>Node421&#45;&gt;Node423</title>
<path fill="none" stroke="#191970" d="M952.0453,-228C972.2773,-228 999.5109,-228 1022.555,-228"/>
<polygon fill="#191970" stroke="#191970" points="1022.8078,-231.5001 1032.8077,-228 1022.8077,-224.5001 1022.8078,-231.5001"/>
</g>
<!-- Node424 -->
<g id="node20" class="node">
<title>Node424</title>
<g id="a_node20"><a xlink:href="mem_8h.html#a0204710ce56cbaa4f062b7f2622857f5" target="_top" xlink:title="Allocates a chunk of size bytes and returns a pointer to the newly allocated memory. ">
<polygon fill="#ffffff" stroke="#000000" points="1155,-294.5 1155,-313.5 1250,-313.5 1250,-294.5 1155,-294.5"/>
<text text-anchor="middle" x="1202.5" y="-301.5" font-family="Helvetica,sans-Serif" font-size="10.00" fill="#000000">coap_malloc_type</text>
</a>
</g>
</g>
<!-- Node423&#45;&gt;Node424 -->
<g id="edge22" class="edge">
<title>Node423&#45;&gt;Node424</title>
<path fill="none" stroke="#191970" d="M1097.5944,-237.5908C1104.7402,-240.3129 1112.2678,-243.5002 1119,-247 1141.7323,-258.8178 1165.6884,-275.6905 1182.082,-288.0114"/>
<polygon fill="#191970" stroke="#191970" points="1180.2832,-291.0415 1190.3558,-294.327 1184.5306,-285.4773 1180.2832,-291.0415"/>
</g>
<!-- Node425&#45;&gt;Node415 -->
<g id="edge27" class="edge">
<title>Node425&#45;&gt;Node415</title>
<path fill="none" stroke="#191970" d="M962.1591,-332.4273C969.0487,-329.9127 975.9392,-326.8062 982,-323 1001.7016,-310.6274 998.6188,-297.8687 1018,-285 1020.8972,-283.0764 1024.0161,-281.3111 1027.2315,-279.6986"/>
<polygon fill="#191970" stroke="#191970" points="1028.7605,-282.8487 1036.4448,-275.5548 1025.8892,-276.4647 1028.7605,-282.8487"/>
</g>
<!-- Node425&#45;&gt;Node424 -->
<g id="edge31" class="edge">
<title>Node425&#45;&gt;Node424</title>
<path fill="none" stroke="#191970" d="M965.6341,-339.4151C1005.5821,-336.6463 1066.5549,-331.467 1119,-323 1130.8058,-321.094 1143.4364,-318.51 1155.2079,-315.8621"/>
<polygon fill="#191970" stroke="#191970" points="1156.3329,-319.1945 1165.289,-313.5343 1154.7579,-312.374 1156.3329,-319.1945"/>
</g>
<!-- Node426 -->
<g id="node22" class="node">
<title>Node426</title>
<g id="a_node22"><a xlink:href="net_8c.html#a157d58fe7840d7d7e36c40fff0825674" target="_top" xlink:title="coap_free_endpoint">
<polygon fill="#ffffff" stroke="#000000" points="1018,-370.5 1018,-389.5 1119,-389.5 1119,-370.5 1018,-370.5"/>
<text text-anchor="middle" x="1068.5" y="-377.5" font-family="Helvetica,sans-Serif" font-size="10.00" fill="#000000">coap_free_endpoint</text>
</a>
</g>
</g>
<!-- Node425&#45;&gt;Node426 -->
<g id="edge28" class="edge">
<title>Node425&#45;&gt;Node426</title>
<path fill="none" stroke="#191970" d="M959.342,-351.589C978.3479,-356.5358 1001.7286,-362.6211 1021.9692,-367.8892"/>
<polygon fill="#191970" stroke="#191970" points="1021.3638,-371.3482 1031.923,-370.4799 1023.127,-364.5739 1021.3638,-371.3482"/>
</g>
<!-- Node427 -->
<g id="node23" class="node">
<title>Node427</title>
<g id="a_node23"><a xlink:href="net_8c.html#aeff229f443c6582fea71504f33364eb4" target="_top" xlink:title="coap_malloc_node">
<polygon fill="#ffffff" stroke="#000000" points="1019.5,-294.5 1019.5,-313.5 1117.5,-313.5 1117.5,-294.5 1019.5,-294.5"/>
<text text-anchor="middle" x="1068.5" y="-301.5" font-family="Helvetica,sans-Serif" font-size="10.00" fill="#000000">coap_malloc_node</text>
</a>
</g>
</g>
<!-- Node425&#45;&gt;Node427 -->
<g id="edge29" class="edge">
<title>Node425&#45;&gt;Node427</title>
<path fill="none" stroke="#191970" d="M959.342,-332.411C978.3479,-327.4642 1001.7286,-321.3789 1021.9692,-316.1108"/>
<polygon fill="#191970" stroke="#191970" points="1023.127,-319.4261 1031.923,-313.5201 1021.3638,-312.6518 1023.127,-319.4261"/>
</g>
<!-- Node427&#45;&gt;Node424 -->
<g id="edge30" class="edge">
<title>Node427&#45;&gt;Node424</title>
<path fill="none" stroke="#191970" d="M1117.6358,-304C1126.4275,-304 1135.662,-304 1144.671,-304"/>
<polygon fill="#191970" stroke="#191970" points="1144.7111,-307.5001 1154.7111,-304 1144.7111,-300.5001 1144.7111,-307.5001"/>
</g>
<!-- Node428&#45;&gt;Node415 -->
<g id="edge34" class="edge">
<title>Node428&#45;&gt;Node415</title>
<path fill="none" stroke="#191970" d="M685.6605,-33.589C770.4376,-27.107 939.1791,-19.5007 982,-57 1046.6584,-113.6229 962.6909,-181.2143 1018,-247 1019.119,-248.3309 1020.3412,-249.5687 1021.6458,-250.72"/>
<polygon fill="#191970" stroke="#191970" points="1019.658,-253.6007 1029.8732,-256.4115 1023.6405,-247.8439 1019.658,-253.6007"/>
</g>
</g>
</svg>
