<?xml version="1.0" encoding="UTF-8" standalone="no"?>
<!DOCTYPE svg PUBLIC "-//W3C//DTD SVG 1.1//EN"
 "http://www.w3.org/Graphics/SVG/1.1/DTD/svg11.dtd">
<!-- Generated by graphviz version 2.40.1 (20161225.0304)
 -->
<!-- Title: coap_notify_observers Pages: 1 -->
<svg width="489pt" height="85pt"
 viewBox="0.00 0.00 489.00 85.00" xmlns="http://www.w3.org/2000/svg" xmlns:xlink="http://www.w3.org/1999/xlink">
<g id="graph0" class="graph" transform="scale(1 1) rotate(0) translate(4 81)">
<title>coap_notify_observers</title>
<polygon fill="#ffffff" stroke="transparent" points="-4,4 -4,-81 485,-81 485,4 -4,4"/>
<!-- Node606 -->
<g id="node1" class="node">
<title>Node606</title>
<polygon fill="#bfbfbf" stroke="#000000" points="0,-19.5 0,-38.5 115,-38.5 115,-19.5 0,-19.5"/>
<text text-anchor="middle" x="57.5" y="-26.5" font-family="Helvetica,sans-Serif" font-size="10.00" fill="#000000">coap_notify_observers</text>
</g>
<!-- Node607 -->
<g id="node2" class="node">
<title>Node607</title>
<g id="a_node2"><a xlink:href="resource_8h.html#a579bcb559463d3a872831c18d8d9a1c1" target="_top" xlink:title="Checks for all known resources, if they are dirty and notifies subscribed observers. ">
<polygon fill="#ffffff" stroke="#000000" points="151,-19.5 151,-38.5 249,-38.5 249,-19.5 151,-19.5"/>
<text text-anchor="middle" x="200" y="-26.5" font-family="Helvetica,sans-Serif" font-size="10.00" fill="#000000">coap_check_notify</text>
</a>
</g>
</g>
<!-- Node606&#45;&gt;Node607 -->
<g id="edge1" class="edge">
<title>Node606&#45;&gt;Node607</title>
<path fill="none" stroke="#191970" d="M125.181,-29C133.8657,-29 142.6213,-29 150.93,-29"/>
<polygon fill="#191970" stroke="#191970" points="125.0495,-25.5001 115.0495,-29 125.0494,-32.5001 125.0495,-25.5001"/>
</g>
<!-- Node608 -->
<g id="node3" class="node">
<title>Node608</title>
<g id="a_node3"><a xlink:href="net_8h.html#aaac86ac50793f309678e4951ecf8863f" target="_top" xlink:title="For applications with their own message loop, send all pending retransmits and return the list of soc...">
<polygon fill="#ffffff" stroke="#000000" points="291.5,-38.5 291.5,-57.5 355.5,-57.5 355.5,-38.5 291.5,-38.5"/>
<text text-anchor="middle" x="323.5" y="-45.5" font-family="Helvetica,sans-Serif" font-size="10.00" fill="#000000">coap_write</text>
</a>
</g>
</g>
<!-- Node607&#45;&gt;Node608 -->
<g id="edge2" class="edge">
<title>Node607&#45;&gt;Node608</title>
<path fill="none" stroke="#191970" d="M259.2085,-38.109C270.2213,-39.8033 281.3421,-41.5142 291.1665,-43.0256"/>
<polygon fill="#191970" stroke="#191970" points="259.5813,-34.6253 249.1653,-36.5639 258.5168,-41.5439 259.5813,-34.6253"/>
</g>
<!-- Node611 -->
<g id="node6" class="node">
<title>Node611</title>
<g id="a_node6"><a xlink:href="libcoap_8h.html#a5d1fb0b44497970b0f75fa0b38570a82" target="_top" xlink:title="coap_cleanup">
<polygon fill="#ffffff" stroke="#000000" points="285,-.5 285,-19.5 362,-19.5 362,-.5 285,-.5"/>
<text text-anchor="middle" x="323.5" y="-7.5" font-family="Helvetica,sans-Serif" font-size="10.00" fill="#000000">coap_cleanup</text>
</a>
</g>
</g>
<!-- Node607&#45;&gt;Node611 -->
<g id="edge5" class="edge">
<title>Node607&#45;&gt;Node611</title>
<path fill="none" stroke="#191970" d="M259.2663,-19.8821C267.9313,-18.549 276.6616,-17.2059 284.7733,-15.958"/>
<polygon fill="#191970" stroke="#191970" points="258.5168,-16.4561 249.1653,-21.4361 259.5813,-23.3747 258.5168,-16.4561"/>
</g>
<!-- Node609 -->
<g id="node4" class="node">
<title>Node609</title>
<g id="a_node4"><a xlink:href="coap__io_8c.html#a75a7c93e10ca7858449ba304aad4ea37" target="_top" xlink:title="coap_run_once">
<polygon fill="#ffffff" stroke="#000000" points="398,-57.5 398,-76.5 481,-76.5 481,-57.5 398,-57.5"/>
<text text-anchor="middle" x="439.5" y="-64.5" font-family="Helvetica,sans-Serif" font-size="10.00" fill="#000000">coap_run_once</text>
</a>
</g>
</g>
<!-- Node608&#45;&gt;Node609 -->
<g id="edge3" class="edge">
<title>Node608&#45;&gt;Node609</title>
<path fill="none" stroke="#191970" d="M365.6193,-54.8988C376.036,-56.605 387.1933,-58.4325 397.5996,-60.137"/>
<polygon fill="#191970" stroke="#191970" points="365.9388,-51.4046 355.5046,-53.2421 364.8073,-58.3126 365.9388,-51.4046"/>
</g>
<!-- Node610 -->
<g id="node5" class="node">
<title>Node610</title>
<g id="a_node5"><a xlink:href="net_8h.html#a5854b1394bfddd574e48af116e3aaaf9" target="_top" xlink:title="Sends an RST message with code 0 for the specified request to dst. ">
<polygon fill="#ffffff" stroke="#000000" points="399.5,-19.5 399.5,-38.5 479.5,-38.5 479.5,-19.5 399.5,-19.5"/>
<text text-anchor="middle" x="439.5" y="-26.5" font-family="Helvetica,sans-Serif" font-size="10.00" fill="#000000">coap_send_rst</text>
</a>
</g>
</g>
<!-- Node608&#45;&gt;Node610 -->
<g id="edge4" class="edge">
<title>Node608&#45;&gt;Node610</title>
<path fill="none" stroke="#191970" d="M365.7099,-41.0863C376.6737,-39.2905 388.4523,-37.3613 399.309,-35.583"/>
<polygon fill="#191970" stroke="#191970" points="364.8073,-37.6874 355.5046,-42.7579 365.9388,-44.5954 364.8073,-37.6874"/>
</g>
</g>
</svg>
