<?xml version="1.0" encoding="UTF-8" standalone="no"?>
<!DOCTYPE svg PUBLIC "-//W3C//DTD SVG 1.1//EN"
 "http://www.w3.org/Graphics/SVG/1.1/DTD/svg11.dtd">
<!-- Generated by graphviz version 2.40.1 (20161225.0304)
 -->
<!-- Title: coap_delete_all_resources Pages: 1 -->
<!--zoomable 85 -->
<svg id="main" version="1.1" xmlns="http://www.w3.org/2000/svg" xmlns:xlink="http://www.w3.org/1999/xlink" xml:space="preserve" onload="init(evt)">
<style type="text/css"><![CDATA[
.edge:hover path { stroke: red; }
.edge:hover polygon { stroke: red; fill: red; }
]]></style>
<script type="text/javascript"><![CDATA[
var edges = document.getElementsByTagName('g');
if (edges && edges.length) {
  for (var i=0;i<edges.length;i++) {
    if (edges[i].id.substr(0,4)=='edge') {
      edges[i].setAttribute('class','edge');
    }
  }
}
]]></script>
        <defs>
                <circle id="rim" cx="0" cy="0" r="7"/>
                <circle id="rim2" cx="0" cy="0" r="3.5"/>
                <g id="zoomPlus">
                        <use xlink:href="#rim" fill="#404040">
                                <set attributeName="fill" to="#808080" begin="zoomplus.mouseover" end="zoomplus.mouseout"/>
                        </use>
                        <path d="M-4,0h8M0,-4v8" fill="none" stroke="white" stroke-width="1.5" pointer-events="none"/>
                </g>
                <g id="zoomMin">
                        <use xlink:href="#rim" fill="#404040">
                                <set attributeName="fill" to="#808080" begin="zoomminus.mouseover" end="zoomminus.mouseout"/>
                        </use>
                        <path d="M-4,0h8" fill="none" stroke="white" stroke-width="1.5" pointer-events="none"/>
                </g>
                <g id="dirArrow">
                        <path fill="none" stroke="white" stroke-width="1.5" d="M0,-3.0v7 M-2.5,-0.5L0,-3.0L2.5,-0.5"/>
                </g>
               <g id="resetDef">
                       <use xlink:href="#rim2" fill="#404040">
                               <set attributeName="fill" to="#808080" begin="reset.mouseover" end="reset.mouseout"/>
                       </use>
               </g>
        </defs>

<script type="text/javascript">
var viewWidth = 990;
var viewHeight = 85;
var sectionId = 'dynsection-11';
</script>
<script xlink:href="svgpan.js"/>
<svg id="graph" class="graph">
<g id="viewport">
<title>coap_delete_all_resources</title>
<polygon fill="#ffffff" stroke="transparent" points="-4,4 -4,-81 986,-81 986,4 -4,4"/>
<!-- Node210 -->
<g id="node1" class="node">
<title>Node210</title>
<polygon fill="#bfbfbf" stroke="#000000" points="0,-19.5 0,-38.5 132,-38.5 132,-19.5 0,-19.5"/>
<text text-anchor="middle" x="66" y="-26.5" font-family="Helvetica,sans-Serif" font-size="10.00" fill="#000000">coap_delete_all_resources</text>
</g>
<!-- Node211 -->
<g id="node2" class="node">
<title>Node211</title>
<g id="a_node2"><a xlink:href="net_8h.html#a4a0717822713783908dd33d300440b2e" target="_top" xlink:title="CoAP stack context must be released with coap_free_context(). ">
<polygon fill="#ffffff" stroke="#000000" points="190.5,-38.5 190.5,-57.5 287.5,-57.5 287.5,-38.5 190.5,-38.5"/>
<text text-anchor="middle" x="239" y="-45.5" font-family="Helvetica,sans-Serif" font-size="10.00" fill="#000000">coap_free_context</text>
</a>
</g>
</g>
<!-- Node210&#45;&gt;Node211 -->
<g id="edge1" class="edge">
<title>Node210&#45;&gt;Node211</title>
<path fill="none" stroke="#191970" d="M142.4201,-37.393C158.6597,-39.1765 175.3797,-41.0128 190.2486,-42.6458"/>
<polygon fill="#191970" stroke="#191970" points="142.7139,-33.9043 132.3915,-36.2916 141.9497,-40.8624 142.7139,-33.9043"/>
</g>
<!-- Node221 -->
<g id="node12" class="node">
<title>Node221</title>
<g id="a_node12"><a xlink:href="resource_8h.html#aebca190a03325bc26b075af3eac04d1f" target="_top" xlink:title="Gets the user_data. ">
<polygon fill="#ffffff" stroke="#000000" points="168,-.5 168,-19.5 310,-19.5 310,-.5 168,-.5"/>
<text text-anchor="middle" x="239" y="-7.5" font-family="Helvetica,sans-Serif" font-size="10.00" fill="#000000">coap_resource_get_userdata</text>
</a>
</g>
</g>
<!-- Node210&#45;&gt;Node221 -->
<g id="edge11" class="edge">
<title>Node210&#45;&gt;Node221</title>
<path fill="none" stroke="#191970" d="M142.5793,-20.5896C151.0011,-19.6646 159.55,-18.7257 167.901,-17.8086"/>
<polygon fill="#191970" stroke="#191970" points="141.9497,-17.1376 132.3915,-21.7084 142.7139,-24.0957 141.9497,-17.1376"/>
</g>
<!-- Node212 -->
<g id="node3" class="node">
<title>Node212</title>
<g id="a_node3"><a xlink:href="net_8h.html#a8baf4e3608ff5eb00adac694fe25eb60" target="_top" xlink:title="Creates a new coap_context_t object that will hold the CoAP stack status. ">
<polygon fill="#ffffff" stroke="#000000" points="356.5,-57.5 356.5,-76.5 454.5,-76.5 454.5,-57.5 356.5,-57.5"/>
<text text-anchor="middle" x="405.5" y="-64.5" font-family="Helvetica,sans-Serif" font-size="10.00" fill="#000000">coap_new_context</text>
</a>
</g>
</g>
<!-- Node211&#45;&gt;Node212 -->
<g id="edge2" class="edge">
<title>Node211&#45;&gt;Node212</title>
<path fill="none" stroke="#191970" d="M297.7138,-54.7001C316.8508,-56.8839 337.8872,-59.2844 356.2563,-61.3806"/>
<polygon fill="#191970" stroke="#191970" points="297.9387,-51.2031 287.6063,-53.5467 297.1449,-58.158 297.9387,-51.2031"/>
</g>
<!-- Node214 -->
<g id="node5" class="node">
<title>Node214</title>
<g id="a_node5"><a xlink:href="net_8h.html#ade36148140b152d713b23d17bbcf0024" target="_top" xlink:title="Returns a new message id and updates session&#45;&gt;tx_mid accordingly. ">
<polygon fill="#ffffff" stroke="#000000" points="346,-19.5 346,-38.5 465,-38.5 465,-19.5 346,-19.5"/>
<text text-anchor="middle" x="405.5" y="-26.5" font-family="Helvetica,sans-Serif" font-size="10.00" fill="#000000">coap_new_message_id</text>
</a>
</g>
</g>
<!-- Node211&#45;&gt;Node214 -->
<g id="edge4" class="edge">
<title>Node211&#45;&gt;Node214</title>
<path fill="none" stroke="#191970" d="M297.6726,-41.3046C313.3092,-39.5203 330.2165,-37.5909 345.9022,-35.801"/>
<polygon fill="#191970" stroke="#191970" points="297.1449,-37.842 287.6063,-42.4533 297.9387,-44.7969 297.1449,-37.842"/>
</g>
<!-- Node213 -->
<g id="node4" class="node">
<title>Node213</title>
<g id="a_node4"><a xlink:href="net_8h.html#a696acd1012ad1c2dba081ee5bea54fd8" target="_top" xlink:title="Registers the option type type with the given context object ctx. ">
<polygon fill="#ffffff" stroke="#000000" points="505,-57.5 505,-76.5 612,-76.5 612,-57.5 505,-57.5"/>
<text text-anchor="middle" x="558.5" y="-64.5" font-family="Helvetica,sans-Serif" font-size="10.00" fill="#000000">coap_register_option</text>
</a>
</g>
</g>
<!-- Node212&#45;&gt;Node213 -->
<g id="edge3" class="edge">
<title>Node212&#45;&gt;Node213</title>
<path fill="none" stroke="#191970" d="M465.081,-67C478.1856,-67 491.9874,-67 504.8419,-67"/>
<polygon fill="#191970" stroke="#191970" points="464.7524,-63.5001 454.7523,-67 464.7523,-70.5001 464.7524,-63.5001"/>
</g>
<!-- Node215 -->
<g id="node6" class="node">
<title>Node215</title>
<g id="a_node6"><a xlink:href="resource_8c.html#ae1a91e254baca4f43b7896f54a8d9944" target="_top" xlink:title="coap_notify_observers">
<polygon fill="#ffffff" stroke="#000000" points="501,-19.5 501,-38.5 616,-38.5 616,-19.5 501,-19.5"/>
<text text-anchor="middle" x="558.5" y="-26.5" font-family="Helvetica,sans-Serif" font-size="10.00" fill="#000000">coap_notify_observers</text>
</a>
</g>
</g>
<!-- Node214&#45;&gt;Node215 -->
<g id="edge5" class="edge">
<title>Node214&#45;&gt;Node215</title>
<path fill="none" stroke="#191970" d="M475.1098,-29C483.7119,-29 492.4311,-29 500.8276,-29"/>
<polygon fill="#191970" stroke="#191970" points="475.0919,-25.5001 465.0919,-29 475.0919,-32.5001 475.0919,-25.5001"/>
</g>
<!-- Node216 -->
<g id="node7" class="node">
<title>Node216</title>
<g id="a_node7"><a xlink:href="resource_8h.html#a579bcb559463d3a872831c18d8d9a1c1" target="_top" xlink:title="Checks for all known resources, if they are dirty and notifies subscribed observers. ">
<polygon fill="#ffffff" stroke="#000000" points="652,-19.5 652,-38.5 750,-38.5 750,-19.5 652,-19.5"/>
<text text-anchor="middle" x="701" y="-26.5" font-family="Helvetica,sans-Serif" font-size="10.00" fill="#000000">coap_check_notify</text>
</a>
</g>
</g>
<!-- Node215&#45;&gt;Node216 -->
<g id="edge6" class="edge">
<title>Node215&#45;&gt;Node216</title>
<path fill="none" stroke="#191970" d="M626.181,-29C634.8657,-29 643.6213,-29 651.93,-29"/>
<polygon fill="#191970" stroke="#191970" points="626.0495,-25.5001 616.0495,-29 626.0494,-32.5001 626.0495,-25.5001"/>
</g>
<!-- Node217 -->
<g id="node8" class="node">
<title>Node217</title>
<g id="a_node8"><a xlink:href="net_8h.html#aaac86ac50793f309678e4951ecf8863f" target="_top" xlink:title="For applications with their own message loop, send all pending retransmits and return the list of soc...">
<polygon fill="#ffffff" stroke="#000000" points="792.5,-38.5 792.5,-57.5 856.5,-57.5 856.5,-38.5 792.5,-38.5"/>
<text text-anchor="middle" x="824.5" y="-45.5" font-family="Helvetica,sans-Serif" font-size="10.00" fill="#000000">coap_write</text>
</a>
</g>
</g>
<!-- Node216&#45;&gt;Node217 -->
<g id="edge7" class="edge">
<title>Node216&#45;&gt;Node217</title>
<path fill="none" stroke="#191970" d="M760.2085,-38.109C771.2213,-39.8033 782.3421,-41.5142 792.1665,-43.0256"/>
<polygon fill="#191970" stroke="#191970" points="760.5813,-34.6253 750.1653,-36.5639 759.5168,-41.5439 760.5813,-34.6253"/>
</g>
<!-- Node220 -->
<g id="node11" class="node">
<title>Node220</title>
<g id="a_node11"><a xlink:href="libcoap_8h.html#a5d1fb0b44497970b0f75fa0b38570a82" target="_top" xlink:title="coap_cleanup">
<polygon fill="#ffffff" stroke="#000000" points="786,-.5 786,-19.5 863,-19.5 863,-.5 786,-.5"/>
<text text-anchor="middle" x="824.5" y="-7.5" font-family="Helvetica,sans-Serif" font-size="10.00" fill="#000000">coap_cleanup</text>
</a>
</g>
</g>
<!-- Node216&#45;&gt;Node220 -->
<g id="edge10" class="edge">
<title>Node216&#45;&gt;Node220</title>
<path fill="none" stroke="#191970" d="M760.2663,-19.8821C768.9313,-18.549 777.6616,-17.2059 785.7733,-15.958"/>
<polygon fill="#191970" stroke="#191970" points="759.5168,-16.4561 750.1653,-21.4361 760.5813,-23.3747 759.5168,-16.4561"/>
</g>
<!-- Node218 -->
<g id="node9" class="node">
<title>Node218</title>
<g id="a_node9"><a xlink:href="coap__io_8c.html#a75a7c93e10ca7858449ba304aad4ea37" target="_top" xlink:title="coap_run_once">
<polygon fill="#ffffff" stroke="#000000" points="899,-57.5 899,-76.5 982,-76.5 982,-57.5 899,-57.5"/>
<text text-anchor="middle" x="940.5" y="-64.5" font-family="Helvetica,sans-Serif" font-size="10.00" fill="#000000">coap_run_once</text>
</a>
</g>
</g>
<!-- Node217&#45;&gt;Node218 -->
<g id="edge8" class="edge">
<title>Node217&#45;&gt;Node218</title>
<path fill="none" stroke="#191970" d="M866.6193,-54.8988C877.036,-56.605 888.1933,-58.4325 898.5996,-60.137"/>
<polygon fill="#191970" stroke="#191970" points="866.9388,-51.4046 856.5046,-53.2421 865.8073,-58.3126 866.9388,-51.4046"/>
</g>
<!-- Node219 -->
<g id="node10" class="node">
<title>Node219</title>
<g id="a_node10"><a xlink:href="net_8h.html#a5854b1394bfddd574e48af116e3aaaf9" target="_top" xlink:title="Sends an RST message with code 0 for the specified request to dst. ">
<polygon fill="#ffffff" stroke="#000000" points="900.5,-19.5 900.5,-38.5 980.5,-38.5 980.5,-19.5 900.5,-19.5"/>
<text text-anchor="middle" x="940.5" y="-26.5" font-family="Helvetica,sans-Serif" font-size="10.00" fill="#000000">coap_send_rst</text>
</a>
</g>
</g>
<!-- Node217&#45;&gt;Node219 -->
<g id="edge9" class="edge">
<title>Node217&#45;&gt;Node219</title>
<path fill="none" stroke="#191970" d="M866.7099,-41.0863C877.6737,-39.2905 889.4523,-37.3613 900.309,-35.583"/>
<polygon fill="#191970" stroke="#191970" points="865.8073,-37.6874 856.5046,-42.7579 866.9388,-44.5954 865.8073,-37.6874"/>
</g>
</g>
</svg>
        <g id="navigator" transform="translate(0 0)" fill="#404254">
                <rect fill="#f2f5e9" fill-opacity="0.5" stroke="#606060" stroke-width=".5" x="0" y="0" width="60" height="60"/>
                <use id="zoomplus" xlink:href="#zoomPlus" x="17" y="9" onmousedown="handleZoom(evt,'in')"/>
                <use id="zoomminus" xlink:href="#zoomMin" x="42" y="9" onmousedown="handleZoom(evt,'out')"/>
                <use id="reset" xlink:href="#resetDef" x="30" y="36" onmousedown="handleReset()"/>
                <g id="arrowUp" xlink:href="#dirArrow" transform="translate(30 24)" onmousedown="handlePan(0,-1)">
                  <use xlink:href="#rim" fill="#404040">
                        <set attributeName="fill" to="#808080" begin="arrowUp.mouseover" end="arrowUp.mouseout"/>
                  </use>
                  <path fill="none" stroke="white" stroke-width="1.5" d="M0,-3.0v7 M-2.5,-0.5L0,-3.0L2.5,-0.5"/>
                </g>
                <g id="arrowRight" xlink:href="#dirArrow" transform="rotate(90) translate(36 -43)" onmousedown="handlePan(1,0)">
                  <use xlink:href="#rim" fill="#404040">
                        <set attributeName="fill" to="#808080" begin="arrowRight.mouseover" end="arrowRight.mouseout"/>
                  </use>
                  <path fill="none" stroke="white" stroke-width="1.5" d="M0,-3.0v7 M-2.5,-0.5L0,-3.0L2.5,-0.5"/>
                </g>
                <g id="arrowDown" xlink:href="#dirArrow" transform="rotate(180) translate(-30 -48)" onmousedown="handlePan(0,1)">
                  <use xlink:href="#rim" fill="#404040">
                        <set attributeName="fill" to="#808080" begin="arrowDown.mouseover" end="arrowDown.mouseout"/>
                  </use>
                  <path fill="none" stroke="white" stroke-width="1.5" d="M0,-3.0v7 M-2.5,-0.5L0,-3.0L2.5,-0.5"/>
                </g>
                <g id="arrowLeft" xlink:href="#dirArrow" transform="rotate(270) translate(-36 17)" onmousedown="handlePan(-1,0)">
                  <use xlink:href="#rim" fill="#404040">
                        <set attributeName="fill" to="#808080" begin="arrowLeft.mouseover" end="arrowLeft.mouseout"/>
                  </use>
                  <path fill="none" stroke="white" stroke-width="1.5" d="M0,-3.0v7 M-2.5,-0.5L0,-3.0L2.5,-0.5"/>
                </g>
        </g>
        <svg viewBox="0 0 15 15" width="100%" height="30px" preserveAspectRatio="xMaxYMin meet">
         <g id="arrow_out" transform="scale(0.3 0.3)">
          <a xlink:href="resource_8h_a1fae3046ad94fce85a7ea23455328958_icgraph_org.svg" target="_base">
           <rect id="button" ry="5" rx="5" y="6" x="6" height="38" width="38"
                fill="#f2f5e9" fill-opacity="0.5" stroke="#606060" stroke-width="1.0"/>
           <path id="arrow"
             d="M 11.500037,31.436501 C 11.940474,20.09759 22.043105,11.32322 32.158766,21.979434 L 37.068811,17.246167 C 37.068811,17.246167 37.088388,32 37.088388,32 L 22.160133,31.978069 C 22.160133,31.978069 26.997745,27.140456 26.997745,27.140456 C 18.528582,18.264221 13.291696,25.230495 11.500037,31.436501 z"
             style="fill:#404040;"/>
          </a>
         </g>
        </svg>
</svg>
