<?xml version="1.0" encoding="UTF-8" standalone="no"?>
<!DOCTYPE svg PUBLIC "-//W3C//DTD SVG 1.1//EN"
 "http://www.w3.org/Graphics/SVG/1.1/DTD/svg11.dtd">
<!-- Generated by graphviz version 2.40.1 (20161225.0304)
 -->
<!-- Title: subscribe.h Pages: 1 -->
<svg width="480pt" height="364pt"
 viewBox="0.00 0.00 479.65 364.00" xmlns="http://www.w3.org/2000/svg" xmlns:xlink="http://www.w3.org/1999/xlink">
<g id="graph0" class="graph" transform="scale(1 1) rotate(0) translate(4 360)">
<title>subscribe.h</title>
<polygon fill="#ffffff" stroke="transparent" points="-4,4 -4,-360 475.6517,-360 475.6517,4 -4,4"/>
<!-- Node0 -->
<g id="node1" class="node">
<title>Node0</title>
<polygon fill="#bfbfbf" stroke="#000000" points="139.5,-336.5 139.5,-355.5 206.5,-355.5 206.5,-336.5 139.5,-336.5"/>
<text text-anchor="middle" x="173" y="-343.5" font-family="Helvetica,sans-Serif" font-size="10.00" fill="#000000">subscribe.h</text>
</g>
<!-- Node1 -->
<g id="node2" class="node">
<title>Node1</title>
<g id="a_node2"><a xlink:href="address_8h.html" target="_top" xlink:title="Representation of network addresses. ">
<polygon fill="#ffffff" stroke="#000000" points="143.5,-224.5 143.5,-243.5 202.5,-243.5 202.5,-224.5 143.5,-224.5"/>
<text text-anchor="middle" x="173" y="-231.5" font-family="Helvetica,sans-Serif" font-size="10.00" fill="#000000">address.h</text>
</a>
</g>
</g>
<!-- Node0&#45;&gt;Node1 -->
<g id="edge1" class="edge">
<title>Node0&#45;&gt;Node1</title>
<path fill="none" stroke="#191970" d="M173,-336.4509C173,-318.184 173,-277.9553 173,-253.6976"/>
<polygon fill="#191970" stroke="#191970" points="176.5001,-253.5249 173,-243.5249 169.5001,-253.5249 176.5001,-253.5249"/>
</g>
<!-- Node9 -->
<g id="node10" class="node">
<title>Node9</title>
<g id="a_node10"><a xlink:href="coap__io_8h.html" target="_top" xlink:title="coap_io.h">
<polygon fill="#ffffff" stroke="#000000" points="80.5,-280.5 80.5,-299.5 139.5,-299.5 139.5,-280.5 80.5,-280.5"/>
<text text-anchor="middle" x="110" y="-287.5" font-family="Helvetica,sans-Serif" font-size="10.00" fill="#000000">coap_io.h</text>
</a>
</g>
</g>
<!-- Node0&#45;&gt;Node9 -->
<g id="edge9" class="edge">
<title>Node0&#45;&gt;Node9</title>
<path fill="none" stroke="#191970" d="M162.0262,-336.2455C152.8118,-328.0549 139.4468,-316.1749 128.5703,-306.5069"/>
<polygon fill="#191970" stroke="#191970" points="130.6474,-303.6704 120.848,-299.6427 125.9968,-308.9023 130.6474,-303.6704"/>
</g>
<!-- Node10 -->
<g id="node11" class="node">
<title>Node10</title>
<g id="a_node11"><a xlink:href="block_8h.html" target="_top" xlink:title="block.h">
<polygon fill="#ffffff" stroke="#000000" points="316,-280.5 316,-299.5 364,-299.5 364,-280.5 316,-280.5"/>
<text text-anchor="middle" x="340" y="-287.5" font-family="Helvetica,sans-Serif" font-size="10.00" fill="#000000">block.h</text>
</a>
</g>
</g>
<!-- Node0&#45;&gt;Node10 -->
<g id="edge13" class="edge">
<title>Node0&#45;&gt;Node10</title>
<path fill="none" stroke="#191970" d="M201.7083,-336.3733C230.6982,-326.6521 275.464,-311.6408 306.1626,-301.3467"/>
<polygon fill="#191970" stroke="#191970" points="307.6227,-304.5487 315.9911,-298.0509 305.3971,-297.9119 307.6227,-304.5487"/>
</g>
<!-- Node2 -->
<g id="node3" class="node">
<title>Node2</title>
<polygon fill="#ffffff" stroke="#bfbfbf" points="0,-168.5 0,-187.5 52,-187.5 52,-168.5 0,-168.5"/>
<text text-anchor="middle" x="26" y="-175.5" font-family="Helvetica,sans-Serif" font-size="10.00" fill="#000000">assert.h</text>
</g>
<!-- Node1&#45;&gt;Node2 -->
<g id="edge2" class="edge">
<title>Node1&#45;&gt;Node2</title>
<path fill="none" stroke="#191970" d="M147.7298,-224.3733C123.6034,-215.1822 87.0638,-201.2624 60.3123,-191.0713"/>
<polygon fill="#191970" stroke="#191970" points="61.5313,-187.7904 50.9404,-187.5011 59.0393,-194.3318 61.5313,-187.7904"/>
</g>
<!-- Node3 -->
<g id="node4" class="node">
<title>Node3</title>
<polygon fill="#ffffff" stroke="#bfbfbf" points="345.5,-56.5 345.5,-75.5 394.5,-75.5 394.5,-56.5 345.5,-56.5"/>
<text text-anchor="middle" x="370" y="-63.5" font-family="Helvetica,sans-Serif" font-size="10.00" fill="#000000">stdint.h</text>
</g>
<!-- Node1&#45;&gt;Node3 -->
<g id="edge3" class="edge">
<title>Node1&#45;&gt;Node3</title>
<path fill="none" stroke="#191970" d="M197.1817,-224.3784C214.556,-216.555 237.6945,-204.1705 254,-188 281.713,-160.5164 271.0114,-140.1953 298,-112 310.2843,-99.1664 326.8331,-88.2729 340.9676,-80.313"/>
<polygon fill="#191970" stroke="#191970" points="342.7077,-83.351 349.8383,-75.5149 339.3774,-77.194 342.7077,-83.351"/>
</g>
<!-- Node4 -->
<g id="node5" class="node">
<title>Node4</title>
<polygon fill="#ffffff" stroke="#bfbfbf" points="249.5,-.5 249.5,-19.5 298.5,-19.5 298.5,-.5 249.5,-.5"/>
<text text-anchor="middle" x="274" y="-7.5" font-family="Helvetica,sans-Serif" font-size="10.00" fill="#000000">string.h</text>
</g>
<!-- Node1&#45;&gt;Node4 -->
<g id="edge4" class="edge">
<title>Node1&#45;&gt;Node4</title>
<path fill="none" stroke="#191970" d="M186.2339,-224.4722C197.0505,-216.0307 211.9796,-202.7778 221,-188 252.6953,-136.0746 266.4597,-64.0032 271.5074,-29.6853"/>
<polygon fill="#191970" stroke="#191970" points="275.0023,-29.9618 272.8984,-19.578 268.0676,-29.0074 275.0023,-29.9618"/>
</g>
<!-- Node5 -->
<g id="node6" class="node">
<title>Node5</title>
<polygon fill="#ffffff" stroke="#bfbfbf" points="70,-168.5 70,-187.5 138,-187.5 138,-168.5 70,-168.5"/>
<text text-anchor="middle" x="104" y="-175.5" font-family="Helvetica,sans-Serif" font-size="10.00" fill="#000000">sys/types.h</text>
</g>
<!-- Node1&#45;&gt;Node5 -->
<g id="edge5" class="edge">
<title>Node1&#45;&gt;Node5</title>
<path fill="none" stroke="#191970" d="M160.9811,-224.2455C150.7902,-215.9746 135.9638,-203.9416 123.9893,-194.2232"/>
<polygon fill="#191970" stroke="#191970" points="125.8514,-191.2268 115.8812,-187.6427 121.4402,-196.662 125.8514,-191.2268"/>
</g>
<!-- Node6 -->
<g id="node7" class="node">
<title>Node6</title>
<g id="a_node7"><a xlink:href="libcoap_8h.html" target="_top" xlink:title="libcoap.h">
<polygon fill="#ffffff" stroke="#000000" points="156,-168.5 156,-187.5 212,-187.5 212,-168.5 156,-168.5"/>
<text text-anchor="middle" x="184" y="-175.5" font-family="Helvetica,sans-Serif" font-size="10.00" fill="#000000">libcoap.h</text>
</a>
</g>
</g>
<!-- Node1&#45;&gt;Node6 -->
<g id="edge6" class="edge">
<title>Node1&#45;&gt;Node6</title>
<path fill="none" stroke="#191970" d="M174.9161,-224.2455C176.3514,-216.9382 178.3636,-206.6944 180.1295,-197.7046"/>
<polygon fill="#191970" stroke="#191970" points="183.6127,-198.1298 182.1059,-187.6427 176.744,-196.7805 183.6127,-198.1298"/>
</g>
<!-- Node7 -->
<g id="node8" class="node">
<title>Node7</title>
<polygon fill="#ffffff" stroke="#bfbfbf" points="55.5,-112.5 55.5,-131.5 120.5,-131.5 120.5,-112.5 55.5,-112.5"/>
<text text-anchor="middle" x="88" y="-119.5" font-family="Helvetica,sans-Serif" font-size="10.00" fill="#000000">netinet/in.h</text>
</g>
<!-- Node6&#45;&gt;Node7 -->
<g id="edge7" class="edge">
<title>Node6&#45;&gt;Node7</title>
<path fill="none" stroke="#191970" d="M167.2781,-168.2455C152.4111,-159.5731 130.4534,-146.7645 113.4142,-136.825"/>
<polygon fill="#191970" stroke="#191970" points="114.9317,-133.6582 104.5303,-131.6427 111.4045,-139.7047 114.9317,-133.6582"/>
</g>
<!-- Node8 -->
<g id="node9" class="node">
<title>Node8</title>
<polygon fill="#ffffff" stroke="#bfbfbf" points="138.5,-112.5 138.5,-131.5 211.5,-131.5 211.5,-112.5 138.5,-112.5"/>
<text text-anchor="middle" x="175" y="-119.5" font-family="Helvetica,sans-Serif" font-size="10.00" fill="#000000">sys/socket.h</text>
</g>
<!-- Node6&#45;&gt;Node8 -->
<g id="edge8" class="edge">
<title>Node6&#45;&gt;Node8</title>
<path fill="none" stroke="#191970" d="M182.4323,-168.2455C181.2579,-160.9382 179.6116,-150.6944 178.1668,-141.7046"/>
<polygon fill="#191970" stroke="#191970" points="181.5922,-140.9606 176.5497,-131.6427 174.6809,-142.0714 181.5922,-140.9606"/>
</g>
<!-- Node9&#45;&gt;Node1 -->
<g id="edge12" class="edge">
<title>Node9&#45;&gt;Node1</title>
<path fill="none" stroke="#191970" d="M120.9738,-280.2455C130.1882,-272.0549 143.5532,-260.1749 154.4297,-250.5069"/>
<polygon fill="#191970" stroke="#191970" points="157.0032,-252.9023 162.152,-243.6427 152.3526,-247.6704 157.0032,-252.9023"/>
</g>
<!-- Node9&#45;&gt;Node2 -->
<g id="edge10" class="edge">
<title>Node9&#45;&gt;Node2</title>
<path fill="none" stroke="#191970" d="M102.8382,-280.4509C88.766,-261.688 57.3161,-219.7548 39.3185,-195.758"/>
<polygon fill="#191970" stroke="#191970" points="41.9437,-193.4249 33.1437,-187.5249 36.3437,-197.6249 41.9437,-193.4249"/>
</g>
<!-- Node9&#45;&gt;Node5 -->
<g id="edge11" class="edge">
<title>Node9&#45;&gt;Node5</title>
<path fill="none" stroke="#191970" d="M109.4884,-280.4509C108.5099,-262.184 106.3547,-221.9553 105.0552,-197.6976"/>
<polygon fill="#191970" stroke="#191970" points="108.5403,-197.3233 104.5103,-187.5249 101.5503,-197.6978 108.5403,-197.3233"/>
</g>
<!-- Node11 -->
<g id="node12" class="node">
<title>Node11</title>
<g id="a_node12"><a xlink:href="encode_8h.html" target="_top" xlink:title="encode.h">
<polygon fill="#ffffff" stroke="#000000" points="411,-224.5 411,-243.5 467,-243.5 467,-224.5 411,-224.5"/>
<text text-anchor="middle" x="439" y="-231.5" font-family="Helvetica,sans-Serif" font-size="10.00" fill="#000000">encode.h</text>
</a>
</g>
</g>
<!-- Node10&#45;&gt;Node11 -->
<g id="edge14" class="edge">
<title>Node10&#45;&gt;Node11</title>
<path fill="none" stroke="#191970" d="M357.2445,-280.2455C372.5761,-271.5731 395.2199,-258.7645 412.7916,-248.825"/>
<polygon fill="#191970" stroke="#191970" points="414.9724,-251.6126 421.9531,-243.6427 411.5259,-245.5198 414.9724,-251.6126"/>
</g>
<!-- Node13 -->
<g id="node14" class="node">
<title>Node13</title>
<g id="a_node14"><a xlink:href="option_8h.html" target="_top" xlink:title="Helpers for handling options in CoAP PDUs. ">
<polygon fill="#ffffff" stroke="#000000" points="341.5,-224.5 341.5,-243.5 392.5,-243.5 392.5,-224.5 341.5,-224.5"/>
<text text-anchor="middle" x="367" y="-231.5" font-family="Helvetica,sans-Serif" font-size="10.00" fill="#000000">option.h</text>
</a>
</g>
</g>
<!-- Node10&#45;&gt;Node13 -->
<g id="edge17" class="edge">
<title>Node10&#45;&gt;Node13</title>
<path fill="none" stroke="#191970" d="M344.703,-280.2455C348.3424,-272.6973 353.4924,-262.0158 357.9262,-252.8197"/>
<polygon fill="#191970" stroke="#191970" points="361.1605,-254.1704 362.3509,-243.6427 354.8551,-251.1303 361.1605,-254.1704"/>
</g>
<!-- Node15 -->
<g id="node16" class="node">
<title>Node15</title>
<g id="a_node16"><a xlink:href="pdu_8h.html" target="_top" xlink:title="Pre&#45;defined constants that reflect defaults for CoAP. ">
<polygon fill="#ffffff" stroke="#000000" points="306.5,-168.5 306.5,-187.5 347.5,-187.5 347.5,-168.5 306.5,-168.5"/>
<text text-anchor="middle" x="327" y="-175.5" font-family="Helvetica,sans-Serif" font-size="10.00" fill="#000000">pdu.h</text>
</a>
</g>
</g>
<!-- Node10&#45;&gt;Node15 -->
<g id="edge26" class="edge">
<title>Node10&#45;&gt;Node15</title>
<path fill="none" stroke="#191970" d="M338.3255,-280.1531C336.7861,-270.8549 334.5191,-256.5099 333,-244 331.1335,-228.6289 329.5713,-211.1794 328.5093,-198.0845"/>
<polygon fill="#191970" stroke="#191970" points="331.9787,-197.5563 327.7096,-187.8596 325,-198.1021 331.9787,-197.5563"/>
</g>
<!-- Node11&#45;&gt;Node3 -->
<g id="edge16" class="edge">
<title>Node11&#45;&gt;Node3</title>
<path fill="none" stroke="#191970" d="M447.2089,-224.1677C454.0114,-215.3343 463.1631,-201.6831 467,-188 476.3723,-154.577 470.7526,-139.0511 449,-112 437.3046,-97.4558 419.6845,-86.5672 404.0506,-79.0447"/>
<polygon fill="#191970" stroke="#191970" points="405.1976,-75.7224 394.6436,-74.7933 402.3147,-82.1012 405.1976,-75.7224"/>
</g>
<!-- Node12 -->
<g id="node13" class="node">
<title>Node12</title>
<polygon fill="#ffffff" stroke="#bfbfbf" points="404,-168.5 404,-187.5 458,-187.5 458,-168.5 404,-168.5"/>
<text text-anchor="middle" x="431" y="-175.5" font-family="Helvetica,sans-Serif" font-size="10.00" fill="#000000">strings.h</text>
</g>
<!-- Node11&#45;&gt;Node12 -->
<g id="edge15" class="edge">
<title>Node11&#45;&gt;Node12</title>
<path fill="none" stroke="#191970" d="M437.6065,-224.2455C436.5626,-216.9382 435.0992,-206.6944 433.8149,-197.7046"/>
<polygon fill="#191970" stroke="#191970" points="437.2566,-197.0472 432.3775,-187.6427 430.327,-198.0372 437.2566,-197.0472"/>
</g>
<!-- Node14 -->
<g id="node15" class="node">
<title>Node14</title>
<g id="a_node15"><a xlink:href="bits_8h.html" target="_top" xlink:title="Bit vector manipulation. ">
<polygon fill="#ffffff" stroke="#000000" points="398.5,-112.5 398.5,-131.5 439.5,-131.5 439.5,-112.5 398.5,-112.5"/>
<text text-anchor="middle" x="419" y="-119.5" font-family="Helvetica,sans-Serif" font-size="10.00" fill="#000000">bits.h</text>
</a>
</g>
</g>
<!-- Node13&#45;&gt;Node14 -->
<g id="edge18" class="edge">
<title>Node13&#45;&gt;Node14</title>
<path fill="none" stroke="#191970" d="M370.7544,-224.4961C375.9208,-211.5766 385.6482,-187.81 395,-168 399.3116,-158.8666 404.4504,-148.9095 408.8646,-140.6024"/>
<polygon fill="#191970" stroke="#191970" points="411.9677,-142.2217 413.6207,-131.7566 405.8024,-138.9067 411.9677,-142.2217"/>
</g>
<!-- Node13&#45;&gt;Node15 -->
<g id="edge20" class="edge">
<title>Node13&#45;&gt;Node15</title>
<path fill="none" stroke="#191970" d="M360.0325,-224.2455C354.4689,-216.4564 346.522,-205.3308 339.8171,-195.9439"/>
<polygon fill="#191970" stroke="#191970" points="342.5481,-193.7457 333.8876,-187.6427 336.852,-197.8144 342.5481,-193.7457"/>
</g>
<!-- Node14&#45;&gt;Node3 -->
<g id="edge19" class="edge">
<title>Node14&#45;&gt;Node3</title>
<path fill="none" stroke="#191970" d="M410.4649,-112.2455C403.5088,-104.2958 393.5117,-92.8706 385.1949,-83.3656"/>
<polygon fill="#191970" stroke="#191970" points="387.6564,-80.8637 378.4373,-75.6427 382.3884,-85.4732 387.6564,-80.8637"/>
</g>
<!-- Node15&#45;&gt;Node3 -->
<g id="edge25" class="edge">
<title>Node15&#45;&gt;Node3</title>
<path fill="none" stroke="#191970" d="M332.7358,-168.3987C338.0098,-159.2742 345.7801,-145.0465 351,-132 357.0903,-116.7781 362.1195,-98.8677 365.4705,-85.5482"/>
<polygon fill="#191970" stroke="#191970" points="368.9278,-86.142 367.8771,-75.5994 362.124,-84.4961 368.9278,-86.142"/>
</g>
<!-- Node16 -->
<g id="node17" class="node">
<title>Node16</title>
<g id="a_node17"><a xlink:href="uri_8h.html" target="_top" xlink:title="uri.h">
<polygon fill="#ffffff" stroke="#000000" points="306.5,-112.5 306.5,-131.5 341.5,-131.5 341.5,-112.5 306.5,-112.5"/>
<text text-anchor="middle" x="324" y="-119.5" font-family="Helvetica,sans-Serif" font-size="10.00" fill="#000000">uri.h</text>
</a>
</g>
</g>
<!-- Node15&#45;&gt;Node16 -->
<g id="edge21" class="edge">
<title>Node15&#45;&gt;Node16</title>
<path fill="none" stroke="#191970" d="M326.4774,-168.2455C326.086,-160.9382 325.5372,-150.6944 325.0556,-141.7046"/>
<polygon fill="#191970" stroke="#191970" points="328.5466,-141.4411 324.5166,-131.6427 321.5566,-141.8156 328.5466,-141.4411"/>
</g>
<!-- Node16&#45;&gt;Node3 -->
<g id="edge22" class="edge">
<title>Node16&#45;&gt;Node3</title>
<path fill="none" stroke="#191970" d="M332.0126,-112.2455C338.4768,-104.3761 347.7385,-93.101 355.4983,-83.6542"/>
<polygon fill="#191970" stroke="#191970" points="358.4364,-85.5916 362.0792,-75.6427 353.0273,-81.1484 358.4364,-85.5916"/>
</g>
<!-- Node17 -->
<g id="node18" class="node">
<title>Node17</title>
<g id="a_node18"><a xlink:href="str_8h.html" target="_top" xlink:title="str.h">
<polygon fill="#ffffff" stroke="#000000" points="280,-56.5 280,-75.5 316,-75.5 316,-56.5 280,-56.5"/>
<text text-anchor="middle" x="298" y="-63.5" font-family="Helvetica,sans-Serif" font-size="10.00" fill="#000000">str.h</text>
</a>
</g>
</g>
<!-- Node16&#45;&gt;Node17 -->
<g id="edge23" class="edge">
<title>Node16&#45;&gt;Node17</title>
<path fill="none" stroke="#191970" d="M319.4711,-112.2455C315.9666,-104.6973 311.0073,-94.0158 306.7377,-84.8197"/>
<polygon fill="#191970" stroke="#191970" points="309.8627,-83.2389 302.477,-75.6427 303.5136,-86.1867 309.8627,-83.2389"/>
</g>
<!-- Node17&#45;&gt;Node4 -->
<g id="edge24" class="edge">
<title>Node17&#45;&gt;Node4</title>
<path fill="none" stroke="#191970" d="M293.8195,-56.2455C290.619,-48.7776 286.104,-38.2427 282.1916,-29.1137"/>
<polygon fill="#191970" stroke="#191970" points="285.2888,-27.4554 278.1326,-19.6427 278.8548,-30.2129 285.2888,-27.4554"/>
</g>
</g>
</svg>
