<?xml version="1.0" encoding="UTF-8" standalone="no"?>
<!DOCTYPE svg PUBLIC "-//W3C//DTD SVG 1.1//EN"
 "http://www.w3.org/Graphics/SVG/1.1/DTD/svg11.dtd">
<!-- Generated by graphviz version 2.40.1 (20161225.0304)
 -->
<!-- Title: dots Pages: 1 -->
<svg width="450pt" height="39pt"
 viewBox="0.00 0.00 450.00 39.00" xmlns="http://www.w3.org/2000/svg" xmlns:xlink="http://www.w3.org/1999/xlink">
<g id="graph0" class="graph" transform="scale(1 1) rotate(0) translate(4 35)">
<title>dots</title>
<polygon fill="#ffffff" stroke="transparent" points="-4,4 -4,-35 446,-35 446,4 -4,4"/>
<!-- Node100 -->
<g id="node1" class="node">
<title>Node100</title>
<polygon fill="#bfbfbf" stroke="#000000" points="0,-6 0,-25 35,-25 35,-6 0,-6"/>
<text text-anchor="middle" x="17.5" y="-13" font-family="Helvetica,sans-Serif" font-size="10.00" fill="#000000">dots</text>
</g>
<!-- Node101 -->
<g id="node2" class="node">
<title>Node101</title>
<g id="a_node2"><a xlink:href="uri_8c.html#a517b4456d0a079f5886599dccce09a2a" target="_top" xlink:title="Splits the given string into segments. ">
<polygon fill="#ffffff" stroke="#000000" points="71,-6 71,-25 179,-25 179,-6 71,-6"/>
<text text-anchor="middle" x="125" y="-13" font-family="Helvetica,sans-Serif" font-size="10.00" fill="#000000">coap_split_path_impl</text>
</a>
</g>
</g>
<!-- Node100&#45;&gt;Node101 -->
<g id="edge1" class="edge">
<title>Node100&#45;&gt;Node101</title>
<path fill="none" stroke="#191970" d="M45.324,-15.5C53.2242,-15.5 62.107,-15.5 70.999,-15.5"/>
<polygon fill="#191970" stroke="#191970" points="45.2515,-12.0001 35.2514,-15.5 45.2514,-19.0001 45.2515,-12.0001"/>
</g>
<!-- Node102 -->
<g id="node3" class="node">
<title>Node102</title>
<g id="a_node3"><a xlink:href="group__uri__parse.html#ga4a01c4a81338c39d0a2fb1e3859a6fb0" target="_top" xlink:title="Splits the given URI path into segments. ">
<polygon fill="#ffffff" stroke="#000000" points="215,-6 215,-25 300,-25 300,-6 215,-6"/>
<text text-anchor="middle" x="257.5" y="-13" font-family="Helvetica,sans-Serif" font-size="10.00" fill="#000000">coap_split_path</text>
</a>
</g>
</g>
<!-- Node101&#45;&gt;Node102 -->
<g id="edge2" class="edge">
<title>Node101&#45;&gt;Node102</title>
<path fill="none" stroke="#191970" d="M189.3755,-15.5C198.0264,-15.5 206.7199,-15.5 214.8654,-15.5"/>
<polygon fill="#191970" stroke="#191970" points="189.2752,-12.0001 179.2751,-15.5 189.2751,-19.0001 189.2752,-12.0001"/>
</g>
<!-- Node103 -->
<g id="node4" class="node">
<title>Node103</title>
<g id="a_node4"><a xlink:href="uri_8h.html#a04d042f5a81b4a13bf1cc7d94920ed87" target="_top" xlink:title="coap_uri_scheme_is\l_secure">
<polygon fill="#ffffff" stroke="#000000" points="336,-.5 336,-30.5 442,-30.5 442,-.5 336,-.5"/>
<text text-anchor="start" x="344" y="-18.5" font-family="Helvetica,sans-Serif" font-size="10.00" fill="#000000">coap_uri_scheme_is</text>
<text text-anchor="middle" x="389" y="-7.5" font-family="Helvetica,sans-Serif" font-size="10.00" fill="#000000">_secure</text>
</a>
</g>
</g>
<!-- Node102&#45;&gt;Node103 -->
<g id="edge3" class="edge">
<title>Node102&#45;&gt;Node103</title>
<path fill="none" stroke="#191970" d="M310.3054,-15.5C318.7476,-15.5 327.4862,-15.5 335.9344,-15.5"/>
<polygon fill="#191970" stroke="#191970" points="310.1943,-12.0001 300.1943,-15.5 310.1942,-19.0001 310.1943,-12.0001"/>
</g>
</g>
</svg>
