<?xml version="1.0" encoding="UTF-8" standalone="no"?>
<!DOCTYPE svg PUBLIC "-//W3C//DTD SVG 1.1//EN"
 "http://www.w3.org/Graphics/SVG/1.1/DTD/svg11.dtd">
<!-- Generated by graphviz version 2.40.1 (20161225.0304)
 -->
<!-- Title: is_unescaped_in_path Pages: 1 -->
<svg width="1531pt" height="227pt"
 viewBox="0.00 0.00 1531.00 227.00" xmlns="http://www.w3.org/2000/svg" xmlns:xlink="http://www.w3.org/1999/xlink">
<g id="graph0" class="graph" transform="scale(1 1) rotate(0) translate(4 223)">
<title>is_unescaped_in_path</title>
<polygon fill="#ffffff" stroke="transparent" points="-4,4 -4,-223 1527,-223 1527,4 -4,4"/>
<!-- Node105 -->
<g id="node1" class="node">
<title>Node105</title>
<polygon fill="#bfbfbf" stroke="#000000" points="0,-149.5 0,-168.5 113,-168.5 113,-149.5 0,-149.5"/>
<text text-anchor="middle" x="56.5" y="-156.5" font-family="Helvetica,sans-Serif" font-size="10.00" fill="#000000">is_unescaped_in_path</text>
</g>
<!-- Node106 -->
<g id="node2" class="node">
<title>Node106</title>
<g id="a_node2"><a xlink:href="uri_8c.html#a2fe9cec4fe3abcf1606bc725bb54b009" target="_top" xlink:title="is_unescaped_in_query">
<polygon fill="#ffffff" stroke="#000000" points="149,-168.5 149,-187.5 268,-187.5 268,-168.5 149,-168.5"/>
<text text-anchor="middle" x="208.5" y="-175.5" font-family="Helvetica,sans-Serif" font-size="10.00" fill="#000000">is_unescaped_in_query</text>
</a>
</g>
</g>
<!-- Node105&#45;&gt;Node106 -->
<g id="edge1" class="edge">
<title>Node105&#45;&gt;Node106</title>
<path fill="none" stroke="#191970" d="M123.0552,-167.3194C131.6225,-168.3903 140.3525,-169.4816 148.8005,-170.5376"/>
<polygon fill="#191970" stroke="#191970" points="123.4561,-163.8424 113.0992,-166.0749 122.5878,-170.7883 123.4561,-163.8424"/>
</g>
<!-- Node120 -->
<g id="node16" class="node">
<title>Node120</title>
<g id="a_node16"><a xlink:href="uri_8c.html#a062095681104f3175b8265e240989ade" target="_top" xlink:title="coap_get_uri_path">
<polygon fill="#ffffff" stroke="#000000" points="304,-130.5 304,-149.5 400,-149.5 400,-130.5 304,-130.5"/>
<text text-anchor="middle" x="352" y="-137.5" font-family="Helvetica,sans-Serif" font-size="10.00" fill="#000000">coap_get_uri_path</text>
</a>
</g>
</g>
<!-- Node105&#45;&gt;Node120 -->
<g id="edge22" class="edge">
<title>Node105&#45;&gt;Node120</title>
<path fill="none" stroke="#191970" d="M123.1229,-154.7163C178.0776,-151.1828 254.7343,-146.254 303.8716,-143.0946"/>
<polygon fill="#191970" stroke="#191970" points="122.8805,-151.2246 113.1257,-155.3591 123.3297,-158.2101 122.8805,-151.2246"/>
</g>
<!-- Node107 -->
<g id="node3" class="node">
<title>Node107</title>
<g id="a_node3"><a xlink:href="uri_8c.html#a15cc296560619b6f9b80d9005a000167" target="_top" xlink:title="coap_get_query">
<polygon fill="#ffffff" stroke="#000000" points="309,-168.5 309,-187.5 395,-187.5 395,-168.5 309,-168.5"/>
<text text-anchor="middle" x="352" y="-175.5" font-family="Helvetica,sans-Serif" font-size="10.00" fill="#000000">coap_get_query</text>
</a>
</g>
</g>
<!-- Node106&#45;&gt;Node107 -->
<g id="edge2" class="edge">
<title>Node106&#45;&gt;Node107</title>
<path fill="none" stroke="#191970" d="M278.1467,-178C288.6649,-178 299.2435,-178 308.9772,-178"/>
<polygon fill="#191970" stroke="#191970" points="278.1103,-174.5001 268.1103,-178 278.1102,-181.5001 278.1103,-174.5001"/>
</g>
<!-- Node108 -->
<g id="node4" class="node">
<title>Node108</title>
<g id="a_node4"><a xlink:href="net_8c.html#a1a280312c4bad55cf10243b9b9c3e966" target="_top" xlink:title="handle_request">
<polygon fill="#ffffff" stroke="#000000" points="436,-149.5 436,-168.5 519,-168.5 519,-149.5 436,-149.5"/>
<text text-anchor="middle" x="477.5" y="-156.5" font-family="Helvetica,sans-Serif" font-size="10.00" fill="#000000">handle_request</text>
</a>
</g>
</g>
<!-- Node107&#45;&gt;Node108 -->
<g id="edge3" class="edge">
<title>Node107&#45;&gt;Node108</title>
<path fill="none" stroke="#191970" d="M405.2794,-169.9338C415.5256,-168.3826 426.1165,-166.7792 435.9255,-165.2942"/>
<polygon fill="#191970" stroke="#191970" points="404.5534,-166.5037 395.19,-171.4613 405.6013,-173.4249 404.5534,-166.5037"/>
</g>
<!-- Node109 -->
<g id="node5" class="node">
<title>Node109</title>
<g id="a_node5"><a xlink:href="net_8h.html#a7bb944fc52f772655356d95724317401" target="_top" xlink:title="Dispatches the PDUs from the receive queue in given context. ">
<polygon fill="#ffffff" stroke="#000000" points="555,-149.5 555,-168.5 635,-168.5 635,-149.5 555,-149.5"/>
<text text-anchor="middle" x="595" y="-156.5" font-family="Helvetica,sans-Serif" font-size="10.00" fill="#000000">coap_dispatch</text>
</a>
</g>
</g>
<!-- Node108&#45;&gt;Node109 -->
<g id="edge4" class="edge">
<title>Node108&#45;&gt;Node109</title>
<path fill="none" stroke="#191970" d="M529.5181,-159C538.0487,-159 546.7712,-159 554.9534,-159"/>
<polygon fill="#191970" stroke="#191970" points="529.257,-155.5001 519.2569,-159 529.2569,-162.5001 529.257,-155.5001"/>
</g>
<!-- Node110 -->
<g id="node6" class="node">
<title>Node110</title>
<g id="a_node6"><a xlink:href="net_8c.html#acd36f6fba6d30ab9557e0e6521f4a088" target="_top" xlink:title="coap_read_session">
<polygon fill="#ffffff" stroke="#000000" points="968.5,-86.5 968.5,-105.5 1069.5,-105.5 1069.5,-86.5 968.5,-86.5"/>
<text text-anchor="middle" x="1019" y="-93.5" font-family="Helvetica,sans-Serif" font-size="10.00" fill="#000000">coap_read_session</text>
</a>
</g>
</g>
<!-- Node109&#45;&gt;Node110 -->
<g id="edge5" class="edge">
<title>Node109&#45;&gt;Node110</title>
<path fill="none" stroke="#191970" d="M641.5431,-146.9921C651.2569,-144.5906 661.4472,-142.1481 671,-140 732.9086,-126.0789 748.1408,-120.6714 811,-112 864.4583,-104.6255 926.1499,-100.4152 968.3812,-98.184"/>
<polygon fill="#191970" stroke="#191970" points="640.4932,-143.6467 631.6394,-149.4658 642.1895,-150.4381 640.4932,-143.6467"/>
</g>
<!-- Node115 -->
<g id="node11" class="node">
<title>Node115</title>
<g id="a_node11"><a xlink:href="net_8h.html#a5854b1394bfddd574e48af116e3aaaf9" target="_top" xlink:title="Sends an RST message with code 0 for the specified request to dst. ">
<polygon fill="#ffffff" stroke="#000000" points="1441.5,-133.5 1441.5,-152.5 1521.5,-152.5 1521.5,-133.5 1441.5,-133.5"/>
<text text-anchor="middle" x="1481.5" y="-140.5" font-family="Helvetica,sans-Serif" font-size="10.00" fill="#000000">coap_send_rst</text>
</a>
</g>
</g>
<!-- Node109&#45;&gt;Node115 -->
<g id="edge21" class="edge">
<title>Node109&#45;&gt;Node115</title>
<path fill="none" stroke="#191970" d="M630.6018,-171.8623C682.6666,-189.4912 782.9653,-219 871,-219 871,-219 871,-219 1248,-219 1319.1555,-219 1337.1984,-207.5082 1404,-183 1426.3173,-174.8122 1450.4098,-161.6227 1465.7064,-152.6459"/>
<polygon fill="#191970" stroke="#191970" points="631.4446,-168.451 620.8499,-168.5072 629.1672,-175.0702 631.4446,-168.451"/>
</g>
<!-- Node117 -->
<g id="node13" class="node">
<title>Node117</title>
<g id="a_node13"><a xlink:href="net_8h.html#ae6b8ca457dd41f23372f9e9a7159312b" target="_top" xlink:title="Parses and interprets a CoAP datagram with context ctx. ">
<polygon fill="#ffffff" stroke="#000000" points="671,-149.5 671,-168.5 775,-168.5 775,-149.5 671,-149.5"/>
<text text-anchor="middle" x="723" y="-156.5" font-family="Helvetica,sans-Serif" font-size="10.00" fill="#000000">coap_handle_dgram</text>
</a>
</g>
</g>
<!-- Node109&#45;&gt;Node117 -->
<g id="edge15" class="edge">
<title>Node109&#45;&gt;Node117</title>
<path fill="none" stroke="#191970" d="M645.1883,-159C653.5884,-159 662.3218,-159 670.7716,-159"/>
<polygon fill="#191970" stroke="#191970" points="645.1488,-155.5001 635.1488,-159 645.1488,-162.5001 645.1488,-155.5001"/>
</g>
<!-- Node111 -->
<g id="node7" class="node">
<title>Node111</title>
<g id="a_node7"><a xlink:href="net_8h.html#a0748d791fd2af516dd93fbadb660d440" target="_top" xlink:title="For applications with their own message loop, reads all data from the network. ">
<polygon fill="#ffffff" stroke="#000000" points="1107,-86.5 1107,-105.5 1169,-105.5 1169,-86.5 1107,-86.5"/>
<text text-anchor="middle" x="1138" y="-93.5" font-family="Helvetica,sans-Serif" font-size="10.00" fill="#000000">coap_read</text>
</a>
</g>
</g>
<!-- Node110&#45;&gt;Node111 -->
<g id="edge6" class="edge">
<title>Node110&#45;&gt;Node111</title>
<path fill="none" stroke="#191970" d="M1079.949,-96C1089.3142,-96 1098.6315,-96 1106.9721,-96"/>
<polygon fill="#191970" stroke="#191970" points="1079.8119,-92.5001 1069.8119,-96 1079.8119,-99.5001 1079.8119,-92.5001"/>
</g>
<!-- Node112 -->
<g id="node8" class="node">
<title>Node112</title>
<g id="a_node8"><a xlink:href="coap__io_8c.html#a75a7c93e10ca7858449ba304aad4ea37" target="_top" xlink:title="coap_run_once">
<polygon fill="#ffffff" stroke="#000000" points="1440,-.5 1440,-19.5 1523,-19.5 1523,-.5 1440,-.5"/>
<text text-anchor="middle" x="1481.5" y="-7.5" font-family="Helvetica,sans-Serif" font-size="10.00" fill="#000000">coap_run_once</text>
</a>
</g>
</g>
<!-- Node111&#45;&gt;Node112 -->
<g id="edge7" class="edge">
<title>Node111&#45;&gt;Node112</title>
<path fill="none" stroke="#191970" d="M1161.7599,-80.8987C1196.4461,-59.8778 1263.7208,-22.9233 1327,-10 1364.5811,-2.325 1408.3852,-3.2244 1439.7338,-5.5138"/>
<polygon fill="#191970" stroke="#191970" points="1159.5512,-78.1484 1152.8711,-86.372 1163.2215,-84.109 1159.5512,-78.1484"/>
</g>
<!-- Node113 -->
<g id="node9" class="node">
<title>Node113</title>
<g id="a_node9"><a xlink:href="net_8h.html#a9900c032b74bd57f67d489484a2b3207" target="_top" xlink:title="Handles retransmissions of confirmable messages. ">
<polygon fill="#ffffff" stroke="#000000" points="1205,-71.5 1205,-90.5 1291,-90.5 1291,-71.5 1205,-71.5"/>
<text text-anchor="middle" x="1248" y="-78.5" font-family="Helvetica,sans-Serif" font-size="10.00" fill="#000000">coap_retransmit</text>
</a>
</g>
</g>
<!-- Node111&#45;&gt;Node113 -->
<g id="edge8" class="edge">
<title>Node111&#45;&gt;Node113</title>
<path fill="none" stroke="#191970" d="M1179.1522,-90.3883C1187.5214,-89.2471 1196.3482,-88.0434 1204.7866,-86.8927"/>
<polygon fill="#191970" stroke="#191970" points="1178.6627,-86.9226 1169.2274,-91.7417 1179.6086,-93.8584 1178.6627,-86.9226"/>
</g>
<!-- Node111&#45;&gt;Node115 -->
<g id="edge14" class="edge">
<title>Node111&#45;&gt;Node115</title>
<path fill="none" stroke="#191970" d="M1179.2593,-103.1318C1217.4921,-109.6018 1275.984,-119.1484 1327,-126 1365.7798,-131.2082 1410.1954,-135.9704 1441.4214,-139.1209"/>
<polygon fill="#191970" stroke="#191970" points="1179.4813,-99.6194 1169.036,-101.3933 1178.3077,-106.5203 1179.4813,-99.6194"/>
</g>
<!-- Node114 -->
<g id="node10" class="node">
<title>Node114</title>
<g id="a_node10"><a xlink:href="net_8h.html#aaac86ac50793f309678e4951ecf8863f" target="_top" xlink:title="For applications with their own message loop, send all pending retransmits and return the list of soc...">
<polygon fill="#ffffff" stroke="#000000" points="1333.5,-19.5 1333.5,-38.5 1397.5,-38.5 1397.5,-19.5 1333.5,-19.5"/>
<text text-anchor="middle" x="1365.5" y="-26.5" font-family="Helvetica,sans-Serif" font-size="10.00" fill="#000000">coap_write</text>
</a>
</g>
</g>
<!-- Node113&#45;&gt;Node114 -->
<g id="edge9" class="edge">
<title>Node113&#45;&gt;Node114</title>
<path fill="none" stroke="#191970" d="M1278.7454,-67.3935C1299.1441,-58.366 1325.4226,-46.7364 1343.6874,-38.6532"/>
<polygon fill="#191970" stroke="#191970" points="1277.2794,-64.2148 1269.5513,-71.4624 1280.1123,-70.616 1277.2794,-64.2148"/>
</g>
<!-- Node113&#45;&gt;Node115 -->
<g id="edge13" class="edge">
<title>Node113&#45;&gt;Node115</title>
<path fill="none" stroke="#191970" d="M1293.6505,-93.1213C1338.0734,-104.9167 1404.6755,-122.6012 1445.4865,-133.4375"/>
<polygon fill="#191970" stroke="#191970" points="1294.536,-89.7352 1283.9727,-90.5516 1292.7395,-96.5008 1294.536,-89.7352"/>
</g>
<!-- Node116 -->
<g id="node12" class="node">
<title>Node116</title>
<g id="a_node12"><a xlink:href="libcoap_8h.html#a5d1fb0b44497970b0f75fa0b38570a82" target="_top" xlink:title="coap_cleanup">
<polygon fill="#ffffff" stroke="#000000" points="1327,-57.5 1327,-76.5 1404,-76.5 1404,-57.5 1327,-57.5"/>
<text text-anchor="middle" x="1365.5" y="-64.5" font-family="Helvetica,sans-Serif" font-size="10.00" fill="#000000">coap_cleanup</text>
</a>
</g>
</g>
<!-- Node113&#45;&gt;Node116 -->
<g id="edge12" class="edge">
<title>Node113&#45;&gt;Node116</title>
<path fill="none" stroke="#191970" d="M1301.0879,-74.6746C1309.7111,-73.6472 1318.4986,-72.6002 1326.6979,-71.6232"/>
<polygon fill="#191970" stroke="#191970" points="1300.6011,-71.2078 1291.0855,-75.8664 1301.4294,-78.1586 1300.6011,-71.2078"/>
</g>
<!-- Node114&#45;&gt;Node112 -->
<g id="edge10" class="edge">
<title>Node114&#45;&gt;Node112</title>
<path fill="none" stroke="#191970" d="M1407.6193,-22.1012C1418.036,-20.395 1429.1933,-18.5675 1439.5996,-16.863"/>
<polygon fill="#191970" stroke="#191970" points="1406.8073,-18.6874 1397.5046,-23.7579 1407.9388,-25.5954 1406.8073,-18.6874"/>
</g>
<!-- Node114&#45;&gt;Node115 -->
<g id="edge11" class="edge">
<title>Node114&#45;&gt;Node115</title>
<path fill="none" stroke="#191970" d="M1397.6461,-43.5066C1399.8668,-44.9159 1402.0102,-46.4156 1404,-48 1436.1364,-73.5897 1463.8662,-114.5905 1475.5682,-133.2208"/>
<polygon fill="#191970" stroke="#191970" points="1399.2855,-40.4128 1388.8591,-38.5306 1395.8361,-46.5039 1399.2855,-40.4128"/>
</g>
<!-- Node117&#45;&gt;Node115 -->
<g id="edge20" class="edge">
<title>Node117&#45;&gt;Node115</title>
<path fill="none" stroke="#191970" d="M785.0854,-166.3063C844.9094,-172.7088 938.0154,-181 1019,-181 1019,-181 1019,-181 1248,-181 1318.643,-181 1399.7651,-163.8462 1445.3956,-152.589"/>
<polygon fill="#191970" stroke="#191970" points="785.3652,-162.8162 775.0457,-165.2161 784.6094,-169.7753 785.3652,-162.8162"/>
</g>
<!-- Node118 -->
<g id="node14" class="node">
<title>Node118</title>
<g id="a_node14"><a xlink:href="net_8c.html#a8534f7860b14e0743529daff196a27ce" target="_top" xlink:title="coap_handle_dgram_for\l_proto">
<polygon fill="#ffffff" stroke="#000000" points="811,-122 811,-152 931,-152 931,-122 811,-122"/>
<text text-anchor="start" x="819" y="-140" font-family="Helvetica,sans-Serif" font-size="10.00" fill="#000000">coap_handle_dgram_for</text>
<text text-anchor="middle" x="871" y="-129" font-family="Helvetica,sans-Serif" font-size="10.00" fill="#000000">_proto</text>
</a>
</g>
</g>
<!-- Node117&#45;&gt;Node118 -->
<g id="edge16" class="edge">
<title>Node117&#45;&gt;Node118</title>
<path fill="none" stroke="#191970" d="M785.0967,-149.7694C793.6545,-148.4973 802.4304,-147.1928 810.9503,-145.9263"/>
<polygon fill="#191970" stroke="#191970" points="784.5559,-146.3112 775.1793,-151.2436 785.5852,-153.2352 784.5559,-146.3112"/>
</g>
<!-- Node118&#45;&gt;Node110 -->
<g id="edge17" class="edge">
<title>Node118&#45;&gt;Node110</title>
<path fill="none" stroke="#191970" d="M935.151,-119.2284C952.1191,-114.5278 969.7905,-109.6324 984.5107,-105.5545"/>
<polygon fill="#191970" stroke="#191970" points="933.972,-115.9232 925.2693,-121.9659 935.8408,-122.6691 933.972,-115.9232"/>
</g>
<!-- Node119 -->
<g id="node15" class="node">
<title>Node119</title>
<g id="a_node15"><a xlink:href="net_8c.html#a44ffb4b70e537043e9a9cf344be24b92" target="_top" xlink:title="coap_read_endpoint">
<polygon fill="#ffffff" stroke="#000000" points="967,-126.5 967,-145.5 1071,-145.5 1071,-126.5 967,-126.5"/>
<text text-anchor="middle" x="1019" y="-133.5" font-family="Helvetica,sans-Serif" font-size="10.00" fill="#000000">coap_read_endpoint</text>
</a>
</g>
</g>
<!-- Node118&#45;&gt;Node119 -->
<g id="edge18" class="edge">
<title>Node118&#45;&gt;Node119</title>
<path fill="none" stroke="#191970" d="M941.2786,-136.5251C949.917,-136.4668 958.6233,-136.408 966.9248,-136.3519"/>
<polygon fill="#191970" stroke="#191970" points="941.1734,-133.0257 931.1973,-136.5933 941.2207,-140.0255 941.1734,-133.0257"/>
</g>
<!-- Node119&#45;&gt;Node111 -->
<g id="edge19" class="edge">
<title>Node119&#45;&gt;Node111</title>
<path fill="none" stroke="#191970" d="M1057.1899,-123.1631C1074.2571,-117.4262 1094.0197,-110.7833 1109.7291,-105.5028"/>
<polygon fill="#191970" stroke="#191970" points="1055.8671,-119.9152 1047.5035,-126.419 1058.0975,-126.5504 1055.8671,-119.9152"/>
</g>
<!-- Node120&#45;&gt;Node108 -->
<g id="edge23" class="edge">
<title>Node120&#45;&gt;Node108</title>
<path fill="none" stroke="#191970" d="M410.2096,-148.8126C418.847,-150.1203 427.5996,-151.4454 435.8084,-152.6881"/>
<polygon fill="#191970" stroke="#191970" points="410.5739,-145.328 400.1627,-147.2916 409.526,-152.2491 410.5739,-145.328"/>
</g>
</g>
</svg>
