<?xml version="1.0" encoding="UTF-8" standalone="no"?>
<!DOCTYPE svg PUBLIC "-//W3C//DTD SVG 1.1//EN"
 "http://www.w3.org/Graphics/SVG/1.1/DTD/svg11.dtd">
<!-- Generated by graphviz version 2.40.1 (20161225.0304)
 -->
<!-- Title: check_segment Pages: 1 -->
<svg width="617pt" height="66pt"
 viewBox="0.00 0.00 617.00 66.00" xmlns="http://www.w3.org/2000/svg" xmlns:xlink="http://www.w3.org/1999/xlink">
<g id="graph0" class="graph" transform="scale(1 1) rotate(0) translate(4 62)">
<title>check_segment</title>
<polygon fill="#ffffff" stroke="transparent" points="-4,4 -4,-62 613,-62 613,4 -4,4"/>
<!-- Node1 -->
<g id="node1" class="node">
<title>Node1</title>
<polygon fill="#bfbfbf" stroke="#000000" points="0,-19.5 0,-38.5 86,-38.5 86,-19.5 0,-19.5"/>
<text text-anchor="middle" x="43" y="-26.5" font-family="Helvetica,sans-Serif" font-size="10.00" fill="#000000">check_segment</text>
</g>
<!-- Node2 -->
<g id="node2" class="node">
<title>Node2</title>
<g id="a_node2"><a xlink:href="uri_8c.html#a8493f9c1e3e408a0a7ae17a411730066" target="_top" xlink:title="Writes a coap option from given string s to buf. ">
<polygon fill="#ffffff" stroke="#000000" points="122,-19.5 122,-38.5 236,-38.5 236,-19.5 122,-19.5"/>
<text text-anchor="middle" x="179" y="-26.5" font-family="Helvetica,sans-Serif" font-size="10.00" fill="#000000">make_decoded_option</text>
</a>
</g>
</g>
<!-- Node1&#45;&gt;Node2 -->
<g id="edge1" class="edge">
<title>Node1&#45;&gt;Node2</title>
<path fill="none" stroke="#191970" d="M96.1175,-29C104.5473,-29 113.2981,-29 121.8164,-29"/>
<polygon fill="#191970" stroke="#191970" points="96.0313,-25.5001 86.0313,-29 96.0312,-32.5001 96.0313,-25.5001"/>
</g>
<!-- Node3 -->
<g id="node3" class="node">
<title>Node3</title>
<g id="a_node3"><a xlink:href="uri_8c.html#af32b0a60088eff0b14fb9cf8ab67ea35" target="_top" xlink:title="write_option">
<polygon fill="#ffffff" stroke="#000000" points="272,-19.5 272,-38.5 341,-38.5 341,-19.5 272,-19.5"/>
<text text-anchor="middle" x="306.5" y="-26.5" font-family="Helvetica,sans-Serif" font-size="10.00" fill="#000000">write_option</text>
</a>
</g>
</g>
<!-- Node2&#45;&gt;Node3 -->
<g id="edge2" class="edge">
<title>Node2&#45;&gt;Node3</title>
<path fill="none" stroke="#191970" d="M246.0825,-29C254.9797,-29 263.7901,-29 271.818,-29"/>
<polygon fill="#191970" stroke="#191970" points="246.0375,-25.5001 236.0374,-29 246.0374,-32.5001 246.0375,-25.5001"/>
</g>
<!-- Node4 -->
<g id="node4" class="node">
<title>Node4</title>
<g id="a_node4"><a xlink:href="group__uri__parse.html#gaf908e5dec2807e2591c9d4b7a2e1bdc9" target="_top" xlink:title="Splits the given URI path into segments. ">
<polygon fill="#ffffff" stroke="#000000" points="379.5,-38.5 379.5,-57.5 464.5,-57.5 464.5,-38.5 379.5,-38.5"/>
<text text-anchor="middle" x="422" y="-45.5" font-family="Helvetica,sans-Serif" font-size="10.00" fill="#000000">coap_split_path</text>
</a>
</g>
</g>
<!-- Node3&#45;&gt;Node4 -->
<g id="edge3" class="edge">
<title>Node3&#45;&gt;Node4</title>
<path fill="none" stroke="#191970" d="M351.2672,-36.3643C360.4454,-37.8741 370.0849,-39.4599 379.1921,-40.958"/>
<polygon fill="#191970" stroke="#191970" points="351.5893,-32.8703 341.1538,-34.7006 350.453,-39.7775 351.5893,-32.8703"/>
</g>
<!-- Node6 -->
<g id="node6" class="node">
<title>Node6</title>
<g id="a_node6"><a xlink:href="group__uri__parse.html#ga11af018953df7b74380791222cc115a5" target="_top" xlink:title="Splits the given URI query into segments. ">
<polygon fill="#ffffff" stroke="#000000" points="377,-.5 377,-19.5 467,-19.5 467,-.5 377,-.5"/>
<text text-anchor="middle" x="422" y="-7.5" font-family="Helvetica,sans-Serif" font-size="10.00" fill="#000000">coap_split_query</text>
</a>
</g>
</g>
<!-- Node3&#45;&gt;Node6 -->
<g id="edge5" class="edge">
<title>Node3&#45;&gt;Node6</title>
<path fill="none" stroke="#191970" d="M351.1291,-21.6584C359.5069,-20.2803 368.2737,-18.8381 376.6725,-17.4565"/>
<polygon fill="#191970" stroke="#191970" points="350.453,-18.2225 341.1538,-23.2994 351.5893,-25.1297 350.453,-18.2225"/>
</g>
<!-- Node5 -->
<g id="node5" class="node">
<title>Node5</title>
<g id="a_node5"><a xlink:href="uri_8h.html#a04d042f5a81b4a13bf1cc7d94920ed87" target="_top" xlink:title="coap_uri_scheme_is\l_secure">
<polygon fill="#ffffff" stroke="#000000" points="503,-14 503,-44 609,-44 609,-14 503,-14"/>
<text text-anchor="start" x="511" y="-32" font-family="Helvetica,sans-Serif" font-size="10.00" fill="#000000">coap_uri_scheme_is</text>
<text text-anchor="middle" x="556" y="-21" font-family="Helvetica,sans-Serif" font-size="10.00" fill="#000000">_secure</text>
</a>
</g>
</g>
<!-- Node4&#45;&gt;Node5 -->
<g id="edge4" class="edge">
<title>Node4&#45;&gt;Node5</title>
<path fill="none" stroke="#191970" d="M474.9286,-40.4952C484.1023,-39.1945 493.6445,-37.8415 502.8246,-36.5398"/>
<polygon fill="#191970" stroke="#191970" points="474.1764,-37.0668 464.7669,-41.936 475.1592,-43.9974 474.1764,-37.0668"/>
</g>
<!-- Node6&#45;&gt;Node5 -->
<g id="edge6" class="edge">
<title>Node6&#45;&gt;Node5</title>
<path fill="none" stroke="#191970" d="M477.44,-17.8609C485.8303,-19.0506 494.47,-20.2756 502.8111,-21.4583"/>
<polygon fill="#191970" stroke="#191970" points="477.7586,-14.3711 467.3663,-16.4325 476.7759,-21.3018 477.7586,-14.3711"/>
</g>
</g>
</svg>
