<?xml version="1.0" encoding="UTF-8" standalone="no"?>
<!DOCTYPE svg PUBLIC "-//W3C//DTD SVG 1.1//EN"
 "http://www.w3.org/Graphics/SVG/1.1/DTD/svg11.dtd">
<!-- Generated by graphviz version 2.40.1 (20161225.0304)
 -->
<!-- Title: utlist.h Pages: 1 -->
<svg width="648pt" height="84pt"
 viewBox="0.00 0.00 647.50 84.00" xmlns="http://www.w3.org/2000/svg" xmlns:xlink="http://www.w3.org/1999/xlink">
<g id="graph0" class="graph" transform="scale(1 1) rotate(0) translate(4 80)">
<title>utlist.h</title>
<polygon fill="#ffffff" stroke="transparent" points="-4,4 -4,-80 643.5,-80 643.5,4 -4,4"/>
<!-- Node2 -->
<g id="node1" class="node">
<title>Node2</title>
<polygon fill="#bfbfbf" stroke="#000000" points="322.5,-56.5 322.5,-75.5 368.5,-75.5 368.5,-56.5 322.5,-56.5"/>
<text text-anchor="middle" x="345.5" y="-63.5" font-family="Helvetica,sans-Serif" font-size="10.00" fill="#000000">utlist.h</text>
</g>
<!-- Node3 -->
<g id="node2" class="node">
<title>Node3</title>
<g id="a_node2"><a xlink:href="async_8c.html" target="_top" xlink:title="state management for asynchronous messages ">
<polygon fill="#ffffff" stroke="#000000" points="0,-.5 0,-19.5 51,-19.5 51,-.5 0,-.5"/>
<text text-anchor="middle" x="25.5" y="-7.5" font-family="Helvetica,sans-Serif" font-size="10.00" fill="#000000">async.c</text>
</a>
</g>
</g>
<!-- Node2&#45;&gt;Node3 -->
<g id="edge1" class="edge">
<title>Node2&#45;&gt;Node3</title>
<path fill="none" stroke="#191970" d="M312.3731,-62.057C258.8223,-55.3737 150.086,-40.5197 59.5,-20 56.7396,-19.3747 53.8735,-18.6513 51.0288,-17.8851"/>
<polygon fill="#191970" stroke="#191970" points="311.9726,-65.534 322.3257,-63.284 312.8291,-58.5866 311.9726,-65.534"/>
</g>
<!-- Node4 -->
<g id="node3" class="node">
<title>Node4</title>
<g id="a_node3"><a xlink:href="coap__dtls_8c.html" target="_top" xlink:title="coap_dtls.c">
<polygon fill="#ffffff" stroke="#000000" points="69,-.5 69,-19.5 136,-19.5 136,-.5 69,-.5"/>
<text text-anchor="middle" x="102.5" y="-7.5" font-family="Helvetica,sans-Serif" font-size="10.00" fill="#000000">coap_dtls.c</text>
</a>
</g>
</g>
<!-- Node2&#45;&gt;Node4 -->
<g id="edge2" class="edge">
<title>Node2&#45;&gt;Node4</title>
<path fill="none" stroke="#191970" d="M312.4867,-58.4328C272.8301,-49.3368 204.2909,-33.5971 145.5,-20 142.513,-19.3092 139.4097,-18.5901 136.2993,-17.8685"/>
<polygon fill="#191970" stroke="#191970" points="311.8691,-61.8819 322.3985,-60.7058 313.4339,-55.059 311.8691,-61.8819"/>
</g>
<!-- Node5 -->
<g id="node4" class="node">
<title>Node5</title>
<g id="a_node4"><a xlink:href="coap__dtls__gnutls_8c.html" target="_top" xlink:title="coap_dtls_gnutls.c">
<polygon fill="#ffffff" stroke="#000000" points="154.5,-.5 154.5,-19.5 252.5,-19.5 252.5,-.5 154.5,-.5"/>
<text text-anchor="middle" x="203.5" y="-7.5" font-family="Helvetica,sans-Serif" font-size="10.00" fill="#000000">coap_dtls_gnutls.c</text>
</a>
</g>
</g>
<!-- Node2&#45;&gt;Node5 -->
<g id="edge3" class="edge">
<title>Node2&#45;&gt;Node5</title>
<path fill="none" stroke="#191970" d="M312.9871,-53.178C287.143,-42.986 251.5489,-28.9489 228.0509,-19.682"/>
<polygon fill="#191970" stroke="#191970" points="311.7824,-56.4652 322.3692,-56.878 314.3505,-49.9533 311.7824,-56.4652"/>
</g>
<!-- Node6 -->
<g id="node5" class="node">
<title>Node6</title>
<g id="a_node5"><a xlink:href="coap__io_8c.html" target="_top" xlink:title="coap_io.c">
<polygon fill="#ffffff" stroke="#000000" points="271,-.5 271,-19.5 330,-19.5 330,-.5 271,-.5"/>
<text text-anchor="middle" x="300.5" y="-7.5" font-family="Helvetica,sans-Serif" font-size="10.00" fill="#000000">coap_io.c</text>
</a>
</g>
</g>
<!-- Node2&#45;&gt;Node6 -->
<g id="edge4" class="edge">
<title>Node2&#45;&gt;Node6</title>
<path fill="none" stroke="#191970" d="M331.2054,-48.2112C323.6004,-38.7472 314.5462,-27.4797 308.2486,-19.6427"/>
<polygon fill="#191970" stroke="#191970" points="328.6694,-50.6428 337.6616,-56.2455 334.1259,-46.2581 328.6694,-50.6428"/>
</g>
<!-- Node7 -->
<g id="node6" class="node">
<title>Node7</title>
<g id="a_node6"><a xlink:href="coap__session_8c.html" target="_top" xlink:title="coap_session.c">
<polygon fill="#ffffff" stroke="#000000" points="348,-.5 348,-19.5 433,-19.5 433,-.5 348,-.5"/>
<text text-anchor="middle" x="390.5" y="-7.5" font-family="Helvetica,sans-Serif" font-size="10.00" fill="#000000">coap_session.c</text>
</a>
</g>
</g>
<!-- Node2&#45;&gt;Node7 -->
<g id="edge5" class="edge">
<title>Node2&#45;&gt;Node7</title>
<path fill="none" stroke="#191970" d="M359.7946,-48.2112C367.3996,-38.7472 376.4538,-27.4797 382.7514,-19.6427"/>
<polygon fill="#191970" stroke="#191970" points="356.8741,-46.2581 353.3384,-56.2455 362.3306,-50.6428 356.8741,-46.2581"/>
</g>
<!-- Node8 -->
<g id="node7" class="node">
<title>Node8</title>
<g id="a_node7"><a xlink:href="net_8c.html" target="_top" xlink:title="net.c">
<polygon fill="#ffffff" stroke="#000000" points="451.5,-.5 451.5,-19.5 489.5,-19.5 489.5,-.5 451.5,-.5"/>
<text text-anchor="middle" x="470.5" y="-7.5" font-family="Helvetica,sans-Serif" font-size="10.00" fill="#000000">net.c</text>
</a>
</g>
</g>
<!-- Node2&#45;&gt;Node8 -->
<g id="edge6" class="edge">
<title>Node2&#45;&gt;Node8</title>
<path fill="none" stroke="#191970" d="M376.1796,-52.2555C399.669,-41.7323 431.3364,-27.5453 451.3387,-18.5843"/>
<polygon fill="#191970" stroke="#191970" points="374.6833,-49.0906 366.9883,-56.3733 377.5453,-55.4788 374.6833,-49.0906"/>
</g>
<!-- Node9 -->
<g id="node8" class="node">
<title>Node9</title>
<g id="a_node8"><a xlink:href="option_8c.html" target="_top" xlink:title="option.c">
<polygon fill="#ffffff" stroke="#000000" points="508,-.5 508,-19.5 559,-19.5 559,-.5 508,-.5"/>
<text text-anchor="middle" x="533.5" y="-7.5" font-family="Helvetica,sans-Serif" font-size="10.00" fill="#000000">option.c</text>
</a>
</g>
</g>
<!-- Node2&#45;&gt;Node9 -->
<g id="edge7" class="edge">
<title>Node2&#45;&gt;Node9</title>
<path fill="none" stroke="#191970" d="M378.3202,-56.2238C415.1771,-45.2451 474.2201,-27.6578 507.8518,-17.6399"/>
<polygon fill="#191970" stroke="#191970" points="377.1372,-52.9241 368.5525,-59.1333 379.1355,-59.6328 377.1372,-52.9241"/>
</g>
<!-- Node10 -->
<g id="node9" class="node">
<title>Node10</title>
<g id="a_node9"><a xlink:href="resource_8c.html" target="_top" xlink:title="resource.c">
<polygon fill="#ffffff" stroke="#000000" points="577.5,-.5 577.5,-19.5 639.5,-19.5 639.5,-.5 577.5,-.5"/>
<text text-anchor="middle" x="608.5" y="-7.5" font-family="Helvetica,sans-Serif" font-size="10.00" fill="#000000">resource.c</text>
</a>
</g>
</g>
<!-- Node2&#45;&gt;Node10 -->
<g id="edge8" class="edge">
<title>Node2&#45;&gt;Node10</title>
<path fill="none" stroke="#191970" d="M378.734,-59.5925C422.3899,-51.0732 501.3841,-35.3048 568.5,-20 571.2916,-19.3634 574.1874,-18.6816 577.0867,-17.9843"/>
<polygon fill="#191970" stroke="#191970" points="377.8303,-56.2026 368.6826,-61.5476 379.1669,-63.0738 377.8303,-56.2026"/>
</g>
</g>
</svg>
