<?xml version="1.0" encoding="UTF-8" standalone="no"?>
<!DOCTYPE svg PUBLIC "-//W3C//DTD SVG 1.1//EN"
 "http://www.w3.org/Graphics/SVG/1.1/DTD/svg11.dtd">
<!-- Generated by graphviz version 2.43.0 (0)
 -->
<!-- Title: Libcoap Internal API Pages: 1 -->
<!--zoomable 656 -->
<svg id="main" version="1.1" xmlns="http://www.w3.org/2000/svg" xmlns:xlink="http://www.w3.org/1999/xlink" xml:space="preserve" onload="init(evt)">
<style type="text/css"><![CDATA[
.edge:hover path { stroke: red; }
.edge:hover polygon { stroke: red; fill: red; }
]]></style>
<script type="text/javascript"><![CDATA[
var edges = document.getElementsByTagName('g');
if (edges && edges.length) {
  for (var i=0;i<edges.length;i++) {
    if (edges[i].id.substr(0,4)=='edge') {
      edges[i].setAttribute('class','edge');
    }
  }
}
]]></script>
        <defs>
                <circle id="rim" cx="0" cy="0" r="7"/>
                <circle id="rim2" cx="0" cy="0" r="3.5"/>
                <g id="zoomPlus">
                        <use xlink:href="#rim" fill="#404040">
                                <set attributeName="fill" to="#808080" begin="zoomplus.mouseover" end="zoomplus.mouseout"/>
                        </use>
                        <path d="M-4,0h8M0,-4v8" fill="none" stroke="white" stroke-width="1.5" pointer-events="none"/>
                </g>
                <g id="zoomMin">
                        <use xlink:href="#rim" fill="#404040">
                                <set attributeName="fill" to="#808080" begin="zoomminus.mouseover" end="zoomminus.mouseout"/>
                        </use>
                        <path d="M-4,0h8" fill="none" stroke="white" stroke-width="1.5" pointer-events="none"/>
                </g>
                <g id="dirArrow">
                        <path fill="none" stroke="white" stroke-width="1.5" d="M0,-3.0v7 M-2.5,-0.5L0,-3.0L2.5,-0.5"/>
                </g>
               <g id="resetDef">
                       <use xlink:href="#rim2" fill="#404040">
                               <set attributeName="fill" to="#808080" begin="reset.mouseover" end="reset.mouseout"/>
                       </use>
               </g>
        </defs>

<script type="text/javascript">
var viewWidth = 291;
var viewHeight = 656;
var sectionId = 'dynsection-0';
</script>
<script xlink:href="svgpan.js"/>
<svg id="graph" class="graph">
<g id="viewport">
<title>Libcoap Internal API</title>
<polygon fill="white" stroke="transparent" points="-4,4 -4,-652 287,-652 287,4 -4,4"/>
<!-- Node3 -->
<g id="node1" class="node">
<title>Node3</title>
<g id="a_node1"><a xlink:href="group__app__io__internal.html" target="_top" xlink:title="Internal API for Application Input / Output checking.">
<polygon fill="white" stroke="black" points="283,-648 149,-648 149,-629 283,-629 283,-648"/>
<text text-anchor="middle" x="216" y="-636" font-family="Helvetica,sans-Serif" font-size="10.00">Application I/O Handling</text>
</a>
</g>
</g>
<!-- Node2 -->
<g id="node2" class="node">
<title>Node2</title>
<g id="a_node2"><a xlink:href="group__asn1.html" target="_top" xlink:title="Internal API for CoAP ASN.1 handling.">
<polygon fill="white" stroke="black" points="259,-611 173,-611 173,-592 259,-592 259,-611"/>
<text text-anchor="middle" x="216" y="-599" font-family="Helvetica,sans-Serif" font-size="10.00">ASN.1 Support</text>
</a>
</g>
</g>
<!-- Node4 -->
<g id="node3" class="node">
<title>Node4</title>
<g id="a_node3"><a xlink:href="group__block__internal.html" target="_top" xlink:title="Internal API for Block Transfer (RC7959)">
<polygon fill="white" stroke="black" points="259,-574 173,-574 173,-555 259,-555 259,-574"/>
<text text-anchor="middle" x="216" y="-562" font-family="Helvetica,sans-Serif" font-size="10.00">Block Transfer</text>
</a>
</g>
</g>
<!-- Node5 -->
<g id="node4" class="node">
<title>Node5</title>
<g id="a_node4"><a xlink:href="group__cache__internal.html" target="_top" xlink:title="Internal API for Cache&#45;Key and Cache&#45;Entry support.">
<polygon fill="white" stroke="black" points="259.5,-537 172.5,-537 172.5,-518 259.5,-518 259.5,-537"/>
<text text-anchor="middle" x="216" y="-525" font-family="Helvetica,sans-Serif" font-size="10.00">Cache Support</text>
</a>
</g>
</g>
<!-- Node15 -->
<g id="node5" class="node">
<title>Node15</title>
<g id="a_node5"><a xlink:href="group__coap__resource__internal.html" target="_top" xlink:title="Internal API for handling resources.">
<polygon fill="white" stroke="black" points="249.5,-500 182.5,-500 182.5,-481 249.5,-481 249.5,-500"/>
<text text-anchor="middle" x="216" y="-488" font-family="Helvetica,sans-Serif" font-size="10.00">Resources</text>
</a>
</g>
</g>
<!-- Node6 -->
<g id="node6" class="node">
<title>Node6</title>
<g id="a_node6"><a xlink:href="group__context__internal.html" target="_top" xlink:title="Internal API for Context Handling.">
<polygon fill="white" stroke="black" points="266.5,-463 165.5,-463 165.5,-444 266.5,-444 266.5,-463"/>
<text text-anchor="middle" x="216" y="-451" font-family="Helvetica,sans-Serif" font-size="10.00">Context Handling</text>
</a>
</g>
</g>
<!-- Node11 -->
<g id="node7" class="node">
<title>Node11</title>
<g id="a_node7"><a xlink:href="group__crypto__internal.html" target="_top" xlink:title="Internal API for interfacing with Crypto libraries.">
<polygon fill="white" stroke="black" points="282.5,-426 149.5,-426 149.5,-407 282.5,-407 282.5,-426"/>
<text text-anchor="middle" x="216" y="-414" font-family="Helvetica,sans-Serif" font-size="10.00">OSCORE Crypto Support</text>
</a>
</g>
</g>
<!-- Node7 -->
<g id="node8" class="node">
<title>Node7</title>
<g id="a_node8"><a xlink:href="group__dtls__internal.html" target="_top" xlink:title="Internal API for DTLS Support.">
<polygon fill="white" stroke="black" points="257,-389 175,-389 175,-370 257,-370 257,-389"/>
<text text-anchor="middle" x="216" y="-377" font-family="Helvetica,sans-Serif" font-size="10.00">DTLS Support</text>
</a>
</g>
</g>
<!-- Node1 -->
<g id="node9" class="node">
<title>Node1</title>
<g id="a_node9"><a xlink:title="libcoap Internal API Structures, Macros, Typedefs, Enums and Functions">
<polygon fill="#bfbfbf" stroke="black" points="113,-333 0,-333 0,-314 113,-314 113,-333"/>
<text text-anchor="middle" x="56.5" y="-321" font-family="Helvetica,sans-Serif" font-size="10.00">Libcoap Internal API</text>
</a>
</g>
</g>
<!-- Node1&#45;&gt;Node3 -->
<g id="edge2" class="edge">
<title>Node1&#45;&gt;Node3</title>
<path fill="none" stroke="black" d="M57.45,-343.22C58.43,-396.17 68.64,-542.72 149,-620.5 152.5,-623.89 156.57,-626.65 160.94,-628.9"/>
<polygon fill="black" stroke="black" points="60.95,-343.11 57.36,-333.14 53.95,-343.17 60.95,-343.11"/>
</g>
<!-- Node1&#45;&gt;Node2 -->
<g id="edge1" class="edge">
<title>Node1&#45;&gt;Node2</title>
<path fill="none" stroke="black" d="M58.46,-343.33C61.91,-391.79 77.64,-517.11 149,-583.5 155.61,-589.65 164.11,-593.73 172.8,-596.44"/>
<polygon fill="black" stroke="black" points="61.95,-342.99 57.85,-333.22 54.96,-343.42 61.95,-342.99"/>
</g>
<!-- Node1&#45;&gt;Node4 -->
<g id="edge3" class="edge">
<title>Node1&#45;&gt;Node4</title>
<path fill="none" stroke="black" d="M59.79,-343.41C65.88,-386.98 86.54,-491.29 149,-546.5 155.67,-552.4 164.1,-556.39 172.68,-559.08"/>
<polygon fill="black" stroke="black" points="63.23,-342.73 58.49,-333.26 56.29,-343.63 63.23,-342.73"/>
</g>
<!-- Node1&#45;&gt;Node5 -->
<g id="edge4" class="edge">
<title>Node1&#45;&gt;Node5</title>
<path fill="none" stroke="black" d="M61.54,-343.21C70.41,-381.28 95.19,-465.09 149,-509.5 155.69,-515.02 163.93,-518.85 172.29,-521.52"/>
<polygon fill="black" stroke="black" points="64.94,-342.36 59.37,-333.35 58.11,-343.87 64.94,-342.36"/>
</g>
<!-- Node1&#45;&gt;Node15 -->
<g id="edge14" class="edge">
<title>Node1&#45;&gt;Node15</title>
<path fill="none" stroke="black" d="M63.98,-342.78C75.73,-374.73 103.61,-438.48 149,-472.5 158.6,-479.69 170.9,-484.01 182.27,-486.61"/>
<polygon fill="black" stroke="black" points="67.25,-341.52 60.62,-333.26 60.65,-343.85 67.25,-341.52"/>
</g>
<!-- Node1&#45;&gt;Node6 -->
<g id="edge5" class="edge">
<title>Node1&#45;&gt;Node6</title>
<path fill="none" stroke="black" d="M67.72,-342.18C82.4,-367.24 111.82,-411.35 149,-435.5 154.28,-438.93 160.2,-441.71 166.27,-443.96"/>
<polygon fill="black" stroke="black" points="70.66,-340.27 62.67,-333.31 64.58,-343.73 70.66,-340.27"/>
</g>
<!-- Node1&#45;&gt;Node11 -->
<g id="edge10" class="edge">
<title>Node1&#45;&gt;Node11</title>
<path fill="none" stroke="black" d="M73.9,-340.65C91.1,-357.67 119.67,-383.36 149,-398.5 155.54,-401.88 162.79,-404.67 170.01,-406.97"/>
<polygon fill="black" stroke="black" points="75.94,-337.73 66.42,-333.07 70.96,-342.64 75.94,-337.73"/>
</g>
<!-- Node1&#45;&gt;Node7 -->
<g id="edge6" class="edge">
<title>Node1&#45;&gt;Node7</title>
<path fill="none" stroke="black" d="M87.52,-337.1C105.21,-344.83 128.13,-354.35 149,-361.5 157.88,-364.54 167.56,-367.42 176.71,-369.94"/>
<polygon fill="black" stroke="black" points="88.85,-333.86 78.29,-333.02 86.02,-340.27 88.85,-333.86"/>
</g>
<!-- Node8 -->
<g id="node10" class="node">
<title>Node8</title>
<g id="a_node10"><a xlink:href="group__netif__internal.html" target="_top" xlink:title="Internal API for Netif Support.">
<polygon fill="white" stroke="black" points="256.5,-352 175.5,-352 175.5,-333 256.5,-333 256.5,-352"/>
<text text-anchor="middle" x="216" y="-340" font-family="Helvetica,sans-Serif" font-size="10.00">Netif Support</text>
</a>
</g>
</g>
<!-- Node1&#45;&gt;Node8 -->
<g id="edge7" class="edge">
<title>Node1&#45;&gt;Node8</title>
<path fill="none" stroke="black" d="M123.3,-331.44C140.97,-333.57 159.53,-335.81 175.3,-337.71"/>
<polygon fill="black" stroke="black" points="123.38,-327.92 113.03,-330.2 122.54,-334.87 123.38,-327.92"/>
</g>
<!-- Node9 -->
<g id="node11" class="node">
<title>Node9</title>
<g id="a_node11"><a xlink:href="group__oscore__cbor__internal.html" target="_top" xlink:title="Internal API for interfacing with OSCORE CBOR.">
<polygon fill="white" stroke="black" points="280,-315 152,-315 152,-296 280,-296 280,-315"/>
<text text-anchor="middle" x="216" y="-303" font-family="Helvetica,sans-Serif" font-size="10.00">OSCORE CBOR Support</text>
</a>
</g>
</g>
<!-- Node1&#45;&gt;Node9 -->
<g id="edge8" class="edge">
<title>Node1&#45;&gt;Node9</title>
<path fill="none" stroke="black" d="M123.21,-315.99C132.71,-314.91 142.47,-313.79 151.91,-312.71"/>
<polygon fill="black" stroke="black" points="122.57,-312.54 113.03,-317.15 123.36,-319.5 122.57,-312.54"/>
</g>
<!-- Node10 -->
<g id="node12" class="node">
<title>Node10</title>
<g id="a_node12"><a xlink:href="group__oscore__cose__internal.html" target="_top" xlink:title="Internal API for interfacing with OSCORE COSE.">
<polygon fill="white" stroke="black" points="279.5,-278 152.5,-278 152.5,-259 279.5,-259 279.5,-278"/>
<text text-anchor="middle" x="216" y="-266" font-family="Helvetica,sans-Serif" font-size="10.00">OSCORE COSE Support</text>
</a>
</g>
</g>
<!-- Node1&#45;&gt;Node10 -->
<g id="edge9" class="edge">
<title>Node1&#45;&gt;Node10</title>
<path fill="none" stroke="black" d="M89.88,-309.9C107.26,-302.81 129.14,-294.25 149,-287.5 158.82,-284.16 169.59,-280.9 179.53,-278.04"/>
<polygon fill="black" stroke="black" points="88.13,-306.83 80.22,-313.87 90.8,-313.3 88.13,-306.83"/>
</g>
<!-- Node12 -->
<g id="node13" class="node">
<title>Node12</title>
<g id="a_node13"><a xlink:href="group__oscore__internal.html" target="_top" xlink:title="Internal API for interfacing with OSCORE (RFC8613)">
<polygon fill="white" stroke="black" points="265,-241 167,-241 167,-222 265,-222 265,-241"/>
<text text-anchor="middle" x="216" y="-229" font-family="Helvetica,sans-Serif" font-size="10.00">OSCORE Support</text>
</a>
</g>
</g>
<!-- Node1&#45;&gt;Node12 -->
<g id="edge11" class="edge">
<title>Node1&#45;&gt;Node12</title>
<path fill="none" stroke="black" d="M74.88,-306.12C92.26,-289.63 120.45,-265.25 149,-250.5 156.31,-246.72 164.47,-243.6 172.5,-241.06"/>
<polygon fill="black" stroke="black" points="72.01,-304.03 67.26,-313.5 76.88,-309.05 72.01,-304.03"/>
</g>
<!-- Node14 -->
<g id="node14" class="node">
<title>Node14</title>
<g id="a_node14"><a xlink:href="group__pdu__internal.html" target="_top" xlink:title="Internal API for PDUs.">
<polygon fill="white" stroke="black" points="235,-204 197,-204 197,-185 235,-185 235,-204"/>
<text text-anchor="middle" x="216" y="-192" font-family="Helvetica,sans-Serif" font-size="10.00">PDU</text>
</a>
</g>
</g>
<!-- Node1&#45;&gt;Node14 -->
<g id="edge13" class="edge">
<title>Node1&#45;&gt;Node14</title>
<path fill="none" stroke="black" d="M67.86,-305.23C82.69,-280.71 112.28,-237.49 149,-213.5 163.57,-203.98 182.99,-199.14 196.99,-196.74"/>
<polygon fill="black" stroke="black" points="64.8,-303.52 62.75,-313.91 70.83,-307.07 64.8,-303.52"/>
</g>
<!-- Node16 -->
<g id="node15" class="node">
<title>Node16</title>
<g id="a_node15"><a xlink:href="group__session__internal.html" target="_top" xlink:title="Internal API for handling Sessions.">
<polygon fill="white" stroke="black" points="245.5,-167 186.5,-167 186.5,-148 245.5,-148 245.5,-167"/>
<text text-anchor="middle" x="216" y="-155" font-family="Helvetica,sans-Serif" font-size="10.00">Sessions</text>
</a>
</g>
</g>
<!-- Node1&#45;&gt;Node16 -->
<g id="edge15" class="edge">
<title>Node1&#45;&gt;Node16</title>
<path fill="none" stroke="black" d="M64.26,-304.13C76.28,-272.58 104.38,-210.22 149,-176.5 159.75,-168.38 173.87,-163.72 186.29,-161.06"/>
<polygon fill="black" stroke="black" points="60.84,-303.32 60.68,-313.91 67.41,-305.72 60.84,-303.32"/>
</g>
<!-- Node13 -->
<g id="node16" class="node">
<title>Node13</title>
<g id="a_node16"><a xlink:href="group__subscribe__internal.html" target="_top" xlink:title="Internal API for handling CoAP Observe Subscriptions (RFC7641)">
<polygon fill="white" stroke="black" points="276,-130 156,-130 156,-111 276,-111 276,-130"/>
<text text-anchor="middle" x="216" y="-118" font-family="Helvetica,sans-Serif" font-size="10.00">Observe Subscription</text>
</a>
</g>
</g>
<!-- Node1&#45;&gt;Node13 -->
<g id="edge12" class="edge">
<title>Node1&#45;&gt;Node13</title>
<path fill="none" stroke="black" d="M61.78,-303.58C70.95,-265.81 96.1,-183.59 149,-139.5 153.67,-135.61 159.1,-132.51 164.8,-130.05"/>
<polygon fill="black" stroke="black" points="58.27,-303.26 59.44,-313.79 65.09,-304.83 58.27,-303.26"/>
</g>
<!-- Node17 -->
<g id="node17" class="node">
<title>Node17</title>
<g id="a_node17"><a xlink:href="group__tcp.html" target="_top" xlink:title="Internal API for handling CoAP TCP (RFC8323)">
<polygon fill="white" stroke="black" points="253.5,-93 178.5,-93 178.5,-74 253.5,-74 253.5,-93"/>
<text text-anchor="middle" x="216" y="-81" font-family="Helvetica,sans-Serif" font-size="10.00">TCP Support</text>
</a>
</g>
</g>
<!-- Node1&#45;&gt;Node17 -->
<g id="edge16" class="edge">
<title>Node1&#45;&gt;Node17</title>
<path fill="none" stroke="black" d="M59.91,-303.83C66.23,-260.77 87.32,-157.62 149,-102.5 157.09,-95.27 167.77,-90.78 178.17,-87.99"/>
<polygon fill="black" stroke="black" points="56.42,-303.48 58.55,-313.86 63.36,-304.42 56.42,-303.48"/>
</g>
<!-- Node18 -->
<g id="node18" class="node">
<title>Node18</title>
<g id="a_node18"><a xlink:href="group__uri.html" target="_top" xlink:title="Internal API for handling CoAP URIs.">
<polygon fill="white" stroke="black" points="253,-56 179,-56 179,-37 253,-37 253,-56"/>
<text text-anchor="middle" x="216" y="-44" font-family="Helvetica,sans-Serif" font-size="10.00">URI Support</text>
</a>
</g>
</g>
<!-- Node1&#45;&gt;Node18 -->
<g id="edge17" class="edge">
<title>Node1&#45;&gt;Node18</title>
<path fill="none" stroke="black" d="M58.57,-303.88C62.27,-255.93 78.52,-131.84 149,-65.5 157.16,-57.82 168.23,-53.22 178.97,-50.47"/>
<polygon fill="black" stroke="black" points="55.08,-303.67 57.9,-313.88 62.06,-304.14 55.08,-303.67"/>
</g>
<!-- Node19 -->
<g id="node19" class="node">
<title>Node19</title>
<g id="a_node19"><a xlink:href="group__ws__internal.html" target="_top" xlink:title="Internal API for WebSockets Support (RFC8323)">
<polygon fill="white" stroke="black" points="274,-19 158,-19 158,0 274,0 274,-19"/>
<text text-anchor="middle" x="216" y="-7" font-family="Helvetica,sans-Serif" font-size="10.00">WebSockets Support</text>
</a>
</g>
</g>
<!-- Node1&#45;&gt;Node19 -->
<g id="edge18" class="edge">
<title>Node1&#45;&gt;Node19</title>
<path fill="none" stroke="black" d="M57.56,-303.64C58.84,-250.91 69.77,-106.13 149,-28.5 152.92,-24.66 157.56,-21.59 162.54,-19.13"/>
<polygon fill="black" stroke="black" points="54.06,-303.91 57.41,-313.96 61.06,-304.01 54.06,-303.91"/>
</g>
</g>
</svg>
        <g id="navigator" transform="translate(0 0)" fill="#404254">
                <rect fill="#f2f5e9" fill-opacity="0.5" stroke="#606060" stroke-width=".5" x="0" y="0" width="60" height="60"/>
                <use id="zoomplus" xlink:href="#zoomPlus" x="17" y="9" onmousedown="handleZoom(evt,'in')"/>
                <use id="zoomminus" xlink:href="#zoomMin" x="42" y="9" onmousedown="handleZoom(evt,'out')"/>
                <use id="reset" xlink:href="#resetDef" x="30" y="36" onmousedown="handleReset()"/>
                <g id="arrowUp" xlink:href="#dirArrow" transform="translate(30 24)" onmousedown="handlePan(0,-1)">
                  <use xlink:href="#rim" fill="#404040">
                        <set attributeName="fill" to="#808080" begin="arrowUp.mouseover" end="arrowUp.mouseout"/>
                  </use>
                  <path fill="none" stroke="white" stroke-width="1.5" d="M0,-3.0v7 M-2.5,-0.5L0,-3.0L2.5,-0.5"/>
                </g>
                <g id="arrowRight" xlink:href="#dirArrow" transform="rotate(90) translate(36 -43)" onmousedown="handlePan(1,0)">
                  <use xlink:href="#rim" fill="#404040">
                        <set attributeName="fill" to="#808080" begin="arrowRight.mouseover" end="arrowRight.mouseout"/>
                  </use>
                  <path fill="none" stroke="white" stroke-width="1.5" d="M0,-3.0v7 M-2.5,-0.5L0,-3.0L2.5,-0.5"/>
                </g>
                <g id="arrowDown" xlink:href="#dirArrow" transform="rotate(180) translate(-30 -48)" onmousedown="handlePan(0,1)">
                  <use xlink:href="#rim" fill="#404040">
                        <set attributeName="fill" to="#808080" begin="arrowDown.mouseover" end="arrowDown.mouseout"/>
                  </use>
                  <path fill="none" stroke="white" stroke-width="1.5" d="M0,-3.0v7 M-2.5,-0.5L0,-3.0L2.5,-0.5"/>
                </g>
                <g id="arrowLeft" xlink:href="#dirArrow" transform="rotate(270) translate(-36 17)" onmousedown="handlePan(-1,0)">
                  <use xlink:href="#rim" fill="#404040">
                        <set attributeName="fill" to="#808080" begin="arrowLeft.mouseover" end="arrowLeft.mouseout"/>
                  </use>
                  <path fill="none" stroke="white" stroke-width="1.5" d="M0,-3.0v7 M-2.5,-0.5L0,-3.0L2.5,-0.5"/>
                </g>
        </g>
        <svg viewBox="0 0 15 15" width="100%" height="30px" preserveAspectRatio="xMaxYMin meet">
         <g id="arrow_out" transform="scale(0.3 0.3)">
          <a xlink:href="group__internal__api_org.svg" target="_base">
           <rect id="button" ry="5" rx="5" y="6" x="6" height="38" width="38"
                fill="#f2f5e9" fill-opacity="0.5" stroke="#606060" stroke-width="1.0"/>
           <path id="arrow"
             d="M 11.500037,31.436501 C 11.940474,20.09759 22.043105,11.32322 32.158766,21.979434 L 37.068811,17.246167 C 37.068811,17.246167 37.088388,32 37.088388,32 L 22.160133,31.978069 C 22.160133,31.978069 26.997745,27.140456 26.997745,27.140456 C 18.528582,18.264221 13.291696,25.230495 11.500037,31.436501 z"
             style="fill:#404040;"/>
          </a>
         </g>
        </svg>
</svg>
