<?xml version="1.0" encoding="UTF-8" standalone="no"?>
<!DOCTYPE svg PUBLIC "-//W3C//DTD SVG 1.1//EN"
 "http://www.w3.org/Graphics/SVG/1.1/DTD/svg11.dtd">
<!-- Generated by graphviz version 2.43.0 (0)
 -->
<!-- Title: coap_netif_strm_write Pages: 1 -->
<svg width="595pt" height="202pt"
 viewBox="0.00 0.00 595.00 202.00" xmlns="http://www.w3.org/2000/svg" xmlns:xlink="http://www.w3.org/1999/xlink">
<g id="graph0" class="graph" transform="scale(1 1) rotate(0) translate(4 198)">
<title>coap_netif_strm_write</title>
<polygon fill="white" stroke="transparent" points="-4,4 -4,-198 591,-198 591,4 -4,4"/>
<!-- Node1 -->
<g id="node1" class="node">
<title>Node1</title>
<g id="a_node1"><a xlink:title="Function interface for netif stream data transmission.">
<polygon fill="#bfbfbf" stroke="black" points="0,-57.5 0,-76.5 125,-76.5 125,-57.5 0,-57.5"/>
<text text-anchor="middle" x="62.5" y="-64.5" font-family="Helvetica,sans-Serif" font-size="10.00">coap_netif_strm_write</text>
</a>
</g>
</g>
<!-- Node2 -->
<g id="node2" class="node">
<title>Node2</title>
<g id="a_node2"><a xlink:href="group__logging.html#gabf09c67f27059ca278900e7e8fdd475e" target="_top" xlink:title="Get session description.">
<polygon fill="white" stroke="black" points="164.5,-114.5 164.5,-133.5 264.5,-133.5 264.5,-114.5 164.5,-114.5"/>
<text text-anchor="middle" x="214.5" y="-121.5" font-family="Helvetica,sans-Serif" font-size="10.00">coap_session_str</text>
</a>
</g>
</g>
<!-- Node1&#45;&gt;Node2 -->
<g id="edge1" class="edge">
<title>Node1&#45;&gt;Node2</title>
<path fill="none" stroke="midnightblue" d="M88.61,-76.54C113.27,-85.91 151.1,-100.29 178.66,-110.76"/>
<polygon fill="midnightblue" stroke="midnightblue" points="177.72,-114.15 188.31,-114.43 180.21,-107.6 177.72,-114.15"/>
</g>
<!-- Node7 -->
<g id="node7" class="node">
<title>Node7</title>
<g id="a_node7"><a xlink:href="coap__io_8c.html#a3d4397c1a2ce78e64c19fdcd25256737" target="_top" xlink:title=" ">
<polygon fill="white" stroke="black" points="304,-76.5 304,-95.5 422,-95.5 422,-76.5 304,-76.5"/>
<text text-anchor="middle" x="363" y="-83.5" font-family="Helvetica,sans-Serif" font-size="10.00">coap_socket_strerror</text>
</a>
</g>
</g>
<!-- Node1&#45;&gt;Node7 -->
<g id="edge6" class="edge">
<title>Node1&#45;&gt;Node7</title>
<path fill="none" stroke="midnightblue" d="M125.35,-70.94C174.4,-74.06 242.88,-78.42 293.57,-81.64"/>
<polygon fill="midnightblue" stroke="midnightblue" points="293.58,-85.15 303.78,-82.29 294.02,-78.17 293.58,-85.15"/>
</g>
<!-- Node9 -->
<g id="node9" class="node">
<title>Node9</title>
<g id="a_node9"><a xlink:href="coap__io_8c.html#a53d8fd138fc5bf331c2bf71d72ac4848" target="_top" xlink:title="Function interface for data stream sending off a socket.">
<polygon fill="white" stroke="black" points="161,-38.5 161,-57.5 268,-57.5 268,-38.5 161,-38.5"/>
<text text-anchor="middle" x="214.5" y="-45.5" font-family="Helvetica,sans-Serif" font-size="10.00">coap_socket_write</text>
</a>
</g>
</g>
<!-- Node1&#45;&gt;Node9 -->
<g id="edge8" class="edge">
<title>Node1&#45;&gt;Node9</title>
<path fill="none" stroke="midnightblue" d="M125.38,-59.16C133.75,-58.1 142.36,-57.01 150.75,-55.95"/>
<polygon fill="midnightblue" stroke="midnightblue" points="151.37,-59.4 160.85,-54.67 150.49,-52.45 151.37,-59.4"/>
</g>
<!-- Node11 -->
<g id="node11" class="node">
<title>Node11</title>
<g id="a_node11"><a xlink:href="group__context.html#ga757eecd5cda6e32472313df73a9297fd" target="_top" xlink:title="Returns the current value of an internal tick counter.">
<polygon fill="white" stroke="black" points="180.5,-0.5 180.5,-19.5 248.5,-19.5 248.5,-0.5 180.5,-0.5"/>
<text text-anchor="middle" x="214.5" y="-7.5" font-family="Helvetica,sans-Serif" font-size="10.00">coap_ticks</text>
</a>
</g>
</g>
<!-- Node1&#45;&gt;Node11 -->
<g id="edge11" class="edge">
<title>Node1&#45;&gt;Node11</title>
<path fill="none" stroke="midnightblue" d="M87.48,-57.47C107.18,-49.68 135.83,-38.46 161,-29 166.22,-27.04 171.74,-25 177.17,-23.02"/>
<polygon fill="midnightblue" stroke="midnightblue" points="178.54,-26.24 186.75,-19.54 176.15,-19.66 178.54,-26.24"/>
</g>
<!-- Node3 -->
<g id="node3" class="node">
<title>Node3</title>
<g id="a_node3"><a xlink:href="group__logging.html#ga9e421197c17712bedbec55e42b4493fc" target="_top" xlink:title="Print the address into the defined buffer.">
<polygon fill="white" stroke="black" points="315.5,-152.5 315.5,-171.5 410.5,-171.5 410.5,-152.5 315.5,-152.5"/>
<text text-anchor="middle" x="363" y="-159.5" font-family="Helvetica,sans-Serif" font-size="10.00">coap_print_addr</text>
</a>
</g>
</g>
<!-- Node2&#45;&gt;Node3 -->
<g id="edge2" class="edge">
<title>Node2&#45;&gt;Node3</title>
<path fill="none" stroke="midnightblue" d="M252.47,-133.59C271.63,-138.56 295.21,-144.68 315.59,-149.96"/>
<polygon fill="midnightblue" stroke="midnightblue" points="314.74,-153.36 325.3,-152.48 316.5,-146.58 314.74,-153.36"/>
</g>
<!-- Node6 -->
<g id="node6" class="node">
<title>Node6</title>
<g id="a_node6"><a xlink:href="coap__session_8c.html#a3a2aa859a36db11e0c195174f907f116" target="_top" xlink:title=" ">
<polygon fill="white" stroke="black" points="311,-114.5 311,-133.5 415,-133.5 415,-114.5 311,-114.5"/>
<text text-anchor="middle" x="363" y="-121.5" font-family="Helvetica,sans-Serif" font-size="10.00">coap_proto_name</text>
</a>
</g>
</g>
<!-- Node2&#45;&gt;Node6 -->
<g id="edge5" class="edge">
<title>Node2&#45;&gt;Node6</title>
<path fill="none" stroke="midnightblue" d="M264.69,-124C276.31,-124 288.85,-124 300.93,-124"/>
<polygon fill="midnightblue" stroke="midnightblue" points="300.94,-127.5 310.94,-124 300.94,-120.5 300.94,-127.5"/>
</g>
<!-- Node4 -->
<g id="node4" class="node">
<title>Node4</title>
<g id="a_node4"><a xlink:href="coap__address_8c.html#a694f57c7af8d83ebd2fbb8cf9236749d" target="_top" xlink:title="Returns the port from addr in host byte order.">
<polygon fill="white" stroke="black" points="458,-174.5 458,-193.5 587,-193.5 587,-174.5 458,-174.5"/>
<text text-anchor="middle" x="522.5" y="-181.5" font-family="Helvetica,sans-Serif" font-size="10.00">coap_address_get_port</text>
</a>
</g>
</g>
<!-- Node3&#45;&gt;Node4 -->
<g id="edge3" class="edge">
<title>Node3&#45;&gt;Node4</title>
<path fill="none" stroke="midnightblue" d="M410.83,-168.54C422.49,-170.17 435.28,-171.96 447.89,-173.72"/>
<polygon fill="midnightblue" stroke="midnightblue" points="447.55,-177.2 457.94,-175.12 448.52,-170.27 447.55,-177.2"/>
</g>
<!-- Node5 -->
<g id="node5" class="node">
<title>Node5</title>
<g id="a_node5"><a xlink:href="group__logging.html#gace4fa18bde300fa06afd396a0a689031" target="_top" xlink:title="Print the IP address into the defined buffer.">
<polygon fill="white" stroke="black" points="468,-136.5 468,-155.5 577,-155.5 577,-136.5 468,-136.5"/>
<text text-anchor="middle" x="522.5" y="-143.5" font-family="Helvetica,sans-Serif" font-size="10.00">coap_print_ip_addr</text>
</a>
</g>
</g>
<!-- Node3&#45;&gt;Node5 -->
<g id="edge4" class="edge">
<title>Node3&#45;&gt;Node5</title>
<path fill="none" stroke="midnightblue" d="M410.83,-157.24C425.56,-155.75 442.08,-154.07 457.77,-152.47"/>
<polygon fill="midnightblue" stroke="midnightblue" points="458.34,-155.93 467.94,-151.44 457.64,-148.97 458.34,-155.93"/>
</g>
<!-- Node8 -->
<g id="node8" class="node">
<title>Node8</title>
<g id="a_node8"><a xlink:href="coap__io_8c.html#a198ae48fdbe1762be87328d3a5f5f4b2" target="_top" xlink:title=" ">
<polygon fill="white" stroke="black" points="465,-71 465,-101 580,-101 580,-71 465,-71"/>
<text text-anchor="start" x="473" y="-89" font-family="Helvetica,sans-Serif" font-size="10.00">coap_socket_format</text>
<text text-anchor="middle" x="522.5" y="-78" font-family="Helvetica,sans-Serif" font-size="10.00">_errno</text>
</a>
</g>
</g>
<!-- Node7&#45;&gt;Node8 -->
<g id="edge7" class="edge">
<title>Node7&#45;&gt;Node8</title>
<path fill="none" stroke="midnightblue" d="M422.2,-86C432.76,-86 443.85,-86 454.63,-86"/>
<polygon fill="midnightblue" stroke="midnightblue" points="454.85,-89.5 464.85,-86 454.85,-82.5 454.85,-89.5"/>
</g>
<!-- Node9&#45;&gt;Node7 -->
<g id="edge10" class="edge">
<title>Node9&#45;&gt;Node7</title>
<path fill="none" stroke="midnightblue" d="M252.47,-57.59C271.63,-62.56 295.21,-68.68 315.59,-73.96"/>
<polygon fill="midnightblue" stroke="midnightblue" points="314.74,-77.36 325.3,-76.48 316.5,-70.58 314.74,-77.36"/>
</g>
<!-- Node10 -->
<g id="node10" class="node">
<title>Node10</title>
<g id="a_node10"><a xlink:href="coap__io__internal_8h.html#ada1a4c92a688b7940a0ee02566157638" target="_top" xlink:title="Epoll specific function to modify the state of events that epoll is tracking on the appropriate file ...">
<polygon fill="white" stroke="black" points="306.5,-38.5 306.5,-57.5 419.5,-57.5 419.5,-38.5 306.5,-38.5"/>
<text text-anchor="middle" x="363" y="-45.5" font-family="Helvetica,sans-Serif" font-size="10.00">coap_epoll_ctl_mod</text>
</a>
</g>
</g>
<!-- Node9&#45;&gt;Node10 -->
<g id="edge9" class="edge">
<title>Node9&#45;&gt;Node10</title>
<path fill="none" stroke="midnightblue" d="M268.39,-48C277.42,-48 286.89,-48 296.21,-48"/>
<polygon fill="midnightblue" stroke="midnightblue" points="296.22,-51.5 306.22,-48 296.22,-44.5 296.22,-51.5"/>
</g>
</g>
</svg>
