<?xml version="1.0" encoding="UTF-8" standalone="no"?>
<!DOCTYPE svg PUBLIC "-//W3C//DTD SVG 1.1//EN"
 "http://www.w3.org/Graphics/SVG/1.1/DTD/svg11.dtd">
<!-- Generated by graphviz version 2.43.0 (0)
 -->
<!-- Title: coap_new_bin_const Pages: 1 -->
<!--zoomable 309 -->
<svg id="main" version="1.1" xmlns="http://www.w3.org/2000/svg" xmlns:xlink="http://www.w3.org/1999/xlink" xml:space="preserve" onload="init(evt)">
<style type="text/css"><![CDATA[
.edge:hover path { stroke: red; }
.edge:hover polygon { stroke: red; fill: red; }
]]></style>
<script type="text/javascript"><![CDATA[
var edges = document.getElementsByTagName('g');
if (edges && edges.length) {
  for (var i=0;i<edges.length;i++) {
    if (edges[i].id.substr(0,4)=='edge') {
      edges[i].setAttribute('class','edge');
    }
  }
}
]]></script>
        <defs>
                <circle id="rim" cx="0" cy="0" r="7"/>
                <circle id="rim2" cx="0" cy="0" r="3.5"/>
                <g id="zoomPlus">
                        <use xlink:href="#rim" fill="#404040">
                                <set attributeName="fill" to="#808080" begin="zoomplus.mouseover" end="zoomplus.mouseout"/>
                        </use>
                        <path d="M-4,0h8M0,-4v8" fill="none" stroke="white" stroke-width="1.5" pointer-events="none"/>
                </g>
                <g id="zoomMin">
                        <use xlink:href="#rim" fill="#404040">
                                <set attributeName="fill" to="#808080" begin="zoomminus.mouseover" end="zoomminus.mouseout"/>
                        </use>
                        <path d="M-4,0h8" fill="none" stroke="white" stroke-width="1.5" pointer-events="none"/>
                </g>
                <g id="dirArrow">
                        <path fill="none" stroke="white" stroke-width="1.5" d="M0,-3.0v7 M-2.5,-0.5L0,-3.0L2.5,-0.5"/>
                </g>
               <g id="resetDef">
                       <use xlink:href="#rim2" fill="#404040">
                               <set attributeName="fill" to="#808080" begin="reset.mouseover" end="reset.mouseout"/>
                       </use>
               </g>
        </defs>

<script type="text/javascript">
var viewWidth = 607;
var viewHeight = 309;
var sectionId = 'dynsection-11';
</script>
<script xlink:href="svgpan.js"/>
<svg id="graph" class="graph">
<g id="viewport">
<title>coap_new_bin_const</title>
<polygon fill="white" stroke="transparent" points="-4,4 -4,-305 603,-305 603,4 -4,4"/>
<!-- Node1 -->
<g id="node1" class="node">
<title>Node1</title>
<g id="a_node1"><a xlink:title="Take the specified byte array (text) and create a coap_bin_const_t * Returns a new const binary objec...">
<polygon fill="#bfbfbf" stroke="black" points="482,-139.5 482,-158.5 599,-158.5 599,-139.5 482,-139.5"/>
<text text-anchor="middle" x="540.5" y="-146.5" font-family="Helvetica,sans-Serif" font-size="10.00">coap_new_bin_const</text>
</a>
</g>
</g>
<!-- Node2 -->
<g id="node2" class="node">
<title>Node2</title>
<g id="a_node2"><a xlink:href="group__context.html#gaeadf53fc0202c2a9c881406d4aa12a4c" target="_top" xlink:title="Sends a CoAP message to given peer.">
<polygon fill="white" stroke="black" points="344.5,-281.5 344.5,-300.5 412.5,-300.5 412.5,-281.5 344.5,-281.5"/>
<text text-anchor="middle" x="378.5" y="-288.5" font-family="Helvetica,sans-Serif" font-size="10.00">coap_send</text>
</a>
</g>
</g>
<!-- Node1&#45;&gt;Node2 -->
<g id="edge1" class="edge">
<title>Node1&#45;&gt;Node2</title>
<path fill="none" stroke="midnightblue" d="M530.21,-167.88C515.89,-195.01 485.86,-244.75 446,-272 436.19,-278.71 424.02,-283.07 412.78,-285.9"/>
<polygon fill="midnightblue" stroke="midnightblue" points="533.48,-169.18 534.92,-158.68 527.25,-165.99 533.48,-169.18"/>
</g>
<!-- Node3 -->
<g id="node3" class="node">
<title>Node3</title>
<g id="a_node3"><a xlink:href="group__session__internal.html#ga241d1a2311c1dcbdca0e6860237acf91" target="_top" xlink:title="Refresh the session&#39;s current Identity Hint (PSK).">
<polygon fill="white" stroke="black" points="317.5,-232 317.5,-262 439.5,-262 439.5,-232 317.5,-232"/>
<text text-anchor="start" x="325.5" y="-250" font-family="Helvetica,sans-Serif" font-size="10.00">coap_session_refresh</text>
<text text-anchor="middle" x="378.5" y="-239" font-family="Helvetica,sans-Serif" font-size="10.00">_psk_hint</text>
</a>
</g>
</g>
<!-- Node1&#45;&gt;Node3 -->
<g id="edge2" class="edge">
<title>Node1&#45;&gt;Node3</title>
<path fill="none" stroke="midnightblue" d="M522.27,-165.49C504.39,-181.88 475.02,-206.85 446,-223 440.1,-226.28 433.67,-229.26 427.2,-231.92"/>
<polygon fill="midnightblue" stroke="midnightblue" points="524.71,-168 529.64,-158.62 519.93,-162.88 524.71,-168"/>
</g>
<!-- Node4 -->
<g id="node4" class="node">
<title>Node4</title>
<g id="a_node4"><a xlink:href="group__session__internal.html#gabf03da17a2f79fd94e20c58cd05e5d0e" target="_top" xlink:title="Refresh the session&#39;s current pre&#45;shared identity (PSK).">
<polygon fill="white" stroke="black" points="317.5,-183 317.5,-213 439.5,-213 439.5,-183 317.5,-183"/>
<text text-anchor="start" x="325.5" y="-201" font-family="Helvetica,sans-Serif" font-size="10.00">coap_session_refresh</text>
<text text-anchor="middle" x="378.5" y="-190" font-family="Helvetica,sans-Serif" font-size="10.00">_psk_identity</text>
</a>
</g>
</g>
<!-- Node1&#45;&gt;Node4 -->
<g id="edge3" class="edge">
<title>Node1&#45;&gt;Node4</title>
<path fill="none" stroke="midnightblue" d="M498.54,-161.54C477.22,-168.07 451,-176.1 428.6,-182.96"/>
<polygon fill="midnightblue" stroke="midnightblue" points="499.73,-164.84 508.27,-158.56 497.68,-158.15 499.73,-164.84"/>
</g>
<!-- Node5 -->
<g id="node5" class="node">
<title>Node5</title>
<g id="a_node5"><a xlink:href="group__session__internal.html#gaa40e39af285755517824c26095494f91" target="_top" xlink:title="Refresh the session&#39;s current pre&#45;shared key (PSK).">
<polygon fill="white" stroke="black" points="317.5,-134 317.5,-164 439.5,-164 439.5,-134 317.5,-134"/>
<text text-anchor="start" x="325.5" y="-152" font-family="Helvetica,sans-Serif" font-size="10.00">coap_session_refresh</text>
<text text-anchor="middle" x="378.5" y="-141" font-family="Helvetica,sans-Serif" font-size="10.00">_psk_key</text>
</a>
</g>
</g>
<!-- Node1&#45;&gt;Node5 -->
<g id="edge4" class="edge">
<title>Node1&#45;&gt;Node5</title>
<path fill="none" stroke="midnightblue" d="M471.65,-149C461,-149 450.06,-149 439.6,-149"/>
<polygon fill="midnightblue" stroke="midnightblue" points="471.74,-152.5 481.74,-149 471.74,-145.5 471.74,-152.5"/>
</g>
<!-- Node6 -->
<g id="node6" class="node">
<title>Node6</title>
<g id="a_node6"><a xlink:href="oscore__context_8c.html#a5dd2a845d237fab6455e841459932301" target="_top" xlink:title=" ">
<polygon fill="white" stroke="black" points="328,-95.5 328,-114.5 429,-114.5 429,-95.5 328,-95.5"/>
<text text-anchor="middle" x="378.5" y="-102.5" font-family="Helvetica,sans-Serif" font-size="10.00">oscore_build_key</text>
</a>
</g>
</g>
<!-- Node1&#45;&gt;Node6 -->
<g id="edge5" class="edge">
<title>Node1&#45;&gt;Node6</title>
<path fill="none" stroke="midnightblue" d="M494.96,-136.75C469.42,-129.73 437.83,-121.04 414.15,-114.53"/>
<polygon fill="midnightblue" stroke="midnightblue" points="494.21,-140.18 504.78,-139.45 496.07,-133.43 494.21,-140.18"/>
</g>
<!-- Node9 -->
<g id="node9" class="node">
<title>Node9</title>
<g id="a_node9"><a xlink:href="group__oscore__internal.html#gac1dcb68cfe7c74e017f67ad7c085a492" target="_top" xlink:title="oscore_duplicate_ctx &#45; duplicate a osc_ctx">
<polygon fill="white" stroke="black" points="0,-114.5 0,-133.5 119,-133.5 119,-114.5 0,-114.5"/>
<text text-anchor="middle" x="59.5" y="-121.5" font-family="Helvetica,sans-Serif" font-size="10.00">oscore_duplicate_ctx</text>
</a>
</g>
</g>
<!-- Node1&#45;&gt;Node9 -->
<g id="edge12" class="edge">
<title>Node1&#45;&gt;Node9</title>
<path fill="none" stroke="midnightblue" d="M521.11,-132.6C503.26,-117.72 474.74,-96.55 446,-86 324.33,-41.34 279.87,-32.26 155,-67 121.77,-76.24 88.55,-100.67 71.76,-114.36"/>
<polygon fill="midnightblue" stroke="midnightblue" points="519.09,-135.48 528.96,-139.33 523.64,-130.17 519.09,-135.48"/>
</g>
<!-- Node11 -->
<g id="node11" class="node">
<title>Node11</title>
<g id="a_node11"><a xlink:href="group__oscore__internal.html#ga8cf885624714b9a4705974adf2629cb2" target="_top" xlink:title=" ">
<polygon fill="white" stroke="black" points="311,-0.5 311,-19.5 446,-19.5 446,-0.5 311,-0.5"/>
<text text-anchor="middle" x="378.5" y="-7.5" font-family="Helvetica,sans-Serif" font-size="10.00">oscore_new_association</text>
</a>
</g>
</g>
<!-- Node1&#45;&gt;Node11 -->
<g id="edge13" class="edge">
<title>Node1&#45;&gt;Node11</title>
<path fill="none" stroke="midnightblue" d="M528.78,-130.25C513.47,-105.02 483.05,-60.3 446,-34 437.39,-27.89 427.06,-23.18 417.14,-19.61"/>
<polygon fill="midnightblue" stroke="midnightblue" points="525.96,-132.35 534.06,-139.17 531.98,-128.79 525.96,-132.35"/>
</g>
<!-- Node7 -->
<g id="node7" class="node">
<title>Node7</title>
<g id="a_node7"><a xlink:href="group__oscore__internal.html#ga28cf1e32f7d4f13cd4f25aca27169580" target="_top" xlink:title="oscore_add_recipient &#45; add in recipient information">
<polygon fill="white" stroke="black" points="155,-152.5 155,-171.5 275,-171.5 275,-152.5 155,-152.5"/>
<text text-anchor="middle" x="215" y="-159.5" font-family="Helvetica,sans-Serif" font-size="10.00">oscore_add_recipient</text>
</a>
</g>
</g>
<!-- Node6&#45;&gt;Node7 -->
<g id="edge6" class="edge">
<title>Node6&#45;&gt;Node7</title>
<path fill="none" stroke="midnightblue" d="M331.44,-117.5C324.55,-119.56 317.56,-121.76 311,-124 303.94,-126.41 265.23,-142.02 239.46,-152.47"/>
<polygon fill="midnightblue" stroke="midnightblue" points="332.78,-120.75 341.4,-114.59 330.82,-114.03 332.78,-120.75"/>
</g>
<!-- Node8 -->
<g id="node8" class="node">
<title>Node8</title>
<g id="a_node8"><a xlink:href="group__oscore__internal.html#ga8636deef153df3f5c67fba15ff3893c0" target="_top" xlink:title="oscore_derive_ctx &#45; derive a osc_ctx from oscore_conf information">
<polygon fill="white" stroke="black" points="7,-171.5 7,-190.5 112,-190.5 112,-171.5 7,-171.5"/>
<text text-anchor="middle" x="59.5" y="-178.5" font-family="Helvetica,sans-Serif" font-size="10.00">oscore_derive_ctx</text>
</a>
</g>
</g>
<!-- Node6&#45;&gt;Node8 -->
<g id="edge9" class="edge">
<title>Node6&#45;&gt;Node8</title>
<path fill="none" stroke="midnightblue" d="M319.02,-118.89C316.21,-120.42 313.51,-122.12 311,-124 287.02,-141.96 301.24,-166.54 275,-181 218.09,-212.37 139.1,-200.97 94.57,-190.54"/>
<polygon fill="midnightblue" stroke="midnightblue" points="320.73,-121.95 328.32,-114.56 317.78,-115.61 320.73,-121.95"/>
</g>
<!-- Node6&#45;&gt;Node9 -->
<g id="edge10" class="edge">
<title>Node6&#45;&gt;Node9</title>
<path fill="none" stroke="midnightblue" d="M317.68,-108.59C260.75,-112 175.63,-117.1 119.1,-120.49"/>
<polygon fill="midnightblue" stroke="midnightblue" points="318.2,-112.06 327.97,-107.97 317.78,-105.07 318.2,-112.06"/>
</g>
<!-- Node10 -->
<g id="node10" class="node">
<title>Node10</title>
<g id="a_node10"><a xlink:href="group__oscore__internal.html#ga77af2b488323aca8684f23dfde52e1d5" target="_top" xlink:title="oscore_update_ctx &#45; update a osc_ctx with a new id_context">
<polygon fill="white" stroke="black" points="161,-76.5 161,-95.5 269,-95.5 269,-76.5 161,-76.5"/>
<text text-anchor="middle" x="215" y="-83.5" font-family="Helvetica,sans-Serif" font-size="10.00">oscore_update_ctx</text>
</a>
</g>
</g>
<!-- Node6&#45;&gt;Node10 -->
<g id="edge11" class="edge">
<title>Node6&#45;&gt;Node10</title>
<path fill="none" stroke="midnightblue" d="M317.51,-97.94C301.68,-96.08 284.7,-94.08 269.25,-92.26"/>
<polygon fill="midnightblue" stroke="midnightblue" points="317.39,-101.45 327.73,-99.14 318.2,-94.5 317.39,-101.45"/>
</g>
<!-- Node7&#45;&gt;Node8 -->
<g id="edge7" class="edge">
<title>Node7&#45;&gt;Node8</title>
<path fill="none" stroke="midnightblue" d="M144.7,-170.58C133.77,-171.93 122.63,-173.31 112.19,-174.6"/>
<polygon fill="midnightblue" stroke="midnightblue" points="145.16,-174.05 154.65,-169.35 144.3,-167.1 145.16,-174.05"/>
</g>
<!-- Node7&#45;&gt;Node9 -->
<g id="edge8" class="edge">
<title>Node7&#45;&gt;Node9</title>
<path fill="none" stroke="midnightblue" d="M165.36,-149.96C143.92,-144.65 119.08,-138.5 98.96,-133.52"/>
<polygon fill="midnightblue" stroke="midnightblue" points="164.72,-153.41 175.27,-152.41 166.4,-146.61 164.72,-153.41"/>
</g>
</g>
</svg>
        <g id="navigator" transform="translate(0 0)" fill="#404254">
                <rect fill="#f2f5e9" fill-opacity="0.5" stroke="#606060" stroke-width=".5" x="0" y="0" width="60" height="60"/>
                <use id="zoomplus" xlink:href="#zoomPlus" x="17" y="9" onmousedown="handleZoom(evt,'in')"/>
                <use id="zoomminus" xlink:href="#zoomMin" x="42" y="9" onmousedown="handleZoom(evt,'out')"/>
                <use id="reset" xlink:href="#resetDef" x="30" y="36" onmousedown="handleReset()"/>
                <g id="arrowUp" xlink:href="#dirArrow" transform="translate(30 24)" onmousedown="handlePan(0,-1)">
                  <use xlink:href="#rim" fill="#404040">
                        <set attributeName="fill" to="#808080" begin="arrowUp.mouseover" end="arrowUp.mouseout"/>
                  </use>
                  <path fill="none" stroke="white" stroke-width="1.5" d="M0,-3.0v7 M-2.5,-0.5L0,-3.0L2.5,-0.5"/>
                </g>
                <g id="arrowRight" xlink:href="#dirArrow" transform="rotate(90) translate(36 -43)" onmousedown="handlePan(1,0)">
                  <use xlink:href="#rim" fill="#404040">
                        <set attributeName="fill" to="#808080" begin="arrowRight.mouseover" end="arrowRight.mouseout"/>
                  </use>
                  <path fill="none" stroke="white" stroke-width="1.5" d="M0,-3.0v7 M-2.5,-0.5L0,-3.0L2.5,-0.5"/>
                </g>
                <g id="arrowDown" xlink:href="#dirArrow" transform="rotate(180) translate(-30 -48)" onmousedown="handlePan(0,1)">
                  <use xlink:href="#rim" fill="#404040">
                        <set attributeName="fill" to="#808080" begin="arrowDown.mouseover" end="arrowDown.mouseout"/>
                  </use>
                  <path fill="none" stroke="white" stroke-width="1.5" d="M0,-3.0v7 M-2.5,-0.5L0,-3.0L2.5,-0.5"/>
                </g>
                <g id="arrowLeft" xlink:href="#dirArrow" transform="rotate(270) translate(-36 17)" onmousedown="handlePan(-1,0)">
                  <use xlink:href="#rim" fill="#404040">
                        <set attributeName="fill" to="#808080" begin="arrowLeft.mouseover" end="arrowLeft.mouseout"/>
                  </use>
                  <path fill="none" stroke="white" stroke-width="1.5" d="M0,-3.0v7 M-2.5,-0.5L0,-3.0L2.5,-0.5"/>
                </g>
        </g>
        <svg viewBox="0 0 15 15" width="100%" height="30px" preserveAspectRatio="xMaxYMin meet">
         <g id="arrow_out" transform="scale(0.3 0.3)">
          <a xlink:href="group__string_ga50cf7197e1bcb325d3ee9f4a04a56996_icgraph_org.svg" target="_base">
           <rect id="button" ry="5" rx="5" y="6" x="6" height="38" width="38"
                fill="#f2f5e9" fill-opacity="0.5" stroke="#606060" stroke-width="1.0"/>
           <path id="arrow"
             d="M 11.500037,31.436501 C 11.940474,20.09759 22.043105,11.32322 32.158766,21.979434 L 37.068811,17.246167 C 37.068811,17.246167 37.088388,32 37.088388,32 L 22.160133,31.978069 C 22.160133,31.978069 26.997745,27.140456 26.997745,27.140456 C 18.528582,18.264221 13.291696,25.230495 11.500037,31.436501 z"
             style="fill:#404040;"/>
          </a>
         </g>
        </svg>
</svg>
