<?xml version="1.0" encoding="UTF-8" standalone="no"?>
<!DOCTYPE svg PUBLIC "-//W3C//DTD SVG 1.1//EN"
 "http://www.w3.org/Graphics/SVG/1.1/DTD/svg11.dtd">
<!-- Generated by graphviz version 2.43.0 (0)
 -->
<!-- Title: coap_send_internal Pages: 1 -->
<svg width="2339pt" height="365pt"
 viewBox="0.00 0.00 2339.00 365.00" xmlns="http://www.w3.org/2000/svg" xmlns:xlink="http://www.w3.org/1999/xlink">
<g id="graph0" class="graph" transform="scale(1 1) rotate(0) translate(4 361)">
<title>coap_send_internal</title>
<polygon fill="white" stroke="transparent" points="-4,4 -4,-361 2335,-361 2335,4 -4,4"/>
<!-- Node1 -->
<g id="node1" class="node">
<title>Node1</title>
<g id="a_node1"><a xlink:title="Sends a CoAP message to given peer.">
<polygon fill="#bfbfbf" stroke="black" points="2220,-133.5 2220,-152.5 2331,-152.5 2331,-133.5 2220,-133.5"/>
<text text-anchor="middle" x="2275.5" y="-140.5" font-family="Helvetica,sans-Serif" font-size="10.00">coap_send_internal</text>
</a>
</g>
</g>
<!-- Node2 -->
<g id="node2" class="node">
<title>Node2</title>
<g id="a_node2"><a xlink:href="coap__net_8c.html#ad02a6d6c0f94ef455980d531575d1d0c" target="_top" xlink:title=" ">
<polygon fill="white" stroke="black" points="1748.5,-266.5 1748.5,-285.5 1850.5,-285.5 1850.5,-266.5 1748.5,-266.5"/>
<text text-anchor="middle" x="1799.5" y="-273.5" font-family="Helvetica,sans-Serif" font-size="10.00">check_token_size</text>
</a>
</g>
</g>
<!-- Node1&#45;&gt;Node2 -->
<g id="edge1" class="edge">
<title>Node1&#45;&gt;Node2</title>
<path fill="none" stroke="midnightblue" d="M2245.22,-156.65C2227.72,-164.47 2204.88,-174.08 2184,-181 2065.99,-220.13 1922.85,-251.47 1849.31,-266.44"/>
<polygon fill="midnightblue" stroke="midnightblue" points="2246.69,-159.83 2254.36,-152.52 2243.8,-153.45 2246.69,-159.83"/>
</g>
<!-- Node3 -->
<g id="node3" class="node">
<title>Node3</title>
<g id="a_node3"><a xlink:href="group__context__internal.html#ga7bb944fc52f772655356d95724317401" target="_top" xlink:title="Dispatches the PDUs from the receive queue in given context.">
<polygon fill="white" stroke="black" points="1609,-168.5 1609,-187.5 1695,-187.5 1695,-168.5 1609,-168.5"/>
<text text-anchor="middle" x="1652" y="-175.5" font-family="Helvetica,sans-Serif" font-size="10.00">coap_dispatch</text>
</a>
</g>
</g>
<!-- Node1&#45;&gt;Node3 -->
<g id="edge21" class="edge">
<title>Node1&#45;&gt;Node3</title>
<path fill="none" stroke="midnightblue" d="M2209.65,-141.7C2162.33,-141.07 2096.67,-140.85 2039,-143 1901.83,-148.11 1867.39,-150.44 1731,-166 1719.29,-167.34 1706.65,-169.13 1695.02,-170.92"/>
<polygon fill="midnightblue" stroke="midnightblue" points="2209.71,-145.2 2219.76,-141.85 2209.81,-138.2 2209.71,-145.2"/>
</g>
<!-- Node11 -->
<g id="node11" class="node">
<title>Node11</title>
<g id="a_node11"><a xlink:href="group__context.html#gaeadf53fc0202c2a9c881406d4aa12a4c" target="_top" xlink:title="Sends a CoAP message to given peer.">
<polygon fill="white" stroke="black" points="364.5,-328.5 364.5,-347.5 432.5,-347.5 432.5,-328.5 364.5,-328.5"/>
<text text-anchor="middle" x="398.5" y="-335.5" font-family="Helvetica,sans-Serif" font-size="10.00">coap_send</text>
</a>
</g>
</g>
<!-- Node1&#45;&gt;Node11 -->
<g id="edge22" class="edge">
<title>Node1&#45;&gt;Node11</title>
<path fill="none" stroke="midnightblue" d="M2263.65,-161.26C2248.48,-185.47 2218.84,-228.26 2184,-255 2095.46,-322.97 2066.12,-357 1954.5,-357 1954.5,-357 1954.5,-357 724.5,-357 617.68,-357 491.44,-346.64 432.68,-341.22"/>
<polygon fill="midnightblue" stroke="midnightblue" points="2266.67,-163.04 2268.91,-152.68 2260.7,-159.38 2266.67,-163.04"/>
</g>
<!-- Node20 -->
<g id="node20" class="node">
<title>Node20</title>
<g id="a_node20"><a xlink:href="group__context.html#ga059557785c3f40b683269ba4090203e8" target="_top" xlink:title="Sends an ACK message with code 0 for the specified request to dst.">
<polygon fill="white" stroke="black" points="2066,-38.5 2066,-57.5 2157,-57.5 2157,-38.5 2066,-38.5"/>
<text text-anchor="middle" x="2111.5" y="-45.5" font-family="Helvetica,sans-Serif" font-size="10.00">coap_send_ack</text>
</a>
</g>
</g>
<!-- Node1&#45;&gt;Node20 -->
<g id="edge23" class="edge">
<title>Node1&#45;&gt;Node20</title>
<path fill="none" stroke="midnightblue" d="M2257.12,-126.37C2239.78,-110.55 2211.79,-86.99 2184,-72 2173.05,-66.1 2160.38,-61.27 2148.78,-57.53"/>
<polygon fill="midnightblue" stroke="midnightblue" points="2255.02,-129.2 2264.73,-133.45 2259.79,-124.08 2255.02,-129.2"/>
</g>
<!-- Node21 -->
<g id="node21" class="node">
<title>Node21</title>
<g id="a_node21"><a xlink:href="group__context.html#ga95c41b8af7a987b4e376db0a70370006" target="_top" xlink:title="Sends an error response with code code for request request to dst.">
<polygon fill="white" stroke="black" points="2063,-0.5 2063,-19.5 2160,-19.5 2160,-0.5 2063,-0.5"/>
<text text-anchor="middle" x="2111.5" y="-7.5" font-family="Helvetica,sans-Serif" font-size="10.00">coap_send_error</text>
</a>
</g>
</g>
<!-- Node1&#45;&gt;Node21 -->
<g id="edge24" class="edge">
<title>Node1&#45;&gt;Node21</title>
<path fill="none" stroke="midnightblue" d="M2264.76,-124.32C2250.5,-98.85 2221.51,-53.57 2184,-29 2176.8,-24.29 2168.47,-20.74 2160.1,-18.07"/>
<polygon fill="midnightblue" stroke="midnightblue" points="2261.8,-126.21 2269.65,-133.33 2267.95,-122.87 2261.8,-126.21"/>
</g>
<!-- Node22 -->
<g id="node22" class="node">
<title>Node22</title>
<g id="a_node22"><a xlink:href="group__context.html#ga8f46c87e4908ae0ee8c9a0e3e15f8f4a" target="_top" xlink:title="Helper function to create and send a message with type (usually ACK or RST).">
<polygon fill="white" stroke="black" points="2039,-152.5 2039,-171.5 2184,-171.5 2184,-152.5 2039,-152.5"/>
<text text-anchor="middle" x="2111.5" y="-159.5" font-family="Helvetica,sans-Serif" font-size="10.00">coap_send_message_type</text>
</a>
</g>
</g>
<!-- Node1&#45;&gt;Node22 -->
<g id="edge25" class="edge">
<title>Node1&#45;&gt;Node22</title>
<path fill="none" stroke="midnightblue" d="M2209.62,-150.61C2201.27,-151.59 2192.68,-152.6 2184.23,-153.59"/>
<polygon fill="midnightblue" stroke="midnightblue" points="2210.13,-154.07 2219.65,-149.43 2209.31,-147.12 2210.13,-154.07"/>
</g>
<!-- Node24 -->
<g id="node24" class="node">
<title>Node24</title>
<g id="a_node24"><a xlink:href="coap__session_8c.html#a1aeb41a0f4f9a70e4ff5f58cdae96b5a" target="_top" xlink:title="Send a ping message for the session.">
<polygon fill="white" stroke="black" points="1731,-304.5 1731,-323.5 1868,-323.5 1868,-304.5 1731,-304.5"/>
<text text-anchor="middle" x="1799.5" y="-311.5" font-family="Helvetica,sans-Serif" font-size="10.00">coap_session_send_ping</text>
</a>
</g>
</g>
<!-- Node1&#45;&gt;Node24 -->
<g id="edge31" class="edge">
<title>Node1&#45;&gt;Node24</title>
<path fill="none" stroke="midnightblue" d="M2257.39,-160.32C2240.26,-176.7 2212.41,-200.84 2184,-215 2080.45,-266.6 1947.36,-293.14 1868.29,-305.27"/>
<polygon fill="midnightblue" stroke="midnightblue" points="2260.2,-162.47 2264.9,-152.97 2255.3,-157.46 2260.2,-162.47"/>
</g>
<!-- Node28 -->
<g id="node28" class="node">
<title>Node28</title>
<g id="a_node28"><a xlink:href="coap__net_8c.html#ac4cbcfd073489b57805db665ce3d0681" target="_top" xlink:title=" ">
<polygon fill="white" stroke="black" points="1904,-76.5 1904,-95.5 2003,-95.5 2003,-76.5 1904,-76.5"/>
<text text-anchor="middle" x="1953.5" y="-83.5" font-family="Helvetica,sans-Serif" font-size="10.00">handle_signaling</text>
</a>
</g>
</g>
<!-- Node1&#45;&gt;Node28 -->
<g id="edge38" class="edge">
<title>Node1&#45;&gt;Node28</title>
<path fill="none" stroke="midnightblue" d="M2243.48,-129.54C2226.27,-122.62 2204.3,-114.69 2184,-110 2122.72,-95.85 2050.28,-90.03 2003.43,-87.64"/>
<polygon fill="midnightblue" stroke="midnightblue" points="2242.43,-132.9 2253.01,-133.46 2245.09,-126.42 2242.43,-132.9"/>
</g>
<!-- Node2&#45;&gt;Node3 -->
<g id="edge2" class="edge">
<title>Node2&#45;&gt;Node3</title>
<path fill="none" stroke="midnightblue" d="M1775.66,-260.61C1745.38,-240.22 1692.83,-204.83 1667.49,-187.76"/>
<polygon fill="midnightblue" stroke="midnightblue" points="1774.03,-263.74 1784.28,-266.42 1777.95,-257.94 1774.03,-263.74"/>
</g>
<!-- Node4 -->
<g id="node4" class="node">
<title>Node4</title>
<g id="a_node4"><a xlink:href="group__context__internal.html#gae6b8ca457dd41f23372f9e9a7159312b" target="_top" xlink:title="Parses and interprets a CoAP datagram with context ctx.">
<polygon fill="white" stroke="black" points="1458,-212.5 1458,-231.5 1573,-231.5 1573,-212.5 1458,-212.5"/>
<text text-anchor="middle" x="1515.5" y="-219.5" font-family="Helvetica,sans-Serif" font-size="10.00">coap_handle_dgram</text>
</a>
</g>
</g>
<!-- Node3&#45;&gt;Node4 -->
<g id="edge3" class="edge">
<title>Node3&#45;&gt;Node4</title>
<path fill="none" stroke="midnightblue" d="M1612.13,-190.72C1590.92,-197.66 1565.09,-206.1 1545.63,-212.47"/>
<polygon fill="midnightblue" stroke="midnightblue" points="1613.4,-193.98 1621.82,-187.55 1611.22,-187.33 1613.4,-193.98"/>
</g>
<!-- Node6 -->
<g id="node6" class="node">
<title>Node6</title>
<g id="a_node6"><a xlink:href="coap__net_8c.html#acd36f6fba6d30ab9557e0e6521f4a088" target="_top" xlink:title=" ">
<polygon fill="white" stroke="black" points="1134.5,-195.5 1134.5,-214.5 1243.5,-214.5 1243.5,-195.5 1134.5,-195.5"/>
<text text-anchor="middle" x="1189" y="-202.5" font-family="Helvetica,sans-Serif" font-size="10.00">coap_read_session</text>
</a>
</g>
</g>
<!-- Node3&#45;&gt;Node6 -->
<g id="edge20" class="edge">
<title>Node3&#45;&gt;Node6</title>
<path fill="none" stroke="midnightblue" d="M1598.39,-180.63C1527.76,-184.22 1398.39,-191.02 1288,-198 1273.62,-198.91 1258.05,-199.98 1243.65,-201.01"/>
<polygon fill="midnightblue" stroke="midnightblue" points="1598.98,-184.1 1608.79,-180.1 1598.63,-177.11 1598.98,-184.1"/>
</g>
<!-- Node5 -->
<g id="node5" class="node">
<title>Node5</title>
<g id="a_node5"><a xlink:href="coap__net_8c.html#a8534f7860b14e0743529daff196a27ce" target="_top" xlink:title=" ">
<polygon fill="white" stroke="black" points="1288,-207 1288,-237 1422,-237 1422,-207 1288,-207"/>
<text text-anchor="start" x="1296" y="-225" font-family="Helvetica,sans-Serif" font-size="10.00">coap_handle_dgram_for</text>
<text text-anchor="middle" x="1355" y="-214" font-family="Helvetica,sans-Serif" font-size="10.00">_proto</text>
</a>
</g>
</g>
<!-- Node4&#45;&gt;Node5 -->
<g id="edge4" class="edge">
<title>Node4&#45;&gt;Node5</title>
<path fill="none" stroke="midnightblue" d="M1447.56,-222C1439.13,-222 1430.51,-222 1422.1,-222"/>
<polygon fill="midnightblue" stroke="midnightblue" points="1447.73,-225.5 1457.73,-222 1447.73,-218.5 1447.73,-225.5"/>
</g>
<!-- Node5&#45;&gt;Node6 -->
<g id="edge5" class="edge">
<title>Node5&#45;&gt;Node6</title>
<path fill="none" stroke="midnightblue" d="M1277.71,-214.09C1266.2,-212.9 1254.54,-211.69 1243.64,-210.56"/>
<polygon fill="midnightblue" stroke="midnightblue" points="1277.46,-217.58 1287.77,-215.13 1278.18,-210.62 1277.46,-217.58"/>
</g>
<!-- Node7 -->
<g id="node7" class="node">
<title>Node7</title>
<g id="a_node7"><a xlink:href="group__app__io__internal.html#ga503f851fa137eb8a9c2936e2098c5eb9" target="_top" xlink:title="Process all the epoll events.">
<polygon fill="white" stroke="black" points="989,-233.5 989,-252.5 1090,-252.5 1090,-233.5 989,-233.5"/>
<text text-anchor="middle" x="1039.5" y="-240.5" font-family="Helvetica,sans-Serif" font-size="10.00">coap_io_do_epoll</text>
</a>
</g>
</g>
<!-- Node6&#45;&gt;Node7 -->
<g id="edge6" class="edge">
<title>Node6&#45;&gt;Node7</title>
<path fill="none" stroke="midnightblue" d="M1140.99,-217.11C1120.44,-222.4 1096.7,-228.52 1077.45,-233.48"/>
<polygon fill="midnightblue" stroke="midnightblue" points="1141.97,-220.47 1150.78,-214.59 1140.22,-213.69 1141.97,-220.47"/>
</g>
<!-- Node18 -->
<g id="node18" class="node">
<title>Node18</title>
<g id="a_node18"><a xlink:href="group__app__io__internal.html#ga2208802b0711ad20df07271b751b41dc" target="_top" xlink:title="Processes any outstanding read, write, accept or connect I/O as indicated in the coap_socket_t struct...">
<polygon fill="white" stroke="black" points="996.5,-195.5 996.5,-214.5 1082.5,-214.5 1082.5,-195.5 996.5,-195.5"/>
<text text-anchor="middle" x="1039.5" y="-202.5" font-family="Helvetica,sans-Serif" font-size="10.00">coap_io_do_io</text>
</a>
</g>
</g>
<!-- Node6&#45;&gt;Node18 -->
<g id="edge17" class="edge">
<title>Node6&#45;&gt;Node18</title>
<path fill="none" stroke="midnightblue" d="M1124.24,-205C1110.23,-205 1095.72,-205 1082.8,-205"/>
<polygon fill="midnightblue" stroke="midnightblue" points="1124.33,-208.5 1134.33,-205 1124.33,-201.5 1124.33,-208.5"/>
</g>
<!-- Node8 -->
<g id="node8" class="node">
<title>Node8</title>
<g id="a_node8"><a xlink:href="group__app__io.html#ga2758ed5fdd6ce79ec95ea8dbf72a5644" target="_top" xlink:title="The main message processing loop with additional fds for internal select.">
<polygon fill="white" stroke="black" points="810,-271.5 810,-290.5 953,-290.5 953,-271.5 810,-271.5"/>
<text text-anchor="middle" x="881.5" y="-278.5" font-family="Helvetica,sans-Serif" font-size="10.00">coap_io_process_with_fds</text>
</a>
</g>
</g>
<!-- Node7&#45;&gt;Node8 -->
<g id="edge7" class="edge">
<title>Node7&#45;&gt;Node8</title>
<path fill="none" stroke="midnightblue" d="M989.37,-254.97C967.51,-260.29 942.12,-266.48 921.58,-271.48"/>
<polygon fill="midnightblue" stroke="midnightblue" points="990.25,-258.36 999.13,-252.59 988.59,-251.56 990.25,-258.36"/>
</g>
<!-- Node9 -->
<g id="node9" class="node">
<title>Node9</title>
<g id="a_node9"><a xlink:href="group__app__io.html#ga082f7bbf15d3f37c31c2a0a5e78ea4cf" target="_top" xlink:title="The main I/O processing function.">
<polygon fill="white" stroke="black" points="677,-271.5 677,-290.5 774,-290.5 774,-271.5 677,-271.5"/>
<text text-anchor="middle" x="725.5" y="-278.5" font-family="Helvetica,sans-Serif" font-size="10.00">coap_io_process</text>
</a>
</g>
</g>
<!-- Node8&#45;&gt;Node9 -->
<g id="edge8" class="edge">
<title>Node8&#45;&gt;Node9</title>
<path fill="none" stroke="midnightblue" d="M799.65,-281C790.99,-281 782.4,-281 774.32,-281"/>
<polygon fill="midnightblue" stroke="midnightblue" points="799.81,-284.5 809.81,-281 799.81,-277.5 799.81,-284.5"/>
</g>
<!-- Node10 -->
<g id="node10" class="node">
<title>Node10</title>
<g id="a_node10"><a xlink:href="group__context__internal.html#ga5d013d40174c7c217b24bf624f9d7310" target="_top" xlink:title="Delay the sending of the first client request until some other negotiation has completed.">
<polygon fill="white" stroke="black" points="513,-271.5 513,-290.5 641,-290.5 641,-271.5 513,-271.5"/>
<text text-anchor="middle" x="577" y="-278.5" font-family="Helvetica,sans-Serif" font-size="10.00">coap_client_delay_first</text>
</a>
</g>
</g>
<!-- Node9&#45;&gt;Node10 -->
<g id="edge9" class="edge">
<title>Node9&#45;&gt;Node10</title>
<path fill="none" stroke="midnightblue" d="M666.8,-281C658.35,-281 649.61,-281 641.06,-281"/>
<polygon fill="midnightblue" stroke="midnightblue" points="666.94,-284.5 676.94,-281 666.94,-277.5 666.94,-284.5"/>
</g>
<!-- Node16 -->
<g id="node16" class="node">
<title>Node16</title>
<g id="a_node16"><a xlink:href="group__app__io.html#gaca10debdb496ee890c45fe49a5799330" target="_top" xlink:title="Check to see if there is any i/o pending for the context.">
<polygon fill="white" stroke="black" points="528,-233.5 528,-252.5 626,-252.5 626,-233.5 528,-233.5"/>
<text text-anchor="middle" x="577" y="-240.5" font-family="Helvetica,sans-Serif" font-size="10.00">coap_io_pending</text>
</a>
</g>
</g>
<!-- Node9&#45;&gt;Node16 -->
<g id="edge15" class="edge">
<title>Node9&#45;&gt;Node16</title>
<path fill="none" stroke="midnightblue" d="M677.8,-268.89C657.4,-263.6 633.82,-257.48 614.7,-252.52"/>
<polygon fill="midnightblue" stroke="midnightblue" points="676.97,-272.29 687.53,-271.41 678.73,-265.51 676.97,-272.29"/>
</g>
<!-- Node17 -->
<g id="node17" class="node">
<title>Node17</title>
<g id="a_node17"><a xlink:href="coap__net_8h.html#ac6b34aa979ec545eb710e45a26c98fc1" target="_top" xlink:title=" ">
<polygon fill="white" stroke="black" points="532.5,-309.5 532.5,-328.5 621.5,-328.5 621.5,-309.5 532.5,-309.5"/>
<text text-anchor="middle" x="577" y="-316.5" font-family="Helvetica,sans-Serif" font-size="10.00">coap_run_once</text>
</a>
</g>
</g>
<!-- Node9&#45;&gt;Node17 -->
<g id="edge16" class="edge">
<title>Node9&#45;&gt;Node17</title>
<path fill="none" stroke="midnightblue" d="M677.8,-293.11C657.4,-298.4 633.82,-304.52 614.7,-309.48"/>
<polygon fill="midnightblue" stroke="midnightblue" points="678.73,-296.49 687.53,-290.59 676.97,-289.71 678.73,-296.49"/>
</g>
<!-- Node10&#45;&gt;Node11 -->
<g id="edge10" class="edge">
<title>Node10&#45;&gt;Node11</title>
<path fill="none" stroke="midnightblue" d="M533.63,-293.59C526.73,-295.69 519.66,-297.88 513,-300 483.69,-309.32 450.34,-320.57 427.41,-328.39"/>
<polygon fill="midnightblue" stroke="midnightblue" points="535.01,-296.83 543.57,-290.58 532.98,-290.13 535.01,-296.83"/>
</g>
<!-- Node12 -->
<g id="node12" class="node">
<title>Node12</title>
<g id="a_node12"><a xlink:href="group__session.html#ga4368ee622c681bf7cf0b7cfe99c8ab37" target="_top" xlink:title="Get maximum acceptable PDU size.">
<polygon fill="white" stroke="black" points="320,-271.5 320,-290.5 477,-290.5 477,-271.5 320,-271.5"/>
<text text-anchor="middle" x="398.5" y="-278.5" font-family="Helvetica,sans-Serif" font-size="10.00">coap_session_max_pdu_size</text>
</a>
</g>
</g>
<!-- Node10&#45;&gt;Node12 -->
<g id="edge11" class="edge">
<title>Node10&#45;&gt;Node12</title>
<path fill="none" stroke="midnightblue" d="M502.61,-281C494.17,-281 485.56,-281 477.07,-281"/>
<polygon fill="midnightblue" stroke="midnightblue" points="502.78,-284.5 512.78,-281 502.78,-277.5 502.78,-284.5"/>
</g>
<!-- Node13 -->
<g id="node13" class="node">
<title>Node13</title>
<g id="a_node13"><a xlink:href="group__pdu.html#ga6ab63e25c7c9eed3de00b0e1153b33b6" target="_top" xlink:title="Creates a new CoAP PDU.">
<polygon fill="white" stroke="black" points="183,-290.5 183,-309.5 272,-309.5 272,-290.5 183,-290.5"/>
<text text-anchor="middle" x="227.5" y="-297.5" font-family="Helvetica,sans-Serif" font-size="10.00">coap_new_pdu</text>
</a>
</g>
</g>
<!-- Node12&#45;&gt;Node13 -->
<g id="edge12" class="edge">
<title>Node12&#45;&gt;Node13</title>
<path fill="none" stroke="midnightblue" d="M309.96,-290.84C296.93,-292.31 284,-293.76 272.4,-295.06"/>
<polygon fill="midnightblue" stroke="midnightblue" points="310.38,-294.32 319.92,-289.72 309.6,-287.36 310.38,-294.32"/>
</g>
<!-- Node14 -->
<g id="node14" class="node">
<title>Node14</title>
<g id="a_node14"><a xlink:href="group__pdu.html#gabf10450d37381b133fb780480b4fca1b" target="_top" xlink:title="Duplicate an existing PDU.">
<polygon fill="white" stroke="black" points="171,-252.5 171,-271.5 284,-271.5 284,-252.5 171,-252.5"/>
<text text-anchor="middle" x="227.5" y="-259.5" font-family="Helvetica,sans-Serif" font-size="10.00">coap_pdu_duplicate</text>
</a>
</g>
</g>
<!-- Node12&#45;&gt;Node14 -->
<g id="edge13" class="edge">
<title>Node12&#45;&gt;Node14</title>
<path fill="none" stroke="midnightblue" d="M309.8,-271.14C301.17,-270.17 292.59,-269.21 284.41,-268.29"/>
<polygon fill="midnightblue" stroke="midnightblue" points="309.6,-274.64 319.92,-272.28 310.38,-267.68 309.6,-274.64"/>
</g>
<!-- Node15 -->
<g id="node15" class="node">
<title>Node15</title>
<g id="a_node15"><a xlink:href="group__oscore__internal.html#ga8cf885624714b9a4705974adf2629cb2" target="_top" xlink:title=" ">
<polygon fill="white" stroke="black" points="0,-252.5 0,-271.5 135,-271.5 135,-252.5 0,-252.5"/>
<text text-anchor="middle" x="67.5" y="-259.5" font-family="Helvetica,sans-Serif" font-size="10.00">oscore_new_association</text>
</a>
</g>
</g>
<!-- Node14&#45;&gt;Node15 -->
<g id="edge14" class="edge">
<title>Node14&#45;&gt;Node15</title>
<path fill="none" stroke="midnightblue" d="M160.62,-262C152.18,-262 143.53,-262 135.07,-262"/>
<polygon fill="midnightblue" stroke="midnightblue" points="160.8,-265.5 170.8,-262 160.8,-258.5 160.8,-265.5"/>
</g>
<!-- Node18&#45;&gt;Node8 -->
<g id="edge18" class="edge">
<title>Node18&#45;&gt;Node8</title>
<path fill="none" stroke="midnightblue" d="M1002.14,-218.36C997.68,-220.17 993.21,-222.07 989,-224 956.2,-239 919.4,-259.58 898.78,-271.46"/>
<polygon fill="midnightblue" stroke="midnightblue" points="1003.77,-221.48 1011.79,-214.55 1001.2,-214.97 1003.77,-221.48"/>
</g>
<!-- Node19 -->
<g id="node19" class="node">
<title>Node19</title>
<g id="a_node19"><a xlink:href="coap__net_8h.html#af937985e2b14a287a849663574d59bcb" target="_top" xlink:title=" ">
<polygon fill="white" stroke="black" points="848,-195.5 848,-214.5 915,-214.5 915,-195.5 848,-195.5"/>
<text text-anchor="middle" x="881.5" y="-202.5" font-family="Helvetica,sans-Serif" font-size="10.00">coap_read</text>
</a>
</g>
</g>
<!-- Node18&#45;&gt;Node19 -->
<g id="edge19" class="edge">
<title>Node18&#45;&gt;Node19</title>
<path fill="none" stroke="midnightblue" d="M986.15,-205C962.74,-205 935.87,-205 915.35,-205"/>
<polygon fill="midnightblue" stroke="midnightblue" points="986.28,-208.5 996.28,-205 986.28,-201.5 986.28,-208.5"/>
</g>
<!-- Node22&#45;&gt;Node3 -->
<g id="edge26" class="edge">
<title>Node22&#45;&gt;Node3</title>
<path fill="none" stroke="midnightblue" d="M2028.62,-164.86C1930.77,-168.29 1770.81,-173.88 1695.17,-176.53"/>
<polygon fill="midnightblue" stroke="midnightblue" points="2028.89,-168.36 2038.76,-164.51 2028.65,-161.36 2028.89,-168.36"/>
</g>
<!-- Node23 -->
<g id="node23" class="node">
<title>Node23</title>
<g id="a_node23"><a xlink:href="group__context.html#ga7f4dd3326d1d0619a5baa9812bef6906" target="_top" xlink:title="Sends an RST message with code 0 for the specified request to dst.">
<polygon fill="white" stroke="black" points="1910.5,-195.5 1910.5,-214.5 1996.5,-214.5 1996.5,-195.5 1910.5,-195.5"/>
<text text-anchor="middle" x="1953.5" y="-202.5" font-family="Helvetica,sans-Serif" font-size="10.00">coap_send_rst</text>
</a>
</g>
</g>
<!-- Node22&#45;&gt;Node23 -->
<g id="edge27" class="edge">
<title>Node22&#45;&gt;Node23</title>
<path fill="none" stroke="midnightblue" d="M2066.11,-174.24C2041.65,-180.98 2011.73,-189.23 1989.02,-195.48"/>
<polygon fill="midnightblue" stroke="midnightblue" points="2067.17,-177.57 2075.88,-171.54 2065.31,-170.83 2067.17,-177.57"/>
</g>
<!-- Node23&#45;&gt;Node2 -->
<g id="edge28" class="edge">
<title>Node23&#45;&gt;Node2</title>
<path fill="none" stroke="midnightblue" d="M1928.01,-220.04C1911.44,-229.87 1888.84,-242.58 1868,-252 1856.1,-257.38 1842.61,-262.38 1830.83,-266.42"/>
<polygon fill="midnightblue" stroke="midnightblue" points="1930.25,-222.79 1937.02,-214.64 1926.64,-216.78 1930.25,-222.79"/>
</g>
<!-- Node23&#45;&gt;Node3 -->
<g id="edge29" class="edge">
<title>Node23&#45;&gt;Node3</title>
<path fill="none" stroke="midnightblue" d="M1900.12,-200.28C1841.83,-195.02 1748.8,-186.64 1695.06,-181.79"/>
<polygon fill="midnightblue" stroke="midnightblue" points="1899.95,-203.78 1910.22,-201.19 1900.58,-196.81 1899.95,-203.78"/>
</g>
<!-- Node23&#45;&gt;Node4 -->
<g id="edge30" class="edge">
<title>Node23&#45;&gt;Node4</title>
<path fill="none" stroke="midnightblue" d="M1900.15,-207.04C1817.65,-210.26 1658.07,-216.48 1573.04,-219.8"/>
<polygon fill="midnightblue" stroke="midnightblue" points="1900.44,-210.53 1910.3,-206.65 1900.17,-203.54 1900.44,-210.53"/>
</g>
<!-- Node25 -->
<g id="node25" class="node">
<title>Node25</title>
<g id="a_node25"><a xlink:href="group__app__io__internal.html#gaf0cbbb00a6f2f8ac885f0e1575534e34" target="_top" xlink:title="Iterates through all the coap_socket_t structures embedded in endpoints or sessions associated with t...">
<polygon fill="white" stroke="black" points="1299.5,-276.5 1299.5,-295.5 1410.5,-295.5 1410.5,-276.5 1299.5,-276.5"/>
<text text-anchor="middle" x="1355" y="-283.5" font-family="Helvetica,sans-Serif" font-size="10.00">coap_io_prepare_io</text>
</a>
</g>
</g>
<!-- Node24&#45;&gt;Node25 -->
<g id="edge32" class="edge">
<title>Node24&#45;&gt;Node25</title>
<path fill="none" stroke="midnightblue" d="M1720.79,-309.08C1631.91,-303.46 1488.67,-294.4 1410.76,-289.46"/>
<polygon fill="midnightblue" stroke="midnightblue" points="1720.61,-312.58 1730.81,-309.72 1721.05,-305.59 1720.61,-312.58"/>
</g>
<!-- Node25&#45;&gt;Node8 -->
<g id="edge36" class="edge">
<title>Node25&#45;&gt;Node8</title>
<path fill="none" stroke="midnightblue" d="M1289.16,-296.25C1276.85,-297.81 1264.05,-299.18 1252,-300 1135.36,-307.97 1105.5,-304.76 989,-295 975.53,-293.87 961.14,-292.26 947.45,-290.53"/>
<polygon fill="midnightblue" stroke="midnightblue" points="1289.9,-299.68 1299.35,-294.9 1288.98,-292.74 1289.9,-299.68"/>
</g>
<!-- Node26 -->
<g id="node26" class="node">
<title>Node26</title>
<g id="a_node26"><a xlink:href="group__app__io__internal.html#ga3be92476a2c2c12d68c0cd07795c7e34" target="_top" xlink:title="Any now timed out delayed packet is transmitted, along with any packets associated with requested obs...">
<polygon fill="white" stroke="black" points="1126,-271.5 1126,-290.5 1252,-290.5 1252,-271.5 1126,-271.5"/>
<text text-anchor="middle" x="1189" y="-278.5" font-family="Helvetica,sans-Serif" font-size="10.00">coap_io_prepare_epoll</text>
</a>
</g>
</g>
<!-- Node25&#45;&gt;Node26 -->
<g id="edge33" class="edge">
<title>Node25&#45;&gt;Node26</title>
<path fill="none" stroke="midnightblue" d="M1289.25,-284.03C1276.99,-283.65 1264.19,-283.26 1252.02,-282.89"/>
<polygon fill="midnightblue" stroke="midnightblue" points="1289.29,-287.53 1299.39,-284.34 1289.5,-280.53 1289.29,-287.53"/>
</g>
<!-- Node27 -->
<g id="node27" class="node">
<title>Node27</title>
<g id="a_node27"><a xlink:href="coap__net_8h.html#ab54010e3cade80e1417870c87dcd0402" target="_top" xlink:title=" ">
<polygon fill="white" stroke="black" points="1154,-233.5 1154,-252.5 1224,-252.5 1224,-233.5 1154,-233.5"/>
<text text-anchor="middle" x="1189" y="-240.5" font-family="Helvetica,sans-Serif" font-size="10.00">coap_write</text>
</a>
</g>
</g>
<!-- Node25&#45;&gt;Node27 -->
<g id="edge37" class="edge">
<title>Node25&#45;&gt;Node27</title>
<path fill="none" stroke="midnightblue" d="M1307.74,-273.87C1281.14,-266.9 1248.29,-258.28 1224.06,-251.93"/>
<polygon fill="midnightblue" stroke="midnightblue" points="1307.04,-277.31 1317.6,-276.46 1308.82,-270.54 1307.04,-277.31"/>
</g>
<!-- Node26&#45;&gt;Node7 -->
<g id="edge34" class="edge">
<title>Node26&#45;&gt;Node7</title>
<path fill="none" stroke="midnightblue" d="M1140.99,-268.89C1120.44,-263.6 1096.7,-257.48 1077.45,-252.52"/>
<polygon fill="midnightblue" stroke="midnightblue" points="1140.22,-272.31 1150.78,-271.41 1141.97,-265.53 1140.22,-272.31"/>
</g>
<!-- Node26&#45;&gt;Node8 -->
<g id="edge35" class="edge">
<title>Node26&#45;&gt;Node8</title>
<path fill="none" stroke="midnightblue" d="M1115.58,-281C1066.47,-281 1001.89,-281 953.16,-281"/>
<polygon fill="midnightblue" stroke="midnightblue" points="1115.81,-284.5 1125.81,-281 1115.81,-277.5 1115.81,-284.5"/>
</g>
<!-- Node28&#45;&gt;Node3 -->
<g id="edge39" class="edge">
<title>Node28&#45;&gt;Node3</title>
<path fill="none" stroke="midnightblue" d="M1893.58,-82.95C1847.47,-82.74 1782.72,-87.37 1731,-110 1700.72,-123.25 1673.67,-152.58 1660.85,-168.03"/>
<polygon fill="midnightblue" stroke="midnightblue" points="1893.66,-86.45 1903.7,-83.07 1893.75,-79.45 1893.66,-86.45"/>
</g>
</g>
</svg>
