<?xml version="1.0" encoding="UTF-8" standalone="no"?>
<!DOCTYPE svg PUBLIC "-//W3C//DTD SVG 1.1//EN"
 "http://www.w3.org/Graphics/SVG/1.1/DTD/svg11.dtd">
<!-- Generated by graphviz version 2.43.0 (0)
 -->
<!-- Title: coap_session_disconnected Pages: 1 -->
<!--zoomable 218 -->
<svg id="main" version="1.1" xmlns="http://www.w3.org/2000/svg" xmlns:xlink="http://www.w3.org/1999/xlink" xml:space="preserve" onload="init(evt)">
<style type="text/css"><![CDATA[
.edge:hover path { stroke: red; }
.edge:hover polygon { stroke: red; fill: red; }
]]></style>
<script type="text/javascript"><![CDATA[
var edges = document.getElementsByTagName('g');
if (edges && edges.length) {
  for (var i=0;i<edges.length;i++) {
    if (edges[i].id.substr(0,4)=='edge') {
      edges[i].setAttribute('class','edge');
    }
  }
}
]]></script>
        <defs>
                <circle id="rim" cx="0" cy="0" r="7"/>
                <circle id="rim2" cx="0" cy="0" r="3.5"/>
                <g id="zoomPlus">
                        <use xlink:href="#rim" fill="#404040">
                                <set attributeName="fill" to="#808080" begin="zoomplus.mouseover" end="zoomplus.mouseout"/>
                        </use>
                        <path d="M-4,0h8M0,-4v8" fill="none" stroke="white" stroke-width="1.5" pointer-events="none"/>
                </g>
                <g id="zoomMin">
                        <use xlink:href="#rim" fill="#404040">
                                <set attributeName="fill" to="#808080" begin="zoomminus.mouseover" end="zoomminus.mouseout"/>
                        </use>
                        <path d="M-4,0h8" fill="none" stroke="white" stroke-width="1.5" pointer-events="none"/>
                </g>
                <g id="dirArrow">
                        <path fill="none" stroke="white" stroke-width="1.5" d="M0,-3.0v7 M-2.5,-0.5L0,-3.0L2.5,-0.5"/>
                </g>
               <g id="resetDef">
                       <use xlink:href="#rim2" fill="#404040">
                               <set attributeName="fill" to="#808080" begin="reset.mouseover" end="reset.mouseout"/>
                       </use>
               </g>
        </defs>

<script type="text/javascript">
var viewWidth = 2108;
var viewHeight = 218;
var sectionId = 'dynsection-4';
</script>
<script xlink:href="svgpan.js"/>
<svg id="graph" class="graph">
<g id="viewport">
<title>coap_session_disconnected</title>
<polygon fill="white" stroke="transparent" points="-4,4 -4,-214 2104,-214 2104,4 -4,4"/>
<!-- Node1 -->
<g id="node1" class="node">
<title>Node1</title>
<g id="a_node1"><a xlink:title="Notify session that it has failed.">
<polygon fill="#bfbfbf" stroke="black" points="1948,-95.5 1948,-114.5 2100,-114.5 2100,-95.5 1948,-95.5"/>
<text text-anchor="middle" x="2024" y="-102.5" font-family="Helvetica,sans-Serif" font-size="10.00">coap_session_disconnected</text>
</a>
</g>
</g>
<!-- Node2 -->
<g id="node2" class="node">
<title>Node2</title>
<g id="a_node2"><a xlink:href="group__dtls__internal.html#ga48cfe10be474a4ca9755611da566ce4b" target="_top" xlink:title="Layer function interface for layer below DTLS connect being established.">
<polygon fill="white" stroke="black" points="1787.5,-190.5 1787.5,-209.5 1900.5,-209.5 1900.5,-190.5 1787.5,-190.5"/>
<text text-anchor="middle" x="1844" y="-197.5" font-family="Helvetica,sans-Serif" font-size="10.00">coap_dtls_establish</text>
</a>
</g>
</g>
<!-- Node1&#45;&gt;Node2 -->
<g id="edge1" class="edge">
<title>Node1&#45;&gt;Node2</title>
<path fill="none" stroke="midnightblue" d="M2002.08,-120.41C1980.37,-135.92 1945.03,-159.78 1912,-176 1900.69,-181.56 1887.75,-186.49 1876.29,-190.43"/>
<polygon fill="midnightblue" stroke="midnightblue" points="2004.18,-123.22 2010.24,-114.53 2000.08,-117.54 2004.18,-123.22"/>
</g>
<!-- Node3 -->
<g id="node3" class="node">
<title>Node3</title>
<g id="a_node3"><a xlink:href="group__app__io__internal.html#gaf0cbbb00a6f2f8ac885f0e1575534e34" target="_top" xlink:title="Iterates through all the coap_socket_t structures embedded in endpoints or sessions associated with t...">
<polygon fill="white" stroke="black" points="1299.5,-152.5 1299.5,-171.5 1410.5,-171.5 1410.5,-152.5 1299.5,-152.5"/>
<text text-anchor="middle" x="1355" y="-159.5" font-family="Helvetica,sans-Serif" font-size="10.00">coap_io_prepare_io</text>
</a>
</g>
</g>
<!-- Node1&#45;&gt;Node3 -->
<g id="edge2" class="edge">
<title>Node1&#45;&gt;Node3</title>
<path fill="none" stroke="midnightblue" d="M1987.71,-117.91C1966.15,-125.19 1937.85,-133.67 1912,-138 1730.24,-168.46 1510.65,-166.85 1410.52,-164.05"/>
<polygon fill="midnightblue" stroke="midnightblue" points="1989.1,-121.14 1997.41,-114.57 1986.81,-114.52 1989.1,-121.14"/>
</g>
<!-- Node17 -->
<g id="node17" class="node">
<title>Node17</title>
<g id="a_node17"><a xlink:href="coap__net_8c.html#acd36f6fba6d30ab9557e0e6521f4a088" target="_top" xlink:title=" ">
<polygon fill="white" stroke="black" points="1134.5,-57.5 1134.5,-76.5 1243.5,-76.5 1243.5,-57.5 1134.5,-57.5"/>
<text text-anchor="middle" x="1189" y="-64.5" font-family="Helvetica,sans-Serif" font-size="10.00">coap_read_session</text>
</a>
</g>
</g>
<!-- Node1&#45;&gt;Node17 -->
<g id="edge18" class="edge">
<title>Node1&#45;&gt;Node17</title>
<path fill="none" stroke="midnightblue" d="M1937.69,-112.27C1867.39,-117.63 1765.05,-124 1675.5,-124 1675.5,-124 1675.5,-124 1514.5,-124 1406.11,-124 1280.38,-92.77 1222.37,-76.54"/>
<polygon fill="midnightblue" stroke="midnightblue" points="1938.12,-115.75 1947.82,-111.49 1937.58,-108.77 1938.12,-115.75"/>
</g>
<!-- Node20 -->
<g id="node20" class="node">
<title>Node20</title>
<g id="a_node20"><a xlink:href="group__session__internal.html#ga2f455ec1572982a5ae404beac0cfbd53" target="_top" xlink:title="Notify session transport has just connected and CSM exchange can now start.">
<polygon fill="white" stroke="black" points="1776,-76.5 1776,-95.5 1912,-95.5 1912,-76.5 1776,-76.5"/>
<text text-anchor="middle" x="1844" y="-83.5" font-family="Helvetica,sans-Serif" font-size="10.00">coap_session_send_csm</text>
</a>
</g>
</g>
<!-- Node1&#45;&gt;Node20 -->
<g id="edge23" class="edge">
<title>Node1&#45;&gt;Node20</title>
<path fill="none" stroke="midnightblue" d="M1937.7,-95.9C1929.09,-94.98 1920.44,-94.05 1912.06,-93.16"/>
<polygon fill="midnightblue" stroke="midnightblue" points="1937.45,-99.39 1947.77,-96.97 1938.2,-92.43 1937.45,-99.39"/>
</g>
<!-- Node22 -->
<g id="node22" class="node">
<title>Node22</title>
<g id="a_node22"><a xlink:href="group__dtls__internal.html#ga429233d1be917c4f121a0e0771a98c5a" target="_top" xlink:title="Layer function interface for layer below TLS accept/connect being established.">
<polygon fill="white" stroke="black" points="1790.5,-38.5 1790.5,-57.5 1897.5,-57.5 1897.5,-38.5 1790.5,-38.5"/>
<text text-anchor="middle" x="1844" y="-45.5" font-family="Helvetica,sans-Serif" font-size="10.00">coap_tls_establish</text>
</a>
</g>
</g>
<!-- Node1&#45;&gt;Node22 -->
<g id="edge25" class="edge">
<title>Node1&#45;&gt;Node22</title>
<path fill="none" stroke="midnightblue" d="M1986.77,-92.05C1965.16,-84.46 1937.12,-74.86 1912,-67 1901.61,-63.75 1890.25,-60.44 1879.88,-57.51"/>
<polygon fill="midnightblue" stroke="midnightblue" points="1985.62,-95.36 1996.22,-95.38 1987.95,-88.75 1985.62,-95.36"/>
</g>
<!-- Node23 -->
<g id="node23" class="node">
<title>Node23</title>
<g id="a_node23"><a xlink:href="coap__net_8c.html#ac4cbcfd073489b57805db665ce3d0681" target="_top" xlink:title=" ">
<polygon fill="white" stroke="black" points="1794.5,-0.5 1794.5,-19.5 1893.5,-19.5 1893.5,-0.5 1794.5,-0.5"/>
<text text-anchor="middle" x="1844" y="-7.5" font-family="Helvetica,sans-Serif" font-size="10.00">handle_signaling</text>
</a>
</g>
</g>
<!-- Node1&#45;&gt;Node23 -->
<g id="edge26" class="edge">
<title>Node1&#45;&gt;Node23</title>
<path fill="none" stroke="midnightblue" d="M2003.87,-89.02C1982.64,-71.99 1946.76,-45.29 1912,-29 1904.01,-25.25 1895.13,-22.1 1886.51,-19.5"/>
<polygon fill="midnightblue" stroke="midnightblue" points="2001.81,-91.85 2011.77,-95.45 2006.23,-86.42 2001.81,-91.85"/>
</g>
<!-- Node4 -->
<g id="node4" class="node">
<title>Node4</title>
<g id="a_node4"><a xlink:href="group__app__io__internal.html#ga3be92476a2c2c12d68c0cd07795c7e34" target="_top" xlink:title="Any now timed out delayed packet is transmitted, along with any packets associated with requested obs...">
<polygon fill="white" stroke="black" points="1126,-114.5 1126,-133.5 1252,-133.5 1252,-114.5 1126,-114.5"/>
<text text-anchor="middle" x="1189" y="-121.5" font-family="Helvetica,sans-Serif" font-size="10.00">coap_io_prepare_epoll</text>
</a>
</g>
</g>
<!-- Node3&#45;&gt;Node4 -->
<g id="edge3" class="edge">
<title>Node3&#45;&gt;Node4</title>
<path fill="none" stroke="midnightblue" d="M1302.66,-150.1C1279.61,-144.76 1252.78,-138.55 1231.09,-133.52"/>
<polygon fill="midnightblue" stroke="midnightblue" points="1302.08,-153.56 1312.62,-152.41 1303.66,-146.74 1302.08,-153.56"/>
</g>
<!-- Node6 -->
<g id="node6" class="node">
<title>Node6</title>
<g id="a_node6"><a xlink:href="group__app__io.html#ga2758ed5fdd6ce79ec95ea8dbf72a5644" target="_top" xlink:title="The main message processing loop with additional fds for internal select.">
<polygon fill="white" stroke="black" points="810,-95.5 810,-114.5 953,-114.5 953,-95.5 810,-95.5"/>
<text text-anchor="middle" x="881.5" y="-102.5" font-family="Helvetica,sans-Serif" font-size="10.00">coap_io_process_with_fds</text>
</a>
</g>
</g>
<!-- Node3&#45;&gt;Node6 -->
<g id="edge16" class="edge">
<title>Node3&#45;&gt;Node6</title>
<path fill="none" stroke="midnightblue" d="M1289.29,-158.64C1216.07,-154.22 1093.4,-144.94 989,-128 966.69,-124.38 942,-119.13 922.02,-114.56"/>
<polygon fill="midnightblue" stroke="midnightblue" points="1289.1,-162.13 1299.29,-159.23 1289.51,-155.14 1289.1,-162.13"/>
</g>
<!-- Node16 -->
<g id="node16" class="node">
<title>Node16</title>
<g id="a_node16"><a xlink:href="coap__net_8h.html#ab54010e3cade80e1417870c87dcd0402" target="_top" xlink:title=" ">
<polygon fill="white" stroke="black" points="1154,-190.5 1154,-209.5 1224,-209.5 1224,-190.5 1154,-190.5"/>
<text text-anchor="middle" x="1189" y="-197.5" font-family="Helvetica,sans-Serif" font-size="10.00">coap_write</text>
</a>
</g>
</g>
<!-- Node3&#45;&gt;Node16 -->
<g id="edge17" class="edge">
<title>Node3&#45;&gt;Node16</title>
<path fill="none" stroke="midnightblue" d="M1302.71,-173.89C1277.13,-179.81 1246.89,-186.82 1224.18,-192.08"/>
<polygon fill="midnightblue" stroke="midnightblue" points="1303.66,-177.26 1312.62,-171.59 1302.08,-170.44 1303.66,-177.26"/>
</g>
<!-- Node5 -->
<g id="node5" class="node">
<title>Node5</title>
<g id="a_node5"><a xlink:href="group__app__io__internal.html#ga503f851fa137eb8a9c2936e2098c5eb9" target="_top" xlink:title="Process all the epoll events.">
<polygon fill="white" stroke="black" points="989,-76.5 989,-95.5 1090,-95.5 1090,-76.5 989,-76.5"/>
<text text-anchor="middle" x="1039.5" y="-83.5" font-family="Helvetica,sans-Serif" font-size="10.00">coap_io_do_epoll</text>
</a>
</g>
</g>
<!-- Node4&#45;&gt;Node5 -->
<g id="edge4" class="edge">
<title>Node4&#45;&gt;Node5</title>
<path fill="none" stroke="midnightblue" d="M1140.99,-111.89C1120.44,-106.6 1096.7,-100.48 1077.45,-95.52"/>
<polygon fill="midnightblue" stroke="midnightblue" points="1140.22,-115.31 1150.78,-114.41 1141.97,-108.53 1140.22,-115.31"/>
</g>
<!-- Node4&#45;&gt;Node6 -->
<g id="edge15" class="edge">
<title>Node4&#45;&gt;Node6</title>
<path fill="none" stroke="midnightblue" d="M1115.58,-119.5C1066.47,-116.44 1001.89,-112.42 953.16,-109.39"/>
<polygon fill="midnightblue" stroke="midnightblue" points="1115.61,-123 1125.81,-120.13 1116.05,-116.02 1115.61,-123"/>
</g>
<!-- Node5&#45;&gt;Node6 -->
<g id="edge5" class="edge">
<title>Node5&#45;&gt;Node6</title>
<path fill="none" stroke="midnightblue" d="M978.69,-93.28C970.33,-94.3 961.68,-95.36 953.14,-96.4"/>
<polygon fill="midnightblue" stroke="midnightblue" points="979.21,-96.75 988.71,-92.06 978.36,-89.8 979.21,-96.75"/>
</g>
<!-- Node7 -->
<g id="node7" class="node">
<title>Node7</title>
<g id="a_node7"><a xlink:href="group__app__io.html#ga082f7bbf15d3f37c31c2a0a5e78ea4cf" target="_top" xlink:title="The main I/O processing function.">
<polygon fill="white" stroke="black" points="677,-95.5 677,-114.5 774,-114.5 774,-95.5 677,-95.5"/>
<text text-anchor="middle" x="725.5" y="-102.5" font-family="Helvetica,sans-Serif" font-size="10.00">coap_io_process</text>
</a>
</g>
</g>
<!-- Node6&#45;&gt;Node7 -->
<g id="edge6" class="edge">
<title>Node6&#45;&gt;Node7</title>
<path fill="none" stroke="midnightblue" d="M799.65,-105C790.99,-105 782.4,-105 774.32,-105"/>
<polygon fill="midnightblue" stroke="midnightblue" points="799.81,-108.5 809.81,-105 799.81,-101.5 799.81,-108.5"/>
</g>
<!-- Node8 -->
<g id="node8" class="node">
<title>Node8</title>
<g id="a_node8"><a xlink:href="group__context__internal.html#ga5d013d40174c7c217b24bf624f9d7310" target="_top" xlink:title="Delay the sending of the first client request until some other negotiation has completed.">
<polygon fill="white" stroke="black" points="513,-133.5 513,-152.5 641,-152.5 641,-133.5 513,-133.5"/>
<text text-anchor="middle" x="577" y="-140.5" font-family="Helvetica,sans-Serif" font-size="10.00">coap_client_delay_first</text>
</a>
</g>
</g>
<!-- Node7&#45;&gt;Node8 -->
<g id="edge7" class="edge">
<title>Node7&#45;&gt;Node8</title>
<path fill="none" stroke="midnightblue" d="M677.8,-117.11C657.4,-122.4 633.82,-128.52 614.7,-133.48"/>
<polygon fill="midnightblue" stroke="midnightblue" points="678.73,-120.49 687.53,-114.59 676.97,-113.71 678.73,-120.49"/>
</g>
<!-- Node14 -->
<g id="node14" class="node">
<title>Node14</title>
<g id="a_node14"><a xlink:href="group__app__io.html#gaca10debdb496ee890c45fe49a5799330" target="_top" xlink:title="Check to see if there is any i/o pending for the context.">
<polygon fill="white" stroke="black" points="528,-95.5 528,-114.5 626,-114.5 626,-95.5 528,-95.5"/>
<text text-anchor="middle" x="577" y="-102.5" font-family="Helvetica,sans-Serif" font-size="10.00">coap_io_pending</text>
</a>
</g>
</g>
<!-- Node7&#45;&gt;Node14 -->
<g id="edge13" class="edge">
<title>Node7&#45;&gt;Node14</title>
<path fill="none" stroke="midnightblue" d="M666.8,-105C653.31,-105 639.09,-105 626.08,-105"/>
<polygon fill="midnightblue" stroke="midnightblue" points="666.94,-108.5 676.94,-105 666.94,-101.5 666.94,-108.5"/>
</g>
<!-- Node15 -->
<g id="node15" class="node">
<title>Node15</title>
<g id="a_node15"><a xlink:href="coap__net_8h.html#ac6b34aa979ec545eb710e45a26c98fc1" target="_top" xlink:title=" ">
<polygon fill="white" stroke="black" points="532.5,-57.5 532.5,-76.5 621.5,-76.5 621.5,-57.5 532.5,-57.5"/>
<text text-anchor="middle" x="577" y="-64.5" font-family="Helvetica,sans-Serif" font-size="10.00">coap_run_once</text>
</a>
</g>
</g>
<!-- Node7&#45;&gt;Node15 -->
<g id="edge14" class="edge">
<title>Node7&#45;&gt;Node15</title>
<path fill="none" stroke="midnightblue" d="M677.8,-92.89C657.4,-87.6 633.82,-81.48 614.7,-76.52"/>
<polygon fill="midnightblue" stroke="midnightblue" points="676.97,-96.29 687.53,-95.41 678.73,-89.51 676.97,-96.29"/>
</g>
<!-- Node9 -->
<g id="node9" class="node">
<title>Node9</title>
<g id="a_node9"><a xlink:href="group__context.html#gaeadf53fc0202c2a9c881406d4aa12a4c" target="_top" xlink:title="Sends a CoAP message to given peer.">
<polygon fill="white" stroke="black" points="364.5,-152.5 364.5,-171.5 432.5,-171.5 432.5,-152.5 364.5,-152.5"/>
<text text-anchor="middle" x="398.5" y="-159.5" font-family="Helvetica,sans-Serif" font-size="10.00">coap_send</text>
</a>
</g>
</g>
<!-- Node8&#45;&gt;Node9 -->
<g id="edge8" class="edge">
<title>Node8&#45;&gt;Node9</title>
<path fill="none" stroke="midnightblue" d="M502.8,-150.88C478.4,-153.51 452.41,-156.3 432.61,-158.44"/>
<polygon fill="midnightblue" stroke="midnightblue" points="503.21,-154.36 512.78,-149.81 502.46,-147.4 503.21,-154.36"/>
</g>
<!-- Node10 -->
<g id="node10" class="node">
<title>Node10</title>
<g id="a_node10"><a xlink:href="group__session.html#ga4368ee622c681bf7cf0b7cfe99c8ab37" target="_top" xlink:title="Get maximum acceptable PDU size.">
<polygon fill="white" stroke="black" points="320,-114.5 320,-133.5 477,-133.5 477,-114.5 320,-114.5"/>
<text text-anchor="middle" x="398.5" y="-121.5" font-family="Helvetica,sans-Serif" font-size="10.00">coap_session_max_pdu_size</text>
</a>
</g>
</g>
<!-- Node8&#45;&gt;Node10 -->
<g id="edge9" class="edge">
<title>Node8&#45;&gt;Node10</title>
<path fill="none" stroke="midnightblue" d="M502.61,-135.1C494.17,-134.19 485.56,-133.26 477.07,-132.35"/>
<polygon fill="midnightblue" stroke="midnightblue" points="502.46,-138.6 512.78,-136.19 503.21,-131.64 502.46,-138.6"/>
</g>
<!-- Node11 -->
<g id="node11" class="node">
<title>Node11</title>
<g id="a_node11"><a xlink:href="group__pdu.html#ga6ab63e25c7c9eed3de00b0e1153b33b6" target="_top" xlink:title="Creates a new CoAP PDU.">
<polygon fill="white" stroke="black" points="183,-133.5 183,-152.5 272,-152.5 272,-133.5 183,-133.5"/>
<text text-anchor="middle" x="227.5" y="-140.5" font-family="Helvetica,sans-Serif" font-size="10.00">coap_new_pdu</text>
</a>
</g>
</g>
<!-- Node10&#45;&gt;Node11 -->
<g id="edge10" class="edge">
<title>Node10&#45;&gt;Node11</title>
<path fill="none" stroke="midnightblue" d="M309.96,-133.84C296.93,-135.31 284,-136.76 272.4,-138.06"/>
<polygon fill="midnightblue" stroke="midnightblue" points="310.38,-137.32 319.92,-132.72 309.6,-130.36 310.38,-137.32"/>
</g>
<!-- Node12 -->
<g id="node12" class="node">
<title>Node12</title>
<g id="a_node12"><a xlink:href="group__pdu.html#gabf10450d37381b133fb780480b4fca1b" target="_top" xlink:title="Duplicate an existing PDU.">
<polygon fill="white" stroke="black" points="171,-95.5 171,-114.5 284,-114.5 284,-95.5 171,-95.5"/>
<text text-anchor="middle" x="227.5" y="-102.5" font-family="Helvetica,sans-Serif" font-size="10.00">coap_pdu_duplicate</text>
</a>
</g>
</g>
<!-- Node10&#45;&gt;Node12 -->
<g id="edge11" class="edge">
<title>Node10&#45;&gt;Node12</title>
<path fill="none" stroke="midnightblue" d="M309.8,-114.14C301.17,-113.17 292.59,-112.21 284.41,-111.29"/>
<polygon fill="midnightblue" stroke="midnightblue" points="309.6,-117.64 319.92,-115.28 310.38,-110.68 309.6,-117.64"/>
</g>
<!-- Node13 -->
<g id="node13" class="node">
<title>Node13</title>
<g id="a_node13"><a xlink:href="group__oscore__internal.html#ga8cf885624714b9a4705974adf2629cb2" target="_top" xlink:title=" ">
<polygon fill="white" stroke="black" points="0,-95.5 0,-114.5 135,-114.5 135,-95.5 0,-95.5"/>
<text text-anchor="middle" x="67.5" y="-102.5" font-family="Helvetica,sans-Serif" font-size="10.00">oscore_new_association</text>
</a>
</g>
</g>
<!-- Node12&#45;&gt;Node13 -->
<g id="edge12" class="edge">
<title>Node12&#45;&gt;Node13</title>
<path fill="none" stroke="midnightblue" d="M160.62,-105C152.18,-105 143.53,-105 135.07,-105"/>
<polygon fill="midnightblue" stroke="midnightblue" points="160.8,-108.5 170.8,-105 160.8,-101.5 160.8,-108.5"/>
</g>
<!-- Node17&#45;&gt;Node5 -->
<g id="edge19" class="edge">
<title>Node17&#45;&gt;Node5</title>
<path fill="none" stroke="midnightblue" d="M1124.1,-75.23C1112.84,-76.68 1101.26,-78.17 1090.45,-79.57"/>
<polygon fill="midnightblue" stroke="midnightblue" points="1124.86,-78.66 1134.33,-73.91 1123.97,-71.72 1124.86,-78.66"/>
</g>
<!-- Node18 -->
<g id="node18" class="node">
<title>Node18</title>
<g id="a_node18"><a xlink:href="group__app__io__internal.html#ga2208802b0711ad20df07271b751b41dc" target="_top" xlink:title="Processes any outstanding read, write, accept or connect I/O as indicated in the coap_socket_t struct...">
<polygon fill="white" stroke="black" points="996.5,-38.5 996.5,-57.5 1082.5,-57.5 1082.5,-38.5 996.5,-38.5"/>
<text text-anchor="middle" x="1039.5" y="-45.5" font-family="Helvetica,sans-Serif" font-size="10.00">coap_io_do_io</text>
</a>
</g>
</g>
<!-- Node17&#45;&gt;Node18 -->
<g id="edge20" class="edge">
<title>Node17&#45;&gt;Node18</title>
<path fill="none" stroke="midnightblue" d="M1124.24,-58.79C1110.23,-56.98 1095.72,-55.11 1082.8,-53.45"/>
<polygon fill="midnightblue" stroke="midnightblue" points="1123.97,-62.28 1134.33,-60.09 1124.86,-55.34 1123.97,-62.28"/>
</g>
<!-- Node18&#45;&gt;Node6 -->
<g id="edge21" class="edge">
<title>Node18&#45;&gt;Node6</title>
<path fill="none" stroke="midnightblue" d="M1002.74,-61.07C974.07,-71.54 934.49,-86.01 908.7,-95.43"/>
<polygon fill="midnightblue" stroke="midnightblue" points="1004.2,-64.26 1012.39,-57.54 1001.8,-57.69 1004.2,-64.26"/>
</g>
<!-- Node19 -->
<g id="node19" class="node">
<title>Node19</title>
<g id="a_node19"><a xlink:href="coap__net_8h.html#af937985e2b14a287a849663574d59bcb" target="_top" xlink:title=" ">
<polygon fill="white" stroke="black" points="848,-38.5 848,-57.5 915,-57.5 915,-38.5 848,-38.5"/>
<text text-anchor="middle" x="881.5" y="-45.5" font-family="Helvetica,sans-Serif" font-size="10.00">coap_read</text>
</a>
</g>
</g>
<!-- Node18&#45;&gt;Node19 -->
<g id="edge22" class="edge">
<title>Node18&#45;&gt;Node19</title>
<path fill="none" stroke="midnightblue" d="M986.15,-48C962.74,-48 935.87,-48 915.35,-48"/>
<polygon fill="midnightblue" stroke="midnightblue" points="986.28,-51.5 996.28,-48 986.28,-44.5 986.28,-51.5"/>
</g>
<!-- Node21 -->
<g id="node21" class="node">
<title>Node21</title>
<g id="a_node21"><a xlink:href="group__session__internal.html#ga8188aaad0d95aaaa7f517c5b0baffc27" target="_top" xlink:title="Layer function interface for layer below session accept/connect being established.">
<polygon fill="white" stroke="black" points="1609,-76.5 1609,-95.5 1740,-95.5 1740,-76.5 1609,-76.5"/>
<text text-anchor="middle" x="1674.5" y="-83.5" font-family="Helvetica,sans-Serif" font-size="10.00">coap_session_establish</text>
</a>
</g>
</g>
<!-- Node20&#45;&gt;Node21 -->
<g id="edge24" class="edge">
<title>Node20&#45;&gt;Node21</title>
<path fill="none" stroke="midnightblue" d="M1765.56,-86C1757.09,-86 1748.53,-86 1740.23,-86"/>
<polygon fill="midnightblue" stroke="midnightblue" points="1765.84,-89.5 1775.84,-86 1765.84,-82.5 1765.84,-89.5"/>
</g>
<!-- Node24 -->
<g id="node24" class="node">
<title>Node24</title>
<g id="a_node24"><a xlink:href="group__context__internal.html#ga7bb944fc52f772655356d95724317401" target="_top" xlink:title="Dispatches the PDUs from the receive queue in given context.">
<polygon fill="white" stroke="black" points="1631.5,-13.5 1631.5,-32.5 1717.5,-32.5 1717.5,-13.5 1631.5,-13.5"/>
<text text-anchor="middle" x="1674.5" y="-20.5" font-family="Helvetica,sans-Serif" font-size="10.00">coap_dispatch</text>
</a>
</g>
</g>
<!-- Node23&#45;&gt;Node24 -->
<g id="edge27" class="edge">
<title>Node23&#45;&gt;Node24</title>
<path fill="none" stroke="midnightblue" d="M1783.92,-14.59C1762.05,-16.28 1737.71,-18.17 1717.64,-19.73"/>
<polygon fill="midnightblue" stroke="midnightblue" points="1784.4,-18.06 1794.1,-13.8 1783.86,-11.08 1784.4,-18.06"/>
</g>
<!-- Node24&#45;&gt;Node17 -->
<g id="edge31" class="edge">
<title>Node24&#45;&gt;Node17</title>
<path fill="none" stroke="midnightblue" d="M1621.27,-22.6C1546.86,-22.74 1406.26,-25.61 1288,-43 1265.82,-46.26 1241.32,-52.26 1222.36,-57.45"/>
<polygon fill="midnightblue" stroke="midnightblue" points="1621.32,-26.1 1631.32,-22.6 1621.32,-19.1 1621.32,-26.1"/>
</g>
<!-- Node25 -->
<g id="node25" class="node">
<title>Node25</title>
<g id="a_node25"><a xlink:href="group__context__internal.html#gae6b8ca457dd41f23372f9e9a7159312b" target="_top" xlink:title="Parses and interprets a CoAP datagram with context ctx.">
<polygon fill="white" stroke="black" points="1458,-54.5 1458,-73.5 1573,-73.5 1573,-54.5 1458,-54.5"/>
<text text-anchor="middle" x="1515.5" y="-61.5" font-family="Helvetica,sans-Serif" font-size="10.00">coap_handle_dgram</text>
</a>
</g>
</g>
<!-- Node24&#45;&gt;Node25 -->
<g id="edge28" class="edge">
<title>Node24&#45;&gt;Node25</title>
<path fill="none" stroke="midnightblue" d="M1627.25,-35.08C1603.56,-41.27 1575.12,-48.69 1552.99,-54.47"/>
<polygon fill="midnightblue" stroke="midnightblue" points="1628.3,-38.42 1637.09,-32.51 1626.53,-31.65 1628.3,-38.42"/>
</g>
<!-- Node26 -->
<g id="node26" class="node">
<title>Node26</title>
<g id="a_node26"><a xlink:href="coap__net_8c.html#a8534f7860b14e0743529daff196a27ce" target="_top" xlink:title=" ">
<polygon fill="white" stroke="black" points="1288,-52 1288,-82 1422,-82 1422,-52 1288,-52"/>
<text text-anchor="start" x="1296" y="-70" font-family="Helvetica,sans-Serif" font-size="10.00">coap_handle_dgram_for</text>
<text text-anchor="middle" x="1355" y="-59" font-family="Helvetica,sans-Serif" font-size="10.00">_proto</text>
</a>
</g>
</g>
<!-- Node25&#45;&gt;Node26 -->
<g id="edge29" class="edge">
<title>Node25&#45;&gt;Node26</title>
<path fill="none" stroke="midnightblue" d="M1447.56,-65.27C1439.13,-65.43 1430.51,-65.59 1422.1,-65.75"/>
<polygon fill="midnightblue" stroke="midnightblue" points="1447.79,-68.76 1457.73,-65.07 1447.66,-61.76 1447.79,-68.76"/>
</g>
<!-- Node26&#45;&gt;Node17 -->
<g id="edge30" class="edge">
<title>Node26&#45;&gt;Node17</title>
<path fill="none" stroke="midnightblue" d="M1277.71,-67C1266.2,-67 1254.54,-67 1243.64,-67"/>
<polygon fill="midnightblue" stroke="midnightblue" points="1277.77,-70.5 1287.77,-67 1277.77,-63.5 1277.77,-70.5"/>
</g>
</g>
</svg>
        <g id="navigator" transform="translate(0 0)" fill="#404254">
                <rect fill="#f2f5e9" fill-opacity="0.5" stroke="#606060" stroke-width=".5" x="0" y="0" width="60" height="60"/>
                <use id="zoomplus" xlink:href="#zoomPlus" x="17" y="9" onmousedown="handleZoom(evt,'in')"/>
                <use id="zoomminus" xlink:href="#zoomMin" x="42" y="9" onmousedown="handleZoom(evt,'out')"/>
                <use id="reset" xlink:href="#resetDef" x="30" y="36" onmousedown="handleReset()"/>
                <g id="arrowUp" xlink:href="#dirArrow" transform="translate(30 24)" onmousedown="handlePan(0,-1)">
                  <use xlink:href="#rim" fill="#404040">
                        <set attributeName="fill" to="#808080" begin="arrowUp.mouseover" end="arrowUp.mouseout"/>
                  </use>
                  <path fill="none" stroke="white" stroke-width="1.5" d="M0,-3.0v7 M-2.5,-0.5L0,-3.0L2.5,-0.5"/>
                </g>
                <g id="arrowRight" xlink:href="#dirArrow" transform="rotate(90) translate(36 -43)" onmousedown="handlePan(1,0)">
                  <use xlink:href="#rim" fill="#404040">
                        <set attributeName="fill" to="#808080" begin="arrowRight.mouseover" end="arrowRight.mouseout"/>
                  </use>
                  <path fill="none" stroke="white" stroke-width="1.5" d="M0,-3.0v7 M-2.5,-0.5L0,-3.0L2.5,-0.5"/>
                </g>
                <g id="arrowDown" xlink:href="#dirArrow" transform="rotate(180) translate(-30 -48)" onmousedown="handlePan(0,1)">
                  <use xlink:href="#rim" fill="#404040">
                        <set attributeName="fill" to="#808080" begin="arrowDown.mouseover" end="arrowDown.mouseout"/>
                  </use>
                  <path fill="none" stroke="white" stroke-width="1.5" d="M0,-3.0v7 M-2.5,-0.5L0,-3.0L2.5,-0.5"/>
                </g>
                <g id="arrowLeft" xlink:href="#dirArrow" transform="rotate(270) translate(-36 17)" onmousedown="handlePan(-1,0)">
                  <use xlink:href="#rim" fill="#404040">
                        <set attributeName="fill" to="#808080" begin="arrowLeft.mouseover" end="arrowLeft.mouseout"/>
                  </use>
                  <path fill="none" stroke="white" stroke-width="1.5" d="M0,-3.0v7 M-2.5,-0.5L0,-3.0L2.5,-0.5"/>
                </g>
        </g>
        <svg viewBox="0 0 15 15" width="100%" height="30px" preserveAspectRatio="xMaxYMin meet">
         <g id="arrow_out" transform="scale(0.3 0.3)">
          <a xlink:href="group__session_gad3377d3198c10fa086502035ded9c268_icgraph_org.svg" target="_base">
           <rect id="button" ry="5" rx="5" y="6" x="6" height="38" width="38"
                fill="#f2f5e9" fill-opacity="0.5" stroke="#606060" stroke-width="1.0"/>
           <path id="arrow"
             d="M 11.500037,31.436501 C 11.940474,20.09759 22.043105,11.32322 32.158766,21.979434 L 37.068811,17.246167 C 37.068811,17.246167 37.088388,32 37.088388,32 L 22.160133,31.978069 C 22.160133,31.978069 26.997745,27.140456 26.997745,27.140456 C 18.528582,18.264221 13.291696,25.230495 11.500037,31.436501 z"
             style="fill:#404040;"/>
          </a>
         </g>
        </svg>
</svg>
