<?xml version="1.0" encoding="UTF-8" standalone="no"?>
<!DOCTYPE svg PUBLIC "-//W3C//DTD SVG 1.1//EN"
 "http://www.w3.org/Graphics/SVG/1.1/DTD/svg11.dtd">
<!-- Generated by graphviz version 2.43.0 (0)
 -->
<!-- Title: coap_netif_strm_read Pages: 1 -->
<svg width="589pt" height="132pt"
 viewBox="0.00 0.00 589.00 131.50" xmlns="http://www.w3.org/2000/svg" xmlns:xlink="http://www.w3.org/1999/xlink">
<g id="graph0" class="graph" transform="scale(1 1) rotate(0) translate(4 127.5)">
<title>coap_netif_strm_read</title>
<polygon fill="white" stroke="transparent" points="-4,4 -4,-127.5 585,-127.5 585,4 -4,4"/>
<!-- Node1 -->
<g id="node1" class="node">
<title>Node1</title>
<g id="a_node1"><a xlink:title="Function interface for layer data stream receiving.">
<polygon fill="#bfbfbf" stroke="black" points="0,-25 0,-44 122,-44 122,-25 0,-25"/>
<text text-anchor="middle" x="61" y="-32" font-family="Helvetica,sans-Serif" font-size="10.00">coap_netif_strm_read</text>
</a>
</g>
</g>
<!-- Node2 -->
<g id="node2" class="node">
<title>Node2</title>
<g id="a_node2"><a xlink:href="group__logging.html#gabf09c67f27059ca278900e7e8fdd475e" target="_top" xlink:title="Get session description.">
<polygon fill="white" stroke="black" points="160,-63 160,-82 260,-82 260,-63 160,-63"/>
<text text-anchor="middle" x="210" y="-70" font-family="Helvetica,sans-Serif" font-size="10.00">coap_session_str</text>
</a>
</g>
</g>
<!-- Node1&#45;&gt;Node2 -->
<g id="edge1" class="edge">
<title>Node1&#45;&gt;Node2</title>
<path fill="none" stroke="midnightblue" d="M99.09,-44.09C118.32,-49.06 141.99,-55.18 162.43,-60.46"/>
<polygon fill="midnightblue" stroke="midnightblue" points="161.61,-63.87 172.17,-62.98 163.37,-57.09 161.61,-63.87"/>
</g>
<!-- Node7 -->
<g id="node7" class="node">
<title>Node7</title>
<g id="a_node7"><a xlink:href="coap__io_8c.html#a2bbd598665f98a1e2f899b475f01618b" target="_top" xlink:title="Function interface for data stream receiving off a socket.">
<polygon fill="white" stroke="black" points="158,-25 158,-44 262,-44 262,-25 158,-25"/>
<text text-anchor="middle" x="210" y="-32" font-family="Helvetica,sans-Serif" font-size="10.00">coap_socket_read</text>
</a>
</g>
</g>
<!-- Node1&#45;&gt;Node7 -->
<g id="edge6" class="edge">
<title>Node1&#45;&gt;Node7</title>
<path fill="none" stroke="midnightblue" d="M122.21,-34.5C130.56,-34.5 139.14,-34.5 147.5,-34.5"/>
<polygon fill="midnightblue" stroke="midnightblue" points="147.57,-38 157.57,-34.5 147.57,-31 147.57,-38"/>
</g>
<!-- Node8 -->
<g id="node8" class="node">
<title>Node8</title>
<g id="a_node8"><a xlink:href="coap__io_8c.html#a3d4397c1a2ce78e64c19fdcd25256737" target="_top" xlink:title=" ">
<polygon fill="white" stroke="black" points="298,-6 298,-25 416,-25 416,-6 298,-6"/>
<text text-anchor="middle" x="357" y="-13" font-family="Helvetica,sans-Serif" font-size="10.00">coap_socket_strerror</text>
</a>
</g>
</g>
<!-- Node1&#45;&gt;Node8 -->
<g id="edge9" class="edge">
<title>Node1&#45;&gt;Node8</title>
<path fill="none" stroke="midnightblue" d="M100.98,-24.99C118.32,-21.22 139.06,-17.36 158,-15.5 201.02,-11.28 249.56,-11.21 287.81,-12.23"/>
<polygon fill="midnightblue" stroke="midnightblue" points="287.71,-15.72 297.81,-12.52 287.91,-8.73 287.71,-15.72"/>
</g>
<!-- Node3 -->
<g id="node3" class="node">
<title>Node3</title>
<g id="a_node3"><a xlink:href="group__logging.html#ga9e421197c17712bedbec55e42b4493fc" target="_top" xlink:title="Print the address into the defined buffer.">
<polygon fill="white" stroke="black" points="309.5,-91 309.5,-110 404.5,-110 404.5,-91 309.5,-91"/>
<text text-anchor="middle" x="357" y="-98" font-family="Helvetica,sans-Serif" font-size="10.00">coap_print_addr</text>
</a>
</g>
</g>
<!-- Node2&#45;&gt;Node3 -->
<g id="edge2" class="edge">
<title>Node2&#45;&gt;Node3</title>
<path fill="none" stroke="midnightblue" d="M260.09,-81.98C272.67,-84.41 286.3,-87.04 299.23,-89.54"/>
<polygon fill="midnightblue" stroke="midnightblue" points="298.93,-93.04 309.41,-91.5 300.26,-86.17 298.93,-93.04"/>
</g>
<!-- Node6 -->
<g id="node6" class="node">
<title>Node6</title>
<g id="a_node6"><a xlink:href="coap__session_8c.html#a3a2aa859a36db11e0c195174f907f116" target="_top" xlink:title=" ">
<polygon fill="white" stroke="black" points="305,-53 305,-72 409,-72 409,-53 305,-53"/>
<text text-anchor="middle" x="357" y="-60" font-family="Helvetica,sans-Serif" font-size="10.00">coap_proto_name</text>
</a>
</g>
</g>
<!-- Node2&#45;&gt;Node6 -->
<g id="edge5" class="edge">
<title>Node2&#45;&gt;Node6</title>
<path fill="none" stroke="midnightblue" d="M260.09,-69.11C271.27,-68.34 283.29,-67.51 294.91,-66.71"/>
<polygon fill="midnightblue" stroke="midnightblue" points="295.24,-70.2 304.98,-66.02 294.76,-63.22 295.24,-70.2"/>
</g>
<!-- Node4 -->
<g id="node4" class="node">
<title>Node4</title>
<g id="a_node4"><a xlink:href="coap__address_8c.html#a694f57c7af8d83ebd2fbb8cf9236749d" target="_top" xlink:title="Returns the port from addr in host byte order.">
<polygon fill="white" stroke="black" points="452,-104 452,-123 581,-123 581,-104 452,-104"/>
<text text-anchor="middle" x="516.5" y="-111" font-family="Helvetica,sans-Serif" font-size="10.00">coap_address_get_port</text>
</a>
</g>
</g>
<!-- Node3&#45;&gt;Node4 -->
<g id="edge3" class="edge">
<title>Node3&#45;&gt;Node4</title>
<path fill="none" stroke="midnightblue" d="M404.83,-104.37C416.49,-105.33 429.28,-106.38 441.89,-107.42"/>
<polygon fill="midnightblue" stroke="midnightblue" points="441.69,-110.92 451.94,-108.25 442.26,-103.94 441.69,-110.92"/>
</g>
<!-- Node5 -->
<g id="node5" class="node">
<title>Node5</title>
<g id="a_node5"><a xlink:href="group__logging.html#gace4fa18bde300fa06afd396a0a689031" target="_top" xlink:title="Print the IP address into the defined buffer.">
<polygon fill="white" stroke="black" points="462,-66 462,-85 571,-85 571,-66 462,-66"/>
<text text-anchor="middle" x="516.5" y="-73" font-family="Helvetica,sans-Serif" font-size="10.00">coap_print_ip_addr</text>
</a>
</g>
</g>
<!-- Node3&#45;&gt;Node5 -->
<g id="edge4" class="edge">
<title>Node3&#45;&gt;Node5</title>
<path fill="none" stroke="midnightblue" d="M404.83,-93.07C419.56,-90.73 436.08,-88.11 451.77,-85.62"/>
<polygon fill="midnightblue" stroke="midnightblue" points="452.61,-89.03 461.94,-84 451.51,-82.11 452.61,-89.03"/>
</g>
<!-- Node7&#45;&gt;Node8 -->
<g id="edge7" class="edge">
<title>Node7&#45;&gt;Node8</title>
<path fill="none" stroke="midnightblue" d="M262.12,-27.8C270.44,-26.71 279.18,-25.57 287.83,-24.43"/>
<polygon fill="midnightblue" stroke="midnightblue" points="288.46,-27.88 297.92,-23.11 287.55,-20.94 288.46,-27.88"/>
</g>
<!-- Node9 -->
<g id="node9" class="node">
<title>Node9</title>
<g id="a_node9"><a xlink:href="coap__io_8c.html#a198ae48fdbe1762be87328d3a5f5f4b2" target="_top" xlink:title=" ">
<polygon fill="white" stroke="black" points="459,-0.5 459,-30.5 574,-30.5 574,-0.5 459,-0.5"/>
<text text-anchor="start" x="467" y="-18.5" font-family="Helvetica,sans-Serif" font-size="10.00">coap_socket_format</text>
<text text-anchor="middle" x="516.5" y="-7.5" font-family="Helvetica,sans-Serif" font-size="10.00">_errno</text>
</a>
</g>
</g>
<!-- Node8&#45;&gt;Node9 -->
<g id="edge8" class="edge">
<title>Node8&#45;&gt;Node9</title>
<path fill="none" stroke="midnightblue" d="M416.2,-15.5C426.76,-15.5 437.85,-15.5 448.63,-15.5"/>
<polygon fill="midnightblue" stroke="midnightblue" points="448.85,-19 458.85,-15.5 448.85,-12 448.85,-19"/>
</g>
</g>
</svg>
