<?xml version="1.0" encoding="UTF-8" standalone="no"?>
<!DOCTYPE svg PUBLIC "-//W3C//DTD SVG 1.1//EN"
 "http://www.w3.org/Graphics/SVG/1.1/DTD/svg11.dtd">
<!-- Generated by graphviz version 2.43.0 (0)
 -->
<!-- Title: oscore_enter_context Pages: 1 -->
<svg width="285pt" height="66pt"
 viewBox="0.00 0.00 285.00 66.00" xmlns="http://www.w3.org/2000/svg" xmlns:xlink="http://www.w3.org/1999/xlink">
<g id="graph0" class="graph" transform="scale(1 1) rotate(0) translate(4 62)">
<title>oscore_enter_context</title>
<polygon fill="white" stroke="transparent" points="-4,4 -4,-62 281,-62 281,4 -4,4"/>
<!-- Node1 -->
<g id="node1" class="node">
<title>Node1</title>
<g id="a_node1"><a xlink:title=" ">
<polygon fill="#bfbfbf" stroke="black" points="155,-19.5 155,-38.5 277,-38.5 277,-19.5 155,-19.5"/>
<text text-anchor="middle" x="216" y="-26.5" font-family="Helvetica,sans-Serif" font-size="10.00">oscore_enter_context</text>
</a>
</g>
</g>
<!-- Node2 -->
<g id="node2" class="node">
<title>Node2</title>
<g id="a_node2"><a xlink:href="group__oscore__internal.html#ga8636deef153df3f5c67fba15ff3893c0" target="_top" xlink:title="oscore_derive_ctx &#45; derive a osc_ctx from oscore_conf information">
<polygon fill="white" stroke="black" points="7,-38.5 7,-57.5 112,-57.5 112,-38.5 7,-38.5"/>
<text text-anchor="middle" x="59.5" y="-45.5" font-family="Helvetica,sans-Serif" font-size="10.00">oscore_derive_ctx</text>
</a>
</g>
</g>
<!-- Node1&#45;&gt;Node2 -->
<g id="edge1" class="edge">
<title>Node1&#45;&gt;Node2</title>
<path fill="none" stroke="midnightblue" d="M144.83,-37.63C133.86,-38.98 122.7,-40.35 112.24,-41.64"/>
<polygon fill="midnightblue" stroke="midnightblue" points="145.33,-41.09 154.82,-36.4 144.47,-34.15 145.33,-41.09"/>
</g>
<!-- Node3 -->
<g id="node3" class="node">
<title>Node3</title>
<g id="a_node3"><a xlink:href="group__oscore__internal.html#gac1dcb68cfe7c74e017f67ad7c085a492" target="_top" xlink:title="oscore_duplicate_ctx &#45; duplicate a osc_ctx">
<polygon fill="white" stroke="black" points="0,-0.5 0,-19.5 119,-19.5 119,-0.5 0,-0.5"/>
<text text-anchor="middle" x="59.5" y="-7.5" font-family="Helvetica,sans-Serif" font-size="10.00">oscore_duplicate_ctx</text>
</a>
</g>
</g>
<!-- Node1&#45;&gt;Node3 -->
<g id="edge2" class="edge">
<title>Node1&#45;&gt;Node3</title>
<path fill="none" stroke="midnightblue" d="M144.85,-20.37C136.29,-19.32 127.61,-18.25 119.24,-17.22"/>
<polygon fill="midnightblue" stroke="midnightblue" points="144.47,-23.85 154.82,-21.6 145.33,-16.91 144.47,-23.85"/>
</g>
</g>
</svg>
