<?xml version="1.0" encoding="UTF-8" standalone="no"?>
<!DOCTYPE svg PUBLIC "-//W3C//DTD SVG 1.1//EN"
 "http://www.w3.org/Graphics/SVG/1.1/DTD/svg11.dtd">
<!-- Generated by graphviz version 2.43.0 (0)
 -->
<!-- Title: oscore_log_context Pages: 1 -->
<svg width="460pt" height="162pt"
 viewBox="0.00 0.00 460.00 162.08" xmlns="http://www.w3.org/2000/svg" xmlns:xlink="http://www.w3.org/1999/xlink">
<g id="graph0" class="graph" transform="scale(1 1) rotate(0) translate(4 158.08)">
<title>oscore_log_context</title>
<polygon fill="white" stroke="transparent" points="-4,4 -4,-158.08 456,-158.08 456,4 -4,4"/>
<!-- Node1 -->
<g id="node1" class="node">
<title>Node1</title>
<g id="a_node1"><a xlink:title=" ">
<polygon fill="#bfbfbf" stroke="black" points="0,-76.5 0,-95.5 111,-95.5 111,-76.5 0,-76.5"/>
<text text-anchor="middle" x="55.5" y="-83.5" font-family="Helvetica,sans-Serif" font-size="10.00">oscore_log_context</text>
</a>
</g>
</g>
<!-- Node2 -->
<g id="node2" class="node">
<title>Node2</title>
<g id="a_node2"><a xlink:href="group__logging.html#ga10c3fbd56b0eb3a8722b27a65fc9b0ce" target="_top" xlink:title="Get the current logging level.">
<polygon fill="white" stroke="black" points="332.5,-95.5 332.5,-114.5 442.5,-114.5 442.5,-95.5 332.5,-95.5"/>
<text text-anchor="middle" x="387.5" y="-102.5" font-family="Helvetica,sans-Serif" font-size="10.00">coap_get_log_level</text>
</a>
</g>
</g>
<!-- Node1&#45;&gt;Node2 -->
<g id="edge1" class="edge">
<title>Node1&#45;&gt;Node2</title>
<path fill="none" stroke="midnightblue" d="M67.2,-95.64C83.19,-109.32 114.89,-133.73 147,-143 206.78,-160.26 225.81,-154.29 287,-143 312.05,-138.38 338.94,-127.73 358.45,-118.88"/>
<polygon fill="midnightblue" stroke="midnightblue" points="360.07,-121.98 367.66,-114.58 357.12,-115.64 360.07,-121.98"/>
</g>
<!-- Node3 -->
<g id="node3" class="node">
<title>Node3</title>
<g id="a_node3"><a xlink:href="group__oscore__cose__internal.html#ga6fae5cf0910dfaea25728ba9998a7dc9" target="_top" xlink:title=" ">
<polygon fill="white" stroke="black" points="160.5,-114.5 160.5,-133.5 273.5,-133.5 273.5,-114.5 160.5,-114.5"/>
<text text-anchor="middle" x="217" y="-121.5" font-family="Helvetica,sans-Serif" font-size="10.00">cose_get_alg_name</text>
</a>
</g>
</g>
<!-- Node1&#45;&gt;Node3 -->
<g id="edge2" class="edge">
<title>Node1&#45;&gt;Node3</title>
<path fill="none" stroke="midnightblue" d="M96.75,-95.59C117.8,-100.6 143.76,-106.79 166.07,-112.11"/>
<polygon fill="midnightblue" stroke="midnightblue" points="165.5,-115.57 176.04,-114.48 167.12,-108.76 165.5,-115.57"/>
</g>
<!-- Node4 -->
<g id="node4" class="node">
<title>Node4</title>
<g id="a_node4"><a xlink:href="group__oscore__cose__internal.html#ga1dfbe43a087cca73cc5d30330ec0c30a" target="_top" xlink:title=" ">
<polygon fill="white" stroke="black" points="147,-76.5 147,-95.5 287,-95.5 287,-76.5 147,-76.5"/>
<text text-anchor="middle" x="217" y="-83.5" font-family="Helvetica,sans-Serif" font-size="10.00">cose_get_hkdf_alg_name</text>
</a>
</g>
</g>
<!-- Node1&#45;&gt;Node4 -->
<g id="edge3" class="edge">
<title>Node1&#45;&gt;Node4</title>
<path fill="none" stroke="midnightblue" d="M111.39,-86C119.62,-86 128.23,-86 136.84,-86"/>
<polygon fill="midnightblue" stroke="midnightblue" points="136.92,-89.5 146.92,-86 136.92,-82.5 136.92,-89.5"/>
</g>
<!-- Node5 -->
<g id="node5" class="node">
<title>Node5</title>
<g id="a_node5"><a xlink:href="group__oscore__internal.html#ga9333d6a2964e7a5daa3bed7a8e69d4c8" target="_top" xlink:title=" ">
<polygon fill="white" stroke="black" points="153,-38.5 153,-57.5 281,-57.5 281,-38.5 153,-38.5"/>
<text text-anchor="middle" x="217" y="-45.5" font-family="Helvetica,sans-Serif" font-size="10.00">oscore_log_char_value</text>
</a>
</g>
</g>
<!-- Node1&#45;&gt;Node5 -->
<g id="edge4" class="edge">
<title>Node1&#45;&gt;Node5</title>
<path fill="none" stroke="midnightblue" d="M96.75,-76.41C117.8,-71.4 143.76,-65.21 166.07,-59.89"/>
<polygon fill="midnightblue" stroke="midnightblue" points="167.12,-63.24 176.04,-57.52 165.5,-56.43 167.12,-63.24"/>
</g>
<!-- Node6 -->
<g id="node6" class="node">
<title>Node6</title>
<g id="a_node6"><a xlink:href="group__oscore__internal.html#gab2d37fe626ea8df2d772b49b0782af60" target="_top" xlink:title=" ">
<polygon fill="white" stroke="black" points="154.5,-0.5 154.5,-19.5 279.5,-19.5 279.5,-0.5 154.5,-0.5"/>
<text text-anchor="middle" x="217" y="-7.5" font-family="Helvetica,sans-Serif" font-size="10.00">oscore_log_hex_value</text>
</a>
</g>
</g>
<!-- Node1&#45;&gt;Node6 -->
<g id="edge5" class="edge">
<title>Node1&#45;&gt;Node6</title>
<path fill="none" stroke="midnightblue" d="M69.02,-76.43C85.89,-63.93 117.27,-42.11 147,-29 152.39,-26.62 158.15,-24.47 163.96,-22.55"/>
<polygon fill="midnightblue" stroke="midnightblue" points="165.2,-25.83 173.72,-19.53 163.13,-19.14 165.2,-25.83"/>
</g>
<!-- Node6&#45;&gt;Node2 -->
<g id="edge6" class="edge">
<title>Node6&#45;&gt;Node2</title>
<path fill="none" stroke="midnightblue" d="M262.37,-19.5C270.77,-22.05 279.32,-25.19 287,-29 318.72,-44.74 350.36,-71.22 369.18,-88.4"/>
<polygon fill="midnightblue" stroke="midnightblue" points="366.94,-91.1 376.65,-95.35 371.71,-85.98 366.94,-91.1"/>
</g>
<!-- Node7 -->
<g id="node7" class="node">
<title>Node7</title>
<g id="a_node7"><a xlink:href="group__oscore__internal.html#ga128f951701c2f5e26658600c9c3be9a4" target="_top" xlink:title=" ">
<polygon fill="white" stroke="black" points="323,-0.5 323,-19.5 452,-19.5 452,-0.5 323,-0.5"/>
<text text-anchor="middle" x="387.5" y="-7.5" font-family="Helvetica,sans-Serif" font-size="10.00">oscore_convert_to_hex</text>
</a>
</g>
</g>
<!-- Node6&#45;&gt;Node7 -->
<g id="edge7" class="edge">
<title>Node6&#45;&gt;Node7</title>
<path fill="none" stroke="midnightblue" d="M279.79,-10C290.5,-10 301.74,-10 312.73,-10"/>
<polygon fill="midnightblue" stroke="midnightblue" points="312.74,-13.5 322.74,-10 312.74,-6.5 312.74,-13.5"/>
</g>
</g>
</svg>
