<?xml version="1.0" encoding="UTF-8" standalone="no"?>
<!DOCTYPE svg PUBLIC "-//W3C//DTD SVG 1.1//EN"
 "http://www.w3.org/Graphics/SVG/1.1/DTD/svg11.dtd">
<!-- Generated by graphviz version 2.43.0 (0)
 -->
<!-- Title: coap_packet_t Pages: 1 -->
<svg width="114pt" height="240pt"
 viewBox="0.00 0.00 114.00 240.00" xmlns="http://www.w3.org/2000/svg" xmlns:xlink="http://www.w3.org/1999/xlink">
<g id="graph0" class="graph" transform="scale(1 1) rotate(0) translate(4 236)">
<title>coap_packet_t</title>
<polygon fill="white" stroke="transparent" points="-4,4 -4,-236 110,-236 110,4 -4,4"/>
<!-- Node1 -->
<g id="node1" class="node">
<title>Node1</title>
<g id="a_node1"><a xlink:title=" ">
<polygon fill="#bfbfbf" stroke="black" points="10,-0.5 10,-19.5 96,-19.5 96,-0.5 10,-0.5"/>
<text text-anchor="middle" x="53" y="-7.5" font-family="Helvetica,sans-Serif" font-size="10.00">coap_packet_t</text>
</a>
</g>
</g>
<!-- Node2 -->
<g id="node2" class="node">
<title>Node2</title>
<g id="a_node2"><a xlink:href="structcoap__addr__tuple__t.html" target="_top" xlink:title=" ">
<polygon fill="white" stroke="black" points="0,-67.5 0,-86.5 106,-86.5 106,-67.5 0,-67.5"/>
<text text-anchor="middle" x="53" y="-74.5" font-family="Helvetica,sans-Serif" font-size="10.00">coap_addr_tuple_t</text>
</a>
</g>
</g>
<!-- Node2&#45;&gt;Node1 -->
<g id="edge1" class="edge">
<title>Node2&#45;&gt;Node1</title>
<path fill="none" stroke="#9a32cd" stroke-dasharray="5,2" d="M53,-57.04C53,-44.67 53,-29.12 53,-19.63"/>
<polygon fill="#9a32cd" stroke="#9a32cd" points="49.5,-57.23 53,-67.23 56.5,-57.23 49.5,-57.23"/>
<text text-anchor="middle" x="77.5" y="-41" font-family="Helvetica,sans-Serif" font-size="10.00"> addr_info</text>
</g>
<!-- Node3 -->
<g id="node3" class="node">
<title>Node3</title>
<g id="a_node3"><a xlink:href="structcoap__address__t.html" target="_top" xlink:title="Multi&#45;purpose address abstraction.">
<polygon fill="white" stroke="black" points="7,-145.5 7,-164.5 99,-164.5 99,-145.5 7,-145.5"/>
<text text-anchor="middle" x="53" y="-152.5" font-family="Helvetica,sans-Serif" font-size="10.00">coap_address_t</text>
</a>
</g>
</g>
<!-- Node3&#45;&gt;Node2 -->
<g id="edge2" class="edge">
<title>Node3&#45;&gt;Node2</title>
<path fill="none" stroke="#9a32cd" stroke-dasharray="5,2" d="M53,-135.22C53,-119.7 53,-98.36 53,-86.62"/>
<polygon fill="#9a32cd" stroke="#9a32cd" points="49.5,-135.28 53,-145.28 56.5,-135.28 49.5,-135.28"/>
<text text-anchor="middle" x="71" y="-119" font-family="Helvetica,sans-Serif" font-size="10.00"> local</text>
<text text-anchor="middle" x="71" y="-108" font-family="Helvetica,sans-Serif" font-size="10.00">remote</text>
</g>
<!-- Node4 -->
<g id="node4" class="node">
<title>Node4</title>
<g id="a_node4"><a xlink:href="structcoap__sockaddr__un.html" target="_top" xlink:title=" ">
<polygon fill="white" stroke="black" points="0,-212.5 0,-231.5 106,-231.5 106,-212.5 0,-212.5"/>
<text text-anchor="middle" x="53" y="-219.5" font-family="Helvetica,sans-Serif" font-size="10.00">coap_sockaddr_un</text>
</a>
</g>
</g>
<!-- Node4&#45;&gt;Node3 -->
<g id="edge3" class="edge">
<title>Node4&#45;&gt;Node3</title>
<path fill="none" stroke="#9a32cd" stroke-dasharray="5,2" d="M53,-202.04C53,-189.67 53,-174.12 53,-164.63"/>
<polygon fill="#9a32cd" stroke="#9a32cd" points="49.5,-202.23 53,-212.23 56.5,-202.23 49.5,-202.23"/>
<text text-anchor="middle" x="63.5" y="-186" font-family="Helvetica,sans-Serif" font-size="10.00"> cun</text>
</g>
</g>
</svg>
