<?xml version="1.0" encoding="UTF-8" standalone="no"?>
<!DOCTYPE svg PUBLIC "-//W3C//DTD SVG 1.1//EN"
 "http://www.w3.org/Graphics/SVG/1.1/DTD/svg11.dtd">
<!-- Generated by graphviz version 2.43.0 (0)
 -->
<!-- Title: address.h Pages: 1 -->
<!--zoomable 476 -->
<svg id="main" version="1.1" xmlns="http://www.w3.org/2000/svg" xmlns:xlink="http://www.w3.org/1999/xlink" xml:space="preserve" onload="init(evt)">
<style type="text/css"><![CDATA[
.edge:hover path { stroke: red; }
.edge:hover polygon { stroke: red; fill: red; }
]]></style>
<script type="text/javascript"><![CDATA[
var edges = document.getElementsByTagName('g');
if (edges && edges.length) {
  for (var i=0;i<edges.length;i++) {
    if (edges[i].id.substr(0,4)=='edge') {
      edges[i].setAttribute('class','edge');
    }
  }
}
]]></script>
        <defs>
                <circle id="rim" cx="0" cy="0" r="7"/>
                <circle id="rim2" cx="0" cy="0" r="3.5"/>
                <g id="zoomPlus">
                        <use xlink:href="#rim" fill="#404040">
                                <set attributeName="fill" to="#808080" begin="zoomplus.mouseover" end="zoomplus.mouseout"/>
                        </use>
                        <path d="M-4,0h8M0,-4v8" fill="none" stroke="white" stroke-width="1.5" pointer-events="none"/>
                </g>
                <g id="zoomMin">
                        <use xlink:href="#rim" fill="#404040">
                                <set attributeName="fill" to="#808080" begin="zoomminus.mouseover" end="zoomminus.mouseout"/>
                        </use>
                        <path d="M-4,0h8" fill="none" stroke="white" stroke-width="1.5" pointer-events="none"/>
                </g>
                <g id="dirArrow">
                        <path fill="none" stroke="white" stroke-width="1.5" d="M0,-3.0v7 M-2.5,-0.5L0,-3.0L2.5,-0.5"/>
                </g>
               <g id="resetDef">
                       <use xlink:href="#rim2" fill="#404040">
                               <set attributeName="fill" to="#808080" begin="reset.mouseover" end="reset.mouseout"/>
                       </use>
               </g>
        </defs>

<script type="text/javascript">
var viewWidth = 1865;
var viewHeight = 476;
var sectionId = 'dynsection-1';
</script>
<script xlink:href="svgpan.js"/>
<svg id="graph" class="graph">
<g id="viewport">
<title>address.h</title>
<polygon fill="white" stroke="transparent" points="-4,4 -4,-472 1861,-472 1861,4 -4,4"/>
<!-- Node8 -->
<g id="node1" class="node">
<title>Node8</title>
<polygon fill="#bfbfbf" stroke="black" points="989,-448.5 989,-467.5 1048,-467.5 1048,-448.5 989,-448.5"/>
<text text-anchor="middle" x="1018.5" y="-455.5" font-family="Helvetica,sans-Serif" font-size="10.00">address.h</text>
</g>
<!-- Node9 -->
<g id="node2" class="node">
<title>Node9</title>
<g id="a_node2"><a xlink:href="coap__dtls__gnutls_8c.html" target="_top" xlink:title="coap_dtls_gnutls.c">
<polygon fill="white" stroke="black" points="872.5,-392.5 872.5,-411.5 970.5,-411.5 970.5,-392.5 872.5,-392.5"/>
<text text-anchor="middle" x="921.5" y="-399.5" font-family="Helvetica,sans-Serif" font-size="10.00">coap_dtls_gnutls.c</text>
</a>
</g>
</g>
<!-- Node8&#45;&gt;Node9 -->
<g id="edge1" class="edge">
<title>Node8&#45;&gt;Node9</title>
<path fill="none" stroke="midnightblue" d="M994.16,-443.45C976.26,-433.48 952.45,-420.23 937.05,-411.65"/>
<polygon fill="midnightblue" stroke="midnightblue" points="992.48,-446.52 1002.92,-448.32 995.88,-440.4 992.48,-446.52"/>
</g>
<!-- Node10 -->
<g id="node3" class="node">
<title>Node10</title>
<g id="a_node3"><a xlink:href="coap__io_8h.html" target="_top" xlink:title="coap_io.h">
<polygon fill="white" stroke="black" points="989,-392.5 989,-411.5 1048,-411.5 1048,-392.5 989,-392.5"/>
<text text-anchor="middle" x="1018.5" y="-399.5" font-family="Helvetica,sans-Serif" font-size="10.00">coap_io.h</text>
</a>
</g>
</g>
<!-- Node8&#45;&gt;Node10 -->
<g id="edge2" class="edge">
<title>Node8&#45;&gt;Node10</title>
<path fill="none" stroke="midnightblue" d="M1018.5,-437.8C1018.5,-428.91 1018.5,-418.78 1018.5,-411.75"/>
<polygon fill="midnightblue" stroke="midnightblue" points="1015,-438.08 1018.5,-448.08 1022,-438.08 1015,-438.08"/>
</g>
<!-- Node13 -->
<g id="node6" class="node">
<title>Node13</title>
<g id="a_node6"><a xlink:href="coap_8h.html" target="_top" xlink:title="coap.h">
<polygon fill="white" stroke="black" points="1003.5,-112.5 1003.5,-131.5 1049.5,-131.5 1049.5,-112.5 1003.5,-112.5"/>
<text text-anchor="middle" x="1026.5" y="-119.5" font-family="Helvetica,sans-Serif" font-size="10.00">coap.h</text>
</a>
</g>
</g>
<!-- Node8&#45;&gt;Node13 -->
<g id="edge37" class="edge">
<title>Node8&#45;&gt;Node13</title>
<path fill="none" stroke="midnightblue" d="M1039.81,-442.51C1064.69,-423.68 1102.5,-388.27 1102.5,-347 1102.5,-347 1102.5,-347 1102.5,-233 1102.5,-188.2 1059.3,-148.43 1038.04,-131.57"/>
<polygon fill="midnightblue" stroke="midnightblue" points="1037.65,-439.75 1031.62,-448.46 1041.77,-445.41 1037.65,-439.75"/>
</g>
<!-- Node11 -->
<g id="node4" class="node">
<title>Node11</title>
<g id="a_node4"><a xlink:href="net_8h.html" target="_top" xlink:title="net.h">
<polygon fill="white" stroke="black" points="958.5,-280.5 958.5,-299.5 996.5,-299.5 996.5,-280.5 958.5,-280.5"/>
<text text-anchor="middle" x="977.5" y="-287.5" font-family="Helvetica,sans-Serif" font-size="10.00">net.h</text>
</a>
</g>
</g>
<!-- Node10&#45;&gt;Node11 -->
<g id="edge3" class="edge">
<title>Node10&#45;&gt;Node11</title>
<path fill="none" stroke="midnightblue" d="M980.93,-388.54C965.89,-381.5 950.12,-371.01 941.5,-356 930.07,-336.08 951.94,-312.44 966.33,-299.88"/>
<polygon fill="midnightblue" stroke="midnightblue" points="979.56,-391.76 990.13,-392.49 982.32,-385.33 979.56,-391.76"/>
</g>
<!-- Node10&#45;&gt;Node13 -->
<g id="edge36" class="edge">
<title>Node10&#45;&gt;Node13</title>
<path fill="none" stroke="midnightblue" d="M1030.59,-384C1044.22,-363.14 1064.5,-326.18 1064.5,-291 1064.5,-291 1064.5,-291 1064.5,-233 1064.5,-193.4 1042.23,-149.96 1031.78,-131.77"/>
<polygon fill="midnightblue" stroke="midnightblue" points="1027.62,-382.15 1024.9,-392.39 1033.41,-386.08 1027.62,-382.15"/>
</g>
<!-- Node39 -->
<g id="node32" class="node">
<title>Node39</title>
<g id="a_node32"><a xlink:href="coap__session_8h.html" target="_top" xlink:title="Defines the application visible session information. ">
<polygon fill="white" stroke="black" points="951,-336.5 951,-355.5 1036,-355.5 1036,-336.5 951,-336.5"/>
<text text-anchor="middle" x="993.5" y="-343.5" font-family="Helvetica,sans-Serif" font-size="10.00">coap_session.h</text>
</a>
</g>
</g>
<!-- Node10&#45;&gt;Node39 -->
<g id="edge34" class="edge">
<title>Node10&#45;&gt;Node39</title>
<path fill="none" stroke="midnightblue" d="M1010.16,-382.98C1005.92,-373.82 1000.95,-363.09 997.55,-355.75"/>
<polygon fill="midnightblue" stroke="midnightblue" points="1006.99,-384.48 1014.37,-392.08 1013.35,-381.54 1006.99,-384.48"/>
</g>
<!-- Node12 -->
<g id="node5" class="node">
<title>Node12</title>
<g id="a_node5"><a xlink:href="async_8h.html" target="_top" xlink:title="State management for asynchronous messages. ">
<polygon fill="white" stroke="black" points="898,-224.5 898,-243.5 949,-243.5 949,-224.5 898,-224.5"/>
<text text-anchor="middle" x="923.5" y="-231.5" font-family="Helvetica,sans-Serif" font-size="10.00">async.h</text>
</a>
</g>
</g>
<!-- Node11&#45;&gt;Node12 -->
<g id="edge4" class="edge">
<title>Node11&#45;&gt;Node12</title>
<path fill="none" stroke="midnightblue" d="M961.5,-273C951.93,-263.43 940.14,-251.64 932.25,-243.75"/>
<polygon fill="midnightblue" stroke="midnightblue" points="959.04,-275.49 968.58,-280.08 963.99,-270.54 959.04,-275.49"/>
</g>
<!-- Node11&#45;&gt;Node13 -->
<g id="edge32" class="edge">
<title>Node11&#45;&gt;Node13</title>
<path fill="none" stroke="midnightblue" d="M982.99,-270.59C989.03,-250.35 998.99,-216.87 1007.5,-188 1013.42,-167.93 1020.29,-144.34 1023.93,-131.83"/>
<polygon fill="midnightblue" stroke="midnightblue" points="979.59,-269.77 980.08,-280.36 986.29,-271.77 979.59,-269.77"/>
</g>
<!-- Node38 -->
<g id="node31" class="node">
<title>Node38</title>
<g id="a_node31"><a xlink:href="resource_8h.html" target="_top" xlink:title="Generic resource handling. ">
<polygon fill="white" stroke="black" points="936.5,-168.5 936.5,-187.5 998.5,-187.5 998.5,-168.5 936.5,-168.5"/>
<text text-anchor="middle" x="967.5" y="-175.5" font-family="Helvetica,sans-Serif" font-size="10.00">resource.h</text>
</a>
</g>
</g>
<!-- Node11&#45;&gt;Node38 -->
<g id="edge33" class="edge">
<title>Node11&#45;&gt;Node38</title>
<path fill="none" stroke="midnightblue" d="M975.8,-270.35C973.61,-246.25 969.89,-205.31 968.28,-187.59"/>
<polygon fill="midnightblue" stroke="midnightblue" points="972.32,-270.73 976.72,-280.37 979.3,-270.09 972.32,-270.73"/>
</g>
<!-- Node12&#45;&gt;Node13 -->
<g id="edge5" class="edge">
<title>Node12&#45;&gt;Node13</title>
<path fill="none" stroke="midnightblue" d="M919.81,-214.15C918.16,-200.2 918.29,-181.37 927.5,-168 944.84,-142.81 979.88,-131.48 1003.27,-126.56"/>
<polygon fill="midnightblue" stroke="midnightblue" points="916.37,-214.76 921.39,-224.1 923.28,-213.67 916.37,-214.76"/>
</g>
<!-- Node12&#45;&gt;Node38 -->
<g id="edge30" class="edge">
<title>Node12&#45;&gt;Node38</title>
<path fill="none" stroke="midnightblue" d="M937.23,-216.14C944.9,-206.74 954.13,-195.4 960.37,-187.75"/>
<polygon fill="midnightblue" stroke="midnightblue" points="934.37,-214.12 930.77,-224.08 939.8,-218.54 934.37,-214.12"/>
</g>
<!-- Node14 -->
<g id="node7" class="node">
<title>Node14</title>
<g id="a_node7"><a xlink:href="coap__internal_8h.html" target="_top" xlink:title="Pulls together all the internal only header files. ">
<polygon fill="white" stroke="black" points="985,-56.5 985,-75.5 1068,-75.5 1068,-56.5 985,-56.5"/>
<text text-anchor="middle" x="1026.5" y="-63.5" font-family="Helvetica,sans-Serif" font-size="10.00">coap_internal.h</text>
</a>
</g>
</g>
<!-- Node13&#45;&gt;Node14 -->
<g id="edge6" class="edge">
<title>Node13&#45;&gt;Node14</title>
<path fill="none" stroke="midnightblue" d="M1026.5,-101.8C1026.5,-92.91 1026.5,-82.78 1026.5,-75.75"/>
<polygon fill="midnightblue" stroke="midnightblue" points="1023,-102.08 1026.5,-112.08 1030,-102.08 1023,-102.08"/>
</g>
<!-- Node15 -->
<g id="node8" class="node">
<title>Node15</title>
<g id="a_node8"><a xlink:href="address_8c.html" target="_top" xlink:title="address.c">
<polygon fill="white" stroke="black" points="0,-0.5 0,-19.5 59,-19.5 59,-0.5 0,-0.5"/>
<text text-anchor="middle" x="29.5" y="-7.5" font-family="Helvetica,sans-Serif" font-size="10.00">address.c</text>
</a>
</g>
</g>
<!-- Node14&#45;&gt;Node15 -->
<g id="edge7" class="edge">
<title>Node14&#45;&gt;Node15</title>
<path fill="none" stroke="midnightblue" d="M974.79,-63.84C801.93,-59.76 245.12,-44.98 67.5,-20 64.81,-19.62 62.04,-19.14 59.27,-18.6"/>
<polygon fill="midnightblue" stroke="midnightblue" points="974.82,-67.34 984.89,-64.08 974.98,-60.34 974.82,-67.34"/>
</g>
<!-- Node16 -->
<g id="node9" class="node">
<title>Node16</title>
<g id="a_node9"><a xlink:href="async_8c.html" target="_top" xlink:title="state management for asynchronous messages ">
<polygon fill="white" stroke="black" points="77,-0.5 77,-19.5 128,-19.5 128,-0.5 77,-0.5"/>
<text text-anchor="middle" x="102.5" y="-7.5" font-family="Helvetica,sans-Serif" font-size="10.00">async.c</text>
</a>
</g>
</g>
<!-- Node14&#45;&gt;Node16 -->
<g id="edge8" class="edge">
<title>Node14&#45;&gt;Node16</title>
<path fill="none" stroke="midnightblue" d="M974.47,-63.74C809.68,-59.54 300.54,-44.83 137.5,-20 134.52,-19.55 131.43,-18.95 128.37,-18.27"/>
<polygon fill="midnightblue" stroke="midnightblue" points="974.74,-67.25 984.82,-64 974.91,-60.25 974.74,-67.25"/>
</g>
<!-- Node17 -->
<g id="node10" class="node">
<title>Node17</title>
<g id="a_node10"><a xlink:href="block_8c.html" target="_top" xlink:title="block.c">
<polygon fill="white" stroke="black" points="146.5,-0.5 146.5,-19.5 194.5,-19.5 194.5,-0.5 146.5,-0.5"/>
<text text-anchor="middle" x="170.5" y="-7.5" font-family="Helvetica,sans-Serif" font-size="10.00">block.c</text>
</a>
</g>
</g>
<!-- Node14&#45;&gt;Node17 -->
<g id="edge9" class="edge">
<title>Node14&#45;&gt;Node17</title>
<path fill="none" stroke="midnightblue" d="M974.66,-63.6C818.32,-59.16 353.06,-44.2 203.5,-20 200.57,-19.53 197.52,-18.89 194.52,-18.18"/>
<polygon fill="midnightblue" stroke="midnightblue" points="974.84,-67.11 984.94,-63.89 975.04,-60.11 974.84,-67.11"/>
</g>
<!-- Node18 -->
<g id="node11" class="node">
<title>Node18</title>
<g id="a_node11"><a xlink:href="coap__debug_8c.html" target="_top" xlink:title="coap_debug.c">
<polygon fill="white" stroke="black" points="213,-0.5 213,-19.5 290,-19.5 290,-0.5 213,-0.5"/>
<text text-anchor="middle" x="251.5" y="-7.5" font-family="Helvetica,sans-Serif" font-size="10.00">coap_debug.c</text>
</a>
</g>
</g>
<!-- Node14&#45;&gt;Node18 -->
<g id="edge10" class="edge">
<title>Node14&#45;&gt;Node18</title>
<path fill="none" stroke="midnightblue" d="M974.55,-64.06C854.87,-61.4 550.64,-51.8 298.5,-20 295.78,-19.66 292.98,-19.25 290.17,-18.81"/>
<polygon fill="midnightblue" stroke="midnightblue" points="974.8,-67.57 984.88,-64.28 974.95,-60.57 974.8,-67.57"/>
</g>
<!-- Node19 -->
<g id="node12" class="node">
<title>Node19</title>
<g id="a_node12"><a xlink:href="coap__event_8c.html" target="_top" xlink:title="coap_event.c">
<polygon fill="white" stroke="black" points="308,-0.5 308,-19.5 383,-19.5 383,-0.5 308,-0.5"/>
<text text-anchor="middle" x="345.5" y="-7.5" font-family="Helvetica,sans-Serif" font-size="10.00">coap_event.c</text>
</a>
</g>
</g>
<!-- Node14&#45;&gt;Node19 -->
<g id="edge11" class="edge">
<title>Node14&#45;&gt;Node19</title>
<path fill="none" stroke="midnightblue" d="M974.69,-63.48C866.11,-59.82 606.95,-48.6 391.5,-20 388.76,-19.64 385.93,-19.21 383.09,-18.74"/>
<polygon fill="midnightblue" stroke="midnightblue" points="974.61,-66.98 984.72,-63.81 974.84,-59.98 974.61,-66.98"/>
</g>
<!-- Node20 -->
<g id="node13" class="node">
<title>Node20</title>
<g id="a_node13"><a xlink:href="coap__gnutls_8c.html" target="_top" xlink:title="coap_gnutls.c">
<polygon fill="white" stroke="black" points="401,-0.5 401,-19.5 478,-19.5 478,-0.5 401,-0.5"/>
<text text-anchor="middle" x="439.5" y="-7.5" font-family="Helvetica,sans-Serif" font-size="10.00">coap_gnutls.c</text>
</a>
</g>
</g>
<!-- Node14&#45;&gt;Node20 -->
<g id="edge12" class="edge">
<title>Node14&#45;&gt;Node20</title>
<path fill="none" stroke="midnightblue" d="M974.7,-62.44C878.42,-57.29 665.5,-44.05 487.5,-20 484.48,-19.59 481.35,-19.12 478.22,-18.61"/>
<polygon fill="midnightblue" stroke="midnightblue" points="974.58,-65.94 984.75,-62.97 974.95,-58.95 974.58,-65.94"/>
</g>
<!-- Node21 -->
<g id="node14" class="node">
<title>Node21</title>
<g id="a_node14"><a xlink:href="coap__hashkey_8c.html" target="_top" xlink:title="coap_hashkey.c">
<polygon fill="white" stroke="black" points="496.5,-0.5 496.5,-19.5 584.5,-19.5 584.5,-0.5 496.5,-0.5"/>
<text text-anchor="middle" x="540.5" y="-7.5" font-family="Helvetica,sans-Serif" font-size="10.00">coap_hashkey.c</text>
</a>
</g>
</g>
<!-- Node14&#45;&gt;Node21 -->
<g id="edge13" class="edge">
<title>Node14&#45;&gt;Node21</title>
<path fill="none" stroke="midnightblue" d="M974.92,-60.73C893.64,-53.75 730.84,-38.78 593.5,-20 590.63,-19.61 587.68,-19.18 584.71,-18.73"/>
<polygon fill="midnightblue" stroke="midnightblue" points="974.63,-64.21 984.9,-61.58 975.23,-57.24 974.63,-64.21"/>
</g>
<!-- Node22 -->
<g id="node15" class="node">
<title>Node22</title>
<g id="a_node15"><a xlink:href="coap__io_8c.html" target="_top" xlink:title="coap_io.c">
<polygon fill="white" stroke="black" points="603,-0.5 603,-19.5 662,-19.5 662,-0.5 603,-0.5"/>
<text text-anchor="middle" x="632.5" y="-7.5" font-family="Helvetica,sans-Serif" font-size="10.00">coap_io.c</text>
</a>
</g>
</g>
<!-- Node14&#45;&gt;Node22 -->
<g id="edge14" class="edge">
<title>Node14&#45;&gt;Node22</title>
<path fill="none" stroke="midnightblue" d="M974.53,-60.07C905.14,-53.11 778.54,-39.09 671.5,-20 668.49,-19.46 665.36,-18.85 662.25,-18.19"/>
<polygon fill="midnightblue" stroke="midnightblue" points="974.46,-63.58 984.76,-61.09 975.15,-56.61 974.46,-63.58"/>
</g>
<!-- Node23 -->
<g id="node16" class="node">
<title>Node23</title>
<g id="a_node16"><a xlink:href="coap__io__contiki_8c.html" target="_top" xlink:title="coap_io_contiki.c">
<polygon fill="white" stroke="black" points="680.5,-0.5 680.5,-19.5 772.5,-19.5 772.5,-0.5 680.5,-0.5"/>
<text text-anchor="middle" x="726.5" y="-7.5" font-family="Helvetica,sans-Serif" font-size="10.00">coap_io_contiki.c</text>
</a>
</g>
</g>
<!-- Node14&#45;&gt;Node23 -->
<g id="edge15" class="edge">
<title>Node14&#45;&gt;Node23</title>
<path fill="none" stroke="midnightblue" d="M974.91,-55.71C917.96,-45.46 827.15,-29.12 772.53,-19.29"/>
<polygon fill="midnightblue" stroke="midnightblue" points="974.32,-59.16 984.79,-57.49 975.56,-52.28 974.32,-59.16"/>
</g>
<!-- Node24 -->
<g id="node17" class="node">
<title>Node24</title>
<g id="a_node17"><a xlink:href="coap__notls_8c.html" target="_top" xlink:title="coap_notls.c">
<polygon fill="white" stroke="black" points="790.5,-0.5 790.5,-19.5 862.5,-19.5 862.5,-0.5 790.5,-0.5"/>
<text text-anchor="middle" x="826.5" y="-7.5" font-family="Helvetica,sans-Serif" font-size="10.00">coap_notls.c</text>
</a>
</g>
</g>
<!-- Node14&#45;&gt;Node24 -->
<g id="edge16" class="edge">
<title>Node14&#45;&gt;Node24</title>
<path fill="none" stroke="midnightblue" d="M985.13,-53.83C947.36,-43.63 892.36,-28.78 858.04,-19.52"/>
<polygon fill="midnightblue" stroke="midnightblue" points="984.24,-57.22 994.81,-56.44 986.07,-50.46 984.24,-57.22"/>
</g>
<!-- Node25 -->
<g id="node18" class="node">
<title>Node25</title>
<g id="a_node18"><a xlink:href="coap__openssl_8c.html" target="_top" xlink:title="coap_openssl.c">
<polygon fill="white" stroke="black" points="881,-0.5 881,-19.5 966,-19.5 966,-0.5 881,-0.5"/>
<text text-anchor="middle" x="923.5" y="-7.5" font-family="Helvetica,sans-Serif" font-size="10.00">coap_openssl.c</text>
</a>
</g>
</g>
<!-- Node14&#45;&gt;Node25 -->
<g id="edge17" class="edge">
<title>Node14&#45;&gt;Node25</title>
<path fill="none" stroke="midnightblue" d="M1000.92,-51.59C981.88,-41.61 956.44,-28.27 940.01,-19.65"/>
<polygon fill="midnightblue" stroke="midnightblue" points="999.47,-54.78 1009.95,-56.32 1002.72,-48.58 999.47,-54.78"/>
</g>
<!-- Node26 -->
<g id="node19" class="node">
<title>Node26</title>
<g id="a_node19"><a xlink:href="coap__session_8c.html" target="_top" xlink:title="coap_session.c">
<polygon fill="white" stroke="black" points="984,-0.5 984,-19.5 1069,-19.5 1069,-0.5 984,-0.5"/>
<text text-anchor="middle" x="1026.5" y="-7.5" font-family="Helvetica,sans-Serif" font-size="10.00">coap_session.c</text>
</a>
</g>
</g>
<!-- Node14&#45;&gt;Node26 -->
<g id="edge18" class="edge">
<title>Node14&#45;&gt;Node26</title>
<path fill="none" stroke="midnightblue" d="M1026.5,-45.8C1026.5,-36.91 1026.5,-26.78 1026.5,-19.75"/>
<polygon fill="midnightblue" stroke="midnightblue" points="1023,-46.08 1026.5,-56.08 1030,-46.08 1023,-46.08"/>
</g>
<!-- Node27 -->
<g id="node20" class="node">
<title>Node27</title>
<g id="a_node20"><a xlink:href="coap__time_8c.html" target="_top" xlink:title="coap_time.c">
<polygon fill="white" stroke="black" points="1087.5,-0.5 1087.5,-19.5 1157.5,-19.5 1157.5,-0.5 1087.5,-0.5"/>
<text text-anchor="middle" x="1122.5" y="-7.5" font-family="Helvetica,sans-Serif" font-size="10.00">coap_time.c</text>
</a>
</g>
</g>
<!-- Node14&#45;&gt;Node27 -->
<g id="edge19" class="edge">
<title>Node14&#45;&gt;Node27</title>
<path fill="none" stroke="midnightblue" d="M1051.07,-51.18C1068.74,-41.24 1092.01,-28.15 1107.11,-19.65"/>
<polygon fill="midnightblue" stroke="midnightblue" points="1048.92,-48.37 1041.92,-56.32 1052.36,-54.47 1048.92,-48.37"/>
</g>
<!-- Node28 -->
<g id="node21" class="node">
<title>Node28</title>
<g id="a_node21"><a xlink:href="coap__tinydtls_8c.html" target="_top" xlink:title="coap_tinydtls.c">
<polygon fill="white" stroke="black" points="1176,-0.5 1176,-19.5 1259,-19.5 1259,-0.5 1176,-0.5"/>
<text text-anchor="middle" x="1217.5" y="-7.5" font-family="Helvetica,sans-Serif" font-size="10.00">coap_tinydtls.c</text>
</a>
</g>
</g>
<!-- Node14&#45;&gt;Node28 -->
<g id="edge20" class="edge">
<title>Node14&#45;&gt;Node28</title>
<path fill="none" stroke="midnightblue" d="M1066.47,-53.7C1102.52,-43.51 1154.74,-28.74 1187.38,-19.52"/>
<polygon fill="midnightblue" stroke="midnightblue" points="1065.44,-50.35 1056.76,-56.44 1067.34,-57.09 1065.44,-50.35"/>
</g>
<!-- Node29 -->
<g id="node22" class="node">
<title>Node29</title>
<g id="a_node22"><a xlink:href="encode_8c.html" target="_top" xlink:title="encode.c">
<polygon fill="white" stroke="black" points="1277.5,-0.5 1277.5,-19.5 1333.5,-19.5 1333.5,-0.5 1277.5,-0.5"/>
<text text-anchor="middle" x="1305.5" y="-7.5" font-family="Helvetica,sans-Serif" font-size="10.00">encode.c</text>
</a>
</g>
</g>
<!-- Node14&#45;&gt;Node29 -->
<g id="edge21" class="edge">
<title>Node14&#45;&gt;Node29</title>
<path fill="none" stroke="midnightblue" d="M1078.24,-56.23C1127.35,-47.7 1203.16,-34.01 1268.5,-20 1271.34,-19.39 1274.3,-18.72 1277.25,-18.04"/>
<polygon fill="midnightblue" stroke="midnightblue" points="1077.43,-52.81 1068.18,-57.97 1078.63,-59.71 1077.43,-52.81"/>
</g>
<!-- Node30 -->
<g id="node23" class="node">
<title>Node30</title>
<g id="a_node23"><a xlink:href="mem_8c.html" target="_top" xlink:title="mem.c">
<polygon fill="white" stroke="black" points="1352,-0.5 1352,-19.5 1399,-19.5 1399,-0.5 1352,-0.5"/>
<text text-anchor="middle" x="1375.5" y="-7.5" font-family="Helvetica,sans-Serif" font-size="10.00">mem.c</text>
</a>
</g>
</g>
<!-- Node14&#45;&gt;Node30 -->
<g id="edge22" class="edge">
<title>Node14&#45;&gt;Node30</title>
<path fill="none" stroke="midnightblue" d="M1078.25,-59.64C1141.12,-52.66 1250.23,-39.08 1342.5,-20 1345.52,-19.37 1348.68,-18.63 1351.79,-17.85"/>
<polygon fill="midnightblue" stroke="midnightblue" points="1077.75,-56.17 1068.19,-60.74 1078.52,-63.13 1077.75,-56.17"/>
</g>
<!-- Node31 -->
<g id="node24" class="node">
<title>Node31</title>
<g id="a_node24"><a xlink:href="net_8c.html" target="_top" xlink:title="net.c">
<polygon fill="white" stroke="black" points="1417.5,-0.5 1417.5,-19.5 1455.5,-19.5 1455.5,-0.5 1417.5,-0.5"/>
<text text-anchor="middle" x="1436.5" y="-7.5" font-family="Helvetica,sans-Serif" font-size="10.00">net.c</text>
</a>
</g>
</g>
<!-- Node14&#45;&gt;Node31 -->
<g id="edge23" class="edge">
<title>Node14&#45;&gt;Node31</title>
<path fill="none" stroke="midnightblue" d="M1078.18,-62.1C1152.1,-57.23 1291.96,-45.34 1408.5,-20 1411.39,-19.37 1414.41,-18.56 1417.35,-17.69"/>
<polygon fill="midnightblue" stroke="midnightblue" points="1077.96,-58.6 1068.2,-62.74 1078.4,-65.59 1077.96,-58.6"/>
</g>
<!-- Node32 -->
<g id="node25" class="node">
<title>Node32</title>
<g id="a_node25"><a xlink:href="option_8c.html" target="_top" xlink:title="option.c">
<polygon fill="white" stroke="black" points="1474,-0.5 1474,-19.5 1525,-19.5 1525,-0.5 1474,-0.5"/>
<text text-anchor="middle" x="1499.5" y="-7.5" font-family="Helvetica,sans-Serif" font-size="10.00">option.c</text>
</a>
</g>
</g>
<!-- Node14&#45;&gt;Node32 -->
<g id="edge24" class="edge">
<title>Node14&#45;&gt;Node32</title>
<path fill="none" stroke="midnightblue" d="M1078.25,-62.19C1160.55,-57.17 1326.13,-44.76 1464.5,-20 1467.59,-19.45 1470.8,-18.77 1473.98,-18.03"/>
<polygon fill="midnightblue" stroke="midnightblue" points="1077.93,-58.71 1068.15,-62.8 1078.35,-65.69 1077.93,-58.71"/>
</g>
<!-- Node33 -->
<g id="node26" class="node">
<title>Node33</title>
<g id="a_node26"><a xlink:href="pdu_8c.html" target="_top" xlink:title="pdu.c">
<polygon fill="white" stroke="black" points="1543,-0.5 1543,-19.5 1584,-19.5 1584,-0.5 1543,-0.5"/>
<text text-anchor="middle" x="1563.5" y="-7.5" font-family="Helvetica,sans-Serif" font-size="10.00">pdu.c</text>
</a>
</g>
</g>
<!-- Node14&#45;&gt;Node33 -->
<g id="edge25" class="edge">
<title>Node14&#45;&gt;Node33</title>
<path fill="none" stroke="midnightblue" d="M1078.28,-64.04C1170.73,-61.51 1369.93,-52.44 1534.5,-20 1537.19,-19.47 1539.98,-18.78 1542.73,-18.03"/>
<polygon fill="midnightblue" stroke="midnightblue" points="1077.98,-60.54 1068.07,-64.3 1078.16,-67.54 1077.98,-60.54"/>
</g>
<!-- Node34 -->
<g id="node27" class="node">
<title>Node34</title>
<g id="a_node27"><a xlink:href="resource_8c.html" target="_top" xlink:title="resource.c">
<polygon fill="white" stroke="black" points="1602.5,-0.5 1602.5,-19.5 1664.5,-19.5 1664.5,-0.5 1602.5,-0.5"/>
<text text-anchor="middle" x="1633.5" y="-7.5" font-family="Helvetica,sans-Serif" font-size="10.00">resource.c</text>
</a>
</g>
</g>
<!-- Node14&#45;&gt;Node34 -->
<g id="edge26" class="edge">
<title>Node14&#45;&gt;Node34</title>
<path fill="none" stroke="midnightblue" d="M1078.5,-63.34C1178.67,-59.61 1405.14,-48.52 1593.5,-20 1596.32,-19.57 1599.23,-19.06 1602.14,-18.5"/>
<polygon fill="midnightblue" stroke="midnightblue" points="1078.21,-59.85 1068.35,-63.71 1078.47,-66.85 1078.21,-59.85"/>
</g>
<!-- Node35 -->
<g id="node28" class="node">
<title>Node35</title>
<g id="a_node28"><a xlink:href="str_8c.html" target="_top" xlink:title="str.c">
<polygon fill="white" stroke="black" points="1682.5,-0.5 1682.5,-19.5 1718.5,-19.5 1718.5,-0.5 1682.5,-0.5"/>
<text text-anchor="middle" x="1700.5" y="-7.5" font-family="Helvetica,sans-Serif" font-size="10.00">str.c</text>
</a>
</g>
</g>
<!-- Node14&#45;&gt;Node35 -->
<g id="edge27" class="edge">
<title>Node14&#45;&gt;Node35</title>
<path fill="none" stroke="midnightblue" d="M1078.44,-65.8C1189.03,-66.53 1455.49,-63.19 1673.5,-20 1676.41,-19.42 1679.44,-18.62 1682.37,-17.74"/>
<polygon fill="midnightblue" stroke="midnightblue" points="1078.26,-62.29 1068.23,-65.71 1078.2,-69.29 1078.26,-62.29"/>
</g>
<!-- Node36 -->
<g id="node29" class="node">
<title>Node36</title>
<g id="a_node29"><a xlink:href="subscribe_8c.html" target="_top" xlink:title="subscribe.c">
<polygon fill="white" stroke="black" points="1737,-0.5 1737,-19.5 1804,-19.5 1804,-0.5 1737,-0.5"/>
<text text-anchor="middle" x="1770.5" y="-7.5" font-family="Helvetica,sans-Serif" font-size="10.00">subscribe.c</text>
</a>
</g>
</g>
<!-- Node14&#45;&gt;Node36 -->
<g id="edge28" class="edge">
<title>Node14&#45;&gt;Node36</title>
<path fill="none" stroke="midnightblue" d="M1078.25,-64.19C1194.72,-61.83 1486.16,-52.83 1727.5,-20 1730.52,-19.59 1733.65,-19.09 1736.78,-18.53"/>
<polygon fill="midnightblue" stroke="midnightblue" points="1078.12,-60.69 1068.19,-64.39 1078.25,-67.69 1078.12,-60.69"/>
</g>
<!-- Node37 -->
<g id="node30" class="node">
<title>Node37</title>
<g id="a_node30"><a xlink:href="uri_8c.html" target="_top" xlink:title="uri.c">
<polygon fill="white" stroke="black" points="1822,-0.5 1822,-19.5 1857,-19.5 1857,-0.5 1822,-0.5"/>
<text text-anchor="middle" x="1839.5" y="-7.5" font-family="Helvetica,sans-Serif" font-size="10.00">uri.c</text>
</a>
</g>
</g>
<!-- Node14&#45;&gt;Node37 -->
<g id="edge29" class="edge">
<title>Node14&#45;&gt;Node37</title>
<path fill="none" stroke="midnightblue" d="M1078.44,-63.9C1230.35,-60.38 1672.07,-47.96 1813.5,-20 1816.22,-19.46 1819.04,-18.71 1821.78,-17.86"/>
<polygon fill="midnightblue" stroke="midnightblue" points="1077.92,-60.41 1068.01,-64.14 1078.08,-67.41 1077.92,-60.41"/>
</g>
<!-- Node38&#45;&gt;Node13 -->
<g id="edge31" class="edge">
<title>Node38&#45;&gt;Node13</title>
<path fill="none" stroke="midnightblue" d="M984.39,-161.54C994.91,-151.91 1008.07,-139.87 1016.85,-131.83"/>
<polygon fill="midnightblue" stroke="midnightblue" points="981.99,-158.99 976.98,-168.32 986.72,-164.15 981.99,-158.99"/>
</g>
<!-- Node39&#45;&gt;Node11 -->
<g id="edge35" class="edge">
<title>Node39&#45;&gt;Node11</title>
<path fill="none" stroke="midnightblue" d="M987.99,-326.4C985.31,-317.36 982.22,-306.94 980.09,-299.75"/>
<polygon fill="midnightblue" stroke="midnightblue" points="984.66,-327.49 990.86,-336.08 991.37,-325.5 984.66,-327.49"/>
</g>
</g>
</svg>
        <g id="navigator" transform="translate(0 0)" fill="#404254">
                <rect fill="#f2f5e9" fill-opacity="0.5" stroke="#606060" stroke-width=".5" x="0" y="0" width="60" height="60"/>
                <use id="zoomplus" xlink:href="#zoomPlus" x="17" y="9" onmousedown="handleZoom(evt,'in')"/>
                <use id="zoomminus" xlink:href="#zoomMin" x="42" y="9" onmousedown="handleZoom(evt,'out')"/>
                <use id="reset" xlink:href="#resetDef" x="30" y="36" onmousedown="handleReset()"/>
                <g id="arrowUp" xlink:href="#dirArrow" transform="translate(30 24)" onmousedown="handlePan(0,-1)">
                  <use xlink:href="#rim" fill="#404040">
                        <set attributeName="fill" to="#808080" begin="arrowUp.mouseover" end="arrowUp.mouseout"/>
                  </use>
                  <path fill="none" stroke="white" stroke-width="1.5" d="M0,-3.0v7 M-2.5,-0.5L0,-3.0L2.5,-0.5"/>
                </g>
                <g id="arrowRight" xlink:href="#dirArrow" transform="rotate(90) translate(36 -43)" onmousedown="handlePan(1,0)">
                  <use xlink:href="#rim" fill="#404040">
                        <set attributeName="fill" to="#808080" begin="arrowRight.mouseover" end="arrowRight.mouseout"/>
                  </use>
                  <path fill="none" stroke="white" stroke-width="1.5" d="M0,-3.0v7 M-2.5,-0.5L0,-3.0L2.5,-0.5"/>
                </g>
                <g id="arrowDown" xlink:href="#dirArrow" transform="rotate(180) translate(-30 -48)" onmousedown="handlePan(0,1)">
                  <use xlink:href="#rim" fill="#404040">
                        <set attributeName="fill" to="#808080" begin="arrowDown.mouseover" end="arrowDown.mouseout"/>
                  </use>
                  <path fill="none" stroke="white" stroke-width="1.5" d="M0,-3.0v7 M-2.5,-0.5L0,-3.0L2.5,-0.5"/>
                </g>
                <g id="arrowLeft" xlink:href="#dirArrow" transform="rotate(270) translate(-36 17)" onmousedown="handlePan(-1,0)">
                  <use xlink:href="#rim" fill="#404040">
                        <set attributeName="fill" to="#808080" begin="arrowLeft.mouseover" end="arrowLeft.mouseout"/>
                  </use>
                  <path fill="none" stroke="white" stroke-width="1.5" d="M0,-3.0v7 M-2.5,-0.5L0,-3.0L2.5,-0.5"/>
                </g>
        </g>
        <svg viewBox="0 0 15 15" width="100%" height="30px" preserveAspectRatio="xMaxYMin meet">
         <g id="arrow_out" transform="scale(0.3 0.3)">
          <a xlink:href="address_8h__dep__incl_org.svg" target="_base">
           <rect id="button" ry="5" rx="5" y="6" x="6" height="38" width="38"
                fill="#f2f5e9" fill-opacity="0.5" stroke="#606060" stroke-width="1.0"/>
           <path id="arrow"
             d="M 11.500037,31.436501 C 11.940474,20.09759 22.043105,11.32322 32.158766,21.979434 L 37.068811,17.246167 C 37.068811,17.246167 37.088388,32 37.088388,32 L 22.160133,31.978069 C 22.160133,31.978069 26.997745,27.140456 26.997745,27.140456 C 18.528582,18.264221 13.291696,25.230495 11.500037,31.436501 z"
             style="fill:#404040;"/>
          </a>
         </g>
        </svg>
</svg>
