<?xml version="1.0" encoding="UTF-8" standalone="no"?>
<!DOCTYPE svg PUBLIC "-//W3C//DTD SVG 1.1//EN"
 "http://www.w3.org/Graphics/SVG/1.1/DTD/svg11.dtd">
<!-- Generated by graphviz version 2.43.0 (0)
 -->
<!-- Title: block.h Pages: 1 -->
<svg width="259pt" height="308pt"
 viewBox="0.00 0.00 258.50 308.00" xmlns="http://www.w3.org/2000/svg" xmlns:xlink="http://www.w3.org/1999/xlink">
<g id="graph0" class="graph" transform="scale(1 1) rotate(0) translate(4 304)">
<title>block.h</title>
<polygon fill="white" stroke="transparent" points="-4,4 -4,-304 254.5,-304 254.5,4 -4,4"/>
<!-- Node0 -->
<g id="node1" class="node">
<title>Node0</title>
<polygon fill="#bfbfbf" stroke="black" points="107,-280.5 107,-299.5 155,-299.5 155,-280.5 107,-280.5"/>
<text text-anchor="middle" x="131" y="-287.5" font-family="Helvetica,sans-Serif" font-size="10.00">block.h</text>
</g>
<!-- Node1 -->
<g id="node2" class="node">
<title>Node1</title>
<g id="a_node2"><a xlink:href="encode_8h.html" target="_top" xlink:title="encode.h">
<polygon fill="white" stroke="black" points="31,-224.5 31,-243.5 87,-243.5 87,-224.5 31,-224.5"/>
<text text-anchor="middle" x="59" y="-231.5" font-family="Helvetica,sans-Serif" font-size="10.00">encode.h</text>
</a>
</g>
</g>
<!-- Node0&#45;&gt;Node1 -->
<g id="edge1" class="edge">
<title>Node0&#45;&gt;Node1</title>
<path fill="none" stroke="midnightblue" d="M119.43,-280.32C108.58,-272.18 92.12,-259.84 79.12,-250.09"/>
<polygon fill="midnightblue" stroke="midnightblue" points="80.88,-247.03 70.78,-243.83 76.68,-252.63 80.88,-247.03"/>
</g>
<!-- Node4 -->
<g id="node5" class="node">
<title>Node4</title>
<g id="a_node5"><a xlink:href="option_8h.html" target="_top" xlink:title="Helpers for handling options in CoAP PDUs. ">
<polygon fill="white" stroke="black" points="105.5,-224.5 105.5,-243.5 156.5,-243.5 156.5,-224.5 105.5,-224.5"/>
<text text-anchor="middle" x="131" y="-231.5" font-family="Helvetica,sans-Serif" font-size="10.00">option.h</text>
</a>
</g>
</g>
<!-- Node0&#45;&gt;Node4 -->
<g id="edge4" class="edge">
<title>Node0&#45;&gt;Node4</title>
<path fill="none" stroke="midnightblue" d="M131,-280.08C131,-273.01 131,-262.86 131,-253.99"/>
<polygon fill="midnightblue" stroke="midnightblue" points="134.5,-253.75 131,-243.75 127.5,-253.75 134.5,-253.75"/>
</g>
<!-- Node6 -->
<g id="node7" class="node">
<title>Node6</title>
<g id="a_node7"><a xlink:href="pdu_8h.html" target="_top" xlink:title="Pre&#45;defined constants that reflect defaults for CoAP. ">
<polygon fill="white" stroke="black" points="161.5,-168.5 161.5,-187.5 202.5,-187.5 202.5,-168.5 161.5,-168.5"/>
<text text-anchor="middle" x="182" y="-175.5" font-family="Helvetica,sans-Serif" font-size="10.00">pdu.h</text>
</a>
</g>
</g>
<!-- Node0&#45;&gt;Node6 -->
<g id="edge13" class="edge">
<title>Node0&#45;&gt;Node6</title>
<path fill="none" stroke="midnightblue" d="M139.17,-280.39C146.88,-271.8 158.25,-257.92 165,-244 172.16,-229.24 176.58,-211.08 179.11,-197.71"/>
<polygon fill="midnightblue" stroke="midnightblue" points="182.58,-198.24 180.82,-187.79 175.68,-197.05 182.58,-198.24"/>
</g>
<!-- Node2 -->
<g id="node3" class="node">
<title>Node2</title>
<polygon fill="white" stroke="#bfbfbf" points="0,-168.5 0,-187.5 54,-187.5 54,-168.5 0,-168.5"/>
<text text-anchor="middle" x="27" y="-175.5" font-family="Helvetica,sans-Serif" font-size="10.00">strings.h</text>
</g>
<!-- Node1&#45;&gt;Node2 -->
<g id="edge2" class="edge">
<title>Node1&#45;&gt;Node2</title>
<path fill="none" stroke="midnightblue" d="M53.72,-224.08C49.29,-216.61 42.84,-205.72 37.38,-196.52"/>
<polygon fill="midnightblue" stroke="midnightblue" points="40.29,-194.57 32.19,-187.75 34.27,-198.14 40.29,-194.57"/>
</g>
<!-- Node3 -->
<g id="node4" class="node">
<title>Node3</title>
<polygon fill="white" stroke="#bfbfbf" points="123.5,-56.5 123.5,-75.5 172.5,-75.5 172.5,-56.5 123.5,-56.5"/>
<text text-anchor="middle" x="148" y="-63.5" font-family="Helvetica,sans-Serif" font-size="10.00">stdint.h</text>
</g>
<!-- Node1&#45;&gt;Node3 -->
<g id="edge3" class="edge">
<title>Node1&#45;&gt;Node3</title>
<path fill="none" stroke="midnightblue" d="M60.52,-224.47C64.49,-203.81 76.62,-149.99 101,-112 108.27,-100.68 118.95,-90.15 128.29,-82.13"/>
<polygon fill="midnightblue" stroke="midnightblue" points="130.53,-84.82 136.04,-75.77 126.09,-79.41 130.53,-84.82"/>
</g>
<!-- Node5 -->
<g id="node6" class="node">
<title>Node5</title>
<g id="a_node6"><a xlink:href="bits_8h.html" target="_top" xlink:title="Bit vector manipulation. ">
<polygon fill="white" stroke="black" points="110.5,-112.5 110.5,-131.5 151.5,-131.5 151.5,-112.5 110.5,-112.5"/>
<text text-anchor="middle" x="131" y="-119.5" font-family="Helvetica,sans-Serif" font-size="10.00">bits.h</text>
</a>
</g>
</g>
<!-- Node4&#45;&gt;Node5 -->
<g id="edge5" class="edge">
<title>Node4&#45;&gt;Node5</title>
<path fill="none" stroke="midnightblue" d="M131,-224.37C131,-206.62 131,-165.67 131,-141.6"/>
<polygon fill="midnightblue" stroke="midnightblue" points="134.5,-141.59 131,-131.59 127.5,-141.59 134.5,-141.59"/>
</g>
<!-- Node4&#45;&gt;Node6 -->
<g id="edge7" class="edge">
<title>Node4&#45;&gt;Node6</title>
<path fill="none" stroke="midnightblue" d="M139.42,-224.08C146.85,-216.22 157.85,-204.57 166.81,-195.08"/>
<polygon fill="midnightblue" stroke="midnightblue" points="169.41,-197.42 173.74,-187.75 164.32,-192.62 169.41,-197.42"/>
</g>
<!-- Node5&#45;&gt;Node3 -->
<g id="edge6" class="edge">
<title>Node5&#45;&gt;Node3</title>
<path fill="none" stroke="midnightblue" d="M133.81,-112.08C136.08,-104.85 139.37,-94.41 142.21,-85.4"/>
<polygon fill="midnightblue" stroke="midnightblue" points="145.58,-86.34 145.25,-75.75 138.9,-84.24 145.58,-86.34"/>
</g>
<!-- Node6&#45;&gt;Node3 -->
<g id="edge12" class="edge">
<title>Node6&#45;&gt;Node3</title>
<path fill="none" stroke="midnightblue" d="M179.33,-168.37C173.82,-150.54 161.07,-109.3 153.65,-85.27"/>
<polygon fill="midnightblue" stroke="midnightblue" points="156.95,-84.11 150.66,-75.59 150.26,-86.18 156.95,-84.11"/>
</g>
<!-- Node7 -->
<g id="node8" class="node">
<title>Node7</title>
<g id="a_node8"><a xlink:href="uri_8h.html" target="_top" xlink:title="uri.h">
<polygon fill="white" stroke="black" points="208.5,-112.5 208.5,-131.5 243.5,-131.5 243.5,-112.5 208.5,-112.5"/>
<text text-anchor="middle" x="226" y="-119.5" font-family="Helvetica,sans-Serif" font-size="10.00">uri.h</text>
</a>
</g>
</g>
<!-- Node6&#45;&gt;Node7 -->
<g id="edge8" class="edge">
<title>Node6&#45;&gt;Node7</title>
<path fill="none" stroke="midnightblue" d="M189.27,-168.08C195.54,-160.38 204.79,-149.03 212.43,-139.65"/>
<polygon fill="midnightblue" stroke="midnightblue" points="215.27,-141.71 218.87,-131.75 209.84,-137.29 215.27,-141.71"/>
</g>
<!-- Node7&#45;&gt;Node3 -->
<g id="edge9" class="edge">
<title>Node7&#45;&gt;Node3</title>
<path fill="none" stroke="midnightblue" d="M213.47,-112.32C201.41,-103.98 182.97,-91.21 168.73,-81.35"/>
<polygon fill="midnightblue" stroke="midnightblue" points="170.72,-78.47 160.5,-75.65 166.73,-84.22 170.72,-78.47"/>
</g>
<!-- Node8 -->
<g id="node9" class="node">
<title>Node8</title>
<g id="a_node9"><a xlink:href="str_8h.html" target="_top" xlink:title="str.h">
<polygon fill="white" stroke="black" points="208,-56.5 208,-75.5 244,-75.5 244,-56.5 208,-56.5"/>
<text text-anchor="middle" x="226" y="-63.5" font-family="Helvetica,sans-Serif" font-size="10.00">str.h</text>
</a>
</g>
</g>
<!-- Node7&#45;&gt;Node8 -->
<g id="edge10" class="edge">
<title>Node7&#45;&gt;Node8</title>
<path fill="none" stroke="midnightblue" d="M226,-112.08C226,-105.01 226,-94.86 226,-85.99"/>
<polygon fill="midnightblue" stroke="midnightblue" points="229.5,-85.75 226,-75.75 222.5,-85.75 229.5,-85.75"/>
</g>
<!-- Node9 -->
<g id="node10" class="node">
<title>Node9</title>
<polygon fill="white" stroke="#bfbfbf" points="201.5,-0.5 201.5,-19.5 250.5,-19.5 250.5,-0.5 201.5,-0.5"/>
<text text-anchor="middle" x="226" y="-7.5" font-family="Helvetica,sans-Serif" font-size="10.00">string.h</text>
</g>
<!-- Node8&#45;&gt;Node9 -->
<g id="edge11" class="edge">
<title>Node8&#45;&gt;Node9</title>
<path fill="none" stroke="midnightblue" d="M226,-56.08C226,-49.01 226,-38.86 226,-29.99"/>
<polygon fill="midnightblue" stroke="midnightblue" points="229.5,-29.75 226,-19.75 222.5,-29.75 229.5,-29.75"/>
</g>
</g>
</svg>
