<?xml version="1.0" encoding="UTF-8" standalone="no"?>
<!DOCTYPE svg PUBLIC "-//W3C//DTD SVG 1.1//EN"
 "http://www.w3.org/Graphics/SVG/1.1/DTD/svg11.dtd">
<!-- Generated by graphviz version 2.43.0 (0)
 -->
<!-- Title: coap_session_send Pages: 1 -->
<!--zoomable 634 -->
<svg id="main" version="1.1" xmlns="http://www.w3.org/2000/svg" xmlns:xlink="http://www.w3.org/1999/xlink" xml:space="preserve" onload="init(evt)">
<style type="text/css"><![CDATA[
.edge:hover path { stroke: red; }
.edge:hover polygon { stroke: red; fill: red; }
]]></style>
<script type="text/javascript"><![CDATA[
var edges = document.getElementsByTagName('g');
if (edges && edges.length) {
  for (var i=0;i<edges.length;i++) {
    if (edges[i].id.substr(0,4)=='edge') {
      edges[i].setAttribute('class','edge');
    }
  }
}
]]></script>
        <defs>
                <circle id="rim" cx="0" cy="0" r="7"/>
                <circle id="rim2" cx="0" cy="0" r="3.5"/>
                <g id="zoomPlus">
                        <use xlink:href="#rim" fill="#404040">
                                <set attributeName="fill" to="#808080" begin="zoomplus.mouseover" end="zoomplus.mouseout"/>
                        </use>
                        <path d="M-4,0h8M0,-4v8" fill="none" stroke="white" stroke-width="1.5" pointer-events="none"/>
                </g>
                <g id="zoomMin">
                        <use xlink:href="#rim" fill="#404040">
                                <set attributeName="fill" to="#808080" begin="zoomminus.mouseover" end="zoomminus.mouseout"/>
                        </use>
                        <path d="M-4,0h8" fill="none" stroke="white" stroke-width="1.5" pointer-events="none"/>
                </g>
                <g id="dirArrow">
                        <path fill="none" stroke="white" stroke-width="1.5" d="M0,-3.0v7 M-2.5,-0.5L0,-3.0L2.5,-0.5"/>
                </g>
               <g id="resetDef">
                       <use xlink:href="#rim2" fill="#404040">
                               <set attributeName="fill" to="#808080" begin="reset.mouseover" end="reset.mouseout"/>
                       </use>
               </g>
        </defs>

<script type="text/javascript">
var viewWidth = 2525;
var viewHeight = 634;
var sectionId = 'dynsection-26';
</script>
<script xlink:href="svgpan.js"/>
<svg id="graph" class="graph">
<g id="viewport">
<title>coap_session_send</title>
<polygon fill="white" stroke="transparent" points="-4,4 -4,-630.32 2521,-630.32 2521,4 -4,4"/>
<!-- Node928 -->
<g id="node1" class="node">
<title>Node928</title>
<polygon fill="#bfbfbf" stroke="black" points="0,-416.82 0,-435.82 103,-435.82 103,-416.82 0,-416.82"/>
<text text-anchor="middle" x="51.5" y="-423.82" font-family="Helvetica,sans-Serif" font-size="10.00">coap_session_send</text>
</g>
<!-- Node929 -->
<g id="node2" class="node">
<title>Node929</title>
<g id="a_node2"><a xlink:href="coap__session_8h.html#aaf20c9b0b2ad3168c15e535a67ea3ce5" target="_top" xlink:title="Send a pdu according to the session&#39;s protocol. ">
<polygon fill="white" stroke="black" points="139,-416.82 139,-435.82 263,-435.82 263,-416.82 139,-416.82"/>
<text text-anchor="middle" x="201" y="-423.82" font-family="Helvetica,sans-Serif" font-size="10.00">coap_session_send_pdu</text>
</a>
</g>
</g>
<!-- Node928&#45;&gt;Node929 -->
<g id="edge1" class="edge">
<title>Node928&#45;&gt;Node929</title>
<path fill="none" stroke="midnightblue" d="M113.41,-426.32C121.85,-426.32 130.52,-426.32 138.96,-426.32"/>
<polygon fill="midnightblue" stroke="midnightblue" points="113.26,-422.82 103.26,-426.32 113.26,-429.82 113.26,-422.82"/>
</g>
<!-- Node930 -->
<g id="node3" class="node">
<title>Node930</title>
<g id="a_node3"><a xlink:href="coap__session_8h.html#a2f455ec1572982a5ae404beac0cfbd53" target="_top" xlink:title="Notify session transport has just connected and CSM exchange can now start. ">
<polygon fill="white" stroke="black" points="299,-492.82 299,-511.82 426,-511.82 426,-492.82 299,-492.82"/>
<text text-anchor="middle" x="362.5" y="-499.82" font-family="Helvetica,sans-Serif" font-size="10.00">coap_session_send_csm</text>
</a>
</g>
</g>
<!-- Node929&#45;&gt;Node930 -->
<g id="edge2" class="edge">
<title>Node929&#45;&gt;Node930</title>
<path fill="none" stroke="midnightblue" d="M231.5,-440.38C263.52,-455.63 313.75,-479.57 341.46,-492.77"/>
<polygon fill="midnightblue" stroke="midnightblue" points="232.73,-437.09 222.2,-435.95 229.72,-443.41 232.73,-437.09"/>
</g>
<!-- Node946 -->
<g id="node19" class="node">
<title>Node946</title>
<g id="a_node19"><a xlink:href="net_8c.html#a0c600aed61c8a8402d31ef795df3b0b6" target="_top" xlink:title="coap_send_pdu">
<polygon fill="white" stroke="black" points="477.5,-378.82 477.5,-397.82 562.5,-397.82 562.5,-378.82 477.5,-378.82"/>
<text text-anchor="middle" x="520" y="-385.82" font-family="Helvetica,sans-Serif" font-size="10.00">coap_send_pdu</text>
</a>
</g>
</g>
<!-- Node929&#45;&gt;Node946 -->
<g id="edge68" class="edge">
<title>Node929&#45;&gt;Node946</title>
<path fill="none" stroke="midnightblue" d="M273.16,-415.76C281.86,-414.56 290.63,-413.38 299,-412.32 360.94,-404.47 432.89,-396.92 477.18,-392.45"/>
<polygon fill="midnightblue" stroke="midnightblue" points="272.43,-412.33 263.01,-417.18 273.4,-419.26 272.43,-412.33"/>
</g>
<!-- Node964 -->
<g id="node37" class="node">
<title>Node964</title>
<g id="a_node37"><a xlink:href="coap__session_8h.html#aa8b3a2da8480911b0216dad076038cb6" target="_top" xlink:title="Notify session that it has just connected or reconnected. ">
<polygon fill="white" stroke="black" points="802,-397.82 802,-416.82 929,-416.82 929,-397.82 802,-397.82"/>
<text text-anchor="middle" x="865.5" y="-404.82" font-family="Helvetica,sans-Serif" font-size="10.00">coap_session_connected</text>
</a>
</g>
</g>
<!-- Node929&#45;&gt;Node964 -->
<g id="edge64" class="edge">
<title>Node929&#45;&gt;Node964</title>
<path fill="none" stroke="midnightblue" d="M273.4,-424.27C403.67,-420.54 677.86,-412.67 801.58,-409.12"/>
<polygon fill="midnightblue" stroke="midnightblue" points="273.03,-420.78 263.14,-424.57 273.24,-427.78 273.03,-420.78"/>
</g>
<!-- Node931 -->
<g id="node4" class="node">
<title>Node931</title>
<g id="a_node4"><a xlink:href="coap__session_8c.html#acec64026a2b3309e97075951dc52c2a1" target="_top" xlink:title="coap_session_connect">
<polygon fill="white" stroke="black" points="462,-492.82 462,-511.82 578,-511.82 578,-492.82 462,-492.82"/>
<text text-anchor="middle" x="520" y="-499.82" font-family="Helvetica,sans-Serif" font-size="10.00">coap_session_connect</text>
</a>
</g>
</g>
<!-- Node930&#45;&gt;Node931 -->
<g id="edge3" class="edge">
<title>Node930&#45;&gt;Node931</title>
<path fill="none" stroke="midnightblue" d="M436.34,-502.32C444.95,-502.32 453.64,-502.32 461.99,-502.32"/>
<polygon fill="midnightblue" stroke="midnightblue" points="436.3,-498.82 426.3,-502.32 436.3,-505.82 436.3,-498.82"/>
</g>
<!-- Node935 -->
<g id="node8" class="node">
<title>Node935</title>
<g id="a_node8"><a xlink:href="coap__session_8c.html#ac79f1143af9580a441d31796cf81f108" target="_top" xlink:title="coap_session_accept">
<polygon fill="white" stroke="black" points="464.5,-549.82 464.5,-568.82 575.5,-568.82 575.5,-549.82 464.5,-549.82"/>
<text text-anchor="middle" x="520" y="-556.82" font-family="Helvetica,sans-Serif" font-size="10.00">coap_session_accept</text>
</a>
</g>
</g>
<!-- Node930&#45;&gt;Node935 -->
<g id="edge7" class="edge">
<title>Node930&#45;&gt;Node935</title>
<path fill="none" stroke="midnightblue" d="M399.14,-515.39C427.73,-525.86 467.18,-540.33 492.89,-549.75"/>
<polygon fill="midnightblue" stroke="midnightblue" points="400.12,-512.02 389.53,-511.86 397.71,-518.59 400.12,-512.02"/>
</g>
<!-- Node930&#45;&gt;Node946 -->
<g id="edge25" class="edge">
<title>Node930&#45;&gt;Node946</title>
<path fill="none" stroke="midnightblue" d="M384.88,-486.64C417.51,-462.72 478.78,-417.81 505.72,-398.06"/>
<polygon fill="midnightblue" stroke="midnightblue" points="382.49,-484.06 376.49,-492.8 386.62,-489.71 382.49,-484.06"/>
</g>
<!-- Node963 -->
<g id="node36" class="node">
<title>Node963</title>
<g id="a_node36"><a xlink:href="net_8c.html#a9e7c7fc083799c942c9c44ebc190c833" target="_top" xlink:title="coap_connect_session">
<polygon fill="white" stroke="black" points="1609,-606.82 1609,-625.82 1725,-625.82 1725,-606.82 1609,-606.82"/>
<text text-anchor="middle" x="1667" y="-613.82" font-family="Helvetica,sans-Serif" font-size="10.00">coap_connect_session</text>
</a>
</g>
</g>
<!-- Node930&#45;&gt;Node963 -->
<g id="edge61" class="edge">
<title>Node930&#45;&gt;Node963</title>
<path fill="none" stroke="midnightblue" d="M379.98,-519.25C398.29,-536.97 429.56,-564.14 462,-578.32 555.13,-619.02 585.86,-616.32 687.5,-616.32 687.5,-616.32 687.5,-616.32 1352,-616.32 1441.81,-616.32 1546.07,-616.32 1608.99,-616.32"/>
<polygon fill="midnightblue" stroke="midnightblue" points="382.09,-516.41 372.52,-511.85 377.16,-521.38 382.09,-516.41"/>
</g>
<!-- Node932 -->
<g id="node5" class="node">
<title>Node932</title>
<g id="a_node5"><a xlink:href="coap__session_8h.html#ad495fcd405fa86859fa36d45f89be910" target="_top" xlink:title="Creates a new client session to the designated server. ">
<polygon fill="white" stroke="black" points="624.5,-454.82 624.5,-473.82 752.5,-473.82 752.5,-454.82 624.5,-454.82"/>
<text text-anchor="middle" x="688.5" y="-461.82" font-family="Helvetica,sans-Serif" font-size="10.00">coap_new_client_session</text>
</a>
</g>
</g>
<!-- Node931&#45;&gt;Node932 -->
<g id="edge4" class="edge">
<title>Node931&#45;&gt;Node932</title>
<path fill="none" stroke="midnightblue" d="M572.81,-490.5C596.28,-485.14 623.67,-478.89 645.79,-473.84"/>
<polygon fill="midnightblue" stroke="midnightblue" points="571.99,-487.09 563.01,-492.73 573.54,-493.92 571.99,-487.09"/>
</g>
<!-- Node933 -->
<g id="node6" class="node">
<title>Node933</title>
<g id="a_node6"><a xlink:href="coap__session_8h.html#a40790c70df0b38fe89f3fb2ad255d662" target="_top" xlink:title="Creates a new client session to the designated server with PSK credentials. ">
<polygon fill="white" stroke="black" points="614,-530.82 614,-549.82 763,-549.82 763,-530.82 614,-530.82"/>
<text text-anchor="middle" x="688.5" y="-537.82" font-family="Helvetica,sans-Serif" font-size="10.00">coap_new_client_session_psk</text>
</a>
</g>
</g>
<!-- Node931&#45;&gt;Node933 -->
<g id="edge5" class="edge">
<title>Node931&#45;&gt;Node933</title>
<path fill="none" stroke="midnightblue" d="M572.81,-514.14C596.28,-519.5 623.67,-525.75 645.79,-530.8"/>
<polygon fill="midnightblue" stroke="midnightblue" points="573.54,-510.72 563.01,-511.91 571.99,-517.55 573.54,-510.72"/>
</g>
<!-- Node934 -->
<g id="node7" class="node">
<title>Node934</title>
<g id="a_node7"><a xlink:href="coap__session_8h.html#a90f2df37ae4204189027c01604ddfe50" target="_top" xlink:title="Creates a new client session to the designated server with PKI credentials. ">
<polygon fill="white" stroke="black" points="615.5,-492.82 615.5,-511.82 761.5,-511.82 761.5,-492.82 615.5,-492.82"/>
<text text-anchor="middle" x="688.5" y="-499.82" font-family="Helvetica,sans-Serif" font-size="10.00">coap_new_client_session_pki</text>
</a>
</g>
</g>
<!-- Node931&#45;&gt;Node934 -->
<g id="edge6" class="edge">
<title>Node931&#45;&gt;Node934</title>
<path fill="none" stroke="midnightblue" d="M588.54,-502.32C597.39,-502.32 606.47,-502.32 615.39,-502.32"/>
<polygon fill="midnightblue" stroke="midnightblue" points="588.3,-498.82 578.3,-502.32 588.3,-505.82 588.3,-498.82"/>
</g>
<!-- Node936 -->
<g id="node9" class="node">
<title>Node936</title>
<g id="a_node9"><a xlink:href="coap__session_8h.html#aadffd66ead18cd2eba0b19efe92a3d88" target="_top" xlink:title="Creates a new server session for the specified endpoint. ">
<polygon fill="white" stroke="black" points="1285,-568.82 1285,-587.82 1417,-587.82 1417,-568.82 1285,-568.82"/>
<text text-anchor="middle" x="1351" y="-575.82" font-family="Helvetica,sans-Serif" font-size="10.00">coap_new_server_session</text>
</a>
</g>
</g>
<!-- Node935&#45;&gt;Node936 -->
<g id="edge8" class="edge">
<title>Node935&#45;&gt;Node936</title>
<path fill="none" stroke="midnightblue" d="M585.96,-565.06C654.99,-570.65 767.35,-578.32 864.5,-578.32 864.5,-578.32 864.5,-578.32 1028.5,-578.32 1117.25,-578.32 1219.77,-578.32 1284.73,-578.32"/>
<polygon fill="midnightblue" stroke="midnightblue" points="585.93,-561.54 575.68,-564.21 585.36,-568.52 585.93,-561.54"/>
</g>
<!-- Node937 -->
<g id="node10" class="node">
<title>Node937</title>
<g id="a_node10"><a xlink:href="net_8c.html#a7437c90770ffd13685e6a77799b4753b" target="_top" xlink:title="coap_accept_endpoint">
<polygon fill="white" stroke="black" points="1610,-568.82 1610,-587.82 1724,-587.82 1724,-568.82 1610,-568.82"/>
<text text-anchor="middle" x="1667" y="-575.82" font-family="Helvetica,sans-Serif" font-size="10.00">coap_accept_endpoint</text>
</a>
</g>
</g>
<!-- Node936&#45;&gt;Node937 -->
<g id="edge9" class="edge">
<title>Node936&#45;&gt;Node937</title>
<path fill="none" stroke="midnightblue" d="M1427.32,-578.32C1483.5,-578.32 1559.03,-578.32 1609.96,-578.32"/>
<polygon fill="midnightblue" stroke="midnightblue" points="1427.06,-574.82 1417.06,-578.32 1427.06,-581.82 1427.06,-574.82"/>
</g>
<!-- Node938 -->
<g id="node11" class="node">
<title>Node938</title>
<g id="a_node11"><a xlink:href="net_8h.html#a0748d791fd2af516dd93fbadb660d440" target="_top" xlink:title="For applications with their own message loop, reads all data from the network. ">
<polygon fill="white" stroke="black" points="1761,-492.82 1761,-511.82 1823,-511.82 1823,-492.82 1761,-492.82"/>
<text text-anchor="middle" x="1792" y="-499.82" font-family="Helvetica,sans-Serif" font-size="10.00">coap_read</text>
</a>
</g>
</g>
<!-- Node937&#45;&gt;Node938 -->
<g id="edge10" class="edge">
<title>Node937&#45;&gt;Node938</title>
<path fill="none" stroke="midnightblue" d="M1692.37,-563.26C1717.1,-547.98 1754.64,-524.79 1775.55,-511.87"/>
<polygon fill="midnightblue" stroke="midnightblue" points="1690.25,-560.46 1683.58,-568.69 1693.92,-566.42 1690.25,-560.46"/>
</g>
<!-- Node943 -->
<g id="node16" class="node">
<title>Node943</title>
<g id="a_node16"><a xlink:href="net_8h.html#a7b591afa095a093b604b63313275a02a" target="_top" xlink:title="Process all the epoll events. ">
<polygon fill="white" stroke="black" points="2297,-473.82 2297,-492.82 2398,-492.82 2398,-473.82 2297,-473.82"/>
<text text-anchor="middle" x="2347.5" y="-480.82" font-family="Helvetica,sans-Serif" font-size="10.00">coap_io_do_events</text>
</a>
</g>
</g>
<!-- Node937&#45;&gt;Node943 -->
<g id="edge24" class="edge">
<title>Node937&#45;&gt;Node943</title>
<path fill="none" stroke="midnightblue" d="M1734.53,-575.23C1844.99,-569.12 2072.71,-552.34 2261,-511.32 2281.91,-506.77 2304.92,-499.07 2321.8,-492.89"/>
<polygon fill="midnightblue" stroke="midnightblue" points="1734.01,-571.75 1724.21,-575.79 1734.39,-578.74 1734.01,-571.75"/>
</g>
<!-- Node939 -->
<g id="node12" class="node">
<title>Node939</title>
<g id="a_node12"><a xlink:href="coap__io_8c.html#a75a7c93e10ca7858449ba304aad4ea37" target="_top" xlink:title="coap_run_once">
<polygon fill="white" stroke="black" points="2434,-358.82 2434,-377.82 2517,-377.82 2517,-358.82 2434,-358.82"/>
<text text-anchor="middle" x="2475.5" y="-365.82" font-family="Helvetica,sans-Serif" font-size="10.00">coap_run_once</text>
</a>
</g>
</g>
<!-- Node938&#45;&gt;Node939 -->
<g id="edge11" class="edge">
<title>Node938&#45;&gt;Node939</title>
<path fill="none" stroke="midnightblue" d="M1831.91,-514.78C1933.35,-544.8 2210.95,-610.92 2398,-502.32 2445.95,-474.48 2466.38,-404.05 2472.44,-378.11"/>
<polygon fill="midnightblue" stroke="midnightblue" points="1832.68,-511.36 1822.1,-511.83 1830.66,-518.06 1832.68,-511.36"/>
</g>
<!-- Node940 -->
<g id="node13" class="node">
<title>Node940</title>
<g id="a_node13"><a xlink:href="net_8h.html#a9900c032b74bd57f67d489484a2b3207" target="_top" xlink:title="Handles retransmissions of confirmable messages. ">
<polygon fill="white" stroke="black" points="1865,-364.82 1865,-383.82 1951,-383.82 1951,-364.82 1865,-364.82"/>
<text text-anchor="middle" x="1908" y="-371.82" font-family="Helvetica,sans-Serif" font-size="10.00">coap_retransmit</text>
</a>
</g>
</g>
<!-- Node938&#45;&gt;Node940 -->
<g id="edge12" class="edge">
<title>Node938&#45;&gt;Node940</title>
<path fill="none" stroke="midnightblue" d="M1802.79,-483.49C1814.27,-462.66 1834.83,-428.92 1859,-405.32 1867.66,-396.87 1878.97,-389.43 1888.43,-383.96"/>
<polygon fill="midnightblue" stroke="midnightblue" points="1799.56,-482.11 1797.91,-492.58 1805.73,-485.42 1799.56,-482.11"/>
</g>
<!-- Node944 -->
<g id="node17" class="node">
<title>Node944</title>
<g id="a_node17"><a xlink:href="net_8h.html#a5854b1394bfddd574e48af116e3aaaf9" target="_top" xlink:title="Sends an RST message with code 0 for the specified request to dst. ">
<polygon fill="white" stroke="black" points="2164.5,-301.82 2164.5,-320.82 2244.5,-320.82 2244.5,-301.82 2164.5,-301.82"/>
<text text-anchor="middle" x="2204.5" y="-308.82" font-family="Helvetica,sans-Serif" font-size="10.00">coap_send_rst</text>
</a>
</g>
</g>
<!-- Node938&#45;&gt;Node944 -->
<g id="edge23" class="edge">
<title>Node938&#45;&gt;Node944</title>
<path fill="none" stroke="midnightblue" d="M1824.5,-488.73C1882.03,-463.77 2007.74,-408.59 2112,-358.32 2137.74,-345.91 2167.05,-330.65 2185.41,-320.96"/>
<polygon fill="midnightblue" stroke="midnightblue" points="1823.01,-485.56 1815.22,-492.75 1825.79,-491.99 1823.01,-485.56"/>
</g>
<!-- Node941 -->
<g id="node14" class="node">
<title>Node941</title>
<g id="a_node14"><a xlink:href="net_8h.html#aaac86ac50793f309678e4951ecf8863f" target="_top" xlink:title="For applications with their own message loop, send all pending retransmits and return the list of soc...">
<polygon fill="white" stroke="black" points="2020.5,-150.82 2020.5,-169.82 2084.5,-169.82 2084.5,-150.82 2020.5,-150.82"/>
<text text-anchor="middle" x="2052.5" y="-157.82" font-family="Helvetica,sans-Serif" font-size="10.00">coap_write</text>
</a>
</g>
</g>
<!-- Node940&#45;&gt;Node941 -->
<g id="edge13" class="edge">
<title>Node940&#45;&gt;Node941</title>
<path fill="none" stroke="midnightblue" d="M1921.14,-356.09C1950.16,-312.5 2022.79,-203.43 2044.97,-170.13"/>
<polygon fill="midnightblue" stroke="midnightblue" points="1918.12,-354.31 1915.49,-364.57 1923.95,-358.19 1918.12,-354.31"/>
</g>
<!-- Node940&#45;&gt;Node944 -->
<g id="edge22" class="edge">
<title>Node940&#45;&gt;Node944</title>
<path fill="none" stroke="midnightblue" d="M1961.27,-363.14C2019.39,-350.7 2111.94,-330.91 2164.21,-319.73"/>
<polygon fill="midnightblue" stroke="midnightblue" points="1960.24,-359.78 1951.19,-365.29 1961.71,-366.62 1960.24,-359.78"/>
</g>
<!-- Node945 -->
<g id="node18" class="node">
<title>Node945</title>
<g id="a_node18"><a xlink:href="net_8h.html#a09ff95ae16a4b7f6abf4a0822d430658" target="_top" xlink:title="Function interface for joining a multicast group for listening. ">
<polygon fill="white" stroke="black" points="1993,-272.82 1993,-291.82 2112,-291.82 2112,-272.82 1993,-272.82"/>
<text text-anchor="middle" x="2052.5" y="-279.82" font-family="Helvetica,sans-Serif" font-size="10.00">coap_join_mcast_group</text>
</a>
</g>
</g>
<!-- Node940&#45;&gt;Node945 -->
<g id="edge20" class="edge">
<title>Node940&#45;&gt;Node945</title>
<path fill="none" stroke="midnightblue" d="M1932.45,-359.18C1962.03,-340.08 2011.99,-307.83 2036.72,-291.86"/>
<polygon fill="midnightblue" stroke="midnightblue" points="1930.48,-356.28 1923.98,-364.65 1934.28,-362.16 1930.48,-356.28"/>
</g>
<!-- Node941&#45;&gt;Node939 -->
<g id="edge18" class="edge">
<title>Node941&#45;&gt;Node939</title>
<path fill="none" stroke="midnightblue" d="M2094.2,-172.62C2160.72,-193.7 2295.56,-240.61 2398,-303.32 2424.46,-319.52 2451.11,-344.61 2464.89,-358.41"/>
<polygon fill="midnightblue" stroke="midnightblue" points="2095.1,-169.23 2084.51,-169.58 2093.01,-175.91 2095.1,-169.23"/>
</g>
<!-- Node942 -->
<g id="node15" class="node">
<title>Node942</title>
<g id="a_node15"><a xlink:href="net_8h.html#a3be92476a2c2c12d68c0cd07795c7e34" target="_top" xlink:title="Any now timed out delayed packet is transmitted, along with any packets associated with requested obs...">
<polygon fill="white" stroke="black" points="2148,-263.82 2148,-282.82 2261,-282.82 2261,-263.82 2148,-263.82"/>
<text text-anchor="middle" x="2204.5" y="-270.82" font-family="Helvetica,sans-Serif" font-size="10.00">coap_io_prepare_epoll</text>
</a>
</g>
</g>
<!-- Node941&#45;&gt;Node942 -->
<g id="edge14" class="edge">
<title>Node941&#45;&gt;Node942</title>
<path fill="none" stroke="midnightblue" d="M2093.87,-173.63C2100.25,-176.63 2106.53,-180.18 2112,-184.32 2132.7,-199.99 2129.6,-212.01 2148,-230.32 2160.79,-243.04 2177.34,-255.43 2189.03,-263.61"/>
<polygon fill="midnightblue" stroke="midnightblue" points="2095.12,-170.36 2084.55,-169.62 2092.35,-176.79 2095.12,-170.36"/>
</g>
<!-- Node941&#45;&gt;Node944 -->
<g id="edge19" class="edge">
<title>Node941&#45;&gt;Node944</title>
<path fill="none" stroke="midnightblue" d="M2093.96,-171.51C2100.64,-174.78 2107,-178.97 2112,-184.32 2146.55,-221.29 2112.37,-256.4 2148,-292.32 2152.59,-296.95 2158.35,-300.45 2164.42,-303.1"/>
<polygon fill="midnightblue" stroke="midnightblue" points="2095.33,-168.29 2084.75,-167.59 2092.58,-174.73 2095.33,-168.29"/>
</g>
<!-- Node942&#45;&gt;Node939 -->
<g id="edge15" class="edge">
<title>Node942&#45;&gt;Node939</title>
<path fill="none" stroke="midnightblue" d="M2243.26,-286.18C2249.2,-288.22 2255.27,-290.32 2261,-292.32 2328.42,-315.86 2407.56,-344.22 2447.91,-358.74"/>
<polygon fill="midnightblue" stroke="midnightblue" points="2244.07,-282.75 2233.47,-282.82 2241.8,-289.38 2244.07,-282.75"/>
</g>
<!-- Node942&#45;&gt;Node943 -->
<g id="edge16" class="edge">
<title>Node942&#45;&gt;Node943</title>
<path fill="none" stroke="midnightblue" d="M2255.5,-288.01C2257.44,-289.32 2259.29,-290.76 2261,-292.32 2318.42,-344.74 2339.59,-442.99 2344.99,-473.82"/>
<polygon fill="midnightblue" stroke="midnightblue" points="2256.92,-284.79 2246.48,-282.95 2253.49,-290.89 2256.92,-284.79"/>
</g>
<!-- Node943&#45;&gt;Node939 -->
<g id="edge17" class="edge">
<title>Node943&#45;&gt;Node939</title>
<path fill="none" stroke="midnightblue" d="M2366.76,-466.66C2393.44,-442.31 2442.23,-397.77 2463.78,-378.1"/>
<polygon fill="midnightblue" stroke="midnightblue" points="2364.27,-464.19 2359.24,-473.52 2368.99,-469.36 2364.27,-464.19"/>
</g>
<!-- Node945&#45;&gt;Node945 -->
<g id="edge21" class="edge">
<title>Node945&#45;&gt;Node945</title>
<path fill="none" stroke="midnightblue" d="M2025.62,-300.97C2026.74,-306.26 2035.7,-310.32 2052.5,-310.32 2078.09,-310.32 2085.49,-300.89 2074.69,-292.08"/>
<polygon fill="midnightblue" stroke="midnightblue" points="2028.74,-302.56 2030.31,-292.08 2022.55,-299.29 2028.74,-302.56"/>
</g>
<!-- Node946&#45;&gt;Node940 -->
<g id="edge60" class="edge">
<title>Node946&#45;&gt;Node940</title>
<path fill="none" stroke="midnightblue" d="M572.7,-397.53C628.37,-406.94 719.62,-420.92 799,-426.32 982.42,-438.8 1241.94,-388.32 1512,-388.32 1512,-388.32 1512,-388.32 1668,-388.32 1737,-388.32 1817.01,-382.43 1864.73,-378.29"/>
<polygon fill="midnightblue" stroke="midnightblue" points="573.18,-394.06 562.73,-395.83 572,-400.96 573.18,-394.06"/>
</g>
<!-- Node947 -->
<g id="node20" class="node">
<title>Node947</title>
<g id="a_node20"><a xlink:href="net_8h.html#ab0b0b5db03427c4313c01ec2b12cf8ed" target="_top" xlink:title="Sends a CoAP message to given peer. ">
<polygon fill="white" stroke="black" points="656.5,-207.82 656.5,-226.82 720.5,-226.82 720.5,-207.82 656.5,-207.82"/>
<text text-anchor="middle" x="688.5" y="-214.82" font-family="Helvetica,sans-Serif" font-size="10.00">coap_send</text>
</a>
</g>
</g>
<!-- Node946&#45;&gt;Node947 -->
<g id="edge26" class="edge">
<title>Node946&#45;&gt;Node947</title>
<path fill="none" stroke="midnightblue" d="M537.46,-371.42C571.99,-335.95 651.06,-254.74 678.17,-226.9"/>
<polygon fill="midnightblue" stroke="midnightblue" points="534.9,-369.03 530.43,-378.64 539.91,-373.91 534.9,-369.03"/>
</g>
<!-- Node947&#45;&gt;Node944 -->
<g id="edge58" class="edge">
<title>Node947&#45;&gt;Node944</title>
<path fill="none" stroke="midnightblue" d="M730.6,-221.13C794.03,-226.68 919.64,-236.32 1026.5,-236.32 1026.5,-236.32 1026.5,-236.32 1909,-236.32 2000.02,-236.32 2028.35,-227.44 2112,-263.32 2130.88,-271.42 2130.01,-282.4 2148,-292.32 2154.69,-296.01 2162.22,-299.17 2169.53,-301.79"/>
<polygon fill="midnightblue" stroke="midnightblue" points="730.87,-217.64 720.6,-220.25 730.25,-224.62 730.87,-217.64"/>
</g>
<!-- Node948 -->
<g id="node21" class="node">
<title>Node948</title>
<g id="a_node21"><a xlink:href="coap__session_8h.html#ab3f9f60c0a4857c147fef5721025944c" target="_top" xlink:title="Send a ping message for the session. ">
<polygon fill="white" stroke="black" points="1123,-36.82 1123,-55.82 1249,-55.82 1249,-36.82 1123,-36.82"/>
<text text-anchor="middle" x="1186" y="-43.82" font-family="Helvetica,sans-Serif" font-size="10.00">coap_session_send_ping</text>
</a>
</g>
</g>
<!-- Node947&#45;&gt;Node948 -->
<g id="edge27" class="edge">
<title>Node947&#45;&gt;Node948</title>
<path fill="none" stroke="midnightblue" d="M694.82,-197.66C706.41,-159.09 737.95,-74.05 799,-37.32 916.46,33.36 1092.57,-14.63 1158.68,-36.79"/>
<polygon fill="midnightblue" stroke="midnightblue" points="691.35,-197.06 691.96,-207.63 698.08,-198.99 691.35,-197.06"/>
</g>
<!-- Node949 -->
<g id="node22" class="node">
<title>Node949</title>
<g id="a_node22"><a xlink:href="net_8h.html#aba278b109415057d15196fa46afee970" target="_top" xlink:title="Sends an ACK message with code 0 for the specified request to dst. ">
<polygon fill="white" stroke="black" points="823,-188.82 823,-207.82 908,-207.82 908,-188.82 823,-188.82"/>
<text text-anchor="middle" x="865.5" y="-195.82" font-family="Helvetica,sans-Serif" font-size="10.00">coap_send_ack</text>
</a>
</g>
</g>
<!-- Node947&#45;&gt;Node949 -->
<g id="edge29" class="edge">
<title>Node947&#45;&gt;Node949</title>
<path fill="none" stroke="midnightblue" d="M730.97,-212.82C758.74,-209.8 795.17,-205.85 822.95,-202.83"/>
<polygon fill="midnightblue" stroke="midnightblue" points="730.35,-209.36 720.79,-213.92 731.11,-216.32 730.35,-209.36"/>
</g>
<!-- Node951 -->
<g id="node24" class="node">
<title>Node951</title>
<g id="a_node24"><a xlink:href="net_8h.html#a7bb944fc52f772655356d95724317401" target="_top" xlink:title="Dispatches the PDUs from the receive queue in given context. ">
<polygon fill="white" stroke="black" points="1146,-321.82 1146,-340.82 1226,-340.82 1226,-321.82 1146,-321.82"/>
<text text-anchor="middle" x="1186" y="-328.82" font-family="Helvetica,sans-Serif" font-size="10.00">coap_dispatch</text>
</a>
</g>
</g>
<!-- Node947&#45;&gt;Node951 -->
<g id="edge57" class="edge">
<title>Node947&#45;&gt;Node951</title>
<path fill="none" stroke="midnightblue" d="M726.63,-229.97C747.66,-236.76 774.58,-244.85 799,-250.32 925.29,-278.62 961.9,-260.17 1087,-293.32 1114.52,-300.61 1144.89,-313.13 1164.42,-321.79"/>
<polygon fill="midnightblue" stroke="midnightblue" points="727.7,-226.64 717.11,-226.85 725.52,-233.29 727.7,-226.64"/>
</g>
<!-- Node957 -->
<g id="node30" class="node">
<title>Node957</title>
<g id="a_node30"><a xlink:href="resource_8c.html#ae1a91e254baca4f43b7896f54a8d9944" target="_top" xlink:title="coap_notify_observers">
<polygon fill="white" stroke="black" points="1128.5,-150.82 1128.5,-169.82 1243.5,-169.82 1243.5,-150.82 1128.5,-150.82"/>
<text text-anchor="middle" x="1186" y="-157.82" font-family="Helvetica,sans-Serif" font-size="10.00">coap_notify_observers</text>
</a>
</g>
</g>
<!-- Node947&#45;&gt;Node957 -->
<g id="edge59" class="edge">
<title>Node947&#45;&gt;Node957</title>
<path fill="none" stroke="midnightblue" d="M720.53,-203.89C742.1,-195.22 771.76,-184.6 799,-179.32 914.43,-156.93 1052.72,-156.29 1128.47,-158.11"/>
<polygon fill="midnightblue" stroke="midnightblue" points="719.14,-200.68 711.22,-207.71 721.8,-207.15 719.14,-200.68"/>
</g>
<!-- Node959 -->
<g id="node32" class="node">
<title>Node959</title>
<g id="a_node32"><a xlink:href="net_8h.html#ab31cd76353f751ec4dc5c033152df575" target="_top" xlink:title="Sends an error response with code code for request request to dst. ">
<polygon fill="white" stroke="black" points="821,-46.82 821,-65.82 910,-65.82 910,-46.82 821,-46.82"/>
<text text-anchor="middle" x="865.5" y="-53.82" font-family="Helvetica,sans-Serif" font-size="10.00">coap_send_error</text>
</a>
</g>
</g>
<!-- Node947&#45;&gt;Node959 -->
<g id="edge47" class="edge">
<title>Node947&#45;&gt;Node959</title>
<path fill="none" stroke="midnightblue" d="M702.49,-199.42C721.61,-173.93 759.35,-126.68 799,-94.32 812.95,-82.93 830.73,-72.85 844.24,-65.94"/>
<polygon fill="midnightblue" stroke="midnightblue" points="699.46,-197.64 696.33,-207.76 705.09,-201.8 699.46,-197.64"/>
</g>
<!-- Node960 -->
<g id="node33" class="node">
<title>Node960</title>
<g id="a_node33"><a xlink:href="net_8h.html#a6aa830b46188549b51773f724eb8e752" target="_top" xlink:title="Helper funktion to create and send a message with type (usually ACK or RST). ">
<polygon fill="white" stroke="black" points="799,-103.82 799,-122.82 932,-122.82 932,-103.82 799,-103.82"/>
<text text-anchor="middle" x="865.5" y="-110.82" font-family="Helvetica,sans-Serif" font-size="10.00">coap_send_message_type</text>
</a>
</g>
</g>
<!-- Node947&#45;&gt;Node960 -->
<g id="edge49" class="edge">
<title>Node947&#45;&gt;Node960</title>
<path fill="none" stroke="midnightblue" d="M711.62,-201.96C733.43,-187.07 767.91,-164.16 799,-146.32 813.8,-137.83 831.05,-129.18 844.13,-122.87"/>
<polygon fill="midnightblue" stroke="midnightblue" points="709.63,-199.08 703.37,-207.63 713.59,-204.85 709.63,-199.08"/>
</g>
<!-- Node961 -->
<g id="node34" class="node">
<title>Node961</title>
<g id="a_node34"><a xlink:href="net_8c.html#a1a280312c4bad55cf10243b9b9c3e966" target="_top" xlink:title="handle_request">
<polygon fill="white" stroke="black" points="986,-302.82 986,-321.82 1069,-321.82 1069,-302.82 986,-302.82"/>
<text text-anchor="middle" x="1027.5" y="-309.82" font-family="Helvetica,sans-Serif" font-size="10.00">handle_request</text>
</a>
</g>
</g>
<!-- Node947&#45;&gt;Node961 -->
<g id="edge53" class="edge">
<title>Node947&#45;&gt;Node961</title>
<path fill="none" stroke="midnightblue" d="M708.33,-233.55C729.05,-250.39 764.05,-275.95 799,-288.32 861.52,-310.45 939.29,-313.92 985.8,-313.66"/>
<polygon fill="midnightblue" stroke="midnightblue" points="710.3,-230.63 700.37,-226.93 705.82,-236.02 710.3,-230.63"/>
</g>
<!-- Node962 -->
<g id="node35" class="node">
<title>Node962</title>
<g id="a_node35"><a xlink:href="net_8c.html#ac4cbcfd073489b57805db665ce3d0681" target="_top" xlink:title="handle_signaling">
<polygon fill="white" stroke="black" points="983,-340.82 983,-359.82 1072,-359.82 1072,-340.82 983,-340.82"/>
<text text-anchor="middle" x="1027.5" y="-347.82" font-family="Helvetica,sans-Serif" font-size="10.00">handle_signaling</text>
</a>
</g>
</g>
<!-- Node947&#45;&gt;Node962 -->
<g id="edge55" class="edge">
<title>Node947&#45;&gt;Node962</title>
<path fill="none" stroke="midnightblue" d="M703.48,-234.73C722.53,-257.13 758.88,-295.39 799,-314.32 858.49,-342.39 935.46,-349.25 982.89,-350.57"/>
<polygon fill="midnightblue" stroke="midnightblue" points="706.14,-232.46 697.06,-227 700.76,-236.93 706.14,-232.46"/>
</g>
<!-- Node948&#45;&gt;Node941 -->
<g id="edge28" class="edge">
<title>Node948&#45;&gt;Node941</title>
<path fill="none" stroke="midnightblue" d="M1247.25,-57.62C1312.31,-68.82 1419.12,-84.32 1512,-84.32 1512,-84.32 1512,-84.32 1793,-84.32 1866.67,-84.32 1887.17,-84.86 1957,-108.32 1987.71,-118.64 2020.07,-138.76 2037.82,-150.72"/>
<polygon fill="midnightblue" stroke="midnightblue" points="1247.63,-54.13 1237.17,-55.86 1246.42,-61.03 1247.63,-54.13"/>
</g>
<!-- Node950 -->
<g id="node23" class="node">
<title>Node950</title>
<g id="a_node23"><a xlink:href="net_8c.html#af838d89087ad96495f8ed7f1a9297168" target="_top" xlink:title="handle_response">
<polygon fill="white" stroke="black" points="982.5,-188.82 982.5,-207.82 1072.5,-207.82 1072.5,-188.82 982.5,-188.82"/>
<text text-anchor="middle" x="1027.5" y="-195.82" font-family="Helvetica,sans-Serif" font-size="10.00">handle_response</text>
</a>
</g>
</g>
<!-- Node949&#45;&gt;Node950 -->
<g id="edge30" class="edge">
<title>Node949&#45;&gt;Node950</title>
<path fill="none" stroke="midnightblue" d="M918.31,-198.32C938.95,-198.32 962.46,-198.32 982.29,-198.32"/>
<polygon fill="midnightblue" stroke="midnightblue" points="918.12,-194.82 908.12,-198.32 918.12,-201.82 918.12,-194.82"/>
</g>
<!-- Node956 -->
<g id="node29" class="node">
<title>Node956</title>
<g id="a_node29"><a xlink:href="net_8h.html#ade36148140b152d713b23d17bbcf0024" target="_top" xlink:title="Returns a new message id and updates session&#45;&gt;tx_mid accordingly. ">
<polygon fill="white" stroke="black" points="968,-36.82 968,-55.82 1087,-55.82 1087,-36.82 968,-36.82"/>
<text text-anchor="middle" x="1027.5" y="-43.82" font-family="Helvetica,sans-Serif" font-size="10.00">coap_new_message_id</text>
</a>
</g>
</g>
<!-- Node949&#45;&gt;Node956 -->
<g id="edge41" class="edge">
<title>Node949&#45;&gt;Node956</title>
<path fill="none" stroke="midnightblue" d="M884.18,-181.53C917.81,-149.58 990.01,-80.99 1016.5,-55.82"/>
<polygon fill="midnightblue" stroke="midnightblue" points="881.35,-179.39 876.51,-188.81 886.17,-184.46 881.35,-179.39"/>
</g>
<!-- Node950&#45;&gt;Node951 -->
<g id="edge31" class="edge">
<title>Node950&#45;&gt;Node951</title>
<path fill="none" stroke="midnightblue" d="M1047.73,-214.66C1080.62,-242.61 1146.73,-298.8 1173.42,-321.48"/>
<polygon fill="midnightblue" stroke="midnightblue" points="1049.64,-211.69 1039.76,-207.89 1045.11,-217.03 1049.64,-211.69"/>
</g>
<!-- Node952 -->
<g id="node25" class="node">
<title>Node952</title>
<g id="a_node25"><a xlink:href="net_8c.html#acd36f6fba6d30ab9557e0e6521f4a088" target="_top" xlink:title="coap_read_session">
<polygon fill="white" stroke="black" points="1616.5,-501.82 1616.5,-520.82 1717.5,-520.82 1717.5,-501.82 1616.5,-501.82"/>
<text text-anchor="middle" x="1667" y="-508.82" font-family="Helvetica,sans-Serif" font-size="10.00">coap_read_session</text>
</a>
</g>
</g>
<!-- Node951&#45;&gt;Node952 -->
<g id="edge32" class="edge">
<title>Node951&#45;&gt;Node952</title>
<path fill="none" stroke="midnightblue" d="M1192.74,-350.54C1204.09,-384.71 1232.89,-455.35 1285,-486.32 1390.99,-549.31 1544.09,-533.97 1619.89,-520.86"/>
<polygon fill="midnightblue" stroke="midnightblue" points="1196.02,-349.3 1189.67,-340.82 1189.35,-351.41 1196.02,-349.3"/>
</g>
<!-- Node953 -->
<g id="node26" class="node">
<title>Node953</title>
<g id="a_node26"><a xlink:href="net_8h.html#ae6b8ca457dd41f23372f9e9a7159312b" target="_top" xlink:title="Parses and interprets a CoAP datagram with context ctx. ">
<polygon fill="white" stroke="black" points="1299,-457.82 1299,-476.82 1403,-476.82 1403,-457.82 1299,-457.82"/>
<text text-anchor="middle" x="1351" y="-464.82" font-family="Helvetica,sans-Serif" font-size="10.00">coap_handle_dgram</text>
</a>
</g>
</g>
<!-- Node951&#45;&gt;Node953 -->
<g id="edge35" class="edge">
<title>Node951&#45;&gt;Node953</title>
<path fill="none" stroke="midnightblue" d="M1206.33,-347.45C1240.5,-375.96 1310.6,-434.45 1338.33,-457.59"/>
<polygon fill="midnightblue" stroke="midnightblue" points="1208.38,-344.6 1198.46,-340.88 1203.9,-349.98 1208.38,-344.6"/>
</g>
<!-- Node952&#45;&gt;Node938 -->
<g id="edge33" class="edge">
<title>Node952&#45;&gt;Node938</title>
<path fill="none" stroke="midnightblue" d="M1727.75,-506.95C1739.28,-506.1 1750.89,-505.25 1760.97,-504.52"/>
<polygon fill="midnightblue" stroke="midnightblue" points="1727.39,-503.46 1717.67,-507.69 1727.9,-510.45 1727.39,-503.46"/>
</g>
<!-- Node952&#45;&gt;Node943 -->
<g id="edge34" class="edge">
<title>Node952&#45;&gt;Node943</title>
<path fill="none" stroke="midnightblue" d="M1727.65,-518.69C1738.72,-519.79 1750.2,-520.74 1761,-521.32 1788.52,-522.8 1795.46,-522.32 1823,-521.32 1997.39,-515 2203.81,-496.87 2296.76,-488.14"/>
<polygon fill="midnightblue" stroke="midnightblue" points="1727.94,-515.2 1717.63,-517.65 1727.22,-522.16 1727.94,-515.2"/>
</g>
<!-- Node954 -->
<g id="node27" class="node">
<title>Node954</title>
<g id="a_node27"><a xlink:href="net_8c.html#a8534f7860b14e0743529daff196a27ce" target="_top" xlink:title="coap_handle_dgram_for\l_proto">
<polygon fill="white" stroke="black" points="1453,-455.32 1453,-485.32 1573,-485.32 1573,-455.32 1453,-455.32"/>
<text text-anchor="start" x="1461" y="-473.32" font-family="Helvetica,sans-Serif" font-size="10.00">coap_handle_dgram_for</text>
<text text-anchor="middle" x="1513" y="-462.32" font-family="Helvetica,sans-Serif" font-size="10.00">_proto</text>
</a>
</g>
</g>
<!-- Node953&#45;&gt;Node954 -->
<g id="edge36" class="edge">
<title>Node953&#45;&gt;Node954</title>
<path fill="none" stroke="midnightblue" d="M1413.28,-468.47C1426.24,-468.71 1439.9,-468.97 1452.78,-469.21"/>
<polygon fill="midnightblue" stroke="midnightblue" points="1413.13,-464.97 1403.06,-468.28 1413,-471.96 1413.13,-464.97"/>
</g>
<!-- Node954&#45;&gt;Node952 -->
<g id="edge37" class="edge">
<title>Node954&#45;&gt;Node952</title>
<path fill="none" stroke="midnightblue" d="M1579.4,-487.96C1596.97,-492.7 1615.32,-497.65 1630.58,-501.77"/>
<polygon fill="midnightblue" stroke="midnightblue" points="1580.3,-484.58 1569.74,-485.35 1578.48,-491.34 1580.3,-484.58"/>
</g>
<!-- Node955 -->
<g id="node28" class="node">
<title>Node955</title>
<g id="a_node28"><a xlink:href="net_8c.html#a44ffb4b70e537043e9a9cf344be24b92" target="_top" xlink:title="coap_read_endpoint">
<polygon fill="white" stroke="black" points="1615,-460.82 1615,-479.82 1719,-479.82 1719,-460.82 1615,-460.82"/>
<text text-anchor="middle" x="1667" y="-467.82" font-family="Helvetica,sans-Serif" font-size="10.00">coap_read_endpoint</text>
</a>
</g>
</g>
<!-- Node954&#45;&gt;Node955 -->
<g id="edge38" class="edge">
<title>Node954&#45;&gt;Node955</title>
<path fill="none" stroke="midnightblue" d="M1583.24,-470.32C1593.8,-470.32 1604.53,-470.32 1614.61,-470.32"/>
<polygon fill="midnightblue" stroke="midnightblue" points="1583.2,-466.82 1573.2,-470.32 1583.2,-473.82 1583.2,-466.82"/>
</g>
<!-- Node955&#45;&gt;Node938 -->
<g id="edge39" class="edge">
<title>Node955&#45;&gt;Node938</title>
<path fill="none" stroke="midnightblue" d="M1714.55,-482.43C1730.11,-486.48 1747.03,-490.88 1760.98,-494.51"/>
<polygon fill="midnightblue" stroke="midnightblue" points="1715.13,-478.97 1704.57,-479.83 1713.37,-485.74 1715.13,-478.97"/>
</g>
<!-- Node955&#45;&gt;Node943 -->
<g id="edge40" class="edge">
<title>Node955&#45;&gt;Node943</title>
<path fill="none" stroke="midnightblue" d="M1729.55,-467.93C1777.82,-466.25 1846.68,-464.32 1907,-464.32 1907,-464.32 1907,-464.32 2053.5,-464.32 2139.14,-464.32 2238.56,-472.5 2296.79,-478.13"/>
<polygon fill="midnightblue" stroke="midnightblue" points="1729.14,-464.44 1719.27,-468.29 1729.39,-471.43 1729.14,-464.44"/>
</g>
<!-- Node956&#45;&gt;Node948 -->
<g id="edge42" class="edge">
<title>Node956&#45;&gt;Node948</title>
<path fill="none" stroke="midnightblue" d="M1097.43,-46.32C1105.87,-46.32 1114.47,-46.32 1122.81,-46.32"/>
<polygon fill="midnightblue" stroke="midnightblue" points="1097.22,-42.82 1087.22,-46.32 1097.22,-49.82 1097.22,-42.82"/>
</g>
<!-- Node956&#45;&gt;Node957 -->
<g id="edge43" class="edge">
<title>Node956&#45;&gt;Node957</title>
<path fill="none" stroke="midnightblue" d="M1050.02,-62C1082.86,-85.92 1144.52,-130.83 1171.63,-150.58"/>
<polygon fill="midnightblue" stroke="midnightblue" points="1051.72,-58.9 1041.57,-55.84 1047.6,-64.56 1051.72,-58.9"/>
</g>
<!-- Node958 -->
<g id="node31" class="node">
<title>Node958</title>
<g id="a_node31"><a xlink:href="resource_8h.html#a579bcb559463d3a872831c18d8d9a1c1" target="_top" xlink:title="Checks for all known resources, if they are dirty and notifies subscribed observers. ">
<polygon fill="white" stroke="black" points="1859,-150.82 1859,-169.82 1957,-169.82 1957,-150.82 1859,-150.82"/>
<text text-anchor="middle" x="1908" y="-157.82" font-family="Helvetica,sans-Serif" font-size="10.00">coap_check_notify</text>
</a>
</g>
</g>
<!-- Node957&#45;&gt;Node958 -->
<g id="edge44" class="edge">
<title>Node957&#45;&gt;Node958</title>
<path fill="none" stroke="midnightblue" d="M1253.87,-160.32C1319.58,-160.32 1422.69,-160.32 1512,-160.32 1512,-160.32 1512,-160.32 1668,-160.32 1734.18,-160.32 1810.67,-160.32 1858.93,-160.32"/>
<polygon fill="midnightblue" stroke="midnightblue" points="1253.66,-156.82 1243.66,-160.32 1253.66,-163.82 1253.66,-156.82"/>
</g>
<!-- Node958&#45;&gt;Node941 -->
<g id="edge45" class="edge">
<title>Node958&#45;&gt;Node941</title>
<path fill="none" stroke="midnightblue" d="M1967.45,-160.32C1985.55,-160.32 2004.8,-160.32 2020.3,-160.32"/>
<polygon fill="midnightblue" stroke="midnightblue" points="1967.24,-156.82 1957.24,-160.32 1967.24,-163.82 1967.24,-156.82"/>
</g>
<!-- Node958&#45;&gt;Node945 -->
<g id="edge46" class="edge">
<title>Node958&#45;&gt;Node945</title>
<path fill="none" stroke="midnightblue" d="M1927.89,-176.49C1958.03,-202.3 2016.07,-251.99 2040.37,-272.79"/>
<polygon fill="midnightblue" stroke="midnightblue" points="1930.05,-173.74 1920.18,-169.89 1925.5,-179.06 1930.05,-173.74"/>
</g>
<!-- Node959&#45;&gt;Node956 -->
<g id="edge48" class="edge">
<title>Node959&#45;&gt;Node956</title>
<path fill="none" stroke="midnightblue" d="M920.5,-52.95C935.72,-51.99 952.35,-50.95 967.83,-49.99"/>
<polygon fill="midnightblue" stroke="midnightblue" points="919.98,-49.47 910.22,-53.59 920.42,-56.46 919.98,-49.47"/>
</g>
<!-- Node960&#45;&gt;Node944 -->
<g id="edge52" class="edge">
<title>Node960&#45;&gt;Node944</title>
<path fill="none" stroke="midnightblue" d="M942.24,-115.06C1062.82,-117.68 1305.9,-122.32 1512,-122.32 1512,-122.32 1512,-122.32 1793,-122.32 1866.38,-122.32 1891.38,-108.49 1957,-141.32 1977.81,-151.73 1973.53,-166.58 1993,-179.32 2040.05,-210.12 2069.77,-185.19 2112,-222.32 2138.27,-245.42 2121.53,-269.44 2148,-292.32 2152.78,-296.45 2158.5,-299.69 2164.42,-302.24"/>
<polygon fill="midnightblue" stroke="midnightblue" points="942.08,-111.56 932.01,-114.84 941.93,-118.55 942.08,-111.56"/>
</g>
<!-- Node960&#45;&gt;Node951 -->
<g id="edge50" class="edge">
<title>Node960&#45;&gt;Node951</title>
<path fill="none" stroke="midnightblue" d="M942.37,-122.56C987.92,-131.19 1044.98,-147.74 1087,-179.32 1139.46,-218.74 1171.58,-295.11 1181.61,-321.82"/>
<polygon fill="midnightblue" stroke="midnightblue" points="942.71,-119.06 932.25,-120.73 941.47,-125.95 942.71,-119.06"/>
</g>
<!-- Node960&#45;&gt;Node956 -->
<g id="edge51" class="edge">
<title>Node960&#45;&gt;Node956</title>
<path fill="none" stroke="midnightblue" d="M898.3,-99.74C918.29,-91.23 944.62,-80.07 968,-70.32 979.55,-65.5 992.41,-60.22 1003.13,-55.84"/>
<polygon fill="midnightblue" stroke="midnightblue" points="896.87,-96.54 889.04,-103.68 899.62,-102.98 896.87,-96.54"/>
</g>
<!-- Node961&#45;&gt;Node951 -->
<g id="edge54" class="edge">
<title>Node961&#45;&gt;Node951</title>
<path fill="none" stroke="midnightblue" d="M1079.21,-318.48C1100.83,-321.1 1125.67,-324.12 1145.84,-326.57"/>
<polygon fill="midnightblue" stroke="midnightblue" points="1079.56,-314.99 1069.21,-317.26 1078.72,-321.94 1079.56,-314.99"/>
</g>
<!-- Node962&#45;&gt;Node951 -->
<g id="edge56" class="edge">
<title>Node962&#45;&gt;Node951</title>
<path fill="none" stroke="midnightblue" d="M1082.13,-343.81C1103.07,-341.27 1126.63,-338.41 1145.91,-336.07"/>
<polygon fill="midnightblue" stroke="midnightblue" points="1081.6,-340.35 1072.09,-345.03 1082.44,-347.3 1081.6,-340.35"/>
</g>
<!-- Node963&#45;&gt;Node938 -->
<g id="edge62" class="edge">
<title>Node963&#45;&gt;Node938</title>
<path fill="none" stroke="midnightblue" d="M1716.97,-602.43C1719.79,-600.9 1722.49,-599.2 1725,-597.32 1756.35,-573.85 1778.23,-531.01 1786.88,-511.93"/>
<polygon fill="midnightblue" stroke="midnightblue" points="1715.23,-599.38 1707.67,-606.8 1718.21,-605.72 1715.23,-599.38"/>
</g>
<!-- Node963&#45;&gt;Node943 -->
<g id="edge63" class="edge">
<title>Node963&#45;&gt;Node943</title>
<path fill="none" stroke="midnightblue" d="M1735.7,-616.32C1783.56,-616.32 1849.21,-616.32 1907,-616.32 1907,-616.32 1907,-616.32 2053.5,-616.32 2173.05,-616.32 2297.47,-523.38 2335.08,-492.89"/>
<polygon fill="midnightblue" stroke="midnightblue" points="1735.47,-612.82 1725.47,-616.32 1735.47,-619.82 1735.47,-612.82"/>
</g>
<!-- Node964&#45;&gt;Node940 -->
<g id="edge65" class="edge">
<title>Node964&#45;&gt;Node940</title>
<path fill="none" stroke="midnightblue" d="M939.35,-414.14C1003.86,-419.59 1100.61,-426.32 1185,-426.32 1185,-426.32 1185,-426.32 1668,-426.32 1737.71,-426.32 1755.25,-418.73 1823,-402.32 1843.17,-397.43 1865.43,-389.91 1881.96,-383.9"/>
<polygon fill="midnightblue" stroke="midnightblue" points="939.55,-410.65 929.28,-413.28 938.95,-417.62 939.55,-410.65"/>
</g>
<!-- Node964&#45;&gt;Node951 -->
<g id="edge67" class="edge">
<title>Node964&#45;&gt;Node951</title>
<path fill="none" stroke="midnightblue" d="M938.92,-398.55C982.33,-392.37 1038.38,-382.79 1087,-369.32 1114.26,-361.77 1144.43,-349.43 1164,-340.87"/>
<polygon fill="midnightblue" stroke="midnightblue" points="938.43,-395.08 929.01,-399.93 939.4,-402.01 938.43,-395.08"/>
</g>
<!-- Node964&#45;&gt;Node962 -->
<g id="edge66" class="edge">
<title>Node964&#45;&gt;Node962</title>
<path fill="none" stroke="midnightblue" d="M902.79,-394.39C932.23,-383.9 973.07,-369.36 999.63,-359.89"/>
<polygon fill="midnightblue" stroke="midnightblue" points="901.53,-391.13 893.28,-397.78 903.88,-397.72 901.53,-391.13"/>
</g>
</g>
</svg>
        <g id="navigator" transform="translate(0 0)" fill="#404254">
                <rect fill="#f2f5e9" fill-opacity="0.5" stroke="#606060" stroke-width=".5" x="0" y="0" width="60" height="60"/>
                <use id="zoomplus" xlink:href="#zoomPlus" x="17" y="9" onmousedown="handleZoom(evt,'in')"/>
                <use id="zoomminus" xlink:href="#zoomMin" x="42" y="9" onmousedown="handleZoom(evt,'out')"/>
                <use id="reset" xlink:href="#resetDef" x="30" y="36" onmousedown="handleReset()"/>
                <g id="arrowUp" xlink:href="#dirArrow" transform="translate(30 24)" onmousedown="handlePan(0,-1)">
                  <use xlink:href="#rim" fill="#404040">
                        <set attributeName="fill" to="#808080" begin="arrowUp.mouseover" end="arrowUp.mouseout"/>
                  </use>
                  <path fill="none" stroke="white" stroke-width="1.5" d="M0,-3.0v7 M-2.5,-0.5L0,-3.0L2.5,-0.5"/>
                </g>
                <g id="arrowRight" xlink:href="#dirArrow" transform="rotate(90) translate(36 -43)" onmousedown="handlePan(1,0)">
                  <use xlink:href="#rim" fill="#404040">
                        <set attributeName="fill" to="#808080" begin="arrowRight.mouseover" end="arrowRight.mouseout"/>
                  </use>
                  <path fill="none" stroke="white" stroke-width="1.5" d="M0,-3.0v7 M-2.5,-0.5L0,-3.0L2.5,-0.5"/>
                </g>
                <g id="arrowDown" xlink:href="#dirArrow" transform="rotate(180) translate(-30 -48)" onmousedown="handlePan(0,1)">
                  <use xlink:href="#rim" fill="#404040">
                        <set attributeName="fill" to="#808080" begin="arrowDown.mouseover" end="arrowDown.mouseout"/>
                  </use>
                  <path fill="none" stroke="white" stroke-width="1.5" d="M0,-3.0v7 M-2.5,-0.5L0,-3.0L2.5,-0.5"/>
                </g>
                <g id="arrowLeft" xlink:href="#dirArrow" transform="rotate(270) translate(-36 17)" onmousedown="handlePan(-1,0)">
                  <use xlink:href="#rim" fill="#404040">
                        <set attributeName="fill" to="#808080" begin="arrowLeft.mouseover" end="arrowLeft.mouseout"/>
                  </use>
                  <path fill="none" stroke="white" stroke-width="1.5" d="M0,-3.0v7 M-2.5,-0.5L0,-3.0L2.5,-0.5"/>
                </g>
        </g>
        <svg viewBox="0 0 15 15" width="100%" height="30px" preserveAspectRatio="xMaxYMin meet">
         <g id="arrow_out" transform="scale(0.3 0.3)">
          <a xlink:href="coap__session_8h_a43ad12697cacde3be9579f8253ca9ccf_icgraph_org.svg" target="_base">
           <rect id="button" ry="5" rx="5" y="6" x="6" height="38" width="38"
                fill="#f2f5e9" fill-opacity="0.5" stroke="#606060" stroke-width="1.0"/>
           <path id="arrow"
             d="M 11.500037,31.436501 C 11.940474,20.09759 22.043105,11.32322 32.158766,21.979434 L 37.068811,17.246167 C 37.068811,17.246167 37.088388,32 37.088388,32 L 22.160133,31.978069 C 22.160133,31.978069 26.997745,27.140456 26.997745,27.140456 C 18.528582,18.264221 13.291696,25.230495 11.500037,31.436501 z"
             style="fill:#404040;"/>
          </a>
         </g>
        </svg>
</svg>
