<?xml version="1.0" encoding="UTF-8" standalone="no"?>
<!DOCTYPE svg PUBLIC "-//W3C//DTD SVG 1.1//EN"
 "http://www.w3.org/Graphics/SVG/1.1/DTD/svg11.dtd">
<!-- Generated by graphviz version 2.43.0 (0)
 -->
<!-- Title: coap_endpoint_get_session Pages: 1 -->
<!--zoomable 216 -->
<svg id="main" version="1.1" xmlns="http://www.w3.org/2000/svg" xmlns:xlink="http://www.w3.org/1999/xlink" xml:space="preserve" onload="init(evt)">
<style type="text/css"><![CDATA[
.edge:hover path { stroke: red; }
.edge:hover polygon { stroke: red; fill: red; }
]]></style>
<script type="text/javascript"><![CDATA[
var edges = document.getElementsByTagName('g');
if (edges && edges.length) {
  for (var i=0;i<edges.length;i++) {
    if (edges[i].id.substr(0,4)=='edge') {
      edges[i].setAttribute('class','edge');
    }
  }
}
]]></script>
        <defs>
                <circle id="rim" cx="0" cy="0" r="7"/>
                <circle id="rim2" cx="0" cy="0" r="3.5"/>
                <g id="zoomPlus">
                        <use xlink:href="#rim" fill="#404040">
                                <set attributeName="fill" to="#808080" begin="zoomplus.mouseover" end="zoomplus.mouseout"/>
                        </use>
                        <path d="M-4,0h8M0,-4v8" fill="none" stroke="white" stroke-width="1.5" pointer-events="none"/>
                </g>
                <g id="zoomMin">
                        <use xlink:href="#rim" fill="#404040">
                                <set attributeName="fill" to="#808080" begin="zoomminus.mouseover" end="zoomminus.mouseout"/>
                        </use>
                        <path d="M-4,0h8" fill="none" stroke="white" stroke-width="1.5" pointer-events="none"/>
                </g>
                <g id="dirArrow">
                        <path fill="none" stroke="white" stroke-width="1.5" d="M0,-3.0v7 M-2.5,-0.5L0,-3.0L2.5,-0.5"/>
                </g>
               <g id="resetDef">
                       <use xlink:href="#rim2" fill="#404040">
                               <set attributeName="fill" to="#808080" begin="reset.mouseover" end="reset.mouseout"/>
                       </use>
               </g>
        </defs>

<script type="text/javascript">
var viewWidth = 1065;
var viewHeight = 216;
var sectionId = 'dynsection-2';
</script>
<script xlink:href="svgpan.js"/>
<svg id="graph" class="graph">
<g id="viewport">
<title>coap_endpoint_get_session</title>
<polygon fill="white" stroke="transparent" points="-4,4 -4,-212 1061,-212 1061,4 -4,4"/>
<!-- Node24 -->
<g id="node1" class="node">
<title>Node24</title>
<polygon fill="#bfbfbf" stroke="black" points="0,-9.5 0,-28.5 137,-28.5 137,-9.5 0,-9.5"/>
<text text-anchor="middle" x="68.5" y="-16.5" font-family="Helvetica,sans-Serif" font-size="10.00">coap_endpoint_get_session</text>
</g>
<!-- Node25 -->
<g id="node2" class="node">
<title>Node25</title>
<g id="a_node2"><a xlink:href="net_8c.html#a44ffb4b70e537043e9a9cf344be24b92" target="_top" xlink:title="coap_read_endpoint">
<polygon fill="white" stroke="black" points="173,-9.5 173,-28.5 277,-28.5 277,-9.5 173,-9.5"/>
<text text-anchor="middle" x="225" y="-16.5" font-family="Helvetica,sans-Serif" font-size="10.00">coap_read_endpoint</text>
</a>
</g>
</g>
<!-- Node24&#45;&gt;Node25 -->
<g id="edge1" class="edge">
<title>Node24&#45;&gt;Node25</title>
<path fill="none" stroke="midnightblue" d="M147.3,-19C155.87,-19 164.42,-19 172.55,-19"/>
<polygon fill="midnightblue" stroke="midnightblue" points="147.27,-15.5 137.27,-19 147.27,-22.5 147.27,-15.5"/>
</g>
<!-- Node26 -->
<g id="node3" class="node">
<title>Node26</title>
<g id="a_node3"><a xlink:href="net_8h.html#a0748d791fd2af516dd93fbadb660d440" target="_top" xlink:title="For applications with their own message loop, reads all data from the network. ">
<polygon fill="white" stroke="black" points="313,-61.5 313,-80.5 375,-80.5 375,-61.5 313,-61.5"/>
<text text-anchor="middle" x="344" y="-68.5" font-family="Helvetica,sans-Serif" font-size="10.00">coap_read</text>
</a>
</g>
</g>
<!-- Node25&#45;&gt;Node26 -->
<g id="edge2" class="edge">
<title>Node25&#45;&gt;Node26</title>
<path fill="none" stroke="midnightblue" d="M256.61,-32.61C276.93,-41.63 303.09,-53.26 321.28,-61.35"/>
<polygon fill="midnightblue" stroke="midnightblue" points="258.02,-29.4 247.46,-28.54 255.18,-35.8 258.02,-29.4"/>
</g>
<!-- Node31 -->
<g id="node8" class="node">
<title>Node31</title>
<g id="a_node8"><a xlink:href="net_8h.html#a7b591afa095a093b604b63313275a02a" target="_top" xlink:title="Process all the epoll events. ">
<polygon fill="white" stroke="black" points="837,-84.5 837,-103.5 938,-103.5 938,-84.5 837,-84.5"/>
<text text-anchor="middle" x="887.5" y="-91.5" font-family="Helvetica,sans-Serif" font-size="10.00">coap_io_do_events</text>
</a>
</g>
</g>
<!-- Node25&#45;&gt;Node31 -->
<g id="edge16" class="edge">
<title>Node25&#45;&gt;Node31</title>
<path fill="none" stroke="midnightblue" d="M287.31,-11.08C332.92,-5.87 396.75,0 453,0 453,0 453,0 593.5,0 703.28,0 825.62,-60.57 869.61,-84.47"/>
<polygon fill="midnightblue" stroke="midnightblue" points="286.81,-7.61 277.29,-12.25 287.62,-14.57 286.81,-7.61"/>
</g>
<!-- Node27 -->
<g id="node4" class="node">
<title>Node27</title>
<g id="a_node4"><a xlink:href="coap__io_8c.html#a75a7c93e10ca7858449ba304aad4ea37" target="_top" xlink:title="coap_run_once">
<polygon fill="white" stroke="black" points="974,-141.5 974,-160.5 1057,-160.5 1057,-141.5 974,-141.5"/>
<text text-anchor="middle" x="1015.5" y="-148.5" font-family="Helvetica,sans-Serif" font-size="10.00">coap_run_once</text>
</a>
</g>
</g>
<!-- Node26&#45;&gt;Node27 -->
<g id="edge3" class="edge">
<title>Node26&#45;&gt;Node27</title>
<path fill="none" stroke="midnightblue" d="M361.76,-88.38C399.21,-125.25 494.09,-208 591.5,-208 591.5,-208 591.5,-208 745.5,-208 835.96,-208 939.9,-176.77 987.79,-160.54"/>
<polygon fill="midnightblue" stroke="midnightblue" points="363.8,-85.47 354.27,-80.85 358.84,-90.41 363.8,-85.47"/>
</g>
<!-- Node28 -->
<g id="node5" class="node">
<title>Node28</title>
<g id="a_node5"><a xlink:href="net_8h.html#a9900c032b74bd57f67d489484a2b3207" target="_top" xlink:title="Handles retransmissions of confirmable messages. ">
<polygon fill="white" stroke="black" points="411,-94.5 411,-113.5 497,-113.5 497,-94.5 411,-94.5"/>
<text text-anchor="middle" x="454" y="-101.5" font-family="Helvetica,sans-Serif" font-size="10.00">coap_retransmit</text>
</a>
</g>
</g>
<!-- Node26&#45;&gt;Node28 -->
<g id="edge4" class="edge">
<title>Node26&#45;&gt;Node28</title>
<path fill="none" stroke="midnightblue" d="M384.94,-83.2C397.03,-86.9 410.12,-90.9 421.57,-94.4"/>
<polygon fill="midnightblue" stroke="midnightblue" points="385.67,-79.77 375.08,-80.19 383.62,-86.46 385.67,-79.77"/>
</g>
<!-- Node32 -->
<g id="node9" class="node">
<title>Node32</title>
<g id="a_node9"><a xlink:href="net_8h.html#a5854b1394bfddd574e48af116e3aaaf9" target="_top" xlink:title="Sends an RST message with code 0 for the specified request to dst. ">
<polygon fill="white" stroke="black" points="704.5,-84.5 704.5,-103.5 784.5,-103.5 784.5,-84.5 704.5,-84.5"/>
<text text-anchor="middle" x="744.5" y="-91.5" font-family="Helvetica,sans-Serif" font-size="10.00">coap_send_rst</text>
</a>
</g>
</g>
<!-- Node26&#45;&gt;Node32 -->
<g id="edge15" class="edge">
<title>Node26&#45;&gt;Node32</title>
<path fill="none" stroke="midnightblue" d="M385.47,-63.13C444.62,-52.99 557.88,-38.69 652,-57 678.74,-62.2 707.56,-75.22 725.56,-84.33"/>
<polygon fill="midnightblue" stroke="midnightblue" points="384.65,-59.72 375.41,-64.91 385.87,-66.62 384.65,-59.72"/>
</g>
<!-- Node29 -->
<g id="node6" class="node">
<title>Node29</title>
<g id="a_node6"><a xlink:href="net_8h.html#aaac86ac50793f309678e4951ecf8863f" target="_top" xlink:title="For applications with their own message loop, send all pending retransmits and return the list of soc...">
<polygon fill="white" stroke="black" points="560.5,-160.5 560.5,-179.5 624.5,-179.5 624.5,-160.5 560.5,-160.5"/>
<text text-anchor="middle" x="592.5" y="-167.5" font-family="Helvetica,sans-Serif" font-size="10.00">coap_write</text>
</a>
</g>
</g>
<!-- Node28&#45;&gt;Node29 -->
<g id="edge5" class="edge">
<title>Node28&#45;&gt;Node29</title>
<path fill="none" stroke="midnightblue" d="M480.23,-118.46C495.34,-126.89 515.04,-137.51 533,-146 543.82,-151.11 556.03,-156.22 566.49,-160.41"/>
<polygon fill="midnightblue" stroke="midnightblue" points="481.91,-115.38 471.48,-113.52 478.47,-121.48 481.91,-115.38"/>
</g>
<!-- Node28&#45;&gt;Node32 -->
<g id="edge14" class="edge">
<title>Node28&#45;&gt;Node32</title>
<path fill="none" stroke="midnightblue" d="M507.03,-110.84C515.69,-111.74 524.59,-112.52 533,-113 585.8,-116.04 599.39,-118.4 652,-113 670.08,-111.14 689.85,-107.27 706.37,-103.51"/>
<polygon fill="midnightblue" stroke="midnightblue" points="507.35,-107.36 497.02,-109.75 506.58,-114.32 507.35,-107.36"/>
</g>
<!-- Node33 -->
<g id="node10" class="node">
<title>Node33</title>
<g id="a_node10"><a xlink:href="net_8h.html#a09ff95ae16a4b7f6abf4a0822d430658" target="_top" xlink:title="Function interface for joining a multicast group for listening. ">
<polygon fill="white" stroke="black" points="533,-66.5 533,-85.5 652,-85.5 652,-66.5 533,-66.5"/>
<text text-anchor="middle" x="592.5" y="-73.5" font-family="Helvetica,sans-Serif" font-size="10.00">coap_join_mcast_group</text>
</a>
</g>
</g>
<!-- Node28&#45;&gt;Node33 -->
<g id="edge12" class="edge">
<title>Node28&#45;&gt;Node33</title>
<path fill="none" stroke="midnightblue" d="M506.92,-93.35C519.46,-90.78 532.78,-88.04 545.05,-85.53"/>
<polygon fill="midnightblue" stroke="midnightblue" points="506.16,-89.93 497.07,-95.37 507.57,-96.79 506.16,-89.93"/>
</g>
<!-- Node29&#45;&gt;Node27 -->
<g id="edge10" class="edge">
<title>Node29&#45;&gt;Node27</title>
<path fill="none" stroke="midnightblue" d="M635.07,-168.64C699.83,-166.45 828.72,-161.79 938,-156 949.56,-155.39 962.1,-154.61 973.62,-153.86"/>
<polygon fill="midnightblue" stroke="midnightblue" points="634.74,-165.15 624.86,-168.98 634.97,-172.15 634.74,-165.15"/>
</g>
<!-- Node30 -->
<g id="node7" class="node">
<title>Node30</title>
<g id="a_node7"><a xlink:href="net_8h.html#a3be92476a2c2c12d68c0cd07795c7e34" target="_top" xlink:title="Any now timed out delayed packet is transmitted, along with any packets associated with requested obs...">
<polygon fill="white" stroke="black" points="688,-122.5 688,-141.5 801,-141.5 801,-122.5 688,-122.5"/>
<text text-anchor="middle" x="744.5" y="-129.5" font-family="Helvetica,sans-Serif" font-size="10.00">coap_io_prepare_epoll</text>
</a>
</g>
</g>
<!-- Node29&#45;&gt;Node30 -->
<g id="edge6" class="edge">
<title>Node29&#45;&gt;Node30</title>
<path fill="none" stroke="midnightblue" d="M634.42,-159.63C656.69,-153.99 684.07,-147.06 705.82,-141.55"/>
<polygon fill="midnightblue" stroke="midnightblue" points="633.41,-156.28 624.58,-162.13 635.13,-163.06 633.41,-156.28"/>
</g>
<!-- Node29&#45;&gt;Node32 -->
<g id="edge11" class="edge">
<title>Node29&#45;&gt;Node32</title>
<path fill="none" stroke="midnightblue" d="M631.81,-156.57C638.75,-153.5 645.76,-149.96 652,-146 670.32,-134.37 669.34,-124.08 688,-113 694.3,-109.26 701.45,-106.11 708.47,-103.53"/>
<polygon fill="midnightblue" stroke="midnightblue" points="630.36,-153.38 622.47,-160.45 633.04,-159.84 630.36,-153.38"/>
</g>
<!-- Node30&#45;&gt;Node27 -->
<g id="edge7" class="edge">
<title>Node30&#45;&gt;Node27</title>
<path fill="none" stroke="midnightblue" d="M811.46,-136.66C862.2,-140.24 930.7,-145.08 973.73,-148.12"/>
<polygon fill="midnightblue" stroke="midnightblue" points="811.46,-133.15 801.24,-135.94 810.97,-140.13 811.46,-133.15"/>
</g>
<!-- Node30&#45;&gt;Node31 -->
<g id="edge8" class="edge">
<title>Node30&#45;&gt;Node31</title>
<path fill="none" stroke="midnightblue" d="M790.94,-119.75C810.37,-114.52 832.73,-108.49 850.93,-103.59"/>
<polygon fill="midnightblue" stroke="midnightblue" points="789.82,-116.43 781.08,-122.41 791.65,-123.19 789.82,-116.43"/>
</g>
<!-- Node31&#45;&gt;Node27 -->
<g id="edge9" class="edge">
<title>Node31&#45;&gt;Node27</title>
<path fill="none" stroke="midnightblue" d="M918.91,-107.76C941.93,-118.17 972.97,-132.21 993.34,-141.43"/>
<polygon fill="midnightblue" stroke="midnightblue" points="920.14,-104.47 909.59,-103.54 917.26,-110.85 920.14,-104.47"/>
</g>
<!-- Node33&#45;&gt;Node33 -->
<g id="edge13" class="edge">
<title>Node33&#45;&gt;Node33</title>
<path fill="none" stroke="midnightblue" d="M566.83,-95.03C568.23,-100.13 576.79,-104 592.5,-104 617.03,-104 624.12,-94.57 613.77,-85.76"/>
<polygon fill="midnightblue" stroke="midnightblue" points="570.11,-96.29 571.23,-85.76 563.78,-93.29 570.11,-96.29"/>
</g>
</g>
</svg>
        <g id="navigator" transform="translate(0 0)" fill="#404254">
                <rect fill="#f2f5e9" fill-opacity="0.5" stroke="#606060" stroke-width=".5" x="0" y="0" width="60" height="60"/>
                <use id="zoomplus" xlink:href="#zoomPlus" x="17" y="9" onmousedown="handleZoom(evt,'in')"/>
                <use id="zoomminus" xlink:href="#zoomMin" x="42" y="9" onmousedown="handleZoom(evt,'out')"/>
                <use id="reset" xlink:href="#resetDef" x="30" y="36" onmousedown="handleReset()"/>
                <g id="arrowUp" xlink:href="#dirArrow" transform="translate(30 24)" onmousedown="handlePan(0,-1)">
                  <use xlink:href="#rim" fill="#404040">
                        <set attributeName="fill" to="#808080" begin="arrowUp.mouseover" end="arrowUp.mouseout"/>
                  </use>
                  <path fill="none" stroke="white" stroke-width="1.5" d="M0,-3.0v7 M-2.5,-0.5L0,-3.0L2.5,-0.5"/>
                </g>
                <g id="arrowRight" xlink:href="#dirArrow" transform="rotate(90) translate(36 -43)" onmousedown="handlePan(1,0)">
                  <use xlink:href="#rim" fill="#404040">
                        <set attributeName="fill" to="#808080" begin="arrowRight.mouseover" end="arrowRight.mouseout"/>
                  </use>
                  <path fill="none" stroke="white" stroke-width="1.5" d="M0,-3.0v7 M-2.5,-0.5L0,-3.0L2.5,-0.5"/>
                </g>
                <g id="arrowDown" xlink:href="#dirArrow" transform="rotate(180) translate(-30 -48)" onmousedown="handlePan(0,1)">
                  <use xlink:href="#rim" fill="#404040">
                        <set attributeName="fill" to="#808080" begin="arrowDown.mouseover" end="arrowDown.mouseout"/>
                  </use>
                  <path fill="none" stroke="white" stroke-width="1.5" d="M0,-3.0v7 M-2.5,-0.5L0,-3.0L2.5,-0.5"/>
                </g>
                <g id="arrowLeft" xlink:href="#dirArrow" transform="rotate(270) translate(-36 17)" onmousedown="handlePan(-1,0)">
                  <use xlink:href="#rim" fill="#404040">
                        <set attributeName="fill" to="#808080" begin="arrowLeft.mouseover" end="arrowLeft.mouseout"/>
                  </use>
                  <path fill="none" stroke="white" stroke-width="1.5" d="M0,-3.0v7 M-2.5,-0.5L0,-3.0L2.5,-0.5"/>
                </g>
        </g>
        <svg viewBox="0 0 15 15" width="100%" height="30px" preserveAspectRatio="xMaxYMin meet">
         <g id="arrow_out" transform="scale(0.3 0.3)">
          <a xlink:href="coap__session_8c_a0d8adbae82b2ced3accee1361ac8fe6c_icgraph_org.svg" target="_base">
           <rect id="button" ry="5" rx="5" y="6" x="6" height="38" width="38"
                fill="#f2f5e9" fill-opacity="0.5" stroke="#606060" stroke-width="1.0"/>
           <path id="arrow"
             d="M 11.500037,31.436501 C 11.940474,20.09759 22.043105,11.32322 32.158766,21.979434 L 37.068811,17.246167 C 37.068811,17.246167 37.088388,32 37.088388,32 L 22.160133,31.978069 C 22.160133,31.978069 26.997745,27.140456 26.997745,27.140456 C 18.528582,18.264221 13.291696,25.230495 11.500037,31.436501 z"
             style="fill:#404040;"/>
          </a>
         </g>
        </svg>
</svg>
