<?xml version="1.0" encoding="UTF-8" standalone="no"?>
<!DOCTYPE svg PUBLIC "-//W3C//DTD SVG 1.1//EN"
 "http://www.w3.org/Graphics/SVG/1.1/DTD/svg11.dtd">
<!-- Generated by graphviz version 2.43.0 (0)
 -->
<!-- Title: coap_socket_connect_udp Pages: 1 -->
<svg width="432pt" height="142pt"
 viewBox="0.00 0.00 432.00 142.00" xmlns="http://www.w3.org/2000/svg" xmlns:xlink="http://www.w3.org/1999/xlink">
<g id="graph0" class="graph" transform="scale(1 1) rotate(0) translate(4 138)">
<title>coap_socket_connect_udp</title>
<polygon fill="white" stroke="transparent" points="-4,4 -4,-138 428,-138 428,4 -4,4"/>
<!-- Node270 -->
<g id="node1" class="node">
<title>Node270</title>
<polygon fill="#bfbfbf" stroke="black" points="0,-57.5 0,-76.5 133,-76.5 133,-57.5 0,-57.5"/>
<text text-anchor="middle" x="66.5" y="-64.5" font-family="Helvetica,sans-Serif" font-size="10.00">coap_socket_connect_udp</text>
</g>
<!-- Node271 -->
<g id="node2" class="node">
<title>Node271</title>
<g id="a_node2"><a xlink:href="address_8c.html#a5b47d6fe47a54a0798eddb9ea77005ea" target="_top" xlink:title="Checks if given address a denotes a multicast address. ">
<polygon fill="white" stroke="black" points="181.5,-114.5 181.5,-133.5 264.5,-133.5 264.5,-114.5 181.5,-114.5"/>
<text text-anchor="middle" x="223" y="-121.5" font-family="Helvetica,sans-Serif" font-size="10.00">coap_is_mcast</text>
</a>
</g>
</g>
<!-- Node270&#45;&gt;Node271 -->
<g id="edge1" class="edge">
<title>Node270&#45;&gt;Node271</title>
<path fill="none" stroke="midnightblue" d="M92.91,-76.63C113.42,-84.37 143.03,-95.48 169,-105 174.28,-106.93 179.86,-108.96 185.34,-110.93"/>
<polygon fill="midnightblue" stroke="midnightblue" points="184.42,-114.32 195.01,-114.41 186.78,-107.73 184.42,-114.32"/>
</g>
<!-- Node272 -->
<g id="node3" class="node">
<title>Node272</title>
<g id="a_node3"><a xlink:href="address_8h.html#ada8c7f0dd95000bb418860b970d8cb9f" target="_top" xlink:title="coap_address_copy">
<polygon fill="white" stroke="black" points="171,-76.5 171,-95.5 275,-95.5 275,-76.5 171,-76.5"/>
<text text-anchor="middle" x="223" y="-83.5" font-family="Helvetica,sans-Serif" font-size="10.00">coap_address_copy</text>
</a>
</g>
</g>
<!-- Node270&#45;&gt;Node272 -->
<g id="edge2" class="edge">
<title>Node270&#45;&gt;Node272</title>
<path fill="none" stroke="midnightblue" d="M133.02,-75.06C142.22,-76.19 151.65,-77.35 160.77,-78.47"/>
<polygon fill="midnightblue" stroke="midnightblue" points="160.55,-81.97 170.91,-79.72 161.41,-75.02 160.55,-81.97"/>
</g>
<!-- Node274 -->
<g id="node5" class="node">
<title>Node274</title>
<g id="a_node5"><a xlink:href="coap__io_8c.html#ad3119e077bde4ee15a65271de0b70531" target="_top" xlink:title="coap_socket_strerror">
<polygon fill="white" stroke="black" points="169,-38.5 169,-57.5 277,-57.5 277,-38.5 169,-38.5"/>
<text text-anchor="middle" x="223" y="-45.5" font-family="Helvetica,sans-Serif" font-size="10.00">coap_socket_strerror</text>
</a>
</g>
</g>
<!-- Node270&#45;&gt;Node274 -->
<g id="edge4" class="edge">
<title>Node270&#45;&gt;Node274</title>
<path fill="none" stroke="midnightblue" d="M133.02,-58.94C141.44,-57.91 150.05,-56.85 158.44,-55.82"/>
<polygon fill="midnightblue" stroke="midnightblue" points="159.03,-59.27 168.53,-54.58 158.18,-52.32 159.03,-59.27"/>
</g>
<!-- Node275 -->
<g id="node6" class="node">
<title>Node275</title>
<g id="a_node6"><a xlink:href="coap__io_8c.html#a2de382e7795c908d1a376da8c338386d" target="_top" xlink:title="coap_socket_close">
<polygon fill="white" stroke="black" points="172.5,-0.5 172.5,-19.5 273.5,-19.5 273.5,-0.5 172.5,-0.5"/>
<text text-anchor="middle" x="223" y="-7.5" font-family="Helvetica,sans-Serif" font-size="10.00">coap_socket_close</text>
</a>
</g>
</g>
<!-- Node270&#45;&gt;Node275 -->
<g id="edge5" class="edge">
<title>Node270&#45;&gt;Node275</title>
<path fill="none" stroke="midnightblue" d="M92.91,-57.37C113.42,-49.63 143.03,-38.52 169,-29 174.28,-27.07 179.86,-25.04 185.34,-23.07"/>
<polygon fill="midnightblue" stroke="midnightblue" points="186.78,-26.27 195.01,-19.59 184.42,-19.68 186.78,-26.27"/>
</g>
<!-- Node273 -->
<g id="node4" class="node">
<title>Node273</title>
<g id="a_node4"><a xlink:href="address_8h.html#aece6d39e01149af8dea29b0b8cbde504" target="_top" xlink:title="Compares given address objects a and b. ">
<polygon fill="white" stroke="black" points="313,-76.5 313,-95.5 424,-95.5 424,-76.5 313,-76.5"/>
<text text-anchor="middle" x="368.5" y="-83.5" font-family="Helvetica,sans-Serif" font-size="10.00">coap_address_equals</text>
</a>
</g>
</g>
<!-- Node272&#45;&gt;Node273 -->
<g id="edge3" class="edge">
<title>Node272&#45;&gt;Node273</title>
<path fill="none" stroke="midnightblue" d="M275.4,-86C284.17,-86 293.37,-86 302.44,-86"/>
<polygon fill="midnightblue" stroke="midnightblue" points="302.58,-89.5 312.58,-86 302.58,-82.5 302.58,-89.5"/>
</g>
</g>
</svg>
