<?xml version="1.0" encoding="UTF-8" standalone="no"?>
<!DOCTYPE svg PUBLIC "-//W3C//DTD SVG 1.1//EN"
 "http://www.w3.org/Graphics/SVG/1.1/DTD/svg11.dtd">
<!-- Generated by graphviz version 2.43.0 (0)
 -->
<!-- Title: coap_network_send Pages: 1 -->
<svg width="579pt" height="142pt"
 viewBox="0.00 0.00 579.00 142.00" xmlns="http://www.w3.org/2000/svg" xmlns:xlink="http://www.w3.org/1999/xlink">
<g id="graph0" class="graph" transform="scale(1 1) rotate(0) translate(4 138)">
<title>coap_network_send</title>
<polygon fill="white" stroke="transparent" points="-4,4 -4,-138 575,-138 575,4 -4,4"/>
<!-- Node14 -->
<g id="node1" class="node">
<title>Node14</title>
<polygon fill="#bfbfbf" stroke="black" points="0,-57.5 0,-76.5 104,-76.5 104,-57.5 0,-57.5"/>
<text text-anchor="middle" x="52" y="-64.5" font-family="Helvetica,sans-Serif" font-size="10.00">coap_network_send</text>
</g>
<!-- Node15 -->
<g id="node2" class="node">
<title>Node15</title>
<g id="a_node2"><a xlink:href="coap__debug_8c.html#af01fc56422e6401f529b053b61e65cad" target="_top" xlink:title="Check to see whether a packet should be sent or not. ">
<polygon fill="white" stroke="black" points="140,-114.5 140,-133.5 270,-133.5 270,-114.5 140,-114.5"/>
<text text-anchor="middle" x="205" y="-121.5" font-family="Helvetica,sans-Serif" font-size="10.00">coap_debug_send_packet</text>
</a>
</g>
</g>
<!-- Node14&#45;&gt;Node15 -->
<g id="edge1" class="edge">
<title>Node14&#45;&gt;Node15</title>
<path fill="none" stroke="midnightblue" d="M73.1,-76.62C90.55,-84.77 116.62,-96.46 140,-105 146.07,-107.22 152.54,-109.37 158.94,-111.38"/>
<polygon fill="midnightblue" stroke="midnightblue" points="158.28,-114.84 168.87,-114.42 160.33,-108.15 158.28,-114.84"/>
</g>
<!-- Node16 -->
<g id="node3" class="node">
<title>Node16</title>
<g id="a_node3"><a xlink:href="address_8h.html#a021998c955a6787c5cab7b1c385bef63" target="_top" xlink:title="Checks if given address object a denotes the wildcard address. ">
<polygon fill="white" stroke="black" points="152,-76.5 152,-95.5 258,-95.5 258,-76.5 152,-76.5"/>
<text text-anchor="middle" x="205" y="-83.5" font-family="Helvetica,sans-Serif" font-size="10.00">coap_address_isany</text>
</a>
</g>
</g>
<!-- Node14&#45;&gt;Node16 -->
<g id="edge2" class="edge">
<title>Node14&#45;&gt;Node16</title>
<path fill="none" stroke="midnightblue" d="M104.12,-73.43C116.27,-74.96 129.37,-76.61 141.95,-78.19"/>
<polygon fill="midnightblue" stroke="midnightblue" points="141.54,-81.67 151.9,-79.44 142.42,-74.72 141.54,-81.67"/>
</g>
<!-- Node20 -->
<g id="node7" class="node">
<title>Node20</title>
<g id="a_node7"><a xlink:href="address_8c.html#a5b47d6fe47a54a0798eddb9ea77005ea" target="_top" xlink:title="Checks if given address a denotes a multicast address. ">
<polygon fill="white" stroke="black" points="163.5,-38.5 163.5,-57.5 246.5,-57.5 246.5,-38.5 163.5,-38.5"/>
<text text-anchor="middle" x="205" y="-45.5" font-family="Helvetica,sans-Serif" font-size="10.00">coap_is_mcast</text>
</a>
</g>
</g>
<!-- Node14&#45;&gt;Node20 -->
<g id="edge6" class="edge">
<title>Node14&#45;&gt;Node20</title>
<path fill="none" stroke="midnightblue" d="M104.12,-60.57C119.98,-58.57 137.45,-56.37 153.29,-54.38"/>
<polygon fill="midnightblue" stroke="midnightblue" points="153.94,-57.83 163.42,-53.11 153.06,-50.88 153.94,-57.83"/>
</g>
<!-- Node21 -->
<g id="node8" class="node">
<title>Node21</title>
<g id="a_node8"><a xlink:href="coap__io__contiki_8c.html#ad3119e077bde4ee15a65271de0b70531" target="_top" xlink:title="coap_socket_strerror">
<polygon fill="white" stroke="black" points="151,-0.5 151,-19.5 259,-19.5 259,-0.5 151,-0.5"/>
<text text-anchor="middle" x="205" y="-7.5" font-family="Helvetica,sans-Serif" font-size="10.00">coap_socket_strerror</text>
</a>
</g>
</g>
<!-- Node14&#45;&gt;Node21 -->
<g id="edge7" class="edge">
<title>Node14&#45;&gt;Node21</title>
<path fill="none" stroke="midnightblue" d="M73.1,-57.38C90.55,-49.23 116.62,-37.54 140,-29 146.07,-26.78 152.54,-24.63 158.94,-22.62"/>
<polygon fill="midnightblue" stroke="midnightblue" points="160.33,-25.85 168.87,-19.58 158.28,-19.16 160.33,-25.85"/>
</g>
<!-- Node17 -->
<g id="node4" class="node">
<title>Node17</title>
<g id="a_node4"><a xlink:href="address_8h.html#a3aadd5b560a9e7424b572bb213aa4439" target="_top" xlink:title="_coap_address_isany_impl">
<polygon fill="white" stroke="black" points="306,-95.5 306,-114.5 440,-114.5 440,-95.5 306,-95.5"/>
<text text-anchor="middle" x="373" y="-102.5" font-family="Helvetica,sans-Serif" font-size="10.00">_coap_address_isany_impl</text>
</a>
</g>
</g>
<!-- Node16&#45;&gt;Node17 -->
<g id="edge3" class="edge">
<title>Node16&#45;&gt;Node17</title>
<path fill="none" stroke="midnightblue" d="M258.07,-91.96C270,-93.32 282.92,-94.8 295.64,-96.26"/>
<polygon fill="midnightblue" stroke="midnightblue" points="295.43,-99.76 305.77,-97.42 296.23,-92.8 295.43,-99.76"/>
</g>
<!-- Node19 -->
<g id="node6" class="node">
<title>Node19</title>
<g id="a_node6"><a xlink:href="address_8h.html#a5b47d6fe47a54a0798eddb9ea77005ea" target="_top" xlink:title="Checks if given address a denotes a multicast address. ">
<polygon fill="white" stroke="black" points="331.5,-57.5 331.5,-76.5 414.5,-76.5 414.5,-57.5 331.5,-57.5"/>
<text text-anchor="middle" x="373" y="-64.5" font-family="Helvetica,sans-Serif" font-size="10.00">coap_is_mcast</text>
</a>
</g>
</g>
<!-- Node16&#45;&gt;Node19 -->
<g id="edge5" class="edge">
<title>Node16&#45;&gt;Node19</title>
<path fill="none" stroke="midnightblue" d="M258.07,-80.04C278.23,-77.73 301.23,-75.1 321.26,-72.81"/>
<polygon fill="midnightblue" stroke="midnightblue" points="321.9,-76.26 331.44,-71.64 321.11,-69.3 321.9,-76.26"/>
</g>
<!-- Node18 -->
<g id="node5" class="node">
<title>Node18</title>
<g id="a_node5"><a xlink:href="address_8h.html#a59e19389468d5ced36778ed07546bce2" target="_top" xlink:title="Resets the given coap_address_t object addr to its default values. ">
<polygon fill="white" stroke="black" points="476,-95.5 476,-114.5 571,-114.5 571,-95.5 476,-95.5"/>
<text text-anchor="middle" x="523.5" y="-102.5" font-family="Helvetica,sans-Serif" font-size="10.00">coap_address_init</text>
</a>
</g>
</g>
<!-- Node17&#45;&gt;Node18 -->
<g id="edge4" class="edge">
<title>Node17&#45;&gt;Node18</title>
<path fill="none" stroke="midnightblue" d="M440.43,-105C448.79,-105 457.29,-105 465.49,-105"/>
<polygon fill="midnightblue" stroke="midnightblue" points="465.68,-108.5 475.68,-105 465.68,-101.5 465.68,-108.5"/>
</g>
</g>
</svg>
