<?xml version="1.0" encoding="UTF-8" standalone="no"?>
<!DOCTYPE svg PUBLIC "-//W3C//DTD SVG 1.1//EN"
 "http://www.w3.org/Graphics/SVG/1.1/DTD/svg11.dtd">
<!-- Generated by graphviz version 2.43.0 (0)
 -->
<!-- Title: coap_socket_bind_udp Pages: 1 -->
<svg width="540pt" height="28pt"
 viewBox="0.00 0.00 540.00 28.00" xmlns="http://www.w3.org/2000/svg" xmlns:xlink="http://www.w3.org/1999/xlink">
<g id="graph0" class="graph" transform="scale(1 1) rotate(0) translate(4 24)">
<title>coap_socket_bind_udp</title>
<polygon fill="white" stroke="transparent" points="-4,4 -4,-24 536,-24 536,4 -4,4"/>
<!-- Node143 -->
<g id="node1" class="node">
<title>Node143</title>
<polygon fill="#bfbfbf" stroke="black" points="0,-0.5 0,-19.5 116,-19.5 116,-0.5 0,-0.5"/>
<text text-anchor="middle" x="58" y="-7.5" font-family="Helvetica,sans-Serif" font-size="10.00">coap_socket_bind_udp</text>
</g>
<!-- Node144 -->
<g id="node2" class="node">
<title>Node144</title>
<g id="a_node2"><a xlink:href="coap__session_8h.html#a6c2e568e59caed491a94a5861d9afac2" target="_top" xlink:title="Create a new endpoint for communicating with peers. ">
<polygon fill="white" stroke="black" points="152,-0.5 152,-19.5 255,-19.5 255,-0.5 152,-0.5"/>
<text text-anchor="middle" x="203.5" y="-7.5" font-family="Helvetica,sans-Serif" font-size="10.00">coap_new_endpoint</text>
</a>
</g>
</g>
<!-- Node143&#45;&gt;Node144 -->
<g id="edge1" class="edge">
<title>Node143&#45;&gt;Node144</title>
<path fill="none" stroke="midnightblue" d="M126.4,-10C134.88,-10 143.44,-10 151.61,-10"/>
<polygon fill="midnightblue" stroke="midnightblue" points="126.13,-6.5 116.13,-10 126.13,-13.5 126.13,-6.5"/>
</g>
<!-- Node145 -->
<g id="node3" class="node">
<title>Node145</title>
<g id="a_node3"><a xlink:href="net_8h.html#a8baf4e3608ff5eb00adac694fe25eb60" target="_top" xlink:title="Creates a new coap_context_t object that will hold the CoAP stack status. ">
<polygon fill="white" stroke="black" points="291,-0.5 291,-19.5 389,-19.5 389,-0.5 291,-0.5"/>
<text text-anchor="middle" x="340" y="-7.5" font-family="Helvetica,sans-Serif" font-size="10.00">coap_new_context</text>
</a>
</g>
</g>
<!-- Node144&#45;&gt;Node145 -->
<g id="edge2" class="edge">
<title>Node144&#45;&gt;Node145</title>
<path fill="none" stroke="midnightblue" d="M265.55,-10C274,-10 282.57,-10 290.75,-10"/>
<polygon fill="midnightblue" stroke="midnightblue" points="265.35,-6.5 255.35,-10 265.35,-13.5 265.35,-6.5"/>
</g>
<!-- Node146 -->
<g id="node4" class="node">
<title>Node146</title>
<g id="a_node4"><a xlink:href="net_8h.html#a696acd1012ad1c2dba081ee5bea54fd8" target="_top" xlink:title="Registers the option type type with the given context object ctx. ">
<polygon fill="white" stroke="black" points="425,-0.5 425,-19.5 532,-19.5 532,-0.5 425,-0.5"/>
<text text-anchor="middle" x="478.5" y="-7.5" font-family="Helvetica,sans-Serif" font-size="10.00">coap_register_option</text>
</a>
</g>
</g>
<!-- Node145&#45;&gt;Node146 -->
<g id="edge3" class="edge">
<title>Node145&#45;&gt;Node146</title>
<path fill="none" stroke="midnightblue" d="M399.28,-10C407.73,-10 416.38,-10 424.7,-10"/>
<polygon fill="midnightblue" stroke="midnightblue" points="399.12,-6.5 389.12,-10 399.12,-13.5 399.12,-6.5"/>
</g>
</g>
</svg>
