<?xml version="1.0" encoding="UTF-8" standalone="no"?>
<!DOCTYPE svg PUBLIC "-//W3C//DTD SVG 1.1//EN"
 "http://www.w3.org/Graphics/SVG/1.1/DTD/svg11.dtd">
<!-- Generated by graphviz version 2.43.0 (0)
 -->
<!-- Title: coap_dtls_handle_timeout Pages: 1 -->
<svg width="643pt" height="117pt"
 viewBox="0.00 0.00 643.00 116.87" xmlns="http://www.w3.org/2000/svg" xmlns:xlink="http://www.w3.org/1999/xlink">
<g id="graph0" class="graph" transform="scale(1 1) rotate(0) translate(4 112.87)">
<title>coap_dtls_handle_timeout</title>
<polygon fill="white" stroke="transparent" points="-4,4 -4,-112.87 639,-112.87 639,4 -4,4"/>
<!-- Node55 -->
<g id="node1" class="node">
<title>Node55</title>
<polygon fill="#bfbfbf" stroke="black" points="0,-38.5 0,-57.5 130,-57.5 130,-38.5 0,-38.5"/>
<text text-anchor="middle" x="65" y="-45.5" font-family="Helvetica,sans-Serif" font-size="10.00">coap_dtls_handle_timeout</text>
</g>
<!-- Node56 -->
<g id="node2" class="node">
<title>Node56</title>
<g id="a_node2"><a xlink:href="net_8h.html#aaac86ac50793f309678e4951ecf8863f" target="_top" xlink:title="For applications with their own message loop, send all pending retransmits and return the list of soc...">
<polygon fill="white" stroke="black" points="166,-38.5 166,-57.5 230,-57.5 230,-38.5 166,-38.5"/>
<text text-anchor="middle" x="198" y="-45.5" font-family="Helvetica,sans-Serif" font-size="10.00">coap_write</text>
</a>
</g>
</g>
<!-- Node55&#45;&gt;Node56 -->
<g id="edge1" class="edge">
<title>Node55&#45;&gt;Node56</title>
<path fill="none" stroke="midnightblue" d="M140.52,-48C149.47,-48 158.19,-48 166,-48"/>
<polygon fill="midnightblue" stroke="midnightblue" points="140.35,-44.5 130.35,-48 140.35,-51.5 140.35,-44.5"/>
</g>
<!-- Node57 -->
<g id="node3" class="node">
<title>Node57</title>
<g id="a_node3"><a xlink:href="net_8h.html#a3be92476a2c2c12d68c0cd07795c7e34" target="_top" xlink:title="Any now timed out delayed packet is transmitted, along with any packets associated with requested obs...">
<polygon fill="white" stroke="black" points="266,-76.5 266,-95.5 379,-95.5 379,-76.5 266,-76.5"/>
<text text-anchor="middle" x="322.5" y="-83.5" font-family="Helvetica,sans-Serif" font-size="10.00">coap_io_prepare_epoll</text>
</a>
</g>
</g>
<!-- Node56&#45;&gt;Node57 -->
<g id="edge2" class="edge">
<title>Node56&#45;&gt;Node57</title>
<path fill="none" stroke="midnightblue" d="M239.88,-60.68C256.43,-65.81 275.22,-71.64 290.6,-76.41"/>
<polygon fill="midnightblue" stroke="midnightblue" points="240.5,-57.21 229.91,-57.59 238.43,-63.89 240.5,-57.21"/>
</g>
<!-- Node58 -->
<g id="node4" class="node">
<title>Node58</title>
<g id="a_node4"><a xlink:href="coap__io_8c.html#a75a7c93e10ca7858449ba304aad4ea37" target="_top" xlink:title="coap_run_once">
<polygon fill="white" stroke="black" points="552,-76.5 552,-95.5 635,-95.5 635,-76.5 552,-76.5"/>
<text text-anchor="middle" x="593.5" y="-83.5" font-family="Helvetica,sans-Serif" font-size="10.00">coap_run_once</text>
</a>
</g>
</g>
<!-- Node56&#45;&gt;Node58 -->
<g id="edge6" class="edge">
<title>Node56&#45;&gt;Node58</title>
<path fill="none" stroke="midnightblue" d="M240.58,-48.07C301.41,-48.72 418.06,-52.03 516,-67 530.47,-69.21 546.21,-72.89 559.63,-76.43"/>
<polygon fill="midnightblue" stroke="midnightblue" points="240.28,-44.57 230.25,-47.98 240.22,-51.57 240.28,-44.57"/>
</g>
<!-- Node60 -->
<g id="node6" class="node">
<title>Node60</title>
<g id="a_node6"><a xlink:href="net_8h.html#a5854b1394bfddd574e48af116e3aaaf9" target="_top" xlink:title="Sends an RST message with code 0 for the specified request to dst. ">
<polygon fill="white" stroke="black" points="282.5,-0.5 282.5,-19.5 362.5,-19.5 362.5,-0.5 282.5,-0.5"/>
<text text-anchor="middle" x="322.5" y="-7.5" font-family="Helvetica,sans-Serif" font-size="10.00">coap_send_rst</text>
</a>
</g>
</g>
<!-- Node56&#45;&gt;Node60 -->
<g id="edge7" class="edge">
<title>Node56&#45;&gt;Node60</title>
<path fill="none" stroke="midnightblue" d="M239.88,-35.32C256.43,-30.19 275.22,-24.36 290.6,-19.59"/>
<polygon fill="midnightblue" stroke="midnightblue" points="238.43,-32.11 229.91,-38.41 240.5,-38.79 238.43,-32.11"/>
</g>
<!-- Node57&#45;&gt;Node58 -->
<g id="edge3" class="edge">
<title>Node57&#45;&gt;Node58</title>
<path fill="none" stroke="midnightblue" d="M370.64,-97.71C384.81,-100.71 400.45,-103.51 415,-105 459.65,-109.59 471.44,-110.45 516,-105 531.21,-103.14 547.76,-99.27 561.56,-95.51"/>
<polygon fill="midnightblue" stroke="midnightblue" points="371.14,-94.24 360.63,-95.51 369.64,-101.07 371.14,-94.24"/>
</g>
<!-- Node59 -->
<g id="node5" class="node">
<title>Node59</title>
<g id="a_node5"><a xlink:href="net_8h.html#a7b591afa095a093b604b63313275a02a" target="_top" xlink:title="Process all the epoll events. ">
<polygon fill="white" stroke="black" points="415,-76.5 415,-95.5 516,-95.5 516,-76.5 415,-76.5"/>
<text text-anchor="middle" x="465.5" y="-83.5" font-family="Helvetica,sans-Serif" font-size="10.00">coap_io_do_events</text>
</a>
</g>
</g>
<!-- Node57&#45;&gt;Node59 -->
<g id="edge4" class="edge">
<title>Node57&#45;&gt;Node59</title>
<path fill="none" stroke="midnightblue" d="M389.48,-86C397.95,-86 406.51,-86 414.66,-86"/>
<polygon fill="midnightblue" stroke="midnightblue" points="389.23,-82.5 379.23,-86 389.23,-89.5 389.23,-82.5"/>
</g>
<!-- Node59&#45;&gt;Node58 -->
<g id="edge5" class="edge">
<title>Node59&#45;&gt;Node58</title>
<path fill="none" stroke="midnightblue" d="M526.4,-86C535.06,-86 543.81,-86 551.97,-86"/>
<polygon fill="midnightblue" stroke="midnightblue" points="526.3,-82.5 516.3,-86 526.3,-89.5 526.3,-82.5"/>
</g>
</g>
</svg>
