<?xml version="1.0" encoding="UTF-8" standalone="no"?>
<!DOCTYPE svg PUBLIC "-//W3C//DTD SVG 1.1//EN"
 "http://www.w3.org/Graphics/SVG/1.1/DTD/svg11.dtd">
<!-- Generated by graphviz version 2.43.0 (0)
 -->
<!-- Title: coap.h Pages: 1 -->
<svg width="1426pt" height="476pt"
 viewBox="0.00 0.00 1426.00 476.00" xmlns="http://www.w3.org/2000/svg" xmlns:xlink="http://www.w3.org/1999/xlink">
<g id="graph0" class="graph" transform="scale(1 1) rotate(0) translate(4 472)">
<title>coap.h</title>
<polygon fill="white" stroke="transparent" points="-4,4 -4,-472 1422,-472 1422,4 -4,4"/>
<!-- Node0 -->
<g id="node1" class="node">
<title>Node0</title>
<polygon fill="#bfbfbf" stroke="black" points="757,-448.5 757,-467.5 803,-467.5 803,-448.5 757,-448.5"/>
<text text-anchor="middle" x="780" y="-455.5" font-family="Helvetica,sans-Serif" font-size="10.00">coap.h</text>
</g>
<!-- Node1 -->
<g id="node2" class="node">
<title>Node1</title>
<g id="a_node2"><a xlink:href="libcoap_8h.html" target="_top" xlink:title="libcoap.h">
<polygon fill="white" stroke="black" points="137,-56.5 137,-75.5 193,-75.5 193,-56.5 137,-56.5"/>
<text text-anchor="middle" x="165" y="-63.5" font-family="Helvetica,sans-Serif" font-size="10.00">libcoap.h</text>
</a>
</g>
</g>
<!-- Node0&#45;&gt;Node1 -->
<g id="edge1" class="edge">
<title>Node0&#45;&gt;Node1</title>
<path fill="none" stroke="midnightblue" d="M756.66,-456.63C639.54,-454.66 118.96,-444.11 55,-412 21.18,-395.02 0,-384.84 0,-347 0,-347 0,-347 0,-177 0,-116.41 77.97,-87.14 126.72,-74.76"/>
<polygon fill="midnightblue" stroke="midnightblue" points="127.73,-78.12 136.64,-72.37 126.09,-71.31 127.73,-78.12"/>
</g>
<!-- Node4 -->
<g id="node5" class="node">
<title>Node4</title>
<g id="a_node5"><a xlink:href="coap__forward__decls_8h.html" target="_top" xlink:title="COAP forward definitions. ">
<polygon fill="white" stroke="black" points="66,-168.5 66,-187.5 178,-187.5 178,-168.5 66,-168.5"/>
<text text-anchor="middle" x="122" y="-175.5" font-family="Helvetica,sans-Serif" font-size="10.00">coap_forward_decls.h</text>
</a>
</g>
</g>
<!-- Node0&#45;&gt;Node4 -->
<g id="edge4" class="edge">
<title>Node0&#45;&gt;Node4</title>
<path fill="none" stroke="midnightblue" d="M756.86,-456.38C648.48,-453.33 193.92,-439.04 137,-412 101.21,-395 76,-386.62 76,-347 76,-347 76,-347 76,-289 76,-253.82 96.28,-216.86 109.91,-196"/>
<polygon fill="midnightblue" stroke="midnightblue" points="112.88,-197.85 115.6,-187.61 107.09,-193.92 112.88,-197.85"/>
</g>
<!-- Node5 -->
<g id="node6" class="node">
<title>Node5</title>
<g id="a_node6"><a xlink:href="address_8h.html" target="_top" xlink:title="Representation of network addresses. ">
<polygon fill="white" stroke="black" points="234.5,-112.5 234.5,-131.5 293.5,-131.5 293.5,-112.5 234.5,-112.5"/>
<text text-anchor="middle" x="264" y="-119.5" font-family="Helvetica,sans-Serif" font-size="10.00">address.h</text>
</a>
</g>
</g>
<!-- Node0&#45;&gt;Node5 -->
<g id="edge5" class="edge">
<title>Node0&#45;&gt;Node5</title>
<path fill="none" stroke="midnightblue" d="M756.81,-456.54C643.86,-454.15 154.41,-442.13 94,-412 59.88,-394.98 38,-385.13 38,-347 38,-347 38,-347 38,-233 38,-202.9 34.98,-188.52 57,-168 80.83,-145.79 170.84,-132.76 224,-126.85"/>
<polygon fill="midnightblue" stroke="midnightblue" points="224.54,-130.31 234.11,-125.76 223.79,-123.35 224.54,-130.31"/>
</g>
<!-- Node10 -->
<g id="node11" class="node">
<title>Node10</title>
<g id="a_node11"><a xlink:href="async_8h.html" target="_top" xlink:title="State management for asynchronous messages. ">
<polygon fill="white" stroke="black" points="754.5,-336.5 754.5,-355.5 805.5,-355.5 805.5,-336.5 754.5,-336.5"/>
<text text-anchor="middle" x="780" y="-343.5" font-family="Helvetica,sans-Serif" font-size="10.00">async.h</text>
</a>
</g>
</g>
<!-- Node0&#45;&gt;Node10 -->
<g id="edge11" class="edge">
<title>Node0&#45;&gt;Node10</title>
<path fill="none" stroke="midnightblue" d="M780,-448.37C780,-430.62 780,-389.67 780,-365.6"/>
<polygon fill="midnightblue" stroke="midnightblue" points="783.5,-365.59 780,-355.59 776.5,-365.59 783.5,-365.59"/>
</g>
<!-- Node11 -->
<g id="node12" class="node">
<title>Node11</title>
<g id="a_node12"><a xlink:href="net_8h.html" target="_top" xlink:title="net.h">
<polygon fill="white" stroke="black" points="761,-280.5 761,-299.5 799,-299.5 799,-280.5 761,-280.5"/>
<text text-anchor="middle" x="780" y="-287.5" font-family="Helvetica,sans-Serif" font-size="10.00">net.h</text>
</a>
</g>
</g>
<!-- Node0&#45;&gt;Node11 -->
<g id="edge63" class="edge">
<title>Node0&#45;&gt;Node11</title>
<path fill="none" stroke="midnightblue" d="M774.04,-448.4C760.97,-428.46 732.06,-377.58 746,-336 749.6,-325.25 756.9,-315.02 763.82,-307.04"/>
<polygon fill="midnightblue" stroke="midnightblue" points="766.48,-309.32 770.71,-299.61 761.35,-304.56 766.48,-309.32"/>
</g>
<!-- Node15 -->
<g id="node16" class="node">
<title>Node15</title>
<g id="a_node16"><a xlink:href="coap__io_8h.html" target="_top" xlink:title="coap_io.h">
<polygon fill="white" stroke="black" points="272.5,-168.5 272.5,-187.5 331.5,-187.5 331.5,-168.5 272.5,-168.5"/>
<text text-anchor="middle" x="302" y="-175.5" font-family="Helvetica,sans-Serif" font-size="10.00">coap_io.h</text>
</a>
</g>
</g>
<!-- Node0&#45;&gt;Node15 -->
<g id="edge56" class="edge">
<title>Node0&#45;&gt;Node15</title>
<path fill="none" stroke="midnightblue" d="M756.7,-456.23C666.7,-453.07 341.93,-439.93 243,-412 181.22,-394.56 114,-411.2 114,-347 114,-347 114,-347 114,-289 114,-258.77 112.24,-244.98 134,-224 168.38,-190.86 224.39,-181.49 262.19,-179.17"/>
<polygon fill="midnightblue" stroke="midnightblue" points="262.51,-182.66 272.33,-178.69 262.18,-175.67 262.51,-182.66"/>
</g>
<!-- Node16 -->
<g id="node17" class="node">
<title>Node16</title>
<g id="a_node17"><a xlink:href="coap__dtls_8h.html" target="_top" xlink:title="coap_dtls.h">
<polygon fill="white" stroke="black" points="422.5,-224.5 422.5,-243.5 489.5,-243.5 489.5,-224.5 422.5,-224.5"/>
<text text-anchor="middle" x="456" y="-231.5" font-family="Helvetica,sans-Serif" font-size="10.00">coap_dtls.h</text>
</a>
</g>
</g>
<!-- Node0&#45;&gt;Node16 -->
<g id="edge54" class="edge">
<title>Node0&#45;&gt;Node16</title>
<path fill="none" stroke="midnightblue" d="M756.78,-456.35C697.22,-454.22 541.14,-445.49 504,-412 458.13,-370.63 454.22,-290.31 455.01,-253.84"/>
<polygon fill="midnightblue" stroke="midnightblue" points="458.52,-253.76 455.39,-243.64 451.52,-253.5 458.52,-253.76"/>
</g>
<!-- Node17 -->
<g id="node18" class="node">
<title>Node17</title>
<g id="a_node18"><a xlink:href="coap__time_8h.html" target="_top" xlink:title="Clock Handling. ">
<polygon fill="white" stroke="black" points="560,-168.5 560,-187.5 630,-187.5 630,-168.5 560,-168.5"/>
<text text-anchor="middle" x="595" y="-175.5" font-family="Helvetica,sans-Serif" font-size="10.00">coap_time.h</text>
</a>
</g>
</g>
<!-- Node0&#45;&gt;Node17 -->
<g id="edge57" class="edge">
<title>Node0&#45;&gt;Node17</title>
<path fill="none" stroke="midnightblue" d="M756.74,-456.88C658.68,-455.78 284,-445.13 284,-347 284,-347 284,-347 284,-289 284,-258.9 280.37,-243.84 303,-224 338.89,-192.54 476.91,-183.04 549.6,-180.2"/>
<polygon fill="midnightblue" stroke="midnightblue" points="549.97,-183.69 559.84,-179.82 549.71,-176.69 549.97,-183.69"/>
</g>
<!-- Node18 -->
<g id="node19" class="node">
<title>Node18</title>
<g id="a_node19"><a xlink:href="coap__event_8h.html" target="_top" xlink:title="coap_event.h">
<polygon fill="white" stroke="black" points="142.5,-224.5 142.5,-243.5 217.5,-243.5 217.5,-224.5 142.5,-224.5"/>
<text text-anchor="middle" x="180" y="-231.5" font-family="Helvetica,sans-Serif" font-size="10.00">coap_event.h</text>
</a>
</g>
</g>
<!-- Node0&#45;&gt;Node18 -->
<g id="edge55" class="edge">
<title>Node0&#45;&gt;Node18</title>
<path fill="none" stroke="midnightblue" d="M756.93,-456.27C662.79,-453.12 310.78,-439.56 270,-412 214.08,-374.22 191.06,-290.73 183.32,-253.52"/>
<polygon fill="midnightblue" stroke="midnightblue" points="186.73,-252.71 181.39,-243.56 179.85,-254.04 186.73,-252.71"/>
</g>
<!-- Node19 -->
<g id="node20" class="node">
<title>Node19</title>
<g id="a_node20"><a xlink:href="option_8h.html" target="_top" xlink:title="Helpers for handling options in CoAP PDUs. ">
<polygon fill="white" stroke="black" points="944.5,-224.5 944.5,-243.5 995.5,-243.5 995.5,-224.5 944.5,-224.5"/>
<text text-anchor="middle" x="970" y="-231.5" font-family="Helvetica,sans-Serif" font-size="10.00">option.h</text>
</a>
</g>
</g>
<!-- Node0&#45;&gt;Node19 -->
<g id="edge64" class="edge">
<title>Node0&#45;&gt;Node19</title>
<path fill="none" stroke="midnightblue" d="M787.45,-448.3C815.88,-415.08 917.86,-295.92 955.72,-251.68"/>
<polygon fill="midnightblue" stroke="midnightblue" points="958.55,-253.76 962.4,-243.88 953.24,-249.21 958.55,-253.76"/>
</g>
<!-- Node20 -->
<g id="node21" class="node">
<title>Node20</title>
<g id="a_node21"><a xlink:href="bits_8h.html" target="_top" xlink:title="Bit vector manipulation. ">
<polygon fill="white" stroke="black" points="648.5,-168.5 648.5,-187.5 689.5,-187.5 689.5,-168.5 648.5,-168.5"/>
<text text-anchor="middle" x="669" y="-175.5" font-family="Helvetica,sans-Serif" font-size="10.00">bits.h</text>
</a>
</g>
</g>
<!-- Node0&#45;&gt;Node20 -->
<g id="edge47" class="edge">
<title>Node0&#45;&gt;Node20</title>
<path fill="none" stroke="midnightblue" d="M756.75,-457.66C692.63,-458.18 518,-450.1 518,-347 518,-347 518,-347 518,-289 518,-258.9 516.19,-245.75 537,-224 540.66,-220.18 600.91,-200.58 638.74,-188.54"/>
<polygon fill="midnightblue" stroke="midnightblue" points="639.81,-191.87 648.28,-185.51 637.69,-185.2 639.81,-191.87"/>
</g>
<!-- Node21 -->
<g id="node22" class="node">
<title>Node21</title>
<g id="a_node22"><a xlink:href="pdu_8h.html" target="_top" xlink:title="Pre&#45;defined constants that reflect defaults for CoAP. ">
<polygon fill="white" stroke="black" points="1003.5,-168.5 1003.5,-187.5 1044.5,-187.5 1044.5,-168.5 1003.5,-168.5"/>
<text text-anchor="middle" x="1024" y="-175.5" font-family="Helvetica,sans-Serif" font-size="10.00">pdu.h</text>
</a>
</g>
</g>
<!-- Node0&#45;&gt;Node21 -->
<g id="edge65" class="edge">
<title>Node0&#45;&gt;Node21</title>
<path fill="none" stroke="midnightblue" d="M803.24,-454.8C879.41,-447.04 1118.86,-417.96 1157,-356 1196.66,-291.58 1096.72,-221.59 1048.4,-192.68"/>
<polygon fill="midnightblue" stroke="midnightblue" points="1050.15,-189.64 1039.75,-187.61 1046.61,-195.68 1050.15,-189.64"/>
</g>
<!-- Node22 -->
<g id="node23" class="node">
<title>Node22</title>
<g id="a_node23"><a xlink:href="uri_8h.html" target="_top" xlink:title="uri.h">
<polygon fill="white" stroke="black" points="1235.5,-112.5 1235.5,-131.5 1270.5,-131.5 1270.5,-112.5 1235.5,-112.5"/>
<text text-anchor="middle" x="1253" y="-119.5" font-family="Helvetica,sans-Serif" font-size="10.00">uri.h</text>
</a>
</g>
</g>
<!-- Node0&#45;&gt;Node22 -->
<g id="edge77" class="edge">
<title>Node0&#45;&gt;Node22</title>
<path fill="none" stroke="midnightblue" d="M803.28,-456.77C904.38,-455.54 1302.16,-448.43 1343,-412 1387.19,-372.59 1378.57,-336.54 1361,-280 1342.85,-221.59 1294.59,-165.67 1269.17,-139.1"/>
<polygon fill="midnightblue" stroke="midnightblue" points="1271.57,-136.54 1262.08,-131.82 1266.56,-141.43 1271.57,-136.54"/>
</g>
<!-- Node23 -->
<g id="node24" class="node">
<title>Node23</title>
<g id="a_node24"><a xlink:href="str_8h.html" target="_top" xlink:title="str.h">
<polygon fill="white" stroke="black" points="1298,-56.5 1298,-75.5 1334,-75.5 1334,-56.5 1298,-56.5"/>
<text text-anchor="middle" x="1316" y="-63.5" font-family="Helvetica,sans-Serif" font-size="10.00">str.h</text>
</a>
</g>
</g>
<!-- Node0&#45;&gt;Node23 -->
<g id="edge75" class="edge">
<title>Node0&#45;&gt;Node23</title>
<path fill="none" stroke="midnightblue" d="M803.15,-456.31C905.63,-453.1 1315.54,-438.68 1366,-412 1398.71,-394.71 1418,-384 1418,-347 1418,-347 1418,-347 1418,-177 1418,-132.39 1372.34,-98.23 1342.12,-80.51"/>
<polygon fill="midnightblue" stroke="midnightblue" points="1343.73,-77.4 1333.3,-75.55 1340.3,-83.5 1343.73,-77.4"/>
</g>
<!-- Node24 -->
<g id="node25" class="node">
<title>Node24</title>
<g id="a_node25"><a xlink:href="prng_8h.html" target="_top" xlink:title="Pseudo Random Numbers. ">
<polygon fill="white" stroke="black" points="1166,-224.5 1166,-243.5 1210,-243.5 1210,-224.5 1166,-224.5"/>
<text text-anchor="middle" x="1188" y="-231.5" font-family="Helvetica,sans-Serif" font-size="10.00">prng.h</text>
</a>
</g>
</g>
<!-- Node0&#45;&gt;Node24 -->
<g id="edge66" class="edge">
<title>Node0&#45;&gt;Node24</title>
<path fill="none" stroke="midnightblue" d="M803.11,-456.09C884.86,-452.63 1156.95,-439.16 1184,-412 1226.26,-369.56 1206.51,-289.19 1194.66,-253.21"/>
<polygon fill="midnightblue" stroke="midnightblue" points="1197.9,-251.86 1191.31,-243.56 1191.28,-254.16 1197.9,-251.86"/>
</g>
<!-- Node28 -->
<g id="node29" class="node">
<title>Node28</title>
<g id="a_node29"><a xlink:href="block_8h.html" target="_top" xlink:title="block.h">
<polygon fill="white" stroke="black" points="900,-336.5 900,-355.5 948,-355.5 948,-336.5 900,-336.5"/>
<text text-anchor="middle" x="924" y="-343.5" font-family="Helvetica,sans-Serif" font-size="10.00">block.h</text>
</a>
</g>
</g>
<!-- Node0&#45;&gt;Node28 -->
<g id="edge48" class="edge">
<title>Node0&#45;&gt;Node28</title>
<path fill="none" stroke="midnightblue" d="M803.41,-451.68C826.58,-445.43 861.99,-433.13 886,-412 900.53,-399.21 910.96,-379.48 917.18,-365.1"/>
<polygon fill="midnightblue" stroke="midnightblue" points="920.45,-366.34 920.96,-355.76 913.96,-363.72 920.45,-366.34"/>
</g>
<!-- Node29 -->
<g id="node30" class="node">
<title>Node29</title>
<g id="a_node30"><a xlink:href="encode_8h.html" target="_top" xlink:title="encode.h">
<polygon fill="white" stroke="black" points="331,-280.5 331,-299.5 387,-299.5 387,-280.5 331,-280.5"/>
<text text-anchor="middle" x="359" y="-287.5" font-family="Helvetica,sans-Serif" font-size="10.00">encode.h</text>
</a>
</g>
</g>
<!-- Node0&#45;&gt;Node29 -->
<g id="edge60" class="edge">
<title>Node0&#45;&gt;Node29</title>
<path fill="none" stroke="midnightblue" d="M756.78,-456.03C691.18,-452.96 505.9,-441.8 454,-412 411.49,-387.59 381.1,-335.98 367.3,-308.72"/>
<polygon fill="midnightblue" stroke="midnightblue" points="370.37,-307.03 362.84,-299.58 364.08,-310.1 370.37,-307.03"/>
</g>
<!-- Node31 -->
<g id="node32" class="node">
<title>Node31</title>
<g id="a_node32"><a xlink:href="coap__debug_8h.html" target="_top" xlink:title="coap_debug.h">
<polygon fill="white" stroke="black" points="1236.5,-392.5 1236.5,-411.5 1313.5,-411.5 1313.5,-392.5 1236.5,-392.5"/>
<text text-anchor="middle" x="1275" y="-399.5" font-family="Helvetica,sans-Serif" font-size="10.00">coap_debug.h</text>
</a>
</g>
</g>
<!-- Node0&#45;&gt;Node31 -->
<g id="edge58" class="edge">
<title>Node0&#45;&gt;Node31</title>
<path fill="none" stroke="midnightblue" d="M803.07,-455.2C868.74,-449.95 1062.26,-433.67 1222,-412 1223.3,-411.82 1224.62,-411.64 1225.95,-411.45"/>
<polygon fill="midnightblue" stroke="midnightblue" points="1226.9,-414.84 1236.26,-409.89 1225.85,-407.92 1226.9,-414.84"/>
</g>
<!-- Node32 -->
<g id="node33" class="node">
<title>Node32</title>
<g id="a_node33"><a xlink:href="mem_8h.html" target="_top" xlink:title="mem.h">
<polygon fill="white" stroke="black" points="1304.5,-280.5 1304.5,-299.5 1351.5,-299.5 1351.5,-280.5 1304.5,-280.5"/>
<text text-anchor="middle" x="1328" y="-287.5" font-family="Helvetica,sans-Serif" font-size="10.00">mem.h</text>
</a>
</g>
</g>
<!-- Node0&#45;&gt;Node32 -->
<g id="edge61" class="edge">
<title>Node0&#45;&gt;Node32</title>
<path fill="none" stroke="midnightblue" d="M803.26,-456.84C902.42,-455.94 1286.53,-450.01 1323,-412 1349.11,-384.79 1341.09,-336.3 1333.94,-309.72"/>
<polygon fill="midnightblue" stroke="midnightblue" points="1337.2,-308.4 1331.04,-299.79 1330.49,-310.37 1337.2,-308.4"/>
</g>
<!-- Node33 -->
<g id="node34" class="node">
<title>Node33</title>
<g id="a_node34"><a xlink:href="resource_8h.html" target="_top" xlink:title="Generic resource handling. ">
<polygon fill="white" stroke="black" points="942,-392.5 942,-411.5 1004,-411.5 1004,-392.5 942,-392.5"/>
<text text-anchor="middle" x="973" y="-399.5" font-family="Helvetica,sans-Serif" font-size="10.00">resource.h</text>
</a>
</g>
</g>
<!-- Node0&#45;&gt;Node33 -->
<g id="edge67" class="edge">
<title>Node0&#45;&gt;Node33</title>
<path fill="none" stroke="midnightblue" d="M803.28,-450.49C835.28,-441.53 893.35,-425.28 932.54,-414.32"/>
<polygon fill="midnightblue" stroke="midnightblue" points="933.63,-417.65 942.32,-411.58 931.75,-410.91 933.63,-417.65"/>
</g>
<!-- Node34 -->
<g id="node35" class="node">
<title>Node34</title>
<g id="a_node35"><a xlink:href="subscribe_8h.html" target="_top" xlink:title="Defines the application visible subscribe information. ">
<polygon fill="white" stroke="black" points="1080.5,-336.5 1080.5,-355.5 1147.5,-355.5 1147.5,-336.5 1080.5,-336.5"/>
<text text-anchor="middle" x="1114" y="-343.5" font-family="Helvetica,sans-Serif" font-size="10.00">subscribe.h</text>
</a>
</g>
</g>
<!-- Node0&#45;&gt;Node34 -->
<g id="edge76" class="edge">
<title>Node0&#45;&gt;Node34</title>
<path fill="none" stroke="midnightblue" d="M803.31,-455.43C846.21,-451.92 939.96,-441.28 1013,-412 1044.22,-399.48 1076.19,-376.94 1095.58,-361.97"/>
<polygon fill="midnightblue" stroke="midnightblue" points="1097.86,-364.62 1103.55,-355.68 1093.53,-359.12 1097.86,-364.62"/>
</g>
<!-- Node2 -->
<g id="node3" class="node">
<title>Node2</title>
<polygon fill="white" stroke="#bfbfbf" points="89.5,-0.5 89.5,-19.5 154.5,-19.5 154.5,-0.5 89.5,-0.5"/>
<text text-anchor="middle" x="122" y="-7.5" font-family="Helvetica,sans-Serif" font-size="10.00">netinet/in.h</text>
</g>
<!-- Node1&#45;&gt;Node2 -->
<g id="edge2" class="edge">
<title>Node1&#45;&gt;Node2</title>
<path fill="none" stroke="midnightblue" d="M157.9,-56.08C151.76,-48.38 142.73,-37.03 135.26,-27.65"/>
<polygon fill="midnightblue" stroke="midnightblue" points="137.94,-25.39 128.97,-19.75 132.46,-29.75 137.94,-25.39"/>
</g>
<!-- Node3 -->
<g id="node4" class="node">
<title>Node3</title>
<polygon fill="white" stroke="#bfbfbf" points="172.5,-0.5 172.5,-19.5 245.5,-19.5 245.5,-0.5 172.5,-0.5"/>
<text text-anchor="middle" x="209" y="-7.5" font-family="Helvetica,sans-Serif" font-size="10.00">sys/socket.h</text>
</g>
<!-- Node1&#45;&gt;Node3 -->
<g id="edge3" class="edge">
<title>Node1&#45;&gt;Node3</title>
<path fill="none" stroke="midnightblue" d="M172.27,-56.08C178.54,-48.38 187.79,-37.03 195.43,-27.65"/>
<polygon fill="midnightblue" stroke="midnightblue" points="198.27,-29.71 201.87,-19.75 192.84,-25.29 198.27,-29.71"/>
</g>
<!-- Node5&#45;&gt;Node1 -->
<g id="edge10" class="edge">
<title>Node5&#45;&gt;Node1</title>
<path fill="none" stroke="midnightblue" d="M248.09,-112.32C232.36,-103.74 208.06,-90.49 189.79,-80.52"/>
<polygon fill="midnightblue" stroke="midnightblue" points="191.32,-77.37 180.87,-75.65 187.97,-83.52 191.32,-77.37"/>
</g>
<!-- Node6 -->
<g id="node7" class="node">
<title>Node6</title>
<polygon fill="white" stroke="#bfbfbf" points="211,-56.5 211,-75.5 263,-75.5 263,-56.5 211,-56.5"/>
<text text-anchor="middle" x="237" y="-63.5" font-family="Helvetica,sans-Serif" font-size="10.00">assert.h</text>
</g>
<!-- Node5&#45;&gt;Node6 -->
<g id="edge6" class="edge">
<title>Node5&#45;&gt;Node6</title>
<path fill="none" stroke="midnightblue" d="M259.54,-112.08C255.85,-104.69 250.48,-93.95 245.91,-84.81"/>
<polygon fill="midnightblue" stroke="midnightblue" points="248.98,-83.13 241.38,-75.75 242.72,-86.26 248.98,-83.13"/>
</g>
<!-- Node7 -->
<g id="node8" class="node">
<title>Node7</title>
<polygon fill="white" stroke="#bfbfbf" points="633.5,-56.5 633.5,-75.5 682.5,-75.5 682.5,-56.5 633.5,-56.5"/>
<text text-anchor="middle" x="658" y="-63.5" font-family="Helvetica,sans-Serif" font-size="10.00">stdint.h</text>
</g>
<!-- Node5&#45;&gt;Node7 -->
<g id="edge7" class="edge">
<title>Node5&#45;&gt;Node7</title>
<path fill="none" stroke="midnightblue" d="M293.61,-116.94C365.06,-107.15 546.63,-82.26 623.15,-71.78"/>
<polygon fill="midnightblue" stroke="midnightblue" points="623.8,-75.22 633.23,-70.4 622.84,-68.29 623.8,-75.22"/>
</g>
<!-- Node8 -->
<g id="node9" class="node">
<title>Node8</title>
<polygon fill="white" stroke="#bfbfbf" points="888.5,-0.5 888.5,-19.5 937.5,-19.5 937.5,-0.5 888.5,-0.5"/>
<text text-anchor="middle" x="913" y="-7.5" font-family="Helvetica,sans-Serif" font-size="10.00">string.h</text>
</g>
<!-- Node5&#45;&gt;Node8 -->
<g id="edge8" class="edge">
<title>Node5&#45;&gt;Node8</title>
<path fill="none" stroke="midnightblue" d="M267.22,-112.39C273.17,-97.85 287.38,-68.79 310,-56 359.51,-28 757.31,-15.16 878.25,-11.88"/>
<polygon fill="midnightblue" stroke="midnightblue" points="878.52,-15.37 888.42,-11.6 878.33,-8.37 878.52,-15.37"/>
</g>
<!-- Node9 -->
<g id="node10" class="node">
<title>Node9</title>
<polygon fill="white" stroke="#bfbfbf" points="319,-56.5 319,-75.5 387,-75.5 387,-56.5 319,-56.5"/>
<text text-anchor="middle" x="353" y="-63.5" font-family="Helvetica,sans-Serif" font-size="10.00">sys/types.h</text>
</g>
<!-- Node5&#45;&gt;Node9 -->
<g id="edge9" class="edge">
<title>Node5&#45;&gt;Node9</title>
<path fill="none" stroke="midnightblue" d="M278.3,-112.32C292.18,-103.9 313.49,-90.97 329.8,-81.07"/>
<polygon fill="midnightblue" stroke="midnightblue" points="332,-83.83 338.74,-75.65 328.37,-77.85 332,-83.83"/>
</g>
<!-- Node10&#45;&gt;Node11 -->
<g id="edge12" class="edge">
<title>Node10&#45;&gt;Node11</title>
<path fill="none" stroke="midnightblue" d="M780,-336.08C780,-329.01 780,-318.86 780,-309.99"/>
<polygon fill="midnightblue" stroke="midnightblue" points="783.5,-309.75 780,-299.75 776.5,-309.75 783.5,-309.75"/>
</g>
<!-- Node11&#45;&gt;Node8 -->
<g id="edge14" class="edge">
<title>Node11&#45;&gt;Node8</title>
<path fill="none" stroke="midnightblue" d="M788.6,-280.47C805.19,-263.04 840,-221.42 840,-179 840,-179 840,-179 840,-121 840,-81.78 872.62,-45.84 894.25,-26.32"/>
<polygon fill="midnightblue" stroke="midnightblue" points="896.65,-28.87 901.91,-19.67 892.07,-23.58 896.65,-28.87"/>
</g>
<!-- Node12 -->
<g id="node13" class="node">
<title>Node12</title>
<polygon fill="white" stroke="#bfbfbf" points="1089,-112.5 1089,-131.5 1137,-131.5 1137,-112.5 1089,-112.5"/>
<text text-anchor="middle" x="1113" y="-119.5" font-family="Helvetica,sans-Serif" font-size="10.00">stdlib.h</text>
</g>
<!-- Node11&#45;&gt;Node12 -->
<g id="edge13" class="edge">
<title>Node11&#45;&gt;Node12</title>
<path fill="none" stroke="midnightblue" d="M794.67,-280.33C836.2,-255.85 954.24,-186.75 995,-168 1022.71,-155.25 1055.15,-143.07 1079,-134.6"/>
<polygon fill="midnightblue" stroke="midnightblue" points="1080.38,-137.83 1088.66,-131.21 1078.06,-131.22 1080.38,-137.83"/>
</g>
<!-- Node13 -->
<g id="node14" class="node">
<title>Node13</title>
<polygon fill="white" stroke="#bfbfbf" points="546,-224.5 546,-243.5 608,-243.5 608,-224.5 546,-224.5"/>
<text text-anchor="middle" x="577" y="-231.5" font-family="Helvetica,sans-Serif" font-size="10.00">sys/time.h</text>
</g>
<!-- Node11&#45;&gt;Node13 -->
<g id="edge15" class="edge">
<title>Node11&#45;&gt;Node13</title>
<path fill="none" stroke="midnightblue" d="M760.9,-283.92C728.3,-275.25 661.24,-257.41 617.74,-245.84"/>
<polygon fill="midnightblue" stroke="midnightblue" points="618.59,-242.44 608.03,-243.25 616.79,-249.21 618.59,-242.44"/>
</g>
<!-- Node14 -->
<g id="node15" class="node">
<title>Node14</title>
<polygon fill="white" stroke="#bfbfbf" points="626,-224.5 626,-243.5 670,-243.5 670,-224.5 626,-224.5"/>
<text text-anchor="middle" x="648" y="-231.5" font-family="Helvetica,sans-Serif" font-size="10.00">time.h</text>
</g>
<!-- Node11&#45;&gt;Node14 -->
<g id="edge16" class="edge">
<title>Node11&#45;&gt;Node14</title>
<path fill="none" stroke="midnightblue" d="M760.81,-281.15C739.22,-272.32 703.86,-257.85 678.49,-247.47"/>
<polygon fill="midnightblue" stroke="midnightblue" points="679.54,-244.12 668.96,-243.58 676.89,-250.6 679.54,-244.12"/>
</g>
<!-- Node11&#45;&gt;Node15 -->
<g id="edge17" class="edge">
<title>Node11&#45;&gt;Node15</title>
<path fill="none" stroke="midnightblue" d="M760.74,-289.31C705.3,-289.65 541.14,-286.71 414,-244 404.58,-240.84 354.8,-211.07 324.86,-192.93"/>
<polygon fill="midnightblue" stroke="midnightblue" points="326.64,-189.92 316.28,-187.72 323.01,-195.9 326.64,-189.92"/>
</g>
<!-- Node11&#45;&gt;Node16 -->
<g id="edge20" class="edge">
<title>Node11&#45;&gt;Node16</title>
<path fill="none" stroke="midnightblue" d="M760.7,-285.78C709.8,-277.3 570.93,-254.16 499.59,-242.26"/>
<polygon fill="midnightblue" stroke="midnightblue" points="500.01,-238.79 489.57,-240.59 498.86,-245.69 500.01,-238.79"/>
</g>
<!-- Node11&#45;&gt;Node17 -->
<g id="edge25" class="edge">
<title>Node11&#45;&gt;Node17</title>
<path fill="none" stroke="midnightblue" d="M783.63,-280.34C788.69,-266.76 795.87,-240.32 783,-224 778.51,-218.31 694.37,-199.78 640.19,-188.35"/>
<polygon fill="midnightblue" stroke="midnightblue" points="640.62,-184.87 630.11,-186.24 639.18,-191.72 640.62,-184.87"/>
</g>
<!-- Node11&#45;&gt;Node18 -->
<g id="edge23" class="edge">
<title>Node11&#45;&gt;Node18</title>
<path fill="none" stroke="midnightblue" d="M760.72,-287.26C677.98,-279.82 351.65,-250.45 227.92,-239.31"/>
<polygon fill="midnightblue" stroke="midnightblue" points="227.9,-235.8 217.62,-238.39 227.27,-242.77 227.9,-235.8"/>
</g>
<!-- Node11&#45;&gt;Node19 -->
<g id="edge26" class="edge">
<title>Node11&#45;&gt;Node19</title>
<path fill="none" stroke="midnightblue" d="M799.26,-283.53C831.01,-274.5 894.77,-256.38 934.76,-245.02"/>
<polygon fill="midnightblue" stroke="midnightblue" points="935.71,-248.38 944.37,-242.28 933.8,-241.65 935.71,-248.38"/>
</g>
<!-- Node11&#45;&gt;Node21 -->
<g id="edge35" class="edge">
<title>Node11&#45;&gt;Node21</title>
<path fill="none" stroke="midnightblue" d="M799.21,-281.79C821.66,-273.24 859.85,-258.35 892,-244 929.6,-227.22 972.19,-205.8 998.57,-192.23"/>
<polygon fill="midnightblue" stroke="midnightblue" points="1000.24,-195.31 1007.52,-187.62 997.03,-189.09 1000.24,-195.31"/>
</g>
<!-- Node11&#45;&gt;Node24 -->
<g id="edge36" class="edge">
<title>Node11&#45;&gt;Node24</title>
<path fill="none" stroke="midnightblue" d="M799.13,-286.47C863.81,-277.91 1074.81,-249.98 1155.88,-239.25"/>
<polygon fill="midnightblue" stroke="midnightblue" points="1156.53,-242.7 1165.98,-237.91 1155.61,-235.76 1156.53,-242.7"/>
</g>
<!-- Node25 -->
<g id="node26" class="node">
<title>Node25</title>
<g id="a_node26"><a xlink:href="coap__session_8h.html" target="_top" xlink:title="Defines the application visible session information. ">
<polygon fill="white" stroke="black" points="688.5,-224.5 688.5,-243.5 773.5,-243.5 773.5,-224.5 688.5,-224.5"/>
<text text-anchor="middle" x="731" y="-231.5" font-family="Helvetica,sans-Serif" font-size="10.00">coap_session.h</text>
</a>
</g>
</g>
<!-- Node11&#45;&gt;Node25 -->
<g id="edge38" class="edge">
<title>Node11&#45;&gt;Node25</title>
<path fill="none" stroke="midnightblue" d="M771.91,-280.08C764.84,-272.3 754.41,-260.8 745.85,-251.37"/>
<polygon fill="midnightblue" stroke="midnightblue" points="748.25,-248.8 738.94,-243.75 743.07,-253.51 748.25,-248.8"/>
</g>
<!-- Node15&#45;&gt;Node5 -->
<g id="edge19" class="edge">
<title>Node15&#45;&gt;Node5</title>
<path fill="none" stroke="midnightblue" d="M295.73,-168.08C290.36,-160.46 282.48,-149.26 275.92,-139.94"/>
<polygon fill="midnightblue" stroke="midnightblue" points="278.78,-137.91 270.16,-131.75 273.05,-141.94 278.78,-137.91"/>
</g>
<!-- Node15&#45;&gt;Node9 -->
<g id="edge18" class="edge">
<title>Node15&#45;&gt;Node9</title>
<path fill="none" stroke="midnightblue" d="M306,-168.37C314.31,-150.46 333.56,-108.92 344.68,-84.95"/>
<polygon fill="midnightblue" stroke="midnightblue" points="347.99,-86.14 349.02,-75.59 341.64,-83.19 347.99,-86.14"/>
</g>
<!-- Node16&#45;&gt;Node17 -->
<g id="edge21" class="edge">
<title>Node16&#45;&gt;Node17</title>
<path fill="none" stroke="midnightblue" d="M478.02,-224.44C501.1,-215.48 537.56,-201.31 563.64,-191.18"/>
<polygon fill="midnightblue" stroke="midnightblue" points="565.02,-194.4 573.08,-187.52 562.49,-187.88 565.02,-194.4"/>
</g>
<!-- Node17&#45;&gt;Node7 -->
<g id="edge22" class="edge">
<title>Node17&#45;&gt;Node7</title>
<path fill="none" stroke="midnightblue" d="M599.94,-168.37C610.29,-150.3 634.42,-108.18 648.09,-84.31"/>
<polygon fill="midnightblue" stroke="midnightblue" points="651.15,-86.01 653.08,-75.59 645.07,-82.53 651.15,-86.01"/>
</g>
<!-- Node18&#45;&gt;Node1 -->
<g id="edge24" class="edge">
<title>Node18&#45;&gt;Node1</title>
<path fill="none" stroke="midnightblue" d="M181.74,-224.42C183.47,-215.4 186.01,-200.77 187,-188 189.84,-151.25 178.84,-109.03 171.38,-85.44"/>
<polygon fill="midnightblue" stroke="midnightblue" points="174.63,-84.12 168.17,-75.73 167.99,-86.32 174.63,-84.12"/>
</g>
<!-- Node19&#45;&gt;Node20 -->
<g id="edge27" class="edge">
<title>Node19&#45;&gt;Node20</title>
<path fill="none" stroke="midnightblue" d="M944.34,-228.4C889.08,-218.48 759.05,-195.16 699.62,-184.49"/>
<polygon fill="midnightblue" stroke="midnightblue" points="700.16,-181.04 689.7,-182.71 698.93,-187.93 700.16,-181.04"/>
</g>
<!-- Node19&#45;&gt;Node21 -->
<g id="edge29" class="edge">
<title>Node19&#45;&gt;Node21</title>
<path fill="none" stroke="midnightblue" d="M978.92,-224.08C986.78,-216.22 998.43,-204.57 1007.92,-195.08"/>
<polygon fill="midnightblue" stroke="midnightblue" points="1010.65,-197.3 1015.25,-187.75 1005.7,-192.35 1010.65,-197.3"/>
</g>
<!-- Node20&#45;&gt;Node7 -->
<g id="edge28" class="edge">
<title>Node20&#45;&gt;Node7</title>
<path fill="none" stroke="midnightblue" d="M668.14,-168.37C666.36,-150.62 662.27,-109.67 659.86,-85.6"/>
<polygon fill="midnightblue" stroke="midnightblue" points="663.34,-85.19 658.86,-75.59 656.37,-85.89 663.34,-85.19"/>
</g>
<!-- Node21&#45;&gt;Node7 -->
<g id="edge34" class="edge">
<title>Node21&#45;&gt;Node7</title>
<path fill="none" stroke="midnightblue" d="M1014.57,-168.42C998.38,-154.2 963.67,-125.94 929,-112 848.48,-79.62 745.51,-70.54 692.68,-67.99"/>
<polygon fill="midnightblue" stroke="midnightblue" points="692.65,-64.49 682.5,-67.55 692.34,-71.48 692.65,-64.49"/>
</g>
<!-- Node21&#45;&gt;Node22 -->
<g id="edge30" class="edge">
<title>Node21&#45;&gt;Node22</title>
<path fill="none" stroke="midnightblue" d="M1044.73,-172.11C1086.09,-162.36 1178.91,-140.47 1225.38,-129.51"/>
<polygon fill="midnightblue" stroke="midnightblue" points="1226.43,-132.86 1235.36,-127.16 1224.82,-126.05 1226.43,-132.86"/>
</g>
<!-- Node22&#45;&gt;Node7 -->
<g id="edge31" class="edge">
<title>Node22&#45;&gt;Node7</title>
<path fill="none" stroke="midnightblue" d="M1235.19,-119.38C1152.4,-111.87 804.4,-80.29 692.68,-70.15"/>
<polygon fill="midnightblue" stroke="midnightblue" points="692.9,-66.65 682.62,-69.23 692.27,-73.62 692.9,-66.65"/>
</g>
<!-- Node22&#45;&gt;Node23 -->
<g id="edge32" class="edge">
<title>Node22&#45;&gt;Node23</title>
<path fill="none" stroke="midnightblue" d="M1263.12,-112.32C1272.53,-104.26 1286.74,-92.08 1298.07,-82.37"/>
<polygon fill="midnightblue" stroke="midnightblue" points="1300.38,-85 1305.69,-75.83 1295.82,-79.68 1300.38,-85"/>
</g>
<!-- Node23&#45;&gt;Node8 -->
<g id="edge33" class="edge">
<title>Node23&#45;&gt;Node8</title>
<path fill="none" stroke="midnightblue" d="M1297.9,-62.57C1235.76,-54.25 1030.42,-26.73 947.84,-15.67"/>
<polygon fill="midnightblue" stroke="midnightblue" points="948.09,-12.17 937.71,-14.31 947.16,-19.11 948.09,-12.17"/>
</g>
<!-- Node24&#45;&gt;Node12 -->
<g id="edge37" class="edge">
<title>Node24&#45;&gt;Node12</title>
<path fill="none" stroke="midnightblue" d="M1182.11,-224.37C1169.74,-206.22 1140.82,-163.8 1124.58,-139.99"/>
<polygon fill="midnightblue" stroke="midnightblue" points="1127.38,-137.88 1118.86,-131.59 1121.6,-141.83 1127.38,-137.88"/>
</g>
<!-- Node25&#45;&gt;Node4 -->
<g id="edge39" class="edge">
<title>Node25&#45;&gt;Node4</title>
<path fill="none" stroke="midnightblue" d="M688.48,-225.32C685.28,-224.84 682.09,-224.39 679,-224 585.85,-212.2 315.14,-192.52 188.62,-183.62"/>
<polygon fill="midnightblue" stroke="midnightblue" points="188.52,-180.1 178.3,-182.9 188.03,-187.09 188.52,-180.1"/>
</g>
<!-- Node25&#45;&gt;Node15 -->
<g id="edge40" class="edge">
<title>Node25&#45;&gt;Node15</title>
<path fill="none" stroke="midnightblue" d="M688.46,-225.45C685.26,-224.94 682.08,-224.45 679,-224 556.47,-206.1 410.76,-190.24 341.87,-183.06"/>
<polygon fill="midnightblue" stroke="midnightblue" points="342.19,-179.58 331.88,-182.03 341.47,-186.54 342.19,-179.58"/>
</g>
<!-- Node25&#45;&gt;Node17 -->
<g id="edge41" class="edge">
<title>Node25&#45;&gt;Node17</title>
<path fill="none" stroke="midnightblue" d="M709.45,-224.44C686.97,-215.52 651.51,-201.44 626.02,-191.32"/>
<polygon fill="midnightblue" stroke="midnightblue" points="627.03,-187.95 616.45,-187.52 624.45,-194.46 627.03,-187.95"/>
</g>
<!-- Node25&#45;&gt;Node21 -->
<g id="edge42" class="edge">
<title>Node25&#45;&gt;Node21</title>
<path fill="none" stroke="midnightblue" d="M773.6,-225.15C833.44,-214.12 940.93,-194.31 993.45,-184.63"/>
<polygon fill="midnightblue" stroke="midnightblue" points="994.28,-188.04 1003.48,-182.78 993.01,-181.15 994.28,-188.04"/>
</g>
<!-- Node26 -->
<g id="node27" class="node">
<title>Node26</title>
<g id="a_node27"><a xlink:href="uthash_8h.html" target="_top" xlink:title="uthash.h">
<polygon fill="white" stroke="black" points="868,-168.5 868,-187.5 922,-187.5 922,-168.5 868,-168.5"/>
<text text-anchor="middle" x="895" y="-175.5" font-family="Helvetica,sans-Serif" font-size="10.00">uthash.h</text>
</a>
</g>
</g>
<!-- Node25&#45;&gt;Node26 -->
<g id="edge43" class="edge">
<title>Node25&#45;&gt;Node26</title>
<path fill="none" stroke="midnightblue" d="M756.99,-224.44C784.7,-215.32 828.75,-200.81 859.62,-190.65"/>
<polygon fill="midnightblue" stroke="midnightblue" points="860.73,-193.97 869.14,-187.52 858.54,-187.32 860.73,-193.97"/>
</g>
<!-- Node26&#45;&gt;Node8 -->
<g id="edge44" class="edge">
<title>Node26&#45;&gt;Node8</title>
<path fill="none" stroke="midnightblue" d="M904.29,-168.39C912.58,-160.02 924.14,-146.48 929,-132 940.74,-96.98 929.08,-53.55 920.44,-29.4"/>
<polygon fill="midnightblue" stroke="midnightblue" points="923.6,-27.87 916.77,-19.76 917.05,-30.35 923.6,-27.87"/>
</g>
<!-- Node26&#45;&gt;Node12 -->
<g id="edge46" class="edge">
<title>Node26&#45;&gt;Node12</title>
<path fill="none" stroke="midnightblue" d="M922.17,-170.27C961.9,-160.43 1035.81,-142.12 1079.07,-131.41"/>
<polygon fill="midnightblue" stroke="midnightblue" points="1079.98,-134.79 1088.84,-128.98 1078.3,-127.99 1079.98,-134.79"/>
</g>
<!-- Node27 -->
<g id="node28" class="node">
<title>Node27</title>
<polygon fill="white" stroke="#bfbfbf" points="868,-112.5 868,-131.5 920,-131.5 920,-112.5 868,-112.5"/>
<text text-anchor="middle" x="894" y="-119.5" font-family="Helvetica,sans-Serif" font-size="10.00">stddef.h</text>
</g>
<!-- Node26&#45;&gt;Node27 -->
<g id="edge45" class="edge">
<title>Node26&#45;&gt;Node27</title>
<path fill="none" stroke="midnightblue" d="M894.83,-168.08C894.7,-161.01 894.52,-150.86 894.35,-141.99"/>
<polygon fill="midnightblue" stroke="midnightblue" points="897.85,-141.68 894.16,-131.75 890.85,-141.81 897.85,-141.68"/>
</g>
<!-- Node28&#45;&gt;Node19 -->
<g id="edge52" class="edge">
<title>Node28&#45;&gt;Node19</title>
<path fill="none" stroke="midnightblue" d="M927.61,-336.37C935.1,-318.46 952.47,-276.92 962.49,-252.95"/>
<polygon fill="midnightblue" stroke="midnightblue" points="965.78,-254.17 966.41,-243.59 959.32,-251.47 965.78,-254.17"/>
</g>
<!-- Node28&#45;&gt;Node21 -->
<g id="edge53" class="edge">
<title>Node28&#45;&gt;Node21</title>
<path fill="none" stroke="midnightblue" d="M932.95,-336.41C949.57,-320 985.26,-282.37 1005,-244 1012.56,-229.3 1017.55,-211.13 1020.51,-197.75"/>
<polygon fill="midnightblue" stroke="midnightblue" points="1023.97,-198.31 1022.53,-187.81 1017.11,-196.91 1023.97,-198.31"/>
</g>
<!-- Node28&#45;&gt;Node29 -->
<g id="edge49" class="edge">
<title>Node28&#45;&gt;Node29</title>
<path fill="none" stroke="midnightblue" d="M899.72,-342.68C811.21,-334.22 505.38,-304.99 397.24,-294.66"/>
<polygon fill="midnightblue" stroke="midnightblue" points="397.4,-291.15 387.12,-293.69 396.74,-298.12 397.4,-291.15"/>
</g>
<!-- Node29&#45;&gt;Node7 -->
<g id="edge51" class="edge">
<title>Node29&#45;&gt;Node7</title>
<path fill="none" stroke="midnightblue" d="M341.82,-280.36C320.53,-268.45 288.69,-245.97 303,-224 340.34,-166.66 541.81,-101.5 623.53,-77.01"/>
<polygon fill="midnightblue" stroke="midnightblue" points="624.75,-80.3 633.34,-74.09 622.75,-73.59 624.75,-80.3"/>
</g>
<!-- Node30 -->
<g id="node31" class="node">
<title>Node30</title>
<polygon fill="white" stroke="#bfbfbf" points="312,-224.5 312,-243.5 366,-243.5 366,-224.5 312,-224.5"/>
<text text-anchor="middle" x="339" y="-231.5" font-family="Helvetica,sans-Serif" font-size="10.00">strings.h</text>
</g>
<!-- Node29&#45;&gt;Node30 -->
<g id="edge50" class="edge">
<title>Node29&#45;&gt;Node30</title>
<path fill="none" stroke="midnightblue" d="M355.7,-280.08C353.02,-272.85 349.15,-262.41 345.81,-253.4"/>
<polygon fill="midnightblue" stroke="midnightblue" points="349,-251.91 342.24,-243.75 342.43,-254.34 349,-251.91"/>
</g>
<!-- Node31&#45;&gt;Node21 -->
<g id="edge59" class="edge">
<title>Node31&#45;&gt;Node21</title>
<path fill="none" stroke="midnightblue" d="M1275.07,-392.45C1274.81,-363.9 1269.91,-271.01 1219,-224 1195.28,-202.1 1103.21,-188.28 1054.55,-182.35"/>
<polygon fill="midnightblue" stroke="midnightblue" points="1054.92,-178.87 1044.58,-181.17 1054.1,-185.82 1054.92,-178.87"/>
</g>
<!-- Node32&#45;&gt;Node12 -->
<g id="edge62" class="edge">
<title>Node32&#45;&gt;Node12</title>
<path fill="none" stroke="midnightblue" d="M1324.73,-280.48C1319.25,-267.1 1307.1,-240.92 1290,-224 1247.52,-181.97 1184.05,-151.43 1145.77,-135.52"/>
<polygon fill="midnightblue" stroke="midnightblue" points="1146.73,-132.13 1136.15,-131.61 1144.09,-138.62 1146.73,-132.13"/>
</g>
<!-- Node33&#45;&gt;Node10 -->
<g id="edge69" class="edge">
<title>Node33&#45;&gt;Node10</title>
<path fill="none" stroke="midnightblue" d="M942.42,-392.44C907.83,-382.77 851.6,-367.03 815.21,-356.85"/>
<polygon fill="midnightblue" stroke="midnightblue" points="816.08,-353.46 805.51,-354.14 814.19,-360.2 816.08,-353.46"/>
</g>
<!-- Node33&#45;&gt;Node11 -->
<g id="edge73" class="edge">
<title>Node33&#45;&gt;Node11</title>
<path fill="none" stroke="midnightblue" d="M956.9,-392.34C940.31,-383.37 913.74,-368.9 891,-356 860.4,-338.65 825.44,-318.05 803.06,-304.76"/>
<polygon fill="midnightblue" stroke="midnightblue" points="804.68,-301.65 794.29,-299.54 801.1,-307.66 804.68,-301.65"/>
</g>
<!-- Node33&#45;&gt;Node21 -->
<g id="edge72" class="edge">
<title>Node33&#45;&gt;Node21</title>
<path fill="none" stroke="midnightblue" d="M981.76,-392.09C994.17,-379.5 1017.64,-355.81 1038,-336 1054.67,-319.77 1066.81,-321.37 1076,-300 1089.35,-268.97 1090.04,-254.72 1076,-224 1070.22,-211.36 1058.95,-200.91 1048.37,-193.27"/>
<polygon fill="midnightblue" stroke="midnightblue" points="1050.04,-190.18 1039.78,-187.53 1046.15,-196 1050.04,-190.18"/>
</g>
<!-- Node33&#45;&gt;Node23 -->
<g id="edge71" class="edge">
<title>Node33&#45;&gt;Node23</title>
<path fill="none" stroke="midnightblue" d="M985.76,-392.5C1004.56,-379.99 1040.84,-355.97 1072,-336 1136.88,-294.4 1166.1,-300.05 1219,-244 1265.22,-195.02 1296.72,-119.82 1309.54,-85.37"/>
<polygon fill="midnightblue" stroke="midnightblue" points="1312.93,-86.3 1313.05,-75.71 1306.35,-83.92 1312.93,-86.3"/>
</g>
<!-- Node33&#45;&gt;Node26 -->
<g id="edge68" class="edge">
<title>Node33&#45;&gt;Node26</title>
<path fill="none" stroke="midnightblue" d="M978.54,-392.37C995.3,-365.08 1042.07,-279.22 1005,-224 988.83,-199.91 957.23,-188.71 932.03,-183.5"/>
<polygon fill="midnightblue" stroke="midnightblue" points="932.51,-180.03 922.04,-181.67 931.25,-186.92 932.51,-180.03"/>
</g>
<!-- Node33&#45;&gt;Node28 -->
<g id="edge70" class="edge">
<title>Node33&#45;&gt;Node28</title>
<path fill="none" stroke="midnightblue" d="M964.91,-392.08C957.84,-384.3 947.41,-372.8 938.85,-363.37"/>
<polygon fill="midnightblue" stroke="midnightblue" points="941.25,-360.8 931.94,-355.75 936.07,-365.51 941.25,-360.8"/>
</g>
<!-- Node33&#45;&gt;Node34 -->
<g id="edge74" class="edge">
<title>Node33&#45;&gt;Node34</title>
<path fill="none" stroke="midnightblue" d="M995.34,-392.44C1018.75,-383.48 1055.74,-369.31 1082.19,-359.18"/>
<polygon fill="midnightblue" stroke="midnightblue" points="1083.68,-362.36 1091.76,-355.52 1081.17,-355.82 1083.68,-362.36"/>
</g>
</g>
</svg>
