<?xml version="1.0" encoding="UTF-8" standalone="no"?>
<!DOCTYPE svg PUBLIC "-//W3C//DTD SVG 1.1//EN"
 "http://www.w3.org/Graphics/SVG/1.1/DTD/svg11.dtd">
<!-- Generated by graphviz version 2.43.0 (0)
 -->
<!-- Title: coap_network_read Pages: 1 -->
<svg width="335pt" height="104pt"
 viewBox="0.00 0.00 335.00 104.00" xmlns="http://www.w3.org/2000/svg" xmlns:xlink="http://www.w3.org/1999/xlink">
<g id="graph0" class="graph" transform="scale(1 1) rotate(0) translate(4 100)">
<title>coap_network_read</title>
<polygon fill="white" stroke="transparent" points="-4,4 -4,-100 331,-100 331,4 -4,4"/>
<!-- Node89 -->
<g id="node1" class="node">
<title>Node89</title>
<polygon fill="#bfbfbf" stroke="black" points="0,-38.5 0,-57.5 101,-57.5 101,-38.5 0,-38.5"/>
<text text-anchor="middle" x="50.5" y="-45.5" font-family="Helvetica,sans-Serif" font-size="10.00">coap_network_read</text>
</g>
<!-- Node90 -->
<g id="node2" class="node">
<title>Node90</title>
<g id="a_node2"><a xlink:href="coap__io_8c.html#ad3119e077bde4ee15a65271de0b70531" target="_top" xlink:title="coap_socket_strerror">
<polygon fill="white" stroke="black" points="137,-76.5 137,-95.5 245,-95.5 245,-76.5 137,-76.5"/>
<text text-anchor="middle" x="191" y="-83.5" font-family="Helvetica,sans-Serif" font-size="10.00">coap_socket_strerror</text>
</a>
</g>
</g>
<!-- Node89&#45;&gt;Node90 -->
<g id="edge1" class="edge">
<title>Node89&#45;&gt;Node90</title>
<path fill="none" stroke="midnightblue" d="M86.45,-57.59C104.33,-62.49 126.29,-68.52 145.38,-73.76"/>
<polygon fill="midnightblue" stroke="midnightblue" points="144.49,-77.14 155.06,-76.41 146.34,-70.39 144.49,-77.14"/>
</g>
<!-- Node91 -->
<g id="node3" class="node">
<title>Node91</title>
<g id="a_node3"><a xlink:href="group__logging.html#ga10c3fbd56b0eb3a8722b27a65fc9b0ce" target="_top" xlink:title="Get the current logging level. ">
<polygon fill="white" stroke="black" points="141,-38.5 141,-57.5 241,-57.5 241,-38.5 141,-38.5"/>
<text text-anchor="middle" x="191" y="-45.5" font-family="Helvetica,sans-Serif" font-size="10.00">coap_get_log_level</text>
</a>
</g>
</g>
<!-- Node89&#45;&gt;Node91 -->
<g id="edge2" class="edge">
<title>Node89&#45;&gt;Node91</title>
<path fill="none" stroke="midnightblue" d="M101.11,-48C110.67,-48 120.78,-48 130.62,-48"/>
<polygon fill="midnightblue" stroke="midnightblue" points="130.74,-51.5 140.74,-48 130.74,-44.5 130.74,-51.5"/>
</g>
<!-- Node92 -->
<g id="node4" class="node">
<title>Node92</title>
<g id="a_node4"><a xlink:href="group__logging.html#ga6a4f5ef637bf85aa161adfe73ac81ff0" target="_top" xlink:title="Print the address into the defined buffer. ">
<polygon fill="white" stroke="black" points="148,-0.5 148,-19.5 234,-19.5 234,-0.5 148,-0.5"/>
<text text-anchor="middle" x="191" y="-7.5" font-family="Helvetica,sans-Serif" font-size="10.00">coap_print_addr</text>
</a>
</g>
</g>
<!-- Node89&#45;&gt;Node92 -->
<g id="edge3" class="edge">
<title>Node89&#45;&gt;Node92</title>
<path fill="none" stroke="midnightblue" d="M86.45,-38.41C104.33,-33.51 126.29,-27.48 145.38,-22.24"/>
<polygon fill="midnightblue" stroke="midnightblue" points="146.34,-25.61 155.06,-19.59 144.49,-18.86 146.34,-25.61"/>
</g>
<!-- Node93 -->
<g id="node5" class="node">
<title>Node93</title>
<g id="a_node5"><a xlink:href="coap__debug_8c.html#aaa5ee5c2942fe13271a46000b2aebde6" target="_top" xlink:title="A length&#45;safe strlen() fake. ">
<polygon fill="white" stroke="black" points="281,-0.5 281,-19.5 327,-19.5 327,-0.5 281,-0.5"/>
<text text-anchor="middle" x="304" y="-7.5" font-family="Helvetica,sans-Serif" font-size="10.00">strnlen</text>
</a>
</g>
</g>
<!-- Node92&#45;&gt;Node93 -->
<g id="edge4" class="edge">
<title>Node92&#45;&gt;Node93</title>
<path fill="none" stroke="midnightblue" d="M234.28,-10C246.26,-10 259.11,-10 270.42,-10"/>
<polygon fill="midnightblue" stroke="midnightblue" points="270.71,-13.5 280.71,-10 270.71,-6.5 270.71,-13.5"/>
</g>
</g>
</svg>
