<?xml version="1.0" encoding="UTF-8" standalone="no"?>
<!DOCTYPE svg PUBLIC "-//W3C//DTD SVG 1.1//EN"
 "http://www.w3.org/Graphics/SVG/1.1/DTD/svg11.dtd">
<!-- Generated by graphviz version 2.43.0 (0)
 -->
<!-- Title: coap_packet_get_memmapped Pages: 1 -->
<!--zoomable 254 -->
<svg id="main" version="1.1" xmlns="http://www.w3.org/2000/svg" xmlns:xlink="http://www.w3.org/1999/xlink" xml:space="preserve" onload="init(evt)">
<style type="text/css"><![CDATA[
.edge:hover path { stroke: red; }
.edge:hover polygon { stroke: red; fill: red; }
]]></style>
<script type="text/javascript"><![CDATA[
var edges = document.getElementsByTagName('g');
if (edges && edges.length) {
  for (var i=0;i<edges.length;i++) {
    if (edges[i].id.substr(0,4)=='edge') {
      edges[i].setAttribute('class','edge');
    }
  }
}
]]></script>
        <defs>
                <circle id="rim" cx="0" cy="0" r="7"/>
                <circle id="rim2" cx="0" cy="0" r="3.5"/>
                <g id="zoomPlus">
                        <use xlink:href="#rim" fill="#404040">
                                <set attributeName="fill" to="#808080" begin="zoomplus.mouseover" end="zoomplus.mouseout"/>
                        </use>
                        <path d="M-4,0h8M0,-4v8" fill="none" stroke="white" stroke-width="1.5" pointer-events="none"/>
                </g>
                <g id="zoomMin">
                        <use xlink:href="#rim" fill="#404040">
                                <set attributeName="fill" to="#808080" begin="zoomminus.mouseover" end="zoomminus.mouseout"/>
                        </use>
                        <path d="M-4,0h8" fill="none" stroke="white" stroke-width="1.5" pointer-events="none"/>
                </g>
                <g id="dirArrow">
                        <path fill="none" stroke="white" stroke-width="1.5" d="M0,-3.0v7 M-2.5,-0.5L0,-3.0L2.5,-0.5"/>
                </g>
               <g id="resetDef">
                       <use xlink:href="#rim2" fill="#404040">
                               <set attributeName="fill" to="#808080" begin="reset.mouseover" end="reset.mouseout"/>
                       </use>
               </g>
        </defs>

<script type="text/javascript">
var viewWidth = 1328;
var viewHeight = 254;
var sectionId = 'dynsection-8';
</script>
<script xlink:href="svgpan.js"/>
<svg id="graph" class="graph">
<g id="viewport">
<title>coap_packet_get_memmapped</title>
<polygon fill="white" stroke="transparent" points="-4,4 -4,-250 1324,-250 1324,4 -4,4"/>
<!-- Node44 -->
<g id="node1" class="node">
<title>Node44</title>
<polygon fill="#bfbfbf" stroke="black" points="0,-84.5 0,-103.5 152,-103.5 152,-84.5 0,-84.5"/>
<text text-anchor="middle" x="76" y="-91.5" font-family="Helvetica,sans-Serif" font-size="10.00">coap_packet_get_memmapped</text>
</g>
<!-- Node45 -->
<g id="node2" class="node">
<title>Node45</title>
<g id="a_node2"><a xlink:href="coap__dtls__gnutls_8c.html#acae60346c237845732c91e419bb5517e" target="_top" xlink:title="decrypt_callback">
<polygon fill="white" stroke="black" points="203,-106.5 203,-125.5 293,-125.5 293,-106.5 203,-106.5"/>
<text text-anchor="middle" x="248" y="-113.5" font-family="Helvetica,sans-Serif" font-size="10.00">decrypt_callback</text>
</a>
</g>
</g>
<!-- Node44&#45;&gt;Node45 -->
<g id="edge1" class="edge">
<title>Node44&#45;&gt;Node45</title>
<path fill="none" stroke="midnightblue" d="M160.62,-104.82C175.17,-106.7 189.78,-108.59 202.73,-110.27"/>
<polygon fill="midnightblue" stroke="midnightblue" points="160.94,-101.33 150.58,-103.52 160.04,-108.28 160.94,-101.33"/>
</g>
<!-- Node49 -->
<g id="node6" class="node">
<title>Node49</title>
<g id="a_node6"><a xlink:href="net_8c.html#a8534f7860b14e0743529daff196a27ce" target="_top" xlink:title="coap_handle_dgram_for\l_proto">
<polygon fill="white" stroke="black" points="188,-57 188,-87 308,-87 308,-57 188,-57"/>
<text text-anchor="start" x="196" y="-75" font-family="Helvetica,sans-Serif" font-size="10.00">coap_handle_dgram_for</text>
<text text-anchor="middle" x="248" y="-64" font-family="Helvetica,sans-Serif" font-size="10.00">_proto</text>
</a>
</g>
</g>
<!-- Node44&#45;&gt;Node49 -->
<g id="edge5" class="edge">
<title>Node44&#45;&gt;Node49</title>
<path fill="none" stroke="midnightblue" d="M160.57,-83.19C169.8,-81.99 179.05,-80.79 187.9,-79.65"/>
<polygon fill="midnightblue" stroke="midnightblue" points="160.04,-79.72 150.58,-84.48 160.94,-86.67 160.04,-79.72"/>
</g>
<!-- Node46 -->
<g id="node3" class="node">
<title>Node46</title>
<g id="a_node3"><a xlink:href="coap__dtls__gnutls_8c.html#a2e333b0d5a6d15a048071f654f7391bc" target="_top" xlink:title="coap_dtls_new_session">
<polygon fill="white" stroke="black" points="344,-106.5 344,-125.5 465,-125.5 465,-106.5 344,-106.5"/>
<text text-anchor="middle" x="404.5" y="-113.5" font-family="Helvetica,sans-Serif" font-size="10.00">coap_dtls_new_session</text>
</a>
</g>
</g>
<!-- Node45&#45;&gt;Node46 -->
<g id="edge2" class="edge">
<title>Node45&#45;&gt;Node46</title>
<path fill="none" stroke="midnightblue" d="M303.53,-116C316.62,-116 330.66,-116 343.96,-116"/>
<polygon fill="midnightblue" stroke="midnightblue" points="303.27,-112.5 293.27,-116 303.27,-119.5 303.27,-112.5"/>
</g>
<!-- Node47 -->
<g id="node4" class="node">
<title>Node47</title>
<g id="a_node4"><a xlink:href="coap__dtls__gnutls_8c.html#a1208fe255ba461cb9d369a83bbc0f98b" target="_top" xlink:title="coap_dtls_get_session">
<polygon fill="white" stroke="black" points="511.5,-143.5 511.5,-162.5 627.5,-162.5 627.5,-143.5 511.5,-143.5"/>
<text text-anchor="middle" x="569.5" y="-150.5" font-family="Helvetica,sans-Serif" font-size="10.00">coap_dtls_get_session</text>
</a>
</g>
</g>
<!-- Node46&#45;&gt;Node47 -->
<g id="edge3" class="edge">
<title>Node46&#45;&gt;Node47</title>
<path fill="none" stroke="midnightblue" d="M457.43,-127.79C479.69,-132.84 505.34,-138.66 526.38,-143.44"/>
<polygon fill="midnightblue" stroke="midnightblue" points="458,-124.33 447.48,-125.53 456.45,-131.16 458,-124.33"/>
</g>
<!-- Node48 -->
<g id="node5" class="node">
<title>Node48</title>
<g id="a_node5"><a xlink:href="coap__dtls__gnutls_8c.html#a174ab9010def9c77272219cabba1b48e" target="_top" xlink:title="coap_dtls_handle_message">
<polygon fill="white" stroke="black" points="501,-105.5 501,-124.5 638,-124.5 638,-105.5 501,-105.5"/>
<text text-anchor="middle" x="569.5" y="-112.5" font-family="Helvetica,sans-Serif" font-size="10.00">coap_dtls_handle_message</text>
</a>
</g>
</g>
<!-- Node46&#45;&gt;Node48 -->
<g id="edge4" class="edge">
<title>Node46&#45;&gt;Node48</title>
<path fill="none" stroke="midnightblue" d="M475.41,-115.57C483.81,-115.52 492.38,-115.47 500.75,-115.42"/>
<polygon fill="midnightblue" stroke="midnightblue" points="475.25,-112.07 465.27,-115.63 475.29,-119.07 475.25,-112.07"/>
</g>
<!-- Node50 -->
<g id="node7" class="node">
<title>Node50</title>
<g id="a_node7"><a xlink:href="net_8c.html#acd36f6fba6d30ab9557e0e6521f4a088" target="_top" xlink:title="coap_read_session">
<polygon fill="white" stroke="black" points="354,-65.5 354,-84.5 455,-84.5 455,-65.5 354,-65.5"/>
<text text-anchor="middle" x="404.5" y="-72.5" font-family="Helvetica,sans-Serif" font-size="10.00">coap_read_session</text>
</a>
</g>
</g>
<!-- Node49&#45;&gt;Node50 -->
<g id="edge6" class="edge">
<title>Node49&#45;&gt;Node50</title>
<path fill="none" stroke="midnightblue" d="M318.59,-73.35C330.41,-73.58 342.48,-73.82 353.66,-74.03"/>
<polygon fill="midnightblue" stroke="midnightblue" points="318.36,-69.85 308.29,-73.15 318.22,-76.84 318.36,-69.85"/>
</g>
<!-- Node59 -->
<g id="node16" class="node">
<title>Node59</title>
<g id="a_node16"><a xlink:href="net_8c.html#a44ffb4b70e537043e9a9cf344be24b92" target="_top" xlink:title="coap_read_endpoint">
<polygon fill="white" stroke="black" points="352.5,-27.5 352.5,-46.5 456.5,-46.5 456.5,-27.5 352.5,-27.5"/>
<text text-anchor="middle" x="404.5" y="-34.5" font-family="Helvetica,sans-Serif" font-size="10.00">coap_read_endpoint</text>
</a>
</g>
</g>
<!-- Node49&#45;&gt;Node59 -->
<g id="edge22" class="edge">
<title>Node49&#45;&gt;Node59</title>
<path fill="none" stroke="midnightblue" d="M318.36,-56.29C333.04,-52.96 348.09,-49.55 361.38,-46.54"/>
<polygon fill="midnightblue" stroke="midnightblue" points="317.27,-52.95 308.29,-58.57 318.82,-59.77 317.27,-52.95"/>
</g>
<!-- Node51 -->
<g id="node8" class="node">
<title>Node51</title>
<g id="a_node8"><a xlink:href="net_8h.html#a0748d791fd2af516dd93fbadb660d440" target="_top" xlink:title="For applications with their own message loop, reads all data from the network. ">
<polygon fill="white" stroke="black" points="538.5,-66.5 538.5,-85.5 600.5,-85.5 600.5,-66.5 538.5,-66.5"/>
<text text-anchor="middle" x="569.5" y="-73.5" font-family="Helvetica,sans-Serif" font-size="10.00">coap_read</text>
</a>
</g>
</g>
<!-- Node50&#45;&gt;Node51 -->
<g id="edge7" class="edge">
<title>Node50&#45;&gt;Node51</title>
<path fill="none" stroke="midnightblue" d="M465.37,-75.37C490.23,-75.52 517.97,-75.69 538.42,-75.82"/>
<polygon fill="midnightblue" stroke="midnightblue" points="465.31,-71.87 455.29,-75.31 465.27,-78.87 465.31,-71.87"/>
</g>
<!-- Node56 -->
<g id="node13" class="node">
<title>Node56</title>
<g id="a_node13"><a xlink:href="net_8h.html#a7b591afa095a093b604b63313275a02a" target="_top" xlink:title="Process all the epoll events. ">
<polygon fill="white" stroke="black" points="1100,-75.5 1100,-94.5 1201,-94.5 1201,-75.5 1100,-75.5"/>
<text text-anchor="middle" x="1150.5" y="-82.5" font-family="Helvetica,sans-Serif" font-size="10.00">coap_io_do_events</text>
</a>
</g>
</g>
<!-- Node50&#45;&gt;Node56 -->
<g id="edge21" class="edge">
<title>Node50&#45;&gt;Node56</title>
<path fill="none" stroke="midnightblue" d="M460.85,-63.61C473.97,-61.18 487.95,-58.8 501,-57 596.03,-43.88 620.07,-38 716,-38 716,-38 716,-38 856.5,-38 950.26,-38 1058.8,-61.76 1113.71,-75.49"/>
<polygon fill="midnightblue" stroke="midnightblue" points="460.19,-60.18 451.01,-65.48 461.49,-67.06 460.19,-60.18"/>
</g>
<!-- Node52 -->
<g id="node9" class="node">
<title>Node52</title>
<g id="a_node9"><a xlink:href="coap__io_8c.html#a75a7c93e10ca7858449ba304aad4ea37" target="_top" xlink:title="coap_run_once">
<polygon fill="white" stroke="black" points="1237,-179.5 1237,-198.5 1320,-198.5 1320,-179.5 1237,-179.5"/>
<text text-anchor="middle" x="1278.5" y="-186.5" font-family="Helvetica,sans-Serif" font-size="10.00">coap_run_once</text>
</a>
</g>
</g>
<!-- Node51&#45;&gt;Node52 -->
<g id="edge8" class="edge">
<title>Node51&#45;&gt;Node52</title>
<path fill="none" stroke="midnightblue" d="M610.69,-82.42C620.36,-85.38 630.15,-89.7 638,-96 663.75,-116.68 650.53,-137.76 674,-161 737.01,-223.39 765.83,-246 854.5,-246 854.5,-246 854.5,-246 1008.5,-246 1098.96,-246 1202.9,-214.77 1250.79,-198.54"/>
<polygon fill="midnightblue" stroke="midnightblue" points="611.31,-78.96 600.75,-79.81 609.53,-85.73 611.31,-78.96"/>
</g>
<!-- Node53 -->
<g id="node10" class="node">
<title>Node53</title>
<g id="a_node10"><a xlink:href="net_8h.html#a9900c032b74bd57f67d489484a2b3207" target="_top" xlink:title="Handles retransmissions of confirmable messages. ">
<polygon fill="white" stroke="black" points="674,-132.5 674,-151.5 760,-151.5 760,-132.5 674,-132.5"/>
<text text-anchor="middle" x="717" y="-139.5" font-family="Helvetica,sans-Serif" font-size="10.00">coap_retransmit</text>
</a>
</g>
</g>
<!-- Node51&#45;&gt;Node53 -->
<g id="edge9" class="edge">
<title>Node51&#45;&gt;Node53</title>
<path fill="none" stroke="midnightblue" d="M610.4,-86.06C619.62,-88.87 629.28,-92.2 638,-96 661.64,-106.29 687,-122.27 702.18,-132.43"/>
<polygon fill="midnightblue" stroke="midnightblue" points="611.21,-82.65 600.63,-83.23 609.26,-89.38 611.21,-82.65"/>
</g>
<!-- Node57 -->
<g id="node14" class="node">
<title>Node57</title>
<g id="a_node14"><a xlink:href="net_8h.html#a5854b1394bfddd574e48af116e3aaaf9" target="_top" xlink:title="Sends an RST message with code 0 for the specified request to dst. ">
<polygon fill="white" stroke="black" points="967.5,-122.5 967.5,-141.5 1047.5,-141.5 1047.5,-122.5 967.5,-122.5"/>
<text text-anchor="middle" x="1007.5" y="-129.5" font-family="Helvetica,sans-Serif" font-size="10.00">coap_send_rst</text>
</a>
</g>
</g>
<!-- Node51&#45;&gt;Node57 -->
<g id="edge20" class="edge">
<title>Node51&#45;&gt;Node57</title>
<path fill="none" stroke="midnightblue" d="M611.14,-73.97C676.18,-71.68 807.29,-70.95 915,-95 941.42,-100.9 970.08,-113.61 988.16,-122.48"/>
<polygon fill="midnightblue" stroke="midnightblue" points="610.76,-70.48 600.91,-74.37 611.03,-77.48 610.76,-70.48"/>
</g>
<!-- Node54 -->
<g id="node11" class="node">
<title>Node54</title>
<g id="a_node11"><a xlink:href="net_8h.html#aaac86ac50793f309678e4951ecf8863f" target="_top" xlink:title="For applications with their own message loop, send all pending retransmits and return the list of soc...">
<polygon fill="white" stroke="black" points="823.5,-198.5 823.5,-217.5 887.5,-217.5 887.5,-198.5 823.5,-198.5"/>
<text text-anchor="middle" x="855.5" y="-205.5" font-family="Helvetica,sans-Serif" font-size="10.00">coap_write</text>
</a>
</g>
</g>
<!-- Node53&#45;&gt;Node54 -->
<g id="edge10" class="edge">
<title>Node53&#45;&gt;Node54</title>
<path fill="none" stroke="midnightblue" d="M743.23,-156.46C758.34,-164.89 778.04,-175.51 796,-184 806.82,-189.11 819.03,-194.22 829.49,-198.41"/>
<polygon fill="midnightblue" stroke="midnightblue" points="744.91,-153.38 734.48,-151.52 741.47,-159.48 744.91,-153.38"/>
</g>
<!-- Node53&#45;&gt;Node57 -->
<g id="edge19" class="edge">
<title>Node53&#45;&gt;Node57</title>
<path fill="none" stroke="midnightblue" d="M770.03,-148.84C778.69,-149.74 787.59,-150.52 796,-151 848.8,-154.04 862.39,-156.4 915,-151 933.08,-149.14 952.85,-145.27 969.37,-141.51"/>
<polygon fill="midnightblue" stroke="midnightblue" points="770.35,-145.36 760.02,-147.75 769.58,-152.32 770.35,-145.36"/>
</g>
<!-- Node58 -->
<g id="node15" class="node">
<title>Node58</title>
<g id="a_node15"><a xlink:href="net_8h.html#a09ff95ae16a4b7f6abf4a0822d430658" target="_top" xlink:title="Function interface for joining a multicast group for listening. ">
<polygon fill="white" stroke="black" points="796,-104.5 796,-123.5 915,-123.5 915,-104.5 796,-104.5"/>
<text text-anchor="middle" x="855.5" y="-111.5" font-family="Helvetica,sans-Serif" font-size="10.00">coap_join_mcast_group</text>
</a>
</g>
</g>
<!-- Node53&#45;&gt;Node58 -->
<g id="edge17" class="edge">
<title>Node53&#45;&gt;Node58</title>
<path fill="none" stroke="midnightblue" d="M769.92,-131.35C782.46,-128.78 795.78,-126.04 808.05,-123.53"/>
<polygon fill="midnightblue" stroke="midnightblue" points="769.16,-127.93 760.07,-133.37 770.57,-134.79 769.16,-127.93"/>
</g>
<!-- Node54&#45;&gt;Node52 -->
<g id="edge15" class="edge">
<title>Node54&#45;&gt;Node52</title>
<path fill="none" stroke="midnightblue" d="M898.07,-206.64C962.83,-204.45 1091.72,-199.79 1201,-194 1212.56,-193.39 1225.1,-192.61 1236.62,-191.86"/>
<polygon fill="midnightblue" stroke="midnightblue" points="897.74,-203.15 887.86,-206.98 897.97,-210.15 897.74,-203.15"/>
</g>
<!-- Node55 -->
<g id="node12" class="node">
<title>Node55</title>
<g id="a_node12"><a xlink:href="net_8h.html#a3be92476a2c2c12d68c0cd07795c7e34" target="_top" xlink:title="Any now timed out delayed packet is transmitted, along with any packets associated with requested obs...">
<polygon fill="white" stroke="black" points="951,-160.5 951,-179.5 1064,-179.5 1064,-160.5 951,-160.5"/>
<text text-anchor="middle" x="1007.5" y="-167.5" font-family="Helvetica,sans-Serif" font-size="10.00">coap_io_prepare_epoll</text>
</a>
</g>
</g>
<!-- Node54&#45;&gt;Node55 -->
<g id="edge11" class="edge">
<title>Node54&#45;&gt;Node55</title>
<path fill="none" stroke="midnightblue" d="M897.42,-197.63C919.69,-191.99 947.07,-185.06 968.82,-179.55"/>
<polygon fill="midnightblue" stroke="midnightblue" points="896.41,-194.28 887.58,-200.13 898.13,-201.06 896.41,-194.28"/>
</g>
<!-- Node54&#45;&gt;Node57 -->
<g id="edge16" class="edge">
<title>Node54&#45;&gt;Node57</title>
<path fill="none" stroke="midnightblue" d="M894.81,-194.57C901.75,-191.5 908.76,-187.96 915,-184 933.32,-172.37 932.34,-162.08 951,-151 957.3,-147.26 964.45,-144.11 971.47,-141.53"/>
<polygon fill="midnightblue" stroke="midnightblue" points="893.36,-191.38 885.47,-198.45 896.04,-197.84 893.36,-191.38"/>
</g>
<!-- Node55&#45;&gt;Node52 -->
<g id="edge12" class="edge">
<title>Node55&#45;&gt;Node52</title>
<path fill="none" stroke="midnightblue" d="M1074.46,-174.66C1125.2,-178.24 1193.7,-183.08 1236.73,-186.12"/>
<polygon fill="midnightblue" stroke="midnightblue" points="1074.46,-171.15 1064.24,-173.94 1073.97,-178.13 1074.46,-171.15"/>
</g>
<!-- Node55&#45;&gt;Node56 -->
<g id="edge13" class="edge">
<title>Node55&#45;&gt;Node56</title>
<path fill="none" stroke="midnightblue" d="M1051.54,-156.85C1055.84,-155.07 1060.06,-153.12 1064,-151 1093.89,-134.92 1124.25,-108.58 1139.48,-94.53"/>
<polygon fill="midnightblue" stroke="midnightblue" points="1050.2,-153.62 1042.12,-160.47 1052.71,-160.15 1050.2,-153.62"/>
</g>
<!-- Node56&#45;&gt;Node52 -->
<g id="edge14" class="edge">
<title>Node56&#45;&gt;Node52</title>
<path fill="none" stroke="midnightblue" d="M1170.98,-101.08C1197.54,-123 1244.26,-161.57 1265.9,-179.43"/>
<polygon fill="midnightblue" stroke="midnightblue" points="1173.07,-98.26 1163.13,-94.6 1168.61,-103.66 1173.07,-98.26"/>
</g>
<!-- Node58&#45;&gt;Node58 -->
<g id="edge18" class="edge">
<title>Node58&#45;&gt;Node58</title>
<path fill="none" stroke="midnightblue" d="M829.83,-133.03C831.23,-138.13 839.79,-142 855.5,-142 880.03,-142 887.12,-132.57 876.77,-123.76"/>
<polygon fill="midnightblue" stroke="midnightblue" points="833.11,-134.29 834.23,-123.76 826.78,-131.29 833.11,-134.29"/>
</g>
<!-- Node59&#45;&gt;Node51 -->
<g id="edge23" class="edge">
<title>Node59&#45;&gt;Node51</title>
<path fill="none" stroke="midnightblue" d="M455.12,-48.87C482.33,-55.38 515.17,-63.24 538.49,-68.82"/>
<polygon fill="midnightblue" stroke="midnightblue" points="455.91,-45.46 445.37,-46.54 454.29,-52.27 455.91,-45.46"/>
</g>
<!-- Node59&#45;&gt;Node56 -->
<g id="edge24" class="edge">
<title>Node59&#45;&gt;Node56</title>
<path fill="none" stroke="midnightblue" d="M464.8,-25.69C527.1,-14.81 628.06,0 716,0 716,0 716,0 856.5,0 950.51,0 975.23,-10.08 1064,-41 1089.7,-49.95 1117.33,-65.34 1134.02,-75.34"/>
<polygon fill="midnightblue" stroke="midnightblue" points="464,-22.28 454.76,-27.47 465.22,-29.17 464,-22.28"/>
</g>
</g>
</svg>
        <g id="navigator" transform="translate(0 0)" fill="#404254">
                <rect fill="#f2f5e9" fill-opacity="0.5" stroke="#606060" stroke-width=".5" x="0" y="0" width="60" height="60"/>
                <use id="zoomplus" xlink:href="#zoomPlus" x="17" y="9" onmousedown="handleZoom(evt,'in')"/>
                <use id="zoomminus" xlink:href="#zoomMin" x="42" y="9" onmousedown="handleZoom(evt,'out')"/>
                <use id="reset" xlink:href="#resetDef" x="30" y="36" onmousedown="handleReset()"/>
                <g id="arrowUp" xlink:href="#dirArrow" transform="translate(30 24)" onmousedown="handlePan(0,-1)">
                  <use xlink:href="#rim" fill="#404040">
                        <set attributeName="fill" to="#808080" begin="arrowUp.mouseover" end="arrowUp.mouseout"/>
                  </use>
                  <path fill="none" stroke="white" stroke-width="1.5" d="M0,-3.0v7 M-2.5,-0.5L0,-3.0L2.5,-0.5"/>
                </g>
                <g id="arrowRight" xlink:href="#dirArrow" transform="rotate(90) translate(36 -43)" onmousedown="handlePan(1,0)">
                  <use xlink:href="#rim" fill="#404040">
                        <set attributeName="fill" to="#808080" begin="arrowRight.mouseover" end="arrowRight.mouseout"/>
                  </use>
                  <path fill="none" stroke="white" stroke-width="1.5" d="M0,-3.0v7 M-2.5,-0.5L0,-3.0L2.5,-0.5"/>
                </g>
                <g id="arrowDown" xlink:href="#dirArrow" transform="rotate(180) translate(-30 -48)" onmousedown="handlePan(0,1)">
                  <use xlink:href="#rim" fill="#404040">
                        <set attributeName="fill" to="#808080" begin="arrowDown.mouseover" end="arrowDown.mouseout"/>
                  </use>
                  <path fill="none" stroke="white" stroke-width="1.5" d="M0,-3.0v7 M-2.5,-0.5L0,-3.0L2.5,-0.5"/>
                </g>
                <g id="arrowLeft" xlink:href="#dirArrow" transform="rotate(270) translate(-36 17)" onmousedown="handlePan(-1,0)">
                  <use xlink:href="#rim" fill="#404040">
                        <set attributeName="fill" to="#808080" begin="arrowLeft.mouseover" end="arrowLeft.mouseout"/>
                  </use>
                  <path fill="none" stroke="white" stroke-width="1.5" d="M0,-3.0v7 M-2.5,-0.5L0,-3.0L2.5,-0.5"/>
                </g>
        </g>
        <svg viewBox="0 0 15 15" width="100%" height="30px" preserveAspectRatio="xMaxYMin meet">
         <g id="arrow_out" transform="scale(0.3 0.3)">
          <a xlink:href="coap__io_8c_a4bc4949c9ad150282ec082c99510046b_icgraph_org.svg" target="_base">
           <rect id="button" ry="5" rx="5" y="6" x="6" height="38" width="38"
                fill="#f2f5e9" fill-opacity="0.5" stroke="#606060" stroke-width="1.0"/>
           <path id="arrow"
             d="M 11.500037,31.436501 C 11.940474,20.09759 22.043105,11.32322 32.158766,21.979434 L 37.068811,17.246167 C 37.068811,17.246167 37.088388,32 37.088388,32 L 22.160133,31.978069 C 22.160133,31.978069 26.997745,27.140456 26.997745,27.140456 C 18.528582,18.264221 13.291696,25.230495 11.500037,31.436501 z"
             style="fill:#404040;"/>
          </a>
         </g>
        </svg>
</svg>
