<?xml version="1.0" encoding="UTF-8" standalone="no"?>
<!DOCTYPE svg PUBLIC "-//W3C//DTD SVG 1.1//EN"
 "http://www.w3.org/Graphics/SVG/1.1/DTD/svg11.dtd">
<!-- Generated by graphviz version 2.43.0 (0)
 -->
<!-- Title: dtls_send_to_peer Pages: 1 -->
<!--zoomable 142 -->
<svg id="main" version="1.1" xmlns="http://www.w3.org/2000/svg" xmlns:xlink="http://www.w3.org/1999/xlink" xml:space="preserve" onload="init(evt)">
<style type="text/css"><![CDATA[
.edge:hover path { stroke: red; }
.edge:hover polygon { stroke: red; fill: red; }
]]></style>
<script type="text/javascript"><![CDATA[
var edges = document.getElementsByTagName('g');
if (edges && edges.length) {
  for (var i=0;i<edges.length;i++) {
    if (edges[i].id.substr(0,4)=='edge') {
      edges[i].setAttribute('class','edge');
    }
  }
}
]]></script>
        <defs>
                <circle id="rim" cx="0" cy="0" r="7"/>
                <circle id="rim2" cx="0" cy="0" r="3.5"/>
                <g id="zoomPlus">
                        <use xlink:href="#rim" fill="#404040">
                                <set attributeName="fill" to="#808080" begin="zoomplus.mouseover" end="zoomplus.mouseout"/>
                        </use>
                        <path d="M-4,0h8M0,-4v8" fill="none" stroke="white" stroke-width="1.5" pointer-events="none"/>
                </g>
                <g id="zoomMin">
                        <use xlink:href="#rim" fill="#404040">
                                <set attributeName="fill" to="#808080" begin="zoomminus.mouseover" end="zoomminus.mouseout"/>
                        </use>
                        <path d="M-4,0h8" fill="none" stroke="white" stroke-width="1.5" pointer-events="none"/>
                </g>
                <g id="dirArrow">
                        <path fill="none" stroke="white" stroke-width="1.5" d="M0,-3.0v7 M-2.5,-0.5L0,-3.0L2.5,-0.5"/>
                </g>
               <g id="resetDef">
                       <use xlink:href="#rim2" fill="#404040">
                               <set attributeName="fill" to="#808080" begin="reset.mouseover" end="reset.mouseout"/>
                       </use>
               </g>
        </defs>

<script type="text/javascript">
var viewWidth = 711;
var viewHeight = 142;
var sectionId = 'dynsection-14';
</script>
<script xlink:href="svgpan.js"/>
<svg id="graph" class="graph">
<g id="viewport">
<title>dtls_send_to_peer</title>
<polygon fill="white" stroke="transparent" points="-4,4 -4,-138 707,-138 707,4 -4,4"/>
<!-- Node203 -->
<g id="node1" class="node">
<title>Node203</title>
<polygon fill="#bfbfbf" stroke="black" points="0,-57.5 0,-76.5 96,-76.5 96,-57.5 0,-57.5"/>
<text text-anchor="middle" x="48" y="-64.5" font-family="Helvetica,sans-Serif" font-size="10.00">dtls_send_to_peer</text>
</g>
<!-- Node204 -->
<g id="node2" class="node">
<title>Node204</title>
<g id="a_node2"><a xlink:href="coap__io_8c.html#a9e9bc78d20872c6ea9cb8dddfcea45ad" target="_top" xlink:title="coap_network_send">
<polygon fill="white" stroke="black" points="132,-57.5 132,-76.5 236,-76.5 236,-57.5 132,-57.5"/>
<text text-anchor="middle" x="184" y="-64.5" font-family="Helvetica,sans-Serif" font-size="10.00">coap_network_send</text>
</a>
</g>
</g>
<!-- Node203&#45;&gt;Node204 -->
<g id="edge1" class="edge">
<title>Node203&#45;&gt;Node204</title>
<path fill="none" stroke="midnightblue" d="M96.24,-67C104.39,-67 112.96,-67 121.41,-67"/>
<polygon fill="midnightblue" stroke="midnightblue" points="121.63,-70.5 131.63,-67 121.63,-63.5 121.63,-70.5"/>
</g>
<!-- Node205 -->
<g id="node3" class="node">
<title>Node205</title>
<g id="a_node3"><a xlink:href="coap__debug_8c.html#af01fc56422e6401f529b053b61e65cad" target="_top" xlink:title="Check to see whether a packet should be sent or not. ">
<polygon fill="white" stroke="black" points="272,-114.5 272,-133.5 402,-133.5 402,-114.5 272,-114.5"/>
<text text-anchor="middle" x="337" y="-121.5" font-family="Helvetica,sans-Serif" font-size="10.00">coap_debug_send_packet</text>
</a>
</g>
</g>
<!-- Node204&#45;&gt;Node205 -->
<g id="edge2" class="edge">
<title>Node204&#45;&gt;Node205</title>
<path fill="none" stroke="midnightblue" d="M205.1,-76.62C222.55,-84.77 248.62,-96.46 272,-105 278.07,-107.22 284.54,-109.37 290.94,-111.38"/>
<polygon fill="midnightblue" stroke="midnightblue" points="290.28,-114.84 300.87,-114.42 292.33,-108.15 290.28,-114.84"/>
</g>
<!-- Node206 -->
<g id="node4" class="node">
<title>Node206</title>
<g id="a_node4"><a xlink:href="address_8h.html#a021998c955a6787c5cab7b1c385bef63" target="_top" xlink:title="Checks if given address object a denotes the wildcard address. ">
<polygon fill="white" stroke="black" points="284,-76.5 284,-95.5 390,-95.5 390,-76.5 284,-76.5"/>
<text text-anchor="middle" x="337" y="-83.5" font-family="Helvetica,sans-Serif" font-size="10.00">coap_address_isany</text>
</a>
</g>
</g>
<!-- Node204&#45;&gt;Node206 -->
<g id="edge3" class="edge">
<title>Node204&#45;&gt;Node206</title>
<path fill="none" stroke="midnightblue" d="M236.12,-73.43C248.27,-74.96 261.37,-76.61 273.95,-78.19"/>
<polygon fill="midnightblue" stroke="midnightblue" points="273.54,-81.67 283.9,-79.44 274.42,-74.72 273.54,-81.67"/>
</g>
<!-- Node210 -->
<g id="node8" class="node">
<title>Node210</title>
<g id="a_node8"><a xlink:href="address_8c.html#a5b47d6fe47a54a0798eddb9ea77005ea" target="_top" xlink:title="Checks if given address a denotes a multicast address. ">
<polygon fill="white" stroke="black" points="295.5,-38.5 295.5,-57.5 378.5,-57.5 378.5,-38.5 295.5,-38.5"/>
<text text-anchor="middle" x="337" y="-45.5" font-family="Helvetica,sans-Serif" font-size="10.00">coap_is_mcast</text>
</a>
</g>
</g>
<!-- Node204&#45;&gt;Node210 -->
<g id="edge7" class="edge">
<title>Node204&#45;&gt;Node210</title>
<path fill="none" stroke="midnightblue" d="M236.12,-60.57C251.98,-58.57 269.45,-56.37 285.29,-54.38"/>
<polygon fill="midnightblue" stroke="midnightblue" points="285.94,-57.83 295.42,-53.11 285.06,-50.88 285.94,-57.83"/>
</g>
<!-- Node211 -->
<g id="node9" class="node">
<title>Node211</title>
<g id="a_node9"><a xlink:href="coap__io_8c.html#ad3119e077bde4ee15a65271de0b70531" target="_top" xlink:title="coap_socket_strerror">
<polygon fill="white" stroke="black" points="283,-0.5 283,-19.5 391,-19.5 391,-0.5 283,-0.5"/>
<text text-anchor="middle" x="337" y="-7.5" font-family="Helvetica,sans-Serif" font-size="10.00">coap_socket_strerror</text>
</a>
</g>
</g>
<!-- Node204&#45;&gt;Node211 -->
<g id="edge8" class="edge">
<title>Node204&#45;&gt;Node211</title>
<path fill="none" stroke="midnightblue" d="M205.1,-57.38C222.55,-49.23 248.62,-37.54 272,-29 278.07,-26.78 284.54,-24.63 290.94,-22.62"/>
<polygon fill="midnightblue" stroke="midnightblue" points="292.33,-25.85 300.87,-19.58 290.28,-19.16 292.33,-25.85"/>
</g>
<!-- Node207 -->
<g id="node5" class="node">
<title>Node207</title>
<g id="a_node5"><a xlink:href="address_8h.html#a3aadd5b560a9e7424b572bb213aa4439" target="_top" xlink:title="_coap_address_isany_impl">
<polygon fill="white" stroke="black" points="438,-95.5 438,-114.5 572,-114.5 572,-95.5 438,-95.5"/>
<text text-anchor="middle" x="505" y="-102.5" font-family="Helvetica,sans-Serif" font-size="10.00">_coap_address_isany_impl</text>
</a>
</g>
</g>
<!-- Node206&#45;&gt;Node207 -->
<g id="edge4" class="edge">
<title>Node206&#45;&gt;Node207</title>
<path fill="none" stroke="midnightblue" d="M390.07,-91.96C402,-93.32 414.92,-94.8 427.64,-96.26"/>
<polygon fill="midnightblue" stroke="midnightblue" points="427.43,-99.76 437.77,-97.42 428.23,-92.8 427.43,-99.76"/>
</g>
<!-- Node209 -->
<g id="node7" class="node">
<title>Node209</title>
<g id="a_node7"><a xlink:href="address_8h.html#a5b47d6fe47a54a0798eddb9ea77005ea" target="_top" xlink:title="Checks if given address a denotes a multicast address. ">
<polygon fill="white" stroke="black" points="463.5,-57.5 463.5,-76.5 546.5,-76.5 546.5,-57.5 463.5,-57.5"/>
<text text-anchor="middle" x="505" y="-64.5" font-family="Helvetica,sans-Serif" font-size="10.00">coap_is_mcast</text>
</a>
</g>
</g>
<!-- Node206&#45;&gt;Node209 -->
<g id="edge6" class="edge">
<title>Node206&#45;&gt;Node209</title>
<path fill="none" stroke="midnightblue" d="M390.07,-80.04C410.23,-77.73 433.23,-75.1 453.26,-72.81"/>
<polygon fill="midnightblue" stroke="midnightblue" points="453.9,-76.26 463.44,-71.64 453.11,-69.3 453.9,-76.26"/>
</g>
<!-- Node208 -->
<g id="node6" class="node">
<title>Node208</title>
<g id="a_node6"><a xlink:href="address_8h.html#a59e19389468d5ced36778ed07546bce2" target="_top" xlink:title="Resets the given coap_address_t object addr to its default values. ">
<polygon fill="white" stroke="black" points="608,-95.5 608,-114.5 703,-114.5 703,-95.5 608,-95.5"/>
<text text-anchor="middle" x="655.5" y="-102.5" font-family="Helvetica,sans-Serif" font-size="10.00">coap_address_init</text>
</a>
</g>
</g>
<!-- Node207&#45;&gt;Node208 -->
<g id="edge5" class="edge">
<title>Node207&#45;&gt;Node208</title>
<path fill="none" stroke="midnightblue" d="M572.43,-105C580.79,-105 589.29,-105 597.49,-105"/>
<polygon fill="midnightblue" stroke="midnightblue" points="597.68,-108.5 607.68,-105 597.68,-101.5 597.68,-108.5"/>
</g>
</g>
</svg>
        <g id="navigator" transform="translate(0 0)" fill="#404254">
                <rect fill="#f2f5e9" fill-opacity="0.5" stroke="#606060" stroke-width=".5" x="0" y="0" width="60" height="60"/>
                <use id="zoomplus" xlink:href="#zoomPlus" x="17" y="9" onmousedown="handleZoom(evt,'in')"/>
                <use id="zoomminus" xlink:href="#zoomMin" x="42" y="9" onmousedown="handleZoom(evt,'out')"/>
                <use id="reset" xlink:href="#resetDef" x="30" y="36" onmousedown="handleReset()"/>
                <g id="arrowUp" xlink:href="#dirArrow" transform="translate(30 24)" onmousedown="handlePan(0,-1)">
                  <use xlink:href="#rim" fill="#404040">
                        <set attributeName="fill" to="#808080" begin="arrowUp.mouseover" end="arrowUp.mouseout"/>
                  </use>
                  <path fill="none" stroke="white" stroke-width="1.5" d="M0,-3.0v7 M-2.5,-0.5L0,-3.0L2.5,-0.5"/>
                </g>
                <g id="arrowRight" xlink:href="#dirArrow" transform="rotate(90) translate(36 -43)" onmousedown="handlePan(1,0)">
                  <use xlink:href="#rim" fill="#404040">
                        <set attributeName="fill" to="#808080" begin="arrowRight.mouseover" end="arrowRight.mouseout"/>
                  </use>
                  <path fill="none" stroke="white" stroke-width="1.5" d="M0,-3.0v7 M-2.5,-0.5L0,-3.0L2.5,-0.5"/>
                </g>
                <g id="arrowDown" xlink:href="#dirArrow" transform="rotate(180) translate(-30 -48)" onmousedown="handlePan(0,1)">
                  <use xlink:href="#rim" fill="#404040">
                        <set attributeName="fill" to="#808080" begin="arrowDown.mouseover" end="arrowDown.mouseout"/>
                  </use>
                  <path fill="none" stroke="white" stroke-width="1.5" d="M0,-3.0v7 M-2.5,-0.5L0,-3.0L2.5,-0.5"/>
                </g>
                <g id="arrowLeft" xlink:href="#dirArrow" transform="rotate(270) translate(-36 17)" onmousedown="handlePan(-1,0)">
                  <use xlink:href="#rim" fill="#404040">
                        <set attributeName="fill" to="#808080" begin="arrowLeft.mouseover" end="arrowLeft.mouseout"/>
                  </use>
                  <path fill="none" stroke="white" stroke-width="1.5" d="M0,-3.0v7 M-2.5,-0.5L0,-3.0L2.5,-0.5"/>
                </g>
        </g>
        <svg viewBox="0 0 15 15" width="100%" height="30px" preserveAspectRatio="xMaxYMin meet">
         <g id="arrow_out" transform="scale(0.3 0.3)">
          <a xlink:href="coap__dtls__gnutls_8c_aa05cb2c6f902d70c2c0797fa604dd2d4_cgraph_org.svg" target="_base">
           <rect id="button" ry="5" rx="5" y="6" x="6" height="38" width="38"
                fill="#f2f5e9" fill-opacity="0.5" stroke="#606060" stroke-width="1.0"/>
           <path id="arrow"
             d="M 11.500037,31.436501 C 11.940474,20.09759 22.043105,11.32322 32.158766,21.979434 L 37.068811,17.246167 C 37.068811,17.246167 37.088388,32 37.088388,32 L 22.160133,31.978069 C 22.160133,31.978069 26.997745,27.140456 26.997745,27.140456 C 18.528582,18.264221 13.291696,25.230495 11.500037,31.436501 z"
             style="fill:#404040;"/>
          </a>
         </g>
        </svg>
</svg>
