<?xml version="1.0" encoding="UTF-8" standalone="no"?>
<!DOCTYPE svg PUBLIC "-//W3C//DTD SVG 1.1//EN"
 "http://www.w3.org/Graphics/SVG/1.1/DTD/svg11.dtd">
<!-- Generated by graphviz version 2.43.0 (0)
 -->
<!-- Title: coap_socket_format_errno Pages: 1 -->
<svg width="285pt" height="66pt"
 viewBox="0.00 0.00 285.00 66.00" xmlns="http://www.w3.org/2000/svg" xmlns:xlink="http://www.w3.org/1999/xlink">
<g id="graph0" class="graph" transform="scale(1 1) rotate(0) translate(4 62)">
<title>coap_socket_format_errno</title>
<polygon fill="white" stroke="transparent" points="-4,4 -4,-62 281,-62 281,4 -4,4"/>
<!-- Node260 -->
<g id="node1" class="node">
<title>Node260</title>
<polygon fill="#bfbfbf" stroke="black" points="0,-14 0,-44 105,-44 105,-14 0,-14"/>
<text text-anchor="start" x="8" y="-32" font-family="Helvetica,sans-Serif" font-size="10.00">coap_socket_format</text>
<text text-anchor="middle" x="52.5" y="-21" font-family="Helvetica,sans-Serif" font-size="10.00">_errno</text>
</g>
<!-- Node261 -->
<g id="node2" class="node">
<title>Node261</title>
<g id="a_node2"><a xlink:href="coap__io__contiki_8c.html#ae591a90d6202a1b7f82b1aa688614520" target="_top" xlink:title="coap_socket_connect_tcp2">
<polygon fill="white" stroke="black" points="141,-38.5 141,-57.5 277,-57.5 277,-38.5 141,-38.5"/>
<text text-anchor="middle" x="209" y="-45.5" font-family="Helvetica,sans-Serif" font-size="10.00">coap_socket_connect_tcp2</text>
</a>
</g>
</g>
<!-- Node260&#45;&gt;Node261 -->
<g id="edge1" class="edge">
<title>Node260&#45;&gt;Node261</title>
<path fill="none" stroke="midnightblue" d="M115.44,-36.62C123.81,-37.65 132.44,-38.71 140.9,-39.75"/>
<polygon fill="midnightblue" stroke="midnightblue" points="115.73,-33.13 105.38,-35.38 114.87,-40.07 115.73,-33.13"/>
</g>
<!-- Node262 -->
<g id="node3" class="node">
<title>Node262</title>
<g id="a_node3"><a xlink:href="coap__io__contiki_8c.html#a75a7c93e10ca7858449ba304aad4ea37" target="_top" xlink:title="coap_run_once">
<polygon fill="white" stroke="black" points="167.5,-0.5 167.5,-19.5 250.5,-19.5 250.5,-0.5 167.5,-0.5"/>
<text text-anchor="middle" x="209" y="-7.5" font-family="Helvetica,sans-Serif" font-size="10.00">coap_run_once</text>
</a>
</g>
</g>
<!-- Node260&#45;&gt;Node262 -->
<g id="edge2" class="edge">
<title>Node260&#45;&gt;Node262</title>
<path fill="none" stroke="midnightblue" d="M115.48,-21.38C132.9,-19.24 151.41,-16.96 167.25,-15.01"/>
<polygon fill="midnightblue" stroke="midnightblue" points="114.87,-17.93 105.38,-22.62 115.73,-24.87 114.87,-17.93"/>
</g>
</g>
</svg>
