<?xml version="1.0" encoding="UTF-8" standalone="no"?>
<!DOCTYPE svg PUBLIC "-//W3C//DTD SVG 1.1//EN"
 "http://www.w3.org/Graphics/SVG/1.1/DTD/svg11.dtd">
<!-- Generated by graphviz version 2.43.0 (0)
 -->
<!-- Title: coap_show_pdu Pages: 1 -->
<svg width="2509pt" height="588pt"
 viewBox="0.00 0.00 2509.00 588.00" xmlns="http://www.w3.org/2000/svg" xmlns:xlink="http://www.w3.org/1999/xlink">
<g id="graph0" class="graph" transform="scale(1 1) rotate(0) translate(4 584)">
<title>coap_show_pdu</title>
<polygon fill="white" stroke="transparent" points="-4,4 -4,-584 2505,-584 2505,4 -4,4"/>
<!-- Node267 -->
<g id="node1" class="node">
<title>Node267</title>
<polygon fill="#bfbfbf" stroke="black" points="0,-408.5 0,-427.5 87,-427.5 87,-408.5 0,-408.5"/>
<text text-anchor="middle" x="43.5" y="-415.5" font-family="Helvetica,sans-Serif" font-size="10.00">coap_show_pdu</text>
</g>
<!-- Node268 -->
<g id="node2" class="node">
<title>Node268</title>
<g id="a_node2"><a xlink:href="coap__session_8h.html#aaf20c9b0b2ad3168c15e535a67ea3ce5" target="_top" xlink:title="Send a pdu according to the session&#39;s protocol. ">
<polygon fill="white" stroke="black" points="123,-408.5 123,-427.5 247,-427.5 247,-408.5 123,-408.5"/>
<text text-anchor="middle" x="185" y="-415.5" font-family="Helvetica,sans-Serif" font-size="10.00">coap_session_send_pdu</text>
</a>
</g>
</g>
<!-- Node267&#45;&gt;Node268 -->
<g id="edge1" class="edge">
<title>Node267&#45;&gt;Node268</title>
<path fill="none" stroke="midnightblue" d="M97.16,-418C105.56,-418 114.32,-418 122.91,-418"/>
<polygon fill="midnightblue" stroke="midnightblue" points="97.11,-414.5 87.11,-418 97.11,-421.5 97.11,-414.5"/>
</g>
<!-- Node285 -->
<g id="node19" class="node">
<title>Node285</title>
<g id="a_node19"><a xlink:href="net_8c.html#a0c600aed61c8a8402d31ef795df3b0b6" target="_top" xlink:title="coap_send_pdu">
<polygon fill="white" stroke="black" points="461.5,-332.5 461.5,-351.5 546.5,-351.5 546.5,-332.5 461.5,-332.5"/>
<text text-anchor="middle" x="504" y="-339.5" font-family="Helvetica,sans-Serif" font-size="10.00">coap_send_pdu</text>
</a>
</g>
</g>
<!-- Node267&#45;&gt;Node285 -->
<g id="edge69" class="edge">
<title>Node267&#45;&gt;Node285</title>
<path fill="none" stroke="midnightblue" d="M93.58,-406.09C103.33,-403.73 113.49,-401.28 123,-399 194.07,-381.96 210.84,-372.62 283,-361 344.69,-351.07 417.01,-346.08 461.42,-343.77"/>
<polygon fill="midnightblue" stroke="midnightblue" points="92.52,-402.74 83.62,-408.5 94.17,-409.55 92.52,-402.74"/>
</g>
<!-- Node290 -->
<g id="node24" class="node">
<title>Node290</title>
<g id="a_node24"><a xlink:href="net_8h.html#a7bb944fc52f772655356d95724317401" target="_top" xlink:title="Dispatches the PDUs from the receive queue in given context. ">
<polygon fill="white" stroke="black" points="1130,-332.5 1130,-351.5 1210,-351.5 1210,-332.5 1130,-332.5"/>
<text text-anchor="middle" x="1170" y="-339.5" font-family="Helvetica,sans-Serif" font-size="10.00">coap_dispatch</text>
</a>
</g>
</g>
<!-- Node267&#45;&gt;Node290 -->
<g id="edge70" class="edge">
<title>Node267&#45;&gt;Node290</title>
<path fill="none" stroke="midnightblue" d="M76.05,-431.47C130.15,-453.3 244.53,-494 345.5,-494 345.5,-494 345.5,-494 850.5,-494 952.8,-494 981.5,-477.54 1071,-428 1108.83,-407.06 1144.76,-369.49 1160.57,-351.77"/>
<polygon fill="midnightblue" stroke="midnightblue" points="77.25,-428.18 66.67,-427.63 74.6,-434.65 77.25,-428.18"/>
</g>
<!-- Node269 -->
<g id="node3" class="node">
<title>Node269</title>
<g id="a_node3"><a xlink:href="coap__session_8h.html#a2f455ec1572982a5ae404beac0cfbd53" target="_top" xlink:title="Notify session transport has just connected and CSM exchange can now start. ">
<polygon fill="white" stroke="black" points="283,-408.5 283,-427.5 410,-427.5 410,-408.5 283,-408.5"/>
<text text-anchor="middle" x="346.5" y="-415.5" font-family="Helvetica,sans-Serif" font-size="10.00">coap_session_send_csm</text>
</a>
</g>
</g>
<!-- Node268&#45;&gt;Node269 -->
<g id="edge2" class="edge">
<title>Node268&#45;&gt;Node269</title>
<path fill="none" stroke="midnightblue" d="M257.46,-418C265.93,-418 274.53,-418 282.87,-418"/>
<polygon fill="midnightblue" stroke="midnightblue" points="257.21,-414.5 247.21,-418 257.21,-421.5 257.21,-414.5"/>
</g>
<!-- Node268&#45;&gt;Node285 -->
<g id="edge68" class="edge">
<title>Node268&#45;&gt;Node285</title>
<path fill="none" stroke="midnightblue" d="M235.9,-406.04C298.72,-390.98 405.39,-365.4 463.09,-351.57"/>
<polygon fill="midnightblue" stroke="midnightblue" points="234.74,-402.72 225.83,-408.45 236.37,-409.52 234.74,-402.72"/>
</g>
<!-- Node303 -->
<g id="node37" class="node">
<title>Node303</title>
<g id="a_node37"><a xlink:href="coap__session_8h.html#aa8b3a2da8480911b0216dad076038cb6" target="_top" xlink:title="Notify session that it has just connected or reconnected. ">
<polygon fill="white" stroke="black" points="786,-427.5 786,-446.5 913,-446.5 913,-427.5 786,-427.5"/>
<text text-anchor="middle" x="849.5" y="-434.5" font-family="Helvetica,sans-Serif" font-size="10.00">coap_session_connected</text>
</a>
</g>
</g>
<!-- Node268&#45;&gt;Node303 -->
<g id="edge64" class="edge">
<title>Node268&#45;&gt;Node303</title>
<path fill="none" stroke="midnightblue" d="M235.57,-429.63C250.71,-432.66 267.46,-435.49 283,-437 465,-454.66 681.5,-446.62 785.97,-440.93"/>
<polygon fill="midnightblue" stroke="midnightblue" points="235.89,-426.12 225.39,-427.51 234.47,-432.97 235.89,-426.12"/>
</g>
<!-- Node270 -->
<g id="node4" class="node">
<title>Node270</title>
<g id="a_node4"><a xlink:href="coap__session_8c.html#acec64026a2b3309e97075951dc52c2a1" target="_top" xlink:title="coap_session_connect">
<polygon fill="white" stroke="black" points="446,-370.5 446,-389.5 562,-389.5 562,-370.5 446,-370.5"/>
<text text-anchor="middle" x="504" y="-377.5" font-family="Helvetica,sans-Serif" font-size="10.00">coap_session_connect</text>
</a>
</g>
</g>
<!-- Node269&#45;&gt;Node270 -->
<g id="edge3" class="edge">
<title>Node269&#45;&gt;Node270</title>
<path fill="none" stroke="midnightblue" d="M396.47,-406.03C418.27,-400.71 443.57,-394.52 464.04,-389.52"/>
<polygon fill="midnightblue" stroke="midnightblue" points="395.62,-402.64 386.74,-408.41 397.28,-409.44 395.62,-402.64"/>
</g>
<!-- Node274 -->
<g id="node8" class="node">
<title>Node274</title>
<g id="a_node8"><a xlink:href="coap__session_8c.html#ac79f1143af9580a441d31796cf81f108" target="_top" xlink:title="coap_session_accept">
<polygon fill="white" stroke="black" points="448.5,-541.5 448.5,-560.5 559.5,-560.5 559.5,-541.5 448.5,-541.5"/>
<text text-anchor="middle" x="504" y="-548.5" font-family="Helvetica,sans-Serif" font-size="10.00">coap_session_accept</text>
</a>
</g>
</g>
<!-- Node269&#45;&gt;Node274 -->
<g id="edge7" class="edge">
<title>Node269&#45;&gt;Node274</title>
<path fill="none" stroke="midnightblue" d="M366.6,-434.34C399.29,-462.29 464.97,-518.48 491.5,-541.16"/>
<polygon fill="midnightblue" stroke="midnightblue" points="368.56,-431.41 358.68,-427.57 364.01,-436.72 368.56,-431.41"/>
</g>
<!-- Node269&#45;&gt;Node285 -->
<g id="edge25" class="edge">
<title>Node269&#45;&gt;Node285</title>
<path fill="none" stroke="midnightblue" d="M388.9,-404.64C396.16,-401.59 403.48,-398.04 410,-394 428.46,-382.58 427.29,-372.01 446,-361 452.38,-357.24 459.61,-354.11 466.72,-351.54"/>
<polygon fill="midnightblue" stroke="midnightblue" points="387.14,-401.57 379.11,-408.48 389.69,-408.08 387.14,-401.57"/>
</g>
<!-- Node302 -->
<g id="node36" class="node">
<title>Node302</title>
<g id="a_node36"><a xlink:href="net_8c.html#a9e7c7fc083799c942c9c44ebc190c833" target="_top" xlink:title="coap_connect_session">
<polygon fill="white" stroke="black" points="1593,-408.5 1593,-427.5 1709,-427.5 1709,-408.5 1593,-408.5"/>
<text text-anchor="middle" x="1651" y="-415.5" font-family="Helvetica,sans-Serif" font-size="10.00">coap_connect_session</text>
</a>
</g>
</g>
<!-- Node269&#45;&gt;Node302 -->
<g id="edge61" class="edge">
<title>Node269&#45;&gt;Node302</title>
<path fill="none" stroke="midnightblue" d="M381.08,-431.14C460.83,-461.12 668.43,-532 848.5,-532 848.5,-532 848.5,-532 1336,-532 1458.08,-532 1591.7,-454.92 1635.34,-427.52"/>
<polygon fill="midnightblue" stroke="midnightblue" points="382.15,-427.8 371.56,-427.52 379.67,-434.34 382.15,-427.8"/>
</g>
<!-- Node271 -->
<g id="node5" class="node">
<title>Node271</title>
<g id="a_node5"><a xlink:href="coap__session_8h.html#ad495fcd405fa86859fa36d45f89be910" target="_top" xlink:title="Creates a new client session to the designated server. ">
<polygon fill="white" stroke="black" points="608.5,-332.5 608.5,-351.5 736.5,-351.5 736.5,-332.5 608.5,-332.5"/>
<text text-anchor="middle" x="672.5" y="-339.5" font-family="Helvetica,sans-Serif" font-size="10.00">coap_new_client_session</text>
</a>
</g>
</g>
<!-- Node270&#45;&gt;Node271 -->
<g id="edge4" class="edge">
<title>Node270&#45;&gt;Node271</title>
<path fill="none" stroke="midnightblue" d="M556.81,-368.18C580.28,-362.82 607.67,-356.57 629.79,-351.52"/>
<polygon fill="midnightblue" stroke="midnightblue" points="555.99,-364.77 547.01,-370.41 557.54,-371.6 555.99,-364.77"/>
</g>
<!-- Node272 -->
<g id="node6" class="node">
<title>Node272</title>
<g id="a_node6"><a xlink:href="coap__session_8h.html#a40790c70df0b38fe89f3fb2ad255d662" target="_top" xlink:title="Creates a new client session to the designated server with PSK credentials. ">
<polygon fill="white" stroke="black" points="598,-408.5 598,-427.5 747,-427.5 747,-408.5 598,-408.5"/>
<text text-anchor="middle" x="672.5" y="-415.5" font-family="Helvetica,sans-Serif" font-size="10.00">coap_new_client_session_psk</text>
</a>
</g>
</g>
<!-- Node270&#45;&gt;Node272 -->
<g id="edge5" class="edge">
<title>Node270&#45;&gt;Node272</title>
<path fill="none" stroke="midnightblue" d="M556.81,-391.82C580.28,-397.18 607.67,-403.43 629.79,-408.48"/>
<polygon fill="midnightblue" stroke="midnightblue" points="557.54,-388.4 547.01,-389.59 555.99,-395.23 557.54,-388.4"/>
</g>
<!-- Node273 -->
<g id="node7" class="node">
<title>Node273</title>
<g id="a_node7"><a xlink:href="coap__session_8h.html#a90f2df37ae4204189027c01604ddfe50" target="_top" xlink:title="Creates a new client session to the designated server with PKI credentials. ">
<polygon fill="white" stroke="black" points="599.5,-370.5 599.5,-389.5 745.5,-389.5 745.5,-370.5 599.5,-370.5"/>
<text text-anchor="middle" x="672.5" y="-377.5" font-family="Helvetica,sans-Serif" font-size="10.00">coap_new_client_session_pki</text>
</a>
</g>
</g>
<!-- Node270&#45;&gt;Node273 -->
<g id="edge6" class="edge">
<title>Node270&#45;&gt;Node273</title>
<path fill="none" stroke="midnightblue" d="M572.54,-380C581.39,-380 590.47,-380 599.39,-380"/>
<polygon fill="midnightblue" stroke="midnightblue" points="572.3,-376.5 562.3,-380 572.3,-383.5 572.3,-376.5"/>
</g>
<!-- Node275 -->
<g id="node9" class="node">
<title>Node275</title>
<g id="a_node9"><a xlink:href="coap__session_8h.html#aadffd66ead18cd2eba0b19efe92a3d88" target="_top" xlink:title="Creates a new server session for the specified endpoint. ">
<polygon fill="white" stroke="black" points="1269,-560.5 1269,-579.5 1401,-579.5 1401,-560.5 1269,-560.5"/>
<text text-anchor="middle" x="1335" y="-567.5" font-family="Helvetica,sans-Serif" font-size="10.00">coap_new_server_session</text>
</a>
</g>
</g>
<!-- Node274&#45;&gt;Node275 -->
<g id="edge8" class="edge">
<title>Node274&#45;&gt;Node275</title>
<path fill="none" stroke="midnightblue" d="M569.96,-556.74C638.99,-562.33 751.35,-570 848.5,-570 848.5,-570 848.5,-570 1012.5,-570 1101.25,-570 1203.77,-570 1268.73,-570"/>
<polygon fill="midnightblue" stroke="midnightblue" points="569.93,-553.22 559.68,-555.89 569.36,-560.2 569.93,-553.22"/>
</g>
<!-- Node276 -->
<g id="node10" class="node">
<title>Node276</title>
<g id="a_node10"><a xlink:href="net_8c.html#a7437c90770ffd13685e6a77799b4753b" target="_top" xlink:title="coap_accept_endpoint">
<polygon fill="white" stroke="black" points="1594,-465.5 1594,-484.5 1708,-484.5 1708,-465.5 1594,-465.5"/>
<text text-anchor="middle" x="1651" y="-472.5" font-family="Helvetica,sans-Serif" font-size="10.00">coap_accept_endpoint</text>
</a>
</g>
</g>
<!-- Node275&#45;&gt;Node276 -->
<g id="edge9" class="edge">
<title>Node275&#45;&gt;Node276</title>
<path fill="none" stroke="midnightblue" d="M1411.12,-571.78C1455.05,-570.42 1510.78,-564.47 1557,-546 1592.27,-531.91 1625.64,-500.52 1641.06,-484.62"/>
<polygon fill="midnightblue" stroke="midnightblue" points="1410.99,-568.28 1401.07,-572.02 1411.15,-575.28 1410.99,-568.28"/>
</g>
<!-- Node277 -->
<g id="node11" class="node">
<title>Node277</title>
<g id="a_node11"><a xlink:href="net_8h.html#a0748d791fd2af516dd93fbadb660d440" target="_top" xlink:title="For applications with their own message loop, reads all data from the network. ">
<polygon fill="white" stroke="black" points="1745,-332.5 1745,-351.5 1807,-351.5 1807,-332.5 1745,-332.5"/>
<text text-anchor="middle" x="1776" y="-339.5" font-family="Helvetica,sans-Serif" font-size="10.00">coap_read</text>
</a>
</g>
</g>
<!-- Node276&#45;&gt;Node277 -->
<g id="edge10" class="edge">
<title>Node276&#45;&gt;Node277</title>
<path fill="none" stroke="midnightblue" d="M1678.83,-460.04C1688.92,-453.69 1700.09,-445.74 1709,-437 1736.53,-410 1759.89,-370.06 1769.85,-351.78"/>
<polygon fill="midnightblue" stroke="midnightblue" points="1676.71,-457.23 1669.96,-465.4 1680.33,-463.22 1676.71,-457.23"/>
</g>
<!-- Node282 -->
<g id="node16" class="node">
<title>Node282</title>
<g id="a_node16"><a xlink:href="net_8h.html#a7b591afa095a093b604b63313275a02a" target="_top" xlink:title="Process all the epoll events. ">
<polygon fill="white" stroke="black" points="2281,-303.5 2281,-322.5 2382,-322.5 2382,-303.5 2281,-303.5"/>
<text text-anchor="middle" x="2331.5" y="-310.5" font-family="Helvetica,sans-Serif" font-size="10.00">coap_io_do_events</text>
</a>
</g>
</g>
<!-- Node276&#45;&gt;Node282 -->
<g id="edge24" class="edge">
<title>Node276&#45;&gt;Node282</title>
<path fill="none" stroke="midnightblue" d="M1718.37,-470.86C1830.36,-462.13 2062.47,-436.45 2245,-366 2273.19,-355.12 2302.32,-334.74 2318.25,-322.67"/>
<polygon fill="midnightblue" stroke="midnightblue" points="1717.95,-467.38 1708.24,-471.63 1718.47,-474.36 1717.95,-467.38"/>
</g>
<!-- Node278 -->
<g id="node12" class="node">
<title>Node278</title>
<g id="a_node12"><a xlink:href="coap__io_8c.html#a75a7c93e10ca7858449ba304aad4ea37" target="_top" xlink:title="coap_run_once">
<polygon fill="white" stroke="black" points="2418,-220.5 2418,-239.5 2501,-239.5 2501,-220.5 2418,-220.5"/>
<text text-anchor="middle" x="2459.5" y="-227.5" font-family="Helvetica,sans-Serif" font-size="10.00">coap_run_once</text>
</a>
</g>
</g>
<!-- Node277&#45;&gt;Node278 -->
<g id="edge11" class="edge">
<title>Node277&#45;&gt;Node278</title>
<path fill="none" stroke="midnightblue" d="M1817.04,-352.73C1918.36,-377.56 2190.45,-429.76 2382,-332 2421.43,-311.87 2445.94,-260.94 2454.78,-239.62"/>
<polygon fill="midnightblue" stroke="midnightblue" points="1817.77,-349.3 1807.22,-350.27 1816.07,-356.09 1817.77,-349.3"/>
</g>
<!-- Node279 -->
<g id="node13" class="node">
<title>Node279</title>
<g id="a_node13"><a xlink:href="net_8h.html#a9900c032b74bd57f67d489484a2b3207" target="_top" xlink:title="Handles retransmissions of confirmable messages. ">
<polygon fill="white" stroke="black" points="1849,-161.5 1849,-180.5 1935,-180.5 1935,-161.5 1849,-161.5"/>
<text text-anchor="middle" x="1892" y="-168.5" font-family="Helvetica,sans-Serif" font-size="10.00">coap_retransmit</text>
</a>
</g>
</g>
<!-- Node277&#45;&gt;Node279 -->
<g id="edge12" class="edge">
<title>Node277&#45;&gt;Node279</title>
<path fill="none" stroke="midnightblue" d="M1789.18,-323.73C1813.27,-287.59 1866.28,-208.07 1884.62,-180.58"/>
<polygon fill="midnightblue" stroke="midnightblue" points="1786.09,-322.05 1783.46,-332.32 1791.91,-325.94 1786.09,-322.05"/>
</g>
<!-- Node283 -->
<g id="node17" class="node">
<title>Node283</title>
<g id="a_node17"><a xlink:href="net_8h.html#a5854b1394bfddd574e48af116e3aaaf9" target="_top" xlink:title="Sends an RST message with code 0 for the specified request to dst. ">
<polygon fill="white" stroke="black" points="2148.5,-199.5 2148.5,-218.5 2228.5,-218.5 2228.5,-199.5 2148.5,-199.5"/>
<text text-anchor="middle" x="2188.5" y="-206.5" font-family="Helvetica,sans-Serif" font-size="10.00">coap_send_rst</text>
</a>
</g>
</g>
<!-- Node277&#45;&gt;Node283 -->
<g id="edge23" class="edge">
<title>Node277&#45;&gt;Node283</title>
<path fill="none" stroke="midnightblue" d="M1816.96,-330.07C1877.55,-311.84 1996.17,-275.63 2096,-242 2118.4,-234.45 2143.67,-225.29 2161.97,-218.54"/>
<polygon fill="midnightblue" stroke="midnightblue" points="1815.61,-326.82 1807.04,-333.05 1817.63,-333.52 1815.61,-326.82"/>
</g>
<!-- Node280 -->
<g id="node14" class="node">
<title>Node280</title>
<g id="a_node14"><a xlink:href="net_8h.html#aaac86ac50793f309678e4951ecf8863f" target="_top" xlink:title="For applications with their own message loop, send all pending retransmits and return the list of soc...">
<polygon fill="white" stroke="black" points="2004.5,-48.5 2004.5,-67.5 2068.5,-67.5 2068.5,-48.5 2004.5,-48.5"/>
<text text-anchor="middle" x="2036.5" y="-55.5" font-family="Helvetica,sans-Serif" font-size="10.00">coap_write</text>
</a>
</g>
</g>
<!-- Node279&#45;&gt;Node280 -->
<g id="edge13" class="edge">
<title>Node279&#45;&gt;Node280</title>
<path fill="none" stroke="midnightblue" d="M1913.21,-155.01C1921.78,-148.23 1931.88,-140.23 1941,-133 1970.55,-109.58 2005.26,-82.02 2023.27,-67.71"/>
<polygon fill="midnightblue" stroke="midnightblue" points="1910.9,-152.37 1905.24,-161.32 1915.25,-157.86 1910.9,-152.37"/>
</g>
<!-- Node279&#45;&gt;Node283 -->
<g id="edge22" class="edge">
<title>Node279&#45;&gt;Node283</title>
<path fill="none" stroke="midnightblue" d="M1945.27,-177.75C2003.39,-185.24 2095.94,-197.19 2148.21,-203.93"/>
<polygon fill="midnightblue" stroke="midnightblue" points="1945.56,-174.25 1935.19,-176.44 1944.66,-181.2 1945.56,-174.25"/>
</g>
<!-- Node284 -->
<g id="node18" class="node">
<title>Node284</title>
<g id="a_node18"><a xlink:href="net_8h.html#a09ff95ae16a4b7f6abf4a0822d430658" target="_top" xlink:title="Function interface for joining a multicast group for listening. ">
<polygon fill="white" stroke="black" points="1977,-124.5 1977,-143.5 2096,-143.5 2096,-124.5 1977,-124.5"/>
<text text-anchor="middle" x="2036.5" y="-131.5" font-family="Helvetica,sans-Serif" font-size="10.00">coap_join_mcast_group</text>
</a>
</g>
</g>
<!-- Node279&#45;&gt;Node284 -->
<g id="edge20" class="edge">
<title>Node279&#45;&gt;Node284</title>
<path fill="none" stroke="midnightblue" d="M1939.42,-158.95C1958.54,-153.98 1980.4,-148.31 1998.43,-143.62"/>
<polygon fill="midnightblue" stroke="midnightblue" points="1938.5,-155.57 1929.7,-161.47 1940.26,-162.35 1938.5,-155.57"/>
</g>
<!-- Node280&#45;&gt;Node278 -->
<g id="edge18" class="edge">
<title>Node280&#45;&gt;Node278</title>
<path fill="none" stroke="midnightblue" d="M2076.91,-70.84C2141.69,-92.39 2274.24,-138.39 2382,-188 2403.61,-197.95 2427.48,-211.49 2442.72,-220.48"/>
<polygon fill="midnightblue" stroke="midnightblue" points="2077.7,-67.41 2067.11,-67.59 2075.5,-74.06 2077.7,-67.41"/>
</g>
<!-- Node281 -->
<g id="node15" class="node">
<title>Node281</title>
<g id="a_node15"><a xlink:href="net_8h.html#a3be92476a2c2c12d68c0cd07795c7e34" target="_top" xlink:title="Any now timed out delayed packet is transmitted, along with any packets associated with requested obs...">
<polygon fill="white" stroke="black" points="2132,-161.5 2132,-180.5 2245,-180.5 2245,-161.5 2132,-161.5"/>
<text text-anchor="middle" x="2188.5" y="-168.5" font-family="Helvetica,sans-Serif" font-size="10.00">coap_io_prepare_epoll</text>
</a>
</g>
</g>
<!-- Node280&#45;&gt;Node281 -->
<g id="edge14" class="edge">
<title>Node280&#45;&gt;Node281</title>
<path fill="none" stroke="midnightblue" d="M2077.91,-70.9C2084.33,-73.96 2090.62,-77.63 2096,-82 2118.11,-99.94 2111.65,-115.08 2132,-135 2142.92,-145.69 2157.47,-154.99 2168.93,-161.45"/>
<polygon fill="midnightblue" stroke="midnightblue" points="2079.07,-67.59 2068.5,-66.86 2076.31,-74.02 2079.07,-67.59"/>
</g>
<!-- Node280&#45;&gt;Node283 -->
<g id="edge19" class="edge">
<title>Node280&#45;&gt;Node283</title>
<path fill="none" stroke="midnightblue" d="M2077.96,-69.19C2084.64,-72.46 2091,-76.65 2096,-82 2130.55,-118.97 2096.37,-154.08 2132,-190 2136.59,-194.63 2142.35,-198.13 2148.42,-200.78"/>
<polygon fill="midnightblue" stroke="midnightblue" points="2079.33,-65.97 2068.75,-65.27 2076.58,-72.41 2079.33,-65.97"/>
</g>
<!-- Node281&#45;&gt;Node278 -->
<g id="edge15" class="edge">
<title>Node281&#45;&gt;Node278</title>
<path fill="none" stroke="midnightblue" d="M2242.95,-182.72C2294.37,-194 2371,-210.81 2417.69,-221.05"/>
<polygon fill="midnightblue" stroke="midnightblue" points="2243.54,-179.27 2233.02,-180.54 2242.04,-186.11 2243.54,-179.27"/>
</g>
<!-- Node281&#45;&gt;Node282 -->
<g id="edge16" class="edge">
<title>Node281&#45;&gt;Node282</title>
<path fill="none" stroke="midnightblue" d="M2237.05,-184.9C2239.84,-186.43 2242.52,-188.13 2245,-190 2287.14,-221.81 2316.21,-280.51 2326.44,-303.46"/>
<polygon fill="midnightblue" stroke="midnightblue" points="2238.37,-181.65 2227.84,-180.52 2235.37,-187.97 2238.37,-181.65"/>
</g>
<!-- Node282&#45;&gt;Node278 -->
<g id="edge17" class="edge">
<title>Node282&#45;&gt;Node278</title>
<path fill="none" stroke="midnightblue" d="M2355.35,-297.95C2381.07,-281.01 2422.07,-254 2443.83,-239.67"/>
<polygon fill="midnightblue" stroke="midnightblue" points="2353.38,-295.05 2346.95,-303.48 2357.23,-300.9 2353.38,-295.05"/>
</g>
<!-- Node284&#45;&gt;Node284 -->
<g id="edge21" class="edge">
<title>Node284&#45;&gt;Node284</title>
<path fill="none" stroke="midnightblue" d="M2009.62,-152.65C2010.74,-157.94 2019.7,-162 2036.5,-162 2062.09,-162 2069.49,-152.57 2058.69,-143.76"/>
<polygon fill="midnightblue" stroke="midnightblue" points="2012.74,-154.24 2014.31,-143.76 2006.55,-150.97 2012.74,-154.24"/>
</g>
<!-- Node285&#45;&gt;Node279 -->
<g id="edge60" class="edge">
<title>Node285&#45;&gt;Node279</title>
<path fill="none" stroke="midnightblue" d="M512.8,-322.87C543.58,-250.85 664,0 848.5,0 848.5,0 848.5,0 1498,0 1660.95,0 1832.71,-125.14 1878.96,-161.32"/>
<polygon fill="midnightblue" stroke="midnightblue" points="509.4,-321.92 508.77,-332.5 515.86,-324.62 509.4,-321.92"/>
</g>
<!-- Node286 -->
<g id="node20" class="node">
<title>Node286</title>
<g id="a_node20"><a xlink:href="net_8h.html#ab0b0b5db03427c4313c01ec2b12cf8ed" target="_top" xlink:title="Sends a CoAP message to given peer. ">
<polygon fill="white" stroke="black" points="640.5,-199.5 640.5,-218.5 704.5,-218.5 704.5,-199.5 640.5,-199.5"/>
<text text-anchor="middle" x="672.5" y="-206.5" font-family="Helvetica,sans-Serif" font-size="10.00">coap_send</text>
</a>
</g>
</g>
<!-- Node285&#45;&gt;Node286 -->
<g id="edge26" class="edge">
<title>Node285&#45;&gt;Node286</title>
<path fill="none" stroke="midnightblue" d="M525.01,-326.02C559.85,-298.18 630.66,-241.62 659.19,-218.84"/>
<polygon fill="midnightblue" stroke="midnightblue" points="522.6,-323.46 516.97,-332.43 526.97,-328.93 522.6,-323.46"/>
</g>
<!-- Node286&#45;&gt;Node283 -->
<g id="edge58" class="edge">
<title>Node286&#45;&gt;Node283</title>
<path fill="none" stroke="midnightblue" d="M686.16,-190.83C704.41,-166.25 740.62,-123.14 783,-103 874.96,-59.3 908.68,-76 1010.5,-76 1010.5,-76 1010.5,-76 1777,-76 1848.42,-76 2038.12,-73.17 2096,-115 2125.97,-136.66 2104.36,-165.44 2132,-190 2136.72,-194.19 2142.41,-197.47 2148.32,-200.03"/>
<polygon fill="midnightblue" stroke="midnightblue" points="683.09,-189.11 680.07,-199.26 688.76,-193.21 683.09,-189.11"/>
</g>
<!-- Node287 -->
<g id="node21" class="node">
<title>Node287</title>
<g id="a_node21"><a xlink:href="coap__session_8h.html#ab3f9f60c0a4857c147fef5721025944c" target="_top" xlink:title="Send a ping message for the session. ">
<polygon fill="white" stroke="black" points="1107,-28.5 1107,-47.5 1233,-47.5 1233,-28.5 1107,-28.5"/>
<text text-anchor="middle" x="1170" y="-35.5" font-family="Helvetica,sans-Serif" font-size="10.00">coap_session_send_ping</text>
</a>
</g>
</g>
<!-- Node286&#45;&gt;Node287 -->
<g id="edge27" class="edge">
<title>Node286&#45;&gt;Node287</title>
<path fill="none" stroke="midnightblue" d="M681.3,-189.73C695.78,-156.83 730.23,-90.58 783,-62 891.05,-3.49 1041.87,-16.37 1119.1,-28.47"/>
<polygon fill="midnightblue" stroke="midnightblue" points="677.99,-188.58 677.3,-199.16 684.43,-191.32 677.99,-188.58"/>
</g>
<!-- Node288 -->
<g id="node22" class="node">
<title>Node288</title>
<g id="a_node22"><a xlink:href="net_8h.html#aba278b109415057d15196fa46afee970" target="_top" xlink:title="Sends an ACK message with code 0 for the specified request to dst. ">
<polygon fill="white" stroke="black" points="807,-180.5 807,-199.5 892,-199.5 892,-180.5 807,-180.5"/>
<text text-anchor="middle" x="849.5" y="-187.5" font-family="Helvetica,sans-Serif" font-size="10.00">coap_send_ack</text>
</a>
</g>
</g>
<!-- Node286&#45;&gt;Node288 -->
<g id="edge29" class="edge">
<title>Node286&#45;&gt;Node288</title>
<path fill="none" stroke="midnightblue" d="M714.97,-204.5C742.74,-201.48 779.17,-197.53 806.95,-194.51"/>
<polygon fill="midnightblue" stroke="midnightblue" points="714.35,-201.04 704.79,-205.6 715.11,-208 714.35,-201.04"/>
</g>
<!-- Node286&#45;&gt;Node290 -->
<g id="edge57" class="edge">
<title>Node286&#45;&gt;Node290</title>
<path fill="none" stroke="midnightblue" d="M693.79,-224.76C714.98,-240.52 749.71,-264.46 783,-279 901.85,-330.9 1058.22,-340.43 1129.97,-341.92"/>
<polygon fill="midnightblue" stroke="midnightblue" points="695.67,-221.79 685.58,-218.55 691.45,-227.38 695.67,-221.79"/>
</g>
<!-- Node296 -->
<g id="node30" class="node">
<title>Node296</title>
<g id="a_node30"><a xlink:href="resource_8c.html#ae1a91e254baca4f43b7896f54a8d9944" target="_top" xlink:title="coap_notify_observers">
<polygon fill="white" stroke="black" points="1112.5,-104.5 1112.5,-123.5 1227.5,-123.5 1227.5,-104.5 1112.5,-104.5"/>
<text text-anchor="middle" x="1170" y="-111.5" font-family="Helvetica,sans-Serif" font-size="10.00">coap_notify_observers</text>
</a>
</g>
</g>
<!-- Node286&#45;&gt;Node296 -->
<g id="edge59" class="edge">
<title>Node286&#45;&gt;Node296</title>
<path fill="none" stroke="midnightblue" d="M690.74,-192.34C710.97,-173.99 746.42,-145.45 783,-133 894.79,-94.96 1035.32,-100.25 1112.23,-107.26"/>
<polygon fill="midnightblue" stroke="midnightblue" points="688.22,-189.9 683.28,-199.27 692.99,-195.03 688.22,-189.9"/>
</g>
<!-- Node298 -->
<g id="node32" class="node">
<title>Node298</title>
<g id="a_node32"><a xlink:href="net_8h.html#ab31cd76353f751ec4dc5c033152df575" target="_top" xlink:title="Sends an error response with code code for request request to dst. ">
<polygon fill="white" stroke="black" points="805,-142.5 805,-161.5 894,-161.5 894,-142.5 805,-142.5"/>
<text text-anchor="middle" x="849.5" y="-149.5" font-family="Helvetica,sans-Serif" font-size="10.00">coap_send_error</text>
</a>
</g>
</g>
<!-- Node286&#45;&gt;Node298 -->
<g id="edge47" class="edge">
<title>Node286&#45;&gt;Node298</title>
<path fill="none" stroke="midnightblue" d="M709.53,-195.97C730.81,-188.41 758.34,-178.85 783,-171 793.15,-167.77 804.26,-164.46 814.4,-161.53"/>
<polygon fill="midnightblue" stroke="midnightblue" points="708.16,-192.74 699.92,-199.4 710.52,-199.33 708.16,-192.74"/>
</g>
<!-- Node299 -->
<g id="node33" class="node">
<title>Node299</title>
<g id="a_node33"><a xlink:href="net_8h.html#a6aa830b46188549b51773f724eb8e752" target="_top" xlink:title="Helper funktion to create and send a message with type (usually ACK or RST). ">
<polygon fill="white" stroke="black" points="783,-218.5 783,-237.5 916,-237.5 916,-218.5 783,-218.5"/>
<text text-anchor="middle" x="849.5" y="-225.5" font-family="Helvetica,sans-Serif" font-size="10.00">coap_send_message_type</text>
</a>
</g>
</g>
<!-- Node286&#45;&gt;Node299 -->
<g id="edge49" class="edge">
<title>Node286&#45;&gt;Node299</title>
<path fill="none" stroke="midnightblue" d="M714.91,-213.5C735.13,-215.69 759.95,-218.39 782.69,-220.85"/>
<polygon fill="midnightblue" stroke="midnightblue" points="715.11,-210 704.79,-212.4 714.35,-216.96 715.11,-210"/>
</g>
<!-- Node300 -->
<g id="node34" class="node">
<title>Node300</title>
<g id="a_node34"><a xlink:href="net_8c.html#a1a280312c4bad55cf10243b9b9c3e966" target="_top" xlink:title="handle_request">
<polygon fill="white" stroke="black" points="970,-294.5 970,-313.5 1053,-313.5 1053,-294.5 970,-294.5"/>
<text text-anchor="middle" x="1011.5" y="-301.5" font-family="Helvetica,sans-Serif" font-size="10.00">handle_request</text>
</a>
</g>
</g>
<!-- Node286&#45;&gt;Node300 -->
<g id="edge53" class="edge">
<title>Node286&#45;&gt;Node300</title>
<path fill="none" stroke="midnightblue" d="M708.57,-222.06C729.93,-229.79 757.86,-239.51 783,-247 847.77,-266.31 924.2,-284.55 969.93,-294.98"/>
<polygon fill="midnightblue" stroke="midnightblue" points="709.55,-218.69 698.96,-218.55 707.15,-225.27 709.55,-218.69"/>
</g>
<!-- Node301 -->
<g id="node35" class="node">
<title>Node301</title>
<g id="a_node35"><a xlink:href="net_8c.html#ac4cbcfd073489b57805db665ce3d0681" target="_top" xlink:title="handle_signaling">
<polygon fill="white" stroke="black" points="967,-370.5 967,-389.5 1056,-389.5 1056,-370.5 967,-370.5"/>
<text text-anchor="middle" x="1011.5" y="-377.5" font-family="Helvetica,sans-Serif" font-size="10.00">handle_signaling</text>
</a>
</g>
</g>
<!-- Node286&#45;&gt;Node301 -->
<g id="edge55" class="edge">
<title>Node286&#45;&gt;Node301</title>
<path fill="none" stroke="midnightblue" d="M684.7,-227.61C706.77,-263.63 756.08,-340.67 783,-356 840.11,-388.54 918.46,-389.03 966.72,-385.32"/>
<polygon fill="midnightblue" stroke="midnightblue" points="687.42,-225.36 679.24,-218.63 681.44,-228.99 687.42,-225.36"/>
</g>
<!-- Node287&#45;&gt;Node280 -->
<g id="edge28" class="edge">
<title>Node287&#45;&gt;Node280</title>
<path fill="none" stroke="midnightblue" d="M1243.27,-38C1309.13,-38 1409.1,-38 1496,-38 1496,-38 1496,-38 1777,-38 1859.15,-38 1955.54,-48.16 2004.12,-54"/>
<polygon fill="midnightblue" stroke="midnightblue" points="1243,-34.5 1233,-38 1243,-41.5 1243,-34.5"/>
</g>
<!-- Node289 -->
<g id="node23" class="node">
<title>Node289</title>
<g id="a_node23"><a xlink:href="net_8c.html#af838d89087ad96495f8ed7f1a9297168" target="_top" xlink:title="handle_response">
<polygon fill="white" stroke="black" points="966.5,-218.5 966.5,-237.5 1056.5,-237.5 1056.5,-218.5 966.5,-218.5"/>
<text text-anchor="middle" x="1011.5" y="-225.5" font-family="Helvetica,sans-Serif" font-size="10.00">handle_response</text>
</a>
</g>
</g>
<!-- Node288&#45;&gt;Node289 -->
<g id="edge30" class="edge">
<title>Node288&#45;&gt;Node289</title>
<path fill="none" stroke="midnightblue" d="M900.89,-201.97C923.31,-207.29 949.35,-213.48 970.42,-218.48"/>
<polygon fill="midnightblue" stroke="midnightblue" points="901.41,-198.49 890.87,-199.59 899.8,-205.31 901.41,-198.49"/>
</g>
<!-- Node295 -->
<g id="node29" class="node">
<title>Node295</title>
<g id="a_node29"><a xlink:href="net_8h.html#ade36148140b152d713b23d17bbcf0024" target="_top" xlink:title="Returns a new message id and updates session&#45;&gt;tx_mid accordingly. ">
<polygon fill="white" stroke="black" points="952,-142.5 952,-161.5 1071,-161.5 1071,-142.5 952,-142.5"/>
<text text-anchor="middle" x="1011.5" y="-149.5" font-family="Helvetica,sans-Serif" font-size="10.00">coap_new_message_id</text>
</a>
</g>
</g>
<!-- Node288&#45;&gt;Node295 -->
<g id="edge41" class="edge">
<title>Node288&#45;&gt;Node295</title>
<path fill="none" stroke="midnightblue" d="M900.89,-178.03C923.31,-172.71 949.35,-166.52 970.42,-161.52"/>
<polygon fill="midnightblue" stroke="midnightblue" points="899.8,-174.69 890.87,-180.41 901.41,-181.51 899.8,-174.69"/>
</g>
<!-- Node289&#45;&gt;Node290 -->
<g id="edge31" class="edge">
<title>Node289&#45;&gt;Node290</title>
<path fill="none" stroke="midnightblue" d="M1050.81,-241.43C1057.75,-244.49 1064.76,-248.03 1071,-252 1108.43,-275.79 1144.84,-314.52 1160.71,-332.4"/>
<polygon fill="midnightblue" stroke="midnightblue" points="1052.05,-238.15 1041.47,-237.55 1049.36,-244.62 1052.05,-238.15"/>
</g>
<!-- Node291 -->
<g id="node25" class="node">
<title>Node291</title>
<g id="a_node25"><a xlink:href="net_8c.html#acd36f6fba6d30ab9557e0e6521f4a088" target="_top" xlink:title="coap_read_session">
<polygon fill="white" stroke="black" points="1600.5,-329.5 1600.5,-348.5 1701.5,-348.5 1701.5,-329.5 1600.5,-329.5"/>
<text text-anchor="middle" x="1651" y="-336.5" font-family="Helvetica,sans-Serif" font-size="10.00">coap_read_session</text>
</a>
</g>
</g>
<!-- Node290&#45;&gt;Node291 -->
<g id="edge32" class="edge">
<title>Node290&#45;&gt;Node291</title>
<path fill="none" stroke="midnightblue" d="M1220.34,-341.69C1312.16,-341.12 1508.31,-339.89 1600.36,-339.31"/>
<polygon fill="midnightblue" stroke="midnightblue" points="1220.18,-338.19 1210.2,-341.75 1220.22,-345.19 1220.18,-338.19"/>
</g>
<!-- Node292 -->
<g id="node26" class="node">
<title>Node292</title>
<g id="a_node26"><a xlink:href="net_8h.html#ae6b8ca457dd41f23372f9e9a7159312b" target="_top" xlink:title="Parses and interprets a CoAP datagram with context ctx. ">
<polygon fill="white" stroke="black" points="1283,-385.5 1283,-404.5 1387,-404.5 1387,-385.5 1283,-385.5"/>
<text text-anchor="middle" x="1335" y="-392.5" font-family="Helvetica,sans-Serif" font-size="10.00">coap_handle_dgram</text>
</a>
</g>
</g>
<!-- Node290&#45;&gt;Node292 -->
<g id="edge35" class="edge">
<title>Node290&#45;&gt;Node292</title>
<path fill="none" stroke="midnightblue" d="M1210.35,-354.79C1239.41,-364.25 1278.35,-376.9 1304.7,-385.47"/>
<polygon fill="midnightblue" stroke="midnightblue" points="1211.11,-351.36 1200.52,-351.6 1208.95,-358.02 1211.11,-351.36"/>
</g>
<!-- Node291&#45;&gt;Node277 -->
<g id="edge33" class="edge">
<title>Node291&#45;&gt;Node277</title>
<path fill="none" stroke="midnightblue" d="M1711.75,-340.46C1723.28,-340.74 1734.89,-341.02 1744.97,-341.27"/>
<polygon fill="midnightblue" stroke="midnightblue" points="1711.76,-336.96 1701.67,-340.21 1711.59,-343.95 1711.76,-336.96"/>
</g>
<!-- Node291&#45;&gt;Node282 -->
<g id="edge34" class="edge">
<title>Node291&#45;&gt;Node282</title>
<path fill="none" stroke="midnightblue" d="M1679.08,-324.95C1722.55,-303.74 1811.14,-266 1891,-266 1891,-266 1891,-266 2037.5,-266 2131.26,-266 2239.8,-289.76 2294.71,-303.49"/>
<polygon fill="midnightblue" stroke="midnightblue" points="1677.41,-321.87 1670.02,-329.46 1680.53,-328.14 1677.41,-321.87"/>
</g>
<!-- Node293 -->
<g id="node27" class="node">
<title>Node293</title>
<g id="a_node27"><a xlink:href="net_8c.html#a8534f7860b14e0743529daff196a27ce" target="_top" xlink:title="coap_handle_dgram_for\l_proto">
<polygon fill="white" stroke="black" points="1437,-364 1437,-394 1557,-394 1557,-364 1437,-364"/>
<text text-anchor="start" x="1445" y="-382" font-family="Helvetica,sans-Serif" font-size="10.00">coap_handle_dgram_for</text>
<text text-anchor="middle" x="1497" y="-371" font-family="Helvetica,sans-Serif" font-size="10.00">_proto</text>
</a>
</g>
</g>
<!-- Node292&#45;&gt;Node293 -->
<g id="edge36" class="edge">
<title>Node292&#45;&gt;Node293</title>
<path fill="none" stroke="midnightblue" d="M1397.28,-388.87C1410.24,-387.58 1423.9,-386.21 1436.78,-384.92"/>
<polygon fill="midnightblue" stroke="midnightblue" points="1396.67,-385.42 1387.06,-389.89 1397.36,-392.38 1396.67,-385.42"/>
</g>
<!-- Node293&#45;&gt;Node291 -->
<g id="edge37" class="edge">
<title>Node293&#45;&gt;Node291</title>
<path fill="none" stroke="midnightblue" d="M1564.86,-361.41C1581.7,-356.97 1599.16,-352.38 1613.84,-348.51"/>
<polygon fill="midnightblue" stroke="midnightblue" points="1563.81,-358.06 1555.03,-363.99 1565.59,-364.83 1563.81,-358.06"/>
</g>
<!-- Node294 -->
<g id="node28" class="node">
<title>Node294</title>
<g id="a_node28"><a xlink:href="net_8c.html#a44ffb4b70e537043e9a9cf344be24b92" target="_top" xlink:title="coap_read_endpoint">
<polygon fill="white" stroke="black" points="1599,-369.5 1599,-388.5 1703,-388.5 1703,-369.5 1599,-369.5"/>
<text text-anchor="middle" x="1651" y="-376.5" font-family="Helvetica,sans-Serif" font-size="10.00">coap_read_endpoint</text>
</a>
</g>
</g>
<!-- Node293&#45;&gt;Node294 -->
<g id="edge38" class="edge">
<title>Node293&#45;&gt;Node294</title>
<path fill="none" stroke="midnightblue" d="M1567.24,-379C1577.8,-379 1588.53,-379 1598.61,-379"/>
<polygon fill="midnightblue" stroke="midnightblue" points="1567.2,-375.5 1557.2,-379 1567.2,-382.5 1567.2,-375.5"/>
</g>
<!-- Node294&#45;&gt;Node277 -->
<g id="edge39" class="edge">
<title>Node294&#45;&gt;Node277</title>
<path fill="none" stroke="midnightblue" d="M1693.28,-366.58C1710.1,-361.52 1729.2,-355.78 1744.7,-351.11"/>
<polygon fill="midnightblue" stroke="midnightblue" points="1692.24,-363.24 1683.68,-369.47 1694.26,-369.94 1692.24,-363.24"/>
</g>
<!-- Node294&#45;&gt;Node282 -->
<g id="edge40" class="edge">
<title>Node294&#45;&gt;Node282</title>
<path fill="none" stroke="midnightblue" d="M1713.3,-373.04C1846.28,-360.1 2159.09,-329.67 2280.81,-317.83"/>
<polygon fill="midnightblue" stroke="midnightblue" points="1712.89,-369.56 1703.28,-374.01 1713.57,-376.53 1712.89,-369.56"/>
</g>
<!-- Node295&#45;&gt;Node287 -->
<g id="edge42" class="edge">
<title>Node295&#45;&gt;Node287</title>
<path fill="none" stroke="midnightblue" d="M1034.02,-136.32C1066.86,-112.4 1128.52,-67.49 1155.63,-47.74"/>
<polygon fill="midnightblue" stroke="midnightblue" points="1031.6,-133.76 1025.57,-142.48 1035.72,-139.42 1031.6,-133.76"/>
</g>
<!-- Node295&#45;&gt;Node296 -->
<g id="edge43" class="edge">
<title>Node295&#45;&gt;Node296</title>
<path fill="none" stroke="midnightblue" d="M1061.79,-140.03C1083.72,-134.71 1109.18,-128.52 1129.79,-123.52"/>
<polygon fill="midnightblue" stroke="midnightblue" points="1060.88,-136.65 1051.99,-142.41 1062.54,-143.45 1060.88,-136.65"/>
</g>
<!-- Node297 -->
<g id="node31" class="node">
<title>Node297</title>
<g id="a_node31"><a xlink:href="resource_8h.html#a579bcb559463d3a872831c18d8d9a1c1" target="_top" xlink:title="Checks for all known resources, if they are dirty and notifies subscribed observers. ">
<polygon fill="white" stroke="black" points="1843,-104.5 1843,-123.5 1941,-123.5 1941,-104.5 1843,-104.5"/>
<text text-anchor="middle" x="1892" y="-111.5" font-family="Helvetica,sans-Serif" font-size="10.00">coap_check_notify</text>
</a>
</g>
</g>
<!-- Node296&#45;&gt;Node297 -->
<g id="edge44" class="edge">
<title>Node296&#45;&gt;Node297</title>
<path fill="none" stroke="midnightblue" d="M1237.87,-114C1303.58,-114 1406.69,-114 1496,-114 1496,-114 1496,-114 1652,-114 1718.18,-114 1794.67,-114 1842.93,-114"/>
<polygon fill="midnightblue" stroke="midnightblue" points="1237.66,-110.5 1227.66,-114 1237.66,-117.5 1237.66,-110.5"/>
</g>
<!-- Node297&#45;&gt;Node280 -->
<g id="edge45" class="edge">
<title>Node297&#45;&gt;Node280</title>
<path fill="none" stroke="midnightblue" d="M1926.96,-100.65C1952.95,-90.44 1988.15,-76.61 2011.32,-67.5"/>
<polygon fill="midnightblue" stroke="midnightblue" points="1925.52,-97.46 1917.5,-104.37 1928.08,-103.97 1925.52,-97.46"/>
</g>
<!-- Node297&#45;&gt;Node284 -->
<g id="edge46" class="edge">
<title>Node297&#45;&gt;Node284</title>
<path fill="none" stroke="midnightblue" d="M1951.38,-122.19C1959.81,-123.38 1968.5,-124.6 1976.94,-125.78"/>
<polygon fill="midnightblue" stroke="midnightblue" points="1951.63,-118.7 1941.24,-120.77 1950.66,-125.63 1951.63,-118.7"/>
</g>
<!-- Node298&#45;&gt;Node295 -->
<g id="edge48" class="edge">
<title>Node298&#45;&gt;Node295</title>
<path fill="none" stroke="midnightblue" d="M904.5,-152C919.72,-152 936.35,-152 951.83,-152"/>
<polygon fill="midnightblue" stroke="midnightblue" points="904.22,-148.5 894.22,-152 904.22,-155.5 904.22,-148.5"/>
</g>
<!-- Node299&#45;&gt;Node283 -->
<g id="edge52" class="edge">
<title>Node299&#45;&gt;Node283</title>
<path fill="none" stroke="midnightblue" d="M901.94,-216.46C917.9,-213.4 935.6,-210.52 952,-209 1004.66,-204.11 1018.12,-208.29 1071,-209 1383.97,-213.22 1462,-228 1775,-228 1775,-228 1775,-228 1893,-228 1984.71,-228 2092.15,-218.71 2148.49,-213.12"/>
<polygon fill="midnightblue" stroke="midnightblue" points="900.86,-213.11 891.74,-218.49 902.23,-219.97 900.86,-213.11"/>
</g>
<!-- Node299&#45;&gt;Node290 -->
<g id="edge50" class="edge">
<title>Node299&#45;&gt;Node290</title>
<path fill="none" stroke="midnightblue" d="M903.25,-239.89C907.57,-240.92 911.86,-241.97 916,-243 985.24,-260.3 1005.14,-257.49 1071,-285 1102.78,-298.28 1136.91,-320.04 1155.32,-332.48"/>
<polygon fill="midnightblue" stroke="midnightblue" points="903.73,-236.41 893.19,-237.52 902.12,-243.22 903.73,-236.41"/>
</g>
<!-- Node299&#45;&gt;Node295 -->
<g id="edge51" class="edge">
<title>Node299&#45;&gt;Node295</title>
<path fill="none" stroke="midnightblue" d="M903.51,-214.95C907.84,-213.19 912.06,-211.21 916,-209 934.92,-198.36 933.68,-187.63 952,-176 961.08,-170.23 971.78,-165.37 981.53,-161.55"/>
<polygon fill="midnightblue" stroke="midnightblue" points="902.11,-211.74 893.93,-218.47 904.52,-218.31 902.11,-211.74"/>
</g>
<!-- Node300&#45;&gt;Node290 -->
<g id="edge54" class="edge">
<title>Node300&#45;&gt;Node290</title>
<path fill="none" stroke="midnightblue" d="M1061.79,-315.97C1083.72,-321.29 1109.18,-327.48 1129.79,-332.48"/>
<polygon fill="midnightblue" stroke="midnightblue" points="1062.54,-312.55 1051.99,-313.59 1060.88,-319.35 1062.54,-312.55"/>
</g>
<!-- Node301&#45;&gt;Node290 -->
<g id="edge56" class="edge">
<title>Node301&#45;&gt;Node290</title>
<path fill="none" stroke="midnightblue" d="M1061.79,-368.03C1083.72,-362.71 1109.18,-356.52 1129.79,-351.52"/>
<polygon fill="midnightblue" stroke="midnightblue" points="1060.88,-364.65 1051.99,-370.41 1062.54,-371.45 1060.88,-364.65"/>
</g>
<!-- Node302&#45;&gt;Node277 -->
<g id="edge62" class="edge">
<title>Node302&#45;&gt;Node277</title>
<path fill="none" stroke="midnightblue" d="M1695.42,-404.66C1700.11,-402.67 1704.73,-400.45 1709,-398 1731.68,-385 1754.02,-363.8 1766.01,-351.55"/>
<polygon fill="midnightblue" stroke="midnightblue" points="1693.79,-401.54 1685.76,-408.45 1696.35,-408.06 1693.79,-401.54"/>
</g>
<!-- Node302&#45;&gt;Node282 -->
<g id="edge63" class="edge">
<title>Node302&#45;&gt;Node282</title>
<path fill="none" stroke="midnightblue" d="M1719.05,-413.41C1829.7,-404.91 2056.98,-383.6 2245,-341 2265.72,-336.31 2288.55,-328.7 2305.41,-322.6"/>
<polygon fill="midnightblue" stroke="midnightblue" points="1718.74,-409.92 1709.04,-414.17 1719.27,-416.9 1718.74,-409.92"/>
</g>
<!-- Node303&#45;&gt;Node279 -->
<g id="edge65" class="edge">
<title>Node303&#45;&gt;Node279</title>
<path fill="none" stroke="midnightblue" d="M923.36,-438.81C966.57,-438.7 1022.25,-436.48 1071,-428 1153.77,-413.6 1725.72,-225.57 1861.93,-180.61"/>
<polygon fill="midnightblue" stroke="midnightblue" points="923.22,-435.31 913.22,-438.8 923.21,-442.31 923.22,-435.31"/>
</g>
<!-- Node303&#45;&gt;Node290 -->
<g id="edge67" class="edge">
<title>Node303&#45;&gt;Node290</title>
<path fill="none" stroke="midnightblue" d="M923.33,-431.03C967.12,-425.84 1023.41,-416.3 1071,-399 1103.74,-387.1 1138.06,-364.4 1156.12,-351.53"/>
<polygon fill="midnightblue" stroke="midnightblue" points="922.87,-427.56 913.33,-432.16 923.66,-434.51 922.87,-427.56"/>
</g>
<!-- Node303&#45;&gt;Node301 -->
<g id="edge66" class="edge">
<title>Node303&#45;&gt;Node301</title>
<path fill="none" stroke="midnightblue" d="M886.79,-424.07C916.23,-413.58 957.07,-399.04 983.63,-389.57"/>
<polygon fill="midnightblue" stroke="midnightblue" points="885.53,-420.81 877.28,-427.46 887.88,-427.4 885.53,-420.81"/>
</g>
</g>
</svg>
