<?xml version="1.0" encoding="UTF-8" standalone="no"?>
<!DOCTYPE svg PUBLIC "-//W3C//DTD SVG 1.1//EN"
 "http://www.w3.org/Graphics/SVG/1.1/DTD/svg11.dtd">
<!-- Generated by graphviz version 2.43.0 (0)
 -->
<!-- Title: coap_dtls_is_context_timeout Pages: 1 -->
<svg width="622pt" height="117pt"
 viewBox="0.00 0.00 622.00 116.87" xmlns="http://www.w3.org/2000/svg" xmlns:xlink="http://www.w3.org/1999/xlink">
<g id="graph0" class="graph" transform="scale(1 1) rotate(0) translate(4 112.87)">
<title>coap_dtls_is_context_timeout</title>
<polygon fill="white" stroke="transparent" points="-4,4 -4,-112.87 618,-112.87 618,4 -4,4"/>
<!-- Node23 -->
<g id="node1" class="node">
<title>Node23</title>
<polygon fill="#bfbfbf" stroke="black" points="0,-33 0,-63 109,-63 109,-33 0,-33"/>
<text text-anchor="start" x="8" y="-51" font-family="Helvetica,sans-Serif" font-size="10.00">coap_dtls_is_context</text>
<text text-anchor="middle" x="54.5" y="-40" font-family="Helvetica,sans-Serif" font-size="10.00">_timeout</text>
</g>
<!-- Node24 -->
<g id="node2" class="node">
<title>Node24</title>
<g id="a_node2"><a xlink:href="net_8h.html#aaac86ac50793f309678e4951ecf8863f" target="_top" xlink:title="For applications with their own message loop, send all pending retransmits and return the list of soc...">
<polygon fill="white" stroke="black" points="145,-38.5 145,-57.5 209,-57.5 209,-38.5 145,-38.5"/>
<text text-anchor="middle" x="177" y="-45.5" font-family="Helvetica,sans-Serif" font-size="10.00">coap_write</text>
</a>
</g>
</g>
<!-- Node23&#45;&gt;Node24 -->
<g id="edge1" class="edge">
<title>Node23&#45;&gt;Node24</title>
<path fill="none" stroke="midnightblue" d="M119.1,-48C128,-48 136.8,-48 144.72,-48"/>
<polygon fill="midnightblue" stroke="midnightblue" points="119.05,-44.5 109.05,-48 119.05,-51.5 119.05,-44.5"/>
</g>
<!-- Node25 -->
<g id="node3" class="node">
<title>Node25</title>
<g id="a_node3"><a xlink:href="net_8h.html#a3be92476a2c2c12d68c0cd07795c7e34" target="_top" xlink:title="Any now timed out delayed packet is transmitted, along with any packets associated with requested obs...">
<polygon fill="white" stroke="black" points="245,-76.5 245,-95.5 358,-95.5 358,-76.5 245,-76.5"/>
<text text-anchor="middle" x="301.5" y="-83.5" font-family="Helvetica,sans-Serif" font-size="10.00">coap_io_prepare_epoll</text>
</a>
</g>
</g>
<!-- Node24&#45;&gt;Node25 -->
<g id="edge2" class="edge">
<title>Node24&#45;&gt;Node25</title>
<path fill="none" stroke="midnightblue" d="M218.88,-60.68C235.43,-65.81 254.22,-71.64 269.6,-76.41"/>
<polygon fill="midnightblue" stroke="midnightblue" points="219.5,-57.21 208.91,-57.59 217.43,-63.89 219.5,-57.21"/>
</g>
<!-- Node26 -->
<g id="node4" class="node">
<title>Node26</title>
<g id="a_node4"><a xlink:href="coap__io_8c.html#a75a7c93e10ca7858449ba304aad4ea37" target="_top" xlink:title="coap_run_once">
<polygon fill="white" stroke="black" points="531,-76.5 531,-95.5 614,-95.5 614,-76.5 531,-76.5"/>
<text text-anchor="middle" x="572.5" y="-83.5" font-family="Helvetica,sans-Serif" font-size="10.00">coap_run_once</text>
</a>
</g>
</g>
<!-- Node24&#45;&gt;Node26 -->
<g id="edge6" class="edge">
<title>Node24&#45;&gt;Node26</title>
<path fill="none" stroke="midnightblue" d="M219.58,-48.07C280.41,-48.72 397.06,-52.03 495,-67 509.47,-69.21 525.21,-72.89 538.63,-76.43"/>
<polygon fill="midnightblue" stroke="midnightblue" points="219.28,-44.57 209.25,-47.98 219.22,-51.57 219.28,-44.57"/>
</g>
<!-- Node28 -->
<g id="node6" class="node">
<title>Node28</title>
<g id="a_node6"><a xlink:href="net_8h.html#a5854b1394bfddd574e48af116e3aaaf9" target="_top" xlink:title="Sends an RST message with code 0 for the specified request to dst. ">
<polygon fill="white" stroke="black" points="261.5,-0.5 261.5,-19.5 341.5,-19.5 341.5,-0.5 261.5,-0.5"/>
<text text-anchor="middle" x="301.5" y="-7.5" font-family="Helvetica,sans-Serif" font-size="10.00">coap_send_rst</text>
</a>
</g>
</g>
<!-- Node24&#45;&gt;Node28 -->
<g id="edge7" class="edge">
<title>Node24&#45;&gt;Node28</title>
<path fill="none" stroke="midnightblue" d="M218.88,-35.32C235.43,-30.19 254.22,-24.36 269.6,-19.59"/>
<polygon fill="midnightblue" stroke="midnightblue" points="217.43,-32.11 208.91,-38.41 219.5,-38.79 217.43,-32.11"/>
</g>
<!-- Node25&#45;&gt;Node26 -->
<g id="edge3" class="edge">
<title>Node25&#45;&gt;Node26</title>
<path fill="none" stroke="midnightblue" d="M349.64,-97.71C363.81,-100.71 379.45,-103.51 394,-105 438.65,-109.59 450.44,-110.45 495,-105 510.21,-103.14 526.76,-99.27 540.56,-95.51"/>
<polygon fill="midnightblue" stroke="midnightblue" points="350.14,-94.24 339.63,-95.51 348.64,-101.07 350.14,-94.24"/>
</g>
<!-- Node27 -->
<g id="node5" class="node">
<title>Node27</title>
<g id="a_node5"><a xlink:href="net_8h.html#a7b591afa095a093b604b63313275a02a" target="_top" xlink:title="Process all the epoll events. ">
<polygon fill="white" stroke="black" points="394,-76.5 394,-95.5 495,-95.5 495,-76.5 394,-76.5"/>
<text text-anchor="middle" x="444.5" y="-83.5" font-family="Helvetica,sans-Serif" font-size="10.00">coap_io_do_events</text>
</a>
</g>
</g>
<!-- Node25&#45;&gt;Node27 -->
<g id="edge4" class="edge">
<title>Node25&#45;&gt;Node27</title>
<path fill="none" stroke="midnightblue" d="M368.48,-86C376.95,-86 385.51,-86 393.66,-86"/>
<polygon fill="midnightblue" stroke="midnightblue" points="368.23,-82.5 358.23,-86 368.23,-89.5 368.23,-82.5"/>
</g>
<!-- Node27&#45;&gt;Node26 -->
<g id="edge5" class="edge">
<title>Node27&#45;&gt;Node26</title>
<path fill="none" stroke="midnightblue" d="M505.4,-86C514.06,-86 522.81,-86 530.97,-86"/>
<polygon fill="midnightblue" stroke="midnightblue" points="505.3,-82.5 495.3,-86 505.3,-89.5 505.3,-82.5"/>
</g>
</g>
</svg>
