<?xml version="1.0" encoding="UTF-8" standalone="no"?>
<!DOCTYPE svg PUBLIC "-//W3C//DTD SVG 1.1//EN"
 "http://www.w3.org/Graphics/SVG/1.1/DTD/svg11.dtd">
<!-- Generated by graphviz version 2.43.0 (0)
 -->
<!-- Title: coap_log_impl Pages: 1 -->
<svg width="334pt" height="66pt"
 viewBox="0.00 0.00 334.00 66.00" xmlns="http://www.w3.org/2000/svg" xmlns:xlink="http://www.w3.org/1999/xlink">
<g id="graph0" class="graph" transform="scale(1 1) rotate(0) translate(4 62)">
<title>coap_log_impl</title>
<polygon fill="white" stroke="transparent" points="-4,4 -4,-62 330,-62 330,4 -4,4"/>
<!-- Node69 -->
<g id="node1" class="node">
<title>Node69</title>
<polygon fill="#bfbfbf" stroke="black" points="0,-19.5 0,-38.5 79,-38.5 79,-19.5 0,-19.5"/>
<text text-anchor="middle" x="39.5" y="-26.5" font-family="Helvetica,sans-Serif" font-size="10.00">coap_log_impl</text>
</g>
<!-- Node70 -->
<g id="node2" class="node">
<title>Node70</title>
<g id="a_node2"><a xlink:href="group__clock.html#ga350826988e63ff446a2a84034ecdf43d" target="_top" xlink:title="Sets t to the internal time with COAP_TICKS_PER_SECOND resolution. ">
<polygon fill="white" stroke="black" points="126,-38.5 126,-57.5 190,-57.5 190,-38.5 126,-38.5"/>
<text text-anchor="middle" x="158" y="-45.5" font-family="Helvetica,sans-Serif" font-size="10.00">coap_ticks</text>
</a>
</g>
</g>
<!-- Node69&#45;&gt;Node70 -->
<g id="edge1" class="edge">
<title>Node69&#45;&gt;Node70</title>
<path fill="none" stroke="midnightblue" d="M79.29,-35.33C90.97,-37.23 103.82,-39.33 115.65,-41.26"/>
<polygon fill="midnightblue" stroke="midnightblue" points="115.29,-44.74 125.73,-42.9 116.42,-37.84 115.29,-44.74"/>
</g>
<!-- Node71 -->
<g id="node3" class="node">
<title>Node71</title>
<g id="a_node3"><a xlink:href="coap__debug_8c.html#ac22594f737f12f0c3947d2934070cd93" target="_top" xlink:title="print_timestamp">
<polygon fill="white" stroke="black" points="115,-0.5 115,-19.5 201,-19.5 201,-0.5 115,-0.5"/>
<text text-anchor="middle" x="158" y="-7.5" font-family="Helvetica,sans-Serif" font-size="10.00">print_timestamp</text>
</a>
</g>
</g>
<!-- Node69&#45;&gt;Node71 -->
<g id="edge2" class="edge">
<title>Node69&#45;&gt;Node71</title>
<path fill="none" stroke="midnightblue" d="M79.29,-22.67C87.48,-21.34 96.24,-19.91 104.82,-18.51"/>
<polygon fill="midnightblue" stroke="midnightblue" points="105.46,-21.95 114.77,-16.89 104.34,-15.04 105.46,-21.95"/>
</g>
<!-- Node72 -->
<g id="node4" class="node">
<title>Node72</title>
<g id="a_node4"><a xlink:href="group__clock.html#gaaa7cb35533d86c8f87eac2ad42de0323" target="_top" xlink:title="Helper function that converts coap ticks to wallclock time. ">
<polygon fill="white" stroke="black" points="237,-0.5 237,-19.5 326,-19.5 326,-0.5 237,-0.5"/>
<text text-anchor="middle" x="281.5" y="-7.5" font-family="Helvetica,sans-Serif" font-size="10.00">coap_ticks_to_rt</text>
</a>
</g>
</g>
<!-- Node71&#45;&gt;Node72 -->
<g id="edge3" class="edge">
<title>Node71&#45;&gt;Node72</title>
<path fill="none" stroke="midnightblue" d="M201.15,-10C209.34,-10 218.02,-10 226.53,-10"/>
<polygon fill="midnightblue" stroke="midnightblue" points="226.77,-13.5 236.77,-10 226.77,-6.5 226.77,-13.5"/>
</g>
</g>
</svg>
