<?xml version="1.0" encoding="UTF-8" standalone="no"?>
<!DOCTYPE svg PUBLIC "-//W3C//DTD SVG 1.1//EN"
 "http://www.w3.org/Graphics/SVG/1.1/DTD/svg11.dtd">
<!-- Generated by graphviz version 2.43.0 (0)
 -->
<!-- Title: coap_dtls_is_supported Pages: 1 -->
<!--zoomable 268 -->
<svg id="main" version="1.1" xmlns="http://www.w3.org/2000/svg" xmlns:xlink="http://www.w3.org/1999/xlink" xml:space="preserve" onload="init(evt)">
<style type="text/css"><![CDATA[
.edge:hover path { stroke: red; }
.edge:hover polygon { stroke: red; fill: red; }
]]></style>
<script type="text/javascript"><![CDATA[
var edges = document.getElementsByTagName('g');
if (edges && edges.length) {
  for (var i=0;i<edges.length;i++) {
    if (edges[i].id.substr(0,4)=='edge') {
      edges[i].setAttribute('class','edge');
    }
  }
}
]]></script>
        <defs>
                <circle id="rim" cx="0" cy="0" r="7"/>
                <circle id="rim2" cx="0" cy="0" r="3.5"/>
                <g id="zoomPlus">
                        <use xlink:href="#rim" fill="#404040">
                                <set attributeName="fill" to="#808080" begin="zoomplus.mouseover" end="zoomplus.mouseout"/>
                        </use>
                        <path d="M-4,0h8M0,-4v8" fill="none" stroke="white" stroke-width="1.5" pointer-events="none"/>
                </g>
                <g id="zoomMin">
                        <use xlink:href="#rim" fill="#404040">
                                <set attributeName="fill" to="#808080" begin="zoomminus.mouseover" end="zoomminus.mouseout"/>
                        </use>
                        <path d="M-4,0h8" fill="none" stroke="white" stroke-width="1.5" pointer-events="none"/>
                </g>
                <g id="dirArrow">
                        <path fill="none" stroke="white" stroke-width="1.5" d="M0,-3.0v7 M-2.5,-0.5L0,-3.0L2.5,-0.5"/>
                </g>
               <g id="resetDef">
                       <use xlink:href="#rim2" fill="#404040">
                               <set attributeName="fill" to="#808080" begin="reset.mouseover" end="reset.mouseout"/>
                       </use>
               </g>
        </defs>

<script type="text/javascript">
var viewWidth = 606;
var viewHeight = 268;
var sectionId = 'dynsection-0';
</script>
<script xlink:href="svgpan.js"/>
<svg id="graph" class="graph">
<g id="viewport">
<title>coap_dtls_is_supported</title>
<polygon fill="white" stroke="transparent" points="-4,4 -4,-263.5 602,-263.5 602,4 -4,4"/>
<!-- Node1 -->
<g id="node1" class="node">
<title>Node1</title>
<polygon fill="#bfbfbf" stroke="black" points="0,-126 0,-145 119,-145 119,-126 0,-126"/>
<text text-anchor="middle" x="59.5" y="-133" font-family="Helvetica,sans-Serif" font-size="10.00">coap_dtls_is_supported</text>
</g>
<!-- Node2 -->
<g id="node2" class="node">
<title>Node2</title>
<g id="a_node2"><a xlink:href="coap__session_8h.html#a40790c70df0b38fe89f3fb2ad255d662" target="_top" xlink:title="Creates a new client session to the designated server with PSK credentials. ">
<polygon fill="white" stroke="black" points="155,-240 155,-259 304,-259 304,-240 155,-240"/>
<text text-anchor="middle" x="229.5" y="-247" font-family="Helvetica,sans-Serif" font-size="10.00">coap_new_client_session_psk</text>
</a>
</g>
</g>
<!-- Node1&#45;&gt;Node2 -->
<g id="edge1" class="edge">
<title>Node1&#45;&gt;Node2</title>
<path fill="none" stroke="midnightblue" d="M73.53,-153.56C90.05,-175.13 120.56,-210.76 155,-230.5 161.75,-234.37 169.29,-237.46 176.9,-239.93"/>
<polygon fill="midnightblue" stroke="midnightblue" points="76.12,-151.19 67.34,-145.27 70.51,-155.38 76.12,-151.19"/>
</g>
<!-- Node3 -->
<g id="node3" class="node">
<title>Node3</title>
<g id="a_node3"><a xlink:href="coap__session_8h.html#a90f2df37ae4204189027c01604ddfe50" target="_top" xlink:title="Creates a new client session to the designated server with PKI credentials. ">
<polygon fill="white" stroke="black" points="156.5,-202 156.5,-221 302.5,-221 302.5,-202 156.5,-202"/>
<text text-anchor="middle" x="229.5" y="-209" font-family="Helvetica,sans-Serif" font-size="10.00">coap_new_client_session_pki</text>
</a>
</g>
</g>
<!-- Node1&#45;&gt;Node3 -->
<g id="edge2" class="edge">
<title>Node1&#45;&gt;Node3</title>
<path fill="none" stroke="midnightblue" d="M81.92,-150.9C100.47,-163.62 128.44,-181.34 155,-192.5 163.87,-196.23 173.66,-199.37 183.12,-201.97"/>
<polygon fill="midnightblue" stroke="midnightblue" points="83.82,-147.96 73.61,-145.11 79.81,-153.7 83.82,-147.96"/>
</g>
<!-- Node4 -->
<g id="node4" class="node">
<title>Node4</title>
<g id="a_node4"><a xlink:href="coap__session_8h.html#a6c2e568e59caed491a94a5861d9afac2" target="_top" xlink:title="Create a new endpoint for communicating with peers. ">
<polygon fill="white" stroke="black" points="178,-164 178,-183 281,-183 281,-164 178,-164"/>
<text text-anchor="middle" x="229.5" y="-171" font-family="Helvetica,sans-Serif" font-size="10.00">coap_new_endpoint</text>
</a>
</g>
</g>
<!-- Node1&#45;&gt;Node4 -->
<g id="edge3" class="edge">
<title>Node1&#45;&gt;Node4</title>
<path fill="none" stroke="midnightblue" d="M112.78,-147.32C136.46,-152.68 164.09,-158.93 186.41,-163.98"/>
<polygon fill="midnightblue" stroke="midnightblue" points="113.42,-143.88 102.89,-145.09 111.87,-150.71 113.42,-143.88"/>
</g>
<!-- Node5 -->
<g id="node5" class="node">
<title>Node5</title>
<g id="a_node5"><a xlink:href="net_8h.html#a8baf4e3608ff5eb00adac694fe25eb60" target="_top" xlink:title="Creates a new coap_context_t object that will hold the CoAP stack status. ">
<polygon fill="white" stroke="black" points="348.5,-126 348.5,-145 446.5,-145 446.5,-126 348.5,-126"/>
<text text-anchor="middle" x="397.5" y="-133" font-family="Helvetica,sans-Serif" font-size="10.00">coap_new_context</text>
</a>
</g>
</g>
<!-- Node1&#45;&gt;Node5 -->
<g id="edge12" class="edge">
<title>Node1&#45;&gt;Node5</title>
<path fill="none" stroke="midnightblue" d="M129.23,-135.5C194.52,-135.5 291,-135.5 348.43,-135.5"/>
<polygon fill="midnightblue" stroke="midnightblue" points="129.03,-132 119.03,-135.5 129.03,-139 129.03,-132"/>
</g>
<!-- Node7 -->
<g id="node7" class="node">
<title>Node7</title>
<g id="a_node7"><a xlink:href="net_8h.html#a665601c3c9ac88ef92125c1e62d679b2" target="_top" xlink:title="Set the context&#39;s default PSK hint and/or key for a server. ">
<polygon fill="white" stroke="black" points="340,-88 340,-107 455,-107 455,-88 340,-88"/>
<text text-anchor="middle" x="397.5" y="-95" font-family="Helvetica,sans-Serif" font-size="10.00">coap_context_set_psk</text>
</a>
</g>
</g>
<!-- Node1&#45;&gt;Node7 -->
<g id="edge6" class="edge">
<title>Node1&#45;&gt;Node7</title>
<path fill="none" stroke="midnightblue" d="M129.13,-127.74C191.24,-120.71 281.64,-110.49 339.76,-103.92"/>
<polygon fill="midnightblue" stroke="midnightblue" points="128.57,-124.28 119.03,-128.88 129.36,-131.23 128.57,-124.28"/>
</g>
<!-- Node8 -->
<g id="node8" class="node">
<title>Node8</title>
<g id="a_node8"><a xlink:href="net_8h.html#a35b413b8771487a5384cfe670553276a" target="_top" xlink:title="Set the context&#39;s default PKI information for a server. ">
<polygon fill="white" stroke="black" points="341.5,-50 341.5,-69 453.5,-69 453.5,-50 341.5,-50"/>
<text text-anchor="middle" x="397.5" y="-57" font-family="Helvetica,sans-Serif" font-size="10.00">coap_context_set_pki</text>
</a>
</g>
</g>
<!-- Node1&#45;&gt;Node8 -->
<g id="edge8" class="edge">
<title>Node1&#45;&gt;Node8</title>
<path fill="none" stroke="midnightblue" d="M96.5,-122.44C114,-116.42 135.42,-109.51 155,-104.5 218.21,-88.32 292.13,-75.41 341.38,-67.63"/>
<polygon fill="midnightblue" stroke="midnightblue" points="94.99,-119.26 86.7,-125.87 97.3,-125.87 94.99,-119.26"/>
</g>
<!-- Node9 -->
<g id="node9" class="node">
<title>Node9</title>
<g id="a_node9"><a xlink:href="net_8h.html#a7b56f148fda46ca44655e1a9b373b97e" target="_top" xlink:title="Set the context&#39;s default Root CA information for a client or server. ">
<polygon fill="white" stroke="black" points="341.5,-0.5 341.5,-30.5 453.5,-30.5 453.5,-0.5 341.5,-0.5"/>
<text text-anchor="start" x="349.5" y="-18.5" font-family="Helvetica,sans-Serif" font-size="10.00">coap_context_set_pki</text>
<text text-anchor="middle" x="397.5" y="-7.5" font-family="Helvetica,sans-Serif" font-size="10.00">_root_cas</text>
</a>
</g>
</g>
<!-- Node1&#45;&gt;Node9 -->
<g id="edge10" class="edge">
<title>Node1&#45;&gt;Node9</title>
<path fill="none" stroke="midnightblue" d="M79.27,-119.03C97.44,-103.95 126.36,-82.11 155,-69.5 215.75,-42.75 291.13,-28.62 341.36,-21.62"/>
<polygon fill="midnightblue" stroke="midnightblue" points="76.63,-116.69 71.27,-125.82 81.16,-122.02 76.63,-116.69"/>
</g>
<!-- Node4&#45;&gt;Node5 -->
<g id="edge4" class="edge">
<title>Node4&#45;&gt;Node5</title>
<path fill="none" stroke="midnightblue" d="M282.15,-161.68C305.56,-156.32 332.86,-150.07 354.91,-145.02"/>
<polygon fill="midnightblue" stroke="midnightblue" points="281.36,-158.27 272.39,-163.91 282.92,-165.09 281.36,-158.27"/>
</g>
<!-- Node6 -->
<g id="node6" class="node">
<title>Node6</title>
<g id="a_node6"><a xlink:href="net_8h.html#a696acd1012ad1c2dba081ee5bea54fd8" target="_top" xlink:title="Registers the option type type with the given context object ctx. ">
<polygon fill="white" stroke="black" points="491,-69 491,-88 598,-88 598,-69 491,-69"/>
<text text-anchor="middle" x="544.5" y="-76" font-family="Helvetica,sans-Serif" font-size="10.00">coap_register_option</text>
</a>
</g>
</g>
<!-- Node5&#45;&gt;Node6 -->
<g id="edge5" class="edge">
<title>Node5&#45;&gt;Node6</title>
<path fill="none" stroke="midnightblue" d="M437.85,-122.72C443.63,-120.72 449.49,-118.61 455,-116.5 478.43,-107.55 504.79,-96.04 522.6,-88.05"/>
<polygon fill="midnightblue" stroke="midnightblue" points="436.61,-119.45 428.28,-125.99 438.87,-126.07 436.61,-119.45"/>
</g>
<!-- Node7&#45;&gt;Node6 -->
<g id="edge7" class="edge">
<title>Node7&#45;&gt;Node6</title>
<path fill="none" stroke="midnightblue" d="M465.55,-88.71C473.94,-87.62 482.42,-86.5 490.56,-85.44"/>
<polygon fill="midnightblue" stroke="midnightblue" points="464.85,-85.28 455.39,-90.05 465.76,-92.22 464.85,-85.28"/>
</g>
<!-- Node8&#45;&gt;Node6 -->
<g id="edge9" class="edge">
<title>Node8&#45;&gt;Node6</title>
<path fill="none" stroke="midnightblue" d="M463.84,-68.06C472.87,-69.24 482.05,-70.45 490.81,-71.6"/>
<polygon fill="midnightblue" stroke="midnightblue" points="464.1,-64.57 453.73,-66.74 463.19,-71.51 464.1,-64.57"/>
</g>
<!-- Node9&#45;&gt;Node6 -->
<g id="edge11" class="edge">
<title>Node9&#45;&gt;Node6</title>
<path fill="none" stroke="midnightblue" d="M442.52,-34.63C468.52,-45.92 500.34,-59.75 521.23,-68.82"/>
<polygon fill="midnightblue" stroke="midnightblue" points="443.8,-31.36 433.23,-30.59 441.01,-37.79 443.8,-31.36"/>
</g>
</g>
</svg>
        <g id="navigator" transform="translate(0 0)" fill="#404254">
                <rect fill="#f2f5e9" fill-opacity="0.5" stroke="#606060" stroke-width=".5" x="0" y="0" width="60" height="60"/>
                <use id="zoomplus" xlink:href="#zoomPlus" x="17" y="9" onmousedown="handleZoom(evt,'in')"/>
                <use id="zoomminus" xlink:href="#zoomMin" x="42" y="9" onmousedown="handleZoom(evt,'out')"/>
                <use id="reset" xlink:href="#resetDef" x="30" y="36" onmousedown="handleReset()"/>
                <g id="arrowUp" xlink:href="#dirArrow" transform="translate(30 24)" onmousedown="handlePan(0,-1)">
                  <use xlink:href="#rim" fill="#404040">
                        <set attributeName="fill" to="#808080" begin="arrowUp.mouseover" end="arrowUp.mouseout"/>
                  </use>
                  <path fill="none" stroke="white" stroke-width="1.5" d="M0,-3.0v7 M-2.5,-0.5L0,-3.0L2.5,-0.5"/>
                </g>
                <g id="arrowRight" xlink:href="#dirArrow" transform="rotate(90) translate(36 -43)" onmousedown="handlePan(1,0)">
                  <use xlink:href="#rim" fill="#404040">
                        <set attributeName="fill" to="#808080" begin="arrowRight.mouseover" end="arrowRight.mouseout"/>
                  </use>
                  <path fill="none" stroke="white" stroke-width="1.5" d="M0,-3.0v7 M-2.5,-0.5L0,-3.0L2.5,-0.5"/>
                </g>
                <g id="arrowDown" xlink:href="#dirArrow" transform="rotate(180) translate(-30 -48)" onmousedown="handlePan(0,1)">
                  <use xlink:href="#rim" fill="#404040">
                        <set attributeName="fill" to="#808080" begin="arrowDown.mouseover" end="arrowDown.mouseout"/>
                  </use>
                  <path fill="none" stroke="white" stroke-width="1.5" d="M0,-3.0v7 M-2.5,-0.5L0,-3.0L2.5,-0.5"/>
                </g>
                <g id="arrowLeft" xlink:href="#dirArrow" transform="rotate(270) translate(-36 17)" onmousedown="handlePan(-1,0)">
                  <use xlink:href="#rim" fill="#404040">
                        <set attributeName="fill" to="#808080" begin="arrowLeft.mouseover" end="arrowLeft.mouseout"/>
                  </use>
                  <path fill="none" stroke="white" stroke-width="1.5" d="M0,-3.0v7 M-2.5,-0.5L0,-3.0L2.5,-0.5"/>
                </g>
        </g>
        <svg viewBox="0 0 15 15" width="100%" height="30px" preserveAspectRatio="xMaxYMin meet">
         <g id="arrow_out" transform="scale(0.3 0.3)">
          <a xlink:href="group__dtls_ga9def28dc6da3b77c14e89d63769ec085_icgraph_org.svg" target="_base">
           <rect id="button" ry="5" rx="5" y="6" x="6" height="38" width="38"
                fill="#f2f5e9" fill-opacity="0.5" stroke="#606060" stroke-width="1.0"/>
           <path id="arrow"
             d="M 11.500037,31.436501 C 11.940474,20.09759 22.043105,11.32322 32.158766,21.979434 L 37.068811,17.246167 C 37.068811,17.246167 37.088388,32 37.088388,32 L 22.160133,31.978069 C 22.160133,31.978069 26.997745,27.140456 26.997745,27.140456 C 18.528582,18.264221 13.291696,25.230495 11.500037,31.436501 z"
             style="fill:#404040;"/>
          </a>
         </g>
        </svg>
</svg>
