<?xml version="1.0" encoding="UTF-8" standalone="no"?>
<!DOCTYPE svg PUBLIC "-//W3C//DTD SVG 1.1//EN"
 "http://www.w3.org/Graphics/SVG/1.1/DTD/svg11.dtd">
<!-- Generated by graphviz version 2.43.0 (0)
 -->
<!-- Title: coap_delete_all Pages: 1 -->
<svg width="1373pt" height="140pt"
 viewBox="0.00 0.00 1373.00 140.00" xmlns="http://www.w3.org/2000/svg" xmlns:xlink="http://www.w3.org/1999/xlink">
<g id="graph0" class="graph" transform="scale(1 1) rotate(0) translate(4 136)">
<title>coap_delete_all</title>
<polygon fill="white" stroke="transparent" points="-4,4 -4,-136 1369,-136 1369,4 -4,4"/>
<!-- Node390 -->
<g id="node1" class="node">
<title>Node390</title>
<polygon fill="#bfbfbf" stroke="black" points="0,-75.5 0,-94.5 84,-94.5 84,-75.5 0,-75.5"/>
<text text-anchor="middle" x="42" y="-82.5" font-family="Helvetica,sans-Serif" font-size="10.00">coap_delete_all</text>
</g>
<!-- Node391 -->
<g id="node2" class="node">
<title>Node391</title>
<g id="a_node2"><a xlink:href="net_8h.html#a2c1e86998c712346baf2d116dbf1ac7f" target="_top" xlink:title="Removes all items from given queue and frees the allocated storage. ">
<polygon fill="white" stroke="black" points="120,-94.5 120,-113.5 204,-113.5 204,-94.5 120,-94.5"/>
<text text-anchor="middle" x="162" y="-101.5" font-family="Helvetica,sans-Serif" font-size="10.00">coap_delete_all</text>
</a>
</g>
</g>
<!-- Node390&#45;&gt;Node391 -->
<g id="edge1" class="edge">
<title>Node390&#45;&gt;Node391</title>
<path fill="none" stroke="midnightblue" d="M94.22,-93.25C102.82,-94.63 111.65,-96.05 119.95,-97.39"/>
<polygon fill="midnightblue" stroke="midnightblue" points="94.7,-89.78 84.27,-91.65 93.59,-96.69 94.7,-89.78"/>
</g>
<!-- Node392 -->
<g id="node3" class="node">
<title>Node392</title>
<g id="a_node3"><a xlink:href="net_8h.html#a4a0717822713783908dd33d300440b2e" target="_top" xlink:title="CoAP stack context must be released with coap_free_context(). ">
<polygon fill="white" stroke="black" points="240,-75.5 240,-94.5 337,-94.5 337,-75.5 240,-75.5"/>
<text text-anchor="middle" x="288.5" y="-82.5" font-family="Helvetica,sans-Serif" font-size="10.00">coap_free_context</text>
</a>
</g>
</g>
<!-- Node390&#45;&gt;Node392 -->
<g id="edge20" class="edge">
<title>Node390&#45;&gt;Node392</title>
<path fill="none" stroke="midnightblue" d="M94.43,-85C137.34,-85 198.02,-85 239.84,-85"/>
<polygon fill="midnightblue" stroke="midnightblue" points="94.2,-81.5 84.2,-85 94.2,-88.5 94.2,-81.5"/>
</g>
<!-- Node391&#45;&gt;Node391 -->
<g id="edge2" class="edge">
<title>Node391&#45;&gt;Node391</title>
<path fill="none" stroke="midnightblue" d="M139.68,-123.03C140.9,-128.13 148.34,-132 162,-132 183.33,-132 189.49,-122.57 180.5,-113.76"/>
<polygon fill="midnightblue" stroke="midnightblue" points="142.93,-124.34 143.5,-113.76 136.45,-121.67 142.93,-124.34"/>
</g>
<!-- Node391&#45;&gt;Node392 -->
<g id="edge3" class="edge">
<title>Node391&#45;&gt;Node392</title>
<path fill="none" stroke="midnightblue" d="M214.01,-96.22C222.59,-94.91 231.47,-93.55 239.96,-92.26"/>
<polygon fill="midnightblue" stroke="midnightblue" points="213.47,-92.76 204.11,-97.73 214.52,-99.68 213.47,-92.76"/>
</g>
<!-- Node393 -->
<g id="node4" class="node">
<title>Node393</title>
<g id="a_node4"><a xlink:href="net_8h.html#a8baf4e3608ff5eb00adac694fe25eb60" target="_top" xlink:title="Creates a new coap_context_t object that will hold the CoAP stack status. ">
<polygon fill="white" stroke="black" points="383.5,-94.5 383.5,-113.5 481.5,-113.5 481.5,-94.5 383.5,-94.5"/>
<text text-anchor="middle" x="432.5" y="-101.5" font-family="Helvetica,sans-Serif" font-size="10.00">coap_new_context</text>
</a>
</g>
</g>
<!-- Node392&#45;&gt;Node393 -->
<g id="edge4" class="edge">
<title>Node392&#45;&gt;Node393</title>
<path fill="none" stroke="midnightblue" d="M347.1,-92.71C359.09,-94.31 371.61,-95.99 383.22,-97.54"/>
<polygon fill="midnightblue" stroke="midnightblue" points="347.55,-89.24 337.18,-91.38 346.63,-96.17 347.55,-89.24"/>
</g>
<!-- Node395 -->
<g id="node6" class="node">
<title>Node395</title>
<g id="a_node6"><a xlink:href="net_8h.html#ade36148140b152d713b23d17bbcf0024" target="_top" xlink:title="Returns a new message id and updates session&#45;&gt;tx_mid accordingly. ">
<polygon fill="white" stroke="black" points="373,-56.5 373,-75.5 492,-75.5 492,-56.5 373,-56.5"/>
<text text-anchor="middle" x="432.5" y="-63.5" font-family="Helvetica,sans-Serif" font-size="10.00">coap_new_message_id</text>
</a>
</g>
</g>
<!-- Node392&#45;&gt;Node395 -->
<g id="edge6" class="edge">
<title>Node392&#45;&gt;Node395</title>
<path fill="none" stroke="midnightblue" d="M347.29,-77.27C355.72,-76.14 364.4,-74.98 372.84,-73.85"/>
<polygon fill="midnightblue" stroke="midnightblue" points="346.63,-73.83 337.18,-78.62 347.55,-80.76 346.63,-73.83"/>
</g>
<!-- Node394 -->
<g id="node5" class="node">
<title>Node394</title>
<g id="a_node5"><a xlink:href="net_8h.html#a696acd1012ad1c2dba081ee5bea54fd8" target="_top" xlink:title="Registers the option type type with the given context object ctx. ">
<polygon fill="white" stroke="black" points="532,-94.5 532,-113.5 639,-113.5 639,-94.5 532,-94.5"/>
<text text-anchor="middle" x="585.5" y="-101.5" font-family="Helvetica,sans-Serif" font-size="10.00">coap_register_option</text>
</a>
</g>
</g>
<!-- Node393&#45;&gt;Node394 -->
<g id="edge5" class="edge">
<title>Node393&#45;&gt;Node394</title>
<path fill="none" stroke="midnightblue" d="M492.02,-104C505.12,-104 518.95,-104 531.8,-104"/>
<polygon fill="midnightblue" stroke="midnightblue" points="491.69,-100.5 481.69,-104 491.69,-107.5 491.69,-100.5"/>
</g>
<!-- Node396 -->
<g id="node7" class="node">
<title>Node396</title>
<g id="a_node7"><a xlink:href="coap__session_8h.html#ab3f9f60c0a4857c147fef5721025944c" target="_top" xlink:title="Send a ping message for the session. ">
<polygon fill="white" stroke="black" points="679,-56.5 679,-75.5 805,-75.5 805,-56.5 679,-56.5"/>
<text text-anchor="middle" x="742" y="-63.5" font-family="Helvetica,sans-Serif" font-size="10.00">coap_session_send_ping</text>
</a>
</g>
</g>
<!-- Node395&#45;&gt;Node396 -->
<g id="edge7" class="edge">
<title>Node395&#45;&gt;Node396</title>
<path fill="none" stroke="midnightblue" d="M502.38,-66C555.32,-66 627.81,-66 678.96,-66"/>
<polygon fill="midnightblue" stroke="midnightblue" points="502.06,-62.5 492.06,-66 502.06,-69.5 502.06,-62.5"/>
</g>
<!-- Node402 -->
<g id="node13" class="node">
<title>Node402</title>
<g id="a_node13"><a xlink:href="resource_8c.html#ae1a91e254baca4f43b7896f54a8d9944" target="_top" xlink:title="coap_notify_observers">
<polygon fill="white" stroke="black" points="528,-18.5 528,-37.5 643,-37.5 643,-18.5 528,-18.5"/>
<text text-anchor="middle" x="585.5" y="-25.5" font-family="Helvetica,sans-Serif" font-size="10.00">coap_notify_observers</text>
</a>
</g>
</g>
<!-- Node395&#45;&gt;Node402 -->
<g id="edge15" class="edge">
<title>Node395&#45;&gt;Node402</title>
<path fill="none" stroke="midnightblue" d="M481.34,-53.96C502.44,-48.65 526.88,-42.5 546.67,-37.52"/>
<polygon fill="midnightblue" stroke="midnightblue" points="480.45,-50.58 471.6,-56.41 482.16,-57.36 480.45,-50.58"/>
</g>
<!-- Node397 -->
<g id="node8" class="node">
<title>Node397</title>
<g id="a_node8"><a xlink:href="net_8h.html#aaac86ac50793f309678e4951ecf8863f" target="_top" xlink:title="For applications with their own message loop, send all pending retransmits and return the list of soc...">
<polygon fill="white" stroke="black" points="868.5,-56.5 868.5,-75.5 932.5,-75.5 932.5,-56.5 868.5,-56.5"/>
<text text-anchor="middle" x="900.5" y="-63.5" font-family="Helvetica,sans-Serif" font-size="10.00">coap_write</text>
</a>
</g>
</g>
<!-- Node396&#45;&gt;Node397 -->
<g id="edge8" class="edge">
<title>Node396&#45;&gt;Node397</title>
<path fill="none" stroke="midnightblue" d="M815.55,-66C834.12,-66 853.12,-66 868.34,-66"/>
<polygon fill="midnightblue" stroke="midnightblue" points="815.3,-62.5 805.3,-66 815.3,-69.5 815.3,-62.5"/>
</g>
<!-- Node398 -->
<g id="node9" class="node">
<title>Node398</title>
<g id="a_node9"><a xlink:href="net_8h.html#a3be92476a2c2c12d68c0cd07795c7e34" target="_top" xlink:title="Any now timed out delayed packet is transmitted, along with any packets associated with requested obs...">
<polygon fill="white" stroke="black" points="996,-94.5 996,-113.5 1109,-113.5 1109,-94.5 996,-94.5"/>
<text text-anchor="middle" x="1052.5" y="-101.5" font-family="Helvetica,sans-Serif" font-size="10.00">coap_io_prepare_epoll</text>
</a>
</g>
</g>
<!-- Node397&#45;&gt;Node398 -->
<g id="edge9" class="edge">
<title>Node397&#45;&gt;Node398</title>
<path fill="none" stroke="midnightblue" d="M942.42,-76.37C964.69,-82.01 992.07,-88.94 1013.82,-94.45"/>
<polygon fill="midnightblue" stroke="midnightblue" points="943.13,-72.94 932.58,-73.87 941.41,-79.72 943.13,-72.94"/>
</g>
<!-- Node399 -->
<g id="node10" class="node">
<title>Node399</title>
<g id="a_node10"><a xlink:href="coap__io_8c.html#a75a7c93e10ca7858449ba304aad4ea37" target="_top" xlink:title="coap_run_once">
<polygon fill="white" stroke="black" points="1282,-94.5 1282,-113.5 1365,-113.5 1365,-94.5 1282,-94.5"/>
<text text-anchor="middle" x="1323.5" y="-101.5" font-family="Helvetica,sans-Serif" font-size="10.00">coap_run_once</text>
</a>
</g>
</g>
<!-- Node397&#45;&gt;Node399 -->
<g id="edge13" class="edge">
<title>Node397&#45;&gt;Node399</title>
<path fill="none" stroke="midnightblue" d="M942.8,-65.78C1007.72,-65.99 1137.43,-68.67 1246,-85 1260.62,-87.2 1276.51,-90.92 1290.01,-94.5"/>
<polygon fill="midnightblue" stroke="midnightblue" points="942.58,-62.28 932.58,-65.76 942.58,-69.28 942.58,-62.28"/>
</g>
<!-- Node401 -->
<g id="node12" class="node">
<title>Node401</title>
<g id="a_node12"><a xlink:href="net_8h.html#a5854b1394bfddd574e48af116e3aaaf9" target="_top" xlink:title="Sends an RST message with code 0 for the specified request to dst. ">
<polygon fill="white" stroke="black" points="1012.5,-18.5 1012.5,-37.5 1092.5,-37.5 1092.5,-18.5 1012.5,-18.5"/>
<text text-anchor="middle" x="1052.5" y="-25.5" font-family="Helvetica,sans-Serif" font-size="10.00">coap_send_rst</text>
</a>
</g>
</g>
<!-- Node397&#45;&gt;Node401 -->
<g id="edge14" class="edge">
<title>Node397&#45;&gt;Node401</title>
<path fill="none" stroke="midnightblue" d="M942.42,-55.63C964.69,-49.99 992.07,-43.06 1013.82,-37.55"/>
<polygon fill="midnightblue" stroke="midnightblue" points="941.41,-52.28 932.58,-58.13 943.13,-59.06 941.41,-52.28"/>
</g>
<!-- Node398&#45;&gt;Node399 -->
<g id="edge10" class="edge">
<title>Node398&#45;&gt;Node399</title>
<path fill="none" stroke="midnightblue" d="M1100.64,-115.71C1114.81,-118.71 1130.45,-121.51 1145,-123 1189.65,-127.59 1201.44,-128.45 1246,-123 1261.21,-121.14 1277.76,-117.27 1291.56,-113.51"/>
<polygon fill="midnightblue" stroke="midnightblue" points="1101.14,-112.24 1090.63,-113.51 1099.64,-119.07 1101.14,-112.24"/>
</g>
<!-- Node400 -->
<g id="node11" class="node">
<title>Node400</title>
<g id="a_node11"><a xlink:href="net_8h.html#a7b591afa095a093b604b63313275a02a" target="_top" xlink:title="Process all the epoll events. ">
<polygon fill="white" stroke="black" points="1145,-94.5 1145,-113.5 1246,-113.5 1246,-94.5 1145,-94.5"/>
<text text-anchor="middle" x="1195.5" y="-101.5" font-family="Helvetica,sans-Serif" font-size="10.00">coap_io_do_events</text>
</a>
</g>
</g>
<!-- Node398&#45;&gt;Node400 -->
<g id="edge11" class="edge">
<title>Node398&#45;&gt;Node400</title>
<path fill="none" stroke="midnightblue" d="M1119.48,-104C1127.95,-104 1136.51,-104 1144.66,-104"/>
<polygon fill="midnightblue" stroke="midnightblue" points="1119.23,-100.5 1109.23,-104 1119.23,-107.5 1119.23,-100.5"/>
</g>
<!-- Node400&#45;&gt;Node399 -->
<g id="edge12" class="edge">
<title>Node400&#45;&gt;Node399</title>
<path fill="none" stroke="midnightblue" d="M1256.4,-104C1265.06,-104 1273.81,-104 1281.97,-104"/>
<polygon fill="midnightblue" stroke="midnightblue" points="1256.3,-100.5 1246.3,-104 1256.3,-107.5 1256.3,-100.5"/>
</g>
<!-- Node403 -->
<g id="node14" class="node">
<title>Node403</title>
<g id="a_node14"><a xlink:href="resource_8h.html#a579bcb559463d3a872831c18d8d9a1c1" target="_top" xlink:title="Checks for all known resources, if they are dirty and notifies subscribed observers. ">
<polygon fill="white" stroke="black" points="693,-18.5 693,-37.5 791,-37.5 791,-18.5 693,-18.5"/>
<text text-anchor="middle" x="742" y="-25.5" font-family="Helvetica,sans-Serif" font-size="10.00">coap_check_notify</text>
</a>
</g>
</g>
<!-- Node402&#45;&gt;Node403 -->
<g id="edge16" class="edge">
<title>Node402&#45;&gt;Node403</title>
<path fill="none" stroke="midnightblue" d="M653.26,-28C666.62,-28 680.41,-28 692.99,-28"/>
<polygon fill="midnightblue" stroke="midnightblue" points="653.15,-24.5 643.15,-28 653.15,-31.5 653.15,-24.5"/>
</g>
<!-- Node403&#45;&gt;Node397 -->
<g id="edge17" class="edge">
<title>Node403&#45;&gt;Node397</title>
<path fill="none" stroke="midnightblue" d="M792.48,-40.02C817.35,-46.05 846.73,-53.19 868.41,-58.45"/>
<polygon fill="midnightblue" stroke="midnightblue" points="793.04,-36.55 782.49,-37.59 791.38,-43.35 793.04,-36.55"/>
</g>
<!-- Node404 -->
<g id="node15" class="node">
<title>Node404</title>
<g id="a_node15"><a xlink:href="net_8h.html#a09ff95ae16a4b7f6abf4a0822d430658" target="_top" xlink:title="Function interface for joining a multicast group for listening. ">
<polygon fill="white" stroke="black" points="841,-0.5 841,-19.5 960,-19.5 960,-0.5 841,-0.5"/>
<text text-anchor="middle" x="900.5" y="-7.5" font-family="Helvetica,sans-Serif" font-size="10.00">coap_join_mcast_group</text>
</a>
</g>
</g>
<!-- Node403&#45;&gt;Node404 -->
<g id="edge18" class="edge">
<title>Node403&#45;&gt;Node404</title>
<path fill="none" stroke="midnightblue" d="M801.4,-21.28C814.33,-19.8 828.03,-18.22 840.96,-16.73"/>
<polygon fill="midnightblue" stroke="midnightblue" points="800.77,-17.83 791.23,-22.45 801.57,-24.79 800.77,-17.83"/>
</g>
<!-- Node404&#45;&gt;Node404 -->
<g id="edge19" class="edge">
<title>Node404&#45;&gt;Node404</title>
<path fill="none" stroke="midnightblue" d="M872.13,-28.65C873.31,-33.94 882.77,-38 900.5,-38 927.52,-38 935.32,-28.57 923.93,-19.76"/>
<polygon fill="midnightblue" stroke="midnightblue" points="875.27,-30.2 877.07,-19.76 869.16,-26.8 875.27,-30.2"/>
</g>
</g>
</svg>
