<?xml version="1.0" encoding="UTF-8" standalone="no"?>
<!DOCTYPE svg PUBLIC "-//W3C//DTD SVG 1.1//EN"
 "http://www.w3.org/Graphics/SVG/1.1/DTD/svg11.dtd">
<!-- Generated by graphviz version 2.43.0 (0)
 -->
<!-- Title: coap_handle_dgram_for_proto Pages: 1 -->
<!--zoomable 254 -->
<svg id="main" version="1.1" xmlns="http://www.w3.org/2000/svg" xmlns:xlink="http://www.w3.org/1999/xlink" xml:space="preserve" onload="init(evt)">
<style type="text/css"><![CDATA[
.edge:hover path { stroke: red; }
.edge:hover polygon { stroke: red; fill: red; }
]]></style>
<script type="text/javascript"><![CDATA[
var edges = document.getElementsByTagName('g');
if (edges && edges.length) {
  for (var i=0;i<edges.length;i++) {
    if (edges[i].id.substr(0,4)=='edge') {
      edges[i].setAttribute('class','edge');
    }
  }
}
]]></script>
        <defs>
                <circle id="rim" cx="0" cy="0" r="7"/>
                <circle id="rim2" cx="0" cy="0" r="3.5"/>
                <g id="zoomPlus">
                        <use xlink:href="#rim" fill="#404040">
                                <set attributeName="fill" to="#808080" begin="zoomplus.mouseover" end="zoomplus.mouseout"/>
                        </use>
                        <path d="M-4,0h8M0,-4v8" fill="none" stroke="white" stroke-width="1.5" pointer-events="none"/>
                </g>
                <g id="zoomMin">
                        <use xlink:href="#rim" fill="#404040">
                                <set attributeName="fill" to="#808080" begin="zoomminus.mouseover" end="zoomminus.mouseout"/>
                        </use>
                        <path d="M-4,0h8" fill="none" stroke="white" stroke-width="1.5" pointer-events="none"/>
                </g>
                <g id="dirArrow">
                        <path fill="none" stroke="white" stroke-width="1.5" d="M0,-3.0v7 M-2.5,-0.5L0,-3.0L2.5,-0.5"/>
                </g>
               <g id="resetDef">
                       <use xlink:href="#rim2" fill="#404040">
                               <set attributeName="fill" to="#808080" begin="reset.mouseover" end="reset.mouseout"/>
                       </use>
               </g>
        </defs>

<script type="text/javascript">
var viewWidth = 1048;
var viewHeight = 254;
var sectionId = 'dynsection-39';
</script>
<script xlink:href="svgpan.js"/>
<svg id="graph" class="graph">
<g id="viewport">
<title>coap_handle_dgram_for_proto</title>
<polygon fill="white" stroke="transparent" points="-4,4 -4,-250 1044,-250 1044,4 -4,4"/>
<!-- Node1121 -->
<g id="node1" class="node">
<title>Node1121</title>
<polygon fill="#bfbfbf" stroke="black" points="0,-23 0,-53 120,-53 120,-23 0,-23"/>
<text text-anchor="start" x="8" y="-41" font-family="Helvetica,sans-Serif" font-size="10.00">coap_handle_dgram_for</text>
<text text-anchor="middle" x="60" y="-30" font-family="Helvetica,sans-Serif" font-size="10.00">_proto</text>
</g>
<!-- Node1122 -->
<g id="node2" class="node">
<title>Node1122</title>
<g id="a_node2"><a xlink:href="net_8c.html#acd36f6fba6d30ab9557e0e6521f4a088" target="_top" xlink:title="coap_read_session">
<polygon fill="white" stroke="black" points="157.5,-47.5 157.5,-66.5 258.5,-66.5 258.5,-47.5 157.5,-47.5"/>
<text text-anchor="middle" x="208" y="-54.5" font-family="Helvetica,sans-Serif" font-size="10.00">coap_read_session</text>
</a>
</g>
</g>
<!-- Node1121&#45;&gt;Node1122 -->
<g id="edge1" class="edge">
<title>Node1121&#45;&gt;Node1122</title>
<path fill="none" stroke="midnightblue" d="M130.58,-47.05C139.66,-48.24 148.81,-49.43 157.47,-50.55"/>
<polygon fill="midnightblue" stroke="midnightblue" points="130.75,-43.55 120.38,-45.73 129.85,-50.49 130.75,-43.55"/>
</g>
<!-- Node1131 -->
<g id="node11" class="node">
<title>Node1131</title>
<g id="a_node11"><a xlink:href="net_8c.html#a44ffb4b70e537043e9a9cf344be24b92" target="_top" xlink:title="coap_read_endpoint">
<polygon fill="white" stroke="black" points="156,-9.5 156,-28.5 260,-28.5 260,-9.5 156,-9.5"/>
<text text-anchor="middle" x="208" y="-16.5" font-family="Helvetica,sans-Serif" font-size="10.00">coap_read_endpoint</text>
</a>
</g>
</g>
<!-- Node1121&#45;&gt;Node1131 -->
<g id="edge17" class="edge">
<title>Node1121&#45;&gt;Node1131</title>
<path fill="none" stroke="midnightblue" d="M130.33,-28.98C138.85,-27.87 147.44,-26.75 155.63,-25.69"/>
<polygon fill="midnightblue" stroke="midnightblue" points="129.85,-25.51 120.38,-30.27 130.75,-32.45 129.85,-25.51"/>
</g>
<!-- Node1123 -->
<g id="node3" class="node">
<title>Node1123</title>
<g id="a_node3"><a xlink:href="net_8h.html#a0748d791fd2af516dd93fbadb660d440" target="_top" xlink:title="For applications with their own message loop, reads all data from the network. ">
<polygon fill="white" stroke="black" points="296,-66.5 296,-85.5 358,-85.5 358,-66.5 296,-66.5"/>
<text text-anchor="middle" x="327" y="-73.5" font-family="Helvetica,sans-Serif" font-size="10.00">coap_read</text>
</a>
</g>
</g>
<!-- Node1122&#45;&gt;Node1123 -->
<g id="edge2" class="edge">
<title>Node1122&#45;&gt;Node1123</title>
<path fill="none" stroke="midnightblue" d="M268.52,-66.67C278.04,-68.21 287.53,-69.75 295.98,-71.12"/>
<polygon fill="midnightblue" stroke="midnightblue" points="269.05,-63.21 258.62,-65.06 267.93,-70.12 269.05,-63.21"/>
</g>
<!-- Node1128 -->
<g id="node8" class="node">
<title>Node1128</title>
<g id="a_node8"><a xlink:href="net_8h.html#a7b591afa095a093b604b63313275a02a" target="_top" xlink:title="Process all the epoll events. ">
<polygon fill="white" stroke="black" points="820,-75.5 820,-94.5 921,-94.5 921,-75.5 820,-75.5"/>
<text text-anchor="middle" x="870.5" y="-82.5" font-family="Helvetica,sans-Serif" font-size="10.00">coap_io_do_events</text>
</a>
</g>
</g>
<!-- Node1122&#45;&gt;Node1128 -->
<g id="edge16" class="edge">
<title>Node1122&#45;&gt;Node1128</title>
<path fill="none" stroke="midnightblue" d="M268.98,-49.23C314.67,-43.98 379.2,-38 436,-38 436,-38 436,-38 576.5,-38 670.26,-38 778.8,-61.76 833.71,-75.49"/>
<polygon fill="midnightblue" stroke="midnightblue" points="268.47,-45.77 258.94,-50.41 269.28,-52.72 268.47,-45.77"/>
</g>
<!-- Node1124 -->
<g id="node4" class="node">
<title>Node1124</title>
<g id="a_node4"><a xlink:href="coap__io_8c.html#a75a7c93e10ca7858449ba304aad4ea37" target="_top" xlink:title="coap_run_once">
<polygon fill="white" stroke="black" points="957,-179.5 957,-198.5 1040,-198.5 1040,-179.5 957,-179.5"/>
<text text-anchor="middle" x="998.5" y="-186.5" font-family="Helvetica,sans-Serif" font-size="10.00">coap_run_once</text>
</a>
</g>
</g>
<!-- Node1123&#45;&gt;Node1124 -->
<g id="edge3" class="edge">
<title>Node1123&#45;&gt;Node1124</title>
<path fill="none" stroke="midnightblue" d="M339.05,-94.41C350.88,-112.96 371.06,-141.55 394,-161 461.64,-218.34 485.83,-246 574.5,-246 574.5,-246 574.5,-246 728.5,-246 818.96,-246 922.9,-214.77 970.79,-198.54"/>
<polygon fill="midnightblue" stroke="midnightblue" points="341.91,-92.38 333.66,-85.73 335.96,-96.07 341.91,-92.38"/>
</g>
<!-- Node1125 -->
<g id="node5" class="node">
<title>Node1125</title>
<g id="a_node5"><a xlink:href="net_8h.html#a9900c032b74bd57f67d489484a2b3207" target="_top" xlink:title="Handles retransmissions of confirmable messages. ">
<polygon fill="white" stroke="black" points="394,-132.5 394,-151.5 480,-151.5 480,-132.5 394,-132.5"/>
<text text-anchor="middle" x="437" y="-139.5" font-family="Helvetica,sans-Serif" font-size="10.00">coap_retransmit</text>
</a>
</g>
</g>
<!-- Node1123&#45;&gt;Node1125 -->
<g id="edge4" class="edge">
<title>Node1123&#45;&gt;Node1125</title>
<path fill="none" stroke="midnightblue" d="M352.56,-91.01C373.37,-103.73 402.58,-121.58 420.35,-132.44"/>
<polygon fill="midnightblue" stroke="midnightblue" points="354.29,-87.97 343.94,-85.74 350.64,-93.94 354.29,-87.97"/>
</g>
<!-- Node1129 -->
<g id="node9" class="node">
<title>Node1129</title>
<g id="a_node9"><a xlink:href="net_8h.html#a5854b1394bfddd574e48af116e3aaaf9" target="_top" xlink:title="Sends an RST message with code 0 for the specified request to dst. ">
<polygon fill="white" stroke="black" points="687.5,-122.5 687.5,-141.5 767.5,-141.5 767.5,-122.5 687.5,-122.5"/>
<text text-anchor="middle" x="727.5" y="-129.5" font-family="Helvetica,sans-Serif" font-size="10.00">coap_send_rst</text>
</a>
</g>
</g>
<!-- Node1123&#45;&gt;Node1129 -->
<g id="edge15" class="edge">
<title>Node1123&#45;&gt;Node1129</title>
<path fill="none" stroke="midnightblue" d="M368.14,-74.41C427.34,-72.98 541.17,-73.72 635,-95 661.24,-100.95 689.71,-113.52 707.8,-122.35"/>
<polygon fill="midnightblue" stroke="midnightblue" points="367.99,-70.91 358.09,-74.69 368.18,-77.91 367.99,-70.91"/>
</g>
<!-- Node1126 -->
<g id="node6" class="node">
<title>Node1126</title>
<g id="a_node6"><a xlink:href="net_8h.html#aaac86ac50793f309678e4951ecf8863f" target="_top" xlink:title="For applications with their own message loop, send all pending retransmits and return the list of soc...">
<polygon fill="white" stroke="black" points="543.5,-198.5 543.5,-217.5 607.5,-217.5 607.5,-198.5 543.5,-198.5"/>
<text text-anchor="middle" x="575.5" y="-205.5" font-family="Helvetica,sans-Serif" font-size="10.00">coap_write</text>
</a>
</g>
</g>
<!-- Node1125&#45;&gt;Node1126 -->
<g id="edge5" class="edge">
<title>Node1125&#45;&gt;Node1126</title>
<path fill="none" stroke="midnightblue" d="M463.23,-156.46C478.34,-164.89 498.04,-175.51 516,-184 526.82,-189.11 539.03,-194.22 549.49,-198.41"/>
<polygon fill="midnightblue" stroke="midnightblue" points="464.91,-153.38 454.48,-151.52 461.47,-159.48 464.91,-153.38"/>
</g>
<!-- Node1125&#45;&gt;Node1129 -->
<g id="edge14" class="edge">
<title>Node1125&#45;&gt;Node1129</title>
<path fill="none" stroke="midnightblue" d="M490.03,-148.84C498.69,-149.74 507.59,-150.52 516,-151 568.8,-154.04 582.39,-156.4 635,-151 653.08,-149.14 672.85,-145.27 689.37,-141.51"/>
<polygon fill="midnightblue" stroke="midnightblue" points="490.35,-145.36 480.02,-147.75 489.58,-152.32 490.35,-145.36"/>
</g>
<!-- Node1130 -->
<g id="node10" class="node">
<title>Node1130</title>
<g id="a_node10"><a xlink:href="net_8h.html#a09ff95ae16a4b7f6abf4a0822d430658" target="_top" xlink:title="Function interface for joining a multicast group for listening. ">
<polygon fill="white" stroke="black" points="516,-104.5 516,-123.5 635,-123.5 635,-104.5 516,-104.5"/>
<text text-anchor="middle" x="575.5" y="-111.5" font-family="Helvetica,sans-Serif" font-size="10.00">coap_join_mcast_group</text>
</a>
</g>
</g>
<!-- Node1125&#45;&gt;Node1130 -->
<g id="edge12" class="edge">
<title>Node1125&#45;&gt;Node1130</title>
<path fill="none" stroke="midnightblue" d="M489.92,-131.35C502.46,-128.78 515.78,-126.04 528.05,-123.53"/>
<polygon fill="midnightblue" stroke="midnightblue" points="489.16,-127.93 480.07,-133.37 490.57,-134.79 489.16,-127.93"/>
</g>
<!-- Node1126&#45;&gt;Node1124 -->
<g id="edge10" class="edge">
<title>Node1126&#45;&gt;Node1124</title>
<path fill="none" stroke="midnightblue" d="M618.07,-206.64C682.83,-204.45 811.72,-199.79 921,-194 932.56,-193.39 945.1,-192.61 956.62,-191.86"/>
<polygon fill="midnightblue" stroke="midnightblue" points="617.74,-203.15 607.86,-206.98 617.97,-210.15 617.74,-203.15"/>
</g>
<!-- Node1127 -->
<g id="node7" class="node">
<title>Node1127</title>
<g id="a_node7"><a xlink:href="net_8h.html#a3be92476a2c2c12d68c0cd07795c7e34" target="_top" xlink:title="Any now timed out delayed packet is transmitted, along with any packets associated with requested obs...">
<polygon fill="white" stroke="black" points="671,-160.5 671,-179.5 784,-179.5 784,-160.5 671,-160.5"/>
<text text-anchor="middle" x="727.5" y="-167.5" font-family="Helvetica,sans-Serif" font-size="10.00">coap_io_prepare_epoll</text>
</a>
</g>
</g>
<!-- Node1126&#45;&gt;Node1127 -->
<g id="edge6" class="edge">
<title>Node1126&#45;&gt;Node1127</title>
<path fill="none" stroke="midnightblue" d="M617.42,-197.63C639.69,-191.99 667.07,-185.06 688.82,-179.55"/>
<polygon fill="midnightblue" stroke="midnightblue" points="616.41,-194.28 607.58,-200.13 618.13,-201.06 616.41,-194.28"/>
</g>
<!-- Node1126&#45;&gt;Node1129 -->
<g id="edge11" class="edge">
<title>Node1126&#45;&gt;Node1129</title>
<path fill="none" stroke="midnightblue" d="M614.81,-194.57C621.75,-191.5 628.76,-187.96 635,-184 653.32,-172.37 652.34,-162.08 671,-151 677.3,-147.26 684.45,-144.11 691.47,-141.53"/>
<polygon fill="midnightblue" stroke="midnightblue" points="613.36,-191.38 605.47,-198.45 616.04,-197.84 613.36,-191.38"/>
</g>
<!-- Node1127&#45;&gt;Node1124 -->
<g id="edge7" class="edge">
<title>Node1127&#45;&gt;Node1124</title>
<path fill="none" stroke="midnightblue" d="M794.46,-174.66C845.2,-178.24 913.7,-183.08 956.73,-186.12"/>
<polygon fill="midnightblue" stroke="midnightblue" points="794.46,-171.15 784.24,-173.94 793.97,-178.13 794.46,-171.15"/>
</g>
<!-- Node1127&#45;&gt;Node1128 -->
<g id="edge8" class="edge">
<title>Node1127&#45;&gt;Node1128</title>
<path fill="none" stroke="midnightblue" d="M771.54,-156.85C775.84,-155.07 780.06,-153.12 784,-151 813.89,-134.92 844.25,-108.58 859.48,-94.53"/>
<polygon fill="midnightblue" stroke="midnightblue" points="770.2,-153.62 762.12,-160.47 772.71,-160.15 770.2,-153.62"/>
</g>
<!-- Node1128&#45;&gt;Node1124 -->
<g id="edge9" class="edge">
<title>Node1128&#45;&gt;Node1124</title>
<path fill="none" stroke="midnightblue" d="M890.98,-101.08C917.54,-123 964.26,-161.57 985.9,-179.43"/>
<polygon fill="midnightblue" stroke="midnightblue" points="893.07,-98.26 883.13,-94.6 888.61,-103.66 893.07,-98.26"/>
</g>
<!-- Node1130&#45;&gt;Node1130 -->
<g id="edge13" class="edge">
<title>Node1130&#45;&gt;Node1130</title>
<path fill="none" stroke="midnightblue" d="M549.83,-133.03C551.23,-138.13 559.79,-142 575.5,-142 600.03,-142 607.12,-132.57 596.77,-123.76"/>
<polygon fill="midnightblue" stroke="midnightblue" points="553.11,-134.29 554.23,-123.76 546.78,-131.29 553.11,-134.29"/>
</g>
<!-- Node1131&#45;&gt;Node1123 -->
<g id="edge18" class="edge">
<title>Node1131&#45;&gt;Node1123</title>
<path fill="none" stroke="midnightblue" d="M246.49,-32.15C251.09,-34 255.68,-35.97 260,-38 278.07,-46.5 297.78,-58.19 310.92,-66.35"/>
<polygon fill="midnightblue" stroke="midnightblue" points="247.73,-28.88 237.14,-28.53 245.2,-35.41 247.73,-28.88"/>
</g>
<!-- Node1131&#45;&gt;Node1128 -->
<g id="edge19" class="edge">
<title>Node1131&#45;&gt;Node1128</title>
<path fill="none" stroke="midnightblue" d="M270.31,-11.08C315.92,-5.87 379.75,0 436,0 436,0 436,0 576.5,0 670.42,0 695.38,-8.9 784,-40 810.12,-49.16 838.09,-65.21 854.67,-75.46"/>
<polygon fill="midnightblue" stroke="midnightblue" points="269.81,-7.61 260.29,-12.25 270.62,-14.57 269.81,-7.61"/>
</g>
</g>
</svg>
        <g id="navigator" transform="translate(0 0)" fill="#404254">
                <rect fill="#f2f5e9" fill-opacity="0.5" stroke="#606060" stroke-width=".5" x="0" y="0" width="60" height="60"/>
                <use id="zoomplus" xlink:href="#zoomPlus" x="17" y="9" onmousedown="handleZoom(evt,'in')"/>
                <use id="zoomminus" xlink:href="#zoomMin" x="42" y="9" onmousedown="handleZoom(evt,'out')"/>
                <use id="reset" xlink:href="#resetDef" x="30" y="36" onmousedown="handleReset()"/>
                <g id="arrowUp" xlink:href="#dirArrow" transform="translate(30 24)" onmousedown="handlePan(0,-1)">
                  <use xlink:href="#rim" fill="#404040">
                        <set attributeName="fill" to="#808080" begin="arrowUp.mouseover" end="arrowUp.mouseout"/>
                  </use>
                  <path fill="none" stroke="white" stroke-width="1.5" d="M0,-3.0v7 M-2.5,-0.5L0,-3.0L2.5,-0.5"/>
                </g>
                <g id="arrowRight" xlink:href="#dirArrow" transform="rotate(90) translate(36 -43)" onmousedown="handlePan(1,0)">
                  <use xlink:href="#rim" fill="#404040">
                        <set attributeName="fill" to="#808080" begin="arrowRight.mouseover" end="arrowRight.mouseout"/>
                  </use>
                  <path fill="none" stroke="white" stroke-width="1.5" d="M0,-3.0v7 M-2.5,-0.5L0,-3.0L2.5,-0.5"/>
                </g>
                <g id="arrowDown" xlink:href="#dirArrow" transform="rotate(180) translate(-30 -48)" onmousedown="handlePan(0,1)">
                  <use xlink:href="#rim" fill="#404040">
                        <set attributeName="fill" to="#808080" begin="arrowDown.mouseover" end="arrowDown.mouseout"/>
                  </use>
                  <path fill="none" stroke="white" stroke-width="1.5" d="M0,-3.0v7 M-2.5,-0.5L0,-3.0L2.5,-0.5"/>
                </g>
                <g id="arrowLeft" xlink:href="#dirArrow" transform="rotate(270) translate(-36 17)" onmousedown="handlePan(-1,0)">
                  <use xlink:href="#rim" fill="#404040">
                        <set attributeName="fill" to="#808080" begin="arrowLeft.mouseover" end="arrowLeft.mouseout"/>
                  </use>
                  <path fill="none" stroke="white" stroke-width="1.5" d="M0,-3.0v7 M-2.5,-0.5L0,-3.0L2.5,-0.5"/>
                </g>
        </g>
        <svg viewBox="0 0 15 15" width="100%" height="30px" preserveAspectRatio="xMaxYMin meet">
         <g id="arrow_out" transform="scale(0.3 0.3)">
          <a xlink:href="net_8c_a8534f7860b14e0743529daff196a27ce_icgraph_org.svg" target="_base">
           <rect id="button" ry="5" rx="5" y="6" x="6" height="38" width="38"
                fill="#f2f5e9" fill-opacity="0.5" stroke="#606060" stroke-width="1.0"/>
           <path id="arrow"
             d="M 11.500037,31.436501 C 11.940474,20.09759 22.043105,11.32322 32.158766,21.979434 L 37.068811,17.246167 C 37.068811,17.246167 37.088388,32 37.088388,32 L 22.160133,31.978069 C 22.160133,31.978069 26.997745,27.140456 26.997745,27.140456 C 18.528582,18.264221 13.291696,25.230495 11.500037,31.436501 z"
             style="fill:#404040;"/>
          </a>
         </g>
        </svg>
</svg>
