<?xml version="1.0" encoding="UTF-8" standalone="no"?>
<!DOCTYPE svg PUBLIC "-//W3C//DTD SVG 1.1//EN"
 "http://www.w3.org/Graphics/SVG/1.1/DTD/svg11.dtd">
<!-- Generated by graphviz version 2.43.0 (0)
 -->
<!-- Title: coap_write_endpoint Pages: 1 -->
<!--zoomable 216 -->
<svg id="main" version="1.1" xmlns="http://www.w3.org/2000/svg" xmlns:xlink="http://www.w3.org/1999/xlink" xml:space="preserve" onload="init(evt)">
<style type="text/css"><![CDATA[
.edge:hover path { stroke: red; }
.edge:hover polygon { stroke: red; fill: red; }
]]></style>
<script type="text/javascript"><![CDATA[
var edges = document.getElementsByTagName('g');
if (edges && edges.length) {
  for (var i=0;i<edges.length;i++) {
    if (edges[i].id.substr(0,4)=='edge') {
      edges[i].setAttribute('class','edge');
    }
  }
}
]]></script>
        <defs>
                <circle id="rim" cx="0" cy="0" r="7"/>
                <circle id="rim2" cx="0" cy="0" r="3.5"/>
                <g id="zoomPlus">
                        <use xlink:href="#rim" fill="#404040">
                                <set attributeName="fill" to="#808080" begin="zoomplus.mouseover" end="zoomplus.mouseout"/>
                        </use>
                        <path d="M-4,0h8M0,-4v8" fill="none" stroke="white" stroke-width="1.5" pointer-events="none"/>
                </g>
                <g id="zoomMin">
                        <use xlink:href="#rim" fill="#404040">
                                <set attributeName="fill" to="#808080" begin="zoomminus.mouseover" end="zoomminus.mouseout"/>
                        </use>
                        <path d="M-4,0h8" fill="none" stroke="white" stroke-width="1.5" pointer-events="none"/>
                </g>
                <g id="dirArrow">
                        <path fill="none" stroke="white" stroke-width="1.5" d="M0,-3.0v7 M-2.5,-0.5L0,-3.0L2.5,-0.5"/>
                </g>
               <g id="resetDef">
                       <use xlink:href="#rim2" fill="#404040">
                               <set attributeName="fill" to="#808080" begin="reset.mouseover" end="reset.mouseout"/>
                       </use>
               </g>
        </defs>

<script type="text/javascript">
var viewWidth = 894;
var viewHeight = 216;
var sectionId = 'dynsection-87';
</script>
<script xlink:href="svgpan.js"/>
<svg id="graph" class="graph">
<g id="viewport">
<title>coap_write_endpoint</title>
<polygon fill="white" stroke="transparent" points="-4,4 -4,-212 890,-212 890,4 -4,4"/>
<!-- Node3238 -->
<g id="node1" class="node">
<title>Node3238</title>
<polygon fill="#bfbfbf" stroke="black" points="0,-9.5 0,-28.5 106,-28.5 106,-9.5 0,-9.5"/>
<text text-anchor="middle" x="53" y="-16.5" font-family="Helvetica,sans-Serif" font-size="10.00">coap_write_endpoint</text>
</g>
<!-- Node3239 -->
<g id="node2" class="node">
<title>Node3239</title>
<g id="a_node2"><a xlink:href="net_8h.html#a0748d791fd2af516dd93fbadb660d440" target="_top" xlink:title="For applications with their own message loop, reads all data from the network. ">
<polygon fill="white" stroke="black" points="142,-61.5 142,-80.5 204,-80.5 204,-61.5 142,-61.5"/>
<text text-anchor="middle" x="173" y="-68.5" font-family="Helvetica,sans-Serif" font-size="10.00">coap_read</text>
</a>
</g>
</g>
<!-- Node3238&#45;&gt;Node3239 -->
<g id="edge1" class="edge">
<title>Node3238&#45;&gt;Node3239</title>
<path fill="none" stroke="midnightblue" d="M84.88,-32.61C105.36,-41.63 131.75,-53.26 150.09,-61.35"/>
<polygon fill="midnightblue" stroke="midnightblue" points="86.21,-29.37 75.64,-28.54 83.38,-35.77 86.21,-29.37"/>
</g>
<!-- Node3244 -->
<g id="node7" class="node">
<title>Node3244</title>
<g id="a_node7"><a xlink:href="net_8h.html#a7b591afa095a093b604b63313275a02a" target="_top" xlink:title="Process all the epoll events. ">
<polygon fill="white" stroke="black" points="666,-84.5 666,-103.5 767,-103.5 767,-84.5 666,-84.5"/>
<text text-anchor="middle" x="716.5" y="-91.5" font-family="Helvetica,sans-Serif" font-size="10.00">coap_io_do_events</text>
</a>
</g>
</g>
<!-- Node3238&#45;&gt;Node3244 -->
<g id="edge15" class="edge">
<title>Node3238&#45;&gt;Node3244</title>
<path fill="none" stroke="midnightblue" d="M116.48,-10.98C162.23,-5.79 225.87,0 282,0 282,0 282,0 422.5,0 532.28,0 654.62,-60.57 698.61,-84.47"/>
<polygon fill="midnightblue" stroke="midnightblue" points="115.95,-7.51 106.42,-12.14 116.76,-14.47 115.95,-7.51"/>
</g>
<!-- Node3240 -->
<g id="node3" class="node">
<title>Node3240</title>
<g id="a_node3"><a xlink:href="coap__io_8c.html#a75a7c93e10ca7858449ba304aad4ea37" target="_top" xlink:title="coap_run_once">
<polygon fill="white" stroke="black" points="803,-141.5 803,-160.5 886,-160.5 886,-141.5 803,-141.5"/>
<text text-anchor="middle" x="844.5" y="-148.5" font-family="Helvetica,sans-Serif" font-size="10.00">coap_run_once</text>
</a>
</g>
</g>
<!-- Node3239&#45;&gt;Node3240 -->
<g id="edge2" class="edge">
<title>Node3239&#45;&gt;Node3240</title>
<path fill="none" stroke="midnightblue" d="M190.76,-88.38C228.21,-125.25 323.09,-208 420.5,-208 420.5,-208 420.5,-208 574.5,-208 664.96,-208 768.9,-176.77 816.79,-160.54"/>
<polygon fill="midnightblue" stroke="midnightblue" points="192.8,-85.47 183.27,-80.85 187.84,-90.41 192.8,-85.47"/>
</g>
<!-- Node3241 -->
<g id="node4" class="node">
<title>Node3241</title>
<g id="a_node4"><a xlink:href="net_8h.html#a9900c032b74bd57f67d489484a2b3207" target="_top" xlink:title="Handles retransmissions of confirmable messages. ">
<polygon fill="white" stroke="black" points="240,-94.5 240,-113.5 326,-113.5 326,-94.5 240,-94.5"/>
<text text-anchor="middle" x="283" y="-101.5" font-family="Helvetica,sans-Serif" font-size="10.00">coap_retransmit</text>
</a>
</g>
</g>
<!-- Node3239&#45;&gt;Node3241 -->
<g id="edge3" class="edge">
<title>Node3239&#45;&gt;Node3241</title>
<path fill="none" stroke="midnightblue" d="M213.94,-83.2C226.03,-86.9 239.12,-90.9 250.57,-94.4"/>
<polygon fill="midnightblue" stroke="midnightblue" points="214.67,-79.77 204.08,-80.19 212.62,-86.46 214.67,-79.77"/>
</g>
<!-- Node3245 -->
<g id="node8" class="node">
<title>Node3245</title>
<g id="a_node8"><a xlink:href="net_8h.html#a5854b1394bfddd574e48af116e3aaaf9" target="_top" xlink:title="Sends an RST message with code 0 for the specified request to dst. ">
<polygon fill="white" stroke="black" points="533.5,-84.5 533.5,-103.5 613.5,-103.5 613.5,-84.5 533.5,-84.5"/>
<text text-anchor="middle" x="573.5" y="-91.5" font-family="Helvetica,sans-Serif" font-size="10.00">coap_send_rst</text>
</a>
</g>
</g>
<!-- Node3239&#45;&gt;Node3245 -->
<g id="edge14" class="edge">
<title>Node3239&#45;&gt;Node3245</title>
<path fill="none" stroke="midnightblue" d="M214.47,-63.13C273.62,-52.99 386.88,-38.69 481,-57 507.74,-62.2 536.56,-75.22 554.56,-84.33"/>
<polygon fill="midnightblue" stroke="midnightblue" points="213.65,-59.72 204.41,-64.91 214.87,-66.62 213.65,-59.72"/>
</g>
<!-- Node3242 -->
<g id="node5" class="node">
<title>Node3242</title>
<g id="a_node5"><a xlink:href="net_8h.html#aaac86ac50793f309678e4951ecf8863f" target="_top" xlink:title="For applications with their own message loop, send all pending retransmits and return the list of soc...">
<polygon fill="white" stroke="black" points="389.5,-160.5 389.5,-179.5 453.5,-179.5 453.5,-160.5 389.5,-160.5"/>
<text text-anchor="middle" x="421.5" y="-167.5" font-family="Helvetica,sans-Serif" font-size="10.00">coap_write</text>
</a>
</g>
</g>
<!-- Node3241&#45;&gt;Node3242 -->
<g id="edge4" class="edge">
<title>Node3241&#45;&gt;Node3242</title>
<path fill="none" stroke="midnightblue" d="M309.23,-118.46C324.34,-126.89 344.04,-137.51 362,-146 372.82,-151.11 385.03,-156.22 395.49,-160.41"/>
<polygon fill="midnightblue" stroke="midnightblue" points="310.91,-115.38 300.48,-113.52 307.47,-121.48 310.91,-115.38"/>
</g>
<!-- Node3241&#45;&gt;Node3245 -->
<g id="edge13" class="edge">
<title>Node3241&#45;&gt;Node3245</title>
<path fill="none" stroke="midnightblue" d="M336.03,-110.84C344.69,-111.74 353.59,-112.52 362,-113 414.8,-116.04 428.39,-118.4 481,-113 499.08,-111.14 518.85,-107.27 535.37,-103.51"/>
<polygon fill="midnightblue" stroke="midnightblue" points="336.35,-107.36 326.02,-109.75 335.58,-114.32 336.35,-107.36"/>
</g>
<!-- Node3246 -->
<g id="node9" class="node">
<title>Node3246</title>
<g id="a_node9"><a xlink:href="net_8h.html#a09ff95ae16a4b7f6abf4a0822d430658" target="_top" xlink:title="Function interface for joining a multicast group for listening. ">
<polygon fill="white" stroke="black" points="362,-66.5 362,-85.5 481,-85.5 481,-66.5 362,-66.5"/>
<text text-anchor="middle" x="421.5" y="-73.5" font-family="Helvetica,sans-Serif" font-size="10.00">coap_join_mcast_group</text>
</a>
</g>
</g>
<!-- Node3241&#45;&gt;Node3246 -->
<g id="edge11" class="edge">
<title>Node3241&#45;&gt;Node3246</title>
<path fill="none" stroke="midnightblue" d="M335.92,-93.35C348.46,-90.78 361.78,-88.04 374.05,-85.53"/>
<polygon fill="midnightblue" stroke="midnightblue" points="335.16,-89.93 326.07,-95.37 336.57,-96.79 335.16,-89.93"/>
</g>
<!-- Node3242&#45;&gt;Node3240 -->
<g id="edge9" class="edge">
<title>Node3242&#45;&gt;Node3240</title>
<path fill="none" stroke="midnightblue" d="M464.07,-168.64C528.83,-166.45 657.72,-161.79 767,-156 778.56,-155.39 791.1,-154.61 802.62,-153.86"/>
<polygon fill="midnightblue" stroke="midnightblue" points="463.74,-165.15 453.86,-168.98 463.97,-172.15 463.74,-165.15"/>
</g>
<!-- Node3243 -->
<g id="node6" class="node">
<title>Node3243</title>
<g id="a_node6"><a xlink:href="net_8h.html#a3be92476a2c2c12d68c0cd07795c7e34" target="_top" xlink:title="Any now timed out delayed packet is transmitted, along with any packets associated with requested obs...">
<polygon fill="white" stroke="black" points="517,-122.5 517,-141.5 630,-141.5 630,-122.5 517,-122.5"/>
<text text-anchor="middle" x="573.5" y="-129.5" font-family="Helvetica,sans-Serif" font-size="10.00">coap_io_prepare_epoll</text>
</a>
</g>
</g>
<!-- Node3242&#45;&gt;Node3243 -->
<g id="edge5" class="edge">
<title>Node3242&#45;&gt;Node3243</title>
<path fill="none" stroke="midnightblue" d="M463.42,-159.63C485.69,-153.99 513.07,-147.06 534.82,-141.55"/>
<polygon fill="midnightblue" stroke="midnightblue" points="462.41,-156.28 453.58,-162.13 464.13,-163.06 462.41,-156.28"/>
</g>
<!-- Node3242&#45;&gt;Node3245 -->
<g id="edge10" class="edge">
<title>Node3242&#45;&gt;Node3245</title>
<path fill="none" stroke="midnightblue" d="M460.81,-156.57C467.75,-153.5 474.76,-149.96 481,-146 499.32,-134.37 498.34,-124.08 517,-113 523.3,-109.26 530.45,-106.11 537.47,-103.53"/>
<polygon fill="midnightblue" stroke="midnightblue" points="459.36,-153.38 451.47,-160.45 462.04,-159.84 459.36,-153.38"/>
</g>
<!-- Node3243&#45;&gt;Node3240 -->
<g id="edge6" class="edge">
<title>Node3243&#45;&gt;Node3240</title>
<path fill="none" stroke="midnightblue" d="M640.46,-136.66C691.2,-140.24 759.7,-145.08 802.73,-148.12"/>
<polygon fill="midnightblue" stroke="midnightblue" points="640.46,-133.15 630.24,-135.94 639.97,-140.13 640.46,-133.15"/>
</g>
<!-- Node3243&#45;&gt;Node3244 -->
<g id="edge7" class="edge">
<title>Node3243&#45;&gt;Node3244</title>
<path fill="none" stroke="midnightblue" d="M619.94,-119.75C639.37,-114.52 661.73,-108.49 679.93,-103.59"/>
<polygon fill="midnightblue" stroke="midnightblue" points="618.82,-116.43 610.08,-122.41 620.65,-123.19 618.82,-116.43"/>
</g>
<!-- Node3244&#45;&gt;Node3240 -->
<g id="edge8" class="edge">
<title>Node3244&#45;&gt;Node3240</title>
<path fill="none" stroke="midnightblue" d="M747.91,-107.76C770.93,-118.17 801.97,-132.21 822.34,-141.43"/>
<polygon fill="midnightblue" stroke="midnightblue" points="749.14,-104.47 738.59,-103.54 746.26,-110.85 749.14,-104.47"/>
</g>
<!-- Node3246&#45;&gt;Node3246 -->
<g id="edge12" class="edge">
<title>Node3246&#45;&gt;Node3246</title>
<path fill="none" stroke="midnightblue" d="M395.83,-95.03C397.23,-100.13 405.79,-104 421.5,-104 446.03,-104 453.12,-94.57 442.77,-85.76"/>
<polygon fill="midnightblue" stroke="midnightblue" points="399.11,-96.29 400.23,-85.76 392.78,-93.29 399.11,-96.29"/>
</g>
</g>
</svg>
        <g id="navigator" transform="translate(0 0)" fill="#404254">
                <rect fill="#f2f5e9" fill-opacity="0.5" stroke="#606060" stroke-width=".5" x="0" y="0" width="60" height="60"/>
                <use id="zoomplus" xlink:href="#zoomPlus" x="17" y="9" onmousedown="handleZoom(evt,'in')"/>
                <use id="zoomminus" xlink:href="#zoomMin" x="42" y="9" onmousedown="handleZoom(evt,'out')"/>
                <use id="reset" xlink:href="#resetDef" x="30" y="36" onmousedown="handleReset()"/>
                <g id="arrowUp" xlink:href="#dirArrow" transform="translate(30 24)" onmousedown="handlePan(0,-1)">
                  <use xlink:href="#rim" fill="#404040">
                        <set attributeName="fill" to="#808080" begin="arrowUp.mouseover" end="arrowUp.mouseout"/>
                  </use>
                  <path fill="none" stroke="white" stroke-width="1.5" d="M0,-3.0v7 M-2.5,-0.5L0,-3.0L2.5,-0.5"/>
                </g>
                <g id="arrowRight" xlink:href="#dirArrow" transform="rotate(90) translate(36 -43)" onmousedown="handlePan(1,0)">
                  <use xlink:href="#rim" fill="#404040">
                        <set attributeName="fill" to="#808080" begin="arrowRight.mouseover" end="arrowRight.mouseout"/>
                  </use>
                  <path fill="none" stroke="white" stroke-width="1.5" d="M0,-3.0v7 M-2.5,-0.5L0,-3.0L2.5,-0.5"/>
                </g>
                <g id="arrowDown" xlink:href="#dirArrow" transform="rotate(180) translate(-30 -48)" onmousedown="handlePan(0,1)">
                  <use xlink:href="#rim" fill="#404040">
                        <set attributeName="fill" to="#808080" begin="arrowDown.mouseover" end="arrowDown.mouseout"/>
                  </use>
                  <path fill="none" stroke="white" stroke-width="1.5" d="M0,-3.0v7 M-2.5,-0.5L0,-3.0L2.5,-0.5"/>
                </g>
                <g id="arrowLeft" xlink:href="#dirArrow" transform="rotate(270) translate(-36 17)" onmousedown="handlePan(-1,0)">
                  <use xlink:href="#rim" fill="#404040">
                        <set attributeName="fill" to="#808080" begin="arrowLeft.mouseover" end="arrowLeft.mouseout"/>
                  </use>
                  <path fill="none" stroke="white" stroke-width="1.5" d="M0,-3.0v7 M-2.5,-0.5L0,-3.0L2.5,-0.5"/>
                </g>
        </g>
        <svg viewBox="0 0 15 15" width="100%" height="30px" preserveAspectRatio="xMaxYMin meet">
         <g id="arrow_out" transform="scale(0.3 0.3)">
          <a xlink:href="net_8c_a823b9397a80e37f7ae87a5581430c507_icgraph_org.svg" target="_base">
           <rect id="button" ry="5" rx="5" y="6" x="6" height="38" width="38"
                fill="#f2f5e9" fill-opacity="0.5" stroke="#606060" stroke-width="1.0"/>
           <path id="arrow"
             d="M 11.500037,31.436501 C 11.940474,20.09759 22.043105,11.32322 32.158766,21.979434 L 37.068811,17.246167 C 37.068811,17.246167 37.088388,32 37.088388,32 L 22.160133,31.978069 C 22.160133,31.978069 26.997745,27.140456 26.997745,27.140456 C 18.528582,18.264221 13.291696,25.230495 11.500037,31.436501 z"
             style="fill:#404040;"/>
          </a>
         </g>
        </svg>
</svg>
