<?xml version="1.0" encoding="UTF-8" standalone="no"?>
<!DOCTYPE svg PUBLIC "-//W3C//DTD SVG 1.1//EN"
 "http://www.w3.org/Graphics/SVG/1.1/DTD/svg11.dtd">
<!-- Generated by graphviz version 2.43.0 (0)
 -->
<!-- Title: coap_dispatch Pages: 1 -->
<!--zoomable 254 -->
<svg id="main" version="1.1" xmlns="http://www.w3.org/2000/svg" xmlns:xlink="http://www.w3.org/1999/xlink" xml:space="preserve" onload="init(evt)">
<style type="text/css"><![CDATA[
.edge:hover path { stroke: red; }
.edge:hover polygon { stroke: red; fill: red; }
]]></style>
<script type="text/javascript"><![CDATA[
var edges = document.getElementsByTagName('g');
if (edges && edges.length) {
  for (var i=0;i<edges.length;i++) {
    if (edges[i].id.substr(0,4)=='edge') {
      edges[i].setAttribute('class','edge');
    }
  }
}
]]></script>
        <defs>
                <circle id="rim" cx="0" cy="0" r="7"/>
                <circle id="rim2" cx="0" cy="0" r="3.5"/>
                <g id="zoomPlus">
                        <use xlink:href="#rim" fill="#404040">
                                <set attributeName="fill" to="#808080" begin="zoomplus.mouseover" end="zoomplus.mouseout"/>
                        </use>
                        <path d="M-4,0h8M0,-4v8" fill="none" stroke="white" stroke-width="1.5" pointer-events="none"/>
                </g>
                <g id="zoomMin">
                        <use xlink:href="#rim" fill="#404040">
                                <set attributeName="fill" to="#808080" begin="zoomminus.mouseover" end="zoomminus.mouseout"/>
                        </use>
                        <path d="M-4,0h8" fill="none" stroke="white" stroke-width="1.5" pointer-events="none"/>
                </g>
                <g id="dirArrow">
                        <path fill="none" stroke="white" stroke-width="1.5" d="M0,-3.0v7 M-2.5,-0.5L0,-3.0L2.5,-0.5"/>
                </g>
               <g id="resetDef">
                       <use xlink:href="#rim2" fill="#404040">
                               <set attributeName="fill" to="#808080" begin="reset.mouseover" end="reset.mouseout"/>
                       </use>
               </g>
        </defs>

<script type="text/javascript">
var viewWidth = 1304;
var viewHeight = 254;
var sectionId = 'dynsection-21';
</script>
<script xlink:href="svgpan.js"/>
<svg id="graph" class="graph">
<g id="viewport">
<title>coap_dispatch</title>
<polygon fill="white" stroke="transparent" points="-4,4 -4,-250 1300,-250 1300,4 -4,4"/>
<!-- Node402 -->
<g id="node1" class="node">
<title>Node402</title>
<polygon fill="#bfbfbf" stroke="black" points="0,-31.5 0,-50.5 80,-50.5 80,-31.5 0,-31.5"/>
<text text-anchor="middle" x="40" y="-38.5" font-family="Helvetica,sans-Serif" font-size="10.00">coap_dispatch</text>
</g>
<!-- Node403 -->
<g id="node2" class="node">
<title>Node403</title>
<g id="a_node2"><a xlink:href="net_8c.html#acd36f6fba6d30ab9557e0e6521f4a088" target="_top" xlink:title="coap_read_session">
<polygon fill="white" stroke="black" points="413.5,-47.5 413.5,-66.5 514.5,-66.5 514.5,-47.5 413.5,-47.5"/>
<text text-anchor="middle" x="464" y="-54.5" font-family="Helvetica,sans-Serif" font-size="10.00">coap_read_session</text>
</a>
</g>
</g>
<!-- Node402&#45;&gt;Node403 -->
<g id="edge1" class="edge">
<title>Node402&#45;&gt;Node403</title>
<path fill="none" stroke="midnightblue" d="M90.77,-42.89C172,-45.97 332.13,-52.04 413.3,-55.12"/>
<polygon fill="midnightblue" stroke="midnightblue" points="90.45,-39.37 80.32,-42.49 90.18,-46.37 90.45,-39.37"/>
</g>
<!-- Node412 -->
<g id="node11" class="node">
<title>Node412</title>
<g id="a_node11"><a xlink:href="net_8h.html#ae6b8ca457dd41f23372f9e9a7159312b" target="_top" xlink:title="Parses and interprets a CoAP datagram with context ctx. ">
<polygon fill="white" stroke="black" points="116,-12.5 116,-31.5 220,-31.5 220,-12.5 116,-12.5"/>
<text text-anchor="middle" x="168" y="-19.5" font-family="Helvetica,sans-Serif" font-size="10.00">coap_handle_dgram</text>
</a>
</g>
</g>
<!-- Node402&#45;&gt;Node412 -->
<g id="edge17" class="edge">
<title>Node402&#45;&gt;Node412</title>
<path fill="none" stroke="midnightblue" d="M90.21,-33.58C98.6,-32.31 107.34,-31 115.79,-29.72"/>
<polygon fill="midnightblue" stroke="midnightblue" points="89.54,-30.14 80.18,-35.09 90.59,-37.06 89.54,-30.14"/>
</g>
<!-- Node404 -->
<g id="node3" class="node">
<title>Node404</title>
<g id="a_node3"><a xlink:href="net_8h.html#a0748d791fd2af516dd93fbadb660d440" target="_top" xlink:title="For applications with their own message loop, reads all data from the network. ">
<polygon fill="white" stroke="black" points="552,-66.5 552,-85.5 614,-85.5 614,-66.5 552,-66.5"/>
<text text-anchor="middle" x="583" y="-73.5" font-family="Helvetica,sans-Serif" font-size="10.00">coap_read</text>
</a>
</g>
</g>
<!-- Node403&#45;&gt;Node404 -->
<g id="edge2" class="edge">
<title>Node403&#45;&gt;Node404</title>
<path fill="none" stroke="midnightblue" d="M524.52,-66.67C534.04,-68.21 543.53,-69.75 551.98,-71.12"/>
<polygon fill="midnightblue" stroke="midnightblue" points="525.05,-63.21 514.62,-65.06 523.93,-70.12 525.05,-63.21"/>
</g>
<!-- Node409 -->
<g id="node8" class="node">
<title>Node409</title>
<g id="a_node8"><a xlink:href="net_8h.html#a7b591afa095a093b604b63313275a02a" target="_top" xlink:title="Process all the epoll events. ">
<polygon fill="white" stroke="black" points="1076,-75.5 1076,-94.5 1177,-94.5 1177,-75.5 1076,-75.5"/>
<text text-anchor="middle" x="1126.5" y="-82.5" font-family="Helvetica,sans-Serif" font-size="10.00">coap_io_do_events</text>
</a>
</g>
</g>
<!-- Node403&#45;&gt;Node409 -->
<g id="edge16" class="edge">
<title>Node403&#45;&gt;Node409</title>
<path fill="none" stroke="midnightblue" d="M524.98,-49.23C570.67,-43.98 635.2,-38 692,-38 692,-38 692,-38 832.5,-38 926.26,-38 1034.8,-61.76 1089.71,-75.49"/>
<polygon fill="midnightblue" stroke="midnightblue" points="524.47,-45.77 514.94,-50.41 525.28,-52.72 524.47,-45.77"/>
</g>
<!-- Node405 -->
<g id="node4" class="node">
<title>Node405</title>
<g id="a_node4"><a xlink:href="coap__io_8c.html#a75a7c93e10ca7858449ba304aad4ea37" target="_top" xlink:title="coap_run_once">
<polygon fill="white" stroke="black" points="1213,-179.5 1213,-198.5 1296,-198.5 1296,-179.5 1213,-179.5"/>
<text text-anchor="middle" x="1254.5" y="-186.5" font-family="Helvetica,sans-Serif" font-size="10.00">coap_run_once</text>
</a>
</g>
</g>
<!-- Node404&#45;&gt;Node405 -->
<g id="edge3" class="edge">
<title>Node404&#45;&gt;Node405</title>
<path fill="none" stroke="midnightblue" d="M595.05,-94.41C606.88,-112.96 627.06,-141.55 650,-161 717.64,-218.34 741.83,-246 830.5,-246 830.5,-246 830.5,-246 984.5,-246 1074.96,-246 1178.9,-214.77 1226.79,-198.54"/>
<polygon fill="midnightblue" stroke="midnightblue" points="597.91,-92.38 589.66,-85.73 591.96,-96.07 597.91,-92.38"/>
</g>
<!-- Node406 -->
<g id="node5" class="node">
<title>Node406</title>
<g id="a_node5"><a xlink:href="net_8h.html#a9900c032b74bd57f67d489484a2b3207" target="_top" xlink:title="Handles retransmissions of confirmable messages. ">
<polygon fill="white" stroke="black" points="650,-132.5 650,-151.5 736,-151.5 736,-132.5 650,-132.5"/>
<text text-anchor="middle" x="693" y="-139.5" font-family="Helvetica,sans-Serif" font-size="10.00">coap_retransmit</text>
</a>
</g>
</g>
<!-- Node404&#45;&gt;Node406 -->
<g id="edge4" class="edge">
<title>Node404&#45;&gt;Node406</title>
<path fill="none" stroke="midnightblue" d="M608.56,-91.01C629.37,-103.73 658.58,-121.58 676.35,-132.44"/>
<polygon fill="midnightblue" stroke="midnightblue" points="610.29,-87.97 599.94,-85.74 606.64,-93.94 610.29,-87.97"/>
</g>
<!-- Node410 -->
<g id="node9" class="node">
<title>Node410</title>
<g id="a_node9"><a xlink:href="net_8h.html#a5854b1394bfddd574e48af116e3aaaf9" target="_top" xlink:title="Sends an RST message with code 0 for the specified request to dst. ">
<polygon fill="white" stroke="black" points="943.5,-122.5 943.5,-141.5 1023.5,-141.5 1023.5,-122.5 943.5,-122.5"/>
<text text-anchor="middle" x="983.5" y="-129.5" font-family="Helvetica,sans-Serif" font-size="10.00">coap_send_rst</text>
</a>
</g>
</g>
<!-- Node404&#45;&gt;Node410 -->
<g id="edge15" class="edge">
<title>Node404&#45;&gt;Node410</title>
<path fill="none" stroke="midnightblue" d="M624.14,-74.41C683.34,-72.98 797.17,-73.72 891,-95 917.24,-100.95 945.71,-113.52 963.8,-122.35"/>
<polygon fill="midnightblue" stroke="midnightblue" points="623.99,-70.91 614.09,-74.69 624.18,-77.91 623.99,-70.91"/>
</g>
<!-- Node407 -->
<g id="node6" class="node">
<title>Node407</title>
<g id="a_node6"><a xlink:href="net_8h.html#aaac86ac50793f309678e4951ecf8863f" target="_top" xlink:title="For applications with their own message loop, send all pending retransmits and return the list of soc...">
<polygon fill="white" stroke="black" points="799.5,-198.5 799.5,-217.5 863.5,-217.5 863.5,-198.5 799.5,-198.5"/>
<text text-anchor="middle" x="831.5" y="-205.5" font-family="Helvetica,sans-Serif" font-size="10.00">coap_write</text>
</a>
</g>
</g>
<!-- Node406&#45;&gt;Node407 -->
<g id="edge5" class="edge">
<title>Node406&#45;&gt;Node407</title>
<path fill="none" stroke="midnightblue" d="M719.23,-156.46C734.34,-164.89 754.04,-175.51 772,-184 782.82,-189.11 795.03,-194.22 805.49,-198.41"/>
<polygon fill="midnightblue" stroke="midnightblue" points="720.91,-153.38 710.48,-151.52 717.47,-159.48 720.91,-153.38"/>
</g>
<!-- Node406&#45;&gt;Node410 -->
<g id="edge14" class="edge">
<title>Node406&#45;&gt;Node410</title>
<path fill="none" stroke="midnightblue" d="M746.03,-148.84C754.69,-149.74 763.59,-150.52 772,-151 824.8,-154.04 838.39,-156.4 891,-151 909.08,-149.14 928.85,-145.27 945.37,-141.51"/>
<polygon fill="midnightblue" stroke="midnightblue" points="746.35,-145.36 736.02,-147.75 745.58,-152.32 746.35,-145.36"/>
</g>
<!-- Node411 -->
<g id="node10" class="node">
<title>Node411</title>
<g id="a_node10"><a xlink:href="net_8h.html#a09ff95ae16a4b7f6abf4a0822d430658" target="_top" xlink:title="Function interface for joining a multicast group for listening. ">
<polygon fill="white" stroke="black" points="772,-104.5 772,-123.5 891,-123.5 891,-104.5 772,-104.5"/>
<text text-anchor="middle" x="831.5" y="-111.5" font-family="Helvetica,sans-Serif" font-size="10.00">coap_join_mcast_group</text>
</a>
</g>
</g>
<!-- Node406&#45;&gt;Node411 -->
<g id="edge12" class="edge">
<title>Node406&#45;&gt;Node411</title>
<path fill="none" stroke="midnightblue" d="M745.92,-131.35C758.46,-128.78 771.78,-126.04 784.05,-123.53"/>
<polygon fill="midnightblue" stroke="midnightblue" points="745.16,-127.93 736.07,-133.37 746.57,-134.79 745.16,-127.93"/>
</g>
<!-- Node407&#45;&gt;Node405 -->
<g id="edge10" class="edge">
<title>Node407&#45;&gt;Node405</title>
<path fill="none" stroke="midnightblue" d="M874.07,-206.64C938.83,-204.45 1067.72,-199.79 1177,-194 1188.56,-193.39 1201.1,-192.61 1212.62,-191.86"/>
<polygon fill="midnightblue" stroke="midnightblue" points="873.74,-203.15 863.86,-206.98 873.97,-210.15 873.74,-203.15"/>
</g>
<!-- Node408 -->
<g id="node7" class="node">
<title>Node408</title>
<g id="a_node7"><a xlink:href="net_8h.html#a3be92476a2c2c12d68c0cd07795c7e34" target="_top" xlink:title="Any now timed out delayed packet is transmitted, along with any packets associated with requested obs...">
<polygon fill="white" stroke="black" points="927,-160.5 927,-179.5 1040,-179.5 1040,-160.5 927,-160.5"/>
<text text-anchor="middle" x="983.5" y="-167.5" font-family="Helvetica,sans-Serif" font-size="10.00">coap_io_prepare_epoll</text>
</a>
</g>
</g>
<!-- Node407&#45;&gt;Node408 -->
<g id="edge6" class="edge">
<title>Node407&#45;&gt;Node408</title>
<path fill="none" stroke="midnightblue" d="M873.42,-197.63C895.69,-191.99 923.07,-185.06 944.82,-179.55"/>
<polygon fill="midnightblue" stroke="midnightblue" points="872.41,-194.28 863.58,-200.13 874.13,-201.06 872.41,-194.28"/>
</g>
<!-- Node407&#45;&gt;Node410 -->
<g id="edge11" class="edge">
<title>Node407&#45;&gt;Node410</title>
<path fill="none" stroke="midnightblue" d="M870.81,-194.57C877.75,-191.5 884.76,-187.96 891,-184 909.32,-172.37 908.34,-162.08 927,-151 933.3,-147.26 940.45,-144.11 947.47,-141.53"/>
<polygon fill="midnightblue" stroke="midnightblue" points="869.36,-191.38 861.47,-198.45 872.04,-197.84 869.36,-191.38"/>
</g>
<!-- Node408&#45;&gt;Node405 -->
<g id="edge7" class="edge">
<title>Node408&#45;&gt;Node405</title>
<path fill="none" stroke="midnightblue" d="M1050.46,-174.66C1101.2,-178.24 1169.7,-183.08 1212.73,-186.12"/>
<polygon fill="midnightblue" stroke="midnightblue" points="1050.46,-171.15 1040.24,-173.94 1049.97,-178.13 1050.46,-171.15"/>
</g>
<!-- Node408&#45;&gt;Node409 -->
<g id="edge8" class="edge">
<title>Node408&#45;&gt;Node409</title>
<path fill="none" stroke="midnightblue" d="M1027.54,-156.85C1031.84,-155.07 1036.06,-153.12 1040,-151 1069.89,-134.92 1100.25,-108.58 1115.48,-94.53"/>
<polygon fill="midnightblue" stroke="midnightblue" points="1026.2,-153.62 1018.12,-160.47 1028.71,-160.15 1026.2,-153.62"/>
</g>
<!-- Node409&#45;&gt;Node405 -->
<g id="edge9" class="edge">
<title>Node409&#45;&gt;Node405</title>
<path fill="none" stroke="midnightblue" d="M1146.98,-101.08C1173.54,-123 1220.26,-161.57 1241.9,-179.43"/>
<polygon fill="midnightblue" stroke="midnightblue" points="1149.07,-98.26 1139.13,-94.6 1144.61,-103.66 1149.07,-98.26"/>
</g>
<!-- Node411&#45;&gt;Node411 -->
<g id="edge13" class="edge">
<title>Node411&#45;&gt;Node411</title>
<path fill="none" stroke="midnightblue" d="M805.83,-133.03C807.23,-138.13 815.79,-142 831.5,-142 856.03,-142 863.12,-132.57 852.77,-123.76"/>
<polygon fill="midnightblue" stroke="midnightblue" points="809.11,-134.29 810.23,-123.76 802.78,-131.29 809.11,-134.29"/>
</g>
<!-- Node413 -->
<g id="node12" class="node">
<title>Node413</title>
<g id="a_node12"><a xlink:href="net_8c.html#a8534f7860b14e0743529daff196a27ce" target="_top" xlink:title="coap_handle_dgram_for\l_proto">
<polygon fill="white" stroke="black" points="256,-4 256,-34 376,-34 376,-4 256,-4"/>
<text text-anchor="start" x="264" y="-22" font-family="Helvetica,sans-Serif" font-size="10.00">coap_handle_dgram_for</text>
<text text-anchor="middle" x="316" y="-11" font-family="Helvetica,sans-Serif" font-size="10.00">_proto</text>
</a>
</g>
</g>
<!-- Node412&#45;&gt;Node413 -->
<g id="edge18" class="edge">
<title>Node412&#45;&gt;Node413</title>
<path fill="none" stroke="midnightblue" d="M230.29,-20.74C238.79,-20.57 247.51,-20.39 255.96,-20.21"/>
<polygon fill="midnightblue" stroke="midnightblue" points="229.99,-17.25 220.06,-20.95 230.13,-24.24 229.99,-17.25"/>
</g>
<!-- Node413&#45;&gt;Node403 -->
<g id="edge19" class="edge">
<title>Node413&#45;&gt;Node403</title>
<path fill="none" stroke="midnightblue" d="M384.58,-36.59C398.94,-40.33 413.59,-44.14 426.28,-47.44"/>
<polygon fill="midnightblue" stroke="midnightblue" points="385.26,-33.15 374.7,-34.02 383.5,-39.92 385.26,-33.15"/>
</g>
<!-- Node414 -->
<g id="node13" class="node">
<title>Node414</title>
<g id="a_node13"><a xlink:href="net_8c.html#a44ffb4b70e537043e9a9cf344be24b92" target="_top" xlink:title="coap_read_endpoint">
<polygon fill="white" stroke="black" points="412,-9.5 412,-28.5 516,-28.5 516,-9.5 412,-9.5"/>
<text text-anchor="middle" x="464" y="-16.5" font-family="Helvetica,sans-Serif" font-size="10.00">coap_read_endpoint</text>
</a>
</g>
</g>
<!-- Node413&#45;&gt;Node414 -->
<g id="edge20" class="edge">
<title>Node413&#45;&gt;Node414</title>
<path fill="none" stroke="midnightblue" d="M386.61,-19C395.04,-19 403.53,-19 411.63,-19"/>
<polygon fill="midnightblue" stroke="midnightblue" points="386.38,-15.5 376.38,-19 386.38,-22.5 386.38,-15.5"/>
</g>
<!-- Node414&#45;&gt;Node404 -->
<g id="edge21" class="edge">
<title>Node414&#45;&gt;Node404</title>
<path fill="none" stroke="midnightblue" d="M502.49,-32.15C507.09,-34 511.68,-35.97 516,-38 534.07,-46.5 553.78,-58.19 566.92,-66.35"/>
<polygon fill="midnightblue" stroke="midnightblue" points="503.73,-28.88 493.14,-28.53 501.2,-35.41 503.73,-28.88"/>
</g>
<!-- Node414&#45;&gt;Node409 -->
<g id="edge22" class="edge">
<title>Node414&#45;&gt;Node409</title>
<path fill="none" stroke="midnightblue" d="M526.31,-11.08C571.92,-5.87 635.75,0 692,0 692,0 692,0 832.5,0 926.51,0 951.23,-10.08 1040,-41 1065.7,-49.95 1093.33,-65.34 1110.02,-75.34"/>
<polygon fill="midnightblue" stroke="midnightblue" points="525.81,-7.61 516.29,-12.25 526.62,-14.57 525.81,-7.61"/>
</g>
</g>
</svg>
        <g id="navigator" transform="translate(0 0)" fill="#404254">
                <rect fill="#f2f5e9" fill-opacity="0.5" stroke="#606060" stroke-width=".5" x="0" y="0" width="60" height="60"/>
                <use id="zoomplus" xlink:href="#zoomPlus" x="17" y="9" onmousedown="handleZoom(evt,'in')"/>
                <use id="zoomminus" xlink:href="#zoomMin" x="42" y="9" onmousedown="handleZoom(evt,'out')"/>
                <use id="reset" xlink:href="#resetDef" x="30" y="36" onmousedown="handleReset()"/>
                <g id="arrowUp" xlink:href="#dirArrow" transform="translate(30 24)" onmousedown="handlePan(0,-1)">
                  <use xlink:href="#rim" fill="#404040">
                        <set attributeName="fill" to="#808080" begin="arrowUp.mouseover" end="arrowUp.mouseout"/>
                  </use>
                  <path fill="none" stroke="white" stroke-width="1.5" d="M0,-3.0v7 M-2.5,-0.5L0,-3.0L2.5,-0.5"/>
                </g>
                <g id="arrowRight" xlink:href="#dirArrow" transform="rotate(90) translate(36 -43)" onmousedown="handlePan(1,0)">
                  <use xlink:href="#rim" fill="#404040">
                        <set attributeName="fill" to="#808080" begin="arrowRight.mouseover" end="arrowRight.mouseout"/>
                  </use>
                  <path fill="none" stroke="white" stroke-width="1.5" d="M0,-3.0v7 M-2.5,-0.5L0,-3.0L2.5,-0.5"/>
                </g>
                <g id="arrowDown" xlink:href="#dirArrow" transform="rotate(180) translate(-30 -48)" onmousedown="handlePan(0,1)">
                  <use xlink:href="#rim" fill="#404040">
                        <set attributeName="fill" to="#808080" begin="arrowDown.mouseover" end="arrowDown.mouseout"/>
                  </use>
                  <path fill="none" stroke="white" stroke-width="1.5" d="M0,-3.0v7 M-2.5,-0.5L0,-3.0L2.5,-0.5"/>
                </g>
                <g id="arrowLeft" xlink:href="#dirArrow" transform="rotate(270) translate(-36 17)" onmousedown="handlePan(-1,0)">
                  <use xlink:href="#rim" fill="#404040">
                        <set attributeName="fill" to="#808080" begin="arrowLeft.mouseover" end="arrowLeft.mouseout"/>
                  </use>
                  <path fill="none" stroke="white" stroke-width="1.5" d="M0,-3.0v7 M-2.5,-0.5L0,-3.0L2.5,-0.5"/>
                </g>
        </g>
        <svg viewBox="0 0 15 15" width="100%" height="30px" preserveAspectRatio="xMaxYMin meet">
         <g id="arrow_out" transform="scale(0.3 0.3)">
          <a xlink:href="net_8h_a7bb944fc52f772655356d95724317401_icgraph_org.svg" target="_base">
           <rect id="button" ry="5" rx="5" y="6" x="6" height="38" width="38"
                fill="#f2f5e9" fill-opacity="0.5" stroke="#606060" stroke-width="1.0"/>
           <path id="arrow"
             d="M 11.500037,31.436501 C 11.940474,20.09759 22.043105,11.32322 32.158766,21.979434 L 37.068811,17.246167 C 37.068811,17.246167 37.088388,32 37.088388,32 L 22.160133,31.978069 C 22.160133,31.978069 26.997745,27.140456 26.997745,27.140456 C 18.528582,18.264221 13.291696,25.230495 11.500037,31.436501 z"
             style="fill:#404040;"/>
          </a>
         </g>
        </svg>
</svg>
