<?xml version="1.0" encoding="UTF-8" standalone="no"?>
<!DOCTYPE svg PUBLIC "-//W3C//DTD SVG 1.1//EN"
 "http://www.w3.org/Graphics/SVG/1.1/DTD/svg11.dtd">
<!-- Generated by graphviz version 2.43.0 (0)
 -->
<!-- Title: handle_request Pages: 1 -->
<!--zoomable 254 -->
<svg id="main" version="1.1" xmlns="http://www.w3.org/2000/svg" xmlns:xlink="http://www.w3.org/1999/xlink" xml:space="preserve" onload="init(evt)">
<style type="text/css"><![CDATA[
.edge:hover path { stroke: red; }
.edge:hover polygon { stroke: red; fill: red; }
]]></style>
<script type="text/javascript"><![CDATA[
var edges = document.getElementsByTagName('g');
if (edges && edges.length) {
  for (var i=0;i<edges.length;i++) {
    if (edges[i].id.substr(0,4)=='edge') {
      edges[i].setAttribute('class','edge');
    }
  }
}
]]></script>
        <defs>
                <circle id="rim" cx="0" cy="0" r="7"/>
                <circle id="rim2" cx="0" cy="0" r="3.5"/>
                <g id="zoomPlus">
                        <use xlink:href="#rim" fill="#404040">
                                <set attributeName="fill" to="#808080" begin="zoomplus.mouseover" end="zoomplus.mouseout"/>
                        </use>
                        <path d="M-4,0h8M0,-4v8" fill="none" stroke="white" stroke-width="1.5" pointer-events="none"/>
                </g>
                <g id="zoomMin">
                        <use xlink:href="#rim" fill="#404040">
                                <set attributeName="fill" to="#808080" begin="zoomminus.mouseover" end="zoomminus.mouseout"/>
                        </use>
                        <path d="M-4,0h8" fill="none" stroke="white" stroke-width="1.5" pointer-events="none"/>
                </g>
                <g id="dirArrow">
                        <path fill="none" stroke="white" stroke-width="1.5" d="M0,-3.0v7 M-2.5,-0.5L0,-3.0L2.5,-0.5"/>
                </g>
               <g id="resetDef">
                       <use xlink:href="#rim2" fill="#404040">
                               <set attributeName="fill" to="#808080" begin="reset.mouseover" end="reset.mouseout"/>
                       </use>
               </g>
        </defs>

<script type="text/javascript">
var viewWidth = 1423;
var viewHeight = 254;
var sectionId = 'dynsection-93';
</script>
<script xlink:href="svgpan.js"/>
<svg id="graph" class="graph">
<g id="viewport">
<title>handle_request</title>
<polygon fill="white" stroke="transparent" points="-4,4 -4,-250 1419,-250 1419,4 -4,4"/>
<!-- Node3419 -->
<g id="node1" class="node">
<title>Node3419</title>
<polygon fill="#bfbfbf" stroke="black" points="0,-31.5 0,-50.5 83,-50.5 83,-31.5 0,-31.5"/>
<text text-anchor="middle" x="41.5" y="-38.5" font-family="Helvetica,sans-Serif" font-size="10.00">handle_request</text>
</g>
<!-- Node3420 -->
<g id="node2" class="node">
<title>Node3420</title>
<g id="a_node2"><a xlink:href="net_8h.html#a7bb944fc52f772655356d95724317401" target="_top" xlink:title="Dispatches the PDUs from the receive queue in given context. ">
<polygon fill="white" stroke="black" points="119,-31.5 119,-50.5 199,-50.5 199,-31.5 119,-31.5"/>
<text text-anchor="middle" x="159" y="-38.5" font-family="Helvetica,sans-Serif" font-size="10.00">coap_dispatch</text>
</a>
</g>
</g>
<!-- Node3419&#45;&gt;Node3420 -->
<g id="edge1" class="edge">
<title>Node3419&#45;&gt;Node3420</title>
<path fill="none" stroke="midnightblue" d="M93.45,-41C101.95,-41 110.66,-41 118.81,-41"/>
<polygon fill="midnightblue" stroke="midnightblue" points="93.22,-37.5 83.22,-41 93.22,-44.5 93.22,-37.5"/>
</g>
<!-- Node3421 -->
<g id="node3" class="node">
<title>Node3421</title>
<g id="a_node3"><a xlink:href="net_8c.html#acd36f6fba6d30ab9557e0e6521f4a088" target="_top" xlink:title="coap_read_session">
<polygon fill="white" stroke="black" points="532.5,-47.5 532.5,-66.5 633.5,-66.5 633.5,-47.5 532.5,-47.5"/>
<text text-anchor="middle" x="583" y="-54.5" font-family="Helvetica,sans-Serif" font-size="10.00">coap_read_session</text>
</a>
</g>
</g>
<!-- Node3420&#45;&gt;Node3421 -->
<g id="edge2" class="edge">
<title>Node3420&#45;&gt;Node3421</title>
<path fill="none" stroke="midnightblue" d="M209.77,-42.89C291,-45.97 451.13,-52.04 532.3,-55.12"/>
<polygon fill="midnightblue" stroke="midnightblue" points="209.45,-39.37 199.32,-42.49 209.18,-46.37 209.45,-39.37"/>
</g>
<!-- Node3430 -->
<g id="node12" class="node">
<title>Node3430</title>
<g id="a_node12"><a xlink:href="net_8h.html#ae6b8ca457dd41f23372f9e9a7159312b" target="_top" xlink:title="Parses and interprets a CoAP datagram with context ctx. ">
<polygon fill="white" stroke="black" points="235,-12.5 235,-31.5 339,-31.5 339,-12.5 235,-12.5"/>
<text text-anchor="middle" x="287" y="-19.5" font-family="Helvetica,sans-Serif" font-size="10.00">coap_handle_dgram</text>
</a>
</g>
</g>
<!-- Node3420&#45;&gt;Node3430 -->
<g id="edge18" class="edge">
<title>Node3420&#45;&gt;Node3430</title>
<path fill="none" stroke="midnightblue" d="M209.21,-33.58C217.6,-32.31 226.34,-31 234.79,-29.72"/>
<polygon fill="midnightblue" stroke="midnightblue" points="208.54,-30.14 199.18,-35.09 209.59,-37.06 208.54,-30.14"/>
</g>
<!-- Node3422 -->
<g id="node4" class="node">
<title>Node3422</title>
<g id="a_node4"><a xlink:href="net_8h.html#a0748d791fd2af516dd93fbadb660d440" target="_top" xlink:title="For applications with their own message loop, reads all data from the network. ">
<polygon fill="white" stroke="black" points="671,-66.5 671,-85.5 733,-85.5 733,-66.5 671,-66.5"/>
<text text-anchor="middle" x="702" y="-73.5" font-family="Helvetica,sans-Serif" font-size="10.00">coap_read</text>
</a>
</g>
</g>
<!-- Node3421&#45;&gt;Node3422 -->
<g id="edge3" class="edge">
<title>Node3421&#45;&gt;Node3422</title>
<path fill="none" stroke="midnightblue" d="M643.52,-66.67C653.04,-68.21 662.53,-69.75 670.98,-71.12"/>
<polygon fill="midnightblue" stroke="midnightblue" points="644.05,-63.21 633.62,-65.06 642.93,-70.12 644.05,-63.21"/>
</g>
<!-- Node3427 -->
<g id="node9" class="node">
<title>Node3427</title>
<g id="a_node9"><a xlink:href="net_8h.html#a7b591afa095a093b604b63313275a02a" target="_top" xlink:title="Process all the epoll events. ">
<polygon fill="white" stroke="black" points="1195,-75.5 1195,-94.5 1296,-94.5 1296,-75.5 1195,-75.5"/>
<text text-anchor="middle" x="1245.5" y="-82.5" font-family="Helvetica,sans-Serif" font-size="10.00">coap_io_do_events</text>
</a>
</g>
</g>
<!-- Node3421&#45;&gt;Node3427 -->
<g id="edge17" class="edge">
<title>Node3421&#45;&gt;Node3427</title>
<path fill="none" stroke="midnightblue" d="M643.98,-49.23C689.67,-43.98 754.2,-38 811,-38 811,-38 811,-38 951.5,-38 1045.26,-38 1153.8,-61.76 1208.71,-75.49"/>
<polygon fill="midnightblue" stroke="midnightblue" points="643.47,-45.77 633.94,-50.41 644.28,-52.72 643.47,-45.77"/>
</g>
<!-- Node3423 -->
<g id="node5" class="node">
<title>Node3423</title>
<g id="a_node5"><a xlink:href="coap__io_8c.html#a75a7c93e10ca7858449ba304aad4ea37" target="_top" xlink:title="coap_run_once">
<polygon fill="white" stroke="black" points="1332,-179.5 1332,-198.5 1415,-198.5 1415,-179.5 1332,-179.5"/>
<text text-anchor="middle" x="1373.5" y="-186.5" font-family="Helvetica,sans-Serif" font-size="10.00">coap_run_once</text>
</a>
</g>
</g>
<!-- Node3422&#45;&gt;Node3423 -->
<g id="edge4" class="edge">
<title>Node3422&#45;&gt;Node3423</title>
<path fill="none" stroke="midnightblue" d="M714.05,-94.41C725.88,-112.96 746.06,-141.55 769,-161 836.64,-218.34 860.83,-246 949.5,-246 949.5,-246 949.5,-246 1103.5,-246 1193.96,-246 1297.9,-214.77 1345.79,-198.54"/>
<polygon fill="midnightblue" stroke="midnightblue" points="716.91,-92.38 708.66,-85.73 710.96,-96.07 716.91,-92.38"/>
</g>
<!-- Node3424 -->
<g id="node6" class="node">
<title>Node3424</title>
<g id="a_node6"><a xlink:href="net_8h.html#a9900c032b74bd57f67d489484a2b3207" target="_top" xlink:title="Handles retransmissions of confirmable messages. ">
<polygon fill="white" stroke="black" points="769,-132.5 769,-151.5 855,-151.5 855,-132.5 769,-132.5"/>
<text text-anchor="middle" x="812" y="-139.5" font-family="Helvetica,sans-Serif" font-size="10.00">coap_retransmit</text>
</a>
</g>
</g>
<!-- Node3422&#45;&gt;Node3424 -->
<g id="edge5" class="edge">
<title>Node3422&#45;&gt;Node3424</title>
<path fill="none" stroke="midnightblue" d="M727.56,-91.01C748.37,-103.73 777.58,-121.58 795.35,-132.44"/>
<polygon fill="midnightblue" stroke="midnightblue" points="729.29,-87.97 718.94,-85.74 725.64,-93.94 729.29,-87.97"/>
</g>
<!-- Node3428 -->
<g id="node10" class="node">
<title>Node3428</title>
<g id="a_node10"><a xlink:href="net_8h.html#a5854b1394bfddd574e48af116e3aaaf9" target="_top" xlink:title="Sends an RST message with code 0 for the specified request to dst. ">
<polygon fill="white" stroke="black" points="1062.5,-122.5 1062.5,-141.5 1142.5,-141.5 1142.5,-122.5 1062.5,-122.5"/>
<text text-anchor="middle" x="1102.5" y="-129.5" font-family="Helvetica,sans-Serif" font-size="10.00">coap_send_rst</text>
</a>
</g>
</g>
<!-- Node3422&#45;&gt;Node3428 -->
<g id="edge16" class="edge">
<title>Node3422&#45;&gt;Node3428</title>
<path fill="none" stroke="midnightblue" d="M743.14,-74.41C802.34,-72.98 916.17,-73.72 1010,-95 1036.24,-100.95 1064.71,-113.52 1082.8,-122.35"/>
<polygon fill="midnightblue" stroke="midnightblue" points="742.99,-70.91 733.09,-74.69 743.18,-77.91 742.99,-70.91"/>
</g>
<!-- Node3425 -->
<g id="node7" class="node">
<title>Node3425</title>
<g id="a_node7"><a xlink:href="net_8h.html#aaac86ac50793f309678e4951ecf8863f" target="_top" xlink:title="For applications with their own message loop, send all pending retransmits and return the list of soc...">
<polygon fill="white" stroke="black" points="918.5,-198.5 918.5,-217.5 982.5,-217.5 982.5,-198.5 918.5,-198.5"/>
<text text-anchor="middle" x="950.5" y="-205.5" font-family="Helvetica,sans-Serif" font-size="10.00">coap_write</text>
</a>
</g>
</g>
<!-- Node3424&#45;&gt;Node3425 -->
<g id="edge6" class="edge">
<title>Node3424&#45;&gt;Node3425</title>
<path fill="none" stroke="midnightblue" d="M838.23,-156.46C853.34,-164.89 873.04,-175.51 891,-184 901.82,-189.11 914.03,-194.22 924.49,-198.41"/>
<polygon fill="midnightblue" stroke="midnightblue" points="839.91,-153.38 829.48,-151.52 836.47,-159.48 839.91,-153.38"/>
</g>
<!-- Node3424&#45;&gt;Node3428 -->
<g id="edge15" class="edge">
<title>Node3424&#45;&gt;Node3428</title>
<path fill="none" stroke="midnightblue" d="M865.03,-148.84C873.69,-149.74 882.59,-150.52 891,-151 943.8,-154.04 957.39,-156.4 1010,-151 1028.08,-149.14 1047.85,-145.27 1064.37,-141.51"/>
<polygon fill="midnightblue" stroke="midnightblue" points="865.35,-145.36 855.02,-147.75 864.58,-152.32 865.35,-145.36"/>
</g>
<!-- Node3429 -->
<g id="node11" class="node">
<title>Node3429</title>
<g id="a_node11"><a xlink:href="net_8h.html#a09ff95ae16a4b7f6abf4a0822d430658" target="_top" xlink:title="Function interface for joining a multicast group for listening. ">
<polygon fill="white" stroke="black" points="891,-104.5 891,-123.5 1010,-123.5 1010,-104.5 891,-104.5"/>
<text text-anchor="middle" x="950.5" y="-111.5" font-family="Helvetica,sans-Serif" font-size="10.00">coap_join_mcast_group</text>
</a>
</g>
</g>
<!-- Node3424&#45;&gt;Node3429 -->
<g id="edge13" class="edge">
<title>Node3424&#45;&gt;Node3429</title>
<path fill="none" stroke="midnightblue" d="M864.92,-131.35C877.46,-128.78 890.78,-126.04 903.05,-123.53"/>
<polygon fill="midnightblue" stroke="midnightblue" points="864.16,-127.93 855.07,-133.37 865.57,-134.79 864.16,-127.93"/>
</g>
<!-- Node3425&#45;&gt;Node3423 -->
<g id="edge11" class="edge">
<title>Node3425&#45;&gt;Node3423</title>
<path fill="none" stroke="midnightblue" d="M993.07,-206.64C1057.83,-204.45 1186.72,-199.79 1296,-194 1307.56,-193.39 1320.1,-192.61 1331.62,-191.86"/>
<polygon fill="midnightblue" stroke="midnightblue" points="992.74,-203.15 982.86,-206.98 992.97,-210.15 992.74,-203.15"/>
</g>
<!-- Node3426 -->
<g id="node8" class="node">
<title>Node3426</title>
<g id="a_node8"><a xlink:href="net_8h.html#a3be92476a2c2c12d68c0cd07795c7e34" target="_top" xlink:title="Any now timed out delayed packet is transmitted, along with any packets associated with requested obs...">
<polygon fill="white" stroke="black" points="1046,-160.5 1046,-179.5 1159,-179.5 1159,-160.5 1046,-160.5"/>
<text text-anchor="middle" x="1102.5" y="-167.5" font-family="Helvetica,sans-Serif" font-size="10.00">coap_io_prepare_epoll</text>
</a>
</g>
</g>
<!-- Node3425&#45;&gt;Node3426 -->
<g id="edge7" class="edge">
<title>Node3425&#45;&gt;Node3426</title>
<path fill="none" stroke="midnightblue" d="M992.42,-197.63C1014.69,-191.99 1042.07,-185.06 1063.82,-179.55"/>
<polygon fill="midnightblue" stroke="midnightblue" points="991.41,-194.28 982.58,-200.13 993.13,-201.06 991.41,-194.28"/>
</g>
<!-- Node3425&#45;&gt;Node3428 -->
<g id="edge12" class="edge">
<title>Node3425&#45;&gt;Node3428</title>
<path fill="none" stroke="midnightblue" d="M989.81,-194.57C996.75,-191.5 1003.76,-187.96 1010,-184 1028.32,-172.37 1027.34,-162.08 1046,-151 1052.3,-147.26 1059.45,-144.11 1066.47,-141.53"/>
<polygon fill="midnightblue" stroke="midnightblue" points="988.36,-191.38 980.47,-198.45 991.04,-197.84 988.36,-191.38"/>
</g>
<!-- Node3426&#45;&gt;Node3423 -->
<g id="edge8" class="edge">
<title>Node3426&#45;&gt;Node3423</title>
<path fill="none" stroke="midnightblue" d="M1169.46,-174.66C1220.2,-178.24 1288.7,-183.08 1331.73,-186.12"/>
<polygon fill="midnightblue" stroke="midnightblue" points="1169.46,-171.15 1159.24,-173.94 1168.97,-178.13 1169.46,-171.15"/>
</g>
<!-- Node3426&#45;&gt;Node3427 -->
<g id="edge9" class="edge">
<title>Node3426&#45;&gt;Node3427</title>
<path fill="none" stroke="midnightblue" d="M1146.54,-156.85C1150.84,-155.07 1155.06,-153.12 1159,-151 1188.89,-134.92 1219.25,-108.58 1234.48,-94.53"/>
<polygon fill="midnightblue" stroke="midnightblue" points="1145.2,-153.62 1137.12,-160.47 1147.71,-160.15 1145.2,-153.62"/>
</g>
<!-- Node3427&#45;&gt;Node3423 -->
<g id="edge10" class="edge">
<title>Node3427&#45;&gt;Node3423</title>
<path fill="none" stroke="midnightblue" d="M1265.98,-101.08C1292.54,-123 1339.26,-161.57 1360.9,-179.43"/>
<polygon fill="midnightblue" stroke="midnightblue" points="1268.07,-98.26 1258.13,-94.6 1263.61,-103.66 1268.07,-98.26"/>
</g>
<!-- Node3429&#45;&gt;Node3429 -->
<g id="edge14" class="edge">
<title>Node3429&#45;&gt;Node3429</title>
<path fill="none" stroke="midnightblue" d="M924.83,-133.03C926.23,-138.13 934.79,-142 950.5,-142 975.03,-142 982.12,-132.57 971.77,-123.76"/>
<polygon fill="midnightblue" stroke="midnightblue" points="928.11,-134.29 929.23,-123.76 921.78,-131.29 928.11,-134.29"/>
</g>
<!-- Node3431 -->
<g id="node13" class="node">
<title>Node3431</title>
<g id="a_node13"><a xlink:href="net_8c.html#a8534f7860b14e0743529daff196a27ce" target="_top" xlink:title="coap_handle_dgram_for\l_proto">
<polygon fill="white" stroke="black" points="375,-4 375,-34 495,-34 495,-4 375,-4"/>
<text text-anchor="start" x="383" y="-22" font-family="Helvetica,sans-Serif" font-size="10.00">coap_handle_dgram_for</text>
<text text-anchor="middle" x="435" y="-11" font-family="Helvetica,sans-Serif" font-size="10.00">_proto</text>
</a>
</g>
</g>
<!-- Node3430&#45;&gt;Node3431 -->
<g id="edge19" class="edge">
<title>Node3430&#45;&gt;Node3431</title>
<path fill="none" stroke="midnightblue" d="M349.29,-20.74C357.79,-20.57 366.51,-20.39 374.96,-20.21"/>
<polygon fill="midnightblue" stroke="midnightblue" points="348.99,-17.25 339.06,-20.95 349.13,-24.24 348.99,-17.25"/>
</g>
<!-- Node3431&#45;&gt;Node3421 -->
<g id="edge20" class="edge">
<title>Node3431&#45;&gt;Node3421</title>
<path fill="none" stroke="midnightblue" d="M503.58,-36.59C517.94,-40.33 532.59,-44.14 545.28,-47.44"/>
<polygon fill="midnightblue" stroke="midnightblue" points="504.26,-33.15 493.7,-34.02 502.5,-39.92 504.26,-33.15"/>
</g>
<!-- Node3432 -->
<g id="node14" class="node">
<title>Node3432</title>
<g id="a_node14"><a xlink:href="net_8c.html#a44ffb4b70e537043e9a9cf344be24b92" target="_top" xlink:title="coap_read_endpoint">
<polygon fill="white" stroke="black" points="531,-9.5 531,-28.5 635,-28.5 635,-9.5 531,-9.5"/>
<text text-anchor="middle" x="583" y="-16.5" font-family="Helvetica,sans-Serif" font-size="10.00">coap_read_endpoint</text>
</a>
</g>
</g>
<!-- Node3431&#45;&gt;Node3432 -->
<g id="edge21" class="edge">
<title>Node3431&#45;&gt;Node3432</title>
<path fill="none" stroke="midnightblue" d="M505.61,-19C514.04,-19 522.53,-19 530.63,-19"/>
<polygon fill="midnightblue" stroke="midnightblue" points="505.38,-15.5 495.38,-19 505.38,-22.5 505.38,-15.5"/>
</g>
<!-- Node3432&#45;&gt;Node3422 -->
<g id="edge22" class="edge">
<title>Node3432&#45;&gt;Node3422</title>
<path fill="none" stroke="midnightblue" d="M621.49,-32.15C626.09,-34 630.68,-35.97 635,-38 653.07,-46.5 672.78,-58.19 685.92,-66.35"/>
<polygon fill="midnightblue" stroke="midnightblue" points="622.73,-28.88 612.14,-28.53 620.2,-35.41 622.73,-28.88"/>
</g>
<!-- Node3432&#45;&gt;Node3427 -->
<g id="edge23" class="edge">
<title>Node3432&#45;&gt;Node3427</title>
<path fill="none" stroke="midnightblue" d="M645.31,-11.08C690.92,-5.87 754.75,0 811,0 811,0 811,0 951.5,0 1045.51,0 1070.23,-10.08 1159,-41 1184.7,-49.95 1212.33,-65.34 1229.02,-75.34"/>
<polygon fill="midnightblue" stroke="midnightblue" points="644.81,-7.61 635.29,-12.25 645.62,-14.57 644.81,-7.61"/>
</g>
</g>
</svg>
        <g id="navigator" transform="translate(0 0)" fill="#404254">
                <rect fill="#f2f5e9" fill-opacity="0.5" stroke="#606060" stroke-width=".5" x="0" y="0" width="60" height="60"/>
                <use id="zoomplus" xlink:href="#zoomPlus" x="17" y="9" onmousedown="handleZoom(evt,'in')"/>
                <use id="zoomminus" xlink:href="#zoomMin" x="42" y="9" onmousedown="handleZoom(evt,'out')"/>
                <use id="reset" xlink:href="#resetDef" x="30" y="36" onmousedown="handleReset()"/>
                <g id="arrowUp" xlink:href="#dirArrow" transform="translate(30 24)" onmousedown="handlePan(0,-1)">
                  <use xlink:href="#rim" fill="#404040">
                        <set attributeName="fill" to="#808080" begin="arrowUp.mouseover" end="arrowUp.mouseout"/>
                  </use>
                  <path fill="none" stroke="white" stroke-width="1.5" d="M0,-3.0v7 M-2.5,-0.5L0,-3.0L2.5,-0.5"/>
                </g>
                <g id="arrowRight" xlink:href="#dirArrow" transform="rotate(90) translate(36 -43)" onmousedown="handlePan(1,0)">
                  <use xlink:href="#rim" fill="#404040">
                        <set attributeName="fill" to="#808080" begin="arrowRight.mouseover" end="arrowRight.mouseout"/>
                  </use>
                  <path fill="none" stroke="white" stroke-width="1.5" d="M0,-3.0v7 M-2.5,-0.5L0,-3.0L2.5,-0.5"/>
                </g>
                <g id="arrowDown" xlink:href="#dirArrow" transform="rotate(180) translate(-30 -48)" onmousedown="handlePan(0,1)">
                  <use xlink:href="#rim" fill="#404040">
                        <set attributeName="fill" to="#808080" begin="arrowDown.mouseover" end="arrowDown.mouseout"/>
                  </use>
                  <path fill="none" stroke="white" stroke-width="1.5" d="M0,-3.0v7 M-2.5,-0.5L0,-3.0L2.5,-0.5"/>
                </g>
                <g id="arrowLeft" xlink:href="#dirArrow" transform="rotate(270) translate(-36 17)" onmousedown="handlePan(-1,0)">
                  <use xlink:href="#rim" fill="#404040">
                        <set attributeName="fill" to="#808080" begin="arrowLeft.mouseover" end="arrowLeft.mouseout"/>
                  </use>
                  <path fill="none" stroke="white" stroke-width="1.5" d="M0,-3.0v7 M-2.5,-0.5L0,-3.0L2.5,-0.5"/>
                </g>
        </g>
        <svg viewBox="0 0 15 15" width="100%" height="30px" preserveAspectRatio="xMaxYMin meet">
         <g id="arrow_out" transform="scale(0.3 0.3)">
          <a xlink:href="net_8c_a1a280312c4bad55cf10243b9b9c3e966_icgraph_org.svg" target="_base">
           <rect id="button" ry="5" rx="5" y="6" x="6" height="38" width="38"
                fill="#f2f5e9" fill-opacity="0.5" stroke="#606060" stroke-width="1.0"/>
           <path id="arrow"
             d="M 11.500037,31.436501 C 11.940474,20.09759 22.043105,11.32322 32.158766,21.979434 L 37.068811,17.246167 C 37.068811,17.246167 37.088388,32 37.088388,32 L 22.160133,31.978069 C 22.160133,31.978069 26.997745,27.140456 26.997745,27.140456 C 18.528582,18.264221 13.291696,25.230495 11.500037,31.436501 z"
             style="fill:#404040;"/>
          </a>
         </g>
        </svg>
</svg>
