<?xml version="1.0" encoding="UTF-8" standalone="no"?>
<!DOCTYPE svg PUBLIC "-//W3C//DTD SVG 1.1//EN"
 "http://www.w3.org/Graphics/SVG/1.1/DTD/svg11.dtd">
<!-- Generated by graphviz version 2.43.0 (0)
 -->
<!-- Title: coap_pdu_clear Pages: 1 -->
<svg width="224pt" height="46pt"
 viewBox="0.00 0.00 224.00 46.00" xmlns="http://www.w3.org/2000/svg" xmlns:xlink="http://www.w3.org/1999/xlink">
<g id="graph0" class="graph" transform="scale(1 1) rotate(0) translate(4 42)">
<title>coap_pdu_clear</title>
<polygon fill="white" stroke="transparent" points="-4,4 -4,-42 220,-42 220,4 -4,4"/>
<!-- Node295 -->
<g id="node1" class="node">
<title>Node295</title>
<polygon fill="#bfbfbf" stroke="black" points="0,-0.5 0,-19.5 85,-19.5 85,-0.5 0,-0.5"/>
<text text-anchor="middle" x="42.5" y="-7.5" font-family="Helvetica,sans-Serif" font-size="10.00">coap_pdu_clear</text>
</g>
<!-- Node295&#45;&gt;Node295 -->
<g id="edge2" class="edge">
<title>Node295&#45;&gt;Node295</title>
<path fill="none" stroke="midnightblue" d="M23.08,-19.76C13.63,-28.57 20.11,-38 42.5,-38 56.85,-38 64.66,-34.13 65.94,-29.03"/>
<polygon fill="midnightblue" stroke="midnightblue" points="69.11,-27.54 61.92,-19.76 62.68,-30.32 69.11,-27.54"/>
</g>
<!-- Node296 -->
<g id="node2" class="node">
<title>Node296</title>
<g id="a_node2"><a xlink:href="mem_8h.html#a0204710ce56cbaa4f062b7f2622857f5" target="_top" xlink:title="Allocates a chunk of size bytes and returns a pointer to the newly allocated memory. ">
<polygon fill="white" stroke="black" points="121,-0.5 121,-19.5 216,-19.5 216,-0.5 121,-0.5"/>
<text text-anchor="middle" x="168.5" y="-7.5" font-family="Helvetica,sans-Serif" font-size="10.00">coap_malloc_type</text>
</a>
</g>
</g>
<!-- Node295&#45;&gt;Node296 -->
<g id="edge1" class="edge">
<title>Node295&#45;&gt;Node296</title>
<path fill="none" stroke="midnightblue" d="M85.14,-10C93.24,-10 101.86,-10 110.37,-10"/>
<polygon fill="midnightblue" stroke="midnightblue" points="110.63,-13.5 120.63,-10 110.63,-6.5 110.63,-13.5"/>
</g>
</g>
</svg>
