<?xml version="1.0" encoding="UTF-8" standalone="no"?>
<!DOCTYPE svg PUBLIC "-//W3C//DTD SVG 1.1//EN"
 "http://www.w3.org/Graphics/SVG/1.1/DTD/svg11.dtd">
<!-- Generated by graphviz version 2.43.0 (0)
 -->
<!-- Title: coap_new_pdu Pages: 1 -->
<!--zoomable 97 -->
<svg id="main" version="1.1" xmlns="http://www.w3.org/2000/svg" xmlns:xlink="http://www.w3.org/1999/xlink" xml:space="preserve" onload="init(evt)">
<style type="text/css"><![CDATA[
.edge:hover path { stroke: red; }
.edge:hover polygon { stroke: red; fill: red; }
]]></style>
<script type="text/javascript"><![CDATA[
var edges = document.getElementsByTagName('g');
if (edges && edges.length) {
  for (var i=0;i<edges.length;i++) {
    if (edges[i].id.substr(0,4)=='edge') {
      edges[i].setAttribute('class','edge');
    }
  }
}
]]></script>
        <defs>
                <circle id="rim" cx="0" cy="0" r="7"/>
                <circle id="rim2" cx="0" cy="0" r="3.5"/>
                <g id="zoomPlus">
                        <use xlink:href="#rim" fill="#404040">
                                <set attributeName="fill" to="#808080" begin="zoomplus.mouseover" end="zoomplus.mouseout"/>
                        </use>
                        <path d="M-4,0h8M0,-4v8" fill="none" stroke="white" stroke-width="1.5" pointer-events="none"/>
                </g>
                <g id="zoomMin">
                        <use xlink:href="#rim" fill="#404040">
                                <set attributeName="fill" to="#808080" begin="zoomminus.mouseover" end="zoomminus.mouseout"/>
                        </use>
                        <path d="M-4,0h8" fill="none" stroke="white" stroke-width="1.5" pointer-events="none"/>
                </g>
                <g id="dirArrow">
                        <path fill="none" stroke="white" stroke-width="1.5" d="M0,-3.0v7 M-2.5,-0.5L0,-3.0L2.5,-0.5"/>
                </g>
               <g id="resetDef">
                       <use xlink:href="#rim2" fill="#404040">
                               <set attributeName="fill" to="#808080" begin="reset.mouseover" end="reset.mouseout"/>
                       </use>
               </g>
        </defs>

<script type="text/javascript">
var viewWidth = 523;
var viewHeight = 97;
var sectionId = 'dynsection-13';
</script>
<script xlink:href="svgpan.js"/>
<svg id="graph" class="graph">
<g id="viewport">
<title>coap_new_pdu</title>
<polygon fill="white" stroke="transparent" points="-4,4 -4,-92.62 519,-92.62 519,4 -4,4"/>
<!-- Node242 -->
<g id="node1" class="node">
<title>Node242</title>
<polygon fill="#bfbfbf" stroke="black" points="0,-37.5 0,-56.5 82,-56.5 82,-37.5 0,-37.5"/>
<text text-anchor="middle" x="41" y="-44.5" font-family="Helvetica,sans-Serif" font-size="10.00">coap_new_pdu</text>
</g>
<!-- Node243 -->
<g id="node2" class="node">
<title>Node243</title>
<g id="a_node2"><a xlink:href="pdu_8c.html#a8a1f5754d3309fd2880ee8a91607cfc1" target="_top" xlink:title="Creates a new CoAP PDU with at least enough storage space for the given size maximum message size...">
<polygon fill="white" stroke="black" points="152,-56.5 152,-75.5 229,-75.5 229,-56.5 152,-56.5"/>
<text text-anchor="middle" x="190.5" y="-63.5" font-family="Helvetica,sans-Serif" font-size="10.00">coap_pdu_init</text>
</a>
</g>
</g>
<!-- Node242&#45;&gt;Node243 -->
<g id="edge1" class="edge">
<title>Node242&#45;&gt;Node243</title>
<path fill="none" stroke="midnightblue" d="M82.31,-52.19C100.67,-54.56 122.55,-57.38 141.73,-59.85"/>
<polygon fill="midnightblue" stroke="midnightblue" points="141.41,-63.33 151.78,-61.14 142.31,-56.39 141.41,-63.33"/>
</g>
<!-- Node247 -->
<g id="node6" class="node">
<title>Node247</title>
<g id="a_node6"><a xlink:href="coap__session_8c.html#a4368ee622c681bf7cf0b7cfe99c8ab37" target="_top" xlink:title="Get maximum acceptable PDU size. ">
<polygon fill="white" stroke="black" points="118,-18.5 118,-37.5 263,-37.5 263,-18.5 118,-18.5"/>
<text text-anchor="middle" x="190.5" y="-25.5" font-family="Helvetica,sans-Serif" font-size="10.00">coap_session_max_pdu_size</text>
</a>
</g>
</g>
<!-- Node242&#45;&gt;Node247 -->
<g id="edge7" class="edge">
<title>Node242&#45;&gt;Node247</title>
<path fill="none" stroke="midnightblue" d="M82.31,-41.81C90.3,-40.78 98.96,-39.66 107.77,-38.53"/>
<polygon fill="midnightblue" stroke="midnightblue" points="108.29,-41.99 117.76,-37.24 107.4,-35.05 108.29,-41.99"/>
</g>
<!-- Node244 -->
<g id="node3" class="node">
<title>Node244</title>
<g id="a_node3"><a xlink:href="mem_8h.html#a0204710ce56cbaa4f062b7f2622857f5" target="_top" xlink:title="Allocates a chunk of size bytes and returns a pointer to the newly allocated memory. ">
<polygon fill="white" stroke="black" points="420,-47.5 420,-66.5 515,-66.5 515,-47.5 420,-47.5"/>
<text text-anchor="middle" x="467.5" y="-54.5" font-family="Helvetica,sans-Serif" font-size="10.00">coap_malloc_type</text>
</a>
</g>
</g>
<!-- Node243&#45;&gt;Node244 -->
<g id="edge2" class="edge">
<title>Node243&#45;&gt;Node244</title>
<path fill="none" stroke="midnightblue" d="M229.31,-75.55C268.27,-84.02 330.65,-93.81 384,-85 401.38,-82.13 420.03,-76.08 435.19,-70.33"/>
<polygon fill="midnightblue" stroke="midnightblue" points="436.57,-73.54 444.6,-66.63 434.01,-67.03 436.57,-73.54"/>
</g>
<!-- Node245 -->
<g id="node4" class="node">
<title>Node245</title>
<g id="a_node4"><a xlink:href="mem_8h.html#ae7214e0c73a4d4290525873e739ed422" target="_top" xlink:title="Releases the memory that was allocated by coap_malloc_type(). ">
<polygon fill="white" stroke="black" points="300,-56.5 300,-75.5 383,-75.5 383,-56.5 300,-56.5"/>
<text text-anchor="middle" x="341.5" y="-63.5" font-family="Helvetica,sans-Serif" font-size="10.00">coap_free_type</text>
</a>
</g>
</g>
<!-- Node243&#45;&gt;Node245 -->
<g id="edge3" class="edge">
<title>Node243&#45;&gt;Node245</title>
<path fill="none" stroke="midnightblue" d="M229.1,-66C247.45,-66 269.8,-66 289.65,-66"/>
<polygon fill="midnightblue" stroke="midnightblue" points="289.77,-69.5 299.77,-66 289.77,-62.5 289.77,-69.5"/>
</g>
<!-- Node246 -->
<g id="node5" class="node">
<title>Node246</title>
<g id="a_node5"><a xlink:href="pdu_8c.html#a9dbdf354e2da5e80fea4c0d4a8df6d05" target="_top" xlink:title="Clears any contents from pdu and resets used_size, and data pointers. ">
<polygon fill="white" stroke="black" points="299,-0.5 299,-19.5 384,-19.5 384,-0.5 299,-0.5"/>
<text text-anchor="middle" x="341.5" y="-7.5" font-family="Helvetica,sans-Serif" font-size="10.00">coap_pdu_clear</text>
</a>
</g>
</g>
<!-- Node243&#45;&gt;Node246 -->
<g id="edge4" class="edge">
<title>Node243&#45;&gt;Node246</title>
<path fill="none" stroke="midnightblue" d="M229.02,-57.43C240.09,-54.53 252.15,-50.99 263,-47 280.33,-40.62 299.04,-31.75 313.73,-24.3"/>
<polygon fill="midnightblue" stroke="midnightblue" points="315.46,-27.34 322.75,-19.64 312.25,-21.12 315.46,-27.34"/>
</g>
<!-- Node246&#45;&gt;Node244 -->
<g id="edge5" class="edge">
<title>Node246&#45;&gt;Node244</title>
<path fill="none" stroke="midnightblue" d="M367.59,-19.51C385.96,-26.47 411.12,-36.01 431.47,-43.72"/>
<polygon fill="midnightblue" stroke="midnightblue" points="430.43,-47.07 441.02,-47.34 432.91,-40.52 430.43,-47.07"/>
</g>
<!-- Node246&#45;&gt;Node246 -->
<g id="edge6" class="edge">
<title>Node246&#45;&gt;Node246</title>
<path fill="none" stroke="midnightblue" d="M322.08,-19.76C312.63,-28.57 319.11,-38 341.5,-38 355.85,-38 363.66,-34.13 364.94,-29.03"/>
<polygon fill="midnightblue" stroke="midnightblue" points="368.11,-27.54 360.92,-19.76 361.68,-30.32 368.11,-27.54"/>
</g>
</g>
</svg>
        <g id="navigator" transform="translate(0 0)" fill="#404254">
                <rect fill="#f2f5e9" fill-opacity="0.5" stroke="#606060" stroke-width=".5" x="0" y="0" width="60" height="60"/>
                <use id="zoomplus" xlink:href="#zoomPlus" x="17" y="9" onmousedown="handleZoom(evt,'in')"/>
                <use id="zoomminus" xlink:href="#zoomMin" x="42" y="9" onmousedown="handleZoom(evt,'out')"/>
                <use id="reset" xlink:href="#resetDef" x="30" y="36" onmousedown="handleReset()"/>
                <g id="arrowUp" xlink:href="#dirArrow" transform="translate(30 24)" onmousedown="handlePan(0,-1)">
                  <use xlink:href="#rim" fill="#404040">
                        <set attributeName="fill" to="#808080" begin="arrowUp.mouseover" end="arrowUp.mouseout"/>
                  </use>
                  <path fill="none" stroke="white" stroke-width="1.5" d="M0,-3.0v7 M-2.5,-0.5L0,-3.0L2.5,-0.5"/>
                </g>
                <g id="arrowRight" xlink:href="#dirArrow" transform="rotate(90) translate(36 -43)" onmousedown="handlePan(1,0)">
                  <use xlink:href="#rim" fill="#404040">
                        <set attributeName="fill" to="#808080" begin="arrowRight.mouseover" end="arrowRight.mouseout"/>
                  </use>
                  <path fill="none" stroke="white" stroke-width="1.5" d="M0,-3.0v7 M-2.5,-0.5L0,-3.0L2.5,-0.5"/>
                </g>
                <g id="arrowDown" xlink:href="#dirArrow" transform="rotate(180) translate(-30 -48)" onmousedown="handlePan(0,1)">
                  <use xlink:href="#rim" fill="#404040">
                        <set attributeName="fill" to="#808080" begin="arrowDown.mouseover" end="arrowDown.mouseout"/>
                  </use>
                  <path fill="none" stroke="white" stroke-width="1.5" d="M0,-3.0v7 M-2.5,-0.5L0,-3.0L2.5,-0.5"/>
                </g>
                <g id="arrowLeft" xlink:href="#dirArrow" transform="rotate(270) translate(-36 17)" onmousedown="handlePan(-1,0)">
                  <use xlink:href="#rim" fill="#404040">
                        <set attributeName="fill" to="#808080" begin="arrowLeft.mouseover" end="arrowLeft.mouseout"/>
                  </use>
                  <path fill="none" stroke="white" stroke-width="1.5" d="M0,-3.0v7 M-2.5,-0.5L0,-3.0L2.5,-0.5"/>
                </g>
        </g>
        <svg viewBox="0 0 15 15" width="100%" height="30px" preserveAspectRatio="xMaxYMin meet">
         <g id="arrow_out" transform="scale(0.3 0.3)">
          <a xlink:href="pdu_8c_a95b5e0611afb772be6dfe3d25191878f_cgraph_org.svg" target="_base">
           <rect id="button" ry="5" rx="5" y="6" x="6" height="38" width="38"
                fill="#f2f5e9" fill-opacity="0.5" stroke="#606060" stroke-width="1.0"/>
           <path id="arrow"
             d="M 11.500037,31.436501 C 11.940474,20.09759 22.043105,11.32322 32.158766,21.979434 L 37.068811,17.246167 C 37.068811,17.246167 37.088388,32 37.088388,32 L 22.160133,31.978069 C 22.160133,31.978069 26.997745,27.140456 26.997745,27.140456 C 18.528582,18.264221 13.291696,25.230495 11.500037,31.436501 z"
             style="fill:#404040;"/>
          </a>
         </g>
        </svg>
</svg>
