<?xml version="1.0" encoding="UTF-8" standalone="no"?>
<!DOCTYPE svg PUBLIC "-//W3C//DTD SVG 1.1//EN"
 "http://www.w3.org/Graphics/SVG/1.1/DTD/svg11.dtd">
<!-- Generated by graphviz version 2.43.0 (0)
 -->
<!-- Title: coap_pdu_clear Pages: 1 -->
<svg width="345pt" height="57pt"
 viewBox="0.00 0.00 345.00 56.60" xmlns="http://www.w3.org/2000/svg" xmlns:xlink="http://www.w3.org/1999/xlink">
<g id="graph0" class="graph" transform="scale(1 1) rotate(0) translate(4 52.6)">
<title>coap_pdu_clear</title>
<polygon fill="white" stroke="transparent" points="-4,4 -4,-52.6 341,-52.6 341,4 -4,4"/>
<!-- Node249 -->
<g id="node1" class="node">
<title>Node249</title>
<polygon fill="#bfbfbf" stroke="black" points="0,-28.5 0,-47.5 85,-47.5 85,-28.5 0,-28.5"/>
<text text-anchor="middle" x="42.5" y="-35.5" font-family="Helvetica,sans-Serif" font-size="10.00">coap_pdu_clear</text>
</g>
<!-- Node250 -->
<g id="node2" class="node">
<title>Node250</title>
<g id="a_node2"><a xlink:href="mem_8h.html#a0204710ce56cbaa4f062b7f2622857f5" target="_top" xlink:title="Allocates a chunk of size bytes and returns a pointer to the newly allocated memory. ">
<polygon fill="white" stroke="black" points="242,-28.5 242,-47.5 337,-47.5 337,-28.5 242,-28.5"/>
<text text-anchor="middle" x="289.5" y="-35.5" font-family="Helvetica,sans-Serif" font-size="10.00">coap_malloc_type</text>
</a>
</g>
</g>
<!-- Node249&#45;&gt;Node250 -->
<g id="edge1" class="edge">
<title>Node249&#45;&gt;Node250</title>
<path fill="none" stroke="midnightblue" d="M85.25,-43.75C96.81,-45.09 109.37,-46.33 121,-47 158.71,-49.18 168.28,-49.05 206,-47 214.38,-46.54 223.21,-45.83 231.86,-45"/>
<polygon fill="midnightblue" stroke="midnightblue" points="232.29,-48.47 241.89,-43.98 231.58,-41.51 232.29,-48.47"/>
</g>
<!-- Node251 -->
<g id="node3" class="node">
<title>Node251</title>
<g id="a_node3"><a xlink:href="pdu_8c.html#a9dbdf354e2da5e80fea4c0d4a8df6d05" target="_top" xlink:title="Clears any contents from pdu and resets used_size, and data pointers. ">
<polygon fill="white" stroke="black" points="121,-0.5 121,-19.5 206,-19.5 206,-0.5 121,-0.5"/>
<text text-anchor="middle" x="163.5" y="-7.5" font-family="Helvetica,sans-Serif" font-size="10.00">coap_pdu_clear</text>
</a>
</g>
</g>
<!-- Node249&#45;&gt;Node251 -->
<g id="edge2" class="edge">
<title>Node249&#45;&gt;Node251</title>
<path fill="none" stroke="midnightblue" d="M84.12,-28.44C93.12,-26.32 102.76,-24.06 112.1,-21.86"/>
<polygon fill="midnightblue" stroke="midnightblue" points="113.13,-25.21 122.06,-19.51 111.53,-18.4 113.13,-25.21"/>
</g>
<!-- Node251&#45;&gt;Node250 -->
<g id="edge3" class="edge">
<title>Node251&#45;&gt;Node250</title>
<path fill="none" stroke="midnightblue" d="M206.14,-19.4C215.84,-21.59 226.3,-23.96 236.4,-26.24"/>
<polygon fill="midnightblue" stroke="midnightblue" points="235.82,-29.69 246.34,-28.48 237.36,-22.86 235.82,-29.69"/>
</g>
<!-- Node251&#45;&gt;Node251 -->
<g id="edge4" class="edge">
<title>Node251&#45;&gt;Node251</title>
<path fill="none" stroke="midnightblue" d="M145,-19.76C136.01,-28.57 142.17,-38 163.5,-38 177.16,-38 184.6,-34.13 185.82,-29.03"/>
<polygon fill="midnightblue" stroke="midnightblue" points="189.05,-27.67 182,-19.76 182.57,-30.34 189.05,-27.67"/>
</g>
</g>
</svg>
