<?xml version="1.0" encoding="UTF-8" standalone="no"?>
<!DOCTYPE svg PUBLIC "-//W3C//DTD SVG 1.1//EN"
 "http://www.w3.org/Graphics/SVG/1.1/DTD/svg11.dtd">
<!-- Generated by graphviz version 2.43.0 (0)
 -->
<!-- Title: coap_touch_observer Pages: 1 -->
<!--zoomable 254 -->
<svg id="main" version="1.1" xmlns="http://www.w3.org/2000/svg" xmlns:xlink="http://www.w3.org/1999/xlink" xml:space="preserve" onload="init(evt)">
<style type="text/css"><![CDATA[
.edge:hover path { stroke: red; }
.edge:hover polygon { stroke: red; fill: red; }
]]></style>
<script type="text/javascript"><![CDATA[
var edges = document.getElementsByTagName('g');
if (edges && edges.length) {
  for (var i=0;i<edges.length;i++) {
    if (edges[i].id.substr(0,4)=='edge') {
      edges[i].setAttribute('class','edge');
    }
  }
}
]]></script>
        <defs>
                <circle id="rim" cx="0" cy="0" r="7"/>
                <circle id="rim2" cx="0" cy="0" r="3.5"/>
                <g id="zoomPlus">
                        <use xlink:href="#rim" fill="#404040">
                                <set attributeName="fill" to="#808080" begin="zoomplus.mouseover" end="zoomplus.mouseout"/>
                        </use>
                        <path d="M-4,0h8M0,-4v8" fill="none" stroke="white" stroke-width="1.5" pointer-events="none"/>
                </g>
                <g id="zoomMin">
                        <use xlink:href="#rim" fill="#404040">
                                <set attributeName="fill" to="#808080" begin="zoomminus.mouseover" end="zoomminus.mouseout"/>
                        </use>
                        <path d="M-4,0h8" fill="none" stroke="white" stroke-width="1.5" pointer-events="none"/>
                </g>
                <g id="dirArrow">
                        <path fill="none" stroke="white" stroke-width="1.5" d="M0,-3.0v7 M-2.5,-0.5L0,-3.0L2.5,-0.5"/>
                </g>
               <g id="resetDef">
                       <use xlink:href="#rim2" fill="#404040">
                               <set attributeName="fill" to="#808080" begin="reset.mouseover" end="reset.mouseout"/>
                       </use>
               </g>
        </defs>

<script type="text/javascript">
var viewWidth = 1569;
var viewHeight = 254;
var sectionId = 'dynsection-38';
</script>
<script xlink:href="svgpan.js"/>
<svg id="graph" class="graph">
<g id="viewport">
<title>coap_touch_observer</title>
<polygon fill="white" stroke="transparent" points="-4,4 -4,-250 1565,-250 1565,4 -4,4"/>
<!-- Node584 -->
<g id="node1" class="node">
<title>Node584</title>
<polygon fill="#bfbfbf" stroke="black" points="0,-31.5 0,-50.5 110,-50.5 110,-31.5 0,-31.5"/>
<text text-anchor="middle" x="55" y="-38.5" font-family="Helvetica,sans-Serif" font-size="10.00">coap_touch_observer</text>
</g>
<!-- Node585 -->
<g id="node2" class="node">
<title>Node585</title>
<g id="a_node2"><a xlink:href="net_8c.html#a1a280312c4bad55cf10243b9b9c3e966" target="_top" xlink:title="handle_request">
<polygon fill="white" stroke="black" points="146,-50.5 146,-69.5 229,-69.5 229,-50.5 146,-50.5"/>
<text text-anchor="middle" x="187.5" y="-57.5" font-family="Helvetica,sans-Serif" font-size="10.00">handle_request</text>
</a>
</g>
</g>
<!-- Node584&#45;&gt;Node585 -->
<g id="edge1" class="edge">
<title>Node584&#45;&gt;Node585</title>
<path fill="none" stroke="midnightblue" d="M120.34,-50.37C129.01,-51.63 137.69,-52.89 145.79,-54.07"/>
<polygon fill="midnightblue" stroke="midnightblue" points="120.61,-46.87 110.21,-48.89 119.6,-53.8 120.61,-46.87"/>
</g>
<!-- Node586 -->
<g id="node3" class="node">
<title>Node586</title>
<g id="a_node3"><a xlink:href="net_8h.html#a7bb944fc52f772655356d95724317401" target="_top" xlink:title="Dispatches the PDUs from the receive queue in given context. ">
<polygon fill="white" stroke="black" points="265,-31.5 265,-50.5 345,-50.5 345,-31.5 265,-31.5"/>
<text text-anchor="middle" x="305" y="-38.5" font-family="Helvetica,sans-Serif" font-size="10.00">coap_dispatch</text>
</a>
</g>
</g>
<!-- Node584&#45;&gt;Node586 -->
<g id="edge25" class="edge">
<title>Node584&#45;&gt;Node586</title>
<path fill="none" stroke="midnightblue" d="M120.26,-41C166.08,-41 226.22,-41 264.99,-41"/>
<polygon fill="midnightblue" stroke="midnightblue" points="120.12,-37.5 110.12,-41 120.12,-44.5 120.12,-37.5"/>
</g>
<!-- Node585&#45;&gt;Node586 -->
<g id="edge2" class="edge">
<title>Node585&#45;&gt;Node586</title>
<path fill="none" stroke="midnightblue" d="M239.17,-51.67C247.76,-50.25 256.57,-48.8 264.81,-47.45"/>
<polygon fill="midnightblue" stroke="midnightblue" points="238.52,-48.22 229.22,-53.3 239.66,-55.13 238.52,-48.22"/>
</g>
<!-- Node587 -->
<g id="node4" class="node">
<title>Node587</title>
<g id="a_node4"><a xlink:href="net_8c.html#acd36f6fba6d30ab9557e0e6521f4a088" target="_top" xlink:title="coap_read_session">
<polygon fill="white" stroke="black" points="678.5,-50.5 678.5,-69.5 779.5,-69.5 779.5,-50.5 678.5,-50.5"/>
<text text-anchor="middle" x="729" y="-57.5" font-family="Helvetica,sans-Serif" font-size="10.00">coap_read_session</text>
</a>
</g>
</g>
<!-- Node586&#45;&gt;Node587 -->
<g id="edge3" class="edge">
<title>Node586&#45;&gt;Node587</title>
<path fill="none" stroke="midnightblue" d="M355.77,-43.24C437,-46.9 597.13,-54.11 678.3,-57.76"/>
<polygon fill="midnightblue" stroke="midnightblue" points="355.47,-39.72 345.32,-42.77 355.15,-46.72 355.47,-39.72"/>
</g>
<!-- Node596 -->
<g id="node13" class="node">
<title>Node596</title>
<g id="a_node13"><a xlink:href="net_8h.html#ae6b8ca457dd41f23372f9e9a7159312b" target="_top" xlink:title="Parses and interprets a CoAP datagram with context ctx. ">
<polygon fill="white" stroke="black" points="381,-12.5 381,-31.5 485,-31.5 485,-12.5 381,-12.5"/>
<text text-anchor="middle" x="433" y="-19.5" font-family="Helvetica,sans-Serif" font-size="10.00">coap_handle_dgram</text>
</a>
</g>
</g>
<!-- Node586&#45;&gt;Node596 -->
<g id="edge19" class="edge">
<title>Node586&#45;&gt;Node596</title>
<path fill="none" stroke="midnightblue" d="M355.21,-33.58C363.6,-32.31 372.34,-31 380.79,-29.72"/>
<polygon fill="midnightblue" stroke="midnightblue" points="354.54,-30.14 345.18,-35.09 355.59,-37.06 354.54,-30.14"/>
</g>
<!-- Node588 -->
<g id="node5" class="node">
<title>Node588</title>
<g id="a_node5"><a xlink:href="net_8h.html#a0748d791fd2af516dd93fbadb660d440" target="_top" xlink:title="For applications with their own message loop, reads all data from the network. ">
<polygon fill="white" stroke="black" points="817,-66.5 817,-85.5 879,-85.5 879,-66.5 817,-66.5"/>
<text text-anchor="middle" x="848" y="-73.5" font-family="Helvetica,sans-Serif" font-size="10.00">coap_read</text>
</a>
</g>
</g>
<!-- Node587&#45;&gt;Node588 -->
<g id="edge4" class="edge">
<title>Node587&#45;&gt;Node588</title>
<path fill="none" stroke="midnightblue" d="M789.82,-68.18C799.24,-69.47 808.62,-70.75 816.98,-71.89"/>
<polygon fill="midnightblue" stroke="midnightblue" points="790,-64.67 779.62,-66.79 789.05,-71.61 790,-64.67"/>
</g>
<!-- Node593 -->
<g id="node10" class="node">
<title>Node593</title>
<g id="a_node10"><a xlink:href="net_8h.html#a7b591afa095a093b604b63313275a02a" target="_top" xlink:title="Process all the epoll events. ">
<polygon fill="white" stroke="black" points="1341,-75.5 1341,-94.5 1442,-94.5 1442,-75.5 1341,-75.5"/>
<text text-anchor="middle" x="1391.5" y="-82.5" font-family="Helvetica,sans-Serif" font-size="10.00">coap_io_do_events</text>
</a>
</g>
</g>
<!-- Node587&#45;&gt;Node593 -->
<g id="edge18" class="edge">
<title>Node587&#45;&gt;Node593</title>
<path fill="none" stroke="midnightblue" d="M789.94,-51.01C835.61,-44.93 900.13,-38 957,-38 957,-38 957,-38 1097.5,-38 1191.26,-38 1299.8,-61.76 1354.71,-75.49"/>
<polygon fill="midnightblue" stroke="midnightblue" points="789.35,-47.55 779.91,-52.37 790.29,-54.49 789.35,-47.55"/>
</g>
<!-- Node589 -->
<g id="node6" class="node">
<title>Node589</title>
<g id="a_node6"><a xlink:href="coap__io_8c.html#a75a7c93e10ca7858449ba304aad4ea37" target="_top" xlink:title="coap_run_once">
<polygon fill="white" stroke="black" points="1478,-179.5 1478,-198.5 1561,-198.5 1561,-179.5 1478,-179.5"/>
<text text-anchor="middle" x="1519.5" y="-186.5" font-family="Helvetica,sans-Serif" font-size="10.00">coap_run_once</text>
</a>
</g>
</g>
<!-- Node588&#45;&gt;Node589 -->
<g id="edge5" class="edge">
<title>Node588&#45;&gt;Node589</title>
<path fill="none" stroke="midnightblue" d="M860.05,-94.41C871.88,-112.96 892.06,-141.55 915,-161 982.64,-218.34 1006.83,-246 1095.5,-246 1095.5,-246 1095.5,-246 1249.5,-246 1339.96,-246 1443.9,-214.77 1491.79,-198.54"/>
<polygon fill="midnightblue" stroke="midnightblue" points="862.91,-92.38 854.66,-85.73 856.96,-96.07 862.91,-92.38"/>
</g>
<!-- Node590 -->
<g id="node7" class="node">
<title>Node590</title>
<g id="a_node7"><a xlink:href="net_8h.html#a9900c032b74bd57f67d489484a2b3207" target="_top" xlink:title="Handles retransmissions of confirmable messages. ">
<polygon fill="white" stroke="black" points="915,-132.5 915,-151.5 1001,-151.5 1001,-132.5 915,-132.5"/>
<text text-anchor="middle" x="958" y="-139.5" font-family="Helvetica,sans-Serif" font-size="10.00">coap_retransmit</text>
</a>
</g>
</g>
<!-- Node588&#45;&gt;Node590 -->
<g id="edge6" class="edge">
<title>Node588&#45;&gt;Node590</title>
<path fill="none" stroke="midnightblue" d="M873.56,-91.01C894.37,-103.73 923.58,-121.58 941.35,-132.44"/>
<polygon fill="midnightblue" stroke="midnightblue" points="875.29,-87.97 864.94,-85.74 871.64,-93.94 875.29,-87.97"/>
</g>
<!-- Node594 -->
<g id="node11" class="node">
<title>Node594</title>
<g id="a_node11"><a xlink:href="net_8h.html#a5854b1394bfddd574e48af116e3aaaf9" target="_top" xlink:title="Sends an RST message with code 0 for the specified request to dst. ">
<polygon fill="white" stroke="black" points="1208.5,-122.5 1208.5,-141.5 1288.5,-141.5 1288.5,-122.5 1208.5,-122.5"/>
<text text-anchor="middle" x="1248.5" y="-129.5" font-family="Helvetica,sans-Serif" font-size="10.00">coap_send_rst</text>
</a>
</g>
</g>
<!-- Node588&#45;&gt;Node594 -->
<g id="edge17" class="edge">
<title>Node588&#45;&gt;Node594</title>
<path fill="none" stroke="midnightblue" d="M889.14,-74.41C948.34,-72.98 1062.17,-73.72 1156,-95 1182.24,-100.95 1210.71,-113.52 1228.8,-122.35"/>
<polygon fill="midnightblue" stroke="midnightblue" points="888.99,-70.91 879.09,-74.69 889.18,-77.91 888.99,-70.91"/>
</g>
<!-- Node591 -->
<g id="node8" class="node">
<title>Node591</title>
<g id="a_node8"><a xlink:href="net_8h.html#aaac86ac50793f309678e4951ecf8863f" target="_top" xlink:title="For applications with their own message loop, send all pending retransmits and return the list of soc...">
<polygon fill="white" stroke="black" points="1064.5,-198.5 1064.5,-217.5 1128.5,-217.5 1128.5,-198.5 1064.5,-198.5"/>
<text text-anchor="middle" x="1096.5" y="-205.5" font-family="Helvetica,sans-Serif" font-size="10.00">coap_write</text>
</a>
</g>
</g>
<!-- Node590&#45;&gt;Node591 -->
<g id="edge7" class="edge">
<title>Node590&#45;&gt;Node591</title>
<path fill="none" stroke="midnightblue" d="M984.23,-156.46C999.34,-164.89 1019.04,-175.51 1037,-184 1047.82,-189.11 1060.03,-194.22 1070.49,-198.41"/>
<polygon fill="midnightblue" stroke="midnightblue" points="985.91,-153.38 975.48,-151.52 982.47,-159.48 985.91,-153.38"/>
</g>
<!-- Node590&#45;&gt;Node594 -->
<g id="edge16" class="edge">
<title>Node590&#45;&gt;Node594</title>
<path fill="none" stroke="midnightblue" d="M1011.03,-148.84C1019.69,-149.74 1028.59,-150.52 1037,-151 1089.8,-154.04 1103.39,-156.4 1156,-151 1174.08,-149.14 1193.85,-145.27 1210.37,-141.51"/>
<polygon fill="midnightblue" stroke="midnightblue" points="1011.35,-145.36 1001.02,-147.75 1010.58,-152.32 1011.35,-145.36"/>
</g>
<!-- Node595 -->
<g id="node12" class="node">
<title>Node595</title>
<g id="a_node12"><a xlink:href="net_8h.html#a09ff95ae16a4b7f6abf4a0822d430658" target="_top" xlink:title="Function interface for joining a multicast group for listening. ">
<polygon fill="white" stroke="black" points="1037,-104.5 1037,-123.5 1156,-123.5 1156,-104.5 1037,-104.5"/>
<text text-anchor="middle" x="1096.5" y="-111.5" font-family="Helvetica,sans-Serif" font-size="10.00">coap_join_mcast_group</text>
</a>
</g>
</g>
<!-- Node590&#45;&gt;Node595 -->
<g id="edge14" class="edge">
<title>Node590&#45;&gt;Node595</title>
<path fill="none" stroke="midnightblue" d="M1010.92,-131.35C1023.46,-128.78 1036.78,-126.04 1049.05,-123.53"/>
<polygon fill="midnightblue" stroke="midnightblue" points="1010.16,-127.93 1001.07,-133.37 1011.57,-134.79 1010.16,-127.93"/>
</g>
<!-- Node591&#45;&gt;Node589 -->
<g id="edge12" class="edge">
<title>Node591&#45;&gt;Node589</title>
<path fill="none" stroke="midnightblue" d="M1139.07,-206.64C1203.83,-204.45 1332.72,-199.79 1442,-194 1453.56,-193.39 1466.1,-192.61 1477.62,-191.86"/>
<polygon fill="midnightblue" stroke="midnightblue" points="1138.74,-203.15 1128.86,-206.98 1138.97,-210.15 1138.74,-203.15"/>
</g>
<!-- Node592 -->
<g id="node9" class="node">
<title>Node592</title>
<g id="a_node9"><a xlink:href="net_8h.html#a3be92476a2c2c12d68c0cd07795c7e34" target="_top" xlink:title="Any now timed out delayed packet is transmitted, along with any packets associated with requested obs...">
<polygon fill="white" stroke="black" points="1192,-160.5 1192,-179.5 1305,-179.5 1305,-160.5 1192,-160.5"/>
<text text-anchor="middle" x="1248.5" y="-167.5" font-family="Helvetica,sans-Serif" font-size="10.00">coap_io_prepare_epoll</text>
</a>
</g>
</g>
<!-- Node591&#45;&gt;Node592 -->
<g id="edge8" class="edge">
<title>Node591&#45;&gt;Node592</title>
<path fill="none" stroke="midnightblue" d="M1138.42,-197.63C1160.69,-191.99 1188.07,-185.06 1209.82,-179.55"/>
<polygon fill="midnightblue" stroke="midnightblue" points="1137.41,-194.28 1128.58,-200.13 1139.13,-201.06 1137.41,-194.28"/>
</g>
<!-- Node591&#45;&gt;Node594 -->
<g id="edge13" class="edge">
<title>Node591&#45;&gt;Node594</title>
<path fill="none" stroke="midnightblue" d="M1135.81,-194.57C1142.75,-191.5 1149.76,-187.96 1156,-184 1174.32,-172.37 1173.34,-162.08 1192,-151 1198.3,-147.26 1205.45,-144.11 1212.47,-141.53"/>
<polygon fill="midnightblue" stroke="midnightblue" points="1134.36,-191.38 1126.47,-198.45 1137.04,-197.84 1134.36,-191.38"/>
</g>
<!-- Node592&#45;&gt;Node589 -->
<g id="edge9" class="edge">
<title>Node592&#45;&gt;Node589</title>
<path fill="none" stroke="midnightblue" d="M1315.46,-174.66C1366.2,-178.24 1434.7,-183.08 1477.73,-186.12"/>
<polygon fill="midnightblue" stroke="midnightblue" points="1315.46,-171.15 1305.24,-173.94 1314.97,-178.13 1315.46,-171.15"/>
</g>
<!-- Node592&#45;&gt;Node593 -->
<g id="edge10" class="edge">
<title>Node592&#45;&gt;Node593</title>
<path fill="none" stroke="midnightblue" d="M1292.54,-156.85C1296.84,-155.07 1301.06,-153.12 1305,-151 1334.89,-134.92 1365.25,-108.58 1380.48,-94.53"/>
<polygon fill="midnightblue" stroke="midnightblue" points="1291.2,-153.62 1283.12,-160.47 1293.71,-160.15 1291.2,-153.62"/>
</g>
<!-- Node593&#45;&gt;Node589 -->
<g id="edge11" class="edge">
<title>Node593&#45;&gt;Node589</title>
<path fill="none" stroke="midnightblue" d="M1411.98,-101.08C1438.54,-123 1485.26,-161.57 1506.9,-179.43"/>
<polygon fill="midnightblue" stroke="midnightblue" points="1414.07,-98.26 1404.13,-94.6 1409.61,-103.66 1414.07,-98.26"/>
</g>
<!-- Node595&#45;&gt;Node595 -->
<g id="edge15" class="edge">
<title>Node595&#45;&gt;Node595</title>
<path fill="none" stroke="midnightblue" d="M1070.83,-133.03C1072.23,-138.13 1080.79,-142 1096.5,-142 1121.03,-142 1128.12,-132.57 1117.77,-123.76"/>
<polygon fill="midnightblue" stroke="midnightblue" points="1074.11,-134.29 1075.23,-123.76 1067.78,-131.29 1074.11,-134.29"/>
</g>
<!-- Node597 -->
<g id="node14" class="node">
<title>Node597</title>
<g id="a_node14"><a xlink:href="net_8c.html#a8534f7860b14e0743529daff196a27ce" target="_top" xlink:title="coap_handle_dgram_for\l_proto">
<polygon fill="white" stroke="black" points="521,-4 521,-34 641,-34 641,-4 521,-4"/>
<text text-anchor="start" x="529" y="-22" font-family="Helvetica,sans-Serif" font-size="10.00">coap_handle_dgram_for</text>
<text text-anchor="middle" x="581" y="-11" font-family="Helvetica,sans-Serif" font-size="10.00">_proto</text>
</a>
</g>
</g>
<!-- Node596&#45;&gt;Node597 -->
<g id="edge20" class="edge">
<title>Node596&#45;&gt;Node597</title>
<path fill="none" stroke="midnightblue" d="M495.29,-20.74C503.79,-20.57 512.51,-20.39 520.96,-20.21"/>
<polygon fill="midnightblue" stroke="midnightblue" points="494.99,-17.25 485.06,-20.95 495.13,-24.24 494.99,-17.25"/>
</g>
<!-- Node597&#45;&gt;Node587 -->
<g id="edge21" class="edge">
<title>Node597&#45;&gt;Node587</title>
<path fill="none" stroke="midnightblue" d="M645.28,-36.77C662.02,-41.47 679.46,-46.37 693.98,-50.45"/>
<polygon fill="midnightblue" stroke="midnightblue" points="646.11,-33.37 635.54,-34.03 644.22,-40.11 646.11,-33.37"/>
</g>
<!-- Node598 -->
<g id="node15" class="node">
<title>Node598</title>
<g id="a_node15"><a xlink:href="net_8c.html#a44ffb4b70e537043e9a9cf344be24b92" target="_top" xlink:title="coap_read_endpoint">
<polygon fill="white" stroke="black" points="677,-9.5 677,-28.5 781,-28.5 781,-9.5 677,-9.5"/>
<text text-anchor="middle" x="729" y="-16.5" font-family="Helvetica,sans-Serif" font-size="10.00">coap_read_endpoint</text>
</a>
</g>
</g>
<!-- Node597&#45;&gt;Node598 -->
<g id="edge22" class="edge">
<title>Node597&#45;&gt;Node598</title>
<path fill="none" stroke="midnightblue" d="M651.61,-19C660.04,-19 668.53,-19 676.63,-19"/>
<polygon fill="midnightblue" stroke="midnightblue" points="651.38,-15.5 641.38,-19 651.38,-22.5 651.38,-15.5"/>
</g>
<!-- Node598&#45;&gt;Node588 -->
<g id="edge23" class="edge">
<title>Node598&#45;&gt;Node588</title>
<path fill="none" stroke="midnightblue" d="M762.66,-32.63C768.79,-35.32 775.12,-38.18 781,-41 797.84,-49.08 816.62,-59.14 829.82,-66.4"/>
<polygon fill="midnightblue" stroke="midnightblue" points="763.85,-29.33 753.28,-28.58 761.07,-35.75 763.85,-29.33"/>
</g>
<!-- Node598&#45;&gt;Node593 -->
<g id="edge24" class="edge">
<title>Node598&#45;&gt;Node593</title>
<path fill="none" stroke="midnightblue" d="M791.31,-11.08C836.92,-5.87 900.75,0 957,0 957,0 957,0 1097.5,0 1191.51,0 1216.23,-10.08 1305,-41 1330.7,-49.95 1358.33,-65.34 1375.02,-75.34"/>
<polygon fill="midnightblue" stroke="midnightblue" points="790.81,-7.61 781.29,-12.25 791.62,-14.57 790.81,-7.61"/>
</g>
</g>
</svg>
        <g id="navigator" transform="translate(0 0)" fill="#404254">
                <rect fill="#f2f5e9" fill-opacity="0.5" stroke="#606060" stroke-width=".5" x="0" y="0" width="60" height="60"/>
                <use id="zoomplus" xlink:href="#zoomPlus" x="17" y="9" onmousedown="handleZoom(evt,'in')"/>
                <use id="zoomminus" xlink:href="#zoomMin" x="42" y="9" onmousedown="handleZoom(evt,'out')"/>
                <use id="reset" xlink:href="#resetDef" x="30" y="36" onmousedown="handleReset()"/>
                <g id="arrowUp" xlink:href="#dirArrow" transform="translate(30 24)" onmousedown="handlePan(0,-1)">
                  <use xlink:href="#rim" fill="#404040">
                        <set attributeName="fill" to="#808080" begin="arrowUp.mouseover" end="arrowUp.mouseout"/>
                  </use>
                  <path fill="none" stroke="white" stroke-width="1.5" d="M0,-3.0v7 M-2.5,-0.5L0,-3.0L2.5,-0.5"/>
                </g>
                <g id="arrowRight" xlink:href="#dirArrow" transform="rotate(90) translate(36 -43)" onmousedown="handlePan(1,0)">
                  <use xlink:href="#rim" fill="#404040">
                        <set attributeName="fill" to="#808080" begin="arrowRight.mouseover" end="arrowRight.mouseout"/>
                  </use>
                  <path fill="none" stroke="white" stroke-width="1.5" d="M0,-3.0v7 M-2.5,-0.5L0,-3.0L2.5,-0.5"/>
                </g>
                <g id="arrowDown" xlink:href="#dirArrow" transform="rotate(180) translate(-30 -48)" onmousedown="handlePan(0,1)">
                  <use xlink:href="#rim" fill="#404040">
                        <set attributeName="fill" to="#808080" begin="arrowDown.mouseover" end="arrowDown.mouseout"/>
                  </use>
                  <path fill="none" stroke="white" stroke-width="1.5" d="M0,-3.0v7 M-2.5,-0.5L0,-3.0L2.5,-0.5"/>
                </g>
                <g id="arrowLeft" xlink:href="#dirArrow" transform="rotate(270) translate(-36 17)" onmousedown="handlePan(-1,0)">
                  <use xlink:href="#rim" fill="#404040">
                        <set attributeName="fill" to="#808080" begin="arrowLeft.mouseover" end="arrowLeft.mouseout"/>
                  </use>
                  <path fill="none" stroke="white" stroke-width="1.5" d="M0,-3.0v7 M-2.5,-0.5L0,-3.0L2.5,-0.5"/>
                </g>
        </g>
        <svg viewBox="0 0 15 15" width="100%" height="30px" preserveAspectRatio="xMaxYMin meet">
         <g id="arrow_out" transform="scale(0.3 0.3)">
          <a xlink:href="resource_8h_ad5bbd78aad763b34f4c0905fcd7b7454_icgraph_org.svg" target="_base">
           <rect id="button" ry="5" rx="5" y="6" x="6" height="38" width="38"
                fill="#f2f5e9" fill-opacity="0.5" stroke="#606060" stroke-width="1.0"/>
           <path id="arrow"
             d="M 11.500037,31.436501 C 11.940474,20.09759 22.043105,11.32322 32.158766,21.979434 L 37.068811,17.246167 C 37.068811,17.246167 37.088388,32 37.088388,32 L 22.160133,31.978069 C 22.160133,31.978069 26.997745,27.140456 26.997745,27.140456 C 18.528582,18.264221 13.291696,25.230495 11.500037,31.436501 z"
             style="fill:#404040;"/>
          </a>
         </g>
        </svg>
</svg>
