<?xml version="1.0" encoding="UTF-8" standalone="no"?>
<!DOCTYPE svg PUBLIC "-//W3C//DTD SVG 1.1//EN"
 "http://www.w3.org/Graphics/SVG/1.1/DTD/svg11.dtd">
<!-- Generated by graphviz version 2.43.0 (0)
 -->
<!-- Title: coap_add_resource Pages: 1 -->
<svg width="1399pt" height="510pt"
 viewBox="0.00 0.00 1399.00 509.68" xmlns="http://www.w3.org/2000/svg" xmlns:xlink="http://www.w3.org/1999/xlink">
<g id="graph0" class="graph" transform="scale(1 1) rotate(0) translate(4 505.68)">
<title>coap_add_resource</title>
<polygon fill="white" stroke="transparent" points="-4,4 -4,-505.68 1395,-505.68 1395,4 -4,4"/>
<!-- Node48 -->
<g id="node1" class="node">
<title>Node48</title>
<polygon fill="#bfbfbf" stroke="black" points="0,-349.18 0,-368.18 101,-368.18 101,-349.18 0,-349.18"/>
<text text-anchor="middle" x="50.5" y="-356.18" font-family="Helvetica,sans-Serif" font-size="10.00">coap_add_resource</text>
</g>
<!-- Node49 -->
<g id="node2" class="node">
<title>Node49</title>
<g id="a_node2"><a xlink:href="resource_8c.html#a1307a6b8dadd6d005352ce02f6cf392f" target="_top" xlink:title="coap_free_resource">
<polygon fill="white" stroke="black" points="297,-368.18 297,-387.18 399,-387.18 399,-368.18 297,-368.18"/>
<text text-anchor="middle" x="348" y="-375.18" font-family="Helvetica,sans-Serif" font-size="10.00">coap_free_resource</text>
</a>
</g>
</g>
<!-- Node48&#45;&gt;Node49 -->
<g id="edge1" class="edge">
<title>Node48&#45;&gt;Node49</title>
<path fill="none" stroke="midnightblue" d="M86.15,-368.18C101.59,-371.95 120.07,-375.82 137,-377.68 187.22,-383.19 244.6,-382.73 286.68,-381.16"/>
<polygon fill="midnightblue" stroke="midnightblue" points="286.91,-384.65 296.76,-380.74 286.63,-377.65 286.91,-384.65"/>
</g>
<!-- Node72 -->
<g id="node25" class="node">
<title>Node72</title>
<g id="a_node25"><a xlink:href="resource_8c.html#a51dc23ad8ba4caeb62745b1666d40015" target="_top" xlink:title="Returns the resource identified by the unique string uri_path. ">
<polygon fill="white" stroke="black" points="137,-299.68 137,-329.68 261,-329.68 261,-299.68 137,-299.68"/>
<text text-anchor="start" x="145" y="-317.68" font-family="Helvetica,sans-Serif" font-size="10.00">coap_get_resource_from</text>
<text text-anchor="middle" x="199" y="-306.68" font-family="Helvetica,sans-Serif" font-size="10.00">_uri_path</text>
</a>
</g>
</g>
<!-- Node48&#45;&gt;Node72 -->
<g id="edge36" class="edge">
<title>Node48&#45;&gt;Node72</title>
<path fill="none" stroke="midnightblue" d="M83.29,-349.13C99.34,-344.31 119.35,-338.3 138.15,-332.65"/>
<polygon fill="midnightblue" stroke="midnightblue" points="139.27,-335.97 147.84,-329.74 137.26,-329.27 139.27,-335.97"/>
</g>
<!-- Node73 -->
<g id="node26" class="node">
<title>Node73</title>
<g id="a_node26"><a xlink:href="resource_8c.html#ad3521b724ad4961e6bb11801fd82a3e3" target="_top" xlink:title="Deletes a resource identified by resource. ">
<polygon fill="white" stroke="black" points="143,-349.18 143,-368.18 255,-368.18 255,-349.18 143,-349.18"/>
<text text-anchor="middle" x="199" y="-356.18" font-family="Helvetica,sans-Serif" font-size="10.00">coap_delete_resource</text>
</a>
</g>
</g>
<!-- Node48&#45;&gt;Node73 -->
<g id="edge37" class="edge">
<title>Node48&#45;&gt;Node73</title>
<path fill="none" stroke="midnightblue" d="M101.1,-358.68C111.29,-358.68 122.16,-358.68 132.81,-358.68"/>
<polygon fill="midnightblue" stroke="midnightblue" points="132.91,-362.18 142.91,-358.68 132.91,-355.18 132.91,-362.18"/>
</g>
<!-- Node50 -->
<g id="node3" class="node">
<title>Node50</title>
<g id="a_node3"><a xlink:href="resource_8c.html#a37883d9c8bafdd59fd1bd57dcb82e908" target="_top" xlink:title="Deletes an attribute. ">
<polygon fill="white" stroke="black" points="447,-406.18 447,-425.18 536,-425.18 536,-406.18 447,-406.18"/>
<text text-anchor="middle" x="491.5" y="-413.18" font-family="Helvetica,sans-Serif" font-size="10.00">coap_delete_attr</text>
</a>
</g>
</g>
<!-- Node49&#45;&gt;Node50 -->
<g id="edge2" class="edge">
<title>Node49&#45;&gt;Node50</title>
<path fill="none" stroke="midnightblue" d="M384.71,-387.26C402.97,-392.17 425.41,-398.2 444.91,-403.43"/>
<polygon fill="midnightblue" stroke="midnightblue" points="444.24,-406.88 454.8,-406.09 446.05,-400.12 444.24,-406.88"/>
</g>
<!-- Node51 -->
<g id="node4" class="node">
<title>Node51</title>
<g id="a_node4"><a xlink:href="group__string.html#ga4c283744d0fa51b553bf3fc52488e4b0" target="_top" xlink:title="Deletes the given const string and releases any memory allocated. ">
<polygon fill="white" stroke="black" points="584,-368.18 584,-387.18 699,-387.18 699,-368.18 584,-368.18"/>
<text text-anchor="middle" x="641.5" y="-375.18" font-family="Helvetica,sans-Serif" font-size="10.00">coap_delete_str_const</text>
</a>
</g>
</g>
<!-- Node49&#45;&gt;Node51 -->
<g id="edge6" class="edge">
<title>Node49&#45;&gt;Node51</title>
<path fill="none" stroke="midnightblue" d="M399.11,-377.68C447.36,-377.68 520.64,-377.68 573.8,-377.68"/>
<polygon fill="midnightblue" stroke="midnightblue" points="573.82,-381.18 583.82,-377.68 573.82,-374.18 573.82,-381.18"/>
</g>
<!-- Node52 -->
<g id="node5" class="node">
<title>Node52</title>
<g id="a_node5"><a xlink:href="mem_8h.html#ae7214e0c73a4d4290525873e739ed422" target="_top" xlink:title="Releases the memory that was allocated by coap_malloc_type(). ">
<polygon fill="white" stroke="black" points="1168,-349.18 1168,-368.18 1251,-368.18 1251,-349.18 1168,-349.18"/>
<text text-anchor="middle" x="1209.5" y="-356.18" font-family="Helvetica,sans-Serif" font-size="10.00">coap_free_type</text>
</a>
</g>
</g>
<!-- Node49&#45;&gt;Node52 -->
<g id="edge35" class="edge">
<title>Node49&#45;&gt;Node52</title>
<path fill="none" stroke="midnightblue" d="M359.71,-387.37C375.1,-400.66 404.93,-424.08 435,-434.68 521.51,-465.16 548.78,-453.68 640.5,-453.68 640.5,-453.68 640.5,-453.68 938.5,-453.68 1022.7,-453.68 1045.05,-442.51 1123,-410.68 1146.21,-401.2 1170.41,-385.89 1187.12,-374.33"/>
<polygon fill="midnightblue" stroke="midnightblue" points="1189.43,-376.98 1195.58,-368.35 1185.39,-371.26 1189.43,-376.98"/>
</g>
<!-- Node53 -->
<g id="node6" class="node">
<title>Node53</title>
<g id="a_node6"><a xlink:href="coap__session_8c.html#a9aee135ba884d7c143b11bc42fd23e53" target="_top" xlink:title="Decrement reference counter on a session. ">
<polygon fill="white" stroke="black" points="435,-330.18 435,-349.18 548,-349.18 548,-330.18 435,-330.18"/>
<text text-anchor="middle" x="491.5" y="-337.18" font-family="Helvetica,sans-Serif" font-size="10.00">coap_session_release</text>
</a>
</g>
</g>
<!-- Node49&#45;&gt;Node53 -->
<g id="edge7" class="edge">
<title>Node49&#45;&gt;Node53</title>
<path fill="none" stroke="midnightblue" d="M384.71,-368.09C402.97,-363.18 425.41,-357.16 444.91,-351.92"/>
<polygon fill="midnightblue" stroke="midnightblue" points="446.05,-355.24 454.8,-349.26 444.24,-348.47 446.05,-355.24"/>
</g>
<!-- Node71 -->
<g id="node24" class="node">
<title>Node71</title>
<g id="a_node24"><a xlink:href="group__string.html#gad991c87cfcf9b2414d2dc430c8701ed3" target="_top" xlink:title="Deletes the given string and releases any memory allocated. ">
<polygon fill="white" stroke="black" points="592.5,-64.18 592.5,-83.18 690.5,-83.18 690.5,-64.18 592.5,-64.18"/>
<text text-anchor="middle" x="641.5" y="-71.18" font-family="Helvetica,sans-Serif" font-size="10.00">coap_delete_string</text>
</a>
</g>
</g>
<!-- Node49&#45;&gt;Node71 -->
<g id="edge33" class="edge">
<title>Node49&#45;&gt;Node71</title>
<path fill="none" stroke="midnightblue" d="M358.37,-367.91C400.26,-324.22 570.68,-146.49 624.28,-90.59"/>
<polygon fill="midnightblue" stroke="midnightblue" points="626.92,-92.9 631.31,-83.26 621.86,-88.05 626.92,-92.9"/>
</g>
<!-- Node50&#45;&gt;Node51 -->
<g id="edge3" class="edge">
<title>Node50&#45;&gt;Node51</title>
<path fill="none" stroke="midnightblue" d="M529.85,-406.09C549.2,-401.12 573.03,-395 593.61,-389.71"/>
<polygon fill="midnightblue" stroke="midnightblue" points="594.61,-393.07 603.42,-387.2 592.87,-386.29 594.61,-393.07"/>
</g>
<!-- Node50&#45;&gt;Node52 -->
<g id="edge5" class="edge">
<title>Node50&#45;&gt;Node52</title>
<path fill="none" stroke="midnightblue" d="M536.48,-415.68C594.13,-415.68 698.39,-415.68 787.5,-415.68 787.5,-415.68 787.5,-415.68 938.5,-415.68 1023.61,-415.68 1120.62,-388.22 1172.03,-371.42"/>
<polygon fill="midnightblue" stroke="midnightblue" points="1173.3,-374.69 1181.69,-368.22 1171.09,-368.05 1173.3,-374.69"/>
</g>
<!-- Node51&#45;&gt;Node52 -->
<g id="edge4" class="edge">
<title>Node51&#45;&gt;Node52</title>
<path fill="none" stroke="midnightblue" d="M699.1,-375.78C809.51,-372.07 1052.05,-363.93 1157.67,-360.38"/>
<polygon fill="midnightblue" stroke="midnightblue" points="1157.88,-363.88 1167.76,-360.04 1157.65,-356.88 1157.88,-363.88"/>
</g>
<!-- Node54 -->
<g id="node7" class="node">
<title>Node54</title>
<g id="a_node7"><a xlink:href="coap__session_8c.html#ab3d24595515d6f66805791a7f821d5e7" target="_top" xlink:title="coap_session_free">
<polygon fill="white" stroke="black" points="592.5,-178.18 592.5,-197.18 690.5,-197.18 690.5,-178.18 592.5,-178.18"/>
<text text-anchor="middle" x="641.5" y="-185.18" font-family="Helvetica,sans-Serif" font-size="10.00">coap_session_free</text>
</a>
</g>
</g>
<!-- Node53&#45;&gt;Node54 -->
<g id="edge8" class="edge">
<title>Node53&#45;&gt;Node54</title>
<path fill="none" stroke="midnightblue" d="M501.76,-330.17C526.26,-305 593.05,-236.41 624.15,-204.46"/>
<polygon fill="midnightblue" stroke="midnightblue" points="626.78,-206.79 631.25,-197.18 621.76,-201.9 626.78,-206.79"/>
</g>
<!-- Node54&#45;&gt;Node52 -->
<g id="edge32" class="edge">
<title>Node54&#45;&gt;Node52</title>
<path fill="none" stroke="midnightblue" d="M660.34,-178.13C713.79,-150.9 876.45,-78.07 997,-130.68 998.64,-131.39 1143.46,-288.2 1192.48,-341.32"/>
<polygon fill="midnightblue" stroke="midnightblue" points="1190.14,-343.94 1199.49,-348.91 1195.28,-339.19 1190.14,-343.94"/>
</g>
<!-- Node55 -->
<g id="node8" class="node">
<title>Node55</title>
<g id="a_node8"><a xlink:href="coap__session_8c.html#ab91ca670624ee770714727efff274c49" target="_top" xlink:title="coap_session_mfree">
<polygon fill="white" stroke="black" points="735,-216.18 735,-235.18 842,-235.18 842,-216.18 735,-216.18"/>
<text text-anchor="middle" x="788.5" y="-223.18" font-family="Helvetica,sans-Serif" font-size="10.00">coap_session_mfree</text>
</a>
</g>
</g>
<!-- Node54&#45;&gt;Node55 -->
<g id="edge9" class="edge">
<title>Node54&#45;&gt;Node55</title>
<path fill="none" stroke="midnightblue" d="M679.09,-197.26C697.97,-202.21 721.19,-208.3 741.29,-213.56"/>
<polygon fill="midnightblue" stroke="midnightblue" points="740.61,-217.01 751.17,-216.16 742.39,-210.23 740.61,-217.01"/>
</g>
<!-- Node68 -->
<g id="node21" class="node">
<title>Node68</title>
<g id="a_node21"><a xlink:href="group__logging.html#ga8b690dbed6cc3a5beb81ba5d2d27d290" target="_top" xlink:title="Get session description. ">
<polygon fill="white" stroke="black" points="742,-64.18 742,-83.18 835,-83.18 835,-64.18 742,-64.18"/>
<text text-anchor="middle" x="788.5" y="-71.18" font-family="Helvetica,sans-Serif" font-size="10.00">coap_session_str</text>
</a>
</g>
</g>
<!-- Node54&#45;&gt;Node68 -->
<g id="edge29" class="edge">
<title>Node54&#45;&gt;Node68</title>
<path fill="none" stroke="midnightblue" d="M650.3,-178.17C665.22,-160.45 699.5,-121.97 735,-97.68 740.43,-93.96 746.52,-90.57 752.59,-87.59"/>
<polygon fill="midnightblue" stroke="midnightblue" points="754.38,-90.62 761.99,-83.24 751.44,-84.26 754.38,-90.62"/>
</g>
<!-- Node56 -->
<g id="node9" class="node">
<title>Node56</title>
<g id="a_node9"><a xlink:href="pdu_8c.html#a48581f968a30ef4278702eb1c16b7a90" target="_top" xlink:title="Dispose of an CoAP PDU and frees associated storage. ">
<polygon fill="white" stroke="black" points="1033,-330.18 1033,-349.18 1123,-349.18 1123,-330.18 1033,-330.18"/>
<text text-anchor="middle" x="1078" y="-337.18" font-family="Helvetica,sans-Serif" font-size="10.00">coap_delete_pdu</text>
</a>
</g>
</g>
<!-- Node55&#45;&gt;Node56 -->
<g id="edge10" class="edge">
<title>Node55&#45;&gt;Node56</title>
<path fill="none" stroke="midnightblue" d="M830.69,-235.18C882.33,-247.41 967.64,-268.73 997,-282.68 1019.74,-293.48 1042.87,-310.79 1058.36,-323.5"/>
<polygon fill="midnightblue" stroke="midnightblue" points="1056.23,-326.27 1066.14,-330.01 1060.72,-320.91 1056.23,-326.27"/>
</g>
<!-- Node57 -->
<g id="node10" class="node">
<title>Node57</title>
<g id="a_node10"><a xlink:href="coap__dtls__gnutls_8c.html#a89102d85f6cce550adf91b075a6326c7" target="_top" xlink:title="coap_dtls_free_session">
<polygon fill="white" stroke="black" points="878,-140.18 878,-159.18 997,-159.18 997,-140.18 878,-140.18"/>
<text text-anchor="middle" x="937.5" y="-147.18" font-family="Helvetica,sans-Serif" font-size="10.00">coap_dtls_free_session</text>
</a>
</g>
</g>
<!-- Node55&#45;&gt;Node57 -->
<g id="edge12" class="edge">
<title>Node55&#45;&gt;Node57</title>
<path fill="none" stroke="midnightblue" d="M804.48,-215.98C821.8,-205 851.34,-186.89 878,-173.68 885.55,-169.93 893.84,-166.27 901.73,-162.99"/>
<polygon fill="midnightblue" stroke="midnightblue" points="903.15,-166.19 911.1,-159.18 900.52,-159.7 903.15,-166.19"/>
</g>
<!-- Node58 -->
<g id="node11" class="node">
<title>Node58</title>
<g id="a_node11"><a xlink:href="coap__notls_8c.html#aa317934415639e23b64a3bd0b4edde6c" target="_top" xlink:title="coap_tls_free_session">
<polygon fill="white" stroke="black" points="880.5,-292.18 880.5,-311.18 994.5,-311.18 994.5,-292.18 880.5,-292.18"/>
<text text-anchor="middle" x="937.5" y="-299.18" font-family="Helvetica,sans-Serif" font-size="10.00">coap_tls_free_session</text>
</a>
</g>
</g>
<!-- Node55&#45;&gt;Node58 -->
<g id="edge13" class="edge">
<title>Node55&#45;&gt;Node58</title>
<path fill="none" stroke="midnightblue" d="M804.48,-235.37C821.8,-246.36 851.34,-264.46 878,-277.68 885.55,-281.42 893.84,-285.08 901.73,-288.36"/>
<polygon fill="midnightblue" stroke="midnightblue" points="900.52,-291.65 911.1,-292.17 903.15,-285.16 900.52,-291.65"/>
</g>
<!-- Node59 -->
<g id="node12" class="node">
<title>Node59</title>
<g id="a_node12"><a xlink:href="coap__io_8c.html#a2de382e7795c908d1a376da8c338386d" target="_top" xlink:title="coap_socket_close">
<polygon fill="white" stroke="black" points="887,-216.18 887,-235.18 988,-235.18 988,-216.18 887,-216.18"/>
<text text-anchor="middle" x="937.5" y="-223.18" font-family="Helvetica,sans-Serif" font-size="10.00">coap_socket_close</text>
</a>
</g>
</g>
<!-- Node55&#45;&gt;Node59 -->
<g id="edge14" class="edge">
<title>Node55&#45;&gt;Node59</title>
<path fill="none" stroke="midnightblue" d="M842.16,-225.68C853.26,-225.68 865.05,-225.68 876.4,-225.68"/>
<polygon fill="midnightblue" stroke="midnightblue" points="876.67,-229.18 886.67,-225.68 876.67,-222.18 876.67,-229.18"/>
</g>
<!-- Node60 -->
<g id="node13" class="node">
<title>Node60</title>
<g id="a_node13"><a xlink:href="mem_8h.html#a1e46a1505bb13f03fdacd5d1b32502a6" target="_top" xlink:title="Wrapper function to coap_free_type() for backwards compatibility. ">
<polygon fill="white" stroke="black" points="1048.5,-140.18 1048.5,-159.18 1107.5,-159.18 1107.5,-140.18 1048.5,-140.18"/>
<text text-anchor="middle" x="1078" y="-147.18" font-family="Helvetica,sans-Serif" font-size="10.00">coap_free</text>
</a>
</g>
</g>
<!-- Node55&#45;&gt;Node60 -->
<g id="edge15" class="edge">
<title>Node55&#45;&gt;Node60</title>
<path fill="none" stroke="midnightblue" d="M825.62,-216.13C880,-201.75 982.45,-174.67 1038.3,-159.9"/>
<polygon fill="midnightblue" stroke="midnightblue" points="1039.4,-163.24 1048.17,-157.3 1037.61,-156.47 1039.4,-163.24"/>
</g>
<!-- Node64 -->
<g id="node17" class="node">
<title>Node64</title>
<g id="a_node17"><a xlink:href="net_8c.html#a44c39a2314035989d3e07b9d9328e08c" target="_top" xlink:title="Destroys specified node. ">
<polygon fill="white" stroke="black" points="890,-330.18 890,-349.18 985,-349.18 985,-330.18 890,-330.18"/>
<text text-anchor="middle" x="937.5" y="-337.18" font-family="Helvetica,sans-Serif" font-size="10.00">coap_delete_node</text>
</a>
</g>
</g>
<!-- Node55&#45;&gt;Node64 -->
<g id="edge20" class="edge">
<title>Node55&#45;&gt;Node64</title>
<path fill="none" stroke="midnightblue" d="M795.87,-235.26C808.99,-254.3 840.93,-297.05 878,-320.68 881.16,-322.69 884.55,-324.51 888.05,-326.14"/>
<polygon fill="midnightblue" stroke="midnightblue" points="886.9,-329.46 897.48,-330.07 889.6,-323 886.9,-329.46"/>
</g>
<!-- Node56&#45;&gt;Node52 -->
<g id="edge11" class="edge">
<title>Node56&#45;&gt;Node52</title>
<path fill="none" stroke="midnightblue" d="M1123.2,-346.16C1134.43,-347.81 1146.56,-349.59 1158.07,-351.28"/>
<polygon fill="midnightblue" stroke="midnightblue" points="1157.57,-354.74 1167.98,-352.73 1158.59,-347.82 1157.57,-354.74"/>
</g>
<!-- Node60&#45;&gt;Node52 -->
<g id="edge16" class="edge">
<title>Node60&#45;&gt;Node52</title>
<path fill="none" stroke="midnightblue" d="M1103.3,-159.41C1110.31,-163.09 1117.53,-167.83 1123,-173.68 1169.45,-223.31 1194.33,-302.64 1203.86,-339.14"/>
<polygon fill="midnightblue" stroke="midnightblue" points="1200.51,-340.16 1206.33,-349.01 1207.3,-338.46 1200.51,-340.16"/>
</g>
<!-- Node61 -->
<g id="node14" class="node">
<title>Node61</title>
<g id="a_node14"><a xlink:href="mem_8h.html#a65d0fc0fe6cad555b56e92ccb57613ba" target="_top" xlink:title="Initializes libcoap&#39;s memory management. ">
<polygon fill="white" stroke="black" points="1161.5,-178.18 1161.5,-197.18 1257.5,-197.18 1257.5,-178.18 1161.5,-178.18"/>
<text text-anchor="middle" x="1209.5" y="-185.18" font-family="Helvetica,sans-Serif" font-size="10.00">coap_memory_init</text>
</a>
</g>
</g>
<!-- Node60&#45;&gt;Node61 -->
<g id="edge17" class="edge">
<title>Node60&#45;&gt;Node61</title>
<path fill="none" stroke="midnightblue" d="M1107.74,-158.11C1124.87,-163.14 1146.94,-169.61 1166.05,-175.22"/>
<polygon fill="midnightblue" stroke="midnightblue" points="1165.15,-178.6 1175.73,-178.06 1167.12,-171.89 1165.15,-178.6"/>
</g>
<!-- Node62 -->
<g id="node15" class="node">
<title>Node62</title>
<g id="a_node15"><a xlink:href="mem_8h.html#a1539cf5011cdfb11500b476f4dbe9393" target="_top" xlink:title="Wrapper function to coap_malloc_type() for backwards compatibility. ">
<polygon fill="white" stroke="black" points="1174,-140.18 1174,-159.18 1245,-159.18 1245,-140.18 1174,-140.18"/>
<text text-anchor="middle" x="1209.5" y="-147.18" font-family="Helvetica,sans-Serif" font-size="10.00">coap_malloc</text>
</a>
</g>
</g>
<!-- Node60&#45;&gt;Node62 -->
<g id="edge18" class="edge">
<title>Node60&#45;&gt;Node62</title>
<path fill="none" stroke="midnightblue" d="M1107.74,-149.68C1124.21,-149.68 1145.24,-149.68 1163.83,-149.68"/>
<polygon fill="midnightblue" stroke="midnightblue" points="1163.85,-153.18 1173.85,-149.68 1163.85,-146.18 1163.85,-153.18"/>
</g>
<!-- Node63 -->
<g id="node16" class="node">
<title>Node63</title>
<g id="a_node16"><a xlink:href="mem_8h.html#a0204710ce56cbaa4f062b7f2622857f5" target="_top" xlink:title="Allocates a chunk of size bytes and returns a pointer to the newly allocated memory. ">
<polygon fill="white" stroke="black" points="1296,-463.18 1296,-482.18 1391,-482.18 1391,-463.18 1296,-463.18"/>
<text text-anchor="middle" x="1343.5" y="-470.18" font-family="Helvetica,sans-Serif" font-size="10.00">coap_malloc_type</text>
</a>
</g>
</g>
<!-- Node62&#45;&gt;Node63 -->
<g id="edge19" class="edge">
<title>Node62&#45;&gt;Node63</title>
<path fill="none" stroke="midnightblue" d="M1245.1,-158.09C1250.66,-160.72 1255.93,-164.17 1260,-168.68 1335.99,-252.8 1343.01,-400.01 1342.93,-452.98"/>
<polygon fill="midnightblue" stroke="midnightblue" points="1339.43,-453.02 1342.82,-463.06 1346.43,-453.1 1339.43,-453.02"/>
</g>
<!-- Node64&#45;&gt;Node53 -->
<g id="edge22" class="edge">
<title>Node64&#45;&gt;Node53</title>
<path fill="none" stroke="midnightblue" d="M889.72,-339.68C810.37,-339.68 649.22,-339.68 558.45,-339.68"/>
<polygon fill="midnightblue" stroke="midnightblue" points="558.28,-336.18 548.28,-339.68 558.28,-343.18 558.28,-336.18"/>
</g>
<!-- Node64&#45;&gt;Node56 -->
<g id="edge21" class="edge">
<title>Node64&#45;&gt;Node56</title>
<path fill="none" stroke="midnightblue" d="M985,-339.68C997.04,-339.68 1010.1,-339.68 1022.5,-339.68"/>
<polygon fill="midnightblue" stroke="midnightblue" points="1022.73,-343.18 1032.73,-339.68 1022.73,-336.18 1022.73,-343.18"/>
</g>
<!-- Node65 -->
<g id="node18" class="node">
<title>Node65</title>
<g id="a_node18"><a xlink:href="net_8c.html#aa2f296838e4a779197c43b254e385ddc" target="_top" xlink:title="coap_free_node">
<polygon fill="white" stroke="black" points="1035,-482.18 1035,-501.18 1121,-501.18 1121,-482.18 1035,-482.18"/>
<text text-anchor="middle" x="1078" y="-489.18" font-family="Helvetica,sans-Serif" font-size="10.00">coap_free_node</text>
</a>
</g>
</g>
<!-- Node64&#45;&gt;Node65 -->
<g id="edge23" class="edge">
<title>Node64&#45;&gt;Node65</title>
<path fill="none" stroke="midnightblue" d="M947.16,-349.18C970,-374.24 1032.06,-442.36 1061.33,-474.48"/>
<polygon fill="midnightblue" stroke="midnightblue" points="1059.02,-477.14 1068.34,-482.17 1064.19,-472.42 1059.02,-477.14"/>
</g>
<!-- Node65&#45;&gt;Node52 -->
<g id="edge24" class="edge">
<title>Node65&#45;&gt;Node52</title>
<path fill="none" stroke="midnightblue" d="M1101.35,-482.05C1108.72,-478.23 1116.66,-473.38 1123,-467.68 1143.9,-448.88 1141.76,-437.88 1159,-415.68 1169.63,-401.98 1182.5,-387.22 1192.44,-376.15"/>
<polygon fill="midnightblue" stroke="midnightblue" points="1195.27,-378.24 1199.4,-368.49 1190.09,-373.54 1195.27,-378.24"/>
</g>
<!-- Node65&#45;&gt;Node63 -->
<g id="edge28" class="edge">
<title>Node65&#45;&gt;Node63</title>
<path fill="none" stroke="midnightblue" d="M1121.21,-494.36C1157.99,-496.06 1212.7,-497.05 1260,-491.68 1272.91,-490.21 1286.73,-487.49 1299.31,-484.56"/>
<polygon fill="midnightblue" stroke="midnightblue" points="1300.19,-487.95 1309.08,-482.18 1298.54,-481.14 1300.19,-487.95"/>
</g>
<!-- Node66 -->
<g id="node19" class="node">
<title>Node66</title>
<g id="a_node19"><a xlink:href="net_8c.html#a157d58fe7840d7d7e36c40fff0825674" target="_top" xlink:title="coap_free_endpoint">
<polygon fill="white" stroke="black" points="1159,-425.18 1159,-444.18 1260,-444.18 1260,-425.18 1159,-425.18"/>
<text text-anchor="middle" x="1209.5" y="-432.18" font-family="Helvetica,sans-Serif" font-size="10.00">coap_free_endpoint</text>
</a>
</g>
</g>
<!-- Node65&#45;&gt;Node66 -->
<g id="edge25" class="edge">
<title>Node65&#45;&gt;Node66</title>
<path fill="none" stroke="midnightblue" d="M1098.21,-482.04C1114.3,-474.09 1137.94,-462.7 1159,-453.68 1163.47,-451.76 1168.21,-449.82 1172.9,-447.96"/>
<polygon fill="midnightblue" stroke="midnightblue" points="1174.35,-451.15 1182.4,-444.26 1171.81,-444.63 1174.35,-451.15"/>
</g>
<!-- Node67 -->
<g id="node20" class="node">
<title>Node67</title>
<g id="a_node20"><a xlink:href="net_8c.html#aeff229f443c6582fea71504f33364eb4" target="_top" xlink:title="coap_malloc_node">
<polygon fill="white" stroke="black" points="1160.5,-463.18 1160.5,-482.18 1258.5,-482.18 1258.5,-463.18 1160.5,-463.18"/>
<text text-anchor="middle" x="1209.5" y="-470.18" font-family="Helvetica,sans-Serif" font-size="10.00">coap_malloc_node</text>
</a>
</g>
</g>
<!-- Node65&#45;&gt;Node67 -->
<g id="edge26" class="edge">
<title>Node65&#45;&gt;Node67</title>
<path fill="none" stroke="midnightblue" d="M1121.04,-485.51C1130.36,-484.14 1140.4,-482.67 1150.23,-481.22"/>
<polygon fill="midnightblue" stroke="midnightblue" points="1150.99,-484.65 1160.37,-479.74 1149.97,-477.73 1150.99,-484.65"/>
</g>
<!-- Node67&#45;&gt;Node63 -->
<g id="edge27" class="edge">
<title>Node67&#45;&gt;Node63</title>
<path fill="none" stroke="midnightblue" d="M1258.53,-472.68C1267.31,-472.68 1276.56,-472.68 1285.57,-472.68"/>
<polygon fill="midnightblue" stroke="midnightblue" points="1285.61,-476.18 1295.61,-472.68 1285.61,-469.18 1285.61,-476.18"/>
</g>
<!-- Node69 -->
<g id="node22" class="node">
<title>Node69</title>
<g id="a_node22"><a xlink:href="group__logging.html#ga6a4f5ef637bf85aa161adfe73ac81ff0" target="_top" xlink:title="Print the address into the defined buffer. ">
<polygon fill="white" stroke="black" points="894.5,-64.18 894.5,-83.18 980.5,-83.18 980.5,-64.18 894.5,-64.18"/>
<text text-anchor="middle" x="937.5" y="-71.18" font-family="Helvetica,sans-Serif" font-size="10.00">coap_print_addr</text>
</a>
</g>
</g>
<!-- Node68&#45;&gt;Node69 -->
<g id="edge30" class="edge">
<title>Node68&#45;&gt;Node69</title>
<path fill="none" stroke="midnightblue" d="M835.21,-73.68C850.69,-73.68 868.11,-73.68 884.08,-73.68"/>
<polygon fill="midnightblue" stroke="midnightblue" points="884.33,-77.18 894.33,-73.68 884.33,-70.18 884.33,-77.18"/>
</g>
<!-- Node70 -->
<g id="node23" class="node">
<title>Node70</title>
<g id="a_node23"><a xlink:href="coap__debug_8c.html#aaa5ee5c2942fe13271a46000b2aebde6" target="_top" xlink:title="A length&#45;safe strlen() fake. ">
<polygon fill="white" stroke="black" points="1055,-64.18 1055,-83.18 1101,-83.18 1101,-64.18 1055,-64.18"/>
<text text-anchor="middle" x="1078" y="-71.18" font-family="Helvetica,sans-Serif" font-size="10.00">strnlen</text>
</a>
</g>
</g>
<!-- Node69&#45;&gt;Node70 -->
<g id="edge31" class="edge">
<title>Node69&#45;&gt;Node70</title>
<path fill="none" stroke="midnightblue" d="M980.81,-73.68C1001.25,-73.68 1025.41,-73.68 1044.4,-73.68"/>
<polygon fill="midnightblue" stroke="midnightblue" points="1044.64,-77.18 1054.64,-73.68 1044.64,-70.18 1044.64,-77.18"/>
</g>
<!-- Node71&#45;&gt;Node52 -->
<g id="edge34" class="edge">
<title>Node71&#45;&gt;Node52</title>
<path fill="none" stroke="midnightblue" d="M663.92,-64.13C737.29,-33.04 981.72,57.05 1123,-54.68 1177.45,-97.74 1140.24,-139.84 1159,-206.68 1172.57,-255.01 1191.68,-310.93 1201.72,-339.58"/>
<polygon fill="midnightblue" stroke="midnightblue" points="1198.47,-340.89 1205.1,-349.16 1205.07,-338.56 1198.47,-340.89"/>
</g>
<!-- Node73&#45;&gt;Node49 -->
<g id="edge38" class="edge">
<title>Node73&#45;&gt;Node49</title>
<path fill="none" stroke="midnightblue" d="M255.16,-365.8C265.53,-367.15 276.42,-368.55 286.93,-369.91"/>
<polygon fill="midnightblue" stroke="midnightblue" points="286.5,-373.38 296.87,-371.2 287.4,-366.44 286.5,-373.38"/>
</g>
</g>
</svg>
