<?xml version="1.0" encoding="UTF-8" standalone="no"?>
<!DOCTYPE svg PUBLIC "-//W3C//DTD SVG 1.1//EN"
 "http://www.w3.org/Graphics/SVG/1.1/DTD/svg11.dtd">
<!-- Generated by graphviz version 2.43.0 (0)
 -->
<!-- Title: coap_delete_observers Pages: 1 -->
<svg width="1100pt" height="370pt"
 viewBox="0.00 0.00 1100.00 370.00" xmlns="http://www.w3.org/2000/svg" xmlns:xlink="http://www.w3.org/1999/xlink">
<g id="graph0" class="graph" transform="scale(1 1) rotate(0) translate(4 366)">
<title>coap_delete_observers</title>
<polygon fill="white" stroke="transparent" points="-4,4 -4,-366 1096,-366 1096,4 -4,4"/>
<!-- Node290 -->
<g id="node1" class="node">
<title>Node290</title>
<polygon fill="#bfbfbf" stroke="black" points="0,-152.5 0,-171.5 117,-171.5 117,-152.5 0,-152.5"/>
<text text-anchor="middle" x="58.5" y="-159.5" font-family="Helvetica,sans-Serif" font-size="10.00">coap_delete_observers</text>
</g>
<!-- Node291 -->
<g id="node2" class="node">
<title>Node291</title>
<g id="a_node2"><a xlink:href="coap__session_8c.html#a9aee135ba884d7c143b11bc42fd23e53" target="_top" xlink:title="Decrement reference counter on a session. ">
<polygon fill="white" stroke="black" points="153,-199.5 153,-218.5 266,-218.5 266,-199.5 153,-199.5"/>
<text text-anchor="middle" x="209.5" y="-206.5" font-family="Helvetica,sans-Serif" font-size="10.00">coap_session_release</text>
</a>
</g>
</g>
<!-- Node290&#45;&gt;Node291 -->
<g id="edge1" class="edge">
<title>Node290&#45;&gt;Node291</title>
<path fill="none" stroke="midnightblue" d="M89.65,-171.51C112.3,-178.65 143.54,-188.51 168.31,-196.32"/>
<polygon fill="midnightblue" stroke="midnightblue" points="167.55,-199.75 178.14,-199.42 169.65,-193.08 167.55,-199.75"/>
</g>
<!-- Node310 -->
<g id="node21" class="node">
<title>Node310</title>
<g id="a_node21"><a xlink:href="group__string.html#gad991c87cfcf9b2414d2dc430c8701ed3" target="_top" xlink:title="Deletes the given string and releases any memory allocated. ">
<polygon fill="white" stroke="black" points="302,-76.5 302,-95.5 400,-95.5 400,-76.5 302,-76.5"/>
<text text-anchor="middle" x="351" y="-83.5" font-family="Helvetica,sans-Serif" font-size="10.00">coap_delete_string</text>
</a>
</g>
</g>
<!-- Node290&#45;&gt;Node310 -->
<g id="edge27" class="edge">
<title>Node290&#45;&gt;Node310</title>
<path fill="none" stroke="midnightblue" d="M96,-152.45C148.61,-138.69 245.77,-113.27 303.47,-98.17"/>
<polygon fill="midnightblue" stroke="midnightblue" points="304.63,-101.49 313.42,-95.57 302.86,-94.71 304.63,-101.49"/>
</g>
<!-- Node292 -->
<g id="node3" class="node">
<title>Node292</title>
<g id="a_node3"><a xlink:href="coap__session_8c.html#ab3d24595515d6f66805791a7f821d5e7" target="_top" xlink:title="coap_session_free">
<polygon fill="white" stroke="black" points="302,-199.5 302,-218.5 400,-218.5 400,-199.5 302,-199.5"/>
<text text-anchor="middle" x="351" y="-206.5" font-family="Helvetica,sans-Serif" font-size="10.00">coap_session_free</text>
</a>
</g>
</g>
<!-- Node291&#45;&gt;Node292 -->
<g id="edge2" class="edge">
<title>Node291&#45;&gt;Node292</title>
<path fill="none" stroke="midnightblue" d="M266.03,-209C274.46,-209 283.18,-209 291.66,-209"/>
<polygon fill="midnightblue" stroke="midnightblue" points="291.86,-212.5 301.86,-209 291.86,-205.5 291.86,-212.5"/>
</g>
<!-- Node293 -->
<g id="node4" class="node">
<title>Node293</title>
<g id="a_node4"><a xlink:href="coap__session_8c.html#ab91ca670624ee770714727efff274c49" target="_top" xlink:title="coap_session_mfree">
<polygon fill="white" stroke="black" points="436,-199.5 436,-218.5 543,-218.5 543,-199.5 436,-199.5"/>
<text text-anchor="middle" x="489.5" y="-206.5" font-family="Helvetica,sans-Serif" font-size="10.00">coap_session_mfree</text>
</a>
</g>
</g>
<!-- Node292&#45;&gt;Node293 -->
<g id="edge3" class="edge">
<title>Node292&#45;&gt;Node293</title>
<path fill="none" stroke="midnightblue" d="M400.12,-209C408.4,-209 417.11,-209 425.7,-209"/>
<polygon fill="midnightblue" stroke="midnightblue" points="425.7,-212.5 435.7,-209 425.7,-205.5 425.7,-212.5"/>
</g>
<!-- Node295 -->
<g id="node6" class="node">
<title>Node295</title>
<g id="a_node6"><a xlink:href="mem_8h.html#ae7214e0c73a4d4290525873e739ed422" target="_top" xlink:title="Releases the memory that was allocated by coap_malloc_type(). ">
<polygon fill="white" stroke="black" points="869,-76.5 869,-95.5 952,-95.5 952,-76.5 869,-76.5"/>
<text text-anchor="middle" x="910.5" y="-83.5" font-family="Helvetica,sans-Serif" font-size="10.00">coap_free_type</text>
</a>
</g>
</g>
<!-- Node292&#45;&gt;Node295 -->
<g id="edge26" class="edge">
<title>Node292&#45;&gt;Node295</title>
<path fill="none" stroke="midnightblue" d="M381.11,-199.4C424.04,-185.5 507.02,-159.62 579,-143 677.15,-120.34 793.57,-102.28 858.75,-92.95"/>
<polygon fill="midnightblue" stroke="midnightblue" points="859.35,-96.4 868.76,-91.52 858.37,-89.47 859.35,-96.4"/>
</g>
<!-- Node307 -->
<g id="node18" class="node">
<title>Node307</title>
<g id="a_node18"><a xlink:href="group__logging.html#ga8b690dbed6cc3a5beb81ba5d2d27d290" target="_top" xlink:title="Get session description. ">
<polygon fill="white" stroke="black" points="443,-256.5 443,-275.5 536,-275.5 536,-256.5 443,-256.5"/>
<text text-anchor="middle" x="489.5" y="-263.5" font-family="Helvetica,sans-Serif" font-size="10.00">coap_session_str</text>
</a>
</g>
</g>
<!-- Node292&#45;&gt;Node307 -->
<g id="edge23" class="edge">
<title>Node292&#45;&gt;Node307</title>
<path fill="none" stroke="midnightblue" d="M374.85,-218.54C397.09,-227.83 431.11,-242.04 456.14,-252.49"/>
<polygon fill="midnightblue" stroke="midnightblue" points="455,-255.8 465.58,-256.43 457.7,-249.35 455,-255.8"/>
</g>
<!-- Node294 -->
<g id="node5" class="node">
<title>Node294</title>
<g id="a_node5"><a xlink:href="pdu_8c.html#a48581f968a30ef4278702eb1c16b7a90" target="_top" xlink:title="Dispose of an CoAP PDU and frees associated storage. ">
<polygon fill="white" stroke="black" points="734,-180.5 734,-199.5 824,-199.5 824,-180.5 734,-180.5"/>
<text text-anchor="middle" x="779" y="-187.5" font-family="Helvetica,sans-Serif" font-size="10.00">coap_delete_pdu</text>
</a>
</g>
</g>
<!-- Node293&#45;&gt;Node294 -->
<g id="edge4" class="edge">
<title>Node293&#45;&gt;Node294</title>
<path fill="none" stroke="midnightblue" d="M543.35,-217.94C585.53,-223.55 645.96,-228.14 698,-219 707.33,-217.36 727.39,-210.09 745.09,-203.23"/>
<polygon fill="midnightblue" stroke="midnightblue" points="746.56,-206.42 754.59,-199.51 744.01,-199.9 746.56,-206.42"/>
</g>
<!-- Node296 -->
<g id="node7" class="node">
<title>Node296</title>
<g id="a_node7"><a xlink:href="coap__dtls__gnutls_8c.html#a89102d85f6cce550adf91b075a6326c7" target="_top" xlink:title="coap_dtls_free_session">
<polygon fill="white" stroke="black" points="579,-190.5 579,-209.5 698,-209.5 698,-190.5 579,-190.5"/>
<text text-anchor="middle" x="638.5" y="-197.5" font-family="Helvetica,sans-Serif" font-size="10.00">coap_dtls_free_session</text>
</a>
</g>
</g>
<!-- Node293&#45;&gt;Node296 -->
<g id="edge6" class="edge">
<title>Node293&#45;&gt;Node296</title>
<path fill="none" stroke="midnightblue" d="M543.16,-205.78C551.5,-205.27 560.24,-204.73 568.89,-204.2"/>
<polygon fill="midnightblue" stroke="midnightblue" points="569.21,-207.69 578.98,-203.58 568.78,-200.7 569.21,-207.69"/>
</g>
<!-- Node297 -->
<g id="node8" class="node">
<title>Node297</title>
<g id="a_node8"><a xlink:href="coap__notls_8c.html#aa317934415639e23b64a3bd0b4edde6c" target="_top" xlink:title="coap_tls_free_session">
<polygon fill="white" stroke="black" points="581.5,-152.5 581.5,-171.5 695.5,-171.5 695.5,-152.5 581.5,-152.5"/>
<text text-anchor="middle" x="638.5" y="-159.5" font-family="Helvetica,sans-Serif" font-size="10.00">coap_tls_free_session</text>
</a>
</g>
</g>
<!-- Node293&#45;&gt;Node297 -->
<g id="edge7" class="edge">
<title>Node293&#45;&gt;Node297</title>
<path fill="none" stroke="midnightblue" d="M520.25,-199.49C542.59,-192.35 573.41,-182.49 597.85,-174.68"/>
<polygon fill="midnightblue" stroke="midnightblue" points="599.09,-177.96 607.54,-171.58 596.95,-171.29 599.09,-177.96"/>
</g>
<!-- Node298 -->
<g id="node9" class="node">
<title>Node298</title>
<g id="a_node9"><a xlink:href="coap__io_8c.html#a2de382e7795c908d1a376da8c338386d" target="_top" xlink:title="coap_socket_close">
<polygon fill="white" stroke="black" points="588,-266.5 588,-285.5 689,-285.5 689,-266.5 588,-266.5"/>
<text text-anchor="middle" x="638.5" y="-273.5" font-family="Helvetica,sans-Serif" font-size="10.00">coap_socket_close</text>
</a>
</g>
</g>
<!-- Node293&#45;&gt;Node298 -->
<g id="edge8" class="edge">
<title>Node293&#45;&gt;Node298</title>
<path fill="none" stroke="midnightblue" d="M509.33,-218.57C527.13,-227.53 554.68,-241.11 579,-252 586.99,-255.58 595.69,-259.26 603.87,-262.63"/>
<polygon fill="midnightblue" stroke="midnightblue" points="602.58,-265.88 613.16,-266.41 605.22,-259.4 602.58,-265.88"/>
</g>
<!-- Node299 -->
<g id="node10" class="node">
<title>Node299</title>
<g id="a_node10"><a xlink:href="mem_8h.html#a1e46a1505bb13f03fdacd5d1b32502a6" target="_top" xlink:title="Wrapper function to coap_free_type() for backwards compatibility. ">
<polygon fill="white" stroke="black" points="749.5,-0.5 749.5,-19.5 808.5,-19.5 808.5,-0.5 749.5,-0.5"/>
<text text-anchor="middle" x="779" y="-7.5" font-family="Helvetica,sans-Serif" font-size="10.00">coap_free</text>
</a>
</g>
</g>
<!-- Node293&#45;&gt;Node299 -->
<g id="edge9" class="edge">
<title>Node293&#45;&gt;Node299</title>
<path fill="none" stroke="midnightblue" d="M502.95,-199.39C519.95,-186.36 551.45,-162.46 579,-143 641.42,-98.91 716.86,-49.52 754.4,-25.21"/>
<polygon fill="midnightblue" stroke="midnightblue" points="756.6,-27.96 763.09,-19.59 752.8,-22.08 756.6,-27.96"/>
</g>
<!-- Node303 -->
<g id="node14" class="node">
<title>Node303</title>
<g id="a_node14"><a xlink:href="net_8c.html#a44c39a2314035989d3e07b9d9328e08c" target="_top" xlink:title="Destroys specified node. ">
<polygon fill="white" stroke="black" points="591,-304.5 591,-323.5 686,-323.5 686,-304.5 591,-304.5"/>
<text text-anchor="middle" x="638.5" y="-311.5" font-family="Helvetica,sans-Serif" font-size="10.00">coap_delete_node</text>
</a>
</g>
</g>
<!-- Node293&#45;&gt;Node303 -->
<g id="edge14" class="edge">
<title>Node293&#45;&gt;Node303</title>
<path fill="none" stroke="midnightblue" d="M506.15,-218.53C517.12,-225.63 531.77,-235.96 543,-247 562.02,-265.7 557.31,-279.49 579,-295 581.69,-296.93 584.59,-298.66 587.61,-300.23"/>
<polygon fill="midnightblue" stroke="midnightblue" points="586.36,-303.51 596.91,-304.44 589.24,-297.13 586.36,-303.51"/>
</g>
<!-- Node294&#45;&gt;Node295 -->
<g id="edge5" class="edge">
<title>Node294&#45;&gt;Node295</title>
<path fill="none" stroke="midnightblue" d="M791.95,-180.4C814.21,-162.52 862.24,-123.96 889.51,-102.05"/>
<polygon fill="midnightblue" stroke="midnightblue" points="891.97,-104.57 897.58,-95.57 887.59,-99.11 891.97,-104.57"/>
</g>
<!-- Node299&#45;&gt;Node295 -->
<g id="edge10" class="edge">
<title>Node299&#45;&gt;Node295</title>
<path fill="none" stroke="midnightblue" d="M799.89,-19.54C807.66,-23.6 816.5,-28.64 824,-34 841.66,-46.62 841.54,-55.58 860,-67 863.16,-68.96 866.55,-70.77 870.03,-72.43"/>
<polygon fill="midnightblue" stroke="midnightblue" points="868.76,-75.69 879.32,-76.49 871.56,-69.28 868.76,-75.69"/>
</g>
<!-- Node300 -->
<g id="node11" class="node">
<title>Node300</title>
<g id="a_node11"><a xlink:href="mem_8h.html#a65d0fc0fe6cad555b56e92ccb57613ba" target="_top" xlink:title="Initializes libcoap&#39;s memory management. ">
<polygon fill="white" stroke="black" points="862.5,-38.5 862.5,-57.5 958.5,-57.5 958.5,-38.5 862.5,-38.5"/>
<text text-anchor="middle" x="910.5" y="-45.5" font-family="Helvetica,sans-Serif" font-size="10.00">coap_memory_init</text>
</a>
</g>
</g>
<!-- Node299&#45;&gt;Node300 -->
<g id="edge11" class="edge">
<title>Node299&#45;&gt;Node300</title>
<path fill="none" stroke="midnightblue" d="M808.74,-18.43C825.87,-23.46 847.94,-29.94 867.05,-35.54"/>
<polygon fill="midnightblue" stroke="midnightblue" points="866.15,-38.93 876.73,-38.38 868.12,-32.21 866.15,-38.93"/>
</g>
<!-- Node301 -->
<g id="node12" class="node">
<title>Node301</title>
<g id="a_node12"><a xlink:href="mem_8h.html#a1539cf5011cdfb11500b476f4dbe9393" target="_top" xlink:title="Wrapper function to coap_malloc_type() for backwards compatibility. ">
<polygon fill="white" stroke="black" points="875,-0.5 875,-19.5 946,-19.5 946,-0.5 875,-0.5"/>
<text text-anchor="middle" x="910.5" y="-7.5" font-family="Helvetica,sans-Serif" font-size="10.00">coap_malloc</text>
</a>
</g>
</g>
<!-- Node299&#45;&gt;Node301 -->
<g id="edge12" class="edge">
<title>Node299&#45;&gt;Node301</title>
<path fill="none" stroke="midnightblue" d="M808.74,-10C825.21,-10 846.24,-10 864.83,-10"/>
<polygon fill="midnightblue" stroke="midnightblue" points="864.85,-13.5 874.85,-10 864.85,-6.5 864.85,-13.5"/>
</g>
<!-- Node302 -->
<g id="node13" class="node">
<title>Node302</title>
<g id="a_node13"><a xlink:href="mem_8h.html#a0204710ce56cbaa4f062b7f2622857f5" target="_top" xlink:title="Allocates a chunk of size bytes and returns a pointer to the newly allocated memory. ">
<polygon fill="white" stroke="black" points="997,-161.5 997,-180.5 1092,-180.5 1092,-161.5 997,-161.5"/>
<text text-anchor="middle" x="1044.5" y="-168.5" font-family="Helvetica,sans-Serif" font-size="10.00">coap_malloc_type</text>
</a>
</g>
</g>
<!-- Node301&#45;&gt;Node302 -->
<g id="edge13" class="edge">
<title>Node301&#45;&gt;Node302</title>
<path fill="none" stroke="midnightblue" d="M945.7,-19.59C951.18,-22.08 956.52,-25.18 961,-29 1000.82,-62.92 1025.94,-121.15 1036.98,-151.43"/>
<polygon fill="midnightblue" stroke="midnightblue" points="1033.8,-152.94 1040.41,-161.22 1040.4,-150.63 1033.8,-152.94"/>
</g>
<!-- Node303&#45;&gt;Node291 -->
<g id="edge16" class="edge">
<title>Node303&#45;&gt;Node291</title>
<path fill="none" stroke="midnightblue" d="M590.63,-309.7C549.5,-305.34 488.26,-297.46 436,-285 366.09,-268.34 287.07,-239.23 243.6,-222.28"/>
<polygon fill="midnightblue" stroke="midnightblue" points="244.7,-218.95 234.11,-218.55 242.14,-225.47 244.7,-218.95"/>
</g>
<!-- Node303&#45;&gt;Node294 -->
<g id="edge15" class="edge">
<title>Node303&#45;&gt;Node294</title>
<path fill="none" stroke="midnightblue" d="M683.37,-304.48C688.7,-302.01 693.76,-298.91 698,-295 728.48,-266.93 704.86,-238.46 734,-209 735.4,-207.58 736.93,-206.26 738.55,-205.03"/>
<polygon fill="midnightblue" stroke="midnightblue" points="740.56,-207.9 747.19,-199.64 736.86,-201.96 740.56,-207.9"/>
</g>
<!-- Node304 -->
<g id="node15" class="node">
<title>Node304</title>
<g id="a_node15"><a xlink:href="net_8c.html#aa2f296838e4a779197c43b254e385ddc" target="_top" xlink:title="coap_free_node">
<polygon fill="white" stroke="black" points="736,-218.5 736,-237.5 822,-237.5 822,-218.5 736,-218.5"/>
<text text-anchor="middle" x="779" y="-225.5" font-family="Helvetica,sans-Serif" font-size="10.00">coap_free_node</text>
</a>
</g>
</g>
<!-- Node303&#45;&gt;Node304 -->
<g id="edge17" class="edge">
<title>Node303&#45;&gt;Node304</title>
<path fill="none" stroke="midnightblue" d="M676.3,-304.43C683.7,-301.86 691.27,-298.72 698,-295 722.56,-281.4 746.71,-259.71 761.94,-244.71"/>
<polygon fill="midnightblue" stroke="midnightblue" points="764.48,-247.12 769.04,-237.56 759.51,-242.18 764.48,-247.12"/>
</g>
<!-- Node304&#45;&gt;Node295 -->
<g id="edge18" class="edge">
<title>Node304&#45;&gt;Node295</title>
<path fill="none" stroke="midnightblue" d="M808.92,-218.48C814.28,-215.92 819.57,-212.79 824,-209 846.77,-189.52 843,-176.67 860,-152 871.49,-135.33 885.39,-116.94 895.53,-103.82"/>
<polygon fill="midnightblue" stroke="midnightblue" points="898.49,-105.7 901.87,-95.66 892.97,-101.41 898.49,-105.7"/>
</g>
<!-- Node304&#45;&gt;Node302 -->
<g id="edge22" class="edge">
<title>Node304&#45;&gt;Node302</title>
<path fill="none" stroke="midnightblue" d="M822.03,-234.95C859.41,-239.52 915.1,-242.31 961,-228 986.24,-220.13 1010.57,-201.53 1026.18,-187.71"/>
<polygon fill="midnightblue" stroke="midnightblue" points="1028.91,-189.96 1033.91,-180.62 1024.18,-184.8 1028.91,-189.96"/>
</g>
<!-- Node305 -->
<g id="node16" class="node">
<title>Node305</title>
<g id="a_node16"><a xlink:href="net_8c.html#a157d58fe7840d7d7e36c40fff0825674" target="_top" xlink:title="coap_free_endpoint">
<polygon fill="white" stroke="black" points="860,-199.5 860,-218.5 961,-218.5 961,-199.5 860,-199.5"/>
<text text-anchor="middle" x="910.5" y="-206.5" font-family="Helvetica,sans-Serif" font-size="10.00">coap_free_endpoint</text>
</a>
</g>
</g>
<!-- Node304&#45;&gt;Node305 -->
<g id="edge19" class="edge">
<title>Node304&#45;&gt;Node305</title>
<path fill="none" stroke="midnightblue" d="M822.04,-221.83C830.83,-220.54 840.26,-219.16 849.55,-217.8"/>
<polygon fill="midnightblue" stroke="midnightblue" points="850.16,-221.24 859.54,-216.33 849.14,-214.32 850.16,-221.24"/>
</g>
<!-- Node306 -->
<g id="node17" class="node">
<title>Node306</title>
<g id="a_node17"><a xlink:href="net_8c.html#aeff229f443c6582fea71504f33364eb4" target="_top" xlink:title="coap_malloc_node">
<polygon fill="white" stroke="black" points="861.5,-161.5 861.5,-180.5 959.5,-180.5 959.5,-161.5 861.5,-161.5"/>
<text text-anchor="middle" x="910.5" y="-168.5" font-family="Helvetica,sans-Serif" font-size="10.00">coap_malloc_node</text>
</a>
</g>
</g>
<!-- Node304&#45;&gt;Node306 -->
<g id="edge20" class="edge">
<title>Node304&#45;&gt;Node306</title>
<path fill="none" stroke="midnightblue" d="M802.99,-218.47C809.8,-215.54 817.25,-212.23 824,-209 840.32,-201.19 843.53,-197.48 860,-190 864.22,-188.09 868.69,-186.19 873.15,-184.38"/>
<polygon fill="midnightblue" stroke="midnightblue" points="874.78,-187.5 882.8,-180.58 872.21,-180.99 874.78,-187.5"/>
</g>
<!-- Node306&#45;&gt;Node302 -->
<g id="edge21" class="edge">
<title>Node306&#45;&gt;Node302</title>
<path fill="none" stroke="midnightblue" d="M959.53,-171C968.31,-171 977.56,-171 986.57,-171"/>
<polygon fill="midnightblue" stroke="midnightblue" points="986.61,-174.5 996.61,-171 986.61,-167.5 986.61,-174.5"/>
</g>
<!-- Node308 -->
<g id="node19" class="node">
<title>Node308</title>
<g id="a_node19"><a xlink:href="group__logging.html#ga6a4f5ef637bf85aa161adfe73ac81ff0" target="_top" xlink:title="Print the address into the defined buffer. ">
<polygon fill="white" stroke="black" points="595.5,-342.5 595.5,-361.5 681.5,-361.5 681.5,-342.5 595.5,-342.5"/>
<text text-anchor="middle" x="638.5" y="-349.5" font-family="Helvetica,sans-Serif" font-size="10.00">coap_print_addr</text>
</a>
</g>
</g>
<!-- Node307&#45;&gt;Node308 -->
<g id="edge24" class="edge">
<title>Node307&#45;&gt;Node308</title>
<path fill="none" stroke="midnightblue" d="M500.87,-275.73C516.64,-290.05 548.08,-316.86 579,-333 583.22,-335.2 587.73,-337.21 592.32,-339.03"/>
<polygon fill="midnightblue" stroke="midnightblue" points="591.18,-342.34 601.77,-342.49 593.59,-335.76 591.18,-342.34"/>
</g>
<!-- Node309 -->
<g id="node20" class="node">
<title>Node309</title>
<g id="a_node20"><a xlink:href="coap__debug_8c.html#aaa5ee5c2942fe13271a46000b2aebde6" target="_top" xlink:title="A length&#45;safe strlen() fake. ">
<polygon fill="white" stroke="black" points="756,-342.5 756,-361.5 802,-361.5 802,-342.5 756,-342.5"/>
<text text-anchor="middle" x="779" y="-349.5" font-family="Helvetica,sans-Serif" font-size="10.00">strnlen</text>
</a>
</g>
</g>
<!-- Node308&#45;&gt;Node309 -->
<g id="edge25" class="edge">
<title>Node308&#45;&gt;Node309</title>
<path fill="none" stroke="midnightblue" d="M681.81,-352C702.25,-352 726.41,-352 745.4,-352"/>
<polygon fill="midnightblue" stroke="midnightblue" points="745.64,-355.5 755.64,-352 745.64,-348.5 745.64,-355.5"/>
</g>
<!-- Node310&#45;&gt;Node295 -->
<g id="edge28" class="edge">
<title>Node310&#45;&gt;Node295</title>
<path fill="none" stroke="midnightblue" d="M400.25,-76.56C411.9,-74.67 424.36,-72.96 436,-72 607.86,-57.78 652.12,-58.02 824,-72 835.25,-72.91 847.25,-74.5 858.59,-76.27"/>
<polygon fill="midnightblue" stroke="midnightblue" points="858.35,-79.78 868.79,-77.95 859.49,-72.87 858.35,-79.78"/>
</g>
</g>
</svg>
