<?xml version="1.0" encoding="UTF-8" standalone="no"?>
<!DOCTYPE svg PUBLIC "-//W3C//DTD SVG 1.1//EN"
 "http://www.w3.org/Graphics/SVG/1.1/DTD/svg11.dtd">
<!-- Generated by graphviz version 2.43.0 (0)
 -->
<!-- Title: coap_delete_observer Pages: 1 -->
<!--zoomable 370 -->
<svg id="main" version="1.1" xmlns="http://www.w3.org/2000/svg" xmlns:xlink="http://www.w3.org/1999/xlink" xml:space="preserve" onload="init(evt)">
<style type="text/css"><![CDATA[
.edge:hover path { stroke: red; }
.edge:hover polygon { stroke: red; fill: red; }
]]></style>
<script type="text/javascript"><![CDATA[
var edges = document.getElementsByTagName('g');
if (edges && edges.length) {
  for (var i=0;i<edges.length;i++) {
    if (edges[i].id.substr(0,4)=='edge') {
      edges[i].setAttribute('class','edge');
    }
  }
}
]]></script>
        <defs>
                <circle id="rim" cx="0" cy="0" r="7"/>
                <circle id="rim2" cx="0" cy="0" r="3.5"/>
                <g id="zoomPlus">
                        <use xlink:href="#rim" fill="#404040">
                                <set attributeName="fill" to="#808080" begin="zoomplus.mouseover" end="zoomplus.mouseout"/>
                        </use>
                        <path d="M-4,0h8M0,-4v8" fill="none" stroke="white" stroke-width="1.5" pointer-events="none"/>
                </g>
                <g id="zoomMin">
                        <use xlink:href="#rim" fill="#404040">
                                <set attributeName="fill" to="#808080" begin="zoomminus.mouseover" end="zoomminus.mouseout"/>
                        </use>
                        <path d="M-4,0h8" fill="none" stroke="white" stroke-width="1.5" pointer-events="none"/>
                </g>
                <g id="dirArrow">
                        <path fill="none" stroke="white" stroke-width="1.5" d="M0,-3.0v7 M-2.5,-0.5L0,-3.0L2.5,-0.5"/>
                </g>
               <g id="resetDef">
                       <use xlink:href="#rim2" fill="#404040">
                               <set attributeName="fill" to="#808080" begin="reset.mouseover" end="reset.mouseout"/>
                       </use>
               </g>
        </defs>

<script type="text/javascript">
var viewWidth = 1095;
var viewHeight = 370;
var sectionId = 'dynsection-13';
</script>
<script xlink:href="svgpan.js"/>
<svg id="graph" class="graph">
<g id="viewport">
<title>coap_delete_observer</title>
<polygon fill="white" stroke="transparent" points="-4,4 -4,-366 1091,-366 1091,4 -4,4"/>
<!-- Node250 -->
<g id="node1" class="node">
<title>Node250</title>
<polygon fill="#bfbfbf" stroke="black" points="0,-218.5 0,-237.5 112,-237.5 112,-218.5 0,-218.5"/>
<text text-anchor="middle" x="56" y="-225.5" font-family="Helvetica,sans-Serif" font-size="10.00">coap_delete_observer</text>
</g>
<!-- Node251 -->
<g id="node2" class="node">
<title>Node251</title>
<g id="a_node2"><a xlink:href="resource_8c.html#a29e90783566d71980397fc948d074d0a" target="_top" xlink:title="Returns a subscription object for given peer. ">
<polygon fill="white" stroke="black" points="154,-275.5 154,-294.5 255,-294.5 255,-275.5 154,-275.5"/>
<text text-anchor="middle" x="204.5" y="-282.5" font-family="Helvetica,sans-Serif" font-size="10.00">coap_find_observer</text>
</a>
</g>
</g>
<!-- Node250&#45;&gt;Node251 -->
<g id="edge1" class="edge">
<title>Node250&#45;&gt;Node251</title>
<path fill="none" stroke="midnightblue" d="M78.9,-237.62C97.24,-245.56 124.15,-256.95 148,-266 153.49,-268.08 159.32,-270.19 165.06,-272.21"/>
<polygon fill="midnightblue" stroke="midnightblue" points="163.97,-275.53 174.57,-275.5 166.26,-268.92 163.97,-275.53"/>
</g>
<!-- Node252 -->
<g id="node3" class="node">
<title>Node252</title>
<g id="a_node3"><a xlink:href="group__logging.html#ga10c3fbd56b0eb3a8722b27a65fc9b0ce" target="_top" xlink:title="Get the current logging level. ">
<polygon fill="white" stroke="black" points="154.5,-237.5 154.5,-256.5 254.5,-256.5 254.5,-237.5 154.5,-237.5"/>
<text text-anchor="middle" x="204.5" y="-244.5" font-family="Helvetica,sans-Serif" font-size="10.00">coap_get_log_level</text>
</a>
</g>
</g>
<!-- Node250&#45;&gt;Node252 -->
<g id="edge2" class="edge">
<title>Node250&#45;&gt;Node252</title>
<path fill="none" stroke="midnightblue" d="M112.39,-235.18C122.82,-236.54 133.78,-237.96 144.33,-239.33"/>
<polygon fill="midnightblue" stroke="midnightblue" points="143.92,-242.8 154.29,-240.62 144.82,-235.86 143.92,-242.8"/>
</g>
<!-- Node253 -->
<g id="node4" class="node">
<title>Node253</title>
<g id="a_node4"><a xlink:href="coap__session_8c.html#a9aee135ba884d7c143b11bc42fd23e53" target="_top" xlink:title="Decrement reference counter on a session. ">
<polygon fill="white" stroke="black" points="148,-199.5 148,-218.5 261,-218.5 261,-199.5 148,-199.5"/>
<text text-anchor="middle" x="204.5" y="-206.5" font-family="Helvetica,sans-Serif" font-size="10.00">coap_session_release</text>
</a>
</g>
</g>
<!-- Node250&#45;&gt;Node253 -->
<g id="edge3" class="edge">
<title>Node250&#45;&gt;Node253</title>
<path fill="none" stroke="midnightblue" d="M112.39,-220.82C120.57,-219.76 129.06,-218.65 137.43,-217.57"/>
<polygon fill="midnightblue" stroke="midnightblue" points="138.08,-221.01 147.55,-216.26 137.18,-214.07 138.08,-221.01"/>
</g>
<!-- Node272 -->
<g id="node23" class="node">
<title>Node272</title>
<g id="a_node23"><a xlink:href="group__string.html#gad991c87cfcf9b2414d2dc430c8701ed3" target="_top" xlink:title="Deletes the given string and releases any memory allocated. ">
<polygon fill="white" stroke="black" points="297,-76.5 297,-95.5 395,-95.5 395,-76.5 297,-76.5"/>
<text text-anchor="middle" x="346" y="-83.5" font-family="Helvetica,sans-Serif" font-size="10.00">coap_delete_string</text>
</a>
</g>
</g>
<!-- Node250&#45;&gt;Node272 -->
<g id="edge29" class="edge">
<title>Node250&#45;&gt;Node272</title>
<path fill="none" stroke="midnightblue" d="M76.34,-218.46C125.92,-194.02 257.75,-129.02 316.29,-100.15"/>
<polygon fill="midnightblue" stroke="midnightblue" points="317.94,-103.24 325.36,-95.68 314.84,-96.97 317.94,-103.24"/>
</g>
<!-- Node254 -->
<g id="node5" class="node">
<title>Node254</title>
<g id="a_node5"><a xlink:href="coap__session_8c.html#ab3d24595515d6f66805791a7f821d5e7" target="_top" xlink:title="coap_session_free">
<polygon fill="white" stroke="black" points="297,-199.5 297,-218.5 395,-218.5 395,-199.5 297,-199.5"/>
<text text-anchor="middle" x="346" y="-206.5" font-family="Helvetica,sans-Serif" font-size="10.00">coap_session_free</text>
</a>
</g>
</g>
<!-- Node253&#45;&gt;Node254 -->
<g id="edge4" class="edge">
<title>Node253&#45;&gt;Node254</title>
<path fill="none" stroke="midnightblue" d="M261.03,-209C269.46,-209 278.18,-209 286.66,-209"/>
<polygon fill="midnightblue" stroke="midnightblue" points="286.86,-212.5 296.86,-209 286.86,-205.5 286.86,-212.5"/>
</g>
<!-- Node255 -->
<g id="node6" class="node">
<title>Node255</title>
<g id="a_node6"><a xlink:href="coap__session_8c.html#ab91ca670624ee770714727efff274c49" target="_top" xlink:title="coap_session_mfree">
<polygon fill="white" stroke="black" points="431,-199.5 431,-218.5 538,-218.5 538,-199.5 431,-199.5"/>
<text text-anchor="middle" x="484.5" y="-206.5" font-family="Helvetica,sans-Serif" font-size="10.00">coap_session_mfree</text>
</a>
</g>
</g>
<!-- Node254&#45;&gt;Node255 -->
<g id="edge5" class="edge">
<title>Node254&#45;&gt;Node255</title>
<path fill="none" stroke="midnightblue" d="M395.12,-209C403.4,-209 412.11,-209 420.7,-209"/>
<polygon fill="midnightblue" stroke="midnightblue" points="420.7,-212.5 430.7,-209 420.7,-205.5 420.7,-212.5"/>
</g>
<!-- Node257 -->
<g id="node8" class="node">
<title>Node257</title>
<g id="a_node8"><a xlink:href="mem_8h.html#ae7214e0c73a4d4290525873e739ed422" target="_top" xlink:title="Releases the memory that was allocated by coap_malloc_type(). ">
<polygon fill="white" stroke="black" points="864,-76.5 864,-95.5 947,-95.5 947,-76.5 864,-76.5"/>
<text text-anchor="middle" x="905.5" y="-83.5" font-family="Helvetica,sans-Serif" font-size="10.00">coap_free_type</text>
</a>
</g>
</g>
<!-- Node254&#45;&gt;Node257 -->
<g id="edge28" class="edge">
<title>Node254&#45;&gt;Node257</title>
<path fill="none" stroke="midnightblue" d="M376.11,-199.4C419.04,-185.5 502.02,-159.62 574,-143 672.15,-120.34 788.57,-102.28 853.75,-92.95"/>
<polygon fill="midnightblue" stroke="midnightblue" points="854.35,-96.4 863.76,-91.52 853.37,-89.47 854.35,-96.4"/>
</g>
<!-- Node269 -->
<g id="node20" class="node">
<title>Node269</title>
<g id="a_node20"><a xlink:href="group__logging.html#ga8b690dbed6cc3a5beb81ba5d2d27d290" target="_top" xlink:title="Get session description. ">
<polygon fill="white" stroke="black" points="438,-256.5 438,-275.5 531,-275.5 531,-256.5 438,-256.5"/>
<text text-anchor="middle" x="484.5" y="-263.5" font-family="Helvetica,sans-Serif" font-size="10.00">coap_session_str</text>
</a>
</g>
</g>
<!-- Node254&#45;&gt;Node269 -->
<g id="edge25" class="edge">
<title>Node254&#45;&gt;Node269</title>
<path fill="none" stroke="midnightblue" d="M369.85,-218.54C392.09,-227.83 426.11,-242.04 451.14,-252.49"/>
<polygon fill="midnightblue" stroke="midnightblue" points="450,-255.8 460.58,-256.43 452.7,-249.35 450,-255.8"/>
</g>
<!-- Node256 -->
<g id="node7" class="node">
<title>Node256</title>
<g id="a_node7"><a xlink:href="pdu_8c.html#a48581f968a30ef4278702eb1c16b7a90" target="_top" xlink:title="Dispose of an CoAP PDU and frees associated storage. ">
<polygon fill="white" stroke="black" points="729,-180.5 729,-199.5 819,-199.5 819,-180.5 729,-180.5"/>
<text text-anchor="middle" x="774" y="-187.5" font-family="Helvetica,sans-Serif" font-size="10.00">coap_delete_pdu</text>
</a>
</g>
</g>
<!-- Node255&#45;&gt;Node256 -->
<g id="edge6" class="edge">
<title>Node255&#45;&gt;Node256</title>
<path fill="none" stroke="midnightblue" d="M538.35,-217.94C580.53,-223.55 640.96,-228.14 693,-219 702.33,-217.36 722.39,-210.09 740.09,-203.23"/>
<polygon fill="midnightblue" stroke="midnightblue" points="741.56,-206.42 749.59,-199.51 739.01,-199.9 741.56,-206.42"/>
</g>
<!-- Node258 -->
<g id="node9" class="node">
<title>Node258</title>
<g id="a_node9"><a xlink:href="coap__dtls__gnutls_8c.html#a89102d85f6cce550adf91b075a6326c7" target="_top" xlink:title="coap_dtls_free_session">
<polygon fill="white" stroke="black" points="574,-190.5 574,-209.5 693,-209.5 693,-190.5 574,-190.5"/>
<text text-anchor="middle" x="633.5" y="-197.5" font-family="Helvetica,sans-Serif" font-size="10.00">coap_dtls_free_session</text>
</a>
</g>
</g>
<!-- Node255&#45;&gt;Node258 -->
<g id="edge8" class="edge">
<title>Node255&#45;&gt;Node258</title>
<path fill="none" stroke="midnightblue" d="M538.16,-205.78C546.5,-205.27 555.24,-204.73 563.89,-204.2"/>
<polygon fill="midnightblue" stroke="midnightblue" points="564.21,-207.69 573.98,-203.58 563.78,-200.7 564.21,-207.69"/>
</g>
<!-- Node259 -->
<g id="node10" class="node">
<title>Node259</title>
<g id="a_node10"><a xlink:href="coap__notls_8c.html#aa317934415639e23b64a3bd0b4edde6c" target="_top" xlink:title="coap_tls_free_session">
<polygon fill="white" stroke="black" points="576.5,-152.5 576.5,-171.5 690.5,-171.5 690.5,-152.5 576.5,-152.5"/>
<text text-anchor="middle" x="633.5" y="-159.5" font-family="Helvetica,sans-Serif" font-size="10.00">coap_tls_free_session</text>
</a>
</g>
</g>
<!-- Node255&#45;&gt;Node259 -->
<g id="edge9" class="edge">
<title>Node255&#45;&gt;Node259</title>
<path fill="none" stroke="midnightblue" d="M515.25,-199.49C537.59,-192.35 568.41,-182.49 592.85,-174.68"/>
<polygon fill="midnightblue" stroke="midnightblue" points="594.09,-177.96 602.54,-171.58 591.95,-171.29 594.09,-177.96"/>
</g>
<!-- Node260 -->
<g id="node11" class="node">
<title>Node260</title>
<g id="a_node11"><a xlink:href="coap__io_8c.html#a2de382e7795c908d1a376da8c338386d" target="_top" xlink:title="coap_socket_close">
<polygon fill="white" stroke="black" points="583,-266.5 583,-285.5 684,-285.5 684,-266.5 583,-266.5"/>
<text text-anchor="middle" x="633.5" y="-273.5" font-family="Helvetica,sans-Serif" font-size="10.00">coap_socket_close</text>
</a>
</g>
</g>
<!-- Node255&#45;&gt;Node260 -->
<g id="edge10" class="edge">
<title>Node255&#45;&gt;Node260</title>
<path fill="none" stroke="midnightblue" d="M504.33,-218.57C522.13,-227.53 549.68,-241.11 574,-252 581.99,-255.58 590.69,-259.26 598.87,-262.63"/>
<polygon fill="midnightblue" stroke="midnightblue" points="597.58,-265.88 608.16,-266.41 600.22,-259.4 597.58,-265.88"/>
</g>
<!-- Node261 -->
<g id="node12" class="node">
<title>Node261</title>
<g id="a_node12"><a xlink:href="mem_8h.html#a1e46a1505bb13f03fdacd5d1b32502a6" target="_top" xlink:title="Wrapper function to coap_free_type() for backwards compatibility. ">
<polygon fill="white" stroke="black" points="744.5,-0.5 744.5,-19.5 803.5,-19.5 803.5,-0.5 744.5,-0.5"/>
<text text-anchor="middle" x="774" y="-7.5" font-family="Helvetica,sans-Serif" font-size="10.00">coap_free</text>
</a>
</g>
</g>
<!-- Node255&#45;&gt;Node261 -->
<g id="edge11" class="edge">
<title>Node255&#45;&gt;Node261</title>
<path fill="none" stroke="midnightblue" d="M497.95,-199.39C514.95,-186.36 546.45,-162.46 574,-143 636.42,-98.91 711.86,-49.52 749.4,-25.21"/>
<polygon fill="midnightblue" stroke="midnightblue" points="751.6,-27.96 758.09,-19.59 747.8,-22.08 751.6,-27.96"/>
</g>
<!-- Node265 -->
<g id="node16" class="node">
<title>Node265</title>
<g id="a_node16"><a xlink:href="net_8c.html#a44c39a2314035989d3e07b9d9328e08c" target="_top" xlink:title="Destroys specified node. ">
<polygon fill="white" stroke="black" points="586,-304.5 586,-323.5 681,-323.5 681,-304.5 586,-304.5"/>
<text text-anchor="middle" x="633.5" y="-311.5" font-family="Helvetica,sans-Serif" font-size="10.00">coap_delete_node</text>
</a>
</g>
</g>
<!-- Node255&#45;&gt;Node265 -->
<g id="edge16" class="edge">
<title>Node255&#45;&gt;Node265</title>
<path fill="none" stroke="midnightblue" d="M501.15,-218.53C512.12,-225.63 526.77,-235.96 538,-247 557.02,-265.7 552.31,-279.49 574,-295 576.69,-296.93 579.59,-298.66 582.61,-300.23"/>
<polygon fill="midnightblue" stroke="midnightblue" points="581.36,-303.51 591.91,-304.44 584.24,-297.13 581.36,-303.51"/>
</g>
<!-- Node256&#45;&gt;Node257 -->
<g id="edge7" class="edge">
<title>Node256&#45;&gt;Node257</title>
<path fill="none" stroke="midnightblue" d="M786.95,-180.4C809.21,-162.52 857.24,-123.96 884.51,-102.05"/>
<polygon fill="midnightblue" stroke="midnightblue" points="886.97,-104.57 892.58,-95.57 882.59,-99.11 886.97,-104.57"/>
</g>
<!-- Node261&#45;&gt;Node257 -->
<g id="edge12" class="edge">
<title>Node261&#45;&gt;Node257</title>
<path fill="none" stroke="midnightblue" d="M794.89,-19.54C802.66,-23.6 811.5,-28.64 819,-34 836.66,-46.62 836.54,-55.58 855,-67 858.16,-68.96 861.55,-70.77 865.03,-72.43"/>
<polygon fill="midnightblue" stroke="midnightblue" points="863.76,-75.69 874.32,-76.49 866.56,-69.28 863.76,-75.69"/>
</g>
<!-- Node262 -->
<g id="node13" class="node">
<title>Node262</title>
<g id="a_node13"><a xlink:href="mem_8h.html#a65d0fc0fe6cad555b56e92ccb57613ba" target="_top" xlink:title="Initializes libcoap&#39;s memory management. ">
<polygon fill="white" stroke="black" points="857.5,-38.5 857.5,-57.5 953.5,-57.5 953.5,-38.5 857.5,-38.5"/>
<text text-anchor="middle" x="905.5" y="-45.5" font-family="Helvetica,sans-Serif" font-size="10.00">coap_memory_init</text>
</a>
</g>
</g>
<!-- Node261&#45;&gt;Node262 -->
<g id="edge13" class="edge">
<title>Node261&#45;&gt;Node262</title>
<path fill="none" stroke="midnightblue" d="M803.74,-18.43C820.87,-23.46 842.94,-29.94 862.05,-35.54"/>
<polygon fill="midnightblue" stroke="midnightblue" points="861.15,-38.93 871.73,-38.38 863.12,-32.21 861.15,-38.93"/>
</g>
<!-- Node263 -->
<g id="node14" class="node">
<title>Node263</title>
<g id="a_node14"><a xlink:href="mem_8h.html#a1539cf5011cdfb11500b476f4dbe9393" target="_top" xlink:title="Wrapper function to coap_malloc_type() for backwards compatibility. ">
<polygon fill="white" stroke="black" points="870,-0.5 870,-19.5 941,-19.5 941,-0.5 870,-0.5"/>
<text text-anchor="middle" x="905.5" y="-7.5" font-family="Helvetica,sans-Serif" font-size="10.00">coap_malloc</text>
</a>
</g>
</g>
<!-- Node261&#45;&gt;Node263 -->
<g id="edge14" class="edge">
<title>Node261&#45;&gt;Node263</title>
<path fill="none" stroke="midnightblue" d="M803.74,-10C820.21,-10 841.24,-10 859.83,-10"/>
<polygon fill="midnightblue" stroke="midnightblue" points="859.85,-13.5 869.85,-10 859.85,-6.5 859.85,-13.5"/>
</g>
<!-- Node264 -->
<g id="node15" class="node">
<title>Node264</title>
<g id="a_node15"><a xlink:href="mem_8h.html#a0204710ce56cbaa4f062b7f2622857f5" target="_top" xlink:title="Allocates a chunk of size bytes and returns a pointer to the newly allocated memory. ">
<polygon fill="white" stroke="black" points="992,-161.5 992,-180.5 1087,-180.5 1087,-161.5 992,-161.5"/>
<text text-anchor="middle" x="1039.5" y="-168.5" font-family="Helvetica,sans-Serif" font-size="10.00">coap_malloc_type</text>
</a>
</g>
</g>
<!-- Node263&#45;&gt;Node264 -->
<g id="edge15" class="edge">
<title>Node263&#45;&gt;Node264</title>
<path fill="none" stroke="midnightblue" d="M940.7,-19.59C946.18,-22.08 951.52,-25.18 956,-29 995.82,-62.92 1020.94,-121.15 1031.98,-151.43"/>
<polygon fill="midnightblue" stroke="midnightblue" points="1028.8,-152.94 1035.41,-161.22 1035.4,-150.63 1028.8,-152.94"/>
</g>
<!-- Node265&#45;&gt;Node253 -->
<g id="edge18" class="edge">
<title>Node265&#45;&gt;Node253</title>
<path fill="none" stroke="midnightblue" d="M585.63,-309.7C544.5,-305.34 483.26,-297.46 431,-285 421.58,-282.75 304.92,-243 243.21,-221.91"/>
<polygon fill="midnightblue" stroke="midnightblue" points="244.04,-218.49 233.45,-218.57 241.78,-225.12 244.04,-218.49"/>
</g>
<!-- Node265&#45;&gt;Node256 -->
<g id="edge17" class="edge">
<title>Node265&#45;&gt;Node256</title>
<path fill="none" stroke="midnightblue" d="M678.37,-304.48C683.7,-302.01 688.76,-298.91 693,-295 723.48,-266.93 699.86,-238.46 729,-209 730.4,-207.58 731.93,-206.26 733.55,-205.03"/>
<polygon fill="midnightblue" stroke="midnightblue" points="735.56,-207.9 742.19,-199.64 731.86,-201.96 735.56,-207.9"/>
</g>
<!-- Node266 -->
<g id="node17" class="node">
<title>Node266</title>
<g id="a_node17"><a xlink:href="net_8c.html#aa2f296838e4a779197c43b254e385ddc" target="_top" xlink:title="coap_free_node">
<polygon fill="white" stroke="black" points="731,-218.5 731,-237.5 817,-237.5 817,-218.5 731,-218.5"/>
<text text-anchor="middle" x="774" y="-225.5" font-family="Helvetica,sans-Serif" font-size="10.00">coap_free_node</text>
</a>
</g>
</g>
<!-- Node265&#45;&gt;Node266 -->
<g id="edge19" class="edge">
<title>Node265&#45;&gt;Node266</title>
<path fill="none" stroke="midnightblue" d="M671.3,-304.43C678.7,-301.86 686.27,-298.72 693,-295 717.56,-281.4 741.71,-259.71 756.94,-244.71"/>
<polygon fill="midnightblue" stroke="midnightblue" points="759.48,-247.12 764.04,-237.56 754.51,-242.18 759.48,-247.12"/>
</g>
<!-- Node266&#45;&gt;Node257 -->
<g id="edge20" class="edge">
<title>Node266&#45;&gt;Node257</title>
<path fill="none" stroke="midnightblue" d="M803.92,-218.48C809.28,-215.92 814.57,-212.79 819,-209 841.77,-189.52 838,-176.67 855,-152 866.49,-135.33 880.39,-116.94 890.53,-103.82"/>
<polygon fill="midnightblue" stroke="midnightblue" points="893.49,-105.7 896.87,-95.66 887.97,-101.41 893.49,-105.7"/>
</g>
<!-- Node266&#45;&gt;Node264 -->
<g id="edge24" class="edge">
<title>Node266&#45;&gt;Node264</title>
<path fill="none" stroke="midnightblue" d="M817.03,-234.95C854.41,-239.52 910.1,-242.31 956,-228 981.24,-220.13 1005.57,-201.53 1021.18,-187.71"/>
<polygon fill="midnightblue" stroke="midnightblue" points="1023.91,-189.96 1028.91,-180.62 1019.18,-184.8 1023.91,-189.96"/>
</g>
<!-- Node267 -->
<g id="node18" class="node">
<title>Node267</title>
<g id="a_node18"><a xlink:href="net_8c.html#a157d58fe7840d7d7e36c40fff0825674" target="_top" xlink:title="coap_free_endpoint">
<polygon fill="white" stroke="black" points="855,-199.5 855,-218.5 956,-218.5 956,-199.5 855,-199.5"/>
<text text-anchor="middle" x="905.5" y="-206.5" font-family="Helvetica,sans-Serif" font-size="10.00">coap_free_endpoint</text>
</a>
</g>
</g>
<!-- Node266&#45;&gt;Node267 -->
<g id="edge21" class="edge">
<title>Node266&#45;&gt;Node267</title>
<path fill="none" stroke="midnightblue" d="M817.04,-221.83C825.83,-220.54 835.26,-219.16 844.55,-217.8"/>
<polygon fill="midnightblue" stroke="midnightblue" points="845.16,-221.24 854.54,-216.33 844.14,-214.32 845.16,-221.24"/>
</g>
<!-- Node268 -->
<g id="node19" class="node">
<title>Node268</title>
<g id="a_node19"><a xlink:href="net_8c.html#aeff229f443c6582fea71504f33364eb4" target="_top" xlink:title="coap_malloc_node">
<polygon fill="white" stroke="black" points="856.5,-161.5 856.5,-180.5 954.5,-180.5 954.5,-161.5 856.5,-161.5"/>
<text text-anchor="middle" x="905.5" y="-168.5" font-family="Helvetica,sans-Serif" font-size="10.00">coap_malloc_node</text>
</a>
</g>
</g>
<!-- Node266&#45;&gt;Node268 -->
<g id="edge22" class="edge">
<title>Node266&#45;&gt;Node268</title>
<path fill="none" stroke="midnightblue" d="M797.99,-218.47C804.8,-215.54 812.25,-212.23 819,-209 835.32,-201.19 838.53,-197.48 855,-190 859.22,-188.09 863.69,-186.19 868.15,-184.38"/>
<polygon fill="midnightblue" stroke="midnightblue" points="869.78,-187.5 877.8,-180.58 867.21,-180.99 869.78,-187.5"/>
</g>
<!-- Node268&#45;&gt;Node264 -->
<g id="edge23" class="edge">
<title>Node268&#45;&gt;Node264</title>
<path fill="none" stroke="midnightblue" d="M954.53,-171C963.31,-171 972.56,-171 981.57,-171"/>
<polygon fill="midnightblue" stroke="midnightblue" points="981.61,-174.5 991.61,-171 981.61,-167.5 981.61,-174.5"/>
</g>
<!-- Node270 -->
<g id="node21" class="node">
<title>Node270</title>
<g id="a_node21"><a xlink:href="group__logging.html#ga6a4f5ef637bf85aa161adfe73ac81ff0" target="_top" xlink:title="Print the address into the defined buffer. ">
<polygon fill="white" stroke="black" points="590.5,-342.5 590.5,-361.5 676.5,-361.5 676.5,-342.5 590.5,-342.5"/>
<text text-anchor="middle" x="633.5" y="-349.5" font-family="Helvetica,sans-Serif" font-size="10.00">coap_print_addr</text>
</a>
</g>
</g>
<!-- Node269&#45;&gt;Node270 -->
<g id="edge26" class="edge">
<title>Node269&#45;&gt;Node270</title>
<path fill="none" stroke="midnightblue" d="M495.87,-275.73C511.64,-290.05 543.08,-316.86 574,-333 578.22,-335.2 582.73,-337.21 587.32,-339.03"/>
<polygon fill="midnightblue" stroke="midnightblue" points="586.18,-342.34 596.77,-342.49 588.59,-335.76 586.18,-342.34"/>
</g>
<!-- Node271 -->
<g id="node22" class="node">
<title>Node271</title>
<g id="a_node22"><a xlink:href="coap__debug_8c.html#aaa5ee5c2942fe13271a46000b2aebde6" target="_top" xlink:title="A length&#45;safe strlen() fake. ">
<polygon fill="white" stroke="black" points="751,-342.5 751,-361.5 797,-361.5 797,-342.5 751,-342.5"/>
<text text-anchor="middle" x="774" y="-349.5" font-family="Helvetica,sans-Serif" font-size="10.00">strnlen</text>
</a>
</g>
</g>
<!-- Node270&#45;&gt;Node271 -->
<g id="edge27" class="edge">
<title>Node270&#45;&gt;Node271</title>
<path fill="none" stroke="midnightblue" d="M676.81,-352C697.25,-352 721.41,-352 740.4,-352"/>
<polygon fill="midnightblue" stroke="midnightblue" points="740.64,-355.5 750.64,-352 740.64,-348.5 740.64,-355.5"/>
</g>
<!-- Node272&#45;&gt;Node257 -->
<g id="edge30" class="edge">
<title>Node272&#45;&gt;Node257</title>
<path fill="none" stroke="midnightblue" d="M395.25,-76.56C406.9,-74.67 419.36,-72.96 431,-72 602.86,-57.78 647.12,-58.02 819,-72 830.25,-72.91 842.25,-74.5 853.59,-76.27"/>
<polygon fill="midnightblue" stroke="midnightblue" points="853.35,-79.78 863.79,-77.95 854.49,-72.87 853.35,-79.78"/>
</g>
</g>
</svg>
        <g id="navigator" transform="translate(0 0)" fill="#404254">
                <rect fill="#f2f5e9" fill-opacity="0.5" stroke="#606060" stroke-width=".5" x="0" y="0" width="60" height="60"/>
                <use id="zoomplus" xlink:href="#zoomPlus" x="17" y="9" onmousedown="handleZoom(evt,'in')"/>
                <use id="zoomminus" xlink:href="#zoomMin" x="42" y="9" onmousedown="handleZoom(evt,'out')"/>
                <use id="reset" xlink:href="#resetDef" x="30" y="36" onmousedown="handleReset()"/>
                <g id="arrowUp" xlink:href="#dirArrow" transform="translate(30 24)" onmousedown="handlePan(0,-1)">
                  <use xlink:href="#rim" fill="#404040">
                        <set attributeName="fill" to="#808080" begin="arrowUp.mouseover" end="arrowUp.mouseout"/>
                  </use>
                  <path fill="none" stroke="white" stroke-width="1.5" d="M0,-3.0v7 M-2.5,-0.5L0,-3.0L2.5,-0.5"/>
                </g>
                <g id="arrowRight" xlink:href="#dirArrow" transform="rotate(90) translate(36 -43)" onmousedown="handlePan(1,0)">
                  <use xlink:href="#rim" fill="#404040">
                        <set attributeName="fill" to="#808080" begin="arrowRight.mouseover" end="arrowRight.mouseout"/>
                  </use>
                  <path fill="none" stroke="white" stroke-width="1.5" d="M0,-3.0v7 M-2.5,-0.5L0,-3.0L2.5,-0.5"/>
                </g>
                <g id="arrowDown" xlink:href="#dirArrow" transform="rotate(180) translate(-30 -48)" onmousedown="handlePan(0,1)">
                  <use xlink:href="#rim" fill="#404040">
                        <set attributeName="fill" to="#808080" begin="arrowDown.mouseover" end="arrowDown.mouseout"/>
                  </use>
                  <path fill="none" stroke="white" stroke-width="1.5" d="M0,-3.0v7 M-2.5,-0.5L0,-3.0L2.5,-0.5"/>
                </g>
                <g id="arrowLeft" xlink:href="#dirArrow" transform="rotate(270) translate(-36 17)" onmousedown="handlePan(-1,0)">
                  <use xlink:href="#rim" fill="#404040">
                        <set attributeName="fill" to="#808080" begin="arrowLeft.mouseover" end="arrowLeft.mouseout"/>
                  </use>
                  <path fill="none" stroke="white" stroke-width="1.5" d="M0,-3.0v7 M-2.5,-0.5L0,-3.0L2.5,-0.5"/>
                </g>
        </g>
        <svg viewBox="0 0 15 15" width="100%" height="30px" preserveAspectRatio="xMaxYMin meet">
         <g id="arrow_out" transform="scale(0.3 0.3)">
          <a xlink:href="resource_8c_a0ea23a6e5f19c9081f282e0a7cc4452d_cgraph_org.svg" target="_base">
           <rect id="button" ry="5" rx="5" y="6" x="6" height="38" width="38"
                fill="#f2f5e9" fill-opacity="0.5" stroke="#606060" stroke-width="1.0"/>
           <path id="arrow"
             d="M 11.500037,31.436501 C 11.940474,20.09759 22.043105,11.32322 32.158766,21.979434 L 37.068811,17.246167 C 37.068811,17.246167 37.088388,32 37.088388,32 L 22.160133,31.978069 C 22.160133,31.978069 26.997745,27.140456 26.997745,27.140456 C 18.528582,18.264221 13.291696,25.230495 11.500037,31.436501 z"
             style="fill:#404040;"/>
          </a>
         </g>
        </svg>
</svg>
