<?xml version="1.0" encoding="UTF-8" standalone="no"?>
<!DOCTYPE svg PUBLIC "-//W3C//DTD SVG 1.1//EN"
 "http://www.w3.org/Graphics/SVG/1.1/DTD/svg11.dtd">
<!-- Generated by graphviz version 2.43.0 (0)
 -->
<!-- Title: coap_print_link Pages: 1 -->
<!--zoomable 280 -->
<svg id="main" version="1.1" xmlns="http://www.w3.org/2000/svg" xmlns:xlink="http://www.w3.org/1999/xlink" xml:space="preserve" onload="init(evt)">
<style type="text/css"><![CDATA[
.edge:hover path { stroke: red; }
.edge:hover polygon { stroke: red; fill: red; }
]]></style>
<script type="text/javascript"><![CDATA[
var edges = document.getElementsByTagName('g');
if (edges && edges.length) {
  for (var i=0;i<edges.length;i++) {
    if (edges[i].id.substr(0,4)=='edge') {
      edges[i].setAttribute('class','edge');
    }
  }
}
]]></script>
        <defs>
                <circle id="rim" cx="0" cy="0" r="7"/>
                <circle id="rim2" cx="0" cy="0" r="3.5"/>
                <g id="zoomPlus">
                        <use xlink:href="#rim" fill="#404040">
                                <set attributeName="fill" to="#808080" begin="zoomplus.mouseover" end="zoomplus.mouseout"/>
                        </use>
                        <path d="M-4,0h8M0,-4v8" fill="none" stroke="white" stroke-width="1.5" pointer-events="none"/>
                </g>
                <g id="zoomMin">
                        <use xlink:href="#rim" fill="#404040">
                                <set attributeName="fill" to="#808080" begin="zoomminus.mouseover" end="zoomminus.mouseout"/>
                        </use>
                        <path d="M-4,0h8" fill="none" stroke="white" stroke-width="1.5" pointer-events="none"/>
                </g>
                <g id="dirArrow">
                        <path fill="none" stroke="white" stroke-width="1.5" d="M0,-3.0v7 M-2.5,-0.5L0,-3.0L2.5,-0.5"/>
                </g>
               <g id="resetDef">
                       <use xlink:href="#rim2" fill="#404040">
                               <set attributeName="fill" to="#808080" begin="reset.mouseover" end="reset.mouseout"/>
                       </use>
               </g>
        </defs>

<script type="text/javascript">
var viewWidth = 1967;
var viewHeight = 280;
var sectionId = 'dynsection-29';
</script>
<script xlink:href="svgpan.js"/>
<svg id="graph" class="graph">
<g id="viewport">
<title>coap_print_link</title>
<polygon fill="white" stroke="transparent" points="-4,4 -4,-276 1963,-276 1963,4 -4,4"/>
<!-- Node640 -->
<g id="node1" class="node">
<title>Node640</title>
<polygon fill="#bfbfbf" stroke="black" points="0,-19.5 0,-38.5 82,-38.5 82,-19.5 0,-19.5"/>
<text text-anchor="middle" x="41" y="-26.5" font-family="Helvetica,sans-Serif" font-size="10.00">coap_print_link</text>
</g>
<!-- Node641 -->
<g id="node2" class="node">
<title>Node641</title>
<g id="a_node2"><a xlink:href="resource_8h.html#a0b2cba9f6c0af2c91707072ffc3a2237" target="_top" xlink:title="Prints the names of all known resources to buf. ">
<polygon fill="white" stroke="black" points="118,-19.5 118,-38.5 231,-38.5 231,-19.5 118,-19.5"/>
<text text-anchor="middle" x="174.5" y="-26.5" font-family="Helvetica,sans-Serif" font-size="10.00">coap_print_wellknown</text>
</a>
</g>
</g>
<!-- Node640&#45;&gt;Node641 -->
<g id="edge1" class="edge">
<title>Node640&#45;&gt;Node641</title>
<path fill="none" stroke="midnightblue" d="M92.39,-29C100.64,-29 109.23,-29 117.6,-29"/>
<polygon fill="midnightblue" stroke="midnightblue" points="92.17,-25.5 82.17,-29 92.17,-32.5 92.17,-25.5"/>
</g>
<!-- Node642 -->
<g id="node3" class="node">
<title>Node642</title>
<g id="a_node3"><a xlink:href="net_8c.html#a4dc6e755dca2ca804e8700f398f4c329" target="_top" xlink:title="Quick hack to determine the size of the resource description for .well&#45;known/core. ">
<polygon fill="white" stroke="black" points="267,-76.5 267,-95.5 338,-95.5 338,-76.5 267,-76.5"/>
<text text-anchor="middle" x="302.5" y="-83.5" font-family="Helvetica,sans-Serif" font-size="10.00">get_wkc_len</text>
</a>
</g>
</g>
<!-- Node641&#45;&gt;Node642 -->
<g id="edge2" class="edge">
<title>Node641&#45;&gt;Node642</title>
<path fill="none" stroke="midnightblue" d="M205.91,-42.76C228.93,-53.17 259.97,-67.21 280.34,-76.43"/>
<polygon fill="midnightblue" stroke="midnightblue" points="207.14,-39.47 196.59,-38.54 204.26,-45.85 207.14,-39.47"/>
</g>
<!-- Node643 -->
<g id="node4" class="node">
<title>Node643</title>
<g id="a_node4"><a xlink:href="net_8h.html#a69ff8481c32707b77813c051fc42dedd" target="_top" xlink:title="Creates a new response for given request with the contents of .well&#45;known/core. ">
<polygon fill="white" stroke="black" points="374,-57.5 374,-76.5 508,-76.5 508,-57.5 374,-57.5"/>
<text text-anchor="middle" x="441" y="-64.5" font-family="Helvetica,sans-Serif" font-size="10.00">coap_wellknown_response</text>
</a>
</g>
</g>
<!-- Node641&#45;&gt;Node643 -->
<g id="edge28" class="edge">
<title>Node641&#45;&gt;Node643</title>
<path fill="none" stroke="midnightblue" d="M241.27,-38.45C281.6,-44.24 333.09,-51.64 373.54,-57.45"/>
<polygon fill="midnightblue" stroke="midnightblue" points="241.67,-34.97 231.27,-37.01 240.67,-41.9 241.67,-34.97"/>
</g>
<!-- Node658 -->
<g id="node19" class="node">
<title>Node658</title>
<g id="a_node19"><a xlink:href="resource_8c.html#a5d3c8be95fcb4b66ba2f399896366a0e" target="_top" xlink:title="match">
<polygon fill="white" stroke="black" points="280.5,-0.5 280.5,-19.5 324.5,-19.5 324.5,-0.5 280.5,-0.5"/>
<text text-anchor="middle" x="302.5" y="-7.5" font-family="Helvetica,sans-Serif" font-size="10.00">match</text>
</a>
</g>
</g>
<!-- Node641&#45;&gt;Node658 -->
<g id="edge29" class="edge">
<title>Node641&#45;&gt;Node658</title>
<path fill="none" stroke="midnightblue" d="M211.41,-17.42C233.73,-13.03 261.64,-9.14 280.43,-7.99"/>
<polygon fill="midnightblue" stroke="midnightblue" points="210.68,-14 201.61,-19.47 212.11,-20.85 210.68,-14"/>
</g>
<!-- Node642&#45;&gt;Node643 -->
<g id="edge3" class="edge">
<title>Node642&#45;&gt;Node643</title>
<path fill="none" stroke="midnightblue" d="M348.36,-79.76C356.56,-78.61 365.27,-77.4 373.93,-76.2"/>
<polygon fill="midnightblue" stroke="midnightblue" points="347.72,-76.31 338.3,-81.16 348.68,-83.24 347.72,-76.31"/>
</g>
<!-- Node644 -->
<g id="node5" class="node">
<title>Node644</title>
<g id="a_node5"><a xlink:href="net_8c.html#a1a280312c4bad55cf10243b9b9c3e966" target="_top" xlink:title="handle_request">
<polygon fill="white" stroke="black" points="544,-57.5 544,-76.5 627,-76.5 627,-57.5 544,-57.5"/>
<text text-anchor="middle" x="585.5" y="-64.5" font-family="Helvetica,sans-Serif" font-size="10.00">handle_request</text>
</a>
</g>
</g>
<!-- Node643&#45;&gt;Node644 -->
<g id="edge4" class="edge">
<title>Node643&#45;&gt;Node644</title>
<path fill="none" stroke="midnightblue" d="M518.44,-67C527.11,-67 535.68,-67 543.62,-67"/>
<polygon fill="midnightblue" stroke="midnightblue" points="518.24,-63.5 508.24,-67 518.24,-70.5 518.24,-63.5"/>
</g>
<!-- Node645 -->
<g id="node6" class="node">
<title>Node645</title>
<g id="a_node6"><a xlink:href="net_8h.html#a7bb944fc52f772655356d95724317401" target="_top" xlink:title="Dispatches the PDUs from the receive queue in given context. ">
<polygon fill="white" stroke="black" points="663,-57.5 663,-76.5 743,-76.5 743,-57.5 663,-57.5"/>
<text text-anchor="middle" x="703" y="-64.5" font-family="Helvetica,sans-Serif" font-size="10.00">coap_dispatch</text>
</a>
</g>
</g>
<!-- Node644&#45;&gt;Node645 -->
<g id="edge5" class="edge">
<title>Node644&#45;&gt;Node645</title>
<path fill="none" stroke="midnightblue" d="M637.45,-67C645.95,-67 654.66,-67 662.81,-67"/>
<polygon fill="midnightblue" stroke="midnightblue" points="637.22,-63.5 627.22,-67 637.22,-70.5 637.22,-63.5"/>
</g>
<!-- Node646 -->
<g id="node7" class="node">
<title>Node646</title>
<g id="a_node7"><a xlink:href="net_8c.html#acd36f6fba6d30ab9557e0e6521f4a088" target="_top" xlink:title="coap_read_session">
<polygon fill="white" stroke="black" points="1076.5,-76.5 1076.5,-95.5 1177.5,-95.5 1177.5,-76.5 1076.5,-76.5"/>
<text text-anchor="middle" x="1127" y="-83.5" font-family="Helvetica,sans-Serif" font-size="10.00">coap_read_session</text>
</a>
</g>
</g>
<!-- Node645&#45;&gt;Node646 -->
<g id="edge6" class="edge">
<title>Node645&#45;&gt;Node646</title>
<path fill="none" stroke="midnightblue" d="M753.77,-69.24C835,-72.9 995.13,-80.11 1076.3,-83.76"/>
<polygon fill="midnightblue" stroke="midnightblue" points="753.47,-65.72 743.32,-68.77 753.15,-72.72 753.47,-65.72"/>
</g>
<!-- Node655 -->
<g id="node16" class="node">
<title>Node655</title>
<g id="a_node16"><a xlink:href="net_8h.html#ae6b8ca457dd41f23372f9e9a7159312b" target="_top" xlink:title="Parses and interprets a CoAP datagram with context ctx. ">
<polygon fill="white" stroke="black" points="779,-38.5 779,-57.5 883,-57.5 883,-38.5 779,-38.5"/>
<text text-anchor="middle" x="831" y="-45.5" font-family="Helvetica,sans-Serif" font-size="10.00">coap_handle_dgram</text>
</a>
</g>
</g>
<!-- Node645&#45;&gt;Node655 -->
<g id="edge22" class="edge">
<title>Node645&#45;&gt;Node655</title>
<path fill="none" stroke="midnightblue" d="M753.21,-59.58C761.6,-58.31 770.34,-57 778.79,-55.72"/>
<polygon fill="midnightblue" stroke="midnightblue" points="752.54,-56.14 743.18,-61.09 753.59,-63.06 752.54,-56.14"/>
</g>
<!-- Node647 -->
<g id="node8" class="node">
<title>Node647</title>
<g id="a_node8"><a xlink:href="net_8h.html#a0748d791fd2af516dd93fbadb660d440" target="_top" xlink:title="For applications with their own message loop, reads all data from the network. ">
<polygon fill="white" stroke="black" points="1215,-92.5 1215,-111.5 1277,-111.5 1277,-92.5 1215,-92.5"/>
<text text-anchor="middle" x="1246" y="-99.5" font-family="Helvetica,sans-Serif" font-size="10.00">coap_read</text>
</a>
</g>
</g>
<!-- Node646&#45;&gt;Node647 -->
<g id="edge7" class="edge">
<title>Node646&#45;&gt;Node647</title>
<path fill="none" stroke="midnightblue" d="M1187.82,-94.18C1197.24,-95.47 1206.62,-96.75 1214.98,-97.89"/>
<polygon fill="midnightblue" stroke="midnightblue" points="1188,-90.67 1177.62,-92.79 1187.05,-97.61 1188,-90.67"/>
</g>
<!-- Node652 -->
<g id="node13" class="node">
<title>Node652</title>
<g id="a_node13"><a xlink:href="net_8h.html#a7b591afa095a093b604b63313275a02a" target="_top" xlink:title="Process all the epoll events. ">
<polygon fill="white" stroke="black" points="1739,-101.5 1739,-120.5 1840,-120.5 1840,-101.5 1739,-101.5"/>
<text text-anchor="middle" x="1789.5" y="-108.5" font-family="Helvetica,sans-Serif" font-size="10.00">coap_io_do_events</text>
</a>
</g>
</g>
<!-- Node646&#45;&gt;Node652 -->
<g id="edge21" class="edge">
<title>Node646&#45;&gt;Node652</title>
<path fill="none" stroke="midnightblue" d="M1187.94,-77.01C1233.61,-70.93 1298.13,-64 1355,-64 1355,-64 1355,-64 1495.5,-64 1589.26,-64 1697.8,-87.76 1752.71,-101.49"/>
<polygon fill="midnightblue" stroke="midnightblue" points="1187.35,-73.55 1177.91,-78.37 1188.29,-80.49 1187.35,-73.55"/>
</g>
<!-- Node648 -->
<g id="node9" class="node">
<title>Node648</title>
<g id="a_node9"><a xlink:href="coap__io_8c.html#a75a7c93e10ca7858449ba304aad4ea37" target="_top" xlink:title="coap_run_once">
<polygon fill="white" stroke="black" points="1876,-205.5 1876,-224.5 1959,-224.5 1959,-205.5 1876,-205.5"/>
<text text-anchor="middle" x="1917.5" y="-212.5" font-family="Helvetica,sans-Serif" font-size="10.00">coap_run_once</text>
</a>
</g>
</g>
<!-- Node647&#45;&gt;Node648 -->
<g id="edge8" class="edge">
<title>Node647&#45;&gt;Node648</title>
<path fill="none" stroke="midnightblue" d="M1258.05,-120.41C1269.88,-138.96 1290.06,-167.55 1313,-187 1380.64,-244.34 1404.83,-272 1493.5,-272 1493.5,-272 1493.5,-272 1647.5,-272 1737.96,-272 1841.9,-240.77 1889.79,-224.54"/>
<polygon fill="midnightblue" stroke="midnightblue" points="1260.91,-118.38 1252.66,-111.73 1254.96,-122.07 1260.91,-118.38"/>
</g>
<!-- Node649 -->
<g id="node10" class="node">
<title>Node649</title>
<g id="a_node10"><a xlink:href="net_8h.html#a9900c032b74bd57f67d489484a2b3207" target="_top" xlink:title="Handles retransmissions of confirmable messages. ">
<polygon fill="white" stroke="black" points="1313,-158.5 1313,-177.5 1399,-177.5 1399,-158.5 1313,-158.5"/>
<text text-anchor="middle" x="1356" y="-165.5" font-family="Helvetica,sans-Serif" font-size="10.00">coap_retransmit</text>
</a>
</g>
</g>
<!-- Node647&#45;&gt;Node649 -->
<g id="edge9" class="edge">
<title>Node647&#45;&gt;Node649</title>
<path fill="none" stroke="midnightblue" d="M1271.56,-117.01C1292.37,-129.73 1321.58,-147.58 1339.35,-158.44"/>
<polygon fill="midnightblue" stroke="midnightblue" points="1273.29,-113.97 1262.94,-111.74 1269.64,-119.94 1273.29,-113.97"/>
</g>
<!-- Node653 -->
<g id="node14" class="node">
<title>Node653</title>
<g id="a_node14"><a xlink:href="net_8h.html#a5854b1394bfddd574e48af116e3aaaf9" target="_top" xlink:title="Sends an RST message with code 0 for the specified request to dst. ">
<polygon fill="white" stroke="black" points="1606.5,-148.5 1606.5,-167.5 1686.5,-167.5 1686.5,-148.5 1606.5,-148.5"/>
<text text-anchor="middle" x="1646.5" y="-155.5" font-family="Helvetica,sans-Serif" font-size="10.00">coap_send_rst</text>
</a>
</g>
</g>
<!-- Node647&#45;&gt;Node653 -->
<g id="edge20" class="edge">
<title>Node647&#45;&gt;Node653</title>
<path fill="none" stroke="midnightblue" d="M1287.14,-100.41C1346.34,-98.98 1460.17,-99.72 1554,-121 1580.24,-126.95 1608.71,-139.52 1626.8,-148.35"/>
<polygon fill="midnightblue" stroke="midnightblue" points="1286.99,-96.91 1277.09,-100.69 1287.18,-103.91 1286.99,-96.91"/>
</g>
<!-- Node650 -->
<g id="node11" class="node">
<title>Node650</title>
<g id="a_node11"><a xlink:href="net_8h.html#aaac86ac50793f309678e4951ecf8863f" target="_top" xlink:title="For applications with their own message loop, send all pending retransmits and return the list of soc...">
<polygon fill="white" stroke="black" points="1462.5,-224.5 1462.5,-243.5 1526.5,-243.5 1526.5,-224.5 1462.5,-224.5"/>
<text text-anchor="middle" x="1494.5" y="-231.5" font-family="Helvetica,sans-Serif" font-size="10.00">coap_write</text>
</a>
</g>
</g>
<!-- Node649&#45;&gt;Node650 -->
<g id="edge10" class="edge">
<title>Node649&#45;&gt;Node650</title>
<path fill="none" stroke="midnightblue" d="M1382.23,-182.46C1397.34,-190.89 1417.04,-201.51 1435,-210 1445.82,-215.11 1458.03,-220.22 1468.49,-224.41"/>
<polygon fill="midnightblue" stroke="midnightblue" points="1383.91,-179.38 1373.48,-177.52 1380.47,-185.48 1383.91,-179.38"/>
</g>
<!-- Node649&#45;&gt;Node653 -->
<g id="edge19" class="edge">
<title>Node649&#45;&gt;Node653</title>
<path fill="none" stroke="midnightblue" d="M1409.03,-174.84C1417.69,-175.74 1426.59,-176.52 1435,-177 1487.8,-180.04 1501.39,-182.4 1554,-177 1572.08,-175.14 1591.85,-171.27 1608.37,-167.51"/>
<polygon fill="midnightblue" stroke="midnightblue" points="1409.35,-171.36 1399.02,-173.75 1408.58,-178.32 1409.35,-171.36"/>
</g>
<!-- Node654 -->
<g id="node15" class="node">
<title>Node654</title>
<g id="a_node15"><a xlink:href="net_8h.html#a09ff95ae16a4b7f6abf4a0822d430658" target="_top" xlink:title="Function interface for joining a multicast group for listening. ">
<polygon fill="white" stroke="black" points="1435,-130.5 1435,-149.5 1554,-149.5 1554,-130.5 1435,-130.5"/>
<text text-anchor="middle" x="1494.5" y="-137.5" font-family="Helvetica,sans-Serif" font-size="10.00">coap_join_mcast_group</text>
</a>
</g>
</g>
<!-- Node649&#45;&gt;Node654 -->
<g id="edge17" class="edge">
<title>Node649&#45;&gt;Node654</title>
<path fill="none" stroke="midnightblue" d="M1408.92,-157.35C1421.46,-154.78 1434.78,-152.04 1447.05,-149.53"/>
<polygon fill="midnightblue" stroke="midnightblue" points="1408.16,-153.93 1399.07,-159.37 1409.57,-160.79 1408.16,-153.93"/>
</g>
<!-- Node650&#45;&gt;Node648 -->
<g id="edge15" class="edge">
<title>Node650&#45;&gt;Node648</title>
<path fill="none" stroke="midnightblue" d="M1537.07,-232.64C1601.83,-230.45 1730.72,-225.79 1840,-220 1851.56,-219.39 1864.1,-218.61 1875.62,-217.86"/>
<polygon fill="midnightblue" stroke="midnightblue" points="1536.74,-229.15 1526.86,-232.98 1536.97,-236.15 1536.74,-229.15"/>
</g>
<!-- Node651 -->
<g id="node12" class="node">
<title>Node651</title>
<g id="a_node12"><a xlink:href="net_8h.html#a3be92476a2c2c12d68c0cd07795c7e34" target="_top" xlink:title="Any now timed out delayed packet is transmitted, along with any packets associated with requested obs...">
<polygon fill="white" stroke="black" points="1590,-186.5 1590,-205.5 1703,-205.5 1703,-186.5 1590,-186.5"/>
<text text-anchor="middle" x="1646.5" y="-193.5" font-family="Helvetica,sans-Serif" font-size="10.00">coap_io_prepare_epoll</text>
</a>
</g>
</g>
<!-- Node650&#45;&gt;Node651 -->
<g id="edge11" class="edge">
<title>Node650&#45;&gt;Node651</title>
<path fill="none" stroke="midnightblue" d="M1536.42,-223.63C1558.69,-217.99 1586.07,-211.06 1607.82,-205.55"/>
<polygon fill="midnightblue" stroke="midnightblue" points="1535.41,-220.28 1526.58,-226.13 1537.13,-227.06 1535.41,-220.28"/>
</g>
<!-- Node650&#45;&gt;Node653 -->
<g id="edge16" class="edge">
<title>Node650&#45;&gt;Node653</title>
<path fill="none" stroke="midnightblue" d="M1533.81,-220.57C1540.75,-217.5 1547.76,-213.96 1554,-210 1572.32,-198.37 1571.34,-188.08 1590,-177 1596.3,-173.26 1603.45,-170.11 1610.47,-167.53"/>
<polygon fill="midnightblue" stroke="midnightblue" points="1532.36,-217.38 1524.47,-224.45 1535.04,-223.84 1532.36,-217.38"/>
</g>
<!-- Node651&#45;&gt;Node648 -->
<g id="edge12" class="edge">
<title>Node651&#45;&gt;Node648</title>
<path fill="none" stroke="midnightblue" d="M1713.46,-200.66C1764.2,-204.24 1832.7,-209.08 1875.73,-212.12"/>
<polygon fill="midnightblue" stroke="midnightblue" points="1713.46,-197.15 1703.24,-199.94 1712.97,-204.13 1713.46,-197.15"/>
</g>
<!-- Node651&#45;&gt;Node652 -->
<g id="edge13" class="edge">
<title>Node651&#45;&gt;Node652</title>
<path fill="none" stroke="midnightblue" d="M1690.54,-182.85C1694.84,-181.07 1699.06,-179.12 1703,-177 1732.89,-160.92 1763.25,-134.58 1778.48,-120.53"/>
<polygon fill="midnightblue" stroke="midnightblue" points="1689.2,-179.62 1681.12,-186.47 1691.71,-186.15 1689.2,-179.62"/>
</g>
<!-- Node652&#45;&gt;Node648 -->
<g id="edge14" class="edge">
<title>Node652&#45;&gt;Node648</title>
<path fill="none" stroke="midnightblue" d="M1809.98,-127.08C1836.54,-149 1883.26,-187.57 1904.9,-205.43"/>
<polygon fill="midnightblue" stroke="midnightblue" points="1812.07,-124.26 1802.13,-120.6 1807.61,-129.66 1812.07,-124.26"/>
</g>
<!-- Node654&#45;&gt;Node654 -->
<g id="edge18" class="edge">
<title>Node654&#45;&gt;Node654</title>
<path fill="none" stroke="midnightblue" d="M1468.83,-159.03C1470.23,-164.13 1478.79,-168 1494.5,-168 1519.03,-168 1526.12,-158.57 1515.77,-149.76"/>
<polygon fill="midnightblue" stroke="midnightblue" points="1472.11,-160.29 1473.23,-149.76 1465.78,-157.29 1472.11,-160.29"/>
</g>
<!-- Node656 -->
<g id="node17" class="node">
<title>Node656</title>
<g id="a_node17"><a xlink:href="net_8c.html#a8534f7860b14e0743529daff196a27ce" target="_top" xlink:title="coap_handle_dgram_for\l_proto">
<polygon fill="white" stroke="black" points="919,-30 919,-60 1039,-60 1039,-30 919,-30"/>
<text text-anchor="start" x="927" y="-48" font-family="Helvetica,sans-Serif" font-size="10.00">coap_handle_dgram_for</text>
<text text-anchor="middle" x="979" y="-37" font-family="Helvetica,sans-Serif" font-size="10.00">_proto</text>
</a>
</g>
</g>
<!-- Node655&#45;&gt;Node656 -->
<g id="edge23" class="edge">
<title>Node655&#45;&gt;Node656</title>
<path fill="none" stroke="midnightblue" d="M893.29,-46.74C901.79,-46.57 910.51,-46.39 918.96,-46.21"/>
<polygon fill="midnightblue" stroke="midnightblue" points="892.99,-43.25 883.06,-46.95 893.13,-50.24 892.99,-43.25"/>
</g>
<!-- Node656&#45;&gt;Node646 -->
<g id="edge24" class="edge">
<title>Node656&#45;&gt;Node646</title>
<path fill="none" stroke="midnightblue" d="M1043.28,-62.77C1060.02,-67.47 1077.46,-72.37 1091.98,-76.45"/>
<polygon fill="midnightblue" stroke="midnightblue" points="1044.11,-59.37 1033.54,-60.03 1042.22,-66.11 1044.11,-59.37"/>
</g>
<!-- Node657 -->
<g id="node18" class="node">
<title>Node657</title>
<g id="a_node18"><a xlink:href="net_8c.html#a44ffb4b70e537043e9a9cf344be24b92" target="_top" xlink:title="coap_read_endpoint">
<polygon fill="white" stroke="black" points="1075,-35.5 1075,-54.5 1179,-54.5 1179,-35.5 1075,-35.5"/>
<text text-anchor="middle" x="1127" y="-42.5" font-family="Helvetica,sans-Serif" font-size="10.00">coap_read_endpoint</text>
</a>
</g>
</g>
<!-- Node656&#45;&gt;Node657 -->
<g id="edge25" class="edge">
<title>Node656&#45;&gt;Node657</title>
<path fill="none" stroke="midnightblue" d="M1049.61,-45C1058.04,-45 1066.53,-45 1074.63,-45"/>
<polygon fill="midnightblue" stroke="midnightblue" points="1049.38,-41.5 1039.38,-45 1049.38,-48.5 1049.38,-41.5"/>
</g>
<!-- Node657&#45;&gt;Node647 -->
<g id="edge26" class="edge">
<title>Node657&#45;&gt;Node647</title>
<path fill="none" stroke="midnightblue" d="M1160.66,-58.63C1166.79,-61.32 1173.12,-64.18 1179,-67 1195.84,-75.08 1214.62,-85.14 1227.82,-92.4"/>
<polygon fill="midnightblue" stroke="midnightblue" points="1161.85,-55.33 1151.28,-54.58 1159.07,-61.75 1161.85,-55.33"/>
</g>
<!-- Node657&#45;&gt;Node652 -->
<g id="edge27" class="edge">
<title>Node657&#45;&gt;Node652</title>
<path fill="none" stroke="midnightblue" d="M1189.31,-37.08C1234.92,-31.87 1298.75,-26 1355,-26 1355,-26 1355,-26 1495.5,-26 1589.51,-26 1614.23,-36.08 1703,-67 1728.7,-75.95 1756.33,-91.34 1773.02,-101.34"/>
<polygon fill="midnightblue" stroke="midnightblue" points="1188.81,-33.61 1179.29,-38.25 1189.62,-40.57 1188.81,-33.61"/>
</g>
<!-- Node658&#45;&gt;Node641 -->
<g id="edge30" class="edge">
<title>Node658&#45;&gt;Node641</title>
<path fill="none" stroke="midnightblue" d="M270.38,-20.61C258.51,-23.08 244.59,-25.44 231.13,-27.32"/>
<polygon fill="midnightblue" stroke="midnightblue" points="271.21,-24.01 280.21,-18.42 269.69,-17.17 271.21,-24.01"/>
</g>
</g>
</svg>
        <g id="navigator" transform="translate(0 0)" fill="#404254">
                <rect fill="#f2f5e9" fill-opacity="0.5" stroke="#606060" stroke-width=".5" x="0" y="0" width="60" height="60"/>
                <use id="zoomplus" xlink:href="#zoomPlus" x="17" y="9" onmousedown="handleZoom(evt,'in')"/>
                <use id="zoomminus" xlink:href="#zoomMin" x="42" y="9" onmousedown="handleZoom(evt,'out')"/>
                <use id="reset" xlink:href="#resetDef" x="30" y="36" onmousedown="handleReset()"/>
                <g id="arrowUp" xlink:href="#dirArrow" transform="translate(30 24)" onmousedown="handlePan(0,-1)">
                  <use xlink:href="#rim" fill="#404040">
                        <set attributeName="fill" to="#808080" begin="arrowUp.mouseover" end="arrowUp.mouseout"/>
                  </use>
                  <path fill="none" stroke="white" stroke-width="1.5" d="M0,-3.0v7 M-2.5,-0.5L0,-3.0L2.5,-0.5"/>
                </g>
                <g id="arrowRight" xlink:href="#dirArrow" transform="rotate(90) translate(36 -43)" onmousedown="handlePan(1,0)">
                  <use xlink:href="#rim" fill="#404040">
                        <set attributeName="fill" to="#808080" begin="arrowRight.mouseover" end="arrowRight.mouseout"/>
                  </use>
                  <path fill="none" stroke="white" stroke-width="1.5" d="M0,-3.0v7 M-2.5,-0.5L0,-3.0L2.5,-0.5"/>
                </g>
                <g id="arrowDown" xlink:href="#dirArrow" transform="rotate(180) translate(-30 -48)" onmousedown="handlePan(0,1)">
                  <use xlink:href="#rim" fill="#404040">
                        <set attributeName="fill" to="#808080" begin="arrowDown.mouseover" end="arrowDown.mouseout"/>
                  </use>
                  <path fill="none" stroke="white" stroke-width="1.5" d="M0,-3.0v7 M-2.5,-0.5L0,-3.0L2.5,-0.5"/>
                </g>
                <g id="arrowLeft" xlink:href="#dirArrow" transform="rotate(270) translate(-36 17)" onmousedown="handlePan(-1,0)">
                  <use xlink:href="#rim" fill="#404040">
                        <set attributeName="fill" to="#808080" begin="arrowLeft.mouseover" end="arrowLeft.mouseout"/>
                  </use>
                  <path fill="none" stroke="white" stroke-width="1.5" d="M0,-3.0v7 M-2.5,-0.5L0,-3.0L2.5,-0.5"/>
                </g>
        </g>
        <svg viewBox="0 0 15 15" width="100%" height="30px" preserveAspectRatio="xMaxYMin meet">
         <g id="arrow_out" transform="scale(0.3 0.3)">
          <a xlink:href="resource_8c_a1ee72943df541ed5d4294c13e967ef09_icgraph_org.svg" target="_base">
           <rect id="button" ry="5" rx="5" y="6" x="6" height="38" width="38"
                fill="#f2f5e9" fill-opacity="0.5" stroke="#606060" stroke-width="1.0"/>
           <path id="arrow"
             d="M 11.500037,31.436501 C 11.940474,20.09759 22.043105,11.32322 32.158766,21.979434 L 37.068811,17.246167 C 37.068811,17.246167 37.088388,32 37.088388,32 L 22.160133,31.978069 C 22.160133,31.978069 26.997745,27.140456 26.997745,27.140456 C 18.528582,18.264221 13.291696,25.230495 11.500037,31.436501 z"
             style="fill:#404040;"/>
          </a>
         </g>
        </svg>
</svg>
