<?xml version="1.0" encoding="UTF-8" standalone="no"?>
<!DOCTYPE svg PUBLIC "-//W3C//DTD SVG 1.1//EN"
 "http://www.w3.org/Graphics/SVG/1.1/DTD/svg11.dtd">
<!-- Generated by graphviz version 2.43.0 (0)
 -->
<!-- Title: UT_hash_handle Pages: 1 -->
<svg width="183pt" height="164pt"
 viewBox="0.00 0.00 183.13 164.00" xmlns="http://www.w3.org/2000/svg" xmlns:xlink="http://www.w3.org/1999/xlink">
<g id="graph0" class="graph" transform="scale(1 1) rotate(0) translate(4 160)">
<title>UT_hash_handle</title>
<polygon fill="white" stroke="transparent" points="-4,4 -4,-160 179.13,-160 179.13,4 -4,4"/>
<!-- Node1 -->
<g id="node1" class="node">
<title>Node1</title>
<polygon fill="#bfbfbf" stroke="black" points="29.13,-135.5 29.13,-154.5 119.13,-154.5 119.13,-135.5 29.13,-135.5"/>
<text text-anchor="middle" x="74.13" y="-142.5" font-family="Helvetica,sans-Serif" font-size="10.00">UT_hash_handle</text>
</g>
<!-- Node1&#45;&gt;Node1 -->
<g id="edge1" class="edge">
<title>Node1&#45;&gt;Node1</title>
<path fill="none" stroke="#9a32cd" stroke-dasharray="5,2" d="M129.4,-149.98C134.16,-148.92 137.13,-147.26 137.13,-145 137.13,-141.38 129.52,-139.3 119.15,-138.77"/>
<polygon fill="#9a32cd" stroke="#9a32cd" points="128.66,-146.54 119.15,-151.23 129.51,-153.49 128.66,-146.54"/>
<text text-anchor="middle" x="156.13" y="-148" font-family="Helvetica,sans-Serif" font-size="10.00"> hh_prev</text>
<text text-anchor="middle" x="156.13" y="-137" font-family="Helvetica,sans-Serif" font-size="10.00">hh_next</text>
</g>
<!-- Node2 -->
<g id="node2" class="node">
<title>Node2</title>
<g id="a_node2"><a xlink:href="structUT__hash__table.html" target="_top" xlink:title="UT_hash_table">
<polygon fill="white" stroke="black" points="32.63,-0.5 32.63,-19.5 115.63,-19.5 115.63,-0.5 32.63,-0.5"/>
<text text-anchor="middle" x="74.13" y="-7.5" font-family="Helvetica,sans-Serif" font-size="10.00">UT_hash_table</text>
</a>
</g>
</g>
<!-- Node1&#45;&gt;Node2 -->
<g id="edge5" class="edge">
<title>Node1&#45;&gt;Node2</title>
<path fill="none" stroke="#9a32cd" stroke-dasharray="5,2" d="M46.46,-130.76C21.47,-116.8 -9.58,-93.23 3.13,-67 13.96,-44.68 38.47,-28.58 55.64,-19.52"/>
<polygon fill="#9a32cd" stroke="#9a32cd" points="44.83,-133.86 55.3,-135.46 48.11,-127.68 44.83,-133.86"/>
<text text-anchor="middle" x="11.13" y="-74.5" font-family="Helvetica,sans-Serif" font-size="10.00"> tail</text>
</g>
<!-- Node3 -->
<g id="node3" class="node">
<title>Node3</title>
<g id="a_node3"><a xlink:href="structUT__hash__bucket.html" target="_top" xlink:title="UT_hash_bucket">
<polygon fill="white" stroke="black" points="28.63,-67.5 28.63,-86.5 119.63,-86.5 119.63,-67.5 28.63,-67.5"/>
<text text-anchor="middle" x="74.13" y="-74.5" font-family="Helvetica,sans-Serif" font-size="10.00">UT_hash_bucket</text>
</a>
</g>
</g>
<!-- Node1&#45;&gt;Node3 -->
<g id="edge4" class="edge">
<title>Node1&#45;&gt;Node3</title>
<path fill="none" stroke="#9a32cd" stroke-dasharray="5,2" d="M74.13,-125.04C74.13,-112.47 74.13,-96.56 74.13,-86.84"/>
<polygon fill="#9a32cd" stroke="#9a32cd" points="70.63,-125.37 74.13,-135.37 77.63,-125.37 70.63,-125.37"/>
<text text-anchor="middle" x="94.13" y="-108" font-family="Helvetica,sans-Serif" font-size="10.00"> hh_head</text>
</g>
<!-- Node2&#45;&gt;Node1 -->
<g id="edge2" class="edge">
<title>Node2&#45;&gt;Node1</title>
<path fill="none" stroke="#9a32cd" stroke-dasharray="5,2" d="M100.83,-24.85C106.37,-28.58 111.83,-33 116.13,-38 125.35,-48.71 126.18,-53.19 129.13,-67 133.8,-88.83 132.23,-98.69 118.13,-116 111.5,-124.15 101.85,-130.66 93.27,-135.34"/>
<polygon fill="#9a32cd" stroke="#9a32cd" points="102.55,-21.8 92.19,-19.55 98.89,-27.77 102.55,-21.8"/>
<text text-anchor="middle" x="138.13" y="-74.5" font-family="Helvetica,sans-Serif" font-size="10.00"> tbl</text>
</g>
<!-- Node3&#45;&gt;Node2 -->
<g id="edge3" class="edge">
<title>Node3&#45;&gt;Node2</title>
<path fill="none" stroke="#9a32cd" stroke-dasharray="5,2" d="M74.13,-57.04C74.13,-44.67 74.13,-29.12 74.13,-19.63"/>
<polygon fill="#9a32cd" stroke="#9a32cd" points="70.63,-57.23 74.13,-67.23 77.63,-57.23 70.63,-57.23"/>
<text text-anchor="middle" x="93.13" y="-41" font-family="Helvetica,sans-Serif" font-size="10.00"> buckets</text>
</g>
</g>
</svg>
