<?xml version="1.0" encoding="UTF-8" standalone="no"?>
<!DOCTYPE svg PUBLIC "-//W3C//DTD SVG 1.1//EN"
 "http://www.w3.org/Graphics/SVG/1.1/DTD/svg11.dtd">
<!-- Generated by graphviz version 2.43.0 (0)
 -->
<!-- Title: check_segment Pages: 1 -->
<svg width="617pt" height="66pt"
 viewBox="0.00 0.00 617.00 66.00" xmlns="http://www.w3.org/2000/svg" xmlns:xlink="http://www.w3.org/1999/xlink">
<g id="graph0" class="graph" transform="scale(1 1) rotate(0) translate(4 62)">
<title>check_segment</title>
<polygon fill="white" stroke="transparent" points="-4,4 -4,-62 613,-62 613,4 -4,4"/>
<!-- Node1 -->
<g id="node1" class="node">
<title>Node1</title>
<polygon fill="#bfbfbf" stroke="black" points="0,-19.5 0,-38.5 86,-38.5 86,-19.5 0,-19.5"/>
<text text-anchor="middle" x="43" y="-26.5" font-family="Helvetica,sans-Serif" font-size="10.00">check_segment</text>
</g>
<!-- Node2 -->
<g id="node2" class="node">
<title>Node2</title>
<g id="a_node2"><a xlink:href="uri_8c.html#a9a39cbf2ed89a758ced3f9fecd125b50" target="_top" xlink:title="Writes a coap option from given string s to buf. ">
<polygon fill="white" stroke="black" points="122,-19.5 122,-38.5 236,-38.5 236,-19.5 122,-19.5"/>
<text text-anchor="middle" x="179" y="-26.5" font-family="Helvetica,sans-Serif" font-size="10.00">make_decoded_option</text>
</a>
</g>
</g>
<!-- Node1&#45;&gt;Node2 -->
<g id="edge1" class="edge">
<title>Node1&#45;&gt;Node2</title>
<path fill="none" stroke="midnightblue" d="M96.12,-29C104.56,-29 113.34,-29 121.87,-29"/>
<polygon fill="midnightblue" stroke="midnightblue" points="96.03,-25.5 86.03,-29 96.03,-32.5 96.03,-25.5"/>
</g>
<!-- Node3 -->
<g id="node3" class="node">
<title>Node3</title>
<g id="a_node3"><a xlink:href="uri_8c.html#a7765779604c7c1166e99179722d4bdd8" target="_top" xlink:title="write_option">
<polygon fill="white" stroke="black" points="272,-19.5 272,-38.5 341,-38.5 341,-19.5 272,-19.5"/>
<text text-anchor="middle" x="306.5" y="-26.5" font-family="Helvetica,sans-Serif" font-size="10.00">write_option</text>
</a>
</g>
</g>
<!-- Node2&#45;&gt;Node3 -->
<g id="edge2" class="edge">
<title>Node2&#45;&gt;Node3</title>
<path fill="none" stroke="midnightblue" d="M246.42,-29C255.18,-29 263.84,-29 271.72,-29"/>
<polygon fill="midnightblue" stroke="midnightblue" points="246.14,-25.5 236.14,-29 246.14,-32.5 246.14,-25.5"/>
</g>
<!-- Node4 -->
<g id="node4" class="node">
<title>Node4</title>
<g id="a_node4"><a xlink:href="group__uri__parse.html#ga4a01c4a81338c39d0a2fb1e3859a6fb0" target="_top" xlink:title="Splits the given URI path into segments. ">
<polygon fill="white" stroke="black" points="379.5,-38.5 379.5,-57.5 464.5,-57.5 464.5,-38.5 379.5,-38.5"/>
<text text-anchor="middle" x="422" y="-45.5" font-family="Helvetica,sans-Serif" font-size="10.00">coap_split_path</text>
</a>
</g>
</g>
<!-- Node3&#45;&gt;Node4 -->
<g id="edge3" class="edge">
<title>Node3&#45;&gt;Node4</title>
<path fill="none" stroke="midnightblue" d="M351.31,-36.33C360.45,-37.86 370.07,-39.47 379.14,-40.99"/>
<polygon fill="midnightblue" stroke="midnightblue" points="351.69,-32.85 341.25,-34.65 350.53,-39.75 351.69,-32.85"/>
</g>
<!-- Node6 -->
<g id="node6" class="node">
<title>Node6</title>
<g id="a_node6"><a xlink:href="group__uri__parse.html#ga522cc4dfe723c2a3537f35ee2389ef74" target="_top" xlink:title="Splits the given URI query into segments. ">
<polygon fill="white" stroke="black" points="377,-0.5 377,-19.5 467,-19.5 467,-0.5 377,-0.5"/>
<text text-anchor="middle" x="422" y="-7.5" font-family="Helvetica,sans-Serif" font-size="10.00">coap_split_query</text>
</a>
</g>
</g>
<!-- Node3&#45;&gt;Node6 -->
<g id="edge5" class="edge">
<title>Node3&#45;&gt;Node6</title>
<path fill="none" stroke="midnightblue" d="M351.18,-21.69C359.53,-20.29 368.28,-18.82 376.65,-17.42"/>
<polygon fill="midnightblue" stroke="midnightblue" points="350.53,-18.25 341.25,-23.35 351.69,-25.15 350.53,-18.25"/>
</g>
<!-- Node5 -->
<g id="node5" class="node">
<title>Node5</title>
<g id="a_node5"><a xlink:href="uri_8h.html#a04d042f5a81b4a13bf1cc7d94920ed87" target="_top" xlink:title="coap_uri_scheme_is\l_secure">
<polygon fill="white" stroke="black" points="503,-14 503,-44 609,-44 609,-14 503,-14"/>
<text text-anchor="start" x="511" y="-32" font-family="Helvetica,sans-Serif" font-size="10.00">coap_uri_scheme_is</text>
<text text-anchor="middle" x="556" y="-21" font-family="Helvetica,sans-Serif" font-size="10.00">_secure</text>
</a>
</g>
</g>
<!-- Node4&#45;&gt;Node5 -->
<g id="edge4" class="edge">
<title>Node4&#45;&gt;Node5</title>
<path fill="none" stroke="midnightblue" d="M474.92,-40.53C484.1,-39.21 493.65,-37.83 502.83,-36.51"/>
<polygon fill="midnightblue" stroke="midnightblue" points="474.16,-37.1 464.77,-41.99 475.16,-44.03 474.16,-37.1"/>
</g>
<!-- Node6&#45;&gt;Node5 -->
<g id="edge6" class="edge">
<title>Node6&#45;&gt;Node5</title>
<path fill="none" stroke="midnightblue" d="M477.4,-17.83C485.8,-19.04 494.45,-20.28 502.8,-21.49"/>
<polygon fill="midnightblue" stroke="midnightblue" points="477.72,-14.34 467.32,-16.38 476.72,-21.27 477.72,-14.34"/>
</g>
</g>
</svg>
