<?xml version="1.0" encoding="UTF-8" standalone="no"?>
<!DOCTYPE svg PUBLIC "-//W3C//DTD SVG 1.1//EN"
 "http://www.w3.org/Graphics/SVG/1.1/DTD/svg11.dtd">
<!-- Generated by graphviz version 2.43.0 (0)
 -->
<!-- Title: coap_split_path_impl Pages: 1 -->
<svg width="379pt" height="39pt"
 viewBox="0.00 0.00 379.00 39.00" xmlns="http://www.w3.org/2000/svg" xmlns:xlink="http://www.w3.org/1999/xlink">
<g id="graph0" class="graph" transform="scale(1 1) rotate(0) translate(4 35)">
<title>coap_split_path_impl</title>
<polygon fill="white" stroke="transparent" points="-4,4 -4,-35 375,-35 375,4 -4,4"/>
<!-- Node93 -->
<g id="node1" class="node">
<title>Node93</title>
<polygon fill="#bfbfbf" stroke="black" points="0,-6 0,-25 108,-25 108,-6 0,-6"/>
<text text-anchor="middle" x="54" y="-13" font-family="Helvetica,sans-Serif" font-size="10.00">coap_split_path_impl</text>
</g>
<!-- Node94 -->
<g id="node2" class="node">
<title>Node94</title>
<g id="a_node2"><a xlink:href="group__uri__parse.html#ga4a01c4a81338c39d0a2fb1e3859a6fb0" target="_top" xlink:title="Splits the given URI path into segments. ">
<polygon fill="white" stroke="black" points="144,-6 144,-25 229,-25 229,-6 144,-6"/>
<text text-anchor="middle" x="186.5" y="-13" font-family="Helvetica,sans-Serif" font-size="10.00">coap_split_path</text>
</a>
</g>
</g>
<!-- Node93&#45;&gt;Node94 -->
<g id="edge1" class="edge">
<title>Node93&#45;&gt;Node94</title>
<path fill="none" stroke="midnightblue" d="M118.18,-15.5C126.83,-15.5 135.53,-15.5 143.67,-15.5"/>
<polygon fill="midnightblue" stroke="midnightblue" points="118.08,-12 108.08,-15.5 118.08,-19 118.08,-12"/>
</g>
<!-- Node95 -->
<g id="node3" class="node">
<title>Node95</title>
<g id="a_node3"><a xlink:href="uri_8h.html#a04d042f5a81b4a13bf1cc7d94920ed87" target="_top" xlink:title="coap_uri_scheme_is\l_secure">
<polygon fill="white" stroke="black" points="265,-0.5 265,-30.5 371,-30.5 371,-0.5 265,-0.5"/>
<text text-anchor="start" x="273" y="-18.5" font-family="Helvetica,sans-Serif" font-size="10.00">coap_uri_scheme_is</text>
<text text-anchor="middle" x="318" y="-7.5" font-family="Helvetica,sans-Serif" font-size="10.00">_secure</text>
</a>
</g>
</g>
<!-- Node94&#45;&gt;Node95 -->
<g id="edge2" class="edge">
<title>Node94&#45;&gt;Node95</title>
<path fill="none" stroke="midnightblue" d="M239.3,-15.5C247.74,-15.5 256.49,-15.5 264.94,-15.5"/>
<polygon fill="midnightblue" stroke="midnightblue" points="239.19,-12 229.19,-15.5 239.19,-19 239.19,-12"/>
</g>
</g>
</svg>
