<?xml version="1.0" encoding="UTF-8" standalone="no"?>
<!DOCTYPE svg PUBLIC "-//W3C//DTD SVG 1.1//EN"
 "http://www.w3.org/Graphics/SVG/1.1/DTD/svg11.dtd">
<!-- Generated by graphviz version 2.43.0 (0)
 -->
<!-- Title: async.h Pages: 1 -->
<!--zoomable 431 -->
<svg id="main" version="1.1" xmlns="http://www.w3.org/2000/svg" xmlns:xlink="http://www.w3.org/1999/xlink" xml:space="preserve" onload="init(evt)">
<style type="text/css"><![CDATA[
.edge:hover path { stroke: red; }
.edge:hover polygon { stroke: red; fill: red; }
]]></style>
<script type="text/javascript"><![CDATA[
var edges = document.getElementsByTagName('g');
if (edges && edges.length) {
  for (var i=0;i<edges.length;i++) {
    if (edges[i].id.substr(0,4)=='edge') {
      edges[i].setAttribute('class','edge');
    }
  }
}
]]></script>
        <defs>
                <circle id="rim" cx="0" cy="0" r="7"/>
                <circle id="rim2" cx="0" cy="0" r="3.5"/>
                <g id="zoomPlus">
                        <use xlink:href="#rim" fill="#404040">
                                <set attributeName="fill" to="#808080" begin="zoomplus.mouseover" end="zoomplus.mouseout"/>
                        </use>
                        <path d="M-4,0h8M0,-4v8" fill="none" stroke="white" stroke-width="1.5" pointer-events="none"/>
                </g>
                <g id="zoomMin">
                        <use xlink:href="#rim" fill="#404040">
                                <set attributeName="fill" to="#808080" begin="zoomminus.mouseover" end="zoomminus.mouseout"/>
                        </use>
                        <path d="M-4,0h8" fill="none" stroke="white" stroke-width="1.5" pointer-events="none"/>
                </g>
                <g id="dirArrow">
                        <path fill="none" stroke="white" stroke-width="1.5" d="M0,-3.0v7 M-2.5,-0.5L0,-3.0L2.5,-0.5"/>
                </g>
               <g id="resetDef">
                       <use xlink:href="#rim2" fill="#404040">
                               <set attributeName="fill" to="#808080" begin="reset.mouseover" end="reset.mouseout"/>
                       </use>
               </g>
        </defs>

<script type="text/javascript">
var viewWidth = 1166;
var viewHeight = 431;
var sectionId = 'dynsection-0';
</script>
<script xlink:href="svgpan.js"/>
<svg id="graph" class="graph">
<g id="viewport">
<title>async.h</title>
<polygon fill="white" stroke="transparent" points="-4,4 -4,-427 1162,-427 1162,4 -4,4"/>
<!-- Node1 -->
<g id="node1" class="node">
<title>Node1</title>
<g id="a_node1"><a xlink:title="State management for asynchronous messages.">
<polygon fill="#bfbfbf" stroke="black" points="516.5,-403.5 516.5,-422.5 567.5,-422.5 567.5,-403.5 516.5,-403.5"/>
<text text-anchor="middle" x="542" y="-410.5" font-family="Helvetica,sans-Serif" font-size="10.00">async.h</text>
</a>
</g>
</g>
<!-- Node2 -->
<g id="node2" class="node">
<title>Node2</title>
<g id="a_node2"><a xlink:href="net_8h.html" target="_top" xlink:title=" ">
<polygon fill="white" stroke="black" points="477,-347.5 477,-366.5 545,-366.5 545,-347.5 477,-347.5"/>
<text text-anchor="middle" x="511" y="-354.5" font-family="Helvetica,sans-Serif" font-size="10.00">coap2/net.h</text>
</a>
</g>
</g>
<!-- Node1&#45;&gt;Node2 -->
<g id="edge1" class="edge">
<title>Node1&#45;&gt;Node2</title>
<path fill="none" stroke="midnightblue" d="M536.88,-403.08C532.59,-395.61 526.34,-384.72 521.06,-375.52"/>
<polygon fill="midnightblue" stroke="midnightblue" points="524.04,-373.68 516.02,-366.75 517.97,-377.17 524.04,-373.68"/>
</g>
<!-- Node3 -->
<g id="node3" class="node">
<title>Node3</title>
<g id="a_node3"><a xlink:title=" ">
<polygon fill="white" stroke="#bfbfbf" points="554,-168.5 554,-187.5 602,-187.5 602,-168.5 554,-168.5"/>
<text text-anchor="middle" x="578" y="-175.5" font-family="Helvetica,sans-Serif" font-size="10.00">stdlib.h</text>
</a>
</g>
</g>
<!-- Node2&#45;&gt;Node3 -->
<g id="edge2" class="edge">
<title>Node2&#45;&gt;Node3</title>
<path fill="none" stroke="midnightblue" d="M476.94,-356.24C442.3,-354.43 390.1,-345.64 364,-311 340.73,-280.12 338.45,-253.88 363,-224 413.35,-162.72 460.96,-203.47 543.88,-187.91"/>
<polygon fill="midnightblue" stroke="midnightblue" points="544.84,-191.28 553.9,-185.78 543.39,-184.43 544.84,-191.28"/>
</g>
<!-- Node4 -->
<g id="node4" class="node">
<title>Node4</title>
<g id="a_node4"><a xlink:title=" ">
<polygon fill="white" stroke="#bfbfbf" points="445.5,-0.5 445.5,-19.5 494.5,-19.5 494.5,-0.5 445.5,-0.5"/>
<text text-anchor="middle" x="470" y="-7.5" font-family="Helvetica,sans-Serif" font-size="10.00">string.h</text>
</a>
</g>
</g>
<!-- Node2&#45;&gt;Node4 -->
<g id="edge3" class="edge">
<title>Node2&#45;&gt;Node4</title>
<path fill="none" stroke="midnightblue" d="M476.75,-356.39C389.99,-356.74 164.23,-353.44 105,-311 76.88,-290.85 72,-275.1 72,-240.5 72,-240.5 72,-240.5 72,-121 72,-90.2 71.83,-75.09 96,-56 148.12,-14.84 352.94,-10.67 435.36,-10.7"/>
<polygon fill="midnightblue" stroke="midnightblue" points="435.47,-14.2 445.47,-10.72 435.48,-7.2 435.47,-14.2"/>
</g>
<!-- Node5 -->
<g id="node5" class="node">
<title>Node5</title>
<g id="a_node5"><a xlink:title=" ">
<polygon fill="white" stroke="#bfbfbf" points="602,-291.5 602,-310.5 664,-310.5 664,-291.5 602,-291.5"/>
<text text-anchor="middle" x="633" y="-298.5" font-family="Helvetica,sans-Serif" font-size="10.00">sys/time.h</text>
</a>
</g>
</g>
<!-- Node2&#45;&gt;Node5 -->
<g id="edge4" class="edge">
<title>Node2&#45;&gt;Node5</title>
<path fill="none" stroke="midnightblue" d="M530.33,-347.44C550.32,-338.6 581.74,-324.69 604.56,-314.59"/>
<polygon fill="midnightblue" stroke="midnightblue" points="606.03,-317.76 613.76,-310.52 603.2,-311.36 606.03,-317.76"/>
</g>
<!-- Node6 -->
<g id="node6" class="node">
<title>Node6</title>
<g id="a_node6"><a xlink:title=" ">
<polygon fill="white" stroke="#bfbfbf" points="0,-291.5 0,-310.5 44,-310.5 44,-291.5 0,-291.5"/>
<text text-anchor="middle" x="22" y="-298.5" font-family="Helvetica,sans-Serif" font-size="10.00">time.h</text>
</a>
</g>
</g>
<!-- Node2&#45;&gt;Node6 -->
<g id="edge5" class="edge">
<title>Node2&#45;&gt;Node6</title>
<path fill="none" stroke="midnightblue" d="M476.96,-354.32C401.21,-350.21 213.15,-337.95 58,-311 56.75,-310.78 55.48,-310.55 54.2,-310.29"/>
<polygon fill="midnightblue" stroke="midnightblue" points="54.88,-306.86 44.36,-308.13 53.37,-313.7 54.88,-306.86"/>
</g>
<!-- Node7 -->
<g id="node7" class="node">
<title>Node7</title>
<g id="a_node7"><a xlink:href="coap__io_8h.html" target="_top" xlink:title=" ">
<polygon fill="white" stroke="black" points="171.5,-230 171.5,-249 230.5,-249 230.5,-230 171.5,-230"/>
<text text-anchor="middle" x="201" y="-237" font-family="Helvetica,sans-Serif" font-size="10.00">coap_io.h</text>
</a>
</g>
</g>
<!-- Node2&#45;&gt;Node7 -->
<g id="edge6" class="edge">
<title>Node2&#45;&gt;Node7</title>
<path fill="none" stroke="midnightblue" d="M476.79,-352.46C435.1,-347.26 363.13,-335.4 306,-311 272.76,-296.8 238.84,-271.71 218.87,-255.6"/>
<polygon fill="midnightblue" stroke="midnightblue" points="220.92,-252.75 210.97,-249.11 216.47,-258.16 220.92,-252.75"/>
</g>
<!-- Node15 -->
<g id="node15" class="node">
<title>Node15</title>
<g id="a_node15"><a xlink:href="coap__dtls_8h.html" target="_top" xlink:title=" ">
<polygon fill="white" stroke="black" points="248.5,-230 248.5,-249 315.5,-249 315.5,-230 248.5,-230"/>
<text text-anchor="middle" x="282" y="-237" font-family="Helvetica,sans-Serif" font-size="10.00">coap_dtls.h</text>
</a>
</g>
</g>
<!-- Node2&#45;&gt;Node15 -->
<g id="edge16" class="edge">
<title>Node2&#45;&gt;Node15</title>
<path fill="none" stroke="midnightblue" d="M476.67,-354.67C437.88,-351.64 374.37,-341.9 330,-311 311.26,-297.95 297.68,-275.04 289.84,-258.88"/>
<polygon fill="midnightblue" stroke="midnightblue" points="292.86,-257.06 285.53,-249.41 286.49,-259.96 292.86,-257.06"/>
</g>
<!-- Node16 -->
<g id="node16" class="node">
<title>Node16</title>
<g id="a_node16"><a xlink:href="coap__time_8h.html" target="_top" xlink:title="Clock Handling.">
<polygon fill="white" stroke="black" points="436.5,-168.5 436.5,-187.5 535.5,-187.5 535.5,-168.5 436.5,-168.5"/>
<text text-anchor="middle" x="486" y="-175.5" font-family="Helvetica,sans-Serif" font-size="10.00">coap2/coap_time.h</text>
</a>
</g>
</g>
<!-- Node2&#45;&gt;Node16 -->
<g id="edge23" class="edge">
<title>Node2&#45;&gt;Node16</title>
<path fill="none" stroke="midnightblue" d="M523.78,-347.37C534.39,-339.36 548.73,-326.38 555,-311 558.36,-302.77 557.42,-299.55 555,-291 544.38,-253.51 517.26,-216.24 500.36,-195.55"/>
<polygon fill="midnightblue" stroke="midnightblue" points="502.92,-193.16 493.82,-187.75 497.56,-197.66 502.92,-193.16"/>
</g>
<!-- Node18 -->
<g id="node18" class="node">
<title>Node18</title>
<g id="a_node18"><a xlink:href="coap__event_8h.html" target="_top" xlink:title=" ">
<polygon fill="white" stroke="black" points="113.5,-291.5 113.5,-310.5 188.5,-310.5 188.5,-291.5 113.5,-291.5"/>
<text text-anchor="middle" x="151" y="-298.5" font-family="Helvetica,sans-Serif" font-size="10.00">coap_event.h</text>
</a>
</g>
</g>
<!-- Node2&#45;&gt;Node18 -->
<g id="edge21" class="edge">
<title>Node2&#45;&gt;Node18</title>
<path fill="none" stroke="midnightblue" d="M476.81,-350.87C412.27,-341.19 272.39,-320.21 198.67,-309.15"/>
<polygon fill="midnightblue" stroke="midnightblue" points="199.13,-305.68 188.72,-307.66 198.09,-312.6 199.13,-305.68"/>
</g>
<!-- Node19 -->
<g id="node19" class="node">
<title>Node19</title>
<g id="a_node19"><a xlink:href="option_8h.html" target="_top" xlink:title="Helpers for handling options in CoAP PDUs.">
<polygon fill="white" stroke="black" points="896.5,-112.5 896.5,-131.5 947.5,-131.5 947.5,-112.5 896.5,-112.5"/>
<text text-anchor="middle" x="922" y="-119.5" font-family="Helvetica,sans-Serif" font-size="10.00">option.h</text>
</a>
</g>
</g>
<!-- Node2&#45;&gt;Node19 -->
<g id="edge24" class="edge">
<title>Node2&#45;&gt;Node19</title>
<path fill="none" stroke="midnightblue" d="M545.02,-354.91C650.15,-350.72 966.25,-331.86 1025,-255 1058.25,-211.51 986.83,-160.57 946.76,-136.68"/>
<polygon fill="midnightblue" stroke="midnightblue" points="948.43,-133.6 938.02,-131.6 944.91,-139.65 948.43,-133.6"/>
</g>
<!-- Node21 -->
<g id="node21" class="node">
<title>Node21</title>
<g id="a_node21"><a xlink:href="pdu_8h.html" target="_top" xlink:title="Pre&#45;defined constants that reflect defaults for CoAP.">
<polygon fill="white" stroke="black" points="804.5,-168.5 804.5,-187.5 845.5,-187.5 845.5,-168.5 804.5,-168.5"/>
<text text-anchor="middle" x="825" y="-175.5" font-family="Helvetica,sans-Serif" font-size="10.00">pdu.h</text>
</a>
</g>
</g>
<!-- Node2&#45;&gt;Node21 -->
<g id="edge27" class="edge">
<title>Node2&#45;&gt;Node21</title>
<path fill="none" stroke="midnightblue" d="M545.22,-351.03C579.19,-345.08 631.99,-333.04 673,-311 731.04,-279.82 786.02,-222.99 810.97,-195.19"/>
<polygon fill="midnightblue" stroke="midnightblue" points="813.72,-197.36 817.73,-187.55 808.48,-192.73 813.72,-197.36"/>
</g>
<!-- Node23 -->
<g id="node23" class="node">
<title>Node23</title>
<g id="a_node23"><a xlink:href="coap__prng_8h.html" target="_top" xlink:title="Pseudo Random Numbers.">
<polygon fill="white" stroke="black" points="476,-291.5 476,-310.5 546,-310.5 546,-291.5 476,-291.5"/>
<text text-anchor="middle" x="511" y="-298.5" font-family="Helvetica,sans-Serif" font-size="10.00">coap_prng.h</text>
</a>
</g>
</g>
<!-- Node2&#45;&gt;Node23 -->
<g id="edge33" class="edge">
<title>Node2&#45;&gt;Node23</title>
<path fill="none" stroke="midnightblue" d="M511,-347.08C511,-340.01 511,-329.86 511,-320.99"/>
<polygon fill="midnightblue" stroke="midnightblue" points="514.5,-320.75 511,-310.75 507.5,-320.75 514.5,-320.75"/>
</g>
<!-- Node24 -->
<g id="node24" class="node">
<title>Node24</title>
<g id="a_node24"><a xlink:href="coap__session_8h.html" target="_top" xlink:title="Defines the application visible session information.">
<polygon fill="white" stroke="black" points="372.5,-291.5 372.5,-310.5 457.5,-310.5 457.5,-291.5 372.5,-291.5"/>
<text text-anchor="middle" x="415" y="-298.5" font-family="Helvetica,sans-Serif" font-size="10.00">coap_session.h</text>
</a>
</g>
</g>
<!-- Node2&#45;&gt;Node24 -->
<g id="edge34" class="edge">
<title>Node2&#45;&gt;Node24</title>
<path fill="none" stroke="midnightblue" d="M495.58,-347.32C480.46,-338.82 457.18,-325.73 439.53,-315.8"/>
<polygon fill="midnightblue" stroke="midnightblue" points="440.82,-312.51 430.39,-310.65 437.39,-318.61 440.82,-312.51"/>
</g>
<!-- Node28 -->
<g id="node28" class="node">
<title>Node28</title>
<g id="a_node28"><a xlink:href="resource_8h.html" target="_top" xlink:title="Generic resource handling.">
<polygon fill="white" stroke="black" points="748,-291.5 748,-310.5 810,-310.5 810,-291.5 748,-291.5"/>
<text text-anchor="middle" x="779" y="-298.5" font-family="Helvetica,sans-Serif" font-size="10.00">resource.h</text>
</a>
</g>
</g>
<!-- Node2&#45;&gt;Node28 -->
<g id="edge45" class="edge">
<title>Node2&#45;&gt;Node28</title>
<path fill="none" stroke="midnightblue" d="M545.04,-348.15C594.29,-337.73 684.96,-319.47 737.87,-309.32"/>
<polygon fill="midnightblue" stroke="midnightblue" points="738.76,-312.71 747.93,-307.4 737.45,-305.84 738.76,-312.71"/>
</g>
<!-- Node8 -->
<g id="node8" class="node">
<title>Node8</title>
<g id="a_node8"><a xlink:title=" ">
<polygon fill="white" stroke="#bfbfbf" points="204,-112.5 204,-131.5 272,-131.5 272,-112.5 204,-112.5"/>
<text text-anchor="middle" x="238" y="-119.5" font-family="Helvetica,sans-Serif" font-size="10.00">sys/types.h</text>
</a>
</g>
</g>
<!-- Node7&#45;&gt;Node8 -->
<g id="edge7" class="edge">
<title>Node7&#45;&gt;Node8</title>
<path fill="none" stroke="midnightblue" d="M203.78,-229.82C209.75,-211.17 223.92,-166.94 232.03,-141.63"/>
<polygon fill="midnightblue" stroke="midnightblue" points="235.47,-142.37 235.19,-131.78 228.8,-140.24 235.47,-142.37"/>
</g>
<!-- Node9 -->
<g id="node9" class="node">
<title>Node9</title>
<g id="a_node9"><a xlink:href="address_8h.html" target="_top" xlink:title="Representation of network addresses.">
<polygon fill="white" stroke="black" points="260.5,-168.5 260.5,-187.5 349.5,-187.5 349.5,-168.5 260.5,-168.5"/>
<text text-anchor="middle" x="305" y="-175.5" font-family="Helvetica,sans-Serif" font-size="10.00">coap2/address.h</text>
</a>
</g>
</g>
<!-- Node7&#45;&gt;Node9 -->
<g id="edge8" class="edge">
<title>Node7&#45;&gt;Node9</title>
<path fill="none" stroke="midnightblue" d="M215.9,-229.98C232.97,-220.21 261.16,-204.08 281.26,-192.58"/>
<polygon fill="midnightblue" stroke="midnightblue" points="283.19,-195.51 290.13,-187.51 279.71,-189.44 283.19,-195.51"/>
</g>
<!-- Node9&#45;&gt;Node4 -->
<g id="edge11" class="edge">
<title>Node9&#45;&gt;Node4</title>
<path fill="none" stroke="midnightblue" d="M315.33,-168.42C325.24,-159.85 340.24,-145.99 351,-132 374.66,-101.24 366.83,-83.71 394,-56 407.16,-42.58 425.14,-31.7 440.3,-24"/>
<polygon fill="midnightblue" stroke="midnightblue" points="441.85,-27.13 449.32,-19.62 438.79,-20.84 441.85,-27.13"/>
</g>
<!-- Node9&#45;&gt;Node8 -->
<g id="edge12" class="edge">
<title>Node9&#45;&gt;Node8</title>
<path fill="none" stroke="midnightblue" d="M294.24,-168.32C284.23,-160.26 269.11,-148.08 257.07,-138.37"/>
<polygon fill="midnightblue" stroke="midnightblue" points="258.94,-135.38 248.96,-131.83 254.55,-140.83 258.94,-135.38"/>
</g>
<!-- Node10 -->
<g id="node10" class="node">
<title>Node10</title>
<g id="a_node10"><a xlink:title=" ">
<polygon fill="white" stroke="#bfbfbf" points="290,-112.5 290,-131.5 342,-131.5 342,-112.5 290,-112.5"/>
<text text-anchor="middle" x="316" y="-119.5" font-family="Helvetica,sans-Serif" font-size="10.00">assert.h</text>
</a>
</g>
</g>
<!-- Node9&#45;&gt;Node10 -->
<g id="edge9" class="edge">
<title>Node9&#45;&gt;Node10</title>
<path fill="none" stroke="midnightblue" d="M306.82,-168.08C308.27,-160.93 310.37,-150.64 312.19,-141.69"/>
<polygon fill="midnightblue" stroke="midnightblue" points="315.65,-142.25 314.22,-131.75 308.79,-140.85 315.65,-142.25"/>
</g>
<!-- Node11 -->
<g id="node11" class="node">
<title>Node11</title>
<g id="a_node11"><a xlink:title=" ">
<polygon fill="white" stroke="#bfbfbf" points="797.5,-0.5 797.5,-19.5 846.5,-19.5 846.5,-0.5 797.5,-0.5"/>
<text text-anchor="middle" x="822" y="-7.5" font-family="Helvetica,sans-Serif" font-size="10.00">stdint.h</text>
</a>
</g>
</g>
<!-- Node9&#45;&gt;Node11 -->
<g id="edge10" class="edge">
<title>Node9&#45;&gt;Node11</title>
<path fill="none" stroke="midnightblue" d="M324.06,-168.46C372.37,-147.06 503.94,-90.41 618,-56 676.45,-38.37 746.25,-24.46 787.19,-17.01"/>
<polygon fill="midnightblue" stroke="midnightblue" points="787.97,-20.43 797.2,-15.21 786.74,-13.54 787.97,-20.43"/>
</g>
<!-- Node12 -->
<g id="node12" class="node">
<title>Node12</title>
<g id="a_node12"><a xlink:href="libcoap_8h.html" target="_top" xlink:title=" ">
<polygon fill="white" stroke="black" points="100.5,-112.5 100.5,-131.5 185.5,-131.5 185.5,-112.5 100.5,-112.5"/>
<text text-anchor="middle" x="143" y="-119.5" font-family="Helvetica,sans-Serif" font-size="10.00">coap2/libcoap.h</text>
</a>
</g>
</g>
<!-- Node9&#45;&gt;Node12 -->
<g id="edge13" class="edge">
<title>Node9&#45;&gt;Node12</title>
<path fill="none" stroke="midnightblue" d="M279.33,-168.44C252.08,-159.36 208.82,-144.94 178.35,-134.78"/>
<polygon fill="midnightblue" stroke="midnightblue" points="179.14,-131.36 168.55,-131.52 176.93,-138 179.14,-131.36"/>
</g>
<!-- Node13 -->
<g id="node13" class="node">
<title>Node13</title>
<g id="a_node13"><a xlink:title=" ">
<polygon fill="white" stroke="#bfbfbf" points="105.5,-56.5 105.5,-75.5 170.5,-75.5 170.5,-56.5 105.5,-56.5"/>
<text text-anchor="middle" x="138" y="-63.5" font-family="Helvetica,sans-Serif" font-size="10.00">netinet/in.h</text>
</a>
</g>
</g>
<!-- Node12&#45;&gt;Node13 -->
<g id="edge14" class="edge">
<title>Node12&#45;&gt;Node13</title>
<path fill="none" stroke="midnightblue" d="M142.17,-112.08C141.52,-105.01 140.58,-94.86 139.76,-85.99"/>
<polygon fill="midnightblue" stroke="midnightblue" points="143.22,-85.39 138.81,-75.75 136.25,-86.03 143.22,-85.39"/>
</g>
<!-- Node14 -->
<g id="node14" class="node">
<title>Node14</title>
<g id="a_node14"><a xlink:title=" ">
<polygon fill="white" stroke="#bfbfbf" points="188.5,-56.5 188.5,-75.5 261.5,-75.5 261.5,-56.5 188.5,-56.5"/>
<text text-anchor="middle" x="225" y="-63.5" font-family="Helvetica,sans-Serif" font-size="10.00">sys/socket.h</text>
</a>
</g>
</g>
<!-- Node12&#45;&gt;Node14 -->
<g id="edge15" class="edge">
<title>Node12&#45;&gt;Node14</title>
<path fill="none" stroke="midnightblue" d="M156.17,-112.32C168.85,-103.98 188.23,-91.21 203.21,-81.35"/>
<polygon fill="midnightblue" stroke="midnightblue" points="205.43,-84.08 211.86,-75.65 201.58,-78.23 205.43,-84.08"/>
</g>
<!-- Node15&#45;&gt;Node16 -->
<g id="edge17" class="edge">
<title>Node15&#45;&gt;Node16</title>
<path fill="none" stroke="midnightblue" d="M310.16,-229.93C316.67,-227.97 323.57,-225.9 330,-224 369.52,-212.33 414.77,-199.32 446.32,-190.3"/>
<polygon fill="midnightblue" stroke="midnightblue" points="447.41,-193.63 456.06,-187.52 445.48,-186.9 447.41,-193.63"/>
</g>
<!-- Node17 -->
<g id="node17" class="node">
<title>Node17</title>
<g id="a_node17"><a xlink:href="str_8h.html" target="_top" xlink:title=" ">
<polygon fill="white" stroke="black" points="667.5,-56.5 667.5,-75.5 732.5,-75.5 732.5,-56.5 667.5,-56.5"/>
<text text-anchor="middle" x="700" y="-63.5" font-family="Helvetica,sans-Serif" font-size="10.00">coap2/str.h</text>
</a>
</g>
</g>
<!-- Node15&#45;&gt;Node17 -->
<g id="edge19" class="edge">
<title>Node15&#45;&gt;Node17</title>
<path fill="none" stroke="midnightblue" d="M298.41,-229.95C325.18,-216.14 380.09,-188.41 428,-168 511.63,-132.37 612.53,-96.78 664.78,-78.88"/>
<polygon fill="midnightblue" stroke="midnightblue" points="666.23,-82.09 674.56,-75.55 663.97,-75.46 666.23,-82.09"/>
</g>
<!-- Node16&#45;&gt;Node11 -->
<g id="edge18" class="edge">
<title>Node16&#45;&gt;Node11</title>
<path fill="none" stroke="midnightblue" d="M495.77,-168.32C520.98,-146.34 591.02,-87.99 659,-56 701.13,-36.18 753.62,-23.64 787.46,-16.98"/>
<polygon fill="midnightblue" stroke="midnightblue" points="788.16,-20.41 797.33,-15.09 786.85,-13.53 788.16,-20.41"/>
</g>
<!-- Node17&#45;&gt;Node4 -->
<g id="edge20" class="edge">
<title>Node17&#45;&gt;Node4</title>
<path fill="none" stroke="midnightblue" d="M667.05,-57.26C623.92,-47.14 548.69,-29.47 504.71,-19.15"/>
<polygon fill="midnightblue" stroke="midnightblue" points="505.3,-15.69 494.77,-16.82 503.7,-22.51 505.3,-15.69"/>
</g>
<!-- Node18&#45;&gt;Node12 -->
<g id="edge22" class="edge">
<title>Node18&#45;&gt;Node12</title>
<path fill="none" stroke="midnightblue" d="M150.61,-291.46C149.39,-264.43 145.59,-180.24 143.86,-142.11"/>
<polygon fill="midnightblue" stroke="midnightblue" points="147.35,-141.7 143.4,-131.87 140.36,-142.02 147.35,-141.7"/>
</g>
<!-- Node20 -->
<g id="node20" class="node">
<title>Node20</title>
<g id="a_node20"><a xlink:href="bits_8h.html" target="_top" xlink:title="Bit vector manipulation.">
<polygon fill="white" stroke="black" points="899.5,-56.5 899.5,-75.5 940.5,-75.5 940.5,-56.5 899.5,-56.5"/>
<text text-anchor="middle" x="920" y="-63.5" font-family="Helvetica,sans-Serif" font-size="10.00">bits.h</text>
</a>
</g>
</g>
<!-- Node19&#45;&gt;Node20 -->
<g id="edge25" class="edge">
<title>Node19&#45;&gt;Node20</title>
<path fill="none" stroke="midnightblue" d="M921.67,-112.08C921.41,-105.01 921.03,-94.86 920.7,-85.99"/>
<polygon fill="midnightblue" stroke="midnightblue" points="924.19,-85.61 920.32,-75.75 917.2,-85.87 924.19,-85.61"/>
</g>
<!-- Node20&#45;&gt;Node11 -->
<g id="edge26" class="edge">
<title>Node20&#45;&gt;Node11</title>
<path fill="none" stroke="midnightblue" d="M904.25,-56.32C888.68,-47.74 864.62,-34.49 846.54,-24.52"/>
<polygon fill="midnightblue" stroke="midnightblue" points="848.15,-21.42 837.71,-19.65 844.78,-27.55 848.15,-21.42"/>
</g>
<!-- Node21&#45;&gt;Node11 -->
<g id="edge32" class="edge">
<title>Node21&#45;&gt;Node11</title>
<path fill="none" stroke="midnightblue" d="M831.37,-168.23C837.26,-159.53 845.61,-145.57 849,-132 858.14,-95.44 842.15,-52.29 831.13,-28.66"/>
<polygon fill="midnightblue" stroke="midnightblue" points="834.2,-26.98 826.66,-19.54 827.91,-30.06 834.2,-26.98"/>
</g>
<!-- Node21&#45;&gt;Node19 -->
<g id="edge31" class="edge">
<title>Node21&#45;&gt;Node19</title>
<path fill="none" stroke="midnightblue" d="M840.58,-168.32C856,-159.74 879.81,-146.49 897.71,-136.52"/>
<polygon fill="midnightblue" stroke="midnightblue" points="899.42,-139.58 906.45,-131.65 896.01,-133.46 899.42,-139.58"/>
</g>
<!-- Node22 -->
<g id="node22" class="node">
<title>Node22</title>
<g id="a_node22"><a xlink:href="uri_8h.html" target="_top" xlink:title=" ">
<polygon fill="white" stroke="black" points="804.5,-112.5 804.5,-131.5 839.5,-131.5 839.5,-112.5 804.5,-112.5"/>
<text text-anchor="middle" x="822" y="-119.5" font-family="Helvetica,sans-Serif" font-size="10.00">uri.h</text>
</a>
</g>
</g>
<!-- Node21&#45;&gt;Node22 -->
<g id="edge28" class="edge">
<title>Node21&#45;&gt;Node22</title>
<path fill="none" stroke="midnightblue" d="M824.5,-168.08C824.11,-161.01 823.55,-150.86 823.05,-141.99"/>
<polygon fill="midnightblue" stroke="midnightblue" points="826.54,-141.54 822.49,-131.75 819.55,-141.93 826.54,-141.54"/>
</g>
<!-- Node22&#45;&gt;Node11 -->
<g id="edge29" class="edge">
<title>Node22&#45;&gt;Node11</title>
<path fill="none" stroke="midnightblue" d="M822,-112.37C822,-94.62 822,-53.67 822,-29.6"/>
<polygon fill="midnightblue" stroke="midnightblue" points="825.5,-29.59 822,-19.59 818.5,-29.59 825.5,-29.59"/>
</g>
<!-- Node22&#45;&gt;Node17 -->
<g id="edge30" class="edge">
<title>Node22&#45;&gt;Node17</title>
<path fill="none" stroke="midnightblue" d="M804.26,-113.15C784.48,-104.39 752.21,-90.11 728.8,-79.75"/>
<polygon fill="midnightblue" stroke="midnightblue" points="729.94,-76.42 719.37,-75.58 727.1,-82.82 729.94,-76.42"/>
</g>
<!-- Node24&#45;&gt;Node7 -->
<g id="edge36" class="edge">
<title>Node24&#45;&gt;Node7</title>
<path fill="none" stroke="midnightblue" d="M377.13,-291.47C341.47,-283.15 286.7,-269.64 240,-255 237.44,-254.2 234.8,-253.32 232.16,-252.41"/>
<polygon fill="midnightblue" stroke="midnightblue" points="233.32,-249.11 222.73,-249.03 230.96,-255.7 233.32,-249.11"/>
</g>
<!-- Node24&#45;&gt;Node15 -->
<g id="edge44" class="edge">
<title>Node24&#45;&gt;Node15</title>
<path fill="none" stroke="midnightblue" d="M395.94,-291.48C373.53,-281.45 336.09,-264.7 310.29,-253.15"/>
<polygon fill="midnightblue" stroke="midnightblue" points="311.58,-249.9 301.02,-249.01 308.72,-256.29 311.58,-249.9"/>
</g>
<!-- Node24&#45;&gt;Node16 -->
<g id="edge37" class="edge">
<title>Node24&#45;&gt;Node16</title>
<path fill="none" stroke="midnightblue" d="M439.4,-291.4C455.46,-284.32 475.26,-272.56 485,-255 494.77,-237.37 493.24,-213.72 490.41,-197.51"/>
<polygon fill="midnightblue" stroke="midnightblue" points="493.83,-196.73 488.37,-187.65 486.97,-198.15 493.83,-196.73"/>
</g>
<!-- Node24&#45;&gt;Node21 -->
<g id="edge38" class="edge">
<title>Node24&#45;&gt;Node21</title>
<path fill="none" stroke="midnightblue" d="M457.75,-292.49C527.44,-280.21 658.28,-257.01 663,-255 684.68,-245.78 685.25,-235.15 706,-224 734.6,-208.63 769.59,-196.07 794.21,-188.17"/>
<polygon fill="midnightblue" stroke="midnightblue" points="795.58,-191.41 804.07,-185.07 793.48,-184.73 795.58,-191.41"/>
</g>
<!-- Node25 -->
<g id="node25" class="node">
<title>Node25</title>
<g id="a_node25"><a xlink:href="coap__forward__decls_8h.html" target="_top" xlink:title="COAP forward definitions.">
<polygon fill="white" stroke="black" points="372,-224.5 372,-254.5 476,-254.5 476,-224.5 372,-224.5"/>
<text text-anchor="start" x="380" y="-242.5" font-family="Helvetica,sans-Serif" font-size="10.00">coap2/coap_forward</text>
<text text-anchor="middle" x="424" y="-231.5" font-family="Helvetica,sans-Serif" font-size="10.00">_decls.h</text>
</a>
</g>
</g>
<!-- Node24&#45;&gt;Node25 -->
<g id="edge35" class="edge">
<title>Node24&#45;&gt;Node25</title>
<path fill="none" stroke="midnightblue" d="M416.29,-291.48C417.35,-284.47 418.9,-274.19 420.34,-264.7"/>
<polygon fill="midnightblue" stroke="midnightblue" points="423.84,-264.93 421.88,-254.52 416.92,-263.89 423.84,-264.93"/>
</g>
<!-- Node26 -->
<g id="node26" class="node">
<title>Node26</title>
<g id="a_node26"><a xlink:href="uthash_8h.html" target="_top" xlink:title=" ">
<polygon fill="white" stroke="black" points="570.5,-230 570.5,-249 653.5,-249 653.5,-230 570.5,-230"/>
<text text-anchor="middle" x="612" y="-237" font-family="Helvetica,sans-Serif" font-size="10.00">coap2/uthash.h</text>
</a>
</g>
</g>
<!-- Node24&#45;&gt;Node26 -->
<g id="edge39" class="edge">
<title>Node24&#45;&gt;Node26</title>
<path fill="none" stroke="midnightblue" d="M443.23,-291.48C477.6,-281.09 535.81,-263.51 574.08,-251.95"/>
<polygon fill="midnightblue" stroke="midnightblue" points="575.27,-255.25 583.83,-249.01 573.24,-248.55 575.27,-255.25"/>
</g>
<!-- Node26&#45;&gt;Node3 -->
<g id="edge42" class="edge">
<title>Node26&#45;&gt;Node3</title>
<path fill="none" stroke="midnightblue" d="M607.13,-229.98C602.13,-221.23 594.21,-207.37 587.89,-196.31"/>
<polygon fill="midnightblue" stroke="midnightblue" points="590.86,-194.46 582.86,-187.51 584.78,-197.93 590.86,-194.46"/>
</g>
<!-- Node26&#45;&gt;Node4 -->
<g id="edge40" class="edge">
<title>Node26&#45;&gt;Node4</title>
<path fill="none" stroke="midnightblue" d="M613.75,-229.88C616.13,-216.22 619.21,-188.97 611,-168 586.25,-104.74 523.38,-50.75 490.59,-25.79"/>
<polygon fill="midnightblue" stroke="midnightblue" points="492.68,-22.98 482.57,-19.81 488.5,-28.6 492.68,-22.98"/>
</g>
<!-- Node26&#45;&gt;Node11 -->
<g id="edge43" class="edge">
<title>Node26&#45;&gt;Node11</title>
<path fill="none" stroke="midnightblue" d="M641.57,-229.93C664.77,-222.03 696.75,-208.41 719,-188 769.59,-141.59 802.46,-64.48 815.56,-29.4"/>
<polygon fill="midnightblue" stroke="midnightblue" points="819.01,-30.17 819.12,-19.58 812.42,-27.79 819.01,-30.17"/>
</g>
<!-- Node27 -->
<g id="node27" class="node">
<title>Node27</title>
<g id="a_node27"><a xlink:title=" ">
<polygon fill="white" stroke="#bfbfbf" points="658,-168.5 658,-187.5 710,-187.5 710,-168.5 658,-168.5"/>
<text text-anchor="middle" x="684" y="-175.5" font-family="Helvetica,sans-Serif" font-size="10.00">stddef.h</text>
</a>
</g>
</g>
<!-- Node26&#45;&gt;Node27 -->
<g id="edge41" class="edge">
<title>Node26&#45;&gt;Node27</title>
<path fill="none" stroke="midnightblue" d="M622.32,-229.98C633.65,-220.61 652.07,-205.38 665.84,-194.01"/>
<polygon fill="midnightblue" stroke="midnightblue" points="668.22,-196.58 673.7,-187.51 663.77,-191.18 668.22,-196.58"/>
</g>
<!-- Node28&#45;&gt;Node1 -->
<g id="edge47" class="edge">
<title>Node28&#45;&gt;Node1</title>
<path fill="none" stroke="midnightblue" d="M760.49,-310.59C719.12,-329.79 618.98,-376.27 569.96,-399.02"/>
<polygon fill="midnightblue" stroke="midnightblue" points="568.19,-395.98 560.6,-403.37 571.14,-402.33 568.19,-395.98"/>
</g>
<!-- Node28&#45;&gt;Node2 -->
<g id="edge56" class="edge">
<title>Node28&#45;&gt;Node2</title>
<path fill="none" stroke="midnightblue" d="M747.98,-309.21C700.41,-319.32 609.6,-337.63 555.18,-348.09"/>
<polygon fill="midnightblue" stroke="midnightblue" points="554.3,-344.7 545.14,-350.01 555.62,-351.57 554.3,-344.7"/>
</g>
<!-- Node28&#45;&gt;Node17 -->
<g id="edge54" class="edge">
<title>Node28&#45;&gt;Node17</title>
<path fill="none" stroke="midnightblue" d="M776.09,-291.43C764.63,-257.61 722.36,-132.95 706.27,-85.5"/>
<polygon fill="midnightblue" stroke="midnightblue" points="709.54,-84.24 703.02,-75.9 702.91,-86.49 709.54,-84.24"/>
</g>
<!-- Node28&#45;&gt;Node21 -->
<g id="edge55" class="edge">
<title>Node28&#45;&gt;Node21</title>
<path fill="none" stroke="midnightblue" d="M782.31,-291.3C789.77,-271.68 808.03,-223.64 818.08,-197.19"/>
<polygon fill="midnightblue" stroke="midnightblue" points="821.44,-198.21 821.72,-187.62 814.9,-195.73 821.44,-198.21"/>
</g>
<!-- Node28&#45;&gt;Node26 -->
<g id="edge46" class="edge">
<title>Node28&#45;&gt;Node26</title>
<path fill="none" stroke="midnightblue" d="M755.07,-291.48C726.3,-281.22 677.84,-263.96 645.4,-252.4"/>
<polygon fill="midnightblue" stroke="midnightblue" points="646.48,-249.07 635.88,-249.01 644.13,-255.66 646.48,-249.07"/>
</g>
<!-- Node29 -->
<g id="node29" class="node">
<title>Node29</title>
<g id="a_node29"><a xlink:href="block_8h.html" target="_top" xlink:title=" ">
<polygon fill="white" stroke="black" points="824.5,-230 824.5,-249 901.5,-249 901.5,-230 824.5,-230"/>
<text text-anchor="middle" x="863" y="-237" font-family="Helvetica,sans-Serif" font-size="10.00">coap2/block.h</text>
</a>
</g>
</g>
<!-- Node28&#45;&gt;Node29 -->
<g id="edge48" class="edge">
<title>Node28&#45;&gt;Node29</title>
<path fill="none" stroke="midnightblue" d="M791.04,-291.48C804.51,-281.93 826.57,-266.31 842.72,-254.87"/>
<polygon fill="midnightblue" stroke="midnightblue" points="844.85,-257.65 850.99,-249.01 840.8,-251.93 844.85,-257.65"/>
</g>
<!-- Node32 -->
<g id="node32" class="node">
<title>Node32</title>
<g id="a_node32"><a xlink:href="subscribe_8h.html" target="_top" xlink:title="Defines the application visible subscribe information.">
<polygon fill="white" stroke="black" points="920,-230 920,-249 1016,-249 1016,-230 920,-230"/>
<text text-anchor="middle" x="968" y="-237" font-family="Helvetica,sans-Serif" font-size="10.00">coap2/subscribe.h</text>
</a>
</g>
</g>
<!-- Node28&#45;&gt;Node32 -->
<g id="edge57" class="edge">
<title>Node28&#45;&gt;Node32</title>
<path fill="none" stroke="midnightblue" d="M806.08,-291.48C838.92,-281.14 894.43,-263.66 931.15,-252.1"/>
<polygon fill="midnightblue" stroke="midnightblue" points="932.48,-255.35 940.97,-249.01 930.38,-248.67 932.48,-255.35"/>
</g>
<!-- Node29&#45;&gt;Node19 -->
<g id="edge52" class="edge">
<title>Node29&#45;&gt;Node19</title>
<path fill="none" stroke="midnightblue" d="M867.43,-229.82C877.04,-211.01 899.96,-166.15 912.83,-140.96"/>
<polygon fill="midnightblue" stroke="midnightblue" points="916.08,-142.28 917.51,-131.78 909.85,-139.1 916.08,-142.28"/>
</g>
<!-- Node29&#45;&gt;Node21 -->
<g id="edge53" class="edge">
<title>Node29&#45;&gt;Node21</title>
<path fill="none" stroke="midnightblue" d="M857.56,-229.98C851.91,-221.14 842.94,-207.09 835.84,-195.98"/>
<polygon fill="midnightblue" stroke="midnightblue" points="838.77,-194.05 830.43,-187.51 832.87,-197.82 838.77,-194.05"/>
</g>
<!-- Node30 -->
<g id="node30" class="node">
<title>Node30</title>
<g id="a_node30"><a xlink:href="encode_8h.html" target="_top" xlink:title=" ">
<polygon fill="white" stroke="black" points="1072,-168.5 1072,-187.5 1158,-187.5 1158,-168.5 1072,-168.5"/>
<text text-anchor="middle" x="1115" y="-175.5" font-family="Helvetica,sans-Serif" font-size="10.00">coap2/encode.h</text>
</a>
</g>
</g>
<!-- Node29&#45;&gt;Node30 -->
<g id="edge49" class="edge">
<title>Node29&#45;&gt;Node30</title>
<path fill="none" stroke="midnightblue" d="M890.06,-229.93C896.87,-227.89 904.18,-225.78 911,-224 961.9,-210.72 1020.61,-198.04 1061.94,-189.55"/>
<polygon fill="midnightblue" stroke="midnightblue" points="1062.69,-192.97 1071.79,-187.53 1061.29,-186.11 1062.69,-192.97"/>
</g>
<!-- Node30&#45;&gt;Node11 -->
<g id="edge51" class="edge">
<title>Node30&#45;&gt;Node11</title>
<path fill="none" stroke="midnightblue" d="M1105.28,-168.24C1080.82,-146.57 1014.1,-89.81 950,-56 920.02,-40.19 883.3,-27.93 856.89,-20.23"/>
<polygon fill="midnightblue" stroke="midnightblue" points="857.53,-16.78 846.96,-17.41 855.62,-23.51 857.53,-16.78"/>
</g>
<!-- Node31 -->
<g id="node31" class="node">
<title>Node31</title>
<g id="a_node31"><a xlink:title=" ">
<polygon fill="white" stroke="#bfbfbf" points="1088,-112.5 1088,-131.5 1142,-131.5 1142,-112.5 1088,-112.5"/>
<text text-anchor="middle" x="1115" y="-119.5" font-family="Helvetica,sans-Serif" font-size="10.00">strings.h</text>
</a>
</g>
</g>
<!-- Node30&#45;&gt;Node31 -->
<g id="edge50" class="edge">
<title>Node30&#45;&gt;Node31</title>
<path fill="none" stroke="midnightblue" d="M1115,-168.08C1115,-161.01 1115,-150.86 1115,-141.99"/>
<polygon fill="midnightblue" stroke="midnightblue" points="1118.5,-141.75 1115,-131.75 1111.5,-141.75 1118.5,-141.75"/>
</g>
</g>
</svg>
        <g id="navigator" transform="translate(0 0)" fill="#404254">
                <rect fill="#f2f5e9" fill-opacity="0.5" stroke="#606060" stroke-width=".5" x="0" y="0" width="60" height="60"/>
                <use id="zoomplus" xlink:href="#zoomPlus" x="17" y="9" onmousedown="handleZoom(evt,'in')"/>
                <use id="zoomminus" xlink:href="#zoomMin" x="42" y="9" onmousedown="handleZoom(evt,'out')"/>
                <use id="reset" xlink:href="#resetDef" x="30" y="36" onmousedown="handleReset()"/>
                <g id="arrowUp" xlink:href="#dirArrow" transform="translate(30 24)" onmousedown="handlePan(0,-1)">
                  <use xlink:href="#rim" fill="#404040">
                        <set attributeName="fill" to="#808080" begin="arrowUp.mouseover" end="arrowUp.mouseout"/>
                  </use>
                  <path fill="none" stroke="white" stroke-width="1.5" d="M0,-3.0v7 M-2.5,-0.5L0,-3.0L2.5,-0.5"/>
                </g>
                <g id="arrowRight" xlink:href="#dirArrow" transform="rotate(90) translate(36 -43)" onmousedown="handlePan(1,0)">
                  <use xlink:href="#rim" fill="#404040">
                        <set attributeName="fill" to="#808080" begin="arrowRight.mouseover" end="arrowRight.mouseout"/>
                  </use>
                  <path fill="none" stroke="white" stroke-width="1.5" d="M0,-3.0v7 M-2.5,-0.5L0,-3.0L2.5,-0.5"/>
                </g>
                <g id="arrowDown" xlink:href="#dirArrow" transform="rotate(180) translate(-30 -48)" onmousedown="handlePan(0,1)">
                  <use xlink:href="#rim" fill="#404040">
                        <set attributeName="fill" to="#808080" begin="arrowDown.mouseover" end="arrowDown.mouseout"/>
                  </use>
                  <path fill="none" stroke="white" stroke-width="1.5" d="M0,-3.0v7 M-2.5,-0.5L0,-3.0L2.5,-0.5"/>
                </g>
                <g id="arrowLeft" xlink:href="#dirArrow" transform="rotate(270) translate(-36 17)" onmousedown="handlePan(-1,0)">
                  <use xlink:href="#rim" fill="#404040">
                        <set attributeName="fill" to="#808080" begin="arrowLeft.mouseover" end="arrowLeft.mouseout"/>
                  </use>
                  <path fill="none" stroke="white" stroke-width="1.5" d="M0,-3.0v7 M-2.5,-0.5L0,-3.0L2.5,-0.5"/>
                </g>
        </g>
        <svg viewBox="0 0 15 15" width="100%" height="30px" preserveAspectRatio="xMaxYMin meet">
         <g id="arrow_out" transform="scale(0.3 0.3)">
          <a xlink:href="async_8h__incl_org.svg" target="_base">
           <rect id="button" ry="5" rx="5" y="6" x="6" height="38" width="38"
                fill="#f2f5e9" fill-opacity="0.5" stroke="#606060" stroke-width="1.0"/>
           <path id="arrow"
             d="M 11.500037,31.436501 C 11.940474,20.09759 22.043105,11.32322 32.158766,21.979434 L 37.068811,17.246167 C 37.068811,17.246167 37.088388,32 37.088388,32 L 22.160133,31.978069 C 22.160133,31.978069 26.997745,27.140456 26.997745,27.140456 C 18.528582,18.264221 13.291696,25.230495 11.500037,31.436501 z"
             style="fill:#404040;"/>
          </a>
         </g>
        </svg>
</svg>
