<?xml version="1.0" encoding="UTF-8" standalone="no"?>
<!DOCTYPE svg PUBLIC "-//W3C//DTD SVG 1.1//EN"
 "http://www.w3.org/Graphics/SVG/1.1/DTD/svg11.dtd">
<!-- Generated by graphviz version 2.43.0 (0)
 -->
<!-- Title: coap_find_observer Pages: 1 -->
<!--zoomable 475 -->
<svg id="main" version="1.1" xmlns="http://www.w3.org/2000/svg" xmlns:xlink="http://www.w3.org/1999/xlink" xml:space="preserve" onload="init(evt)">
<style type="text/css"><![CDATA[
.edge:hover path { stroke: red; }
.edge:hover polygon { stroke: red; fill: red; }
]]></style>
<script type="text/javascript"><![CDATA[
var edges = document.getElementsByTagName('g');
if (edges && edges.length) {
  for (var i=0;i<edges.length;i++) {
    if (edges[i].id.substr(0,4)=='edge') {
      edges[i].setAttribute('class','edge');
    }
  }
}
]]></script>
        <defs>
                <circle id="rim" cx="0" cy="0" r="7"/>
                <circle id="rim2" cx="0" cy="0" r="3.5"/>
                <g id="zoomPlus">
                        <use xlink:href="#rim" fill="#404040">
                                <set attributeName="fill" to="#808080" begin="zoomplus.mouseover" end="zoomplus.mouseout"/>
                        </use>
                        <path d="M-4,0h8M0,-4v8" fill="none" stroke="white" stroke-width="1.5" pointer-events="none"/>
                </g>
                <g id="zoomMin">
                        <use xlink:href="#rim" fill="#404040">
                                <set attributeName="fill" to="#808080" begin="zoomminus.mouseover" end="zoomminus.mouseout"/>
                        </use>
                        <path d="M-4,0h8" fill="none" stroke="white" stroke-width="1.5" pointer-events="none"/>
                </g>
                <g id="dirArrow">
                        <path fill="none" stroke="white" stroke-width="1.5" d="M0,-3.0v7 M-2.5,-0.5L0,-3.0L2.5,-0.5"/>
                </g>
               <g id="resetDef">
                       <use xlink:href="#rim2" fill="#404040">
                               <set attributeName="fill" to="#808080" begin="reset.mouseover" end="reset.mouseout"/>
                       </use>
               </g>
        </defs>

<script type="text/javascript">
var viewWidth = 1568;
var viewHeight = 475;
var sectionId = 'dynsection-8';
</script>
<script xlink:href="svgpan.js"/>
<svg id="graph" class="graph">
<g id="viewport">
<title>coap_find_observer</title>
<polygon fill="white" stroke="transparent" points="-4,4 -4,-470.5 1564,-470.5 1564,4 -4,4"/>
<!-- Node1 -->
<g id="node1" class="node">
<title>Node1</title>
<g id="a_node1"><a xlink:title="Returns a subscription object for given peer.">
<polygon fill="#bfbfbf" stroke="black" points="1459,-348.5 1459,-367.5 1560,-367.5 1560,-348.5 1459,-348.5"/>
<text text-anchor="middle" x="1509.5" y="-355.5" font-family="Helvetica,sans-Serif" font-size="10.00">coap_find_observer</text>
</a>
</g>
</g>
<!-- Node2 -->
<g id="node2" class="node">
<title>Node2</title>
<g id="a_node2"><a xlink:href="group__block.html#ga9e80ad42399067ca5ce84c7ea2fa0915" target="_top" xlink:title="Adds the appropriate part of data to the response pdu.">
<polygon fill="white" stroke="black" points="1301,-436 1301,-466 1423,-466 1423,-436 1301,-436"/>
<text text-anchor="start" x="1309" y="-454" font-family="Helvetica,sans-Serif" font-size="10.00">coap_add_data_blocked</text>
<text text-anchor="middle" x="1362" y="-443" font-family="Helvetica,sans-Serif" font-size="10.00">_response</text>
</a>
</g>
</g>
<!-- Node1&#45;&gt;Node2 -->
<g id="edge1" class="edge">
<title>Node1&#45;&gt;Node2</title>
<path fill="none" stroke="midnightblue" d="M1490.62,-374.67C1474.03,-389.52 1448.17,-411.14 1423,-426 1416.88,-429.61 1410.14,-432.96 1403.45,-435.96"/>
<polygon fill="midnightblue" stroke="midnightblue" points="1493.35,-376.91 1498.4,-367.6 1488.64,-371.74 1493.35,-376.91"/>
</g>
<!-- Node3 -->
<g id="node3" class="node">
<title>Node3</title>
<g id="a_node3"><a xlink:href="group__block.html#ga7d813ed56aaec4ff99782060dbe28e6b" target="_top" xlink:title="Associates given data with the response pdu that is passed as fourth parameter.">
<polygon fill="white" stroke="black" points="1307.5,-387 1307.5,-417 1416.5,-417 1416.5,-387 1307.5,-387"/>
<text text-anchor="start" x="1315.5" y="-405" font-family="Helvetica,sans-Serif" font-size="10.00">coap_add_data_large</text>
<text text-anchor="middle" x="1362" y="-394" font-family="Helvetica,sans-Serif" font-size="10.00">_response</text>
</a>
</g>
</g>
<!-- Node1&#45;&gt;Node3 -->
<g id="edge2" class="edge">
<title>Node1&#45;&gt;Node3</title>
<path fill="none" stroke="midnightblue" d="M1467.31,-370.46C1450.36,-375.58 1430.58,-381.56 1412.82,-386.93"/>
<polygon fill="midnightblue" stroke="midnightblue" points="1468.37,-373.79 1476.93,-367.55 1466.34,-367.09 1468.37,-373.79"/>
</g>
<!-- Node4 -->
<g id="node4" class="node">
<title>Node4</title>
<g id="a_node4"><a xlink:href="group__subscribe__internal.html#ga235d5f58c4830b12b08be182469404a6" target="_top" xlink:title="Adds the specified peer as observer for resource.">
<polygon fill="white" stroke="black" points="1159.5,-310.5 1159.5,-329.5 1260.5,-329.5 1260.5,-310.5 1159.5,-310.5"/>
<text text-anchor="middle" x="1210" y="-317.5" font-family="Helvetica,sans-Serif" font-size="10.00">coap_add_observer</text>
</a>
</g>
</g>
<!-- Node1&#45;&gt;Node4 -->
<g id="edge3" class="edge">
<title>Node1&#45;&gt;Node4</title>
<path fill="none" stroke="midnightblue" d="M1448.73,-350.36C1393.61,-343.32 1312.72,-332.99 1260.96,-326.38"/>
<polygon fill="midnightblue" stroke="midnightblue" points="1448.34,-353.84 1458.71,-351.64 1449.23,-346.9 1448.34,-353.84"/>
</g>
<!-- Node17 -->
<g id="node17" class="node">
<title>Node17</title>
<g id="a_node17"><a xlink:href="group__subscribe__internal.html#ga0ea23a6e5f19c9081f282e0a7cc4452d" target="_top" xlink:title="Removes any subscription for observer from resource and releases the allocated storage.">
<polygon fill="white" stroke="black" points="1306,-253.5 1306,-272.5 1418,-272.5 1418,-253.5 1306,-253.5"/>
<text text-anchor="middle" x="1362" y="-260.5" font-family="Helvetica,sans-Serif" font-size="10.00">coap_delete_observer</text>
</a>
</g>
</g>
<!-- Node1&#45;&gt;Node17 -->
<g id="edge22" class="edge">
<title>Node1&#45;&gt;Node17</title>
<path fill="none" stroke="midnightblue" d="M1485.11,-342.73C1454.87,-322.98 1403.09,-289.18 1377.79,-272.66"/>
<polygon fill="midnightblue" stroke="midnightblue" points="1483.46,-345.83 1493.75,-348.37 1487.29,-339.97 1483.46,-345.83"/>
</g>
<!-- Node31 -->
<g id="node31" class="node">
<title>Node31</title>
<g id="a_node31"><a xlink:href="group__subscribe__internal.html#gad5bbd78aad763b34f4c0905fcd7b7454" target="_top" xlink:title="Flags that data is ready to be sent to observers.">
<polygon fill="white" stroke="black" points="1155,-348.5 1155,-367.5 1265,-367.5 1265,-348.5 1155,-348.5"/>
<text text-anchor="middle" x="1210" y="-355.5" font-family="Helvetica,sans-Serif" font-size="10.00">coap_touch_observer</text>
</a>
</g>
</g>
<!-- Node1&#45;&gt;Node31 -->
<g id="edge46" class="edge">
<title>Node1&#45;&gt;Node31</title>
<path fill="none" stroke="midnightblue" d="M1448.66,-358C1395.04,-358 1317.08,-358 1265.24,-358"/>
<polygon fill="midnightblue" stroke="midnightblue" points="1448.71,-361.5 1458.71,-358 1448.71,-354.5 1448.71,-361.5"/>
</g>
<!-- Node5 -->
<g id="node5" class="node">
<title>Node5</title>
<g id="a_node5"><a xlink:href="net_8c.html#a1a280312c4bad55cf10243b9b9c3e966" target="_top" xlink:title=" ">
<polygon fill="white" stroke="black" points="1036,-291.5 1036,-310.5 1119,-310.5 1119,-291.5 1036,-291.5"/>
<text text-anchor="middle" x="1077.5" y="-298.5" font-family="Helvetica,sans-Serif" font-size="10.00">handle_request</text>
</a>
</g>
</g>
<!-- Node4&#45;&gt;Node5 -->
<g id="edge4" class="edge">
<title>Node4&#45;&gt;Node5</title>
<path fill="none" stroke="midnightblue" d="M1149.22,-311.3C1139.05,-309.82 1128.7,-308.31 1119.17,-306.92"/>
<polygon fill="midnightblue" stroke="midnightblue" points="1148.89,-314.79 1159.29,-312.76 1149.9,-307.86 1148.89,-314.79"/>
</g>
<!-- Node6 -->
<g id="node6" class="node">
<title>Node6</title>
<g id="a_node6"><a xlink:href="net_8c.html#a7bb944fc52f772655356d95724317401" target="_top" xlink:title="Dispatches the PDUs from the receive queue in given context.">
<polygon fill="white" stroke="black" points="902.5,-264.5 902.5,-283.5 982.5,-283.5 982.5,-264.5 902.5,-264.5"/>
<text text-anchor="middle" x="942.5" y="-271.5" font-family="Helvetica,sans-Serif" font-size="10.00">coap_dispatch</text>
</a>
</g>
</g>
<!-- Node5&#45;&gt;Node6 -->
<g id="edge5" class="edge">
<title>Node5&#45;&gt;Node6</title>
<path fill="none" stroke="midnightblue" d="M1025.67,-290.68C1011.36,-287.78 996.02,-284.66 982.51,-281.92"/>
<polygon fill="midnightblue" stroke="midnightblue" points="1025.38,-294.19 1035.87,-292.75 1026.77,-287.33 1025.38,-294.19"/>
</g>
<!-- Node7 -->
<g id="node7" class="node">
<title>Node7</title>
<g id="a_node7"><a xlink:href="net_8c.html#a32887948ee273d1ad464ec47df194910" target="_top" xlink:title="Parses and interprets a CoAP datagram with context ctx.">
<polygon fill="white" stroke="black" points="745,-253.5 745,-272.5 849,-272.5 849,-253.5 745,-253.5"/>
<text text-anchor="middle" x="797" y="-260.5" font-family="Helvetica,sans-Serif" font-size="10.00">coap_handle_dgram</text>
</a>
</g>
</g>
<!-- Node6&#45;&gt;Node7 -->
<g id="edge6" class="edge">
<title>Node6&#45;&gt;Node7</title>
<path fill="none" stroke="midnightblue" d="M891.96,-270.2C878.08,-269.14 862.98,-267.98 849.02,-266.91"/>
<polygon fill="midnightblue" stroke="midnightblue" points="892.05,-273.72 902.29,-270.99 892.58,-266.74 892.05,-273.72"/>
</g>
<!-- Node16 -->
<g id="node16" class="node">
<title>Node16</title>
<g id="a_node16"><a xlink:href="net_8c.html#acd36f6fba6d30ab9557e0e6521f4a088" target="_top" xlink:title=" ">
<polygon fill="white" stroke="black" points="434,-294.5 434,-313.5 535,-313.5 535,-294.5 434,-294.5"/>
<text text-anchor="middle" x="484.5" y="-301.5" font-family="Helvetica,sans-Serif" font-size="10.00">coap_read_session</text>
</a>
</g>
</g>
<!-- Node6&#45;&gt;Node16 -->
<g id="edge21" class="edge">
<title>Node6&#45;&gt;Node16</title>
<path fill="none" stroke="midnightblue" d="M892.01,-278.52C878.1,-279.72 862.96,-280.97 849,-282 736.92,-290.24 605.24,-297.64 535.21,-301.4"/>
<polygon fill="midnightblue" stroke="midnightblue" points="892.7,-281.97 902.36,-277.61 892.09,-275 892.7,-281.97"/>
</g>
<!-- Node8 -->
<g id="node8" class="node">
<title>Node8</title>
<g id="a_node8"><a xlink:href="net_8c.html#a8534f7860b14e0743529daff196a27ce" target="_top" xlink:title=" ">
<polygon fill="white" stroke="black" points="583,-245 583,-275 703,-275 703,-245 583,-245"/>
<text text-anchor="start" x="591" y="-263" font-family="Helvetica,sans-Serif" font-size="10.00">coap_handle_dgram_for</text>
<text text-anchor="middle" x="643" y="-252" font-family="Helvetica,sans-Serif" font-size="10.00">_proto</text>
</a>
</g>
</g>
<!-- Node7&#45;&gt;Node8 -->
<g id="edge7" class="edge">
<title>Node7&#45;&gt;Node8</title>
<path fill="none" stroke="midnightblue" d="M734.68,-261.79C724.24,-261.58 713.42,-261.37 703.04,-261.17"/>
<polygon fill="midnightblue" stroke="midnightblue" points="734.9,-265.29 744.96,-261.99 735.03,-258.3 734.9,-265.29"/>
</g>
<!-- Node9 -->
<g id="node9" class="node">
<title>Node9</title>
<g id="a_node9"><a xlink:href="net_8c.html#a44ffb4b70e537043e9a9cf344be24b92" target="_top" xlink:title=" ">
<polygon fill="white" stroke="black" points="432.5,-256.5 432.5,-275.5 536.5,-275.5 536.5,-256.5 432.5,-256.5"/>
<text text-anchor="middle" x="484.5" y="-263.5" font-family="Helvetica,sans-Serif" font-size="10.00">coap_read_endpoint</text>
</a>
</g>
</g>
<!-- Node8&#45;&gt;Node9 -->
<g id="edge8" class="edge">
<title>Node8&#45;&gt;Node9</title>
<path fill="none" stroke="midnightblue" d="M572.72,-262.66C560.56,-263.12 548.1,-263.6 536.55,-264.04"/>
<polygon fill="midnightblue" stroke="midnightblue" points="572.98,-266.15 582.83,-262.27 572.71,-259.15 572.98,-266.15"/>
</g>
<!-- Node8&#45;&gt;Node16 -->
<g id="edge18" class="edge">
<title>Node8&#45;&gt;Node16</title>
<path fill="none" stroke="midnightblue" d="M578.78,-277.77C558.54,-283.47 536.9,-289.55 519.57,-294.42"/>
<polygon fill="midnightblue" stroke="midnightblue" points="579.9,-281.1 588.58,-275.02 578.01,-274.36 579.9,-281.1"/>
</g>
<!-- Node10 -->
<g id="node10" class="node">
<title>Node10</title>
<g id="a_node10"><a xlink:href="group__app__io__internal.html#ga503f851fa137eb8a9c2936e2098c5eb9" target="_top" xlink:title="Process all the epoll events.">
<polygon fill="white" stroke="black" points="297,-256.5 297,-275.5 389,-275.5 389,-256.5 297,-256.5"/>
<text text-anchor="middle" x="343" y="-263.5" font-family="Helvetica,sans-Serif" font-size="10.00">coap_io_do_epoll</text>
</a>
</g>
</g>
<!-- Node9&#45;&gt;Node10 -->
<g id="edge9" class="edge">
<title>Node9&#45;&gt;Node10</title>
<path fill="none" stroke="midnightblue" d="M422.25,-266C411.13,-266 399.71,-266 389.16,-266"/>
<polygon fill="midnightblue" stroke="midnightblue" points="422.35,-269.5 432.35,-266 422.35,-262.5 422.35,-269.5"/>
</g>
<!-- Node13 -->
<g id="node13" class="node">
<title>Node13</title>
<g id="a_node13"><a xlink:href="group__app__io__internal.html#ga2208802b0711ad20df07271b751b41dc" target="_top" xlink:title="Processes any outstanding read, write, accept or connect I/O as indicated in the coap_socket_t struct...">
<polygon fill="white" stroke="black" points="303.5,-294.5 303.5,-313.5 382.5,-313.5 382.5,-294.5 303.5,-294.5"/>
<text text-anchor="middle" x="343" y="-301.5" font-family="Helvetica,sans-Serif" font-size="10.00">coap_io_do_io</text>
</a>
</g>
</g>
<!-- Node9&#45;&gt;Node13 -->
<g id="edge13" class="edge">
<title>Node9&#45;&gt;Node13</title>
<path fill="none" stroke="midnightblue" d="M438.54,-278.25C419.32,-283.48 397.2,-289.51 379.19,-294.41"/>
<polygon fill="midnightblue" stroke="midnightblue" points="439.57,-281.59 448.3,-275.59 437.73,-274.84 439.57,-281.59"/>
</g>
<!-- Node11 -->
<g id="node11" class="node">
<title>Node11</title>
<g id="a_node11"><a xlink:href="group__app__io.html#ga2758ed5fdd6ce79ec95ea8dbf72a5644" target="_top" xlink:title="The main message processing loop with additional fds for internal select.">
<polygon fill="white" stroke="black" points="126,-218.5 126,-237.5 258,-237.5 258,-218.5 126,-218.5"/>
<text text-anchor="middle" x="192" y="-225.5" font-family="Helvetica,sans-Serif" font-size="10.00">coap_io_process_with_fds</text>
</a>
</g>
</g>
<!-- Node10&#45;&gt;Node11 -->
<g id="edge10" class="edge">
<title>Node10&#45;&gt;Node11</title>
<path fill="none" stroke="midnightblue" d="M294.51,-253.89C273.76,-248.6 249.77,-242.48 230.33,-237.52"/>
<polygon fill="midnightblue" stroke="midnightblue" points="293.85,-257.33 304.4,-256.41 295.58,-250.55 293.85,-257.33"/>
</g>
<!-- Node12 -->
<g id="node12" class="node">
<title>Node12</title>
<g id="a_node12"><a xlink:href="group__app__io.html#ga082f7bbf15d3f37c31c2a0a5e78ea4cf" target="_top" xlink:title="The main I/O processing function.">
<polygon fill="white" stroke="black" points="0,-218.5 0,-237.5 90,-237.5 90,-218.5 0,-218.5"/>
<text text-anchor="middle" x="45" y="-225.5" font-family="Helvetica,sans-Serif" font-size="10.00">coap_io_process</text>
</a>
</g>
</g>
<!-- Node11&#45;&gt;Node12 -->
<g id="edge11" class="edge">
<title>Node11&#45;&gt;Node12</title>
<path fill="none" stroke="midnightblue" d="M115.53,-221.26C106.85,-221.28 98.23,-221.44 90.17,-221.73"/>
<polygon fill="midnightblue" stroke="midnightblue" points="115.7,-224.76 125.71,-221.28 115.72,-217.76 115.7,-224.76"/>
</g>
<!-- Node12&#45;&gt;Node11 -->
<g id="edge12" class="edge">
<title>Node12&#45;&gt;Node11</title>
<path fill="none" stroke="midnightblue" d="M100.41,-234.56C108.67,-234.74 117.25,-234.79 125.71,-234.72"/>
<polygon fill="midnightblue" stroke="midnightblue" points="100.26,-231.05 90.17,-234.27 100.07,-238.05 100.26,-231.05"/>
</g>
<!-- Node13&#45;&gt;Node11 -->
<g id="edge15" class="edge">
<title>Node13&#45;&gt;Node11</title>
<path fill="none" stroke="midnightblue" d="M303.56,-290.27C300.25,-288.65 297.02,-286.89 294,-285 275.6,-273.48 276.53,-263.3 258,-252 248.35,-246.11 237.02,-241.31 226.55,-237.59"/>
<polygon fill="midnightblue" stroke="midnightblue" points="302.44,-293.6 312.99,-294.49 305.3,-287.21 302.44,-293.6"/>
</g>
<!-- Node13&#45;&gt;Node12 -->
<g id="edge14" class="edge">
<title>Node13&#45;&gt;Node12</title>
<path fill="none" stroke="midnightblue" d="M295.05,-291.94C236.34,-276.87 137.04,-251.37 83.27,-237.57"/>
<polygon fill="midnightblue" stroke="midnightblue" points="294.25,-295.35 304.81,-294.45 296,-288.57 294.25,-295.35"/>
</g>
<!-- Node14 -->
<g id="node14" class="node">
<title>Node14</title>
<g id="a_node14"><a xlink:href="net_8h.html#af937985e2b14a287a849663574d59bcb" target="_top" xlink:title=" ">
<polygon fill="white" stroke="black" points="161,-294.5 161,-313.5 223,-313.5 223,-294.5 161,-294.5"/>
<text text-anchor="middle" x="192" y="-301.5" font-family="Helvetica,sans-Serif" font-size="10.00">coap_read</text>
</a>
</g>
</g>
<!-- Node13&#45;&gt;Node14 -->
<g id="edge16" class="edge">
<title>Node13&#45;&gt;Node14</title>
<path fill="none" stroke="midnightblue" d="M292.94,-304C269.88,-304 243.12,-304 223.1,-304"/>
<polygon fill="midnightblue" stroke="midnightblue" points="293.24,-307.5 303.24,-304 293.24,-300.5 293.24,-307.5"/>
</g>
<!-- Node15 -->
<g id="node15" class="node">
<title>Node15</title>
<g id="a_node15"><a xlink:href="coap__io__contiki_8c.html#a75a7c93e10ca7858449ba304aad4ea37" target="_top" xlink:title=" ">
<polygon fill="white" stroke="black" points="3.5,-313.5 3.5,-332.5 86.5,-332.5 86.5,-313.5 3.5,-313.5"/>
<text text-anchor="middle" x="45" y="-320.5" font-family="Helvetica,sans-Serif" font-size="10.00">coap_run_once</text>
</a>
</g>
</g>
<!-- Node14&#45;&gt;Node15 -->
<g id="edge17" class="edge">
<title>Node14&#45;&gt;Node15</title>
<path fill="none" stroke="midnightblue" d="M150.92,-309.25C130.94,-311.87 106.81,-315.03 86.73,-317.66"/>
<polygon fill="midnightblue" stroke="midnightblue" points="151.5,-312.71 160.96,-307.94 150.59,-305.77 151.5,-312.71"/>
</g>
<!-- Node16&#45;&gt;Node10 -->
<g id="edge19" class="edge">
<title>Node16&#45;&gt;Node10</title>
<path fill="none" stroke="midnightblue" d="M438.54,-291.75C419.32,-286.52 397.2,-280.49 379.19,-275.59"/>
<polygon fill="midnightblue" stroke="midnightblue" points="437.73,-295.16 448.3,-294.41 439.57,-288.41 437.73,-295.16"/>
</g>
<!-- Node16&#45;&gt;Node13 -->
<g id="edge20" class="edge">
<title>Node16&#45;&gt;Node13</title>
<path fill="none" stroke="midnightblue" d="M423.54,-304C409.78,-304 395.5,-304 382.9,-304"/>
<polygon fill="midnightblue" stroke="midnightblue" points="423.92,-307.5 433.92,-304 423.92,-300.5 423.92,-307.5"/>
</g>
<!-- Node17&#45;&gt;Node4 -->
<g id="edge23" class="edge">
<title>Node17&#45;&gt;Node4</title>
<path fill="none" stroke="midnightblue" d="M1326.26,-276.2C1298.71,-286.67 1260.88,-301.05 1236.19,-310.43"/>
<polygon fill="midnightblue" stroke="midnightblue" points="1327.79,-279.36 1335.89,-272.54 1325.3,-272.82 1327.79,-279.36"/>
</g>
<!-- Node17&#45;&gt;Node5 -->
<g id="edge45" class="edge">
<title>Node17&#45;&gt;Node5</title>
<path fill="none" stroke="midnightblue" d="M1295.62,-271.79C1241.22,-279.11 1165.46,-289.3 1119.32,-295.51"/>
<polygon fill="midnightblue" stroke="midnightblue" points="1296.42,-275.22 1305.86,-270.42 1295.48,-268.28 1296.42,-275.22"/>
</g>
<!-- Node17&#45;&gt;Node6 -->
<g id="edge26" class="edge">
<title>Node17&#45;&gt;Node6</title>
<path fill="none" stroke="midnightblue" d="M1295.88,-264.72C1208.13,-267.03 1054.62,-271.07 982.74,-272.97"/>
<polygon fill="midnightblue" stroke="midnightblue" points="1296.09,-268.21 1305.99,-264.45 1295.9,-261.21 1296.09,-268.21"/>
</g>
<!-- Node18 -->
<g id="node18" class="node">
<title>Node18</title>
<g id="a_node18"><a xlink:href="net_8c.html#a6b355153e3bba3af3df1e72f33ced85c" target="_top" xlink:title="This function cancels outstanding messages for the session and token specified in sent.">
<polygon fill="white" stroke="black" points="1042,-196.5 1042,-215.5 1113,-215.5 1113,-196.5 1042,-196.5"/>
<text text-anchor="middle" x="1077.5" y="-203.5" font-family="Helvetica,sans-Serif" font-size="10.00">coap_cancel</text>
</a>
</g>
</g>
<!-- Node17&#45;&gt;Node18 -->
<g id="edge24" class="edge">
<title>Node17&#45;&gt;Node18</title>
<path fill="none" stroke="midnightblue" d="M1327.74,-249.7C1309.48,-242.87 1286.29,-234.97 1265,-230 1212.87,-217.82 1150.99,-211.39 1113.25,-208.35"/>
<polygon fill="midnightblue" stroke="midnightblue" points="1326.74,-253.06 1337.33,-253.35 1329.23,-246.52 1326.74,-253.06"/>
</g>
<!-- Node19 -->
<g id="node19" class="node">
<title>Node19</title>
<g id="a_node19"><a xlink:href="resource_8c.html#ac502b4f7cc5ef8b6d4a6b7b4d940076a" target="_top" xlink:title=" ">
<polygon fill="white" stroke="black" points="885,-158.5 885,-177.5 1000,-177.5 1000,-158.5 885,-158.5"/>
<text text-anchor="middle" x="942.5" y="-165.5" font-family="Helvetica,sans-Serif" font-size="10.00">coap_notify_observers</text>
</a>
</g>
</g>
<!-- Node17&#45;&gt;Node19 -->
<g id="edge27" class="edge">
<title>Node17&#45;&gt;Node19</title>
<path fill="none" stroke="midnightblue" d="M1339.35,-247.78C1320.57,-235.35 1292.2,-218.35 1265,-209 1175.87,-178.37 1065.74,-170.27 1000.25,-168.33"/>
<polygon fill="midnightblue" stroke="midnightblue" points="1337.51,-250.76 1347.75,-253.47 1341.43,-244.97 1337.51,-250.76"/>
</g>
<!-- Node18&#45;&gt;Node6 -->
<g id="edge25" class="edge">
<title>Node18&#45;&gt;Node6</title>
<path fill="none" stroke="midnightblue" d="M1048.76,-220.18C1022.79,-233.46 984.71,-252.93 962.18,-264.45"/>
<polygon fill="midnightblue" stroke="midnightblue" points="1050.42,-223.27 1057.73,-215.6 1047.23,-217.03 1050.42,-223.27"/>
</g>
<!-- Node20 -->
<g id="node20" class="node">
<title>Node20</title>
<g id="a_node20"><a xlink:href="group__subscribe__internal.html#ga579bcb559463d3a872831c18d8d9a1c1" target="_top" xlink:title="Checks all known resources to see if they are dirty and then notifies subscribed observers.">
<polygon fill="white" stroke="black" points="748,-161.5 748,-180.5 846,-180.5 846,-161.5 748,-161.5"/>
<text text-anchor="middle" x="797" y="-168.5" font-family="Helvetica,sans-Serif" font-size="10.00">coap_check_notify</text>
</a>
</g>
</g>
<!-- Node19&#45;&gt;Node20 -->
<g id="edge28" class="edge">
<title>Node19&#45;&gt;Node20</title>
<path fill="none" stroke="midnightblue" d="M874.56,-169.4C865.08,-169.6 855.47,-169.8 846.43,-169.99"/>
<polygon fill="midnightblue" stroke="midnightblue" points="874.86,-172.89 884.79,-169.19 874.71,-165.9 874.86,-172.89"/>
</g>
<!-- Node25 -->
<g id="node25" class="node">
<title>Node25</title>
<g id="a_node25"><a xlink:href="resource_8c.html#a1307a6b8dadd6d005352ce02f6cf392f" target="_top" xlink:title=" ">
<polygon fill="white" stroke="black" points="746,-57.5 746,-76.5 848,-76.5 848,-57.5 746,-57.5"/>
<text text-anchor="middle" x="797" y="-64.5" font-family="Helvetica,sans-Serif" font-size="10.00">coap_free_resource</text>
</a>
</g>
</g>
<!-- Node19&#45;&gt;Node25 -->
<g id="edge38" class="edge">
<title>Node19&#45;&gt;Node25</title>
<path fill="none" stroke="midnightblue" d="M919.46,-152.49C889.39,-131.32 836.41,-94.03 811.57,-76.55"/>
<polygon fill="midnightblue" stroke="midnightblue" points="917.81,-155.6 928,-158.5 921.84,-149.88 917.81,-155.6"/>
</g>
<!-- Node21 -->
<g id="node21" class="node">
<title>Node21</title>
<g id="a_node21"><a xlink:href="group__app__io__internal.html#gaf0cbbb00a6f2f8ac885f0e1575534e34" target="_top" xlink:title="Iterates through all the coap_socket_t structures embedded in endpoints or sessions associated with t...">
<polygon fill="white" stroke="black" points="592.5,-161.5 592.5,-180.5 693.5,-180.5 693.5,-161.5 592.5,-161.5"/>
<text text-anchor="middle" x="643" y="-168.5" font-family="Helvetica,sans-Serif" font-size="10.00">coap_io_prepare_io</text>
</a>
</g>
</g>
<!-- Node20&#45;&gt;Node21 -->
<g id="edge29" class="edge">
<title>Node20&#45;&gt;Node21</title>
<path fill="none" stroke="midnightblue" d="M737.54,-171C723.04,-171 707.64,-171 693.61,-171"/>
<polygon fill="midnightblue" stroke="midnightblue" points="737.91,-174.5 747.91,-171 737.91,-167.5 737.91,-174.5"/>
</g>
<!-- Node24 -->
<g id="node24" class="node">
<title>Node24</title>
<g id="a_node24"><a xlink:href="coap__io__contiki_8c.html#aaac86ac50793f309678e4951ecf8863f" target="_top" xlink:title=" ">
<polygon fill="white" stroke="black" points="160,-332.5 160,-351.5 224,-351.5 224,-332.5 160,-332.5"/>
<text text-anchor="middle" x="192" y="-339.5" font-family="Helvetica,sans-Serif" font-size="10.00">coap_write</text>
</a>
</g>
</g>
<!-- Node20&#45;&gt;Node24 -->
<g id="edge36" class="edge">
<title>Node20&#45;&gt;Node24</title>
<path fill="none" stroke="midnightblue" d="M783.09,-189.11C761.35,-219.41 718.81,-277.69 709,-284 551.47,-385.28 309.8,-360.38 224.29,-347.39"/>
<polygon fill="midnightblue" stroke="midnightblue" points="786.14,-190.86 789.11,-180.69 780.45,-186.79 786.14,-190.86"/>
</g>
<!-- Node21&#45;&gt;Node11 -->
<g id="edge34" class="edge">
<title>Node21&#45;&gt;Node11</title>
<path fill="none" stroke="midnightblue" d="M582.07,-178.61C497.87,-189.3 345.15,-208.68 258.2,-219.72"/>
<polygon fill="midnightblue" stroke="midnightblue" points="582.75,-182.05 592.23,-177.32 581.87,-175.11 582.75,-182.05"/>
</g>
<!-- Node21&#45;&gt;Node12 -->
<g id="edge33" class="edge">
<title>Node21&#45;&gt;Node12</title>
<path fill="none" stroke="midnightblue" d="M613.5,-157.12C593.69,-148.27 566.39,-137.62 541,-133 356.76,-99.49 134.64,-188.39 66.72,-218.46"/>
<polygon fill="midnightblue" stroke="midnightblue" points="612.31,-160.42 622.86,-161.41 615.23,-154.06 612.31,-160.42"/>
</g>
<!-- Node22 -->
<g id="node22" class="node">
<title>Node22</title>
<g id="a_node22"><a xlink:href="group__app__io__internal.html#ga3be92476a2c2c12d68c0cd07795c7e34" target="_top" xlink:title="Any now timed out delayed packet is transmitted, along with any packets associated with requested obs...">
<polygon fill="white" stroke="black" points="428,-218.5 428,-237.5 541,-237.5 541,-218.5 428,-218.5"/>
<text text-anchor="middle" x="484.5" y="-225.5" font-family="Helvetica,sans-Serif" font-size="10.00">coap_io_prepare_epoll</text>
</a>
</g>
</g>
<!-- Node21&#45;&gt;Node22 -->
<g id="edge30" class="edge">
<title>Node21&#45;&gt;Node22</title>
<path fill="none" stroke="midnightblue" d="M606.13,-184.07C577.36,-194.54 537.65,-209.01 511.78,-218.43"/>
<polygon fill="midnightblue" stroke="midnightblue" points="607.61,-187.25 615.81,-180.54 605.21,-180.67 607.61,-187.25"/>
</g>
<!-- Node23 -->
<g id="node23" class="node">
<title>Node23</title>
<g id="a_node23"><a xlink:href="net_8h.html#ab54010e3cade80e1417870c87dcd0402" target="_top" xlink:title=" ">
<polygon fill="white" stroke="black" points="452.5,-142.5 452.5,-161.5 516.5,-161.5 516.5,-142.5 452.5,-142.5"/>
<text text-anchor="middle" x="484.5" y="-149.5" font-family="Helvetica,sans-Serif" font-size="10.00">coap_write</text>
</a>
</g>
</g>
<!-- Node21&#45;&gt;Node23 -->
<g id="edge35" class="edge">
<title>Node21&#45;&gt;Node23</title>
<path fill="none" stroke="midnightblue" d="M582.35,-163.76C559.91,-161.03 535.31,-158.05 516.51,-155.77"/>
<polygon fill="midnightblue" stroke="midnightblue" points="582.13,-167.26 592.48,-164.99 582.98,-160.31 582.13,-167.26"/>
</g>
<!-- Node22&#45;&gt;Node10 -->
<g id="edge31" class="edge">
<title>Node22&#45;&gt;Node10</title>
<path fill="none" stroke="midnightblue" d="M438.54,-240.25C419.32,-245.48 397.2,-251.51 379.19,-256.41"/>
<polygon fill="midnightblue" stroke="midnightblue" points="439.57,-243.59 448.3,-237.59 437.73,-236.84 439.57,-243.59"/>
</g>
<!-- Node22&#45;&gt;Node11 -->
<g id="edge32" class="edge">
<title>Node22&#45;&gt;Node11</title>
<path fill="none" stroke="midnightblue" d="M417.61,-228C369.88,-228 305.67,-228 258.12,-228"/>
<polygon fill="midnightblue" stroke="midnightblue" points="417.83,-231.5 427.83,-228 417.83,-224.5 417.83,-231.5"/>
</g>
<!-- Node24&#45;&gt;Node15 -->
<g id="edge37" class="edge">
<title>Node24&#45;&gt;Node15</title>
<path fill="none" stroke="midnightblue" d="M149.93,-336.62C130.13,-334.02 106.45,-330.92 86.7,-328.33"/>
<polygon fill="midnightblue" stroke="midnightblue" points="149.52,-340.1 159.89,-337.92 150.43,-333.15 149.52,-340.1"/>
</g>
<!-- Node26 -->
<g id="node26" class="node">
<title>Node26</title>
<g id="a_node26"><a xlink:href="group__coap__resource.html#ga9a5f0705912b0a35a3d5764e86b94004" target="_top" xlink:title="Registers the given resource for context.">
<polygon fill="white" stroke="black" points="434,-19.5 434,-38.5 535,-38.5 535,-19.5 434,-19.5"/>
<text text-anchor="middle" x="484.5" y="-26.5" font-family="Helvetica,sans-Serif" font-size="10.00">coap_add_resource</text>
</a>
</g>
</g>
<!-- Node25&#45;&gt;Node26 -->
<g id="edge39" class="edge">
<title>Node25&#45;&gt;Node26</title>
<path fill="none" stroke="midnightblue" d="M735.57,-59.6C677.13,-52.45 589.64,-41.74 535.15,-35.08"/>
<polygon fill="midnightblue" stroke="midnightblue" points="735.42,-63.11 745.77,-60.85 736.27,-56.16 735.42,-63.11"/>
</g>
<!-- Node27 -->
<g id="node27" class="node">
<title>Node27</title>
<g id="a_node27"><a xlink:href="group__coap__resource__internal.html#ga1fae3046ad94fce85a7ea23455328958" target="_top" xlink:title="Deletes all resources from given context and frees their storage.">
<polygon fill="white" stroke="black" points="577,-76.5 577,-95.5 709,-95.5 709,-76.5 577,-76.5"/>
<text text-anchor="middle" x="643" y="-83.5" font-family="Helvetica,sans-Serif" font-size="10.00">coap_delete_all_resources</text>
</a>
</g>
</g>
<!-- Node25&#45;&gt;Node27 -->
<g id="edge40" class="edge">
<title>Node25&#45;&gt;Node27</title>
<path fill="none" stroke="midnightblue" d="M735.69,-74.54C726.94,-75.63 717.89,-76.76 709.05,-77.87"/>
<polygon fill="midnightblue" stroke="midnightblue" points="736.32,-77.99 745.81,-73.27 735.45,-71.04 736.32,-77.99"/>
</g>
<!-- Node30 -->
<g id="node30" class="node">
<title>Node30</title>
<g id="a_node30"><a xlink:href="group__coap__resource.html#gad3521b724ad4961e6bb11801fd82a3e3" target="_top" xlink:title="Deletes a resource identified by resource.">
<polygon fill="white" stroke="black" points="587,-0.5 587,-19.5 699,-19.5 699,-0.5 587,-0.5"/>
<text text-anchor="middle" x="643" y="-7.5" font-family="Helvetica,sans-Serif" font-size="10.00">coap_delete_resource</text>
</a>
</g>
</g>
<!-- Node25&#45;&gt;Node30 -->
<g id="edge43" class="edge">
<title>Node25&#45;&gt;Node30</title>
<path fill="none" stroke="midnightblue" d="M761.43,-53.81C745.48,-47.74 726.29,-40.47 709,-34 696.16,-29.19 681.86,-23.91 669.96,-19.52"/>
<polygon fill="midnightblue" stroke="midnightblue" points="760.3,-57.12 770.9,-57.41 762.79,-50.58 760.3,-57.12"/>
</g>
<!-- Node28 -->
<g id="node28" class="node">
<title>Node28</title>
<g id="a_node28"><a xlink:href="net_8c.html#a4a0717822713783908dd33d300440b2e" target="_top" xlink:title="CoAP stack context must be released with coap_free_context().">
<polygon fill="white" stroke="black" points="436,-66.5 436,-85.5 533,-85.5 533,-66.5 436,-66.5"/>
<text text-anchor="middle" x="484.5" y="-73.5" font-family="Helvetica,sans-Serif" font-size="10.00">coap_free_context</text>
</a>
</g>
</g>
<!-- Node27&#45;&gt;Node28 -->
<g id="edge41" class="edge">
<title>Node27&#45;&gt;Node28</title>
<path fill="none" stroke="midnightblue" d="M566.98,-81.21C555.54,-80.48 544.01,-79.74 533.37,-79.06"/>
<polygon fill="midnightblue" stroke="midnightblue" points="566.79,-84.7 576.99,-81.85 567.23,-77.72 566.79,-84.7"/>
</g>
<!-- Node29 -->
<g id="node29" class="node">
<title>Node29</title>
<g id="a_node29"><a xlink:href="net_8c.html#a8baf4e3608ff5eb00adac694fe25eb60" target="_top" xlink:title="Creates a new coap_context_t object that will hold the CoAP stack status.">
<polygon fill="white" stroke="black" points="294,-66.5 294,-85.5 392,-85.5 392,-66.5 294,-66.5"/>
<text text-anchor="middle" x="343" y="-73.5" font-family="Helvetica,sans-Serif" font-size="10.00">coap_new_context</text>
</a>
</g>
</g>
<!-- Node28&#45;&gt;Node29 -->
<g id="edge42" class="edge">
<title>Node28&#45;&gt;Node29</title>
<path fill="none" stroke="midnightblue" d="M425.82,-76C414.69,-76 403.14,-76 392.35,-76"/>
<polygon fill="midnightblue" stroke="midnightblue" points="425.88,-79.5 435.88,-76 425.88,-72.5 425.88,-79.5"/>
</g>
<!-- Node30&#45;&gt;Node26 -->
<g id="edge44" class="edge">
<title>Node30&#45;&gt;Node26</title>
<path fill="none" stroke="midnightblue" d="M576.82,-17.91C562.91,-19.6 548.44,-21.36 535.22,-22.96"/>
<polygon fill="midnightblue" stroke="midnightblue" points="577.32,-21.38 586.82,-16.7 576.47,-14.43 577.32,-21.38"/>
</g>
<!-- Node31&#45;&gt;Node5 -->
<g id="edge48" class="edge">
<title>Node31&#45;&gt;Node5</title>
<path fill="none" stroke="midnightblue" d="M1170.14,-344.97C1165.01,-343.07 1159.85,-341.05 1155,-339 1134.37,-330.29 1111.46,-318.63 1096.14,-310.54"/>
<polygon fill="midnightblue" stroke="midnightblue" points="1169.29,-348.39 1179.88,-348.49 1171.67,-341.8 1169.29,-348.39"/>
</g>
<!-- Node31&#45;&gt;Node6 -->
<g id="edge47" class="edge">
<title>Node31&#45;&gt;Node6</title>
<path fill="none" stroke="midnightblue" d="M1144.68,-347.76C1111.65,-341.53 1071.09,-332.37 1036,-320 1008.09,-310.16 977.73,-293.9 959.67,-283.58"/>
<polygon fill="midnightblue" stroke="midnightblue" points="1144.2,-351.23 1154.67,-349.6 1145.47,-344.35 1144.2,-351.23"/>
</g>
</g>
</svg>
        <g id="navigator" transform="translate(0 0)" fill="#404254">
                <rect fill="#f2f5e9" fill-opacity="0.5" stroke="#606060" stroke-width=".5" x="0" y="0" width="60" height="60"/>
                <use id="zoomplus" xlink:href="#zoomPlus" x="17" y="9" onmousedown="handleZoom(evt,'in')"/>
                <use id="zoomminus" xlink:href="#zoomMin" x="42" y="9" onmousedown="handleZoom(evt,'out')"/>
                <use id="reset" xlink:href="#resetDef" x="30" y="36" onmousedown="handleReset()"/>
                <g id="arrowUp" xlink:href="#dirArrow" transform="translate(30 24)" onmousedown="handlePan(0,-1)">
                  <use xlink:href="#rim" fill="#404040">
                        <set attributeName="fill" to="#808080" begin="arrowUp.mouseover" end="arrowUp.mouseout"/>
                  </use>
                  <path fill="none" stroke="white" stroke-width="1.5" d="M0,-3.0v7 M-2.5,-0.5L0,-3.0L2.5,-0.5"/>
                </g>
                <g id="arrowRight" xlink:href="#dirArrow" transform="rotate(90) translate(36 -43)" onmousedown="handlePan(1,0)">
                  <use xlink:href="#rim" fill="#404040">
                        <set attributeName="fill" to="#808080" begin="arrowRight.mouseover" end="arrowRight.mouseout"/>
                  </use>
                  <path fill="none" stroke="white" stroke-width="1.5" d="M0,-3.0v7 M-2.5,-0.5L0,-3.0L2.5,-0.5"/>
                </g>
                <g id="arrowDown" xlink:href="#dirArrow" transform="rotate(180) translate(-30 -48)" onmousedown="handlePan(0,1)">
                  <use xlink:href="#rim" fill="#404040">
                        <set attributeName="fill" to="#808080" begin="arrowDown.mouseover" end="arrowDown.mouseout"/>
                  </use>
                  <path fill="none" stroke="white" stroke-width="1.5" d="M0,-3.0v7 M-2.5,-0.5L0,-3.0L2.5,-0.5"/>
                </g>
                <g id="arrowLeft" xlink:href="#dirArrow" transform="rotate(270) translate(-36 17)" onmousedown="handlePan(-1,0)">
                  <use xlink:href="#rim" fill="#404040">
                        <set attributeName="fill" to="#808080" begin="arrowLeft.mouseover" end="arrowLeft.mouseout"/>
                  </use>
                  <path fill="none" stroke="white" stroke-width="1.5" d="M0,-3.0v7 M-2.5,-0.5L0,-3.0L2.5,-0.5"/>
                </g>
        </g>
        <svg viewBox="0 0 15 15" width="100%" height="30px" preserveAspectRatio="xMaxYMin meet">
         <g id="arrow_out" transform="scale(0.3 0.3)">
          <a xlink:href="group__subscribe__internal_ga29e90783566d71980397fc948d074d0a_icgraph_org.svg" target="_base">
           <rect id="button" ry="5" rx="5" y="6" x="6" height="38" width="38"
                fill="#f2f5e9" fill-opacity="0.5" stroke="#606060" stroke-width="1.0"/>
           <path id="arrow"
             d="M 11.500037,31.436501 C 11.940474,20.09759 22.043105,11.32322 32.158766,21.979434 L 37.068811,17.246167 C 37.068811,17.246167 37.088388,32 37.088388,32 L 22.160133,31.978069 C 22.160133,31.978069 26.997745,27.140456 26.997745,27.140456 C 18.528582,18.264221 13.291696,25.230495 11.500037,31.436501 z"
             style="fill:#404040;"/>
          </a>
         </g>
        </svg>
</svg>
