<?xml version="1.0" encoding="UTF-8" standalone="no"?>
<!DOCTYPE svg PUBLIC "-//W3C//DTD SVG 1.1//EN"
 "http://www.w3.org/Graphics/SVG/1.1/DTD/svg11.dtd">
<!-- Generated by graphviz version 2.43.0 (0)
 -->
<!-- Title: coap_block_new_lg_crcv Pages: 1 -->
<!--zoomable 408 -->
<svg id="main" version="1.1" xmlns="http://www.w3.org/2000/svg" xmlns:xlink="http://www.w3.org/1999/xlink" xml:space="preserve" onload="init(evt)">
<style type="text/css"><![CDATA[
.edge:hover path { stroke: red; }
.edge:hover polygon { stroke: red; fill: red; }
]]></style>
<script type="text/javascript"><![CDATA[
var edges = document.getElementsByTagName('g');
if (edges && edges.length) {
  for (var i=0;i<edges.length;i++) {
    if (edges[i].id.substr(0,4)=='edge') {
      edges[i].setAttribute('class','edge');
    }
  }
}
]]></script>
        <defs>
                <circle id="rim" cx="0" cy="0" r="7"/>
                <circle id="rim2" cx="0" cy="0" r="3.5"/>
                <g id="zoomPlus">
                        <use xlink:href="#rim" fill="#404040">
                                <set attributeName="fill" to="#808080" begin="zoomplus.mouseover" end="zoomplus.mouseout"/>
                        </use>
                        <path d="M-4,0h8M0,-4v8" fill="none" stroke="white" stroke-width="1.5" pointer-events="none"/>
                </g>
                <g id="zoomMin">
                        <use xlink:href="#rim" fill="#404040">
                                <set attributeName="fill" to="#808080" begin="zoomminus.mouseover" end="zoomminus.mouseout"/>
                        </use>
                        <path d="M-4,0h8" fill="none" stroke="white" stroke-width="1.5" pointer-events="none"/>
                </g>
                <g id="dirArrow">
                        <path fill="none" stroke="white" stroke-width="1.5" d="M0,-3.0v7 M-2.5,-0.5L0,-3.0L2.5,-0.5"/>
                </g>
               <g id="resetDef">
                       <use xlink:href="#rim2" fill="#404040">
                               <set attributeName="fill" to="#808080" begin="reset.mouseover" end="reset.mouseout"/>
                       </use>
               </g>
        </defs>

<script type="text/javascript">
var viewWidth = 964;
var viewHeight = 408;
var sectionId = 'dynsection-12';
</script>
<script xlink:href="svgpan.js"/>
<svg id="graph" class="graph">
<g id="viewport">
<title>coap_block_new_lg_crcv</title>
<polygon fill="white" stroke="transparent" points="-4,4 -4,-404 960,-404 960,4 -4,4"/>
<!-- Node1 -->
<g id="node1" class="node">
<title>Node1</title>
<g id="a_node1"><a xlink:title=" ">
<polygon fill="#bfbfbf" stroke="black" points="0,-266.5 0,-285.5 126,-285.5 126,-266.5 0,-266.5"/>
<text text-anchor="middle" x="63" y="-273.5" font-family="Helvetica,sans-Serif" font-size="10.00">coap_block_new_lg_crcv</text>
</a>
</g>
</g>
<!-- Node2 -->
<g id="node2" class="node">
<title>Node2</title>
<g id="a_node2"><a xlink:href="group__block__internal.html#ga5fcd0b912223ec083d4f6f68f5e8cc61" target="_top" xlink:title=" ">
<polygon fill="white" stroke="black" points="162,-342.5 162,-361.5 296,-361.5 296,-342.5 162,-342.5"/>
<text text-anchor="middle" x="229" y="-349.5" font-family="Helvetica,sans-Serif" font-size="10.00">coap_block_delete_lg_crcv</text>
</a>
</g>
</g>
<!-- Node1&#45;&gt;Node2 -->
<g id="edge1" class="edge">
<title>Node1&#45;&gt;Node2</title>
<path fill="none" stroke="midnightblue" d="M80.3,-285.55C99.47,-296.57 132.43,-314.86 162,-328 170.75,-331.89 180.35,-335.66 189.45,-339"/>
<polygon fill="midnightblue" stroke="midnightblue" points="188.47,-342.37 199.07,-342.46 190.84,-335.78 188.47,-342.37"/>
</g>
<!-- Node5 -->
<g id="node5" class="node">
<title>Node5</title>
<g id="a_node5"><a xlink:href="group__logging.html#ga8b690dbed6cc3a5beb81ba5d2d27d290" target="_top" xlink:title="Get session description.">
<polygon fill="white" stroke="black" points="346.5,-304.5 346.5,-323.5 439.5,-323.5 439.5,-304.5 346.5,-304.5"/>
<text text-anchor="middle" x="393" y="-311.5" font-family="Helvetica,sans-Serif" font-size="10.00">coap_session_str</text>
</a>
</g>
</g>
<!-- Node1&#45;&gt;Node5 -->
<g id="edge26" class="edge">
<title>Node1&#45;&gt;Node5</title>
<path fill="none" stroke="midnightblue" d="M126.16,-285.24C138.05,-286.91 150.4,-288.57 162,-290 221.27,-297.32 289.31,-304.24 335.93,-308.75"/>
<polygon fill="midnightblue" stroke="midnightblue" points="335.83,-312.26 346.12,-309.73 336.5,-305.29 335.83,-312.26"/>
</g>
<!-- Node7 -->
<g id="node7" class="node">
<title>Node7</title>
<g id="a_node7"><a xlink:href="mem_8h.html#a0204710ce56cbaa4f062b7f2622857f5" target="_top" xlink:title="Allocates a chunk of size bytes and returns a pointer to the newly allocated memory.">
<polygon fill="white" stroke="black" points="498.5,-247.5 498.5,-266.5 593.5,-266.5 593.5,-247.5 498.5,-247.5"/>
<text text-anchor="middle" x="546" y="-254.5" font-family="Helvetica,sans-Serif" font-size="10.00">coap_malloc_type</text>
</a>
</g>
</g>
<!-- Node1&#45;&gt;Node7 -->
<g id="edge7" class="edge">
<title>Node1&#45;&gt;Node7</title>
<path fill="none" stroke="midnightblue" d="M126.39,-273.54C220.5,-269.82 397.39,-262.83 488.14,-259.25"/>
<polygon fill="midnightblue" stroke="midnightblue" points="488.38,-262.74 498.23,-258.85 488.1,-255.74 488.38,-262.74"/>
</g>
<!-- Node8 -->
<g id="node8" class="node">
<title>Node8</title>
<g id="a_node8"><a xlink:href="group__string.html#ga8da8715d422db6376ff349e255911052" target="_top" xlink:title="Returns a new binary object with at least size bytes storage allocated.">
<polygon fill="white" stroke="black" points="183,-228.5 183,-247.5 275,-247.5 275,-228.5 183,-228.5"/>
<text text-anchor="middle" x="229" y="-235.5" font-family="Helvetica,sans-Serif" font-size="10.00">coap_new_binary</text>
</a>
</g>
</g>
<!-- Node1&#45;&gt;Node8 -->
<g id="edge8" class="edge">
<title>Node1&#45;&gt;Node8</title>
<path fill="none" stroke="midnightblue" d="M105.38,-266.41C127.12,-261.37 153.96,-255.16 176.97,-249.82"/>
<polygon fill="midnightblue" stroke="midnightblue" points="177.96,-253.19 186.91,-247.52 176.38,-246.37 177.96,-253.19"/>
</g>
<!-- Node10 -->
<g id="node10" class="node">
<title>Node10</title>
<g id="a_node10"><a xlink:href="pdu_8c.html#aefe25ec6dcb7d13ea1496332ae634e2d" target="_top" xlink:title="Removes option of given type from the pdu.">
<polygon fill="white" stroke="black" points="175.5,-114.5 175.5,-133.5 282.5,-133.5 282.5,-114.5 175.5,-114.5"/>
<text text-anchor="middle" x="229" y="-121.5" font-family="Helvetica,sans-Serif" font-size="10.00">coap_remove_option</text>
</a>
</g>
</g>
<!-- Node1&#45;&gt;Node10 -->
<g id="edge11" class="edge">
<title>Node1&#45;&gt;Node10</title>
<path fill="none" stroke="midnightblue" d="M74.26,-266.49C101.53,-241.22 176.05,-172.15 210.32,-140.38"/>
<polygon fill="midnightblue" stroke="midnightblue" points="212.79,-142.87 217.74,-133.5 208.03,-137.74 212.79,-142.87"/>
</g>
<!-- Node3 -->
<g id="node3" class="node">
<title>Node3</title>
<g id="a_node3"><a xlink:href="group__string.html#ga5881b7726f26833abb90e30bd23730af" target="_top" xlink:title="Deletes the given coap_binary_t object and releases any memory allocated.">
<polygon fill="white" stroke="black" points="342.5,-380.5 342.5,-399.5 443.5,-399.5 443.5,-380.5 342.5,-380.5"/>
<text text-anchor="middle" x="393" y="-387.5" font-family="Helvetica,sans-Serif" font-size="10.00">coap_delete_binary</text>
</a>
</g>
</g>
<!-- Node2&#45;&gt;Node3 -->
<g id="edge2" class="edge">
<title>Node2&#45;&gt;Node3</title>
<path fill="none" stroke="midnightblue" d="M270.88,-361.59C292.35,-366.63 318.86,-372.84 341.6,-378.18"/>
<polygon fill="midnightblue" stroke="midnightblue" points="340.88,-381.6 351.41,-380.48 342.48,-374.79 340.88,-381.6"/>
</g>
<!-- Node4 -->
<g id="node4" class="node">
<title>Node4</title>
<g id="a_node4"><a xlink:href="mem_8h.html#ae7214e0c73a4d4290525873e739ed422" target="_top" xlink:title="Releases the memory that was allocated by coap_malloc_type().">
<polygon fill="white" stroke="black" points="504.5,-361.5 504.5,-380.5 587.5,-380.5 587.5,-361.5 504.5,-361.5"/>
<text text-anchor="middle" x="546" y="-368.5" font-family="Helvetica,sans-Serif" font-size="10.00">coap_free_type</text>
</a>
</g>
</g>
<!-- Node2&#45;&gt;Node4 -->
<g id="edge4" class="edge">
<title>Node2&#45;&gt;Node4</title>
<path fill="none" stroke="midnightblue" d="M296.03,-355.98C355.01,-359.54 440.18,-364.68 494.05,-367.93"/>
<polygon fill="midnightblue" stroke="midnightblue" points="493.86,-371.42 504.06,-368.53 494.29,-364.43 493.86,-371.42"/>
</g>
<!-- Node2&#45;&gt;Node5 -->
<g id="edge5" class="edge">
<title>Node2&#45;&gt;Node5</title>
<path fill="none" stroke="midnightblue" d="M270.88,-342.41C292.35,-337.37 318.86,-331.16 341.6,-325.82"/>
<polygon fill="midnightblue" stroke="midnightblue" points="342.48,-329.21 351.41,-323.52 340.88,-322.4 342.48,-329.21"/>
</g>
<!-- Node3&#45;&gt;Node4 -->
<g id="edge3" class="edge">
<title>Node3&#45;&gt;Node4</title>
<path fill="none" stroke="midnightblue" d="M443.86,-383.73C459.93,-381.7 477.75,-379.46 493.91,-377.43"/>
<polygon fill="midnightblue" stroke="midnightblue" points="494.76,-380.85 504.25,-376.13 493.89,-373.9 494.76,-380.85"/>
</g>
<!-- Node6 -->
<g id="node6" class="node">
<title>Node6</title>
<g id="a_node6"><a xlink:href="group__logging.html#ga6a4f5ef637bf85aa161adfe73ac81ff0" target="_top" xlink:title="Print the address into the defined buffer.">
<polygon fill="white" stroke="black" points="503,-304.5 503,-323.5 589,-323.5 589,-304.5 503,-304.5"/>
<text text-anchor="middle" x="546" y="-311.5" font-family="Helvetica,sans-Serif" font-size="10.00">coap_print_addr</text>
</a>
</g>
</g>
<!-- Node5&#45;&gt;Node6 -->
<g id="edge6" class="edge">
<title>Node5&#45;&gt;Node6</title>
<path fill="none" stroke="midnightblue" d="M439.71,-314C456.32,-314 475.21,-314 492.37,-314"/>
<polygon fill="midnightblue" stroke="midnightblue" points="492.79,-317.5 502.79,-314 492.79,-310.5 492.79,-317.5"/>
</g>
<!-- Node9 -->
<g id="node9" class="node">
<title>Node9</title>
<g id="a_node9"><a xlink:href="group__string.html#ga48a2c3c1cc1cf95fc8443179c081ccb1" target="_top" xlink:title="Returns a new string object with at least size+1 bytes storage allocated.">
<polygon fill="white" stroke="black" points="348,-228.5 348,-247.5 438,-247.5 438,-228.5 348,-228.5"/>
<text text-anchor="middle" x="393" y="-235.5" font-family="Helvetica,sans-Serif" font-size="10.00">coap_new_string</text>
</a>
</g>
</g>
<!-- Node8&#45;&gt;Node9 -->
<g id="edge9" class="edge">
<title>Node8&#45;&gt;Node9</title>
<path fill="none" stroke="midnightblue" d="M275.13,-238C294.59,-238 317.51,-238 337.88,-238"/>
<polygon fill="midnightblue" stroke="midnightblue" points="337.96,-241.5 347.96,-238 337.96,-234.5 337.96,-241.5"/>
</g>
<!-- Node9&#45;&gt;Node7 -->
<g id="edge10" class="edge">
<title>Node9&#45;&gt;Node7</title>
<path fill="none" stroke="midnightblue" d="M438.08,-243.55C453.8,-245.52 471.72,-247.78 488.35,-249.87"/>
<polygon fill="midnightblue" stroke="midnightblue" points="488.14,-253.37 498.5,-251.15 489.01,-246.43 488.14,-253.37"/>
</g>
<!-- Node11 -->
<g id="node11" class="node">
<title>Node11</title>
<g id="a_node11"><a xlink:href="group__opt__filter.html#ga55f19454026048e906139d575feddecb" target="_top" xlink:title="Compute storage bytes needed for an option with given delta and length.">
<polygon fill="white" stroke="black" points="335,-190.5 335,-209.5 451,-209.5 451,-190.5 335,-190.5"/>
<text text-anchor="middle" x="393" y="-197.5" font-family="Helvetica,sans-Serif" font-size="10.00">coap_opt_encode_size</text>
</a>
</g>
</g>
<!-- Node10&#45;&gt;Node11 -->
<g id="edge12" class="edge">
<title>Node10&#45;&gt;Node11</title>
<path fill="none" stroke="midnightblue" d="M245.06,-133.7C264.53,-145.94 299.79,-167.07 332,-181 337.08,-183.2 342.49,-185.27 347.91,-187.17"/>
<polygon fill="midnightblue" stroke="midnightblue" points="347.01,-190.56 357.61,-190.43 349.24,-183.93 347.01,-190.56"/>
</g>
<!-- Node12 -->
<g id="node12" class="node">
<title>Node12</title>
<g id="a_node12"><a xlink:href="group__opt__filter.html#ga42d0b9d068b790ec1c490a7fb2674904" target="_top" xlink:title="Returns the length of the given option.">
<polygon fill="white" stroke="black" points="349,-152.5 349,-171.5 437,-171.5 437,-152.5 349,-152.5"/>
<text text-anchor="middle" x="393" y="-159.5" font-family="Helvetica,sans-Serif" font-size="10.00">coap_opt_length</text>
</a>
</g>
</g>
<!-- Node10&#45;&gt;Node12 -->
<g id="edge13" class="edge">
<title>Node10&#45;&gt;Node12</title>
<path fill="none" stroke="midnightblue" d="M270.88,-133.59C292.35,-138.63 318.86,-144.84 341.6,-150.18"/>
<polygon fill="midnightblue" stroke="midnightblue" points="340.88,-153.6 351.41,-152.48 342.48,-146.79 340.88,-153.6"/>
</g>
<!-- Node13 -->
<g id="node13" class="node">
<title>Node13</title>
<g id="a_node13"><a xlink:href="option_8c.html#a11de99f50cc9f5a34fd9e4d121ecfd13" target="_top" xlink:title="Parses the option pointed to by opt into result.">
<polygon fill="white" stroke="black" points="503,-114.5 503,-133.5 589,-133.5 589,-114.5 503,-114.5"/>
<text text-anchor="middle" x="546" y="-121.5" font-family="Helvetica,sans-Serif" font-size="10.00">coap_opt_parse</text>
</a>
</g>
</g>
<!-- Node10&#45;&gt;Node13 -->
<g id="edge14" class="edge">
<title>Node10&#45;&gt;Node13</title>
<path fill="none" stroke="midnightblue" d="M282.72,-124C341.05,-124 434.45,-124 492.63,-124"/>
<polygon fill="midnightblue" stroke="midnightblue" points="492.72,-127.5 502.72,-124 492.72,-120.5 492.72,-127.5"/>
</g>
<!-- Node14 -->
<g id="node14" class="node">
<title>Node14</title>
<g id="a_node14"><a xlink:href="group__opt__filter.html#gad799c84f95789d9dc6724da2b56d8ff5" target="_top" xlink:title="Initializes the given option iterator oi to point to the beginning of the pdu&#39;s option list.">
<polygon fill="white" stroke="black" points="332,-76.5 332,-95.5 454,-95.5 454,-76.5 332,-76.5"/>
<text text-anchor="middle" x="393" y="-83.5" font-family="Helvetica,sans-Serif" font-size="10.00">coap_option_iterator_init</text>
</a>
</g>
</g>
<!-- Node10&#45;&gt;Node14 -->
<g id="edge15" class="edge">
<title>Node10&#45;&gt;Node14</title>
<path fill="none" stroke="midnightblue" d="M270.88,-114.41C292.35,-109.37 318.86,-103.16 341.6,-97.82"/>
<polygon fill="midnightblue" stroke="midnightblue" points="342.48,-101.21 351.41,-95.52 340.88,-94.4 342.48,-101.21"/>
</g>
<!-- Node15 -->
<g id="node15" class="node">
<title>Node15</title>
<g id="a_node15"><a xlink:href="group__opt__filter.html#ga182fdeffe0b37e1ab0dc6ba8494abe4a" target="_top" xlink:title="Updates the iterator oi to point to the next option.">
<polygon fill="white" stroke="black" points="346.5,-38.5 346.5,-57.5 439.5,-57.5 439.5,-38.5 346.5,-38.5"/>
<text text-anchor="middle" x="393" y="-45.5" font-family="Helvetica,sans-Serif" font-size="10.00">coap_option_next</text>
</a>
</g>
</g>
<!-- Node10&#45;&gt;Node15 -->
<g id="edge16" class="edge">
<title>Node10&#45;&gt;Node15</title>
<path fill="none" stroke="midnightblue" d="M245.06,-114.3C264.53,-102.06 299.79,-80.93 332,-67 337.08,-64.8 342.49,-62.73 347.91,-60.83"/>
<polygon fill="midnightblue" stroke="midnightblue" points="349.24,-64.07 357.61,-57.57 347.01,-57.44 349.24,-64.07"/>
</g>
<!-- Node22 -->
<g id="node22" class="node">
<title>Node22</title>
<g id="a_node22"><a xlink:href="pdu_8c.html#a34b8d913366353610f308a36aa762c1c" target="_top" xlink:title="Dynamically grows the size of pdu to new_size if needed.">
<polygon fill="white" stroke="black" points="332,-0.5 332,-19.5 454,-19.5 454,-0.5 332,-0.5"/>
<text text-anchor="middle" x="393" y="-7.5" font-family="Helvetica,sans-Serif" font-size="10.00">coap_pdu_check_resize</text>
</a>
</g>
</g>
<!-- Node10&#45;&gt;Node22 -->
<g id="edge24" class="edge">
<title>Node10&#45;&gt;Node22</title>
<path fill="none" stroke="midnightblue" d="M237.67,-114.44C253.4,-95.46 291.24,-52.79 332,-29 335.66,-26.86 339.59,-24.94 343.63,-23.21"/>
<polygon fill="midnightblue" stroke="midnightblue" points="345.09,-26.39 353.15,-19.52 342.56,-19.87 345.09,-26.39"/>
</g>
<!-- Node15&#45;&gt;Node13 -->
<g id="edge17" class="edge">
<title>Node15&#45;&gt;Node13</title>
<path fill="none" stroke="midnightblue" d="M433.99,-57.54C440.94,-60.06 447.89,-63.17 454,-67 473.72,-79.35 470.45,-92.4 490,-105 493.11,-107.01 496.46,-108.83 499.92,-110.48"/>
<polygon fill="midnightblue" stroke="midnightblue" points="498.64,-113.74 509.21,-114.44 501.39,-107.3 498.64,-113.74"/>
</g>
<!-- Node16 -->
<g id="node16" class="node">
<title>Node16</title>
<g id="a_node16"><a xlink:href="group__opt__filter.html#ga9ee20c34f52bc347e7e075386afb6f5f" target="_top" xlink:title="Checks if type is contained in filter.">
<polygon fill="white" stroke="black" points="490,-76.5 490,-95.5 602,-95.5 602,-76.5 490,-76.5"/>
<text text-anchor="middle" x="546" y="-83.5" font-family="Helvetica,sans-Serif" font-size="10.00">coap_option_filter_get</text>
</a>
</g>
</g>
<!-- Node15&#45;&gt;Node16 -->
<g id="edge18" class="edge">
<title>Node15&#45;&gt;Node16</title>
<path fill="none" stroke="midnightblue" d="M432.1,-57.59C451.94,-62.58 476.38,-68.73 497.45,-74.03"/>
<polygon fill="midnightblue" stroke="midnightblue" points="496.62,-77.43 507.17,-76.48 498.33,-70.65 496.62,-77.43"/>
</g>
<!-- Node21 -->
<g id="node21" class="node">
<title>Node21</title>
<g id="a_node21"><a xlink:href="option_8c.html#a70fa9db0450134640b80cbf7c3720688" target="_top" xlink:title=" ">
<polygon fill="white" stroke="black" points="511.5,-38.5 511.5,-57.5 580.5,-57.5 580.5,-38.5 511.5,-38.5"/>
<text text-anchor="middle" x="546" y="-45.5" font-family="Helvetica,sans-Serif" font-size="10.00">opt_finished</text>
</a>
</g>
</g>
<!-- Node15&#45;&gt;Node21 -->
<g id="edge23" class="edge">
<title>Node15&#45;&gt;Node21</title>
<path fill="none" stroke="midnightblue" d="M439.71,-48C459.29,-48 482.04,-48 501.38,-48"/>
<polygon fill="midnightblue" stroke="midnightblue" points="501.43,-51.5 511.43,-48 501.43,-44.5 501.43,-51.5"/>
</g>
<!-- Node17 -->
<g id="node17" class="node">
<title>Node17</title>
<g id="a_node17"><a xlink:href="option_8c.html#af4ada5c5312a5ae5d4b9694a72633e4e" target="_top" xlink:title="Applies op on filter with respect to type.">
<polygon fill="white" stroke="black" points="638,-76.5 638,-95.5 747,-95.5 747,-76.5 638,-76.5"/>
<text text-anchor="middle" x="692.5" y="-83.5" font-family="Helvetica,sans-Serif" font-size="10.00">coap_option_filter_op</text>
</a>
</g>
</g>
<!-- Node16&#45;&gt;Node17 -->
<g id="edge19" class="edge">
<title>Node16&#45;&gt;Node17</title>
<path fill="none" stroke="midnightblue" d="M602.04,-86C610.32,-86 618.92,-86 627.37,-86"/>
<polygon fill="midnightblue" stroke="midnightblue" points="627.57,-89.5 637.57,-86 627.57,-82.5 627.57,-89.5"/>
</g>
<!-- Node18 -->
<g id="node18" class="node">
<title>Node18</title>
<g id="a_node18"><a xlink:href="encode_8c.html#a671b4261b2d24de8696258a8efb0f359" target="_top" xlink:title=" ">
<polygon fill="white" stroke="black" points="796,-95.5 796,-114.5 849,-114.5 849,-95.5 796,-95.5"/>
<text text-anchor="middle" x="822.5" y="-102.5" font-family="Helvetica,sans-Serif" font-size="10.00">coap_fls</text>
</a>
</g>
</g>
<!-- Node17&#45;&gt;Node18 -->
<g id="edge20" class="edge">
<title>Node17&#45;&gt;Node18</title>
<path fill="none" stroke="midnightblue" d="M747.04,-93.95C760.08,-95.88 773.71,-97.91 785.69,-99.68"/>
<polygon fill="midnightblue" stroke="midnightblue" points="785.33,-103.17 795.74,-101.18 786.36,-96.25 785.33,-103.17"/>
</g>
<!-- Node20 -->
<g id="node20" class="node">
<title>Node20</title>
<g id="a_node20"><a xlink:href="option_8c.html#a2be7abc95dd3dfc1f1f3f4268ce41101" target="_top" xlink:title="Returns true iff type denotes an option type larger than 255.">
<polygon fill="white" stroke="black" points="783,-57.5 783,-76.5 862,-76.5 862,-57.5 783,-57.5"/>
<text text-anchor="middle" x="822.5" y="-64.5" font-family="Helvetica,sans-Serif" font-size="10.00">is_long_option</text>
</a>
</g>
</g>
<!-- Node17&#45;&gt;Node20 -->
<g id="edge22" class="edge">
<title>Node17&#45;&gt;Node20</title>
<path fill="none" stroke="midnightblue" d="M747.04,-78.05C755.61,-76.78 764.44,-75.47 772.89,-74.22"/>
<polygon fill="midnightblue" stroke="midnightblue" points="773.59,-77.65 782.97,-72.72 772.56,-70.73 773.59,-77.65"/>
</g>
<!-- Node19 -->
<g id="node19" class="node">
<title>Node19</title>
<g id="a_node19"><a xlink:href="encode_8c.html#a5732d87decbffe771159ea02a5e25488" target="_top" xlink:title=" ">
<polygon fill="white" stroke="black" points="898,-95.5 898,-114.5 956,-114.5 956,-95.5 898,-95.5"/>
<text text-anchor="middle" x="927" y="-102.5" font-family="Helvetica,sans-Serif" font-size="10.00">coap_flsll</text>
</a>
</g>
</g>
<!-- Node18&#45;&gt;Node19 -->
<g id="edge21" class="edge">
<title>Node18&#45;&gt;Node19</title>
<path fill="none" stroke="midnightblue" d="M849.1,-105C860.8,-105 874.9,-105 887.81,-105"/>
<polygon fill="midnightblue" stroke="midnightblue" points="887.84,-108.5 897.84,-105 887.84,-101.5 887.84,-108.5"/>
</g>
<!-- Node23 -->
<g id="node23" class="node">
<title>Node23</title>
<g id="a_node23"><a xlink:href="pdu_8c.html#add46ce956878a4121e8887b84c6d4a6b" target="_top" xlink:title="Dynamically grows the size of pdu to new_size.">
<polygon fill="white" stroke="black" points="501,-0.5 501,-19.5 591,-19.5 591,-0.5 501,-0.5"/>
<text text-anchor="middle" x="546" y="-7.5" font-family="Helvetica,sans-Serif" font-size="10.00">coap_pdu_resize</text>
</a>
</g>
</g>
<!-- Node22&#45;&gt;Node23 -->
<g id="edge25" class="edge">
<title>Node22&#45;&gt;Node23</title>
<path fill="none" stroke="midnightblue" d="M454.11,-10C466.2,-10 478.83,-10 490.71,-10"/>
<polygon fill="midnightblue" stroke="midnightblue" points="490.91,-13.5 500.91,-10 490.91,-6.5 490.91,-13.5"/>
</g>
</g>
</svg>
        <g id="navigator" transform="translate(0 0)" fill="#404254">
                <rect fill="#f2f5e9" fill-opacity="0.5" stroke="#606060" stroke-width=".5" x="0" y="0" width="60" height="60"/>
                <use id="zoomplus" xlink:href="#zoomPlus" x="17" y="9" onmousedown="handleZoom(evt,'in')"/>
                <use id="zoomminus" xlink:href="#zoomMin" x="42" y="9" onmousedown="handleZoom(evt,'out')"/>
                <use id="reset" xlink:href="#resetDef" x="30" y="36" onmousedown="handleReset()"/>
                <g id="arrowUp" xlink:href="#dirArrow" transform="translate(30 24)" onmousedown="handlePan(0,-1)">
                  <use xlink:href="#rim" fill="#404040">
                        <set attributeName="fill" to="#808080" begin="arrowUp.mouseover" end="arrowUp.mouseout"/>
                  </use>
                  <path fill="none" stroke="white" stroke-width="1.5" d="M0,-3.0v7 M-2.5,-0.5L0,-3.0L2.5,-0.5"/>
                </g>
                <g id="arrowRight" xlink:href="#dirArrow" transform="rotate(90) translate(36 -43)" onmousedown="handlePan(1,0)">
                  <use xlink:href="#rim" fill="#404040">
                        <set attributeName="fill" to="#808080" begin="arrowRight.mouseover" end="arrowRight.mouseout"/>
                  </use>
                  <path fill="none" stroke="white" stroke-width="1.5" d="M0,-3.0v7 M-2.5,-0.5L0,-3.0L2.5,-0.5"/>
                </g>
                <g id="arrowDown" xlink:href="#dirArrow" transform="rotate(180) translate(-30 -48)" onmousedown="handlePan(0,1)">
                  <use xlink:href="#rim" fill="#404040">
                        <set attributeName="fill" to="#808080" begin="arrowDown.mouseover" end="arrowDown.mouseout"/>
                  </use>
                  <path fill="none" stroke="white" stroke-width="1.5" d="M0,-3.0v7 M-2.5,-0.5L0,-3.0L2.5,-0.5"/>
                </g>
                <g id="arrowLeft" xlink:href="#dirArrow" transform="rotate(270) translate(-36 17)" onmousedown="handlePan(-1,0)">
                  <use xlink:href="#rim" fill="#404040">
                        <set attributeName="fill" to="#808080" begin="arrowLeft.mouseover" end="arrowLeft.mouseout"/>
                  </use>
                  <path fill="none" stroke="white" stroke-width="1.5" d="M0,-3.0v7 M-2.5,-0.5L0,-3.0L2.5,-0.5"/>
                </g>
        </g>
        <svg viewBox="0 0 15 15" width="100%" height="30px" preserveAspectRatio="xMaxYMin meet">
         <g id="arrow_out" transform="scale(0.3 0.3)">
          <a xlink:href="group__block__internal_gafb669f551f45f9a1aa2be340c9853599_cgraph_org.svg" target="_base">
           <rect id="button" ry="5" rx="5" y="6" x="6" height="38" width="38"
                fill="#f2f5e9" fill-opacity="0.5" stroke="#606060" stroke-width="1.0"/>
           <path id="arrow"
             d="M 11.500037,31.436501 C 11.940474,20.09759 22.043105,11.32322 32.158766,21.979434 L 37.068811,17.246167 C 37.068811,17.246167 37.088388,32 37.088388,32 L 22.160133,31.978069 C 22.160133,31.978069 26.997745,27.140456 26.997745,27.140456 C 18.528582,18.264221 13.291696,25.230495 11.500037,31.436501 z"
             style="fill:#404040;"/>
          </a>
         </g>
        </svg>
</svg>
