<?xml version="1.0" encoding="UTF-8" standalone="no"?>
<!DOCTYPE svg PUBLIC "-//W3C//DTD SVG 1.1//EN"
 "http://www.w3.org/Graphics/SVG/1.1/DTD/svg11.dtd">
<!-- Generated by graphviz version 2.43.0 (0)
 -->
<!-- Title: coap_remove_option Pages: 1 -->
<svg width="1529pt" height="159pt"
 viewBox="0.00 0.00 1529.00 159.00" xmlns="http://www.w3.org/2000/svg" xmlns:xlink="http://www.w3.org/1999/xlink">
<g id="graph0" class="graph" transform="scale(1 1) rotate(0) translate(4 155)">
<title>coap_remove_option</title>
<polygon fill="white" stroke="transparent" points="-4,4 -4,-155 1525,-155 1525,4 -4,4"/>
<!-- Node1 -->
<g id="node1" class="node">
<title>Node1</title>
<g id="a_node1"><a xlink:title="Removes option of given type from the pdu.">
<polygon fill="#bfbfbf" stroke="black" points="1414,-69 1414,-88 1521,-88 1521,-69 1414,-69"/>
<text text-anchor="middle" x="1467.5" y="-76" font-family="Helvetica,sans-Serif" font-size="10.00">coap_remove_option</text>
</a>
</g>
</g>
<!-- Node2 -->
<g id="node2" class="node">
<title>Node2</title>
<g id="a_node2"><a xlink:href="group__block__internal.html#gafb669f551f45f9a1aa2be340c9853599" target="_top" xlink:title=" ">
<polygon fill="white" stroke="black" points="1252,-88 1252,-107 1378,-107 1378,-88 1252,-88"/>
<text text-anchor="middle" x="1315" y="-95" font-family="Helvetica,sans-Serif" font-size="10.00">coap_block_new_lg_crcv</text>
</a>
</g>
</g>
<!-- Node1&#45;&gt;Node2 -->
<g id="edge1" class="edge">
<title>Node1&#45;&gt;Node2</title>
<path fill="none" stroke="midnightblue" d="M1403.7,-86.43C1395.26,-87.49 1386.6,-88.59 1378.16,-89.65"/>
<polygon fill="midnightblue" stroke="midnightblue" points="1404.38,-89.87 1413.86,-85.15 1403.5,-82.93 1404.38,-89.87"/>
</g>
<!-- Node3 -->
<g id="node3" class="node">
<title>Node3</title>
<g id="a_node3"><a xlink:href="group__block__internal.html#ga67a791042fc6ece549cff85d6e0d21f8" target="_top" xlink:title=" ">
<polygon fill="white" stroke="black" points="1100,-120.5 1100,-150.5 1216,-150.5 1216,-120.5 1100,-120.5"/>
<text text-anchor="start" x="1108" y="-138.5" font-family="Helvetica,sans-Serif" font-size="10.00">coap_handle_response</text>
<text text-anchor="middle" x="1158" y="-127.5" font-family="Helvetica,sans-Serif" font-size="10.00">_get_block</text>
</a>
</g>
</g>
<!-- Node1&#45;&gt;Node3 -->
<g id="edge25" class="edge">
<title>Node1&#45;&gt;Node3</title>
<path fill="none" stroke="midnightblue" d="M1439.42,-92.81C1422.29,-101.18 1399.42,-111.12 1378,-116.5 1324.14,-130.03 1260.76,-134.31 1216.08,-135.5"/>
<polygon fill="midnightblue" stroke="midnightblue" points="1441.42,-95.73 1448.79,-88.11 1438.28,-89.47 1441.42,-95.73"/>
</g>
<!-- Node17 -->
<g id="node17" class="node">
<title>Node17</title>
<g id="a_node17"><a xlink:href="group__block__internal.html#ga0644ddbdbc7cce06e901745afb432753" target="_top" xlink:title=" ">
<polygon fill="white" stroke="black" points="1260.5,-0.5 1260.5,-30.5 1369.5,-30.5 1369.5,-0.5 1260.5,-0.5"/>
<text text-anchor="start" x="1268.5" y="-18.5" font-family="Helvetica,sans-Serif" font-size="10.00">coap_handle_request</text>
<text text-anchor="middle" x="1315" y="-7.5" font-family="Helvetica,sans-Serif" font-size="10.00">_put_block</text>
</a>
</g>
</g>
<!-- Node1&#45;&gt;Node17 -->
<g id="edge22" class="edge">
<title>Node1&#45;&gt;Node17</title>
<path fill="none" stroke="midnightblue" d="M1434.21,-64.98C1410.04,-54.87 1377,-41.03 1351.99,-30.57"/>
<polygon fill="midnightblue" stroke="midnightblue" points="1433.07,-68.3 1443.64,-68.93 1435.77,-61.84 1433.07,-68.3"/>
</g>
<!-- Node18 -->
<g id="node18" class="node">
<title>Node18</title>
<g id="a_node18"><a xlink:href="net_8c.html#a1a280312c4bad55cf10243b9b9c3e966" target="_top" xlink:title=" ">
<polygon fill="white" stroke="black" points="1116.5,-44 1116.5,-63 1199.5,-63 1199.5,-44 1116.5,-44"/>
<text text-anchor="middle" x="1158" y="-51" font-family="Helvetica,sans-Serif" font-size="10.00">handle_request</text>
</a>
</g>
</g>
<!-- Node1&#45;&gt;Node18 -->
<g id="edge26" class="edge">
<title>Node1&#45;&gt;Node18</title>
<path fill="none" stroke="midnightblue" d="M1403.7,-73.39C1342.61,-68.43 1251.6,-61.03 1199.51,-56.79"/>
<polygon fill="midnightblue" stroke="midnightblue" points="1403.74,-76.91 1413.99,-74.23 1404.3,-69.93 1403.74,-76.91"/>
</g>
<!-- Node2&#45;&gt;Node3 -->
<g id="edge2" class="edge">
<title>Node2&#45;&gt;Node3</title>
<path fill="none" stroke="midnightblue" d="M1265,-109.51C1249.52,-113.31 1232.27,-117.54 1216.26,-121.46"/>
<polygon fill="midnightblue" stroke="midnightblue" points="1266.01,-112.87 1274.89,-107.09 1264.34,-106.07 1266.01,-112.87"/>
</g>
<!-- Node16 -->
<g id="node16" class="node">
<title>Node16</title>
<g id="a_node16"><a xlink:href="net_8c.html#acbc3d13e7f816d6baf6b7e30185ecf06" target="_top" xlink:title="Sends a CoAP message to given peer.">
<polygon fill="white" stroke="black" points="1113,-82 1113,-101 1203,-101 1203,-82 1113,-82"/>
<text text-anchor="middle" x="1158" y="-89" font-family="Helvetica,sans-Serif" font-size="10.00">coap_send_large</text>
</a>
</g>
</g>
<!-- Node2&#45;&gt;Node16 -->
<g id="edge21" class="edge">
<title>Node2&#45;&gt;Node16</title>
<path fill="none" stroke="midnightblue" d="M1241.8,-94.71C1228.57,-94.19 1215.14,-93.67 1203.05,-93.21"/>
<polygon fill="midnightblue" stroke="midnightblue" points="1241.72,-98.2 1251.85,-95.09 1241.99,-91.21 1241.72,-98.2"/>
</g>
<!-- Node4 -->
<g id="node4" class="node">
<title>Node4</title>
<g id="a_node4"><a xlink:href="net_8c.html#af838d89087ad96495f8ed7f1a9297168" target="_top" xlink:title=" ">
<polygon fill="white" stroke="black" points="974,-115 974,-134 1064,-134 1064,-115 974,-115"/>
<text text-anchor="middle" x="1019" y="-122" font-family="Helvetica,sans-Serif" font-size="10.00">handle_response</text>
</a>
</g>
</g>
<!-- Node3&#45;&gt;Node4 -->
<g id="edge3" class="edge">
<title>Node3&#45;&gt;Node4</title>
<path fill="none" stroke="midnightblue" d="M1089.59,-130.09C1080.95,-129.39 1072.29,-128.7 1064.15,-128.05"/>
<polygon fill="midnightblue" stroke="midnightblue" points="1089.45,-133.59 1099.69,-130.9 1090.01,-126.61 1089.45,-133.59"/>
</g>
<!-- Node5 -->
<g id="node5" class="node">
<title>Node5</title>
<g id="a_node5"><a xlink:href="net_8c.html#a7bb944fc52f772655356d95724317401" target="_top" xlink:title="Dispatches the PDUs from the receive queue in given context.">
<polygon fill="white" stroke="black" points="858,-85 858,-104 938,-104 938,-85 858,-85"/>
<text text-anchor="middle" x="898" y="-92" font-family="Helvetica,sans-Serif" font-size="10.00">coap_dispatch</text>
</a>
</g>
</g>
<!-- Node4&#45;&gt;Node5 -->
<g id="edge4" class="edge">
<title>Node4&#45;&gt;Node5</title>
<path fill="none" stroke="midnightblue" d="M970.11,-112.43C959.11,-109.65 947.55,-106.74 937.03,-104.09"/>
<polygon fill="midnightblue" stroke="midnightblue" points="969.47,-115.87 980.02,-114.93 971.18,-109.09 969.47,-115.87"/>
</g>
<!-- Node6 -->
<g id="node6" class="node">
<title>Node6</title>
<g id="a_node6"><a xlink:href="net_8c.html#a32887948ee273d1ad464ec47df194910" target="_top" xlink:title="Parses and interprets a CoAP datagram with context ctx.">
<polygon fill="white" stroke="black" points="718,-107 718,-126 822,-126 822,-107 718,-107"/>
<text text-anchor="middle" x="770" y="-114" font-family="Helvetica,sans-Serif" font-size="10.00">coap_handle_dgram</text>
</a>
</g>
</g>
<!-- Node5&#45;&gt;Node6 -->
<g id="edge5" class="edge">
<title>Node5&#45;&gt;Node6</title>
<path fill="none" stroke="midnightblue" d="M847.79,-103.09C839.4,-104.56 830.66,-106.08 822.21,-107.56"/>
<polygon fill="midnightblue" stroke="midnightblue" points="848.57,-106.51 857.82,-101.34 847.37,-99.61 848.57,-106.51"/>
</g>
<!-- Node15 -->
<g id="node15" class="node">
<title>Node15</title>
<g id="a_node15"><a xlink:href="net_8c.html#acd36f6fba6d30ab9557e0e6521f4a088" target="_top" xlink:title=" ">
<polygon fill="white" stroke="black" points="423.5,-72 423.5,-91 524.5,-91 524.5,-72 423.5,-72"/>
<text text-anchor="middle" x="474" y="-79" font-family="Helvetica,sans-Serif" font-size="10.00">coap_read_session</text>
</a>
</g>
</g>
<!-- Node5&#45;&gt;Node15 -->
<g id="edge20" class="edge">
<title>Node5&#45;&gt;Node15</title>
<path fill="none" stroke="midnightblue" d="M847.23,-92.97C766,-90.46 605.87,-85.53 524.7,-83.03"/>
<polygon fill="midnightblue" stroke="midnightblue" points="847.58,-96.48 857.68,-93.29 847.79,-89.48 847.58,-96.48"/>
</g>
<!-- Node7 -->
<g id="node7" class="node">
<title>Node7</title>
<g id="a_node7"><a xlink:href="net_8c.html#a8534f7860b14e0743529daff196a27ce" target="_top" xlink:title=" ">
<polygon fill="white" stroke="black" points="562,-104.5 562,-134.5 682,-134.5 682,-104.5 562,-104.5"/>
<text text-anchor="start" x="570" y="-122.5" font-family="Helvetica,sans-Serif" font-size="10.00">coap_handle_dgram_for</text>
<text text-anchor="middle" x="622" y="-111.5" font-family="Helvetica,sans-Serif" font-size="10.00">_proto</text>
</a>
</g>
</g>
<!-- Node6&#45;&gt;Node7 -->
<g id="edge6" class="edge">
<title>Node6&#45;&gt;Node7</title>
<path fill="none" stroke="midnightblue" d="M707.71,-117.76C699.21,-117.93 690.49,-118.11 682.04,-118.29"/>
<polygon fill="midnightblue" stroke="midnightblue" points="708.01,-121.25 717.94,-117.55 707.87,-114.26 708.01,-121.25"/>
</g>
<!-- Node8 -->
<g id="node8" class="node">
<title>Node8</title>
<g id="a_node8"><a xlink:href="net_8c.html#a44ffb4b70e537043e9a9cf344be24b92" target="_top" xlink:title=" ">
<polygon fill="white" stroke="black" points="422,-110 422,-129 526,-129 526,-110 422,-110"/>
<text text-anchor="middle" x="474" y="-117" font-family="Helvetica,sans-Serif" font-size="10.00">coap_read_endpoint</text>
</a>
</g>
</g>
<!-- Node7&#45;&gt;Node8 -->
<g id="edge7" class="edge">
<title>Node7&#45;&gt;Node8</title>
<path fill="none" stroke="midnightblue" d="M551.39,-119.5C542.96,-119.5 534.47,-119.5 526.37,-119.5"/>
<polygon fill="midnightblue" stroke="midnightblue" points="551.62,-123 561.62,-119.5 551.62,-116 551.62,-123"/>
</g>
<!-- Node7&#45;&gt;Node15 -->
<g id="edge17" class="edge">
<title>Node7&#45;&gt;Node15</title>
<path fill="none" stroke="midnightblue" d="M553.42,-101.91C539.06,-98.17 524.41,-94.36 511.72,-91.06"/>
<polygon fill="midnightblue" stroke="midnightblue" points="552.74,-105.35 563.3,-104.48 554.5,-98.58 552.74,-105.35"/>
</g>
<!-- Node9 -->
<g id="node9" class="node">
<title>Node9</title>
<g id="a_node9"><a xlink:href="group__app__io__internal.html#ga503f851fa137eb8a9c2936e2098c5eb9" target="_top" xlink:title="Process all the epoll events.">
<polygon fill="white" stroke="black" points="294,-110 294,-129 386,-129 386,-110 294,-110"/>
<text text-anchor="middle" x="340" y="-117" font-family="Helvetica,sans-Serif" font-size="10.00">coap_io_do_epoll</text>
</a>
</g>
</g>
<!-- Node8&#45;&gt;Node9 -->
<g id="edge8" class="edge">
<title>Node8&#45;&gt;Node9</title>
<path fill="none" stroke="midnightblue" d="M411.93,-119.5C403.3,-119.5 394.56,-119.5 386.3,-119.5"/>
<polygon fill="midnightblue" stroke="midnightblue" points="411.97,-123 421.97,-119.5 411.97,-116 411.97,-123"/>
</g>
<!-- Node12 -->
<g id="node12" class="node">
<title>Node12</title>
<g id="a_node12"><a xlink:href="group__app__io__internal.html#ga2208802b0711ad20df07271b751b41dc" target="_top" xlink:title="Processes any outstanding read, write, accept or connect I/O as indicated in the coap_socket_t struct...">
<polygon fill="white" stroke="black" points="300.5,-72 300.5,-91 379.5,-91 379.5,-72 300.5,-72"/>
<text text-anchor="middle" x="340" y="-79" font-family="Helvetica,sans-Serif" font-size="10.00">coap_io_do_io</text>
</a>
</g>
</g>
<!-- Node8&#45;&gt;Node12 -->
<g id="edge12" class="edge">
<title>Node8&#45;&gt;Node12</title>
<path fill="none" stroke="midnightblue" d="M429.96,-107.11C411.88,-101.91 391.18,-95.95 374.3,-91.09"/>
<polygon fill="midnightblue" stroke="midnightblue" points="429.11,-110.51 439.69,-109.91 431.05,-103.78 429.11,-110.51"/>
</g>
<!-- Node10 -->
<g id="node10" class="node">
<title>Node10</title>
<g id="a_node10"><a xlink:href="group__app__io.html#ga2758ed5fdd6ce79ec95ea8dbf72a5644" target="_top" xlink:title="The main message processing loop with additional fds for internal select.">
<polygon fill="white" stroke="black" points="126,-110 126,-129 258,-129 258,-110 126,-110"/>
<text text-anchor="middle" x="192" y="-117" font-family="Helvetica,sans-Serif" font-size="10.00">coap_io_process_with_fds</text>
</a>
</g>
</g>
<!-- Node9&#45;&gt;Node10 -->
<g id="edge9" class="edge">
<title>Node9&#45;&gt;Node10</title>
<path fill="none" stroke="midnightblue" d="M283.38,-119.5C275.15,-119.5 266.6,-119.5 258.2,-119.5"/>
<polygon fill="midnightblue" stroke="midnightblue" points="283.61,-123 293.61,-119.5 283.6,-116 283.61,-123"/>
</g>
<!-- Node11 -->
<g id="node11" class="node">
<title>Node11</title>
<g id="a_node11"><a xlink:href="group__app__io.html#ga082f7bbf15d3f37c31c2a0a5e78ea4cf" target="_top" xlink:title="The main I/O processing function.">
<polygon fill="white" stroke="black" points="0,-110 0,-129 90,-129 90,-110 0,-110"/>
<text text-anchor="middle" x="45" y="-117" font-family="Helvetica,sans-Serif" font-size="10.00">coap_io_process</text>
</a>
</g>
</g>
<!-- Node10&#45;&gt;Node11 -->
<g id="edge10" class="edge">
<title>Node10&#45;&gt;Node11</title>
<path fill="none" stroke="midnightblue" d="M115.53,-112.76C106.85,-112.78 98.23,-112.94 90.17,-113.23"/>
<polygon fill="midnightblue" stroke="midnightblue" points="115.7,-116.26 125.71,-112.78 115.72,-109.26 115.7,-116.26"/>
</g>
<!-- Node11&#45;&gt;Node10 -->
<g id="edge11" class="edge">
<title>Node11&#45;&gt;Node10</title>
<path fill="none" stroke="midnightblue" d="M100.41,-126.06C108.67,-126.24 117.25,-126.29 125.71,-126.22"/>
<polygon fill="midnightblue" stroke="midnightblue" points="100.26,-122.55 90.17,-125.77 100.07,-129.55 100.26,-122.55"/>
</g>
<!-- Node12&#45;&gt;Node10 -->
<g id="edge14" class="edge">
<title>Node12&#45;&gt;Node10</title>
<path fill="none" stroke="midnightblue" d="M292.46,-93.61C272.13,-98.9 248.63,-105.02 229.58,-109.98"/>
<polygon fill="midnightblue" stroke="midnightblue" points="293.36,-97 302.16,-91.09 291.6,-90.22 293.36,-97"/>
</g>
<!-- Node12&#45;&gt;Node11 -->
<g id="edge13" class="edge">
<title>Node12&#45;&gt;Node11</title>
<path fill="none" stroke="midnightblue" d="M290.32,-83.84C246.99,-86.4 181.98,-91.4 126,-100.5 111.21,-102.9 95.09,-106.53 81.22,-109.98"/>
<polygon fill="midnightblue" stroke="midnightblue" points="290.53,-87.33 300.31,-83.27 290.13,-80.35 290.53,-87.33"/>
</g>
<!-- Node13 -->
<g id="node13" class="node">
<title>Node13</title>
<g id="a_node13"><a xlink:href="net_8h.html#af937985e2b14a287a849663574d59bcb" target="_top" xlink:title=" ">
<polygon fill="white" stroke="black" points="161,-34 161,-53 223,-53 223,-34 161,-34"/>
<text text-anchor="middle" x="192" y="-41" font-family="Helvetica,sans-Serif" font-size="10.00">coap_read</text>
</a>
</g>
</g>
<!-- Node12&#45;&gt;Node13 -->
<g id="edge15" class="edge">
<title>Node12&#45;&gt;Node13</title>
<path fill="none" stroke="midnightblue" d="M292.43,-69.38C269.85,-63.5 243.38,-56.61 223.43,-51.42"/>
<polygon fill="midnightblue" stroke="midnightblue" points="291.6,-72.78 302.16,-71.91 293.36,-66 291.6,-72.78"/>
</g>
<!-- Node14 -->
<g id="node14" class="node">
<title>Node14</title>
<g id="a_node14"><a xlink:href="coap__io__contiki_8c.html#a75a7c93e10ca7858449ba304aad4ea37" target="_top" xlink:title=" ">
<polygon fill="white" stroke="black" points="3.5,-34 3.5,-53 86.5,-53 86.5,-34 3.5,-34"/>
<text text-anchor="middle" x="45" y="-41" font-family="Helvetica,sans-Serif" font-size="10.00">coap_run_once</text>
</a>
</g>
</g>
<!-- Node13&#45;&gt;Node14 -->
<g id="edge16" class="edge">
<title>Node13&#45;&gt;Node14</title>
<path fill="none" stroke="midnightblue" d="M150.92,-43.5C130.94,-43.5 106.81,-43.5 86.73,-43.5"/>
<polygon fill="midnightblue" stroke="midnightblue" points="150.96,-47 160.96,-43.5 150.96,-40 150.96,-47"/>
</g>
<!-- Node15&#45;&gt;Node9 -->
<g id="edge18" class="edge">
<title>Node15&#45;&gt;Node9</title>
<path fill="none" stroke="midnightblue" d="M429.96,-93.89C411.88,-99.09 391.18,-105.05 374.3,-109.91"/>
<polygon fill="midnightblue" stroke="midnightblue" points="431.05,-97.22 439.69,-91.09 429.11,-90.49 431.05,-97.22"/>
</g>
<!-- Node15&#45;&gt;Node12 -->
<g id="edge19" class="edge">
<title>Node15&#45;&gt;Node12</title>
<path fill="none" stroke="midnightblue" d="M413.14,-81.5C401.77,-81.5 390.16,-81.5 379.67,-81.5"/>
<polygon fill="midnightblue" stroke="midnightblue" points="413.47,-85 423.47,-81.5 413.47,-78 413.47,-85"/>
</g>
<!-- Node17&#45;&gt;Node18 -->
<g id="edge23" class="edge">
<title>Node17&#45;&gt;Node18</title>
<path fill="none" stroke="midnightblue" d="M1250.48,-31.07C1232.71,-35.43 1213.92,-40.04 1198.02,-43.93"/>
<polygon fill="midnightblue" stroke="midnightblue" points="1251.34,-34.46 1260.22,-28.68 1249.68,-27.67 1251.34,-34.46"/>
</g>
<!-- Node18&#45;&gt;Node5 -->
<g id="edge24" class="edge">
<title>Node18&#45;&gt;Node5</title>
<path fill="none" stroke="midnightblue" d="M1106.27,-61.56C1056.93,-69.4 983.03,-81.15 938.09,-88.29"/>
<polygon fill="midnightblue" stroke="midnightblue" points="1107.08,-64.98 1116.4,-59.95 1105.98,-58.06 1107.08,-64.98"/>
</g>
</g>
</svg>
